<?xml version="1.0" encoding="UTF-8" standalone="no"?>
<!-- Created with Inkscape (http://www.inkscape.org/) -->
<svg
   xmlns:dc="http://purl.org/dc/elements/1.1/"
   xmlns:cc="http://web.resource.org/cc/"
   xmlns:rdf="http://www.w3.org/1999/02/22-rdf-syntax-ns#"
   xmlns:svg="http://www.w3.org/2000/svg"
   xmlns="http://www.w3.org/2000/svg"
   xmlns:sodipodi="http://inkscape.sourceforge.net/DTD/sodipodi-0.dtd"
   xmlns:inkscape="http://www.inkscape.org/namespaces/inkscape"
   width="1000"
   height="1000"
   id="svg2"
   sodipodi:version="0.32"
   inkscape:version="0.43"
   version="1.0"
   sodipodi:docbase="/home/kkowal/tale/art/effect"
   sodipodi:docname="poison-cloud.svg">
  <defs
     id="defs4" />
  <sodipodi:namedview
     id="base"
     pagecolor="#ffffff"
     bordercolor="#666666"
     borderopacity="1.0"
     inkscape:pageopacity="0.0"
     inkscape:pageshadow="2"
     inkscape:zoom="0.49497475"
     inkscape:cx="588.62786"
     inkscape:cy="458.44064"
     inkscape:document-units="px"
     inkscape:current-layer="layer1"
     inkscape:window-width="1600"
     inkscape:window-height="1125"
     inkscape:window-x="0"
     inkscape:window-y="25" />
  <metadata
     id="metadata7">
    <rdf:RDF>
      <cc:Work
         rdf:about="">
        <dc:format>image/svg+xml</dc:format>
        <dc:type
           rdf:resource="http://purl.org/dc/dcmitype/StillImage" />
      </cc:Work>
    </rdf:RDF>
  </metadata>
  <g
     inkscape:label="Layer 1"
     inkscape:groupmode="layer"
     id="layer1">
    <path
       style="opacity:0.86163522;color:#000000;fill:#799244;fill-opacity:1;fill-rule:nonzero;stroke:none;stroke-width:80;stroke-linecap:butt;stroke-linejoin:miter;marker:none;marker-start:none;marker-mid:none;marker-end:none;stroke-miterlimit:4;stroke-dasharray:none;stroke-dashoffset:0;stroke-opacity:0.25465836;visibility:visible;display:inline;overflow:visible"
       d="M 681,29.84375 C 626.13902,31.927979 574.54693,59.413047 536.6875,98.25 C 519.96787,36.57201 432.5677,9.3036317 385.87438,54.849776 C 362.72012,74.853084 287.87675,41.365366 304.46284,103.22822 C 302.71382,115.11888 247.97613,90.865244 224.93901,104.14438 C 178.53824,129.04491 122.83622,127.35486 82.637625,164.25304 C 42.486834,203.64191 24.864717,266.22664 42.5625,320.15625 C 16.05361,369.61425 136.57582,393.78217 92.625,335.25 C 59.710999,287.92937 70.753043,210.94026 124.40625,183.53125 C 102.04659,235.98603 116.50359,294.92629 145.46875,341.71875 C 88.666311,363.43562 39.581558,418.94201 44.208166,482.59443 C 25.476951,541.78744 137.93227,579.92845 69.780551,624.4348 C -4.9490421,726.50127 39.879135,899.12825 164.72211,937.32599 C 229.7943,957.01685 299.58857,927.40646 344.15625,879.21875 C 343.90331,925.67633 376.94514,960.16352 418.39113,976.24846 C 495.13417,1003.3495 586.5651,976.00208 641.75,917.78125 C 680.63605,971.82558 759.03379,957.80739 810.07814,931.3643 C 897.29627,887.37708 946.82291,767.63323 890.72814,681.26126 C 853.68661,647.90622 932.87867,621.85061 939.2753,581.81915 C 978.02818,511.76859 985.67315,418.31197 938.90625,350.09375 C 990.41972,338.91366 980.23553,283.54178 971.20633,247.07711 C 965.72723,176.62319 929.00982,93.358445 852.05965,79.751209 C 818.75664,65.925436 805.6349,119.30371 788.53213,76.901195 C 760.90728,47.787219 721.5231,28.940856 681,29.84375 z M 451.09375,76.03125 C 497.74661,76.549498 521.68614,137.60452 494.375,173.34375 C 485.97803,218.52882 545.73592,216.97555 539.35523,173.73042 C 568.9912,119.67834 633.17114,80.544133 695.53713,86.708409 C 745.62321,92.983002 779.38498,131.55344 800.43096,173.06532 C 821.28454,221.27855 818.77069,294.75701 765.17524,320.09227 C 711.22863,358.21361 661.57257,416.11637 659.81461,484.99239 C 674.78014,550.94414 732.08771,480.82243 747.25317,451.17838 C 784.76719,417.83725 796.60687,334.7339 860.87906,358.33607 C 898.54395,375.04677 936.7332,408.43807 934.98106,455.8654 C 931.54413,526.38015 891.63789,594.11648 831.125,630.71875 C 794.79594,628.56297 772.9075,669.37932 730.45431,657.3431 C 700.48011,657.7279 651.7363,620.46179 637.75238,664.35281 C 640.30198,706.41339 673.57891,744.48407 658.82423,789.32712 C 645.12096,887.79655 535.61353,956.93021 441.02839,926.7749 C 386.46143,916.5554 357.72171,843.1328 397.78125,801.625 C 425.34774,770.55528 383.82945,693.33493 360.95579,754.44816 C 345.66156,835.84628 263.77656,907.59457 178.5014,887.23369 C 106.97915,867.01232 54.678398,783.4725 73.557444,710.37482 C 87.574274,668.39478 120.06878,632.29389 160.59375,614.4375 C 201.05442,626.83388 288.27432,596.24879 251.63309,543.97173 C 207.50602,508.77894 141.57756,591.86934 104.90912,526.36209 C 69.33713,491.01314 85.364799,431.49315 127.26789,409.06695 C 162.06695,403.0425 204.71658,381.22493 240.03861,377.52877 C 250.29171,343.78498 216.09503,319.28178 183.52896,302.03832 C 131.59242,276.08653 146.02769,196.91315 192.40906,173.0173 C 223.76676,162.90273 270.13388,141.97599 309.42309,171.44956 C 358.47007,186.63026 330.81115,264.86614 373.51759,272.43766 C 410.80427,226.19304 351.31191,167.93974 383.43063,119.35961 C 396.15064,94.111104 422.36764,75.884276 451.09375,76.03125 z M 348.34375,118.0625 C 347.04298,141.18643 310.30011,125.35244 348.34375,118.0625 z M 867.90625,143.3125 C 931.14416,176.26785 947.53189,263.38356 918.0625,324.46875 C 899.96884,303.15077 806.21895,313.36459 846.53125,257.5625 C 858.29421,224.6275 829.8874,160.96275 840.77745,150.40109 C 850.27193,152.97859 860.68288,149.74981 867.90625,143.3125 z M 842,683.0625 C 852.79549,727.90247 900.62137,774.46363 861.84683,819.82625 C 827.42791,877.77179 752.96772,915.1048 686.8125,892.65625 C 647.82516,871.25568 710.61456,820.06304 697.76012,780.37654 C 697.23881,748.06581 679.40866,694.23055 734.15625,714.3125 C 772.12477,714.74185 809.34467,701.6933 842,683.0625 z "
       id="path1339" />
    <path
       style="opacity:0.46540881;color:#000000;fill:#799244;fill-opacity:1;fill-rule:nonzero;stroke:none;stroke-width:80;stroke-linecap:butt;stroke-linejoin:miter;marker:none;marker-start:none;marker-mid:none;marker-end:none;stroke-miterlimit:4;stroke-dasharray:none;stroke-dashoffset:0;stroke-opacity:0.25465836;visibility:visible;display:inline;overflow:visible"
       d="M 444.20267,62.762575 C 394.31144,60.759243 365.41051,111.77801 364.91851,157.03668 C 361.70449,177.05576 365.49245,251.93408 364.50316,239.75602 C 362.81702,163.33095 272.33944,124.46002 208.50618,149.7685 C 164.91135,165.24674 120.85925,217.65133 137.80845,266.4145 C 155.89487,305.6373 203.95012,320.71706 218.51162,362.07585 C 163.95772,377.21009 96.922341,397.25534 74.892662,456.45473 C 60.103738,503.75715 94.174857,562.58426 145.63054,561.46504 C 176.01206,568.46472 222.80885,543.45259 241.07295,560.77876 C 237.01073,609.97001 176.04253,602.43129 141.81941,611.90374 C 93.528901,616.33884 76.502988,665.0575 60.655069,703.83933 C 28.364255,812.85363 145.0163,936.2181 253.19531,898.0978 C 322.74855,882.97196 348.16646,808.28075 384.10929,755.14083 C 388.80613,771.63872 363.92973,837.64733 371.95761,874.32609 C 374.48366,921.27704 422.28129,939.80736 461.34485,945.70595 C 566.67542,962.9158 684.85633,869.70241 673.54281,756.77223 C 657.91885,724.54391 641.13301,650.85346 699.39293,658.85836 C 734.64435,678.9682 776.86693,671.53971 812.77523,655.85918 C 902.01452,617.35929 971.40239,509.54857 936.9969,410.794 C 924.06076,365.97066 876.52698,329.65205 830.29129,347.50999 C 780.20065,363.66609 746.71012,410.30391 730.54174,459.15607 C 717.26771,502.14203 648.05837,486.10244 677.52736,441.28912 C 700.70198,378.96769 763.23581,349.56574 803.40866,301.05214 C 854.15793,236.07191 816.52013,136.5178 752.62267,95.967081 C 696.72234,55.283486 612.18283,64.605599 569.25894,120.30512 C 554.56953,138.37762 505.80584,197.24376 514.33968,137.98164 C 527.67832,96.172525 483.04767,58.358995 444.20267,62.762575 z M 530.27017,113.55884 C 507.30603,127.67136 552.28255,123.34729 530.27017,113.55884 z M 763.78825,369.93735 C 731.72915,366.68056 720.42354,441.28715 752.15901,395.82059 C 755.79373,386.82379 767.24826,380.64534 763.78825,369.93735 z "
       id="path1378" />
    <path
       style="opacity:0.73584906;color:#000000;fill:#799244;fill-opacity:1;fill-rule:nonzero;stroke:none;stroke-width:80;stroke-linecap:butt;stroke-linejoin:miter;marker:none;marker-start:none;marker-mid:none;marker-end:none;stroke-miterlimit:4;stroke-dasharray:none;stroke-dashoffset:0;stroke-opacity:0.25465836;visibility:visible;display:inline;overflow:visible"
       d="M 345.53125 90.3125 C 344.77242 90.351287 343.98821 90.444142 343.15625 90.5625 C 293.61321 100.64896 342.99237 183.06597 359.3125 120.03125 C 361.58567 107.75634 362.43244 89.448603 345.53125 90.3125 z M 368.375 91.0625 L 368.09375 91.53125 L 368.375 91.0625 z M 301.65625 118.65625 L 302.03125 118.8125 L 301.65625 118.65625 z M 302.0625 118.8125 L 302.46875 118.96875 L 302.0625 118.8125 z M 849.75 122.15625 C 791.20981 146.84235 860.58207 210.51743 835.25 249.5625 C 813.13069 296.33582 859.86312 327.07075 900.03125 331.28125 C 959.43529 324.91811 954.53218 253.35311 937.21875 211.8125 C 924.55064 170.67525 894.49185 130.11833 849.75 122.15625 z M 813.3125 127.5625 L 813.59375 128.125 L 813.3125 127.5625 z M 814.15625 129.25 L 814.5 129.90625 L 814.15625 129.25 z M 365.9375 142.1875 L 365.625 143.21875 L 365.9375 142.1875 z M 365.46875 143.71875 L 365.15625 144.6875 L 365.46875 143.71875 z M 145.5 162.375 L 145.3125 162.65625 L 145.5 162.375 z M 144.71875 163.5 C 75.436396 176.14116 38.014804 265.99394 73.40625 325.59375 C 65.015846 392.26637 194.25047 354.90473 137.78125 308.375 C 115.52164 262.9416 119.84621 206.95962 144.71875 163.5 z M 177 312.21875 L 177.90625 313 L 177 312.21875 z M 178.78125 313.84375 L 179.375 314.34375 L 178.78125 313.84375 z M 179.6875 314.625 L 180.28125 315.125 L 179.6875 314.625 z M 181.5 316.15625 L 182.125 316.6875 L 181.5 316.15625 z M 182.4375 316.9375 L 183.0625 317.4375 L 182.4375 316.9375 z M 183.71875 317.9375 L 184.34375 318.4375 L 183.71875 317.9375 z M 186.5625 320.15625 L 187.21875 320.59375 L 186.5625 320.15625 z M 187.875 321.09375 L 188.53125 321.53125 L 187.875 321.09375 z M 840.40625 673.3125 L 839.9375 673.59375 L 840.40625 673.3125 z M 835.8125 676.03125 C 790.05872 702.72991 733.99391 711.30622 682.40625 699.125 C 695.02734 763.46795 688.66975 834.57514 651.21875 889.96875 C 743.83827 954.42129 890.76916 873.65621 887.9375 761.40625 C 884.83096 726.93003 864.32365 695.17158 835.8125 676.03125 z M 352.96875 809.34375 L 352.78125 809.65625 L 352.96875 809.34375 z M 351.09375 812.21875 L 350.78125 812.65625 L 351.09375 812.21875 z "
       id="path1403" />
  </g>
</svg>
