<?xml version="1.0" encoding="UTF-8" standalone="no"?>
<!-- Created with Inkscape (http://www.inkscape.org/) -->
<svg
   xmlns:dc="http://purl.org/dc/elements/1.1/"
   xmlns:cc="http://web.resource.org/cc/"
   xmlns:rdf="http://www.w3.org/1999/02/22-rdf-syntax-ns#"
   xmlns:svg="http://www.w3.org/2000/svg"
   xmlns="http://www.w3.org/2000/svg"
   xmlns:sodipodi="http://inkscape.sourceforge.net/DTD/sodipodi-0.dtd"
   xmlns:inkscape="http://www.inkscape.org/namespaces/inkscape"
   width="744.09448819"
   height="1052.3622047"
   id="svg2"
   sodipodi:version="0.32"
   inkscape:version="0.43"
   sodipodi:docbase="C:\Documents and Settings\Cowbert\Desktop"
   sodipodi:docname="flowers.svg"
   inkscape:export-filename="C:\Documents and Settings\Cowbert\Desktop\flowers.png"
   inkscape:export-xdpi="90"
   inkscape:export-ydpi="90">
  <defs
     id="defs4" />
  <sodipodi:namedview
     id="base"
     pagecolor="#ffffff"
     bordercolor="#666666"
     borderopacity="1.0"
     inkscape:pageopacity="0.0"
     inkscape:pageshadow="2"
     inkscape:zoom="0.98994949"
     inkscape:cx="458.33727"
     inkscape:cy="770.59383"
     inkscape:document-units="px"
     inkscape:current-layer="layer1"
     inkscape:window-width="1045"
     inkscape:window-height="977"
     inkscape:window-x="-4"
     inkscape:window-y="-4" />
  <metadata
     id="metadata7">
    <rdf:RDF>
      <cc:Work
         rdf:about="">
        <dc:format>image/svg+xml</dc:format>
        <dc:type
           rdf:resource="http://purl.org/dc/dcmitype/StillImage" />
      </cc:Work>
    </rdf:RDF>
  </metadata>
  <g
     inkscape:label="Layer 1"
     inkscape:groupmode="layer"
     id="layer1">
    <path
       style="opacity:1;color:#000000;fill:#a42929;fill-opacity:1;fill-rule:evenodd;stroke:none;stroke-width:15;stroke-linecap:square;stroke-linejoin:miter;marker:none;marker-start:none;marker-mid:none;marker-end:none;stroke-miterlimit:4;stroke-dasharray:none;stroke-dashoffset:0;stroke-opacity:1;visibility:visible;display:inline;overflow:visible"
       d="M 385.30115,271.87851 C 360.31852,255.96561 371.02496,227.06996 411.53217,225.70478 C 433.12854,224.04655 471.61014,217.27007 475.90507,245.22125 C 479.53651,263.47697 425.69796,283.10002 467.39002,271.79103 C 503.17012,267.67279 545.53975,259.27839 577.80092,277.81401 C 593.84947,297.46393 569.69956,308.10071 540.74505,313.72555 C 492.55201,316.79288 487.71169,313.91064 463.72023,311.27137 C 451.69794,314.66179 491.17708,336.35558 476.47295,352.76294 C 463.74119,366.22915 436.57954,359.15226 421.24912,353.1904 C 390.92346,335.03759 399.4363,313.31142 379.95223,343.44473 C 361.91578,361.51749 324.09627,368.5534 301.95761,351.18465 C 287.92371,336.1327 292.89947,326.71294 320.37167,309.66378 C 361.92721,292.61639 344.76475,297.76305 317.87049,296.0155 C 297.16193,292.20885 247.40196,292.07555 257.72956,264.37676 C 270.12245,247.53155 301.18313,245.51564 321.43721,249.58715 C 345.16944,254.29554 364.97203,267.25665 386.97783,275.54444"
       id="path3218" />
    <path
       style="opacity:1;fill:#e3c596;fill-opacity:1;fill-rule:nonzero;stroke:none;stroke-width:1px;stroke-linecap:butt;stroke-linejoin:miter;stroke-opacity:1"
       d="M 385.08367,278.06798 C 384.84082,276.86926 382.92945,275.63421 381.54979,274.58073 C 373.32469,269.07442 362.41525,264.61448 351.2577,260.49207 C 338.08,255.57229 323.08918,251.84334 306.36664,250.74019 C 291.64283,249.92028 277.40772,251.97031 266.38818,256.66133 C 265.73279,256.9789 263.73859,257.91817 264.42189,257.61412 C 266.08201,256.87538 267.57929,256.05264 269.3197,255.35684 C 271.37637,254.53458 265.94041,257.35486 264.5864,258.45767 C 260.70637,261.61788 259.09928,265.08948 259.24809,268.7216 C 259.99707,274.37409 266.21053,279.01696 274.95255,282.7004 C 284.86827,286.64215 296.79421,289.17706 308.86135,291.24956 C 319.88042,293.13576 331.28171,294.43038 342.83837,295.29477 C 347.09774,295.60137 351.39252,295.74977 355.68737,295.88369 L 349.70988,299.80516 C 345.36056,299.65172 341.01114,299.48573 336.70015,299.1598 C 325.02455,298.2474 313.50471,296.91275 302.37566,294.98448 C 290.06619,292.84224 277.9322,290.2117 267.83642,286.16701 C 258.76575,282.32988 251.95897,277.41568 250.95255,271.53594 C 250.09593,263.57156 258.07087,257.36032 270.88674,252.31738 C 282.6564,247.75655 297.4273,245.90416 312.49525,246.87174 C 329.5225,248.13371 344.81745,251.94048 358.26863,256.9775 C 369.61601,261.17851 380.6785,265.72702 389.0822,271.31847 C 390.75907,272.5761 392.52939,273.8468 393.42535,275.28459 L 385.08367,278.06798 z "
       id="path3220" />
    <path
       style="color:#000000;fill:#a44129;fill-opacity:1;fill-rule:evenodd;stroke:none;stroke-width:15;stroke-linecap:square;stroke-linejoin:miter;marker:none;marker-start:none;marker-mid:none;marker-end:none;stroke-miterlimit:4;stroke-dasharray:none;stroke-dashoffset:0;stroke-opacity:1;visibility:visible;display:inline;overflow:visible;opacity:1"
       d="M 142.25781,229.36634 C 117.27518,213.45344 127.98162,184.55779 168.48882,183.19258 C 190.08519,181.53438 228.5668,174.75787 232.86172,202.70905 C 236.49316,220.9648 182.65462,240.58783 224.34667,229.27886 C 260.1268,225.16062 302.4964,216.76622 334.75757,235.30185 C 350.80612,254.95176 326.65621,265.58853 297.70171,271.21335 C 249.50866,274.28071 244.66834,271.39847 220.67689,268.75919 C 208.65459,272.14962 248.13374,293.8434 233.4296,310.25076 C 220.69784,323.71698 193.5362,316.64006 178.20577,310.67822 C 147.88011,292.52542 156.39295,270.79925 136.90889,300.93256 C 118.87244,319.00532 81.052922,326.04123 58.914266,308.67245 C 44.880363,293.62053 49.856122,284.20076 77.328345,267.15161 C 118.88387,250.10422 101.7214,255.25088 74.827149,253.50333 C 54.118588,249.69667 4.3586353,249.56337 14.686217,221.86459 C 27.079125,205.01938 58.139788,203.00347 78.393862,207.07499 C 102.1261,211.78334 121.9287,224.74445 143.93449,233.03227"
       id="path3182" />
    <path
       style="opacity:1;color:#000000;fill:#a48c29;fill-opacity:1;fill-rule:evenodd;stroke:none;stroke-width:15;stroke-linecap:square;stroke-linejoin:miter;marker:none;marker-start:none;marker-mid:none;marker-end:none;stroke-miterlimit:4;stroke-dasharray:none;stroke-dashoffset:0;stroke-opacity:1;visibility:visible;display:inline;overflow:visible"
       d="M 188.45031,71.390414 C 163.46767,55.477546 174.17412,26.58189 214.68133,25.216678 C 236.2777,23.558452 274.7593,16.781971 279.05423,44.733156 C 282.68567,62.9889 228.8471,82.611928 270.53918,71.302939 C 306.31928,67.184727 348.68889,58.790327 380.95008,77.32592 C 396.99861,96.975867 372.84872,107.61261 343.89421,113.23746 C 295.70115,116.30479 290.86085,113.42255 266.86939,110.7833 C 254.8471,114.17373 294.32624,135.86751 279.62209,152.27487 C 266.89035,165.74108 239.7287,158.66417 224.39828,152.70233 C 194.07261,134.54953 202.58546,112.82336 183.10139,142.95667 C 165.06494,161.0294 127.24541,168.06533 105.10677,150.69656 C 91.072868,135.64461 96.048628,126.22487 123.52083,109.17572 C 165.07635,92.1283 147.91391,97.274986 121.01965,95.527409 C 100.31107,91.720782 50.551121,91.587482 60.878723,63.888696 C 73.271611,47.043484 104.33229,45.02757 124.58637,49.099089 C 148.3186,53.807445 168.12119,66.768553 190.12699,75.056375"
       id="path1359" />
    <path
       style="opacity:1;fill:#e3c596;fill-opacity:1;fill-rule:nonzero;stroke:none;stroke-width:1px;stroke-linecap:butt;stroke-linejoin:miter;stroke-opacity:1"
       d="M 188.23283,77.579888 C 187.98998,76.381168 186.07861,75.146147 184.69895,74.09266 C 176.47385,68.586324 165.56441,64.12639 154.40686,60.004005 C 141.22916,55.0842 126.23834,51.355273 109.5158,50.252124 C 94.791994,49.432185 80.556885,51.482215 69.53734,56.173233 C 68.88193,56.490811 66.887748,57.430074 67.571053,57.126024 C 69.231174,56.387314 70.728451,55.564546 72.468843,54.868775 C 74.525529,54.046483 69.089568,56.866763 67.735556,57.969604 C 63.855529,61.129786 62.248445,64.601413 62.397256,68.233537 C 63.146234,73.886029 69.359672,78.528898 78.10171,82.212308 C 88.017431,86.154084 99.943366,88.688969 112.01051,90.761492 C 123.02959,92.647691 134.43087,93.94229 145.98753,94.806681 C 150.24691,95.113308 154.54168,95.261677 158.83653,95.395621 L 152.85904,99.317062 C 148.50972,99.163623 144.16031,98.997663 139.84931,98.671737 C 128.17371,97.759337 116.65387,96.424656 105.52482,94.496413 C 93.215351,92.354146 81.081364,89.723606 70.985579,85.678921 C 61.914912,81.841791 55.108135,76.927617 54.101708,71.047851 C 53.245092,63.08349 61.220027,56.872225 74.035904,51.829288 C 85.805559,47.268461 100.57646,45.41607 115.64441,46.38365 C 132.67164,47.645617 147.96661,51.452412 161.41779,56.489439 C 172.76515,60.690448 183.82766,65.238922 192.23136,70.830381 C 193.90822,72.088006 195.67855,73.358711 196.57451,74.796525 L 188.23283,77.579888 z "
       id="path1331" />
    <path
       style="opacity:1;fill:#e3c596;fill-opacity:1;fill-rule:nonzero;stroke:none;stroke-width:1px;stroke-linecap:butt;stroke-linejoin:miter;stroke-opacity:1"
       d="M 186.62233,76.813252 C 186.59585,76.038381 185.63457,75.05545 185.04908,74.266714 C 182.22299,70.680695 179.67466,67.049411 177.34469,63.384514 C 174.26349,58.572437 172.16227,53.645294 171.2748,48.635662 C 170.35983,43.578076 173.26047,38.991116 179.04787,34.797641 C 188.3333,28.832304 200.46996,25.186119 215.10168,23.06203 C 226.24642,21.419854 237.75249,21.113452 249.21315,21.991708 C 259.97946,22.966039 268.334,25.876399 275.08225,29.84851 C 281.76819,34.211894 283.85047,39.41404 283.3762,44.716294 C 282.75508,50.178289 278.63288,55.291755 273.54031,60.130946 C 268.86569,64.419851 262.60826,68.233481 255.91226,71.843533 C 250.05217,74.890723 243.89549,77.809991 237.52287,80.615285 L 241.93801,76.252182 C 252.23534,71.614579 232.3992,80.886423 246.73703,73.954514 C 253.46823,70.414151 259.8162,66.68682 264.62283,62.477688 C 269.81379,57.769472 274.04652,52.804235 274.96583,47.452712 C 275.44853,42.374314 274.1359,37.393756 267.66113,33.167846 C 261.27877,29.373011 253.32496,26.670569 243.038,25.843488 C 231.833,25.08898 220.6141,25.515405 209.81458,27.200884 C 203.38589,28.200901 197.15174,29.445865 191.59305,31.304503 C 189.64323,31.956466 184.44742,34.294776 186.07974,33.469346 C 187.73943,32.630052 189.47331,31.824454 191.1821,31.00768 C 192.24527,30.499409 186.981,33.034518 188.12349,32.591734 C 182.07674,36.515136 178.82288,40.873898 179.53445,45.797707 C 180.26723,50.743617 182.29321,55.60614 185.29889,60.356176 C 187.59292,64.006114 190.10453,67.623281 192.92128,71.190506 C 193.62943,72.130441 194.36626,73.076538 194.96407,74.029945 L 186.62233,76.813252 z "
       id="path1333" />
    <path
       style="opacity:1;fill:#e3c596;fill-opacity:1;fill-rule:nonzero;stroke:none;stroke-width:1px;stroke-linecap:butt;stroke-linejoin:miter;stroke-opacity:1"
       d="M 383.47319,277.30132 C 383.44669,276.52645 382.48541,275.54352 381.89992,274.75478 C 379.07385,271.16876 376.5255,267.53748 374.19552,263.87258 C 371.11432,259.0605 369.01311,254.13336 368.12564,249.12375 C 367.21066,244.06617 370.11133,239.47919 375.8987,235.28571 C 385.18414,229.3204 397.3208,225.67422 411.95252,223.5501 C 423.09726,221.90795 434.60334,221.60155 446.064,222.47981 C 456.8303,223.45414 465.18484,226.36447 471.93309,230.33658 C 478.61903,234.69996 480.70131,239.90214 480.22704,245.20436 C 479.60592,250.66635 475.48372,255.77985 470.39116,260.61904 C 465.71653,264.90794 459.45912,268.72155 452.7631,272.33163 C 446.90303,275.37879 440.74633,278.29806 434.37371,281.10338 L 438.78885,276.74027 C 449.08618,272.10264 429.25004,281.37452 443.58787,274.44261 C 450.31907,270.90224 456.66704,267.17491 461.47368,262.96575 C 466.66464,258.25754 470.89736,253.2923 471.81667,247.94078 C 472.29939,242.86238 470.98674,237.88186 464.51197,233.65594 C 458.12961,229.86111 450.1758,227.15864 439.88885,226.33156 C 428.68386,225.57705 417.46494,226.00348 406.66542,227.68898 C 400.23673,228.689 394.00258,229.93394 388.44389,231.79257 C 386.49409,232.44456 381.29826,234.78287 382.93058,233.95742 C 384.59029,233.11812 386.32416,232.31252 388.03294,231.49575 C 389.09612,230.98751 383.83184,233.52262 384.97433,233.07983 C 378.92759,237.00321 375.67371,241.36199 376.38529,246.28577 C 377.11807,251.23168 379.14405,256.09421 382.14973,260.84427 C 384.44378,264.49421 386.95537,268.11137 389.77212,271.6786 C 390.48027,272.61851 391.2171,273.56463 391.81491,274.51801 L 383.47319,277.30132 z "
       id="path3222" />
    <path
       style="opacity:1;color:#000000;fill:#7529a4;fill-opacity:1;fill-rule:evenodd;stroke:none;stroke-width:15;stroke-linecap:square;stroke-linejoin:miter;marker:none;marker-start:none;marker-mid:none;marker-end:none;stroke-miterlimit:4;stroke-dasharray:none;stroke-dashoffset:0;stroke-opacity:1;visibility:visible;display:inline;overflow:visible"
       d="M 476.59081,143.30498 C 451.60816,127.39211 462.31462,98.496422 502.82182,97.131238 C 524.4182,95.473013 562.8998,88.696532 567.19472,116.64772 C 570.82617,134.90343 516.9876,154.52649 558.67967,143.2175 C 594.45978,139.09926 636.82939,130.70486 669.09057,149.24048 C 685.1391,168.8904 660.98921,179.52717 632.03471,185.15202 C 583.84165,188.21935 579.00135,185.33711 555.00989,182.69783 C 542.98759,186.08826 582.46674,207.78204 567.76258,224.1894 C 555.03084,237.65565 527.8692,230.57873 512.53877,224.61686 C 482.21311,206.46406 490.72595,184.73792 471.24189,214.87123 C 453.20544,232.94396 415.3859,239.97987 393.24727,222.61112 C 379.21336,207.55917 384.18912,198.1394 411.66133,181.09028 C 453.21685,164.04286 436.0544,169.18955 409.16015,167.44197 C 388.45157,163.63531 338.69162,163.50201 349.01922,135.80323 C 361.41211,118.95802 392.47279,116.9421 412.72686,121.01362 C 436.4591,125.72201 456.26168,138.68311 478.26749,146.97091"
       id="path3164" />
    <path
       style="opacity:1;fill:#e3c596;fill-opacity:1;fill-rule:nonzero;stroke:none;stroke-width:1px;stroke-linecap:butt;stroke-linejoin:miter;stroke-opacity:1"
       d="M 235.74145,79.873606 C 235.30641,78.146532 242.18293,76.167899 245.62388,74.924671 C 250.28335,73.295661 255.47486,72.084196 260.75895,70.990458 C 271.36317,68.917964 282.571,67.681486 293.76342,66.568029 C 306.60367,65.321804 319.56366,64.183922 332.70701,64.134008 C 345.97121,64.075831 358.07559,66.500105 368.5021,70.255726 C 379.21664,74.284641 386.53423,79.892905 389.50402,86.208144 C 393.7762,95.200979 384.58529,100.83263 371.83588,106.87816 C 360.12648,111.88471 344.93731,114.08048 329.67317,115.23237 C 316.09976,116.20121 302.31785,115.98438 288.78,115.02075 C 279.41731,114.35946 270.3345,113.07035 261.6548,111.29698 C 255.51924,109.99252 250.02503,108.15394 244.91691,106.09937 C 243.98204,105.72983 243.13855,105.31299 242.24983,104.92003 L 249.43571,101.48605 C 250.29297,101.86433 251.10549,102.2663 252.00826,102.62138 C 256.9585,104.60383 262.28801,106.37233 268.25141,107.60606 C 276.79253,109.31151 285.71557,110.53592 294.90576,111.1513 C 308.27192,112.05311 321.86897,112.20865 335.23094,111.17415 C 350.22704,109.94726 365.05058,107.64191 376.20442,102.50441 C 374.67977,103.24511 373.16799,103.99181 371.63049,104.72645 C 368.9206,106.02128 376.86684,102.00371 378.69535,100.39808 C 382.55818,97.005949 382.52331,92.891435 381.44147,89.171107 C 378.84528,83.065076 371.84491,77.645123 361.51501,73.780907 C 351.40291,70.166457 339.69287,67.928507 326.87207,68.103486 C 313.84718,68.24124 301.01412,69.40209 288.28962,70.651872 C 277.20695,71.77715 266.10576,73.038304 255.67476,75.186286 C 250.52822,76.313188 245.4733,77.560337 241.01962,79.243519 C 234.13739,82.002457 244.02814,78.973698 244.08317,77.090299 L 235.74145,79.873606 z "
       id="path1337" />
    <path
       style="opacity:1;fill:#e3c596;fill-opacity:1;fill-rule:nonzero;stroke:none;stroke-width:1px;stroke-linecap:butt;stroke-linejoin:miter;stroke-opacity:1"
       d="M 242.6133,104.93073 C 250.14463,101.08203 247.19076,100.2214 252.16131,102.66676 C 257.41464,105.34282 261.58935,108.42166 265.35465,111.59921 C 272.0116,117.38441 277.10305,123.54837 281.07719,129.85708 C 284.71806,135.63304 286.96702,141.59322 286.44642,147.62791 C 285.47625,153.20164 278.03264,157.5574 267.59741,160.1312 C 260.45313,161.68307 253.02445,161.421 245.61278,160.54244 C 237.49365,159.45077 230.12322,157.52147 223.32761,155.18422 C 216.30752,152.67796 210.8086,149.45535 206.26105,145.91958 C 201.67433,142.17676 199.20233,138.01233 197.36545,133.8035 C 195.73666,129.77498 195.2175,125.6759 195.12493,121.58189 C 195.05471,118.76514 195.51723,115.95802 196.17913,113.16164 L 204.67334,110.48426 C 203.96536,113.24362 203.43781,116.01446 203.46489,118.79738 C 203.48502,122.83473 203.93055,126.87821 205.45583,130.85763 C 207.16103,134.96279 209.46598,139.03246 213.86515,142.69494 C 218.208,146.1243 223.50054,149.24247 230.30076,151.65277 C 236.8913,153.89833 244.04696,155.74501 251.93219,156.7438 C 258.98963,157.50052 265.98775,157.59183 272.53291,155.89557 C 276.13385,154.81592 282.45274,151.7247 271.61965,156.96928 C 270.12647,157.69219 281.20678,150.27178 278.00638,150.34363 C 278.84936,144.42392 276.6194,138.56309 273.12395,132.88592 C 269.25416,126.64046 264.25888,120.53989 257.72272,114.80897 C 254.0091,111.71374 250.05838,108.66868 244.89235,106.06108 C 240.1695,103.73372 239.94866,104.74346 248.47596,100.97044 L 242.6133,104.93073 z "
       id="path1341" />
    <path
       style="opacity:1;fill:#e3c596;fill-opacity:1;fill-rule:nonzero;stroke:none;stroke-width:1px;stroke-linecap:butt;stroke-linejoin:miter;stroke-opacity:1"
       d="M 201.78112,108.99855 C 203.00266,109.24328 202.92567,109.85779 203.51122,110.29735 C 204.29961,112.31198 203.72906,114.37299 203.23949,116.38944 C 201.98091,120.91696 199.58408,125.34972 196.757,129.70798 C 193.1633,135.19664 188.35467,140.48971 182.71705,145.57172 C 176.62436,151.15948 167.57523,155.96234 156.38748,159.35075 C 148.43215,161.63251 139.48226,162.13353 130.38321,161.87572 C 120.51958,161.41162 112.10463,159.18398 104.94017,156.04242 C 98.140942,152.80129 94.800538,148.67274 93.194246,144.24749 C 91.840839,139.55554 93.471499,134.90763 96.131577,130.3937 C 99.170077,125.57193 104.30759,121.17118 110.01107,116.96115 C 115.3413,113.07744 121.63357,109.53142 128.24923,106.13357 C 135.54628,102.4152 143.21433,98.869517 151.79026,95.825744 C 154.45554,94.857716 157.32403,94.035367 160.19867,93.219377 L 155.35729,97.47946 C 152.56,98.319398 149.77305,99.167712 147.1661,100.13989 C 143.11372,101.64134 127.73945,108.64725 140.00461,102.81362 C 140.86264,102.40554 136.53722,104.46299 137.44859,104.04637 C 130.78436,107.38752 124.44348,110.88148 119.03707,114.70987 C 113.28203,118.83382 108.04067,123.13883 104.8375,127.87424 C 102.05298,132.24668 100.24859,136.75963 101.35373,141.34488 C 102.67975,145.56634 105.66326,149.51649 112.12675,152.60878 C 118.94201,155.58804 126.97395,157.63886 136.37126,157.95792 C 145.17865,158.09422 153.69216,157.44654 161.16396,155.0742 C 164.58431,153.93648 174.85645,149.30751 163.44036,154.73836 C 162.10447,155.37385 175.16209,147.58489 173.79251,147.91238 C 179.51169,142.8965 184.36315,137.65436 188.04396,132.22186 C 190.91144,127.9143 193.36822,123.53529 194.73327,119.05821 C 195.26818,117.13837 195.82994,115.18876 195.43398,113.25133 C 195.6327,113.1313 194.57293,112.02902 195.91844,112.95882 L 201.78112,108.99855 z "
       id="path1343" />
    <path
       style="opacity:1;color:#000000;fill:#f1e655;fill-opacity:1;fill-rule:evenodd;stroke:none;stroke-width:15;stroke-linecap:square;stroke-linejoin:miter;marker:none;marker-start:none;marker-mid:none;marker-end:none;stroke-miterlimit:4;stroke-dasharray:none;stroke-dashoffset:0;stroke-opacity:1;visibility:visible;display:inline;overflow:visible"
       d="M 185.8901,87.686852 C 179.01923,91.796493 182.20566,102.38069 190.19372,103.63896 C 200.69354,106.49454 212.11706,103.01526 220.80414,97.747713 C 225.13167,93.399566 220.34296,87.510697 215.07744,85.98003 C 206.03199,82.05083 194.14138,82.412917 185.8901,87.686852 z "
       id="path2245" />
    <path
       style="opacity:1;fill:#e3c596;fill-opacity:1;fill-rule:nonzero;stroke:none;stroke-width:1px;stroke-linecap:butt;stroke-linejoin:miter;stroke-opacity:1"
       d="M 201.11653,85.225718 C 203.12629,85.964792 200.84044,85.404506 200.58996,85.566741 C 198.5701,85.493887 196.63347,85.73186 194.69202,85.947622 C 191.52891,86.374328 189.19765,87.367649 186.87551,88.41377 C 198.8374,81.99425 188.99486,87.696908 186.9492,89.958387 C 185.37501,91.852345 185.38109,93.712355 186.45552,95.644995 C 188.01476,97.656204 191.17395,99.006262 194.81031,100.17227 C 198.43212,101.22668 202.37706,101.53132 206.54138,101.49938 C 210.34508,101.39967 213.45732,100.56906 216.52972,99.590636 C 223.16045,96.062542 209.1515,104.34779 216.65286,99.130403 C 218.50851,97.762278 218.98442,96.264858 219.1602,94.682092 C 219.16688,93.2033 218.02941,91.901335 216.62668,90.61836 C 215.13317,89.415159 212.86221,88.592363 210.50864,87.801414 C 207.87427,86.980102 205.04418,86.335758 202.16311,85.740795 C 201.73027,85.655617 201.28697,85.583547 200.84888,85.505007 L 207.35586,81.778432 C 207.81223,81.864255 208.27425,81.943328 208.72496,82.035957 C 211.71501,82.678732 214.66352,83.364784 217.39967,84.233769 C 219.99511,85.126142 222.49381,86.061987 224.20331,87.379274 C 225.84916,88.787061 227.23519,90.225519 227.45051,91.864277 C 227.50407,93.580455 227.31007,95.243807 225.59542,96.805229 C 222.23461,99.627414 217.50014,102.05256 211.80824,103.88086 C 208.32906,104.78687 204.80008,105.50289 200.72968,105.47656 C 196.18534,105.37402 191.86582,104.94524 187.96614,103.76013 C 183.96408,102.43733 180.46832,100.91285 178.57803,98.718038 C 177.16076,96.62546 176.74297,94.580416 178.19942,92.443274 C 180.77796,88.932153 185.14606,86.523341 191.26027,84.043692 C 193.91075,83.026646 196.6796,82.156624 200.09256,81.841931 C 202.29232,81.686391 204.49775,81.490068 206.72033,81.698884 C 207.77029,81.932768 208.85353,81.838374 209.45821,82.442327 L 201.11653,85.225718 z "
       id="path1345" />
    <path
       style="opacity:1;fill:#e3c596;fill-opacity:1;fill-rule:nonzero;stroke:none;stroke-width:1px;stroke-linecap:butt;stroke-linejoin:miter;stroke-opacity:1"
       d="M 476.37332,149.49445 C 476.13047,148.29573 474.21911,147.06068 472.83945,146.00722 C 464.61434,140.50088 453.70491,136.04095 442.54736,131.91854 C 429.36966,126.99876 414.37884,123.26981 397.6563,122.16666 C 382.93249,121.34675 368.69738,123.39678 357.67783,128.08779 C 357.02242,128.40537 355.02824,129.34463 355.71155,129.04058 C 357.37167,128.30185 358.86895,127.47911 360.60936,126.78334 C 362.66602,125.96104 357.23006,128.78132 355.87605,129.88414 C 351.99602,133.04435 350.38894,136.51597 350.53775,140.1481 C 351.28673,145.80056 357.50019,150.44343 366.2422,154.12687 C 376.15793,158.06862 388.08386,160.60353 400.15101,162.67602 C 411.17008,164.56225 422.57137,165.85685 434.12803,166.72124 C 438.3874,167.02784 442.68217,167.17624 446.97702,167.31015 L 440.99953,171.23162 C 436.65021,171.07818 432.3008,170.9122 427.98981,170.58627 C 416.31421,169.6739 404.79436,168.33922 393.66531,166.41095 C 381.35585,164.26871 369.22186,161.63817 359.12607,157.59348 C 350.05541,153.75635 343.24863,148.84215 342.2422,142.96241 C 341.38559,134.99802 349.36052,128.78679 362.1764,123.74385 C 373.94605,119.18302 388.71696,117.33063 403.7849,118.29821 C 420.81215,119.56018 436.1071,123.36695 449.55828,128.404 C 460.90565,132.60498 471.96816,137.15348 480.37185,142.74494 C 482.04872,144.00257 483.81904,145.27327 484.715,146.71106 L 476.37332,149.49445 z "
       id="path3166" />
    <path
       style="opacity:1;fill:#e3c596;fill-opacity:1;fill-rule:nonzero;stroke:none;stroke-width:1px;stroke-linecap:butt;stroke-linejoin:miter;stroke-opacity:1"
       d="M 474.76284,148.72778 C 474.73634,147.95291 473.77507,146.96998 473.18958,146.18125 C 470.36349,142.59523 467.81516,138.96397 465.48518,135.29905 C 462.40398,130.48697 460.30276,125.55983 459.41529,120.55022 C 458.50032,115.49264 461.40097,110.90565 467.18836,106.71217 C 476.47379,100.74686 488.61046,97.100679 503.24217,94.976562 C 514.38692,93.334415 525.89299,93.028012 537.35365,93.906269 C 548.11995,94.8806 556.4745,97.790932 563.22275,101.76304 C 569.90869,106.12643 571.99097,111.3286 571.5167,116.63083 C 570.89557,122.09285 566.77338,127.20632 561.68081,132.04551 C 557.00618,136.33441 550.74876,140.14804 544.05275,143.75809 C 538.19269,146.80526 532.03598,149.72452 525.66336,152.52985 L 530.07851,148.16674 C 540.37584,143.52911 520.5397,152.80098 534.87752,145.86907 C 541.60872,142.32871 547.9567,138.60138 552.76333,134.39222 C 557.95429,129.684 562.18701,124.71877 563.10632,119.36727 C 563.58903,114.28885 562.27639,109.30832 555.80162,105.08241 C 549.41927,101.28757 541.46546,98.585102 531.1785,97.75802 C 519.9735,97.00354 508.75459,97.429938 497.95508,99.115445 C 491.52638,100.11546 485.29224,101.3604 479.73355,103.21904 C 477.78373,103.87103 472.58792,106.20934 474.22024,105.38388 C 475.87995,104.54458 477.61381,103.73899 479.32259,102.92224 C 480.38577,102.41397 475.1215,104.94908 476.26399,104.5063 C 470.21724,108.42967 466.96337,112.78846 467.67495,117.71224 C 468.40772,122.65818 470.43371,127.52067 473.43939,132.27074 C 475.73342,135.92068 478.24502,139.53784 481.06178,143.10507 C 481.76992,144.045 482.50675,144.9911 483.10456,145.94448 L 474.76284,148.72778 z "
       id="path3168" />
    <path
       style="opacity:1;fill:#e3c596;fill-opacity:1;fill-rule:nonzero;stroke:none;stroke-width:1px;stroke-linecap:butt;stroke-linejoin:miter;stroke-opacity:1"
       d="M 523.88195,151.78817 C 523.44691,150.06109 530.32343,148.08246 533.76438,146.8392 C 538.42385,145.21019 543.61535,143.99876 548.89945,142.90499 C 559.50366,140.8325 570.71149,139.59602 581.90392,138.48256 C 594.74416,137.23636 607.70415,136.09848 620.84751,136.04854 C 634.11171,135.99036 646.21608,138.41467 656.64259,142.17029 C 667.35714,146.1992 674.67472,151.80747 677.64451,158.12268 C 681.91669,167.11554 672.72579,172.74719 659.97638,178.79272 C 648.26698,183.79927 633.0778,185.99504 617.81367,187.14693 C 604.24025,188.11574 590.45835,187.89894 576.9205,186.93528 C 567.55781,186.27399 558.475,184.98491 549.79529,183.21154 C 543.65973,181.90708 538.16553,180.06847 533.05741,178.0139 C 532.12254,177.64436 531.27905,177.22755 530.39033,176.83456 L 537.57621,173.40061 C 538.43347,173.77886 539.246,174.18086 540.14875,174.53592 C 545.09899,176.51839 550.42851,178.28689 556.39191,179.52062 C 564.93302,181.22607 573.85607,182.45048 583.04625,183.06583 C 596.41241,183.96767 610.00946,184.12321 623.37143,183.08871 C 638.36754,181.86182 653.19108,179.55647 664.34491,174.41895 C 662.82027,175.15967 661.30849,175.90634 659.771,176.64099 C 657.06109,177.93581 665.00734,173.91827 666.83585,172.31262 C 670.69868,168.92051 670.6638,164.806 669.58197,161.08564 C 666.98577,154.97964 659.98541,149.55966 649.65551,145.69547 C 639.54341,142.08102 627.83337,139.84304 615.01257,140.01805 C 601.98768,140.15577 589.15462,141.31665 576.43012,142.5664 C 565.34745,143.69168 554.24625,144.95286 543.81526,147.10082 C 538.66871,148.22775 533.6138,149.47487 529.16012,151.15805 C 522.27788,153.91699 532.16863,150.88823 532.22367,149.00483 L 523.88195,151.78817 z "
       id="path3170" />
    <path
       style="opacity:1;fill:#e3c596;fill-opacity:1;fill-rule:nonzero;stroke:none;stroke-width:1px;stroke-linecap:butt;stroke-linejoin:miter;stroke-opacity:1"
       d="M 530.7538,176.84526 C 538.28513,172.99657 535.33125,172.13596 540.30181,174.58132 C 545.55514,177.25738 549.72985,180.33619 553.49515,183.51374 C 560.15209,189.29897 565.24354,195.46293 569.21769,201.77161 C 572.85856,207.54757 575.10751,213.50778 574.58692,219.54247 C 573.61674,225.11617 566.17313,229.47194 555.73791,232.04573 C 548.59362,233.59763 541.16495,233.33554 533.75327,232.45697 C 525.63415,231.36534 518.26372,229.43603 511.46811,227.09878 C 504.44801,224.5925 498.94911,221.36991 494.40155,217.83411 C 489.81483,214.09132 487.34283,209.92689 485.50595,205.71807 C 483.87715,201.68951 483.35799,197.59043 483.26543,193.49642 C 483.19521,190.6797 483.65773,187.87258 484.31963,185.0762 L 492.81384,182.39883 C 492.10586,185.15818 491.57831,187.929 491.60539,190.71194 C 491.62552,194.74926 492.07104,198.79277 493.59633,202.77216 C 495.30153,206.87735 497.6065,210.94702 502.00564,214.60948 C 506.3485,218.03884 511.64104,221.15703 518.44125,223.56733 C 525.03179,225.8129 532.18745,227.65957 540.07269,228.65833 C 547.13012,229.41508 554.12824,229.50636 560.6734,227.81013 C 564.27435,226.73048 570.59324,223.63926 559.76015,228.88384 C 558.26696,229.60672 569.34728,222.18635 566.14688,222.25819 C 566.98986,216.33845 564.7599,210.47762 561.26444,204.80045 C 557.39466,198.55499 552.39938,192.45442 545.86321,186.72353 C 542.14959,183.6283 538.19888,180.58321 533.03285,177.97561 C 528.30999,175.64828 528.08915,176.65802 536.61646,172.885 L 530.7538,176.84526 z "
       id="path3172" />
    <path
       style="opacity:1;color:#000000;fill:#f1e655;fill-opacity:1;fill-rule:evenodd;stroke:none;stroke-width:15;stroke-linecap:square;stroke-linejoin:miter;marker:none;marker-start:none;marker-mid:none;marker-end:none;stroke-miterlimit:4;stroke-dasharray:none;stroke-dashoffset:0;stroke-opacity:1;visibility:visible;display:inline;overflow:visible"
       d="M 474.0306,159.60141 C 467.15973,163.71103 470.34615,174.29525 478.33422,175.55352 C 488.83403,178.40907 500.25756,174.92982 508.94464,169.66225 C 513.27217,165.31413 508.48345,159.42523 503.21794,157.89456 C 494.17249,153.96539 482.28188,154.32748 474.0306,159.60141 z "
       id="path3176" />
    <path
       style="opacity:1;fill:#e3c596;fill-opacity:1;fill-rule:nonzero;stroke:none;stroke-width:1px;stroke-linecap:butt;stroke-linejoin:miter;stroke-opacity:1"
       d="M 489.25702,157.14028 C 491.26678,157.87932 488.98094,157.31907 488.73045,157.4813 C 486.7106,157.40845 484.77396,157.64642 482.83252,157.86218 C 479.6694,158.28886 477.33814,159.28218 475.01601,160.32833 C 486.97789,153.90881 477.13535,159.61144 475.0897,161.87292 C 473.51551,163.76688 473.52158,165.62689 474.59602,167.55956 C 476.15526,169.57076 479.31444,170.92082 482.95081,172.0868 C 486.57262,173.14121 490.51756,173.44585 494.68188,173.41394 C 498.48557,173.31423 501.59782,172.48359 504.67021,171.5052 C 511.30094,167.9771 497.29201,176.26235 504.79335,171.04494 C 506.649,169.67684 507.12493,168.17939 507.3007,166.59663 C 507.30737,165.11786 506.1699,163.8159 504.76717,162.53289 C 503.27367,161.32972 501.00271,160.5069 498.64913,159.71595 C 496.01476,158.89466 493.18467,158.25032 490.30361,157.65536 C 489.87077,157.57015 489.42747,157.49811 488.98937,157.41954 L 495.49636,153.69296 C 495.95273,153.77882 496.41474,153.85789 496.86546,153.95052 C 499.8555,154.59327 502.80402,155.27934 505.54016,156.14833 C 508.1356,157.0407 510.63431,157.97655 512.34381,159.29381 C 513.98965,160.70159 515.37569,162.14005 515.591,163.77884 C 515.64457,165.49502 515.45057,167.15837 513.73592,168.71976 C 510.37511,171.54197 505.64063,173.96712 499.94873,175.79542 C 496.46955,176.70143 492.94058,177.41743 488.87019,177.3911 C 484.32583,177.28858 480.00631,176.8598 476.10663,175.67467 C 472.10458,174.35189 468.60882,172.82739 466.71852,170.6326 C 465.30127,168.53999 464.88347,166.49498 466.33991,164.35783 C 468.91845,160.84669 473.28656,158.4379 479.40077,155.95822 C 482.05125,154.94121 484.8201,154.07116 488.23306,153.75649 C 490.43282,153.60092 492.63824,153.40463 494.86083,153.61342 C 495.91078,153.84733 496.99403,153.75293 497.59871,154.35689 L 489.25702,157.14028 z "
       id="path3178" />
    <path
       style="opacity:1;fill:#e3c596;fill-opacity:1;fill-rule:nonzero;stroke:none;stroke-width:1px;stroke-linecap:butt;stroke-linejoin:miter;stroke-opacity:1"
       d="M 432.59229,280.3617 C 432.15725,278.63463 439.03378,276.65599 442.47473,275.41274 C 447.13419,273.78373 452.3257,272.57229 457.60979,271.47852 C 468.21401,269.40603 479.42184,268.16955 490.61426,267.05609 C 503.45451,265.8099 516.4145,264.67199 529.55786,264.62207 C 542.82205,264.5639 554.92643,266.9882 565.35294,270.74379 C 576.06749,274.77273 583.38507,280.381 586.35486,286.69621 C 590.62704,295.68907 581.43613,301.32073 568.68672,307.36625 C 556.97732,312.37281 541.78815,314.56857 526.52403,315.72046 C 512.9506,316.68927 499.16869,316.47248 485.63084,315.50882 C 476.26817,314.84753 467.18534,313.55845 458.50564,311.78504 C 452.37008,310.48061 446.87587,308.642 441.76775,306.58743 C 440.83288,306.2179 439.98939,305.80108 439.10067,305.4081 L 446.28655,301.97412 C 447.14381,302.35239 447.95635,302.75439 448.8591,303.10945 C 453.80934,305.09192 459.13885,306.86042 465.10225,308.09415 C 473.64337,309.7996 482.56641,311.02398 491.7566,311.63936 C 505.12276,312.5412 518.71981,312.69674 532.08178,311.66225 C 547.07788,310.43535 561.90142,308.13001 573.05526,302.99248 C 571.53061,303.73321 570.01883,304.47987 568.48135,305.21452 C 565.77144,306.50934 573.71768,302.49177 575.54619,300.88615 C 579.40902,297.49404 579.37415,293.3795 578.29231,289.65917 C 575.69614,283.55317 568.69575,278.13319 558.36585,274.269 C 548.25377,270.65455 536.54372,268.41657 523.72291,268.59155 C 510.69802,268.72931 497.86496,269.89018 485.14048,271.13994 C 474.05779,272.26521 462.9566,273.5264 452.52562,275.67435 C 447.37906,276.80128 442.32414,278.0484 437.87047,279.73158 C 430.98823,282.49052 440.87898,279.46176 440.93403,277.57836 L 432.59229,280.3617 z "
       id="path3224" />
    <path
       style="opacity:1;fill:#e3c596;fill-opacity:1;fill-rule:nonzero;stroke:none;stroke-width:1px;stroke-linecap:butt;stroke-linejoin:miter;stroke-opacity:1"
       d="M 439.46414,305.4188 C 446.99547,301.5701 444.0416,300.70949 449.01215,303.15485 C 454.26549,305.83091 458.44019,308.90972 462.20549,312.08727 C 468.86246,317.8725 473.95389,324.03643 477.92805,330.34514 C 481.5689,336.1211 483.81786,342.08132 483.29728,348.11601 C 482.32709,353.68971 474.8835,358.04547 464.44826,360.61926 C 457.30397,362.17116 449.87529,361.90907 442.46362,361.03051 C 434.34449,359.93887 426.97406,358.00956 420.17845,355.67229 C 413.15836,353.16603 407.65946,349.94344 403.11189,346.40764 C 398.52517,342.66485 396.05318,338.50042 394.21629,334.2916 C 392.5875,330.26305 392.06834,326.16397 391.97577,322.06996 C 391.90555,319.2532 392.36807,316.44612 393.02997,313.64973 L 401.52418,310.97236 C 400.8162,313.73169 400.28865,316.50253 400.31574,319.28544 C 400.33586,323.32279 400.78139,327.3663 402.30669,331.34569 C 404.01187,335.45088 406.31684,339.52055 410.71599,343.18301 C 415.05884,346.61237 420.35138,349.73054 427.1516,352.14086 C 433.74214,354.38643 440.8978,356.23311 448.78305,357.23186 C 455.84047,357.98861 462.83859,358.07989 469.38375,356.38363 C 472.98469,355.30401 479.3036,352.21276 468.47049,357.45737 C 466.97731,358.18025 478.05762,350.75985 474.85722,350.83172 C 475.7002,344.91199 473.47024,339.05116 469.97479,333.37399 C 466.105,327.12852 461.10972,321.02795 454.57356,315.29706 C 450.85994,312.20183 446.90922,309.15674 441.74319,306.54914 C 437.02034,304.22179 436.7995,305.23155 445.32681,301.45853 L 439.46414,305.4188 z "
       id="path3226" />
    <path
       style="opacity:1;fill:#e3c596;fill-opacity:1;fill-rule:nonzero;stroke:none;stroke-width:1px;stroke-linecap:butt;stroke-linejoin:miter;stroke-opacity:1"
       d="M 398.63196,309.48662 C 399.8535,309.73134 399.77651,310.34588 400.36206,310.78542 C 401.15045,312.80004 400.5799,314.86105 400.09035,316.87753 C 398.83176,321.40505 396.43493,325.83779 393.60785,330.19605 C 390.01414,335.68471 385.20551,340.97777 379.56789,346.05978 C 373.47521,351.64757 364.42607,356.45044 353.23832,359.83882 C 345.28298,362.12057 336.3331,362.62162 327.23405,362.36381 C 317.37042,361.89969 308.95547,359.67204 301.79101,356.53052 C 294.99178,353.28939 291.65138,349.16081 290.04509,344.73555 C 288.69168,340.04364 290.32234,335.39573 292.98243,330.88179 C 296.02092,326.05999 301.15842,321.65924 306.86191,317.44921 C 312.19213,313.56553 318.48441,310.01951 325.10007,306.62166 C 332.39711,302.90327 340.06517,299.35758 348.6411,296.31384 C 351.30638,295.34581 354.17489,294.52343 357.04951,293.70747 L 352.20813,297.96755 C 349.41084,298.80749 346.62391,299.65578 344.01696,300.62795 C 339.96456,302.1294 324.59029,309.13534 336.85545,303.30171 C 337.71348,302.89363 333.38808,304.95108 334.29943,304.53446 C 327.6352,307.87562 321.29432,311.36954 315.88793,315.19793 C 310.13286,319.32191 304.89151,323.6269 301.68834,328.36231 C 298.90381,332.73477 297.09943,337.2477 298.20457,341.83298 C 299.53061,346.05441 302.5141,350.00459 308.97759,353.09687 C 315.79287,356.07611 323.82479,358.12692 333.2221,358.44601 C 342.02949,358.58231 350.54299,357.93461 358.0148,355.56229 C 361.43515,354.42458 371.70729,349.79557 360.29119,355.22645 C 358.95531,355.86192 372.01292,348.07298 370.64335,348.40048 C 376.36253,343.3846 381.21399,338.14245 384.8948,332.70995 C 387.76229,328.40239 390.21906,324.02335 391.58411,319.54627 C 392.11902,317.62643 392.68078,315.67682 392.28482,313.73939 C 392.48354,313.6194 391.42377,312.51711 392.7693,313.44691 L 398.63196,309.48662 z "
       id="path3228" />
    <path
       style="opacity:1;color:#000000;fill:#f1e655;fill-opacity:1;fill-rule:evenodd;stroke:none;stroke-width:15;stroke-linecap:square;stroke-linejoin:miter;marker:none;marker-start:none;marker-mid:none;marker-end:none;stroke-miterlimit:4;stroke-dasharray:none;stroke-dashoffset:0;stroke-opacity:1;visibility:visible;display:inline;overflow:visible"
       d="M 382.74094,288.17495 C 375.87007,292.28456 379.0565,302.86876 387.04456,304.12706 C 397.54438,306.9826 408.96792,303.50333 417.65498,298.23578 C 421.98252,293.88763 417.1938,287.99876 411.92828,286.4681 C 402.88283,282.53892 390.99222,282.90101 382.74094,288.17495 z "
       id="path3230" />
    <path
       style="opacity:1;fill:#e3c596;fill-opacity:1;fill-rule:nonzero;stroke:none;stroke-width:1px;stroke-linecap:butt;stroke-linejoin:miter;stroke-opacity:1"
       d="M 397.96737,285.71381 C 399.97713,286.45286 397.69129,285.89257 397.4408,286.05481 C 395.42094,285.98198 393.48431,286.21995 391.54286,286.43572 C 388.37977,286.86239 386.04849,287.85571 383.72636,288.90186 C 395.68824,282.48232 385.8457,288.18497 383.80004,290.44645 C 382.22585,292.34041 382.23193,294.20042 383.30637,296.13309 C 384.8656,298.1443 388.02479,299.49436 391.66115,300.66033 C 395.28296,301.71474 399.22791,302.01938 403.39222,301.98748 C 407.19592,301.88776 410.30816,301.05712 413.38056,300.0787 C 420.01129,296.55063 406.00236,304.83588 413.5037,299.61847 C 415.35935,298.25037 415.83528,296.75292 416.01104,295.17016 C 416.01772,293.69139 414.88025,292.3894 413.47752,291.10643 C 411.98401,289.90325 409.71305,289.08043 407.35948,288.28948 C 404.72511,287.4682 401.89502,286.82385 399.01395,286.22889 C 398.58112,286.14368 398.13781,286.07164 397.69972,285.99307 L 404.2067,282.2665 C 404.66307,282.35232 405.12509,282.43142 405.5758,282.52402 C 408.56585,283.1668 411.51436,283.85285 414.25051,284.72186 C 416.84595,285.61421 419.34466,286.55008 421.05415,287.86734 C 422.7,289.27513 424.08603,290.71358 424.30135,292.35237 C 424.35493,294.06852 424.16091,295.7319 422.44628,297.29329 C 419.08545,300.11551 414.35098,302.54065 408.65908,304.36892 C 405.1799,305.27497 401.65092,305.99096 397.58054,305.96463 C 393.03618,305.86211 388.71668,305.43331 384.81698,304.2482 C 380.81492,302.92542 377.31916,301.40092 375.42886,299.20613 C 374.01161,297.11353 373.59381,295.06848 375.05025,292.93137 C 377.6288,289.42022 381.99692,287.01143 388.11111,284.53176 C 390.76159,283.51474 393.53044,282.64469 396.9434,282.33 C 399.14316,282.17446 401.34859,281.97813 403.57117,282.18695 C 404.62113,282.42086 405.70438,282.32647 406.30905,282.93042 L 397.96737,285.71381 z "
       id="path3232" />
    <path
       style="opacity:1;fill:#e3c596;fill-opacity:1;fill-rule:nonzero;stroke:none;stroke-width:1px;stroke-linecap:butt;stroke-linejoin:miter;stroke-opacity:1"
       d="M 142.04032,235.55579 C 141.79747,234.35709 139.88613,233.12204 138.50645,232.06856 C 130.28136,226.56222 119.37191,222.10229 108.21436,217.9799 C 95.036656,213.06013 80.045854,209.33117 63.323299,208.22802 C 48.599489,207.40808 34.36438,209.45811 23.344853,214.14916 C 22.689443,214.46671 20.695243,215.406 21.378548,215.10195 C 23.038687,214.36321 24.535945,213.54047 26.276356,212.84467 C 28.333023,212.02241 22.897062,214.84269 21.543051,215.9455 C 17.663024,219.10571 16.05594,222.57731 16.204751,226.20943 C 16.953748,231.86193 23.167185,236.5048 31.909223,240.18821 C 41.824926,244.12998 53.75088,246.66486 65.818006,248.73738 C 76.83708,250.62358 88.238385,251.91821 99.795027,252.7826 C 104.0544,253.0892 108.34919,253.23757 112.64402,253.37151 L 106.66653,257.29298 C 102.31723,257.13954 97.967819,256.97355 93.656805,256.64763 C 81.981209,255.73523 70.461383,254.40055 59.332333,252.47231 C 47.022846,250.33007 34.888877,247.69953 24.793074,243.65481 C 15.722407,239.81769 8.9156304,234.90351 7.9092035,229.02375 C 7.0526062,221.05939 15.027521,214.84815 27.843418,209.80519 C 39.613073,205.24439 54.383978,203.392 69.451901,204.35955 C 86.479151,205.62151 101.7741,209.42831 115.2253,214.46534 C 126.57267,218.66635 137.63516,223.21482 146.03885,228.80628 C 147.71572,230.0639 149.48606,231.33461 150.382,232.77242 L 142.04032,235.55579 z "
       id="path3184" />
    <path
       style="opacity:1;fill:#e3c596;fill-opacity:1;fill-rule:nonzero;stroke:none;stroke-width:1px;stroke-linecap:butt;stroke-linejoin:miter;stroke-opacity:1"
       d="M 140.42984,234.78915 C 140.40334,234.01428 139.44207,233.03135 138.85658,232.24261 C 136.03051,228.65659 133.48216,225.02531 131.1522,221.36041 C 128.07098,216.54833 125.96976,211.62119 125.08231,206.61156 C 124.16734,201.55397 127.06799,196.96701 132.85538,192.77354 C 142.14081,186.80823 154.27746,183.16202 168.90917,181.03793 C 180.05393,179.39578 191.56001,179.08935 203.02065,179.96761 C 213.78695,180.94196 222.1415,183.8523 228.88975,187.82441 C 235.5757,192.18779 237.65798,197.38994 237.18369,202.69219 C 236.56259,208.15419 232.44037,213.26768 227.34783,218.10684 C 222.67318,222.39575 216.41578,226.20938 209.71975,229.81943 C 203.85969,232.86662 197.70298,235.78589 191.33036,238.59121 L 195.7455,234.22808 C 206.04285,229.59048 186.20671,238.86235 200.54454,231.93041 C 207.27572,228.39005 213.62369,224.66275 218.43033,220.45359 C 223.62131,215.74537 227.85401,210.78013 228.77334,205.42861 C 229.25604,200.35021 227.94339,195.36965 221.46864,191.14377 C 215.08627,187.34891 207.13246,184.64647 196.8455,183.81938 C 185.64051,183.06488 174.42159,183.4913 163.62208,185.17678 C 157.1934,186.17683 150.95924,187.42176 145.40055,189.2804 C 143.45075,189.93236 138.25492,192.27067 139.88726,191.44524 C 141.54695,190.60595 143.28081,189.80035 144.98961,188.98358 C 146.05277,188.47531 140.78852,191.01042 141.93099,190.56766 C 135.88424,194.49103 132.63039,198.84982 133.34197,203.7736 C 134.07472,208.71951 136.10071,213.58204 139.10639,218.3321 C 141.40044,221.98204 143.91202,225.59918 146.72878,229.16643 C 147.43692,230.10634 148.17377,231.05244 148.77158,232.00584 L 140.42984,234.78915 z "
       id="path3186" />
    <path
       style="opacity:1;fill:#e3c596;fill-opacity:1;fill-rule:nonzero;stroke:none;stroke-width:1px;stroke-linecap:butt;stroke-linejoin:miter;stroke-opacity:1"
       d="M 189.54895,237.8495 C 189.11391,236.12246 195.99043,234.1438 199.43138,232.90057 C 204.09084,231.27156 209.28237,230.06012 214.56645,228.96636 C 225.17066,226.89386 236.37849,225.65738 247.57091,224.54393 C 260.41116,223.29773 273.37115,222.15982 286.51451,222.10991 C 299.77871,222.05173 311.88308,224.476 322.30959,228.23162 C 333.02416,232.26057 340.34172,237.86883 343.31151,244.18404 C 347.58369,253.1769 338.39279,258.80852 325.64337,264.85405 C 313.93398,269.8606 298.7448,272.0564 283.48069,273.20829 C 269.90725,274.1771 256.12536,273.96027 242.58752,272.99664 C 233.22483,272.33535 224.142,271.04624 215.46229,269.27287 C 209.32673,267.96841 203.83253,266.12983 198.7244,264.07526 C 197.78955,263.70572 196.94605,263.28891 196.05735,262.89592 L 203.24322,259.46194 C 204.10048,259.84022 204.913,260.24219 205.81575,260.59728 C 210.76599,262.57972 216.09552,264.34822 222.05891,265.58195 C 230.60002,267.2874 239.52306,268.51181 248.71327,269.12719 C 262.07943,270.02903 275.67646,270.18457 289.03843,269.15004 C 304.03455,267.92315 318.85808,265.6178 330.01191,260.48031 C 328.48729,261.221 326.97549,261.9677 325.438,262.70235 C 322.72809,263.99717 330.67434,259.9796 332.50287,258.37398 C 336.36567,254.98184 336.3308,250.86733 335.24897,247.147 C 332.65279,241.04097 325.65241,235.62102 315.3225,231.75683 C 305.21042,228.14235 293.50037,225.9044 280.67957,226.07938 C 267.65469,226.21714 254.82163,227.37802 242.09714,228.62777 C 231.01447,229.75305 219.91325,231.0142 209.48228,233.16218 C 204.33571,234.28911 199.28079,235.53623 194.82712,237.21942 C 187.9449,239.97835 197.83565,236.9496 197.89068,235.0662 L 189.54895,237.8495 z "
       id="path3188" />
    <path
       style="opacity:1;fill:#e3c596;fill-opacity:1;fill-rule:nonzero;stroke:none;stroke-width:1px;stroke-linecap:butt;stroke-linejoin:miter;stroke-opacity:1"
       d="M 196.42081,262.90662 C 203.95214,259.05793 200.99825,258.19729 205.96881,260.64265 C 211.22216,263.31874 215.39685,266.39755 219.16214,269.5751 C 225.81911,275.3603 230.91056,281.52426 234.8847,287.83297 C 238.52556,293.60893 240.77451,299.56914 240.25394,305.6038 C 239.28374,311.17753 231.84015,315.5333 221.40491,318.10709 C 214.26062,319.65899 206.83195,319.3969 199.42027,318.51833 C 191.30116,317.42667 183.93073,315.49736 177.13511,313.16011 C 170.11503,310.65386 164.61611,307.43124 160.06855,303.89547 C 155.48183,300.15265 153.00983,295.98825 151.17295,291.7794 C 149.54417,287.75087 149.02499,283.65179 148.93243,279.55778 C 148.86223,276.74103 149.32475,273.93394 149.98665,271.13756 L 158.48084,268.46018 C 157.77286,271.21951 157.24531,273.99036 157.27241,276.77327 C 157.29252,280.81062 157.73804,284.85413 159.26335,288.83352 C 160.96853,292.93871 163.27349,297.00835 167.67264,300.67084 C 172.01551,304.10019 177.30804,307.21836 184.10825,309.62866 C 190.69879,311.87425 197.85447,313.7209 205.7397,314.71969 C 212.79712,315.47641 219.79524,315.56772 226.3404,313.87146 C 229.94137,312.79181 236.26025,309.70059 225.42717,314.94517 C 223.93396,315.66808 235.01428,308.24768 231.8139,308.31952 C 232.65688,302.39981 230.4269,296.53898 226.93144,290.86181 C 223.06167,284.61635 218.06639,278.51578 211.53021,272.78489 C 207.81661,269.68963 203.86587,266.64457 198.69985,264.03697 C 193.97701,261.70961 193.75617,262.71935 202.28346,258.94633 L 196.42081,262.90662 z "
       id="path3190" />
    <path
       style="opacity:1;fill:#e3c596;fill-opacity:1;fill-rule:nonzero;stroke:none;stroke-width:1px;stroke-linecap:butt;stroke-linejoin:miter;stroke-opacity:1"
       d="M 155.58862,266.97445 C 156.81017,267.21917 156.73316,267.83368 157.31871,268.27324 C 158.10713,270.28787 157.53655,272.34888 157.04701,274.36536 C 155.78841,278.89288 153.39159,283.32562 150.5645,287.68387 C 146.9708,293.17253 142.16216,298.4656 136.52454,303.54761 C 130.43187,309.13537 121.38274,313.93826 110.19498,317.32664 C 102.23964,319.6084 93.289757,320.10945 84.190705,319.85161 C 74.327095,319.38751 65.912121,317.15987 58.747669,314.01832 C 51.948436,310.77721 48.608033,306.64864 47.001741,302.22338 C 45.648333,297.53146 47.278993,292.88353 49.939091,288.36959 C 52.97759,283.54782 58.115081,279.14707 63.818581,274.93704 C 69.148809,271.05336 75.441066,267.50731 82.056746,264.10949 C 89.35377,260.39109 97.021822,256.84541 105.59775,253.80166 C 108.26304,252.83361 111.13155,252.01126 114.00616,251.1953 L 109.16479,255.45535 C 106.36752,256.29532 103.58056,257.1436 100.97361,258.11578 C 96.921219,259.61723 81.546941,266.62317 93.812124,260.78954 C 94.670135,260.38143 90.344731,262.43888 91.2561,262.02226 C 84.591872,265.36342 78.250974,268.85737 72.844586,272.68576 C 67.08952,276.80971 61.848164,281.11472 58.644991,285.85014 C 55.86047,290.2226 54.056103,294.73553 55.161228,299.32078 C 56.487268,303.54223 59.470751,307.49238 65.934245,310.58467 C 72.749528,313.56394 80.781441,315.61475 90.178757,315.93384 C 98.986166,316.07014 107.49965,315.42243 114.97146,313.05009 C 118.39181,311.9124 128.66396,307.2834 117.24785,312.71425 C 115.91198,313.34974 128.9696,305.56078 127.60001,305.8883 C 133.31918,300.8724 138.17065,295.63025 141.85145,290.19775 C 144.71896,285.89019 147.17572,281.51118 148.54076,277.0341 C 149.07569,275.11426 149.63746,273.16465 149.24148,271.22722 C 149.44019,271.10719 148.38045,270.00491 149.72595,270.93474 L 155.58862,266.97445 z "
       id="path3192" />
    <path
       style="opacity:1;color:#000000;fill:#f1e655;fill-opacity:1;fill-rule:evenodd;stroke:none;stroke-width:15;stroke-linecap:square;stroke-linejoin:miter;marker:none;marker-start:none;marker-mid:none;marker-end:none;stroke-miterlimit:4;stroke-dasharray:none;stroke-dashoffset:0;stroke-opacity:1;visibility:visible;display:inline;overflow:visible"
       d="M 139.6976,245.66274 C 132.82675,249.77238 136.01315,260.35659 144.00122,261.61488 C 154.50103,264.47043 165.92458,260.99115 174.61165,255.7236 C 178.93919,251.37546 174.15045,245.48659 168.88494,243.95592 C 159.8395,240.02673 147.94888,240.38884 139.6976,245.66274 z "
       id="path3194" />
    <path
       style="opacity:1;fill:#e3c596;fill-opacity:1;fill-rule:nonzero;stroke:none;stroke-width:1px;stroke-linecap:butt;stroke-linejoin:miter;stroke-opacity:1"
       d="M 154.92402,243.20161 C 156.93378,243.94068 154.64794,243.3804 154.39747,243.54263 C 152.37762,243.46981 150.44096,243.70775 148.49952,243.92354 C 145.33642,244.35022 143.00514,245.34354 140.68301,246.38966 C 152.64491,239.97015 142.80235,245.6728 140.7567,247.93428 C 139.18251,249.82824 139.18858,251.68825 140.26304,253.62089 C 141.82226,255.63212 144.98144,256.98215 148.61781,258.14816 C 152.23962,259.20257 156.18456,259.50721 160.34888,259.47528 C 164.15257,259.37559 167.26482,258.54495 170.33723,257.56653 C 176.96794,254.03843 162.95901,262.32368 170.46037,257.10629 C 172.31602,255.73817 172.79193,254.24075 172.9677,252.65798 C 172.97437,251.17919 171.8369,249.87723 170.43417,248.59425 C 168.94067,247.39108 166.66971,246.56825 164.31613,245.77731 C 161.68176,244.95602 158.85167,244.31165 155.97062,243.71672 C 155.53777,243.63151 155.09447,243.55944 154.65637,243.4809 L 161.16336,239.75433 C 161.61975,239.84015 162.08174,239.91925 162.53248,240.01185 C 165.52252,240.65463 168.47102,241.34068 171.20716,242.20966 C 173.8026,243.10203 176.30131,244.03788 178.01083,245.35517 C 179.65665,246.76295 181.04269,248.20141 181.258,249.8402 C 181.31159,251.55635 181.11757,253.2197 179.40294,254.78112 C 176.04213,257.60331 171.30765,260.02848 165.61573,261.85675 C 162.13655,262.76279 158.60758,263.47879 154.53719,263.45246 C 149.99283,263.34991 145.67333,262.92113 141.77363,261.73603 C 137.77158,260.41322 134.27582,258.88874 132.38552,256.69393 C 130.96827,254.60135 130.55049,252.55631 132.00691,250.41919 C 134.58545,246.90804 138.95358,244.49926 145.06777,242.01958 C 147.71827,241.00254 150.4871,240.13252 153.90008,239.81783 C 156.09984,239.66229 158.30526,239.46597 160.52785,239.67478 C 161.5778,239.90867 162.66103,239.8143 163.26571,240.41825 L 154.92402,243.20161 z "
       id="path3196" />
    <path
       style="opacity:1;fill:#e3c596;fill-opacity:1;fill-rule:nonzero;stroke:none;stroke-width:1px;stroke-linecap:butt;stroke-linejoin:miter;stroke-opacity:1"
       d="M 489.92162,180.91309 C 491.14315,181.15781 491.06616,181.77235 491.65171,182.21191 C 492.44011,184.22651 491.86955,186.28752 491.37999,188.304 C 490.12141,192.83152 487.72459,197.26426 484.8975,201.62251 C 481.3038,207.1112 476.49516,212.40424 470.85754,217.48628 C 464.76485,223.07404 455.71572,227.8769 444.52798,231.26531 C 436.57264,233.54704 427.62276,234.04809 418.5237,233.79028 C 408.66008,233.32615 400.24512,231.09851 393.08067,227.95698 C 386.28144,224.71585 382.94103,220.58728 381.33474,216.16202 C 379.98133,211.47011 381.61199,206.82219 384.27207,202.30826 C 387.31057,197.48646 392.44808,193.08571 398.15156,188.87568 C 403.48179,184.992 409.77407,181.44598 416.38973,178.04813 C 423.68677,174.32973 431.35482,170.78405 439.93075,167.7403 C 442.59604,166.77228 445.46455,165.94993 448.33916,165.13394 L 443.49779,169.39402 C 440.7005,170.23396 437.91354,171.08224 435.30661,172.05442 C 431.25422,173.55587 415.87994,180.56181 428.1451,174.72818 C 429.00314,174.3201 424.67771,176.37755 425.58908,175.96093 C 418.92485,179.30209 412.58397,182.79604 407.17757,186.6244 C 401.42252,190.74838 396.18116,195.05339 392.97799,199.78878 C 390.19347,204.16124 388.38908,208.67419 389.49423,213.25945 C 390.82025,217.48087 393.80375,221.43105 400.26724,224.52334 C 407.08251,227.50258 415.11444,229.55339 424.51176,229.87248 C 433.31915,230.00878 441.83265,229.36107 449.30446,226.98876 C 452.72481,225.85105 462.99694,221.22204 451.58085,226.65292 C 450.24496,227.28841 463.30258,219.49945 461.93301,219.82694 C 467.65218,214.81106 472.50365,209.56892 476.18445,204.13642 C 479.05194,199.82886 481.50872,195.44985 482.87376,190.97277 C 483.40867,189.0529 483.97044,187.10332 483.57448,185.16586 C 483.77319,185.04586 482.71343,183.94358 484.05893,184.87338 L 489.92162,180.91309 z "
       id="path3174" />
    <path
       style="opacity:1;color:#000000;fill:#a4294b;fill-opacity:1;fill-rule:evenodd;stroke:none;stroke-width:15;stroke-linecap:square;stroke-linejoin:miter;marker:none;marker-start:none;marker-mid:none;marker-end:none;stroke-miterlimit:4;stroke-dasharray:none;stroke-dashoffset:0;stroke-opacity:1;visibility:visible;display:inline;overflow:visible"
       d="M 270.30017,164.04261 C 245.31755,148.12971 256.02399,119.23406 296.53119,117.86884 C 318.12757,116.21065 356.60917,109.43414 360.90409,137.38532 C 364.53554,155.64107 310.69699,175.2641 352.38904,163.95513 C 388.16917,159.83689 430.53878,151.44249 462.79994,169.97812 C 478.84849,189.62803 454.69858,200.26481 425.74408,205.88963 C 377.55104,208.95698 372.71071,206.07475 348.71926,203.43547 C 336.69696,206.82589 376.17611,228.51968 361.47197,244.92703 C 348.74021,258.39325 321.57857,251.31633 306.24814,245.35449 C 275.92248,227.20169 284.43532,205.47553 264.95126,235.60884 C 246.91481,253.68158 209.09529,260.7175 186.95663,243.34872 C 172.92273,228.2968 177.89849,218.87704 205.37071,201.82788 C 246.92624,184.7805 229.76377,189.92715 202.86952,188.1796 C 182.16096,184.37295 132.40101,184.23965 142.72859,156.54086 C 155.1215,139.69565 186.18216,137.67974 206.43623,141.75126 C 230.16847,146.45964 249.97107,159.42072 271.97686,167.70854"
       id="path3200" />
    <path
       style="opacity:1;fill:#e3c596;fill-opacity:1;fill-rule:nonzero;stroke:none;stroke-width:1px;stroke-linecap:butt;stroke-linejoin:miter;stroke-opacity:1"
       d="M 270.08269,170.23208 C 269.83984,169.03336 267.9285,167.79831 266.54882,166.74483 C 258.32373,161.23849 247.41428,156.77856 236.25673,152.65617 C 223.07902,147.7364 208.08822,144.00744 191.36567,142.90429 C 176.64186,142.08438 162.40675,144.13438 151.38722,148.82543 C 150.73181,149.14298 148.73761,150.08227 149.42092,149.77822 C 151.08106,149.03948 152.57832,148.21674 154.31873,147.52094 C 156.37539,146.69868 150.93943,149.51896 149.58542,150.62177 C 145.70539,153.78198 144.09831,157.25358 144.24712,160.8857 C 144.99612,166.5382 151.20956,171.18106 159.95158,174.86448 C 169.8673,178.80625 181.79325,181.34116 193.86037,183.41366 C 204.87945,185.29986 216.28075,186.59448 227.8374,187.45888 C 232.09677,187.76547 236.39156,187.91384 240.68639,188.04779 L 234.7089,191.96926 C 230.3596,191.81582 226.01019,191.64983 221.69917,191.3239 C 210.02358,190.4115 198.50375,189.07682 187.3747,187.14858 C 175.06522,185.00634 162.93125,182.3758 152.83544,178.33109 C 143.76478,174.49399 136.958,169.57978 135.95157,163.70002 C 135.09498,155.73566 143.06989,149.52442 155.88579,144.48145 C 167.65544,139.92066 182.42635,138.06826 197.49427,139.03582 C 214.52152,140.29778 229.81647,144.10458 243.26767,149.14161 C 254.61503,153.34261 265.67753,157.89109 274.08122,163.48255 C 275.75809,164.74017 277.52843,166.01088 278.42437,167.44869 L 270.08269,170.23208 z "
       id="path3202" />
    <path
       style="opacity:1;fill:#e3c596;fill-opacity:1;fill-rule:nonzero;stroke:none;stroke-width:1px;stroke-linecap:butt;stroke-linejoin:miter;stroke-opacity:1"
       d="M 268.47221,169.46542 C 268.44571,168.69055 267.48444,167.70762 266.89895,166.91888 C 264.07287,163.33286 261.52453,159.70158 259.19457,156.03668 C 256.11335,151.2246 254.01213,146.29746 253.12468,141.28783 C 252.20971,136.23024 255.11035,131.64328 260.89775,127.44981 C 270.18318,121.4845 282.31983,117.83829 296.95154,115.7142 C 308.0963,114.07205 319.60238,113.76562 331.06302,114.64387 C 341.82932,115.61823 350.18387,118.52857 356.93212,122.50068 C 363.61807,126.86406 365.70035,132.06621 365.22606,137.36846 C 364.60496,142.83046 360.48274,147.94395 355.3902,152.78314 C 350.71555,157.07202 344.45815,160.88565 337.76212,164.4957 C 331.90206,167.54289 325.74535,170.46216 319.37273,173.26748 L 323.78787,168.90435 C 334.08522,164.26675 314.24908,173.53862 328.58691,166.60671 C 335.31809,163.06632 341.66606,159.33901 346.4727,155.12985 C 351.66368,150.42164 355.89638,145.4564 356.81571,140.10488 C 357.29841,135.02648 355.98576,130.04592 349.51101,125.82004 C 343.12864,122.02521 335.17483,119.32274 324.88787,118.49565 C 313.68289,117.74115 302.46396,118.16757 291.66445,119.85308 C 285.23577,120.8531 279.00161,122.09803 273.44292,123.95667 C 271.49312,124.60863 266.29729,126.94694 267.92963,126.12151 C 269.58931,125.28222 271.32318,124.47662 273.03198,123.65985 C 274.09514,123.1516 268.83089,125.68668 269.97336,125.24393 C 263.92661,129.1673 260.67276,133.52609 261.38434,138.44987 C 262.11709,143.39578 264.14307,148.25831 267.14876,153.00837 C 269.4428,156.65831 271.95439,160.27545 274.77115,163.8427 C 275.47929,164.78261 276.21614,165.7287 276.81395,166.68211 L 268.47221,169.46542 z "
       id="path3204" />
    <path
       style="opacity:1;fill:#e3c596;fill-opacity:1;fill-rule:nonzero;stroke:none;stroke-width:1px;stroke-linecap:butt;stroke-linejoin:miter;stroke-opacity:1"
       d="M 317.59132,172.52577 C 317.15628,170.79873 324.0328,168.82007 327.47375,167.57684 C 332.13322,165.94783 337.32474,164.73639 342.60882,163.64262 C 353.21303,161.57013 364.42086,160.33365 375.61329,159.2202 C 388.45353,157.974 401.41352,156.83609 414.55688,156.78618 C 427.82108,156.728 439.92545,159.15227 450.35196,162.90789 C 461.06653,166.93684 468.38409,172.5451 471.35388,178.86031 C 475.62606,187.85317 466.43516,193.48483 453.68574,199.53033 C 441.97635,204.53688 426.78717,206.73267 411.52306,207.88456 C 397.94962,208.85337 384.16773,208.63655 370.62989,207.67292 C 361.2672,207.01163 352.18437,205.72252 343.50466,203.94914 C 337.3691,202.64469 331.8749,200.8061 326.76677,198.75154 C 325.83192,198.382 324.98842,197.96518 324.09972,197.5722 L 331.2856,194.13822 C 332.14285,194.51649 332.95537,194.91847 333.85812,195.27355 C 338.80836,197.25599 344.13789,199.02449 350.10128,200.25823 C 358.64239,201.96368 367.56543,203.18808 376.75564,203.80346 C 390.1218,204.7053 403.71883,204.86084 417.0808,203.82632 C 432.07692,202.59942 446.90045,200.29408 458.05428,195.15658 C 456.52966,195.89728 455.01786,196.64397 453.48037,197.37862 C 450.77046,198.67344 458.71671,194.65587 460.54522,193.05025 C 464.40804,189.65812 464.37317,185.5436 463.29134,181.82327 C 460.69516,175.71724 453.69478,170.29729 443.36488,166.4331 C 433.2528,162.81862 421.54274,160.58067 408.72194,160.75565 C 395.69707,160.89341 382.86401,162.05428 370.13951,163.30404 C 359.05684,164.42932 347.95562,165.69047 337.52465,167.83845 C 332.37808,168.96538 327.32317,170.2125 322.86949,171.89569 C 315.98727,174.65462 325.87802,171.62586 325.93306,169.74247 L 317.59132,172.52577 z "
       id="path3206" />
    <path
       style="opacity:1;fill:#e3c596;fill-opacity:1;fill-rule:nonzero;stroke:none;stroke-width:1px;stroke-linecap:butt;stroke-linejoin:miter;stroke-opacity:1"
       d="M 324.46318,197.5829 C 331.99451,193.7342 329.04062,192.87356 334.01118,195.31893 C 339.26453,197.99501 343.43922,201.07382 347.20451,204.25137 C 353.86148,210.03658 358.95293,216.20053 362.92707,222.50925 C 366.56793,228.28521 368.81688,234.24542 368.29631,240.28008 C 367.32611,245.8538 359.88252,250.20957 349.44728,252.78336 C 342.30299,254.33526 334.87432,254.07317 327.46264,253.1946 C 319.34353,252.10296 311.9731,250.17363 305.17747,247.83638 C 298.1574,245.33012 292.65848,242.10751 288.11092,238.57174 C 283.5242,234.82892 281.0522,230.66452 279.21532,226.45567 C 277.58654,222.42715 277.06736,218.32807 276.9748,214.23406 C 276.9046,211.41731 277.36712,208.61022 278.02902,205.81383 L 286.5232,203.13646 C 285.81523,205.89579 285.28768,208.66663 285.31478,211.44955 C 285.33488,215.48689 285.78041,219.5304 287.30572,223.50979 C 289.0109,227.61498 291.31586,231.68462 295.71501,235.34711 C 300.05788,238.77647 305.35041,241.89463 312.15062,244.30493 C 318.74116,246.55052 325.89684,248.39717 333.78208,249.39596 C 340.83949,250.15271 347.83761,250.24399 354.38277,248.54773 C 357.98374,247.46811 364.30262,244.37686 353.46954,249.62144 C 351.97633,250.34435 363.05665,242.92395 359.85627,242.99582 C 360.69925,237.07609 358.46927,231.21526 354.97381,225.53809 C 351.10404,219.29262 346.10876,213.19205 339.57258,207.46116 C 335.85898,204.36591 331.90824,201.32085 326.74222,198.71325 C 322.01938,196.38589 321.79854,197.39565 330.32583,193.62261 L 324.46318,197.5829 z "
       id="path3208" />
    <path
       style="opacity:1;fill:#e3c596;fill-opacity:1;fill-rule:nonzero;stroke:none;stroke-width:1px;stroke-linecap:butt;stroke-linejoin:miter;stroke-opacity:1"
       d="M 283.63099,201.65072 C 284.85254,201.89544 284.77553,202.50996 285.36108,202.94952 C 286.1495,204.96415 285.57892,207.02516 285.08937,209.04163 C 283.83078,213.56915 281.43396,218.00189 278.60687,222.36015 C 275.01317,227.84881 270.20453,233.14188 264.56691,238.22389 C 258.47424,243.81164 249.42511,248.61453 238.23735,252.00291 C 230.28201,254.28467 221.33213,254.78571 212.23307,254.52788 C 202.36946,254.06378 193.95449,251.83614 186.79004,248.69458 C 179.99081,245.45348 176.6504,241.32491 175.04411,236.89965 C 173.6907,232.20774 175.32136,227.5598 177.98146,223.04586 C 181.01996,218.22409 186.15745,213.82334 191.86095,209.61332 C 197.19118,205.72963 203.48343,202.18361 210.09912,198.78576 C 217.39614,195.06737 225.06419,191.52168 233.64012,188.47794 C 236.30541,187.50988 239.17391,186.68753 242.04853,185.87157 L 237.20716,190.13163 C 234.40989,190.97159 231.62293,191.81988 229.01598,192.79205 C 224.96359,194.29351 209.58931,201.29945 221.85449,195.46581 C 222.7125,195.05773 218.3871,197.11516 219.29847,196.69854 C 212.63424,200.03969 206.29334,203.53364 200.88695,207.36203 C 195.13189,211.48601 189.89053,215.791 186.68736,220.52641 C 183.90284,224.89887 182.09847,229.4118 183.2036,233.99705 C 184.52964,238.21851 187.51312,242.16865 193.97661,245.26097 C 200.7919,248.2402 208.82381,250.29102 218.22113,250.61011 C 227.02853,250.74641 235.54202,250.0987 243.01382,247.72636 C 246.43418,246.58867 256.70633,241.95967 245.29022,247.39055 C 243.95435,248.02601 257.01197,240.23706 255.64238,240.56458 C 261.36155,235.5487 266.21302,230.30653 269.89382,224.87403 C 272.76133,220.56647 275.21809,216.18745 276.58313,211.71038 C 277.11806,209.79054 277.67981,207.84092 277.28385,205.90349 C 277.48256,205.78347 276.42282,204.68119 277.76832,205.61101 L 283.63099,201.65072 z "
       id="path3210" />
    <path
       style="opacity:1;color:#000000;fill:#f1e655;fill-opacity:1;fill-rule:evenodd;stroke:none;stroke-width:15;stroke-linecap:square;stroke-linejoin:miter;marker:none;marker-start:none;marker-mid:none;marker-end:none;stroke-miterlimit:4;stroke-dasharray:none;stroke-dashoffset:0;stroke-opacity:1;visibility:visible;display:inline;overflow:visible"
       d="M 267.73996,180.33902 C 260.8691,184.44866 264.05552,195.03286 272.04358,196.29116 C 282.5434,199.1467 293.96695,195.66743 302.65402,190.39988 C 306.98156,186.05173 302.19282,180.16286 296.92731,178.6322 C 287.88187,174.703 275.99125,175.06511 267.73996,180.33902 z "
       id="path3212" />
    <path
       style="opacity:1;fill:#e3c596;fill-opacity:1;fill-rule:nonzero;stroke:none;stroke-width:1px;stroke-linecap:butt;stroke-linejoin:miter;stroke-opacity:1"
       d="M 282.96639,177.87788 C 284.97615,178.61696 282.69031,178.05667 282.43984,178.21891 C 280.41999,178.14608 278.48333,178.38403 276.54188,178.59982 C 273.37879,179.02649 271.04751,180.01982 268.72538,181.06594 C 280.68728,174.64642 270.84472,180.34907 268.79907,182.61055 C 267.22488,184.50451 267.23095,186.36452 268.30541,188.29716 C 269.86462,190.3084 273.02381,191.65843 276.66018,192.82443 C 280.28198,193.87884 284.22693,194.18348 288.39125,194.15155 C 292.19494,194.05186 295.30719,193.22122 298.3796,192.2428 C 305.01031,188.71474 291.00138,196.99995 298.50274,191.78257 C 300.35839,190.41444 300.8343,188.91703 301.01007,187.33426 C 301.01674,185.85547 299.87927,184.5535 298.47654,183.27053 C 296.98304,182.06735 294.71208,181.24453 292.3585,180.45358 C 289.72413,179.6323 286.89404,178.98792 284.01299,178.39299 C 283.58014,178.30778 283.13684,178.23571 282.69874,178.15717 L 289.20573,174.4306 C 289.66212,174.51642 290.12411,174.59552 290.57485,174.68812 C 293.56489,175.3309 296.51339,176.01695 299.24953,176.88594 C 301.84497,177.77831 304.34368,178.71418 306.0532,180.03144 C 307.69902,181.43923 309.08506,182.87769 309.30037,184.51647 C 309.35395,186.23262 309.15993,187.89597 307.44531,189.4574 C 304.0845,192.27958 299.35002,194.70475 293.6581,196.53302 C 290.17892,197.43907 286.64995,198.15506 282.57956,198.12873 C 278.0352,198.02619 273.7157,197.59741 269.816,196.4123 C 265.81395,195.0895 262.31819,193.56502 260.42789,191.3702 C 259.01064,189.27763 258.59285,187.23258 260.04928,185.09547 C 262.62782,181.58432 266.99595,179.17554 273.11014,176.69586 C 275.76064,175.67881 278.52947,174.80879 281.94244,174.4941 C 284.14221,174.33856 286.34763,174.14224 288.57021,174.35105 C 289.62017,174.58493 290.7034,174.49057 291.30807,175.09452 L 282.96639,177.87788 z "
       id="path3214" />
  </g>
</svg>
