<?xml version="1.0" encoding="UTF-8" standalone="no"?>
<!-- Created with Inkscape (http://www.inkscape.org/) -->
<svg
   xmlns:dc="http://purl.org/dc/elements/1.1/"
   xmlns:cc="http://web.resource.org/cc/"
   xmlns:rdf="http://www.w3.org/1999/02/22-rdf-syntax-ns#"
   xmlns:svg="http://www.w3.org/2000/svg"
   xmlns="http://www.w3.org/2000/svg"
   xmlns:sodipodi="http://inkscape.sourceforge.net/DTD/sodipodi-0.dtd"
   xmlns:inkscape="http://www.inkscape.org/namespaces/inkscape"
   width="744.09448819"
   height="1052.3622047"
   id="svg2"
   sodipodi:version="0.32"
   inkscape:version="0.43"
   sodipodi:docbase="/home/kkowal/tale/art/terrain"
   sodipodi:docname="flowers.svg"
   inkscape:export-filename="C:\Documents and Settings\Cowbert\Desktop\flowers.png"
   inkscape:export-xdpi="90"
   inkscape:export-ydpi="90">
  <defs
     id="defs4" />
  <sodipodi:namedview
     id="base"
     pagecolor="#ffffff"
     bordercolor="#666666"
     borderopacity="1.0"
     inkscape:pageopacity="0.0"
     inkscape:pageshadow="2"
     inkscape:zoom="0.7"
     inkscape:cx="344.39294"
     inkscape:cy="608.16581"
     inkscape:document-units="px"
     inkscape:current-layer="layer2"
     inkscape:window-width="1045"
     inkscape:window-height="977"
     inkscape:window-x="0"
     inkscape:window-y="25" />
  <metadata
     id="metadata7">
    <rdf:RDF>
      <cc:Work
         rdf:about="">
        <dc:format>image/svg+xml</dc:format>
        <dc:type
           rdf:resource="http://purl.org/dc/dcmitype/StillImage" />
      </cc:Work>
    </rdf:RDF>
  </metadata>
  <g
     inkscape:label="1"
     inkscape:groupmode="layer"
     id="layer1">
    <path
       style="opacity:1;color:#000000;fill:#a42929;fill-opacity:1;fill-rule:evenodd;stroke:none;stroke-width:15;stroke-linecap:square;stroke-linejoin:miter;marker:none;marker-start:none;marker-mid:none;marker-end:none;stroke-miterlimit:4;stroke-dasharray:none;stroke-dashoffset:0;stroke-opacity:1;visibility:visible;display:inline;overflow:visible"
       d="M 419.58686,590.44994 C 394.60423,574.53704 405.31067,545.64139 445.81788,544.27621 C 467.41425,542.61798 505.89585,535.8415 510.19078,563.79268 C 513.82222,582.0484 459.98367,601.67145 501.67573,590.36246 C 537.45583,586.24422 579.82546,577.84982 612.08663,596.38544 C 628.13518,616.03536 603.98527,626.67214 575.03076,632.29698 C 526.83772,635.36431 521.9974,632.48207 498.00594,629.8428 C 485.98365,633.23322 525.46279,654.92701 510.75866,671.33437 C 498.0269,684.80058 470.86525,677.72369 455.53483,671.76183 C 425.20917,653.60902 433.72201,631.88285 414.23794,662.01616 C 396.20149,680.08892 358.38198,687.12483 336.24332,669.75608 C 322.20942,654.70413 327.18518,645.28437 354.65738,628.23521 C 396.21292,611.18782 379.05046,616.33448 352.1562,614.58693 C 331.44764,610.78028 281.68767,610.64698 292.01527,582.94819 C 304.40816,566.10298 335.46884,564.08707 355.72292,568.15858 C 379.45515,572.86697 399.25774,585.82808 421.26354,594.11587"
       id="path3218" />
    <path
       style="opacity:1;fill:#e3c596;fill-opacity:1;fill-rule:nonzero;stroke:none;stroke-width:1px;stroke-linecap:butt;stroke-linejoin:miter;stroke-opacity:1"
       d="M 419.36938,596.63941 C 419.12653,595.44069 417.21516,594.20564 415.8355,593.15216 C 407.6104,587.64585 396.70096,583.18591 385.54341,579.0635 C 372.36571,574.14372 357.37489,570.41477 340.65235,569.31162 C 325.92854,568.49171 311.69343,570.54174 300.67389,575.23276 C 300.0185,575.55033 298.0243,576.4896 298.7076,576.18555 C 300.36772,575.44681 301.865,574.62407 303.60541,573.92827 C 305.66208,573.10601 300.22612,575.92629 298.87211,577.0291 C 294.99208,580.18931 293.38499,583.66091 293.5338,587.29303 C 294.28278,592.94552 300.49624,597.58839 309.23826,601.27183 C 319.15398,605.21358 331.07992,607.74849 343.14706,609.82099 C 354.16613,611.70719 365.56742,613.00181 377.12408,613.8662 C 381.38345,614.1728 385.67823,614.3212 389.97308,614.45512 L 383.99559,618.37659 C 379.64627,618.22315 375.29685,618.05716 370.98586,617.73123 C 359.31026,616.81883 347.79042,615.48418 336.66137,613.55591 C 324.3519,611.41367 312.21791,608.78313 302.12213,604.73844 C 293.05146,600.90131 286.24468,595.98711 285.23826,590.10737 C 284.38164,582.14299 292.35658,575.93175 305.17245,570.88881 C 316.94211,566.32798 331.71301,564.47559 346.78096,565.44317 C 363.80821,566.70514 379.10316,570.51191 392.55434,575.54893 C 403.90172,579.74994 414.96421,584.29845 423.36791,589.8899 C 425.04478,591.14753 426.8151,592.41823 427.71106,593.85602 L 419.36938,596.63941 z "
       id="path3220" />
    <path
       style="opacity:1;color:#000000;fill:#a44129;fill-opacity:1;fill-rule:evenodd;stroke:none;stroke-width:15;stroke-linecap:square;stroke-linejoin:miter;marker:none;marker-start:none;marker-mid:none;marker-end:none;stroke-miterlimit:4;stroke-dasharray:none;stroke-dashoffset:0;stroke-opacity:1;visibility:visible;display:inline;overflow:visible"
       d="M 176.54352,547.93777 C 151.56089,532.02487 162.26733,503.12922 202.77453,501.76401 C 224.3709,500.10581 262.85251,493.3293 267.14743,521.28048 C 270.77887,539.53623 216.94033,559.15926 258.63238,547.85029 C 294.41251,543.73205 336.78211,535.33765 369.04328,553.87328 C 385.09183,573.52319 360.94192,584.15996 331.98742,589.78478 C 283.79437,592.85214 278.95405,589.9699 254.9626,587.33062 C 242.9403,590.72105 282.41945,612.41483 267.71531,628.82219 C 254.98355,642.28841 227.82191,635.21149 212.49148,629.24965 C 182.16582,611.09685 190.67866,589.37068 171.1946,619.50399 C 153.15815,637.57675 115.33864,644.61266 93.199981,627.24388 C 79.166077,612.19196 84.141836,602.77219 111.61406,585.72304 C 153.16958,568.67565 136.00711,573.82231 109.11286,572.07476 C 88.404302,568.2681 38.644349,568.1348 48.971931,540.43602 C 61.364839,523.59081 92.425501,521.5749 112.67958,525.64642 C 136.41181,530.35477 156.21441,543.31588 178.2202,551.6037"
       id="path3182" />
    <path
       style="opacity:1;color:#000000;fill:#a48c29;fill-opacity:1;fill-rule:evenodd;stroke:none;stroke-width:15;stroke-linecap:square;stroke-linejoin:miter;marker:none;marker-start:none;marker-mid:none;marker-end:none;stroke-miterlimit:4;stroke-dasharray:none;stroke-dashoffset:0;stroke-opacity:1;visibility:visible;display:inline;overflow:visible"
       d="M 222.73602,389.96184 C 197.75338,374.04897 208.45983,345.15332 248.96704,343.7881 C 270.56341,342.12988 309.04501,335.3534 313.33994,363.30458 C 316.97138,381.56033 263.13281,401.18335 304.82489,389.87436 C 340.60499,385.75615 382.9746,377.36175 415.23579,395.89735 C 431.28432,415.54729 407.13443,426.18404 378.17992,431.80889 C 329.98686,434.87622 325.14656,431.99398 301.1551,429.35473 C 289.13281,432.74516 328.61195,454.43894 313.9078,470.8463 C 301.17606,484.31251 274.01441,477.2356 258.68399,471.27376 C 228.35832,453.12096 236.87117,431.39479 217.3871,461.5281 C 199.35065,479.60083 161.53112,486.63676 139.39248,469.26799 C 125.35858,454.21604 130.33434,444.7963 157.80654,427.74715 C 199.36206,410.69973 182.19962,415.84641 155.30536,414.09883 C 134.59678,410.29221 84.836835,410.15891 95.164441,382.46012 C 107.55732,365.61491 138.618,363.599 158.87208,367.67051 C 182.60431,372.37887 202.4069,385.33998 224.4127,393.6278"
       id="path1359" />
    <path
       style="opacity:1;fill:#e3c596;fill-opacity:1;fill-rule:nonzero;stroke:none;stroke-width:1px;stroke-linecap:butt;stroke-linejoin:miter;stroke-opacity:1"
       d="M 222.51854,396.15131 C 222.27569,394.95259 220.36432,393.71757 218.98466,392.66409 C 210.75956,387.15775 199.85012,382.69782 188.69257,378.57543 C 175.51487,373.65563 160.52405,369.9267 143.80151,368.82355 C 129.07771,368.00361 114.8426,370.05364 103.82305,374.74466 C 103.16764,375.06224 101.17346,376.0015 101.85677,375.69745 C 103.51689,374.95874 105.01416,374.13597 106.75456,373.4402 C 108.81124,372.61791 103.37528,375.43819 102.02127,376.54103 C 98.141241,379.70121 96.534161,383.17284 96.682971,386.80496 C 97.431951,392.45745 103.64539,397.10032 112.38742,400.78373 C 122.30314,404.72551 134.22908,407.26039 146.29622,409.33292 C 157.3153,411.21912 168.71658,412.51372 180.27324,413.37811 C 184.53262,413.68473 188.82739,413.8331 193.12224,413.96705 L 187.14475,417.88849 C 182.79543,417.73505 178.44602,417.56909 174.13502,417.24316 C 162.45942,416.33076 150.93958,414.99608 139.81053,413.06784 C 127.50106,410.92557 115.36708,408.29503 105.27129,404.25035 C 96.200631,400.41322 89.393849,395.49904 88.387422,389.61928 C 87.530806,381.65492 95.505741,375.44365 108.32162,370.40071 C 120.09127,365.83989 134.86217,363.9875 149.93012,364.95508 C 166.95735,366.21704 182.25232,370.02384 195.7035,375.06086 C 207.05086,379.26187 218.11337,383.81035 226.51707,389.40181 C 228.19393,390.65943 229.96426,391.93014 230.86022,393.36795 L 222.51854,396.15131 z "
       id="path1331" />
    <path
       style="opacity:1;fill:#e3c596;fill-opacity:1;fill-rule:nonzero;stroke:none;stroke-width:1px;stroke-linecap:butt;stroke-linejoin:miter;stroke-opacity:1"
       d="M 220.90804,395.38468 C 220.88156,394.60981 219.92028,393.62688 219.33479,392.83814 C 216.5087,389.25212 213.96037,385.62084 211.6304,381.95594 C 208.5492,377.14386 206.44798,372.21672 205.56051,367.20709 C 204.64554,362.1495 207.54618,357.56254 213.33358,353.36907 C 222.61901,347.40373 234.75567,343.75754 249.38739,341.63346 C 260.53213,339.99128 272.0382,339.68488 283.49886,340.56313 C 294.26517,341.53746 302.61971,344.44782 309.36796,348.41994 C 316.0539,352.78332 318.13618,357.98547 317.66191,363.28772 C 317.04079,368.74971 312.91859,373.86318 307.82602,378.70237 C 303.1514,382.99128 296.89397,386.80491 290.19797,390.41496 C 284.33788,393.46215 278.1812,396.38142 271.80858,399.18671 L 276.22372,394.82361 C 286.52105,390.186 266.68491,399.45785 281.02274,392.52594 C 287.75394,388.98558 294.10191,385.25825 298.90854,381.04911 C 304.0995,376.3409 308.33223,371.37566 309.25154,366.02414 C 309.73424,360.94574 308.42161,355.96518 301.94684,351.73927 C 295.56448,347.94444 287.61067,345.24199 277.32371,344.41491 C 266.11871,343.66041 254.89981,344.08683 244.10029,345.77231 C 237.6716,346.77233 231.43745,348.01729 225.87876,349.87593 C 223.92894,350.52789 218.73313,352.8662 220.36545,352.04077 C 222.02514,351.20148 223.75902,350.39588 225.46781,349.57911 C 226.53098,349.07083 221.26671,351.60594 222.4092,351.16316 C 216.36245,355.08656 213.10859,359.44532 213.82016,364.36913 C 214.55294,369.31504 216.57892,374.17757 219.5846,378.9276 C 221.87863,382.57754 224.39024,386.19471 227.20699,389.76193 C 227.91514,390.70187 228.65197,391.64796 229.24978,392.60137 L 220.90804,395.38468 z "
       id="path1333" />
    <path
       style="opacity:1;fill:#e3c596;fill-opacity:1;fill-rule:nonzero;stroke:none;stroke-width:1px;stroke-linecap:butt;stroke-linejoin:miter;stroke-opacity:1"
       d="M 417.7589,595.87275 C 417.7324,595.09788 416.77112,594.11495 416.18563,593.32621 C 413.35956,589.74019 410.81121,586.10891 408.48123,582.44401 C 405.40003,577.63193 403.29882,572.70479 402.41135,567.69518 C 401.49637,562.6376 404.39704,558.05062 410.18441,553.85714 C 419.46985,547.89183 431.60651,544.24565 446.23823,542.12153 C 457.38297,540.47938 468.88905,540.17298 480.34971,541.05124 C 491.11601,542.02557 499.47055,544.9359 506.2188,548.90801 C 512.90474,553.27139 514.98702,558.47357 514.51275,563.77579 C 513.89163,569.23778 509.76943,574.35128 504.67687,579.19047 C 500.00224,583.47937 493.74483,587.29298 487.04881,590.90306 C 481.18874,593.95022 475.03204,596.86949 468.65942,599.67481 L 473.07456,595.3117 C 483.37189,590.67407 463.53575,599.94595 477.87358,593.01404 C 484.60478,589.47367 490.95275,585.74634 495.75939,581.53718 C 500.95035,576.82897 505.18307,571.86373 506.10238,566.51221 C 506.5851,561.43381 505.27245,556.45329 498.79768,552.22737 C 492.41532,548.43254 484.46151,545.73007 474.17456,544.90299 C 462.96957,544.14848 451.75065,544.57491 440.95113,546.26041 C 434.52244,547.26043 428.28829,548.50537 422.7296,550.364 C 420.7798,551.01599 415.58397,553.3543 417.21629,552.52885 C 418.876,551.68955 420.60987,550.88395 422.31865,550.06718 C 423.38183,549.55894 418.11755,552.09405 419.26004,551.65126 C 413.2133,555.57464 409.95942,559.93342 410.671,564.8572 C 411.40378,569.80311 413.42976,574.66564 416.43544,579.4157 C 418.72949,583.06564 421.24108,586.6828 424.05783,590.25003 C 424.76598,591.18994 425.50281,592.13606 426.10062,593.08944 L 417.7589,595.87275 z "
       id="path3222" />
    <path
       style="opacity:1;color:#000000;fill:#7529a4;fill-opacity:1;fill-rule:evenodd;stroke:none;stroke-width:15;stroke-linecap:square;stroke-linejoin:miter;marker:none;marker-start:none;marker-mid:none;marker-end:none;stroke-miterlimit:4;stroke-dasharray:none;stroke-dashoffset:0;stroke-opacity:1;visibility:visible;display:inline;overflow:visible"
       d="M 510.87652,461.87641 C 485.89387,445.96354 496.60033,417.06785 537.10753,415.70266 C 558.70391,414.04444 597.18551,407.26796 601.48043,435.21915 C 605.11188,453.47486 551.27331,473.09792 592.96538,461.78893 C 628.74549,457.67069 671.1151,449.27629 703.37628,467.81191 C 719.42481,487.46183 695.27492,498.0986 666.32042,503.72345 C 618.12736,506.79078 613.28706,503.90854 589.2956,501.26926 C 577.2733,504.65969 616.75245,526.35347 602.04829,542.76083 C 589.31655,556.22708 562.15491,549.15016 546.82448,543.18829 C 516.49882,525.03549 525.01166,503.30935 505.5276,533.44266 C 487.49115,551.51539 449.67161,558.5513 427.53298,541.18255 C 413.49907,526.1306 418.47483,516.71083 445.94704,499.66171 C 487.50256,482.61429 470.34011,487.76098 443.44586,486.0134 C 422.73728,482.20674 372.97733,482.07344 383.30493,454.37466 C 395.69782,437.52945 426.7585,435.51353 447.01257,439.58505 C 470.74481,444.29344 490.54739,457.25454 512.5532,465.54234"
       id="path3164" />
    <path
       style="opacity:1;fill:#e3c596;fill-opacity:1;fill-rule:nonzero;stroke:none;stroke-width:1px;stroke-linecap:butt;stroke-linejoin:miter;stroke-opacity:1"
       d="M 270.02716,398.44503 C 269.59212,396.71796 276.46864,394.73932 279.90959,393.4961 C 284.56906,391.86709 289.76057,390.65562 295.04466,389.56188 C 305.64888,387.48939 316.85671,386.25291 328.04913,385.13945 C 340.88938,383.89323 353.84937,382.75535 366.99272,382.70543 C 380.25692,382.64726 392.3613,385.07153 402.78781,388.82715 C 413.50235,392.85607 420.81994,398.46433 423.78973,404.77957 C 428.06191,413.7724 418.871,419.40406 406.12159,425.44959 C 394.41219,430.45614 379.22302,432.65191 363.95888,433.8038 C 350.38547,434.77264 336.60356,434.55581 323.06571,433.59218 C 313.70302,432.93089 304.62021,431.64178 295.94051,429.86841 C 289.80495,428.56395 284.31074,426.72537 279.20262,424.6708 C 278.26775,424.30126 277.42426,423.88442 276.53554,423.49146 L 283.72142,420.05748 C 284.57868,420.43576 285.3912,420.83773 286.29397,421.19281 C 291.24421,423.17526 296.57372,424.94376 302.53712,426.17749 C 311.07824,427.88294 320.00128,429.10735 329.19147,429.72273 C 342.55763,430.62454 356.15468,430.78008 369.51665,429.74558 C 384.51275,428.51869 399.33629,426.21334 410.49013,421.07584 C 408.96548,421.81654 407.4537,422.56324 405.9162,423.29788 C 403.20631,424.59271 411.15255,420.57514 412.98106,418.96951 C 416.84389,415.57737 416.80902,411.46286 415.72718,407.74253 C 413.13099,401.6365 406.13062,396.21655 395.80072,392.35233 C 385.68862,388.73788 373.97858,386.49993 361.15778,386.67491 C 348.13289,386.81267 335.29983,387.97352 322.57533,389.2233 C 311.49266,390.34858 300.39147,391.60973 289.96047,393.75771 C 284.81393,394.88461 279.75901,396.13176 275.30533,397.81494 C 268.4231,400.57388 278.31385,397.54512 278.36888,395.66172 L 270.02716,398.44503 z "
       id="path1337" />
    <path
       style="opacity:1;fill:#e3c596;fill-opacity:1;fill-rule:nonzero;stroke:none;stroke-width:1px;stroke-linecap:butt;stroke-linejoin:miter;stroke-opacity:1"
       d="M 276.89901,423.50216 C 284.43034,419.65346 281.47647,418.79283 286.44702,421.23819 C 291.70035,423.91425 295.87506,426.99309 299.64036,430.17064 C 306.29731,435.95584 311.38876,442.1198 315.3629,448.42851 C 319.00377,454.20447 321.25273,460.16465 320.73213,466.19934 C 319.76196,471.77307 312.31835,476.12883 301.88312,478.70263 C 294.73884,480.2545 287.31016,479.99243 279.89849,479.11387 C 271.77936,478.0222 264.40893,476.0929 257.61332,473.75565 C 250.59323,471.24939 245.09431,468.02678 240.54676,464.49101 C 235.96004,460.74819 233.48804,456.58376 231.65116,452.37493 C 230.02237,448.34641 229.50321,444.24733 229.41064,440.15332 C 229.34042,437.33657 229.80294,434.52945 230.46484,431.73307 L 238.95905,429.05569 C 238.25107,431.81505 237.72352,434.58589 237.7506,437.36881 C 237.77073,441.40616 238.21626,445.44964 239.74154,449.42906 C 241.44674,453.53422 243.75169,457.60389 248.15086,461.26637 C 252.49371,464.69573 257.78625,467.8139 264.58647,470.2242 C 271.17701,472.46976 278.33267,474.31644 286.2179,475.31523 C 293.27534,476.07195 300.27346,476.16326 306.81862,474.467 C 310.41956,473.38735 316.73845,470.29613 305.90536,475.54071 C 304.41218,476.26362 315.49249,468.84321 312.29209,468.91506 C 313.13507,462.99535 310.90511,457.13452 307.40966,451.45735 C 303.53987,445.21189 298.54459,439.11132 292.00843,433.3804 C 288.29481,430.28517 284.34409,427.24011 279.17806,424.63251 C 274.45521,422.30515 274.23437,423.31489 282.76167,419.54187 L 276.89901,423.50216 z "
       id="path1341" />
    <path
       style="opacity:1;fill:#e3c596;fill-opacity:1;fill-rule:nonzero;stroke:none;stroke-width:1px;stroke-linecap:butt;stroke-linejoin:miter;stroke-opacity:1"
       d="M 236.06683,427.56998 C 237.28837,427.81471 237.21138,428.42922 237.79693,428.86878 C 238.58532,430.88341 238.01477,432.94442 237.5252,434.96087 C 236.26662,439.48839 233.86979,443.92115 231.04271,448.27941 C 227.44901,453.76807 222.64038,459.06114 217.00276,464.14315 C 210.91007,469.73091 201.86094,474.53377 190.67319,477.92218 C 182.71786,480.20394 173.76797,480.70496 164.66892,480.44715 C 154.80529,479.98305 146.39034,477.75541 139.22588,474.61385 C 132.42666,471.37272 129.08625,467.24417 127.47996,462.81892 C 126.12655,458.12697 127.75721,453.47906 130.41729,448.96513 C 133.45579,444.14336 138.5933,439.74261 144.29678,435.53258 C 149.62701,431.64887 155.91928,428.10285 162.53494,424.705 C 169.83199,420.98663 177.50004,417.44094 186.07597,414.39717 C 188.74125,413.42914 191.60974,412.60679 194.48438,411.7908 L 189.643,416.05089 C 186.84571,416.89082 184.05876,417.73914 181.45181,418.71132 C 177.39943,420.21277 162.02516,427.21868 174.29032,421.38505 C 175.14835,420.97697 170.82293,423.03442 171.7343,422.6178 C 165.07007,425.95895 158.72919,429.45291 153.32278,433.2813 C 147.56774,437.40525 142.32638,441.71026 139.12321,446.44567 C 136.33869,450.81811 134.5343,455.33106 135.63944,459.91631 C 136.96546,464.13777 139.94897,468.08792 146.41246,471.18021 C 153.22772,474.15947 161.25966,476.21029 170.65697,476.52935 C 179.46436,476.66565 187.97787,476.01797 195.44967,473.64563 C 198.87002,472.50791 209.14216,467.87894 197.72607,473.30979 C 196.39018,473.94528 209.4478,466.15632 208.07822,466.48381 C 213.7974,461.46793 218.64886,456.22579 222.32967,450.79329 C 225.19715,446.48573 227.65393,442.10672 229.01898,437.62964 C 229.55389,435.7098 230.11565,433.76019 229.71969,431.82276 C 229.91841,431.70273 228.85864,430.60045 230.20415,431.53025 L 236.06683,427.56998 z "
       id="path1343" />
    <path
       style="opacity:1;color:#000000;fill:#f1e655;fill-opacity:1;fill-rule:evenodd;stroke:none;stroke-width:15;stroke-linecap:square;stroke-linejoin:miter;marker:none;marker-start:none;marker-mid:none;marker-end:none;stroke-miterlimit:4;stroke-dasharray:none;stroke-dashoffset:0;stroke-opacity:1;visibility:visible;display:inline;overflow:visible"
       d="M 220.17581,406.25828 C 213.30494,410.36792 216.49137,420.95212 224.47943,422.21039 C 234.97925,425.06597 246.40277,421.58669 255.08985,416.31914 C 259.41738,411.97099 254.62867,406.08212 249.36315,404.55146 C 240.3177,400.62226 228.42709,400.98434 220.17581,406.25828 z "
       id="path2245" />
    <path
       style="opacity:1;fill:#e3c596;fill-opacity:1;fill-rule:nonzero;stroke:none;stroke-width:1px;stroke-linecap:butt;stroke-linejoin:miter;stroke-opacity:1"
       d="M 235.40224,403.79714 C 237.412,404.53622 235.12615,403.97593 234.87567,404.13817 C 232.85581,404.06531 230.91918,404.30329 228.97773,404.51905 C 225.81462,404.94575 223.48336,405.93907 221.16122,406.9852 C 233.12311,400.56568 223.28057,406.26833 221.23491,408.52981 C 219.66072,410.42377 219.6668,412.28378 220.74123,414.21642 C 222.30047,416.22763 225.45966,417.57769 229.09602,418.7437 C 232.71783,419.79811 236.66277,420.10275 240.82709,420.07081 C 244.63079,419.9711 247.74303,419.14049 250.81543,418.16206 C 257.44616,414.63397 243.43721,422.91922 250.93857,417.70183 C 252.79422,416.3337 253.27013,414.83628 253.44591,413.25352 C 253.45259,411.77473 252.31512,410.47276 250.91239,409.18979 C 249.41888,407.98658 247.14792,407.16379 244.79435,406.37284 C 242.15998,405.55153 239.32989,404.90718 236.44882,404.31222 C 236.01598,404.22704 235.57268,404.15497 235.13459,404.07643 L 241.64157,400.34986 C 242.09794,400.43568 242.55996,400.51475 243.01067,400.60738 C 246.00072,401.25016 248.94923,401.93621 251.68538,402.80519 C 254.28082,403.69757 256.77952,404.63341 258.48902,405.9507 C 260.13487,407.35849 261.5209,408.79694 261.73622,410.4357 C 261.78978,412.15188 261.59578,413.81523 259.88113,415.37665 C 256.52032,418.19884 251.78585,420.62399 246.09395,422.45229 C 242.61477,423.3583 239.08579,424.07432 235.01539,424.04799 C 230.47105,423.94545 226.15153,423.51667 222.25185,422.33156 C 218.24979,421.00876 214.75403,419.48428 212.86374,417.28946 C 211.44647,415.19689 211.02868,413.15184 212.48513,411.0147 C 215.06367,407.50358 219.43177,405.09477 225.54598,402.61512 C 228.19646,401.59807 230.96531,400.72805 234.37827,400.41336 C 236.57803,400.25782 238.78346,400.06149 241.00604,400.27031 C 242.056,400.50419 243.13924,400.4098 243.74392,401.01375 L 235.40224,403.79714 z "
       id="path1345" />
    <path
       style="opacity:1;fill:#e3c596;fill-opacity:1;fill-rule:nonzero;stroke:none;stroke-width:1px;stroke-linecap:butt;stroke-linejoin:miter;stroke-opacity:1"
       d="M 510.65903,468.06588 C 510.41618,466.86716 508.50482,465.63211 507.12516,464.57865 C 498.90005,459.07231 487.99062,454.61238 476.83307,450.48997 C 463.65537,445.57019 448.66455,441.84124 431.94201,440.73809 C 417.2182,439.91818 402.98309,441.96821 391.96354,446.65922 C 391.30813,446.9768 389.31395,447.91606 389.99726,447.61201 C 391.65738,446.87328 393.15466,446.05054 394.89507,445.35477 C 396.95173,444.53247 391.51577,447.35275 390.16176,448.45557 C 386.28173,451.61578 384.67465,455.0874 384.82346,458.71953 C 385.57244,464.37199 391.7859,469.01486 400.52791,472.6983 C 410.44364,476.64005 422.36957,479.17496 434.43672,481.24745 C 445.45579,483.13368 456.85708,484.42828 468.41374,485.29267 C 472.67311,485.59927 476.96788,485.74767 481.26273,485.88158 L 475.28524,489.80305 C 470.93592,489.64961 466.58651,489.48363 462.27552,489.1577 C 450.59992,488.24533 439.08007,486.91065 427.95102,484.98238 C 415.64156,482.84014 403.50757,480.2096 393.41178,476.16491 C 384.34112,472.32778 377.53434,467.41358 376.52791,461.53384 C 375.6713,453.56945 383.64623,447.35822 396.46211,442.31528 C 408.23176,437.75445 423.00267,435.90206 438.07061,436.86964 C 455.09786,438.13161 470.39281,441.93838 483.84399,446.97543 C 495.19136,451.17641 506.25387,455.72491 514.65756,461.31637 C 516.33443,462.574 518.10475,463.8447 519.00071,465.28249 L 510.65903,468.06588 z "
       id="path3166" />
    <path
       style="opacity:1;fill:#e3c596;fill-opacity:1;fill-rule:nonzero;stroke:none;stroke-width:1px;stroke-linecap:butt;stroke-linejoin:miter;stroke-opacity:1"
       d="M 509.04855,467.29921 C 509.02205,466.52434 508.06078,465.54141 507.47529,464.75268 C 504.6492,461.16666 502.10087,457.5354 499.77089,453.87048 C 496.68969,449.0584 494.58847,444.13126 493.701,439.12165 C 492.78603,434.06407 495.68668,429.47708 501.47407,425.2836 C 510.7595,419.31829 522.89617,415.6721 537.52788,413.54799 C 548.67263,411.90584 560.1787,411.59944 571.63936,412.47769 C 582.40566,413.45203 590.76021,416.36236 597.50846,420.33447 C 604.1944,424.69786 606.27668,429.90003 605.80241,435.20226 C 605.18128,440.66428 601.05909,445.77775 595.96652,450.61694 C 591.29189,454.90584 585.03447,458.71947 578.33846,462.32952 C 572.4784,465.37669 566.32169,468.29595 559.94907,471.10128 L 564.36422,466.73817 C 574.66155,462.10054 554.82541,471.37241 569.16323,464.4405 C 575.89443,460.90014 582.24241,457.17281 587.04904,452.96365 C 592.24,448.25543 596.47272,443.2902 597.39203,437.9387 C 597.87474,432.86028 596.5621,427.87975 590.08733,423.65384 C 583.70498,419.859 575.75117,417.15653 565.46421,416.32945 C 554.25921,415.57497 543.0403,416.00136 532.24079,417.68687 C 525.81209,418.68689 519.57795,419.93183 514.01926,421.79047 C 512.06944,422.44246 506.87363,424.78077 508.50595,423.95531 C 510.16566,423.11601 511.89952,422.31042 513.6083,421.49367 C 514.67148,420.9854 509.40721,423.52051 510.5497,423.07773 C 504.50295,427.0011 501.24908,431.35989 501.96066,436.28367 C 502.69343,441.22961 504.71942,446.0921 507.7251,450.84217 C 510.01913,454.49211 512.53073,458.10927 515.34749,461.6765 C 516.05563,462.61643 516.79246,463.56253 517.39027,464.51591 L 509.04855,467.29921 z "
       id="path3168" />
    <path
       style="opacity:1;fill:#e3c596;fill-opacity:1;fill-rule:nonzero;stroke:none;stroke-width:1px;stroke-linecap:butt;stroke-linejoin:miter;stroke-opacity:1"
       d="M 558.16766,470.3596 C 557.73262,468.63252 564.60914,466.65389 568.05009,465.41063 C 572.70956,463.78162 577.90106,462.57019 583.18516,461.47642 C 593.78937,459.40393 604.9972,458.16745 616.18963,457.05399 C 629.02987,455.80779 641.98986,454.66991 655.13322,454.61997 C 668.39742,454.56179 680.50179,456.9861 690.9283,460.74172 C 701.64285,464.77063 708.96043,470.3789 711.93022,476.69411 C 716.2024,485.68697 707.0115,491.31862 694.26209,497.36415 C 682.55269,502.3707 667.36351,504.56647 652.09938,505.71836 C 638.52596,506.68717 624.74406,506.47037 611.20621,505.50671 C 601.84352,504.84542 592.76071,503.55634 584.081,501.78297 C 577.94544,500.47851 572.45124,498.6399 567.34312,496.58533 C 566.40825,496.21579 565.56476,495.79898 564.67604,495.40599 L 571.86192,491.97204 C 572.71918,492.35029 573.53171,492.75229 574.43446,493.10735 C 579.3847,495.08982 584.71422,496.85832 590.67762,498.09205 C 599.21873,499.7975 608.14178,501.02191 617.33196,501.63726 C 630.69812,502.5391 644.29517,502.69464 657.65714,501.66014 C 672.65325,500.43325 687.47679,498.1279 698.63062,492.99038 C 697.10598,493.7311 695.5942,494.47777 694.05671,495.21242 C 691.3468,496.50724 699.29305,492.4897 701.12156,490.88405 C 704.98439,487.49194 704.94951,483.37743 703.86768,479.65707 C 701.27148,473.55107 694.27112,468.13109 683.94122,464.2669 C 673.82912,460.65245 662.11908,458.41447 649.29828,458.58948 C 636.27339,458.7272 623.44033,459.88808 610.71583,461.13783 C 599.63316,462.26311 588.53196,463.52429 578.10097,465.67225 C 572.95442,466.79918 567.89951,468.0463 563.44583,469.72948 C 556.56359,472.48842 566.45434,469.45966 566.50938,467.57626 L 558.16766,470.3596 z "
       id="path3170" />
    <path
       style="opacity:1;fill:#e3c596;fill-opacity:1;fill-rule:nonzero;stroke:none;stroke-width:1px;stroke-linecap:butt;stroke-linejoin:miter;stroke-opacity:1"
       d="M 565.03951,495.41669 C 572.57084,491.568 569.61696,490.70739 574.58752,493.15275 C 579.84085,495.82881 584.01556,498.90762 587.78086,502.08517 C 594.4378,507.8704 599.52925,514.03436 603.5034,520.34304 C 607.14427,526.119 609.39322,532.07921 608.87263,538.1139 C 607.90245,543.6876 600.45884,548.04337 590.02362,550.61716 C 582.87933,552.16906 575.45066,551.90697 568.03898,551.0284 C 559.91986,549.93677 552.54943,548.00746 545.75382,545.67021 C 538.73372,543.16393 533.23482,539.94134 528.68726,536.40554 C 524.10054,532.66275 521.62854,528.49832 519.79166,524.2895 C 518.16286,520.26094 517.6437,516.16186 517.55114,512.06785 C 517.48092,509.25113 517.94344,506.44401 518.60534,503.64763 L 527.09955,500.97026 C 526.39157,503.72961 525.86402,506.50043 525.8911,509.28337 C 525.91123,513.32069 526.35675,517.3642 527.88204,521.34359 C 529.58724,525.44878 531.89221,529.51845 536.29135,533.18091 C 540.63421,536.61027 545.92675,539.72846 552.72696,542.13876 C 559.3175,544.38433 566.47316,546.231 574.3584,547.22976 C 581.41583,547.98651 588.41395,548.07779 594.95911,546.38156 C 598.56006,545.30191 604.87895,542.21069 594.04586,547.45527 C 592.55267,548.17815 603.63299,540.75778 600.43259,540.82962 C 601.27557,534.90988 599.04561,529.04905 595.55015,523.37188 C 591.68037,517.12642 586.68509,511.02585 580.14892,505.29496 C 576.4353,502.19973 572.48459,499.15464 567.31856,496.54704 C 562.5957,494.21971 562.37486,495.22945 570.90217,491.45643 L 565.03951,495.41669 z "
       id="path3172" />
    <path
       style="opacity:1;color:#000000;fill:#f1e655;fill-opacity:1;fill-rule:evenodd;stroke:none;stroke-width:15;stroke-linecap:square;stroke-linejoin:miter;marker:none;marker-start:none;marker-mid:none;marker-end:none;stroke-miterlimit:4;stroke-dasharray:none;stroke-dashoffset:0;stroke-opacity:1;visibility:visible;display:inline;overflow:visible"
       d="M 508.31631,478.17284 C 501.44544,482.28246 504.63186,492.86668 512.61993,494.12495 C 523.11974,496.9805 534.54327,493.50125 543.23035,488.23368 C 547.55788,483.88556 542.76916,477.99666 537.50365,476.46599 C 528.4582,472.53682 516.56759,472.89891 508.31631,478.17284 z "
       id="path3176" />
    <path
       style="opacity:1;fill:#e3c596;fill-opacity:1;fill-rule:nonzero;stroke:none;stroke-width:1px;stroke-linecap:butt;stroke-linejoin:miter;stroke-opacity:1"
       d="M 523.54273,475.71171 C 525.55249,476.45075 523.26665,475.8905 523.01616,476.05273 C 520.99631,475.97988 519.05967,476.21785 517.11823,476.43361 C 513.95511,476.86029 511.62385,477.85361 509.30172,478.89976 C 521.2636,472.48024 511.42106,478.18287 509.37541,480.44435 C 507.80122,482.33831 507.80729,484.19832 508.88173,486.13099 C 510.44097,488.14219 513.60015,489.49225 517.23652,490.65823 C 520.85833,491.71264 524.80327,492.01728 528.96759,491.98537 C 532.77128,491.88566 535.88353,491.05502 538.95592,490.07663 C 545.58665,486.54853 531.57772,494.83378 539.07906,489.61637 C 540.93471,488.24827 541.41064,486.75082 541.58641,485.16806 C 541.59308,483.68929 540.45561,482.38733 539.05288,481.10432 C 537.55938,479.90115 535.28842,479.07833 532.93484,478.28738 C 530.30047,477.46609 527.47038,476.82175 524.58932,476.22679 C 524.15648,476.14158 523.71318,476.06954 523.27508,475.99097 L 529.78207,472.26439 C 530.23844,472.35025 530.70045,472.42932 531.15117,472.52195 C 534.14121,473.1647 537.08973,473.85077 539.82587,474.71976 C 542.42131,475.61213 544.92002,476.54798 546.62952,477.86524 C 548.27536,479.27302 549.6614,480.71148 549.87671,482.35027 C 549.93028,484.06645 549.73628,485.7298 548.02163,487.29119 C 544.66082,490.1134 539.92634,492.53855 534.23444,494.36685 C 530.75526,495.27286 527.22629,495.98886 523.1559,495.96253 C 518.61154,495.86001 514.29202,495.43123 510.39234,494.2461 C 506.39029,492.92332 502.89453,491.39882 501.00423,489.20403 C 499.58698,487.11142 499.16918,485.06641 500.62562,482.92926 C 503.20416,479.41812 507.57227,477.00933 513.68648,474.52965 C 516.33696,473.51264 519.10581,472.64259 522.51877,472.32792 C 524.71853,472.17235 526.92395,471.97606 529.14654,472.18485 C 530.19649,472.41876 531.27974,472.32436 531.88442,472.92832 L 523.54273,475.71171 z "
       id="path3178" />
    <path
       style="opacity:1;fill:#e3c596;fill-opacity:1;fill-rule:nonzero;stroke:none;stroke-width:1px;stroke-linecap:butt;stroke-linejoin:miter;stroke-opacity:1"
       d="M 466.878,598.93313 C 466.44296,597.20606 473.31949,595.22742 476.76044,593.98417 C 481.4199,592.35516 486.61141,591.14372 491.8955,590.04995 C 502.49972,587.97746 513.70755,586.74098 524.89997,585.62752 C 537.74022,584.38133 550.70021,583.24342 563.84357,583.1935 C 577.10776,583.13533 589.21214,585.55963 599.63865,589.31522 C 610.3532,593.34416 617.67078,598.95243 620.64057,605.26764 C 624.91275,614.2605 615.72184,619.89216 602.97243,625.93768 C 591.26303,630.94424 576.07386,633.14 560.80974,634.29189 C 547.23631,635.2607 533.4544,635.04391 519.91655,634.08025 C 510.55388,633.41896 501.47105,632.12988 492.79135,630.35647 C 486.65579,629.05204 481.16158,627.21343 476.05346,625.15886 C 475.11859,624.78933 474.2751,624.37251 473.38638,623.97953 L 480.57226,620.54555 C 481.42952,620.92382 482.24206,621.32582 483.14481,621.68088 C 488.09505,623.66335 493.42456,625.43185 499.38796,626.66558 C 507.92908,628.37103 516.85212,629.59541 526.04231,630.21079 C 539.40847,631.11263 553.00552,631.26817 566.36749,630.23368 C 581.36359,629.00678 596.18713,626.70144 607.34097,621.56391 C 605.81632,622.30464 604.30454,623.0513 602.76706,623.78595 C 600.05715,625.08077 608.00339,621.0632 609.8319,619.45758 C 613.69473,616.06547 613.65986,611.95093 612.57802,608.2306 C 609.98185,602.1246 602.98146,596.70462 592.65156,592.84043 C 582.53948,589.22598 570.82943,586.988 558.00862,587.16298 C 544.98373,587.30074 532.15067,588.46161 519.42619,589.71137 C 508.3435,590.83664 497.24231,592.09783 486.81133,594.24578 C 481.66477,595.37271 476.60985,596.61983 472.15618,598.30301 C 465.27394,601.06195 475.16469,598.03319 475.21974,596.14979 L 466.878,598.93313 z "
       id="path3224" />
    <path
       style="opacity:1;fill:#e3c596;fill-opacity:1;fill-rule:nonzero;stroke:none;stroke-width:1px;stroke-linecap:butt;stroke-linejoin:miter;stroke-opacity:1"
       d="M 473.74985,623.99023 C 481.28118,620.14153 478.32731,619.28092 483.29786,621.72628 C 488.5512,624.40234 492.7259,627.48115 496.4912,630.6587 C 503.14817,636.44393 508.2396,642.60786 512.21376,648.91657 C 515.85461,654.69253 518.10357,660.65275 517.58299,666.68744 C 516.6128,672.26114 509.16921,676.6169 498.73397,679.19069 C 491.58968,680.74259 484.161,680.4805 476.74933,679.60194 C 468.6302,678.5103 461.25977,676.58099 454.46416,674.24372 C 447.44407,671.73746 441.94517,668.51487 437.3976,664.97907 C 432.81088,661.23628 430.33889,657.07185 428.502,652.86303 C 426.87321,648.83448 426.35405,644.7354 426.26148,640.64139 C 426.19126,637.82463 426.65378,635.01755 427.31568,632.22116 L 435.80989,629.54379 C 435.10191,632.30312 434.57436,635.07396 434.60145,637.85687 C 434.62157,641.89422 435.0671,645.93773 436.5924,649.91712 C 438.29758,654.02231 440.60255,658.09198 445.0017,661.75444 C 449.34455,665.1838 454.63709,668.30197 461.43731,670.71229 C 468.02785,672.95786 475.18351,674.80454 483.06876,675.80329 C 490.12618,676.56004 497.1243,676.65132 503.66946,674.95506 C 507.2704,673.87544 513.58931,670.78419 502.7562,676.0288 C 501.26302,676.75168 512.34333,669.33128 509.14293,669.40315 C 509.98591,663.48342 507.75595,657.62259 504.2605,651.94542 C 500.39071,645.69995 495.39543,639.59938 488.85927,633.86849 C 485.14565,630.77326 481.19493,627.72817 476.0289,625.12057 C 471.30605,622.79322 471.08521,623.80298 479.61252,620.02996 L 473.74985,623.99023 z "
       id="path3226" />
    <path
       style="opacity:1;fill:#e3c596;fill-opacity:1;fill-rule:nonzero;stroke:none;stroke-width:1px;stroke-linecap:butt;stroke-linejoin:miter;stroke-opacity:1"
       d="M 432.91767,628.05805 C 434.13921,628.30277 434.06222,628.91731 434.64777,629.35685 C 435.43616,631.37147 434.86561,633.43248 434.37606,635.44896 C 433.11747,639.97648 430.72064,644.40922 427.89356,648.76748 C 424.29985,654.25614 419.49122,659.5492 413.8536,664.63121 C 407.76092,670.219 398.71178,675.02187 387.52403,678.41025 C 379.56869,680.692 370.61881,681.19305 361.51976,680.93524 C 351.65613,680.47112 343.24118,678.24347 336.07672,675.10195 C 329.27749,671.86082 325.93709,667.73224 324.3308,663.30698 C 322.97739,658.61507 324.60805,653.96716 327.26814,649.45322 C 330.30663,644.63142 335.44413,640.23067 341.14762,636.02064 C 346.47784,632.13696 352.77012,628.59094 359.38578,625.19309 C 366.68282,621.4747 374.35088,617.92901 382.92681,614.88527 C 385.59209,613.91724 388.4606,613.09486 391.33522,612.2789 L 386.49384,616.53898 C 383.69655,617.37892 380.90962,618.22721 378.30267,619.19938 C 374.25027,620.70083 358.876,627.70677 371.14116,621.87314 C 371.99919,621.46506 367.67379,623.52251 368.58514,623.10589 C 361.92091,626.44705 355.58003,629.94097 350.17364,633.76936 C 344.41857,637.89334 339.17722,642.19833 335.97405,646.93374 C 333.18952,651.3062 331.38514,655.81913 332.49028,660.40441 C 333.81632,664.62584 336.79981,668.57602 343.2633,671.6683 C 350.07858,674.64754 358.1105,676.69835 367.50781,677.01744 C 376.3152,677.15374 384.8287,676.50604 392.30051,674.13372 C 395.72086,672.99601 405.993,668.367 394.5769,673.79788 C 393.24102,674.43335 406.29863,666.64441 404.92906,666.97191 C 410.64824,661.95603 415.4997,656.71388 419.18051,651.28138 C 422.048,646.97382 424.50477,642.59478 425.86982,638.1177 C 426.40473,636.19786 426.96649,634.24825 426.57053,632.31082 C 426.76925,632.19083 425.70948,631.08854 427.05501,632.01834 L 432.91767,628.05805 z "
       id="path3228" />
    <path
       style="opacity:1;color:#000000;fill:#f1e655;fill-opacity:1;fill-rule:evenodd;stroke:none;stroke-width:15;stroke-linecap:square;stroke-linejoin:miter;marker:none;marker-start:none;marker-mid:none;marker-end:none;stroke-miterlimit:4;stroke-dasharray:none;stroke-dashoffset:0;stroke-opacity:1;visibility:visible;display:inline;overflow:visible"
       d="M 417.02665,606.74638 C 410.15578,610.85599 413.34221,621.44019 421.33027,622.69849 C 431.83009,625.55403 443.25363,622.07476 451.94069,616.80721 C 456.26823,612.45906 451.47951,606.57019 446.21399,605.03953 C 437.16854,601.11035 425.27793,601.47244 417.02665,606.74638 z "
       id="path3230" />
    <path
       style="opacity:1;fill:#e3c596;fill-opacity:1;fill-rule:nonzero;stroke:none;stroke-width:1px;stroke-linecap:butt;stroke-linejoin:miter;stroke-opacity:1"
       d="M 432.25308,604.28524 C 434.26284,605.02429 431.977,604.464 431.72651,604.62624 C 429.70665,604.55341 427.77002,604.79138 425.82857,605.00715 C 422.66548,605.43382 420.3342,606.42714 418.01207,607.47329 C 429.97395,601.05375 420.13141,606.7564 418.08575,609.01788 C 416.51156,610.91184 416.51764,612.77185 417.59208,614.70452 C 419.15131,616.71573 422.3105,618.06579 425.94686,619.23176 C 429.56867,620.28617 433.51362,620.59081 437.67793,620.55891 C 441.48163,620.45919 444.59387,619.62855 447.66627,618.65013 C 454.297,615.12206 440.28807,623.40731 447.78941,618.1899 C 449.64506,616.8218 450.12099,615.32435 450.29675,613.74159 C 450.30343,612.26282 449.16596,610.96083 447.76323,609.67786 C 446.26972,608.47468 443.99876,607.65186 441.64519,606.86091 C 439.01082,606.03963 436.18073,605.39528 433.29966,604.80032 C 432.86683,604.71511 432.42352,604.64307 431.98543,604.5645 L 438.49241,600.83793 C 438.94878,600.92375 439.4108,601.00285 439.86151,601.09545 C 442.85156,601.73823 445.80007,602.42428 448.53622,603.29329 C 451.13166,604.18564 453.63037,605.12151 455.33986,606.43877 C 456.98571,607.84656 458.37174,609.28501 458.58706,610.9238 C 458.64064,612.63995 458.44662,614.30333 456.73199,615.86472 C 453.37116,618.68694 448.63669,621.11208 442.94479,622.94035 C 439.46561,623.8464 435.93663,624.56239 431.86625,624.53606 C 427.32189,624.43354 423.00239,624.00474 419.10269,622.81963 C 415.10063,621.49685 411.60487,619.97235 409.71457,617.77756 C 408.29732,615.68496 407.87952,613.63991 409.33596,611.5028 C 411.91451,607.99165 416.28263,605.58286 422.39682,603.10319 C 425.0473,602.08617 427.81615,601.21612 431.22911,600.90143 C 433.42887,600.74589 435.6343,600.54956 437.85688,600.75838 C 438.90684,600.99229 439.99009,600.8979 440.59476,601.50185 L 432.25308,604.28524 z "
       id="path3232" />
    <path
       style="opacity:1;fill:#e3c596;fill-opacity:1;fill-rule:nonzero;stroke:none;stroke-width:1px;stroke-linecap:butt;stroke-linejoin:miter;stroke-opacity:1"
       d="M 176.32603,554.12722 C 176.08318,552.92852 174.17184,551.69347 172.79216,550.63999 C 164.56707,545.13365 153.65762,540.67372 142.50007,536.55133 C 129.32237,531.63156 114.33157,527.9026 97.609011,526.79945 C 82.885203,525.97951 68.650094,528.02954 57.630567,532.72059 C 56.975157,533.03814 54.980957,533.97743 55.664262,533.67338 C 57.324401,532.93464 58.821659,532.1119 60.56207,531.4161 C 62.618737,530.59384 57.182776,533.41412 55.828765,534.51693 C 51.948738,537.67714 50.341654,541.14874 50.490465,544.78086 C 51.239462,550.43336 57.452899,555.07623 66.194937,558.75964 C 76.11064,562.70141 88.036594,565.23629 100.10372,567.30881 C 111.12279,569.19501 122.5241,570.48964 134.08074,571.35403 C 138.34011,571.66063 142.6349,571.809 146.92973,571.94294 L 140.95224,575.86441 C 136.60294,575.71097 132.25353,575.54498 127.94252,575.21906 C 116.26692,574.30666 104.7471,572.97198 93.618051,571.04374 C 81.30856,568.9015 69.174591,566.27096 59.078788,562.22624 C 50.008121,558.38912 43.201344,553.47494 42.194918,547.59518 C 41.33832,539.63082 49.313235,533.41958 62.129132,528.37662 C 73.898787,523.81582 88.669692,521.96343 103.73761,522.93098 C 120.76486,524.19294 136.05981,527.99974 149.51101,533.03677 C 160.85838,537.23778 171.92087,541.78625 180.32456,547.37771 C 182.00143,548.63533 183.77177,549.90604 184.66771,551.34385 L 176.32603,554.12722 z "
       id="path3184" />
    <path
       style="opacity:1;fill:#e3c596;fill-opacity:1;fill-rule:nonzero;stroke:none;stroke-width:1px;stroke-linecap:butt;stroke-linejoin:miter;stroke-opacity:1"
       d="M 174.71555,553.36058 C 174.68905,552.58571 173.72778,551.60278 173.14229,550.81404 C 170.31622,547.22802 167.76787,543.59674 165.43791,539.93184 C 162.35669,535.11976 160.25547,530.19262 159.36802,525.18299 C 158.45305,520.1254 161.3537,515.53844 167.14109,511.34497 C 176.42652,505.37966 188.56317,501.73345 203.19488,499.60936 C 214.33964,497.96721 225.84572,497.66078 237.30636,498.53904 C 248.07266,499.51339 256.42721,502.42373 263.17546,506.39584 C 269.86141,510.75922 271.94369,515.96137 271.4694,521.26362 C 270.8483,526.72562 266.72608,531.83911 261.63354,536.67827 C 256.95889,540.96718 250.70149,544.78081 244.00546,548.39086 C 238.1454,551.43805 231.98869,554.35732 225.61607,557.16264 L 230.03121,552.79951 C 240.32856,548.16191 220.49242,557.43378 234.83025,550.50184 C 241.56143,546.96148 247.9094,543.23418 252.71604,539.02502 C 257.90702,534.3168 262.13972,529.35156 263.05905,524.00004 C 263.54175,518.92164 262.2291,513.94108 255.75435,509.7152 C 249.37198,505.92034 241.41817,503.2179 231.13121,502.39081 C 219.92622,501.63631 208.7073,502.06273 197.90779,503.74821 C 191.47911,504.74826 185.24495,505.99319 179.68626,507.85183 C 177.73646,508.50379 172.54063,510.8421 174.17297,510.01667 C 175.83266,509.17738 177.56652,508.37178 179.27532,507.55501 C 180.33848,507.04674 175.07423,509.58185 176.2167,509.13909 C 170.16995,513.06246 166.9161,517.42125 167.62768,522.34503 C 168.36043,527.29094 170.38642,532.15347 173.3921,536.90353 C 175.68615,540.55347 178.19773,544.17061 181.01449,547.73786 C 181.72263,548.67777 182.45948,549.62387 183.05729,550.57727 L 174.71555,553.36058 z "
       id="path3186" />
    <path
       style="opacity:1;fill:#e3c596;fill-opacity:1;fill-rule:nonzero;stroke:none;stroke-width:1px;stroke-linecap:butt;stroke-linejoin:miter;stroke-opacity:1"
       d="M 223.83466,556.42093 C 223.39962,554.69389 230.27614,552.71523 233.71709,551.472 C 238.37655,549.84299 243.56808,548.63155 248.85216,547.53779 C 259.45637,545.46529 270.6642,544.22881 281.85662,543.11536 C 294.69687,541.86916 307.65686,540.73125 320.80022,540.68134 C 334.06442,540.62316 346.16879,543.04743 356.5953,546.80305 C 367.30987,550.832 374.62743,556.44026 377.59722,562.75547 C 381.8694,571.74833 372.6785,577.37995 359.92908,583.42548 C 348.21969,588.43203 333.03051,590.62783 317.7664,591.77972 C 304.19296,592.74853 290.41107,592.5317 276.87323,591.56807 C 267.51054,590.90678 258.42771,589.61767 249.748,587.8443 C 243.61244,586.53984 238.11824,584.70126 233.01011,582.64669 C 232.07526,582.27715 231.23176,581.86034 230.34306,581.46735 L 237.52893,578.03337 C 238.38619,578.41165 239.19871,578.81362 240.10146,579.16871 C 245.0517,581.15115 250.38123,582.91965 256.34462,584.15338 C 264.88573,585.85883 273.80877,587.08324 282.99898,587.69862 C 296.36514,588.60046 309.96217,588.756 323.32414,587.72147 C 338.32026,586.49458 353.14379,584.18923 364.29762,579.05174 C 362.773,579.79243 361.2612,580.53913 359.72371,581.27378 C 357.0138,582.5686 364.96005,578.55103 366.78858,576.94541 C 370.65138,573.55327 370.61651,569.43876 369.53468,565.71843 C 366.9385,559.6124 359.93812,554.19245 349.60821,550.32826 C 339.49613,546.71378 327.78608,544.47583 314.96528,544.65081 C 301.9404,544.78857 289.10734,545.94945 276.38285,547.1992 C 265.30018,548.32448 254.19896,549.58563 243.76799,551.73361 C 238.62142,552.86054 233.5665,554.10766 229.11283,555.79085 C 222.23061,558.54978 232.12136,555.52103 232.17639,553.63763 L 223.83466,556.42093 z "
       id="path3188" />
    <path
       style="opacity:1;fill:#e3c596;fill-opacity:1;fill-rule:nonzero;stroke:none;stroke-width:1px;stroke-linecap:butt;stroke-linejoin:miter;stroke-opacity:1"
       d="M 230.70652,581.47805 C 238.23785,577.62936 235.28396,576.76872 240.25452,579.21408 C 245.50787,581.89017 249.68256,584.96898 253.44785,588.14653 C 260.10482,593.93173 265.19627,600.09569 269.17041,606.4044 C 272.81127,612.18036 275.06022,618.14057 274.53965,624.17523 C 273.56945,629.74896 266.12586,634.10473 255.69062,636.67852 C 248.54633,638.23042 241.11766,637.96833 233.70598,637.08976 C 225.58687,635.9981 218.21644,634.06879 211.42082,631.73154 C 204.40074,629.22529 198.90182,626.00267 194.35426,622.4669 C 189.76754,618.72408 187.29554,614.55968 185.45866,610.35083 C 183.82988,606.3223 183.3107,602.22322 183.21814,598.12921 C 183.14794,595.31246 183.61046,592.50537 184.27236,589.70899 L 192.76655,587.03161 C 192.05857,589.79094 191.53102,592.56179 191.55812,595.3447 C 191.57823,599.38205 192.02375,603.42556 193.54906,607.40495 C 195.25424,611.51014 197.5592,615.57978 201.95835,619.24227 C 206.30122,622.67162 211.59375,625.78979 218.39396,628.20009 C 224.9845,630.44568 232.14018,632.29233 240.02541,633.29112 C 247.08283,634.04784 254.08095,634.13915 260.62611,632.44289 C 264.22708,631.36324 270.54596,628.27202 259.71288,633.5166 C 258.21967,634.23951 269.29999,626.81911 266.09961,626.89095 C 266.94259,620.97124 264.71261,615.11041 261.21715,609.43324 C 257.34738,603.18778 252.3521,597.08721 245.81592,591.35632 C 242.10232,588.26106 238.15158,585.216 232.98556,582.6084 C 228.26272,580.28104 228.04188,581.29078 236.56917,577.51776 L 230.70652,581.47805 z "
       id="path3190" />
    <path
       style="opacity:1;fill:#e3c596;fill-opacity:1;fill-rule:nonzero;stroke:none;stroke-width:1px;stroke-linecap:butt;stroke-linejoin:miter;stroke-opacity:1"
       d="M 189.87433,585.54588 C 191.09588,585.7906 191.01887,586.40511 191.60442,586.84467 C 192.39284,588.8593 191.82226,590.92031 191.33272,592.93679 C 190.07412,597.46431 187.6773,601.89705 184.85021,606.2553 C 181.25651,611.74396 176.44787,617.03703 170.81025,622.11904 C 164.71758,627.7068 155.66845,632.50969 144.48069,635.89807 C 136.52535,638.17983 127.57547,638.68088 118.47642,638.42304 C 108.61281,637.95894 100.19783,635.7313 93.033381,632.58975 C 86.23415,629.34864 82.893747,625.22007 81.287455,620.79481 C 79.934047,616.10289 81.564707,611.45496 84.224805,606.94102 C 87.263304,602.11925 92.400791,597.7185 98.104291,593.50847 C 103.43452,589.62479 109.72678,586.07874 116.34246,582.68092 C 123.63948,578.96252 131.30754,575.41684 139.88346,572.37309 C 142.54875,571.40504 145.41726,570.58269 148.29187,569.76673 L 143.4505,574.02678 C 140.65323,574.86675 137.86627,575.71503 135.25932,576.68721 C 131.20693,578.18866 115.83265,585.1946 128.09784,579.36097 C 128.95585,578.95286 124.63044,581.01031 125.54181,580.59369 C 118.87759,583.93485 112.53669,587.4288 107.1303,591.25719 C 101.37523,595.38114 96.133881,599.68615 92.930701,604.42157 C 90.146184,608.79403 88.341817,613.30696 89.446942,617.89221 C 90.772982,622.11366 93.756461,626.06381 100.21996,629.1561 C 107.03524,632.13537 115.06715,634.18618 124.46447,634.50527 C 133.27188,634.64157 141.78536,633.99386 149.25717,631.62152 C 152.67752,630.48383 162.94967,625.85483 151.53356,631.28568 C 150.19769,631.92117 163.25531,624.13221 161.88572,624.45973 C 167.60489,619.44383 172.45636,614.20168 176.13716,608.76918 C 179.00467,604.46162 181.46143,600.08261 182.82647,595.60553 C 183.3614,593.68569 183.92317,591.73608 183.52719,589.79865 C 183.7259,589.67862 182.66616,588.57634 184.01166,589.50617 L 189.87433,585.54588 z "
       id="path3192" />
    <path
       style="opacity:1;color:#000000;fill:#f1e655;fill-opacity:1;fill-rule:evenodd;stroke:none;stroke-width:15;stroke-linecap:square;stroke-linejoin:miter;marker:none;marker-start:none;marker-mid:none;marker-end:none;stroke-miterlimit:4;stroke-dasharray:none;stroke-dashoffset:0;stroke-opacity:1;visibility:visible;display:inline;overflow:visible"
       d="M 173.98331,564.23417 C 167.11246,568.34381 170.29886,578.92802 178.28693,580.18631 C 188.78674,583.04186 200.21029,579.56258 208.89736,574.29503 C 213.2249,569.94689 208.43616,564.05802 203.17065,562.52735 C 194.12521,558.59816 182.23459,558.96027 173.98331,564.23417 z "
       id="path3194" />
    <path
       style="opacity:1;fill:#e3c596;fill-opacity:1;fill-rule:nonzero;stroke:none;stroke-width:1px;stroke-linecap:butt;stroke-linejoin:miter;stroke-opacity:1"
       d="M 189.20973,561.77304 C 191.21949,562.51211 188.93365,561.95183 188.68318,562.11406 C 186.66333,562.04124 184.72667,562.27918 182.78523,562.49497 C 179.62213,562.92165 177.29085,563.91497 174.96872,564.96109 C 186.93062,558.54158 177.08806,564.24423 175.04241,566.50571 C 173.46822,568.39967 173.47429,570.25968 174.54875,572.19232 C 176.10797,574.20355 179.26715,575.55358 182.90352,576.71959 C 186.52533,577.774 190.47027,578.07864 194.63459,578.04671 C 198.43828,577.94702 201.55053,577.11638 204.62294,576.13796 C 211.25365,572.60986 197.24472,580.89511 204.74608,575.67772 C 206.60173,574.3096 207.07764,572.81218 207.25341,571.22941 C 207.26008,569.75062 206.12261,568.44866 204.71988,567.16568 C 203.22638,565.96251 200.95542,565.13968 198.60184,564.34874 C 195.96747,563.52745 193.13738,562.88308 190.25633,562.28815 C 189.82348,562.20294 189.38018,562.13087 188.94208,562.05233 L 195.44907,558.32576 C 195.90546,558.41158 196.36745,558.49068 196.81819,558.58328 C 199.80823,559.22606 202.75673,559.91211 205.49287,560.78109 C 208.08831,561.67346 210.58702,562.60931 212.29654,563.9266 C 213.94236,565.33438 215.3284,566.77284 215.54371,568.41163 C 215.5973,570.12778 215.40328,571.79113 213.68865,573.35255 C 210.32784,576.17474 205.59336,578.59991 199.90144,580.42818 C 196.42226,581.33422 192.89329,582.05022 188.8229,582.02389 C 184.27854,581.92134 179.95904,581.49256 176.05934,580.30746 C 172.05729,578.98465 168.56153,577.46017 166.67123,575.26536 C 165.25398,573.17278 164.8362,571.12774 166.29262,568.99062 C 168.87116,565.47947 173.23929,563.07069 179.35348,560.59101 C 182.00398,559.57397 184.77281,558.70395 188.18579,558.38926 C 190.38555,558.23372 192.59097,558.0374 194.81356,558.24621 C 195.86351,558.4801 196.94674,558.38573 197.55142,558.98968 L 189.20973,561.77304 z "
       id="path3196" />
    <path
       style="opacity:1;fill:#e3c596;fill-opacity:1;fill-rule:nonzero;stroke:none;stroke-width:1px;stroke-linecap:butt;stroke-linejoin:miter;stroke-opacity:1"
       d="M 524.20733,499.48452 C 525.42886,499.72924 525.35187,500.34378 525.93742,500.78334 C 526.72582,502.79794 526.15526,504.85895 525.6657,506.87543 C 524.40712,511.40295 522.0103,515.83569 519.18321,520.19394 C 515.58951,525.68263 510.78087,530.97567 505.14325,536.05771 C 499.05056,541.64547 490.00143,546.44833 478.81369,549.83674 C 470.85835,552.11847 461.90847,552.61952 452.80941,552.36171 C 442.94579,551.89758 434.53083,549.66994 427.36638,546.52841 C 420.56715,543.28728 417.22674,539.15871 415.62045,534.73345 C 414.26704,530.04154 415.8977,525.39362 418.55778,520.87969 C 421.59628,516.05789 426.73379,511.65714 432.43727,507.44711 C 437.7675,503.56343 444.05978,500.01741 450.67544,496.61956 C 457.97248,492.90116 465.64053,489.35548 474.21646,486.31173 C 476.88175,485.34371 479.75026,484.52136 482.62487,483.70537 L 477.7835,487.96545 C 474.98621,488.80539 472.19925,489.65367 469.59232,490.62585 C 465.53993,492.1273 450.16565,499.13324 462.43081,493.29961 C 463.28885,492.89153 458.96342,494.94898 459.87479,494.53236 C 453.21056,497.87352 446.86968,501.36747 441.46328,505.19583 C 435.70823,509.31981 430.46687,513.62482 427.2637,518.36021 C 424.47918,522.73267 422.67479,527.24562 423.77994,531.83088 C 425.10596,536.0523 428.08946,540.00248 434.55295,543.09477 C 441.36822,546.07401 449.40015,548.12482 458.79747,548.44391 C 467.60486,548.58021 476.11836,547.9325 483.59017,545.56019 C 487.01052,544.42248 497.28265,539.79347 485.86656,545.22435 C 484.53067,545.85984 497.58829,538.07088 496.21872,538.39837 C 501.93789,533.38249 506.78936,528.14035 510.47016,522.70785 C 513.33765,518.40029 515.79443,514.02128 517.15947,509.5442 C 517.69438,507.62433 518.25615,505.67475 517.86019,503.73729 C 518.0589,503.61729 516.99914,502.51501 518.34464,503.44481 L 524.20733,499.48452 z "
       id="path3174" />
    <path
       style="opacity:1;color:#000000;fill:#a4294b;fill-opacity:1;fill-rule:evenodd;stroke:none;stroke-width:15;stroke-linecap:square;stroke-linejoin:miter;marker:none;marker-start:none;marker-mid:none;marker-end:none;stroke-miterlimit:4;stroke-dasharray:none;stroke-dashoffset:0;stroke-opacity:1;visibility:visible;display:inline;overflow:visible"
       d="M 304.58588,482.61404 C 279.60326,466.70114 290.3097,437.80549 330.8169,436.44027 C 352.41328,434.78208 390.89488,428.00557 395.1898,455.95675 C 398.82125,474.2125 344.9827,493.83553 386.67475,482.52656 C 422.45488,478.40832 464.82449,470.01392 497.08565,488.54955 C 513.1342,508.19946 488.98429,518.83624 460.02979,524.46106 C 411.83675,527.52841 406.99642,524.64618 383.00497,522.0069 C 370.98267,525.39732 410.46182,547.09111 395.75768,563.49846 C 383.02592,576.96468 355.86428,569.88776 340.53385,563.92592 C 310.20819,545.77312 318.72103,524.04696 299.23697,554.18027 C 281.20052,572.25301 243.381,579.28893 221.24234,561.92015 C 207.20844,546.86823 212.1842,537.44847 239.65642,520.39931 C 281.21195,503.35193 264.04948,508.49858 237.15523,506.75103 C 216.44667,502.94438 166.68672,502.81108 177.0143,475.11229 C 189.40721,458.26708 220.46787,456.25117 240.72194,460.32269 C 264.45418,465.03107 284.25678,477.99215 306.26257,486.27997"
       id="path3200" />
    <path
       style="opacity:1;fill:#e3c596;fill-opacity:1;fill-rule:nonzero;stroke:none;stroke-width:1px;stroke-linecap:butt;stroke-linejoin:miter;stroke-opacity:1"
       d="M 304.3684,488.80351 C 304.12555,487.60479 302.21421,486.36974 300.83453,485.31626 C 292.60944,479.80992 281.69999,475.34999 270.54244,471.2276 C 257.36473,466.30783 242.37393,462.57887 225.65138,461.47572 C 210.92757,460.65581 196.69246,462.70581 185.67293,467.39686 C 185.01752,467.71441 183.02332,468.6537 183.70663,468.34965 C 185.36677,467.61091 186.86403,466.78817 188.60444,466.09237 C 190.6611,465.27011 185.22514,468.09039 183.87113,469.1932 C 179.9911,472.35341 178.38402,475.82501 178.53283,479.45713 C 179.28183,485.10963 185.49527,489.75249 194.23729,493.43591 C 204.15301,497.37768 216.07896,499.91259 228.14608,501.98509 C 239.16516,503.87129 250.56646,505.16591 262.12311,506.03031 C 266.38248,506.3369 270.67727,506.48527 274.9721,506.61922 L 268.99461,510.54069 C 264.64531,510.38725 260.2959,510.22126 255.98488,509.89533 C 244.30929,508.98293 232.78946,507.64825 221.66041,505.72001 C 209.35093,503.57777 197.21696,500.94723 187.12115,496.90252 C 178.05049,493.06542 171.24371,488.15121 170.23728,482.27145 C 169.38069,474.30709 177.3556,468.09585 190.1715,463.05288 C 201.94115,458.49209 216.71206,456.63969 231.77998,457.60725 C 248.80723,458.86921 264.10218,462.67601 277.55338,467.71304 C 288.90074,471.91404 299.96324,476.46252 308.36693,482.05398 C 310.0438,483.3116 311.81414,484.58231 312.71008,486.02012 L 304.3684,488.80351 z "
       id="path3202" />
    <path
       style="opacity:1;fill:#e3c596;fill-opacity:1;fill-rule:nonzero;stroke:none;stroke-width:1px;stroke-linecap:butt;stroke-linejoin:miter;stroke-opacity:1"
       d="M 302.75792,488.03685 C 302.73142,487.26198 301.77015,486.27905 301.18466,485.49031 C 298.35858,481.90429 295.81024,478.27301 293.48028,474.60811 C 290.39906,469.79603 288.29784,464.86889 287.41039,459.85926 C 286.49542,454.80167 289.39606,450.21471 295.18346,446.02124 C 304.46889,440.05593 316.60554,436.40972 331.23725,434.28563 C 342.38201,432.64348 353.88809,432.33705 365.34873,433.2153 C 376.11503,434.18966 384.46958,437.1 391.21783,441.07211 C 397.90378,445.43549 399.98606,450.63764 399.51177,455.93989 C 398.89067,461.40189 394.76845,466.51538 389.67591,471.35457 C 385.00126,475.64345 378.74386,479.45708 372.04783,483.06713 C 366.18777,486.11432 360.03106,489.03359 353.65844,491.83891 L 358.07358,487.47578 C 368.37093,482.83818 348.53479,492.11005 362.87262,485.17814 C 369.6038,481.63775 375.95177,477.91044 380.75841,473.70128 C 385.94939,468.99307 390.18209,464.02783 391.10142,458.67631 C 391.58412,453.59791 390.27147,448.61735 383.79672,444.39147 C 377.41435,440.59664 369.46054,437.89417 359.17358,437.06708 C 347.9686,436.31258 336.74967,436.739 325.95016,438.42451 C 319.52148,439.42453 313.28732,440.66946 307.72863,442.5281 C 305.77883,443.18006 300.583,445.51837 302.21534,444.69294 C 303.87502,443.85365 305.60889,443.04805 307.31769,442.23128 C 308.38085,441.72303 303.1166,444.25811 304.25907,443.81536 C 298.21232,447.73873 294.95847,452.09752 295.67005,457.0213 C 296.4028,461.96721 298.42878,466.82974 301.43447,471.5798 C 303.72851,475.22974 306.2401,478.84688 309.05686,482.41413 C 309.765,483.35404 310.50185,484.30013 311.09966,485.25354 L 302.75792,488.03685 z "
       id="path3204" />
    <path
       style="opacity:1;fill:#e3c596;fill-opacity:1;fill-rule:nonzero;stroke:none;stroke-width:1px;stroke-linecap:butt;stroke-linejoin:miter;stroke-opacity:1"
       d="M 351.87703,491.0972 C 351.44199,489.37016 358.31851,487.3915 361.75946,486.14827 C 366.41893,484.51926 371.61045,483.30782 376.89453,482.21405 C 387.49874,480.14156 398.70657,478.90508 409.899,477.79163 C 422.73924,476.54543 435.69923,475.40752 448.84259,475.35761 C 462.10679,475.29943 474.21116,477.7237 484.63767,481.47932 C 495.35224,485.50827 502.6698,491.11653 505.63959,497.43174 C 509.91177,506.4246 500.72087,512.05626 487.97145,518.10176 C 476.26206,523.10831 461.07288,525.3041 445.80877,526.45599 C 432.23533,527.4248 418.45344,527.20798 404.9156,526.24435 C 395.55291,525.58306 386.47008,524.29395 377.79037,522.52057 C 371.65481,521.21612 366.16061,519.37753 361.05248,517.32297 C 360.11763,516.95343 359.27413,516.53661 358.38543,516.14363 L 365.57131,512.70965 C 366.42856,513.08792 367.24108,513.4899 368.14383,513.84498 C 373.09407,515.82742 378.4236,517.59592 384.38699,518.82966 C 392.9281,520.53511 401.85114,521.75951 411.04135,522.37489 C 424.40751,523.27673 438.00454,523.43227 451.36651,522.39775 C 466.36263,521.17085 481.18616,518.86551 492.33999,513.72801 C 490.81537,514.46871 489.30357,515.2154 487.76608,515.95005 C 485.05617,517.24487 493.00242,513.2273 494.83093,511.62168 C 498.69375,508.22955 498.65888,504.11503 497.57705,500.3947 C 494.98087,494.28867 487.98049,488.86872 477.65059,485.00453 C 467.53851,481.39005 455.82845,479.1521 443.00765,479.32708 C 429.98278,479.46484 417.14972,480.62571 404.42522,481.87547 C 393.34255,483.00075 382.24133,484.2619 371.81036,486.40988 C 366.66379,487.53681 361.60888,488.78393 357.1552,490.46712 C 350.27298,493.22605 360.16373,490.19729 360.21877,488.3139 L 351.87703,491.0972 z "
       id="path3206" />
    <path
       style="opacity:1;fill:#e3c596;fill-opacity:1;fill-rule:nonzero;stroke:none;stroke-width:1px;stroke-linecap:butt;stroke-linejoin:miter;stroke-opacity:1"
       d="M 358.74889,516.15433 C 366.28022,512.30563 363.32633,511.44499 368.29689,513.89036 C 373.55024,516.56644 377.72493,519.64525 381.49022,522.8228 C 388.14719,528.60801 393.23864,534.77196 397.21278,541.08068 C 400.85364,546.85664 403.10259,552.81685 402.58202,558.85151 C 401.61182,564.42523 394.16823,568.781 383.73299,571.35479 C 376.5887,572.90669 369.16003,572.6446 361.74835,571.76603 C 353.62924,570.67439 346.25881,568.74506 339.46318,566.40781 C 332.44311,563.90155 326.94419,560.67894 322.39663,557.14317 C 317.80991,553.40035 315.33791,549.23595 313.50103,545.0271 C 311.87225,540.99858 311.35307,536.8995 311.26051,532.80549 C 311.19031,529.98874 311.65283,527.18165 312.31473,524.38526 L 320.80891,521.70789 C 320.10094,524.46722 319.57339,527.23806 319.60049,530.02098 C 319.62059,534.05832 320.06612,538.10183 321.59143,542.08122 C 323.29661,546.18641 325.60157,550.25605 330.00072,553.91854 C 334.34359,557.3479 339.63612,560.46606 346.43633,562.87636 C 353.02687,565.12195 360.18255,566.9686 368.06779,567.96739 C 375.1252,568.72414 382.12332,568.81542 388.66848,567.11916 C 392.26945,566.03954 398.58833,562.94829 387.75525,568.19287 C 386.26204,568.91578 397.34236,561.49538 394.14198,561.56725 C 394.98496,555.64752 392.75498,549.78669 389.25952,544.10952 C 385.38975,537.86405 380.39447,531.76348 373.85829,526.03259 C 370.14469,522.93734 366.19395,519.89228 361.02793,517.28468 C 356.30509,514.95732 356.08425,515.96708 364.61154,512.19404 L 358.74889,516.15433 z "
       id="path3208" />
    <path
       style="opacity:1;fill:#e3c596;fill-opacity:1;fill-rule:nonzero;stroke:none;stroke-width:1px;stroke-linecap:butt;stroke-linejoin:miter;stroke-opacity:1"
       d="M 317.9167,520.22215 C 319.13825,520.46687 319.06124,521.08139 319.64679,521.52095 C 320.43521,523.53558 319.86463,525.59659 319.37508,527.61306 C 318.11649,532.14058 315.71967,536.57332 312.89258,540.93158 C 309.29888,546.42024 304.49024,551.71331 298.85262,556.79532 C 292.75995,562.38307 283.71082,567.18596 272.52306,570.57434 C 264.56772,572.8561 255.61784,573.35714 246.51878,573.09931 C 236.65517,572.63521 228.2402,570.40757 221.07575,567.26601 C 214.27652,564.02491 210.93611,559.89634 209.32982,555.47108 C 207.97641,550.77917 209.60707,546.13123 212.26717,541.61729 C 215.30567,536.79552 220.44316,532.39477 226.14666,528.18475 C 231.47689,524.30106 237.76914,520.75504 244.38483,517.35719 C 251.68185,513.6388 259.3499,510.09311 267.92583,507.04937 C 270.59112,506.08131 273.45962,505.25896 276.33424,504.443 L 271.49287,508.70306 C 268.6956,509.54302 265.90864,510.39131 263.30169,511.36348 C 259.2493,512.86494 243.87502,519.87088 256.1402,514.03724 C 256.99821,513.62916 252.67281,515.68659 253.58418,515.26997 C 246.91995,518.61112 240.57905,522.10507 235.17266,525.93346 C 229.4176,530.05744 224.17624,534.36243 220.97307,539.09784 C 218.18855,543.4703 216.38418,547.98323 217.48931,552.56848 C 218.81535,556.78994 221.79883,560.74008 228.26232,563.8324 C 235.07761,566.81163 243.10952,568.86245 252.50684,569.18154 C 261.31424,569.31784 269.82773,568.67013 277.29953,566.29779 C 280.71989,565.1601 290.99204,560.5311 279.57593,565.96198 C 278.24006,566.59744 291.29768,558.80849 289.92809,559.13601 C 295.64726,554.12013 300.49873,548.87796 304.17953,543.44546 C 307.04704,539.1379 309.5038,534.75888 310.86884,530.28181 C 311.40377,528.36197 311.96552,526.41235 311.56956,524.47492 C 311.76827,524.3549 310.70853,523.25262 312.05403,524.18244 L 317.9167,520.22215 z "
       id="path3210" />
    <path
       style="opacity:1;color:#000000;fill:#f1e655;fill-opacity:1;fill-rule:evenodd;stroke:none;stroke-width:15;stroke-linecap:square;stroke-linejoin:miter;marker:none;marker-start:none;marker-mid:none;marker-end:none;stroke-miterlimit:4;stroke-dasharray:none;stroke-dashoffset:0;stroke-opacity:1;visibility:visible;display:inline;overflow:visible"
       d="M 302.02567,498.91045 C 295.15481,503.02009 298.34123,513.60429 306.32929,514.86259 C 316.82911,517.71813 328.25266,514.23886 336.93973,508.97131 C 341.26727,504.62316 336.47853,498.73429 331.21302,497.20363 C 322.16758,493.27443 310.27696,493.63654 302.02567,498.91045 z "
       id="path3212" />
    <path
       style="opacity:1;fill:#e3c596;fill-opacity:1;fill-rule:nonzero;stroke:none;stroke-width:1px;stroke-linecap:butt;stroke-linejoin:miter;stroke-opacity:1"
       d="M 317.2521,496.44931 C 319.26186,497.18839 316.97602,496.6281 316.72555,496.79034 C 314.7057,496.71751 312.76904,496.95546 310.82759,497.17125 C 307.6645,497.59792 305.33322,498.59125 303.01109,499.63737 C 314.97299,493.21785 305.13043,498.9205 303.08478,501.18198 C 301.51059,503.07594 301.51666,504.93595 302.59112,506.86859 C 304.15033,508.87983 307.30952,510.22986 310.94589,511.39586 C 314.56769,512.45027 318.51264,512.75491 322.67696,512.72298 C 326.48065,512.62329 329.5929,511.79265 332.66531,510.81423 C 339.29602,507.28617 325.28709,515.57138 332.78845,510.354 C 334.6441,508.98587 335.12001,507.48846 335.29578,505.90569 C 335.30245,504.4269 334.16498,503.12493 332.76225,501.84196 C 331.26875,500.63878 328.99779,499.81596 326.64421,499.02501 C 324.00984,498.20373 321.17975,497.55935 318.2987,496.96442 C 317.86585,496.87921 317.42255,496.80714 316.98445,496.7286 L 323.49144,493.00203 C 323.94783,493.08785 324.40982,493.16695 324.86056,493.25955 C 327.8506,493.90233 330.7991,494.58838 333.53524,495.45737 C 336.13068,496.34974 338.62939,497.28561 340.33891,498.60287 C 341.98473,500.01066 343.37077,501.44912 343.58608,503.0879 C 343.63966,504.80405 343.44564,506.4674 341.73102,508.02883 C 338.37021,510.85101 333.63573,513.27618 327.94381,515.10445 C 324.46463,516.0105 320.93566,516.72649 316.86527,516.70016 C 312.32091,516.59762 308.00141,516.16884 304.10171,514.98373 C 300.09966,513.66093 296.6039,512.13645 294.7136,509.94163 C 293.29635,507.84906 292.87856,505.80401 294.33499,503.6669 C 296.91353,500.15575 301.28166,497.74697 307.39585,495.26729 C 310.04635,494.25024 312.81518,493.38022 316.22815,493.06553 C 318.42792,492.90999 320.63334,492.71367 322.85592,492.92248 C 323.90588,493.15636 324.98911,493.062 325.59378,493.66595 L 317.2521,496.44931 z "
       id="path3214" />
  </g>
  <g
     inkscape:groupmode="layer"
     id="layer2"
     inkscape:label="1-crop">
    <rect
       style="opacity:1;color:#000000;fill:#07ff00;fill-opacity:0.04968944;fill-rule:nonzero;stroke:none;stroke-width:80;stroke-linecap:butt;stroke-linejoin:miter;marker:none;marker-start:none;marker-mid:none;marker-end:none;stroke-miterlimit:4;stroke-dasharray:none;stroke-dashoffset:0;stroke-opacity:0.25465836;visibility:visible;display:inline;overflow:visible"
       id="rect1345"
       width="711.42859"
       height="411.42856"
       x="21.428572"
       y="313.79074" />
  </g>
</svg>
