<?xml version="1.0" encoding="UTF-8" standalone="no"?>
<!-- Created with Inkscape (http://www.inkscape.org/) -->
<svg
   xmlns:dc="http://purl.org/dc/elements/1.1/"
   xmlns:cc="http://web.resource.org/cc/"
   xmlns:rdf="http://www.w3.org/1999/02/22-rdf-syntax-ns#"
   xmlns:svg="http://www.w3.org/2000/svg"
   xmlns="http://www.w3.org/2000/svg"
   xmlns:sodipodi="http://inkscape.sourceforge.net/DTD/sodipodi-0.dtd"
   xmlns:inkscape="http://www.inkscape.org/namespaces/inkscape"
   width="744.09448819"
   height="1052.3622047"
   id="svg2"
   sodipodi:version="0.32"
   inkscape:version="0.43"
   sodipodi:docbase="C:\Documents and Settings\Cowbert\Desktop"
   sodipodi:docname="mountain.svg"
   inkscape:export-filename="C:\Documents and Settings\Cowbert\Desktop\mountain.png"
   inkscape:export-xdpi="72.000000"
   inkscape:export-ydpi="72.000000">
  <defs
     id="defs4">
    <linearGradient
       id="linearGradient2235">
      <stop
         style="stop-color:#98521d;stop-opacity:1;"
         offset="0"
         id="stop2237" />
      <stop
         id="stop2243"
         offset="0.8888889"
         style="stop-color:#9c612a;stop-opacity:1;" />
      <stop
         style="stop-color:#a07037;stop-opacity:0;"
         offset="1"
         id="stop2239" />
    </linearGradient>
  </defs>
  <sodipodi:namedview
     id="base"
     pagecolor="#ffffff"
     bordercolor="#666666"
     borderopacity="1.0"
     inkscape:pageopacity="0.0"
     inkscape:pageshadow="2"
     inkscape:zoom="0.7"
     inkscape:cx="465.77044"
     inkscape:cy="498.93102"
     inkscape:document-units="px"
     inkscape:current-layer="layer25"
     inkscape:window-width="1280"
     inkscape:window-height="977"
     inkscape:window-x="-4"
     inkscape:window-y="-4" />
  <metadata
     id="metadata7">
    <rdf:RDF>
      <cc:Work
         rdf:about="">
        <dc:format>image/svg+xml</dc:format>
        <dc:type
           rdf:resource="http://purl.org/dc/dcmitype/StillImage" />
      </cc:Work>
    </rdf:RDF>
  </metadata>
  <g
     inkscape:groupmode="layer"
     id="layer19"
     inkscape:label="8-crop">
    <rect
       style="opacity:0.2;color:#000000;fill:#35a141;fill-opacity:1;fill-rule:evenodd;stroke:none;stroke-width:15;stroke-linecap:square;stroke-linejoin:miter;marker:none;marker-start:none;marker-mid:none;marker-end:none;stroke-miterlimit:4;stroke-dasharray:none;stroke-dashoffset:0;stroke-opacity:1;visibility:visible;display:inline;overflow:visible"
       id="rect2295"
       width="231.42857"
       height="204.28572"
       x="472.85715"
       y="829.50507" />
  </g>
  <g
     inkscape:groupmode="layer"
     id="layer18"
     inkscape:label="7-crop">
    <rect
       style="opacity:0.2;color:#000000;fill:#35a141;fill-opacity:1;fill-rule:evenodd;stroke:none;stroke-width:15;stroke-linecap:square;stroke-linejoin:miter;marker:none;marker-start:none;marker-mid:none;marker-end:none;stroke-miterlimit:4;stroke-dasharray:none;stroke-dashoffset:0;stroke-opacity:1;visibility:visible;display:inline;overflow:visible"
       id="rect2293"
       width="225.71428"
       height="205.71428"
       x="34.285713"
       y="818.07648" />
  </g>
  <g
     inkscape:groupmode="layer"
     id="layer17"
     inkscape:label="6-crop">
    <rect
       style="opacity:0.2;color:#000000;fill:#35a141;fill-opacity:1;fill-rule:evenodd;stroke:none;stroke-width:15;stroke-linecap:square;stroke-linejoin:miter;marker:none;marker-start:none;marker-mid:none;marker-end:none;stroke-miterlimit:4;stroke-dasharray:none;stroke-dashoffset:0;stroke-opacity:1;visibility:visible;display:inline;overflow:visible"
       id="rect2290"
       width="311.42856"
       height="228.57143"
       x="418.57144"
       y="543.79077" />
  </g>
  <g
     inkscape:groupmode="layer"
     id="layer16"
     inkscape:label="5-crop">
    <rect
       style="opacity:0.2;color:#000000;fill:#35a141;fill-opacity:1;fill-rule:evenodd;stroke:none;stroke-width:15;stroke-linecap:square;stroke-linejoin:miter;marker:none;marker-start:none;marker-mid:none;marker-end:none;stroke-miterlimit:4;stroke-dasharray:none;stroke-dashoffset:0;stroke-opacity:1;visibility:visible;display:inline;overflow:visible"
       id="rect2287"
       width="265.71426"
       height="208.57143"
       x="22.857141"
       y="563.79077" />
  </g>
  <g
     inkscape:groupmode="layer"
     id="layer15"
     inkscape:label="4-crop">
    <rect
       style="opacity:0.2;color:#000000;fill:#35a141;fill-opacity:1;fill-rule:evenodd;stroke:none;stroke-width:15;stroke-linecap:square;stroke-linejoin:miter;marker:none;marker-start:none;marker-mid:none;marker-end:none;stroke-miterlimit:4;stroke-dasharray:none;stroke-dashoffset:0;stroke-opacity:1;visibility:visible;display:inline;overflow:visible"
       id="rect2284"
       width="290"
       height="235.71428"
       x="430"
       y="298.07648" />
  </g>
  <g
     inkscape:groupmode="layer"
     id="layer13"
     inkscape:label="3-crop">
    <rect
       style="opacity:0.2;color:#000000;fill:#35a141;fill-opacity:1;fill-rule:evenodd;stroke:none;stroke-width:15;stroke-linecap:square;stroke-linejoin:miter;marker:none;marker-start:none;marker-mid:none;marker-end:none;stroke-miterlimit:4;stroke-dasharray:none;stroke-dashoffset:0;stroke-opacity:1;visibility:visible;display:inline;overflow:visible"
       id="rect2276"
       width="284.28571"
       height="240"
       x="14.285714"
       y="293.79077" />
  </g>
  <g
     inkscape:groupmode="layer"
     id="layer11"
     inkscape:label="2-crop">
    <rect
       style="opacity:0.2;color:#000000;fill:#35a141;fill-opacity:1;fill-rule:evenodd;stroke:none;stroke-width:15;stroke-linecap:square;stroke-linejoin:miter;marker:none;marker-start:none;marker-mid:none;marker-end:none;stroke-miterlimit:4;stroke-dasharray:none;stroke-dashoffset:0;stroke-opacity:1;visibility:visible;display:inline;overflow:visible"
       id="rect2268"
       width="261.42856"
       height="271.42859"
       x="448.57144"
       y="19.505039" />
  </g>
  <g
     inkscape:groupmode="layer"
     id="layer9"
     inkscape:label="1-crop">
    <rect
       style="opacity:0.2;color:#000000;fill:#35a141;fill-opacity:1;fill-rule:evenodd;stroke:none;stroke-width:15;stroke-linecap:square;stroke-linejoin:miter;marker:none;marker-start:none;marker-mid:none;marker-end:none;stroke-miterlimit:4;stroke-dasharray:none;stroke-dashoffset:0;stroke-opacity:1;visibility:visible;display:inline;overflow:visible"
       id="rect1385"
       width="275.71429"
       height="252.85715"
       x="17.142857"
       y="23.790754" />
  </g>
  <g
     inkscape:label="1"
     inkscape:groupmode="layer"
     id="layer1">
    <path
       style="fill:#86572c;fill-opacity:1;fill-rule:evenodd;stroke:none;stroke-width:1px;stroke-linecap:butt;stroke-linejoin:miter;stroke-opacity:1"
       d="M 33.57139,213.79078 C -4.58746,287.58839 320.68009,280.46875 274.62061,211.66235 C 259.06024,186.06028 246.60117,165.83097 224.0972,130.14741 C 160.06819,45.83215 154.36875,12.98529 129.70487,42.95495 C 102.67117,77.82686 88.23451,121.31613 63.61418,158.25306 C 53.28942,176.5948 43.11053,195.02559 33.57139,213.79078 z "
       id="path1311"
       sodipodi:nodetypes="cccccc" />
    <path
       style="fill:#d3d3d3;fill-opacity:1;fill-rule:evenodd;stroke:none;stroke-width:1px;stroke-linecap:butt;stroke-linejoin:miter;stroke-opacity:1"
       d="M 140.71424,31.64791 C 124.22768,46.00897 100.44488,85.34554 92.86511,114.70814 C 94.20022,125.28843 105.13706,125.72583 121.01005,110.81606 C 131.14252,121.51911 129.09952,157.25513 139.03243,154.30556 C 148.3753,153.83621 149.65537,131.13821 160.0752,132.38533 C 171.08007,134.47652 180.89207,157.10446 192.4393,158.25428 C 201.63124,157.73284 191.73377,127.76016 187.84109,104.06352 C 194.22884,88.06706 167.24273,34.98748 135.45548,35.1009 L 140.71424,31.64791 z "
       id="path3131"
       sodipodi:nodetypes="ccccccccc" />
    <path
       style="fill:#000000;fill-opacity:1;fill-rule:nonzero;stroke:none;stroke-width:1px;stroke-linecap:butt;stroke-linejoin:miter;stroke-opacity:1"
       id="path1307"
       d="M 27.99793,219.88823 C 29.29901,213.45177 33.67529,207.17607 36.84813,201.33846 C 50.021,177.32594 63.17064,153.30071 76.17787,129.19795 C 90.13535,104.04855 102.73662,78.14659 117.06736,53.20412 C 125.71942,37.83777 140.563,19.68519 158.25655,32.92966 C 175.04275,48.39138 187.25835,68.19522 199.84499,87.06233 C 215.09206,110.03265 230.40297,132.96041 245.78443,155.84095 C 256.8694,172.23098 267.78149,188.73827 278.95735,205.06676 C 281.31517,208.49143 280.14559,206.79938 282.46571,210.14319 L 272.93803,216.94711 C 270.6338,213.57142 271.79507,215.27897 269.4546,211.82421 C 258.39293,195.40388 247.58253,178.81575 236.57172,162.36136 C 221.29518,139.41017 206.02633,116.45379 190.71134,93.52823 C 178.32471,75.0872 166.30609,55.55695 149.53618,40.74756 C 135.78315,31.36733 139.90866,33.77013 128.07037,50.30589 C 113.27534,75.03497 100.86456,101.12011 86.81232,126.26567 C 73.89073,150.26329 60.84607,174.19482 48.02287,198.24527 C 45.37303,203.27798 41.96314,210.94863 39.14484,214.81299 L 27.99793,219.88823 z " />
    <path
       style="fill:#000000;fill-opacity:1;fill-rule:nonzero;stroke:none;stroke-width:1px;stroke-linecap:butt;stroke-linejoin:miter;stroke-opacity:1"
       id="path1309"
       d="M 102.7169,94.82815 C 102.81389,95.70068 102.6215,96.57358 102.53621,97.44232 C 102.22457,100.7164 101.88983,103.98846 101.584,107.26325 C 101.14546,111.73758 100.89159,116.22125 100.95122,120.71534 C 101.2084,124.66808 101.65243,125.90653 105.12042,123.81394 C 108.37544,121.38698 115.34323,116.34802 100.91629,126.77804 C 97.62708,129.156 107.05383,121.44541 109.84196,118.49585 C 115.408,112.76459 123.5109,101.41842 130.75534,109.48455 C 134.23305,115.73398 135.28199,123.05063 136.73632,129.98073 C 138.59499,137.21002 139.0773,145.06114 142.71962,151.68977 C 150.5019,151.57519 133.52097,166.12796 142.68973,151.25617 C 147.15189,139.73171 149.79102,133.73676 160.09396,126.05429 C 167.55013,126.27669 172.88104,132.94617 177.71377,137.94937 C 183.88052,144.30124 189.25129,151.46888 196.16646,157.0459 C 200.88247,159.88821 204.88034,152.84755 191.39008,162.9796 C 189.14611,164.66497 192.72209,157.45443 192.61532,154.65007 C 191.57369,143.64256 188.78712,132.88498 185.84904,122.25368 C 183.61335,113.81343 180.60621,105.57202 178.75299,97.03251 C 177.91014,84.85667 189.1031,86.32875 195.88052,90.54176 C 200.07165,93.33397 204.08169,96.38843 208.10415,99.41595 L 199.09065,107.37419 C 195.16037,104.41859 191.24999,101.41676 187.09018,98.78767 C 178.23095,93.83397 186.49415,94.56227 189.48196,91.4835 C 190.95286,99.97914 193.90487,108.13741 196.11743,116.45966 C 199.12781,127.30399 201.98517,138.24939 203.33829,149.44276 C 204.14758,159.25057 198.18699,173.26426 187.12177,164.90785 C 180.26985,159.00283 174.67096,151.8605 168.40649,145.36117 C 165.05614,141.95102 159.71109,134.57799 154.7712,136.9084 C 170.05427,125.23889 155.65104,138.75908 154.22624,148.05003 C 150.37576,155.70157 140.26769,168.34236 132.82107,158.53072 C 128.92561,151.49611 128.04153,143.37586 126.23916,135.63187 C 124.88936,129.27158 123.87989,122.64171 121.06693,116.74194 C 115.26156,118.5082 132.84819,106.79872 121.62572,116.23796 C 115.17881,123.33386 108.11364,130.61199 99.09295,134.28789 C 93.40963,134.66438 90.48873,131.63929 90.04179,125.89595 C 89.84282,121.24644 90.01177,116.60682 90.44762,111.97071 C 90.72038,108.69852 91.04762,105.43085 91.30879,102.1582 C 91.39734,101.42435 91.38601,100.5675 91.56873,99.90396 L 102.7169,94.82815 z " />
  </g>
  <g
     inkscape:groupmode="layer"
     id="layer2"
     inkscape:label="2">
    <path
       style="fill:#86572c;fill-opacity:1;fill-rule:evenodd;stroke:none;stroke-width:1px;stroke-linecap:butt;stroke-linejoin:miter;stroke-opacity:1"
       d="M 464.28572,231.6479 C 477.65369,194.46099 503.07662,163.17453 517.42533,126.43604 C 535.43195,96.877982 553.46403,170.19059 570.01727,130.24796 C 583.59158,102.37518 578.65543,60.026073 601.78523,35.375357 C 617.17829,51.218407 680.002,198.62459 696.61194,232.01106 C 735.67988,296.28002 431.69282,290.06613 464.28572,231.6479 z "
       id="path4281"
       sodipodi:nodetypes="cccccc" />
    <path
       style="fill:#d3d3d3;fill-opacity:1;fill-rule:evenodd;stroke:none;stroke-width:1px;stroke-linecap:butt;stroke-linejoin:miter;stroke-opacity:1"
       d="M 596.42858,40.933611 C 586.07882,64.497159 561.54091,120.8768 582.49643,134.45594 C 622.26475,76.761311 607.02604,183.5533 634.49666,168.79729 C 652.74081,148.67608 634.04575,112.5457 627.31008,86.475964 C 614.14639,57.046073 606.3319,31.430487 596.42858,40.933611 z "
       id="path5160"
       sodipodi:nodetypes="ccccc" />
    <path
       style="fill:#000000;fill-opacity:1;fill-rule:nonzero;stroke:none;stroke-width:1px;stroke-linecap:butt;stroke-linejoin:miter;stroke-opacity:1"
       id="path4227"
       d="M 455.54484,237.61182 C 455.82859,237.00035 457.51692,233.8844 458.29312,232.5369 C 462.19247,225.85537 466.07826,219.16713 469.78969,212.37883 C 475.93313,201.01162 481.80602,189.50064 487.67431,177.98974 C 493.16674,167.19635 498.6763,156.41158 504.1269,145.59697 C 508.2634,137.64652 511.93535,129.44224 516.47173,121.70658 C 521.21352,114.00014 528.69616,107.41083 537.45924,111.65797 C 543.09539,115.02825 547.07493,120.39567 550.94595,125.57228 C 554.61682,130.26413 560.2492,140.71145 563.38539,132.87214 C 566.9341,122.67855 569.12645,112.07962 571.513,101.57073 C 573.77678,91.352945 576.25481,81.187065 579.07334,71.108214 C 581.2685,63.503251 583.74132,55.976155 586.66637,48.619957 C 589.74465,39.393951 594.18221,37.29726 602.67937,32.221762 C 607.07062,33.4649 609.3413,37.333311 611.50996,41.063597 C 614.59977,46.8812 617.17019,52.95981 619.76817,59.008512 C 622.64712,65.616917 625.12988,72.385055 627.55108,79.171255 C 629.73948,85.530381 632.02423,91.854285 634.40511,98.143737 C 636.51042,103.74416 638.82268,109.26285 641.21057,114.74767 C 643.29852,119.48884 645.52826,124.16504 647.84043,128.80025 C 650.03845,133.06982 652.29566,137.30863 654.56263,141.54187 C 656.67555,145.39649 658.72921,149.28291 660.79652,153.16202 C 662.96968,157.25362 665.26246,161.27956 667.55935,165.30243 C 670.26098,169.96693 672.93852,174.64539 675.63784,179.31123 C 678.39561,184.10476 681.0961,188.93111 683.79277,193.75922 C 686.29638,198.28662 688.81843,202.80364 691.34094,207.32053 C 693.73961,211.54841 696.11039,215.79153 698.43315,220.06155 C 700.25607,223.46987 702.09333,226.87051 703.93263,230.27002 L 693.86911,236.95743 C 692.03133,233.55318 690.19342,230.14893 688.37559,226.73398 C 686.06819,222.47531 683.71464,218.24234 681.32179,214.03101 C 678.80076,209.51282 676.2868,204.99086 673.78903,200.45978 C 671.10591,195.64721 668.41545,190.83831 665.67049,186.06071 C 662.96564,181.39204 660.28783,176.70772 657.56672,172.04846 C 655.24356,167.99821 652.91588,163.94954 650.71646,159.83017 C 648.64746,155.95622 646.6105,152.06514 644.5007,148.21305 C 642.21929,143.95033 639.95551,139.67795 637.73784,135.38163 C 635.37501,130.69156 633.13421,125.94089 631.01015,121.13777 C 628.5968,115.59136 626.26438,110.00859 624.13346,104.34671 C 621.74544,98.028515 619.4275,91.684526 617.24952,85.29048 C 614.87536,78.572426 612.43763,71.872885 609.60042,65.333412 C 607.06321,59.416819 604.53245,53.480398 601.51033,47.791708 C 600.10321,45.449236 598.76287,42.097814 595.99259,42.381964 C 609.6497,33.163096 601.09998,37.348544 598.12708,45.069857 C 595.05981,52.2682 592.5464,59.682022 590.29625,67.174222 C 587.38925,77.181624 584.84606,87.285993 582.58574,97.459438 C 580.15697,108.0696 577.96879,118.76018 574.69795,129.15255 C 571.75441,137.63502 565.58528,151.46357 554.3601,147.78677 C 548.48224,144.22263 545.2479,138.06282 541.28976,132.63158 C 537.79152,127.98072 534.22493,123.02133 528.97229,120.25531 C 527.3629,119.86646 522.72765,122.02496 524.07015,121.05594 C 539.38667,110.00046 530.84876,115.2081 528.11858,118.82097 C 523.13939,126.21923 519.68305,134.49847 515.50841,142.35498 C 510.02162,153.17937 504.48887,163.98032 498.96449,174.78556 C 493.1053,186.30371 487.2242,197.81178 481.18804,209.23839 C 477.56752,216.03071 473.81091,222.74636 469.9733,229.4182 C 469.1939,230.78849 467.59426,233.39784 467.32003,234.23996 L 455.54484,237.61182 z "
       sodipodi:nodetypes="cccccccccccccccccccccccccccccccccscccccccccccccccsccccccc" />
    <path
       style="fill:#000000;fill-opacity:1;fill-rule:nonzero;stroke:none;stroke-width:1px;stroke-linecap:butt;stroke-linejoin:miter;stroke-opacity:1"
       id="path4243"
       d="M 578.66948,100.31028 C 580.64401,101.88323 580.67374,103.21119 580.65034,105.49157 C 580.49799,108.84577 581.02132,112.17536 581.52674,115.47981 C 582.08562,119.51663 583.29529,123.27284 585.4312,126.69791 C 585.41863,128.24838 591.00502,124.05078 589.74185,124.94996 C 587.53416,126.52151 585.34736,128.1222 583.15012,129.70832 C 586.61632,126.34176 588.98816,122.07141 591.65864,118.08646 C 596.95099,110.69581 603.39386,105.52134 610.14011,111.9695 C 613.77015,116.97915 615.60297,123.00504 617.52275,128.82194 C 620.05784,136.6629 622.64947,144.48558 625.3825,152.25986 C 627.45661,157.84711 628.99792,163.89822 633.15547,168.2299 C 638.99408,163.03459 623.78057,179.03435 629.528,169.13791 C 631.58703,164.62599 632.37272,159.71846 632.87392,154.82393 C 633.34905,149.93318 633.04762,145.03423 632.59397,140.15789 C 632.10606,135.73035 631.40684,131.32942 630.65503,126.94019 C 630.02416,123.41881 629.30021,119.91508 628.56939,116.41339 L 639.21388,110.674 C 639.961,114.21231 640.69493,117.7539 641.34791,121.31102 C 642.14962,125.78382 642.85041,130.27499 643.39983,134.78634 C 643.9293,139.87486 644.33297,144.98801 643.95823,150.10566 C 643.57829,155.35732 642.85715,160.60797 641.07719,165.58963 C 638.42508,172.2753 631.34888,181.21929 624.05771,176.23373 C 619.3719,171.25854 617.35926,164.72886 615.12574,158.35403 C 612.38032,150.55818 609.77499,142.71457 607.1977,134.86167 C 605.43593,129.57427 603.82579,124.04248 600.60517,119.43536 C 593.15457,116.72054 610.38327,111.79898 603.45,115.46329 C 600.43377,119.35016 598.05525,123.66097 595.04162,127.55363 C 588.67983,132.62689 582.94784,140.86115 575.75871,133.99063 C 573.12051,130.08882 571.59025,125.76169 570.82647,121.09335 C 570.21928,117.57291 569.63629,114.03562 569.5389,110.45643 C 569.67719,107.93203 569.47068,108.0818 571.34597,110.12837 L 578.66948,100.31028 z " />
  </g>
  <g
     inkscape:groupmode="layer"
     id="layer3"
     inkscape:label="4">
    <path
       style="fill:#86572c;fill-opacity:1;fill-rule:evenodd;stroke:none;stroke-width:1px;stroke-linecap:butt;stroke-linejoin:miter;stroke-opacity:1"
       d="M 25.412261,484.78515 C 70.357032,455.60612 94.362115,404.64265 109.77056,355.08666 C 116.3825,299.73427 132.46092,304.6505 154.95942,346.09771 C 196.00731,404.75615 196.47474,338.16377 219.93892,388.48668 C 247.64136,430.8574 256.66655,452.63714 278.49497,481.40537 C 323.76874,539.17585 -12.811681,533.562 25.412261,484.78515 z "
       id="path6095"
       sodipodi:nodetypes="cccccc" />
    <path
       style="fill:#d3d3d3;fill-opacity:1;fill-rule:evenodd;stroke:#000000;stroke-width:1px;stroke-linecap:butt;stroke-linejoin:miter;stroke-opacity:1"
       d="M 101.1737,381.24453 C 108.37324,360.40749 111.29086,336.1062 121.1675,317.48086 C 139.34866,310.13492 145.19336,333.57344 153.57267,344.29868 C 162.67308,361.13989 176.40828,375.54848 197.28765,370.71653 C 217.91105,370.00502 222.05668,401.94806 202.38198,407.34906 C 189.01011,411.31929 174.56454,415.16119 160.85479,409.52872 C 148.44206,410.39854 134.46001,414.71874 126.03042,402.17167 C 113.89268,398.44692 99.261944,427.97933 93.099591,406.36321 C 93.292164,402.08135 95.056779,398.05345 97.133094,394.37652"
       id="path6980" />
    <path
       style="fill:#000000;fill-opacity:1;fill-rule:nonzero;stroke:none;stroke-width:1px;stroke-linecap:butt;stroke-linejoin:miter;stroke-opacity:1"
       id="path4231"
       d="M 21.087114,483.86184 C 26.155608,479.79716 31.752552,475.65263 36.983138,471.86907 C 44.099884,465.61608 47.505876,462.49733 51.075163,458.60328 C 60.809418,447.80961 69.535391,436.13078 77.228909,423.80435 C 84.875345,411.38977 90.893849,398.06619 96.046014,384.44989 C 100.43167,372.75051 103.85732,360.72367 106.95229,348.62761 C 109.16671,339.74298 111.13066,330.78201 114.23336,322.15408 C 116.89839,314.86263 123.53568,306.35878 132.05657,308.84614 C 136.83602,311.29452 139.99271,315.70522 143.01319,319.99814 C 146.76938,325.77205 150.4265,331.59723 154.47815,337.17163 C 158.6779,342.81684 163.06232,348.32208 167.42945,353.83806 C 171.21957,358.60178 174.76001,363.58797 179.52227,367.41333 C 183.12331,369.52013 186.4746,368.49027 189.9832,366.80654 C 193.77694,363.99983 197.18718,362.41853 201.90994,362.68846 C 207.8799,364.06761 212.14744,368.35876 216.13446,372.75142 C 221.34577,378.76049 225.53807,385.53683 229.62618,392.33242 C 234.00356,399.63086 238.23027,407.01748 242.47163,414.39524 C 246.51445,421.39001 250.5426,428.3931 254.67524,435.33529 C 258.38961,441.60025 262.26599,447.76606 266.2094,453.8887 C 269.55647,459.17648 273.18318,464.27045 277.17977,469.08522 C 279.63745,472.08975 282.4345,474.76686 285.38795,477.27313 L 276.22191,485.08893 C 273.13653,482.40006 270.20059,479.54976 267.61455,476.36735 C 263.5346,471.41331 259.80767,466.19323 256.38847,460.76036 C 252.4344,454.59083 248.53451,448.38612 244.80422,442.07798 C 240.6697,435.11331 236.63783,428.08914 232.59234,421.07249 C 228.35962,413.71547 224.15374,406.34234 219.783,399.06585 C 215.81312,392.484 211.76193,385.90279 206.6714,380.11017 C 203.34694,376.52323 199.73667,372.57526 194.56383,372.29679 C 190.77546,373.42044 187.70908,375.80933 184.04021,377.3352 C 179.21371,378.61205 174.68614,378.57647 170.50615,375.41961 C 165.54104,371.31333 161.85105,366.0007 157.83283,361.00818 C 153.4375,355.45264 149.01712,349.91392 144.80034,344.22063 C 140.72953,338.62179 137.02727,332.78772 133.24832,326.99134 C 130.75872,323.48463 128.19623,319.49063 124.03426,317.94507 C 126.14413,316.3152 128.22341,314.64493 130.36389,313.05546 C 132.29725,311.6198 123.28754,318.26694 125.67844,318.55433 C 122.18941,326.93477 120.24768,335.82046 118.06097,344.60611 C 114.95222,356.83152 111.53744,368.99357 107.19459,380.84547 C 102.07805,394.67782 96.085905,408.21738 88.53346,420.90729 C 80.939568,433.44771 72.247949,445.3067 62.607672,456.35396 C 53.419854,466.73276 39.063554,480.67572 27.367399,488.24679 L 21.087114,483.86184 z "
       sodipodi:nodetypes="cccccccccccccccccccccccccccccccccccsccccccc" />
    <path
       style="fill:#000000;fill-opacity:1;fill-rule:nonzero;stroke:none;stroke-width:1px;stroke-linecap:butt;stroke-linejoin:miter;stroke-opacity:1"
       id="path4277"
       d="M 104.14551,388.39956 C 104.4019,389.69199 103.79859,390.88447 103.38692,392.10035 C 102.07744,396.11476 101.21384,400.25546 100.47367,404.40703 C 99.410018,407.67242 99.902047,411.89052 100.7612,413.83858 C 112.27292,403.94829 90.376609,424.01889 104.0135,410.07462 C 110.5627,403.02288 117.5998,392.86372 128.25261,394.21009 C 135.60037,396.29479 140.5974,402.30604 145.296,407.97088 C 148.15336,411.53518 150.65775,415.41842 153.89237,418.64425 C 142.20772,428.95866 144.91914,424.58564 144.22407,414.12642 C 143.61031,405.4802 150.64084,398.34703 159.67098,399.08505 C 165.69412,400.38017 170.95621,403.73337 176.00544,407.11935 C 180.35134,409.81688 184.54494,414.62931 189.71828,414.38779 C 179.10028,420.48731 183.55509,422.13549 183.05051,413.76115 C 181.63322,404.70563 184.84812,404.61582 193.40957,399.03671 C 196.44015,399.49159 199.26277,400.75675 202.14785,401.73844 C 205.05108,402.80467 207.85895,402.72698 210.81352,402.12838 C 216.70578,396.27441 201.62738,413.11397 208.14149,402.70465 C 209.76559,399.31918 209.96205,395.62445 209.93203,391.93884 C 209.87454,388.44777 208.87595,385.16536 207.68078,381.92851 C 207.36582,381.08678 206.8749,380.32994 206.47269,379.5321 L 216.52351,372.75946 C 217.02066,373.67774 217.57266,374.56887 217.97641,375.53581 C 219.43579,379.12735 220.59521,382.82064 220.84784,386.71952 C 221.07653,390.889 221.02704,395.0929 219.70461,399.10437 C 217.17892,405.7786 211.67931,411.54454 204.11061,412.24361 C 200.62007,412.35835 197.22756,411.93928 193.94219,410.66635 C 191.65578,409.84838 189.22621,408.51389 186.87812,409.31466 C 197.54858,401.75082 193.4458,400.66972 193.92255,408.44061 C 194.77729,417.70085 193.56946,420.0684 182.68447,424.27861 C 176.79754,422.60121 172.14792,418.65079 167.16039,415.20575 C 162.62598,412.25938 157.83437,409.08127 152.31132,408.68305 C 147.97402,410.48561 160.61601,397.53075 155.15606,409.06193 C 155.32179,419.96058 159.9133,421.8523 147.05527,428.7658 C 142.38783,425.08764 139.62013,419.65646 135.76723,415.16662 C 131.70633,410.29932 127.39652,404.71556 120.79862,403.67617 C 115.82435,404.76412 111.43179,409.18343 124.0068,399.79095 C 127.07987,397.49563 112.00805,408.55822 115.774,407.83031 C 109.83742,414.40609 101.97018,424.37281 92.524001,422.75439 C 87.932216,419.33341 88.451553,414.05667 89.266525,408.83076 C 89.937959,404.53486 90.755927,400.26018 91.900812,396.06246 C 92.121411,395.31048 92.409904,393.46617 92.997345,393.47538 L 104.14551,388.39956 z " />
  </g>
  <g
     inkscape:groupmode="layer"
     id="layer4"
     inkscape:label="4">
    <path
       style="fill:#86572c;fill-opacity:1;fill-rule:evenodd;stroke:none;stroke-width:1px;stroke-linecap:butt;stroke-linejoin:miter;stroke-opacity:1"
       d="M 444.28572,486.29075 C 471.96333,460.55194 486.78833,436.6464 509.22068,409.10845 C 526.87715,377.26843 531.13731,367.63676 557.74222,373.36062 C 573.80712,365.83089 577.60831,283.01157 594.87444,326.20468 C 608.93588,358.15127 615.09977,383.73522 626.14457,412.88332 C 641.04257,472.07866 651.76659,423.11457 667.0358,438.32493 C 681.53942,454.8354 685.87808,462.52867 706.41529,483.97923 C 764.37949,536.28321 409.39285,535.60208 444.28572,486.29075 z "
       id="path7009"
       sodipodi:nodetypes="cccccccc" />
    <path
       style="fill:#d3d3d3;fill-opacity:1;fill-rule:evenodd;stroke:none;stroke-width:1px;stroke-linecap:butt;stroke-linejoin:miter;stroke-opacity:1"
       d="M 524.28572,383.79075 C 521.55778,389.43509 520.73422,395.90917 521.65176,402.08986 C 520.79296,406.04359 515.71956,412.0811 520.71541,414.90396 C 526.06601,416.45008 531.87245,414.23347 535.20688,409.85686 C 537.48926,406.70111 539.89777,403.69556 542.06091,400.46484 C 544.29212,396.63212 546.56022,391.61554 551.53208,390.99565 C 561.09386,395.11117 566.42524,404.54555 573.81775,411.32014 C 576.92257,413.53233 580.28598,417.01801 584.19246,416.77807 C 590.38623,414.52691 591.19482,407.10639 593.72535,401.89303 C 597.40737,396.95704 596.85476,390.18406 600.44305,385.23557 C 603.22271,380.7831 610.10944,388.30903 611.01637,381.25963 C 612.03129,372.16634 608.53234,363.34236 604.82105,355.22388 C 602.52661,349.43374 601.26331,343.2973 598.75031,337.57346 C 596.3739,332.01254 594.75928,326.16271 592.4036,320.61073 C 590.99477,316.76718 586.00066,312.23777 582.29461,316.22942 C 579.232,319.83442 578.02965,324.66424 576.00055,328.89584 C 571.02405,339.24829 569.36278,350.96132 563.24973,360.8125 C 561.63686,367.08162 556.72419,371.70783 551.18631,374.60597 C 545.10128,378.70926 538.35599,371.89886 532.03697,374.38875 C 528.26227,376.33523 526.87432,380.69719 524.28572,383.79075 z "
       id="path7889" />
    <path
       style="fill:#000000;fill-opacity:1;fill-rule:nonzero;stroke:none;stroke-width:1px;stroke-linecap:butt;stroke-linejoin:miter;stroke-opacity:1"
       id="path4235"
       d="M 445.09439,483.16714 C 449.21663,477.95344 441.55527,484.9494 440.6566,485.60172 C 447.21918,480.58265 453.07897,474.70658 458.75997,468.72682 C 466.30299,460.69432 473.46314,452.30879 480.34083,443.70177 C 487.23223,435.03376 493.63548,425.98969 499.74388,416.75659 C 504.81824,409.05646 509.61594,401.17521 514.01359,393.06946 C 516.93818,387.39253 519.43028,381.52767 523.23574,376.37754 C 529.76938,369.77335 534.46354,366.59029 542.86931,367.39495 C 546.48521,367.96815 549.96941,369.13108 553.5113,370.02412 C 562.73976,369.55376 557.22343,369.95436 552.1761,373.64088 C 555.28762,369.95194 556.59668,365.10879 558.12682,360.60582 C 560.16626,354.3122 562.58421,348.15403 565.12458,342.04868 C 567.4373,336.48692 569.96345,331.01914 572.57264,325.59142 C 574.52054,321.53243 576.40793,317.44285 578.71595,313.57469 C 586.26417,306.17979 589.81008,302.90485 595.25088,310.76734 C 598.28869,316.55083 600.178,322.86949 602.24802,329.04729 C 605.33131,338.38609 608.47112,347.70609 611.59918,357.02996 C 615.12599,367.56862 618.63696,378.11262 622.29222,388.60762 C 625.47215,397.79824 628.81651,406.93052 632.15103,416.0658 C 634.46767,422.46247 636.75262,428.90587 640.14402,434.82462 C 641.88378,437.79897 643.44358,439.49545 646.77235,439.16622 C 656.81214,432.31252 637.0308,446.88927 645.49305,440.05763 C 651.6672,434.84917 656.13325,429.96506 663.87412,431.5546 C 667.79706,432.81212 670.78009,435.59949 673.65509,438.42369 C 676.74469,441.67233 679.32284,445.35064 681.98215,448.94705 C 685.49935,453.65616 689.35905,458.09448 693.22235,462.51949 C 697.1053,466.99853 701.08883,471.38963 705.29774,475.56488 C 707.82319,478.02073 710.45793,480.3602 713.07936,482.7122 L 703.81369,490.44622 C 701.15441,488.04741 698.48342,485.65889 695.93501,483.14123 C 691.69051,478.87141 687.65986,474.39932 683.71685,469.85046 C 679.78979,465.3534 675.86546,460.84497 672.25508,456.08639 C 669.68541,452.64265 667.2201,449.09601 664.22793,445.99703 C 661.86054,443.73277 659.46227,441.38163 656.09896,440.87032 C 648.43386,446.37558 646.89465,448.71561 639.70908,449.04275 C 635.33313,448.11247 632.39982,445.53654 630.18394,441.61057 C 626.68904,435.47054 624.27423,428.82372 621.92094,422.17875 C 618.61168,413.01062 615.2822,403.84922 612.10525,394.63411 C 608.46517,384.12103 604.94075,373.5688 601.39781,363.0227 C 598.2539,353.70937 595.08555,344.40431 591.95733,335.0857 C 589.96338,329.19794 588.11693,323.18992 585.28512,317.6426 C 581.7518,312.97439 584.55291,317.01531 590.60484,311.13006 C 587.74299,314.37545 585.9622,318.29889 584.1322,322.22536 C 581.51831,327.60886 578.9232,333.00309 576.58934,338.51576 C 574.03151,344.52179 571.55669,350.56804 569.52176,356.77517 C 567.9196,361.64129 566.42631,366.59278 564.03177,371.14097 C 557.08698,376.80393 553.98501,381.72922 545.53719,379.14284 C 542.20624,378.21235 538.87023,377.1261 535.3955,376.93456 C 525.19005,377.66157 531.45308,379.62916 535.12062,374.20801 C 530.60797,378.56881 528.23264,384.27899 525.5116,389.86714 C 521.15799,398.11949 516.34845,406.11743 511.2461,413.92895 C 505.14098,423.26135 498.74559,432.40871 491.88789,441.20605 C 485.04904,449.91262 477.89459,458.37074 470.41264,466.53218 C 464.76273,472.63217 458.9342,478.58424 452.60182,483.98331 C 448.39269,487.08002 443.30046,492.9993 437.77047,492.98578 L 445.09439,483.16714 z "
       sodipodi:nodetypes="cccccccccccscccccccccccccccccccccccccccccccccccccccccccc" />
    <path
       style="fill:#000000;fill-opacity:1;fill-rule:nonzero;stroke:none;stroke-width:1px;stroke-linecap:butt;stroke-linejoin:miter;stroke-opacity:1"
       id="path4245"
       d="M 527.45468,389.15125 C 527.65347,388.55508 526.76445,389.76288 526.27619,390.19553 C 524.986,392.47865 524.23284,394.99831 523.49988,397.50135 C 522.3678,401.32789 521.94653,405.22362 522.26926,409.183 C 523.09807,412.92118 525.19678,413.54109 528.63014,412.57979 C 532.19165,410.3987 539.84501,404.60453 525.0889,415.23592 C 522.1867,417.32687 530.3367,410.34821 532.64105,407.61238 C 536.26121,403.00869 539.35759,398.03917 543.14914,393.57178 C 552.16342,385.36677 555.8339,384.41707 563.32644,392.16495 C 567.14167,396.52435 570.71991,401.08137 574.54649,405.43215 C 577.78383,408.9652 580.99312,412.72997 585.80426,413.72574 C 589.60588,412.33537 595.3011,407.23559 580.49454,417.75205 C 578.36708,419.26309 583.90261,413.66931 584.81758,411.2255 C 586.62705,405.42367 587.19501,399.34295 588.11084,393.35931 C 588.58803,389.43354 589.77427,385.75627 591.61511,382.28972 C 598.79505,375.70982 600.37887,373.73871 607.40357,376.66434 C 609.94689,377.85389 612.26033,379.44802 614.57172,381.02529 C 617.24147,382.87561 619.72903,384.97069 622.26286,386.99929 L 613.09879,394.93639 C 610.63593,392.96063 608.20584,390.93472 605.5801,389.17476 C 603.47056,387.78234 601.36048,386.34826 598.98376,385.44373 C 592.96323,384.8307 594.34874,388.57039 603.60546,380.23577 C 600.95045,382.49394 599.87709,385.4248 599.31934,388.96547 C 598.2533,395.07718 597.7011,401.28232 596.18561,407.30931 C 593.84779,415.47551 587.81733,424.78948 577.94875,422.9204 C 572.64618,420.97137 568.74318,416.96547 565.04611,412.80138 C 561.26179,408.47506 557.70875,403.95439 553.88576,399.66321 C 547.78061,393.83052 543.08469,400.31476 555.1125,391.78401 C 550.56312,395.34564 547.76948,400.46151 544.36412,405.0777 C 538.60783,412.51192 531.49263,420.61615 521.99039,422.67604 C 516.70928,422.57393 513.01807,420.02581 511.56912,414.82226 C 510.87682,410.3924 510.98056,406.00679 512.12012,401.63208 C 512.78368,398.90383 513.48431,396.17888 514.56009,393.57808 C 514.8633,392.69859 515.53806,391.02083 515.39473,391.29511 L 527.45468,389.15125 z " />
  </g>
  <g
     inkscape:groupmode="layer"
     id="layer5"
     inkscape:label="5">
    <path
       style="fill:#86572c;fill-opacity:1;fill-rule:evenodd;stroke:none;stroke-width:1px;stroke-linecap:butt;stroke-linejoin:miter;stroke-opacity:1"
       d="M 42.33975,727.68225 C 65.691539,700.12945 83.125532,679.8048 97.717969,635.58261 C 128.28586,621.27881 131.48834,611.78064 147.46712,579.853 C 157.18979,564.32894 180.31746,624.64024 213.78979,645.13892 C 234.34112,660.42367 244.55112,650.06122 267.18287,724.15186 C 282.70846,769.53374 5.0888017,769.63836 37.794063,734.24824"
       id="path8767"
       sodipodi:nodetypes="cccccc" />
    <path
       style="fill:#d3d3d3;fill-opacity:1;fill-rule:evenodd;stroke:#000000;stroke-width:1px;stroke-linecap:butt;stroke-linejoin:miter;stroke-opacity:1"
       d="M 95.372762,640.8091 C 91.003798,679.35865 120.20457,644.76646 139.16941,663.49306 C 161.28206,683.07243 157.69057,628.93957 178.17519,649.39464 C 184.50903,665.59313 229.10189,683.72579 214.42057,648.60015 C 196.94495,633.63398 187.75542,622.69295 172.44375,600.22056 C 154.19212,570.36269 147.46563,576.36201 135.64535,603.09537 C 117.88628,638.34191 110.09708,623.05583 97.898137,637.27358"
       id="path8774"
       sodipodi:nodetypes="ccccccc" />
    <path
       style="fill:#000000;fill-opacity:1;fill-rule:nonzero;stroke:none;stroke-width:1px;stroke-linecap:butt;stroke-linejoin:miter;stroke-opacity:1"
       id="path4255"
       d="M 32.283058,736.3248 C 31.799371,734.21155 34.292515,731.56114 35.835349,729.3927 C 40.834477,722.71253 46.267218,716.37324 51.479033,709.86077 C 58.130206,701.52024 64.431429,692.89691 70.129551,683.87568 C 74.986632,676.22961 78.956208,668.08037 82.383511,659.70878 C 84.652275,653.58572 86.706452,647.39311 89.907042,641.67958 C 94.119791,634.629 101.51136,630.25974 108.92063,627.09325 C 113.7271,625.18154 118.24536,622.73271 122.40997,619.67371 C 106.98478,632.7973 123.95693,616.93276 127.49558,612.21795 C 131.39688,606.85749 134.07348,600.78454 136.32848,594.58682 C 137.7164,590.07592 139.05956,585.58166 141.18305,581.35782 C 146.72464,574.74851 150.48367,570.9611 157.31058,574.62708 C 161.42026,577.7836 164.38555,582.15573 167.44353,586.28219 C 173.38907,594.36155 179.44262,602.36039 185.51072,610.34783 C 191.84309,618.70232 198.20346,627.08411 205.84145,634.29732 C 211.05422,639.11387 217.36084,642.2779 223.78745,645.11955 C 228.86662,647.22059 233.89571,649.43016 238.61479,652.25891 C 243.42001,655.20829 247.09765,659.43154 250.44027,663.89515 C 254.65684,669.65366 257.71216,676.11244 260.584,682.61291 C 263.78611,689.9966 266.57888,697.54744 269.39572,705.08374 C 271.53987,710.81687 273.6709,716.55491 275.81612,722.28764 L 265.53465,728.47422 C 263.40297,722.73135 261.28896,716.98192 259.15336,711.24049 C 256.3733,703.76425 253.62293,696.27083 250.45272,688.94858 C 247.7006,682.71062 244.79144,676.49736 240.72981,670.98249 C 237.66515,666.92276 234.30246,663.11229 229.84201,660.53726 C 225.1765,657.93463 220.30331,655.77764 215.38048,653.70466 C 208.62862,650.6116 202.09595,647.03869 196.66377,641.88251 C 188.96512,634.42216 182.46325,625.88954 176.01378,617.34908 C 169.93222,609.35542 163.81688,601.38737 157.78183,593.35841 C 155.01299,589.69444 152.36312,585.66356 148.53951,583.03366 C 147.63965,583.23994 145.23022,584.62849 145.97817,584.08731 C 159.07873,574.60834 156.42054,576.53157 153.01636,578.64504 C 150.26652,582.2183 148.89076,586.4282 147.71892,590.78366 C 145.53271,597.29014 142.92065,603.68165 139.15922,609.45629 C 133.26846,618.09835 126.2929,625.01213 117.22683,630.52413 C 112.73447,633.34908 107.94697,635.59192 103.06269,637.657 C 91.154544,643.77256 112.82981,629.44754 101.60846,638.76338 C 98.089556,644.11931 95.780218,650.02002 93.764807,656.0957 C 90.392327,664.69406 86.456478,673.07035 81.6182,680.95214 C 75.993562,690.132 69.696361,698.87781 63.065869,707.35521 C 57.969118,713.86242 52.618512,720.16632 47.581769,726.72091 C 46.618272,728.02396 43.890137,733.42776 43.431227,731.24899 L 32.283058,736.3248 z " />
    <path
       style="fill:#000000;fill-opacity:1;fill-rule:nonzero;stroke:none;stroke-width:1px;stroke-linecap:butt;stroke-linejoin:miter;stroke-opacity:1"
       id="path4275"
       d="M 100.61989,637.98579 C 101.49708,638.65178 100.268,639.10203 99.401554,639.78326 C 114.90457,627.21734 104.08803,636.24844 101.23605,641.45167 C 99.130164,646.29179 100.40759,649.78686 104.31051,652.96005 C 109.77755,655.49275 115.27157,653.67109 120.57994,651.61014 C 126.1229,648.99189 131.29099,648.63009 136.67552,651.60022 C 141.0076,654.57307 144.22005,658.7964 148.18362,662.19881 C 155.05771,666.11343 162.33446,657.20659 149.47273,666.55078 C 153.55299,662.29375 154.90331,656.42127 156.27631,650.84927 C 157.72176,643.3478 162.93646,634.57189 171.88865,636.14313 C 176.91062,638.04071 180.91888,641.77212 184.87798,645.28573 C 190.14973,650.04771 195.23987,655.00912 200.62132,659.64828 C 204.36196,662.95182 208.25315,665.51977 213.23998,665.64386 C 219.51884,660.13152 204.55471,676.29507 209.5033,667.10529 C 210.11635,663.63967 209.19,660.33083 208.08569,657.07221 C 206.89839,653.76227 204.86023,650.94047 202.72218,648.19836 C 201.97708,647.28825 201.10969,646.49277 200.29213,645.65167 L 209.70348,638.01984 C 210.61045,638.95348 211.54643,639.86119 212.37157,640.87113 C 214.78858,643.93086 217.00902,647.14609 218.43739,650.80429 C 219.82874,654.60871 220.97667,658.49505 220.76159,662.59962 C 219.94978,669.8444 213.66891,675.8022 205.96158,675.33012 C 200.3725,674.16217 195.71166,671.22887 191.47853,667.3971 C 186.12028,662.69723 180.99956,657.73591 175.67827,652.99432 C 172.31594,650.06488 168.81467,646.49212 164.33268,645.64086 C 165.33917,644.90721 173.34094,635.54788 167.57963,646.75715 C 166.0409,652.78655 164.76077,659.01943 161.33002,664.32338 C 153.34753,670.66928 148.06694,676.93031 139.05982,670.0876 C 135.29179,666.81487 132.27652,662.67292 128.01621,660.00761 C 123.24639,658.32158 119.0703,660.0852 114.51943,661.97824 C 108.05807,664.01486 101.37921,664.88838 95.379566,661.02187 C 90.423347,656.91437 87.898432,651.55253 89.736027,645.10285 C 92.510661,637.25152 97.335752,633.32625 104.6596,628.80442 C 105.86202,628.31145 106.80199,627.51257 107.94381,628.16715 L 100.61989,637.98579 z " />
  </g>
  <g
     inkscape:groupmode="layer"
     id="layer6"
     inkscape:label="6">
    <path
       style="fill:#86572c;fill-opacity:1;fill-rule:evenodd;stroke:none;stroke-width:1px;stroke-linecap:butt;stroke-linejoin:miter;stroke-opacity:1"
       d="M 435.22706,695.30045 C 352.74423,775.51993 767.86722,780.81568 719.33479,713.76629 C 699.05866,688.1221 671.21526,642.76363 651.87274,616.42069 C 633.32713,602.94149 609.92703,593.47914 592.3767,570.03666 C 588.59899,556.56035 573.66632,552.52017 572.35768,575.09155 C 573.24519,598.03881 550.73883,609.47943 537.20477,624.31824 C 524.75695,637.87553 521.36647,668.631 476.79961,681.46197 L 435.22706,695.30045 z "
       id="path8793"
       sodipodi:nodetypes="cccccccc" />
    <path
       style="fill:#d3d3d3;fill-opacity:1;fill-rule:evenodd;stroke:none;stroke-width:1px;stroke-linecap:butt;stroke-linejoin:miter;stroke-opacity:1"
       d="M 547.354,613.47805 C 542.28795,622.76573 544.8666,637.24842 555.49144,641.29018 C 563.24717,642.9779 567.21747,634.59749 572.9719,631.41373 C 584.47816,626.58302 595.79587,633.99388 606.69561,637.01676 C 619.59865,640.68108 636.28796,636.70574 642.50049,623.85619 C 645.83775,618.01737 643.72234,609.44261 636.91416,607.27762 C 629.92601,604.50199 622.15626,602.93462 616.73905,597.28273 C 604.11891,586.32057 594.31301,566.63724 582.13986,555.34718 C 575.9079,552.4251 574.58687,562.50404 573.41976,567.95567 C 571.23128,578.227 569.2508,589.12415 562.19437,597.36561 C 558.17055,603.49709 553.1515,608.98215 547.354,613.47805 z "
       id="path9685"
       sodipodi:nodetypes="ccccccccccc" />
    <path
       style="fill:#000000;fill-opacity:1;fill-rule:nonzero;stroke:none;stroke-width:1px;stroke-linecap:butt;stroke-linejoin:miter;stroke-opacity:1"
       id="path4265"
       d="M 433.66948,693.16742 C 434.62863,692.41936 437.37665,691.85945 438.93066,691.40523 C 447.23263,689.0531 455.37622,686.18852 463.46641,683.19806 C 475.96663,678.33772 488.48931,673.26808 500.0378,666.38779 C 504.4617,662.64391 504.03096,665.94147 516.50374,650.6498 C 521.41887,644.51478 524.86912,637.44836 528.30372,630.42915 C 530.87526,624.64409 534.34481,619.53878 538.94443,615.20751 C 544.02029,611.09768 549.44977,607.5077 554.15121,602.95057 C 559.45093,597.55717 562.71818,590.8002 565.16458,583.74101 C 567.28831,577.1776 568.3567,570.35243 569.26882,563.53477 C 569.29318,555.91807 576.05214,546.79191 583.90324,551.3751 C 588.44429,555.14623 592.0612,559.89028 595.71356,564.49435 C 601.04616,571.28717 606.53178,577.95763 612.04523,584.60385 C 617.07707,590.78175 622.35708,596.88639 629.32955,600.89157 C 634.48487,602.90292 639.92508,603.26 644.98743,605.62031 C 651.79573,609.15018 656.59552,615.11638 661.17715,621.08193 C 667.5298,629.67484 673.31184,638.66996 679.14438,647.61874 C 684.86171,656.4961 690.7478,665.26129 696.72892,673.96256 C 701.70733,681.26697 706.99944,688.3515 712.56235,695.21972 C 716.58129,700.21474 721.01854,704.84675 725.89332,709.00759 L 716.72379,716.8033 C 711.73015,712.42646 707.15192,707.60956 703.01411,702.41204 C 697.4186,695.43794 692.09633,688.24807 687.07153,680.85103 C 681.09384,672.11078 675.18289,663.32537 669.46218,654.41409 C 663.68874,645.53968 657.94873,636.62759 651.61068,628.14107 C 647.36411,622.69611 642.9339,617.16091 636.52501,614.18154 C 631.33377,612.14017 625.53392,612.13826 620.66747,609.19483 C 613.52081,604.63672 607.84524,598.37726 602.57581,591.78838 C 597.03741,585.12715 591.51611,578.45091 586.12867,571.66649 C 582.75308,567.46213 579.45095,562.99411 575.11728,559.74085 C 586.56181,551.23446 581.66693,551.968 580.4296,559.05132 C 579.41562,566.04388 578.49463,573.07611 576.47778,579.87039 C 574.15093,587.38331 571.05931,594.65836 565.91302,600.71569 C 561.47904,605.6615 556.31429,609.6907 550.83265,613.42659 C 546.13376,617.18961 542.31058,621.57211 539.82624,627.12975 C 536.23867,634.28485 532.92422,641.63383 528.1124,648.08364 C 519.08165,659.92118 507.72509,669.51942 494.68159,676.83258 C 482.81331,683.42375 470.1944,688.56413 457.52499,693.38752 C 449.31111,696.40561 441.03496,699.25352 432.63214,701.7044 C 430.61743,702.29003 428.42482,703.23273 426.34597,702.98551 L 433.66948,693.16742 z " />
    <path
       style="fill:#000000;fill-opacity:1;fill-rule:nonzero;stroke:none;stroke-width:1px;stroke-linecap:butt;stroke-linejoin:miter;stroke-opacity:1"
       id="path4267"
       d="M 552.00266,609.11385 C 551.84028,610.41737 552.16616,611.70204 552.37562,612.98412 C 553.35464,618.31728 554.31411,623.65827 555.59085,628.92909 C 556.82106,634.25461 559.09975,636.44917 564.40268,635.56889 C 570.45593,633.57529 575.67914,629.81288 581.46891,627.22826 C 588.17911,624.54029 594.78028,626.30611 601.16614,628.94752 C 606.63233,631.59568 611.71383,634.99854 617.90075,635.42161 C 623.32971,635.14466 628.04146,632.63684 632.42554,629.60865 C 631.80574,630.11406 634.9906,627.68117 634.33957,628.14985 C 618.64113,639.45127 632.31508,629.26176 636.06982,625.08096 C 637.8384,623.12977 639.25993,620.92431 640.666,618.71111 L 652.32572,615.55528 C 650.98335,617.99911 649.63267,620.4428 647.86838,622.61935 C 642.10404,629.81071 635.03263,635.59646 627.11669,640.40495 C 621.97605,643.32255 616.42845,645.5236 610.401,644.83879 C 604.05125,643.62572 598.65151,640.29853 592.85193,637.59232 C 587.00958,635.42942 581.40079,634.62126 575.69133,637.74509 C 569.88041,640.78938 564.22587,644.6677 557.57926,645.5003 C 550.77028,645.31365 546.79786,641.32023 545.11523,634.77997 C 543.74406,629.45226 542.75228,624.03833 541.65499,618.6488 C 541.36438,617.16955 541.00128,615.6892 540.85449,614.18966 L 552.00266,609.11385 z " />
  </g>
  <g
     inkscape:groupmode="layer"
     id="layer7"
     inkscape:label="7">
    <path
       style="color:#000000;fill:#86572c;fill-opacity:1;fill-rule:evenodd;stroke:none;stroke-width:1px;stroke-linecap:butt;stroke-linejoin:miter;marker:none;marker-start:none;marker-mid:none;marker-end:none;stroke-miterlimit:4;stroke-dashoffset:0;stroke-opacity:1;visibility:visible;display:block"
       d="M 49.521245,978.60707 C -2.1294423,1022.6631 298.89226,1023.0695 236.93618,977.29044 C 208.82839,953.99738 195.13119,904.80587 169.83829,859.15334 C 139.22606,804.5979 132.15726,849.2901 105.95508,911.2581 C 83.193322,972.77465 76.488654,955.83397 49.521245,978.60707 z "
       id="path1094"
       sodipodi:nodetypes="ccccc" />
    <path
       style="color:#000000;fill:#d3d3d3;fill-opacity:1;fill-rule:evenodd;stroke:none;stroke-width:1px;stroke-linecap:butt;stroke-linejoin:miter;marker:none;marker-start:none;marker-mid:none;marker-end:none;stroke-miterlimit:4;stroke-dashoffset:0;stroke-opacity:1;visibility:visible;display:block"
       d="M 117.44213,889.56343 C 126.99337,873.12926 121.00378,832.62155 146.69688,835.53601 C 164.11842,846.99571 180.84319,869.40589 179.42267,890.80581 C 172.40486,911.36571 152.59133,878.18806 141.72113,914.85726 C 128.08628,938.94245 121.29198,940.37994 119.75487,919.846 C 119.55743,910.16047 114.61946,898.49357 117.44213,889.56343 z "
       id="path1115"
       sodipodi:nodetypes="cccccc" />
    <path
       style="fill:#000000;fill-opacity:1;fill-rule:nonzero;stroke:none;stroke-width:1px;stroke-linecap:butt;stroke-linejoin:miter;stroke-opacity:1"
       d="M 45.501434,975.9854 C 56.529165,969.4582 68.254251,963.70254 76.792431,953.75769 C 72.252082,958.28635 69.42593,961.24383 75.131387,954.94902 C 96.520586,930.80045 109.20081,900.55487 118.78129,870.0813 C 123.7761,857.57054 125.86481,842.99416 135.70241,833.1363 C 144.92716,822.90869 158.63484,832.79007 164.81882,841.45085 C 185.73412,868.16878 194.03839,901.93748 210.74786,931.10152 C 218.50057,945.16436 226.14742,960.43693 239.33063,970.1067 C 245.73471,972.61638 254.16311,975.97415 245.81144,982.42931 C 240.6222,990.7207 229.69327,979.33574 224.14546,975.14884 C 207.58385,957.66886 197.652,935.16475 187.43233,913.63347 C 176.38293,890.90352 168.85368,865.58999 151.24408,846.83377 C 149.31295,840.67141 138.55854,841.96243 137.6753,839.98216 C 141.45235,837.20784 145.32378,832.49781 140.3038,839.71597 C 127.73232,870.13364 120.6866,903.17036 102.45712,931.0481 C 86.943036,954.63503 67.08077,977.76227 40.052416,987.70446 C 38.291511,984.2148 44.575613,979.60551 45.501434,975.9854 z "
       id="path1636" />
    <path
       style="fill:#000000;fill-opacity:1;fill-rule:nonzero;stroke:none;stroke-width:1px;stroke-linecap:butt;stroke-linejoin:miter;stroke-opacity:1"
       id="path1642"
       d="M 124.02765,885.63328 C 123.88068,886.53218 124.16311,888.00689 124.28359,889.07982 C 124.86819,895.01211 125.19541,900.96695 125.58684,906.91444 C 126.28048,914.03787 125.907,921.43081 128.13078,928.27998 C 137.41516,922.52007 123.66229,933.8293 126.4888,930.79882 C 130.38042,925.97965 133.15302,920.38344 135.89618,914.85727 C 138.39903,909.79012 140.60107,904.58278 143.03496,899.48348 C 147.42927,890.56179 153.022,885.45592 161.51871,888.90048 C 165.06198,890.62306 167.93034,893.33002 170.7688,896.00736 C 172.69319,898.06265 174.54682,898.76133 177.1266,898.81444 C 178.31019,898.38945 178.79832,897.32564 179.52844,896.4149 C 177.20476,898.63139 175.00554,900.97573 172.74409,903.25615 C 174.48399,901.1426 175.10985,898.51819 175.77118,895.92245 C 176.13826,894.36847 176.32067,892.78253 176.54891,891.20544 L 188.43743,884.60881 C 188.29976,886.31723 188.17734,888.02764 187.86668,889.71648 C 187.31254,892.72469 186.75502,895.75427 185.49911,898.56546 C 182.34529,904.52616 177.3164,910.80667 170.30614,910.60604 C 166.83633,909.78532 163.8322,908.38816 161.27984,905.76417 C 158.81718,903.4418 156.35993,901.02089 153.20125,899.68062 C 140.67937,898.51931 162.96976,889.83095 155.71532,894.59312 C 152.89533,899.41869 150.86557,904.63603 148.46448,909.68369 C 145.71321,915.42879 142.90238,921.17776 139.37797,926.49345 C 134.81436,932.88532 125.73435,945.48717 117.72948,937.04998 C 114.06087,930.07202 114.86538,921.75644 114.04316,914.10168 C 113.6536,908.19756 113.30978,902.2891 112.81844,896.39259 C 112.69189,895.11932 112.62325,893.81333 112.33517,892.57396 L 124.02765,885.63328 z " />
  </g>
  <g
     inkscape:groupmode="layer"
     id="layer8"
     inkscape:label="8">
    <path
       style="color:#000000;fill:#86572c;fill-opacity:1;fill-rule:evenodd;stroke:none;stroke-width:1px;stroke-linecap:butt;stroke-linejoin:miter;marker:none;marker-start:none;marker-mid:none;marker-end:none;stroke-miterlimit:4;stroke-dashoffset:0;stroke-opacity:1;visibility:visible;display:block"
       d="M 494.32981,992.64967 C 455.53718,1038.5397 750.01926,1037.1267 689.76003,992.57063 C 667.89754,954.44651 651.03018,912.90296 641.77337,869.32968 C 633.03284,848.2571 615.46648,835.39294 594.21441,841.65365 C 567.89166,847.81018 549.45499,872.49343 542.91379,903.51984 C 537.92796,927.36901 530.98316,951.63946 517.10546,971.54978 C 510.98889,980.13048 503.32295,987.57218 494.32981,992.64967 z "
       id="path1126"
       sodipodi:nodetypes="ccccccc" />
    <path
       style="color:#000000;fill:#d3d3d3;fill-opacity:1;fill-rule:evenodd;stroke:none;stroke-width:1px;stroke-linecap:butt;stroke-linejoin:miter;marker:none;marker-start:none;marker-mid:none;marker-end:none;stroke-miterlimit:4;stroke-dashoffset:0;stroke-opacity:1;visibility:visible;display:block"
       d="M 550.07907,877.58723 C 549.39821,887.679 553.2075,899.60659 562.76999,903.55308 C 570.97024,906.38608 578.58289,900.00655 583.25131,893.47071 C 585.35421,886.65328 591.62168,888.80028 595.43593,892.83329 C 603.09043,900.23603 609.13459,909.34038 617.02207,916.47769 C 622.46974,921.44086 630.47411,923.91323 637.18787,920.3268 C 646.60282,915.99246 651.48187,904.58099 650.39908,894.09838 C 649.37705,878.18701 641.17272,864.10625 632.41883,851.6046 C 623.66022,843.80708 611.89344,840.84392 600.67997,840.30798 C 586.7818,840.05912 572.95423,846.00598 563.1654,856.44637 C 557.15301,861.94565 550.33709,868.55575 550.07907,877.58723 z "
       id="path1157" />
    <path
       style="fill:#000000;fill-opacity:1;fill-rule:nonzero;stroke:none;stroke-width:1px;stroke-linecap:butt;stroke-linejoin:miter;stroke-opacity:1"
       d="M 489.20811,987.44649 C 500.5126,989.54525 504.44367,978.04188 510.60757,969.70572 C 529.22559,940.19164 537.28617,905.3343 548.3882,872.33521 C 556.13425,853.97459 572.97645,840.44865 591.90006,838.00241 C 608.13835,833.75038 628.92879,831.80432 641.06509,846.55349 C 653.60723,863.231 653.58112,885.70957 659.24403,905.32362 C 664.60453,927.6421 669.73102,950.48597 679.76749,971.02283 C 684.61217,977.90521 705.03348,988.8753 689.25676,994.81558 C 678.57267,994.79427 672.12326,983.35917 667.09122,974.7504 C 657.64077,955.03935 653.60975,933.0807 647.89883,911.96937 C 643.43735,893.51308 641.65495,873.63507 632.36356,857.02773 C 620.11604,842.73886 599.93002,846.70948 584.36613,850.98817 C 572.36634,854.89386 563.35943,857.22745 559.75819,869.61774 C 553.53019,882.67906 551.54105,897.49307 546.42045,911.0641 C 536.29322,941.84869 522.80023,972.9264 499.49744,995.05935 C 492.72042,999.72566 476.14113,1004.709 489.20811,987.44649 z "
       id="path1638" />
    <path
       style="fill:#000000;fill-opacity:1;fill-rule:nonzero;stroke:none;stroke-width:1px;stroke-linecap:butt;stroke-linejoin:miter;stroke-opacity:1"
       id="path1640"
       d="M 554.63552,879.46931 C 554.10384,879.64332 555.22727,881.76877 555.57049,882.59841 C 557.27539,886.58789 559.35271,890.37105 561.56777,894.06157 C 563.63424,897.47415 565.986,900.25604 569.53544,901.68301 C 576.96037,899.61272 580.99824,892.15722 570.07249,903.67639 C 576.28229,896.21654 581.47757,887.50012 589.71166,882.31355 C 595.34943,880.41682 599.52828,883.644 603.30223,887.80428 C 607.27929,892.66416 610.22508,898.3266 613.26195,903.86136 C 615.52606,908.71315 618.5961,912.12771 623.16071,914.43027 C 627.46189,916.0235 631.85052,915.51949 636.20376,914.54046 C 640.67649,913.37882 644.68376,911.10197 648.51841,908.48058 C 655.11696,902.87019 656.94456,900.1823 647.24657,910.49593 L 659.9787,906.33688 C 654.83552,911.90639 650.28676,917.83816 643.86772,921.68941 C 639.54988,924.16045 635.04136,926.2528 630.1568,927.10077 C 624.99686,927.84775 619.76782,927.76922 614.91929,925.50633 C 609.68298,922.68538 605.81166,918.53112 603.09921,912.97813 C 600.20587,907.7219 597.45942,902.30775 593.74848,897.63028 C 590.94107,894.65867 588.67829,892.56986 585.10426,895.53937 C 582.0825,898.72393 577.0571,904.19093 590.61111,889.63158 C 593.4584,886.57312 579.32732,901.72699 582.80283,899.51118 C 576.61992,906.20142 571.38185,915.61425 561.69476,913.07993 C 557.41408,910.9032 554.17356,907.63188 551.5737,903.38466 C 549.20773,899.53121 546.9903,895.5761 545.16237,891.40003 C 544.47312,889.83042 543.76092,888.24357 543.16575,886.64432 L 554.63552,879.46931 z " />
  </g>
  <g
     inkscape:groupmode="layer"
     id="layer10"
     inkscape:label="1-path">
    <rect
       style="opacity:0.2;color:#000000;fill:#35a141;fill-opacity:1;fill-rule:evenodd;stroke:none;stroke-width:15;stroke-linecap:square;stroke-linejoin:miter;marker:none;marker-start:none;marker-mid:none;marker-end:none;stroke-miterlimit:4;stroke-dasharray:none;stroke-dashoffset:0;stroke-opacity:1;visibility:visible;display:inline;overflow:visible"
       id="rect2300"
       width="265.71429"
       height="122.85714"
       x="24.285715"
       y="148.07646" />
  </g>
  <g
     inkscape:groupmode="layer"
     id="layer12"
     inkscape:label="2-path">
    <rect
       style="opacity:0.2;color:#000000;fill:#35a141;fill-opacity:1;fill-rule:evenodd;stroke:none;stroke-width:15;stroke-linecap:square;stroke-linejoin:miter;marker:none;marker-start:none;marker-mid:none;marker-end:none;stroke-miterlimit:4;stroke-dasharray:none;stroke-dashoffset:0;stroke-opacity:1;visibility:visible;display:inline;overflow:visible"
       id="rect2302"
       width="251.42857"
       height="105.71429"
       x="454.28571"
       y="175.21933" />
  </g>
  <g
     inkscape:groupmode="layer"
     id="layer14"
     inkscape:label="3-path">
    <rect
       style="opacity:0.2;color:#000000;fill:#35a141;fill-opacity:1;fill-rule:evenodd;stroke:none;stroke-width:15;stroke-linecap:square;stroke-linejoin:miter;marker:none;marker-start:none;marker-mid:none;marker-end:none;stroke-miterlimit:4;stroke-dasharray:none;stroke-dashoffset:0;stroke-opacity:1;visibility:visible;display:inline;overflow:visible"
       id="rect2304"
       width="282.85715"
       height="107.14286"
       x="14.285714"
       y="428.07648" />
  </g>
  <g
     inkscape:groupmode="layer"
     id="layer20"
     inkscape:label="4-path">
    <rect
       style="opacity:0.2;color:#000000;fill:#35a141;fill-opacity:1;fill-rule:evenodd;stroke:none;stroke-width:15;stroke-linecap:square;stroke-linejoin:miter;marker:none;marker-start:none;marker-mid:none;marker-end:none;stroke-miterlimit:4;stroke-dasharray:none;stroke-dashoffset:0;stroke-opacity:1;visibility:visible;display:inline;overflow:visible"
       id="rect2306"
       width="294.28571"
       height="100"
       x="424.28571"
       y="433.79074" />
  </g>
  <g
     inkscape:groupmode="layer"
     id="layer21"
     inkscape:label="5-path">
    <rect
       style="opacity:0.2;color:#000000;fill:#35a141;fill-opacity:1;fill-rule:evenodd;stroke:none;stroke-width:15;stroke-linecap:square;stroke-linejoin:miter;marker:none;marker-start:none;marker-mid:none;marker-end:none;stroke-miterlimit:4;stroke-dasharray:none;stroke-dashoffset:0;stroke-opacity:1;visibility:visible;display:inline;overflow:visible"
       id="rect2311"
       width="258.57144"
       height="77.14286"
       x="27.142857"
       y="685.2193" />
  </g>
  <g
     inkscape:groupmode="layer"
     id="layer22"
     inkscape:label="6-path">
    <rect
       style="opacity:0.2;color:#000000;fill:#35a141;fill-opacity:1;fill-rule:evenodd;stroke:none;stroke-width:15;stroke-linecap:square;stroke-linejoin:miter;marker:none;marker-start:none;marker-mid:none;marker-end:none;stroke-miterlimit:4;stroke-dasharray:none;stroke-dashoffset:0;stroke-opacity:1;visibility:visible;display:inline;overflow:visible"
       id="rect2314"
       width="307.14285"
       height="90"
       x="421.42856"
       y="675.2193" />
  </g>
  <g
     inkscape:groupmode="layer"
     id="layer23"
     inkscape:label="7-path">
    <rect
       style="opacity:0.2;color:#000000;fill:#35a141;fill-opacity:1;fill-rule:evenodd;stroke:none;stroke-width:15;stroke-linecap:square;stroke-linejoin:miter;marker:none;marker-start:none;marker-mid:none;marker-end:none;stroke-miterlimit:4;stroke-dasharray:none;stroke-dashoffset:0;stroke-opacity:1;visibility:visible;display:inline;overflow:visible"
       id="rect2317"
       width="220"
       height="71.428574"
       x="37.142857"
       y="943.79077" />
  </g>
  <g
     inkscape:groupmode="layer"
     id="layer24"
     inkscape:label="8-path">
    <rect
       style="opacity:0.2;color:#000000;fill:#35a141;fill-opacity:1;fill-rule:evenodd;stroke:none;stroke-width:15;stroke-linecap:square;stroke-linejoin:miter;marker:none;marker-start:none;marker-mid:none;marker-end:none;stroke-miterlimit:4;stroke-dasharray:none;stroke-dashoffset:0;stroke-opacity:1;visibility:visible;display:inline;overflow:visible"
       id="rect2320"
       width="227.14285"
       height="85.714287"
       x="478.57144"
       y="949.50507" />
  </g>
  <g
     inkscape:groupmode="layer"
     id="layer25"
     inkscape:label="unit">
    <rect
       style="opacity:0.2;color:#000000;fill:#35a141;fill-opacity:1;fill-rule:evenodd;stroke:none;stroke-width:15;stroke-linecap:square;stroke-linejoin:miter;marker:none;marker-start:none;marker-mid:none;marker-end:none;stroke-miterlimit:4;stroke-dasharray:none;stroke-dashoffset:0;stroke-opacity:1;visibility:visible;display:inline;overflow:visible"
       id="rect1380"
       width="317.14285"
       height="317.14285"
       x="415.71429"
       y="496.64789" />
  </g>
</svg>
