<?xml version="1.0" encoding="UTF-8" standalone="no"?>
<!-- Created with Inkscape (http://www.inkscape.org/) -->
<svg
   xmlns:dc="http://purl.org/dc/elements/1.1/"
   xmlns:cc="http://web.resource.org/cc/"
   xmlns:rdf="http://www.w3.org/1999/02/22-rdf-syntax-ns#"
   xmlns:svg="http://www.w3.org/2000/svg"
   xmlns="http://www.w3.org/2000/svg"
   xmlns:sodipodi="http://inkscape.sourceforge.net/DTD/sodipodi-0.dtd"
   xmlns:inkscape="http://www.inkscape.org/namespaces/inkscape"
   width="744.09448819"
   height="1052.3622047"
   id="svg2"
   sodipodi:version="0.32"
   inkscape:version="0.43"
   sodipodi:docbase="/home/kkowal/tale/art/terrain"
   sodipodi:docname="tree-poplar.svg"
   inkscape:export-filename="/home/kkowal/tale/art/terrain/tree-poplar.png"
   inkscape:export-xdpi="90"
   inkscape:export-ydpi="90">
  <defs
     id="defs4" />
  <sodipodi:namedview
     id="base"
     pagecolor="#ffffff"
     bordercolor="#666666"
     borderopacity="1.0"
     inkscape:pageopacity="0.0"
     inkscape:pageshadow="2"
     inkscape:zoom="0.98994949"
     inkscape:cx="394.50965"
     inkscape:cy="768.07462"
     inkscape:document-units="px"
     inkscape:current-layer="layer3"
     inkscape:window-width="1045"
     inkscape:window-height="913"
     inkscape:window-x="0"
     inkscape:window-y="25"
     showguides="true"
     inkscape:guide-bbox="true" />
  <metadata
     id="metadata7">
    <rdf:RDF>
      <cc:Work
         rdf:about="">
        <dc:format>image/svg+xml</dc:format>
        <dc:type
           rdf:resource="http://purl.org/dc/dcmitype/StillImage" />
      </cc:Work>
    </rdf:RDF>
  </metadata>
  <g
     inkscape:groupmode="layer"
     id="layer2"
     inkscape:label="1">
    <path
       style="opacity:1;color:#000000;fill:#804d26;fill-opacity:1;fill-rule:evenodd;stroke:none;stroke-width:15;stroke-linecap:square;stroke-linejoin:miter;marker:none;marker-start:none;marker-mid:none;marker-end:none;stroke-miterlimit:4;stroke-dasharray:none;stroke-dashoffset:0;stroke-opacity:1;visibility:visible;display:inline;overflow:visible"
       d="M 92.14286,159.86218 C 91.433644,166.97503 95.563616,174.11077 101.74885,177.53183 C 112.9373,189.54929 119.16343,207.98314 112.52934,223.72841 C 107.97089,234.05155 98.072487,240.61254 88.17249,245.10912 C 62.802334,267.97735 178.28674,278.1899 153.57535,243.37418 C 149.61842,233.61734 138.9492,233.9832 137.499,223.23383 C 135.22966,212.07456 139.10685,200.67602 145.40378,191.50909 C 152.40972,179.58962 161.43076,167.41411 161.08538,152.92736 C 160.78153,146.76406 158.58912,140.15841 153.33854,136.48156 C 146.51802,135.02603 141.38824,142.58658 141.87856,148.75385 C 140.74594,156.6546 136.4528,163.54637 132.82703,170.49593 C 126.50797,175.51277 116.41184,169.59688 116.4026,161.88316 C 114.68161,155.6233 112.55389,147.84017 105.6385,145.58138 C 97.803256,144.05747 91.08427,152.4854 92.14286,159.86218 z "
       id="path2421"
       sodipodi:nodetypes="cccccccccccccc" />
    <path
       style="fill:#000000;fill-opacity:1;fill-rule:nonzero;stroke:none;stroke-width:1px;stroke-linecap:butt;stroke-linejoin:miter;stroke-opacity:1"
       id="path1377"
       d="M 116.6957,154.90831 C 115.7053,153.62241 117.1163,155.7285 117.37328,156.22962 C 118.64937,158.26593 120.28316,160.0435 121.8412,161.86195 C 123.99812,164.52286 126.66368,166.3736 129.5977,167.99588 C 132.53295,168.77365 133.92923,167.45554 136.05036,165.7072 C 123.6892,178.43711 129.4585,173.58393 132.28496,166.67641 C 132.51502,166.03962 132.59456,165.36447 132.74903,164.70989 L 143.43377,157.67893 C 143.33802,158.42585 143.31314,159.18381 143.1463,159.92145 C 140.91093,167.79666 137.86785,171.32361 130.37293,177.16866 C 127.23382,178.55236 124.68941,179.27434 121.33604,177.76026 C 118.08573,175.89152 115.14034,173.70519 112.69679,170.80499 C 111.02635,168.86571 109.29272,166.96072 107.88925,164.81165 C 107.29624,163.90014 106.70215,162.81981 106.23111,162.26294 L 116.6957,154.90831 z " />
    <path
       style="opacity:1;color:#000000;fill:#1e6f3e;fill-opacity:1;fill-rule:evenodd;stroke:none;stroke-width:15;stroke-linecap:square;stroke-linejoin:miter;marker:none;marker-start:none;marker-mid:none;marker-end:none;stroke-miterlimit:4;stroke-dasharray:none;stroke-dashoffset:0;stroke-opacity:1;visibility:visible;display:inline;overflow:visible"
       d="M 61.785713,87.362183 C 44.70512,104.54893 50.498779,137.40902 72.312132,147.90015 C 98.931368,164.51205 133.28492,164.96477 161.96417,153.5699 C 183.15566,148.94676 205.64743,140.65366 218.43045,122.05188 C 229.3184,103.98561 220.80443,77.541104 201.50955,69.095525 C 179.63965,54.944757 154.3271,43.525966 127.72084,44.950209 C 103.02244,50.15013 80.498237,64.369792 64.129269,83.40977 C 63.278579,84.684293 62.492887,86.002613 61.785713,87.362183 z "
       id="path1450" />
    <path
       style="fill:#000000;fill-opacity:1;fill-rule:nonzero;stroke:none;stroke-width:1px;stroke-linecap:butt;stroke-linejoin:miter;stroke-opacity:1"
       id="path1309"
       d="M 114.85176,51.685591 C 113.36052,51.975102 111.69751,52.419116 110.1627,52.786155 C 102.76404,54.7988 96.019744,58.406268 89.550644,62.43615 C 83.954264,65.134604 63.824385,84.90379 79.284388,69.983236 C 81.794236,67.560964 74.642168,75.192478 72.413106,77.875391 C 65.274338,86.61969 59.812654,96.41164 56.958237,107.33496 C 54.765396,117.47221 57.49802,126.80354 62.947802,135.34265 C 70.729493,145.60131 82.499375,150.79029 94.742414,153.64458 C 111.25585,157.05877 128.28805,156.19521 144.90319,154.02006 C 160.96596,151.77431 176.75972,147.68448 191.7934,141.58994 C 190.97106,144.08997 216.17457,125.4479 214.26737,127.32261 C 200.53984,140.81632 208.70927,132.70242 211.6261,129.01678 C 216.83934,121.86149 219.62704,113.65243 219.89449,104.8501 C 219.82171,97.4273 216.51981,91.14698 212.35607,85.25138 C 208.02954,79.732239 202.20756,75.985111 196.19057,72.577406 C 189.69635,69.148212 182.8457,66.462716 175.99999,63.830024 C 169.3208,61.259665 162.50065,59.104579 155.61618,57.164224 C 149.51381,55.470454 143.28887,54.309607 137.04516,53.288147 C 131.30402,52.389133 125.52129,51.809997 119.72817,51.384777 C 117.73375,51.249289 115.73603,51.177651 113.73924,51.089599 L 121.19159,40.69438 C 123.20983,40.796573 125.22927,40.880207 127.24447,41.035696 C 133.10414,41.523899 138.95613,42.13119 144.76081,43.086823 C 151.08947,44.16815 157.39705,45.395082 163.57831,47.154094 C 170.53167,49.158395 177.42249,51.370526 184.17206,53.990537 C 191.12325,56.68815 198.08128,59.437973 204.65212,62.985725 C 211.00375,66.561643 217.05395,70.705082 221.64735,76.461026 C 226.30635,82.66808 229.78572,89.57232 230.3244,97.44637 C 230.50861,106.66513 228.08788,115.39749 222.9932,123.15273 C 213.40781,136.66937 200.80791,146.85264 185.33203,152.62846 C 170.05755,158.54952 154.08872,162.57648 137.84005,164.68356 C 120.9224,166.73565 103.59777,167.45177 86.853251,163.71232 C 73.988358,160.51027 61.776215,154.76792 53.549803,144.01882 C 47.648596,135.0056 44.353562,125.08085 46.169415,114.20515 C 48.605299,102.89425 53.823837,92.70934 60.9796,83.6089 C 70.839928,71.213993 82.160172,59.686906 95.574904,51.153134 C 102.29963,47.21947 109.3128,43.724389 116.94805,41.943773 C 118.67477,41.606233 120.43848,41.078536 122.2064,41.221005 L 114.85176,51.685591 z " />
    <path
       style="fill:#000000;fill-opacity:1;fill-rule:nonzero;stroke:none;stroke-width:1px;stroke-linecap:butt;stroke-linejoin:miter;stroke-opacity:1"
       id="path1373"
       d="M 93.462194,152.888 C 93.457351,153.66378 93.461752,154.43896 93.461531,155.21451 C 93.408499,157.58982 94.410964,159.65273 95.265684,161.78795 C 97.387724,165.3179 100.60546,167.94109 103.69275,170.59388 C 107.89282,173.96775 111.66838,177.76765 115.15679,181.85877 C 118.66459,186.00486 120.77716,190.84075 122.22741,196.00867 C 123.45656,201.19782 122.76066,206.37848 121.72629,211.51872 C 120.54574,216.84238 118.11004,221.67985 115.33598,226.32304 C 110.19186,233.87887 103.42038,240.26503 95.984384,245.53387 C 92.576257,247.84658 88.946077,249.78544 85.301508,251.68944 L 91.5112,240.50741 C 95.051034,238.55162 98.591084,236.5774 101.84993,234.16754 C 115.36924,223.54158 93.21289,243.405 104.00253,232.25187 C 106.93485,227.93181 109.48203,223.37133 110.88106,218.29952 C 112.05869,213.54669 112.98736,208.74753 112.11984,203.84674 C 110.88416,199.04571 109.20615,194.52816 105.9071,190.69288 C 102.54259,186.71887 98.872314,183.05704 94.804124,179.79119 C 91.467228,176.91779 88.046153,174.03893 85.688249,170.26563 C 84.530031,167.8414 83.329565,165.45313 83.101538,162.71576 C 83.066922,161.89203 82.948452,161.0702 82.997608,160.24264 L 93.462194,152.888 z " />
    <path
       style="fill:#000000;fill-opacity:1;fill-rule:nonzero;stroke:none;stroke-width:1px;stroke-linecap:butt;stroke-linejoin:miter;stroke-opacity:1"
       id="path1379"
       d="M 164.17287,154.90831 C 164.40592,155.85519 163.95547,156.868 163.84969,157.82153 C 163.29874,160.69235 162.25025,163.41759 161.24437,166.14929 C 159.80705,169.94447 157.84346,173.4956 155.89721,177.0448 C 153.65426,181.03452 151.26268,184.93813 148.90746,188.86189 C 146.47623,192.75725 144.77076,196.9936 143.20532,201.28633 C 141.60954,205.68056 141.41404,210.26128 141.41701,214.87304 C 141.48748,219.57499 142.91954,223.99327 144.46991,228.37231 C 145.98293,232.59379 148.54581,236.15596 151.34881,239.58658 C 152.31079,240.75541 153.52049,241.66808 154.62893,242.68196 L 145.76378,251.90191 C 144.55672,250.79049 143.24641,249.78202 142.18859,248.51342 C 139.16354,244.85155 136.35522,241.05632 134.64767,236.5651 C 132.88983,231.97676 131.33,227.29406 131.03673,222.34619 C 130.80129,217.49706 130.88182,212.63476 132.27958,207.93662 C 133.65525,203.44747 135.31965,199.05493 137.67032,194.97131 C 139.96825,191.01663 142.35711,187.11629 144.66802,183.16881 C 146.62359,179.70313 148.63984,176.25532 150.18939,172.58246 C 151.24548,169.97617 152.35768,167.37757 153.02618,164.63694 C 153.22434,163.94728 153.38992,162.63444 153.70828,162.26294 L 164.17287,154.90831 z " />
  </g>
  <g
     inkscape:groupmode="layer"
     id="layer3"
     inkscape:label="1-path">
    <rect
       style="opacity:1;color:#000000;fill:#3c9272;fill-opacity:0.08024693;fill-rule:evenodd;stroke:none;stroke-width:10;stroke-linecap:square;stroke-linejoin:miter;marker:none;marker-start:none;marker-mid:none;marker-end:none;stroke-miterlimit:4;stroke-dasharray:none;stroke-dashoffset:0;stroke-opacity:1;visibility:visible;display:inline;overflow:visible"
       id="rect4648"
       width="98.994949"
       height="42.426407"
       x="73.741135"
       y="229.08786" />
  </g>
  <g
     inkscape:groupmode="layer"
     id="layer30"
     inkscape:label="unit">
    <rect
       style="opacity:1;color:#000000;fill:#3c9272;fill-opacity:0.08024693;fill-rule:evenodd;stroke:none;stroke-width:10;stroke-linecap:square;stroke-linejoin:miter;marker:none;marker-start:none;marker-mid:none;marker-end:none;stroke-miterlimit:4;stroke-dasharray:none;stroke-dashoffset:0;stroke-opacity:1;visibility:visible;display:inline;overflow:visible"
       id="rect4650"
       width="215.16254"
       height="217.18282"
       x="259.60922"
       y="394.75287" />
  </g>
  <g
     inkscape:groupmode="layer"
     id="layer4"
     inkscape:label="1-crop">
    <rect
       style="opacity:1;color:#000000;fill:#3c9272;fill-opacity:0.08024693;fill-rule:evenodd;stroke:none;stroke-width:10;stroke-linecap:square;stroke-linejoin:miter;marker:none;marker-start:none;marker-mid:none;marker-end:none;stroke-miterlimit:4;stroke-dasharray:none;stroke-dashoffset:0;stroke-opacity:1;visibility:visible;display:inline;overflow:visible"
       id="rect4638"
       width="206.07112"
       height="251.52798"
       x="33.335033"
       y="28.067503" />
  </g>
  <g
     inkscape:groupmode="layer"
     id="layer5"
     inkscape:label="2">
    <path
       style="opacity:1;color:#000000;fill:#804d26;fill-opacity:1;fill-rule:evenodd;stroke:none;stroke-width:10;stroke-linecap:square;stroke-linejoin:miter;marker:none;marker-start:none;marker-mid:none;marker-end:none;stroke-miterlimit:4;stroke-dasharray:none;stroke-dashoffset:0;stroke-opacity:1;visibility:visible;display:inline;overflow:visible"
       d="M 364.15999,179.59038 C 357.594,227.57263 360.62446,230.09801 354.56354,237.16908 C 348.50263,244.24015 355.65711,237.47556 343.95694,248.28075 C 322.21316,268.36131 408.6067,273.02949 391.93918,250.30106 C 375.27167,227.57263 389.41381,178.07515 389.41381,178.07515 L 364.15999,179.59038 z "
       id="path1368"
       sodipodi:nodetypes="cssscc" />
    <path
       style="opacity:1;color:#000000;fill:#1e6f3e;fill-opacity:1;fill-rule:evenodd;stroke:none;stroke-width:10;stroke-linecap:square;stroke-linejoin:miter;marker:none;marker-start:none;marker-mid:none;marker-end:none;stroke-miterlimit:4;stroke-dasharray:none;stroke-dashoffset:0;stroke-opacity:1;visibility:visible;display:inline;overflow:visible"
       d="M 288.39856,113.93047 C 301.49845,153.82847 344.04254,184.93681 386.71326,177.27772 C 413.99095,172.73565 443.66181,160.83595 457.10948,135.01075 C 469.64349,109.84277 460.3794,78.581062 442.39022,58.496057 C 425.87083,39.367322 399.02083,29.275904 374.14134,35.524371 C 335.07009,44.12755 296.49715,72.973723 288.39856,113.93047 z "
       id="path1338" />
    <path
       style="fill:#000000;fill-opacity:1;fill-rule:nonzero;stroke:none;stroke-width:1px;stroke-linecap:butt;stroke-linejoin:miter;stroke-opacity:1"
       id="path1317"
       d="M 285.56754,117.34551 C 283.73539,115.93798 284.05002,114.91225 283.7813,112.78237 C 284.35218,105.95925 287.2179,99.63781 290.18512,93.55732 C 297.56509,79.104788 309.41947,68.142407 320.85317,56.941654 C 331.2397,47.527992 343.60745,40.949021 356.30301,35.245066 C 368.766,29.532385 381.98354,26.984247 395.62282,27.287074 C 408.62246,28.034203 420.65702,32.613068 431.76253,39.167963 C 442.22525,45.818104 450.03961,55.402258 456.7914,65.63138 C 463.05742,75.490846 467.19545,86.4125 469.76813,97.76088 C 472.10397,108.40274 470.21959,118.66752 466.20324,128.59733 C 459.89165,142.05792 448.9915,152.72238 437.36146,161.73984 C 428.13512,168.4856 417.67963,173.17963 407.05583,177.24084 C 397.0891,181.0352 386.65253,183.1487 376.08951,184.35474 C 366.39714,185.5246 356.78821,184.41722 347.3798,182.04862 C 338.85878,179.73283 330.94054,175.82943 323.44222,171.23518 C 317.1187,167.32629 311.64845,162.32951 306.50001,157.0159 C 302.26413,152.42228 298.6247,147.33553 295.12019,142.17639 C 292.09156,137.72511 289.42031,133.06315 287.00863,128.25531 C 284.85659,124.02206 283.59394,119.48606 282.64336,114.8615 L 292.83095,107.12773 C 293.66055,111.53039 294.65699,115.88224 296.7054,119.91439 C 299.01439,124.63 301.60053,129.19105 304.55381,133.53897 C 307.95588,138.57994 311.48971,143.55126 315.61119,148.039 C 320.58722,153.17958 325.883,158.00414 332.02149,161.74864 C 339.31366,166.15589 347.01442,169.88433 355.30493,172.00917 C 364.47183,174.15901 373.80222,175.00202 383.18394,173.71203 C 393.56343,172.36795 403.79501,170.0986 413.54916,166.2211 C 423.97223,162.05729 434.23349,157.28033 443.12367,150.32078 C 446.82804,147.24653 457.73023,136.53636 443.30036,151.02337 C 438.6093,155.733 460.90733,131.7124 455.10019,134.94718 C 459.33823,125.59176 461.66445,115.84132 459.63198,105.56196 C 457.32166,94.49029 453.35232,83.85324 447.32633,74.234325 C 440.85317,64.329384 433.34956,55.031733 423.20072,48.670257 C 412.42934,42.42859 400.76367,38.146591 388.19357,37.698822 C 374.86498,37.71959 362.03042,40.607492 349.9452,46.343551 C 337.46063,52.161626 325.35812,58.895624 315.31034,68.468805 C 326.22061,57.199915 306.30136,76.925766 301.37019,87.35309 C 298.32798,93.12802 295.49109,99.11551 294.36252,105.59655 C 293.7957,106.10199 294.75312,109.76223 292.92218,106.88092 L 285.56754,117.34551 z " />
    <path
       style="fill:#000000;fill-opacity:1;fill-rule:nonzero;stroke:none;stroke-width:1px;stroke-linecap:butt;stroke-linejoin:miter;stroke-opacity:1"
       id="path1405"
       d="M 370.24399,176.1269 C 370.36293,177.20511 370.11532,178.28574 370.04701,179.36203 C 369.71572,182.98441 369.26385,186.59278 368.78461,190.19783 C 368.05519,195.39131 367.30611,200.58178 366.61781,205.7809 C 365.95,211.22032 365.18437,216.6433 364.21107,222.03619 C 363.46531,226.91577 361.61956,231.39036 359.36959,235.72897 C 354.72096,243.07917 348.35165,249.26315 340.28584,252.42329 C 338.94873,252.89851 337.54375,253.09974 336.16525,253.40252 L 343.01364,242.59985 C 344.25425,242.19536 345.56757,241.9812 346.74477,241.38334 C 361.23751,233.38738 338.89838,249.31728 348.06708,241.71657 C 350.56653,237.74527 352.60046,233.61601 353.43981,228.93389 C 354.4868,223.59987 355.30976,218.23174 355.94648,212.8322 C 356.62392,207.62477 357.35796,202.42559 358.09856,197.22681 C 358.60335,193.65355 359.0875,190.0777 359.42248,186.48365 C 359.54095,185.48714 359.61269,184.45022 359.7794,183.48154 L 370.24399,176.1269 z " />
    <path
       style="fill:#000000;fill-opacity:1;fill-rule:nonzero;stroke:none;stroke-width:1px;stroke-linecap:butt;stroke-linejoin:miter;stroke-opacity:1"
       id="path1407"
       d="M 395.4978,173.09105 C 395.7587,174.12381 395.22272,175.21334 395.08617,176.24209 C 394.3935,179.26835 393.88384,182.33231 393.36281,185.39161 C 392.58301,189.91024 391.92237,194.44628 391.33794,198.99378 C 390.67928,204.30132 390.26924,209.63439 389.89841,214.96829 C 389.50339,220.37219 389.31755,225.78407 389.35325,231.20078 C 389.28682,236.09754 390.68525,240.5137 392.7597,244.85248 C 394.92323,248.73562 398.30499,250.75539 402.21575,252.49628 C 402.49446,252.58412 402.77316,252.67196 403.05187,252.75981 L 394.96049,262.66576 C 394.652,262.55336 394.34351,262.44096 394.03502,262.32856 C 389.67219,260.17787 385.73647,257.72974 383.21931,253.37183 C 380.72115,248.76506 379.10357,243.94328 378.94903,238.64057 C 378.79305,233.14805 378.94129,227.65787 379.33126,222.17478 C 379.67982,216.79922 380.06642,211.42457 380.68445,206.072 C 381.23611,201.48874 381.85373,196.91453 382.64021,192.36471 C 383.15806,189.26691 383.65634,186.16533 384.28111,183.0867 C 384.49867,182.32274 384.65108,180.87189 385.03321,180.44569 L 395.4978,173.09105 z " />
  </g>
  <g
     inkscape:groupmode="layer"
     id="layer7"
     inkscape:label="2-path">
    <rect
       style="opacity:1;color:#000000;fill:#3c9272;fill-opacity:0.08024693;fill-rule:evenodd;stroke:none;stroke-width:10;stroke-linecap:square;stroke-linejoin:miter;marker:none;marker-start:none;marker-mid:none;marker-end:none;stroke-miterlimit:4;stroke-dasharray:none;stroke-dashoffset:0;stroke-opacity:1;visibility:visible;display:inline;overflow:visible"
       id="rect4646"
       width="105.05586"
       height="35.355339"
       x="317.1879"
       y="235.14877" />
  </g>
  <g
     inkscape:groupmode="layer"
     id="layer8"
     inkscape:label="2-crop">
    <rect
       style="opacity:1;color:#000000;fill:#3c9272;fill-opacity:0.08024693;fill-rule:evenodd;stroke:none;stroke-width:10;stroke-linecap:square;stroke-linejoin:miter;marker:none;marker-start:none;marker-mid:none;marker-end:none;stroke-miterlimit:4;stroke-dasharray:none;stroke-dashoffset:0;stroke-opacity:1;visibility:visible;display:inline;overflow:visible"
       id="rect4635"
       width="207.08127"
       height="260.61935"
       x="270.72089"
       y="12.915214" />
  </g>
  <g
     inkscape:groupmode="layer"
     id="layer9"
     inkscape:label="3">
    <path
       style="opacity:1;color:#000000;fill:#804d26;fill-opacity:1;fill-rule:evenodd;stroke:none;stroke-width:10;stroke-linecap:square;stroke-linejoin:miter;marker:none;marker-start:none;marker-mid:none;marker-end:none;stroke-miterlimit:4;stroke-dasharray:none;stroke-dashoffset:0;stroke-opacity:1;visibility:visible;display:inline;overflow:visible"
       d="M 592.95954,234.6437 C 583.36309,254.34167 654.07377,254.84675 648.51793,244.24015 C 642.9621,233.63354 622.75904,203.83404 626.79965,178.07515 C 630.84026,152.31626 632.35549,150.80104 632.35549,150.80104 L 586.89863,147.2655 C 586.89863,147.2655 594.47477,149.28581 601.54584,166.4584 C 608.61691,183.63099 605.08137,210.40004 592.95954,234.6437 z "
       id="path3362" />
    <path
       style="opacity:1;color:#000000;fill:#1e6f3e;fill-opacity:1;fill-rule:evenodd;stroke:none;stroke-width:10;stroke-linecap:square;stroke-linejoin:miter;marker:none;marker-start:none;marker-mid:none;marker-end:none;stroke-miterlimit:4;stroke-dasharray:none;stroke-dashoffset:0;stroke-opacity:1;visibility:visible;display:inline;overflow:visible"
       d="M 538.41132,114.43554 C 566.92925,155.24464 630.10162,165.47554 670.04219,135.75337 C 694.66966,116.81063 700.90471,78.257159 683.50863,52.515094 C 660.37802,7.9105342 629.58715,6.2248824 603.24666,26.723851 C 593.42031,33.729602 587.07673,44.2461 578.87127,52.881192 C 564.08236,62.275801 545.38141,67.813896 536.17324,83.915691 C 530.95464,93.351875 531.7459,105.89707 538.41132,114.43554 z "
       id="path1370"
       sodipodi:nodetypes="ccccccc" />
    <path
       style="fill:#000000;fill-opacity:1;fill-rule:nonzero;stroke:none;stroke-width:1px;stroke-linecap:butt;stroke-linejoin:miter;stroke-opacity:1"
       id="path1321"
       d="M 534.31017,88.080823 C 536.27058,85.537193 539.76004,84.661143 542.29303,82.687003 C 541.0189,86.796573 540.71405,91.031623 540.66138,95.302183 C 540.63729,101.87644 542.35768,107.9918 545.44557,113.74385 C 551.72745,123.40579 561.99291,129.23325 571.9363,134.50143 C 585.02224,141.19208 599.28115,144.66635 613.80558,146.25804 C 626.6384,147.47713 639.22374,145.46241 651.34152,141.31763 C 661.55873,137.57273 670.30689,131.18608 678.18296,123.81204 C 667.53833,136.78648 682.83836,116.8075 686.53684,106.80713 C 690.03278,96.608273 689.73933,86.071593 687.75286,75.630133 C 685.47895,65.304383 680.91839,55.756836 675.59854,46.69098 C 671.10729,39.214737 665.55467,32.497282 659.20941,26.538131 C 654.21248,21.846024 648.11571,19.252662 641.57498,17.616384 C 635.21757,16.317845 628.91332,17.276278 622.68625,18.703275 C 616.61041,20.219502 611.24218,23.327979 606.10464,26.795831 C 587.27928,43.522388 608.09551,23.406556 601.47632,30.443058 C 597.9568,34.545485 594.34303,38.556555 590.58598,42.44234 C 584.49856,49.106779 577.98377,55.165827 570.65539,60.375619 C 566.60184,63.094203 562.21656,65.265753 557.84697,67.421263 C 553.66696,69.257703 549.86167,71.704693 546.19884,74.395323 C 535.02514,85.347643 554.78371,63.910253 545.91965,75.005123 C 543.87335,77.708453 542.61426,80.827543 541.35444,83.937303 L 530.40944,90.555853 C 531.52452,87.226943 532.6647,83.906383 534.58243,80.926763 C 539.31181,74.017663 545.3485,68.057543 552.01821,63.005283 C 555.89074,60.47607 559.88315,58.178087 564.10562,56.266551 C 568.37612,54.084337 572.66623,51.890084 576.52009,49.008849 C 581.25073,45.435093 595.80212,31.964274 579.01562,47.894401 C 582.82278,44.084816 586.53663,40.182032 589.9689,36.026749 C 596.66916,28.533054 603.71164,21.172564 612.0287,15.459881 C 617.48605,12.115972 623.16321,9.1792908 629.49534,7.8757878 C 636.11587,6.6269018 642.78479,5.9097638 649.43251,7.5239338 C 656.35832,9.4953398 662.84679,12.387036 668.16478,17.405789 C 674.69766,23.554832 680.44959,30.453816 685.11111,38.140584 C 690.62676,47.433416 695.36416,57.218995 697.86094,67.792713 C 700.11262,78.576513 700.72828,89.509683 697.48801,100.1988 C 692.76238,114.59301 684.20368,125.34621 672.64734,135.34266 C 664.38445,142.58896 655.29612,148.80665 644.76973,152.29077 C 632.27551,156.19181 619.31263,158.0148 606.21842,156.55528 C 591.37877,154.94268 576.8649,150.91584 563.52777,144.13963 C 553.06269,138.70102 542.58049,132.24001 535.9026,122.2603 C 532.49731,116.19144 530.39687,109.72907 530.23698,102.71367 C 530.15045,98.240013 530.24778,93.784843 531.42497,89.431153 C 532.91114,83.425803 533.73453,80.936673 541.6648,77.616233 L 534.31017,88.080823 z " />
    <path
       style="fill:#000000;fill-opacity:1;fill-rule:nonzero;stroke:none;stroke-width:1px;stroke-linecap:butt;stroke-linejoin:miter;stroke-opacity:1"
       id="path1389"
       d="M 589.15276,141.25584 C 590.11656,141.88577 591.09525,142.52024 592.05919,143.15996 C 594.97259,145.15582 597.15665,147.94386 599.37794,150.64356 C 603.5287,155.5615 606.41388,161.1494 608.63491,167.13671 C 610.91598,174.33239 611.01089,181.84773 610.41186,189.29737 C 609.66822,196.775 607.92601,204.09653 606.01033,211.34675 C 604.32054,217.70488 602.17356,223.92444 599.80078,230.05529 C 598.35894,233.6437 596.53631,237.05302 594.70384,240.45103 L 583.46843,246.5636 C 585.35039,243.26501 587.21583,239.9529 588.73164,236.46406 C 591.22905,230.4682 593.37763,224.33609 595.13492,218.07904 C 597.08106,210.95123 598.89127,203.76368 599.78516,196.41575 C 600.52773,189.30042 600.66942,182.12642 598.68694,175.17637 C 596.72338,169.44358 594.0584,164.1417 590.11972,159.46873 C 588.0758,156.97165 586.09074,154.3664 583.37745,152.5528 C 583.05674,152.38377 581.02907,150.86266 581.79812,151.72043 L 589.15276,141.25584 z " />
    <path
       style="fill:#000000;fill-opacity:1;fill-rule:nonzero;stroke:none;stroke-width:1px;stroke-linecap:butt;stroke-linejoin:miter;stroke-opacity:1"
       id="path1391"
       d="M 638.52137,145.3938 C 638.23088,145.852 637.63058,147.23926 637.26465,147.99738 C 636.00754,150.61482 635.16502,153.39333 634.28432,156.15052 C 633.04397,160.39087 632.40916,164.76122 631.90271,169.13849 C 631.28447,174.16481 631.61141,179.19759 632.16613,184.20679 C 632.80806,189.56113 634.26072,194.75364 635.83217,199.89524 C 637.64429,205.6398 639.90814,211.22266 642.27532,216.75616 C 644.78428,222.67362 647.75122,228.36985 650.85252,233.99291 C 652.78452,237.43966 654.80562,240.83479 656.83605,244.22399 L 647.32526,252.77638 C 645.27408,249.36461 643.23366,245.94619 641.28061,242.47683 C 638.11807,236.7843 635.08244,231.02121 632.51968,225.02814 C 630.09334,219.42181 627.77296,213.76515 625.89426,207.94733 C 624.23491,202.67702 622.68095,197.35698 621.92412,191.86836 C 621.25199,186.69935 620.77442,181.49335 621.29262,176.28161 C 621.70848,171.77298 622.2756,167.27477 623.40757,162.88064 C 624.19888,160.00157 625.02187,157.12888 626.17308,154.36726 C 626.5477,153.50961 627.12009,152.38454 627.36228,151.64465 L 638.52137,145.3938 z " />
  </g>
  <g
     inkscape:groupmode="layer"
     id="layer11"
     inkscape:label="3-path">
    <rect
       style="opacity:1;color:#000000;fill:#3c9272;fill-opacity:0.08024693;fill-rule:evenodd;stroke:none;stroke-width:10;stroke-linecap:square;stroke-linejoin:miter;marker:none;marker-start:none;marker-mid:none;marker-end:none;stroke-miterlimit:4;stroke-dasharray:none;stroke-dashoffset:0;stroke-opacity:1;visibility:visible;display:inline;overflow:visible"
       id="rect4644"
       width="103.03556"
       height="34.345188"
       x="570.73621"
       y="222.01678" />
  </g>
  <g
     inkscape:groupmode="layer"
     id="layer10"
     inkscape:label="3-crop">
    <rect
       style="opacity:1;color:#000000;fill:#3c9272;fill-opacity:0.08024693;fill-rule:evenodd;stroke:none;stroke-width:10;stroke-linecap:square;stroke-linejoin:miter;marker:none;marker-start:none;marker-mid:none;marker-end:none;stroke-miterlimit:4;stroke-dasharray:none;stroke-dashoffset:0;stroke-opacity:1;visibility:visible;display:inline;overflow:visible"
       id="rect4633"
       width="197.9899"
       height="258.59906"
       x="520.22858"
       y="1.8035361" />
  </g>
  <g
     inkscape:groupmode="layer"
     id="layer12"
     inkscape:label="4">
    <path
       style="opacity:1;color:#000000;fill:#804d26;fill-opacity:1;fill-rule:evenodd;stroke:none;stroke-width:10;stroke-linecap:square;stroke-linejoin:miter;marker:none;marker-start:none;marker-mid:none;marker-end:none;stroke-miterlimit:4;stroke-dasharray:none;stroke-dashoffset:0;stroke-opacity:1;visibility:visible;display:inline;overflow:visible"
       d="M 101.26779,571.27703 C 87.630733,593.75293 150.51273,591.98516 139.65359,577.84302 C 128.79445,563.70089 111.62186,549.30621 126.26907,527.08286 C 140.91628,504.8595 151.58486,504.55974 150.26019,486.67676 C 149.75511,479.85823 142.17897,482.63615 134.60283,492.2326 C 127.02668,501.82905 119.70308,506.87981 119.70308,490.46483 C 119.70308,482.38361 102.78302,476.57523 104.55079,491.22244 C 107.24997,513.58706 116.16754,550.82144 101.26779,571.27703 z "
       id="path3376"
       sodipodi:nodetypes="cssssssc" />
    <path
       style="opacity:1;color:#000000;fill:#1e6f3e;fill-opacity:1;fill-rule:evenodd;stroke:none;stroke-width:10;stroke-linecap:square;stroke-linejoin:miter;marker:none;marker-start:none;marker-mid:none;marker-end:none;stroke-miterlimit:4;stroke-dasharray:none;stroke-dashoffset:0;stroke-opacity:1;visibility:visible;display:inline;overflow:visible"
       d="M 62.124382,457.88742 C 90.522905,487.80147 139.08192,493.70826 175.72146,474.57871 C 203.58516,454.62807 207.28985,411.74087 183.00093,387.55556 C 155.35972,359.43294 106.789,355.60117 75.183795,379.24627 C 47.46975,393.31572 39.953372,435.71973 62.124382,457.88742 z "
       id="path1978"
       sodipodi:nodetypes="ccccc" />
    <path
       style="fill:#000000;fill-opacity:1;fill-rule:nonzero;stroke:none;stroke-width:1px;stroke-linecap:butt;stroke-linejoin:miter;stroke-opacity:1"
       id="path1325"
       d="M 83.04683,376.6204 C 82.939152,377.26606 81.515272,377.61497 80.893147,378.01896 C 77.56201,379.64999 74.495257,381.73682 71.444806,383.82902 C 66.791623,387.03126 62.508689,390.70659 58.359435,394.52541 C 66.251646,387.12737 61.228932,390.10364 54.911892,401.51632 C 51.494577,408.19223 50.393438,415.43825 50.817365,422.84931 C 51.642634,431.21659 55.186242,438.73424 59.748571,445.66798 C 65.475001,453.83323 73.293236,460.00697 81.498047,465.50599 C 90.535176,471.35006 100.45764,475.55006 110.70073,478.74152 C 120.99215,481.94708 131.67348,482.3971 142.33987,481.61078 C 152.70925,480.66518 162.54506,477.34774 171.86825,472.84969 C 171.83519,472.9487 187.98604,461.18703 187.55425,461.61545 C 173.46189,475.59748 180.8232,468.34422 183.84901,464.9235 C 188.71012,459.26547 191.87035,452.592 194.43236,445.66263 C 196.64246,439.36087 197.31362,432.80046 197.30221,426.17413 C 197.15073,419.65624 194.94897,413.71035 192.08587,407.95882 C 188.91626,401.96967 184.35025,397.00835 179.64181,392.21541 C 174.99993,387.52594 169.56026,383.83409 163.97195,380.38949 C 158.95993,377.34948 153.52236,375.20038 147.9953,373.31715 C 142.8184,371.60994 137.4736,370.58324 132.08587,369.84155 C 126.67222,369.19603 121.23712,369.65597 115.83788,370.18119 C 110.33729,370.72162 104.89276,371.6493 99.475473,372.72422 C 94.443473,373.79467 89.472576,375.12462 84.464292,376.29798 C 83.765229,376.46038 83.06249,376.60605 82.361589,376.76008 L 89.204806,365.95413 C 89.207426,365.95353 91.282396,365.48322 91.281606,365.47567 C 96.300303,364.25828 101.29652,362.93555 106.36811,361.94973 C 111.86636,360.93008 117.39252,360.06303 122.96538,359.56059 C 128.54921,359.09528 134.16823,358.76896 139.74033,359.59424 C 145.27082,360.45479 150.76046,361.5799 156.06805,363.39602 C 161.76004,365.40837 167.35546,367.69667 172.5164,370.87159 C 178.27605,374.46323 183.87705,378.31436 188.67591,383.16095 C 193.57428,388.14581 198.32187,393.30891 201.68033,399.50042 C 204.80568,405.54849 207.29366,411.81513 207.68586,418.70566 C 207.92788,425.58762 207.46123,432.42063 205.37545,439.04092 C 203.09471,446.27077 199.9505,453.18149 195.29918,459.22334 C 187.07752,469.42937 177.47766,478.37674 165.57924,483.98731 C 155.91684,488.30888 145.78796,491.47202 135.16351,492.19841 C 124.18358,492.79056 113.21989,492.1089 102.6798,488.7046 C 92.226246,485.33049 82.090074,480.97772 72.867765,474.94614 C 64.384133,469.2101 56.321831,462.76855 50.345604,454.33876 C 45.484559,447.06908 41.66309,439.19866 40.513432,430.42738 C 39.768458,422.66849 40.525488,414.9871 43.776248,407.80883 C 48.449041,397.859 55.503765,390.25136 63.906406,383.00025 C 68.19733,379.25616 72.596739,375.63323 77.352344,372.48445 C 80.521054,370.43156 83.728685,368.42327 87.186996,366.88408 C 88.232596,366.60533 89.268336,365.6756 90.401466,366.15582 L 83.04683,376.6204 z " />
    <path
       style="fill:#000000;fill-opacity:1;fill-rule:nonzero;stroke:none;stroke-width:1px;stroke-linecap:butt;stroke-linejoin:miter;stroke-opacity:1"
       id="path1393"
       d="M 109.13442,479.8539 C 109.12239,480.76336 109.59186,483.83139 109.75741,485.32516 C 110.54052,492.42022 111.04934,499.54094 111.51247,506.66278 C 112.08071,515.72277 112.48823,524.79196 112.81307,533.86363 C 113.07365,542.45847 113.05711,551.0772 111.90664,559.6082 C 110.02567,571.32719 102.19633,577.632 93.946823,585.73424 C 92.308836,587.10885 90.395216,588.05191 88.553386,589.10279 L 94.670133,577.86964 C 96.347893,576.72933 98.106943,575.69379 99.544683,574.23371 C 85.941276,587.99718 99.557243,575.67314 101.16873,566.5577 C 102.63443,558.22021 102.5761,549.73098 102.3979,541.28808 C 102.10617,532.24063 101.69291,523.19686 101.15016,514.16084 C 100.7043,507.07249 100.22111,499.98429 99.466513,492.92092 C 99.273743,491.03496 99.259883,488.99583 98.669833,487.20854 L 109.13442,479.8539 z " />
    <path
       style="fill:#000000;fill-opacity:1;fill-rule:nonzero;stroke:none;stroke-width:1px;stroke-linecap:butt;stroke-linejoin:miter;stroke-opacity:1"
       id="path1397"
       d="M 155.60144,482.87897 C 155.65054,484.06502 155.55229,485.24819 155.52321,486.43279 C 155.44866,490.29989 154.07369,493.8048 152.59464,497.30454 C 148.446,505.27439 141.43812,510.99104 135.14323,517.24187 C 126.0269,526.93003 145.06428,505.47985 134.18225,518.7016 C 131.42719,522.19436 130.25265,526.30889 129.29302,530.55597 C 128.51089,535.0802 128.96137,539.62099 129.48075,544.1381 C 130.22818,548.99694 131.59184,553.72827 133.04904,558.41318 C 134.34126,563.06334 136.99598,566.62342 140.32477,569.96073 C 144.47923,573.48233 149.59593,574.85317 154.81981,575.85596 C 158.59761,576.48382 162.38454,576.27616 166.16943,575.95315 L 159.04061,586.57286 C 155.03923,586.7323 151.03178,586.81392 147.07419,586.03455 C 141.40463,584.752 135.89371,583.03793 131.41548,579.13802 C 127.6695,575.54453 124.72413,571.52638 123.14,566.50077 C 121.57043,561.69532 120.15842,556.82753 119.27138,551.8431 C 118.5737,547.11905 118.05941,542.35508 118.60412,537.58062 C 119.33058,533.02299 120.27994,528.54317 122.82938,524.59316 C 127.87262,517.50474 134.2776,511.61822 140.64122,505.69327 C 135.35618,511.00314 133.65592,513.7606 141.39797,503.48781 C 143.04965,500.34785 144.63002,497.19633 144.92304,493.59062 C 144.99953,492.4729 145.16999,491.3571 145.13685,490.2336 L 155.60144,482.87897 z " />
    <path
       style="fill:#000000;fill-opacity:1;fill-rule:nonzero;stroke:none;stroke-width:1px;stroke-linecap:butt;stroke-linejoin:miter;stroke-opacity:1"
       id="path1399"
       d="M 125.29686,482.87357 C 125.10863,483.7354 125.50793,484.67123 125.61085,485.54777 C 126.12234,488.31211 126.47851,491.10269 126.87233,493.88561 C 126.26346,497.09407 128.67785,496.13611 129.17507,496.61374 C 132.72173,493.78982 143.25964,483.23184 126.49086,499.33625 C 128.05074,497.3951 129.03394,495.12184 130.08893,492.89391 L 141.1333,486.44254 C 140.16365,488.8367 139.26087,491.27028 137.84813,493.45317 C 133.89388,499.20309 129.18626,505.7078 122.2349,507.35768 C 119.12712,506.20287 117.31656,505.3345 116.67536,501.60701 C 116.26398,498.84522 115.86973,496.07966 115.45141,493.31848 C 115.24111,492.29102 115.05662,491.24598 114.83228,490.22821 L 125.29686,482.87357 z " />
  </g>
  <g
     inkscape:groupmode="layer"
     id="layer14"
     inkscape:label="4-path">
    <rect
       style="opacity:1;color:#000000;fill:#3c9272;fill-opacity:0.08024693;fill-rule:evenodd;stroke:none;stroke-width:10;stroke-linecap:square;stroke-linejoin:miter;marker:none;marker-start:none;marker-mid:none;marker-end:none;stroke-miterlimit:4;stroke-dasharray:none;stroke-dashoffset:0;stroke-opacity:1;visibility:visible;display:inline;overflow:visible"
       id="rect4642"
       width="95.964493"
       height="38.385796"
       x="69.700523"
       y="559.40771" />
  </g>
  <g
     inkscape:groupmode="layer"
     id="layer13"
     inkscape:label="4-crop">
    <rect
       style="opacity:1;color:#000000;fill:#3c9272;fill-opacity:0.08024693;fill-rule:evenodd;stroke:none;stroke-width:10;stroke-linecap:square;stroke-linejoin:miter;marker:none;marker-start:none;marker-mid:none;marker-end:none;stroke-miterlimit:4;stroke-dasharray:none;stroke-dashoffset:0;stroke-opacity:1;visibility:visible;display:inline;overflow:visible"
       id="rect4631"
       width="185.86807"
       height="254.55844"
       x="28.284271"
       y="346.26556" />
  </g>
  <g
     inkscape:groupmode="layer"
     id="layer15"
     inkscape:label="5">
    <path
       style="opacity:1;color:#000000;fill:#804d26;fill-opacity:1;fill-rule:evenodd;stroke:none;stroke-width:10;stroke-linecap:square;stroke-linejoin:miter;marker:none;marker-start:none;marker-mid:none;marker-end:none;stroke-miterlimit:4;stroke-dasharray:none;stroke-dashoffset:0;stroke-opacity:1;visibility:visible;display:inline;overflow:visible"
       d="M 351.07143,589.1479 C 328.92857,603.79075 400.71429,604.86218 391.07143,595.21932 C 381.42857,585.57647 373.66436,571.46861 378.21429,522.71932 C 380.71429,495.93361 360,506.6479 360,506.6479 C 360,506.6479 369.64286,550.21932 359.64286,571.29075 C 349.64286,592.36218 350.71429,590.21932 351.07143,589.1479 z "
       id="path3374"
       sodipodi:nodetypes="csscsc" />
    <path
       style="opacity:1;color:#000000;fill:#1e6f3e;fill-opacity:1;fill-rule:evenodd;stroke:none;stroke-width:10;stroke-linecap:square;stroke-linejoin:miter;marker:none;marker-start:none;marker-mid:none;marker-end:none;stroke-miterlimit:4;stroke-dasharray:none;stroke-dashoffset:0;stroke-opacity:1;visibility:visible;display:inline;overflow:visible"
       d="M 274.76151,434.14883 C 277.27247,470.44851 309.53556,501.82587 345.78602,503.79708 C 383.97,513.96816 427.53258,500.63193 452.98016,470.27527 C 467.99175,445.2731 459.61241,409.28859 435.06055,393.53179 C 396.60367,356.4017 328.30406,357.80363 291.40716,396.48606 C 282.34379,407.02794 275.94388,420.18973 274.76151,434.14883 z "
       id="path1721" />
    <path
       style="fill:#000000;fill-opacity:1;fill-rule:nonzero;stroke:none;stroke-width:1px;stroke-linecap:butt;stroke-linejoin:miter;stroke-opacity:1"
       id="path1333"
       d="M 304.16565,386.73576 C 303.15049,390.84484 296.5587,395.3473 292.7228,399.08461 C 308.78904,380.83995 293.56243,399.73884 290.39578,405.28317 C 285.83336,413.517 282.90458,422.44321 281.21793,431.67129 C 279.38189,442.55799 282.26556,452.3609 288.02328,461.52359 C 297.28037,473.79654 309.83606,483.07233 323.49778,489.92031 C 338.811,497.21123 355.50687,501.08852 372.40731,501.92404 C 387.55969,502.64093 402.46999,499.9597 416.74274,495.04975 C 426.28097,494.36437 454.64999,467.5599 438.667,483.40117 C 446.27387,475.94457 451.6368,466.91331 454.99221,456.86832 C 458.02151,446.99765 456.55855,437.29974 453.07039,427.81624 C 449.0788,418.16144 442.58924,409.96583 435.43286,402.47649 C 428.74457,395.68911 421.0201,390.09446 412.89875,385.16453 C 405.86706,380.96654 398.32303,377.76298 390.60812,375.06679 C 383.65884,372.67116 376.44978,371.23081 369.14909,370.49428 C 362.17949,369.84559 355.21718,370.45049 348.3126,371.40367 C 341.70988,372.36741 335.37329,374.38314 329.16721,376.76564 C 323.64351,378.96212 318.47027,381.90276 313.30053,384.80998 C 308.72967,387.34581 304.24036,390.02283 299.73466,392.67148 C 295.5747,395.06247 291.51252,397.58969 287.60105,400.36304 C 277.24476,410.69417 296.05934,388.94532 287.66012,400.82604 C 285.89525,403.7896 285.99351,406.88184 286.15166,410.18206 C 286.21984,410.8952 286.39078,411.5921 286.51024,412.29658 L 276.40742,420.14077 C 276.24334,419.37776 276.03225,418.62387 275.91496,417.8507 C 275.45987,414.20138 275.14647,410.60796 276.50469,407.0834 C 280.29488,399.62213 286.72582,393.89623 293.45747,388.992 C 297.50859,386.35746 301.63436,383.84318 305.81693,381.41962 C 310.33062,378.76493 314.85084,376.12172 319.43245,373.58511 C 324.68811,370.6732 329.99419,367.82164 335.64506,365.73679 C 342.04857,363.47334 348.57301,361.56894 355.33456,360.71301 C 362.43878,359.88706 369.59503,359.38126 376.73325,360.19482 C 384.21208,361.0927 391.59672,362.64391 398.70867,365.16834 C 406.57627,367.99077 414.26984,371.3162 421.44059,375.64429 C 429.74361,380.73815 437.64644,386.49601 444.50149,393.45662 C 451.91165,401.20501 458.62645,409.67702 462.88101,419.60954 C 466.70571,429.49289 468.61741,439.69767 465.88997,450.17229 C 462.87776,460.59611 457.76933,470.04339 450.23588,477.94597 C 438.33469,489.80586 426.57562,500.85624 410.1809,506.02884 C 395.55055,510.71007 380.33488,513.22143 364.92407,512.29706 C 347.68871,511.21544 330.682,507.13175 315.10645,499.57349 C 301.06423,492.41632 288.18827,482.80386 278.6066,470.17948 C 272.43273,460.57562 268.97768,450.24068 270.52113,438.6839 C 271.95417,429.19073 274.74391,420.00154 279.19597,411.46076 C 284.13124,402.18674 290.07184,394.42657 298.21501,387.53325 C 305.32577,381.86074 299.76194,385.95694 293.70107,394.0904 L 304.16565,386.73576 z " />
    <path
       style="fill:#000000;fill-opacity:1;fill-rule:nonzero;stroke:none;stroke-width:1px;stroke-linecap:butt;stroke-linejoin:miter;stroke-opacity:1"
       id="path1401"
       d="M 364.77481,502.90331 C 364.73722,504.23828 364.82424,505.57104 364.85818,506.90518 C 365.05159,512.38302 365.14408,517.86373 365.25194,523.34372 C 365.43862,530.97039 365.65812,538.59621 365.85012,546.22275 C 366.14813,553.59268 366.27541,560.93414 365.48712,568.26867 C 364.6172,574.63746 361.7387,580.09834 357.98234,585.18691 C 351.74282,592.90423 345.20927,598.71669 336.30522,602.42505 L 342.72511,591.36235 C 354.38849,585.52154 351.24995,584.38606 346.50188,590.82581 C 350.45253,586.25271 353.60369,581.29111 354.76696,575.24553 C 355.83661,568.07177 355.75899,560.87778 355.42568,553.63418 C 355.23696,546.00594 355.02313,538.37839 354.82415,530.75043 C 354.7088,525.27979 354.62271,519.80829 354.44972,514.33903 C 354.39686,512.97892 354.33138,511.61823 354.31022,510.25794 L 364.77481,502.90331 z " />
    <path
       style="fill:#000000;fill-opacity:1;fill-rule:nonzero;stroke:none;stroke-width:1px;stroke-linecap:butt;stroke-linejoin:miter;stroke-opacity:1"
       id="path1403"
       d="M 382.95755,503.91346 C 382.95755,504.74495 382.95755,505.57643 382.95755,506.40792 C 382.92322,509.44413 383.04659,512.47842 383.14692,515.51229 C 383.30056,519.8441 383.40831,524.17724 383.51004,528.5105 C 383.62107,533.52558 383.68422,538.54152 383.74175,543.55744 C 383.80001,548.83615 383.82754,554.11514 383.86979,559.39397 C 383.81793,564.3529 384.25222,569.27442 384.94088,574.17472 C 385.53919,578.33546 387.49076,581.66561 390.06621,584.85802 C 392.80987,587.77511 396.35724,589.28837 400.02482,590.65472 C 402.03144,591.38322 404.149,591.55525 406.23978,591.8569 L 398.61103,602.12337 C 396.36274,601.70071 394.08303,601.40476 391.93415,600.56124 C 387.89609,598.91008 383.99169,597.08845 380.95374,593.8336 C 378.03464,590.29456 375.62965,586.59364 374.79719,581.96599 C 373.87549,576.95221 373.43542,571.88419 373.42773,566.78055 C 373.36579,561.49931 373.34949,556.2176 373.29417,550.93621 C 373.24094,545.92855 373.18254,540.92086 373.07991,535.91392 C 372.9852,531.5898 372.8858,527.26574 372.73628,522.94309 C 372.63396,519.88376 372.49538,516.82387 372.49297,513.76255 C 372.49297,512.93107 372.49297,512.09958 372.49297,511.26809 L 382.95755,503.91346 z " />
  </g>
  <g
     inkscape:groupmode="layer"
     id="layer17"
     inkscape:label="5-path">
    <rect
       style="opacity:1;color:#000000;fill:#3c9272;fill-opacity:0.08024693;fill-rule:evenodd;stroke:none;stroke-width:10;stroke-linecap:square;stroke-linejoin:miter;marker:none;marker-start:none;marker-mid:none;marker-end:none;stroke-miterlimit:4;stroke-dasharray:none;stroke-dashoffset:0;stroke-opacity:1;visibility:visible;display:inline;overflow:visible"
       id="rect4640"
       width="110.10663"
       height="37.375645"
       x="315.1676"
       y="575.57019" />
  </g>
  <g
     inkscape:groupmode="layer"
     id="layer16"
     inkscape:label="5-crop">
    <rect
       style="opacity:1;color:#000000;fill:#3c9272;fill-opacity:0.08024693;fill-rule:evenodd;stroke:none;stroke-width:10;stroke-linecap:square;stroke-linejoin:miter;marker:none;marker-start:none;marker-mid:none;marker-end:none;stroke-miterlimit:4;stroke-dasharray:none;stroke-dashoffset:0;stroke-opacity:1;visibility:visible;display:inline;overflow:visible"
       id="rect4627"
       width="222.23357"
       height="275.77164"
       x="257.5889"
       y="341.21478" />
  </g>
  <g
     inkscape:groupmode="layer"
     id="layer18"
     inkscape:label="6">
    <path
       style="opacity:1;color:#000000;fill:#804d26;fill-opacity:1;fill-rule:evenodd;stroke:none;stroke-width:10;stroke-linecap:square;stroke-linejoin:miter;marker:none;marker-start:none;marker-mid:none;marker-end:none;stroke-miterlimit:4;stroke-dasharray:none;stroke-dashoffset:0;stroke-opacity:1;visibility:visible;display:inline;overflow:visible"
       d="M 630.84026,595.77323 C 620.23366,611.93567 682.86312,611.93567 672.7616,602.8443 C 662.66007,593.75293 653.06362,602.33922 657.10423,553.34683 C 661.14484,504.35443 661.14484,514.96103 661.14484,514.96103 L 633.36565,510.92042 C 633.36565,510.92042 636.3961,528.09301 634.88087,556.88236 C 633.36565,585.67171 636.90118,583.14633 630.84026,595.77323 z "
       id="path3366" />
    <path
       style="opacity:1;color:#000000;fill:#1e6f3e;fill-opacity:1;fill-rule:evenodd;stroke:none;stroke-width:10;stroke-linecap:square;stroke-linejoin:miter;marker:none;marker-start:none;marker-mid:none;marker-end:none;stroke-miterlimit:4;stroke-dasharray:none;stroke-dashoffset:0;stroke-opacity:1;visibility:visible;display:inline;overflow:visible"
       d="M 581.8479,440.20975 C 571.43402,411.80075 589.64736,376.96752 618.69836,368.86628 C 647.42994,355.46493 685.63223,366.35711 701.50939,394.2142 C 722.17038,425.23436 720.00939,470.80029 693.43506,497.75878 C 671.60676,519.85475 632.34433,519.71389 610.1551,498.19607 C 593.20896,483.91802 582.8609,462.29551 581.8479,440.20975 z "
       id="path1542" />
    <path
       style="fill:#000000;fill-opacity:1;fill-rule:nonzero;stroke:none;stroke-width:1px;stroke-linecap:butt;stroke-linejoin:miter;stroke-opacity:1"
       id="path1337"
       d="M 573.51332,430.43971 C 573.61248,430.20832 573.15827,427.19909 573.03585,426.13028 C 572.51382,421.30001 572.5949,416.47476 573.02013,411.64764 C 573.75136,404.77986 576.73699,398.80111 580.71555,393.27234 C 588.81758,383.15489 598.61202,374.66293 609.45588,367.67444 C 617.13475,362.94044 625.61891,359.87404 634.35483,357.78907 C 642.40556,355.96036 650.61007,355.79091 658.77022,356.78422 C 666.67078,357.92594 674.10793,360.7545 681.1528,364.41704 C 688.30187,368.16686 694.22901,373.50623 699.34462,379.67891 C 705.54178,387.68065 709.38737,397.07053 712.67954,406.55284 C 716.52249,417.50787 717.99028,428.99009 718.35738,440.5347 C 718.69661,451.71738 716.26007,462.52914 712.47919,472.97203 C 709.27255,481.68201 704.4494,489.55379 698.58216,496.69763 C 690.6634,506.493 681.84104,513.89508 670.26563,518.33852 C 662.72471,521.08395 654.80478,521.35375 646.91027,520.54272 C 638.47617,519.48458 630.70812,516.06079 623.32931,512.00645 C 616.26345,508.00555 610.08464,502.72541 604.20621,497.17459 C 599.12969,492.34723 594.69615,486.93312 590.45069,481.37982 C 586.6843,476.46422 583.77226,471.02407 581.18787,465.42176 C 578.87792,460.26145 577.37434,454.82474 576.21737,449.30891 C 575.22073,443.98766 574.79913,438.58604 574.46829,433.19003 C 574.40546,432.06232 574.38209,430.93301 574.33899,429.80455 L 584.75818,422.38574 C 584.79089,423.49969 584.80699,424.6142 584.85633,425.72766 C 585.11706,431.01869 585.49789,436.31217 586.37951,441.54172 C 587.39861,446.88458 588.76356,452.14975 590.94606,457.15279 C 593.38615,462.59042 596.1519,467.86934 599.77901,472.62877 C 603.91794,478.06776 608.24245,483.37018 613.20845,488.08846 C 618.91738,493.47372 624.91873,498.59796 631.80907,502.43086 C 638.91233,506.26013 646.38596,509.46206 654.50511,510.25114 C 662.0885,510.81947 669.63912,510.26772 676.74004,507.30764 C 683.8617,504.19344 699.25324,490.01716 684.6421,504.77568 C 683.8275,505.59849 687.97667,501.52169 687.08873,502.31005 C 693.11492,495.51059 698.1192,487.95059 701.45143,479.45175 C 705.37326,469.33901 708.08517,458.85528 707.91222,447.9169 C 707.71978,436.62517 706.43678,425.37316 702.7622,414.63025 C 699.6428,405.42738 696.02062,396.28729 690.07777,388.49502 C 685.22939,382.59449 679.56785,377.54269 672.72207,374.03582 C 665.92501,370.58822 658.74171,367.9691 651.13294,367.04435 C 643.22271,366.27251 635.28644,366.66276 627.55156,368.62022 C 619.0657,370.9037 610.83336,374.08816 603.48041,378.98337 C 599.22316,381.88432 595.08745,384.90634 591.26785,388.37528 C 590.34243,389.21575 587.67467,391.85224 588.55306,390.96274 C 602.56388,376.77455 595.13379,384.18229 592.1469,387.53452 C 588.04289,392.58877 584.71787,398.06079 583.69664,404.60417 C 583.09267,409.25554 582.88032,413.91174 583.36982,418.59322 C 583.49363,420.07153 583.39709,421.73198 583.97791,423.08508 L 573.51332,430.43971 z " />
    <path
       style="fill:#000000;fill-opacity:1;fill-rule:nonzero;stroke:none;stroke-width:1px;stroke-linecap:butt;stroke-linejoin:miter;stroke-opacity:1"
       id="path1414"
       d="M 664.79011,510.98992 C 664.79011,512.4804 664.79011,513.97089 664.79011,515.46137 C 664.8066,519.92237 664.80268,524.38189 664.68591,528.84137 C 664.49835,534.65647 664.13605,540.46351 663.86167,546.27471 C 663.62357,552.19048 663.33018,558.10379 663.06241,564.01824 C 662.73565,569.67709 662.60351,575.33239 662.88834,580.9927 C 663.01205,585.50368 664.49996,589.45277 666.73009,593.27473 C 668.78012,596.32639 671.56885,597.38717 674.91496,598.34773 C 676.29655,598.67531 677.70039,598.42789 679.08789,598.42027 L 671.83529,608.95583 C 670.23753,608.85196 668.61924,608.90579 667.06123,608.44313 C 663.16827,607.12962 659.78846,605.44781 657.34405,601.96383 C 654.76926,597.80781 652.852,593.51967 652.55718,588.53361 C 652.13666,582.78171 652.16161,577.03062 652.52732,571.27152 C 652.78889,565.35688 653.08699,559.44387 653.32679,553.52831 C 653.58453,547.72307 653.94039,541.92317 654.16593,536.11654 C 654.31684,531.68365 654.36416,527.25162 654.32553,522.81601 C 654.32553,521.32552 654.32553,519.83504 654.32553,518.34456 L 664.79011,510.98992 z " />
    <path
       style="fill:#000000;fill-opacity:1;fill-rule:nonzero;stroke:none;stroke-width:1px;stroke-linecap:butt;stroke-linejoin:miter;stroke-opacity:1"
       id="path1422"
       d="M 640.54645,506.94392 C 640.54645,508.86706 640.54645,510.7902 640.54645,512.71334 C 640.51647,519.34007 640.5758,525.9661 640.67066,532.59205 C 640.82742,540.30643 640.87477,548.02182 640.86,555.73758 C 640.89553,562.69192 640.61881,569.63166 639.97695,576.5541 C 639.42625,582.6434 638.16795,588.59202 636.2989,594.39993 C 635.15395,597.92085 633.17201,600.96299 630.98259,603.89621 L 619.46405,609.45691 C 621.79141,606.85065 624.03888,604.24854 625.28286,600.89955 C 627.37041,595.32973 628.75704,589.58703 629.3346,583.64906 C 630.07263,576.81372 630.42795,569.95842 630.38658,563.07964 C 630.4225,555.37981 630.38841,547.67978 630.23046,539.98126 C 630.13043,533.34386 630.04682,526.70631 630.08187,520.06797 C 630.08187,518.14483 630.08187,516.22169 630.08187,514.29855 L 640.54645,506.94392 z " />
  </g>
  <g
     inkscape:groupmode="layer"
     id="layer19"
     inkscape:label="6-path">
    <rect
       style="opacity:1;color:#000000;fill:#3c9272;fill-opacity:0.08024693;fill-rule:evenodd;stroke:none;stroke-width:10;stroke-linecap:square;stroke-linejoin:miter;marker:none;marker-start:none;marker-mid:none;marker-end:none;stroke-miterlimit:4;stroke-dasharray:none;stroke-dashoffset:0;stroke-opacity:1;visibility:visible;display:inline;overflow:visible"
       id="rect4625"
       width="93.944183"
       height="40.406101"
       x="600.03064"
       y="580.62097" />
  </g>
  <g
     inkscape:groupmode="layer"
     id="layer20"
     inkscape:label="6-crop">
    <rect
       style="opacity:1;color:#000000;fill:#3c9272;fill-opacity:0.08024693;fill-rule:evenodd;stroke:none;stroke-width:10;stroke-linecap:square;stroke-linejoin:miter;marker:none;marker-start:none;marker-mid:none;marker-end:none;stroke-miterlimit:4;stroke-dasharray:none;stroke-dashoffset:0;stroke-opacity:1;visibility:visible;display:inline;overflow:visible"
       id="rect4623"
       width="173.74623"
       height="284.86301"
       x="555.58392"
       y="340.20465" />
  </g>
  <g
     inkscape:groupmode="layer"
     id="layer21"
     inkscape:label="7">
    <path
       style="opacity:1;color:#000000;fill:#804d26;fill-opacity:1;fill-rule:evenodd;stroke:none;stroke-width:10;stroke-linecap:square;stroke-linejoin:miter;marker:none;marker-start:none;marker-mid:none;marker-end:none;stroke-miterlimit:4;stroke-dasharray:none;stroke-dashoffset:0;stroke-opacity:1;visibility:visible;display:inline;overflow:visible"
       d="M 125.25892,972.05506 C 115.15739,987.71242 165.15994,988.72257 159.09903,980.64135 C 153.03811,972.56013 148.9975,945.28601 151.52288,912.45606 C 154.04826,879.6261 156.06857,869.52457 156.06857,869.52457 C 156.06857,869.52457 136.87567,876.59564 114.65231,869.0195 C 92.428958,861.44335 136.87567,877.10072 133.84521,921.04235 C 130.81475,964.98399 130.81475,959.93322 125.25892,972.05506 z "
       id="path3372" />
    <path
       style="opacity:1;color:#000000;fill:#1e6f3e;fill-opacity:1;fill-rule:evenodd;stroke:none;stroke-width:10;stroke-linecap:square;stroke-linejoin:miter;marker:none;marker-start:none;marker-mid:none;marker-end:none;stroke-miterlimit:4;stroke-dasharray:none;stroke-dashoffset:0;stroke-opacity:1;visibility:visible;display:inline;overflow:visible"
       d="M 69.700523,844.27075 C 105.34409,880.2525 170.15033,880.19331 205.72806,844.14644 C 230.96,814.16432 224.40518,763.51354 192.37244,740.94196 C 160.26912,708.05531 100.44977,709.79598 70.314149,744.49513 C 47.243424,772.17099 45.973687,816.57711 69.700523,844.27075 z "
       id="path2385" />
    <path
       style="fill:#000000;fill-opacity:1;fill-rule:nonzero;stroke:none;stroke-width:1px;stroke-linecap:butt;stroke-linejoin:miter;stroke-opacity:1"
       id="path1339"
       d="M 162.88294,727.23489 C 161.64299,726.8351 160.5281,726.11955 159.34911,725.5652 C 152.66547,722.95546 145.64302,721.34476 138.59924,720.06653 C 128.34174,718.07314 118.27037,718.99047 108.34956,721.98957 C 96.350223,726.0939 86.267518,733.70927 77.125119,742.2921 C 86.626415,729.97585 66.37655,756.68099 60.911734,767.51047 C 54.949424,779.87193 53.876565,793.08909 55.97546,806.46933 C 58.636816,819.9653 66.407486,830.87068 75.934896,840.4177 C 85.891923,849.79459 97.842076,856.33323 110.57676,861.06546 C 123.16693,865.48005 136.37186,866.3996 149.58069,865.53434 C 162.2524,864.55616 174.09071,860.19596 185.28568,854.41124 C 205.44002,841.45348 200.65067,843.08479 202.35795,841.06635 C 208.68799,833.46906 212.61214,824.55616 215.13553,815.08411 C 217.13057,807.26318 217.32155,799.25857 216.41924,791.28357 C 215.60463,784.39557 213.04603,778.01664 210.02992,771.84262 C 207.0723,766.20939 203.21668,761.14454 199.16142,756.27098 C 195.4092,751.88887 191.10818,748.04207 186.71136,744.32742 C 182.61716,740.92434 178.16283,738.01324 173.65597,735.19684 C 169.68476,732.70805 165.6046,730.40185 161.51531,728.11477 L 169.99034,718.535 C 174.11369,720.85107 178.22672,723.18764 182.23094,725.70641 C 186.83559,728.6026 191.38004,731.60405 195.56368,735.09515 C 200.0757,738.92101 204.49095,742.87917 208.35354,747.37698 C 212.55736,752.40614 216.54843,757.63395 219.66138,763.42637 C 222.87396,769.8368 225.64123,776.45742 226.6588,783.61875 C 227.77096,791.84499 227.81555,800.132 225.96239,808.27401 C 223.65227,818.03739 220.02045,827.34326 213.79105,835.33203 C 204.19006,847.4648 192.84544,858.38518 179.06931,865.58956 C 167.51035,871.22165 155.32978,875.3539 142.38912,876.11165 C 128.83197,876.75508 115.30571,875.60478 102.44873,870.94136 C 89.401548,865.94683 77.147718,859.15164 66.924678,849.49592 C 57.010692,839.55919 48.868951,828.22112 45.826188,814.25332 C 43.370814,800.4923 44.022316,786.77311 49.789371,773.82642 C 57.67895,757.1516 68.809711,743.05674 82.649119,730.75592 C 92.179667,722.27016 102.65117,714.8126 115.00885,711.06931 C 125.34502,708.35081 135.81225,707.74375 146.35364,709.89463 C 153.57736,711.29954 160.80189,712.97946 167.61856,715.80741 C 169.08342,716.5293 170.665,717.12905 171.92723,718.19061 L 162.88294,727.23489 z " />
    <path
       style="fill:#000000;fill-opacity:1;fill-rule:nonzero;stroke:none;stroke-width:1px;stroke-linecap:butt;stroke-linejoin:miter;stroke-opacity:1"
       id="path1424"
       d="M 160.52094,863.49803 C 160.5212,865.29542 160.52072,867.09281 160.5204,868.8902 C 160.52686,875.90339 160.18193,882.90754 159.79061,889.9076 C 159.22612,899.00148 158.59484,908.09097 158.03574,917.18521 C 157.49156,925.52389 157.15317,933.87318 156.9612,942.22684 C 156.71341,949.10383 156.71411,955.92572 158.34696,962.62198 C 159.95562,967.49996 163.42715,969.67897 168.0015,971.25865 L 160.0197,981.2531 C 154.76044,979.07922 150.54944,976.28043 148.41982,970.68734 C 146.41627,963.77322 146.13068,956.73108 146.46741,949.53975 C 146.61854,941.15374 146.94402,932.77154 147.47466,924.40059 C 148.02388,915.30649 148.64512,906.21714 149.23117,897.12539 C 149.64395,890.16686 150.01951,883.20374 150.04611,876.23101 C 150.05214,874.43828 150.06119,872.64547 150.05636,870.85267 L 160.52094,863.49803 z " />
    <path
       style="fill:#000000;fill-opacity:1;fill-rule:nonzero;stroke:none;stroke-width:1px;stroke-linecap:butt;stroke-linejoin:miter;stroke-opacity:1"
       id="path1432"
       d="M 102.40282,856.8869 C 103.00935,857.36122 104.10926,858.04556 105.05029,858.68451 C 107.61524,860.45408 110.09127,862.34859 112.60164,864.19431 C 116.29156,866.83361 119.78858,869.71346 123.20762,872.68843 C 126.78814,875.77248 129.38576,879.62847 131.80843,883.62615 C 134.13344,887.68615 135.38619,892.15122 136.50942,896.6514 C 137.54527,901.11923 138.07067,905.67204 138.51884,910.22774 C 138.93173,914.98615 138.92767,919.76387 138.84258,924.53476 C 138.74766,929.52806 138.12152,934.48428 137.4541,939.42652 C 136.76359,944.43521 136.03788,949.43874 135.37472,954.45114 C 134.82041,959.52527 133.96347,964.54327 132.77899,969.50496 C 131.76195,973.95851 129.51538,977.74133 126.82248,981.34003 C 123.77904,984.38658 120.73561,987.43314 117.69217,990.47969 C 117.69217,990.47969 117.91016,984.20807 115.28023,986.85135 C 118.24151,983.73911 120.68015,980.42634 121.88666,976.20983 C 123.2432,971.39189 124.17752,966.48722 124.70455,961.5042 C 125.35413,956.48421 126.06618,951.47327 126.7716,946.46089 C 127.4483,941.60086 128.13915,936.73554 128.33393,931.82629 C 128.46048,927.13737 128.52269,922.4411 128.18035,917.7586 C 127.8094,913.30918 127.35634,908.86372 126.40445,904.49281 C 125.41801,900.21872 124.35912,895.95882 122.214,892.08459 C 120.00409,888.31718 117.61844,884.69853 114.25781,881.82621 C 110.90777,878.92381 107.47927,876.11727 103.8684,873.53928 C 101.38648,871.71138 98.938745,869.83414 96.391044,868.0981 C 95.918163,867.83518 93.684648,866.28008 95.048185,867.35149 L 102.40282,856.8869 z "
       sodipodi:nodetypes="cccccccccccccccccccccccccc" />
  </g>
  <g
     inkscape:groupmode="layer"
     id="layer23"
     inkscape:label="7-path">
    <rect
       style="opacity:1;color:#000000;fill:#3c9272;fill-opacity:0.08024693;fill-rule:evenodd;stroke:none;stroke-width:10;stroke-linecap:square;stroke-linejoin:miter;marker:none;marker-start:none;marker-mid:none;marker-end:none;stroke-miterlimit:4;stroke-dasharray:none;stroke-dashoffset:0;stroke-opacity:1;visibility:visible;display:inline;overflow:visible"
       id="rect4621"
       width="90.913727"
       height="43.436558"
       x="93.944183"
       y="953.36725" />
  </g>
  <g
     inkscape:groupmode="layer"
     id="layer22"
     inkscape:label="7-crop">
    <rect
       style="opacity:1;color:#000000;fill:#3c9272;fill-opacity:0.08024693;fill-rule:evenodd;stroke:none;stroke-width:10;stroke-linecap:square;stroke-linejoin:miter;marker:none;marker-start:none;marker-mid:none;marker-end:none;stroke-miterlimit:4;stroke-dasharray:none;stroke-dashoffset:0;stroke-opacity:1;visibility:visible;display:inline;overflow:visible"
       id="rect4619"
       width="203.04066"
       height="310.11682"
       x="36.36549"
       y="687.69714" />
  </g>
  <g
     inkscape:groupmode="layer"
     id="layer24"
     inkscape:label="8">
    <path
       style="opacity:1;color:#000000;fill:#804d26;fill-opacity:1;fill-rule:evenodd;stroke:none;stroke-width:10;stroke-linecap:square;stroke-linejoin:miter;marker:none;marker-start:none;marker-mid:none;marker-end:none;stroke-miterlimit:4;stroke-dasharray:none;stroke-dashoffset:0;stroke-opacity:1;visibility:visible;display:inline;overflow:visible"
       d="M 351.02801,967.50937 C 331.83511,983.16673 387.89858,987.71242 387.3935,978.62105 C 386.88842,969.52967 393.45442,940.23525 393.45442,923.06266 C 393.45442,905.89006 393.45442,890.73778 391.93919,888.71747 C 390.42396,886.69717 360.11938,883.16163 360.62446,887.20224 C 361.12953,891.24285 372.51319,911.48468 369.71583,930.13373 C 366.68538,950.33678 365.17015,948.82155 351.02801,967.50937 z "
       id="path3370"
       sodipodi:nodetypes="csssssc" />
    <path
       style="opacity:1;color:#000000;fill:#1e6f3e;fill-opacity:1;fill-rule:evenodd;stroke:none;stroke-width:10;stroke-linecap:square;stroke-linejoin:miter;marker:none;marker-start:none;marker-mid:none;marker-end:none;stroke-miterlimit:4;stroke-dasharray:none;stroke-dashoffset:0;stroke-opacity:1;visibility:visible;display:inline;overflow:visible"
       d="M 297.48993,856.89764 C 337.45485,893.03667 402.13131,897.66435 446.83415,867.583 C 475.75842,841.26332 476.47102,790.5496 448.29791,763.42745 C 424.04252,731.5134 383.82218,712.20051 343.69161,714.01732 C 315.00818,728.64834 296.69611,757.12974 283.91377,785.68895 C 276.13411,809.55308 279.51049,838.36102 297.48993,856.89764 z "
       id="path2721" />
    <path
       style="fill:#000000;fill-opacity:1;fill-rule:nonzero;stroke:none;stroke-width:1px;stroke-linecap:butt;stroke-linejoin:miter;stroke-opacity:1"
       id="path1349"
       d="M 340.46242,719.89895 C 339.4098,720.35259 337.91994,720.76635 336.7058,721.14511 C 330.52091,723.18106 325.50216,727.28202 320.63498,731.46099 C 321.59642,730.39704 315.92052,736.005 317.07837,734.84771 C 333.59708,718.33692 304.22666,752.93242 299.98265,760.1396 C 290.20214,776.99982 283.22716,795.51822 283.68902,815.20972 C 284.4628,835.92552 296.72863,851.6495 313.14413,863.09348 C 333.59268,876.46736 357.70498,882.04658 381.85855,883.06121 C 403.26267,883.72894 424.59403,879.34773 442.43957,867.19037 C 446.30575,864.09192 454.91085,859.41255 461.64573,835.51452 C 465.31505,822.02318 464.3407,808.21203 460.7201,794.87661 C 457.18997,783.3155 450.60579,773.27298 442.79531,764.18841 C 435.59674,756.11788 426.85114,749.74771 417.76469,743.98848 C 409.89792,739.04648 401.56464,734.92898 393.02899,731.28817 C 385.99923,728.3055 378.73124,725.96818 371.36431,723.98565 C 365.13367,722.28843 358.80867,720.99515 352.44825,719.90141 C 348.16586,719.1683 343.83548,718.88711 339.50121,718.72088 L 346.93639,708.31336 C 351.37102,708.56165 355.80051,708.91632 360.17747,709.71036 C 366.60842,710.87455 373.00611,712.21879 379.3088,713.96152 C 386.77906,716.0266 394.14618,718.45235 401.27515,721.51069 C 409.92644,725.25188 418.3739,729.46749 426.3508,734.50814 C 435.64541,740.43956 444.57833,747.00505 451.96175,755.26794 C 460.04394,764.63744 466.88972,774.97995 470.69082,786.86519 C 474.62818,800.55605 475.9251,814.77239 472.51513,828.77253 C 467.26395,849.54304 454.30619,866.42818 436.47874,878.50703 C 417.93249,890.24254 396.16167,894.34159 374.39567,893.44887 C 349.76128,892.15888 325.23784,886.2379 304.45333,872.47794 C 287.44803,860.51095 274.57804,844.09706 273.28095,822.64411 C 272.36387,802.56711 278.92695,783.5666 288.73961,766.23815 C 298.68193,748.82377 310.8827,732.99453 326.28192,719.98448 C 331.45369,715.83056 336.84266,711.9687 343.3382,710.20849 C 344.79989,709.85913 346.30862,709.23352 347.81705,709.43436 L 340.46242,719.89895 z " />
    <path
       style="fill:#000000;fill-opacity:1;fill-rule:nonzero;stroke:none;stroke-width:1px;stroke-linecap:butt;stroke-linejoin:miter;stroke-opacity:1"
       id="path1434"
       d="M 365.00043,883.1806 C 366.24944,883.95788 366.77911,885.28778 367.57453,886.45012 C 369.12567,889.06462 370.28682,891.86882 371.43627,894.67365 C 373.01248,898.63265 373.94978,902.78477 374.84432,906.93605 C 375.8152,911.72811 376.05032,916.59845 376.02806,921.47188 C 375.8851,927.05613 374.6936,932.5115 373.2821,937.88956 C 371.75322,943.48394 369.29137,948.70095 366.45794,953.73264 C 361.51647,961.74293 354.68134,968.41665 347.47062,974.40483 C 346.02141,975.58658 344.4601,976.61721 342.92815,977.68536 L 348.80963,966.32726 C 350.27329,965.22503 351.77132,964.1654 353.13614,962.93749 C 359.8922,956.7398 340.39043,977.07731 355.18172,959.76962 C 358.13569,954.96995 360.74091,949.98722 362.36951,944.56142 C 363.90634,939.39607 365.1611,934.1409 365.50445,928.74181 C 365.66102,924.04264 365.54213,919.34325 364.68256,914.70373 C 363.8892,910.6906 363.04926,906.67678 361.59132,902.83914 C 360.51712,900.15695 359.47867,897.45479 358.01685,894.95005 C 357.84915,894.36032 355.87035,891.83278 357.6458,893.64519 L 365.00043,883.1806 z " />
    <path
       style="fill:#000000;fill-opacity:1;fill-rule:nonzero;stroke:none;stroke-width:1px;stroke-linecap:butt;stroke-linejoin:miter;stroke-opacity:1"
       id="path1436"
       d="M 397.86474,884.74097 C 397.79388,885.56855 397.92099,886.39421 397.94917,887.22262 C 398.12826,889.92756 398.37036,892.62815 398.58251,895.3308 C 398.93576,899.32341 398.95885,903.32835 398.93921,907.3324 C 398.87478,911.9942 398.47637,916.63892 398.02184,921.27575 C 397.53883,926.07015 396.9087,930.84613 396.13259,935.6012 C 395.25055,940.46221 394.32734,945.31456 393.51931,950.18868 C 392.6098,954.90263 392.33527,959.65783 392.36342,964.44184 C 392.32722,968.27609 393.73182,971.27249 395.80179,974.31561 C 396.43063,975.16059 397.47258,975.47265 398.29196,976.04008 L 389.85919,985.65707 C 388.7769,984.8985 387.54647,984.32391 386.67775,983.27943 C 384.05188,979.87445 382.24899,976.35348 381.99861,971.93643 C 381.78924,966.99286 381.88358,962.06863 382.81001,957.18218 C 383.5778,952.29084 384.44961,947.41847 385.40014,942.55912 C 386.21168,937.8574 386.90006,933.13975 387.39418,928.3927 C 387.86621,923.81699 388.32193,919.23665 388.43816,914.63487 C 388.50757,910.70386 388.55493,906.76915 388.23247,902.84578 C 388.03491,900.13674 387.82407,897.42876 387.58853,894.72297 C 387.52572,893.84688 387.45816,892.969 387.40016,892.0956 L 397.86474,884.74097 z " />
  </g>
  <g
     inkscape:groupmode="layer"
     id="layer26"
     inkscape:label="8-path">
    <rect
       style="opacity:1;color:#000000;fill:#3c9272;fill-opacity:0.08024693;fill-rule:evenodd;stroke:none;stroke-width:10;stroke-linecap:square;stroke-linejoin:miter;marker:none;marker-start:none;marker-mid:none;marker-end:none;stroke-miterlimit:4;stroke-dasharray:none;stroke-dashoffset:0;stroke-opacity:1;visibility:visible;display:inline;overflow:visible"
       id="rect4617"
       width="124.24876"
       height="39.395939"
       x="312.13715"
       y="954.37738" />
  </g>
  <g
     inkscape:groupmode="layer"
     id="layer25"
     inkscape:label="8-crop">
    <rect
       style="opacity:1;color:#000000;fill:#3c9272;fill-opacity:0.08024693;fill-rule:evenodd;stroke:none;stroke-width:10;stroke-linecap:square;stroke-linejoin:miter;marker:none;marker-start:none;marker-mid:none;marker-end:none;stroke-miterlimit:4;stroke-dasharray:none;stroke-dashoffset:0;stroke-opacity:1;visibility:visible;display:inline;overflow:visible"
       id="rect4601"
       width="233.34525"
       height="308.09653"
       x="257.5889"
       y="688.70728" />
  </g>
  <g
     inkscape:groupmode="layer"
     id="layer27"
     inkscape:label="9">
    <path
       style="opacity:1;color:#000000;fill:#804d26;fill-opacity:1;fill-rule:evenodd;stroke:none;stroke-width:10;stroke-linecap:square;stroke-linejoin:miter;marker:none;marker-start:none;marker-mid:none;marker-end:none;stroke-miterlimit:4;stroke-dasharray:none;stroke-dashoffset:0;stroke-opacity:1;visibility:visible;display:inline;overflow:visible"
       d="M 570.73621,968.51953 C 574.6234,981.89744 596.02476,978.77121 607.63854,978.07964 C 626.04903,976.5758 610.98149,961.59199 605.18828,954.22053 C 594.61049,940.48805 588.96152,923.07794 591.22361,905.72676 C 592.34456,890.13478 593.93528,874.08234 600.67859,859.77516 C 597.43745,845.07376 575.4175,854.93036 573.70124,866.8008 C 561.14511,892.35155 558.16089,922.92274 568.75814,949.68029 C 570.66916,955.69785 572.62881,962.23385 570.73621,968.51953 z "
       id="path3368" />
    <path
       style="opacity:1;color:#000000;fill:#1e6f3e;fill-opacity:1;fill-rule:evenodd;stroke:none;stroke-width:10;stroke-linecap:square;stroke-linejoin:miter;marker:none;marker-start:none;marker-mid:none;marker-end:none;stroke-miterlimit:4;stroke-dasharray:none;stroke-dashoffset:0;stroke-opacity:1;visibility:visible;display:inline;overflow:visible"
       d="M 554.06866,822.55249 C 525.46579,763.95704 555.57799,683.77914 617.00654,660.60562 C 648.59539,650.91275 686.34211,673.44757 691.42247,706.40917 C 707.03003,754.49458 696.45734,811.40649 661.56069,848.5471 C 628.66343,876.32425 570.02153,863.14973 554.06866,822.55249 z "
       id="path2945" />
    <path
       style="fill:#000000;fill-opacity:1;fill-rule:nonzero;stroke:none;stroke-width:1px;stroke-linecap:butt;stroke-linejoin:miter;stroke-opacity:1"
       d="M 537.2196,796.41949 C 536.27435,763.16196 542.24159,728.02525 563.99752,701.67071 C 580.71784,681.8202 599.58337,660.76293 625.30549,653.1731 C 657.68345,646.11042 689.44579,671.2379 698.42374,701.49658 C 708.68168,735.56066 701.7248,772.12945 690.78744,805.16326 C 681.43001,831.87849 664.37967,860.26828 635.40515,868.28776 C 606.76611,875.44928 576.12693,861.10672 559.57938,837.41956 C 550.19423,824.83553 541.7361,811.04002 538.05047,795.62302 C 541.37159,794.37331 547.39276,785.40721 548.67506,789.9842 C 555.0925,811.81028 568.49413,831.85978 586.10801,846.25264 C 608.1792,863.23694 643.38093,865.35093 663.79416,844.56621 C 659.31788,849.13576 653.64188,855.12859 661.44889,846.47219 C 680.50248,820.23623 688.94526,787.7206 692.31911,755.86696 C 695.37104,726.97689 689.688,693.57349 665.05822,675.10149 C 647.30524,659.68181 618.53354,657.7409 600.43824,673.66644 C 597.22366,675.69156 579.15459,689.22036 586.675,682.92012 C 585.66956,684.52573 573.05808,697.49937 568.97453,704.57108 C 551.62425,729.01529 547.07426,759.73899 547.68421,789.06488 C 544.19601,791.51642 540.70781,793.96796 537.2196,796.41949 z "
       id="path1371" />
    <path
       style="fill:#000000;fill-opacity:1;fill-rule:nonzero;stroke:none;stroke-width:1px;stroke-linecap:butt;stroke-linejoin:miter;stroke-opacity:1"
       d="M 579.17529,858.59442 C 585.80002,859.68485 591.02771,845.15478 584.25126,856.86011 C 568.83887,881.15635 566.621,911.41145 573.09321,938.95079 C 574.64457,951.04633 581.37554,965.09991 574.67187,976.40202 C 571.73516,977.22942 561.20542,985.58051 565.83886,978.94953 C 569.67474,964.92596 562.44399,950.79974 561.11869,936.82408 C 556.09616,910.37157 560.4475,882.1372 575.11368,859.33603 C 575.69081,851.66149 591.50555,842.92756 582.70483,853.5724 C 581.52832,855.24641 580.35181,856.92042 579.17529,858.59442 z "
       id="path1444" />
    <path
       style="fill:#000000;fill-opacity:1;fill-rule:nonzero;stroke:none;stroke-width:1px;stroke-linecap:butt;stroke-linejoin:miter;stroke-opacity:1"
       d="M 606.27307,855.7511 C 601.31162,867.5117 595.46945,879.92443 594.9537,893.18672 C 593.6659,915.76305 601.52897,939.10771 616.36221,956.17503 C 622.6829,961.58677 631.63773,963.59373 622.20764,970.56111 C 615.08133,977.91966 604.57631,961.71087 600.07395,955.99522 C 583.34477,930.27605 578.65522,896.03878 592.65966,868.06918 C 594.4439,861.7827 601.58825,859.90039 606.27307,855.7511 z "
       id="path1448" />
  </g>
  <g
     inkscape:groupmode="layer"
     id="layer29"
     inkscape:label="9-path">
    <rect
       style="opacity:1;color:#000000;fill:#3c9272;fill-opacity:0.08024693;fill-rule:evenodd;stroke:none;stroke-width:10;stroke-linecap:square;stroke-linejoin:miter;marker:none;marker-start:none;marker-mid:none;marker-end:none;stroke-miterlimit:4;stroke-dasharray:none;stroke-dashoffset:0;stroke-opacity:1;visibility:visible;display:inline;overflow:visible"
       id="rect4599"
       width="117.17772"
       height="41.416367"
       x="537.40118"
       y="948.31647" />
  </g>
  <g
     inkscape:groupmode="layer"
     id="layer28"
     inkscape:label="9-crop"
     style="display:inline">
    <rect
       style="opacity:1;color:#000000;fill:#3c9272;fill-opacity:0.08024691;fill-rule:evenodd;stroke:none;stroke-width:10;stroke-linecap:square;stroke-linejoin:miter;marker:none;marker-start:none;marker-mid:none;marker-end:none;stroke-miterlimit:4;stroke-dasharray:none;stroke-dashoffset:0;stroke-opacity:1;visibility:visible;display:inline;overflow:visible"
       id="rect3724"
       width="186.87822"
       height="358.60416"
       x="528.30975"
       y="637.18951" />
  </g>
</svg>
