<?xml version="1.0" encoding="UTF-8" standalone="no"?>
<!-- Created with Inkscape (http://www.inkscape.org/) -->
<svg
   xmlns:dc="http://purl.org/dc/elements/1.1/"
   xmlns:cc="http://web.resource.org/cc/"
   xmlns:rdf="http://www.w3.org/1999/02/22-rdf-syntax-ns#"
   xmlns:svg="http://www.w3.org/2000/svg"
   xmlns="http://www.w3.org/2000/svg"
   xmlns:sodipodi="http://inkscape.sourceforge.net/DTD/sodipodi-0.dtd"
   xmlns:inkscape="http://www.inkscape.org/namespaces/inkscape"
   width="744.09448819"
   height="1052.3622047"
   id="svg1343"
   sodipodi:version="0.32"
   inkscape:version="0.43"
   sodipodi:docbase="/home/kkowal/tale/art/terrain"
   sodipodi:docname="tree-fir.svg"
   inkscape:export-filename="/home/kkowal/tale/art/terrain/tree-fir.png"
   inkscape:export-xdpi="72"
   inkscape:export-ydpi="72">
  <defs
     id="defs1345" />
  <sodipodi:namedview
     id="base"
     pagecolor="#ffffff"
     bordercolor="#666666"
     borderopacity="1.0"
     inkscape:pageopacity="0.0"
     inkscape:pageshadow="2"
     inkscape:zoom="0.7"
     inkscape:cx="598.06815"
     inkscape:cy="563.11437"
     inkscape:document-units="px"
     inkscape:current-layer="layer28"
     inkscape:window-width="1600"
     inkscape:window-height="1125"
     inkscape:window-x="0"
     inkscape:window-y="25" />
  <metadata
     id="metadata1348">
    <rdf:RDF>
      <cc:Work
         rdf:about="">
        <dc:format>image/svg+xml</dc:format>
        <dc:type
           rdf:resource="http://purl.org/dc/dcmitype/StillImage" />
      </cc:Work>
    </rdf:RDF>
  </metadata>
  <g
     inkscape:label="Layer 1"
     inkscape:groupmode="layer"
     id="layer1" />
  <g
     inkscape:groupmode="layer"
     id="layer2"
     inkscape:label="1">
    <path
       style="fill:#543314;fill-opacity:1;fill-rule:evenodd;stroke:none;stroke-width:1px;stroke-linecap:butt;stroke-linejoin:miter;stroke-opacity:1"
       d="M 109.92581,239.62617 C 110.50559,249.87648 101.83819,263.90237 98.743561,273.46923 C 83.172191,292.75209 161.6545,291.43149 146.24787,271.28772 C 139.87046,264.72088 139.5424,247.20759 138.18331,239.53745 C 132.57552,232.8456 120.12243,235.97121 112.33621,238.03877 C 111.40883,238.3815 110.69825,239.0504 109.92581,239.62617 z "
       id="path13263"
       sodipodi:nodetypes="cccccc" />
    <path
       style="fill:#265d32;fill-opacity:1;fill-rule:evenodd;stroke:none;stroke-width:1px;stroke-linecap:butt;stroke-linejoin:miter;stroke-opacity:1"
       d="M 115.64008,47.126171 C 107.59831,60.677521 80.142381,70.581201 87.131841,87.783201 C 94.414561,102.45914 82.292601,115.07021 73.508281,125.42157 C 60.431911,135.90079 68.570871,149.62737 75.936111,160.1862 C 77.985671,177.12915 59.374601,189.53316 54.647901,205.39749 C 44.834511,214.84683 40.894341,236.4492 58.396921,239.62788 C 86.933471,242.96027 116.00588,243.36542 144.20685,237.06581 C 160.07943,232.21531 179.58242,234.82717 191.24048,221.33821 C 201.78949,212.72719 223.10969,200.64361 205.64863,187.17263 C 196.77343,178.20712 183.95888,170.31104 181.17698,157.29351 C 190.90454,146.82613 187.50122,132.73249 175.15842,125.4786 C 167.51449,116.81545 152.3913,108.56064 155.73098,95.207411 C 164.80293,83.934131 162.17385,70.677701 157.29298,58.300251 C 152.79274,47.530661 156.21708,31.140521 144.1737,25.130001 C 141.00894,24.912401 137.64081,27.337091 136.71152,30.340461"
       id="path12370" />
    <path
       style="fill:#000000;fill-opacity:1;fill-rule:nonzero;stroke:none;stroke-width:1px;stroke-linecap:butt;stroke-linejoin:miter;stroke-opacity:1"
       d="M 40.066011,227.87452 C 42.757311,218.61581 48.590371,210.50352 52.764441,201.8133 C 59.378871,188.59666 68.490811,176.15443 71.472711,161.47746 C 72.868971,151.81957 51.857321,157.35627 59.771661,143.84992 C 66.834271,127.48409 78.100651,113.3794 86.242841,97.644291 C 89.270941,90.746821 72.502601,90.271101 79.189111,80.876441 C 86.838481,67.292381 100.27274,58.238861 111.25668,47.525241 C 121.31567,37.837261 131.59265,28.132261 143.25118,20.416261 C 156.80119,19.553641 155.70509,39.305451 160.27123,48.417781 C 163.3924,61.232831 170.59904,74.119461 167.79713,87.602291 C 166.44307,94.059721 153.31686,102.57355 150.54978,98.996851 C 157.2719,88.844121 160.49448,108.02905 166.59712,110.71182 C 175.30357,120.65753 186.97865,128.15855 193.6803,139.72797 C 197.62446,149.22238 186.39301,154.55137 179.18203,157.07906 C 170.66751,163.5909 186.46381,147.65536 182.97041,156.61679 C 188.80485,166.60107 198.8722,173.39627 206.93802,181.54952 C 213.36694,187.87252 224.70094,196.6621 218.65879,206.59657 C 213.09539,215.30497 199.32437,213.13191 197.26826,224.31381 C 185.30052,236.84155 166.70162,237.44025 150.64562,240.01116 C 122.44141,242.89172 94.110491,245.81708 65.730241,245.56627 C 55.926271,245.13761 40.499761,243.42446 39.854251,230.83056 C 38.256281,224.81461 45.326281,225.28676 48.986981,223.31195 C 55.215711,219.62223 46.917951,232.12849 54.435451,232.52768 C 69.208681,238.41509 85.626301,235.46962 101.11797,235.1306 C 128.3412,233.1073 155.95876,232.1494 182.52254,225.40562 C 191.3138,222.56199 192.22757,210.89333 201.55948,208.27315 C 213.33016,207.62279 208.24576,197.43399 201.66922,192.94781 C 191.7315,182.52673 178.96362,174.27989 171.78406,161.56602 C 169.02931,151.21152 182.78714,147.75746 189.89343,144.17862 C 185.51577,146.3133 179.43682,153.85548 183.35487,145.95099 C 176.0827,133.87362 163.58251,126.10474 154.72529,115.25185 C 148.27424,109.56615 141.37031,96.811161 152.39228,91.904531 C 155.03643,90.699551 165.42325,86.222051 157.77423,91.592361 C 150.99564,95.900581 161.10433,84.619481 157.46118,80.974161 C 154.15062,65.166981 148.45183,49.922221 143.75355,34.477181 C 144.46861,26.751921 133.03432,33.383421 139.69919,29.834671 C 146.61311,25.065431 132.93798,35.860241 130.45825,38.301391 C 117.64662,51.635011 101.90652,62.290391 90.952061,77.348751 C 84.663951,84.260971 103.29443,84.615241 97.704281,94.252171 C 91.919431,107.37755 82.312681,118.50741 75.839061,131.33448 C 72.241411,137.46986 64.717721,147.95293 77.392491,147.13153 C 88.581481,154.46032 79.166661,169.31687 74.987781,178.34932 C 67.534751,192.92053 59.071961,206.99556 52.387341,221.94328 C 48.762141,224.35102 44.062621,225.83557 40.066011,227.87452 z "
       id="path6059" />
    <path
       style="fill:#000000;fill-opacity:1;fill-rule:nonzero;stroke:none;stroke-width:1px;stroke-linecap:butt;stroke-linejoin:miter;stroke-opacity:1"
       id="path6091"
       d="M 115.49988,237.09211 C 115.4084,237.64261 115.55508,239.00939 115.60505,239.80643 C 115.70207,242.68535 115.57727,245.56445 115.44743,248.44005 C 115.31559,252.52119 114.71676,256.54819 113.85181,260.53013 C 112.9745,264.49595 111.07724,267.85444 108.45316,270.88984 C 103.73359,275.77668 98.277021,279.04029 92.109481,281.32639 L 98.120701,270.81364 C 106.37356,266.84479 104.19517,265.77966 96.493051,272.8088 C 99.267091,270.56913 101.43119,268.07746 102.44661,264.56408 C 103.50575,260.87579 104.17761,257.10885 104.33984,253.2641 C 104.48495,250.49473 104.62016,247.72241 104.56424,244.94815 C 104.52442,244.02358 104.5874,243.06698 104.35171,242.16793 L 115.49988,237.09211 z " />
    <path
       style="fill:#000000;fill-opacity:1;fill-rule:nonzero;stroke:none;stroke-width:1px;stroke-linecap:butt;stroke-linejoin:miter;stroke-opacity:1"
       id="path6093"
       d="M 144.7856,233.52068 C 145.95829,236.15678 144.79736,233.46092 144.37424,235.60975 C 143.74966,237.75895 143.63961,240.01214 143.45067,242.23076 C 143.19728,245.76642 143.04405,249.30862 142.99756,252.85236 C 142.90315,255.99951 143.63938,258.92636 144.79539,261.8063 C 146.19541,264.59792 148.51084,265.96543 151.27516,267.14847 C 152.68204,267.68409 154.1503,268.01742 155.60063,268.40572 L 147.60428,277.44849 C 146.00948,276.95729 144.38654,276.53959 142.86321,275.84091 C 139.42369,274.07952 136.46174,271.95964 134.63442,268.43099 C 133.08245,265.11006 132.0793,261.66307 132.01926,257.95941 C 131.9375,254.30989 132.0973,250.66432 132.30856,247.01961 C 132.46145,244.62018 132.58715,242.21495 132.92567,239.83254 C 133.04512,238.93715 133.45264,235.19543 133.63743,238.5965 L 144.7856,233.52068 z " />
  </g>
  <g
     inkscape:groupmode="layer"
     id="layer3"
     inkscape:label="2">
    <path
       style="opacity:1;color:#000000;fill:#543314;fill-opacity:1;fill-rule:evenodd;stroke:none;stroke-width:1px;stroke-linecap:butt;stroke-linejoin:miter;marker:none;marker-start:none;marker-mid:none;marker-end:none;stroke-miterlimit:4;stroke-dasharray:none;stroke-dashoffset:0;stroke-opacity:1;visibility:visible;display:inline;overflow:visible"
       d="M 365.71429,245.93361 C 366.47242,254.09189 365.56017,263.13435 359.99512,269.57171 C 356.37635,274.9686 351.92249,279.80735 346.82524,283.83874 C 342.9367,281.75456 339.44966,288.90244 343.27759,290.84626 C 358.49178,295.25929 374.54679,298.51129 390.40081,295.94879 C 399.44889,294.96212 408.52112,293.67089 417.31248,291.30452 C 421.18146,289.47903 422.63892,283.35126 418.86609,280.66738 C 413.85431,275.96638 406.48139,273.65354 403.33394,267.11692 C 399.7912,261.581 399.73274,254.79809 398.82512,248.53648 C 396.89287,244.11888 391.45748,242.55338 387.03401,243.49173 C 381.80192,243.66495 376.55325,244.39694 371.32368,243.78133 C 369.31455,243.97778 367.25165,244.56554 365.71429,245.93361 z "
       id="path3208" />
    <path
       style="opacity:1;color:#000000;fill:#265d32;fill-opacity:1;fill-rule:evenodd;stroke:none;stroke-width:1px;stroke-linecap:butt;stroke-linejoin:miter;marker:none;marker-start:none;marker-mid:none;marker-end:none;stroke-miterlimit:4;stroke-dasharray:none;stroke-dashoffset:0;stroke-opacity:1;visibility:visible;display:inline;overflow:visible"
       d="M 401.53564,38.674103 C 389.70125,33.589798 378.72251,43.899573 371.97138,52.564685 C 362.73941,63.138644 351.19787,72.533607 346.40133,86.17986 C 346.59027,99.058053 364.84483,100.87456 365.46522,113.57115 C 363.76292,127.73569 350.04912,135.25972 339.07564,141.9616 C 329.11151,151.79246 344.66879,163.21405 341.27475,174.07221 C 336.95844,185.33728 324.20514,189.51185 317.62654,199.11254 C 309.54057,207.76436 300.78014,219.47345 304.74385,232.00054 C 309.91293,243.48086 324.01292,244.26326 334.86784,245.60188 C 362.74174,248.96071 390.86907,246.14487 418.81579,245.94826 C 432.02955,243.97355 445.06684,240.53561 457.33839,235.21267 C 465.94612,226.41726 460.67718,212.25705 452.66615,204.99236 C 445.3834,195.47374 436.66326,186.27593 433.8045,174.27414 C 436.22392,164.2642 448.57242,157.19286 444.96325,145.91518 C 438.14594,132.17776 419.71104,128.46606 414.67044,113.43067 C 421.23776,104.65589 428.2511,92.261255 421.84533,81.548169 C 413.76114,67.902566 408.82036,52.721073 401.53564,38.674103 z "
       id="path1335" />
    <path
       style="fill:#000000;fill-opacity:1;fill-rule:nonzero;stroke:none;stroke-width:1px;stroke-linecap:butt;stroke-linejoin:miter;stroke-opacity:1"
       id="path1386"
       d="M 311.35492,242.23652 C 308.91023,241.14486 307.1483,239.16986 305.37877,237.22195 C 301.05306,232.02566 299.59225,225.819 299.94394,219.20082 C 301.28235,209.70028 307.3912,202.27663 313.77962,195.52061 C 308.15116,200.70308 343.36005,167.00448 337.37643,172.89453 C 328.43706,181.6941 333.16752,177.06585 335.11953,175.03035 C 337.90332,171.8801 340.28832,169.65521 337.41908,166.23088 C 333.25482,163.37155 329.2695,160.79637 327.05523,156.12222 C 325.14996,149.21417 330.08505,143.84316 334.39192,139.04635 C 342.25649,130.81348 350.81203,123.29633 359.03178,115.429 C 363.6737,108.65028 352.79028,124.53924 362.81173,110.69725 C 360.55611,108.08272 356.60203,106.90132 353.45918,105.34217 C 347.16893,102.42735 342.83349,98.170306 341.38163,91.318997 C 341.05877,82.654181 346.72958,75.770458 352.01502,69.483017 C 360.49365,60.177859 369.44368,51.303321 378.49427,42.55638 C 384.03679,37.283314 389.78901,31.721 397.68494,30.94115 C 404.76574,31.382023 408.68646,36.716849 411.82155,42.46351 C 415.47004,50.508473 418.35341,58.884743 421.47143,67.147281 C 424.57434,75.426528 427.94014,83.628361 429.75892,92.304575 C 431.64275,101.84755 428.22351,105.03525 421.14385,111.61029 C 418.17052,112.89848 414.91729,113.34494 411.8721,114.31162 C 412.62096,111.91127 416.0497,111.49679 417.9829,109.88894 C 422.38831,114.01625 427.1221,117.77717 431.60381,121.82559 C 437.98285,127.73124 444.03139,133.99901 449.41759,140.82543 C 453.72508,146.31167 456.37857,152.3944 454.12342,159.23105 C 448.59061,167.79433 441.78542,169.61209 433.12633,172.87135 C 428.00332,178.22761 433.85375,165.32687 436.17622,171.37296 C 439.44114,176.17211 443.47154,180.39764 447.34973,184.70039 C 451.95403,189.78637 456.50058,194.92719 460.79996,200.27454 C 464.647,205.04499 468.03363,210.12595 470.17532,215.88363 C 471.98358,221.11156 471.80351,226.13751 469.00799,230.91087 C 462.96917,238.7368 455.71535,241.94203 446.64185,244.6113 C 439.61307,246.62124 432.37426,247.63696 425.12382,248.4239 C 417.92144,249.19861 410.68333,249.50738 403.44647,249.72723 C 396.51714,249.91862 389.58515,249.97896 382.65362,250.02629 C 376.06822,250.07192 369.48293,250.09198 362.89765,250.02868 C 357.15015,249.987 351.40465,249.8205 345.66111,249.61154 C 340.87597,249.42863 336.09656,249.14054 331.32321,248.76211 C 327.13648,248.4922 323.00319,247.78383 318.91118,246.88856 C 315.27256,246.03933 312.05987,244.22419 308.99829,242.15228 C 308.39338,241.74258 307.84544,241.25791 307.2694,240.81102 L 315.28709,231.85383 C 315.74864,232.20207 316.18648,232.58321 316.67247,232.89908 C 319.13423,234.44986 321.64892,235.81268 324.57064,236.28265 C 328.4166,237.00224 332.2868,237.56182 336.19858,237.77369 C 340.89314,238.0995 345.59164,238.36516 350.29538,238.51927 C 355.98717,238.69945 361.67994,238.84838 367.37491,238.87212 C 373.92919,238.9151 380.48355,238.87647 387.03776,238.83281 C 393.92211,238.77638 400.80706,238.70361 407.68836,238.47907 C 414.77169,238.22377 421.85409,237.84856 428.89603,237.00964 C 435.78771,236.15926 442.66345,235.03233 449.28684,232.88446 C 454.21396,231.18488 469.08993,221.15768 456.98667,230.96169 C 459.99936,228.41859 460.96598,226.00877 459.84836,222.03739 C 458.14125,216.90081 455.22506,212.44232 451.80502,208.24987 C 447.6035,202.99629 443.13847,197.96232 438.62768,192.97327 C 434.48154,188.37402 430.20478,183.84316 426.67633,178.73956 C 421.82708,170.53758 426.23136,163.91261 435.37202,161.06154 C 441.10051,159.00021 452.63555,151.26822 442.13663,160.14297 C 445.68429,156.38417 443.20325,152.52778 440.35217,148.72055 C 435.23049,142.15747 429.40536,136.18493 423.307,130.52489 C 418.67413,126.34731 413.7522,122.49511 409.26317,118.16427 C 404.28844,112.15786 403.70862,104.96683 414.33662,102.54553 C 416.98981,102.00841 419.70098,101.66355 421.62961,99.598683 C 412.38981,108.54659 419.73268,104.27798 419.00821,97.68388 C 417.63568,89.309432 414.22257,81.507064 411.31557,73.579482 C 408.27674,65.522059 405.39068,57.396006 402.04646,49.460816 C 400.29754,46.038685 398.50145,41.873658 394.11832,42.421306 C 388.13859,45.218987 383.48089,50.024527 378.77784,54.574463 C 372.27638,60.96668 377.00588,56.160219 364.03643,69.505844 C 359.40901,74.564631 354.3855,79.835549 352.41823,86.553675 C 352.52834,91.487106 356.20099,93.541264 360.4199,95.540997 C 365.26011,97.895523 370.71518,99.751288 373.30897,104.83869 C 376.04959,114.65445 365.18353,121.39723 359.2584,127.44829 C 354.04929,132.3458 337.6578,147.76246 346.41042,139.31179 C 343.13084,142.58853 339.57793,145.94896 337.45263,150.08825 C 339.13933,153.45211 342.74705,155.09926 345.73727,157.55203 C 350.95036,162.7829 351.69442,168.78424 347.14006,174.8831 C 346.37097,175.82929 313.49331,208.68051 325.79724,195.82336 C 319.98817,201.57961 313.92733,207.64122 311.42285,215.63019 C 310.48658,220.55892 311.07215,225.0405 314.23927,229.09752 C 314.85601,229.76806 318.48325,233.07886 315.78031,231.05928 L 311.35492,242.23652 z " />
    <path
       style="fill:#000000;fill-opacity:1;fill-rule:nonzero;stroke:none;stroke-width:1px;stroke-linecap:butt;stroke-linejoin:miter;stroke-opacity:1"
       id="path1454"
       d="M 371.30291,245.1533 C 371.37283,246.35468 371.2757,247.54982 371.21149,248.74981 C 371.02649,252.63343 370.28935,256.44299 369.4416,260.22631 C 368.42427,264.83001 366.36247,269.0088 363.97131,273.02807 C 359.98163,279.46459 354.44203,284.26629 347.40234,286.65301 C 345.17986,287.29086 342.87548,287.37211 340.58594,287.50863 L 344.58257,276.17101 C 346.32101,275.8939 348.06985,275.68189 349.65627,274.84477 C 360.51604,268.47514 345.69746,277.44751 351.96836,273.69451 C 354.43845,270.45557 356.58772,267.00759 357.76023,263.06537 C 358.72014,259.67096 359.56701,256.23653 359.8606,252.7086 C 359.95845,251.66421 360.09053,250.621 360.12567,249.57869 L 371.30291,245.1533 z " />
    <path
       style="fill:#000000;fill-opacity:1;fill-rule:nonzero;stroke:none;stroke-width:1px;stroke-linecap:butt;stroke-linejoin:miter;stroke-opacity:1"
       id="path1456"
       d="M 405.58862,243.01807 C 405.59584,243.68879 405.57361,244.35784 405.5661,245.02817 C 405.62824,247.58848 406.12412,250.11394 406.52614,252.63695 C 407.04436,256.22092 407.78328,259.75451 408.84701,263.21362 C 409.79006,266.48145 411.73982,268.91996 414.12845,271.21861 C 417.07048,273.66954 420.62743,274.78976 424.29522,275.60515 C 425.60497,275.89526 426.94337,275.92364 428.27358,276.01742 L 423.39819,287.00584 C 421.79812,286.78038 420.18538,286.62073 418.61814,286.20164 C 414.03671,284.91985 409.63082,283.21687 405.97832,280.05547 C 402.7801,277.05835 400.10556,273.7531 398.63126,269.55026 C 397.31469,265.78341 396.32668,261.93752 395.75739,257.98006 C 395.31529,255.23774 394.81712,252.50197 394.50692,249.74083 C 394.47329,248.97517 394.37085,248.21214 394.41138,247.44346 L 405.58862,243.01807 z " />
  </g>
  <g
     inkscape:groupmode="layer"
     id="layer4"
     inkscape:label="3">
    <path
       style="opacity:1;color:#000000;fill:#543314;fill-opacity:1;fill-rule:evenodd;stroke:none;stroke-width:1px;stroke-linecap:butt;stroke-linejoin:miter;marker:none;marker-start:none;marker-mid:none;marker-end:none;stroke-miterlimit:4;stroke-dasharray:none;stroke-dashoffset:0;stroke-opacity:1;visibility:visible;display:inline;overflow:visible"
       d="M 607.85712,245.21933 C 605.40532,246.49949 606.0887,249.63194 606.73067,251.7882 C 608.20555,256.78599 605.8845,261.7569 605.01828,266.63748 C 602.99005,271.36559 597.66917,272.87406 593.69109,275.47281 C 590.28766,276.46806 591.42934,281.36843 594.85311,280.99999 C 602.348,283.34377 609.92463,285.6453 617.788,286.31702 C 627.60934,287.25093 637.48832,287.35898 647.34627,287.51207 C 650.57628,286.64662 650.13216,282.19494 648.173,280.25128 C 645.32689,276.02496 642.09285,271.78709 640.89359,266.74566 C 639.72166,260.71229 642.12595,254.21436 639.29123,248.47312 C 636.57379,245.81537 632.53076,247.17006 629.17485,246.63029 C 622.27844,246.33501 615.164,247.56294 608.45653,245.45406 L 608.15639,245.33779 L 607.85712,245.21933 L 607.85712,245.21933 z "
       id="path3244" />
    <path
       style="opacity:1;color:#000000;fill:#265d32;fill-opacity:1;fill-rule:evenodd;stroke:none;stroke-width:1px;stroke-linecap:butt;stroke-linejoin:miter;marker:none;marker-start:none;marker-mid:none;marker-end:none;stroke-miterlimit:4;stroke-dasharray:none;stroke-dashoffset:0;stroke-opacity:1;visibility:visible;display:inline;overflow:visible"
       d="M 607.60675,22.511663 C 595.40774,19.357536 588.43283,32.393374 582.96901,40.941598 C 575.92558,50.980983 566.39012,59.587799 562.24986,71.41844 C 569.32851,79.869586 576.12493,92.930369 569.09298,103.35578 C 557.46592,118.87798 547.29798,135.55866 535.71242,151.06928 C 531.23225,162.71368 546.09473,175.15584 556.84285,169.13267 C 566.53364,171.30733 567.30799,184.36185 561.00443,190.54888 C 552.6532,196.54027 541.07301,200.92663 540.68631,213.43385 C 539.57252,225.77939 552.58271,232.00687 562.3367,235.50243 C 601.31154,248.10717 642.96898,248.40454 683.38495,244.56875 C 698.98782,239.09699 692.88548,220.54948 685.67372,211.06829 C 683.32754,198.03904 698.83088,191.08357 698.6776,178.86604 C 696.90755,165.7137 687.30055,155.48075 681.0093,144.25517 C 667.5785,122.78287 659.91301,102.72096 644.68838,82.575618 C 638.45187,70.451153 656.65775,67.237631 646.42276,54.658473 C 638.40291,44.178887 626.24514,37.914097 617.77633,27.872773 C 614.7376,25.514225 611.34281,23.521871 607.60675,22.511663 z "
       id="path2230"
       sodipodi:nodetypes="ccccccccccccccccc" />
    <path
       style="fill:#000000;fill-opacity:1;fill-rule:nonzero;stroke:none;stroke-width:1px;stroke-linecap:butt;stroke-linejoin:miter;stroke-opacity:1"
       d="M 548.0886,208.72473 C 545.52383,221.6519 560.21063,230.18007 571.00803,233.04715 C 598.34662,241.81449 627.41316,242.88921 655.88887,243.30454 C 667.17127,242.99491 679.8422,242.68376 688.88925,235.06954 C 681.60336,240.9037 689.91348,225.23993 685.39023,221.61568 C 682.17598,210.98602 673.43787,191.92205 689.89467,188.12513 C 694.15561,184.06487 703.85991,191.90126 695.41155,189.02109 C 691.9886,179.54023 688.22021,170.33713 682.96232,161.57946 C 666.65183,130.04393 647.80218,99.881847 628.90362,69.892525 C 623.85528,59.323273 647.9031,58.063387 646.66868,63.743347 C 637.46601,64.641336 637.28984,48.234241 628.23836,45.358941 C 619.65738,38.481346 606.85197,22.259857 597.22388,27.259894 C 587.51906,41.668935 578.68393,56.686314 571.06067,72.300187 C 570.46212,80.463251 587.09003,83.212312 578.81469,92.877106 C 568.82923,115.62647 551.45756,134.17438 541.19978,156.75303 C 539.85477,169.46128 557.80846,162.21318 565.37604,163.60432 C 580.82943,167.59234 569.28399,185.38129 561.29012,191.31621 C 552.73596,197.27924 549.0718,208.50907 543.65759,215.2309 C 538.23063,218.51339 532.8626,219.93374 535.79346,211.73581 C 539.31416,196.8989 553.91908,188.83628 561.67653,176.72953 C 555.55255,170.89113 540.64408,180.04687 532.96456,171.49034 C 522.93536,159.85626 536.23179,145.72369 542.0037,135.28834 C 551.14864,120.72062 561.25984,106.70956 569.0585,91.337297 C 561.81268,85.375938 554.73299,75.936554 562.47345,67.145326 C 570.38683,51.683901 579.21252,36.583209 589.174,22.377121 C 597.07481,10.159504 612.33784,13.606947 620.69988,23.09184 C 634.00845,33.444441 647.59128,45.06129 654.77008,60.616326 C 660.66268,74.117109 627.30755,78.52011 638.76317,65.685943 C 646.01609,71.475437 650.44451,83.608543 656.65713,91.728983 C 674.3835,120.10022 690.76567,149.40371 705.07802,179.60357 C 711.67132,190.78155 695.80949,206.391 687.20011,196.1978 C 695.18296,191.74309 690.23153,208.53767 694.95273,213.07653 C 699.92918,224.5493 700.81956,240.49413 688.27195,247.50447 C 664.76492,258.46177 637.97073,254.09816 612.99677,252.57628 C 589.72784,249.94678 564.24408,247.85451 545.48856,232.30143 C 538.90156,225.80306 527.82725,211.22746 541.33265,211.04153 C 542.5368,210.27508 546.84951,209.39864 548.0886,208.72473 z "
       id="path1388"
       sodipodi:nodetypes="ccccccccccccccccccccccccccccccccccccc" />
    <path
       style="fill:#000000;fill-opacity:1;fill-rule:nonzero;stroke:none;stroke-width:1px;stroke-linecap:butt;stroke-linejoin:miter;stroke-opacity:1"
       id="path1460"
       d="M 614.16005,244.43902 C 614.14551,245.44407 614.16547,246.44849 614.16958,247.45331 C 614.26843,250.34038 614.36819,253.22709 614.40758,256.11546 C 614.58445,260.28742 613.71401,264.13449 611.96073,267.86566 C 605.72414,275.66785 598.83919,277.97431 589.41561,279.03596 C 587.42019,279.24032 585.41481,279.28823 583.41209,279.36489 L 587.57861,268.08859 C 589.42108,267.96392 591.26787,267.87274 593.09588,267.59173 C 598.83935,266.58328 611.69952,258.44781 599.93934,267.83336 C 602.46851,265.94906 603.11235,263.62872 603.18873,260.43428 C 603.24029,257.64202 603.20261,254.85266 603.06655,252.06171 C 603.0273,250.99599 602.9637,249.93123 602.98281,248.8644 L 614.16005,244.43902 z " />
    <path
       style="fill:#000000;fill-opacity:1;fill-rule:nonzero;stroke:none;stroke-width:1px;stroke-linecap:butt;stroke-linejoin:miter;stroke-opacity:1"
       id="path1462"
       d="M 644.87434,246.58188 C 644.76233,246.95879 644.93328,248.65791 644.97965,249.44788 C 645.10971,252.69952 645.18857,255.95266 645.31773,259.20434 C 645.32929,262.70488 645.9408,266.10324 646.90614,269.44515 C 647.95017,272.29027 650.17729,273.92789 652.57921,275.56721 C 653.15987,275.9327 653.78884,276.20971 654.39317,276.5307 L 647.34576,286.26973 C 646.60149,285.84273 645.82501,285.46912 645.11179,284.98806 C 641.68065,282.59369 638.57824,279.90987 636.82823,275.99882 C 635.32321,272.11926 634.40518,268.09738 634.25828,263.91637 C 634.08933,260.64812 633.97952,257.37839 633.89773,254.10682 C 633.8612,253.07618 633.90353,252.01351 633.69709,251.00726 L 644.87434,246.58188 z " />
  </g>
  <g
     inkscape:groupmode="layer"
     id="layer5"
     inkscape:label="4">
    <path
       style="opacity:1;color:#000000;fill:#543314;fill-opacity:1;fill-rule:evenodd;stroke:none;stroke-width:1px;stroke-linecap:butt;stroke-linejoin:miter;marker:none;marker-start:none;marker-mid:none;marker-end:none;stroke-miterlimit:4;stroke-dasharray:none;stroke-dashoffset:0;stroke-opacity:1;visibility:visible;display:inline;overflow:visible"
       d="M 133.24554,545.63839 C 125.82894,544.54478 117.86645,548.4922 114.4765,555.22497 C 114.61348,561.06628 118.58942,566.88618 116.0267,572.68042 C 113.51295,582.68171 106.21086,591.35606 96.775443,595.52223 C 92.90827,597.87096 89.346644,601.70761 89.201394,606.4623 C 91.477278,611.46844 98.358037,613.2863 103.01803,610.58877 C 122.73948,606.67573 142.55788,612.29911 162.33672,612.43231 C 166.1825,611.24251 173.27286,614.88813 174.38745,609.07529 C 174.59574,603.98514 170.36887,600.23394 166.93009,597.09041 C 163.07053,594.30878 157.50318,592.36045 156.51071,587.09796 C 155.53327,580.37735 161.86318,574.2843 158.97629,567.58207 C 156.96664,561.63981 151.10342,558.34769 147.9667,553.12046 C 144.41642,548.81932 139.25739,544.39026 133.24554,545.63839 z "
       id="path3257" />
    <path
       style="opacity:1;color:#000000;fill:#265d32;fill-opacity:1;fill-rule:evenodd;stroke:none;stroke-width:1px;stroke-linecap:butt;stroke-linejoin:miter;marker:none;marker-start:none;marker-mid:none;marker-end:none;stroke-miterlimit:4;stroke-dasharray:none;stroke-dashoffset:0;stroke-opacity:1;visibility:visible;display:inline;overflow:visible"
       d="M 150.97321,374.67852 C 138.82823,382.23191 126.8019,391.95635 121.81699,405.84755 C 114.18396,413.05442 112.21202,426.12364 118.71179,434.68511 C 117.21024,447.08418 104.42087,453.37142 100.34363,464.57371 C 95.356003,473.12772 84.896625,479.90178 86.198997,490.98514 C 91.173773,497.57137 110.64185,489.91515 105.1574,503.70247 C 101.04195,512.75745 92.955387,520.03372 91.903824,530.37574 C 89.181676,540.29572 83.48152,549.07275 80.57781,558.92689 C 83.219666,569.93202 97.669932,569.13072 105.07222,563.58391 C 115.39495,558.76765 125.27237,551.41392 136.89493,550.5283 C 149.3902,551.0674 150.69818,567.39144 160.85421,570.79816 C 169.1534,570.76489 175.12198,562.77988 183.69761,563.55338 C 191.14407,563.26588 200.9755,562.21926 203.58351,553.85731 C 207.40041,543.70723 197.42335,535.85299 195.71444,526.56387 C 195.86293,515.34838 209.32849,509.31695 208.46821,497.67623 C 207.58323,482.7487 189.02073,475.86045 189.19785,460.52094 C 190.14046,451.67229 198.03484,442.51604 192.27528,433.84412 C 183.26329,423.88307 171.65104,414.90661 168.69805,401.0417 C 166.2214,392.3665 165.78798,381.39837 157.14455,376.2635 C 155.19882,375.38289 153.09563,374.87762 150.97321,374.67852 z "
       id="path2248" />
    <path
       style="fill:#000000;fill-opacity:1;fill-rule:nonzero;stroke:none;stroke-width:1px;stroke-linecap:butt;stroke-linejoin:miter;stroke-opacity:1"
       d="M 180.21027,435.00143 C 166.32671,419.81775 167.36437,400.11865 159.11331,384.29663 C 151.01707,378.281 143.7062,383.72571 142.06025,388.98538 C 133.03535,400.82934 124.23383,412.9988 117.77959,426.47405 C 127.7771,417.34439 131.83065,432.99001 122.95305,438.49126 C 110.78716,454.03281 98.262357,469.88928 90.769615,488.31379 C 98.199669,491.90556 112.67265,473.17877 114.81104,490.39324 C 113.69157,502.27863 105.75029,512.25673 101.58627,523.28323 C 95.885842,535.10078 89.96893,546.9059 86.173996,559.50912 C 93.032863,569.7912 107.34887,553.05225 116.42912,550.89048 C 125.96143,545.01887 140.48306,535.98803 149.44992,547.67136 C 153.24042,553.54519 166.19535,568.2594 163.04846,567.69202 C 168.8797,553.65414 185.2091,558.87308 196.1557,555.74665 C 201.90863,552.88129 195.61266,559.70693 198.28483,552.63222 C 200.12735,540.03328 181.28751,530.50979 189.38202,518.5045 C 195.17696,514.66005 204.08549,503.96102 201.98423,509.207 C 207.5416,496.17854 194.80289,485.10746 186.58718,476.75665 C 174.23025,466.01425 190.4921,455.30512 188.97731,444.43088 C 183.38661,437.69177 154.82065,402.08129 187.35234,423.43715 C 196.77001,431.69841 208.42189,448.41411 194.89844,458.606 C 190.98181,472.58092 210.99522,479.08107 213.28016,492.56586 C 219.21869,504.96167 209.64215,516.73956 199.04657,522.26866 C 192.06945,528.07891 200.83485,515.19542 200.00003,525.88983 C 207.76047,536.10699 214.56468,552.56213 203.5823,563.05286 C 196.02062,570.26767 180.06862,568.4505 173.69658,568.12336 C 177.76583,566.56729 162.53739,585.56363 156.0361,575.36435 C 146.95584,569.22427 143.73075,549.11299 129.54522,554.75746 C 114.36183,562.21074 100.23499,573.70213 82.93319,575.56177 C 69.524852,571.37821 75.405451,554.82713 80.105919,545.98532 C 87.389848,528.43419 96.699699,511.79242 103.65081,494.09625 C 99.701179,501.08527 81.46524,507.50142 78.423597,494.53525 C 78.664017,483.92427 86.717992,474.89687 91.574135,465.70935 C 99.027659,454.96439 106.03882,443.63647 115.01696,434.16096 C 126.15293,432.79359 105.54958,443.64477 106.18312,431.55743 C 107.69713,416.91084 119.97325,405.18239 127.40402,392.80426 C 134.75377,382.94168 142.89248,370.3309 156.36256,369.18947 C 171.33367,371.96011 173.57424,389.66185 178.16098,401.49379 C 180.84548,413.74396 192.51319,426.79428 177.88884,434.46572 L 180.21027,435.00143 z "
       id="path1390"
       sodipodi:nodetypes="ccccccccccccccccccccccccccccccccccccccc" />
    <path
       style="fill:#000000;fill-opacity:1;fill-rule:nonzero;stroke:none;stroke-width:1px;stroke-linecap:butt;stroke-linejoin:miter;stroke-opacity:1"
       id="path1478"
       d="M 162.32785,575.5166 C 168.1323,568.95306 169.5927,566.87201 166.86411,570.92644 C 165.65526,573.63212 164.97084,576.51975 164.31497,579.397 C 163.52835,582.62466 163.2687,585.79968 163.96355,589.01265 C 166.37786,592.68805 170.89734,593.511 174.96843,594.34313 C 176.29228,594.58939 177.631,594.73484 178.96479,594.9119 L 173.75199,605.74433 C 172.28292,605.50547 170.80526,605.31123 169.35379,604.97283 C 163.40102,603.48342 157.4402,601.41068 154.0992,595.88356 C 152.10438,591.6564 151.89283,587.30125 152.76193,582.71996 C 153.33852,579.4816 153.99818,576.25194 155.04585,573.12721 C 156.82607,567.97828 156.04427,569.16726 161.95025,563.5011 L 162.32785,575.5166 z " />
    <path
       style="fill:#000000;fill-opacity:1;fill-rule:nonzero;stroke:none;stroke-width:1px;stroke-linecap:butt;stroke-linejoin:miter;stroke-opacity:1"
       id="path1482"
       d="M 124.87434,553.72473 C 125.21726,555.0512 124.58427,556.75823 124.2875,558.38794 C 123.1916,564.42981 122.04015,570.44618 120.2344,576.31994 C 118.17982,582.73149 114.89072,588.55142 110.66095,593.75694 C 104.96487,600.65041 98.377974,605.29099 90.388487,608.85037 C 89.455183,609.26494 88.51354,609.66028 87.576077,610.06523 L 89.506809,598.19986 C 90.392532,597.78688 91.290966,597.40056 92.1642,596.96082 C 97.703633,593.96285 107.95825,585.3789 98.640369,593.61421 C 102.9277,589.34474 106.3292,584.42159 108.4539,578.71466 C 110.51012,573.20225 111.74696,567.49853 112.7327,561.70476 C 112.89382,560.87485 113.3567,556.1753 113.6971,558.15011 L 124.87434,553.72473 z " />
  </g>
  <g
     inkscape:groupmode="layer"
     id="layer6"
     inkscape:label="5">
    <path
       style="opacity:1;color:#000000;fill:#543314;fill-opacity:1;fill-rule:evenodd;stroke:none;stroke-width:1px;stroke-linecap:butt;stroke-linejoin:miter;marker:none;marker-start:none;marker-mid:none;marker-end:none;stroke-miterlimit:4;stroke-dasharray:none;stroke-dashoffset:0;stroke-opacity:1;visibility:visible;display:inline;overflow:visible"
       d="M 353.57144,577.36217 C 351.12474,580.56801 353.89232,584.31598 354.4857,587.64915 C 355.98143,596.0804 351.46439,604.75409 344.59682,609.53861 C 342.03893,609.97188 339.28366,613.0219 340.75424,615.60136 C 343.30434,617.53536 346.68725,618.1505 349.72565,619.0617 C 366.51117,623.18814 383.94295,621.40739 400.98997,623.19324 C 403.46436,623.27203 406.91456,622.16813 406.82198,619.15896 C 406.58001,615.17857 402.47268,613.50714 399.75087,611.36238 C 396.00906,608.36842 393.94732,603.58012 394.14295,598.8127 C 393.78212,593.44679 393.55315,588.05414 393.5339,582.68976 C 392.674,578.74659 388.18005,578.01555 384.78842,577.96801 C 374.45511,576.98346 363.81455,574.18642 353.57144,577.36217 z "
       id="path3319" />
    <path
       style="opacity:1;color:#000000;fill:#265d32;fill-opacity:1;fill-rule:evenodd;stroke:none;stroke-width:1px;stroke-linecap:butt;stroke-linejoin:miter;marker:none;marker-start:none;marker-mid:none;marker-end:none;stroke-miterlimit:4;stroke-dasharray:none;stroke-dashoffset:0;stroke-opacity:1;visibility:visible;display:inline;overflow:visible"
       d="M 372.70169,362.38338 C 369.06873,383.06616 361.93718,403.05916 353.72032,422.29934 C 348.5612,431.85192 342.25037,440.90961 338.89765,451.32914 C 349.33453,459.07107 342.68215,473.05321 335.52758,480.42993 C 330.15524,489.79306 324.06426,498.83232 316.52648,506.60234 C 312.10595,519.28977 333.33556,507.56606 331.36012,518.65253 C 329.28153,527.80891 319.11828,531.20766 313.38715,537.68761 C 306.42775,543.43398 299.90851,554.41949 305.96777,562.93357 C 313.32386,569.81046 324.34729,569.29476 333.72543,570.76785 C 349.18553,573.04341 364.4487,576.84605 380.1468,577.41692 C 397.19942,578.08032 414.34156,579.05927 431.38762,577.87133 C 440.59942,578.7233 448.0825,569.84819 446.03558,560.8296 C 443.90529,546.45702 427.47968,539.28593 425.62877,524.79493 C 425.5052,513.95098 452.94094,524.95363 446.29228,508.36363 C 441.81806,496.74806 433.65872,487.04264 428.40946,475.81554 C 421.79243,465.37412 413.93276,455.75418 407.76706,445.02114 C 413.2777,438.21874 420.50112,428.77705 411.36587,421.59174 C 399.4817,401.05067 384.87755,381.98809 375.44996,360.10574 C 373.92665,358.60312 371.76782,360.64565 372.70169,362.38338 z "
       id="path2269" />
    <path
       style="fill:#000000;fill-opacity:1;fill-rule:nonzero;stroke:none;stroke-width:1px;stroke-linecap:butt;stroke-linejoin:miter;stroke-opacity:1"
       d="M 375.66784,380.86757 C 377.29816,393.71968 366.71925,403.5764 363.1097,415.19355 C 357.1507,427.36001 351.77833,439.95109 346.11631,452.15711 C 363.19976,455.68153 346.79008,471.67947 342.07845,479.57898 C 334.85454,489.58883 327.52203,499.53545 321.06011,510.06603 C 326.28827,504.00305 344.0172,498.64468 342.45792,511.72512 C 338.16864,521.50712 329.12247,528.42043 322.25837,536.44464 C 316.64194,541.71206 305.62564,552.4521 313.81263,559.17832 C 325.74821,567.22654 340.7658,567.51456 354.50591,569.94116 C 379.27374,572.90282 404.49843,575.8062 429.35698,572.55139 C 432.70809,572.48489 444.79737,565.34661 438.66536,570.35273 C 441.43471,561.95307 435.36038,555.33476 431.31136,548.50022 C 426.14392,540.26877 419.3481,532.47946 417.14006,522.83748 C 418.41036,508.74379 435.81042,512.29053 444.90426,515.6289 C 447.97577,520.56042 438.29417,519.78277 438.85268,513.88038 C 434.99079,501.18157 427.00015,490.43125 420.80542,478.80965 C 413.92405,466.33864 405.3354,454.64768 399.5159,441.69468 C 396.54319,429.05425 425.08846,432.09633 412.55461,439.56125 C 406.91273,430.75912 403.76802,420.09741 397.97452,411.11445 C 389.80837,395.89165 381.35596,380.79291 374.30784,365.0053 C 370.64374,362.87163 382.59507,355.24237 378.05903,361.89382 C 374.38784,369.959 380.39216,385.55158 367.96547,386.11806 C 358.71523,388.34061 368.29552,373.06985 365.68067,368.0577 C 363.77843,355.55665 380.18028,344.31654 385.13601,360.02301 C 394.8182,382.85967 408.78531,403.54958 418.82889,426.2043 C 427.11361,435.45006 418.45073,451.12098 406.3545,444.72474 C 403.02045,441.84028 414.009,434.48019 413.3833,443.17484 C 427.32826,467.22159 443.58736,490.39242 452.85175,516.76521 C 452.24332,532.65542 433.76989,525.1815 424.40442,523.67937 C 429.02677,513.48482 432.13094,531.91272 436.96263,535.49322 C 442.9549,544.94038 451.38724,554.78426 450.60742,566.60009 C 447.17742,580.1678 431.60176,584.23731 419.35548,584.58323 C 390.34858,586.49056 361.29243,582.69204 332.68915,578.19653 C 321.52218,575.96281 309.1357,573.04702 301.41911,564.06427 C 295.51033,554.78654 302.08076,544.43798 308.84886,537.81734 C 315.80287,529.91343 323.454,522.62143 329.93405,514.30435 C 336.92371,514.56744 318.96315,521.2435 315.23146,519.98708 C 304.00797,514.58006 314.60209,501.12239 319.76157,494.65852 C 326.7961,484.6925 334.32012,475.03103 340.39493,464.42567 C 347.59345,462.50794 331.64576,465.22712 335.18642,457.74851 C 335.38989,446.34494 342.82625,436.80181 346.86941,426.50886 C 353.45516,413.32139 358.11894,399.2206 364.41508,385.95463 C 367.86811,383.6168 372.43675,383.94186 375.66784,380.86757 z "
       id="path1404" />
    <path
       style="fill:#000000;fill-opacity:1;fill-rule:nonzero;stroke:none;stroke-width:1px;stroke-linecap:butt;stroke-linejoin:miter;stroke-opacity:1"
       id="path1472"
       d="M 401.30291,575.1533 C 401.50288,576.24642 401.20498,577.42814 401.06913,578.55787 C 400.77767,582.7745 400.65079,587.0005 400.52767,591.22475 C 400.25471,595.82988 400.24034,600.31993 402.05116,604.5903 C 405.09878,608.45253 410.10132,609.69574 414.65118,610.99509 L 408.65046,621.41172 C 402.56719,619.5164 396.39316,617.28927 392.52053,611.91708 C 389.63924,606.81876 388.90196,601.31296 389.28951,595.49308 C 389.40173,591.19403 389.52212,586.89465 389.74756,582.59975 C 389.78761,581.84245 389.6535,578.98892 390.12567,579.57868 L 401.30291,575.1533 z " />
    <path
       style="fill:#000000;fill-opacity:1;fill-rule:nonzero;stroke:none;stroke-width:1px;stroke-linecap:butt;stroke-linejoin:miter;stroke-opacity:1"
       id="path1476"
       d="M 361.30291,574.43901 C 361.32611,575.63596 361.293,576.83162 361.27215,578.02834 C 361.16924,581.68954 361.09349,585.35109 360.94383,589.01068 C 360.88498,593.5199 359.7326,597.69024 357.7941,601.71504 C 354.03812,608.77445 347.8249,613.10401 340.5061,615.53576 C 339.74804,615.77922 338.97177,615.95625 338.20461,616.1665 L 340.88801,604.44839 C 341.53415,604.21239 342.19692,604.02187 342.82644,603.74038 C 354.90767,597.99015 338.69345,607.13201 345.81066,602.66987 C 347.97329,599.75235 349.44608,596.74139 349.6133,593.02737 C 349.86887,589.45362 349.95811,585.8745 350.03223,582.29203 C 350.07037,581.14951 350.12479,580.00729 350.12567,578.8644 L 361.30291,574.43901 z " />
  </g>
  <g
     inkscape:groupmode="layer"
     id="layer7"
     inkscape:label="6">
    <path
       style="opacity:1;color:#000000;fill:#543314;fill-opacity:1;fill-rule:evenodd;stroke:none;stroke-width:1px;stroke-linecap:butt;stroke-linejoin:miter;marker:none;marker-start:none;marker-mid:none;marker-end:none;stroke-miterlimit:4;stroke-dasharray:none;stroke-dashoffset:0;stroke-opacity:1;visibility:visible;display:inline;overflow:visible"
       d="M 567.14286,595.21934 C 567.74431,601.46496 571.44484,607.68465 569.18153,613.99398 C 566.98115,618.6743 561.44202,620.03049 556.76337,620.68052 C 553.12334,622.01094 553.79856,628.58167 557.8121,628.77914 C 570.22985,631.21241 582.86226,632.5797 595.52339,632.50048 C 603.47413,632.59272 611.43104,633.13741 619.37878,632.87275 C 623.16885,632.61153 627.11924,631.94515 630.28145,629.69495 C 632.82085,626.37668 629.33291,621.65171 625.55179,621.70818 C 619.56912,620.08636 614.42521,615.1391 612.63671,609.1567 C 611.92898,606.46411 612.14135,603.41687 610.23298,601.15313 C 608.8004,598.98855 606.21298,598.10899 603.72259,598.09003 C 591.57174,596.52832 579.16167,597.99533 567.14286,595.21934 z "
       id="path3340" />
    <path
       style="opacity:1;color:#000000;fill:#265d32;fill-opacity:1;fill-rule:evenodd;stroke:none;stroke-width:1px;stroke-linecap:butt;stroke-linejoin:miter;marker:none;marker-start:none;marker-mid:none;marker-end:none;stroke-miterlimit:4;stroke-dasharray:none;stroke-dashoffset:0;stroke-opacity:1;visibility:visible;display:inline;overflow:visible"
       d="M 615.55674,352.84385 C 605.14467,345.74426 598.53161,359.52624 594.49334,367.10401 C 582.56053,383.35733 574.13111,401.76885 565.00178,419.66331 C 564.06596,429.82757 550.57562,439.88249 558.49542,449.93632 C 564.35311,452.31596 583.31998,449.72087 573.51641,461.87402 C 565.38909,473.75698 554.82996,483.7633 543.53505,492.59907 C 529.62857,492.55523 530.6971,515.8097 545.02784,511.40838 C 559.76857,514.81637 550.88189,533.31759 538.88636,532.52038 C 527.43888,533.59448 515.37224,551.90298 532.19468,555.08225 C 538.43509,554.14322 554.58041,559.9447 545.53687,566.37612 C 533.12282,569.41363 528.7803,590.14314 543.5694,592.69738 C 557.05796,596.82032 571.41313,595.46726 585.19304,597.97543 C 599.40969,599.33844 613.79009,600.13244 628.01155,598.39189 C 635.49202,591.38963 632.58335,566.75289 648.82507,577.26121 C 657.78241,581.45069 669.55224,588.12619 678.55879,580.53917 C 687.83477,569.20575 674.10348,556.64327 667.06732,548.15025 C 658.06387,536.26326 652.1704,522.27051 648.52716,507.87648 C 654.95788,498.11802 665.2303,484.8786 654.91895,473.91844 C 651.38802,464.27362 638.66803,453.76688 643.4227,443.61078 C 655.54908,442.09685 663.15638,432.21681 656.40429,420.72087 C 650.45409,405.4595 640.17389,392.42884 632.64421,377.95749 C 627.4898,369.23914 622.08468,360.61416 615.55674,352.84385 z "
       id="path2281" />
    <path
       style="fill:#000000;fill-opacity:1;fill-rule:nonzero;stroke:none;stroke-width:1px;stroke-linecap:butt;stroke-linejoin:miter;stroke-opacity:1"
       id="path1410"
       d="M 626.09955,359.29556 C 627.34771,360.90384 628.81165,363.11692 630.04643,364.96102 C 635.69285,373.91317 640.68147,383.26801 645.50841,392.68181 C 651.22221,404.56428 657.68219,416.33641 661.08303,429.15549 C 664.45985,439.79878 656.32583,449.02402 645.50468,445.58995 C 642.74659,444.23364 639.93385,442.87648 636.94384,442.1648 C 645.3181,429.73549 644.26497,441.76025 648.7326,451.40762 C 653.85893,463.07965 660.49255,474.14111 664.61887,486.2381 C 668.73441,496.68588 661.71646,506.58477 650.44598,504.68084 C 641.10175,503.17295 644.1159,504.88193 649.11381,499.75165 C 650.65338,509.14366 656.24347,517.65078 660.84038,525.88113 C 667.86929,538.49155 675.35198,550.85974 681.84784,563.76035 C 687.60364,573.85639 691.76417,591.61169 674.23318,592.20433 C 663.86926,590.77714 654.43332,585.81041 645.03659,581.47131 C 634.56989,575.81021 631.07292,582.52511 639.60203,573.1767 C 638.41766,577.31187 639.9001,582.08697 639.59094,586.52302 C 637.05816,598.10793 625.57882,601.58744 615.44214,602.96522 C 604.22365,603.97324 592.93769,602.99704 581.77426,601.78574 C 571.84776,600.67735 561.97451,599.16593 552.12207,597.53787 C 544.94545,596.27503 537.46227,595.60527 531.13602,591.74809 C 525.4263,587.05447 527.49338,581.10264 531.09266,575.87243 C 536.44183,568.8797 543.14446,563.07586 550.21668,557.90118 C 550.54265,557.66501 550.86862,557.42883 551.19459,557.19266 L 550.653,569.20188 C 550.34148,569.43868 550.02996,569.67548 549.71844,569.91228 C 533.62523,582.65691 551.63081,568.53095 543.10951,575.54067 C 541.41661,577.47828 538.15524,580.28589 538.66135,582.37344 C 544.5369,585.13965 551.15543,585.57976 557.48154,586.77725 C 567.22206,588.36894 576.98789,589.82091 586.80398,590.8671 C 597.48645,591.96272 608.32357,592.87186 619.01952,591.48841 C 626.26282,590.03768 634.08966,582.38897 625.53107,591.73818 C 624.79956,592.53727 629.04906,589.55291 627.9662,589.58573 C 629.31269,584.86754 627.51544,580.189 627.77372,575.3228 C 636.3936,564.63078 640.18916,565.97286 651.83976,571.56012 C 660.20799,575.42946 668.87916,580.31959 678.21093,580.86007 C 672.78488,587.72261 678.89532,583.64848 672.05106,570.72726 C 665.66766,557.87661 658.18857,545.61193 651.21407,533.08175 C 646.05656,523.87801 640.30875,514.56799 637.94227,504.1914 C 637.18721,492.88903 647.49865,491.42647 655.68686,493.86197 C 662.01376,493.54982 652.4338,503.72563 654.30979,492.42176 C 650.31014,480.53917 643.96365,469.63407 638.83148,458.22544 C 633.83706,447.49641 627.10838,439.34425 637.526,430.15747 C 642.74139,430.50239 646.8461,433.27792 651.6105,435.23458 C 657.93111,436.0104 647.72336,445.42398 650.54228,434.9354 C 647.39428,422.53574 641.31357,411.14065 635.74423,399.69433 C 631.03355,390.46009 626.15275,381.29229 620.67299,372.48787 C 619.41875,370.58953 618.19262,368.66072 616.77285,366.88025 L 626.09955,359.29556 z " />
    <path
       style="fill:#000000;fill-opacity:1;fill-rule:nonzero;stroke:none;stroke-width:1px;stroke-linecap:butt;stroke-linejoin:miter;stroke-opacity:1"
       id="path1414"
       d="M 615.83995,366.7101 C 616.65785,367.80399 615.44459,365.37915 615.23075,364.89931 C 613.56276,361.72176 611.63839,358.68478 609.50765,355.80268 C 606.20851,354.50118 599.50147,364.19974 609.12333,354.48773 C 601.65978,363.05262 596.39085,373.30408 591.31164,383.39925 C 584.44152,397.35257 578.26283,411.6341 572.24389,425.97121 C 569.30534,432.33208 566.20664,441.68115 564.21994,447.0969 C 563.98311,444.00792 569.25545,442.0184 572.28044,440.16168 C 577.21728,436.94902 582.46724,437.04726 584.27081,443.48604 C 583.98292,450.07613 580.22751,455.81862 576.70996,461.19709 C 569.25515,471.73917 559.93125,480.80265 550.52065,489.58021 C 536.47855,502.94874 542.97386,495.60753 537.80547,502.01487 C 536.72797,504.91872 536.73796,503.75245 541.51634,504.5184 C 547.20756,505.16181 552.80679,506.03365 558.09826,508.24209 C 563.33455,511.51621 563.58305,516.42282 560.2213,521.18363 C 553.92766,528.7741 545.56337,533.45429 537.27459,538.45639 C 530.25479,541.62352 519.8197,552.35656 528.3596,543.69348 C 526.00309,545.70929 527.41112,546.14461 529.68691,547.624 C 533.84269,549.71829 538.33007,551.031 542.76566,552.38723 C 547.20514,553.6504 551.64527,554.89717 556.00968,556.40119 C 559.01662,557.26466 561.364,558.87878 563.54096,561.0051 C 567.66088,566.81814 560.27463,571.4409 554.75347,572.05284 C 552.39517,572.37479 550.03583,572.68408 547.6724,572.96633 C 546.89387,573.07252 546.1133,573.16265 545.33376,573.2608 L 549.03111,561.82208 C 549.81115,561.72408 550.59045,561.62009 551.37124,561.52809 C 553.62977,561.23266 555.8949,560.95372 558.13094,560.51563 C 555.99934,562.61486 552.55315,566.10506 554.2161,568.59204 C 553.89628,568.42895 550.94727,566.85562 549.71198,566.641 C 545.40208,565.24132 541.02998,564.05424 536.68788,562.75908 C 531.80237,561.23749 526.86675,559.70037 522.38853,557.1764 C 517.88209,554.26522 514.16081,550.06322 516.3592,544.40431 C 521.22395,535.96357 530.44429,531.45713 538.39617,526.4874 C 542.49657,523.97232 560.8815,510.45973 548.20133,520.99677 C 549.18322,520.18761 552.94817,518.55583 551.30199,518.158 C 546.3814,516.51833 541.20312,516.09265 536.10196,515.25149 C 529.89831,513.92504 523.47579,510.76724 525.85025,503.27475 C 531.32637,492.64692 542.20897,486.04986 550.32134,477.56044 C 553.72043,474.30891 554.30163,474.33109 564.70794,461.87992 C 567.95145,457.44918 570.96399,452.85568 573.0285,447.7434 C 576.69469,449.97548 574.38739,449.99364 571.2069,452.13508 C 566.14983,455.3009 560.6792,459.31921 555.1475,454.98394 C 550.18241,446.5807 557.76793,436.18994 560.39844,428.02063 C 566.40584,413.55413 572.62671,399.16905 579.40329,385.04419 C 584.58985,374.46833 590.04248,363.92603 597.10194,354.45731 C 603.40945,347.88072 610.02894,339.5378 618.40283,347.71624 C 620.84857,350.91298 623.05245,354.28623 624.96014,357.83859 C 625.70906,359.28742 626.50343,360.73738 627.0172,362.28472 L 615.83995,366.7101 z " />
    <path
       style="fill:#000000;fill-opacity:1;fill-rule:nonzero;stroke:none;stroke-width:1px;stroke-linecap:butt;stroke-linejoin:miter;stroke-opacity:1"
       id="path1468"
       d="M 569.21207,601.52223 C 576.72422,601.33332 576.95896,589.6679 576.94479,596.91399 C 577.07979,600.41185 577.17974,603.90738 577.10757,607.40565 C 576.28994,615.47272 569.49907,620.99185 562.32333,623.91457 C 557.60514,625.72291 552.62136,626.60317 547.64825,627.36531 L 551.13045,615.85927 C 555.59175,615.05352 560.06933,614.09882 564.14254,612.03159 C 573.01294,606.26943 557.99412,619.25669 565.63925,611.01014 C 566.06273,607.86267 566.03941,604.7045 565.83836,601.5142 C 565.60779,595.6165 565.70797,592.59514 573.63745,590.34499 L 569.21207,601.52223 z " />
    <path
       style="fill:#000000;fill-opacity:1;fill-rule:nonzero;stroke:none;stroke-width:1px;stroke-linecap:butt;stroke-linejoin:miter;stroke-opacity:1"
       id="path1470"
       d="M 614.87434,594.44283 C 614.87434,595.69167 614.87434,596.94052 614.87434,598.18936 C 614.75803,601.85705 615.02776,605.45527 616.02577,608.97978 C 617.86927,613.31862 622.24881,614.41836 626.46069,615.50327 C 630.34529,616.42961 634.32917,616.68805 638.30467,616.85128 L 633.60571,627.91629 C 629.22023,627.61014 624.83242,627.17306 620.58099,625.98868 C 614.51686,624.16141 608.79391,621.57448 605.94541,615.52968 C 604.26611,611.39387 603.63478,607.07743 603.6971,602.61475 C 603.6971,601.3659 603.6971,600.11706 603.6971,598.86821 L 614.87434,594.44283 z " />
  </g>
  <g
     inkscape:groupmode="layer"
     id="layer8"
     inkscape:label="7">
    <path
       style="opacity:1;color:#000000;fill:#543314;fill-opacity:1;fill-rule:evenodd;stroke:none;stroke-width:1px;stroke-linecap:butt;stroke-linejoin:miter;marker:none;marker-start:none;marker-mid:none;marker-end:none;stroke-miterlimit:4;stroke-dasharray:none;stroke-dashoffset:0;stroke-opacity:1;visibility:visible;display:inline;overflow:visible"
       d="M 119.28572,881.64793 C 117.01688,887.39133 121.69082,893.29533 119.5097,899.08534 C 117.36266,913.39206 110.27848,927.10358 99.146736,936.46449 C 93.692393,937.30042 95.188944,946.85675 100.52959,946.37611 C 118.82086,946.48298 136.37699,955.27166 154.80237,952.28181 C 160.07722,951.94455 165.89677,954.27101 170.70622,951.14105 C 174.31995,947.45833 171.22005,941.39119 166.93019,939.88258 C 161.88134,938.47225 160.11844,932.65019 159.46845,928.0013 C 157.93758,916.98976 157.48296,905.8534 156.18513,894.82122 C 156.17162,887.78136 156.47239,879.75289 151.1997,874.29809 C 144.99602,867.34183 132.75429,865.53638 125.89628,872.52796 C 123.1876,875.16186 121.1185,878.36639 119.28572,881.64793 z "
       id="path3359" />
    <path
       style="opacity:1;color:#000000;fill:#265d32;fill-opacity:1;fill-rule:evenodd;stroke:none;stroke-width:1px;stroke-linecap:butt;stroke-linejoin:miter;marker:none;marker-start:none;marker-mid:none;marker-end:none;stroke-miterlimit:4;stroke-dasharray:none;stroke-dashoffset:0;stroke-opacity:1;visibility:visible;display:inline;overflow:visible"
       d="M 142.80533,727.90995 C 135.98983,750.83113 112.05291,761.31372 99.152538,780.00771 C 91.905851,789.39592 100.38998,797.48385 105.70782,804.41415 C 108.80481,814.46695 97.643997,819.66333 93.679746,827.43089 C 88.064606,835.24103 82.552239,843.2844 75.261634,849.65932 C 72.317079,859.18749 91.385005,862.58213 84.417374,871.97827 C 79.022807,879.78469 65.250552,886.44165 69.761289,897.6363 C 79.654053,900.84021 87.35236,891.31133 96.640574,889.73605 C 108.63647,885.9406 120.39463,881.30318 132.32253,877.41005 C 147.53299,875.79404 159.78666,888.77291 165.60867,901.51103 C 167.64077,910.31186 179.16809,916.20665 183.54196,905.56914 C 189.71053,895.83037 199.5273,900.84559 206.78143,905.37193 C 217.62602,908.35194 223.35137,895.37165 216.03572,888.12001 C 211.29922,878.91518 205.65416,870.21779 199.77324,861.73138 C 193.68288,852.47728 206.26295,846.19102 204.50113,837.92859 C 201.95136,828.32623 192.14428,823.13033 188.62073,814.02891 C 180.29969,807.35349 179.66873,793.62829 187.76913,786.51149 C 194.83874,777.00161 188.1737,765.1428 180.79899,758.14281 C 172.9625,749.2193 164.3581,740.45179 160.23345,729.07162 C 156.88732,723.16872 143.78039,716.80562 142.80533,727.90995 z "
       id="path2294" />
    <path
       style="fill:#000000;fill-opacity:1;fill-rule:nonzero;stroke:none;stroke-width:1px;stroke-linecap:butt;stroke-linejoin:miter;stroke-opacity:1"
       d="M 142.43251,741.8405 C 139.54376,744.81729 132.4402,750.81935 139.34428,744.59204 C 127.48805,758.72782 115.59534,773.1114 106.03563,788.97249 C 98.003667,797.34025 116.80916,791.71533 115.97665,801.92232 C 113.97616,812.61521 103.59122,819.77436 97.051556,828.06516 C 89.838528,835.75815 82.523186,843.49795 77.00213,852.54144 C 85.69647,852.94992 98.413393,859.60822 89.896137,869.15507 C 84.001309,878.66868 74.675134,885.86533 70.423812,896.42309 C 93.33393,890.89336 112.87031,876.35942 135.66325,870.60057 C 150.07602,868.5713 162.10302,879.73482 169.00722,891.20651 C 171.09845,896.60753 178.70318,903.18204 179.72537,905.23807 C 174.60865,909.93693 183.5775,897.11399 186.38937,896.35147 C 195.40411,889.60117 204.79404,897.59114 213.91006,899.34631 C 219.85006,898.96578 222.45838,907.33781 215.7155,903.75773 C 212.71274,895.2308 209.74525,886.87813 204.48631,879.38835 C 199.51524,871.077 192.54906,863.70384 189.33571,854.4974 C 187.0623,846.75995 202.42224,838.598 203.72612,842.26151 C 196.05867,845.02383 195.49577,829.58962 189.85761,825.46878 C 183.76859,816.23622 174.48888,807.39279 174.61067,795.6084 C 175.43952,790.59011 186.98548,784.20113 187.41609,785.63596 C 185.24358,785.04581 190.33039,773.93792 184.29441,771.10306 C 175.42099,756.21712 163.51135,743.40726 153.34286,729.48933 C 149.06075,727.80997 144.22539,718.35647 151.33909,721.80095 C 152.16714,733.9683 140.90614,741.11433 133.47451,748.86336 C 135.86485,746.46611 141.39477,740.96561 136.04672,746.3846 C 130.55432,746.15818 119.29741,748.17041 128.36209,741.53921 C 131.91991,737.51739 136.55287,734.09638 137.05598,732.83272 C 143.50218,726.66762 136.30008,713.50349 148.1738,711.91079 C 158.68763,712.48531 163.25859,724.7445 170.08143,731.35481 C 179.0384,744.0441 190.24926,755.37014 196.9282,769.52373 C 201.1071,777.80302 198.89531,788.58707 190.96031,793.7935 C 189.37164,796.5469 180.55579,798.70679 185.81279,795.39238 C 187.44789,803.3098 192.81269,808.9331 197.27401,815.4383 C 202.85516,823.60743 209.44489,831.93661 211.06344,841.91237 C 211.79408,847.7658 197.79984,857.41413 197.5448,851.36412 C 203.96762,847.9761 203.55713,862.32991 209.12639,864.73431 C 216.71282,876.20036 224.52803,888.35022 226.78228,902.12428 C 225.66012,916.76747 207.945,912.40524 199.84057,906.73125 C 197.44341,906.2377 186.27502,904.84756 191.87213,903.05823 C 188.36143,910.88659 177.73179,919.97018 169.72516,912.23367 C 159.75413,902.71401 155.63842,886.19505 140.96756,882.16315 C 130.99204,880.52093 121.74258,886.57431 112.77786,890.0665 C 100.85335,895.63141 89.11695,901.90933 76.584867,905.89824 C 68.599851,909.1674 55.463894,903.93022 60.622396,893.80554 C 65.497829,883.08592 74.341072,874.45239 81.451885,865.52995 C 72.43801,866.98609 62.350583,860.20375 67.020315,850.04144 C 69.413018,842.37699 76.846884,838.26376 81.380214,832.00743 C 89.133541,823.55374 97.250025,814.64963 104.39566,806.14318 C 93.923246,806.21879 88.354725,796.93897 95.003629,788.2706 C 101.741,776.55671 110.57537,766.18539 118.5512,755.30392 C 123.99121,748.33241 126.40983,740.58367 138.55848,741.71876 C 139.84982,741.75935 141.14117,741.79992 142.43251,741.8405 z "
       id="path1418"
       sodipodi:nodetypes="cccccccccccccccccccccccccccccccccccccccccccccccccccc" />
    <path
       style="fill:#000000;fill-opacity:1;fill-rule:nonzero;stroke:none;stroke-width:1px;stroke-linecap:butt;stroke-linejoin:miter;stroke-opacity:1"
       id="path1488"
       d="M 128.44577,878.72473 C 128.56315,880.55339 128.25858,882.39643 128.05688,884.21481 C 127.27202,890.50122 126.01935,896.71463 124.71781,902.91058 C 123.17201,909.91927 121.70997,916.96916 119.33897,923.75285 C 115.91679,932.66448 108.47734,938.69202 99.359558,940.83427 C 95.86603,941.55657 92.30186,941.68042 88.748231,941.7393 L 93.023189,930.50367 C 96.124875,930.32891 99.240987,930.09674 102.22465,929.15926 C 118.21426,923.27005 96.189119,935.8782 107.47533,925.69417 C 110.46234,919.53718 111.50232,912.67884 113.12056,906.07578 C 114.4336,900.03379 115.72058,893.97921 116.60017,887.85605 C 116.81493,886.30905 116.9825,884.63071 117.26852,883.15011 L 128.44577,878.72473 z " />
    <path
       style="fill:#000000;fill-opacity:1;fill-rule:nonzero;stroke:none;stroke-width:1px;stroke-linecap:butt;stroke-linejoin:miter;stroke-opacity:1"
       id="path1496"
       d="M 162.73148,883.01045 C 163.04092,884.0146 162.73124,884.75623 162.41745,886.09183 C 161.89065,889.79636 161.77663,893.5423 161.68234,897.27759 C 161.5874,902.75359 162.10154,908.2086 162.75636,913.6379 C 163.23708,918.47595 164.49761,923.1225 166.30865,927.61325 C 167.806,931.22029 170.21467,934.02226 173.21322,936.43639 C 176.67955,939.05966 180.81199,939.97499 184.99109,940.75454 C 184.9871,940.78382 187.08615,941.04758 187.08734,941.04775 L 181.82682,951.85708 C 181.76625,951.84664 179.58015,951.49797 179.5212,951.45945 C 174.42452,950.36898 169.50531,948.7574 165.33302,945.51478 C 161.5897,942.40383 158.40805,938.8843 156.37813,934.38816 C 154.13708,929.4262 152.58631,924.22514 151.90369,918.80841 C 151.15276,913.12996 150.52627,907.42408 150.49955,901.68893 C 150.48198,897.71455 150.61142,893.74133 150.97646,889.78215 C 151.05941,889.06546 151.19202,884.96219 151.55424,887.43583 L 162.73148,883.01045 z " />
  </g>
  <g
     inkscape:groupmode="layer"
     id="layer9"
     inkscape:label="8">
    <path
       style="opacity:1;color:#000000;fill:#543314;fill-opacity:1;fill-rule:evenodd;stroke:none;stroke-width:1px;stroke-linecap:butt;stroke-linejoin:miter;marker:none;marker-start:none;marker-mid:none;marker-end:none;stroke-miterlimit:4;stroke-dasharray:none;stroke-dashoffset:0;stroke-opacity:1;visibility:visible;display:inline;overflow:visible"
       d="M 357.14286,904.50504 C 361.28648,914.182 357.07778,926.89694 347.44764,931.51982 C 341.27164,930.77456 339.21274,941.81012 345.4506,943.05021 C 355.22754,943.64417 365.83768,942.48743 374.51734,947.98885 C 381.76559,951.63318 387.92571,956.9898 394.56444,961.57662 C 400.62915,963.0315 405.73868,957.11205 406.49887,951.55939 C 408.99223,944.93822 417.62543,943.86171 423.50558,946.16003 C 431.52315,948.61395 439.4718,952.82394 448.1065,951.82002 C 454.00891,949.15867 452.66088,939.75405 447.19953,937.37141 C 436.10236,929.53559 431.07738,916.30368 425.55715,904.45103 C 422.51213,897.45077 417.35786,891.10995 410.0778,888.29821 C 399.68096,883.70793 387.29362,885.18006 377.68166,890.993 C 370.37984,894.76865 363.93951,899.93362 357.14286,904.50504 z "
       id="path3429" />
    <path
       style="opacity:1;color:#000000;fill:#265d32;fill-opacity:1;fill-rule:evenodd;stroke:none;stroke-width:1px;stroke-linecap:butt;stroke-linejoin:miter;marker:none;marker-start:none;marker-mid:none;marker-end:none;stroke-miterlimit:4;stroke-dasharray:none;stroke-dashoffset:0;stroke-opacity:1;visibility:visible;display:inline;overflow:visible"
       d="M 410.79777,716.14957 C 399.80479,724.48829 390.32348,734.60232 379.50771,743.15437 C 366.88231,740.36017 357.40515,762.66368 373.61983,763.7166 C 383.11601,772.20265 368.39341,783.65477 359.97654,785.6636 C 353.12871,791.82589 334.84466,799.06104 340.50856,809.40993 C 349.10572,809.98256 350.61931,819.17678 342.53719,822.48069 C 326.29726,839.48988 304.86649,850.83109 290.02229,869.27447 C 288.99271,881.65584 305.13972,886.21418 314.62455,882.08486 C 322.77231,876.58611 339.45286,886.15828 328.3673,893.95623 C 317.35615,896.89119 313.93406,917.52405 329.18228,911.97247 C 344.0153,905.37185 361.42423,905.54718 376.14077,912.47777 C 386.59567,914.08672 396.37059,929.54511 406.28355,923.25346 C 409.27718,914.08448 395.55437,900.8352 408.72674,894.91914 C 420.08927,889.62327 432.5867,895.1559 444.25782,896.35556 C 455.69891,898.6879 466.84736,902.29479 477.69519,906.58615 C 489.62204,906.37092 488.51662,890.42005 481.17529,884.70305 C 472.84179,881.2182 468.97804,873.01596 463.43343,865.98403 C 456.72297,858.26729 453.85513,844.67728 467.17233,842.51308 C 479.79177,838.26953 475.97641,824.40844 467.32145,818.43367 C 458.99607,810.6582 446.89513,805.05224 444.1198,792.98319 C 444.11692,782.8529 459.78185,775.41502 453.00336,765.07482 C 441.97911,754.15755 424.94362,747.89936 419.82412,732.04316 C 417.20298,726.55065 414.88649,720.76199 410.79777,716.14957 z "
       id="path2307" />
    <path
       style="fill:#000000;fill-opacity:1;fill-rule:nonzero;stroke:none;stroke-width:1px;stroke-linecap:butt;stroke-linejoin:miter;stroke-opacity:1"
       d="M 415.98106,711.50962 C 431.73926,730.86593 444.88574,752.16614 459.27034,772.50987 C 464.84263,780.88773 447.85976,793.12594 447.35362,788.34491 C 457.43005,793.85691 460.5116,807.19433 470.57688,813.54384 C 477.77393,821.52184 494.51546,836.7024 480.10113,845.6623 C 473.51132,848.6432 456.11607,850.3252 453.98482,846.01086 C 463.05304,846.18014 466.24601,864.04119 475.49166,869.10422 C 482.46973,879.35685 498.5215,888.76694 494.0497,902.90948 C 486.80944,914.20209 471.45893,910.84874 460.5646,908.18587 C 442.91061,904.2921 425.424,898.85935 407.24655,898.0702 C 399.98891,901.5271 413.11366,891.21403 408.56492,898.78814 C 406.61448,910.1544 423.69604,923.20638 411.23573,932.49038 C 397.37518,937.47812 386.52737,924.3377 375.66458,918.04502 C 360.43708,909.14669 341.31758,911.4865 325.72063,918.15681 C 316.11011,929.66416 296.71019,915.00832 311.13502,905.01021 C 315.49046,899.81357 322.3589,887.434 328.94277,890.55865 C 329.31179,892.61563 325.87336,902.65293 330.13607,896.92357 C 327.6606,899.15981 316.39413,910.60778 320.74809,909.34299 C 338.70944,901.12186 360.80681,896.88254 379.03516,906.67343 C 386.26283,913.41805 405.52241,919.05696 405.66286,925.90588 C 400.721,917.65352 396.59782,907.33033 396.98776,897.76122 C 400.41447,885.76741 415.83536,884.75035 425.75702,888.50713 C 446.27949,891.88424 466.22463,900.07497 487.32258,898.95771 C 477.94653,896.9919 475.46638,883.2547 467.33315,877.7766 C 458.86508,868.58131 449.3072,859.22257 446.3146,846.63222 C 448.38162,833.56148 471.89538,831.7127 476.91907,839.79792 C 470.39073,834.27794 466.30131,823.08209 457.55328,817.58965 C 450.13611,808.63345 441.43782,800.23479 436.80743,789.39717 C 434.27407,781.25428 451.84215,777.55633 448.54357,779.1661 C 443.20447,769.23506 436.86959,759.98503 429.95453,751.11643 C 423.02193,741.20571 416.27797,731.16192 409.16379,721.37905 C 412.68861,719.07934 413.41449,714.59641 415.98106,711.50962 z "
       id="path1430" />
    <path
       style="fill:#000000;fill-opacity:1;fill-rule:nonzero;stroke:none;stroke-width:1px;stroke-linecap:butt;stroke-linejoin:miter;stroke-opacity:1"
       d="M 415.23148,710.1533 C 418.46749,724.20245 399.33348,727.81994 393.171,737.73954 C 383.80634,745.15436 373.53952,751.32586 364.09106,758.62753 C 371.90952,751.48758 394.35217,759.01162 387.65863,770.81988 C 380.44613,780.70572 368.93106,786.18436 359.34515,793.4844 C 351.16147,799.09954 342.99374,804.75417 335.19896,810.90447 C 333.25859,799.58391 358.53514,797.46568 355.39633,810.43704 C 352.06989,823.35241 338.43675,829.25788 330.35642,838.93939 C 319.49893,849.5007 307.55893,859.19724 298.15847,871.08495 C 296.86723,882.06339 315.39193,873.39131 322.07997,874.2292 C 332.67753,870.82378 351.89949,877.58349 341.34712,890.81667 C 321.71899,906.58732 316.05524,903.96356 323.31458,892.05382 C 323.66116,887.31056 341.93071,879.92065 333.04618,884.39563 C 319.46531,886.40967 304.48102,888.76188 291.16075,886.3322 C 276.83056,877.2917 290.05125,863.90123 298.73956,857.06965 C 311.19188,843.92571 327.92565,829.76151 338.8226,818.41492 C 349.0754,809.13796 330.50121,824.26358 327.32047,814.61083 C 319.48525,801.81864 339.99183,798.45899 346.47833,790.97477 C 358.62635,782.59468 371.028,774.50023 382.24955,764.87481 C 375.26747,774.44134 357.07956,767.56723 356.64432,756.29587 C 362.24361,743.32569 378.61457,739.34698 388.32031,729.77053 C 398.33654,725.58975 404.05364,708.91143 415.23148,710.1533 z "
       id="path1444"
       sodipodi:nodetypes="cccccccccccccccccccccc" />
    <path
       style="fill:#000000;fill-opacity:1;fill-rule:nonzero;stroke:none;stroke-width:1px;stroke-linecap:butt;stroke-linejoin:miter;stroke-opacity:1"
       id="path1498"
       d="M 364.87434,902.29998 C 365.01985,903.73993 364.71105,905.25903 364.55466,906.71364 C 364.22741,910.31281 363.71352,913.885 363.02438,917.43041 C 361.98492,922.2004 359.46298,926.29035 356.4104,930.02266 C 350.54299,937.1267 344.24192,940.77272 335.58006,942.86857 C 332.7744,943.47433 329.9126,943.65962 327.05451,943.80142 L 331.11314,932.48585 C 333.58875,932.20368 336.0797,931.97336 338.46627,931.19875 C 343.16185,929.57729 356.14022,920.05735 344.39285,929.71756 C 347.29196,927.00205 349.92324,924.05431 351.34302,920.26954 C 352.2927,917.08375 352.84367,913.82304 353.14782,910.50819 C 353.25382,909.50947 353.38666,906.9028 353.6971,906.72536 L 364.87434,902.29998 z " />
    <path
       style="fill:#000000;fill-opacity:1;fill-rule:nonzero;stroke:none;stroke-width:1px;stroke-linecap:butt;stroke-linejoin:miter;stroke-opacity:1"
       id="path1500"
       d="M 429.87434,895.15331 C 429.55377,894.87913 429.94047,896.39717 429.96364,896.83291 C 430.6932,899.93233 431.54248,903.00183 432.39035,906.07046 C 433.49775,910.19039 434.97652,914.1899 436.60037,918.12938 C 438.16552,922.04503 440.57243,925.39232 443.43982,928.43481 C 446.60759,931.56872 450.5148,933.64932 454.49579,935.54384 C 456.22857,936.33991 458.03457,936.94971 459.82742,937.59017 L 453.51094,947.8184 C 451.54724,947.07298 449.56855,946.36066 447.6753,945.44312 C 443.06776,943.19409 438.62331,940.58066 434.95246,936.9483 C 431.49547,933.40394 428.62101,929.4078 426.63229,924.84891 C 424.83103,920.6714 423.19629,916.42402 421.95632,912.04088 C 421.07245,908.90076 420.19798,905.75721 419.41105,902.59117 C 419.16622,901.58646 418.91499,900.57874 418.6971,899.57869 L 429.87434,895.15331 z " />
  </g>
  <g
     inkscape:groupmode="layer"
     id="layer10"
     inkscape:label="9">
    <path
       style="opacity:1;color:#000000;fill:#543314;fill-opacity:1;fill-rule:evenodd;stroke:none;stroke-width:1px;stroke-linecap:butt;stroke-linejoin:miter;marker:none;marker-start:none;marker-mid:none;marker-end:none;stroke-miterlimit:4;stroke-dasharray:none;stroke-dashoffset:0;stroke-opacity:1;visibility:visible;display:inline;overflow:visible"
       d="M 602.14288,914.50502 C 599.76334,918.64186 603.47294,923.82362 600.47824,927.7725 C 596.98332,934.44063 590.7083,938.93328 584.78894,943.29303 C 583.17832,946.15295 578.6129,947.27565 578.86121,951.09923 C 580.12428,954.56654 584.57184,953.67145 587.49147,953.79228 C 596.71879,953.7912 606.4229,951.41995 615.23615,955.24825 C 620.93315,957.75581 623.76179,964.93405 630.4182,965.57795 C 634.59505,966.23631 639.36164,963.29578 639.51345,958.81368 C 640.79968,953.02067 640.15477,946.04978 635.30292,942.02044 C 630.85715,937.46598 627.75541,931.39596 627.78267,924.93127 C 627.60494,920.04147 627.85724,914.29648 623.83495,910.74864 C 618.22401,905.38153 607.65613,905.49157 603.13341,912.20361 C 602.68906,912.91435 602.34585,913.69086 602.14288,914.50502 z "
       id="path3476" />
    <path
       style="opacity:1;color:#000000;fill:#265d32;fill-opacity:1;fill-rule:evenodd;stroke:none;stroke-width:1px;stroke-linecap:butt;stroke-linejoin:miter;marker:none;marker-start:none;marker-mid:none;marker-end:none;stroke-miterlimit:4;stroke-dasharray:none;stroke-dashoffset:0;stroke-opacity:1;visibility:visible;display:inline;overflow:visible"
       d="M 617.20062,691.31423 C 608.69316,686.61794 599.86508,695.61862 599.10041,703.91457 C 599.26956,713.75495 601.06142,723.6998 599.64756,733.63998 C 598.85617,746.51119 595.37427,759.14362 593.25964,771.69427 C 595.68101,781.32796 611.49399,779.31927 611.86799,790.01236 C 609.04842,802.68316 600.23265,812.9226 595.4457,824.84166 C 591.9242,832.99171 584.21048,842.08922 583.27193,849.64404 C 592.53089,855.18451 592.68718,870.08045 584.40006,876.5611 C 580.02271,886.43028 567.30822,895.0991 571.0693,906.96409 C 575.72532,916.43241 588.12279,915.90443 596.99683,914.40267 C 614.59291,911.80355 632.49856,912.69227 650.23887,912.20033 C 658.14179,906.57026 658.88242,891.7426 670.43396,892.31726 C 675.65522,884.6818 668.27843,876.87708 664.48109,870.49401 C 657.62209,855.83317 653.74205,839.80593 645.98421,825.49354 C 644.61236,814.4206 660.75759,807.24936 654.29268,795.68356 C 650.33589,784.21635 641.57696,775.27329 636.74173,764.23494 C 629.27447,755.63282 627.42678,744.18386 633.02977,734.16832 C 635.89418,722.20467 625.33654,714.34655 620.64221,704.75664 C 618.52229,700.61138 617.03857,696.01701 617.20062,691.31423 z "
       id="path2319" />
    <path
       style="fill:#000000;fill-opacity:1;fill-rule:nonzero;stroke:none;stroke-width:1px;stroke-linecap:butt;stroke-linejoin:miter;stroke-opacity:1"
       id="path1446"
       d="M 609.16005,705.86759 C 609.28953,708.12363 608.68829,710.51743 608.38313,712.7916 C 607.07739,721.8643 605.97002,730.96067 604.97118,740.07172 C 604.15888,750.73685 601.85569,761.43342 602.71215,772.15397 C 603.47833,777.409 606.55941,775.68335 610.26632,774.17301 C 616.98039,770.94266 621.48249,775.53131 620.20917,782.44424 C 617.5972,790.83695 613.41356,798.64979 609.44369,806.46266 C 604.31784,816.45833 599.15295,826.43385 594.0999,836.46667 C 591.8573,840.53346 588.57983,848.51841 587.30346,851.17659 C 590.44949,848.92396 594.15968,849.14259 597.56321,851.38423 C 601.44559,857.33645 597.0287,864.00546 594.30394,869.68316 C 590.58393,877.32185 586.58026,884.81691 582.7056,892.37695 C 580.48518,896.76254 578.0293,901.16836 577.76512,906.06412 C 581.48577,908.76317 586.80897,908.42265 591.29329,908.59591 C 601.991,908.79896 612.6919,908.54467 623.38779,908.33325 C 633.4204,907.65938 643.74641,908.91399 653.62869,906.75368 C 656.70408,904.87738 659.31,900.26377 650.21461,910.36222 C 648.8571,911.86944 650.50215,906.18975 649.78567,904.29207 C 647.53485,899.24865 644.46875,894.70382 644.19707,889.11403 C 652.49221,880.44212 656.4417,884.24978 665.4038,888.2169 C 674.25301,892.31753 675.8214,886.71173 668.67996,894.0867 C 668.26629,883.32506 662.9295,872.82815 658.7262,862.98268 C 652.95019,849.53881 646.71055,836.30129 640.41038,823.09706 C 637.62596,817.01252 634.38329,811.0962 632.27982,804.72796 C 631.98758,792.01125 641.67084,796.63059 646.60973,800.97872 C 648.96252,803.26993 651.71899,805.23451 654.56739,806.46698 C 645.26291,812.28368 649.28583,813.20998 646.39411,803.31122 C 643.34669,794.21285 639.45463,785.4214 635.48887,776.69275 C 630.91138,766.75742 626.31873,756.82874 621.59269,746.96303 C 619.50619,742.62783 617.39231,738.30541 615.1944,734.02554 C 626.82045,724.21606 624.3745,726.59916 630.04093,735.39538 C 632.32327,738.92819 634.55223,742.84202 638.06532,744.97247 C 628.84782,741.035 633.50475,756.49627 630.19963,744.4384 C 628.24136,738.04808 625.70101,731.85612 623.15191,725.68392 C 620.58882,719.59866 617.86525,713.58176 615.08926,707.59103 C 613.27926,703.60446 611.4697,699.60259 608.52977,696.34503 C 606.22589,695.58087 607.64768,696.33233 606.62368,697.69588 C 616.52572,687.09447 610.42933,693.30071 609.01948,697.90096 C 608.25645,701.00431 608.12823,704.1913 608.08153,707.36999 L 596.94361,711.89343 C 596.86118,708.30359 596.86666,704.70515 597.44517,701.14904 C 598.69795,694.10187 600.36919,690.4796 606.74914,685.67511 C 610.46363,684.43068 613.71491,685.02718 616.77658,687.59832 C 620.44441,691.3715 622.88408,695.94303 624.98119,700.75988 C 627.81293,706.81806 630.56132,712.9166 633.18808,719.0665 C 635.8388,725.42977 638.4596,731.81652 640.58242,738.37932 C 642.75338,745.52115 643.31876,758.36282 631.71526,755.17989 C 626.83485,752.23569 623.60981,747.77368 620.66889,742.92396 C 614.83451,733.91734 612.37809,734.38132 624.91132,726.94769 C 627.17043,731.28342 629.3234,735.6734 631.44669,740.0773 C 636.20056,749.97687 640.81343,759.94281 645.41631,769.91331 C 649.49824,778.86047 653.48785,787.87057 656.72483,797.16378 C 659.02896,804.44379 662.50341,819.33927 648.71135,816.96562 C 644.89572,815.11985 641.49756,812.67716 638.39943,809.75971 C 631.83848,803.98392 639.65485,808.58057 643.26594,799.84739 C 644.6279,804.92623 647.78668,811.03766 650.27394,816.22502 C 656.61133,829.50382 662.90298,842.80871 668.73254,856.32026 C 673.49054,867.39415 678.75082,878.71478 680.23452,890.76903 C 678.90017,904.28822 666.96204,902.33707 658.68221,898.1836 C 650.25712,894.43884 645.11363,896.51879 656.2185,889.10677 C 657.03936,892.09374 658.46042,894.89032 659.82093,897.67328 C 663.67806,906.91777 662.54932,916.30901 650.35746,918.32147 C 639.99175,919.61971 629.49725,919.14399 619.07577,919.55471 C 608.26066,919.76205 597.43572,920.03007 586.62153,919.67244 C 579.86474,919.25567 572.41095,918.92098 567.99681,913.0709 C 564.82594,906.46567 567.67157,900.17354 570.79569,894.01055 C 574.56145,886.40718 578.63108,878.9586 582.39945,871.35586 C 584.20836,867.71274 586.28482,860.5192 589.276,860.09266 C 588.34887,860.69729 583.04164,863.1804 579.53442,860.35029 C 573.26823,853.61693 578.81481,845.15563 582.18868,838.0908 C 587.20385,828.02395 592.38063,818.03909 597.526,808.0385 C 601.38894,800.51262 605.32662,792.99838 608.49549,785.14689 C 610.19856,781.08739 613.73034,785.01309 607.82746,785.94445 C 600.36824,787.84925 594.04224,785.45493 591.93767,777.4855 C 590.22216,766.29543 592.63204,755.03692 593.56162,743.85809 C 594.55822,734.69813 595.58547,725.54201 596.92371,716.42429 C 597.12834,714.89718 597.44416,710.59247 597.98281,710.29297 L 609.16005,705.86759 z " />
    <path
       style="fill:#000000;fill-opacity:1;fill-rule:nonzero;stroke:none;stroke-width:1px;stroke-linecap:butt;stroke-linejoin:miter;stroke-opacity:1"
       id="path1502"
       d="M 611.30291,911.58188 C 611.74597,912.83847 611.40754,913.15551 610.67721,915.29352 C 609.53496,918.64396 608.3643,921.98432 607.12471,925.29973 C 604.29019,932.71134 598.7829,938.70962 591.94077,942.71176 C 587.60228,945.19284 582.79036,946.28803 577.90311,947.03007 L 581.33885,935.51007 C 585.4652,934.62378 589.42481,933.28578 592.84364,930.72429 C 600.80796,923.76101 585.14449,940.11447 595.2642,927.26009 C 596.66933,924.15655 597.82894,920.95979 598.90444,917.7259 C 599.20881,916.84241 600.3001,912.77656 600.12567,916.00726 L 611.30291,911.58188 z " />
    <path
       style="fill:#000000;fill-opacity:1;fill-rule:nonzero;stroke:none;stroke-width:1px;stroke-linecap:butt;stroke-linejoin:miter;stroke-opacity:1"
       id="path1504"
       d="M 634.16005,913.01045 C 634.04476,913.42084 634.2102,914.93023 634.26091,915.68882 C 634.42723,918.55336 634.4339,921.42233 634.44757,924.29051 C 634.39149,927.73679 634.85898,931.12597 635.58273,934.48307 C 636.44409,938.28035 638.69309,941.06326 641.47374,943.6401 C 645.05883,946.56367 649.25592,948.50494 653.54589,950.146 L 647.07985,960.28035 C 642.17154,958.27586 637.38462,955.90655 633.3073,952.4619 C 629.6044,949.11316 626.60904,945.2732 625.13402,940.42775 C 624.11009,936.63709 623.36228,932.78637 623.32065,928.84092 C 623.26306,926.01682 623.28928,923.19201 623.18789,920.36888 C 623.15032,919.39248 623.18164,918.38935 622.98281,917.43583 L 634.16005,913.01045 z " />
  </g>
  <g
     inkscape:groupmode="layer"
     id="layer11"
     inkscape:label="1-crop">
    <rect
       style="opacity:1;color:#000000;fill:#265d32;fill-opacity:0.0931677;fill-rule:evenodd;stroke:none;stroke-width:1px;stroke-linecap:butt;stroke-linejoin:miter;marker:none;marker-start:none;marker-mid:none;marker-end:none;stroke-miterlimit:4;stroke-dasharray:none;stroke-dashoffset:0;stroke-opacity:1;visibility:visible;display:inline;overflow:visible"
       id="rect4440"
       width="204.28572"
       height="285.71429"
       x="25.714285"
       y="10.933611" />
  </g>
  <g
     inkscape:groupmode="layer"
     id="layer12"
     inkscape:label="2-crop">
    <rect
       style="opacity:1;color:#000000;fill:#265d32;fill-opacity:0.09316771;fill-rule:evenodd;stroke:none;stroke-width:1px;stroke-linecap:butt;stroke-linejoin:miter;marker:none;marker-start:none;marker-mid:none;marker-end:none;stroke-miterlimit:4;stroke-dasharray:none;stroke-dashoffset:0;stroke-opacity:1;visibility:visible;display:inline;overflow:visible"
       id="rect5318"
       width="204.28572"
       height="295.71429"
       x="285.71429"
       y="16.647898" />
  </g>
  <g
     inkscape:groupmode="layer"
     id="layer13"
     inkscape:label="3-crop">
    <rect
       style="opacity:1;color:#000000;fill:#265d32;fill-opacity:0.09316771;fill-rule:evenodd;stroke:none;stroke-width:1px;stroke-linecap:butt;stroke-linejoin:miter;marker:none;marker-start:none;marker-mid:none;marker-end:none;stroke-miterlimit:4;stroke-dasharray:none;stroke-dashoffset:0;stroke-opacity:1;visibility:visible;display:inline;overflow:visible"
       id="rect5321"
       width="204.28572"
       height="287.14285"
       x="517.14288"
       y="10.933611" />
  </g>
  <g
     inkscape:groupmode="layer"
     id="layer14"
     inkscape:label="4-crop">
    <rect
       style="opacity:1;color:#000000;fill:#265d32;fill-opacity:0.09316771;fill-rule:evenodd;stroke:none;stroke-width:1px;stroke-linecap:butt;stroke-linejoin:miter;marker:none;marker-start:none;marker-mid:none;marker-end:none;stroke-miterlimit:4;stroke-dasharray:none;stroke-dashoffset:0;stroke-opacity:1;visibility:visible;display:inline;overflow:visible"
       id="rect5324"
       width="167.14285"
       height="270"
       x="61.42857"
       y="353.79074" />
  </g>
  <g
     inkscape:groupmode="layer"
     id="layer15"
     inkscape:label="5-crop">
    <rect
       style="opacity:1;color:#000000;fill:#265d32;fill-opacity:0.09316771;fill-rule:evenodd;stroke:none;stroke-width:1px;stroke-linecap:butt;stroke-linejoin:miter;marker:none;marker-start:none;marker-mid:none;marker-end:none;stroke-miterlimit:4;stroke-dasharray:none;stroke-dashoffset:0;stroke-opacity:1;visibility:visible;display:inline;overflow:visible"
       id="rect5327"
       width="188.57146"
       height="291.42859"
       x="285.71429"
       y="340.93359" />
  </g>
  <g
     inkscape:groupmode="layer"
     id="layer16"
     inkscape:label="6-crop">
    <rect
       style="opacity:1;color:#000000;fill:#265d32;fill-opacity:0.09316771;fill-rule:evenodd;stroke:none;stroke-width:1px;stroke-linecap:butt;stroke-linejoin:miter;marker:none;marker-start:none;marker-mid:none;marker-end:none;stroke-miterlimit:4;stroke-dasharray:none;stroke-dashoffset:0;stroke-opacity:1;visibility:visible;display:inline;overflow:visible"
       id="rect5330"
       width="201.42857"
       height="304.28571"
       x="498.57144"
       y="335.21933" />
  </g>
  <g
     inkscape:groupmode="layer"
     id="layer17"
     inkscape:label="7-crop">
    <rect
       style="opacity:1;color:#000000;fill:#265d32;fill-opacity:0.09316771;fill-rule:evenodd;stroke:none;stroke-width:1px;stroke-linecap:butt;stroke-linejoin:miter;marker:none;marker-start:none;marker-mid:none;marker-end:none;stroke-miterlimit:4;stroke-dasharray:none;stroke-dashoffset:0;stroke-opacity:1;visibility:visible;display:inline;overflow:visible"
       id="rect5333"
       width="192.85715"
       height="268.57144"
       x="45.714287"
       y="696.64789" />
  </g>
  <g
     inkscape:groupmode="layer"
     id="layer18"
     inkscape:label="8-crop">
    <rect
       style="opacity:1;color:#000000;fill:#265d32;fill-opacity:0.09316771;fill-rule:evenodd;stroke:none;stroke-width:1px;stroke-linecap:butt;stroke-linejoin:miter;marker:none;marker-start:none;marker-mid:none;marker-end:none;stroke-miterlimit:4;stroke-dasharray:none;stroke-dashoffset:0;stroke-opacity:1;visibility:visible;display:inline;overflow:visible"
       id="rect5336"
       width="232.85715"
       height="271.42856"
       x="272.85715"
       y="700.93359" />
  </g>
  <g
     inkscape:groupmode="layer"
     id="layer19"
     inkscape:label="9-crop">
    <rect
       style="opacity:1;color:#000000;fill:#265d32;fill-opacity:0.09316771;fill-rule:evenodd;stroke:none;stroke-width:1px;stroke-linecap:butt;stroke-linejoin:miter;marker:none;marker-start:none;marker-mid:none;marker-end:none;stroke-miterlimit:4;stroke-dasharray:none;stroke-dashoffset:0;stroke-opacity:1;visibility:visible;display:inline;overflow:visible"
       id="rect5339"
       width="161.42857"
       height="300"
       x="540"
       y="676.64789" />
  </g>
  <g
     inkscape:groupmode="layer"
     id="layer20"
     inkscape:label="1-path">
    <rect
       style="opacity:1;color:#000000;fill:#265d32;fill-opacity:0.09316771;fill-rule:evenodd;stroke:none;stroke-width:1px;stroke-linecap:butt;stroke-linejoin:miter;marker:none;marker-start:none;marker-mid:none;marker-end:none;stroke-miterlimit:4;stroke-dasharray:none;stroke-dashoffset:0;stroke-opacity:1;visibility:visible;display:inline;overflow:visible"
       id="rect5342"
       width="202.85715"
       height="100"
       x="28.571428"
       y="199.50504" />
  </g>
  <g
     inkscape:groupmode="layer"
     id="layer21"
     inkscape:label="2-path">
    <rect
       style="opacity:1;color:#000000;fill:#265d32;fill-opacity:0.09316771;fill-rule:evenodd;stroke:none;stroke-width:1px;stroke-linecap:butt;stroke-linejoin:miter;marker:none;marker-start:none;marker-mid:none;marker-end:none;stroke-miterlimit:4;stroke-dasharray:none;stroke-dashoffset:0;stroke-opacity:1;visibility:visible;display:inline;overflow:visible"
       id="rect5345"
       width="200"
       height="94.285713"
       x="284.28571"
       y="210.93361" />
  </g>
  <g
     inkscape:groupmode="layer"
     id="layer22"
     inkscape:label="3-path">
    <rect
       style="opacity:1;color:#000000;fill:#265d32;fill-opacity:0.09316771;fill-rule:evenodd;stroke:none;stroke-width:1px;stroke-linecap:butt;stroke-linejoin:miter;marker:none;marker-start:none;marker-mid:none;marker-end:none;stroke-miterlimit:4;stroke-dasharray:none;stroke-dashoffset:0;stroke-opacity:1;visibility:visible;display:inline;overflow:visible"
       id="rect5348"
       width="201.42857"
       height="87.14286"
       x="518.57141"
       y="209.50504" />
  </g>
  <g
     inkscape:groupmode="layer"
     id="layer23"
     inkscape:label="4-path">
    <rect
       style="opacity:1;color:#000000;fill:#265d32;fill-opacity:0.09316771;fill-rule:evenodd;stroke:none;stroke-width:1px;stroke-linecap:butt;stroke-linejoin:miter;marker:none;marker-start:none;marker-mid:none;marker-end:none;stroke-miterlimit:4;stroke-dasharray:none;stroke-dashoffset:0;stroke-opacity:1;visibility:visible;display:inline;overflow:visible"
       id="rect5351"
       width="170"
       height="78.571426"
       x="55.714287"
       y="549.50507" />
  </g>
  <g
     inkscape:groupmode="layer"
     id="layer24"
     inkscape:label="5-path">
    <rect
       style="opacity:1;color:#000000;fill:#265d32;fill-opacity:0.09316771;fill-rule:evenodd;stroke:none;stroke-width:1px;stroke-linecap:butt;stroke-linejoin:miter;marker:none;marker-start:none;marker-mid:none;marker-end:none;stroke-miterlimit:4;stroke-dasharray:none;stroke-dashoffset:0;stroke-opacity:1;visibility:visible;display:inline;overflow:visible"
       id="rect5354"
       width="192.85715"
       height="88.571426"
       x="281.42856"
       y="548.07648" />
  </g>
  <g
     inkscape:groupmode="layer"
     id="layer25"
     inkscape:label="6-path">
    <rect
       style="opacity:1;color:#000000;fill:#265d32;fill-opacity:0.09316771;fill-rule:evenodd;stroke:none;stroke-width:1px;stroke-linecap:butt;stroke-linejoin:miter;marker:none;marker-start:none;marker-mid:none;marker-end:none;stroke-miterlimit:4;stroke-dasharray:none;stroke-dashoffset:0;stroke-opacity:1;visibility:visible;display:inline;overflow:visible"
       id="rect5357"
       width="197.14285"
       height="87.14286"
       x="501.42856"
       y="550.93359" />
  </g>
  <g
     inkscape:groupmode="layer"
     id="layer26"
     inkscape:label="7-path">
    <rect
       style="opacity:1;color:#000000;fill:#265d32;fill-opacity:0.09316771;fill-rule:evenodd;stroke:none;stroke-width:1px;stroke-linecap:butt;stroke-linejoin:miter;marker:none;marker-start:none;marker-mid:none;marker-end:none;stroke-miterlimit:4;stroke-dasharray:none;stroke-dashoffset:0;stroke-opacity:1;visibility:visible;display:inline;overflow:visible"
       id="rect5360"
       width="184.28572"
       height="102.85714"
       x="51.42857"
       y="859.50507" />
  </g>
  <g
     inkscape:groupmode="layer"
     id="layer27"
     inkscape:label="8-path">
    <rect
       style="opacity:1;color:#000000;fill:#265d32;fill-opacity:0.09316771;fill-rule:evenodd;stroke:none;stroke-width:1px;stroke-linecap:butt;stroke-linejoin:miter;marker:none;marker-start:none;marker-mid:none;marker-end:none;stroke-miterlimit:4;stroke-dasharray:none;stroke-dashoffset:0;stroke-opacity:1;visibility:visible;display:inline;overflow:visible"
       id="rect5363"
       width="235.71428"
       height="118.57143"
       x="272.85715"
       y="859.50507" />
  </g>
  <g
     inkscape:groupmode="layer"
     id="layer28"
     inkscape:label="9-path">
    <rect
       style="opacity:1;color:#000000;fill:#265d32;fill-opacity:0.09316771;fill-rule:evenodd;stroke:none;stroke-width:1px;stroke-linecap:butt;stroke-linejoin:miter;marker:none;marker-start:none;marker-mid:none;marker-end:none;stroke-miterlimit:4;stroke-dasharray:none;stroke-dashoffset:0;stroke-opacity:1;visibility:visible;display:inline;overflow:visible"
       id="rect5366"
       width="170.00005"
       height="78.571449"
       x="535.71429"
       y="899.50507" />
  </g>
</svg>
