<?xml version="1.0" encoding="UTF-8" standalone="no"?>
<!DOCTYPE svg PUBLIC "-//W3C//DTD SVG 20010904//EN"
"http://www.w3.org/TR/2001/REC-SVG-20010904/DTD/svg10.dtd">
<!-- Created with Inkscape (http://www.inkscape.org/) -->
<svg
   width="744.09448819"
   height="1052.3622047"
   id="svg1703"
   sodipodi:version="0.32"
   inkscape:version="0.40"
   sodipodi:docbase="/home/kkowal"
   sodipodi:docname="tree-juniper.svg"
   inkscape:export-filename="C:\Documents and Settings\Cowbert\Desktop\tree-juniper.png"
   inkscape:export-xdpi="72.000000"
   inkscape:export-ydpi="72.000000"
   xmlns="http://www.w3.org/2000/svg"
   xmlns:cc="http://web.resource.org/cc/"
   xmlns:inkscape="http://www.inkscape.org/namespaces/inkscape"
   xmlns:sodipodi="http://sodipodi.sourceforge.net/DTD/sodipodi-0.dtd"
   xmlns:rdf="http://www.w3.org/1999/02/22-rdf-syntax-ns#"
   xmlns:dc="http://purl.org/dc/elements/1.1/"
   xmlns:xlink="http://www.w3.org/1999/xlink">
  <defs
     id="defs1705" />
  <sodipodi:namedview
     id="base"
     pagecolor="#ffffff"
     bordercolor="#666666"
     borderopacity="1.0"
     inkscape:pageopacity="0.0"
     inkscape:pageshadow="2"
     inkscape:zoom="0.49497475"
     inkscape:cx="655.94028"
     inkscape:cy="747.31113"
     inkscape:document-units="px"
     inkscape:current-layer="layer1"
     inkscape:window-width="1280"
     inkscape:window-height="977"
     inkscape:window-x="-4"
     inkscape:window-y="-4" />
  <metadata
     id="metadata1708">
    <rdf:RDF
       id="RDF5">
      <cc:Work
         rdf:about=""
         id="Work6">
        <dc:format
           id="format7">image/svg+xml</dc:format>
        <dc:type
           rdf:resource="http://purl.org/dc/dcmitype/StillImage"
           id="type9" />
      </cc:Work>
    </rdf:RDF>
  </metadata>
  <g
     inkscape:label="Layer 1"
     inkscape:groupmode="layer"
     id="layer1">
    <path
       style="opacity:1;color:#000000;fill:#7d863a;fill-opacity:1;fill-rule:evenodd;stroke:none;stroke-width:1px;stroke-linecap:butt;stroke-linejoin:miter;marker:none;marker-start:none;marker-mid:none;marker-end:none;stroke-miterlimit:4;stroke-dasharray:none;stroke-dashoffset:0;stroke-opacity:1;visibility:visible;display:inline;overflow:visible"
       d="M 326.27927,275.0498 C 328.84012,287.1926 320.73266,299.83523 309.46086,304.24493 C 305.93457,305.96468 304.31857,309.11548 306.71311,312.89615 C 305.32217,335.42484 395.60645,335.90101 384.20844,311.05309 C 386.41281,306.62284 386.8327,305.18775 381.82124,303.51611 C 377.28501,301.3999 371.12141,301.01828 368.59219,296.05552 C 366.06722,290.26647 368.82754,283.0225 364.47642,277.89186 C 359.59714,273.05698 352.19235,273.81726 345.91701,274.14925 C 339.37217,274.2066 332.71,273.46145 326.27927,275.0498 z "
       id="path5312"
       sodipodi:nodetypes="ccccccccc" />
    <path
       style="fill:#52724d;fill-opacity:1;fill-rule:evenodd;stroke:none;stroke-width:1px;stroke-linecap:butt;stroke-linejoin:miter;stroke-opacity:1"
       d="M 316.68283,112.92032 C 305.44205,107.45217 290.97324,120.23093 295.07966,132.05921 C 295.23343,156.17753 305.20647,180.5168 297.8052,204.4118 C 288.87151,215.56264 280.44243,231.15968 287.15186,245.42769 C 295.63402,265.9783 318.99191,277.14436 340.46968,275.73943 C 363.08217,278.50879 388.74618,274.43453 404.80255,256.90381 C 418.98575,238.60839 424.04619,215.43314 434.90065,195.32706 C 438.15377,185.1185 434.57227,169.94743 422.60104,167.69514 C 413.39926,167.50179 402.84615,172.12235 394.55257,166.04672 C 386.08185,157.38964 396.64513,149.20276 393.54436,130.08173 C 367.42571,140.1599 362.62842,136.36794 361.74137,121.11059 C 363.06247,108.40488 364.74099,95.582561 364.00582,82.82819 C 366.06629,73.505394 370.34743,58.634281 358.65413,54.024888 C 347.82807,51.25555 338.1986,62.465067 337.78699,72.595142 C 332.98316,86.998308 327.45466,101.82017 316.68283,112.92032 z "
       id="path2267"
       sodipodi:nodetypes="ccccccccccccccc" />
    <path
       style="fill:#000000;fill-opacity:1;fill-rule:nonzero;stroke:none;stroke-width:1px;stroke-linecap:butt;stroke-linejoin:miter;stroke-opacity:1"
       d="M 403.44583,258.61029 C 399.86729,271.39447 385.79412,276.4753 374.6487,280.88378 C 347.32183,288.95603 316.08502,284.36972 292.77459,267.84506 C 277.66714,255.05313 272.20656,230.8204 282.1779,213.46258 C 284.1825,207.96978 303.35991,200.4255 297.32358,210.73265 C 292.82449,209.68417 298.03919,195.49998 295.52446,190.15835 C 294.27092,167.87413 288.73938,145.86352 289.23631,123.50924 C 289.2613,111.13449 304.73312,97.354113 314.26849,109.68541 C 307.49476,117.14521 318.0957,101.28487 320.24853,97.405744 C 331.11094,78.802083 339.35313,58.346507 353.3077,41.762738 C 368.02383,33.136175 373.34414,55.789394 371.19803,66.440041 C 372.05462,88.443269 369.69393,110.42455 370.41493,132.42848 C 382.29201,140.3936 386.40886,113.27698 399.28844,120.51975 C 409.6708,129.57402 400.48057,144.63837 397.4404,155.36236 C 392.39756,162.88466 398.67694,169.35374 405.69436,163.1524 C 414.83711,158.92061 427.69358,153.16165 435.95599,162.02779 C 445.64079,174.99859 440.38497,192.07823 436.37163,206.15271 C 430.35022,224.61502 419.93131,241.19541 409.24714,257.26186 C 405.68447,261.45395 388.53344,266.77468 398.08934,257.19437 C 413.74521,235.85666 426.76433,211.04338 428.73897,184.26768 C 430.35085,166.33088 410.08103,169.78591 400.2404,176.72722 C 388.81189,184.04346 377.37466,172.1181 384.04651,160.88687 C 386.23912,152.10032 392.84539,143.23605 389.90277,134.04679 C 380.64429,135.96796 373.19535,154.04205 361.51806,146.96358 C 352.40733,136.19235 359.39143,121.26359 357.89204,108.70545 C 358.21977,91.122796 359.58135,73.384044 356.68305,55.933175 C 351.20683,52.693516 363.12108,44.457293 356.80919,51.590567 C 342.79983,73.005597 333.51894,97.376959 317.98192,117.76485 C 313.24792,124.36579 291.11243,121.66805 302.14921,112.61383 C 305.91598,114.20849 299.9469,125.50972 302.39964,131.06009 C 304.33035,152.34389 308.46451,173.45527 308.94565,194.85224 C 309.05926,204.70646 308.16131,218.67693 295.37644,219.51384 C 289.0182,222.41132 285.55671,214.30395 292.90217,213.24143 C 285.17974,230.95497 293.53903,255.4358 312.37389,262.49317 C 336.33574,274.02386 366.19258,275.77006 390.01134,263.04481 C 393.89649,260.32061 398.3856,256.58974 403.44583,258.61029 z "
       id="path1719" />
    <path
       style="opacity:1;color:#000000;fill:#7d863a;fill-opacity:1;fill-rule:evenodd;stroke:none;stroke-width:1px;stroke-linecap:butt;stroke-linejoin:miter;marker:none;marker-start:none;marker-mid:none;marker-end:none;stroke-miterlimit:4;stroke-dasharray:none;stroke-dashoffset:0;stroke-opacity:1;visibility:visible;display:inline;overflow:visible"
       d="M 562.1499,264.94827 C 560.3658,272.83667 559.97668,281.12523 556.645,288.59892 C 552.51432,294.56145 545.08296,296.42876 539.53545,300.65509 C 532.759,319.01768 616.53168,320.40457 603.85237,298.95777 C 596.28675,293.67206 592.39081,291.19925 590.6022,282.23609 C 588.75961,277.98394 587.3885,273.52971 586.49325,268.98346 C 583.43432,264.99853 577.82255,264.85207 573.28376,265.60595 C 569.5653,265.56489 565.8423,265.40866 562.1499,264.94827 z "
       id="path5343"
       sodipodi:nodetypes="cccccccc" />
    <path
       style="fill:#52724d;fill-opacity:1;fill-rule:evenodd;stroke:none;stroke-width:1px;stroke-linecap:butt;stroke-linejoin:miter;stroke-opacity:1"
       d="M 547.50269,97.768028 C 540.0006,88.803893 522.92464,98.613684 526.884,109.60979 C 529.85544,131.74726 531.15617,154.14145 535.83457,176.0252 C 534.2828,186.56604 523.6488,195.18208 527.17937,206.47066 C 532.54285,220.1607 530.222,237.66924 542.43686,248.03109 C 558.6642,261.47223 580.18834,268.5098 601.22934,266.70421 C 618.56863,260.64148 629.83854,242.44222 629.99074,224.42319 C 636.80837,214.15079 630.94934,194.05312 618.65473,195.86725 C 595.1326,202.61438 599.68353,181.6001 607.88568,174.19013 C 614.50233,163.49622 612.30179,147.70907 601.8999,140.18769 C 588.09499,123.54164 592.69762,100.64619 588.67719,80.91527 C 587.41043,69.37729 586.46713,57.759245 586.98119,46.144715 C 583.19024,34.967757 575.3336,37.529074 570.15892,51.656191 C 568.69769,67.113908 562.01982,83.910184 551.56463,96.249099 C 550.39378,97.125351 548.97644,97.716092 547.50269,97.768028 z "
       id="path3181"
       sodipodi:nodetypes="ccccccccccccccc" />
    <path
       style="fill:#000000;fill-opacity:1;fill-rule:nonzero;stroke:none;stroke-width:1px;stroke-linecap:butt;stroke-linejoin:miter;stroke-opacity:1"
       d="M 588.12598,271.90924 C 576.45438,276.67189 563.18435,271.91969 552.57257,266.38093 C 529.81694,253.7263 516.01696,226.71459 519.87207,200.84205 C 519.24603,190.21951 529.39998,175.65545 540.7032,183.67204 C 538.84467,185.81889 529.50641,195.12732 532.50036,185.75855 C 530.11863,169.58228 525.12548,153.82558 524.54905,137.3774 C 523.8159,124.02036 523.86957,110.12459 528.05349,97.337498 C 530.63741,87.688025 545.67402,73.005264 551.09753,88.521412 C 554.89988,95.25541 557.95105,105.91471 548.64692,108.45952 C 558.13473,89.413387 559.70885,67.593472 566.22571,47.484304 C 567.71928,37.57171 579.51273,20.695156 589.872,30.885419 C 599.10471,47.20206 597.78616,66.758953 599.43301,84.848324 C 600.33746,102.99295 599.66234,121.5163 603.25991,139.31623 C 602.19269,144.11765 591.97475,149.1622 599.03204,141.2258 C 602.9602,133.85188 611.41069,119.86716 620.26896,123.88583 C 625.1268,134.52293 618.87913,146.01055 617.10236,156.71313 C 613.7304,169.1785 610.38943,181.72897 605.11398,193.55431 C 614.95664,189.0549 629.88211,181.44159 637.55758,193.52677 C 643.14289,204.70523 637.75136,217.48015 634.59463,228.59667 C 628.39958,245.50455 617.63881,262.49149 600.87322,270.32044 C 596.29643,272.71579 581.62284,274.35637 589.45485,265.85742 C 592.21116,255.4831 604.57714,260.88906 611.06445,253.67023 C 615.92981,249.93032 603.08205,261.6043 609.94964,254.01021 C 620.66271,241.10915 625.04067,224.32464 627.58972,208.11062 C 625.06567,194.42993 609.53454,202.17088 602.03191,206.5333 C 586.96452,209.8714 594.15746,191.48206 597.2852,184.08873 C 602.43611,168.51184 607.46887,152.55725 608.99835,136.25432 C 611.09635,134.02288 621.46226,124.18094 615.39533,131.50316 C 610.5428,139.95582 606.88507,151.30853 596.20687,153.77836 C 586.35988,147.16126 589.42128,133.82083 587.78226,123.72412 C 586.16649,98.266691 587.60918,72.383787 581.56767,47.397434 C 581.34414,42.13771 571.8193,39.844475 580.74496,36.577087 C 585.61779,31.135114 575.83588,48.262947 576.30738,53.046079 C 572.31309,69.446413 569.21581,86.208425 563.19464,101.99933 C 559.96585,111.28068 546.26749,122.14346 541.63888,107.45321 C 541.31701,100.03092 533.27025,92.502692 542.85513,88.385526 C 543.62724,89.28574 537.40871,100.12406 537.94865,105.69596 C 535.56202,126.18062 538.38099,146.78297 542.99263,166.76119 C 545.61067,176.76871 548.96172,190.85535 536.029,195.22532 C 528.98401,198.18357 527.65659,190.82608 534.00025,188.34502 C 537.19478,185.26766 541.11199,181.2002 535.48027,186.91784 C 530.56863,197.83774 531.81421,210.69045 534.90432,221.96897 C 541.81264,243.5949 562.94301,261.56588 586.26318,260.6217 C 593.96467,257.5313 597.20047,260.85153 590.97728,267.08794 C 590.02684,268.69504 589.07642,270.30215 588.12598,271.90924 z "
       id="path1721" />
    <path
       style="opacity:1;color:#000000;fill:#7d863a;fill-opacity:1;fill-rule:evenodd;stroke:none;stroke-width:1px;stroke-linecap:butt;stroke-linejoin:miter;marker:none;marker-start:none;marker-mid:none;marker-end:none;stroke-miterlimit:4;stroke-dasharray:none;stroke-dashoffset:0;stroke-opacity:1;visibility:visible;display:inline;overflow:visible"
       d="M 122.75562,613.57361 C 128.2339,640.52516 130.17802,633.32895 117.91105,655.76277 C 106.50859,673.80626 179.51585,676.4246 164.88116,654.96445 C 158.45131,636.73751 155.24549,634.03731 160.33045,617.11649"
       id="path5403"
       sodipodi:nodetypes="cccc" />
    <path
       style="fill:#52724d;fill-opacity:1;fill-rule:evenodd;stroke:none;stroke-width:1px;stroke-linecap:butt;stroke-linejoin:miter;stroke-opacity:1"
       d="M 86.873123,515.46609 C 74.444916,526.99188 72.087202,546.97739 79.781052,561.76591 C 86.098933,592.47954 116.04134,614.79586 146.7294,616.16981 C 159.84238,618.60282 173.29786,619.4905 186.58557,618.12554 C 204.68537,609.93029 216.861,591.57099 219.98312,572.25063 C 217.55402,560.36855 204.19097,557.23185 196.64219,549.48841 C 190.1992,539.50019 195.56233,526.4683 203.47826,519.02123 C 209.99987,509.35859 194.76588,495.52096 186.20812,504.07406 C 176.76916,510.23112 162.30739,501.35019 163.54492,490.14421 C 162.41055,473.45316 161.23726,456.65631 157.2948,440.34595 C 159.43189,432.22476 151.68754,415.71747 142.58057,424.88177 C 132.48216,436.33642 137.60508,453.86353 128.6094,465.78619 C 119.68222,477.31181 112.82608,452.47041 103.43861,454.50457 C 92.605845,458.20559 95.170795,478.76709 91.752265,487.80833 C 88.768853,496.81255 88.326115,506.16893 86.873123,515.46609 z "
       id="path3240"
       sodipodi:nodetypes="ccccccccccccccc" />
    <path
       style="fill:#000000;fill-opacity:1;fill-rule:nonzero;stroke:none;stroke-width:1px;stroke-linecap:butt;stroke-linejoin:miter;stroke-opacity:1"
       d="M 125.46533,620.41186 C 98.456785,612.95477 79.364483,587.63131 73.035552,561.16598 C 70.397684,548.83401 69.48837,534.96715 75.280123,523.41445 C 76.890276,520.30749 86.600819,511.79324 85.505682,514.56271 C 83.342218,517.80314 78.071123,521.73194 82.273229,515.40558 C 90.545445,491.05904 91.197875,464.76113 100.13942,440.61834 C 102.96597,428.33959 118.87514,430.10028 118.12705,442.91071 C 118.17323,453.13996 122.87158,462.51485 123.62049,472.31161 C 117.33953,479.43432 123.91773,464.9443 125.48829,461.77835 C 131.97847,445.62392 134.35927,427.48129 144.88264,413.16343 C 153.74287,403.13828 162.77241,418.34332 162.33537,427.01044 C 167.83985,451.20933 170.19143,476.06338 175.77165,500.20388 C 183.95456,506.39102 189.49834,488.47339 198.6183,489.48821 C 209.78893,491.657 208.6409,504.99097 206.95911,513.55311 C 205.28859,523.59207 201.51605,533.09931 197.93875,542.57427 C 201.80415,550.71415 215.63759,542.30562 220.40401,551.86582 C 228.09552,562.58436 223.71945,576.95291 218.96373,588.03338 C 212.67348,601.19901 202.19587,612.2526 190.13579,620.28428 C 176.45765,628.69123 159.41879,628.49649 144.54543,623.63137 C 138.89768,621.17352 126.16473,619.74032 125.67821,614.57754 C 129.84993,608.06043 133.9722,601.61902 141.74847,607.72063 C 158.26903,614.17258 178.69776,618.10477 194.13407,606.83807 C 198.0035,604.44807 205.34528,597.16588 197.99838,604.47683 C 193.30969,609.16333 203.18284,598.46835 204.05153,595.61311 C 209.29876,586.3382 213.15276,575.12781 210.81198,564.4612 C 205.75422,554.29919 189.85433,563.62048 185.1815,552.90632 C 183.82953,541.68894 192.53564,532.17775 193.29449,521.11583 C 195.71156,515.73224 197.44988,497.52015 187.5452,506.17123 C 182.08596,512.60881 169.69605,520.92079 164.07165,510.16163 C 159.87865,498.51964 159.26244,485.89408 156.91325,473.77992 C 154.3119,457.57826 151.57453,441.36748 147.4238,425.47791 C 141.48437,421.98345 158.30202,411.01347 151.61914,420.21074 C 142.75651,438.73271 140.47292,460.07024 129.20002,477.4586 C 124.09886,487.1712 110.94549,484.95389 109.8387,473.94558 C 106.74631,465.14204 107.68952,455.34727 104.10734,446.75726 C 102.86736,440.3208 117.05078,433.24165 110.8297,443.30623 C 103.17704,466.85422 102.60593,492.25515 93.697745,515.395 C 92.317935,519.28621 79.219065,529.94146 87.392384,521.59501 C 90.140165,517.31969 82.751342,528.24067 84.34098,531.43194 C 81.1796,561.06328 98.076895,592.04869 124.88543,605.10893 C 134.52799,605.50664 131.63636,612.30859 127.21161,617.45908 C 126.62952,618.44334 126.04742,619.4276 125.46533,620.41186 z "
       id="path1723" />
    <path
       style="opacity:1;color:#000000;fill:#7d863a;fill-opacity:1;fill-rule:evenodd;stroke:none;stroke-width:1px;stroke-linecap:butt;stroke-linejoin:miter;marker:none;marker-start:none;marker-mid:none;marker-end:none;stroke-miterlimit:4;stroke-dasharray:none;stroke-dashoffset:0;stroke-opacity:1;visibility:visible;display:inline;overflow:visible"
       d="M 342.39847,615.71643 C 341.12907,630.84202 342.28811,627.71493 333.10023,647.23472 C 322.49863,665.1884 398.35902,670.27731 381.84276,639.70801 C 378.17136,617.01739 360.85638,607.41275 342.39847,615.71643 z "
       id="path5422"
       sodipodi:nodetypes="cccc" />
    <path
       style="opacity:1;color:#000000;fill:#52724d;fill-opacity:1;fill-rule:evenodd;stroke:none;stroke-width:1px;stroke-linecap:butt;stroke-linejoin:miter;marker:none;marker-start:none;marker-mid:none;marker-end:none;stroke-miterlimit:4;stroke-dasharray:none;stroke-dashoffset:0;stroke-opacity:1;visibility:visible;display:inline;overflow:visible"
       d="M 307.08636,507.88995 C 295.95144,500.30065 278.63127,512.58439 282.29344,525.61095 C 282.39644,550.46783 298.82585,570.58272 310.59494,591.13318 C 319.5163,606.74973 337.88319,613.64618 354.98482,615.12679 C 371.6807,618.26581 388.53856,622.93299 405.67723,621.04221 C 418.01398,615.1014 415.74534,597.98239 407.02147,590.05332 C 388.24338,576.50634 407.0308,561.29536 418.00841,552.91356 C 428.71033,541.82697 442.25204,530.78788 444.02565,514.41024 C 443.0705,503.94379 431.05025,502.43327 423.06284,499.54593 C 408.54112,495.0624 414.72606,477.67484 414.38963,466.67864 C 411.7289,453.03692 391.19212,462.31942 386.59448,450.10257 C 380.78387,437.81913 384.07002,415.67355 377.67317,403.62117 C 368.41958,394.65025 353.06555,417.8708 356.09093,427.362 C 357.77254,436.21584 356.73296,456.07967 343.63308,452.06396 C 338.25598,447.95464 329.96727,434.92969 323.8776,444.85678 C 318.25766,456.89288 324.2902,470.42254 320.60397,482.8681 C 318.74595,491.09731 318.76664,508.11729 307.08636,507.88995 z "
       id="path4162"
       sodipodi:nodetypes="ccccccccccccccccc" />
    <path
       style="fill:#000000;fill-opacity:1;fill-rule:nonzero;stroke:none;stroke-width:1px;stroke-linecap:butt;stroke-linejoin:miter;stroke-opacity:1"
       d="M 357.51638,624.19439 C 325.66464,620.31535 298.74959,596.14186 287.76438,566.52442 C 280.99633,549.57537 276.38692,531.25852 276.77597,512.96883 C 277.90905,503.67245 287.52942,485.36442 297.98465,495.99294 C 301.38226,501.87271 317.85601,505.34716 306.75313,507.33977 C 316.9738,484.40692 309.89353,457.5722 320.73119,434.85855 C 330.29411,422.23215 343.63501,435.55323 347.40899,445.94918 C 353.41525,449.23858 354.1094,462.57577 346.88693,459.56781 C 347.41496,449.06752 351.70376,439.13399 352.58536,428.62809 C 355.21841,415.30464 359.58749,401.48684 369.63624,391.82403 C 384.12604,388.25852 385.06282,408.34068 388.16824,417.85716 C 391.83799,431.38296 392.48522,445.71034 398.00665,458.72188 C 405.81478,461.602 388.08874,471.08647 397.78165,461.73713 C 400.57633,452.30994 417.91584,439.9431 420.67283,455.51589 C 422.83638,468.0109 418.16715,480.43579 419.45074,492.95599 C 427.65064,499.39729 445.94811,487.41244 447.0993,503.7492 C 448.4633,518.00755 438.08869,529.47062 431.17407,540.85619 C 423.13346,551.92279 413.43165,561.63777 405.08355,572.45912 C 401.17153,586.44425 423.7173,589.59362 421.1198,604.20312 C 420.95173,619.59656 404.77958,631.14719 390.04717,628.80948 C 378.31366,628.01284 367.24565,623.56888 355.64673,621.95441 C 354.42653,607.62218 371.93315,607.75634 380.71397,613.19967 C 390.04717,615.89093 402.97603,617.6988 410.58309,613.16396 C 407.70575,616.87878 401.50368,622.48656 407.41981,614.67085 C 411.45905,604.166 400.21034,597.42853 394.38045,590.58713 C 383.44057,577.33583 401.54934,565.25546 408.93407,555.64056 C 419.40053,543.23591 429.51358,529.91289 434.43088,514.22841 C 433.15126,499.7933 414.03313,514.30447 407.9969,504.55743 C 402.48889,491.63207 410.75114,477.7027 407.4374,464.50074 C 407.33269,458.76013 416.39595,451.52745 409.67133,460.97954 C 404.48091,473.49805 384.01455,478.07722 383.27345,460.59537 C 377.67653,441.85321 377.40882,421.17418 368.17206,403.76344 C 369.05251,397.45213 379.39399,396.73257 371.98245,403.6128 C 363.46737,420.36627 364.62909,439.94252 357.97404,457.22449 C 352.89949,472.1043 336.65787,464.39223 333.85886,452.36581 C 330.60001,448.15146 320.67615,436.8497 330.93016,437.06813 C 323.60478,460.88527 329.09851,487.85298 316.79358,510.38299 C 310.1664,521.22133 293.67347,517.21182 288.27682,507.20633 C 280.07637,504.13493 296.83202,497.34536 291.16384,505.95277 C 286.91263,518.09622 292.34297,530.72849 294.63075,542.73198 C 301.7396,569.46456 318.29584,595.92225 345.07843,606.26488 C 350.81414,611.15911 366.43415,606.68526 359.47532,617.23347 C 358.79681,619.54653 358.16182,621.87199 357.51638,624.19439 z "
       id="path1725" />
    <path
       style="opacity:1;color:#000000;fill:#7d863a;fill-opacity:1;fill-rule:evenodd;stroke:none;stroke-width:1px;stroke-linecap:butt;stroke-linejoin:miter;marker:none;marker-start:none;marker-mid:none;marker-end:none;stroke-miterlimit:4;stroke-dasharray:none;stroke-dashoffset:0;stroke-opacity:1;visibility:visible;display:inline;overflow:visible"
       d="M 549.71286,633.57361 C 549.40759,650.37999 548.16234,654.75205 539.77713,669.64378 C 545.53194,681.67994 590.28281,687.34279 593.81105,668.27826 C 590.60048,634.98988 565.7164,628.54292 549.71286,633.57361 z "
       id="path5455"
       sodipodi:nodetypes="cccc" />
    <path
       style="opacity:1;color:#000000;fill:#52724d;fill-opacity:1;fill-rule:evenodd;stroke:none;stroke-width:1px;stroke-linecap:butt;stroke-linejoin:miter;marker:none;marker-start:none;marker-mid:none;marker-end:none;stroke-miterlimit:4;stroke-dasharray:none;stroke-dashoffset:0;stroke-opacity:1;visibility:visible;display:inline;overflow:visible"
       d="M 533.86563,598.29858 C 522.9798,586.55349 514.93221,572.49143 503.82401,560.93573 C 509.40973,553.81757 533.67891,548.20529 525.04207,536.6588 C 521.58306,526.81924 508.79335,518.41719 515.01046,507.8581 C 522.94346,498.20959 534.9579,489.71199 535.4914,476.03165 C 535.53845,459.29152 522.3476,444.89269 525.37617,427.85152 C 522.39073,409.40656 542.35553,412.36706 549.60677,420.73496 C 552.94611,429.57515 555.78123,445.05145 568.68787,442.2101 C 580.3453,424.00397 584.80445,409.22319 594.65992,435.70661 C 601.29991,441.11691 597.72501,450.44931 598.68129,457.81518 C 598.84012,476.68274 598.37012,495.69403 601.06611,514.40711 C 603.51605,525.5365 615.12818,529.72921 621.77776,537.61173 C 629.67387,549.01894 629.756,563.5082 632.97645,576.56212 C 635.76347,593.41957 632.17278,612.69842 618.27742,623.91937 C 599.47443,640.73438 570.75988,642.44274 548.3739,632.17908 C 538.83595,628.57523 527.42866,624.05226 523.6829,613.72988 C 522.62569,607.10661 526.6741,599.09205 533.86563,598.29858 z "
       id="path4184"
       sodipodi:nodetypes="ccccccccccccccccc" />
    <path
       style="fill:#000000;fill-opacity:1;fill-rule:nonzero;stroke:none;stroke-width:1px;stroke-linecap:butt;stroke-linejoin:miter;stroke-opacity:1"
       id="path1727"
       d="M 602.4459,623.27535 C 597.60736,619.77668 603.05313,622.16687 603.29868,621.71863 C 607.48638,622.71075 611.70507,622.94109 615.96315,622.52287 C 635.84975,609.87744 612.00735,631.5932 620.17091,620.69845 C 627.42055,609.45156 628.91606,596.23694 628.92143,583.14609 C 628.50517,567.72212 627.37376,551.69982 620.05209,537.84511 C 616.07031,531.40929 610.28507,532.24911 603.88422,533.88076 C 595.25435,535.48638 594.74082,526.97367 594.84965,520.51215 C 596.06673,505.84898 596.17504,491.16309 595.3981,476.47623 C 594.35816,461.78303 593.31601,446.91664 589.28963,432.69114 C 586.98135,426.63373 584.41889,422.25976 579.16547,427.4153 C 592.6363,410.29667 581.22128,429.72117 578.50227,439.17985 C 575.72268,449.8403 567.80151,463.38578 556.84596,454.5247 C 551.10984,447.90144 546.80066,440.16876 542.189,432.74645 C 538.16734,426.16971 534.39387,419.32846 527.22296,416.27517 C 518.82545,426.49907 532.44725,394.35053 529.03799,419.96942 C 528.4968,431.3248 531.30647,442.44044 534.20779,453.32356 C 537.04034,462.14475 538.96457,471.04349 538.60698,480.30806 C 537.25466,490.72349 529.34026,495.85645 522.01568,503.12168 C 514.08336,513.73667 533.15363,487.73024 520.53226,505.84866 C 517.01194,511.87779 520.32375,517.29557 523.85587,522.47376 C 528.88116,529.309 535.44676,534.79856 540.46995,541.62473 C 547.32072,554.24441 530.63827,558.95144 520.85937,558.67592 C 513.95358,558.19876 507.0976,557.15677 500.35626,558.97648 C 507.10837,554.80945 502.95607,548.58109 507.13571,560.2932 C 510.79166,567.50599 516.38654,573.42265 522.16103,578.98408 C 527.32853,583.9097 533.3292,587.85303 538.30562,592.96873 C 545.09403,601.27097 534.32813,605.04583 528.14858,610.1503 C 524.68325,610.89424 521.39893,612.05282 518.16985,613.45782 C 516.50957,614.97017 521.62522,610.58371 523.26072,609.04459 C 524.047,612.37763 526.72147,614.46958 529.18123,616.67006 C 532.89612,619.76942 537.23649,621.84044 541.65415,623.71532 C 546.57669,625.71909 551.76949,626.83289 556.96863,627.8293 C 562.65051,628.85022 568.39835,629.41223 574.14425,629.92024 C 579.69493,630.44203 585.25993,630.49687 590.8212,630.20028 C 595.96018,629.88056 601.0148,628.90655 606.00249,627.67415 C 610.8302,626.56197 615.328,624.63655 619.62326,622.21593 C 620.76663,621.5666 621.77568,620.71816 622.84973,619.97078 L 617.80749,634.09873 C 616.58648,634.8046 615.39623,635.56855 614.11685,636.16951 C 609.37148,638.32083 604.47639,640.06033 599.36076,641.12444 C 594.09372,642.18988 588.78566,643.07661 583.4006,643.23706 C 577.64157,643.3563 571.88392,643.19739 566.1486,642.61246 C 560.26443,642.03952 554.37866,641.40559 548.5729,640.2605 C 543.08661,639.10915 537.62056,637.79667 532.45473,635.5641 C 527.64163,633.40825 522.92658,631.01677 518.88017,627.57469 C 515.58595,624.66976 512.3938,621.64334 510.82433,617.43263 C 509.27572,608.96654 515.90724,602.56983 524.03773,599.65235 C 527.43154,598.57336 530.91234,597.73676 534.22838,596.43684 C 531.94184,598.70465 526.67349,606.44408 527.44654,603.3178 C 522.46761,598.45331 516.70149,594.47967 511.64192,589.67854 C 505.43933,583.69646 499.48335,577.31048 495.40716,569.64543 C 490.54532,559.02732 492.59609,549.15412 506.9161,545.48606 C 514.15136,544.67371 521.31714,545.42956 528.57119,545.80926 C 544.16305,545.21826 528.68994,550.41438 529.22583,551.55411 C 524.17393,544.82036 517.76311,539.26182 512.70728,532.51029 C 508.26986,526.1667 504.336,519.39573 506.62409,511.46881 C 511.07436,502.27831 518.80758,495.62049 526.29988,488.7457 C 521.81785,493.25747 518.58426,499.35224 525.35847,487.34368 C 526.59902,478.68232 524.61863,470.32471 521.99666,462.03627 C 518.90164,450.70328 515.95533,439.18733 515.98205,427.35625 C 516.49732,416.38473 522.8057,401.6177 535.91439,404.04889 C 544.10004,408.02622 548.99845,415.17742 553.54416,422.94424 C 557.94893,430.03433 562.07796,437.39394 567.38676,443.85163 C 564.38796,448.11876 558.54476,459.5255 564.95025,445.61146 C 568.89138,432.03244 571.50013,422.41992 583.92799,413.19062 C 592.7241,410.32279 598.15678,415.48325 601.35783,423.78152 C 605.90103,438.2687 607.01929,453.53871 608.17168,468.61121 C 609.04038,483.42748 609.19895,498.27509 607.87611,513.07345 C 607.6267,517.4331 605.24716,522.80421 610.5626,520.44862 C 619.02125,519.06236 626.406,520.42153 631.46313,528.108 C 639.55615,542.50907 641.28317,559.19038 641.81369,575.47716 C 642.0359,589.2613 640.92779,603.13192 634.23271,615.47458 C 628.54005,625.24967 620.33291,634.50751 608.7118,635.65455 C 604.02095,635.62408 599.36098,635.2394 594.79399,634.07553 C 592.38145,633.40603 590.99698,633.24144 589.53411,630.91136 L 602.4459,623.27535 z " />
    <path
       style="opacity:1;color:#000000;fill:#52724d;fill-opacity:1;fill-rule:evenodd;stroke:none;stroke-width:1px;stroke-linecap:butt;stroke-linejoin:miter;marker:none;marker-start:none;marker-mid:none;marker-end:none;stroke-miterlimit:4;stroke-dasharray:none;stroke-dashoffset:0;stroke-opacity:1;visibility:visible;display:inline;overflow:visible"
       d="M 87.378197,772.54993 C 79.363303,766.13823 65.185798,770.77473 63.232892,781.06403 C 64.755198,800.14169 82.526098,822.11118 78.238695,841.82828 C 75.027011,861.25197 84.098503,873.53124 95.253683,888.1655 C 106.38775,902.44561 89.584778,905.42764 79.966933,900.71389 C 69.053015,898.74205 54.633638,910.7612 55.249332,923.04776 C 55.808662,936.71431 69.077295,945.16717 80.836809,948.98258 C 101.02112,955.64393 122.09438,949.2828 142.26847,946.10392 C 152.3736,943.55539 164.33628,946.59903 172.73391,939.27157 C 184.78988,928.92185 188.68745,912.21566 189.76665,896.99325 C 190.06929,888.47562 188.7138,879.83825 185.33143,871.98826 C 177.79666,865.96424 161.41062,872.31292 160.16264,859.09446 C 157.74141,843.6346 166.37245,828.19056 161.24244,812.87348 C 159.32809,802.94451 153.83538,791.43037 143.13291,789.02428 C 132.94219,789.14809 127.53868,808.54889 117.58316,801.13605 C 105.36556,797.82544 102.12977,783.55134 92.113162,777.21358 C 90.478278,775.71835 88.867144,774.1925 87.378197,772.54993 z "
       id="path4251"
       sodipodi:nodetypes="ccccccccccccccccc" />
    <path
       style="fill:#7d863a;fill-opacity:1;fill-rule:evenodd;stroke:none;stroke-width:1px;stroke-linecap:butt;stroke-linejoin:miter;stroke-opacity:1"
       d="M 113.92857,976.91733 C 97.857143,992.63161 165.71429,1000.8459 155.71429,979.06018 C 145.71429,957.27447 147.85714,944.41733 147.85714,944.41733 L 117.14286,949.06018 C 117.14286,949.06018 125.71429,965.48875 113.92857,976.91733 z "
       id="path5494" />
    <path
       style="fill:#000000;fill-opacity:1;fill-rule:nonzero;stroke:none;stroke-width:1px;stroke-linecap:butt;stroke-linejoin:miter;stroke-opacity:1"
       id="path1729"
       d="M 154.25454,937.45591 C 156.24202,938.07324 160.15937,938.1811 162.74747,938.20819 C 174.1799,937.76264 186.45047,923.40648 173.09749,936.38892 C 180.67835,926.93387 180.94247,914.53429 181.0979,902.94223 C 180.61344,891.88036 181.09794,880.07753 176.04422,869.99946 C 171.64824,866.79534 168.06339,872.09597 164.91415,875.30477 C 157.69438,881.96384 155.95584,871.08953 156.13086,865.55909 C 157.12147,851.95087 157.10699,838.27652 155.92023,824.68263 C 155.0331,813.90233 153.15588,803.28119 145.43158,795.39265 C 145.32144,791.44019 131.31176,801.82123 134.15523,799.07375 C 148.92382,784.80373 143.36518,789.78954 140.13727,793.44286 C 133.6231,802.32513 126.90789,816.73749 115.04078,808.95592 C 107.80892,802.32858 102.41122,793.97633 96.239063,786.3905 C 90.390077,779.50392 83.358839,773.59828 73.955746,773.99476 C 68.068853,775.61733 59.160272,786.11584 75.373468,770.27749 C 78.099995,767.614 71.80227,777.22971 71.475241,781.02724 C 71.993777,792.04831 76.79764,802.18312 81.275044,812.07886 C 84.249057,818.30131 87.040323,824.58582 88.067966,831.43019 C 88.308695,835.37969 86.898418,839.12793 85.951005,842.90791 C 84.500446,848.77157 85.454183,854.39373 87.289167,860.04027 C 91.447775,870.18483 98.697617,878.58411 104.83564,887.55085 C 111.51008,896.56753 111.2959,909.43903 95.637817,910.6636 C 88.612603,910.44904 81.637258,909.76157 74.599069,909.93081 C 67.096953,910.02364 60.817873,912.12587 55.746023,917.60568 C 70.711627,901.3935 58.377595,913.42275 59.589862,922.34116 C 61.41682,928.63848 65.689812,933.06521 70.739783,936.95009 C 76.962576,941.12698 84.111526,943.22767 91.405257,944.56411 C 98.161958,945.75541 104.98759,945.5369 111.7773,944.8833 C 118.0895,944.14324 124.24224,942.49843 130.36517,940.8499 C 135.85704,939.22275 141.3649,937.70826 147.00514,936.70973 C 150.1035,936.13211 153.20529,936.43361 156.30809,936.67218 L 148.30144,949.35747 C 145.55152,949.36645 142.80767,949.35658 140.11178,950.03281 C 134.63612,951.29047 129.25349,952.8856 123.83117,954.35285 C 117.48114,955.96149 111.0944,957.52401 104.54101,958.02328 C 97.345098,958.46521 90.1235,958.45669 83.021469,957.00337 C 75.118699,955.32366 67.411225,952.77972 60.720432,948.11412 C 54.785608,943.63188 49.96185,938.18435 47.402371,931.08691 C 44.172444,918.43872 50.040525,911.97299 59.970623,903.21208 C 66.654746,898.69719 74.023992,896.80386 82.153085,896.97088 C 88.958358,896.99307 95.799479,898.02286 102.55995,897.35545 C 95.725434,904.3734 98.74437,909.1053 93.57971,897.46685 C 87.281771,888.16619 79.819222,879.5128 75.341267,869.11059 C 73.032113,862.87359 71.494486,856.4442 72.612356,849.7711 C 73.276938,846.16959 74.215343,842.66857 75.207986,839.15313 C 74.927992,832.80655 72.253658,827.10907 69.523583,821.40228 C 64.762004,810.92431 59.776402,800.29116 58.587521,788.7038 C 58.383273,775.25279 66.986479,761.7394 81.512378,761.03636 C 92.138658,762.07843 100.39375,767.98121 107.14731,776.09326 C 113.0671,783.33695 118.25267,791.29782 125.02796,797.7631 C 135.35397,799.18124 113.80957,811.48767 125.94278,798.2946 C 133.20473,787.79185 143.19908,776.07784 155.72386,784.47972 C 164.70791,792.87851 167.49948,804.7204 168.59682,816.66222 C 169.98642,830.44098 170.1232,844.34267 169.17791,858.15655 C 168.72254,865.17527 165.80494,866.11217 169.20778,860.93161 C 174.98623,856.21256 181.33987,853.53709 187.19864,859.9694 C 193.89421,870.30207 193.29838,883.40104 193.997,895.2848 C 194.1575,907.67858 193.81862,920.73909 187.34168,931.68509 C 177.5695,942.00282 170.05418,951.59359 155.07635,951.09915 C 151.58672,950.84257 147.96604,950.70035 144.79376,949.09707 L 154.25454,937.45591 z " />
    <path
       style="opacity:1;color:#000000;fill:#7d863a;fill-opacity:1;fill-rule:evenodd;stroke:none;stroke-width:1px;stroke-linecap:butt;stroke-linejoin:miter;marker:none;marker-start:none;marker-mid:none;marker-end:none;stroke-miterlimit:4;stroke-dasharray:none;stroke-dashoffset:0;stroke-opacity:1;visibility:visible;display:inline;overflow:visible"
       d="M 313.48042,984.33682 C 286.33756,1006.4797 396.6947,1008.9797 369.1947,983.62254 C 341.6947,958.26539 357.40899,947.19397 357.40899,947.19397 L 326.33756,942.90825 C 326.33756,942.90825 329.55185,964.33682 313.48042,984.33682 z "
       id="path6369" />
    <path
       style="opacity:1;color:#000000;fill:#52724d;fill-opacity:1;fill-rule:evenodd;stroke:none;stroke-width:1px;stroke-linecap:butt;stroke-linejoin:miter;marker:none;marker-start:none;marker-mid:none;marker-end:none;stroke-miterlimit:4;stroke-dasharray:none;stroke-dashoffset:0;stroke-opacity:1;visibility:visible;display:inline;overflow:visible"
       d="M 307.08637,740.22507 C 301.84717,751.83625 303.3834,765.68158 309.30695,776.73275 C 310.81807,787.14607 318.49481,797.92022 312.84881,808.35317 C 305.69514,816.96099 290.38902,811.35117 285.03786,822.25472 C 281.5657,837.8848 298.19381,851.01784 292.55037,866.64821 C 287.24835,875.86099 272.4556,875.38014 269.87926,886.66871 C 269.31357,901.94239 282.21942,912.86259 293.13079,921.52259 C 309.40824,936.04959 329.90167,946.36756 351.81644,948.30154 C 367.64594,945.47674 377.66704,931.29867 391.99677,925.25725 C 405.64714,912.46173 402.62508,891.64435 411.94467,876.46893 C 415.96329,866.61969 428.15348,846.11774 424.45325,835.0504 C 410.31731,844.28851 392.33147,859.72638 395.29351,825.61639 C 395.49812,812.8726 402.09845,799.32637 395.4904,787.17354 C 390.82531,770.45032 376.53795,787.68011 367.79838,795.60789 C 358.94723,799.20411 351.60415,789.42133 347.33182,781.88683 C 338.96334,768.9197 333.90284,753.38175 321.27856,743.58565 C 317.59939,740.56772 311.66775,737.35483 307.08637,740.22507 z "
       id="path4285"
       sodipodi:nodetypes="ccccccccccccccccc" />
    <path
       style="fill:#000000;fill-opacity:1;fill-rule:nonzero;stroke:none;stroke-width:1px;stroke-linecap:butt;stroke-linejoin:miter;stroke-opacity:1"
       d="M 319.75702,932.80472 C 338.41163,937.07425 359.12665,941.34763 377.32406,933.20229 C 380.98562,931.44405 389.84463,924.45985 390.24791,924.02885 C 382.30966,931.7739 394.83175,916.91627 395.48276,913.44248 C 407.34327,891.09552 412.34275,866.0122 416.92844,841.36557 C 411.25735,847.13774 399.21236,862.3647 393.25101,849.5111 C 389.37906,838.53243 392.96306,826.78049 391.87193,815.45668 C 391.96792,804.54344 392.95851,792.69272 387.13471,782.92295 C 382.76579,782.4855 379.67119,787.33765 384.90515,781.64806 C 386.76165,783.03495 376.70145,793.82602 375.38616,798.91314 C 367.7408,810.74425 352.51106,803.36121 347.4056,793.17708 C 339.35794,780.73989 333.18689,767.23737 325.48132,754.61147 C 322.2058,748.50173 313.33671,741.75531 309.34416,740.58138 C 312.45688,736.46528 318.39088,732.91449 313.72212,740.78998 C 310.08876,760.63451 320.64509,779.11198 325.9243,797.57978 C 328.22582,809.10925 318.36028,822.62348 305.89078,820.20178 C 301.13754,819.91746 289.82684,823.05545 289.33466,820.60467 C 295.2202,826.27567 285.18557,838.12775 291.18763,845.64373 C 297.0035,853.85133 301.64966,865.71061 294.24252,874.5022 C 288.68214,880.80661 277.06141,882.80405 270.17715,880.13211 C 275.97261,871.5321 274.42777,889.02496 278.8084,892.47419 C 286.81014,906.53247 299.22348,917.57202 311.76968,927.48718 C 327.65674,937.99638 347.18055,942.68822 366.09461,941.87653 C 369.77578,941.91333 381.90439,934.49057 378.6279,936.36297 C 376.45225,939.88005 395.51318,928.65313 387.14836,938.44891 C 378.96427,948.66752 366.4323,956.41305 352.92679,954.7796 C 327.94893,954.36726 303.71895,943.36965 286.30794,925.56357 C 274.69751,914.25037 263.6313,900.4937 260.79884,884.16989 C 261.63132,870.74922 277.90437,865.89934 288.96429,867.19701 C 286.16932,877.91304 281.88939,860.43861 280.43447,856.28135 C 275.40947,843.17497 274.06618,826.66201 283.9658,815.40598 C 292.45161,804.59905 307.39613,809.93284 318.7124,805.87877 C 318.86486,812.8173 307.7724,812.70086 312.65669,805.48409 C 307.73462,783.6609 294.60553,761.56365 302.1316,738.74373 C 305.48734,726.0213 324.60321,725.89387 330.64759,736.5187 C 345.11817,754.68469 351.912,778.23684 369.22639,794.25709 C 362.01557,801.60521 370.87924,786.51948 372.87773,784.30866 C 377.41964,773.87703 394.08458,763.14746 401.55582,776.75903 C 405.95163,786.79047 404.08152,798.15357 404.8459,808.81433 C 404.73743,819.84021 404.15823,830.88547 404.9788,841.89826 C 411.01125,836.94226 423.63807,821.21536 429.44711,832.48573 C 430.50452,842.19079 426.25284,851.59127 424.98015,861.16277 C 418.87835,887.42232 410.46621,914.94336 390.70974,934.31424 C 375.29347,948.74899 352.11698,955.27241 331.84502,948.15496 C 324.4798,947.22939 307.90214,941.72718 319.75702,932.80472 z "
       id="path1735" />
    <path
       style="opacity:1;color:#000000;fill:#7d863a;fill-opacity:1;fill-rule:evenodd;stroke:none;stroke-width:1px;stroke-linecap:butt;stroke-linejoin:miter;marker:none;marker-start:none;marker-mid:none;marker-end:none;stroke-miterlimit:4;stroke-dasharray:none;stroke-dashoffset:0;stroke-opacity:1;visibility:visible;display:inline;overflow:visible"
       d="M 546.57215,988.05184 C 527.64357,1003.0518 626.92929,1007.6947 605.14357,985.55184 C 583.35786,963.40898 588.715,944.48041 588.715,944.48041 L 559.42929,945.90898 C 559.42929,945.90898 566.92929,975.19469 546.57215,988.05184 z "
       id="path6371" />
    <path
       style="opacity:1;color:#000000;fill:#52724d;fill-opacity:1;fill-rule:evenodd;stroke:none;stroke-width:1px;stroke-linecap:butt;stroke-linejoin:miter;marker:none;marker-start:none;marker-mid:none;marker-end:none;stroke-miterlimit:4;stroke-dasharray:none;stroke-dashoffset:0;stroke-opacity:1;visibility:visible;display:inline;overflow:visible"
       d="M 521.23872,816.49157 C 508.9378,815.79878 501.94256,833.90488 511.09669,841.91931 C 519.95703,860.3319 515.68682,882.15294 524.92649,900.4426 C 523.76377,910.53545 514.53471,920.45822 520.33374,930.63737 C 535.12282,948.65682 561.26327,952.77951 582.9989,947.58112 C 613.74804,940.45392 640.24997,914.54292 645.08337,882.91416 C 643.63106,870.24304 626.34978,865.76645 627.21112,852.28081 C 627.90251,834.29891 637.65205,818.42649 640.77953,800.94952 C 637.34831,789.84463 623.63345,791.05661 614.38249,790.99792 C 603.07112,789.82512 598.28482,778.02522 596.12679,768.3662 C 592.96159,755.94777 591.62932,742.01929 582.37594,732.289 C 571.6165,726.32991 560.6396,741.19684 565.59576,750.98432 C 567.30179,763.68118 550.13524,768.68362 540.23569,764.7026 C 528.49982,765.23651 521.49317,780.39768 526.81036,790.41658 C 530.11348,797.94644 534.28013,809.00124 526.61893,815.30203 C 525.04781,816.34665 523.09322,816.67717 521.23872,816.49157 z "
       id="path4340" />
    <path
       style="fill:#000000;fill-opacity:1;fill-rule:nonzero;stroke:none;stroke-width:1px;stroke-linecap:butt;stroke-linejoin:miter;stroke-opacity:1"
       d="M 592.74232,934.78948 C 604.83693,934.11553 616.30524,928.31816 624.82545,919.84193 C 621.67448,924.58495 619.43745,923.46977 624.15086,919.25794 C 633.04813,907.40463 638.56122,893.02756 639.79178,878.25284 C 631.58015,872.88432 614.14981,869.13549 621.41429,855.7906 C 624.14931,840.57445 629.37062,825.8437 631.25937,810.48799 C 634.38893,804.1261 630.94171,787.48234 622.94893,798.92876 C 613.18212,808.20978 599.75552,798.94581 597.55955,787.6954 C 590.34493,771.45941 587.17951,753.3778 577.46643,738.33467 C 576.0625,734.92857 568.16847,730.35399 574.48528,728.26436 C 569.73629,738.58785 569.46477,749.99208 568.00875,761.13809 C 567.89642,773.91288 553.50507,783.7305 543.03938,774.09894 C 537.99628,773.39412 533.24584,760.05862 534.59217,769.27228 C 529.48991,783.74473 539.67914,797.9605 538.57314,812.50667 C 535.49626,824.29943 519.61464,828.96661 509.77693,822.64215 C 512.47847,813.77247 516.36021,824.91454 513.73638,829.00722 C 514.26442,856.17206 520.48899,883.88259 535.56005,906.80995 C 538.04589,917.59424 524.33435,922.5184 515.74656,921.1731 C 504.83774,919.81888 521.43544,909.58056 520.63778,919.97281 C 533.57414,936.01826 555.6958,937.5257 574.68249,939.4684 C 580.90177,938.17982 601.24867,932.77412 592.92759,945.14346 C 584.29252,954.41778 570.36507,951.65364 559.06283,951.28322 C 539.80085,949.79057 519.04846,943.57537 507.03032,927.42852 C 500.94196,915.34189 515.09812,904.11856 526.46216,906.39051 C 533.40437,911.68665 521.24703,919.74333 519.88976,909.85941 C 504.70802,882.35741 498.87929,850.17777 501.55818,819.00086 C 501.8919,804.4931 529.80305,817.70186 524.13444,804.38215 C 518.30885,788.84319 517.9052,767.78094 532.23419,756.70405 C 540.64037,750.76364 560.79821,760.90088 555.27021,770.31197 C 551.74868,766.27694 558.46976,754.90947 557.31672,747.88943 C 559.09896,737.00641 563.25503,723.31565 574.90485,719.5497 C 589.03345,718.90003 593.28295,735.53498 597.45831,746.07067 C 602.57908,759.77785 606.95549,773.82019 613.55421,786.92259 C 623.3999,795.94631 631.25888,772.68886 640.9489,781.72441 C 649.20811,793.06211 642.76473,807.34211 641.59887,819.81255 C 639.21522,832.17263 635.15178,844.16913 633.35435,856.64874 C 641.51602,862.02668 658.82972,865.51926 651.98762,878.88036 C 647.55102,910.26021 624.52,940.11982 592.93123,947.42608 C 580.61771,949.24604 590.74446,939.41407 592.74232,934.78948 z "
       id="path1737" />
    <path
       style="opacity:1;color:#000000;fill:#7d863a;fill-opacity:1;fill-rule:evenodd;stroke:none;stroke-width:1px;stroke-linecap:butt;stroke-linejoin:miter;marker:none;marker-start:none;marker-mid:none;marker-end:none;stroke-miterlimit:4;stroke-dasharray:none;stroke-dashoffset:0;stroke-opacity:1;visibility:visible;display:inline;overflow:visible"
       d="M 99.500023,253.83659 C 103.60749,265.49948 103.86494,278.13675 102.49957,290.31328 C 100.31493,296.93327 98.924684,294.5088 99.206148,301.83344 C 87.960936,318.38698 174.03945,323.42167 161.64125,296.85633 C 161.7785,288.76735 169.28285,286.32621 162.10749,283.32348 C 157.54306,280.49631 154.49831,275.72078 150.00418,272.99369 C 143.14968,270.04381 134.46948,272.59599 128.61157,267.15765 C 124.62499,262.26839 119.93291,256.51522 113.08152,256.28377 C 108.5783,255.4029 104.20622,253.00281 99.500023,253.83659 z "
       id="path4385"
       sodipodi:nodetypes="ccccccccc" />
    <path
       style="fill:#52724d;fill-opacity:1;fill-rule:evenodd;stroke:none;stroke-width:1px;stroke-linecap:butt;stroke-linejoin:miter;stroke-opacity:1"
       d="M 83.842659,159.89241 C 72.514991,163.15836 66.748585,176.79106 69.941907,187.66833 C 70.686632,203.53611 68.060687,221.08167 77.55915,234.98608 C 96.443662,247.86953 120.87399,254.19575 134.1204,274.14099 C 141.57281,283.99338 160.08786,273.96384 155.9396,262.34037 C 157.42301,249.56385 166.68948,240.89813 177.75377,238.16463 C 187.6392,234.14826 200.94,230.26538 206.7225,221.14025 C 208.53614,209.84004 192.03076,204.80597 195.14578,193.27813 C 199.71976,182.11254 212.05048,173.79231 210.79964,160.60225 C 206.92123,146.93226 187.3514,148.80314 182.85964,135.58672 C 180.36855,124.89769 192.03882,114.90107 186.15982,104.47017 C 178.08091,94.656359 163.02348,104.84913 154.56555,95.739573 C 145.82592,89.21624 161.07529,66.179536 149.29926,62.907251 C 139.62317,64.076116 135.79897,83.085308 132.46971,90.214848 C 127.28115,99.392362 130.00068,112.78354 120.04597,119.10084 C 110.88542,122.18589 98.077717,110.98789 91.216401,121.55619 C 84.579753,133.50037 95.060221,149.62584 83.842659,159.89241 z "
       id="path1358"
       sodipodi:nodetypes="ccccccccccccccccc" />
    <path
       style="fill:#000000;fill-opacity:1;fill-rule:nonzero;stroke:none;stroke-width:1px;stroke-linecap:butt;stroke-linejoin:miter;stroke-opacity:1"
       id="path1767"
       d="M 104.90804,247.22221 C 102.93651,244.10032 105.16835,248.00903 105.55793,248.68595 C 107.06843,251.66344 108.08273,254.83949 109.08451,258.01155 C 110.59402,263.16715 111.00891,268.5241 111.2592,273.86142 C 111.4931,279.75115 110.77245,285.58464 109.78989,291.37463 C 109.43143,293.3003 109.00515,295.21215 108.59649,297.12743 L 94.240107,304.38523 C 94.644871,302.48475 95.042499,300.58239 95.459888,298.68436 C 96.572368,293.22106 97.499318,287.71479 97.452269,282.11671 C 97.386359,277.16006 97.165722,272.18304 95.982352,267.34508 C 95.16475,264.42492 94.324606,261.50543 93.014028,258.75729 C 92.351936,257.62255 92.050912,256.34056 91.061556,255.411 L 104.90804,247.22221 z " />
    <path
       style="fill:#000000;fill-opacity:1;fill-rule:nonzero;stroke:none;stroke-width:1px;stroke-linecap:butt;stroke-linejoin:miter;stroke-opacity:1"
       id="path1773"
       d="M 162.48673,244.19176 C 162.48673,245.23489 162.48673,246.27802 162.48673,247.32115 C 162.48616,250.98284 162.48676,254.64455 162.48851,258.30622 C 162.31515,263.28196 162.94899,268.15803 164.01795,272.99943 C 165.23868,278.15893 167.56116,282.89856 170.13536,287.49386 C 170.81134,288.7169 171.64762,289.83665 172.4239,290.99412 L 160.4722,301.76158 C 159.59487,300.49174 158.65156,299.26445 157.88495,297.92021 C 155.01563,292.96327 152.40078,287.85049 150.88752,282.29315 C 149.56428,277.12699 148.54033,271.90788 148.6692,266.54078 C 148.64088,262.86398 148.63154,259.18702 148.64025,255.50993 C 148.64025,254.4668 148.64025,253.42367 148.64025,252.38054 L 162.48673,244.19176 z " />
    <path
       style="fill:#000000;fill-opacity:1;fill-rule:nonzero;stroke:none;stroke-width:1px;stroke-linecap:butt;stroke-linejoin:miter;stroke-opacity:1"
       id="path1781"
       d="M 332.19236,271.47127 C 330.94338,269.56334 332.57379,272.67505 332.75993,273.2625 C 333.94056,276.34037 334.31915,279.58231 334.61151,282.83454 C 334.97741,287.75494 333.40891,291.78925 330.65609,295.74014 C 323.29143,304.71148 316.60955,309.43472 306.2542,312.79183 C 305.59697,312.98792 304.93336,313.16119 304.27293,313.34587 L 311.12338,298.79071 C 311.49279,298.66278 312.59187,298.31358 312.94159,298.16104 C 319.85395,295.34112 334.82969,282.97836 315.21446,300.24982 C 318.17525,297.62284 320.5475,295.19977 320.76363,291.02097 C 320.74833,288.25359 320.72891,285.52007 319.84309,282.85085 C 319.34603,281.79154 319.21386,280.54713 318.34588,279.66005 L 332.19236,271.47127 z " />
    <path
       style="fill:#000000;fill-opacity:1;fill-rule:nonzero;stroke:none;stroke-width:1px;stroke-linecap:butt;stroke-linejoin:miter;stroke-opacity:1"
       id="path1783"
       d="M 370.57816,273.48618 C 370.08453,272.61378 370.69654,275.16133 370.73368,275.6868 C 371.09511,278.36826 371.29736,281.06662 371.51659,283.76228 C 371.54644,286.94005 372.50433,289.80399 373.70527,292.67714 C 375.26039,295.5369 377.87234,297.00321 380.58084,298.56244 C 384.04426,300.33255 387.78321,300.76344 391.59429,300.99521 L 383.15066,314.68777 C 378.7117,314.06711 374.3468,313.22616 370.37808,310.99968 C 366.89032,308.88616 363.58806,306.64334 361.42263,303.0655 C 359.64107,299.68811 358.18073,296.25284 357.92792,292.37213 C 357.68561,289.71528 357.48022,287.05502 357.21142,284.40056 C 357.05011,283.48414 357.21279,282.4567 356.73168,281.67497 L 370.57816,273.48618 z " />
    <path
       style="fill:#000000;fill-opacity:1;fill-rule:nonzero;stroke:none;stroke-width:1px;stroke-linecap:butt;stroke-linejoin:miter;stroke-opacity:1"
       id="path1785"
       d="M 570.58836,260.3542 C 570.58159,261.32606 570.59542,262.298 570.59896,263.2697 C 570.65353,266.43257 570.33616,269.57749 570.00065,272.71679 C 569.60018,276.84282 568.25405,280.67364 566.6116,284.43388 C 562.16337,292.54841 554.91426,298.68671 546.67425,302.55377 C 543.66869,303.88842 540.46226,304.31064 537.25006,304.73752 L 544.86093,290.56516 C 547.58195,289.84263 550.31282,289.14205 552.74795,287.65775 C 566.7183,278.24945 541.89165,297.8232 551.53418,290.04214 C 553.59138,287.01388 555.20848,283.88784 555.75992,280.19897 C 556.2157,277.28389 556.679,274.36486 556.7205,271.40418 C 556.72762,270.45112 556.75557,269.49684 556.74188,268.54298 L 570.58836,260.3542 z " />
    <path
       style="fill:#000000;fill-opacity:1;fill-rule:nonzero;stroke:none;stroke-width:1px;stroke-linecap:butt;stroke-linejoin:miter;stroke-opacity:1"
       id="path1787"
       d="M 593.82187,264.39481 C 592.32292,261.14865 593.92684,265.64109 594.21986,266.49866 C 594.65905,269.28954 594.8386,272.11455 595.09473,274.92663 C 595.21163,278.45445 596.37409,281.59349 597.76278,284.76215 C 599.54756,288.14573 602.3834,290.2584 605.52574,292.24995 C 608.34493,293.87178 611.48347,294.59207 614.59767,295.37403 L 605.41903,308.58515 C 601.85673,307.56239 598.3078,306.46936 595.11874,304.5168 C 591.27225,302.01034 587.81053,299.15516 585.45827,295.12461 C 583.54736,291.48367 581.9079,287.79902 581.56482,283.62851 C 581.25628,280.86533 580.96839,278.10258 580.77292,275.32821 C 580.27021,273.59819 581.52767,273.85835 579.97539,272.58359 L 593.82187,264.39481 z " />
    <path
       style="fill:#000000;fill-opacity:1;fill-rule:nonzero;stroke:none;stroke-width:1px;stroke-linecap:butt;stroke-linejoin:miter;stroke-opacity:1"
       id="path1789"
       d="M 128.34854,606.02258 C 129.87246,606.69291 130.78705,608.02383 131.90075,609.17026 C 133.81841,611.55153 134.88024,614.36786 135.89328,617.20734 C 137.20529,621.304 137.17156,625.50722 136.92796,629.73796 C 136.5091,634.28016 134.67154,638.31246 132.54559,642.2615 C 127.97598,649.34776 121.84782,654.91707 114.42046,658.51169 L 120.3685,643.56505 C 125.05776,640.02214 133.49519,631.78436 115.52655,649.10753 C 116.12367,648.55678 116.77952,648.06583 117.31982,647.45352 C 119.80428,644.38776 121.85547,641.16433 122.68876,637.22304 C 123.28646,633.64918 123.67707,630.12136 122.7893,626.5383 C 122.12976,624.26322 121.51645,621.98865 120.05925,620.05879 C 120.15494,619.87817 118.32813,618.13321 120.15976,619.86906 L 128.34854,606.02258 z " />
    <path
       style="fill:#000000;fill-opacity:1;fill-rule:nonzero;stroke:none;stroke-width:1px;stroke-linecap:butt;stroke-linejoin:miter;stroke-opacity:1"
       id="path1791"
       d="M 166.52734,614.91774 C 167.16084,617.02335 166.83082,616.8485 165.2911,619.03595 C 163.67413,621.55197 162.89767,624.38225 162.14487,627.22839 C 161.44582,630.8013 162.28504,634.103 163.36965,637.47705 C 164.67442,641.00722 167.32381,643.15466 170.26246,645.28762 C 171.53082,646.84574 174.42696,646.84718 175.36316,647.05818 C 175.29083,646.97982 175.2185,646.90145 175.14618,646.82308 L 167.97903,661.22493 C 167.80166,661.17071 167.62429,661.11649 167.44692,661.06227 C 164.71027,660.07502 161.97102,659.1253 159.61043,657.3423 C 155.95609,654.576 152.5522,651.67623 150.67385,647.35621 C 149.11191,643.34713 147.74116,639.31018 148.01874,634.92473 C 148.35096,631.51063 148.86786,628.17492 150.36556,625.03673 C 150.88069,624.01626 152.32466,619.46919 152.68086,623.10652 L 166.52734,614.91774 z " />
    <path
       style="fill:#000000;fill-opacity:1;fill-rule:nonzero;stroke:none;stroke-width:1px;stroke-linecap:butt;stroke-linejoin:miter;stroke-opacity:1"
       id="path1793"
       d="M 352.69127,609.27524 C 352.12691,608.52129 352.82548,610.71535 352.86891,611.18128 C 353.58385,614.18097 353.74064,617.24228 353.84903,620.30753 C 353.93908,625.39388 352.39613,629.89574 350.02104,634.30056 C 345.20691,641.77115 338.33873,647.52958 330.69948,651.81291 L 336.42167,636.77836 C 341.0236,630.54965 339.68527,632.78445 339.87661,628.27951 C 339.99322,625.57073 340.13095,622.86894 339.54112,620.18968 C 339.3086,619.27953 339.34936,618.26879 338.84479,617.46403 L 352.69127,609.27524 z "
       sodipodi:nodetypes="ccccccsccc" />
    <path
       style="fill:#000000;fill-opacity:1;fill-rule:nonzero;stroke:none;stroke-width:1px;stroke-linecap:butt;stroke-linejoin:miter;stroke-opacity:1"
       id="path1795"
       d="M 373.10553,626.70554 C 375.9134,623.38197 380.04385,621.4538 383.51301,618.82793 C 383.00454,623.06896 384.63239,627.02291 386.17052,630.89544 C 387.74751,634.66765 390.4674,637.12417 393.75391,639.3479 L 383.24961,651.53153 C 379.27156,648.66533 375.73616,645.52712 373.62382,640.96329 C 371.52804,636.37664 369.76819,631.65959 369.41401,626.57386 C 370.38258,618.48678 368.00879,621.91186 381.29431,612.85906 L 373.10553,626.70554 z " />
    <path
       style="fill:#000000;fill-opacity:1;fill-rule:nonzero;stroke:none;stroke-width:1px;stroke-linecap:butt;stroke-linejoin:miter;stroke-opacity:1"
       id="path1799"
       d="M 557.45638,629.05987 C 557.45398,630.08464 557.46253,631.10914 557.46564,632.13369 C 557.39541,635.43924 557.11125,638.73666 556.88963,642.03475 C 556.83332,646.44911 555.96767,650.67929 554.70303,654.87521 C 551.1899,663.44719 543.94028,670.17037 535.72338,674.22827 C 533.8801,675.08642 531.87336,675.3509 529.9203,675.8029 L 537.05167,661.3833 C 538.62021,660.75048 540.26714,660.27614 541.66824,659.28037 C 553.00826,650.13344 529.45306,672.62544 539.86713,661.09432 C 541.60948,657.53536 542.81605,653.94627 542.86378,649.91236 C 543.08339,646.67161 543.31256,643.43082 543.54225,640.19102 C 543.5648,639.21031 543.64614,638.23106 543.6099,637.24866 L 557.45638,629.05987 z " />
    <path
       style="fill:#000000;fill-opacity:1;fill-rule:nonzero;stroke:none;stroke-width:1px;stroke-linecap:butt;stroke-linejoin:miter;stroke-opacity:1"
       id="path1801"
       d="M 592.81172,632.09033 C 593.07365,632.97222 592.73035,633.91863 592.69018,634.82127 C 592.29752,637.40445 592.11044,640.01036 591.90377,642.61257 C 591.5579,645.73286 592.23996,648.59886 593.17582,651.52058 C 594.41025,654.42999 596.57122,655.38818 599.20231,656.62352 C 601.15097,657.18956 603.11712,656.93312 605.09192,656.82239 L 597.12049,670.79514 C 594.5598,670.59 591.98498,670.54009 589.57064,669.50809 C 585.86124,667.59019 582.64515,665.45627 580.64798,661.6119 C 579.10343,658.12085 577.89217,654.608 578.00545,650.71306 C 578.08064,647.95027 578.15355,645.18645 578.5222,642.44029 C 578.64763,641.82842 578.64389,640.46823 578.96523,640.27912 L 592.81172,632.09033 z " />
    <path
       style="fill:#000000;fill-opacity:1;fill-rule:nonzero;stroke:none;stroke-width:1px;stroke-linecap:butt;stroke-linejoin:miter;stroke-opacity:1"
       id="path1803"
       d="M 565.53759,942.20717 C 565.40579,943.19762 565.76889,945.61305 565.90041,947.02507 C 566.28274,951.85629 566.48,956.69782 566.55708,961.54236 C 566.79269,966.56762 565.71484,971.33754 564.1224,976.04237 C 560.56227,983.9268 554.15635,990.23675 545.67812,991.19984 C 545.67812,991.19984 540.54511,989.77953 549.14568,981.91425 C 551.41013,978.14355 552.68907,974.16368 552.6819,969.68241 C 552.73316,964.96124 552.58937,960.24541 552.24862,955.53447 C 552.12757,953.82723 552.16008,952.03603 551.69111,950.39595 L 565.53759,942.20717 z "
       sodipodi:nodetypes="cccccccccc" />
    <path
       style="fill:#000000;fill-opacity:1;fill-rule:nonzero;stroke:none;stroke-width:1px;stroke-linecap:butt;stroke-linejoin:miter;stroke-opacity:1"
       id="path1807"
       d="M 585.52804,948.76038 C 589.98466,948.82377 592.89829,943.65278 596.02059,940.47211 C 595.23996,943.57863 594.9229,946.76863 594.5765,949.94433 C 594.08111,954.05165 594.5854,958.10201 595.35414,962.12741 C 596.17404,965.73768 598.13531,968.6737 600.37841,971.52486 C 602.71505,974.32716 605.70483,975.76449 609.02298,976.96074 C 610.4415,977.59379 611.83015,976.89542 613.16618,976.79225 L 605.64511,991.01247 C 603.58327,990.81954 601.5091,990.73284 599.54839,989.96126 C 595.47856,988.20607 591.73051,986.07882 588.77357,982.66528 C 586.02501,979.26831 583.52262,975.76654 582.27968,971.49968 C 581.12181,967.01003 580.26188,962.48734 580.5442,957.81045 C 580.78574,954.43336 581.0477,951.05248 581.6576,947.71681 C 581.98569,941.59873 586.52127,933.07145 593.35969,935.98533 L 585.52804,948.76038 z "
       sodipodi:nodetypes="ccccccccccccccc" />
    <path
       style="fill:#000000;fill-opacity:1;fill-rule:nonzero;stroke:none;stroke-width:1px;stroke-linecap:butt;stroke-linejoin:miter;stroke-opacity:1"
       id="path1809"
       d="M 333.20251,938.17194 C 333.52479,939.44758 332.96731,941.34053 332.77315,942.86193 C 332.05557,947.30639 331.40078,951.76046 330.75053,956.21515 C 330.0618,961.59646 329.29127,966.94305 327.94562,972.19987 C 325.49507,981.74715 317.44319,986.96292 310.52806,993.42087 C 307.04436,995.22209 303.33547,995.28476 299.52735,995.2103 L 307.79532,981.41096 C 310.80385,980.91259 313.5532,980.50408 315.85085,978.24031 C 313.27342,980.81781 310.66451,983.36421 308.11856,985.97281 C 306.07574,988.06591 316.22332,978.51455 313.3255,978.91056 C 315.07688,974.00328 316.01021,968.94451 316.5417,963.75772 C 317.19178,959.28466 317.8284,954.80969 318.53279,950.34479 C 318.71242,949.31646 318.89862,945.75551 319.35603,946.36073 L 333.20251,938.17194 z " />
    <path
       style="fill:#000000;fill-opacity:1;fill-rule:nonzero;stroke:none;stroke-width:1px;stroke-linecap:butt;stroke-linejoin:miter;stroke-opacity:1"
       id="path1811"
       d="M 364.51724,941.19701 C 364.7042,942.13687 364.44598,943.10093 364.41035,944.05281 C 364.1855,947.08746 364.10125,950.12998 364.0037,953.17066 C 363.77819,957.16007 363.9903,961.13109 364.44274,965.09046 C 364.82546,968.77963 366.49219,970.63947 369.29102,972.70726 C 371.9359,974.09729 374.64131,973.8551 377.48684,973.68517 L 369.60297,987.7075 C 365.81701,987.4506 362.16932,987.04403 358.86333,984.95653 C 355.04005,982.05609 352.07987,979.01847 351.11201,974.09451 C 350.35273,969.84274 349.88604,965.57542 350.08743,961.24029 C 350.16876,958.14516 350.2453,955.04951 350.39941,951.95692 C 350.48641,951.13259 350.38494,950.03851 350.67076,949.38579 L 364.51724,941.19701 z " />
    <path
       style="fill:#000000;fill-opacity:1;fill-rule:nonzero;stroke:none;stroke-width:1px;stroke-linecap:butt;stroke-linejoin:miter;stroke-opacity:1"
       id="path1815"
       d="M 125.11109,946.24778 C 123.76447,944.05213 125.63345,947.91264 125.89357,948.48339 C 127.28831,951.96665 127.94966,955.65722 128.5855,959.33341 C 129.38603,963.90493 128.61994,967.98841 126.83382,972.14674 C 120.20452,980.54086 118.28921,982.63092 110.56392,984.95171 C 110.56392,984.95171 104.77663,984.22808 111.47096,976.91786 C 114.25828,974.3397 115.44465,972.04505 115.03864,968.00888 C 114.65375,964.68782 114.16161,961.38029 113.07303,958.20014 C 112.52431,956.9083 112.19142,955.53201 111.26461,954.43656 L 125.11109,946.24778 z "
       sodipodi:nodetypes="cccccccccc" />
    <path
       style="fill:#000000;fill-opacity:1;fill-rule:nonzero;stroke:none;stroke-width:1px;stroke-linecap:butt;stroke-linejoin:miter;stroke-opacity:1"
       d="M 154.40552,938.16657 C 154.13589,942.08631 152.97115,945.96602 152.90239,949.97497 C 152.54848,955.50971 152.43734,961.58611 155.36191,966.49048 C 156.92546,969.41744 160.18338,971.01371 163.03145,971.41483 C 161.19651,974.91672 158.9948,978.30802 157.03713,981.79121 C 155.96415,986.76824 150.72298,983.98303 147.97236,982.0096 C 143.20163,978.58839 140.35373,973.11393 139.43505,967.39556 C 138.13961,960.65867 139.17426,953.76163 139.93485,947.0299 C 141.86965,944.92562 145.22169,943.96241 147.67652,942.14608 C 149.91952,940.81958 152.16253,939.49308 154.40552,938.16657 z "
       id="path1817" />
    <path
       style="fill:#000000;fill-opacity:1;fill-rule:nonzero;stroke:none;stroke-width:1px;stroke-linecap:butt;stroke-linejoin:miter;stroke-opacity:1"
       d="M 120.1295,269.41977 C 106.04498,261.94295 85.532088,255.9242 75.945059,241.97782 C 59.923192,221.17274 59.525627,191.99453 67.863796,168.02482 C 68.156907,160.60511 83.577381,152.70827 81.847752,159.85295 C 80.639797,151.99477 84.145569,143.46189 83.51719,135.15756 C 84.085501,124.79119 85.458582,111.45031 96.158274,106.58167 C 105.02186,104.68026 116.77174,116.23 116.97347,122.76568 C 114.96122,119.12313 121.48564,109.67848 122.30612,103.57279 C 127.86902,85.944904 132.94151,67.22949 145.68231,53.214298 C 155.06172,45.526906 161.92836,59.65623 160.64873,67.887126 C 157.84513,76.92676 153.92697,96.577407 168.9934,95.305613 C 177.63083,89.077928 193.37566,90.836209 196.32936,102.46467 C 200.9827,113.75907 181.53329,129.12753 194.15577,136.42304 C 204.50606,137.40941 215.25407,143.43094 217.68058,154.21029 C 220.73558,168.66804 210.87871,181.70894 201.19508,191.2374 C 194.91735,201.71094 217.01803,194.45112 216.5189,205.43784 C 219.29523,214.93782 211.77729,222.32005 204.93064,227.42935 C 187.85416,241.46779 167.11581,249.75564 147.07292,258.54137 C 153.20163,245.67807 167.27622,262.24325 165.96738,271.10832 C 162.9365,283.22336 146.71825,284.5181 136.87362,280.53574 C 127.29065,277.29375 109.88671,268.12976 122.84896,257.46786 C 132.72164,250.62443 135.19768,269.13544 145.70941,268.59077 C 151.73329,271.20853 159.48508,268.74139 163.87433,265.90037 C 159.49126,274.57293 150.4951,275.03687 145.53471,267.37819 C 135.48924,256.59156 147.34478,243.13269 159.20051,242.0112 C 175.16087,235.10676 191.04565,227.62367 205.10175,217.2677 C 198.58181,224.8731 208.31833,208.32192 198.79402,210.60532 C 189.43606,211.8666 176.25344,203.73186 187.28727,195.31172 C 195.86231,185.81498 207.77787,175.21908 205.08248,160.99874 C 201.7325,149.04447 186.75791,151.03555 178.37783,145.43452 C 169.48035,134.87435 184.66133,123.45265 183.36125,112.03895 C 180.05917,99.706535 167.60565,107.79312 159.55858,108.55347 C 146.33463,108.92912 142.05423,94.138727 146.43105,83.86713 C 146.97558,75.517062 144.4512,65.503075 151.11847,58.90292 C 142.04462,74.921989 137.31117,92.697916 131.77837,110.10305 C 128.65189,117.49128 126.67337,126.73158 119.46507,131.22725 C 110.09182,135.83346 94.779661,125.35351 96.301372,115.91438 C 99.427366,111.99909 106.57653,105.60498 99.928229,113.60601 C 92.098722,129.50848 100.41216,149.48146 89.023673,164.04914 C 83.983559,172.25318 73.214251,168.39701 83.126454,161.51539 C 87.685003,155.91351 75.645917,171.7304 76.956808,176.72195 C 74.09499,195.23741 74.580262,216.04251 86.765456,231.39069 C 95.225912,242.53451 114.14171,253.25249 127.56112,256.1058 C 137.32243,258.33098 121.17231,264.98084 120.1295,269.41977 z "
       id="path1715"
       sodipodi:nodetypes="cccccccccccccccccccccccccccccccccccccccccccc" />
  </g>
</svg>
