<?xml version="1.0" encoding="UTF-8" standalone="no"?>
<!DOCTYPE svg PUBLIC "-//W3C//DTD SVG 20010904//EN"
"http://www.w3.org/TR/2001/REC-SVG-20010904/DTD/svg10.dtd">
<!-- Created with Inkscape (http://www.inkscape.org/) -->
<svg
   width="744.09448819"
   height="1052.3622047"
   id="svg1521"
   sodipodi:version="0.32"
   inkscape:version="0.40"
   sodipodi:docbase="/home/kkowal"
   sodipodi:docname="tree-palm.svg"
   xmlns="http://www.w3.org/2000/svg"
   xmlns:cc="http://web.resource.org/cc/"
   xmlns:inkscape="http://www.inkscape.org/namespaces/inkscape"
   xmlns:sodipodi="http://sodipodi.sourceforge.net/DTD/sodipodi-0.dtd"
   xmlns:rdf="http://www.w3.org/1999/02/22-rdf-syntax-ns#"
   xmlns:dc="http://purl.org/dc/elements/1.1/"
   xmlns:xlink="http://www.w3.org/1999/xlink"
   inkscape:export-filename="/home/kkowal/tree-palm.png"
   inkscape:export-xdpi="72.000000"
   inkscape:export-ydpi="72.000000">
  <defs
     id="defs1523" />
  <sodipodi:namedview
     id="base"
     pagecolor="#ffffff"
     bordercolor="#666666"
     borderopacity="1.0"
     inkscape:pageopacity="0.0"
     inkscape:pageshadow="2"
     inkscape:zoom="0.70000000"
     inkscape:cx="402.42462"
     inkscape:cy="421.02748"
     inkscape:document-units="px"
     inkscape:current-layer="layer1"
     inkscape:window-width="1045"
     inkscape:window-height="977"
     inkscape:window-x="-4"
     inkscape:window-y="25" />
  <metadata
     id="metadata1526">
    <rdf:RDF
       id="RDF5">
      <cc:Work
         rdf:about=""
         id="Work6">
        <dc:format
           id="format7">image/svg+xml</dc:format>
        <dc:type
           rdf:resource="http://purl.org/dc/dcmitype/StillImage"
           id="type9" />
      </cc:Work>
    </rdf:RDF>
  </metadata>
  <g
     inkscape:label="Layer 1"
     inkscape:groupmode="layer"
     id="layer1">
    <path
       style="fill:#729d1a;fill-opacity:1;fill-rule:evenodd;stroke:none;stroke-width:1px;stroke-linecap:butt;stroke-linejoin:miter;stroke-opacity:1"
       d="M 97.757023,47.797718 C 84.266483,47.817618 66.517026,57.635328 57.051486,68.097428 C 48.457876,77.404107 68.561636,78.140537 73.013106,86.143207 C 77.490666,96.764607 68.524806,105.1347 59.266656,114.76994 C 47.409606,128.04017 33.179706,137.41857 30.560322,151.59568 C 27.907732,163.16956 46.694406,158.53514 53.965526,154.52532 C 62.955396,151.04989 73.759326,147.90029 82.272106,154.29781 C 91.072613,158.46887 94.112573,171.39858 104.61586,169.68487 C 114.61504,165.72167 120.14547,149.03524 122.76521,140.11073 C 124.97223,130.16268 127.46049,114.0745 139.31838,112.5728 C 148.20854,113.47872 156.18838,124.55993 162.37212,130.46439 C 169.44388,137.21203 174.65672,143.97515 188.78429,155.51042 C 196.48745,164.37681 210.28476,177.13724 223.12747,173.4898 C 232.64985,169.27671 229.87978,152.01809 225.36768,144.37073 C 220.38529,133.22774 205.29752,116.78739 198.42031,106.93901 C 192.4345,98.712827 188.36123,93.685127 200.87376,87.301117 C 210.00966,85.697467 221.2175,76.851538 216.83017,67.467798 C 211.67723,58.690808 199.17544,65.171408 193.13633,57.598148 C 186.67704,50.743248 187.21487,34.843198 177.75685,30.796948 C 160.68389,32.376558 148.92893,53.458658 143.03277,34.031608 C 137.94146,27.748378 123.18966,27.867578 117.21238,34.449498 C 112.29541,38.581708 103.95963,45.435038 97.757023,47.797718 z "
       id="path10575"
       sodipodi:nodetypes="cccccccccccccccccccccc" />
    <path
       style="fill:#a57649;fill-opacity:1;fill-rule:evenodd;stroke:none;stroke-width:1px;stroke-linecap:butt;stroke-linejoin:miter;stroke-opacity:1"
       d="M 126.36149,129.10531 C 123.88033,111.31267 144.28204,105.28823 144.45019,134.26374 C 149.64655,164.82579 159.00551,220.39103 176.07611,253.30564 C 196.50147,272.3024 81.511826,273.8604 96.719793,250.71572 C 114.75944,227.70496 125.99087,194.27947 127.67496,164.9326 C 128.53352,152.98951 128.0835,140.95409 126.36149,129.10531 z "
       id="path11464"
       sodipodi:nodetypes="cccccc" />
    <path
       style="fill:#000000;fill-opacity:1;fill-rule:nonzero;stroke:none;stroke-width:1px;stroke-linecap:butt;stroke-linejoin:miter;stroke-opacity:1"
       d="M 101.16214,50.740318 C 87.148703,51.526608 73.840696,57.250478 62.320856,65.032588 C 65.287266,62.134968 70.685996,60.093048 64.494126,64.042478 C 54.358176,71.698708 68.723116,78.422217 75.734576,78.282647 C 84.610123,83.902517 80.176186,96.499927 73.835946,102.35694 C 61.029236,117.6846 46.164776,131.59609 35.6947,148.78078 C 38.755305,160.98916 52.417536,147.97331 59.837706,146.74962 C 70.924736,142.25083 85.843013,142.7254 93.197663,153.49925 C 95.543863,158.69075 106.70945,164.75602 106.76605,164.16673 C 103.83698,162.06805 115.27506,153.60878 114.79729,147.86437 C 120.4612,135.65309 121.99244,121.34402 130.56073,110.62319 C 139.48639,102.41238 151.48983,110.17207 156.75389,118.62324 C 170.85247,133.85976 185.37312,149.05247 202.82181,160.50911 C 208.50387,170.24878 226.60769,165.68638 223.33657,153.58905 C 220.8631,142.60293 212.65515,134.19204 206.5069,125.12395 C 200.16848,117.64311 192.45213,111.36714 186.82536,103.28027 C 183.76269,90.481217 199.16515,85.455427 207.68478,80.057787 C 211.30162,77.307437 215.69544,76.207968 214.13753,75.674518 C 215.23737,65.073778 198.52935,68.864268 191.77357,65.269088 C 182.42024,60.567288 181.22336,49.216988 178.32727,40.294528 C 169.8447,30.140498 158.48297,43.045188 150.783,47.815958 C 138.30504,53.513918 141.41686,33.980538 130.56205,35.003438 C 126.51386,33.508328 114.96404,39.904798 116.80419,38.123178 C 120.96046,34.355768 112.28152,45.006098 110.46543,46.860378 C 107.14342,51.428608 91.597833,54.930658 100.46004,46.673008 C 109.40515,34.713418 123.42501,23.059628 139.36272,25.916068 C 147.39387,25.710598 150.16455,38.176228 153.14761,38.608098 C 161.75786,32.884958 171.57135,24.008678 182.66548,27.731038 C 193.66709,33.416928 188.34419,50.121028 199.22637,55.872568 C 208.05744,60.037258 226.35814,56.725628 226.42286,70.597498 C 224.38923,80.613057 212.56279,82.400377 205.95454,88.464447 C 202.94381,90.198277 191.04555,97.820027 199.10605,90.970717 C 193.59762,102.75033 210.47503,108.34921 215.14387,117.25945 C 226.85219,131.13572 236.31028,150.1844 231.10836,168.60489 C 225.39641,180.99191 209.0259,179.0847 199.94328,171.78644 C 179.39602,159.86935 162.91705,142.48469 146.92506,125.21435 C 143.76702,120.21289 138.12988,118.77072 134.31794,116.43461 C 134.51003,112.72529 142.506,109.73735 137.22208,114.86259 C 130.75054,126.42966 128.83464,139.93637 122.78699,151.75295 C 118.35525,160.57819 112.14458,170.56126 101.97472,173.09514 C 88.729903,173.8657 85.437683,156.48329 73.373596,154.10045 C 58.340026,150.61282 46.031926,164.16294 31.303023,163.34756 C 17.556795,159.74151 28.078107,142.82841 34.56274,136.71978 C 45.862366,122.0183 60.087226,109.60712 69.687946,93.604557 C 70.009526,80.652577 43.669395,86.896207 49.760456,71.025058 C 54.556986,60.533938 65.931846,55.384768 75.446396,49.904998 C 85.123233,45.041248 95.678113,41.654878 106.53894,41.041948 C 112.86346,43.398358 102.0316,48.326628 101.16214,50.740318 z "
       id="path6053" />
    <path
       style="fill:#000000;fill-opacity:1;fill-rule:nonzero;stroke:none;stroke-width:1px;stroke-linecap:butt;stroke-linejoin:miter;stroke-opacity:1"
       id="path6067"
       d="M 133.23393,121.75349 C 133.12478,122.98727 134.04126,126.41764 134.14766,127.66101 C 134.7301,134.50638 134.97324,141.37317 135.02694,148.24107 C 135.10706,159.96824 133.73944,171.63021 131.37466,183.10234 C 128.7284,195.84994 124.28385,208.12218 118.67756,219.84989 C 113.48262,230.44816 107.36413,240.57303 100.5976,250.23747 C 97.187303,255.0043 101.45512,249.0497 98.097783,253.70005 L 86.518003,256.3277 C 89.923333,251.76309 85.596903,257.6105 89.053573,252.92894 C 95.914653,243.47931 102.09029,233.53186 107.38854,223.12095 C 113.07202,211.70324 117.6214,199.72883 120.36478,187.25116 C 122.80912,176.05077 124.26969,164.64893 124.21947,153.16894 C 124.17663,146.43824 123.91659,139.70947 123.27079,133.00704 C 123.12388,131.6614 122.98468,130.31053 122.80006,128.97216 L 133.23393,121.75349 z "
       sodipodi:nodetypes="csccccccccccccc" />
    <path
       style="fill:#000000;fill-opacity:1;fill-rule:nonzero;stroke:none;stroke-width:1px;stroke-linecap:butt;stroke-linejoin:miter;stroke-opacity:1"
       id="path6069"
       d="M 138.45832,116.87543 C 140.82243,114.37792 145.14962,116.08625 147.99482,114.15458 C 147.9055,117.234 148.24655,120.30787 148.55025,123.368 C 149.1468,128.40885 149.8961,133.43077 150.67393,138.44644 C 151.62545,144.56406 152.50677,150.69246 153.3831,156.82124 C 154.29508,163.00029 155.0734,169.19761 155.79773,175.40111 C 156.48058,181.9425 157.45441,188.44509 158.5877,194.92198 C 159.72913,201.2899 161.22944,207.58857 163.15513,213.76402 C 164.9505,219.28345 167.41962,224.54318 170.12596,229.66616 C 172.60372,234.41273 175.69967,238.77193 179.1364,242.86291 C 180.97998,245.06226 183.10183,246.98559 185.22356,248.90554 L 175.99293,256.6562 C 173.73778,254.61438 171.53269,252.51603 169.56862,250.18577 C 165.97365,245.87074 162.71505,241.29007 160.0955,236.30882 C 157.26917,230.99108 154.68979,225.53333 152.77853,219.8121 C 150.75007,213.48873 149.1871,207.03059 147.97806,200.50042 C 146.80503,193.95721 145.76296,187.39011 145.05851,180.77785 C 144.34735,174.60504 143.58931,168.43723 142.68938,162.2887 C 141.82065,156.17781 140.94547,150.0674 139.98958,143.96945 C 139.18578,138.91413 138.408,133.85408 137.74078,128.77865 C 137.37081,125.57657 137.00755,122.36903 136.88551,119.14588 C 136.90609,113.50612 137.79452,110.33762 146.31795,109.37822 L 138.45832,116.87543 z "
       sodipodi:nodetypes="ccccccccccccccccccccccc" />
    <path
       style="color:#000000;fill:#a57649;fill-opacity:1.0000000;fill-rule:evenodd;stroke:none;stroke-width:1.0000000px;stroke-linecap:butt;stroke-linejoin:miter;stroke-miterlimit:4.0000000;stroke-dashoffset:0.0000000;stroke-opacity:1.0000000;marker:none;marker-start:none;marker-mid:none;marker-end:none;visibility:visible;display:block"
       d="M 393.32815,162.16526 L 371.23106,162.79660 C 371.23106,162.79660 372.49375,241.39910 343.13619,268.86262 C 313.77863,296.32614 435.31261,294.74778 413.53120,262.23349 C 391.74978,229.71921 388.59306,224.98412 393.32815,162.16526 z "
       id="path1818" />
    <path
       style="fill:#729d1a;fill-opacity:1.0000000;fill-rule:evenodd;stroke:none;stroke-width:1.0000000pt;stroke-linecap:butt;stroke-linejoin:miter;stroke-opacity:1.0000000"
       d="M 294.20694,119.23377 C 296.70408,128.68154 307.90459,129.90616 314.77432,134.95159 C 321.57136,138.88029 319.57830,146.96287 318.45466,153.18871 C 317.61574,163.65479 326.43447,173.91132 337.18854,173.48289 C 344.00169,173.69364 349.41748,169.08117 355.74048,167.35722 C 369.08275,162.31399 384.45768,157.43423 398.27660,163.62266 C 405.10325,167.01488 413.52085,161.87355 415.12289,154.71692 C 417.68999,147.23748 416.39083,139.29029 415.33173,131.69494 C 414.59917,122.42346 423.35007,115.25738 432.14415,115.27878 C 439.73181,114.24681 445.96297,118.79265 452.38724,121.83575 C 459.98089,124.27063 470.29520,123.34085 474.80943,115.99684 C 477.75645,109.03431 471.39002,102.72664 467.19818,97.995387 C 460.44052,92.407422 449.65264,92.560288 444.77025,84.682638 C 440.41841,76.480428 452.74126,73.116484 450.71862,64.743291 C 450.84488,56.912166 442.82072,49.289796 434.96660,52.670102 C 426.76752,57.359489 416.46542,58.512903 407.79336,54.321562 C 399.98023,51.116076 394.48992,44.512580 389.81953,37.776851 C 382.65131,29.344820 369.01944,30.750720 361.65284,38.189237 C 356.39766,42.063645 355.92458,49.873907 349.78369,52.728202 C 340.70652,56.797400 329.34165,49.827715 321.23485,56.906927 C 315.88080,63.166110 318.31775,72.799114 314.60611,80.113209 C 312.28734,88.443392 306.86437,95.278803 302.07079,102.19862 C 299.46887,107.25563 296.90434,112.33255 294.20693,117.33974"
       id="path1094" />
    <path
       style="fill:#000000;fill-opacity:1.0000000;fill-rule:nonzero;stroke:none;stroke-width:1.0000000px;stroke-linecap:butt;stroke-linejoin:miter;stroke-opacity:1.0000000"
       d="M 342.11426,63.061199 C 336.35887,59.764859 324.37802,55.760885 321.62425,64.275936 C 323.49823,72.056135 326.81344,80.503061 320.85209,87.729894 C 315.78467,95.343701 309.60528,102.08846 303.44789,108.80587 C 297.84496,113.73266 299.53550,124.34583 308.43772,121.66792 C 316.63878,121.36116 324.55416,127.90007 325.30152,136.22780 C 327.79694,146.08298 324.77157,157.95389 332.20244,166.09876 C 338.94596,171.87743 348.04892,167.22556 354.81160,163.95527 C 366.62889,157.84846 379.83054,150.34934 393.58097,154.38829 C 399.68845,156.90109 409.42022,159.56909 413.75730,155.63630 C 411.32017,158.80976 405.70880,159.72844 409.84281,154.38667 C 414.51001,143.14788 407.55482,129.89517 414.57664,119.28991 C 417.51465,109.47371 429.50145,105.85607 438.57618,108.66094 C 451.35986,110.59498 463.28058,117.61190 476.49627,116.58092 C 469.62483,124.12887 469.91912,106.47503 463.54215,105.09413 C 456.43394,98.847975 446.01849,94.985844 442.85606,85.332269 C 438.51199,75.678280 449.84004,68.496069 447.63052,59.043363 C 442.50434,52.487847 432.57006,59.490327 426.11175,61.140650 C 416.91963,64.940847 405.12113,69.421439 396.19240,62.663371 C 387.02210,55.641860 384.39826,42.269452 373.39305,37.307048 C 369.72356,35.886218 361.99481,42.568710 362.91209,41.058339 C 364.82151,39.534912 357.11337,48.787947 355.10262,51.587130 C 351.55660,55.968048 347.47900,60.108787 342.36983,62.634976 C 341.57999,48.840479 352.11605,37.995815 361.75501,29.596069 C 369.44910,23.481948 381.78991,21.948059 389.10549,29.517790 C 397.02415,36.557742 399.44074,49.170428 410.16313,53.071427 C 425.24316,51.410351 438.85483,39.965977 454.52188,43.763754 C 463.94299,46.762286 463.72638,59.706159 458.80467,66.544443 C 453.14857,74.238890 456.66289,84.483185 465.29669,87.986088 C 475.06169,94.030159 484.83635,103.52076 485.46017,115.69458 C 486.11824,123.61302 478.79249,129.63130 471.34418,129.93401 C 459.49154,131.28222 448.94345,124.40797 437.41935,123.02818 C 433.02008,121.60029 425.70037,122.66198 422.88033,121.00128 C 430.23288,119.83120 422.46454,130.68091 424.62480,134.98922 C 425.80247,144.97641 425.10702,156.00058 418.42098,164.08718 C 413.34570,170.95335 404.01441,172.43282 396.22717,170.03332 C 387.79752,167.89150 378.49106,164.70449 370.17859,169.07147 C 356.78118,173.97051 344.10840,184.99055 328.95454,181.69185 C 318.29729,178.84313 314.40022,166.78956 313.71268,156.94063 C 312.62678,148.96237 315.02932,135.73495 303.32838,135.16971 C 295.11522,135.36928 283.39175,132.06023 285.27500,121.49316 C 287.21836,110.65928 296.12329,103.14175 302.86382,95.056075 C 307.30505,89.759506 313.04708,82.618553 309.17818,75.432489 C 303.26360,66.828985 310.23953,57.124637 317.69375,52.380133 C 324.21777,46.920911 333.49020,43.864045 341.71009,47.149939 C 350.43165,50.436157 342.76739,57.601942 342.11426,63.061199 z "
       id="path1538" />
    <path
       style="fill:#000000;fill-opacity:1;fill-rule:nonzero;stroke:none;stroke-width:1px;stroke-linecap:butt;stroke-linejoin:miter;stroke-opacity:1"
       id="path1540"
       d="M 378.44556,159.07067 C 378.31369,160.26963 378.66017,163.00371 378.80231,164.64153 C 379.56658,172.66414 379.27731,180.71484 378.77590,188.74112 C 378.04499,201.29187 375.75293,213.64314 372.48570,225.76085 C 369.10786,238.24566 363.67415,249.86217 356.21686,260.39400 C 351.31846,266.92710 345.26592,272.39703 339.47629,278.12418 L 341.70808,263.29037 C 347.32532,257.08278 354.92114,242.78851 358.37895,230.86208 C 361.82819,219.17153 364.31304,207.22972 365.16410,195.04523 C 365.73646,187.30061 366.21086,179.52988 365.60336,171.76968 C 365.44736,169.77711 365.36351,167.73071 365.02671,165.77569 L 378.44556,159.07067 z "
       sodipodi:nodetypes="cccccccccccc" />
    <path
       style="fill:#000000;fill-opacity:1;fill-rule:nonzero;stroke:none;stroke-width:1px;stroke-linecap:butt;stroke-linejoin:miter;stroke-opacity:1"
       id="path1546"
       d="M 398.64861,160.08082 C 398.64861,161.73383 398.64861,163.38683 398.64861,165.03983 C 398.6851,170.19908 398.60825,175.35719 398.5131,180.51534 C 398.38065,186.95023 398.25503,193.38523 398.14428,199.82053 C 397.96386,206.16759 398.03797,212.5126 398.3368,218.85342 C 398.5636,224.6458 399.88204,230.24169 401.69766,235.71453 C 403.48108,240.869 406.59803,245.21695 410.12441,249.29668 C 412.97764,252.48656 416.47957,254.8991 420.04523,257.20423 L 410.4678,268.74961 C 406.47244,266.08764 402.55444,263.30056 399.32267,259.70558 C 395.2734,255.06488 391.63339,250.13204 389.41195,244.32175 C 387.2404,238.38038 385.55639,232.29532 385.11989,225.94824 C 384.66275,219.45402 384.50336,212.94699 384.68128,206.43647 C 384.78538,199.99458 384.90296,193.55295 385.04049,187.11168 C 385.14272,181.98995 385.26515,176.86799 385.22976,171.74485 C 385.22976,170.09185 385.22976,168.43885 385.22976,166.78585 L 398.64861,160.08082 z " />
    <path
       style="color:#000000;fill:#729d1a;fill-opacity:1.0000000;fill-rule:evenodd;stroke:none;stroke-width:1.0000000pt;stroke-linecap:butt;stroke-linejoin:miter;stroke-miterlimit:4.0000000;stroke-dashoffset:0.0000000;stroke-opacity:1.0000000;marker:none;marker-start:none;marker-mid:none;marker-end:none;visibility:visible;display:block"
       d="M 540.74725,63.359711 C 532.44505,85.901911 568.25166,89.331816 545.87684,104.52653 C 535.88629,110.78370 521.29465,115.35077 521.30314,129.84334 C 518.56734,147.50343 538.58380,148.20985 546.50179,158.60247 C 552.08594,170.77552 534.36576,178.97862 537.24162,191.46405 C 544.24991,205.84825 563.92878,198.76423 574.34333,192.16085 C 586.56410,185.26228 601.06349,174.55105 615.43154,182.21812 C 628.84351,186.63982 650.68964,191.39518 658.23616,175.52615 C 664.68785,154.76375 640.53836,138.06226 646.84350,117.15071 C 652.66036,105.09998 672.02861,105.68317 673.64359,90.333898 C 676.73431,74.894965 660.96864,68.986310 648.73878,68.460255 C 632.63339,63.589087 636.39667,41.354946 622.23338,34.548836 C 607.59732,31.391309 595.96833,44.000894 583.02508,48.571697 C 573.10223,54.829528 562.76769,45.200791 552.93273,49.999966 C 547.08323,52.688018 545.73165,59.668353 540.74725,63.359711 z "
       id="path1730"
       sodipodi:nodetypes="ccccccccccccccc" />
    <path
       style="color:#000000;fill:#a57649;fill-opacity:1.0000000;fill-rule:evenodd;stroke:none;stroke-width:1.0000000px;stroke-linecap:butt;stroke-linejoin:miter;stroke-miterlimit:4.0000000;stroke-dashoffset:0.0000000;stroke-opacity:1.0000000;marker:none;marker-start:none;marker-mid:none;marker-end:none;visibility:visible;display:block"
       d="M 612.72065,181.10562 C 612.72065,181.10562 592.51760,180.15860 592.20193,180.15860 C 591.88625,180.15860 595.35865,246.44986 562.84437,257.49840 C 530.33008,268.54695 640.18417,296.01047 622.82218,263.18051 C 605.46018,230.35055 607.98556,225.61546 612.72065,181.10562 z "
       id="path1819" />
    <path
       style="fill:#000000;fill-opacity:1;fill-rule:nonzero;stroke:none;stroke-width:1px;stroke-linecap:butt;stroke-linejoin:miter;stroke-opacity:1"
       id="path1554"
       d="M 574.5186,57.609341 C 573.87068,56.605686 572.78055,55.935009 571.88866,55.075811 C 569.10739,52.713934 566.40901,52.669112 562.95369,52.878007 C 556.32995,54.421067 551.13074,58.728075 546.44179,63.446481 C 562.1388,46.713292 546.55225,62.54323 546.36428,71.208492 C 547.91273,77.224754 553.14305,80.127804 558.16313,83.070756 C 570.33615,89.83299 563.32694,94.270993 553.95486,103.44003 C 547.92211,107.15979 542.12795,111.21695 536.63073,115.6882 C 532.68419,119.0333 523.07189,128.78211 539.14654,112.8793 C 540.03975,111.99564 537.36294,114.65058 536.51107,115.57414 C 533.70309,118.61841 531.48461,121.90481 529.47523,125.50856 C 526.61301,131.09363 525.27923,136.59224 528.5848,142.07289 C 533.84726,146.69971 541.03861,146.84016 547.7034,147.43367 C 555.30465,147.98478 558.77744,151.84952 556.68108,159.1824 C 552.81517,166.5822 547.53591,173.10051 543.36856,180.33128 C 540.28591,186.10329 538.21185,191.40498 545.231,193.91172 C 555.96272,195.23157 565.36602,189.42866 574.04021,183.8672 C 583.53174,176.50192 593.80171,173.46231 605.64544,173.37736 C 617.25001,173.79833 628.59487,176.48188 640.02635,178.28123 C 654.47732,182.14016 668.11357,168.86595 654.71546,181.69189 C 658.72974,171.84833 653.44777,160.76507 649.382,151.70206 C 645.36173,142.22553 637.99601,134.2704 635.59205,124.15735 C 634.85896,112.32739 647.68199,106.29959 656.97286,101.96901 C 669.72031,95.697116 672.45892,91.060521 664.07181,99.058486 C 668.05564,92.747437 666.9674,86.336048 664.24158,79.829298 C 660.49881,73.429822 654.33138,71.44258 647.40656,70.389254 C 641.28854,70.343875 635.66163,70.859805 630.33265,67.618024 C 626.25484,63.531766 625.86629,57.869986 625.22225,52.417227 C 624.87836,47.46334 623.94536,42.718501 621.85011,38.251163 C 619.34075,35.441282 616.70394,36.140593 613.36644,36.814071 C 609.34593,38.25283 606.24838,41.078171 603.16904,43.917403 C 599.85204,47.349338 596.09059,50.225551 592.09893,52.812194 C 588.09251,55.321859 583.64178,56.712206 579.11628,57.907761 C 577.84337,58.233972 576.53368,58.368061 575.24344,58.598022 L 582.13682,45.274951 C 583.30592,44.984462 584.49988,44.784667 585.64638,44.402919 C 589.71847,42.973934 593.70413,41.348255 597.16437,38.692551 C 600.81493,35.837511 604.23442,32.744283 607.63725,29.597553 C 611.40439,26.681895 615.35088,24.14912 620.16585,23.442797 C 625.28999,23.332012 629.66796,23.988883 633.07201,28.296672 C 636.04248,33.221946 637.39679,38.586779 637.86162,44.338285 C 638.30163,48.441531 638.27873,52.946124 640.43034,56.5248 C 645.33311,57.826343 650.50603,57.115128 655.59877,57.823004 C 663.8438,59.402179 671.27371,62.834483 675.79822,70.265455 C 679.60872,77.661567 681.24643,85.74677 678.09801,93.739792 C 672.31987,104.84414 662.08218,110.95265 651.24258,115.83216 C 630.98357,126.14821 657.52152,107.79003 648.26612,116.13296 C 649.60709,125.8543 657.51702,133.31796 661.09731,142.33326 C 665.96621,152.87573 670.74942,164.27957 668.63543,176.10106 C 656.48379,190.16671 650.02516,194.30114 631.7659,190.80273 C 620.59215,188.92042 609.43154,186.36769 598.04992,186.31301 C 586.88661,186.9359 577.8,191.30273 568.83823,197.9371 C 558.94469,203.78079 548.13152,209.02907 536.39689,206.03531 C 527.48449,202.12619 525.41112,194.69791 529.44114,185.90351 C 533.21429,178.44166 538.10794,171.73041 542.7786,164.81657 C 545.71393,160.08231 545.82295,160.80816 539.69031,160.11488 C 531.75737,159.35056 523.54577,158.29168 517.66549,152.3584 C 512.73298,145.87383 512.54235,138.73185 515.61541,131.24689 C 521.09176,119.01325 530.87769,109.69338 541.33032,101.4426 C 546.97062,97.188386 553.00855,93.500082 558.57469,89.168373 C 548.55944,99.284114 556.1992,99.068905 548.48217,94.529465 C 542.33268,90.835497 536.34407,86.797579 533.96329,79.648767 C 531.13855,66.355599 541.87471,57.478459 550.73723,49.073863 C 556.42866,44.289277 562.69305,40.20631 570.3313,39.816846 C 574.7563,40.139369 578.6286,41.114432 582.08564,44.073787 C 582.75499,44.662884 586.06789,47.525362 585.12574,47.002198 L 574.5186,57.609341 z " />
    <path
       style="fill:#000000;fill-opacity:1;fill-rule:nonzero;stroke:none;stroke-width:1px;stroke-linecap:butt;stroke-linejoin:miter;stroke-opacity:1"
       id="path1556"
       d="M 599.41544,178.80823 C 600.06751,179.63413 599.13358,180.95657 598.97217,182.18677 C 598.22348,185.05724 597.83045,187.99699 597.43657,190.9312 C 596.88498,195.7167 596.6177,200.52896 596.30724,205.33451 C 596.03168,211.43784 595.22215,217.48624 594.13186,223.48975 C 592.86494,230.24967 589.37757,236.05693 585.5476,241.63935 C 578.71522,251.03277 570.15276,258.47787 559.71696,263.28704 C 558.35522,263.93126 556.91819,264.38992 555.51993,264.94091 L 561.54122,251.20166 C 562.83238,250.60504 564.1629,250.08955 565.4162,249.4111 C 588.56483,236.31971 558.3705,254.8962 571.3144,246.37633 C 575.24729,241.46936 578.93331,236.28303 580.69465,230.15791 C 582.06237,224.42409 582.89991,218.58552 583.23611,212.69444 C 583.55266,207.83205 583.8304,202.96573 584.26632,198.11224 C 584.59441,195.0245 584.92115,191.93202 585.55119,188.88752 C 585.67795,188.20022 586.05174,184.80742 586.50365,186.44424 L 599.41544,178.80823 z " />
    <path
       style="fill:#000000;fill-opacity:1;fill-rule:nonzero;stroke:none;stroke-width:1px;stroke-linecap:butt;stroke-linejoin:miter;stroke-opacity:1"
       id="path1558"
       d="M 616.89362,173.7752 C 619.0314,175.73197 618.67553,176.88357 618.48483,179.49428 C 617.99273,182.98824 617.57667,186.49242 617.1633,189.99639 C 616.56933,195.31677 616.23549,200.66017 615.93404,206.00347 C 615.64145,212.03423 615.54952,218.07375 615.47229,224.1106 C 615.34307,229.46542 615.94532,234.77037 616.85168,240.03452 C 617.71032,244.95493 619.71704,249.42893 622.38092,253.60289 C 624.42737,256.48325 627.22208,258.56214 630.06737,260.57537 L 620.12667,271.80948 C 616.8583,269.42435 613.65799,266.95069 611.241,263.64904 C 608.11383,259.00005 605.63989,254.02787 604.46596,248.49719 C 603.34746,242.98 602.54622,237.40419 602.5671,231.75775 C 602.56745,225.6476 602.7007,219.53696 602.90061,213.42996 C 603.17342,208.01317 603.46981,202.59616 604.00402,197.19752 C 604.378,193.64618 604.78852,190.09976 605.25171,186.5588 C 606.16748,186.07913 605.01484,181.12598 607.43284,185.41635 L 616.89362,173.7752 z " />
    <path
       style="color:#000000;fill:#729d1a;fill-opacity:1.0000000;fill-rule:evenodd;stroke:none;stroke-width:1.0000000pt;stroke-linecap:butt;stroke-linejoin:miter;stroke-miterlimit:4.0000000;stroke-dashoffset:0.0000000;stroke-opacity:1.0000000;marker:none;marker-start:none;marker-mid:none;marker-end:none;visibility:visible;display:block"
       d="M 105.58036,342.09433 C 99.685106,354.12094 84.917030,355.18895 74.427499,361.16952 C 65.918899,366.43991 59.911527,376.77608 61.934705,386.92169 C 66.779093,394.68554 80.937025,393.72628 81.496171,404.71106 C 83.337799,418.19213 73.625542,429.39275 64.659952,438.14409 C 56.859650,446.20700 48.101729,456.11700 49.423576,468.16867 C 51.776535,477.72654 65.559339,480.58182 72.396555,474.09048 C 83.070895,467.42258 99.506143,470.49934 105.33946,482.18079 C 113.61860,492.26444 123.22137,502.75483 136.43103,505.86402 C 147.38375,505.51509 153.79914,494.95570 157.78273,486.02657 C 163.81932,473.64458 166.90924,459.62260 175.86078,448.81649 C 186.82574,442.30894 199.44963,448.37557 210.21979,452.16224 C 221.03593,455.86544 235.30138,456.41898 243.28266,446.80334 C 248.30128,438.56354 242.48827,428.94917 236.55347,422.98362 C 229.37170,416.35970 225.04918,404.86500 230.56574,395.91805 C 234.80917,385.71135 240.10864,373.33042 233.79182,362.82186 C 226.97324,352.85020 213.48998,353.01577 202.71503,353.69133 C 189.28456,354.59708 176.44171,358.90620 163.46031,362.12811 C 154.36590,359.92296 154.02244,348.82858 154.73143,341.26059 C 155.86589,329.60648 141.06627,321.39491 131.26887,327.12369 C 121.90610,330.61110 114.01813,336.92180 105.58036,342.09433 z "
       id="path1741" />
    <path
       style="color:#000000;fill:#a57649;fill-opacity:1.0000000;fill-rule:evenodd;stroke:none;stroke-width:1.0000000px;stroke-linecap:butt;stroke-linejoin:miter;stroke-miterlimit:4.0000000;stroke-dashoffset:0.0000000;stroke-opacity:1.0000000;marker:none;marker-start:none;marker-mid:none;marker-end:none;visibility:visible;display:block"
       d="M 159.82143,480.04076 C 165.17857,540.75504 155.80357,567.98718 98.214285,603.70147 C 50.000000,616.20147 212.94643,647.00504 160.71428,610.84433 C 154.91071,568.43361 200.44643,556.82647 180.35714,446.11219 C 159.82143,457.27290 159.82143,480.04076 159.82143,480.04076 z "
       id="path1820"
       sodipodi:nodetypes="ccccc" />
    <path
       style="fill:#000000;fill-opacity:1;fill-rule:nonzero;stroke:none;stroke-width:1px;stroke-linecap:butt;stroke-linejoin:miter;stroke-opacity:1"
       id="path1564"
       d="M 94.161399,357.77221 C 92.518429,357.66191 90.971196,358.23011 89.402477,358.62546 C 81.371076,361.27398 74.711327,366.54734 68.446493,372.05525 C 69.565037,370.76 63.620632,376.8499 64.835372,375.65961 C 80.072698,360.72891 63.069417,376.05699 63.526351,385.14959 C 69.697033,390.90567 79.597038,389.91649 87.518657,391.87725 C 99.834769,397.75156 89.973047,410.19414 84.640948,417.69847 C 74.991276,430.82584 64.566834,443.40606 56.441926,457.56727 C 50.743122,468.66744 52.550487,472.99578 64.892049,471.76904 C 78.020109,469.56942 90.664107,462.72456 104.08565,465.82899 C 114.78745,471.06857 118.88105,483.13148 124.80504,492.75222 C 132.03732,503.52796 140.70144,505.48377 150.01432,496.42374 C 135.80137,520.4612 158.98013,468.99152 161.32445,461.35698 C 165.34646,445.58568 176.4135,434.77747 192.86755,438.10245 C 205.43506,441.8128 217.58215,446.6787 230.67461,448.16609 C 231.09427,453.5429 250.35289,440.04552 248.17842,442.10273 C 233.86195,455.64712 240.8086,450.67533 243.00987,444.80867 C 243.75511,435.96097 238.81837,427.69223 232.78979,421.57938 C 227.94237,417.1152 221.15321,415.94229 216.77838,411.12445 C 216.07098,403.20313 224.15817,395.69669 228.01196,388.70088 C 232.73229,379.32341 237.05748,368.35857 227.99225,360.54703 C 215.61036,354.07385 201.11305,357.70951 188.37463,361.34227 C 177.00421,363.35819 165.77156,372.71247 153.96103,370.49877 C 146.36247,366.21002 147.90241,356.95564 148.38059,349.4728 C 149.11469,341.98591 148.43263,335.58832 141.20809,332.37621 C 133.62836,331.19513 126.32412,333.56309 119.4412,336.56144 C 112.98786,339.44215 107.73838,344.04043 102.80665,348.98426 C 124.18685,327.59092 92.571672,359.85327 90.500601,361.91027 L 94.757326,347.52614 C 72.871357,369.36761 105.17782,336.57756 107.03814,334.59268 C 112.53763,329.72488 118.43536,325.38091 125.39104,322.7911 C 133.37775,319.90368 141.89192,317.78498 150.25232,320.40855 C 159.01154,324.72235 162.14559,332.51175 161.44766,342.10568 C 161.10405,347.15266 159.52828,354.15249 162.32435,358.04574 C 173.57657,356.35895 183.74308,350.17433 194.88399,347.82742 C 209.16619,344.10319 224.89357,341.35913 238.15305,349.51159 C 248.69547,358.98619 247.80051,370.86428 241.91808,383.07568 C 238.68404,389.54196 234.77424,398.73083 228.62784,401.9259 C 232.13655,403.873 239.46658,407.16826 243.30121,410.87738 C 250.47326,418.16459 255.76029,427.42807 256.28546,437.82427 C 254.26285,454.40677 237.59506,462.25118 222.60649,460.81237 C 209.46326,458.8303 197.18025,454.02819 184.42172,450.49967 C 180.71034,449.96618 170.64992,454.68394 173.27445,452.0061 C 189.56586,435.38381 176.3453,447.52746 174.91104,454.99871 C 168.3721,475.81452 163.33099,496.26411 145.5604,510.74804 C 133.12337,518.92873 121.76521,514.57024 113.52434,502.64003 C 108.27634,494.29437 104.69312,482.63861 95.458863,478.10097 C 82.490494,476.64445 70.476286,484.1276 57.629838,484.89472 C 43.286904,485.06086 36.148405,477.21394 42.52737,463.17156 C 49.640381,448.28253 60.865915,435.88676 70.467471,422.61126 C 73.841182,418.03156 84.108552,408.23177 78.856247,404.12411 C 69.325223,402.30536 58.161012,402.75463 51.702161,394.38059 C 45.825948,379.1878 63.591752,366.65532 72.970159,357.75282 C 79.87787,352.23893 87.29147,347.03083 96.101056,345.20339 C 98.000488,344.98947 99.876397,344.70682 101.79741,344.86042 L 94.161399,357.77221 z " />
    <path
       style="fill:#000000;fill-opacity:1;fill-rule:nonzero;stroke:none;stroke-width:1px;stroke-linecap:butt;stroke-linejoin:miter;stroke-opacity:1"
       id="path1566"
       d="M 168.0803,473.77277 C 166.6781,471.37589 169.5364,477.90869 169.83501,478.73746 C 172.30936,486.31541 172.66753,494.25726 172.38153,502.15719 C 171.73847,514.45468 168.59905,526.32912 164.42492,537.84994 C 159.81585,550.42115 152.47767,561.55799 144.14411,571.93104 C 133.24455,585.13452 120.48567,596.45692 106.2369,605.8483 C 102.26834,608.43138 98.113466,610.69882 93.948416,612.94222 L 99.437627,598.98187 C 103.47139,596.68536 107.4967,594.36845 111.32584,591.73712 C 116.26828,588.2896 121.09307,584.74039 125.59868,580.72712 C 126.9383,579.53389 130.79446,575.77977 129.54004,577.06228 C 113.80654,593.14809 126.45643,580.25069 129.85404,576.4936 C 138.29234,566.63756 145.84286,556.02625 150.69959,543.9029 C 155.03555,532.84198 158.41355,521.43433 159.31435,509.52414 C 159.81903,502.15598 159.80499,494.72935 157.71338,487.57426 C 157.03662,485.45303 156.52492,483.21261 155.16851,481.40878 L 168.0803,473.77277 z " />
    <path
       style="fill:#000000;fill-opacity:1;fill-rule:nonzero;stroke:none;stroke-width:1px;stroke-linecap:butt;stroke-linejoin:miter;stroke-opacity:1"
       id="path1568"
       d="M 186.64328,441.55105 C 187.47583,442.78712 187.40023,444.35758 187.58703,445.80116 C 187.93951,449.38551 188.25432,452.97339 188.55282,456.56263 C 188.96491,461.34 189.35204,466.11871 189.83706,470.88928 C 190.4223,476.20225 190.92261,481.52338 191.36793,486.84968 C 191.78939,492.30266 192.12009,497.76233 192.46436,503.22062 C 192.92683,508.85711 192.68754,514.49537 192.20414,520.11761 C 191.7492,525.85554 190.22369,531.38718 188.47995,536.84315 C 186.5969,542.28132 184.16408,547.49919 181.70074,552.69192 C 179.19265,557.76173 176.57458,562.77593 174.06654,567.84582 C 171.65366,572.69655 169.38199,577.60489 167.43893,582.66173 C 165.69851,587.05601 165.08672,591.67219 164.75453,596.3415 C 164.51455,600.51947 165.86709,604.1916 167.60596,607.88418 L 156.12361,617.53709 C 153.90377,613.26779 151.97756,608.93894 151.8674,604.01905 C 151.808,598.90565 152.23217,593.82784 153.80723,588.92268 C 155.53641,583.64051 157.6525,578.51377 160.1995,573.56667 C 162.63888,568.44932 165.19984,563.39331 167.81296,558.36224 C 170.31709,553.32356 172.75633,548.24712 174.80132,543.00091 C 176.69058,537.90406 178.36744,532.70759 179.02756,527.28704 C 179.64238,521.90753 180.07168,516.49907 179.68836,511.08171 C 179.38245,505.65428 179.02304,500.22961 178.65118,494.80626 C 178.23625,489.51572 177.77181,484.22936 177.18879,478.95428 C 176.68108,474.15804 176.2431,469.35718 175.85517,464.54966 C 175.55762,460.97893 175.25224,457.40891 174.92279,453.84106 C 174.86456,453.21304 174.13967,450.19556 175.00212,451.01183 L 186.64328,441.55105 z " />
    <path
       style="color:#000000;fill:#729d1a;fill-opacity:1.0000000;fill-rule:evenodd;stroke:none;stroke-width:1.0000000pt;stroke-linecap:butt;stroke-linejoin:miter;stroke-miterlimit:4.0000000;stroke-dashoffset:0.0000000;stroke-opacity:1.0000000;marker:none;marker-start:none;marker-mid:none;marker-end:none;visibility:visible;display:block"
       d="M 304.68750,456.60327 C 304.76498,444.91084 314.16297,436.64078 321.76269,428.99032 C 325.29349,425.38283 328.75089,421.59527 331.14440,417.11316 C 340.23290,411.06804 350.04137,402.64768 350.33847,390.85331 C 351.31733,385.13799 345.03959,380.75859 347.59264,375.32193 C 350.13706,367.09568 359.63270,365.45097 367.00950,364.24146 C 374.10038,363.12545 381.88538,361.23630 386.21163,354.95140 C 393.62085,346.57179 406.84141,341.83820 417.02293,348.10473 C 421.96063,350.25823 423.55020,356.44457 428.82124,357.83886 C 439.97909,360.92544 448.85241,350.88271 459.33370,349.22308 C 466.33084,346.70946 474.23936,354.16977 470.63989,361.13994 C 467.72365,368.32909 461.90849,373.95607 459.06105,381.15321 C 452.75038,389.24364 454.78581,401.44925 462.26665,408.09375 C 467.42629,412.95886 477.03522,414.58589 474.94071,423.82877 C 473.00799,431.99010 463.07940,433.95061 455.87953,433.91635 C 449.93652,433.02549 443.68372,432.19013 438.27941,435.63800 C 426.45278,442.35264 421.88191,456.02288 416.31905,467.60269 C 413.84389,477.63100 403.58473,484.58082 393.37136,483.39276 C 384.81061,482.85067 377.20432,477.73075 372.19858,470.96224 C 360.21570,457.75489 340.74952,454.07674 323.82897,457.70994 C 317.45448,458.34909 310.89024,458.41273 304.68750,456.60327 z "
       id="path1759" />
    <path
       style="color:#000000;fill:#a57649;fill-opacity:1.0000000;fill-rule:evenodd;stroke:none;stroke-width:1.0000000px;stroke-linecap:butt;stroke-linejoin:miter;stroke-miterlimit:4.0000000;stroke-dashoffset:0.0000000;stroke-opacity:1.0000000;marker:none;marker-start:none;marker-mid:none;marker-end:none;visibility:visible;display:block"
       d="M 415.62500,472.00504 C 437.94643,524.68361 445.98214,530.04076 408.92857,594.32647 C 402.67857,601.46932 405.80357,604.14789 384.82143,617.54076 C 358.92857,637.18362 483.03571,626.91576 465.17857,604.14790 C 447.32143,581.38004 448.21428,580.93361 463.83928,521.55861 C 470.53571,490.30861 445.53571,477.80861 428.57143,447.00504 C 417.41071,461.29076 415.62500,472.00504 415.62500,472.00504 z "
       id="path1821"
       sodipodi:nodetypes="ccccccc" />
    <path
       style="fill:#000000;fill-opacity:1;fill-rule:nonzero;stroke:none;stroke-width:1px;stroke-linecap:butt;stroke-linejoin:miter;stroke-opacity:1"
       id="path1570"
       d="M 369.86991,366.86358 C 368.52725,366.71668 366.30560,367.13997 364.99943,367.33849 C 359.37535,368.75928 354.18047,371.33511 349.12082,374.10076 C 337.62494,384.77694 354.48181,362.61228 350.74355,373.88738 C 357.16514,378.30194 362.25476,381.75793 361.66213,390.22769 C 354.70015,406.18052 339.87088,417.90510 327.43545,429.57166 C 323.24550,433.34145 303.59122,452.44840 320.31360,436.13229 C 324.25006,432.29146 312.91542,444.38591 310.20027,449.16875 C 308.91377,456.63119 324.45328,451.19989 328.92151,450.32211 C 340.93525,447.41820 352.46292,446.97747 363.61929,452.61697 C 372.87083,458.23546 379.48594,466.98008 387.39931,474.18140 C 395.99150,481.49954 403.96383,479.47968 411.68418,472.31808 C 397.55918,493.21840 417.98228,454.87572 420.98681,447.49509 C 426.49566,433.51756 437.13974,426.00263 451.41009,426.28809 C 459.60074,426.82282 466.51964,430.44812 472.31593,427.78112 C 473.12353,422.60694 463.80586,416.23795 458.02945,411.90537 C 451.44095,407.78442 446.83024,403.60378 446.27766,395.70680 C 447.99376,387.91166 453.31699,381.60760 457.82793,375.20407 C 461.67708,369.92545 465.04559,364.40110 466.87388,358.13463 C 464.83986,355.00191 460.15677,356.41857 456.42086,357.03167 C 449.02068,358.66640 442.26314,362.16376 435.33657,365.10440 C 429.69224,367.54557 425.14993,366.73483 420.06505,363.82985 C 416.67429,361.15561 414.59079,357.34177 412.24270,353.80083 C 410.35762,350.84972 408.47334,350.46481 405.45606,350.10793 C 402.76455,351.12940 400.63433,353.17054 398.44456,354.98885 C 395.62604,357.41474 392.60666,359.53311 389.45254,361.48782 C 385.84621,363.64424 381.79133,364.66559 377.74935,365.63457 C 374.99395,366.24367 372.18475,366.45269 369.38203,366.69679 L 376.64924,353.57388 C 379.24017,353.22007 381.84622,352.92188 384.36343,352.17066 C 387.99669,351.02106 391.55417,349.74614 394.63032,347.40899 C 397.53339,345.25633 400.34742,342.99197 403.18923,340.75821 C 406.29437,338.72056 409.18733,336.82712 413.09636,337.19868 C 417.35509,338.24366 420.70295,340.03425 423.35000,343.71864 C 425.43744,346.77657 427.18693,350.19485 430.03096,352.61809 C 434.11061,353.89753 437.22151,353.53101 441.24391,351.31577 C 448.37506,348.12562 455.59601,344.88434 463.39361,343.74996 C 470.03607,343.12796 476.73379,343.32467 479.64294,350.26227 C 479.89927,357.79530 476.20454,364.06630 471.96600,370.19029 C 467.75136,376.34022 463.00490,382.20558 459.63274,388.87564 C 458.25805,395.14977 463.25590,397.39299 468.12451,400.80975 C 474.56758,405.70105 480.63867,411.21052 484.19866,418.62560 C 488.30626,429.88013 480.89388,439.54120 468.66245,441.43486 C 460.26184,441.68389 452.12406,439.32318 443.73442,439.17635 C 439.28389,439.40238 428.09297,447.00934 431.19398,443.80902 C 447.05889,427.43604 437.14218,436.57809 434.79583,441.63556 C 427.36260,458.43454 422.95476,475.06368 407.14488,486.61555 C 396.86975,493.46345 386.60428,493.25392 377.01422,485.00604 C 369.39586,478.03665 362.99448,469.58065 354.06621,464.18250 C 343.71659,459.41871 332.91843,461.25683 322.08720,463.67558 C 312.98245,465.34310 296.85795,468.94490 296.50903,455.29841 C 302.51814,438.19826 319.70350,427.96728 331.75678,415.20681 C 336.33983,410.86741 332.20434,417.48802 348.09055,396.61793 C 350.81273,389.67427 344.35971,388.29836 339.69581,384.03480 C 333.08785,372.94620 344.90900,365.52601 354.61353,360.14178 C 360.13827,357.44612 365.84502,354.92687 371.97948,354.06061 C 373.50492,354.00050 375.02773,353.87657 376.55890,353.95179 L 369.86991,366.86358 z "
       sodipodi:nodetypes="cccccccccccccccccccccccccccccccccccccccccccccccccccccccccc" />
    <path
       style="fill:#000000;fill-opacity:1;fill-rule:nonzero;stroke:none;stroke-width:1px;stroke-linecap:butt;stroke-linejoin:miter;stroke-opacity:1"
       id="path1584"
       d="M 423.6489,466.7017 C 422.03797,464.66081 426.88027,472.20264 427.35742,472.99272 C 433.25522,483.23888 437.28289,494.39555 440.42489,505.75206 C 443.75506,518.33202 442.92724,530.87955 439.13879,543.18752 C 435.15678,554.16736 429.43234,564.40149 423.80121,574.59965 C 418.8924,583.47558 414.16226,592.45374 408.67943,600.99357 C 401.75067,611.6518 392.87227,620.84137 380.56461,624.38586 C 378.77329,624.83862 376.93025,624.96429 375.10483,625.19126 L 382.15401,611.94996 C 383.75145,611.61287 385.38109,611.39949 386.91265,610.79449 C 390.66087,609.26652 399.95525,601.32172 397.10861,604.1993 C 380.6302,620.85686 391.41995,610.50811 394.5509,606.03416 C 400.29066,597.76559 405.01236,588.88338 409.82827,580.05676 C 415.39168,570.01698 421.09581,560.00373 425.47275,549.37319 C 429.61621,537.96899 431.08708,526.33794 428.15227,514.37794 C 425.32585,503.38759 421.46822,492.6335 415.92033,482.69921 C 414.23892,479.88419 412.5812,477.04861 410.73711,474.33771 L 423.6489,466.7017 z " />
    <path
       style="fill:#000000;fill-opacity:1;fill-rule:nonzero;stroke:none;stroke-width:1px;stroke-linecap:butt;stroke-linejoin:miter;stroke-opacity:1"
       id="path1588"
       d="M 435.77073,441.44789 C 434.07822,439.04182 437.06576,443.84079 437.36004,444.33028 C 440.51593,449.61349 443.56785,454.9575 446.60935,460.30706 C 450.62039,467.38134 454.51483,474.5216 458.2993,481.7195 C 462.20868,489.03493 465.66547,496.56145 468.20762,504.45938 C 471.01728,512.85913 470.77111,521.31732 468.91079,529.8512 C 466.81366,538.02645 463.25624,545.7113 459.92901,553.43657 C 456.8318,559.89014 454.86451,566.63724 454.02835,573.71786 C 453.81646,581.04208 457.91888,586.66283 462.65979,591.83381 C 465.76977,595.04238 469.2896,597.79576 472.8215,600.51468 L 462.68732,611.57457 C 458.96327,608.68347 455.25525,605.75387 451.96951,602.35715 C 446.44861,596.36199 441.61939,589.65879 441.05551,581.24968 C 441.14898,573.637 443.02085,566.29997 446.14501,559.35469 C 449.35995,551.75589 452.92384,544.27671 455.41335,536.39659 C 457.55478,528.69267 458.49592,521.04075 456.05013,513.24678 C 453.77893,505.5713 450.4656,498.30636 446.70997,491.2437 C 442.967,484.08636 439.10255,476.99271 435.12805,469.96122 C 432.10968,464.63921 429.07593,459.32563 425.94845,454.06674 C 424.93704,452.39321 423.97973,450.68409 422.85894,449.0839 L 435.77073,441.44789 z " />
    <path
       style="color:#000000;fill:#729d1a;fill-opacity:1.0000000;fill-rule:evenodd;stroke:none;stroke-width:1.0000000pt;stroke-linecap:butt;stroke-linejoin:miter;stroke-miterlimit:4.0000000;stroke-dashoffset:0.0000000;stroke-opacity:1.0000000;marker:none;marker-start:none;marker-mid:none;marker-end:none;visibility:visible;display:block"
       d="M 541.74109,481.60327 C 533.26999,478.36094 532.53441,466.97557 536.64246,460.04046 C 543.89185,447.85070 557.01931,439.01623 560.12883,424.55193 C 561.19576,417.67948 556.83774,411.39852 555.92019,404.69220 C 553.35932,394.77628 560.65495,384.94346 569.88872,381.90823 C 580.62940,377.99372 593.06166,380.96555 601.55282,388.41438 C 614.81873,396.93106 632.46406,394.28135 645.41961,386.49070 C 656.15631,381.86580 667.33052,375.41017 679.46693,377.44268 C 689.43073,380.84584 692.29120,392.92053 690.91962,402.29636 C 691.70138,410.30633 688.56824,418.21534 683.37184,424.25923 C 678.23915,429.07994 674.21249,435.02837 674.47448,442.42828 C 673.68656,453.80946 678.65774,464.42564 680.39455,475.43550 C 681.30607,489.67726 667.90215,503.76272 653.35643,501.53896 C 641.39727,500.69362 627.45407,504.15110 621.35718,515.47944 C 615.88477,523.37285 605.28020,529.98215 595.64538,525.63871 C 582.81083,517.98192 579.82735,502.27731 572.73169,490.24770 C 567.33592,482.36985 556.79321,483.21725 548.40249,482.59062 C 546.16067,482.43047 543.93509,482.08670 541.74109,481.60327 z "
       id="path1774" />
    <path
       style="color:#000000;fill:#a57649;fill-opacity:1.0000000;fill-rule:evenodd;stroke:none;stroke-width:1.0000000px;stroke-linecap:butt;stroke-linejoin:miter;stroke-miterlimit:4.0000000;stroke-dashoffset:0.0000000;stroke-opacity:1.0000000;marker:none;marker-start:none;marker-mid:none;marker-end:none;visibility:visible;display:block"
       d="M 610.71428,525.13004 L 629.01785,509.05861 C 629.01785,509.05861 654.46428,586.73718 657.14285,614.86218 C 659.82143,642.98718 546.42857,688.52290 573.66071,647.00504 C 600.89285,605.48718 620.98214,581.82647 610.71428,525.13004 z "
       id="path1822" />
    <path
       style="fill:#000000;fill-opacity:1;fill-rule:nonzero;stroke:none;stroke-width:1px;stroke-linecap:butt;stroke-linejoin:miter;stroke-opacity:1"
       id="path1594"
       d="M 580.57951,384.89877 C 582.10892,386.01335 579.09844,384.74630 578.51424,384.68615 C 573.82241,384.65955 569.82027,387.19156 565.98738,389.66361 C 561.55809,392.75496 551.11411,403.61341 567.61017,387.34538 C 570.37747,384.61634 562.68344,393.51572 561.29114,397.14437 C 560.98895,403.57159 566.56785,407.71431 570.22206,412.41992 C 574.91931,421.19205 567.73484,428.55292 562.27417,434.95969 C 555.10672,442.95189 547.46054,450.52340 541.69423,459.62665 C 537.23032,467.29697 538.11032,472.61669 546.52362,475.68688 C 556.15322,477.63141 565.92229,477.54339 574.84828,482.01649 C 582.42743,486.63169 585.63437,494.54448 588.36238,502.57437 C 590.31014,509.81430 592.64123,516.34391 598.42936,521.21290 C 610.43002,526.16404 622.73977,510.48760 610.28593,522.43002 C 619.28282,511.50805 627.57445,498.86617 641.38140,493.93209 C 649.44039,491.64950 657.84615,492.39538 666.09963,492.67377 C 689.48722,486.71325 669.02968,499.00079 672.81767,494.32859 C 676.31688,484.68046 673.79975,474.08990 671.86296,464.34024 C 669.44411,454.29681 669.12343,444.25189 671.96169,434.31394 C 674.44581,426.72099 679.49688,420.46429 683.79952,413.86131 C 688.49269,407.03718 688.07622,399.88685 685.52113,392.37736 C 682.64424,384.77609 677.13894,381.44848 669.39818,380.78998 C 662.71572,381.16779 657.25405,384.86941 651.78155,388.35508 C 646.85169,391.86346 641.79426,395.13571 636.38111,397.83851 C 631.55903,400.13165 626.33806,400.85479 621.07168,401.17033 C 616.05327,401.37853 611.12467,400.43589 606.25158,399.36325 C 601.44989,398.32896 596.92635,396.53997 592.59108,394.27358 C 588.80289,392.02327 585.52958,389.04600 582.19160,386.19675 C 581.96754,386.00551 579.29703,384.94617 580.09890,383.57116 L 591.85488,374.75098 C 592.07733,374.94069 592.29978,375.13041 592.52223,375.32012 C 595.60621,377.95202 598.61793,380.73742 602.17203,382.73111 C 606.21234,384.62331 610.36114,386.19374 614.77267,387.01764 C 619.27922,387.88146 623.82224,388.59442 628.42491,388.09544 C 633.17749,387.42421 637.80789,386.45457 641.98344,383.92317 C 647.11404,380.90608 651.97830,377.49273 656.99164,374.28817 C 663.30256,370.62408 669.74678,367.37319 677.29589,368.03659 C 686.57464,369.49793 693.62652,374.45650 697.42867,383.25412 C 700.63563,391.59800 702.15344,400.25154 697.82297,408.53534 C 693.98055,415.22032 688.88885,421.12586 685.63687,428.14852 C 682.13850,437.18408 682.02997,446.47209 684.26417,455.90027 C 686.42745,466.53652 688.85434,477.53020 686.57506,488.34886 C 682.09736,501.76603 670.95159,506.50228 658.33095,505.50618 C 650.60914,505.19495 642.64344,504.67890 635.33200,507.65899 C 610.57354,520.40537 648.31530,494.21070 624.59959,517.94202 C 614.09437,528.63759 604.02224,541.16607 588.42499,532.39035 C 581.68916,527.00796 578.44825,519.70823 576.28355,511.46959 C 574.04039,504.57681 571.85711,497.52987 565.30772,493.59236 C 556.48248,489.67554 546.62928,490.65699 537.51427,487.68082 C 527.61610,483.28206 523.07596,475.65639 527.73599,465.12124 C 532.85925,455.34400 540.39881,447.39136 547.95477,439.42933 C 552.28130,434.59701 559.19285,428.98660 558.88879,422.24742 C 554.68001,416.58825 548.69653,411.88404 548.12075,404.32517 C 549.05514,391.33941 561.01985,382.32556 571.28142,375.62808 C 576.30227,373.05636 581.46210,370.84979 587.14694,372.41833 C 588.55468,372.92777 590.95777,373.85211 592.05475,374.92297 L 580.57951,384.89877 z "
       sodipodi:nodetypes="cccccccccccccccccccccccccccccccccccccccccccccccccccccccc" />
    <path
       style="fill:#000000;fill-opacity:1;fill-rule:nonzero;stroke:none;stroke-width:1px;stroke-linecap:butt;stroke-linejoin:miter;stroke-opacity:1"
       id="path1596"
       d="M 614.96569,517.59651 C 617.18838,518.97123 617.9181,521.04642 619.00565,523.39337 C 622.26841,531.37612 622.32921,540.15648 622.35427,548.65282 C 622.16426,563.1776 618.71197,577.37459 613.73568,590.95257 C 608.27697,605.54137 600.31251,619.00132 591.17084,631.55973 C 587.57777,636.5012 583.62516,641.1589 579.66471,645.8047 L 565.35197,650.29564 C 569.33487,645.75976 573.32445,641.22397 576.97664,636.41232 C 586.20736,624.27041 594.32189,611.22944 600.02523,597.03914 C 605.17121,583.99246 608.8444,570.29438 609.40301,556.22168 C 609.53762,548.31911 609.6905,540.1403 607.1384,532.56895 C 606.59447,531.28562 604.50958,527.14132 607.32968,530.5083 L 614.96569,517.59651 z " />
    <path
       style="fill:#000000;fill-opacity:1;fill-rule:nonzero;stroke:none;stroke-width:1px;stroke-linecap:butt;stroke-linejoin:miter;stroke-opacity:1"
       id="path1598"
       d="M 634.77078,502.06244 C 634.72292,502.9551 634.77428,503.84669 634.77603,504.7389 C 635.1184,507.61157 636.03048,510.36572 636.91259,513.10674 C 638.49852,517.50659 640.22117,521.85547 641.90688,526.21764 C 644.19209,531.90427 646.18122,537.69831 648.06891,543.52641 C 650.26634,550.59482 651.98258,557.79876 653.59801,565.01848 C 655.19965,572.36908 656.66941,579.7475 658.09395,587.13419 C 659.33049,593.89274 660.60806,600.64172 661.9942,607.37115 C 662.47306,609.62337 662.94565,611.87692 663.42014,614.13006 L 651.03384,622.59188 C 650.5657,620.34281 650.10451,618.09228 649.6176,615.84715 C 648.20514,609.09351 646.87208,602.32578 645.66424,595.53213 C 644.26813,588.18156 642.80704,580.8433 641.24332,573.5264 C 639.68955,566.42439 638.03967,559.33869 635.95309,552.37117 C 634.13758,546.62898 632.22994,540.91541 629.98591,535.32334 C 628.28814,530.92195 626.55449,526.53415 624.91457,522.11065 C 623.8672,519.10677 622.84189,516.09364 622.23055,512.96288 C 622.09711,511.87908 621.78169,510.80356 621.85899,509.69845 L 634.77078,502.06244 z " />
    <path
       style="color:#000000;fill:#a57649;fill-opacity:1.0000000;fill-rule:evenodd;stroke:none;stroke-width:1.0000000px;stroke-linecap:butt;stroke-linejoin:miter;stroke-miterlimit:4.0000000;stroke-dashoffset:0.0000000;stroke-opacity:1.0000000;marker:none;marker-start:none;marker-mid:none;marker-end:none;visibility:visible;display:block"
       d="M 148.66071,794.77290 L 136.16071,777.80861 C 136.16071,777.80861 101.78571,814.86218 95.982142,851.91576 C 90.178571,888.96933 92.857142,906.82647 102.67857,919.32647 C 112.50000,931.82647 164.73214,933.61218 148.21428,918.88004 C 131.69643,904.14790 108.92857,886.73718 116.96429,850.57647 C 125.00000,814.41576 148.66071,794.77290 148.66071,794.77290 z "
       id="path1823" />
    <path
       style="color:#000000;fill:#729d1a;fill-opacity:1.0000000;fill-rule:evenodd;stroke:none;stroke-width:1.0000000pt;stroke-linecap:butt;stroke-linejoin:miter;stroke-miterlimit:4.0000000;stroke-dashoffset:0.0000000;stroke-opacity:1.0000000;marker:none;marker-start:none;marker-mid:none;marker-end:none;visibility:visible;display:block"
       d="M 67.869621,719.32751 C 85.055741,728.93610 97.317059,749.95940 76.397275,763.35745 C 59.442630,781.60060 82.130650,807.76224 101.08541,789.39375 C 115.62924,773.17302 137.42903,773.40000 147.31191,794.14627 C 160.86188,811.10916 183.47442,815.73256 202.91751,822.80049 C 227.58557,835.20222 239.03325,802.79172 221.68639,787.70722 C 208.18585,779.32143 193.72334,748.86209 218.79268,746.58408 C 241.03103,746.71335 253.98411,721.10368 242.14796,702.66985 C 232.81493,680.79014 207.32565,680.30244 188.25204,687.78740 C 165.85244,692.82198 142.48236,690.48055 120.97265,683.15753 C 100.70656,680.45146 61.090435,696.42316 67.869621,719.32751 L 67.869621,719.32751 z "
       id="path1783" />
    <path
       style="fill:#000000;fill-opacity:1;fill-rule:nonzero;stroke:none;stroke-width:1px;stroke-linecap:butt;stroke-linejoin:miter;stroke-opacity:1"
       id="path1602"
       d="M 182.71150,689.78426 C 189.94837,681.94076 191.20190,680.98230 199.23190,678.56584 C 207.38722,676.21149 215.64467,675.52773 223.96557,677.16903 C 235.68336,680.66411 243.88466,689.35108 250.22748,699.40364 C 256.19695,709.91570 257.90620,721.21784 254.02917,732.66641 C 246.04297,749.43846 231.76674,754.99520 214.88741,755.81113 C 204.24012,756.06620 194.00214,753.59404 184.29835,749.41330 C 185.91966,740.14620 190.07104,735.29459 200.83568,747.18630 C 211.21574,758.99649 221.02533,771.37596 229.30649,784.76138 C 235.90637,795.52628 241.26583,807.75127 236.86345,820.20684 C 222.96472,837.96485 208.14895,836.82677 188.41259,830.31665 C 172.29218,824.69477 158.19600,814.73155 146.49764,802.42316 C 139.08844,795.29338 134.87280,783.98447 124.77739,780.51856 C 115.95451,781.03008 108.21050,786.22972 100.68152,790.47793 C 92.586570,795.18591 84.780893,800.41637 75.115705,799.44961 C 66.519791,797.56602 62.896528,791.06796 63.080363,782.73226 C 64.652165,772.37284 71.383046,764.11649 77.848238,756.26347 C 81.656663,751.89876 85.246493,747.37079 88.440764,742.54128 C 87.092514,740.38668 82.009254,738.78091 79.180976,737.44760 C 72.082549,734.30629 65.995679,729.98327 61.790723,723.41666 C 57.919803,715.83136 59.660197,708.38255 64.255224,701.65541 C 74.438743,688.98073 86.504393,682.98994 101.75632,679.09675 C 111.85159,676.68337 122.19340,676.35642 132.32547,678.56350 C 138.83426,680.49309 145.05254,683.21961 151.53116,685.25028 C 156.64120,686.79858 161.89203,687.27893 167.19797,687.15773 C 172.23067,686.85441 177.08340,685.47616 181.87838,684.01439 C 186.64903,682.35657 191.36706,680.55266 196.13742,678.89322 C 197.83438,678.33268 200.17296,678.59325 201.87631,678.05276 L 194.91856,690.86504 C 193.25268,691.41477 191.58120,691.94874 189.93313,692.55081 C 186.55960,695.71536 180.37502,696.14494 175.47674,697.58060 C 170.29544,698.95573 165.04138,700.15782 159.64480,700.11815 C 153.89235,699.91252 148.19530,699.18264 142.69901,697.37530 C 136.38196,695.28026 130.27942,692.54567 123.81801,690.91851 C 114.24805,689.27206 104.56205,690.03093 95.196091,692.58698 C 86.721086,695.09728 59.533317,711.95220 78.573666,697.18269 C 73.905008,701.86077 70.921283,707.16762 73.305432,713.80238 C 76.977443,719.56665 82.296461,723.05844 88.572689,725.75065 C 93.512378,728.05501 99.227493,729.68954 101.45893,735.08807 C 100.90753,741.79694 96.544644,746.61812 92.129197,751.67248 C 85.946403,758.98722 79.240858,766.37017 76.320301,775.68053 C 75.422649,781.63372 76.272892,785.96506 83.087050,786.74211 C 91.632636,785.78252 98.658836,780.51646 106.11478,776.49571 C 114.52076,771.88160 123.51069,766.36341 133.44923,768.27837 C 144.34376,772.64202 149.44900,783.68627 157.19241,791.90438 C 168.33468,803.65267 181.83266,813.09841 197.29101,818.22547 C 204.33475,820.41639 211.62316,822.23453 219.06526,821.77983 C 222.69821,821.55787 231.90111,815.65884 229.42351,818.32513 C 226.83373,821.11214 224.09402,823.75596 221.42927,826.47138 C 221.88917,826.13104 222.34907,825.79071 222.80897,825.45037 C 229.95230,815.88175 223.08677,803.56328 217.93542,794.54514 C 209.87609,781.35840 200.21662,769.21885 190.04664,757.60838 C 182.88117,749.68251 174.85811,733.78419 193.62498,737.66439 C 202.77565,741.34297 212.39966,743.36550 222.32422,742.78359 C 242.96491,740.70628 243.92409,718.63826 238.78647,709.10551 C 233.32126,700.12142 226.10948,692.14992 215.51412,689.56241 C 207.84154,688.60204 200.22986,689.72070 192.89797,692.16379 C 185.84614,694.88575 180.48661,699.27378 197.11664,685.59918 L 182.71150,689.78426 z "
       sodipodi:nodetypes="ccccccccccccccccccccccccccccccccccccccccccccccccccccccccccc" />
    <path
       style="fill:#000000;fill-opacity:1;fill-rule:nonzero;stroke:none;stroke-width:1px;stroke-linecap:butt;stroke-linejoin:miter;stroke-opacity:1"
       id="path1604"
       d="M 141.29426,777.82021 C 141.29654,779.07722 140.08178,780.05701 139.30245,781.03458 C 136.82409,784.0755 134.33665,787.10901 131.89428,790.17907 C 128.05855,794.87582 124.58478,799.84721 121.1958,804.87051 C 117.38436,810.62488 114.06715,816.67738 111.10843,822.90753 C 107.95522,829.50414 105.73757,836.46347 103.91653,843.52702 C 102.06875,850.92129 100.83611,858.44272 100.20388,866.03373 C 99.652836,873.73496 100.03517,881.45701 100.94547,889.11248 C 101.80705,896.33374 103.81706,903.31992 106.20538,910.16486 C 106.84823,912.02295 107.64007,913.8229 108.37704,915.64378 L 96.557814,924.88114 C 95.75308,922.99249 94.930941,921.11066 94.218828,919.18403 C 91.652453,912.06793 89.426559,904.81318 88.375247,897.2986 C 87.287895,889.38369 86.748784,881.39653 87.139222,873.40514 C 87.610312,865.57604 88.666018,857.81159 90.466379,850.16905 C 92.180867,842.85491 94.223768,835.60928 97.282463,828.72694 C 100.13495,822.27959 103.32852,815.99248 107.11176,810.03411 C 110.42931,804.8554 113.86038,799.74393 117.65518,794.8983 C 120.09498,791.80826 122.53769,788.72153 125.03959,785.68146 C 125.61092,784.98308 126.63187,783.09934 127.39554,783.46366 L 141.29426,777.82021 z " />
    <path
       style="fill:#000000;fill-opacity:1;fill-rule:nonzero;stroke:none;stroke-width:1px;stroke-linecap:butt;stroke-linejoin:miter;stroke-opacity:1"
       id="path1606"
       d="M 144.66903,801.22918 C 147.3379,801.72935 144.10361,803.10644 143.80452,804.09949 C 161.40993,785.31557 149.06101,799.02401 145.30155,804.07933 C 142.27301,808.30555 139.54314,812.73348 136.87485,817.19235 C 134.13916,821.69033 131.79481,826.39831 129.58169,831.16895 C 127.02089,836.62764 125.19503,842.36409 123.67736,848.18396 C 122.19678,854.33974 122.0942,860.62824 122.47742,866.90645 C 122.8955,873.12187 124.84228,878.95285 127.29131,884.62011 C 129.91929,890.25386 133.69302,895.1724 137.67165,899.89917 C 141.44746,904.31544 145.84154,908.11212 150.40091,911.68552 C 153.82291,914.25135 157.50538,916.42945 161.18424,918.59846 L 151.48273,930.03978 C 147.64798,927.75486 143.81578,925.45045 140.2605,922.7397 C 135.46311,918.93889 130.82666,914.92136 126.82788,910.26428 C 122.5539,905.21644 118.50552,899.96557 115.58003,893.99395 C 112.81052,887.91162 110.50019,881.65709 109.81574,874.95038 C 109.17374,868.27399 109.01774,861.57687 110.2883,854.94829 C 111.56754,848.819 113.28348,842.79714 115.77582,837.03588 C 117.91625,832.10306 120.15748,827.21077 122.86636,822.55753 C 125.4954,817.98124 128.20541,813.44952 131.15571,809.07116 C 136.09175,801.89251 141.24156,795.40412 148.09097,789.72419 C 149.88316,788.39652 150.22891,787.58917 152.30504,788.31739 L 144.66903,801.22918 z " />
    <path
       style="color:#000000;fill:#729d1a;fill-opacity:1.0000000;fill-rule:evenodd;stroke:none;stroke-width:1.0000000pt;stroke-linecap:butt;stroke-linejoin:miter;stroke-miterlimit:4.0000000;stroke-dashoffset:0.0000000;stroke-opacity:1.0000000;marker:none;marker-start:none;marker-mid:none;marker-end:none;visibility:visible;display:block"
       d="M 306.51816,729.42902 C 290.34994,757.73065 344.61827,745.34723 340.13391,769.47572 C 335.39239,787.08034 311.61099,824.34936 337.02600,833.76911 C 363.06683,828.52150 358.92313,778.62807 390.95150,785.91401 C 414.59373,790.52175 438.19279,828.39621 465.28216,814.35928 C 476.56882,794.64622 443.85134,751.23049 491.36008,745.39325 C 508.82367,718.07699 447.18078,723.19592 443.28704,698.53270 C 440.20240,663.01047 402.17275,697.35529 384.62481,683.81408 C 374.78872,671.49843 350.70151,663.58764 355.06846,688.48216 C 351.74862,713.84140 322.06719,713.89731 307.14951,728.16635"
       id="path1794"
       sodipodi:nodetypes="cccccccccc" />
    <path
       style="color:#000000;fill:#a57649;fill-opacity:1.0000000;fill-rule:evenodd;stroke:none;stroke-width:1.0000000px;stroke-linecap:butt;stroke-linejoin:miter;stroke-miterlimit:4.0000000;stroke-dashoffset:0.0000000;stroke-opacity:1.0000000;marker:none;marker-start:none;marker-mid:none;marker-end:none;visibility:visible;display:block"
       d="M 402.23214,791.20147 L 423.21428,804.59433 C 423.21428,804.59433 391.07143,867.09433 391.07143,882.71933 C 391.07143,898.34433 395.08928,913.07647 410.71428,941.64790 C 426.33928,970.21933 351.33928,977.80861 356.25000,940.30861 C 361.16071,902.80861 366.51786,875.57647 379.46428,850.57647 C 392.41071,825.57647 400.44643,804.59433 402.23214,791.20147 z "
       id="path1824" />
    <path
       style="fill:#000000;fill-opacity:1;fill-rule:nonzero;stroke:none;stroke-width:1px;stroke-linecap:butt;stroke-linejoin:miter;stroke-opacity:1"
       id="path1612"
       d="M 444.24991,697.40366 C 445.32248,698.10904 446.50593,698.62037 447.64592,699.21096 C 451.52839,701.0511 455.39725,702.92047 459.25795,704.80647 C 465.7124,707.89804 472.07907,711.16602 478.44612,714.43225 C 485.56787,718.06994 492.58118,721.94227 499.15358,726.50649 C 504.63794,730.4986 507.55675,735.24559 505.43362,741.79024 C 495.6778,754.39303 487.13618,754.00483 473.11258,755.60688 C 451.68944,766.05591 472.48247,743.22866 469.07578,757.75583 C 469.74233,768.38638 472.83077,778.74686 475.04609,789.14446 C 478.24365,803.54469 477.70724,818.98658 459.47142,823.67623 C 445.1938,824.8532 432.07232,817.28179 420.08494,810.40303 C 407.89496,803.59864 396.51749,794.22817 382.4499,791.8831 C 382.24531,787.59265 366.20427,801.18312 367.8302,799.61446 C 383.48263,784.51329 373.28666,794.48826 369.88478,799.30254 C 363.66297,809.06145 358.97226,819.69198 352.03739,828.98834 C 343.53312,839.2225 332.82827,849.19633 322.55983,836.56312 C 316.6187,826.76156 318.87056,815.62242 322.00232,805.27837 C 325.96524,793.05209 332.932,782.17706 338.34378,770.60582 C 341.75351,762.97181 338.66281,760.38781 331.41148,758.58259 C 322.81449,756.97037 314.04013,756.72575 305.72418,753.86613 C 298.06527,750.67978 294.84415,744.61311 296.87543,736.66357 C 302.38102,724.16612 314.26009,715.88488 326.08284,709.92094 C 335.09634,705.57261 344.84849,703.07937 353.69128,698.37462 C 357.95723,695.34227 365.44367,686.9307 349.21204,703.2645 C 346.96869,705.52197 351.87154,697.2439 351.76077,694.06326 C 350.67783,687.19538 349.09868,680.44534 348.72118,673.49476 C 350.57355,658.31197 362.47165,656.98113 372.61946,662.96353 C 380.6269,668.23578 386.7265,675.74045 394.04782,681.83763 C 399.94895,686.49726 406.02031,685.90312 412.62526,683.46524 C 418.56794,680.65629 423.79596,676.63315 429.53479,673.46465 C 433.82634,671.30687 437.41058,671.52937 441.47169,673.70692 C 444.32854,676.14108 444.68303,679.00309 444.87816,682.50368 C 444.30801,685.55233 443.9913,688.57773 443.90603,691.67198 C 443.8738,694.68296 445.24921,697.00509 446.6833,699.49049 C 447.23907,700.35314 448.08316,700.95695 448.77879,701.68569 L 438.37093,712.48843 C 437.43904,711.55078 436.39891,710.71018 435.62246,709.62365 C 433.49677,706.5688 431.70341,703.44242 431.2137,699.66745 C 430.92944,696.29779 430.76172,692.92826 431.673,689.62033 C 431.90769,688.00774 432.57339,686.38751 431.56674,684.97257 C 428.94939,685.30479 426.37602,685.49484 424.09497,687.44433 C 418.42621,691.04662 412.87304,695.01276 406.42993,697.12689 C 398.2437,699.21809 390.58619,698.22159 383.81341,692.80484 C 376.68606,686.80611 370.67936,679.50871 362.85941,674.35495 C 351.05111,668.3483 349.29137,678.872 361.83129,666.2045 C 361.33382,672.88046 363.25301,679.35909 364.36563,685.93058 C 366.01736,698.24898 360.18068,706.77666 348.1009,712.29477 C 339.0069,716.40927 329.33238,719.13592 320.49914,723.84377 C 316.89643,725.87621 313.36043,727.92051 310.20822,730.62903 C 309.28409,731.42309 306.70963,734.02127 307.56253,733.15116 C 323.52214,716.86968 313.60214,726.31791 310.65943,730.74544 C 307.93434,736.2787 308.4539,739.51108 314.70714,741.85242 C 322.98829,744.2522 331.70018,744.24253 340.05918,746.32535 C 348.99986,749.09056 355.06891,754.5272 352.07692,764.5706 C 347.46987,776.45914 339.92175,786.9908 335.65109,799.0547 C 332.51512,807.94804 329.50294,817.55514 333.74731,826.56996 C 340.87246,834.95872 352.95702,817.4186 337.72205,833.47096 C 345.53609,825.00051 349.91636,814.25382 355.79677,804.4553 C 363.72096,791.87726 374.50778,777.75858 390.72724,779.37277 C 405.13464,782.7489 417.12431,791.57977 429.75069,798.93149 C 440.40367,804.99065 453.07823,812.93499 465.76997,810.06185 C 456.77189,820.37482 466.25099,813.54036 462.65113,797.59361 C 460.43585,786.84882 457.45946,776.22262 456.12377,765.32341 C 455.95064,751.97972 467.71131,743.15604 480.26674,742.42201 C 489.97419,741.44416 509.71263,732.47521 491.08,746.14874 C 495.35425,742.91908 493.14666,740.84902 489.13716,737.67315 C 482.66279,733.36536 475.90746,729.51432 468.94558,726.04098 C 462.60683,722.78868 456.25744,719.55704 449.83283,716.47653 C 445.95537,714.58608 442.05794,712.73716 438.18017,710.84808 C 437.76538,710.70703 435.13756,709.21827 436.6139,710.31545 L 444.24991,697.40366 z " />
    <path
       style="fill:#000000;fill-opacity:1;fill-rule:nonzero;stroke:none;stroke-width:1px;stroke-linecap:butt;stroke-linejoin:miter;stroke-opacity:1"
       id="path1614"
       d="M 409.50676,789.95591 C 410.65009,791.27118 408.98139,792.2367 408.68596,793.51929 C 407.16714,796.87743 406.19357,800.43461 405.23865,803.98319 C 403.52801,810.67962 401.58041,817.30414 399.14215,823.77206 C 395.56271,832.69334 390.96941,841.15471 386.56351,849.68345 C 380.62896,860.7866 376.14885,872.52796 372.43903,884.53295 C 368.53847,897.73456 365.89392,911.25894 364.12449,924.89876 C 363.49619,929.77196 363.34222,934.67946 363.22458,939.58457 L 350.29656,947.19308 C 350.32714,942.14299 350.38832,937.08834 350.94436,932.06167 C 352.53364,918.1814 355.10372,904.42541 358.88794,890.96652 C 362.36599,878.67372 366.81473,866.67528 372.65143,855.2939 C 376.95433,846.81242 381.57308,838.47977 385.38837,829.76008 C 387.9874,823.50888 390.07689,817.08847 391.73838,810.52273 C 392.70248,806.82177 393.59858,803.09399 394.93041,799.50326 C 395.45732,798.89823 395.73814,795.26552 396.59497,797.59192 L 409.50676,789.95591 z " />
    <path
       style="fill:#000000;fill-opacity:1;fill-rule:nonzero;stroke:none;stroke-width:1px;stroke-linecap:butt;stroke-linejoin:miter;stroke-opacity:1"
       id="path1616"
       d="M 426.67935,801.0622 C 426.8767,802.24945 426.57967,803.44286 426.48919,804.6278 C 426.05963,808.08089 424.95087,811.39049 423.91052,814.69523 C 422.41741,819.29646 420.59316,823.77708 418.77336,828.25579 C 416.82218,833.09674 414.67536,837.85385 412.4965,842.59542 C 410.3793,847.15569 408.2926,851.72964 406.21429,856.30769 C 403.94895,861.06124 401.96683,865.93181 400.20855,870.89204 C 398.10985,876.46303 397.50272,882.28322 397.31928,888.17872 C 397.21442,894.69993 398.57245,901.06714 400.17358,907.34616 C 401.72269,913.35897 404.42377,918.94172 407.28754,924.41566 C 409.87021,929.20892 413.0874,933.5834 416.58557,937.73587 C 416.82677,938.00606 417.06798,938.27624 417.30918,938.54643 L 406.5146,948.96276 C 406.26106,948.67974 406.00751,948.39671 405.75396,948.11369 C 402.0201,943.71525 398.56572,939.09446 395.77163,934.0285 C 392.68203,928.27284 389.7605,922.39586 387.9785,916.08132 C 386.16225,909.4574 384.59568,902.73991 384.42093,895.83742 C 384.39731,889.5524 384.6284,883.26008 386.61154,877.22798 C 388.21321,872.06794 390.07874,867.00366 392.38056,862.10863 C 394.47044,857.53362 396.51986,852.94031 398.65925,848.38795 C 400.81576,843.68324 403.0218,838.99973 405.00914,834.2198 C 406.83073,829.81815 408.68489,825.42455 410.26664,820.92962 C 411.33442,817.84228 412.42725,814.75333 413.19398,811.57475 C 413.38297,810.62694 413.55479,809.58065 413.76756,808.69821 L 426.67935,801.0622 z " />
    <path
       style="color:#000000;fill:#a57649;fill-opacity:1.0000000;fill-rule:evenodd;stroke:none;stroke-width:1.0000000px;stroke-linecap:butt;stroke-linejoin:miter;stroke-miterlimit:4.0000000;stroke-dashoffset:0.0000000;stroke-opacity:1.0000000;marker:none;marker-start:none;marker-mid:none;marker-end:none;visibility:visible;display:block"
       d="M 629.01785,847.45147 L 642.85714,828.25504 C 642.85714,828.25504 655.35714,841.64790 654.01785,876.02290 C 652.67857,910.39790 649.10714,914.41575 662.05357,933.61218 C 675.00000,952.80861 672.32143,947.45147 681.69643,958.16575 C 691.07143,968.88004 583.92857,1001.4693 604.46428,960.39790 C 625.00000,919.32647 634.37500,891.20147 629.01785,847.45147 z "
       id="path1825" />
    <path
       style="color:#000000;fill:#729d1a;fill-opacity:1.0000000;fill-rule:evenodd;stroke:none;stroke-width:1.0000000pt;stroke-linecap:butt;stroke-linejoin:miter;stroke-miterlimit:4.0000000;stroke-dashoffset:0.0000000;stroke-opacity:1.0000000;marker:none;marker-start:none;marker-mid:none;marker-end:none;visibility:visible;display:block"
       d="M 530.35712,824.23718 C 529.12599,813.06999 541.29532,808.15612 549.34055,803.73981 C 557.95121,798.47226 570.93809,797.39584 574.90568,786.75448 C 576.28829,776.42870 565.14663,770.92401 559.37743,764.15439 C 546.72554,750.57149 545.30206,730.74513 545.30000,713.13989 C 547.08303,701.94670 559.14959,701.18453 567.55374,704.74426 C 577.98207,705.01797 587.48140,694.24237 597.70208,701.40951 C 607.95524,709.52667 620.13460,714.08271 633.39092,712.71304 C 643.07282,712.34364 654.90110,718.08195 653.95639,729.29051 C 652.76137,739.92627 649.52045,752.09914 657.13145,761.25644 C 668.79484,778.33564 692.07850,785.05160 699.76615,805.22509 C 703.69162,813.60919 696.71105,827.14806 686.47295,822.03509 C 678.18282,817.57799 668.59332,814.88728 659.24999,817.64164 C 649.15114,819.00602 642.30651,827.29278 638.73978,836.24626 C 631.96503,847.02668 622.87867,856.42761 613.02596,864.38882 C 604.16852,871.89590 592.07323,863.95946 593.84152,852.79474 C 593.88774,841.43234 596.66112,826.85635 585.63999,819.35526 C 576.44605,813.71107 565.35613,818.56972 555.72161,820.48175 C 547.59211,822.58791 538.79366,826.93380 530.35712,824.23718 z "
       id="path1809" />
    <path
       style="fill:#000000;fill-opacity:1;fill-rule:nonzero;stroke:none;stroke-width:1px;stroke-linecap:butt;stroke-linejoin:miter;stroke-opacity:1"
       id="path1620"
       d="M 615.26053,706.75312 C 616.529,707.08735 617.82001,706.39337 619.08013,706.01201 C 622.79855,704.84363 626.63594,704.42889 630.49691,704.11567 C 635.72773,703.75671 640.83319,704.42385 645.85316,705.81136 C 652.5773,708.20155 657.34879,712.8056 660.94095,718.83741 C 664.67464,725.78447 663.86075,732.58299 661.00306,739.56905 C 656.79115,745.70454 656.03944,748.46975 660.68673,754.59807 C 667.92653,762.68744 676.50028,769.44108 684.6759,776.5457 C 692.74226,783.36037 699.95117,791.02317 705.7845,799.82508 C 710.09372,806.59709 712.37959,813.46152 709.34861,821.0114 C 697.55021,835.07837 689.47052,832.21329 674.73997,825.96579 C 666.78148,822.02187 659.609,818.6515 651.6801,823.86054 C 638.76015,836.77425 659.98082,813.47414 649.33302,826.55561 C 646.38413,830.1785 643.74228,834.02493 641.08712,837.86361 C 633.6966,850.36114 623.97858,860.5756 613.75854,870.77276 C 607.77184,876.10317 601.17589,878.12894 593.7215,875.35743 C 587.31734,870.55707 585.61625,862.94403 584.49341,855.39895 C 583.28972,845.92141 584.26678,836.37528 584.08526,826.8664 C 583.89052,819.45582 576.34322,822.94175 571.32814,824.21191 C 562.69088,826.79071 554.34432,830.206 545.57356,832.33455 C 538.44585,834.07987 531.55369,834.19469 524.87367,831.16322 C 514.59127,822.69908 526.43303,814.67078 533.12289,807.98953 C 539.89546,803.04935 547.39821,799.24178 554.86049,795.47115 C 562.43184,791.82721 569.91479,788.03948 576.90111,783.36637 C 584.78718,772.78753 575.97522,798.57892 573.17311,783.49267 C 569.77305,778.60544 564.95937,774.9347 560.52274,771.03094 C 554.86766,766.21976 550.00239,760.69749 546.04554,754.42757 C 542.06555,747.78884 539.77821,740.41581 538.1784,732.89495 C 536.76435,726.14132 536.39268,719.32639 537.61971,712.54866 C 540.53878,702.47587 548.32237,697.26444 557.75439,698.21467 C 561.89294,699.4765 565.77352,701.0708 570.0198,701.75067 C 573.32518,701.29296 575.34525,698.80658 577.66005,696.62122 C 580.6442,693.68222 584.29068,692.41901 588.25531,691.49886 C 592.49128,690.78875 596.46681,691.71788 600.47096,692.98374 C 604.41962,694.45145 607.68687,697.05823 610.90137,699.6971 C 613.98878,702.50864 617.06926,705.32096 620.24623,708.03094 C 621.35784,708.96577 622.56168,709.77908 623.72715,710.64197 L 613.70163,721.80045 C 612.44968,720.85952 611.15899,719.96786 609.96348,718.95284 C 606.77422,716.21928 603.67502,713.39034 600.56449,710.56779 C 597.79287,708.32396 595.00651,706.0877 591.53361,705.03143 C 588.19138,704.33211 585.00259,703.78677 581.65847,704.97123 C 578.49784,706.53271 575.61454,708.31051 573.16108,710.93143 C 569.72201,713.49883 566.44728,715.12031 561.99726,714.42592 C 557.82879,713.37489 553.89533,711.57509 549.6608,710.84467 C 536.40704,713.27887 559.30967,702.79957 551.28687,706.36549 C 549.23241,712.28476 549.38531,718.30676 550.60976,724.49946 C 551.92259,731.53644 553.8674,738.43902 557.4568,744.69072 C 561.16433,750.55101 565.56821,755.78317 570.93384,760.23132 C 575.76,764.47246 580.90732,768.50932 584.62944,773.8089 C 590.29921,784.66331 581.55247,791.27056 571.81602,797.47895 C 564.52694,801.88113 556.85043,805.5579 549.24954,809.38302 C 542.09954,813.0938 534.71089,816.77861 528.81964,822.35981 C 544.47478,806.55733 532.93312,814.65409 534.40673,819.58118 C 540.33551,821.21273 546.2343,820.5666 552.17217,818.86305 C 560.84782,816.3883 569.19843,812.88105 577.97869,810.76598 C 586.06514,809.19525 595.42357,808.6607 596.83733,818.96656 C 597.44973,828.39982 596.21108,837.8571 597.11258,847.2885 C 597.76387,853.10698 598.4107,859.60532 603.05168,863.61134 C 609.138,863.99716 613.83811,860.84376 618.00508,856.38562 C 600.11008,874.38498 624.02001,850.25463 626.96198,842.91371 C 635.28328,830.58908 644.16627,817.72489 657.11121,809.87748 C 666.68436,806.24079 675.15823,809.82141 683.97849,814.14747 C 696.29935,819.19491 710.31267,813.69557 694.94861,825.21412 C 700.27419,820.69191 697.76982,815.3269 694.44907,809.6501 C 688.96502,801.16789 682.00926,793.89854 674.30262,787.38165 C 665.91638,780.09848 657.14106,773.15817 649.7323,764.84617 C 644.74953,758.435 641.45255,752.20149 647.04834,745.07257 C 650.17957,739.62316 652.1205,734.49791 649.36618,728.37929 C 646.43849,723.37978 642.83408,719.58819 637.05995,717.96465 C 632.48516,717.04978 627.85139,716.70025 623.18925,717.21609 C 619.67195,717.73639 616.15942,718.33644 612.83057,719.64895 C 612.31384,720.0933 609.54246,720.60703 611.07545,721.15826 L 615.26053,706.75312 z " />
    <path
       style="fill:#000000;fill-opacity:1;fill-rule:nonzero;stroke:none;stroke-width:1px;stroke-linecap:butt;stroke-linejoin:miter;stroke-opacity:1"
       id="path1622"
       d="M 634.77078,841.47369 C 633.74018,839.93197 635.39574,843.72134 635.58705,844.2335 C 637.6169,849.40435 638.77302,854.79308 639.5024,860.28223 C 640.70691,871.47164 638.83903,882.6303 636.64809,893.57423 C 634.00651,905.88514 630.33847,917.94685 626.1731,929.81979 C 622.80351,939.45972 618.37582,948.64699 612.87919,957.24252 C 611.82995,958.8595 610.64148,960.37686 609.49691,961.92508 L 595.25513,966.6362 C 596.43337,965.18927 597.65359,963.77489 598.74091,962.25572 C 604.49747,954.13919 609.05943,945.30917 612.48521,935.95696 C 616.78651,924.30854 620.44932,912.42018 623.24859,900.31785 C 625.51763,889.82243 627.57721,879.12913 626.84804,868.33768 C 626.34455,863.17732 625.46836,858.09347 623.58755,853.23544 C 623.06935,851.83701 622.68411,850.35786 621.85899,849.1097 L 634.77078,841.47369 z " />
    <path
       style="fill:#000000;fill-opacity:1;fill-rule:nonzero;stroke:none;stroke-width:1px;stroke-linecap:butt;stroke-linejoin:miter;stroke-opacity:1"
       id="path1628"
       d="M 648.91291,821.26525 C 647.66067,819.22008 649.51181,823.17402 649.74239,823.71772 C 651.46611,827.90447 652.86605,832.21465 654.23819,836.52625 C 656.11409,842.57419 657.32647,848.79427 658.48855,855.00984 C 659.77784,861.7817 660.55435,868.62024 660.96478,875.49523 C 661.23329,882.25322 660.7006,889.00369 660.20151,895.73799 C 659.48549,901.98228 659.81727,908.17372 660.95886,914.32717 C 662.21213,920.03054 665.05776,925.06662 668.13916,929.9489 C 671.33278,934.84463 675.07334,939.34673 678.78255,943.85341 C 681.97777,947.76111 685.40913,951.45848 688.94744,955.05398 L 678.35097,965.67178 C 674.70689,961.97009 671.16684,958.16886 667.87233,954.14857 C 664.04077,949.50385 660.18456,944.85951 656.85545,939.83328 C 653.44985,934.53263 650.27563,929.07151 648.66272,922.91949 C 647.16744,916.38399 646.42737,909.78168 647.113,903.06696 C 647.61102,896.4773 648.19661,889.88035 648.13356,883.26586 C 647.90505,876.58183 647.24412,869.93586 646.0221,863.35313 C 644.94629,857.30229 643.81873,851.24771 642.09975,845.33994 C 640.81746,841.15012 639.47408,836.97457 637.87493,832.89303 C 637.30748,831.51514 636.8628,830.09732 636.00112,828.90126 L 648.91291,821.26525 z " />
  </g>
</svg>
