<?xml version="1.0" encoding="UTF-8" standalone="no"?>
<!-- Created with Inkscape (http://www.inkscape.org/) -->
<svg
   xmlns:dc="http://purl.org/dc/elements/1.1/"
   xmlns:cc="http://web.resource.org/cc/"
   xmlns:rdf="http://www.w3.org/1999/02/22-rdf-syntax-ns#"
   xmlns:svg="http://www.w3.org/2000/svg"
   xmlns="http://www.w3.org/2000/svg"
   xmlns:sodipodi="http://inkscape.sourceforge.net/DTD/sodipodi-0.dtd"
   xmlns:inkscape="http://www.inkscape.org/namespaces/inkscape"
   width="744.09448819"
   height="1052.3622047"
   id="svg2"
   sodipodi:version="0.32"
   inkscape:version="0.43"
   sodipodi:docbase="C:\Documents and Settings\Cowbert\Desktop"
   sodipodi:docname="tree-oak.svg"
   inkscape:export-filename="C:\Documents and Settings\Cowbert\Desktop\tree-oak.png"
   inkscape:export-xdpi="72"
   inkscape:export-ydpi="72">
  <defs
     id="defs4" />
  <sodipodi:namedview
     id="base"
     pagecolor="#ffffff"
     bordercolor="#666666"
     borderopacity="1.0"
     inkscape:pageopacity="0.0"
     inkscape:pageshadow="2"
     inkscape:zoom="0.35"
     inkscape:cx="375"
     inkscape:cy="520"
     inkscape:document-units="px"
     inkscape:current-layer="layer1" />
  <metadata
     id="metadata7">
    <rdf:RDF>
      <cc:Work
         rdf:about="">
        <dc:format>image/svg+xml</dc:format>
        <dc:type
           rdf:resource="http://purl.org/dc/dcmitype/StillImage" />
      </cc:Work>
    </rdf:RDF>
  </metadata>
  <g
     inkscape:label="Layer 1"
     inkscape:groupmode="layer"
     id="layer1">
    <path
       style="fill:#000000;fill-opacity:1;fill-rule:nonzero;stroke:none;stroke-width:1px;stroke-linecap:butt;stroke-linejoin:miter;stroke-opacity:1"
       id="path1309"
       d="M 115.96736,111.06197 C 114.91323,110.34921 114.24477,109.26324 113.48586,108.2711 C 111.30394,105.30622 110.02889,101.99554 109.28567,98.431753 C 108.91753,90.471348 115.72753,84.457414 122.74486,81.602906 C 128.76224,79.603007 134.90501,80.026439 140.74642,82.294974 C 146.23517,84.821494 149.58562,89.500576 152.01031,94.846773 C 153.54538,99.077873 154.50492,103.32816 158.45009,105.8024 C 162.89816,106.91111 166.31758,104.16836 169.50963,101.41431 C 161.12553,110.73971 168.41074,102.42268 170.63966,96.368103 C 170.4386,90.517154 177.8693,88.4119 179.38023,87.556231 C 182.72412,90.997785 187.03709,92.700668 191.65931,93.625773 C 200.04554,95.361723 209.71011,85.055307 200.51062,93.880653 C 203.25493,89.466983 201.40677,85.38026 198.90076,81.364467 C 195.9099,77.307639 191.78851,75.04552 187.08632,73.583702 C 183.27902,72.637082 179.67441,73.196891 176.06067,74.45885 C 173.31836,76.445825 173.43993,75.869649 172.07391,73.556506 C 173.92549,70.376749 173.92725,66.709456 173.94821,63.132551 C 173.80577,58.477855 172.81103,54.084166 170.0536,50.331597 C 166.49411,47.673349 162.84486,49.45803 159.3724,51.354916 C 155.80383,54.054552 152.59797,56.779814 148.13901,57.592486 C 143.49624,57.400599 140.02674,54.395541 136.57507,51.602028 C 133.06307,48.299828 129.19334,46.237566 124.49486,45.371992 C 119.98467,45.057059 116.3829,47.056896 112.95726,49.739303 C 110.51862,52.395247 108.32907,54.536991 104.85333,55.368528 C 100.62414,55.020007 96.683453,53.176123 92.760983,51.665259 C 88.080903,49.545374 83.404743,49.1953 78.411113,49.962523 C 64.138723,58.01364 79.183013,44.964609 74.968333,50.952367 C 73.849623,53.92025 74.971303,56.158766 76.544453,58.661008 C 81.731503,63.484851 73.507993,65.888 70.203823,68.195781 C 66.272163,67.661566 62.400513,67.780205 58.497033,68.385328 C 53.861352,69.315844 49.75033,71.446114 46.003199,74.250484 C 50.894917,71.706059 47.697811,67.804495 48.633232,75.434707 C 50.217112,78.189575 53.15872,79.453651 55.847541,80.91714 C 61.790053,85.34003 54.25929,89.62718 50.521021,93.328863 C 46.668753,96.438883 42.705466,99.402643 38.980729,102.6673 C 36.650098,104.88608 31.682895,109.80614 41.887612,99.718413 C 43.601789,98.023883 38.83411,103.62292 38.230382,105.95644 C 39.341305,109.21765 42.552503,109.10429 45.626011,109.1861 C 49.867912,108.76 53.944432,107.74993 58.220963,107.93559 C 62.146823,108.52306 65.146433,110.97078 68.120973,113.40723 C 70.993183,116.02061 74.041253,118.34148 77.532063,120.0363 C 80.693563,121.35915 83.378153,120.73733 86.269403,119.25449 C 88.463453,117.02001 89.940183,116.4977 92.874543,117.33573 C 96.129713,119.18643 98.933653,121.73559 101.88327,124.02925 C 104.92568,126.52022 108.2949,128.28328 112.02139,129.42181 C 117.18049,130.08786 121.95718,123.03433 111.71817,133.29211 C 113.42616,131.59004 113.51019,129.45612 113.67905,127.16888 C 113.57934,124.4326 113.55196,121.74237 113.956,119.03902 C 115.43755,114.29372 119.76262,111.56987 124.14084,110.05834 C 125.64104,108.73083 121.33526,112.91848 119.93044,114.34655 C 119.5551,113.23285 118.38303,112.6565 117.48206,111.96154 C 116.90714,111.57972 116.32447,111.20987 115.74565,110.83403 L 120.07044,102.25569 C 120.66387,102.64495 123.03485,104.91352 123.61855,105.31755 C 124.92637,106.33114 126.31288,107.24248 127.05804,108.77911 C 127.42977,113.14616 124.08308,116.36615 119.60447,117.88269 C 117.37994,118.81152 103.99866,128.4328 124.01387,114.56177 C 118.45194,118.42682 120.81287,119.35722 121.09504,121.9918 C 121.03646,124.50599 121.03737,127.04126 119.84772,129.32858 C 114.73398,134.51334 113.17377,137.91468 106.4245,136.52631 C 102.48671,135.2273 98.925743,133.20379 95.676953,130.60806 C 92.892743,128.43558 90.245893,125.96435 87.118713,124.31209 C 85.300633,124.91191 83.614663,125.83868 81.891203,127.16843 C 78.384263,128.27132 75.133083,128.57031 71.670513,126.92406 C 68.070573,125.05657 64.851303,122.6638 61.851073,119.92547 C 59.155623,117.72977 56.516302,115.5251 52.908381,115.25513 C 48.700342,115.38819 44.627696,116.56444 40.406723,116.57245 C 36.377077,116.22095 32.506177,115.52072 30.940324,111.3094 C 30.511088,103.81868 37.995525,99.255873 42.955381,94.543193 C 46.74148,91.370175 50.75453,88.472072 54.433223,85.17449 C 46.641228,92.971583 51.084807,91.095477 49.84328,87.680864 C 46.780729,86.014913 43.59085,84.430839 41.760866,81.314305 C 39.282273,74.148958 44.039966,71.143879 50.101361,66.187968 C 54.197967,63.581401 58.569443,61.529714 63.423593,60.800602 C 67.438493,60.37253 71.406853,60.430262 75.428963,60.81357 C 73.928113,62.516693 70.789323,66.92194 69.924273,64.823168 C 68.039883,61.956265 66.494203,59.13405 67.191663,55.569989 C 69.721263,48.654006 76.237633,43.714879 83.331043,42.373489 C 88.613703,41.75348 93.649783,42.561316 98.539863,44.707983 C 102.12788,46.087634 105.85224,48.010862 109.75095,47.765076 C 112.40597,46.026245 114.59101,43.743219 117.02566,41.66173 C 120.99469,39.098914 125.09922,37.427587 129.93311,38.145338 C 134.87527,39.333711 139.09053,41.556351 142.83266,45.071962 C 145.89874,47.542603 148.91074,50.357587 153.0777,50.015648 C 156.98113,48.375757 160.10594,45.633095 163.72426,43.426455 C 168.19267,41.49463 172.4475,40.568796 176.48933,43.977034 C 179.6124,48.041373 181.08234,52.699921 181.30046,57.865339 C 181.46137,61.690265 181.41512,65.590273 179.9999,69.200161 C 178.17226,68.275065 177.02332,67.868854 180.66333,66.673311 C 184.67834,65.694535 188.66023,65.313461 192.7136,66.503242 C 197.78917,68.137798 202.26813,70.901059 205.52606,75.207809 C 208.49598,79.556582 210.633,84.487941 208.5289,89.696593 C 201.58953,97.189913 196.83271,102.67625 186.15871,100.80508 C 181.18965,99.613943 176.55044,97.647733 172.94352,93.909813 C 173.8545,92.997143 181.0478,82.811758 178.34857,91.638209 C 176.0751,99.250483 171.89773,104.31822 165.5327,109.53732 C 161.53247,112.43001 157.47037,114.61347 152.51958,112.63089 C 148.26596,109.68353 146.56143,105.58291 145.09437,100.67504 C 142.97453,95.751953 140.04114,91.410825 134.93626,89.226141 C 129.44089,87.303095 123.66476,87.167934 118.21629,89.431771 C 108.90646,94.401773 123.20667,79.038976 116.57291,93.074963 C 117.00054,96.394913 118.15447,99.391083 120.13012,102.1349 C 120.30903,102.37215 122.21555,104.717 121.16787,103.66239 L 115.96736,111.06197 z "
       sodipodi:nodetypes="cccccccccccccccccccccccccccccccccccsccccccccccccccccccccccccccccccccccccccccccccccccccsccccccccccccccccc" />
    <path
       style="fill:#000000;fill-opacity:1;fill-rule:nonzero;stroke:none;stroke-width:1px;stroke-linecap:butt;stroke-linejoin:miter;stroke-opacity:1"
       id="path1313"
       d="M 282.0145,50.67291 C 281.56528,49.948428 275.89358,56.587853 276.03774,55.950878 C 276.08331,44.847085 289.39633,41.247621 293.58009,38.375736 C 296.5778,36.381372 299.89048,35.259777 303.39238,34.588413 C 307.09449,34.006685 310.46995,35.090759 313.79857,36.584152 C 316.50536,38.283749 319.21954,39.381738 322.36023,39.777257 C 325.37975,39.792003 327.90262,38.399932 330.44691,36.953306 C 333.40072,34.995347 336.40881,33.14659 339.59407,31.594263 C 342.89023,29.998096 345.79213,30.310705 349.06081,31.550647 C 351.96567,33.260203 353.22388,36.029451 354.37697,39.041889 C 355.05157,41.612026 355.74596,41.658954 358.12215,41.58831 C 361.15636,40.953558 364.13609,40.084127 367.13738,39.311758 C 370.92233,38.282881 374.78414,37.662462 378.68054,37.280845 C 382.8492,36.910357 386.79326,37.691494 390.64592,39.20005 C 394.54981,41.049731 397.16313,44.13435 399.25017,47.805936 C 400.95218,51.180044 400.96069,54.603251 400.37637,58.214555 C 398.70199,63.71487 393.71631,66.978354 389.72593,70.858577 C 389.96058,59.237155 394.42074,66.991869 395.60631,65.996341 C 399.10186,66.587428 402.56964,67.253409 405.99954,68.150193 C 410.86561,69.505424 414.94732,72.173704 418.56309,75.628178 C 422.49669,79.578422 425.14265,84.4187 426.80622,89.69575 C 428.17888,94.3547 427.8371,98.718959 425.66347,102.98162 C 420.00087,110.00644 415.61348,113.21155 407.15083,113.7869 C 402.1103,113.88348 397.46114,112.34083 393.03842,110.08638 C 389.20624,107.9059 386.47948,104.62338 384.088,101.00769 C 382.92284,98.965049 381.7318,96.94504 380.42888,94.99347 C 381.95305,92.93327 384.92969,92.51315 387.00088,91.00397 C 387.41893,93.33603 388.12474,95.60331 388.75376,97.88438 C 389.68685,100.81832 390.15393,103.80346 390.31934,106.86107 C 390.21673,112.80418 385.43111,115.28818 381.26055,119.20224 C 378.9802,120.2348 376.87382,119.76042 374.56249,119.21152 C 372.59,118.28924 370.60063,117.93397 368.48563,117.78418 C 366.14388,118.71321 356.81906,128.3514 370.91703,115.09272 C 369.62872,117.30089 369.24382,119.82898 368.80009,122.30748 C 368.46141,125.37943 367.58737,128.27223 366.40609,131.10421 C 362.80111,136.65334 359.67376,140.26761 353.55813,139.9826 C 350.467,139.47023 348.26077,137.5473 346.05806,135.48413 C 344.05355,133.22239 342.59276,130.5646 340.77944,128.15942 C 339.19189,126.51599 338.5167,126.94536 336.70558,127.66045 C 330.77394,133.88375 344.14437,118.95764 337.04893,127.78486 C 333.41722,133.29845 328.55638,137.58886 323.80474,142.11543 C 319.65835,144.94826 314.81174,145.74143 309.89746,145.96672 C 304.48995,146.13848 299.50665,144.63293 294.83952,142.04893 C 290.65415,139.31677 288.75294,135.49113 287.90616,130.7278 C 287.49557,126.25137 288.83446,122.0949 290.5354,118.03055 C 291.71632,115.81559 292.52756,113.49653 293.15752,111.09731 C 292.70003,110.5569 290.96475,111.37401 290.17277,111.58948 C 287.68044,112.52726 285.1416,112.9801 282.50295,113.10782 C 279.81564,112.89882 279.1145,111.59959 278.12068,109.44432 C 278.09485,107.02643 279.45611,105.33289 280.89773,103.52396 C 281.96928,102.58078 282.68418,101.31215 283.44846,100.18227 C 282.19456,99.273329 280.51536,99.047209 279.0183,98.670989 C 276.07238,98.11548 273.11931,97.61098 270.18243,97.00835 C 266.84324,96.40139 263.89511,94.90837 261.03474,93.16835 C 258.19317,91.29977 256.58856,88.60486 255.19701,85.61157 C 254.06734,82.50573 254.44484,79.479448 255.15654,76.355722 C 257.15061,70.843402 261.68426,66.683787 266.51065,63.493432 C 268.96872,62.199047 288.03493,48.439404 271.57705,63.946122 C 272.35763,62.292638 273.01764,60.581856 273.71672,58.891824 C 276.01505,54.16144 280.05991,50.468261 284.35679,47.503056 C 285.64841,46.721522 286.90412,45.883531 288.17041,45.062354 L 279.02699,59.123253 C 277.76852,59.934191 277.82931,54.884296 279.20265,54.588044 C 278.43317,56.240173 280.0445,57.759927 279.44647,59.488381 C 276.64577,62.704897 274.44314,67.781105 269.67851,68.67739 C 267.09956,69.322244 264.47701,69.881002 262.29285,71.49401 C 257.44363,75.745956 269.80035,62.652105 262.92428,71.723086 C 262.00194,74.421115 261.38953,77.041096 262.19431,79.881226 C 263.29484,82.55795 264.62144,84.8935 267.14846,86.50341 C 269.83774,88.06972 272.61212,89.35221 275.72296,89.85981 C 278.67624,90.43096 281.64914,90.901 284.58764,91.54487 C 286.67555,92.13162 288.78309,92.529 290.26351,94.23634 C 290.84009,96.47486 290.86458,97.69433 289.02557,99.556929 C 287.71459,101.01499 286.29556,102.41974 285.5316,104.25999 C 286.1209,104.75476 285.47084,106.33625 287.65855,105.67687 C 290.13574,105.27133 292.54661,104.67052 294.94617,103.90743 C 297.29652,103.58151 298.96537,103.35482 300.34792,105.6112 C 300.558,108.47829 299.83105,110.95451 298.38577,113.53936 C 296.66993,117.32086 295.08634,121.15338 295.21109,125.39515 C 295.65786,129.65265 297.14107,132.95631 300.89783,135.33357 C 305.30156,137.6345 310.00063,138.8475 315.02347,138.51533 C 319.68468,138.11608 324.18884,137.12175 327.85457,134.02853 C 324.38117,137.59674 323.16943,139.38852 328.98034,131.87106 C 332.42647,127.34173 336.05649,122.4305 341.16406,119.79146 C 343.69855,119.58061 345.45313,119.81085 347.27823,121.86936 C 349.10172,124.23191 350.57783,126.82923 352.48897,129.12469 C 354.37813,130.88437 356.18084,132.48857 358.88227,132.67147 C 363.62739,131.83255 363.83033,129.65658 358.4444,135.39496 C 359.90866,132.85141 360.90021,130.20017 361.21884,127.23939 C 361.64359,124.61437 362.01065,121.95643 363.00297,119.47071 C 365.21665,115.2576 368.62117,110.3953 373.67224,110.37485 C 375.91353,110.74224 378.06186,111.31912 380.1948,112.13506 C 382.20649,112.35805 383.77253,112.58716 385.4885,111.20702 C 379.94792,116.84521 381.0174,117.72328 382.86685,111.98548 C 382.92428,109.08541 382.57191,106.27998 381.66292,103.49857 C 381.03293,101.16754 380.32531,98.854759 379.81365,96.49422 C 378.92564,92.26246 381.88143,86.19818 386.9037,88.67874 C 388.31847,90.69046 389.63288,92.76152 390.79635,94.94161 C 392.97098,98.30375 395.44372,101.35093 399.02716,103.30892 C 403.20484,105.32653 407.56489,106.61759 412.26914,106.33022 C 418.92736,105.44415 427.1944,98.645129 417.59043,107.05902 C 420.36238,103.51799 420.80552,99.723139 419.72767,95.32542 C 418.20045,90.34825 415.94064,85.73699 412.17364,82.02927 C 408.79071,78.803386 404.94588,76.395585 400.37084,75.229516 C 396.93299,74.393709 393.44799,73.832862 389.99207,73.087139 C 383.77999,70.036559 388.18751,67.381448 393.66446,62.716889 C 392.27242,64.145359 390.89294,65.586174 389.48835,67.002297 C 388.27543,68.225169 394.35542,62.678093 392.6494,62.914874 C 393.55454,59.768917 393.8094,56.815325 392.40403,53.716041 C 390.6358,50.391317 388.34482,47.661579 384.8076,46.107519 C 381.17987,44.845041 377.47695,44.311993 373.62621,44.781031 C 369.82132,45.264068 366.05337,45.958325 362.35353,46.987294 C 359.28173,47.796966 356.21464,48.773252 353.04214,49.071134 C 350.07558,48.751338 348.22962,47.832936 347.35734,44.744859 C 346.47135,42.194777 345.64284,39.809357 343.16693,38.410764 C 340.25993,37.744978 337.85897,37.864144 335.15505,39.47425 C 332.07647,41.17242 329.14246,43.099047 326.12261,44.896831 C 323.20931,46.283722 320.33659,47.456411 317.02438,47.079844 C 313.74638,46.397914 310.78961,45.191356 307.90495,43.444497 C 304.81123,42.230246 301.84567,41.375067 298.49691,42.193246 C 295.22646,43.066658 292.14136,44.363508 289.40032,46.396245 L 282.0145,50.67291 z "
       sodipodi:nodetypes="ccccccccccccccccccccccccccccccccccccccccccccccccccccccccccccccccccccccccccccccccccccccccccccccccccccccccccsccccccccccccccc" />
    <path
       style="fill:#000000;fill-opacity:1;fill-rule:nonzero;stroke:none;stroke-width:1px;stroke-linecap:butt;stroke-linejoin:miter;stroke-opacity:1"
       id="path1319"
       d="M 120.37455,119.7951 C 121.12377,120.15076 123.43328,121.48105 124.20981,121.79545 C 125.98825,122.52914 127.24334,123.86781 128.52701,125.2313 C 130.12111,127.19238 130.32659,129.41709 130.51065,131.82236 C 130.54442,134.52625 129.74856,137.04503 128.82192,139.54289 C 127.79818,142.09971 126.109,144.23162 124.34806,146.30745 C 120.29994,151.0527 116.7897,154.46163 111.22384,156.57548 C 108.60195,157.43508 105.87414,157.46159 103.15009,157.43348 C 101.92755,157.38882 100.71833,157.20462 99.505253,157.06432 L 104.90442,149.80843 C 106.06338,149.91301 107.21993,150.07058 108.38688,150.05952 C 110.92836,149.97815 113.45708,149.81917 115.82784,148.79073 C 119.62939,146.90471 127.7762,139.4611 116.17943,150.18981 C 118.00271,148.31357 119.78046,146.38506 120.96342,144.01985 C 122.00142,141.76168 122.93792,139.48881 123.07201,136.96684 C 123.09653,134.98177 123.1906,133.15426 121.96877,131.45936 C 120.87947,130.33732 119.87927,129.21368 118.34204,128.67793 C 117.91817,128.5566 116.60248,127.85705 116.68927,128.20483 L 120.37455,119.7951 z "
       sodipodi:nodetypes="ccccccccccccccccccc" />
    <path
       style="fill:#000000;fill-opacity:1;fill-rule:nonzero;stroke:none;stroke-width:1px;stroke-linecap:butt;stroke-linejoin:miter;stroke-opacity:1"
       id="path1321"
       d="M 165.12836,106.19431 C 165.12836,106.7585 165.12836,107.32269 165.12836,107.88687 C 165.12712,109.95687 165.12859,112.02688 165.13218,114.09686 C 165.0848,116.97213 165.34406,119.8228 165.72544,122.66637 C 166.23063,125.84649 167.27615,128.88679 168.36371,131.90331 C 169.52657,135.00923 171.015,137.96658 172.58944,140.87828 C 174.1066,143.71364 176.04423,146.25487 178.09301,148.71513 C 180.18564,151.22972 182.85263,153.00306 185.62754,154.65609 C 187.09547,155.47605 188.66824,156.06166 190.2315,156.66417 L 184.46834,163.63447 C 182.82772,162.96726 181.17618,162.31872 179.63644,161.43147 C 176.67276,159.66345 173.87208,157.67367 171.61379,155.02535 C 169.44229,152.48761 167.44484,149.81599 165.82649,146.88341 C 164.16841,143.90855 162.64389,140.86395 161.40893,137.68519 C 160.23097,134.57433 159.14074,131.42488 158.52941,128.14508 C 158.05821,125.22128 157.70534,122.28806 157.74669,119.31736 C 157.72994,117.24079 157.72308,115.16413 157.72878,113.08739 C 157.72878,112.5232 157.72878,111.95901 157.72878,111.39482 L 165.12836,106.19431 z " />
    <path
       style="fill:#000000;fill-opacity:1;fill-rule:nonzero;stroke:none;stroke-width:1px;stroke-linecap:butt;stroke-linejoin:miter;stroke-opacity:1"
       id="path1331"
       d="M 313.69979,139.05145 C 313.69979,139.64314 313.69979,140.23482 313.69979,140.8265 C 313.76584,142.72265 313.64855,144.60729 313.50856,146.4955 C 313.33177,149.08122 312.47569,151.43006 311.40113,153.75025 C 308.37753,158.86762 303.94902,162.88084 298.50388,165.05049 C 295.49036,166.10579 292.3214,166.37137 289.15955,166.53821 L 294.28211,159.08446 C 297.27783,158.82174 300.27856,158.47001 303.05972,157.23746 C 313.03571,151.79237 297.48316,162.65114 303.42416,158.01255 C 304.64453,155.95523 305.74941,153.93447 305.96345,151.48252 C 306.1826,149.66916 306.39427,147.85973 306.30021,146.02701 C 306.30021,145.43533 306.30021,144.84365 306.30021,144.25197 L 313.69979,139.05145 z " />
    <path
       style="fill:#000000;fill-opacity:1;fill-rule:nonzero;stroke:none;stroke-width:1px;stroke-linecap:butt;stroke-linejoin:miter;stroke-opacity:1"
       id="path1335"
       d="M 377.9855,112.62288 C 378.05596,113.31798 377.90608,114.03325 377.86652,114.73557 C 377.71147,117.02926 377.66294,119.32736 377.63032,121.62525 C 377.60678,124.85997 377.82899,128.08864 378.04311,131.3142 C 378.32229,134.89443 378.61101,138.474 378.92518,142.05134 C 379.04838,145.31666 379.86919,148.36884 381.13439,151.34512 C 382.24157,153.66555 383.98747,154.78184 386.2174,155.76521 C 388.52231,156.33386 390.82107,155.86993 393.10438,155.43737 C 393.28216,155.39591 393.45994,155.35445 393.63771,155.31299 L 388.77969,162.94179 C 388.59225,162.97708 388.40482,163.01237 388.21739,163.04766 C 385.61072,163.39478 383.02262,163.6964 380.48736,162.76277 C 377.87223,161.50057 375.73244,159.95171 374.3287,157.30177 C 372.85856,154.14655 371.79942,150.91871 371.62865,147.39546 C 371.30854,143.81 371.01835,140.22214 370.72888,136.63408 C 370.4947,133.36783 370.26034,130.09873 370.22868,126.82283 C 370.23622,124.4933 370.26534,122.16448 370.39896,119.83798 C 370.45939,119.18681 370.40163,118.40488 370.58592,117.82339 L 377.9855,112.62288 z " />
    <path
       style="fill:#000000;fill-opacity:1;fill-rule:nonzero;stroke:none;stroke-width:1px;stroke-linecap:butt;stroke-linejoin:miter;stroke-opacity:1"
       id="path1337"
       d="M 536.94509,94.726275 C 536.42881,94.268725 536.27879,95.752709 536.01495,96.159159 C 535.21792,97.963168 535.24572,99.83175 535.25275,101.75248 C 535.44186,104.6078 536.77957,106.98577 538.22739,109.36776 C 540.07993,112.10188 542.71928,113.84307 545.53192,115.43075 C 548.51852,116.92536 551.66533,117.18415 554.9314,117.11458 C 558.13517,116.89794 560.78144,115.48024 563.37171,113.72682 C 567.16341,108.20124 556.97869,123.04057 562.91216,113.14225 C 564.23806,110.61717 564.44522,107.85558 564.56571,105.0677 C 564.53476,102.73899 564.19748,100.42909 563.92761,98.119295 C 563.92687,92.958861 568.33192,89.304015 572.37955,92.037102 C 574.18515,93.725942 576.10239,95.278276 578.04321,96.806671 C 580.42782,98.791172 583.09912,100.16756 586.0277,101.08926 C 590.77416,101.36945 595.11427,94.816969 584.90354,105.0294 C 586.47817,103.52169 587.08491,101.41962 587.8573,99.437633 C 592.15397,93.178768 593.92269,90.261647 599.43769,93.615568 C 602.31936,95.85128 604.53012,98.779454 606.71762,101.66431 C 608.88206,104.82308 610.93413,107.99191 613.74845,110.57652 C 616.27867,111.69987 617.73838,110.4764 619.71947,108.94238 C 621.65171,106.89809 622.94472,106.52932 625.45567,107.2123 C 627.58621,109.09083 628.03257,111.79374 628.64101,114.44969 C 629.23053,117.8426 629.90789,121.2152 630.73869,124.55694 C 631.38492,127.94243 633.10934,130.10923 635.68001,132.20881 C 639.50701,134.58091 643.87437,135.06027 648.27838,135.14486 C 653.78861,135.15654 659.07536,133.76597 664.17413,131.79316 C 669.36925,129.69679 673.95089,126.52971 677.92151,122.61286 C 668.18888,134.38323 677.67526,121.16665 679.19928,116.23424 C 680.33625,112.1398 679.9255,108.19673 678.6715,104.21873 C 677.29887,100.48819 674.77599,97.662242 671.78759,95.153945 C 668.40922,92.617581 664.48257,91.1071 660.50471,89.809072 C 656.83213,88.833086 653.08192,88.243246 649.42726,87.211147 C 646.92241,86.427689 646.0732,84.910506 645.15794,82.710984 C 644.92877,80.475708 645.98674,78.685191 646.97715,76.774527 C 648.33948,74.698287 649.47598,72.507378 650.54155,70.273635 C 651.62065,71.118225 649.98103,72.083564 648.90447,73.098744 C 659.00192,62.453652 648.03446,75.248131 641.7651,79.910258 C 638.70978,81.547841 636.61465,80.419346 634.13366,78.462309 C 631.59191,75.809712 629.79382,72.581249 627.94533,69.43478 C 625.90736,65.760812 623.65745,62.231016 621.12793,58.879854 C 618.73246,55.642505 615.94677,54.364529 612.02582,54.432464 C 607.88638,55.119682 604.62757,57.590375 601.56009,60.287768 C 610.38496,51.145154 599.6416,63.320268 594.12673,68.868388 C 591.50068,70.525894 589.07625,69.833435 586.34164,68.89502 C 583.067,67.448256 580.00575,65.56731 576.90416,63.78937 C 573.54136,61.809959 570.00156,60.216275 566.2929,59.0272 C 562.67228,58.023292 559.10441,58.272395 555.54424,59.281388 C 555.63723,57.966882 551.39926,62.51894 552.33765,61.593745 C 553.7806,60.171098 555.39982,58.939088 556.9309,57.611759 C 557.16028,59.241224 558.43664,60.274547 559.52466,61.420258 C 558.94869,68.133155 554.70598,68.696018 549.50187,68.342236 C 545.81889,68.075562 542.13168,67.878327 538.44357,67.699767 C 534.0566,67.393837 529.67802,67.424428 525.29721,67.752056 C 520.93329,68.0909 516.74518,69.25778 512.68837,70.840301 C 508.00971,72.242467 498.73265,82.132587 510.22964,70.637482 C 508.38988,72.123142 508.22348,73.618591 508.01757,75.703459 C 508.66497,77.966006 510.3492,78.980448 512.20791,80.184921 C 514.80453,81.535859 517.71127,82.018017 520.53022,82.694186 C 523.55301,83.358271 526.02024,84.944933 528.3872,86.842945 C 530.58914,88.805341 532.32811,91.184635 534.06466,93.54835 C 534.84955,94.617335 535.56783,95.732262 536.30696,96.832575 L 529.63049,102.93371 C 528.91156,101.85665 528.21302,100.76546 527.45109,99.717613 C 525.80515,97.467056 524.17235,95.186804 522.07697,93.322155 C 519.9258,91.63773 517.67311,90.322645 514.93593,89.800733 C 511.94857,89.105748 508.90935,88.500742 506.21504,86.958742 C 503.94978,85.475726 501.92796,83.975153 500.94108,81.335733 C 500.4396,78.773212 500.29184,76.733206 502.07243,74.543758 C 506.93293,69.645042 510.75218,65.311188 517.26292,63.038212 C 521.51131,61.594722 525.86262,60.514632 530.36462,60.260693 C 534.81835,60.017862 539.26808,60.064296 543.72131,60.355071 C 547.42003,60.54326 551.11744,60.754048 554.81148,61.020546 C 562.19192,61.468876 555.25755,61.2878 552.95654,67.637883 C 551.61701,66.226933 550.19652,64.868729 549.62553,62.943788 C 549.76169,57.253435 555.00601,53.16889 560.27634,51.573839 C 564.19767,50.838664 568.09739,50.751077 571.95556,51.975008 C 575.76556,53.303652 579.43246,54.964994 582.9101,57.027134 C 585.92131,58.758211 588.89464,60.605289 592.11258,61.931161 C 594.57067,62.508155 596.15278,62.764097 598.00257,60.696668 C 583.60881,75.252734 604.13494,53.040496 605.53006,52.161363 C 608.99647,49.492691 612.65702,47.180477 617.16583,46.990729 C 621.57046,47.387733 624.9571,49.015677 627.68005,52.645369 C 630.28257,56.059309 632.6143,59.64822 634.69066,63.409865 C 636.44249,66.396494 638.11547,69.483104 640.49229,72.030596 C 642.65052,73.477532 643.70425,73.625121 645.91077,71.872066 C 655.08556,63.420344 631.49522,85.977239 652.84703,64.959007 C 655.07361,63.393997 656.42187,62.530621 658.06247,65.250196 C 657.53641,67.875428 656.54915,70.248073 654.94018,72.486261 C 653.99182,74.061468 652.89776,75.602152 652.49551,77.42334 C 653.17138,78.817455 652.92758,79.798036 655.12261,80.18533 C 658.79881,81.094512 662.553,81.678013 666.18477,82.770893 C 670.36143,84.210193 674.47837,85.87052 678.01126,88.591552 C 681.24812,91.343053 684.03253,94.423129 685.62778,98.438651 C 687.133,102.68169 687.85552,106.93994 686.85686,111.4217 C 684.80691,119.60892 680.69692,125.1987 674.04201,130.78284 C 669.76265,134.54833 664.96551,137.62423 659.58428,139.58626 C 654.25336,141.45539 648.7319,142.69209 643.04517,142.52135 C 638.28332,142.28927 633.61031,141.52704 629.54799,138.85693 C 626.61824,136.53756 624.50221,133.92066 623.65309,130.17774 C 622.76588,126.80811 622.03487,123.40292 621.47141,119.96294 C 621.05544,117.94354 620.81891,115.70416 619.54362,114.05677 C 618.24724,114.95266 616.84033,115.90085 615.64158,117.01517 C 612.81783,118.49464 610.46497,118.99818 607.57984,117.19069 C 604.53163,114.53257 602.39581,111.16826 600.11402,107.84425 C 598.06894,105.12992 596.01681,102.34806 593.3017,100.26002 C 587.28726,98.321576 596.84722,96.961969 595.76771,95.053065 C 594.79848,97.038466 594.09656,99.142615 593.04656,101.09363 C 588.21221,105.97122 586.73804,109.48339 580.42022,108.18541 C 577.31438,107.01897 574.39326,105.53459 571.82826,103.37733 C 569.86919,101.82747 567.93463,100.2528 566.10438,98.550271 C 567.87391,96.693626 571.97334,90.392774 571.28879,92.864567 C 571.4694,95.18792 571.7768,97.509493 571.94543,99.839045 C 571.95747,102.83555 571.87962,105.83115 570.77136,108.66652 C 568.24796,114.02944 564.22391,118.44571 559.19323,121.74801 C 556.23526,123.31401 553.23247,124.57666 549.80369,124.56479 C 546.24903,124.48653 542.79443,123.92151 539.59848,122.25669 C 536.51598,120.50416 533.66602,118.45207 531.59116,115.51264 C 529.89204,112.92895 528.40892,110.2365 527.97513,107.12234 C 527.78832,105.00763 527.61258,102.89439 528.27162,100.83248 C 528.43237,100.09251 528.99967,99.315408 528.76157,98.577144 L 536.94509,94.726275 z " />
    <path
       style="fill:#000000;fill-opacity:1;fill-rule:nonzero;stroke:none;stroke-width:1px;stroke-linecap:butt;stroke-linejoin:miter;stroke-opacity:1"
       id="path1347"
       d="M 565.10149,112.71982 C 566.22325,113.29103 566.7568,114.33016 567.48847,115.28066 C 568.77073,117.26711 569.65391,119.45696 570.52135,121.64411 C 571.64786,124.60742 572.27059,127.7082 572.82463,130.81664 C 573.42963,134.15466 573.26867,137.49401 572.889,140.83555 C 572.43128,143.99203 571.03644,146.79465 569.51457,149.54622 C 566.48432,154.4632 562.09431,158.27377 557.11698,161.05254 C 554.20732,162.58586 551.02793,163.26 547.82458,163.82919 C 547.59685,163.85774 547.36913,163.88628 547.1414,163.91483 L 551.21129,155.838 C 551.41974,155.79983 551.6282,155.76167 551.83666,155.7235 C 554.74691,155.01515 557.61356,154.19236 560.1538,152.53333 C 569.03332,146.1889 554.96386,157.6975 560.91769,152.35562 C 562.54129,150.00493 564.06536,147.59281 564.74707,144.77357 C 565.34279,141.75427 565.66903,138.74343 565.19027,135.66593 C 564.75211,132.73622 564.24079,129.81674 563.24354,127.01371 C 562.5007,125.00999 561.7448,123.00517 560.62631,121.17217 C 560.62162,120.69705 559.02328,119.06596 560.62042,120.57597 L 565.10149,112.71982 z " />
    <path
       style="fill:#000000;fill-opacity:1;fill-rule:nonzero;stroke:none;stroke-width:1px;stroke-linecap:butt;stroke-linejoin:miter;stroke-opacity:1"
       id="path1349"
       d="M 628.21379,115.12546 C 628.64347,115.94649 628.00419,116.68822 627.84639,117.4635 C 627.07618,119.34396 625.97493,121.05716 624.92709,122.78957 C 623.43884,125.02479 622.35375,127.46228 621.3448,129.93768 C 620.26868,132.61609 619.86325,135.4446 619.58953,138.29244 C 619.41898,141.0283 619.85791,143.70636 620.44516,146.36133 C 621.12128,148.94489 622.52962,151.15795 624.03178,153.32188 C 625.55709,155.5017 627.57179,157.13992 629.72001,158.65274 C 631.55498,159.85308 633.58416,160.65203 635.61261,161.44732 L 630.20899,168.6999 C 627.99875,167.76988 625.78641,166.8351 623.78998,165.48163 C 621.38122,163.72415 619.08936,161.84975 617.33353,159.3991 C 615.60151,156.96438 613.96273,154.47462 613.06488,151.58919 C 612.275,148.68185 611.65151,145.74877 611.69775,142.71046 C 611.7892,139.59286 612.05588,136.49436 613.03397,133.50548 C 613.94876,130.83877 614.90921,128.18281 616.38503,125.7615 C 617.40398,124.09129 618.43997,122.43006 619.41389,120.73337 C 619.68486,120.40983 619.92554,119.26689 620.35764,119.60653 L 628.21379,115.12546 z " />
    <path
       style="fill:#000000;fill-opacity:1;fill-rule:nonzero;stroke:none;stroke-width:1px;stroke-linecap:butt;stroke-linejoin:miter;stroke-opacity:1"
       id="path1855"
       d="M 111.20459,347.72433 C 110.93238,346.63747 111.60662,345.56653 112.00979,344.54515 C 114.3976,338.82524 119.05234,334.98976 123.44079,330.75893 C 127.7776,327.20989 132.75916,324.76903 138.11671,323.22484 C 143.42731,321.84603 148.8643,321.93984 154.19798,323.05557 C 158.61994,324.09041 162.42936,326.34397 165.62956,329.51523 C 168.14262,332.20432 169.68634,335.56356 171.3514,338.79984 C 172.556,341.34707 174.46993,342.84165 177.00034,343.89656 C 179.34335,344.70419 181.45216,344.28279 183.66641,343.41711 C 188.86777,338.01266 179.35397,350.65568 183.34454,343.19359 C 184.30967,340.85264 184.25074,338.30173 184.49116,335.82414 C 186.17935,328.76473 192.00945,328.08718 197.66787,327.78176 C 202.32541,327.67204 206.98067,327.72366 211.61976,327.24564 C 215.35719,326.87131 218.61263,325.66774 221.14907,322.90676 C 213.91626,331.08255 219.1637,325.58584 218.27566,320.73408 C 217.45476,317.94839 215.51076,316.00671 213.2839,314.27735 C 210.98636,312.85577 208.4967,311.86939 206.28181,310.33369 C 202.55017,305.72792 208.46317,302.7266 211.8021,299.5072 C 214.53768,297.64049 217.4902,296.12618 220.41109,294.57652 C 223.56686,293.02772 226.4574,291.09784 229.03152,288.71751 C 222.04495,295.76405 227.43064,291.31271 228.48309,286.4087 C 228.76761,283.84456 227.78382,281.83546 226.18624,279.93171 C 224.04515,277.89929 221.28677,276.90331 218.52461,276.03606 C 215.78175,275.52111 213.26618,274.89037 211.01355,273.26652 C 208.10699,268.79192 212.20533,267.07123 215.85734,263.52548 C 217.78605,262.58971 219.81494,261.8779 221.79073,261.04583 C 225.55801,259.99702 232.70345,252.23362 223.66577,261.23002 C 225.36098,259.84488 225.93792,258.62492 225.80595,256.68541 C 224.2174,254.93251 221.90302,254.39308 219.70514,253.74106 C 217.0669,253.12819 215.02097,251.8803 213.36236,249.78 C 212.12838,247.75265 211.91368,245.41041 211.62843,243.10746 C 211.45817,240.80316 210.61462,238.89115 209.32735,237.03432 C 207.74718,235.19608 205.70727,234.46232 203.43339,233.92475 C 201.08426,233.60807 198.93885,234.31075 196.8057,235.20583 C 194.58182,236.38043 192.39651,237.53164 189.97466,238.22426 C 187.50711,238.74119 185.59102,237.92014 183.54366,236.66218 C 181.65545,235.19374 180.30714,233.20467 178.94056,231.27171 C 177.39312,228.89909 175.72043,226.61776 173.97487,224.38865 C 172.35754,222.24767 170.472,220.37695 168.32284,218.78402 C 166.5229,217.54404 164.76169,217.48153 162.69664,217.81154 C 160.54529,218.32231 158.80715,219.58008 157.1017,220.9136 C 154.12767,225.17614 162.76776,213.61925 157.24931,221.31618 C 155.48986,224.80681 151.07115,227.5092 148.85021,229.24595 C 147.04088,228.40368 146.70742,227.10016 146.38313,225.30217 C 146.21511,223.48421 145.78477,221.72246 145.29475,219.97089 C 144.72675,218.0339 143.64537,216.43998 142.34249,214.9431 C 140.85983,213.44996 138.98889,212.83557 137.01423,212.31559 C 134.74109,211.85559 132.46247,212.13308 130.19794,212.47171 C 127.80788,212.78166 125.64628,213.68471 123.53076,214.77693 C 116.74094,220.65305 128.0692,209.5383 123.52542,214.49954 C 122.07893,216.33922 121.59818,218.49552 121.2599,220.74745 C 121.05104,223.02436 121.41295,225.25858 121.90557,227.46847 C 122.45805,229.49062 123.60595,231.21512 124.79123,232.90966 C 125.91049,234.21451 126.9033,235.5969 127.83029,237.03726 C 130.21307,240.47946 125.50858,244.7248 121.83277,243.59842 C 120.66147,243.09689 119.54123,242.48256 118.4086,241.9001 C 116.83507,241.11657 115.16241,240.58526 113.48501,240.08021 C 111.42775,239.45392 109.3022,239.40012 107.17418,239.42001 C 105.00013,239.48478 102.9908,240.11019 101.02417,240.97199 C 95.579298,244.9848 98.922341,242.40293 101.35731,239.95425 C 99.970679,241.32774 99.195335,242.98699 98.611878,244.80744 C 98.168112,246.68999 98.658357,248.48395 99.138834,250.29973 C 99.777882,252.25311 99.864638,254.2619 99.816907,256.29226 C 99.536772,260.20839 96.479068,264.56218 92.314747,264.15641 C 90.439261,263.49285 89.348611,261.98958 88.235894,260.43681 C 86.896899,258.38007 85.94945,256.1114 85.013373,253.85281 C 84.134903,251.43083 83.094886,249.09773 81.825648,246.86158 C 80.796395,245.21329 79.833042,245.02067 78.10693,245.11213 C 76.374887,245.84704 75.120321,247.21186 73.84861,248.5445 C 82.707738,238.90894 76.026872,246.47472 74.219511,249.29777 C 72.064832,253.82818 69.412091,256.43474 65.658396,260.05248 C 63.405961,260.58802 62.081872,259.30721 60.730614,257.6935 C 59.405629,255.68988 58.678336,253.39376 57.965197,251.1215 C 57.205422,248.50803 56.537481,245.86936 55.800423,243.24957 C 55.335961,241.16033 54.423708,239.44518 53.039003,237.88545 C 51.421058,236.96998 49.816456,237.37428 48.09237,237.76336 C 45.66225,238.49354 43.491243,239.79331 41.409305,241.21041 C 31.667161,249.83536 43.888519,238.13285 39.619827,242.48962 C 37.306043,244.86402 35.688158,247.68361 34.439536,250.7231 C 33.356927,253.52842 33.330713,256.3967 33.750461,259.32212 C 34.128607,261.71463 35.196898,263.76224 36.553721,265.71693 C 37.844051,267.38043 39.576685,268.2002 41.507392,268.86014 C 43.542056,269.40472 45.627366,269.26758 47.699502,269.11119 C 49.433979,268.7019 50.795452,268.91354 52.354426,269.48486 C 53.809644,270.94533 53.583513,271.67865 52.692489,273.19262 C 51.62024,274.21569 50.653804,275.33496 49.689178,276.45635 C 48.631288,277.72877 48.035285,279.20601 47.529959,280.74792 C 47.228788,282.17158 47.73333,283.11405 48.407364,284.27992 C 49.502783,285.43176 50.99803,285.97215 52.418377,286.60972 C 54.227604,287.39588 55.441004,288.71958 56.526299,290.30196 C 57.486182,291.99108 57.533506,293.77798 57.458925,295.65934 C 57.221912,297.91695 56.35431,300.00951 55.466283,302.07448 C 54.482261,304.27323 53.37668,306.41375 52.339392,308.58707 C 51.365045,310.53128 51.261002,312.47567 51.49856,314.57736 C 51.916712,316.63436 53.293063,317.77825 54.912526,318.93296 C 56.855503,320.07973 58.958321,320.21862 61.148659,320.19633 C 63.553557,320.01069 65.771094,319.09184 67.945916,318.1159 C 70.159957,317.00538 72.198907,315.59186 74.306065,314.29876 C 76.207469,313.05873 77.570234,312.83319 79.52849,313.82263 C 81.093481,315.43234 80.704628,317.04033 80.171793,319.0204 C 79.254613,321.69279 77.956784,324.21401 76.710586,326.74372 C 75.18258,329.68003 73.873696,332.71411 72.758522,335.82771 C 71.783112,338.43764 71.584301,341.09334 71.908408,343.82926 C 72.288579,346.14898 73.466829,348.06139 74.856221,349.89125 C 76.431975,351.64268 78.491972,352.69977 80.613654,353.63462 C 83.002846,354.62903 85.529268,355.15926 88.070517,355.57765 C 90.713216,355.95736 93.378595,355.88608 96.030873,355.68608 C 98.661602,355.49047 101.17754,354.75862 103.61276,353.78509 C 106.01508,352.78767 108.12568,351.28351 110.16306,349.69392 C 116.76052,343.2918 105.28025,355.4119 110.69391,349.14998 C 111.71645,347.98684 112.42424,346.62305 113.15747,345.27525 L 120.52745,342.32573 C 119.89985,343.8788 119.24772,345.42541 118.278,346.8052 C 115.39634,350.83154 111.80596,354.34405 107.8212,357.27891 C 105.5467,358.82658 103.18535,360.24196 100.55578,361.11115 C 97.854568,361.9436 95.10192,362.57718 92.261912,362.67259 C 89.42322,362.77856 86.574535,362.75876 83.768516,362.24916 C 81.035867,361.71506 78.321143,361.06252 75.767426,359.92195 C 73.315923,358.75635 70.947796,357.42688 69.115144,355.37362 C 67.377301,353.24049 65.95954,350.93087 65.297055,348.22316 C 64.69466,345.14408 64.568592,342.0879 65.499483,339.04061 C 66.491738,335.77509 67.727097,332.59847 69.287472,329.55686 C 70.507252,327.09152 71.761458,324.64074 72.863479,322.11958 C 73.201621,321.2672 73.414242,319.5744 74.307632,319.80251 C 73.876403,320.2245 72.798556,321.5157 71.730156,321.80749 C 69.571578,323.18196 67.390424,324.54881 64.998396,325.48668 C 62.49891,326.41539 59.94546,327.19156 57.244309,327.10809 C 54.584408,326.92971 52.015426,326.42639 49.735496,324.95083 C 47.60298,323.41 45.755953,321.66773 44.955398,319.07218 C 44.334594,316.57582 44.137401,314.10268 45.00317,311.6196 C 45.86233,309.3237 46.983828,307.1568 48.071521,304.96132 C 48.942188,303.09554 49.865776,301.23334 50.367121,299.22622 C 50.593271,297.89636 50.8794,296.62353 50.371605,295.31555 C 49.579893,294.22451 48.900106,293.30306 47.51166,292.84995 C 45.737799,292.04849 43.973854,291.22756 42.650844,289.74607 C 41.459684,288.15002 40.537857,286.55683 40.528344,284.48874 C 40.660729,282.49694 41.050578,280.65221 42.146269,278.93039 C 42.982592,277.59963 43.879484,276.31387 45.016227,275.21533 C 46.250347,274.97156 46.021556,273.90819 47.24332,275.55882 C 46.923171,275.6408 44.903993,276.31256 43.938564,276.10202 C 41.552214,276.14427 39.161827,276.11762 36.878911,275.30945 C 34.515109,274.37112 32.364239,273.14086 30.740536,271.12278 C 29.056126,268.8922 27.743986,266.48578 27.143791,263.72306 C 26.486086,260.44652 26.224436,257.17025 27.166581,253.90437 C 28.22501,250.52983 29.661055,247.35359 31.975034,244.62819 C 35.508332,240.53613 39.324965,236.57286 43.923843,233.6809 C 46.316245,232.318 48.790998,231.05763 51.541167,230.61338 C 54.048312,230.36323 56.408369,230.46356 58.474001,232.09951 C 60.36068,233.93527 61.589747,236.09501 62.277054,238.6594 C 63.041923,241.27477 63.721735,243.9128 64.447445,246.53927 C 65.044778,248.56308 65.628956,250.61562 66.693662,252.45342 C 67.071186,252.44499 67.743397,254.23829 67.865666,252.42724 C 58.603197,261.47819 65.375985,255.49792 66.727556,251.92207 C 69.182025,247.65201 71.918755,244.08543 75.845356,240.86144 C 77.652792,239.42601 79.436802,238.1351 81.847289,238.11027 C 84.365318,238.52935 86.336662,239.41876 87.813483,241.64985 C 89.268812,243.98213 90.408131,246.46207 91.336429,249.0533 C 92.191377,251.16144 93.038541,253.28644 94.230347,255.23269 C 94.761883,255.99031 95.397551,257.29515 96.253337,257.26411 C 86.52679,265.72068 91.491245,262.37637 92.728389,259.86567 C 92.983934,258.1728 93.127785,256.5107 92.619066,254.82841 C 92.040955,252.71741 91.369842,250.60451 91.525816,248.38572 C 91.84493,246.1454 92.349865,244.03763 93.736722,242.17753 C 96.997357,238.77501 99.54812,235.2058 104.00478,233.61452 C 106.31641,232.95186 108.65504,232.42365 111.08395,232.51132 C 113.4518,232.60126 115.80502,232.85053 118.06903,233.59922 C 119.87857,234.19783 121.6847,234.81966 123.37746,235.70924 C 124.33494,236.20592 125.28451,236.80155 126.3349,237.06028 C 124.593,238.52022 119.42278,241.4699 121.63328,241.99844 C 120.83196,240.67511 119.95556,239.41243 118.91539,238.24734 C 117.53368,236.32066 116.19507,234.35267 115.44272,232.07801 C 114.70609,229.63138 114.25727,227.12639 114.29604,224.55811 C 114.40472,221.93859 114.74937,219.36958 115.99604,217.01446 C 118.40109,212.90867 122.02442,209.39923 126.32999,207.34856 C 128.73377,206.38102 131.21107,205.66631 133.80036,205.39789 C 136.38022,205.14964 138.97069,205.06212 141.49785,205.76475 C 143.89423,206.51744 146.15309,207.51305 147.95475,209.32893 C 149.57492,211.08752 150.9075,213.01359 151.70827,215.29294 C 152.31833,217.17735 152.88454,219.07688 153.09132,221.05757 C 153.30091,223.03624 153.60831,222.38808 152.41165,222.15141 C 151.11279,223.24095 145.31744,228.81837 149.69517,223.75571 C 152.37571,219.79808 155.39154,216.00915 159.44867,213.3302 C 161.57286,212.03967 163.78237,210.94048 166.30648,210.7415 C 168.96503,210.70865 171.38845,211.24905 173.5873,212.84248 C 175.91462,214.6245 178.01832,216.64277 179.79402,218.98922 C 181.58585,221.26477 183.31435,223.58709 184.89192,226.01836 C 186.06265,227.6929 187.18979,229.45505 188.81543,230.72713 C 190.35242,231.44596 191.52304,231.68962 193.18248,230.96298 C 195.41003,229.94679 197.53997,228.71354 199.84571,227.87271 C 202.47447,227.09185 205.12063,226.65301 207.83979,227.32172 C 210.61827,228.14756 213.14925,229.34685 215.09528,231.58021 C 216.7748,233.75212 217.9738,236.07429 218.32504,238.84462 C 218.5915,240.7774 218.65424,242.78564 219.3875,244.61144 C 220.77031,246.04546 222.22031,246.8916 224.29888,247.26696 C 227.1095,248.15248 229.90268,249.12804 231.81692,251.50038 C 233.33855,254.24998 233.36828,256.6299 231.33972,259.19856 C 227.27739,263.27377 224.21246,266.59737 218.81963,268.40714 C 217.00849,269.14191 215.03876,269.7174 213.64949,271.15055 C 214.44034,270.36811 220.21198,265.01645 216.61289,267.63946 C 218.67987,268.54061 220.9228,268.98356 223.12813,269.56892 C 226.29899,270.67339 229.41558,271.96416 231.84717,274.36662 C 233.91823,276.77784 235.39336,279.35692 235.46575,282.6326 C 235.1003,288.87831 231.86515,292.17121 226.9124,296.36772 C 224.04237,298.58571 220.90541,300.3872 217.6738,302.02793 C 214.86803,303.53738 212.00051,305.0285 209.58318,307.12906 C 210.85037,305.85026 212.13049,304.58414 213.38474,303.29265 C 213.86752,302.79554 211.06391,304.58837 211.75686,304.58563 C 214.00368,305.8863 216.45026,306.86295 218.5874,308.37064 C 221.23855,310.4913 223.56655,312.86744 224.74565,316.13456 C 226.57635,322.64593 224.64898,325.9187 219.15334,330.59008 C 215.75935,332.84081 212.0129,334.02665 207.91768,334.26782 C 203.24298,334.61471 198.55987,334.53904 193.87971,334.75788 C 186.73456,335.39438 187.9138,337.35522 191.72632,332.55784 C 191.06188,335.00334 191.25146,337.57905 190.6435,340.07246 C 189.13271,344.89113 185.48365,349.12298 180.5946,350.73696 C 177.74425,351.33925 174.96957,351.38041 172.22197,350.23561 C 169.22534,348.77869 166.75256,346.87502 165.20776,343.82697 C 163.63535,340.82106 162.26908,337.64605 159.98222,335.09411 C 157.08342,332.35522 153.77568,330.39159 149.78831,329.65642 C 144.79615,328.81023 139.74425,328.93487 134.88093,330.47371 C 129.87585,332.22696 125.23054,334.80093 121.30094,338.40337 C 127.53863,332.08537 122.04639,336.90641 119.41011,341.6726 C 119.13637,342.23255 118.58822,344.12082 118.10004,343.79123 L 111.20459,347.72433 z " />
    <path
       style="fill:#000000;fill-opacity:1;fill-rule:nonzero;stroke:none;stroke-width:1px;stroke-linecap:butt;stroke-linejoin:miter;stroke-opacity:1"
       id="path1861"
       d="M 119.61526,340.26109 C 119.16351,339.87051 119.82626,341.06617 119.88112,341.27549 C 120.91985,343.52021 121.8891,345.79407 122.82023,348.08507 C 124.34326,351.91922 125.48066,355.88492 126.21974,359.94062 C 126.95089,363.97719 126.8847,368.03421 126.11879,372.04963 C 125.46379,375.46548 123.78021,378.40463 121.73446,381.15362 C 118.16616,385.61705 114.42608,388.67172 109.44559,391.02527 C 106.80358,392.22676 103.98959,392.91751 101.15974,393.49955 L 104.5972,386.34411 C 107.23897,385.68189 109.85764,384.90756 112.26746,383.60547 C 116.34921,381.28172 121.64684,376.02532 114.08722,383.28343 C 116.23364,380.9855 118.05897,378.49283 118.92997,375.4167 C 119.83195,371.72641 120.19996,368.01539 119.54175,364.23255 C 118.94114,360.33645 117.90191,356.53686 116.47714,352.85807 C 115.57974,350.59649 114.6464,348.35023 113.61303,346.14656 C 113.31799,345.49503 113.03653,344.83255 112.71982,344.19419 L 119.61526,340.26109 z " />
    <path
       style="fill:#000000;fill-opacity:1;fill-rule:nonzero;stroke:none;stroke-width:1px;stroke-linecap:butt;stroke-linejoin:miter;stroke-opacity:1"
       id="path1863"
       d="M 180.22442,345.81693 C 180.51761,346.22416 180.14792,346.69752 180.09006,347.36354 C 179.85811,349.15829 179.41042,350.91561 179.00454,352.67683 C 178.38859,355.30039 177.81866,357.93423 177.25959,360.57037 C 176.68149,363.19735 176.21899,365.84231 175.98841,368.52175 C 175.80835,370.58382 176.26278,372.47337 177.05663,374.34388 C 177.91982,375.96751 179.33196,376.86646 180.88806,377.72428 C 182.89068,378.65932 185.05556,379.10213 187.20586,379.54318 C 189.62629,380.00808 192.07687,380.22607 194.53588,380.32157 C 195.7856,380.35856 197.02293,380.20054 198.26032,380.05751 L 194.57878,387.09048 C 193.22298,387.17017 191.86614,387.26507 190.50744,387.16175 C 187.92737,386.97955 185.35384,386.6974 182.82008,386.15992 C 180.44803,385.62735 178.07436,385.03098 175.90302,383.90212 C 173.93873,382.7128 172.11426,381.43413 170.9324,379.39464 C 169.82434,377.17478 169.019,374.92375 169.05667,372.39051 C 169.1296,369.56642 169.49172,366.77907 170.10909,364.01807 C 170.65537,361.36162 171.21834,358.70875 171.82589,356.06553 C 172.22163,354.35552 172.64058,352.64909 172.99886,350.93162 C 173.02479,350.60705 173.11653,348.78105 173.32897,349.75002 L 180.22442,345.81693 z " />
    <path
       style="fill:#000000;fill-opacity:1;fill-rule:nonzero;stroke:none;stroke-width:1px;stroke-linecap:butt;stroke-linejoin:miter;stroke-opacity:1"
       id="path1867"
       d="M 329.86587,352.23866 C 329.10705,352.23907 328.37532,351.97879 327.64281,351.80878 C 323.98441,350.69608 320.97433,348.29264 318.12097,345.83585 C 313.94961,342.17871 310.9138,337.63025 308.79358,332.54288 C 306.8914,327.74383 307.10785,322.89336 308.7212,318.08178 C 311.15661,312.27142 315.61893,307.33716 320.91744,303.95202 C 323.79418,302.23458 327.0663,301.80395 330.32221,301.39784 C 336.35206,297.82493 325.495,308.13005 328.65667,303.31396 C 328.7637,300.88258 327.88432,298.6231 326.96597,296.41724 C 325.74607,294.13117 324.73578,291.89621 324.58415,289.30437 C 325.41979,284.2802 330.67221,282.21301 334.54952,279.89298 C 332.23688,278.58612 331.83397,286.98325 332.47652,279.90122 C 332.12976,277.44534 331.35502,275.1006 331.10584,272.62649 C 331.02769,267.5015 336.10219,264.4403 340.63355,263.47693 C 345.68864,262.61818 349.25338,257.71743 342.38347,264.5019 C 345.01504,261.3941 346.21443,257.39398 347.65158,253.64511 C 350.05615,246.20715 354.90819,241.17387 360.34994,235.72905 C 365.14781,231.62957 370.95941,229.10487 376.85567,227.03194 C 382.00008,225.24147 387.34031,224.45757 392.75246,225.05215 C 396.59362,225.54379 399.58311,227.40917 402.12507,230.21081 C 403.99525,232.56403 404.58799,235.30018 404.72961,238.22566 C 404.47988,240.55492 405.16824,241.90156 403.00308,239.72106 C 397.3349,245.00438 401.02621,240.5664 408.36377,234.16017 C 411.72482,231.33455 415.38098,228.88393 419.29731,226.90276 C 423.13578,224.9786 427.01102,224.78258 430.92234,226.48112 C 434.67441,228.518 436.44679,232.09374 437.27483,236.12167 C 437.64775,239.07703 437.16915,242.02885 437.82815,244.89302 C 439.97585,246.14027 442.76048,245.61278 445.17905,245.41678 C 449.16458,245.06087 453.12184,244.36015 457.13167,244.48697 C 461.01252,244.76677 463.17522,246.94194 464.33463,250.4514 C 464.83409,253.15261 463.99452,255.80593 463.70053,258.47402 C 464.6931,260.00735 466.96878,259.96944 468.75581,260.24521 C 472.51562,260.68901 475.47909,262.39348 477.91745,265.23133 C 480.96043,269.48532 481.47763,274.56256 481.22043,279.63675 C 480.67634,285.50191 478.3029,290.86078 475.19921,295.79019 C 471.05968,301.78564 465.698,306.84584 459.10121,309.94007 C 455.53117,311.61351 451.72797,312.13253 447.83497,312.02597 C 444.70887,311.83767 441.93081,310.6157 439.26794,309.06706 C 437.07782,307.66262 435.17623,305.87449 433.19972,304.19552 C 429.58657,301.86169 431.57241,303.91692 436.87027,298.60175 C 435.78381,297.79192 437.62016,300.22116 437.87086,300.57579 C 439.45693,302.49855 441.19306,304.29193 442.88864,306.11742 C 445.17697,308.50058 447.34032,310.9925 449.31249,313.64294 C 451.74397,316.8617 453.28288,320.50905 454.05414,324.44621 C 454.67301,328.36353 453.92564,332.16279 452.37864,335.7618 C 449.85106,340.73293 445.70975,344.81786 440.90685,347.60742 C 438.57323,348.75937 435.99478,349.21402 433.5727,350.11746 C 429.43112,354.72983 438.395,342.55085 435.32936,349.08853 C 434.58858,352.10019 434.10303,355.16358 433.3519,358.1748 C 431.96612,363.39959 427.85468,368.04626 422.2843,367.76539 C 418.73726,367.04286 416.03666,364.68023 413.50938,362.22871 C 410.61383,359.30378 408.27419,355.90622 405.99081,352.49961 C 404.29436,349.70721 402.31582,347.25825 399.53324,345.54109 C 397.25411,344.39635 395.10762,344.79207 392.79562,345.50025 C 390.54011,346.36881 388.74767,348.01877 386.77856,349.36376 C 384.33072,350.73512 382.37677,350.10768 380.30037,348.46383 C 378.46878,346.48349 377.35634,343.98453 376.08596,341.63264 C 375.0326,339.49732 373.95263,338.79091 371.72878,338.83303 C 365.56228,342.8669 370.59035,339.09336 371.58468,338.10373 C 369.65568,340.33915 368.06439,342.83644 366.27602,345.18241 C 362.81367,349.44685 359.18567,352.95921 354.28141,355.20749 C 351.84556,356.25976 349.26773,356.56763 346.64412,356.556 C 344.39266,356.46023 342.20851,355.91021 340.03995,355.34291 C 337.94959,354.72309 335.93333,353.88821 333.91684,353.06618 C 332.09466,352.27233 330.19732,351.69399 328.2898,351.15089 L 332.84082,344.64669 C 334.83272,345.262 336.81315,345.91151 338.72549,346.75007 C 340.64341,347.51816 342.56157,348.3065 344.56683,348.82188 C 346.53696,349.28287 348.52216,349.74319 350.5622,349.65202 C 352.85481,349.40462 355.08445,348.96513 357.11538,347.7923 C 363.42012,343.98179 361.07982,343.77333 358.64122,347.35638 C 360.60249,345.14277 362.26648,342.71947 363.95435,340.29333 C 367.47238,336.62903 370.20046,332.08506 375.56366,331.88248 C 378.59365,332.36275 380.71047,333.80787 382.1977,336.56676 C 383.35141,338.66391 384.33409,340.89818 385.83488,342.77301 C 387.27287,343.03083 387.87347,343.17586 389.22477,341.81178 C 391.30585,340.25338 393.47152,338.8374 396.05067,338.26002 C 399.05037,337.74967 401.88794,337.88333 404.60362,339.43309 C 407.66524,341.47726 410.06983,344.09481 411.96682,347.27431 C 414.1443,350.53419 416.3535,353.8037 419.11453,356.60744 C 421.16521,358.5948 423.32202,360.69276 426.29333,360.91382 C 433.06169,358.54418 420.93113,367.48174 426.09335,361.38879 C 427.01204,358.44471 427.60234,355.43388 428.11105,352.39191 C 429.10458,347.99541 432.1473,344.07226 436.63192,342.79234 C 439.01192,342.12972 441.44764,341.56178 443.49581,340.10318 C 450.5136,334.72522 438.11133,346.12564 444.93529,338.52094 C 446.59742,335.45682 447.70893,332.25785 447.35403,328.70354 C 446.88572,325.12322 445.56617,321.86105 443.40718,318.948 C 441.49432,316.38937 439.43569,313.95404 437.20706,311.66143 C 435.46116,309.78154 433.67698,307.93251 432.03643,305.9587 C 431.01054,304.58959 429.97699,303.21931 429.49873,301.54739 C 434.1554,296.77909 434.25827,294.87478 438.62022,298.396 C 440.49643,299.997 442.30205,301.70748 444.40441,303.01454 C 446.7301,304.28991 449.13943,305.20679 451.84187,305.17316 C 455.3801,305.00682 458.78319,304.2422 461.92153,302.51968 C 464.12148,301.29598 469.82058,296.31723 468.05078,298.1075 C 459.48853,306.7688 465.92749,300.46426 467.64313,298.22371 C 470.85287,293.75853 473.34488,288.82854 474.19821,283.33875 C 474.66487,278.90462 474.54481,274.47276 472.07019,270.6003 C 469.98722,268.28198 467.60957,267.18288 464.45919,266.92019 C 461.47971,266.38047 458.53312,265.82688 457.08724,262.86501 C 456.59137,260.08269 457.39831,257.53593 457.66146,254.75084 C 457.16635,252.13806 455.92264,251.33471 453.14863,251.35369 C 449.22457,251.54093 445.33617,252.10457 441.41935,252.40828 C 437.98365,252.58954 434.45838,252.79139 431.88239,250.15271 C 430.13572,247.04431 430.48268,243.8787 430.57595,240.38095 C 430.07869,237.16693 429.1581,234.30441 426.05296,232.75053 C 422.64623,231.76352 419.60191,232.53274 416.54493,234.34862 C 412.87063,236.48426 409.37037,238.92128 406.24181,241.80959 C 398.96664,248.66358 418.00303,230.66271 400.16894,247.13618 C 397.65082,245.88658 397.31205,244.82704 397.78974,242.07981 C 397.86563,239.73686 397.76104,237.57188 396.3025,235.60656 C 394.24307,233.28094 391.72489,232.02777 388.57238,231.80073 C 383.48275,231.5237 378.51403,232.547 373.74927,234.33718 C 368.14778,236.49598 362.62458,239.08835 358.33972,243.4086 C 366.94698,234.69556 355.7273,246.01197 354.99148,250.62148 C 353.44007,254.54979 352.16431,258.6334 350.00545,262.28338 C 345.44464,266.98168 343.36018,269.74169 337.28315,270.67354 C 330.30308,273.49825 342.38607,265.17119 338.06982,268.81607 C 337.96709,271.20662 338.68663,273.42542 339.24553,275.75432 C 339.7935,281.17863 337.4849,284.68729 331.92019,287.38317 C 329.38678,288.71732 322.40476,294.84145 331.79341,285.98128 C 331.45696,288.00246 332.03439,289.6008 333.21798,291.52553 C 334.34169,294.05658 335.36716,296.64687 335.5847,299.43855 C 335.68456,304.33901 331.58813,308.33254 326.6992,308.46113 C 323.73593,308.89897 320.88199,309.60253 318.47997,311.50682 C 311.81768,317.30611 325.28761,303.06491 316.07799,315.0995 C 314.24177,319.22006 313.58424,323.4401 315.15458,327.79378 C 316.98246,332.54062 319.75616,336.73633 323.61211,340.10316 C 326.14558,342.27072 328.80204,344.45097 332.11124,345.24757 C 332.67495,345.28235 333.2319,345.44088 333.79896,345.34321 L 329.86587,352.23866 z " />
    <path
       style="fill:#000000;fill-opacity:1;fill-rule:nonzero;stroke:none;stroke-width:1px;stroke-linecap:butt;stroke-linejoin:miter;stroke-opacity:1"
       id="path1869"
       d="M 361.58355,343.82798 C 362.3506,344.20984 362.79438,344.90703 363.35511,345.55048 C 364.49023,347.04808 365.22763,348.76567 365.91632,350.49884 C 366.94617,353.18577 367.38425,356.0201 367.68298,358.86457 C 367.96846,361.93857 367.53102,364.96096 366.82229,367.94127 C 366.11871,370.80243 364.64702,373.25955 362.8393,375.54068 C 359.23477,379.95022 355.67974,382.60107 350.60536,384.55172 C 347.84048,385.54477 344.9364,385.91714 342.02557,386.14061 C 340.37706,386.2343 338.73077,386.11987 337.08693,386.01211 L 341.17193,379.20556 C 342.70595,379.25556 344.24314,379.31321 345.77329,379.14269 C 348.45771,378.80663 351.12867,378.32887 353.61339,377.20542 C 356.82445,375.66972 364.7312,369.03199 355.16226,377.56046 C 357.07129,375.72476 358.70144,373.71858 359.56976,371.16882 C 360.41688,368.49325 361.00703,365.7681 360.86975,362.93841 C 360.71472,360.31741 360.39198,357.70356 359.52608,355.20855 C 358.96396,353.69667 358.41438,352.17147 357.45081,350.85667 C 357.49697,350.82587 356.09729,349.30266 357.65046,350.72343 L 361.58355,343.82798 z " />
    <path
       style="fill:#000000;fill-opacity:1;fill-rule:nonzero;stroke:none;stroke-width:1px;stroke-linecap:butt;stroke-linejoin:miter;stroke-opacity:1"
       id="path1875"
       d="M 411.54935,349.35247 C 411.88902,350.03042 411.46374,350.58606 411.18379,351.32623 C 410.3923,353.42262 409.72866,355.56285 409.09396,357.71088 C 408.2893,360.48104 407.69594,363.30353 407.20311,366.14338 C 406.77061,368.35578 406.94249,370.48217 407.56829,372.6138 C 408.23314,374.24147 409.52499,375.17556 410.90314,376.14887 C 412.63865,377.20503 414.60034,377.69489 416.54866,378.18312 C 418.97773,378.7211 421.44761,379.00726 423.92623,379.17363 C 426.52846,379.32 429.12519,379.07372 431.71303,378.83037 L 427.9956,385.84443 C 425.28045,386.06053 422.55505,386.22183 419.83448,385.97612 C 417.22444,385.71791 414.61702,385.38069 412.0695,384.73701 C 409.85783,384.12833 407.66518,383.43058 405.72577,382.16644 C 403.93401,380.87518 402.28428,379.503 401.28854,377.46984 C 400.25338,374.9933 399.80531,372.45596 400.13653,369.76 C 400.52821,366.80508 401.09371,363.87876 401.86812,360.99776 C 402.47117,358.78568 403.10497,356.58162 403.87332,354.42031 C 404.00921,354.04114 404.38514,352.21499 404.65391,353.28556 L 411.54935,349.35247 z " />
    <path
       style="fill:#000000;fill-opacity:1;fill-rule:nonzero;stroke:none;stroke-width:1px;stroke-linecap:butt;stroke-linejoin:miter;stroke-opacity:1"
       id="path1877"
       d="M 555.67171,358.836 C 555.28201,357.70382 555.75638,357.43557 556.45765,356.46673 C 559.41954,352.91935 562.92372,349.97877 566.43182,347.02162 C 569.23946,344.66797 572.18395,342.49168 575.34906,340.64521 C 578.56799,338.67085 581.87073,338.1532 585.52869,338.73167 C 588.57082,339.49676 590.80541,341.46842 592.89307,343.69318 C 594.28774,345.54691 595.59903,346.30314 597.80033,346.39091 C 599.96238,345.93715 601.66804,344.58057 603.36679,343.25051 C 605.06252,341.59145 606.79026,340.4023 609.09026,339.99744 C 611.54107,340.64539 612.03889,342.35257 612.17196,344.64249 C 611.95417,346.59722 611.76172,348.52108 611.8725,350.48288 C 612.4295,352.62488 614.09462,353.49921 616.01163,354.32444 C 618.85597,355.34677 621.60969,354.83077 624.38701,353.92037 C 628.06795,352.79344 636.50603,343.6635 627.30019,352.89943 C 629.33138,351.04725 630.62366,348.73168 631.69653,346.24842 C 632.70596,342.61896 635.18252,337.13827 639.48939,338.92657 C 641.4401,340.32423 642.91088,342.28145 644.45313,344.09955 C 646.54794,346.63116 648.70307,349.10165 651.08223,351.36757 C 653.13256,353.30608 655.35355,353.89907 658.06232,353.808 C 665.77377,349.31222 657.04262,356.28898 658.91228,354.37411 C 660.87086,351.81727 661.08869,348.71883 661.16525,345.61806 C 661.13828,342.3356 660.31257,339.18233 659.25303,336.10341 C 658.3244,333.41656 656.75618,331.12665 654.89021,329.01997 C 653.09249,327.42652 651.5111,325.82131 650.38424,323.71837 C 649.60895,317.55217 656.75206,316.47685 661.06978,315.80803 C 664.84577,315.33578 668.61024,314.7887 672.30151,313.85363 C 675.82376,313.02798 678.77115,311.37006 681.23502,308.76969 C 673.54101,317.16107 679.6722,311.15934 679.10722,306.53903 C 678.13497,303.44559 675.62697,301.6373 672.99301,299.99998 C 670.09694,298.38679 666.82086,297.75101 663.75305,296.57347 C 660.94164,295.15387 660.07908,292.93531 660.49402,289.95442 C 661.33898,287.2415 663.05382,284.92955 664.60174,282.58173 C 666.13467,280.44211 667.30472,278.16479 668.06796,275.6653 C 668.28196,272.97342 666.39169,271.39978 664.55377,269.71959 C 661.91434,267.56869 660.76609,264.96136 660.54062,261.6481 C 660.71846,258.49178 661.92654,255.52942 662.82978,252.53072 C 663.88913,248.93407 662.30623,246.37654 659.77215,243.92189 C 655.53965,240.436 650.37075,238.44899 645.20221,236.80619 C 640.30216,235.30019 635.23133,234.68199 630.1295,235.11775 C 626.20359,235.51119 622.73853,237.16132 619.49132,239.29261 C 617.25351,240.9903 614.91529,242.50545 612.35489,243.65707 C 610.01056,244.58363 607.49656,244.60379 605.01472,244.57202 C 602.36308,244.49317 599.72384,244.207 597.08791,243.92437 C 594.28201,243.61427 591.50758,243.09456 588.69933,242.8117 C 585.86374,242.49729 583.33426,243.25151 580.83911,244.50491 C 574.61028,250.60589 584.6665,237.67416 579.969,245.72171 C 578.81948,248.04358 579.03355,250.28801 579.7214,252.68706 C 580.52215,254.60315 580.93344,256.51683 580.93537,258.56904 C 576.28944,264.64469 575.06884,264.10764 569.06126,263.19929 C 566.00729,262.65107 562.9565,262.18952 559.85504,262.10138 C 556.71114,262.14003 554.08501,263.50283 551.62624,265.32847 C 551.97177,264.77433 549.79655,267.19252 550.26303,266.73552 C 558.39264,258.7711 552.86918,263.74838 551.528,267.58634 C 550.8513,270.34744 551.52304,272.81579 552.84582,275.23562 C 554.59772,277.83534 557.39316,279.11083 560.14658,280.38389 C 562.56087,281.26727 564.46621,282.36596 565.91717,284.43407 C 563.89671,290.3365 561.13544,290.66382 556.17756,291.76048 C 552.41563,292.56312 548.70884,293.59054 545.0285,294.70324 C 540.82387,295.95341 536.78719,297.65854 532.89297,299.66492 C 528.33275,301.79403 520.32687,310.33048 528.12828,302.5653 C 525.67669,305.00443 524.1317,307.93151 523.32646,311.25375 C 522.89987,314.0677 524.1559,316.13384 525.94745,318.15357 C 527.90713,320.06049 530.35693,321.09697 532.93044,321.86972 C 535.39111,322.47967 537.93735,322.54136 540.44469,322.83322 C 542.89894,323.48501 543.62169,325.09755 542.92004,327.35735 C 542.33877,328.48418 532.96536,337.57162 533.10487,337.43217 C 540.93637,329.60383 537.87089,332.66046 536.16329,334.38477 C 533.21975,337.2982 530.6621,340.5429 528.40831,344.00939 C 526.25445,347.3489 524.85315,351.02805 524.14588,354.92359 C 523.60873,358.19533 524.10875,361.4089 525.05204,364.54223 C 525.81408,366.81885 527.25178,368.50855 529.08939,369.96293 C 530.63972,371.03036 532.25927,370.97783 534.03607,370.86205 C 535.84056,370.50421 537.35519,369.54231 538.8591,368.54026 C 540.53983,367.2333 542.14316,365.82955 543.76902,364.45543 C 545.49288,363.01998 547.2398,361.61785 549.03183,360.26937 C 550.82741,358.94727 552.77614,357.86159 554.71118,356.76236 C 556.636,355.69237 558.5709,354.64052 560.50952,353.59582 C 562.12172,352.76871 563.58238,351.70898 565.01406,350.61047 L 562.66045,358.19182 C 561.07728,359.2125 559.47919,360.20705 557.79395,361.05518 C 555.87235,362.1016 553.94524,363.13892 552.05604,364.24344 C 550.20664,365.35167 548.37547,366.49252 546.69993,367.85742 C 544.97688,369.24985 543.26468,370.65608 541.57017,372.0831 C 539.88504,373.49796 538.21873,374.96403 536.29603,376.05338 C 534.38656,377.00064 532.45606,377.83953 530.27772,377.85427 C 527.94667,377.71249 525.75792,377.34364 523.82351,375.9032 C 521.56001,374.11921 519.75785,371.9851 518.67621,369.27141 C 517.46973,365.80978 516.73514,362.24239 517.08393,358.54922 C 517.5704,354.34098 518.77406,350.30319 520.91139,346.61947 C 523.04436,342.93994 525.53553,339.48628 528.48878,336.41412 C 548.16248,315.66901 526.40159,339.3847 535.31422,329.63063 C 535.71799,329.60253 537.96125,329.21401 536.20939,329.54728 C 533.56566,329.32843 530.8992,329.15424 528.35107,328.35398 C 525.3937,327.31656 522.57981,325.99453 520.32096,323.75347 C 518.04197,321.21614 516.27135,318.5015 516.30279,314.95298 C 516.69051,311.12334 517.95515,307.66556 520.47498,304.67323 C 525.15324,299.87197 529.48723,295.0243 535.68561,292.23407 C 539.74569,290.30933 543.93231,288.67672 548.26014,287.45252 C 552.00293,286.37071 555.77457,285.39395 559.58818,284.59221 C 565.53872,283.22906 563.01876,282.3137 559.15079,288.58528 C 557.8881,287.8678 556.5868,287.21362 555.2545,286.6356 C 552.04853,285.0986 548.91954,283.43033 546.84166,280.42854 C 545.10233,277.51684 544.01383,274.50739 544.38403,271.04757 C 545.4876,265.26315 548.8777,261.05457 554.05491,257.77083 C 557.12576,256.1209 560.28883,254.98261 563.84522,255.23881 C 567.03418,255.48354 570.18353,255.98895 573.33861,256.51194 C 578.61678,257.21429 580.5799,254.2908 573.36732,260.96506 C 573.73814,260.12744 574.42843,259.09823 573.30377,257.35935 C 572.35199,254.51426 571.7142,251.70303 572.62649,248.73896 C 574.53292,243.55943 578.64106,239.35489 583.70627,237.10249 C 586.68843,236.07948 589.69847,235.57946 592.85962,236.05091 C 595.66287,236.41926 598.45088,236.9045 601.26689,237.17511 C 603.82408,237.43552 606.38773,237.69447 608.96123,237.68424 C 611.14687,237.57197 613.27727,237.40759 615.20648,236.24865 C 617.54455,234.84759 619.7516,233.25937 622.03571,231.77314 C 625.69165,229.7049 629.66009,228.35954 633.88273,228.12278 C 639.29878,227.94201 644.65904,228.67233 649.82484,230.35269 C 655.34045,232.19314 660.82566,234.4198 665.30377,238.22825 C 668.40171,241.24982 670.66269,244.6371 670.00924,249.14373 C 669.31375,252.09499 668.23063,254.92237 667.52203,257.86971 C 667.33804,260.51794 667.86174,262.28847 670.06961,264.01067 C 672.46476,266.21148 674.734,268.47891 675.0507,271.88936 C 674.87769,274.90462 673.85123,277.54347 672.12521,280.04919 C 670.68247,282.31115 669.11317,284.49597 667.79251,286.83217 C 667.03705,288.56798 666.61767,289.32666 668.56603,290.26067 C 671.79396,291.34366 675.15303,292.13433 678.0973,293.92029 C 681.29235,295.91366 684.19766,298.3571 685.59529,301.96505 C 687.29125,308.51548 684.45293,311.91154 679.23722,316.45248 C 676.14571,318.7312 672.73635,320.29334 668.93984,321.04498 C 665.16338,321.8541 661.33758,322.34833 657.51841,322.90762 C 651.38564,324.13507 653.1522,325.66903 657.13292,319.53846 C 657.76628,320.53939 659.18674,322.47483 660.56557,323.4696 C 662.66649,325.82187 664.49119,328.36156 665.60668,331.34447 C 666.83879,334.65863 667.82728,338.05859 668.01987,341.61425 C 668.15992,345.12532 667.99751,348.66789 666.45224,351.89112 C 663.66954,356.49711 659.71152,360.47574 654.25239,360.77225 C 650.93915,360.46966 648.0488,359.39865 645.57009,357.08007 C 643.10605,354.72544 640.84927,352.18278 638.68238,349.55069 C 637.44553,348.09103 636.22578,346.4438 634.74038,345.28764 C 635.26396,344.88754 642.0479,337.86847 639.00147,343.14129 C 638.06254,345.9231 636.94472,348.62333 634.9705,350.85424 C 630.79878,355.07981 627.06341,359.53736 621.18059,361.18227 C 617.80482,361.95101 614.45011,362.01117 611.20368,360.64109 C 608.60392,359.34008 606.30796,357.78731 605.29084,354.92115 C 604.81444,352.75351 604.75524,350.60581 605.18489,348.41042 C 605.24156,347.96473 605.47323,345.89808 605.6376,347.14555 C 604.10057,348.37699 602.60719,349.6762 601.00746,350.83008 C 598.81383,352.24168 596.54889,353.41984 593.85743,353.28075 C 591.07279,352.76111 588.96454,351.4607 587.18399,349.20887 C 585.49862,347.40235 583.7512,345.77163 581.20404,345.38853 C 578.07197,345.29606 575.35198,346.38736 572.75173,348.14656 C 569.77013,350.11872 566.94579,352.31264 564.24262,354.65207 C 560.07213,358.24581 558.1274,360.43387 564.11291,354.36597 C 563.18823,355.3104 563.33403,355.66696 562.56716,354.90291 L 555.67171,358.836 z " />
    <path
       style="fill:#000000;fill-opacity:1;fill-rule:nonzero;stroke:none;stroke-width:1px;stroke-linecap:butt;stroke-linejoin:miter;stroke-opacity:1"
       id="path1879"
       d="M 562.09883,351.40413 C 562.62379,351.68639 563.18236,351.91756 563.73038,352.16355 C 565.30988,352.8606 566.81181,353.70813 568.30358,354.57173 C 570.74634,356.06902 572.89286,357.96767 574.97321,359.92163 C 577.44879,362.24992 579.51551,364.93914 581.469,367.70541 C 583.34235,370.38638 584.76784,373.32114 586.03161,376.3255 C 587.13526,379.00766 587.7535,381.82404 588.11074,384.68971 C 588.37153,387.23117 588.08448,389.75664 587.61786,392.25235 C 587.33982,393.70356 586.79533,395.07305 586.27651,396.44822 L 578.86349,399.28784 C 579.46023,398.09318 580.07069,396.90359 580.42192,395.60419 C 580.98699,393.3697 581.44107,391.11357 581.31327,388.78981 C 581.13445,386.1528 580.65065,383.56887 579.68531,381.09422 C 578.55247,378.2522 577.25085,375.48083 575.5105,372.95065 C 573.679,370.32451 571.74098,367.76975 569.39647,365.57109 C 567.46218,363.75822 565.46793,361.99236 563.17793,360.63341 C 561.7714,359.84706 560.35909,359.06642 558.87106,358.44076 C 558.66462,358.39944 557.6156,357.87472 558.16574,358.29957 L 562.09883,351.40413 z " />
    <path
       style="fill:#000000;fill-opacity:1;fill-rule:nonzero;stroke:none;stroke-width:1px;stroke-linecap:butt;stroke-linejoin:miter;stroke-opacity:1"
       id="path1881"
       d="M 626.20677,354.40323 C 626.21878,354.95884 626.20332,355.5134 626.20138,356.06849 C 626.06572,358.26334 625.87928,360.45465 625.72268,362.64811 C 625.50307,365.77961 625.36462,368.91581 625.23814,372.05217 C 625.09776,375.31812 625.03126,378.58569 625.04637,381.8543 C 624.95959,384.47686 625.58404,386.87481 626.64213,389.23117 C 627.62127,391.05589 629.18055,392.07051 630.96431,392.97374 C 633.0056,393.74995 635.18028,393.74108 637.33087,393.70274 C 638.05662,393.68078 638.77946,393.61151 639.50325,393.56023 L 635.72789,400.54328 C 634.9602,400.57229 634.19289,400.62406 633.42407,400.61311 C 630.89839,400.53287 628.37038,400.33399 626.05744,399.21385 C 623.8302,398.00506 621.85641,396.53492 620.53993,394.30853 C 619.12507,391.66522 618.23149,388.89265 618.19146,385.85761 C 618.10479,382.53764 618.15507,379.21732 618.29393,375.89852 C 618.41029,372.73911 618.53766,369.57984 618.74022,366.42456 C 618.88486,364.23332 619.04767,362.04356 619.22423,359.85474 C 619.25334,359.3472 619.34271,358.84633 619.31132,358.33632 L 626.20677,354.40323 z " />
    <path
       style="fill:#000000;fill-opacity:1;fill-rule:nonzero;stroke:none;stroke-width:1px;stroke-linecap:butt;stroke-linejoin:miter;stroke-opacity:1"
       id="path1885"
       d="M 99.479655,526.77125 C 100.29136,526.51295 101.1101,525.39883 101.77467,524.71387 C 90.34683,536.14987 108.53422,517.46926 109.75715,516.24934 C 113.18936,512.75064 117.00603,510.01908 121.90827,509.28819 C 126.8533,509.07804 130.62517,511.64024 133.68579,515.27588 C 135.74324,517.93209 136.66889,521.4354 139.4875,523.27502 C 144.31516,520.81651 147.25283,516.74491 141.74593,522.21532 C 147.32689,516.22662 152.90315,510.2286 158.98662,504.73946 C 163.5971,500.5587 168.63477,497.01983 174.6669,495.34882 C 180.96165,494.12288 186.6907,496.28698 191.87236,499.71818 C 197.17179,503.66818 199.73587,509.41453 200.59044,515.80759 C 201.09215,521.31138 199.53394,526.60127 198.24412,531.87947 C 197.15091,536.40653 201.36815,537.51248 204.92409,538.77998 C 211.03277,540.64566 217.27371,542.01516 223.36343,543.94857 C 229.85142,546.02176 235.50848,549.6101 240.2879,554.41217 C 244.35045,558.84175 246.51297,564.15342 246.26221,570.14371 C 245.17014,577.09301 239.28839,582.35852 232.86791,584.6769 C 229.20442,585.87753 225.28425,585.55679 221.57128,586.39852 C 226.56887,581.32203 224.11674,582.24439 224.55512,586.11327 C 225.39672,589.85273 226.54737,593.50779 227.2837,597.27269 C 228.40635,602.72494 226.78155,609.2112 219.72473,609.62968 C 216.71615,609.38471 214.11758,607.87463 211.56447,606.38925 C 214.72454,603.1842 214.90977,599.00733 218.26618,603.45544 C 220.51304,606.30095 222.62774,609.24198 224.46689,612.36749 C 226.06237,614.98341 226.88314,617.65422 226.58089,620.68407 C 221.89965,627.25176 219.28432,627.97526 212.30638,626.90773 C 206.9083,625.99641 201.87196,623.87635 197.00102,621.4552 C 193.50323,619.89022 190.39921,616.98647 186.65524,616.33619 C 192.51551,611.04172 190.48296,612.2874 189.83211,619.23559 C 189.40504,624.35967 188.8266,629.47178 187.90817,634.53189 C 186.78719,641.09177 182.18407,646.97009 175.42043,648.18501 C 170.11831,648.63052 165.18632,646.6708 160.57853,644.26295 C 155.48392,641.42676 151.12475,637.55475 147.18725,633.29544 C 145.01556,630.88167 143.30557,627.85141 140.19808,627.04867 C 137.34097,628.6164 130.43639,636.06006 139.53035,627.00438 C 135.60466,630.95596 131.85516,635.09999 127.54733,638.64139 C 124.92103,640.75258 121.92402,642.08699 118.71593,643.00585 C 114.89171,643.92473 111.3713,643.06453 107.9333,641.3435 C 104.44597,639.4338 101.90824,636.438 99.576956,633.2993 C 98.257973,631.15349 97.009471,629.89223 94.541205,629.61426 C 92.01477,629.75432 89.530176,630.26857 87.015056,630.5299 C 83.890185,630.79995 80.902945,630.00011 77.979456,629.00046 C 74.99805,627.97297 72.690251,626.16183 70.821969,623.67879 C 69.047073,620.60455 69.867376,617.71182 71.219619,614.68177 C 72.785138,611.64271 75.128203,609.16018 77.506869,606.74981 C 80.245503,604.30032 78.916553,603.16218 76.287988,601.19137 C 69.355405,596.80442 61.862603,593.38206 54.500509,589.78859 C 47.758849,586.53322 40.877879,583.15803 36.095734,577.24377 C 31.276392,569.53727 37.569011,564.3319 42.847741,558.98286 C 46.640444,555.64792 51.131151,553.3819 55.855497,551.7 C 59.713362,550.36306 63.754915,549.90431 67.813321,549.81693 C 70.559903,549.89367 73.297278,550.2145 75.846839,549.41382 C 69.923017,554.07164 72.437258,555.38659 71.76444,550.23975 C 71.192141,547.48298 70.600797,544.73422 70.176941,541.95015 C 69.269617,537.75679 71.300742,531.16172 76.995676,532.76386 C 78.790243,533.75156 80.388497,535.01202 82.219536,535.89513 C 86.050858,532.76415 75.612185,542.22449 79.469006,538.29309 C 80.6264,536.37465 81.466006,534.28592 82.336366,532.22689 C 83.294848,529.85621 84.523692,527.63093 85.97348,525.53191 C 89.530305,521.28321 91.685285,518.59403 96.756039,518.26198 C 98.997532,518.34061 100.77524,519.38888 102.5414,520.64921 C 104.14651,521.92928 105.01058,523.57866 105.63107,525.47698 C 105.77818,525.94504 105.69631,526.43744 105.72862,526.91312 L 98.508998,530.21362 C 98.624757,530.02196 98.838484,529.87213 98.863631,529.62645 C 98.603367,528.34673 98.351666,527.32297 97.146058,526.47215 C 95.823711,525.65346 94.644438,524.9642 93.015223,525.2636 C 88.779792,526.84204 87.724773,530.06276 93.615256,523.38258 C 91.996715,525.15172 90.639887,527.06901 89.719788,529.31117 C 88.786232,531.41167 87.926837,533.54541 86.945454,535.62493 C 85.149312,539.37855 81.915163,544.02511 77.508842,542.28463 C 75.834483,541.37854 74.290574,540.15257 72.598057,539.37274 C 77.881817,535.0762 77.181753,532.72499 76.905976,537.73869 C 77.243365,540.48079 77.7781,543.18452 78.396737,545.87753 C 79.480897,551.49081 78.978404,552.90512 72.769935,556.73154 C 69.829934,556.9094 66.895603,556.70489 63.948268,556.75074 C 60.128942,557.00061 56.347286,557.55589 52.775734,559.01652 C 48.373978,560.8329 44.196423,563.20373 40.87081,566.67104 C 49.243038,558.13995 38.570472,566.84595 41.997693,571.93498 C 46.403387,577.56646 53.21153,580.43279 59.446875,583.57974 C 66.945978,587.23742 74.585519,590.72633 81.591311,595.2845 C 84.727977,597.71076 87.791509,600.66373 85.154895,604.62282 C 82.980951,607.06391 80.498273,609.25765 78.695629,612.01239 C 77.465999,614.04657 76.054121,616.11821 76.873431,618.54107 C 78.37385,620.53999 80.229611,621.86911 82.678932,622.60271 C 85.30453,623.39662 87.950164,623.95258 90.705663,623.50169 C 93.361747,623.11566 96.044206,622.54971 98.735303,622.87438 C 101.76166,623.65281 103.82429,625.32048 105.48988,628.00273 C 107.55317,630.81653 109.75758,633.52438 112.91738,635.16488 C 115.92724,636.43239 118.78681,636.91831 121.95564,635.75873 C 124.81656,634.62362 127.47049,633.11208 129.75423,631.01604 C 136.74874,624.53382 124.3653,636.46312 131.84178,628.97978 C 135.26014,625.57264 138.93548,620.1793 144.32803,620.2693 C 148.11668,621.62441 150.3652,624.73883 152.89336,627.77668 C 156.61555,631.8148 160.74587,635.48354 165.60179,638.11615 C 169.69579,640.17575 174.18169,641.99341 178.83508,641.01866 C 186.99479,637.36055 174.03288,649.19536 180.75205,637.96792 C 181.81978,633.02498 182.36712,627.99013 182.82032,622.95729 C 183.28267,617.75234 183.15009,609.4089 190.74626,609.53326 C 194.78096,610.8176 198.18786,613.40073 201.97218,615.26618 C 206.61553,617.52802 211.42633,619.49398 216.57863,620.21712 C 222.78677,620.89077 225.42986,617.33289 219.16466,623.51532 C 220.25828,621.38841 219.64148,619.61594 218.36335,617.44323 C 216.59083,614.41671 214.59595,611.54085 212.39937,608.80305 C 209.36365,604.79603 208.91248,598.55931 216.66307,600.30479 C 218.74922,601.48225 220.87158,602.86151 223.35007,602.56758 C 219.76675,606.14016 220.50917,608.4973 220.62503,601.59455 C 219.996,597.8268 218.87589,594.185 217.93179,590.4891 C 216.90337,585.19896 218.30332,580.33507 224.97826,579.22852 C 228.65068,578.83203 232.435,578.78381 235.89356,577.33784 C 247.21815,571.54654 231.2055,584.28524 239.18442,573.73833 C 240.07884,568.52804 238.10882,563.86485 234.62413,559.97436 C 230.15916,555.48016 224.80806,552.24577 218.72401,550.39001 C 212.59515,548.51259 206.32004,547.16614 200.22512,545.1781 C 195.63326,543.41895 190.53062,541.09882 191.10036,535.34113 C 192.0982,530.21832 194.02834,525.22716 193.80216,519.92288 C 193.3608,514.25661 191.34055,509.12292 186.61252,505.6638 C 181.98007,502.69376 176.89069,500.95429 171.40924,502.58788 C 165.85814,504.69624 161.21272,508.37543 156.89098,512.39613 C 155.9059,513.32708 152.99972,516.17065 153.95399,515.20815 C 162.70115,506.38547 151.65833,517.5174 149.42092,520.18779 C 145.5685,524.07351 141.0198,531.17538 134.65397,529.57211 C 131.38234,527.34835 129.87972,523.99101 127.85304,520.66062 C 125.41864,517.69769 122.39,515.64806 118.38623,516.40237 C 114.10276,517.72975 110.86203,520.78676 107.76732,523.93419 C 118.03153,513.66101 101.30442,530.77196 99.789818,532.4 C 99.18749,532.93205 97.591953,534.10565 97.505484,534.46014 L 99.479655,526.77125 z " />
    <path
       style="fill:#000000;fill-opacity:1;fill-rule:nonzero;stroke:none;stroke-width:1px;stroke-linecap:butt;stroke-linejoin:miter;stroke-opacity:1"
       id="path1889"
       d="M 123.69262,634.75192 C 124.5804,635.24098 125.02922,636.01318 125.60838,636.79924 C 126.82299,638.63169 127.9827,640.49959 129.13541,642.37132 C 130.76906,644.96566 132.12581,647.71338 133.38339,650.50438 C 134.64494,653.20627 135.24482,655.97122 135.02878,658.92734 C 133.9862,663.69941 129.62633,666.95883 125.11724,668.25718 C 122.19645,668.9504 119.19426,669.1639 116.20858,669.3767 C 115.07281,669.45702 113.9362,669.52444 112.79982,669.59516 L 116.58568,662.61779 C 117.71436,662.54315 118.84331,662.47235 119.97125,662.3868 C 122.7718,662.14111 125.61837,661.92661 128.28669,660.97906 C 135.19582,657.29079 122.87492,666.67976 127.80365,662.21578 C 128.52904,659.80938 128.14791,657.6622 127.0872,655.33908 C 125.92011,652.64907 124.64047,650.00671 123.08791,647.5137 C 121.95614,645.66707 120.81586,643.82527 119.62493,642.01601 C 119.70187,641.80527 118.01274,639.98784 119.75953,641.64736 L 123.69262,634.75192 z " />
    <path
       style="fill:#000000;fill-opacity:1;fill-rule:nonzero;stroke:none;stroke-width:1px;stroke-linecap:butt;stroke-linejoin:miter;stroke-opacity:1"
       id="path1891"
       d="M 175.67873,641.79163 C 175.81282,642.32319 175.6217,642.8921 175.59232,643.43557 C 175.2949,645.4017 174.99001,647.3665 174.70825,649.33508 C 174.30555,652.19169 174.02003,655.06192 173.80653,657.93812 C 173.54093,660.29083 173.82031,662.43779 174.79395,664.55689 C 176.16242,666.35865 178.22534,667.07858 180.30208,667.75539 C 182.86994,668.53415 185.53766,668.76537 188.19992,668.94763 C 189.43194,669.0253 190.66664,669.02713 191.90041,669.0437 L 187.93309,675.91951 C 186.65627,675.88139 185.3785,675.85741 184.10497,675.7482 C 181.24853,675.48815 178.39482,675.12676 175.66477,674.19834 C 173.04248,673.22459 170.53227,672.07117 168.80478,669.76709 C 167.31939,667.2749 166.6452,664.68324 166.84272,661.74885 C 166.99465,658.80721 167.25558,655.87404 167.64239,652.95307 C 167.90456,650.9727 168.1769,648.99331 168.5112,647.02361 C 168.58728,646.66041 168.61079,645.82986 168.78329,645.72472 L 175.67873,641.79163 z " />
    <path
       style="fill:#000000;fill-opacity:1;fill-rule:nonzero;stroke:none;stroke-width:1px;stroke-linecap:butt;stroke-linejoin:miter;stroke-opacity:1"
       id="path1893"
       d="M 368.11279,621.58858 C 368.44312,622.24746 367.97242,622.9722 367.70602,623.74411 C 366.99792,625.49991 366.93601,627.27006 367.05554,629.12022 C 367.50153,631.7024 368.96298,633.65689 370.71761,635.50873 C 373.05838,637.76224 375.94474,639.00559 379.00104,639.93422 C 382.38941,640.8017 385.75885,640.33915 389.07575,639.42687 C 392.74168,638.30315 395.91854,636.20126 398.68411,633.5908 C 391.75554,640.92932 397.70218,634.86125 399.66441,630.15946 C 400.624,627.69912 400.52392,625.2363 400.09401,622.69993 C 399.52809,620.80116 398.58959,619.04178 397.80187,617.22967 C 396.1308,613.17077 400.90623,609.67566 404.7733,610.44048 C 406.69184,610.94271 408.4769,611.82585 410.26267,612.6687 C 413.18965,614.13604 416.11995,615.59211 419.10657,616.93487 C 422.47437,618.492 425.96044,619.70128 429.58206,620.48134 C 432.48166,620.99907 435.12134,620.48595 437.63495,619.03567 C 441.63823,613.70411 433.60394,626.51164 436.66817,618.92806 C 437.04783,616.42498 435.93072,614.37644 434.63441,612.32842 C 433.01841,610.36829 431.52861,608.5315 430.79945,606.09801 C 435.7124,599.40096 437.99591,600.65242 444.87762,601.71166 C 449.44547,602.43827 454.00526,603.36002 458.64591,603.06249 C 466.04475,601.10037 465.73861,598.68963 460.78283,603.5097 C 463.45155,597.99547 467.3912,594.98944 473.31612,595.08889 C 477.58934,595.36581 481.8333,596.04825 486.10863,595.72193 C 489.34187,592.29761 486.50923,605.02583 482.7982,596.17546 C 481.25955,593.47758 479.41319,590.9824 478.01499,588.2064 C 475.76604,581.64319 483.19469,580.05857 487.9818,580.98166 C 492.91919,582.13527 497.81702,583.44524 502.77218,584.52424 C 507.40729,585.45967 512.26812,586.38605 516.7868,584.60505 C 516.75751,585.51744 519.40864,582.06359 518.75192,582.69766 C 511.3741,589.82103 516.68289,586.36962 515.21242,581.29409 C 512.34622,575.68914 506.69653,572.20303 501.18016,569.55666 C 494.0225,566.26994 486.16658,565.11625 478.35751,564.8513 C 472.90675,564.56789 467.39697,565.68245 462.02003,564.63519 C 458.10169,562.37537 460.17608,559.39298 462.39774,556.70065 C 465.72054,553.00537 468.97338,549.26187 471.91749,545.25571 C 474.68327,541.35557 476.87388,537.07267 478.21881,532.48332 C 478.9296,529.48525 478.5444,527.69124 475.44565,527.09757 C 471.23792,527.1525 467.29961,528.84271 463.54549,530.60251 C 459.21385,532.70121 455.677,535.9673 452.21948,539.24458 C 449.65203,541.81565 447.36529,543.85306 443.88471,542.09934 C 441.43663,539.49586 441.47197,535.78778 441.28489,532.398 C 441.1699,527.50435 440.95177,522.61782 440.45843,517.747 C 440.02706,513.55059 439.16297,509.42728 437.31756,505.62121 C 435.80839,502.75388 433.56265,501.27939 430.47459,500.65689 C 427.14147,500.33826 424.23472,501.63663 421.38477,503.18738 C 411.5584,511.77564 425.08092,497.85885 418.63554,505.50233 C 416.52243,508.14701 415.38201,511.24727 414.56235,514.48412 C 413.73428,519.60755 411.71356,524.44668 406.11764,526.30606 C 403.4893,526.71636 401.09323,525.78044 398.73262,524.74397 C 396.76369,523.77155 395.87376,523.97935 394.52065,525.50469 C 401.80741,517.33902 397.73264,522.2254 395.97439,526.16681 C 391.4781,532.0834 389.68193,533.64693 384.14244,530.47006 C 381.39283,528.55069 379.06695,526.1144 376.47141,524.00413 C 374.20836,522.30219 372.21123,522.40424 369.76068,523.4409 C 363.38926,529.36356 374.62579,517.49348 369.72977,523.53514 C 364.52817,529.79265 362.77993,529.70503 356.64654,526.76874 C 353.17934,524.93252 349.73136,523.0695 346.01964,521.77678 C 341.04519,520.24949 335.88724,520.83894 330.86352,521.75265 C 324.36272,523.08595 318.32298,525.86914 312.74626,529.40414 C 310.31131,530.89611 303.25118,538.03265 312.01245,529.50208 C 313.88753,527.67638 308.7806,533.71059 307.83985,536.15274 C 306.67244,540.01086 307.57918,543.63807 309.64528,546.97164 C 312.00076,550.36213 315.49567,552.37913 319.21673,553.95121 C 322.51087,555.21506 325.96329,555.97619 329.35662,556.91566 C 335.24979,559.0478 330.06573,562.08237 326.43652,565.20961 C 324.3766,566.01108 322.47581,567.12245 320.61426,568.2998 C 311.61815,575.65241 320.98735,567.17236 319.39424,568.78408 C 318.04245,570.0254 318.06431,570.68921 318.3547,572.24382 C 319.40327,574.25962 319.42241,576.35298 319.23694,578.55709 C 318.74217,581.33819 317.95405,584.04527 317.56041,586.84459 C 317.40686,589.21174 317.87339,590.02005 320.01625,590.5743 C 322.5222,590.45412 324.78543,589.95378 327.17259,590.81541 C 329.75288,593.03535 329.11774,596.00137 328.52628,599.00726 C 327.6726,602.54796 326.42933,605.97737 325.37593,609.46069 C 324.25999,612.71692 324.23614,615.94233 324.93617,619.26058 C 325.694,622.37232 327.56815,624.48736 330.04244,626.36792 C 333.12799,628.31653 336.64569,629.37842 340.15718,630.26662 C 343.56419,631.13061 347.04768,631.54025 350.54848,631.73462 C 353.58103,631.91287 356.5335,631.42516 359.43263,630.59198 C 361.8694,629.86261 363.77027,628.43484 365.47746,626.62396 L 363.48849,634.30903 C 361.26657,635.93817 358.85877,637.20971 356.14454,637.81728 C 352.96354,638.48305 349.74735,638.83388 346.49147,638.55788 C 342.83788,638.25622 339.20236,637.75792 335.65412,636.80411 C 331.85449,635.76734 328.0553,634.52622 324.76657,632.29932 C 321.83002,630.0939 319.52116,627.41004 318.44284,623.82709 C 317.38469,620.16081 317.12009,616.46674 318.14729,612.74141 C 319.09804,609.24889 320.3175,605.84155 321.33484,602.36873 C 321.77063,600.66134 322.23706,598.82085 322.34471,597.11683 C 320.11603,597.30178 317.85326,597.67174 315.6348,597.19391 C 312.53304,596.05468 310.77421,594.12863 310.61501,590.68876 C 310.72699,587.75593 311.33718,584.92754 312.13378,582.10131 C 312.43,580.39944 312.80706,578.76478 312.08757,577.11613 C 311.19297,575.05295 310.54781,573.21121 311.8014,571.10034 C 314.81515,566.89095 318.76958,563.43285 323.19682,560.79335 C 325.18056,559.69599 327.21937,558.72756 329.28787,557.80109 C 328.44831,558.61099 325.97884,563.9067 324.80013,563.41602 C 321.2963,562.48645 317.75287,561.64572 314.394,560.25658 C 310.23513,558.38874 306.37307,555.98814 303.68025,552.20946 C 301.15753,548.34127 299.78055,544.0984 300.61553,539.44295 C 302.55722,531.68774 308.69967,526.07837 315.30897,521.8909 C 321.25574,518.49451 327.57678,515.76352 334.37577,514.63364 C 339.84118,513.82881 345.40122,513.49042 350.70477,515.36852 C 354.47827,516.79727 358.02467,518.69605 361.59643,520.5627 C 366.70754,522.88549 369.04278,519.23868 362.0448,525.52448 C 365.35904,522.12462 368.14269,517.69984 372.80256,516.10855 C 376.13977,515.47409 379.07163,516.00975 381.8241,518.14196 C 384.36361,520.17801 386.5892,522.59451 389.28924,524.42632 C 393.95638,526.59397 392.73446,523.38467 388.45043,528.6979 C 391.14785,524.5223 391.4507,520.83381 396.75412,517.88708 C 399.19655,517.08075 401.24771,517.20095 403.59091,518.46596 C 405.4406,519.183 407.16473,519.94037 409.02889,518.92087 C 406.79984,521.15012 404.99816,525.0623 407.40743,517.92263 C 408.11984,514.40135 409.05578,510.93654 411.06859,507.90183 C 414.409,502.94728 418.82798,498.54081 424.13122,495.73934 C 427.53005,494.21322 431.09744,493.26449 434.8349,494.02334 C 438.5676,495.03709 441.54018,497.18566 443.4672,500.60142 C 445.57289,504.64119 446.68967,509.02344 447.19459,513.54695 C 447.76472,518.46832 448.0427,523.41382 448.12383,528.36746 C 448.22289,530.94373 448.18798,533.66098 449.07791,536.09542 C 450.9029,534.72814 452.64486,533.1918 454.28192,531.5789 C 457.92933,528.23401 461.83608,525.14756 466.43603,523.20919 C 470.65825,521.43895 475.15863,519.72928 479.8071,520.46477 C 483.87795,521.74133 485.98498,524.70823 485.38156,529.06114 C 484.38863,534.00919 482.18585,538.58197 479.47276,542.81967 C 476.63092,546.9676 473.46519,550.8624 470.03703,554.54252 C 469.07658,555.61355 466.6563,558.16083 466.48549,558.07196 C 471.77624,558.46476 477.08878,557.65726 482.38922,558.01305 C 490.54055,558.42352 498.70744,559.80014 506.1269,563.34811 C 512.25051,566.38629 518.22287,570.368 521.55165,576.51596 C 524.11793,583.29218 521.07154,589.38054 513.65358,591.89883 C 508.54536,592.99925 503.40203,592.27041 498.3498,591.11657 C 493.42975,590.00846 488.56429,588.67183 483.63209,587.62217 C 476.78558,586.78323 484.4559,585.67258 484.35964,583.43548 C 485.62831,586.16369 487.42739,588.58144 488.96274,591.17398 C 491.66178,596.69227 489.74355,601.91909 482.39945,602.74036 C 478.04107,602.78194 473.73313,602.09176 469.38116,601.98326 C 457.9781,602.69543 473.80152,595.73075 468.30861,600.98404 C 465.2396,606.36654 460.85973,609.77282 454.83689,610.02724 C 450.03631,610.01954 445.32351,609.15226 440.59463,608.3954 C 434.25699,607.46237 430.4547,610.23317 438.23791,603.32571 C 438.85585,604.65577 439.58428,605.97057 440.56963,607.05684 C 442.23225,609.56507 443.67257,612.16895 443.71098,615.26539 C 443.26811,620.39011 439.53347,624.28791 434.86179,626.47381 C 431.69568,627.53821 428.48982,627.89381 425.19042,627.09419 C 421.4055,626.18998 417.76812,624.81315 414.22936,623.19819 C 411.23381,621.83002 408.29473,620.34904 405.33987,618.89624 C 403.78098,618.17618 402.2155,617.35963 400.49638,617.1281 C 401.90994,615.78161 406.25847,612.76802 404.30816,612.68166 C 404.99253,614.52036 405.89272,616.29406 406.59416,618.14314 C 407.38613,621.05385 407.69221,623.98287 406.92596,626.95224 C 405.09852,633.04081 401.60271,637.06625 396.55061,641.23701 C 393.32025,643.73003 389.75619,645.7304 385.73769,646.62921 C 381.96712,647.39244 378.15372,647.58529 374.42919,646.42379 C 370.98779,645.29358 367.77653,643.67195 365.13108,641.1485 C 363.01491,638.9228 361.19154,636.54314 360.43351,633.49801 C 360.00528,631.31546 359.81989,629.16156 360.46187,626.99044 C 360.58145,626.56358 360.89252,624.50396 361.21735,625.52167 L 368.11279,621.58858 z " />
    <path
       style="fill:#000000;fill-opacity:1;fill-rule:nonzero;stroke:none;stroke-width:1px;stroke-linecap:butt;stroke-linejoin:miter;stroke-opacity:1"
       id="path1905"
       d="M 387.46527,639.46268 C 388.37952,639.86951 388.40306,640.51217 388.8665,641.21465 C 389.70852,642.65611 390.23907,644.23428 390.7733,645.806 C 391.70858,648.58826 391.88581,651.49281 391.92443,654.40103 C 391.94372,657.87865 391.19692,661.19457 389.94498,664.41031 C 387.49549,669.20806 383.24149,672.82642 378.72061,675.62587 C 377.27918,676.49284 375.70276,677.06459 374.13959,677.6597 L 376.5947,671.75445 C 378.0319,671.10767 379.48076,670.47929 380.78106,669.5716 C 388.54212,664.00151 378.1123,672.79929 383.95709,666.65634 C 385.43522,663.78623 386.26916,660.77526 386.34056,657.51872 C 386.39871,654.82191 386.35688,652.12092 385.56288,649.51424 C 385.10826,648.06511 384.66652,646.60337 383.92127,645.26981 C 383.99587,645.21973 382.40649,642.84282 384.29667,645.01782 L 387.46527,639.46268 z " />
    <path
       style="fill:#000000;fill-opacity:1;fill-rule:nonzero;stroke:none;stroke-width:1px;stroke-linecap:butt;stroke-linejoin:miter;stroke-opacity:1"
       id="path1909"
       d="M 436.13301,623.48875 C 435.66574,622.74811 436.61291,625.11786 436.74921,625.52277 C 437.51314,628.01186 438.05587,630.5608 438.61513,633.1015 C 439.36513,636.62665 440.0532,640.16394 440.85539,643.67782 C 441.65859,647.25367 442.64808,650.77879 443.784,654.26153 C 444.72177,657.28489 446.20135,660.03497 448.00661,662.6135 C 449.84131,665.09031 452.31499,666.79985 454.96965,668.27763 C 457.73746,669.68289 460.75402,670.42756 463.76414,671.10192 L 460.20043,676.41224 C 457.01599,675.64293 453.83082,674.7928 450.92557,673.23192 C 448.02658,671.55481 445.3181,669.62745 443.27731,666.91853 C 441.31544,664.17619 439.66172,661.26339 438.62009,658.03428 C 437.41015,654.50253 436.40588,650.90854 435.56484,647.27083 C 434.74204,643.74845 434.03464,640.20258 433.30181,636.66074 C 432.76423,634.1753 432.24,631.68423 431.54321,629.23723 C 431.26674,628.36419 431.06727,627.43396 430.57787,626.65735 L 436.13301,623.48875 z " />
  </g>
</svg>
