<?xml version="1.0" encoding="UTF-8" standalone="no"?>
<!-- Created with Inkscape (http://www.inkscape.org/) -->
<svg
   xmlns:dc="http://purl.org/dc/elements/1.1/"
   xmlns:cc="http://web.resource.org/cc/"
   xmlns:rdf="http://www.w3.org/1999/02/22-rdf-syntax-ns#"
   xmlns:svg="http://www.w3.org/2000/svg"
   xmlns="http://www.w3.org/2000/svg"
   xmlns:xlink="http://www.w3.org/1999/xlink"
   xmlns:sodipodi="http://inkscape.sourceforge.net/DTD/sodipodi-0.dtd"
   xmlns:inkscape="http://www.inkscape.org/namespaces/inkscape"
   width="1000"
   height="1000"
   id="svg2"
   sodipodi:version="0.32"
   inkscape:version="0.43"
   version="1.0"
   sodipodi:docbase="/home/kkowal/tale/art/item/can"
   sodipodi:docname="blank.svg"
   inkscape:export-filename="/home/kkowal/tale/art/item/can/blank.png"
   inkscape:export-xdpi="90"
   inkscape:export-ydpi="90">
  <defs
     id="defs4">
    <linearGradient
       id="linearGradient6942">
      <stop
         style="stop-color:#000000;stop-opacity:1;"
         offset="0"
         id="stop6944" />
      <stop
         style="stop-color:#000000;stop-opacity:0;"
         offset="1"
         id="stop6946" />
    </linearGradient>
    <linearGradient
       inkscape:collect="always"
       xlink:href="#linearGradient6942"
       id="linearGradient6948"
       x1="560.28625"
       y1="298.64511"
       x2="422.90549"
       y2="128.68118"
       gradientUnits="userSpaceOnUse" />
    <linearGradient
       inkscape:collect="always"
       xlink:href="#linearGradient6942"
       id="linearGradient7839"
       x1="511.11194"
       y1="384.6825"
       x2="511.11194"
       y2="143.07669"
       gradientUnits="userSpaceOnUse" />
    <radialGradient
       inkscape:collect="always"
       xlink:href="#linearGradient6942"
       id="radialGradient8762"
       cx="507.29367"
       cy="197.69186"
       fx="507.29367"
       fy="197.69186"
       r="303.73029"
       gradientTransform="matrix(1,-3.175282e-8,1.380942e-8,0.434904,-2.73001e-6,133.2322)"
       gradientUnits="userSpaceOnUse" />
    <linearGradient
       inkscape:collect="always"
       xlink:href="#linearGradient6942"
       id="linearGradient10548"
       x1="-364.93997"
       y1="556.20978"
       x2="523.98883"
       y2="574.39258"
       gradientUnits="userSpaceOnUse" />
    <linearGradient
       inkscape:collect="always"
       xlink:href="#linearGradient6942"
       id="linearGradient10552"
       gradientUnits="userSpaceOnUse"
       x1="1146.2483"
       y1="563.28082"
       x2="546.21216"
       y2="564.29108" />
  </defs>
  <sodipodi:namedview
     id="base"
     pagecolor="#ffffff"
     bordercolor="#666666"
     borderopacity="1.0"
     inkscape:pageopacity="0.0"
     inkscape:pageshadow="2"
     inkscape:zoom="0.7"
     inkscape:cx="523.20704"
     inkscape:cy="512.86128"
     inkscape:document-units="px"
     inkscape:current-layer="layer2"
     inkscape:window-width="1590"
     inkscape:window-height="1121"
     inkscape:window-x="0"
     inkscape:window-y="25" />
  <metadata
     id="metadata7">
    <rdf:RDF>
      <cc:Work
         rdf:about="">
        <dc:format>image/svg+xml</dc:format>
        <dc:type
           rdf:resource="http://purl.org/dc/dcmitype/StillImage" />
      </cc:Work>
    </rdf:RDF>
  </metadata>
  <g
     inkscape:groupmode="layer"
     id="layer4"
     inkscape:label="lid"
     style="display:inline">
    <path
       style="opacity:1;color:#000000;fill:#e2e2e2;fill-opacity:1;fill-rule:nonzero;stroke:none;stroke-width:3.9000001;stroke-linecap:butt;stroke-linejoin:miter;marker:none;marker-start:none;marker-mid:none;marker-end:none;stroke-miterlimit:4;stroke-dasharray:none;stroke-dashoffset:0;stroke-opacity:1;visibility:visible;display:inline;overflow:visible"
       d="M 249.63229,145.01233 C 321.92897,92.465553 412.46274,89.032733 496.73725,87.575443 C 582.27042,84.796753 671.7075,93.763513 748.23441,137.95371 C 781.2161,164.42117 803.3273,205.95385 810.76315,249.14683 C 813.54126,283.21095 793.7739,314.31544 768.212,332.42102 C 727.21201,369.07344 676.60243,397.12364 622.0687,395.63298 C 568.04231,396.47961 514.05851,392.43676 460.03981,392.02699 C 400.14981,388.87182 340.85693,375.4607 284.11775,354.98449 C 245.32296,339.13962 205.38269,304.62449 203.56338,256.6917 C 203.72446,213.58017 243.39784,186.36169 249.63229,145.01233 z "
       id="path2412" />
    <path
       id="path8754"
       d="M 249.63229,145.01233 C 321.92897,92.465553 412.46274,89.032733 496.73725,87.575443 C 582.27042,84.796753 671.7075,93.763513 748.23441,137.95371 C 781.2161,164.42117 803.3273,205.95385 810.76315,249.14683 C 813.54126,283.21095 793.7739,314.31544 768.212,332.42102 C 727.21201,369.07344 676.60243,397.12364 622.0687,395.63298 C 568.04231,396.47961 514.05851,392.43676 460.03981,392.02699 C 400.14981,388.87182 340.85693,375.4607 284.11775,354.98449 C 245.32296,339.13962 205.38269,304.62449 203.56338,256.6917 C 203.72446,213.58017 243.39784,186.36169 249.63229,145.01233 z "
       style="opacity:1;color:#000000;fill:url(#radialGradient8762);fill-opacity:1;fill-rule:nonzero;stroke:none;stroke-width:3.9000001;stroke-linecap:butt;stroke-linejoin:miter;marker:none;marker-start:none;marker-mid:none;marker-end:none;stroke-miterlimit:4;stroke-dasharray:none;stroke-dashoffset:0;stroke-opacity:1;visibility:visible;display:inline;overflow:visible" />
    <path
       style="color:#000000;fill:#000000;fill-opacity:1;fill-rule:nonzero;stroke:none;stroke-width:3.9000001;stroke-linecap:butt;stroke-linejoin:miter;marker:none;marker-start:none;marker-mid:none;marker-end:none;stroke-miterlimit:4;stroke-dasharray:none;stroke-dashoffset:0;stroke-opacity:1;visibility:visible;display:inline;overflow:visible"
       d="M 443.80579,125.19656 C 395.3322,132.52306 346.57793,141.57898 300.8483,161.01779 C 281.83709,178.06909 274.34159,208.0245 282.05519,233.21158 C 285.77679,283.49889 275.43068,333.91558 281.6762,384.10336 C 315.0196,419.09033 364.65911,416.28554 407.71007,420.18551 C 500.74712,431.90008 596.65995,444.80734 688.8163,419.52253 C 725.82609,405.28519 748.77037,358.62786 738.95371,317.67424 C 738.48563,281.31958 744.67899,245.25566 743.69875,208.88855 C 723.92601,161.38827 674.05246,140.7704 629.0084,134.89345 C 568.25057,122.08875 505.33066,112.59919 443.80579,125.19656 z "
       id="path3347" />
    <path
       style="color:#000000;fill:#e2e2e2;fill-opacity:1;fill-rule:nonzero;stroke:none;stroke-width:3.9000001;stroke-linecap:butt;stroke-linejoin:miter;marker:none;marker-start:none;marker-mid:none;marker-end:none;stroke-miterlimit:4;stroke-dasharray:none;stroke-dashoffset:0;stroke-opacity:1;visibility:visible;display:inline;overflow:visible"
       d="M 409.44903,131.43106 C 424.91446,127.98305 441.28847,127.57662 456.697,131.36267 C 481.32718,139.66026 500.72127,161.43664 510.18192,186.92283 C 522.57657,211.16582 532.89811,237.85537 552.8625,256.27439 C 560.10517,267.42542 576.20932,273.00111 576.4268,288.49445 C 577.06325,302.198 563.65879,307.89762 553.74646,311.72408 C 533.75823,318.06723 512.62769,319.03827 491.89913,319.10647 C 467.95484,318.65223 443.79786,316.15172 420.71043,309.11975 C 397.80188,299.49439 378.06932,283.1378 358.27812,267.84038 C 346.95219,256.68321 342.15995,237.75518 349.23318,222.59267 C 356.47394,200.47038 366.67213,179.36092 381.00857,161.57459 C 388.50909,151.08937 397.9343,142.5797 407.321,134.19389 L 408.42671,132.85442 L 409.44903,131.43106 L 409.44903,131.43106 z "
       id="path2455" />
    <path
       id="path6067"
       d="M 409.44903,131.43106 C 424.91446,127.98305 441.28847,127.57662 456.697,131.36267 C 481.32718,139.66026 500.72127,161.43664 510.18192,186.92283 C 522.57657,211.16582 532.89811,237.85537 552.8625,256.27439 C 560.10517,267.42542 576.20932,273.00111 576.4268,288.49445 C 577.06325,302.198 563.65879,307.89762 553.74646,311.72408 C 533.75823,318.06723 512.62769,319.03827 491.89913,319.10647 C 467.95484,318.65223 443.79786,316.15172 420.71043,309.11975 C 397.80188,299.49439 378.06932,283.1378 358.27812,267.84038 C 346.95219,256.68321 342.15995,237.75518 349.23318,222.59267 C 356.47394,200.47038 366.67213,179.36092 381.00857,161.57459 C 388.50909,151.08937 397.9343,142.5797 407.321,134.19389 L 408.42671,132.85442 L 409.44903,131.43106 L 409.44903,131.43106 z "
       style="color:#000000;fill:url(#linearGradient6948);fill-opacity:1;fill-rule:nonzero;stroke:none;stroke-width:3.9000001;stroke-linecap:butt;stroke-linejoin:miter;marker:none;marker-start:none;marker-mid:none;marker-end:none;stroke-miterlimit:4;stroke-dasharray:none;stroke-dashoffset:0;stroke-opacity:1;visibility:visible;display:inline;overflow:visible" />
    <path
       style="color:#000000;fill:#939393;fill-opacity:1;fill-rule:nonzero;stroke:none;stroke-width:3.9000001;stroke-linecap:butt;stroke-linejoin:miter;marker:none;marker-start:none;marker-mid:none;marker-end:none;stroke-miterlimit:4;stroke-dasharray:none;stroke-dashoffset:0;stroke-opacity:1;visibility:visible;display:inline;overflow:visible"
       id="path1493"
       d="M 382.54781,128.96298 C 385.45693,127.84562 406.18298,123.55204 412.47592,123.25291 C 431.93221,122.62559 446.87954,118.74772 466.5209,121.60742 C 487.94869,128.2744 499.88241,149.96482 510.09466,169.69176 C 524.52096,199.30691 536.19018,230.66657 557.38957,255.63277 C 580.95415,282.2978 614.07307,290.74478 647.06256,285.09979 C 649.03444,284.64264 651.00632,284.18548 652.9782,283.72834 L 644.4886,301.80936 C 642.40893,302.12257 640.32939,302.43579 638.24972,302.749 C 602.63844,306.23144 567.40176,295.5075 542.43184,266.84709 C 520.96838,241.17973 508.64153,209.55336 493.30782,179.61115 C 484.05987,162.66646 473.26448,143.47091 454.06066,139.14749 C 435.56569,135.62052 416.64544,138.12855 398.04694,139.22557 C 389.4887,140.01156 380.01789,141.77438 371.93449,142.62403 L 382.54781,128.96298 z "
       sodipodi:nodetypes="ccccccccccccccc" />
    <path
       style="color:#000000;fill:#e2e2e2;fill-opacity:1;fill-rule:nonzero;stroke:none;stroke-width:3.9000001;stroke-linecap:butt;stroke-linejoin:miter;marker:none;marker-start:none;marker-mid:none;marker-end:none;stroke-miterlimit:4;stroke-dasharray:none;stroke-dashoffset:0;stroke-opacity:1;visibility:visible;display:inline;overflow:visible"
       d="M 405.94255,131.41803 C 366.07041,137.43796 324.92248,144.8051 290.03687,167.80462 C 275.14173,188.30807 292.62525,216.37027 312.11788,224.3081 C 381.55706,263.47934 461.12018,271.41635 538.13359,275.50483 C 600.05564,279.28804 666.01084,276.40509 720.88119,241.83821 C 737.7726,231.63291 743.69458,205.98012 730.76132,189.78596 C 718.9718,174.15703 701.80557,164.86211 687.10462,152.88368 C 667.92517,139.67997 645.50922,133.63216 623.27027,130.18027 C 606.10591,126.77004 574.52479,109.44349 565.57393,133.0448 C 561.64139,159.03988 598.65117,160.75805 596.10798,184.85954 C 593.33687,203.49683 576.6264,212.92439 561.24109,217.21266 C 524.59366,230.16469 484.96965,233.05964 446.99349,225.89178 C 427.27889,225.37184 402.19618,226.58591 390.40051,205.93517 C 381.59761,183.24136 400.69505,164.41814 408.84555,145.39883 C 410.2644,140.71333 410.3276,135.19347 407.69734,130.95275"
       id="path2433" />
    <path
       id="path6958"
       d="M 405.94255,131.41803 C 366.07041,137.43796 324.92248,144.8051 290.03687,167.80462 C 275.14173,188.30807 292.62525,216.37027 312.11788,224.3081 C 381.55706,263.47934 461.12018,271.41635 538.13359,275.50483 C 600.05564,279.28804 666.01084,276.40509 720.88119,241.83821 C 737.7726,231.63291 743.69458,205.98012 730.76132,189.78596 C 718.9718,174.15703 701.80557,164.86211 687.10462,152.88368 C 667.92517,139.67997 645.50922,133.63216 623.27027,130.18027 C 606.10591,126.77004 574.52479,109.44349 565.57393,133.0448 C 561.64139,159.03988 598.65117,160.75805 596.10798,184.85954 C 593.33687,203.49683 576.6264,212.92439 561.24109,217.21266 C 524.59366,230.16469 484.96965,233.05964 446.99349,225.89178 C 427.27889,225.37184 402.19618,226.58591 390.40051,205.93517 C 381.59761,183.24136 400.69505,164.41814 408.84555,145.39883 C 410.2644,140.71333 410.3276,135.19347 407.69734,130.95275"
       style="color:#000000;fill:url(#linearGradient7839);fill-opacity:1;fill-rule:nonzero;stroke:none;stroke-width:3.9000001;stroke-linecap:butt;stroke-linejoin:miter;marker:none;marker-start:none;marker-mid:none;marker-end:none;stroke-miterlimit:4;stroke-dasharray:none;stroke-dashoffset:0;stroke-opacity:1;visibility:visible;display:inline;overflow:visible" />
    <path
       style="color:#000000;fill:#939393;fill-opacity:1;fill-rule:nonzero;stroke:none;stroke-width:3.9000001;stroke-linecap:butt;stroke-linejoin:miter;marker:none;marker-start:none;marker-mid:none;marker-end:none;stroke-miterlimit:4;stroke-dasharray:none;stroke-dashoffset:0;stroke-opacity:1;visibility:visible;display:inline;overflow:visible"
       id="path1437"
       d="M 438.7533,254.91344 C 454.23821,260.01257 473.19767,261.44305 489.30855,264.24192 C 549.42207,269.69194 610.97852,274.27719 670.41728,260.88003 C 692.91185,255.16043 741.10619,237.51436 726.62152,195.60898 C 696.98449,146.89454 626.92044,137.11757 575.93854,130.74071 C 499.5032,122.95205 421.87895,129.85968 348.25027,151.85676 C 330.64445,158.16805 275.59178,170.63794 293.65778,198.88494 C 335.96055,236.86931 399.13397,248.06797 453.02769,258.17108 C 471.58988,261.29033 462.38472,259.83217 480.64171,262.55544 L 468.62406,277.34214 C 450.47809,274.10706 460.51106,275.8055 440.27368,274.13291 C 383.11746,262.33211 316.33494,251.20616 271.06723,211.32563 C 239.53012,163.07809 326.4061,141.59425 357.48597,132.76555 C 432.36111,113.59313 510.30706,107.74384 587.23911,115.53637 C 643.19017,122.26068 717.68731,132.46149 749.71653,186.16281 C 770.75415,242.96233 704.49651,271.10253 660.30774,280.0811 C 599.11393,291.07599 536.7125,285.79883 475.33331,278.56966 C 459.6814,276.82039 438.08543,275.03125 425.11813,271.15522 L 438.7533,254.91344 z "
       sodipodi:nodetypes="ccccccccccccccccccc" />
    <path
       style="color:#000000;fill:#939393;fill-opacity:1;fill-rule:nonzero;stroke:none;stroke-width:3.9000001;stroke-linecap:butt;stroke-linejoin:miter;marker:none;marker-start:none;marker-mid:none;marker-end:none;stroke-miterlimit:4;stroke-dasharray:none;stroke-dashoffset:0;stroke-opacity:1;visibility:visible;display:inline;overflow:visible"
       id="path1453"
       d="M 393.7557,126.82403 C 390.0045,123.69169 403.93537,125.33548 406.60327,125.45943 C 412.59967,125.63767 414.13554,124.17534 419.80385,126.09965 C 430.44669,130.84589 424.00123,138.69581 420.71093,147.19183 C 415.01908,159.3759 407.60099,170.75576 400.93795,182.47942 C 397.83369,189.1885 390.81355,197.34744 394.07106,204.75448 C 413.1475,217.94257 440.17217,220.42204 463.13483,222.29779 C 498.83831,224.49649 535.34394,220.23126 567.55451,205.08547 C 566.39379,206.60044 588.22634,194.76321 592.70124,179.51338 C 591.74109,169.88757 579.48932,164.6035 571.43367,160.42079 C 562.80459,156.13811 553.60645,152.2654 547.69904,144.72305 C 543.85394,138.02788 546.26482,132.2916 551.85045,127.58962 C 560.54331,121.63249 562.85323,123.11195 572.60808,119.36768 C 577.04452,117.56011 577.3346,117.8803 582.1256,117.91122 C 574.08842,123.08541 588.85997,123.15451 589.16748,123.16984 L 583.61496,130.2547 C 583.39799,130.28664 583.18103,130.3186 582.96406,130.35057 C 579.29196,131.2477 575.77764,132.50248 572.33721,134.0213 C 563.36405,137.52897 551.05914,138.78484 573.24209,127.90289 C 571.18332,128.70272 568.49212,134.36445 566.73207,134.36104 C 572.08807,139.95086 579.68335,142.9505 586.51627,146.74275 C 598.35138,153.24985 612.24557,161.57483 613.51773,175.63221 C 611.94448,199.68898 580.37435,212.48937 561.35355,221.56211 C 527.28888,234.95723 489.9044,238.51442 453.24042,236.06414 C 427.98428,233.96795 395.13197,232.05876 375.73298,214.95643 C 368.2714,204.15402 374.23045,192.8798 380.10732,182.66767 C 386.60127,171.24411 393.80912,160.16503 399.56945,148.3837 C 400.92033,145.29596 405.06549,139.59124 401.6797,139.50895 C 396.61924,138.77882 391.49991,138.68892 386.38515,138.61207 C 382.60947,138.45882 379.38096,138.69531 376.85244,135.68422 L 393.7557,126.82403 z "
       sodipodi:nodetypes="ccccccccccccccccccccccccccccccc" />
  </g>
  <g
     inkscape:groupmode="layer"
     id="layer7"
     inkscape:label="branding-blank"
     style="display:inline">
    <path
       style="opacity:1;color:#000000;fill:#ededed;fill-opacity:1;fill-rule:nonzero;stroke:none;stroke-width:3.9000001;stroke-linecap:butt;stroke-linejoin:miter;marker:none;marker-start:none;marker-mid:none;marker-end:none;stroke-miterlimit:4;stroke-dasharray:none;stroke-dashoffset:0;stroke-opacity:1;visibility:visible;display:inline;overflow:visible"
       d="M 240.41631,172.68507 C 188.08461,235.51422 190.52602,322.83202 198.6648,399.54188 C 206.31287,460.25533 203.92446,521.66621 205.68454,582.64291 C 200.94476,658.43957 165.57389,738.67661 201.08774,811.97903 C 229.6309,860.36121 288.27105,875.24722 337.68684,892.98157 C 465.94323,929.67028 606.08617,906.26611 723.87619,847.21427 C 751.7828,830.50643 781.92261,809.00479 793.15382,777.51985 C 817.78434,644.97177 814.66132,509.29813 806.60681,375.32216 C 822.67533,314.50999 819.45876,246.80372 789.06596,190.85927 C 764.53146,160.14381 727.17147,186.15746 703.51411,203.92579 C 670.00109,224.18835 629.05338,225.88665 591.57225,234.54564 C 489.43963,251.52246 379.52878,253.28158 283.46862,209.9712 C 266.9095,200.50885 251.28994,188.56833 240.41631,172.68507 z "
       id="path11530" />
  </g>
  <g
     inkscape:groupmode="layer"
     id="layer2"
     inkscape:label="shine"
     style="display:inline">
    <path
       id="path11495"
       d="M 249.61585,158.22874 C 203.67511,207.1581 193.22113,281.19008 199.45802,347.64837 C 192.93279,465.07561 195.58637,582.83135 193.86086,700.31992 C 189.78508,742.16542 177.70133,791.50893 204.62903,827.50272 C 239.17389,862.86951 288.2579,871.15795 330.31995,891.68343 C 451.1945,929.22637 579.00608,902.05775 697.23138,866.37824 C 762.35833,840.97031 810.92453,769.93834 807.21207,694.34283 C 813.29513,607.81271 808.84802,521.0179 806.46885,434.43095 C 818.27811,354.6758 827.47993,268.91109 799.69258,191.96609 C 767.70607,152.16647 727.81794,204.71449 695.30043,216.58704 C 644.97431,237.04982 590.69916,241.95708 537.9071,249.97063 C 479.24243,251.05769 420.25938,246.68634 362.96205,233.04517 C 317.04297,229.58367 272.56323,201.61073 249.61585,158.22874 z "
       style="opacity:1;color:#000000;fill:url(#linearGradient10548);fill-opacity:1;fill-rule:nonzero;stroke:none;stroke-width:3.9000001;stroke-linecap:butt;stroke-linejoin:miter;marker:none;marker-start:none;marker-mid:none;marker-end:none;stroke-miterlimit:4;stroke-dasharray:none;stroke-dashoffset:0;stroke-opacity:1;visibility:visible;display:inline;overflow:visible" />
    <path
       style="opacity:1;color:#000000;fill:url(#linearGradient10552);fill-opacity:1;fill-rule:nonzero;stroke:none;stroke-width:3.9000001;stroke-linecap:butt;stroke-linejoin:miter;marker:none;marker-start:none;marker-mid:none;marker-end:none;stroke-miterlimit:4;stroke-dasharray:none;stroke-dashoffset:0;stroke-opacity:1;visibility:visible;display:inline;overflow:visible"
       d="M 249.61585,158.22874 C 203.67511,207.1581 193.22113,281.19008 199.45802,347.64837 C 192.93279,465.07561 195.58637,582.83135 193.86086,700.31992 C 189.78508,742.16542 177.70133,791.50893 204.62903,827.50272 C 239.17389,862.86951 288.2579,871.15795 330.31995,891.68343 C 451.1945,929.22637 579.00608,902.05775 697.23138,866.37824 C 762.35833,840.97031 810.92453,769.93834 807.21207,694.34283 C 813.29513,607.81271 808.84802,521.0179 806.46885,434.43095 C 818.27811,354.6758 827.47993,268.91109 799.69258,191.96609 C 767.70607,152.16647 727.81794,204.71449 695.30043,216.58704 C 644.97431,237.04982 590.69916,241.95708 537.9071,249.97063 C 479.24243,251.05769 420.25938,246.68634 362.96205,233.04517 C 317.04297,229.58367 272.56323,201.61073 249.61585,158.22874 z "
       id="path10550" />
  </g>
  <g
     inkscape:label="rim"
     inkscape:groupmode="layer"
     id="layer1"
     style="display:inline">
    <path
       style="opacity:1;color:#000000;fill:#939393;fill-opacity:1;fill-rule:nonzero;stroke:none;stroke-width:3.9000001;stroke-linecap:butt;stroke-linejoin:miter;marker:none;marker-start:none;marker-mid:none;marker-end:none;stroke-miterlimit:4;stroke-dasharray:none;stroke-dashoffset:0;stroke-opacity:1;visibility:visible;display:inline;overflow:visible"
       id="path1319"
       d="M 450.85476,101.02907 C 423.28363,98.985243 395.6792,102.28043 368.44767,106.88782 C 322.44159,112.02773 271.28491,140.15707 265.79445,145.60302 C 241.3868,181.78908 316.73535,204.67991 337.68477,212.15621 C 425.94906,240.61758 519.26832,243.44069 609.84017,227.88024 C 666.25966,216.18113 725.91462,197.69001 744.02806,166.48272 C 751.71794,131.1883 684.93739,119.16491 663.64538,113.69317 C 594.08423,97.679693 522.53588,95.411753 451.6425,96.707793 C 422.51703,97.258633 393.44287,99.242963 364.42107,101.84771 L 375.28346,79.103293 C 404.28992,77.399653 433.31844,76.031173 462.37001,75.687643 C 534.30312,75.017593 606.7536,77.502723 677.47629,92.805103 C 710.44295,100.64441 781.50205,113.67725 772.40007,164.82798 C 745.66655,226.36075 654.13562,234.18577 601.39613,247.32982 C 508.96458,260.67893 414.42481,257.22171 324.04404,231.16074 C 291.32366,220.6684 210.14491,195.87734 237.61954,143.16285 C 271.3279,100.92965 331.61408,93.723293 378.88575,82.433123 C 408.12602,77.286233 437.62329,73.443563 467.18051,71.483671 L 450.85476,101.02907 z " />
    <path
       style="opacity:1;color:#000000;fill:#939393;fill-opacity:1;fill-rule:nonzero;stroke:none;stroke-width:3.9000001;stroke-linecap:butt;stroke-linejoin:miter;marker:none;marker-start:none;marker-mid:none;marker-end:none;stroke-miterlimit:4;stroke-dasharray:none;stroke-dashoffset:0;stroke-opacity:1;visibility:visible;display:inline;overflow:visible"
       d="M 272.66574,131.72514 C 262.96511,132.7976 248.00292,141.5703 241.44676,138.04141 C 225.20946,172.10102 203.26358,205.38705 187.83424,240.785 C 174.0807,289.63053 187.6848,341.38891 186.61991,391.39375 C 191.6504,487.59766 190.93873,584.20308 179.50996,679.87295 C 178.3557,718.19594 168.61497,756.35212 170.9931,794.5215 C 191.36401,822.67769 214.18644,852.53699 243.13476,871.31878 C 294.68,895.80439 351.89711,902.60296 407.46291,909.0383 C 515.16122,917.89466 626.77736,908.70235 727.21082,863.45887 C 755.94684,843.95929 788.8472,827.65842 805.95808,793.86098 C 829.66381,754.11764 816.88012,704.70444 819.01378,660.33341 C 817.58144,515.49925 822.37219,370.61223 826.31322,225.93584 C 820.57766,189.03461 785.83045,169.00189 772.24619,136.05984 C 762.67871,144.73301 731.56213,147.95351 751.99603,164.46245 C 771.58728,193.07512 803.498,219.22944 797.44486,258.89903 C 798.12213,426.93296 795.34205,595.0772 788.42921,762.89366 C 781.08321,786.72664 767.2855,809.89682 748.58266,825.44237 C 737.83799,832.22803 725.9153,837.50478 715.94464,845.05173 C 748.98709,827.70589 692.73765,859.0169 683.48557,860.29055 C 564.91045,901.35156 435.22593,904.61694 314.37087,872.73573 C 281.02795,863.89698 259.47142,844.40376 228.17677,822.51129 C 221.79778,814.28247 218.51599,803.4494 209.90428,797.27491 C 189.51366,772.88796 207.62398,737.73239 206.45287,708.2375 C 214.62997,619.94433 221.84151,531.33852 217.239,442.52961 C 217.4202,381.20948 208.92955,319.87741 212.43756,258.66542 C 223.6914,213.208 256.39545,178.02084 272.78133,134.86044 L 272.66574,131.72514 z "
       id="path1323"
       sodipodi:nodetypes="ccccccccccccccccccccccccccc" />
  </g>
</svg>
