<?xml version="1.0" encoding="UTF-8" standalone="no"?>
<!-- Created with Inkscape (http://www.inkscape.org/) -->
<svg
   xmlns:dc="http://purl.org/dc/elements/1.1/"
   xmlns:cc="http://web.resource.org/cc/"
   xmlns:rdf="http://www.w3.org/1999/02/22-rdf-syntax-ns#"
   xmlns:svg="http://www.w3.org/2000/svg"
   xmlns="http://www.w3.org/2000/svg"
   xmlns:xlink="http://www.w3.org/1999/xlink"
   xmlns:sodipodi="http://inkscape.sourceforge.net/DTD/sodipodi-0.dtd"
   xmlns:inkscape="http://www.inkscape.org/namespaces/inkscape"
   width="1000"
   height="1000"
   id="svg2"
   sodipodi:version="0.32"
   inkscape:version="0.43"
   version="1.0"
   sodipodi:docbase="/home/kkowal/tale/art/item/can"
   sodipodi:docname="grog.svg"
   inkscape:export-filename="/home/kkowal/tale/art/item/can/grog.png"
   inkscape:export-xdpi="90"
   inkscape:export-ydpi="90">
  <defs
     id="defs4">
    <linearGradient
       id="linearGradient6942">
      <stop
         style="stop-color:#000000;stop-opacity:1;"
         offset="0"
         id="stop6944" />
      <stop
         style="stop-color:#000000;stop-opacity:0;"
         offset="1"
         id="stop6946" />
    </linearGradient>
    <linearGradient
       inkscape:collect="always"
       xlink:href="#linearGradient6942"
       id="linearGradient6948"
       x1="560.28625"
       y1="298.64511"
       x2="422.90549"
       y2="128.68118"
       gradientUnits="userSpaceOnUse" />
    <linearGradient
       inkscape:collect="always"
       xlink:href="#linearGradient6942"
       id="linearGradient7839"
       x1="511.11194"
       y1="384.6825"
       x2="511.11194"
       y2="143.07669"
       gradientUnits="userSpaceOnUse" />
    <radialGradient
       inkscape:collect="always"
       xlink:href="#linearGradient6942"
       id="radialGradient8762"
       cx="507.29367"
       cy="197.69186"
       fx="507.29367"
       fy="197.69186"
       r="303.73029"
       gradientTransform="matrix(1,-3.175282e-8,1.380942e-8,0.434904,-2.73001e-6,133.2322)"
       gradientUnits="userSpaceOnUse" />
    <linearGradient
       inkscape:collect="always"
       xlink:href="#linearGradient6942"
       id="linearGradient10548"
       x1="-364.93997"
       y1="556.20978"
       x2="523.98883"
       y2="574.39258"
       gradientUnits="userSpaceOnUse" />
    <linearGradient
       inkscape:collect="always"
       xlink:href="#linearGradient6942"
       id="linearGradient10552"
       gradientUnits="userSpaceOnUse"
       x1="1146.2483"
       y1="563.28082"
       x2="546.21216"
       y2="564.29108" />
  </defs>
  <sodipodi:namedview
     id="base"
     pagecolor="#ffffff"
     bordercolor="#666666"
     borderopacity="1.0"
     inkscape:pageopacity="0.0"
     inkscape:pageshadow="2"
     inkscape:zoom="0.35"
     inkscape:cx="755.79787"
     inkscape:cy="885.80766"
     inkscape:document-units="px"
     inkscape:current-layer="layer2"
     inkscape:window-width="1600"
     inkscape:window-height="1125"
     inkscape:window-x="0"
     inkscape:window-y="25" />
  <metadata
     id="metadata7">
    <rdf:RDF>
      <cc:Work
         rdf:about="">
        <dc:format>image/svg+xml</dc:format>
        <dc:type
           rdf:resource="http://purl.org/dc/dcmitype/StillImage" />
      </cc:Work>
    </rdf:RDF>
  </metadata>
  <g
     inkscape:groupmode="layer"
     id="layer4"
     inkscape:label="lid"
     style="display:inline">
    <path
       style="opacity:1;color:#000000;fill:#e2e2e2;fill-opacity:1;fill-rule:nonzero;stroke:none;stroke-width:3.9000001;stroke-linecap:butt;stroke-linejoin:miter;marker:none;marker-start:none;marker-mid:none;marker-end:none;stroke-miterlimit:4;stroke-dasharray:none;stroke-dashoffset:0;stroke-opacity:1;visibility:visible;display:inline;overflow:visible"
       d="M 249.63229,145.01233 C 321.92897,92.465553 412.46274,89.032733 496.73725,87.575443 C 582.27042,84.796753 671.7075,93.763513 748.23441,137.95371 C 781.2161,164.42117 803.3273,205.95385 810.76315,249.14683 C 813.54126,283.21095 793.7739,314.31544 768.212,332.42102 C 727.21201,369.07344 676.60243,397.12364 622.0687,395.63298 C 568.04231,396.47961 514.05851,392.43676 460.03981,392.02699 C 400.14981,388.87182 340.85693,375.4607 284.11775,354.98449 C 245.32296,339.13962 205.38269,304.62449 203.56338,256.6917 C 203.72446,213.58017 243.39784,186.36169 249.63229,145.01233 z "
       id="path2412" />
    <path
       id="path8754"
       d="M 249.63229,145.01233 C 321.92897,92.465553 412.46274,89.032733 496.73725,87.575443 C 582.27042,84.796753 671.7075,93.763513 748.23441,137.95371 C 781.2161,164.42117 803.3273,205.95385 810.76315,249.14683 C 813.54126,283.21095 793.7739,314.31544 768.212,332.42102 C 727.21201,369.07344 676.60243,397.12364 622.0687,395.63298 C 568.04231,396.47961 514.05851,392.43676 460.03981,392.02699 C 400.14981,388.87182 340.85693,375.4607 284.11775,354.98449 C 245.32296,339.13962 205.38269,304.62449 203.56338,256.6917 C 203.72446,213.58017 243.39784,186.36169 249.63229,145.01233 z "
       style="opacity:1;color:#000000;fill:url(#radialGradient8762);fill-opacity:1;fill-rule:nonzero;stroke:none;stroke-width:3.9000001;stroke-linecap:butt;stroke-linejoin:miter;marker:none;marker-start:none;marker-mid:none;marker-end:none;stroke-miterlimit:4;stroke-dasharray:none;stroke-dashoffset:0;stroke-opacity:1;visibility:visible;display:inline;overflow:visible" />
    <path
       style="color:#000000;fill:#000000;fill-opacity:1;fill-rule:nonzero;stroke:none;stroke-width:3.9000001;stroke-linecap:butt;stroke-linejoin:miter;marker:none;marker-start:none;marker-mid:none;marker-end:none;stroke-miterlimit:4;stroke-dasharray:none;stroke-dashoffset:0;stroke-opacity:1;visibility:visible;display:inline;overflow:visible"
       d="M 443.80579,125.19656 C 395.3322,132.52306 346.57793,141.57898 300.8483,161.01779 C 281.83709,178.06909 274.34159,208.0245 282.05519,233.21158 C 285.77679,283.49889 275.43068,333.91558 281.6762,384.10336 C 315.0196,419.09033 364.65911,416.28554 407.71007,420.18551 C 500.74712,431.90008 596.65995,444.80734 688.8163,419.52253 C 725.82609,405.28519 748.77037,358.62786 738.95371,317.67424 C 738.48563,281.31958 744.67899,245.25566 743.69875,208.88855 C 723.92601,161.38827 674.05246,140.7704 629.0084,134.89345 C 568.25057,122.08875 505.33066,112.59919 443.80579,125.19656 z "
       id="path3347" />
    <path
       style="color:#000000;fill:#e2e2e2;fill-opacity:1;fill-rule:nonzero;stroke:none;stroke-width:3.9000001;stroke-linecap:butt;stroke-linejoin:miter;marker:none;marker-start:none;marker-mid:none;marker-end:none;stroke-miterlimit:4;stroke-dasharray:none;stroke-dashoffset:0;stroke-opacity:1;visibility:visible;display:inline;overflow:visible"
       d="M 409.44903,131.43106 C 424.91446,127.98305 441.28847,127.57662 456.697,131.36267 C 481.32718,139.66026 500.72127,161.43664 510.18192,186.92283 C 522.57657,211.16582 532.89811,237.85537 552.8625,256.27439 C 560.10517,267.42542 576.20932,273.00111 576.4268,288.49445 C 577.06325,302.198 563.65879,307.89762 553.74646,311.72408 C 533.75823,318.06723 512.62769,319.03827 491.89913,319.10647 C 467.95484,318.65223 443.79786,316.15172 420.71043,309.11975 C 397.80188,299.49439 378.06932,283.1378 358.27812,267.84038 C 346.95219,256.68321 342.15995,237.75518 349.23318,222.59267 C 356.47394,200.47038 366.67213,179.36092 381.00857,161.57459 C 388.50909,151.08937 397.9343,142.5797 407.321,134.19389 L 408.42671,132.85442 L 409.44903,131.43106 L 409.44903,131.43106 z "
       id="path2455" />
    <path
       id="path6067"
       d="M 409.44903,131.43106 C 424.91446,127.98305 441.28847,127.57662 456.697,131.36267 C 481.32718,139.66026 500.72127,161.43664 510.18192,186.92283 C 522.57657,211.16582 532.89811,237.85537 552.8625,256.27439 C 560.10517,267.42542 576.20932,273.00111 576.4268,288.49445 C 577.06325,302.198 563.65879,307.89762 553.74646,311.72408 C 533.75823,318.06723 512.62769,319.03827 491.89913,319.10647 C 467.95484,318.65223 443.79786,316.15172 420.71043,309.11975 C 397.80188,299.49439 378.06932,283.1378 358.27812,267.84038 C 346.95219,256.68321 342.15995,237.75518 349.23318,222.59267 C 356.47394,200.47038 366.67213,179.36092 381.00857,161.57459 C 388.50909,151.08937 397.9343,142.5797 407.321,134.19389 L 408.42671,132.85442 L 409.44903,131.43106 L 409.44903,131.43106 z "
       style="color:#000000;fill:url(#linearGradient6948);fill-opacity:1;fill-rule:nonzero;stroke:none;stroke-width:3.9000001;stroke-linecap:butt;stroke-linejoin:miter;marker:none;marker-start:none;marker-mid:none;marker-end:none;stroke-miterlimit:4;stroke-dasharray:none;stroke-dashoffset:0;stroke-opacity:1;visibility:visible;display:inline;overflow:visible" />
    <path
       style="color:#000000;fill:#939393;fill-opacity:1;fill-rule:nonzero;stroke:none;stroke-width:3.9000001;stroke-linecap:butt;stroke-linejoin:miter;marker:none;marker-start:none;marker-mid:none;marker-end:none;stroke-miterlimit:4;stroke-dasharray:none;stroke-dashoffset:0;stroke-opacity:1;visibility:visible;display:inline;overflow:visible"
       id="path1493"
       d="M 382.54781,128.96298 C 385.45693,127.84562 406.18298,123.55204 412.47592,123.25291 C 431.93221,122.62559 446.87954,118.74772 466.5209,121.60742 C 487.94869,128.2744 499.88241,149.96482 510.09466,169.69176 C 524.52096,199.30691 536.19018,230.66657 557.38957,255.63277 C 580.95415,282.2978 614.07307,290.74478 647.06256,285.09979 C 649.03444,284.64264 651.00632,284.18548 652.9782,283.72834 L 644.4886,301.80936 C 642.40893,302.12257 640.32939,302.43579 638.24972,302.749 C 602.63844,306.23144 567.40176,295.5075 542.43184,266.84709 C 520.96838,241.17973 508.64153,209.55336 493.30782,179.61115 C 484.05987,162.66646 473.26448,143.47091 454.06066,139.14749 C 435.56569,135.62052 416.64544,138.12855 398.04694,139.22557 C 389.4887,140.01156 380.01789,141.77438 371.93449,142.62403 L 382.54781,128.96298 z "
       sodipodi:nodetypes="ccccccccccccccc" />
    <path
       style="color:#000000;fill:#e2e2e2;fill-opacity:1;fill-rule:nonzero;stroke:none;stroke-width:3.9000001;stroke-linecap:butt;stroke-linejoin:miter;marker:none;marker-start:none;marker-mid:none;marker-end:none;stroke-miterlimit:4;stroke-dasharray:none;stroke-dashoffset:0;stroke-opacity:1;visibility:visible;display:inline;overflow:visible"
       d="M 405.94255,131.41803 C 366.07041,137.43796 324.92248,144.8051 290.03687,167.80462 C 275.14173,188.30807 292.62525,216.37027 312.11788,224.3081 C 381.55706,263.47934 461.12018,271.41635 538.13359,275.50483 C 600.05564,279.28804 666.01084,276.40509 720.88119,241.83821 C 737.7726,231.63291 743.69458,205.98012 730.76132,189.78596 C 718.9718,174.15703 701.80557,164.86211 687.10462,152.88368 C 667.92517,139.67997 645.50922,133.63216 623.27027,130.18027 C 606.10591,126.77004 574.52479,109.44349 565.57393,133.0448 C 561.64139,159.03988 598.65117,160.75805 596.10798,184.85954 C 593.33687,203.49683 576.6264,212.92439 561.24109,217.21266 C 524.59366,230.16469 484.96965,233.05964 446.99349,225.89178 C 427.27889,225.37184 402.19618,226.58591 390.40051,205.93517 C 381.59761,183.24136 400.69505,164.41814 408.84555,145.39883 C 410.2644,140.71333 410.3276,135.19347 407.69734,130.95275"
       id="path2433" />
    <path
       id="path6958"
       d="M 405.94255,131.41803 C 366.07041,137.43796 324.92248,144.8051 290.03687,167.80462 C 275.14173,188.30807 292.62525,216.37027 312.11788,224.3081 C 381.55706,263.47934 461.12018,271.41635 538.13359,275.50483 C 600.05564,279.28804 666.01084,276.40509 720.88119,241.83821 C 737.7726,231.63291 743.69458,205.98012 730.76132,189.78596 C 718.9718,174.15703 701.80557,164.86211 687.10462,152.88368 C 667.92517,139.67997 645.50922,133.63216 623.27027,130.18027 C 606.10591,126.77004 574.52479,109.44349 565.57393,133.0448 C 561.64139,159.03988 598.65117,160.75805 596.10798,184.85954 C 593.33687,203.49683 576.6264,212.92439 561.24109,217.21266 C 524.59366,230.16469 484.96965,233.05964 446.99349,225.89178 C 427.27889,225.37184 402.19618,226.58591 390.40051,205.93517 C 381.59761,183.24136 400.69505,164.41814 408.84555,145.39883 C 410.2644,140.71333 410.3276,135.19347 407.69734,130.95275"
       style="color:#000000;fill:url(#linearGradient7839);fill-opacity:1;fill-rule:nonzero;stroke:none;stroke-width:3.9000001;stroke-linecap:butt;stroke-linejoin:miter;marker:none;marker-start:none;marker-mid:none;marker-end:none;stroke-miterlimit:4;stroke-dasharray:none;stroke-dashoffset:0;stroke-opacity:1;visibility:visible;display:inline;overflow:visible" />
    <path
       style="color:#000000;fill:#939393;fill-opacity:1;fill-rule:nonzero;stroke:none;stroke-width:3.9000001;stroke-linecap:butt;stroke-linejoin:miter;marker:none;marker-start:none;marker-mid:none;marker-end:none;stroke-miterlimit:4;stroke-dasharray:none;stroke-dashoffset:0;stroke-opacity:1;visibility:visible;display:inline;overflow:visible"
       id="path1437"
       d="M 438.7533,254.91344 C 454.23821,260.01257 473.19767,261.44305 489.30855,264.24192 C 549.42207,269.69194 610.97852,274.27719 670.41728,260.88003 C 692.91185,255.16043 741.10619,237.51436 726.62152,195.60898 C 696.98449,146.89454 626.92044,137.11757 575.93854,130.74071 C 499.5032,122.95205 421.87895,129.85968 348.25027,151.85676 C 330.64445,158.16805 275.59178,170.63794 293.65778,198.88494 C 335.96055,236.86931 399.13397,248.06797 453.02769,258.17108 C 471.58988,261.29033 462.38472,259.83217 480.64171,262.55544 L 468.62406,277.34214 C 450.47809,274.10706 460.51106,275.8055 440.27368,274.13291 C 383.11746,262.33211 316.33494,251.20616 271.06723,211.32563 C 239.53012,163.07809 326.4061,141.59425 357.48597,132.76555 C 432.36111,113.59313 510.30706,107.74384 587.23911,115.53637 C 643.19017,122.26068 717.68731,132.46149 749.71653,186.16281 C 770.75415,242.96233 704.49651,271.10253 660.30774,280.0811 C 599.11393,291.07599 536.7125,285.79883 475.33331,278.56966 C 459.6814,276.82039 438.08543,275.03125 425.11813,271.15522 L 438.7533,254.91344 z "
       sodipodi:nodetypes="ccccccccccccccccccc" />
    <path
       style="color:#000000;fill:#939393;fill-opacity:1;fill-rule:nonzero;stroke:none;stroke-width:3.9000001;stroke-linecap:butt;stroke-linejoin:miter;marker:none;marker-start:none;marker-mid:none;marker-end:none;stroke-miterlimit:4;stroke-dasharray:none;stroke-dashoffset:0;stroke-opacity:1;visibility:visible;display:inline;overflow:visible"
       id="path1453"
       d="M 393.7557,126.82403 C 390.0045,123.69169 403.93537,125.33548 406.60327,125.45943 C 412.59967,125.63767 414.13554,124.17534 419.80385,126.09965 C 430.44669,130.84589 424.00123,138.69581 420.71093,147.19183 C 415.01908,159.3759 407.60099,170.75576 400.93795,182.47942 C 397.83369,189.1885 390.81355,197.34744 394.07106,204.75448 C 413.1475,217.94257 440.17217,220.42204 463.13483,222.29779 C 498.83831,224.49649 535.34394,220.23126 567.55451,205.08547 C 566.39379,206.60044 588.22634,194.76321 592.70124,179.51338 C 591.74109,169.88757 579.48932,164.6035 571.43367,160.42079 C 562.80459,156.13811 553.60645,152.2654 547.69904,144.72305 C 543.85394,138.02788 546.26482,132.2916 551.85045,127.58962 C 560.54331,121.63249 562.85323,123.11195 572.60808,119.36768 C 577.04452,117.56011 577.3346,117.8803 582.1256,117.91122 C 574.08842,123.08541 588.85997,123.15451 589.16748,123.16984 L 583.61496,130.2547 C 583.39799,130.28664 583.18103,130.3186 582.96406,130.35057 C 579.29196,131.2477 575.77764,132.50248 572.33721,134.0213 C 563.36405,137.52897 551.05914,138.78484 573.24209,127.90289 C 571.18332,128.70272 568.49212,134.36445 566.73207,134.36104 C 572.08807,139.95086 579.68335,142.9505 586.51627,146.74275 C 598.35138,153.24985 612.24557,161.57483 613.51773,175.63221 C 611.94448,199.68898 580.37435,212.48937 561.35355,221.56211 C 527.28888,234.95723 489.9044,238.51442 453.24042,236.06414 C 427.98428,233.96795 395.13197,232.05876 375.73298,214.95643 C 368.2714,204.15402 374.23045,192.8798 380.10732,182.66767 C 386.60127,171.24411 393.80912,160.16503 399.56945,148.3837 C 400.92033,145.29596 405.06549,139.59124 401.6797,139.50895 C 396.61924,138.77882 391.49991,138.68892 386.38515,138.61207 C 382.60947,138.45882 379.38096,138.69531 376.85244,135.68422 L 393.7557,126.82403 z "
       sodipodi:nodetypes="ccccccccccccccccccccccccccccccc" />
  </g>
  <g
     inkscape:groupmode="layer"
     id="layer7"
     inkscape:label="branding-blank"
     style="display:none">
    <path
       style="opacity:1;color:#000000;fill:#ededed;fill-opacity:1;fill-rule:nonzero;stroke:none;stroke-width:3.9000001;stroke-linecap:butt;stroke-linejoin:miter;marker:none;marker-start:none;marker-mid:none;marker-end:none;stroke-miterlimit:4;stroke-dasharray:none;stroke-dashoffset:0;stroke-opacity:1;visibility:visible;display:inline;overflow:visible"
       d="M 240.41631,172.68507 C 188.08461,235.51422 190.52602,322.83202 198.6648,399.54188 C 206.31287,460.25533 203.92446,521.66621 205.68454,582.64291 C 200.94476,658.43957 165.57389,738.67661 201.08774,811.97903 C 229.6309,860.36121 288.27105,875.24722 337.68684,892.98157 C 465.94323,929.67028 606.08617,906.26611 723.87619,847.21427 C 751.7828,830.50643 781.92261,809.00479 793.15382,777.51985 C 817.78434,644.97177 814.66132,509.29813 806.60681,375.32216 C 822.67533,314.50999 819.45876,246.80372 789.06596,190.85927 C 764.53146,160.14381 727.17147,186.15746 703.51411,203.92579 C 670.00109,224.18835 629.05338,225.88665 591.57225,234.54564 C 489.43963,251.52246 379.52878,253.28158 283.46862,209.9712 C 266.9095,200.50885 251.28994,188.56833 240.41631,172.68507 z "
       id="path11530" />
  </g>
  <g
     inkscape:groupmode="layer"
     id="layer3"
     inkscape:label="branding-mt-dewm"
     style="display:none">
    <g
       style="display:inline"
       id="g11486">
      <path
         id="path1497"
         d="M 249.61585,158.22874 C 203.67511,207.1581 193.22113,281.19008 199.45802,347.64837 C 192.93279,465.07561 195.58637,582.83135 193.86086,700.31992 C 189.78508,742.16542 177.70133,791.50893 204.62903,827.50272 C 239.17389,862.86951 288.2579,871.15795 330.31995,891.68343 C 451.1945,929.22637 579.00608,902.05775 697.23138,866.37824 C 762.35833,840.97031 810.92453,769.93834 807.21207,694.34283 C 813.29513,607.81271 808.84802,521.0179 806.46885,434.43095 C 818.27811,354.6758 827.47993,268.91109 799.69258,191.96609 C 767.70607,152.16647 727.81794,204.71449 695.30043,216.58704 C 644.97431,237.04982 590.69916,241.95708 537.9071,249.97063 C 479.24243,251.05769 420.25938,246.68634 362.96205,233.04517 C 317.04297,229.58367 272.56323,201.61073 249.61585,158.22874 z "
         style="opacity:1;color:#000000;fill:#018e0a;fill-opacity:1;fill-rule:nonzero;stroke:none;stroke-width:3.9000001;stroke-linecap:butt;stroke-linejoin:miter;marker:none;marker-start:none;marker-mid:none;marker-end:none;stroke-miterlimit:4;stroke-dasharray:none;stroke-dashoffset:0;stroke-opacity:1;visibility:visible;display:inline;overflow:visible" />
      <path
         id="path10522"
         d="M 360.62445,685.61407 C 340.77882,694.16922 314.1679,695.0786 298.41568,678.06564 C 285.85463,693.04791 290.01856,719.50234 269.43802,727.83324 C 255.61041,731.38054 242.583,740.87399 227.35608,738.70553 C 200.75647,737.16383 204.82272,706.67617 202.4248,688.10794 C 199.44357,664.97626 190.90228,642.50819 192.98531,618.81733 C 194.53194,595.67277 198.27566,572.72818 198.23053,549.4553 C 199.99549,530.21215 198.70307,506.55835 216.50079,494.11048 C 234.01465,481.00413 261.7368,478.94759 278.17497,494.88354 C 289.15973,507.00489 319.01292,512.21406 314.43473,488.08626 C 308.466,467.8769 322.94506,440.36116 346.55074,446.77873 C 375.8166,451.88903 394.47867,479.68649 422.97697,486.36202 C 448.60078,491.83907 441.22941,452.81222 466.13486,451.55066 C 502.59991,439.83176 542.18913,443.46018 577.96263,455.82995 C 598.92027,452.24703 627.22113,474.0934 611.66856,495.64531 C 598.07759,519.94488 571.81452,534.43948 559.90186,559.90052 C 535.75728,593.33445 492.04204,598.62623 454.98356,608.12915 C 433.60952,618.47813 406.71822,606.20905 387.22792,621.35398 C 371.06273,639.44045 377.32906,667.8507 360.62445,685.61407 z "
         style="opacity:1;color:#000000;fill:#293f00;fill-opacity:1;fill-rule:nonzero;stroke:none;stroke-width:3.9000001;stroke-linecap:butt;stroke-linejoin:miter;marker:none;marker-start:none;marker-mid:none;marker-end:none;stroke-miterlimit:4;stroke-dasharray:none;stroke-dashoffset:0;stroke-opacity:1;visibility:visible;display:inline;overflow:visible" />
      <path
         id="path9637"
         d="M 629.78125,475.09375 C 606.62679,476.11419 585.50207,529.33867 567.46875,546.625 C 540.70016,583.3867 497.25287,606.56083 451.84375,608.78125 C 416.36796,603.51219 373.93138,618.54145 362.625,655.65625 C 358.48876,692.99192 341.698,727.66637 319.75,757.78125 C 300.59211,793.60388 272.58494,822.42704 244.28125,851 C 363.73729,919.43149 515.42098,918.94924 645.3125,883.40625 C 708.12953,875.70031 753.80456,823.10786 804.875,790.96875 C 802.80753,745.99974 813.52221,700.16867 800.25,656.25 C 767.55228,627.34534 738.13616,595.00395 709.625,562.03125 C 686.05915,538.99154 670.40012,509.50288 647.875,485.96875 C 641.72743,477.98853 635.68337,474.83364 629.78125,475.09375 z "
         style="opacity:1;color:#000000;fill:#88cb00;fill-opacity:1;fill-rule:nonzero;stroke:none;stroke-width:3.9000001;stroke-linecap:butt;stroke-linejoin:miter;marker:none;marker-start:none;marker-mid:none;marker-end:none;stroke-miterlimit:4;stroke-dasharray:none;stroke-dashoffset:0;stroke-opacity:1;visibility:visible;display:inline;overflow:visible" />
      <path
         id="path7845"
         d="M 497.8125,437.03125 C 478.95919,437.37802 460.50592,441.36762 445.3125,454.09375 C 438.9728,459.88365 436.11646,466.95409 436.09375,474.375 C 422.40578,469.20185 409.05913,463.06943 395.6875,457.1875 C 379.15568,450.5052 363.18839,441.25259 345.3125,438.90625 C 326.39769,438.41141 309.4572,449.79585 303.375,467.375 C 301.14761,475.68577 302.08332,483.85356 304.46875,491.78125 C 291.95006,485.47268 279.25475,479.4671 265.78125,475.5 C 252.55522,471.34622 239.36593,471.68454 226.40625,476.28125 C 209.48582,483.57718 198.25313,492.1594 191.875,509.03125 C 189.05093,516.82473 189.20811,524.77115 190.65625,532.78125 C 191.10104,535.00212 191.98533,537.06906 192.75,539.1875 L 215.875,528.5625 C 215.39688,527.09551 214.72912,525.66707 214.5,524.125 C 213.71185,518.37191 214.27998,512.9264 216.875,507.625 C 219.21231,503.45282 225.04427,498.18306 228.46875,495.0625 C 235.51978,492.78537 242.90651,492.52968 250.71875,494.34375 C 268.58875,498.19295 284.92151,506.84132 301.15625,514.9375 C 314.19367,521.6698 327.33338,528.44393 339.34375,536.90625 C 358.01621,520.14627 360.08604,520.19731 352.75,514.8125 C 352.75306,514.80777 352.77882,514.78663 352.78125,514.78125 C 352.78537,514.76972 352.77713,514.73029 352.78125,514.71875 C 352.78369,514.71337 352.80943,514.69224 352.8125,514.6875 C 352.73525,514.69092 352.64445,514.68793 352.5625,514.6875 C 350.54265,513.21098 347.86114,511.32293 344.625,508.59375 C 338.47849,502.94518 332.98916,496.6685 329.71875,488.875 C 326.71332,481.37745 324.68867,473.46067 328.21875,465.75 C 329.22445,464.0561 332.05264,461.66294 334.5,459.71875 C 350.45567,459.07528 365.3326,468.9814 380.0625,473.90625 C 400.25742,482.41278 420.18837,491.53828 440.375,500.0625 C 457.08771,506.98836 475.92546,491.43541 461.53125,477.125 C 458.82839,469.70679 461.51103,464.30576 467.875,460.0625 C 467.96097,460.03288 468.04544,460.02535 468.125,460 C 483.07796,455.23472 499.19861,455.8793 514.625,457 C 542.67521,459.65145 570.68425,464.33334 597.84375,471.875 C 599.67073,472.45364 602.16103,473.66485 604.5,474.75 C 599.41949,485.40492 593.95814,495.88759 587.90625,506.03125 C 574.48323,528.42742 559.38236,550.19353 539.46875,567.34375 C 513.82104,588.52863 529.04462,578.34243 488.875,593.125 C 464.67027,598.73505 439.8283,601.03206 415,601 C 392.86192,601.14381 370.45954,607.61254 367.125,632.625 C 363.84277,645.92528 360.25232,659.17639 356.09375,672.21875 L 352.71875,671.75 C 352.41812,675.19686 349.03986,676.60263 346.09375,679.03125 C 345.56923,679.32059 345.07734,679.58946 344.625,679.84375 C 344.3264,679.94549 344.01536,680.07366 343.6875,680.1875 C 335.78483,681.81044 328.35041,679.14393 321.3125,675.71875 C 314.68977,672.14716 309.03902,667.18762 301.8125,664.90625 C 281.83652,671.47301 281.15935,676.50413 276.0625,692.53125 C 273.82737,700.15239 271.16808,707.61558 266.1875,713.875 C 266.0342,714.00764 265.86057,714.1428 265.6875,714.28125 C 261.47093,716.07125 255.06556,718.80089 251.875,719.71875 C 240.27939,722.96865 228.20803,723.96084 216.28125,722.40625 C 212.60049,722.01365 209.27482,720.59391 206,719 L 187.53125,736.21875 C 191.86149,738.91435 196.36108,741.2824 201.40625,742.34375 C 214.78527,744.94156 228.48059,744.43864 241.8125,741.625 C 260.01546,737.60874 280.56022,731.20043 291.21875,715 C 295.3959,707.392 298.1572,699.21032 300.8125,690.96875 C 301.77833,691.58933 302.69083,692.33628 303.53125,693.25 C 312.32183,698.02882 321.66651,701.91485 331.8125,702.21875 C 336.91111,701.99955 341.79905,700.90681 346.46875,699.15625 C 342.94737,707.86616 339.03242,716.4084 334.65625,724.78125 C 314.30281,764.06831 288.21442,800.10106 257.53125,832 C 251.96356,837.71215 246.29062,843.32907 240.46875,848.78125 C 245.49027,851.7372 250.55272,854.57037 255.6875,857.28125 C 263.29503,849.91422 270.66135,842.2836 277.875,834.53125 C 308.53295,801.5725 334.37114,764.5178 354.84375,724.46875 C 362.53347,709.88032 368.71862,694.69565 374.25,679.25 C 375.47189,677.68188 376.72374,676.07378 377.59375,675.15625 L 375.78125,674.90625 C 380.97887,660.03685 385.64398,644.94825 390.5,629.96875 C 391.19093,626.96264 392.79912,624.31713 394.46875,622.21875 C 397.31486,621.74406 400.23502,621.60244 403.0625,621.375 C 428.53427,620.26317 454.00905,618.48011 479.0625,613.5625 C 509.98532,607.38188 538.50283,592.4002 561.71875,571.15625 C 581.36578,552.27659 596.76851,529.57414 610.9375,506.4375 C 616.96454,497.16959 621.89947,487.27159 626.96875,477.46875 C 633.57715,487.33032 640.45818,496.97676 647.875,506.28125 C 667.13027,529.5388 686.34887,552.78549 704.84375,576.65625 C 718.63824,594.40153 732.00601,612.5284 746.6875,629.5625 C 753.46303,637.64936 761.05147,644.95871 769.53125,651.21875 C 773.48383,654.08021 777.93764,656.03897 782.4375,657.84375 C 784.80624,658.76039 798.28368,664.68709 800.65625,665.59375 L 806.78125,641.53125 C 804.37725,640.584 801.96238,639.59556 799.53125,638.71875 C 795.71451,637.31069 791.82785,636.0607 788.21875,634.15625 C 780.02061,629.22562 772.87542,622.88838 766.40625,615.84375 C 751.13703,599.57249 737.46498,581.89732 723.40625,564.59375 C 704.55771,541.1535 685.40965,517.91947 667.375,493.84375 C 659.12867,482.37124 651.71041,470.38346 644.28125,458.375 C 636.00448,446.38059 624.27557,445.59789 615.84375,454.15625 C 614.84215,453.94728 613.85662,453.73702 612.90625,453.5 C 584.62662,447.25391 556.0126,442.20142 527.25,438.75 C 518.35719,437.77514 509.18448,437.00071 500.09375,437.03125 C 499.63343,437.0328 499.1787,437.02557 498.71875,437.03125 C 498.41931,437.03495 498.11176,437.02575 497.8125,437.03125 z M 377.59375,675.15625 L 378.59375,675.28125 C 378.65877,675.05597 378.70527,674.85391 378.71875,674.71875 C 378.72079,674.69286 378.71863,674.64752 378.71875,674.625 C 378.7185,674.6143 378.71884,674.57853 378.71875,674.5625 C 378.71879,674.55973 378.71864,674.53442 378.71875,674.53125 C 378.7188,674.52846 378.71859,674.50326 378.71875,674.5 C 378.71302,674.49438 378.69328,674.47429 378.6875,674.46875 C 378.68758,674.46592 378.68724,674.44094 378.6875,674.4375 C 378.68122,674.43124 378.66045,674.41028 378.65625,674.40625 C 378.65277,674.40643 378.62783,674.40619 378.625,674.40625 C 378.61814,674.40644 378.5957,674.40656 378.59375,674.40625 C 378.5895,674.40627 378.56693,674.40592 378.5625,674.40625 C 378.55918,674.40615 378.53404,674.40626 378.53125,674.40625 C 378.52797,674.40607 378.50278,674.40628 378.5,674.40625 C 378.48951,674.41135 378.44837,674.43174 378.4375,674.4375 C 378.24064,674.53749 377.94162,674.78938 377.59375,675.15625 z M 330.96875,460.40625 C 324.97233,463.54623 322.38667,464.77991 321.875,464.9375 C 321.87221,464.93748 321.84682,464.93772 321.84375,464.9375 C 321.84194,464.93773 321.81949,464.93758 321.8125,464.9375 C 321.81242,464.93398 321.81236,464.90916 321.8125,464.90625 C 321.81942,464.89922 321.84183,464.87664 321.84375,464.875 C 322.45752,464.39989 327.28682,461.81404 330.96875,460.40625 z M 466.03125,460.8125 C 463.52643,462.09023 461.03582,463.4157 458.5,464.625 C 458.28017,464.72983 458.1074,464.79688 458,464.84375 C 458.83534,464.33833 462.9999,462.13005 466.03125,460.8125 z M 389.5625,623.46875 C 388.50974,624.08199 387.38481,624.78922 386.125,625.5 C 386.1014,625.51332 386.08136,625.52146 386.0625,625.53125 C 386.62538,625.1341 388.54743,623.88626 389.5625,623.46875 z M 385.875,625.59375 C 385.8784,625.59421 385.90334,625.5937 385.90625,625.59375 C 385.90632,625.59665 385.90584,625.62127 385.90625,625.625 C 385.9033,625.62505 385.87852,625.62509 385.875,625.625 C 385.87471,625.62142 385.87496,625.59666 385.875,625.59375 z M 261.625,717.0625 C 258.66476,718.89892 255.54568,720.53923 254.71875,720.90625 C 255.30917,720.51981 257.3536,719.35949 261.625,717.0625 z M 254.5,721 C 254.50371,721.00024 254.52833,720.99996 254.53125,721 C 254.53118,721.00698 254.53101,721.02936 254.53125,721.03125 C 254.52904,721.03143 254.50705,721.03115 254.5,721.03125 C 254.49989,721.02753 254.49998,721.00291 254.5,721 z "
         style="color:#000000;fill:#0ae700;fill-opacity:1;fill-rule:nonzero;stroke:none;stroke-width:3.9000001;stroke-linecap:butt;stroke-linejoin:miter;marker:none;marker-start:none;marker-mid:none;marker-end:none;stroke-miterlimit:4;stroke-dasharray:none;stroke-dashoffset:0;stroke-opacity:1;visibility:visible;display:inline;overflow:visible" />
    </g>
  </g>
  <g
     inkscape:groupmode="layer"
     id="layer6"
     inkscape:label="branding-sir-pepper"
     style="display:none">
    <path
       style="opacity:1;color:#000000;fill:#a30800;fill-opacity:1;fill-rule:nonzero;stroke:none;stroke-width:3.9000001;stroke-linecap:butt;stroke-linejoin:miter;marker:none;marker-start:none;marker-mid:none;marker-end:none;stroke-miterlimit:4;stroke-dasharray:none;stroke-dashoffset:0;stroke-opacity:1;visibility:visible;display:inline;overflow:visible"
       d="M 240.41631,172.68507 C 188.08461,235.51422 190.52602,322.83202 198.6648,399.54188 C 206.31287,460.25533 203.92446,521.66621 205.68454,582.64291 C 200.94476,658.43957 165.57389,738.67661 201.08774,811.97903 C 229.6309,860.36121 288.27105,875.24722 337.68684,892.98157 C 465.94323,929.67028 606.08617,906.26611 723.87619,847.21427 C 751.7828,830.50643 781.92261,809.00479 793.15382,777.51985 C 817.78434,644.97177 814.66132,509.29813 806.60681,375.32216 C 822.67533,314.50999 819.45876,246.80372 789.06596,190.85927 C 764.53146,160.14381 727.17147,186.15746 703.51411,203.92579 C 670.00109,224.18835 629.05338,225.88665 591.57225,234.54564 C 489.43963,251.52246 379.52878,253.28158 283.46862,209.9712 C 266.9095,200.50885 251.28994,188.56833 240.41631,172.68507 z "
       id="path12409" />
    <path
       style="opacity:1;color:#000000;fill:#000000;fill-opacity:1;fill-rule:nonzero;stroke:none;stroke-width:3.9000001;stroke-linecap:butt;stroke-linejoin:miter;marker:none;marker-start:none;marker-mid:none;marker-end:none;stroke-miterlimit:4;stroke-dasharray:none;stroke-dashoffset:0;stroke-opacity:1;visibility:visible;display:inline;overflow:visible"
       id="path20421"
       d="M 189.89177,550.69031 C 195.20803,548.86474 196.63394,542.42677 198.9732,537.58394 C 209.78791,513.404 220.85258,489.31686 234.78961,466.74961 C 250.69099,440.09537 278.96073,415.00482 307.64256,440.42016 C 336.91558,478.01495 335.79807,531.8143 338.36306,577.26505 C 342.71379,613.84488 337.77294,652.42265 347.62093,688.27718 C 334.4473,694.001 356.11041,658.77921 359.21801,650.1128 C 376.47166,597.657 386.34247,543.1647 397.40365,489.16613 C 406.89165,443.3206 416.00307,397.17402 432.4287,353.20498 C 439.62268,332.69933 454.72644,297.46807 481.19593,318.07308 C 506.7873,353.92981 508.70747,404.41579 513.91863,446.87322 C 521.09497,506.61932 525.29714,566.66361 531.47132,626.51153 C 534.00489,656.81343 538.92525,686.84965 542.85579,716.95704 C 540.52094,716.67793 535.88193,717.67914 533.76533,716.364 C 533.71651,716.33366 540.51981,707.58193 540.64261,707.40648 C 549.50903,694.73832 555.68709,680.4835 561.42751,666.20598 C 579.76277,615.91949 588.8485,562.82727 596.14849,509.97319 C 591.50686,489.91961 614.63887,414.21241 638.34622,464.41213 C 651.71775,510.43436 656.92723,558.40076 666.84109,605.27024 C 674.19758,634.69141 678.76535,665.61892 691.00827,693.43595 C 690.28211,693.00823 686.39295,693.33452 686.34294,692.07194 C 686.13939,686.93281 697.1927,673.29022 699.30026,668.20186 C 705.15005,654.07849 709.42757,639.40179 713.5523,624.70475 C 726.33589,576.964 736.94157,528.67493 747.70274,480.44789 C 755.50854,462.5113 751.464,418.68004 774.11976,411.29568 C 796.8863,409.38117 802.94036,433.93175 809.18024,451.27755 C 812.6092,460.86543 815.51426,470.62713 818.66391,480.30786 L 793.91276,569.8084 C 791.10515,559.03034 788.57942,548.18346 785.85004,537.38602 C 783.10024,527.65926 768.39574,506.91039 783.17148,507.1092 C 787.06775,506.7363 770.13535,546.92627 768.54325,554.06276 C 754.44874,599.49804 743.88634,645.88842 732.57841,692.06947 C 725.53942,719.93361 717.85365,791.32869 677.36495,784.3025 C 647.56498,762.24523 661.23334,700.53354 647.70161,669.77516 C 640.06785,629.33697 632.61728,588.14671 617.59488,549.71142 C 614.69222,541.03159 638.97199,535.24572 617.48457,580.74377 C 605.8915,632.08871 594.81199,683.62741 579.31709,733.97696 C 572.72651,754.68948 553.73703,832.8866 519.0697,804.5261 C 504.97101,770.14023 519.5633,726.50947 510.66153,690.86911 C 506.85486,629.9039 503.17604,568.83534 494.81864,508.29052 C 489.6875,474.14591 484.62022,437.9588 466.78974,407.76971 C 461.03463,415.18942 456.82106,423.70074 452.35781,431.96226 C 434.82658,470.12114 425.51359,511.38961 415.86729,552.06479 C 403.27111,608.22107 392.72769,664.84628 378.47155,720.6202 C 373.29324,739.61952 354.63014,811.69407 324.63172,774.25966 C 309.4963,731.99011 325.41293,682.84957 317.91336,639.32768 C 315.85031,601.00021 314.44321,558.21256 293.68712,524.6683 C 277.22529,504.70224 260.83114,531.25095 252.34116,545.95042 C 238.6278,570.45661 228.59444,597.01812 222.76883,624.49902 C 221.57004,630.82845 217.18211,642.97623 222.25047,645.20236 L 189.89177,550.69031 z " />
  </g>
  <g
     inkscape:groupmode="layer"
     id="layer8"
     inkscape:label="root-booz"
     style="display:none">
    <path
       style="opacity:1;color:#000000;fill:#a33d00;fill-opacity:1;fill-rule:nonzero;stroke:none;stroke-width:3.9000001;stroke-linecap:butt;stroke-linejoin:miter;marker:none;marker-start:none;marker-mid:none;marker-end:none;stroke-miterlimit:4;stroke-dasharray:none;stroke-dashoffset:0;stroke-opacity:1;visibility:visible;display:inline;overflow:visible"
       d="M 240.41631,172.68507 C 188.08461,235.51422 190.52602,322.83202 198.6648,399.54188 C 206.31287,460.25533 203.92446,521.66621 205.68454,582.64291 C 200.94476,658.43957 165.57389,738.67661 201.08774,811.97903 C 229.6309,860.36121 288.27105,875.24722 337.68684,892.98157 C 465.94323,929.67028 606.08617,906.26611 723.87619,847.21427 C 751.7828,830.50643 781.92261,809.00479 793.15382,777.51985 C 817.78434,644.97177 814.66132,509.29813 806.60681,375.32216 C 822.67533,314.50999 819.45876,246.80372 789.06596,190.85927 C 764.53146,160.14381 727.17147,186.15746 703.51411,203.92579 C 670.00109,224.18835 629.05338,225.88665 591.57225,234.54564 C 489.43963,251.52246 379.52878,253.28158 283.46862,209.9712 C 266.9095,200.50885 251.28994,188.56833 240.41631,172.68507 z "
       id="path15980" />
    <path
       style="opacity:1;color:#000000;fill:#803500;fill-opacity:1;fill-rule:nonzero;stroke:none;stroke-width:3.9000001;stroke-linecap:butt;stroke-linejoin:miter;marker:none;marker-start:none;marker-mid:none;marker-end:none;stroke-miterlimit:4;stroke-dasharray:none;stroke-dashoffset:0;stroke-opacity:1;visibility:visible;display:inline;overflow:visible"
       d="M 411.13208,899.99487 C 405.95086,867.48666 411.64744,834.65308 411.48961,801.99849 C 412.3989,779.40373 417.04545,757.18533 420.32367,734.91574 C 420.94245,718.80691 418.96045,702.62074 421.04991,686.57018 C 438.47457,679.56214 442.83661,659.46517 453.5594,645.95423 C 460.39944,630.12753 464.32121,609.48499 482.08443,602.16889 C 495.64985,597.48338 505.96401,610.97562 510.1534,622.19044 C 517.6939,647.30028 542.36855,660.75356 563.7586,672.70942 C 580.87941,680.49884 592.20048,699.04796 590.51794,717.88862 C 591.44004,753.61073 587.75386,789.24835 585.70799,824.86203 C 583.70914,842.54863 581.31113,860.81837 586.06757,878.28829 C 586.93023,891.40368 572.8839,898.54087 561.43494,897.85089 C 548.99189,896.92007 536.77551,893.784 524.15399,894.27211 C 504.7806,893.40625 485.6717,897.46343 467.502,903.83863 C 449.12432,908.57382 427.71691,911.54351 411.13208,899.99487 z "
       id="path16894" />
    <path
       style="opacity:1;color:#000000;fill:#276d00;fill-opacity:1;fill-rule:nonzero;stroke:none;stroke-width:3.9000001;stroke-linecap:butt;stroke-linejoin:miter;marker:none;marker-start:none;marker-mid:none;marker-end:none;stroke-miterlimit:4;stroke-dasharray:none;stroke-dashoffset:0;stroke-opacity:1;visibility:visible;display:inline;overflow:visible"
       d="M 388.90872,465.6293 C 363.98438,450.39322 332.24551,434.13154 303.24306,448.22002 C 268.84996,473.42439 249.64631,522.3427 268.88824,562.47979 C 275.74408,591.96317 306.45477,615.84112 335.50825,599.40733 C 365.38797,596.41498 372.63586,627.13416 376.33793,649.8113 C 382.30189,669.59811 398.19412,693.74676 422.04269,688.93238 C 450.30878,676.09743 450.12756,640.94739 464.03663,617.23917 C 476.52733,594.4874 504.46102,608.89672 513.92374,626.58434 C 526.73824,651.04439 544.79548,673.42265 569.55479,686.6593 C 588.70519,695.28834 614.30848,709.88087 633.68696,695.00947 C 653.82286,676.88445 641.6174,648.8895 639.00862,626.29111 C 633.99532,600.18826 634.43611,567.85827 658.0474,550.55223 C 688.72017,524.45516 731.48626,506.86346 745.05359,465.64066 C 757.16842,431.9933 743.93119,390.50107 714.2962,370.54448 C 680.40776,348.73539 631.97357,356.21496 605.93015,386.84569 C 592.45638,405.01429 557.93288,413.81692 552.39311,384.1302 C 549.56613,359.30682 537.25361,335.69739 514.80717,323.48505 C 483.16877,305.07054 441.63613,317.25871 419.56671,344.91795 C 406.20499,360.32409 397.30585,379.41487 393.38507,399.38527 C 377.3352,419.82686 410.41154,447.16641 388.90872,465.6293 z "
       id="path16905" />
    <path
       style="opacity:1;color:#000000;fill:#004100;fill-opacity:1;fill-rule:nonzero;stroke:none;stroke-width:3.9000001;stroke-linecap:butt;stroke-linejoin:miter;marker:none;marker-start:none;marker-mid:none;marker-end:none;stroke-miterlimit:4;stroke-dasharray:none;stroke-dashoffset:0;stroke-opacity:1;visibility:visible;display:inline;overflow:visible"
       d="M 479.65625,303.0625 C 446.21552,303.73781 414.84266,324.76985 397.0625,357.03125 C 383.32274,386.16935 383.17859,416.53303 386.15625,447.5 C 384.15628,446.27727 382.07717,445.18026 379.90625,444.28125 C 337.93638,424.23861 292.01408,437.13883 268.34375,478.75 C 249.51461,514.95378 247.55857,557.19473 271.09375,591.96875 C 286.02769,611.78501 307.4518,627.86658 333.125,618.03125 C 338.11291,616.05278 344.60928,613.36138 351.21875,610.03125 C 352.52117,625.6012 356.76375,640.71943 363.53125,654.875 C 371.91181,671.71792 382.73994,689.47129 400.0625,697.9375 C 401.30238,706.57974 401.65879,715.38162 402.0625,724.09375 C 403.61061,761.16464 403.64348,798.25906 402.65625,835.34375 C 401.87929,858.68755 400.83255,882.11751 397.1875,905.21875 L 425.9375,898.53125 C 427.13731,875.28839 426.66523,852.01261 426.65625,828.75 C 426.61977,791.40356 426.9421,754.043 428.28125,716.71875 C 428.5702,710.32092 428.84509,703.89169 429.40625,697.5 C 448.2013,688.58392 459.20333,664.33341 467.9375,646.25 C 472.60489,637.06756 477.21128,627.78696 482.65625,619.03125 C 484.02404,616.83178 485.47644,614.47268 487.09375,612.1875 C 510.63775,631.90296 521.1823,667.7194 548.875,683.875 C 556.71921,690.26597 566.35746,696.8648 576.75,702.21875 C 576.91816,706.03964 576.64623,709.9108 576.46875,713.71875 C 575.09821,733.49366 573.38337,753.22318 572.03125,773 C 570.89615,791.49209 569.10849,809.9324 568.1875,828.4375 C 567.52158,838.72139 567.87824,849.04877 568.65625,859.3125 C 569.10992,864.33525 569.45806,869.3501 569.875,874.375 C 570.27767,878.41559 571.19631,882.38206 571.90625,886.375 C 572.32793,889.00446 572.69907,891.6433 573.0625,894.28125 L 602.78125,884 C 602.37025,881.21273 601.95913,878.40476 601.5,875.625 C 600.82268,871.95979 600.07405,868.31603 599.78125,864.59375 C 599.31409,859.60571 598.75392,854.6228 598.09375,849.65625 C 597.01856,840.10327 596.36865,830.5286 596.71875,820.90625 C 597.09944,802.65119 598.08771,784.40233 599.34375,766.1875 C 600.48614,748.18597 602.1627,730.22506 604.53125,712.34375 C 625.93435,716.57381 646.58124,711.16129 658.21875,685 C 666.96093,653.51222 656.26113,621.64745 648.40625,591.09375 C 642.36488,565.96076 650.22351,560.5528 672.1875,548.6875 C 707.82819,525.24022 742.63254,495.569 756.3125,453.78125 C 766.48658,411.39178 753.26185,366.90305 712.0625,346.65625 C 668.67771,329.09583 626.91777,352.03837 596.34375,383.8125 C 590.01353,390.33463 583.94526,397.11855 577.59375,403.625 C 563.01606,371.40689 557.77038,334.28014 523.84375,314.65625 C 509.36617,306.37242 494.31005,302.76658 479.65625,303.0625 z M 468.15625,319.65625 C 478.32139,319.43314 490.34771,323.10129 506.03125,331.125 C 538.94514,350.30249 544.26882,386.3798 553.71875,419.625 C 570.12369,457.23592 607.70665,400.42879 622.21875,385.5 C 647.26869,365.86878 649.58211,350.2211 694.53125,365.03125 C 732.34044,380.94795 742.88123,420.73811 732.8125,457.6875 C 718.00416,497.42865 682.40625,524.16009 646.5,544.0625 C 616.56507,556.0008 614.26193,572.96631 623.625,601.4375 C 631.76946,628.58421 643.89441,660.72712 631.1875,688.34375 C 631.53995,688.41251 631.74002,688.5435 631.8125,688.71875 C 631.89991,688.97896 631.74296,689.35886 631.375,689.78125 C 630.99793,689.94797 630.6699,690.0712 630.40625,690.15625 C 623.08567,692.51755 614.90745,691.81715 607.4375,690.09375 C 607.45857,689.91979 607.47909,689.73645 607.5,689.5625 L 606.4375,689.875 C 605.83143,689.72679 605.21997,689.56593 604.625,689.40625 C 590.59933,685.64202 578.8502,677.85041 567.46875,669.125 C 537.6694,650.59137 528.23244,614.00516 504.96875,590.21875 C 472.19391,569.99454 452.33796,626.75068 441.40625,648 C 436.0939,657.49166 431.7044,667.84726 424.5625,676.1875 C 423.94476,676.3344 423.2813,676.45146 422.625,676.5625 C 405.44045,673.93206 395.66204,656.37352 388.8125,641.9375 C 382.35874,627.90425 379.00526,612.76445 379.8125,597.34375 C 380.20845,592.42336 381.71604,587.7752 383.65625,583.28125 L 353.15625,587.21875 C 352.96454,588.01259 352.79984,588.79697 352.625,589.59375 L 348,589.9375 C 347.99264,589.94146 347.97614,589.93352 347.96875,589.9375 L 346.53125,590.03125 C 346.59191,589.97703 346.65727,589.90956 346.6875,589.875 C 346.69494,589.8659 346.71369,589.85131 346.71875,589.84375 C 346.72069,589.84035 346.71739,589.81552 346.71875,589.8125 C 346.7184,589.81059 346.71967,589.7828 346.71875,589.78125 C 346.71618,589.78078 346.69062,589.78137 346.6875,589.78125 C 346.68331,589.78182 346.66096,589.78033 346.65625,589.78125 C 346.65101,589.78251 346.63076,589.81091 346.625,589.8125 C 345.88524,590.03967 341.58238,592.58255 337.75,594.90625 C 320.57545,600.9149 305.68002,592.03072 293.5625,577.59375 C 271.14464,547.35136 273.49883,508.75738 292.34375,477.5625 C 314.30311,451.03402 322.41111,445.11014 360.84375,462.8125 C 378.55448,477.47248 426.07194,505.72788 415.0625,454.5625 C 406.61815,421.10727 404.36965,386.5884 421.125,355.375 C 437.79687,332.84441 450.03578,320.05397 468.15625,319.65625 z M 348,589.9375 C 349.22664,589.27927 350.12773,588.79062 350.4375,588.625 C 350.09691,588.80903 349.06968,589.36159 348,589.9375 z M 580.28125,405.34375 C 582.08661,405.23756 583.19416,406.5386 583.0625,410.21875 C 583.05533,410.41918 583.01242,410.55708 582.9375,410.65625 C 582.93441,410.66007 582.90944,410.68383 582.90625,410.6875 C 582.90288,410.69088 582.87846,410.71552 582.875,410.71875 C 582.85316,410.73643 582.80616,410.76857 582.78125,410.78125 C 581.90102,411.1572 579.33272,408.73483 579.46875,407.875 C 579.47802,407.83436 579.50836,407.78247 579.53125,407.75 C 579.21069,407.09113 578.87396,406.44496 578.5625,405.78125 C 579.1846,405.54691 579.76249,405.37426 580.28125,405.34375 z M 409.0625,458.34375 C 409.07427,458.34114 409.11499,458.34499 409.125,458.34375 C 409.12914,458.34379 409.15253,458.34339 409.15625,458.34375 C 409.15914,458.34474 409.18502,458.34246 409.1875,458.34375 C 409.18958,458.34534 409.18581,458.37312 409.1875,458.375 C 409.18803,458.37772 409.18734,458.40327 409.1875,458.40625 C 409.18693,458.40975 409.18843,458.43375 409.1875,458.4375 C 409.18587,458.44173 409.18947,458.46429 409.1875,458.46875 C 409.1852,458.47344 409.15888,458.49509 409.15625,458.5 C 408.86931,458.99699 407.05897,460.48267 406.21875,460.25 C 406.20184,460.24446 406.1723,460.2258 406.15625,460.21875 C 405.8639,460.09036 405.5699,459.97934 405.28125,459.84375 C 406.4469,459.36491 407.66471,458.87153 408.96875,458.375 C 408.98513,458.36876 409.01674,458.37975 409.03125,458.375 C 409.03804,458.37299 409.05616,458.34541 409.0625,458.34375 z M 386.75,470.53125 C 386.51012,471.03917 386.29096,471.36271 386.15625,471.5 C 386.14675,471.50921 386.13351,471.52396 386.125,471.53125 C 386.117,471.53759 386.10068,471.55805 386.09375,471.5625 C 386.09056,471.56426 386.0654,471.56121 386.0625,471.5625 C 386.06049,471.5624 386.03295,471.56306 386.03125,471.5625 C 386.03086,471.56012 386.0313,471.53408 386.03125,471.53125 C 386.03191,471.52752 386.03022,471.50417 386.03125,471.5 C 386.03544,471.48616 386.05485,471.45528 386.0625,471.4375 C 386.13815,471.27411 386.35375,470.96413 386.75,470.53125 z M 344.46875,591.84375 C 344.31164,591.9321 344.15676,592.00791 344,592.09375 C 344.13986,592.01866 344.33412,591.91603 344.46875,591.84375 z M 497.65625,602.8125 C 497.67525,602.80559 497.7045,602.81727 497.71875,602.8125 C 497.68921,602.82833 497.65147,602.84714 497.59375,602.875 C 496.50175,603.40218 495.39619,603.95347 494.3125,604.5 C 494.47293,604.3866 494.61785,604.26434 494.78125,604.15625 C 495.42267,603.73194 497.20031,602.97829 497.65625,602.8125 z M 481.59375,608.3125 C 481.69628,608.28905 481.78452,608.30184 481.875,608.3125 C 481.88694,608.31425 481.92581,608.31009 481.9375,608.3125 C 481.94328,608.31387 481.96303,608.31096 481.96875,608.3125 C 481.9744,608.31421 481.99442,608.34187 482,608.34375 C 482.00552,608.34581 482.0258,608.34152 482.03125,608.34375 C 482.04738,608.35097 482.07826,608.36617 482.09375,608.375 C 482.09884,608.37813 482.11998,608.40294 482.125,608.40625 C 482.13982,608.41673 482.17338,608.42533 482.1875,608.4375 C 482.19213,608.44175 482.2142,608.46431 482.21875,608.46875 C 482.80115,608.86769 483.37053,609.26956 483.9375,609.6875 C 482.23046,610.4825 480.5043,611.22021 478.75,611.90625 C 478.67897,611.93403 478.61096,611.96508 478.5625,611.96875 C 478.55502,611.96873 478.53813,611.96939 478.53125,611.96875 C 478.52795,611.96828 478.50315,611.93812 478.5,611.9375 C 478.49714,611.93658 478.47147,611.93856 478.46875,611.9375 C 478.46646,611.936 478.43966,611.93914 478.4375,611.9375 C 478.43548,611.93572 478.43938,611.90816 478.4375,611.90625 C 478.43455,611.90161 478.40867,611.88016 478.40625,611.875 C 478.40436,611.86932 478.40763,611.84993 478.40625,611.84375 C 478.40365,611.82374 478.40441,611.77423 478.40625,611.75 C 478.50135,611.00874 480.40441,608.58457 481.59375,608.3125 z M 431.1875,673.6875 C 431.21247,673.68086 431.23419,673.68978 431.25,673.6875 C 431.25283,673.68746 431.27898,673.68729 431.28125,673.6875 C 431.28026,673.68919 431.28277,673.71682 431.28125,673.71875 C 431.11179,673.87627 429.80221,674.51459 427.875,675.1875 C 429.84263,674.21075 430.87676,673.7701 431.1875,673.6875 z M 422.78125,677.84375 C 419.15711,680.71297 412.0737,684.24394 411.34375,684.40625 C 411.34051,684.40673 411.31534,684.40597 411.3125,684.40625 C 411.31375,684.40439 411.31082,684.37708 411.3125,684.375 C 411.31759,684.36995 411.3369,684.3497 411.34375,684.34375 C 411.4473,684.26134 411.70917,684.09886 412.09375,683.875 C 416.51198,681.30317 420.02273,679.33586 422.78125,677.84375 z M 629.65625,691.28125 C 626.48365,693.67653 620.92225,696.65745 620.375,696.78125 C 620.37213,696.78155 620.3461,696.78125 620.34375,696.78125 C 620.34332,696.77885 620.34198,696.75363 620.34375,696.75 C 620.39261,696.69753 620.57057,696.58213 620.84375,696.40625 C 623.70754,694.5625 626.68749,692.95444 629.65625,691.28125 z "
       id="path15984" />
    <path
       style="opacity:1;color:#000000;fill:#00c2ff;fill-opacity:0.57142861;fill-rule:nonzero;stroke:none;stroke-width:3.9000001;stroke-linecap:butt;stroke-linejoin:miter;marker:none;marker-start:none;marker-mid:none;marker-end:none;stroke-miterlimit:4;stroke-dasharray:none;stroke-dashoffset:0;stroke-opacity:1;visibility:visible;display:inline;overflow:visible"
       id="path15990"
       d="M 298.34142,439.65042 C 293.99241,447.54849 320.92889,433.07871 296.15153,442.32299 C 281.1006,448.80616 263.31898,461.30092 262.71681,479.66193 C 270.4585,506.60303 292.28495,493.92379 294.88438,492.67757 C 309.84389,484.04776 316.1693,464.7859 298.60324,457.18336 C 299.50154,456.41937 279.56654,457.14819 280.19197,457.13269 C 285.71305,456.99583 291.48909,455.11571 284.07538,457.26641 L 271.30893,450.42705 C 284.13218,445.44559 298.91022,443.76376 311.4094,448.99038 C 331.6427,460.75549 325.98238,485.50322 307.76652,498.30263 C 287.20655,510.77558 251.44654,509.93242 247.85513,480.90062 C 248.66763,460.06032 265.57933,445.0764 282.56363,435.7689 C 291.41378,431.14291 304.78745,424.23432 313.6527,428.87199 L 298.34142,439.65042 z " />
    <path
       style="opacity:1;color:#000000;fill:#00c2ff;fill-opacity:0.57142861;fill-rule:nonzero;stroke:none;stroke-width:3.9000001;stroke-linecap:butt;stroke-linejoin:miter;marker:none;marker-start:none;marker-mid:none;marker-end:none;stroke-miterlimit:4;stroke-dasharray:none;stroke-dashoffset:0;stroke-opacity:1;visibility:visible;display:inline;overflow:visible"
       id="path15994"
       d="M 422.95323,360.54517 C 417.46473,367.27197 411.25878,374.35392 407.74031,382.99292 C 403.49191,395.39616 407.99564,408.33709 418.67937,414.8319 C 426.78761,419.76103 442.837,417.14814 436.78462,418.44025 C 434.96376,418.82899 433.09615,418.69983 431.25193,418.82961 C 452.47161,414.52917 466.53799,385.61675 445.79907,372.9063 C 422.33149,366.43464 420.34156,366.49813 398.72402,382.13885 C 397.86756,382.83938 397.01109,383.53991 396.15464,384.24045 L 382.0352,379.49263 C 383.01363,378.70065 383.99206,377.90867 384.97049,377.11669 C 406.05778,361.68328 435.41274,353.1179 458.41536,365.78681 C 480.9932,383.27632 467.22738,416.71859 442.42909,426.05774 C 412.78115,429.73052 385.03062,418.26652 393.00114,382.04559 C 395.0302,375.8152 402.80973,359.44184 404.91668,359.11739 L 422.95323,360.54517 z " />
    <path
       style="opacity:1;color:#000000;fill:#00c2ff;fill-opacity:0.57142861;fill-rule:nonzero;stroke:none;stroke-width:3.9000001;stroke-linecap:butt;stroke-linejoin:miter;marker:none;marker-start:none;marker-mid:none;marker-end:none;stroke-miterlimit:4;stroke-dasharray:none;stroke-dashoffset:0;stroke-opacity:1;visibility:visible;display:inline;overflow:visible"
       id="path15996"
       d="M 297.62873,285.69554 C 288.44192,286.38216 279.59439,291.97619 271.86719,297.22009 C 248.57191,313.23872 241.50652,340.2918 251.46338,365.48547 C 264.71029,395.25094 297.7829,403.18927 310.33798,399.61351 C 338.89017,388.01783 339.0559,355.1327 329.67162,330.94165 C 316.28821,300.82232 288.72686,286.05733 256.53568,291.40074 C 267.4944,287.06505 233.88272,301.60181 230.93965,303.35378 L 218.27592,298.06239 C 233.05117,289.3993 248.56486,283.57182 265.39845,281.97391 C 299.49952,278.48855 327.53737,296.30275 341.36923,327.75529 C 351.83987,354.73357 352.16895,390.52821 322.01657,405.90563 C 287.7227,419.03601 254.63838,399.74596 239.62278,368.74759 C 228.92128,341.73044 234.70981,311.74667 258.42719,292.37012 C 265.77398,286.46251 274.11194,280.68507 282.20767,276.60942 L 297.62873,285.69554 z " />
    <path
       style="opacity:1;color:#000000;fill:#00c2ff;fill-opacity:0.57142861;fill-rule:nonzero;stroke:none;stroke-width:3.9000001;stroke-linecap:butt;stroke-linejoin:miter;marker:none;marker-start:none;marker-mid:none;marker-end:none;stroke-miterlimit:4;stroke-dasharray:none;stroke-dashoffset:0;stroke-opacity:1;visibility:visible;display:inline;overflow:visible"
       d="M 384.74129,275.15369 C 384.74117,275.25102 384.74031,275.46389 384.75165,275.78457 C 384.77898,276.55734 384.78807,277.32254 384.80274,278.09627 L 366.75005,276.66181 C 369.59349,287.56913 372.98869,298.68191 375.96013,309.78461 C 371.23537,310.31542 366.50953,310.89751 361.79335,311.55953 C 354.59424,312.4731 342.88192,314.26482 337.79241,316.58913 L 354.01953,324.24148 C 357.92353,322.58339 367.83876,320.56811 373.72037,319.52735 C 371.47777,319.82607 369.24352,320.18319 366.9951,320.38517 C 366.42118,320.43673 366.10159,320.44828 366.01756,320.44253 C 366.01477,320.44234 366.0131,320.45978 366.01079,320.45953 C 366.00896,320.45923 365.99588,320.45368 365.99455,320.45332 C 365.99472,320.45226 365.99928,320.43759 366.00133,320.43632 C 366.00281,320.43562 366.01563,320.44327 366.01756,320.44253 C 366.34879,320.31594 373.30303,319.42245 378.25499,318.81174 C 380.66938,328.68395 382.95744,338.59685 385.19582,348.52029 L 398.44002,345.72663 C 396.01821,336.30206 393.68016,326.85197 391.59434,317.32788 C 400.87192,316.40226 410.162,315.68449 419.45173,315.06539 L 429.2367,305.13088 C 416.0631,306.20673 402.8872,307.15431 389.71641,308.38174 C 388.19955,300.9562 386.75946,293.50241 385.68366,285.97561 C 385.2904,283.22417 384.8275,275.89329 384.74129,275.15369 z "
       id="path15998" />
    <path
       style="opacity:1;color:#000000;fill:#00c2ff;fill-opacity:0.57142861;fill-rule:nonzero;stroke:none;stroke-width:3.9000001;stroke-linecap:butt;stroke-linejoin:miter;marker:none;marker-start:none;marker-mid:none;marker-end:none;stroke-miterlimit:4;stroke-dasharray:none;stroke-dashoffset:0;stroke-opacity:1;visibility:visible;display:inline;overflow:visible"
       d="M 380.60984,403.16194 L 362.50154,405.52652 C 365.48206,413.42785 367.02578,421.99832 368.68376,430.38033 C 368.84046,431.19327 368.99378,432.01662 369.14766,432.83024 C 364.51106,433.53235 359.86909,434.24121 355.2338,434.95652 C 348.68352,436.01561 340.67169,436.43958 334.79564,438.93822 L 351.02276,446.59058 C 354.25225,446.64115 363.20366,443.86314 367.86492,442.80164 C 368.31493,442.61737 369.37204,442.36188 370.83855,442.05752 C 372.90242,453.74377 374.7127,465.47847 376.41875,477.2409 L 390.56981,474.75468 C 388.40989,463.08323 386.36109,451.37497 384.65925,439.60176 C 390.04466,438.72491 395.50802,437.89967 399.0484,437.36329 C 399.26601,437.33092 399.42987,437.30086 399.62792,437.27134 C 399.44299,437.29926 399.25244,437.3164 399.05519,437.34629 L 408.75519,426.96789 C 400.31137,428.18688 391.87158,429.41399 383.43116,430.66893 C 383.31298,429.74325 383.20907,428.82271 383.09611,427.89604 C 382.28457,421.10618 380.73688,407.4409 380.60984,403.16194 z M 401.95547,436.92677 C 401.56848,436.9841 401.05726,437.06095 400.4823,437.14732 C 401.09331,437.05599 401.57704,436.98392 401.95547,436.92677 z "
       id="path16002" />
    <path
       style="opacity:1;color:#000000;fill:#00c2ff;fill-opacity:0.57142861;fill-rule:nonzero;stroke:none;stroke-width:3.9000001;stroke-linecap:butt;stroke-linejoin:miter;marker:none;marker-start:none;marker-mid:none;marker-end:none;stroke-miterlimit:4;stroke-dasharray:none;stroke-dashoffset:0;stroke-opacity:1;visibility:visible;display:inline;overflow:visible"
       d="M 511.76825,411.62481 L 494.06959,416.57529 C 495.9273,421.19371 497.92259,427.35236 499.80264,433.73438 C 493.78678,435.75173 487.79733,437.80401 482.44846,439.69814 L 498.67558,447.35049 C 500.07107,446.51486 501.49913,445.72682 502.9569,444.97077 C 503.54888,447.18083 504.11695,449.3199 504.63097,451.3313 C 505.08601,453.21932 505.52694,455.11219 505.98197,457.0002 L 518.8212,454.42397 C 518.4359,452.5136 518.04916,450.60234 517.66385,448.69196 C 517.04937,445.55811 516.40725,442.41889 515.78627,439.27577 C 518.90305,438.05934 522.03612,436.91525 525.11426,435.78843 C 531.42673,433.57082 528.22932,434.67518 534.66821,432.48541 L 522.92006,426.13366 C 516.87712,428.10361 518.44188,427.58355 513.88761,429.06788 C 512.90355,423.29392 512.11413,417.49711 511.76825,411.62481 z "
       id="path16006" />
    <path
       style="opacity:1;color:#000000;fill:#00c2ff;fill-opacity:0.57142861;fill-rule:nonzero;stroke:none;stroke-width:3.9000001;stroke-linecap:butt;stroke-linejoin:miter;marker:none;marker-start:none;marker-mid:none;marker-end:none;stroke-miterlimit:4;stroke-dasharray:none;stroke-dashoffset:0;stroke-opacity:1;visibility:visible;display:inline;overflow:visible"
       id="path16016"
       d="M 503.31006,312.50663 C 530.23241,309.38348 514.35691,311.04939 504.7199,321.44685 C 491.55434,335.8325 494.91437,352.96459 504.21882,367.503 C 522.32684,390.70995 546.05584,391.47199 562.89866,383.16285 C 583.34932,370.73732 591.99999,344.93458 580.93827,324.13023 C 580.0914,322.92269 579.31859,321.65505 578.39767,320.50762 C 570.2037,310.29831 557.11439,305.02302 544.34281,303.67153 C 540.39819,303.25411 515.76502,305.32057 528.35374,303.97112 C 521.82237,305.33887 525.04554,304.57423 518.68272,306.25657 L 506.98346,299.56123 C 513.70621,297.63166 510.30425,298.52845 517.19073,296.8776 C 545.727,292.60626 577.69058,292.35304 594.36011,319.8433 C 606.07475,343.84309 597.06928,372.79845 574.71214,388.37036 C 545.69117,405.12139 510.50816,398.23613 491.2163,372.30292 C 480.31334,355.61384 476.0859,335.60001 489.63604,317.88564 C 498.96863,305.58191 502.84027,300.74751 518.62132,301.72819 L 503.31006,312.50663 z " />
  </g>
  <g
     inkscape:groupmode="layer"
     id="layer5"
     inkscape:label="branding-pixie"
     style="display:none">
    <path
       style="opacity:1;color:#000000;fill:#bdff56;fill-opacity:1;fill-rule:nonzero;stroke:none;stroke-width:3.9000001;stroke-linecap:butt;stroke-linejoin:miter;marker:none;marker-start:none;marker-mid:none;marker-end:none;stroke-miterlimit:4;stroke-dasharray:none;stroke-dashoffset:0;stroke-opacity:1;visibility:visible;display:inline;overflow:visible"
       d="M 240.41631,172.68507 C 188.08461,235.51422 190.52602,322.83202 198.6648,399.54188 C 206.31287,460.25533 203.92446,521.66621 205.68454,582.64291 C 200.94476,658.43957 165.57389,738.67661 201.08774,811.97903 C 229.6309,860.36121 288.27105,875.24722 337.68684,892.98157 C 465.94323,929.67028 606.08617,906.26611 723.87619,847.21427 C 751.7828,830.50643 781.92261,809.00479 793.15382,777.51985 C 817.78434,644.97177 814.66132,509.29813 806.60681,375.32216 C 822.67533,314.50999 819.45876,246.80372 789.06596,190.85927 C 764.53146,160.14381 727.17147,186.15746 703.51411,203.92579 C 670.00109,224.18835 629.05338,225.88665 591.57225,234.54564 C 489.43963,251.52246 379.52878,253.28158 283.46862,209.9712 C 266.9095,200.50885 251.28994,188.56833 240.41631,172.68507 z "
       id="path13285" />
    <path
       style="opacity:1;color:#000000;fill:#005762;fill-opacity:0.34782607;fill-rule:nonzero;stroke:none;stroke-width:3.9000001;stroke-linecap:butt;stroke-linejoin:miter;marker:none;marker-start:none;marker-mid:none;marker-end:none;stroke-miterlimit:4;stroke-dasharray:none;stroke-dashoffset:0;stroke-opacity:1;visibility:visible;display:inline;overflow:visible"
       d="M 504.71875,353.09375 C 486.82979,353.54379 471.60979,363.84469 453.09375,375.8125 L 468.8125,378.90625 C 465.027,381.89652 461.85069,384.53 459.65625,386.03125 C 440.07628,406.91605 428.49281,435.17602 430.84375,466.21875 C 433.32806,487.04861 442.14988,501.80816 454.53125,511 C 434.65163,513.30543 414.76247,515.36319 394.8125,516.6875 C 389.04218,516.93101 382.1184,517.0807 376.8125,517.34375 L 354.625,556.4375 C 361.52754,555.91096 368.612,554.31547 375.53125,553.15625 C 408.00245,548.03426 440.54847,543.575 473.09375,539.09375 C 477.31665,538.49976 481.52501,537.91909 485.75,537.34375 C 484.51691,556.74004 482.99921,576.11098 481.6875,595.5 C 481.26659,601.6351 480.92453,607.79699 480.5625,613.9375 L 476.5,615.375 C 475.76642,606.1828 468.18816,622.33234 465.875,625.40625 C 452.39563,643.351 436.53858,658.5179 420.375,673.09375 C 406.92616,682.70851 401.87778,702.12106 419.28125,710.5625 C 419.25552,711.52236 419.23298,712.54628 419.1875,713.59375 C 418.51869,725.79019 418.96465,737.93941 420.90625,749.96875 C 423.84741,766.591 429.85607,781.9521 437.9375,796.0625 C 443.5445,805.34738 450.5279,813.29238 457.875,820.71875 L 487.65625,792.71875 C 481.10609,787.09704 474.97935,780.82712 470.15625,773.15625 C 463.30098,761.49153 458.53312,748.52207 456.75,734.53125 C 455.89937,725.53104 455.83149,716.5376 456.65625,707.5625 C 456.74066,707.54995 456.82186,707.54368 456.90625,707.53125 C 470.31026,705.35897 483.81014,704.19139 497.3125,703.125 C 503.15738,702.61717 509.01985,702.2221 514.875,701.875 C 515.23983,703.70897 516.13583,704.97958 517.71875,706.5625 C 518.39245,707.23619 518.94181,707.9332 519.4375,708.71875 C 522.68132,721.16241 527.06364,733.04762 532.46875,744.46875 C 539.92562,759.95658 550.7609,772.0231 563.84375,781.03125 C 576.21537,788.78971 589.86915,791.82566 603.75,792.625 C 609.88476,792.86966 615.98669,792.15708 622.0625,791.34375 L 640.28125,752.25 C 635.21424,754.06768 630.08161,755.4705 624.75,755.84375 C 613.28303,756.63962 601.80939,755.76871 591.0625,750.5 C 580.16044,744.47088 571.40028,735.55972 565.53125,723.1875 C 561.72974,714.96825 558.80626,706.34895 556.65625,697.4375 C 571.39419,691.51826 581.6029,678.65849 570.25,660.21875 C 560.6889,649.66426 548.26074,643.36909 536.71875,636.1875 C 528.15631,630.95764 519.98045,624.95788 512.53125,617.8125 C 512.0881,617.39074 511.66854,616.94823 511.25,616.5 C 513.79808,612.59452 515.67707,608.37732 515.46875,603.71875 C 515.46919,603.71613 515.49939,603.69024 515.5,603.6875 L 516.34375,603.4375 C 516.55062,597.27642 516.77004,591.12285 517.09375,584.96875 C 517.99505,567.51641 519.25886,550.08805 521.15625,532.75 C 543.79771,529.96205 566.46102,527.48957 589.15625,525.3125 C 599.34788,524.33732 609.58602,523.42711 619.78125,522.5 L 638.5625,486.25 C 628.06186,487.99623 617.55484,489.59518 607.03125,491.15625 C 587.03384,494.06275 567.05051,496.97372 547.03125,499.6875 C 568.09721,482.36182 582.66703,456.6524 579.4375,424.84375 C 573.71023,393.63213 553.39831,368.99664 527.875,357.84375 C 522.36639,355.55162 517.20124,354.13472 512.28125,353.5 C 509.69954,353.16694 507.18345,353.03174 504.71875,353.09375 z M 561.0625,661.53125 C 561.08255,661.52672 561.11003,661.53406 561.125,661.53125 C 561.12761,661.53174 561.1547,661.5315 561.15625,661.53125 C 561.15592,661.53411 561.15655,661.55878 561.15625,661.5625 C 561.00127,661.63383 560.33533,661.81165 559.125,662.15625 C 560.1048,661.81707 560.80189,661.59016 561.0625,661.53125 z "
       id="path15055" />
    <path
       style="opacity:1;color:#000000;fill:#005762;fill-opacity:0.34782607;fill-rule:nonzero;stroke:none;stroke-width:3.9000001;stroke-linecap:butt;stroke-linejoin:miter;marker:none;marker-start:none;marker-mid:none;marker-end:none;stroke-miterlimit:4;stroke-dasharray:none;stroke-dashoffset:0;stroke-opacity:1;visibility:visible;display:inline;overflow:visible"
       id="path15095"
       d="M 483.07682,546.00424 C 476.02064,534.65343 464.72556,527.11 454.35086,520.34564 C 410.1762,494.32351 359.25053,482.06101 311.29303,497.93943 C 309.3367,499.47353 267.16972,510.94446 276.20517,563.33927 C 289.84706,613.55137 337.62234,616.31226 375.43486,609.47431 C 444.47563,589.36703 466.49659,566.47242 518.90087,515.20678 C 558.4296,474.73989 598.23029,434.66129 641.23438,399.11039 C 664.23395,384.17342 710.35917,327.55446 734.87426,363.50665 C 752.78406,411.32314 739.27811,472.01262 722.06748,517.0581 C 697.90533,575.10542 654.35129,629.4642 595.32974,634.75833 C 551.75834,635.18956 516.44711,602.02448 489.35034,565.38625 C 483.10152,556.85204 477.69736,547.59762 472.4793,538.21664 L 502.35931,517.88984 C 506.72365,526.8145 511.33993,535.58339 516.89954,543.61723 C 540.39509,577.12242 572.4518,606.53222 611.68429,602.04705 C 643.48163,595.79954 660.03607,583.51064 692.31268,520.54179 C 708.26587,481.98901 720.90679,429.42633 704.53699,388.05135 C 699.51443,389.50526 691.91315,393.09566 686.16023,396.489 C 684.63017,397.39152 680.14029,400.30631 681.60028,399.26265 C 721.89236,370.4597 682.66047,398.46006 673.64252,404.23873 C 628.38254,437.58544 587.27635,477.37719 546.95998,518.11955 C 492.46561,571.17258 433.22519,623.99113 361.0862,638.92396 C 314.33326,646.24378 262.0824,636.91323 244.48167,578.40139 C 231.0054,516.97651 278.15928,479.21957 325.40728,466.12622 C 377.32418,454.69006 429.72986,469.57911 478.11778,492.91641 C 489.00289,498.58077 509.12352,511.27381 514.93645,517.40282 L 483.07682,546.00424 z " />
  </g>
  <g
     inkscape:groupmode="layer"
     id="layer9"
     inkscape:label="branding-grog"
     style="display:inline">
    <path
       style="opacity:1;color:#000000;fill:#ff0e00;fill-opacity:1;fill-rule:nonzero;stroke:none;stroke-width:3.9000001;stroke-linecap:butt;stroke-linejoin:miter;marker:none;marker-start:none;marker-mid:none;marker-end:none;stroke-miterlimit:4;stroke-dasharray:none;stroke-dashoffset:0;stroke-opacity:1;visibility:visible;display:inline;overflow:visible"
       d="M 240.41631,172.68507 C 188.08461,235.51422 190.52602,322.83202 198.6648,399.54188 C 206.31287,460.25533 203.92446,521.66621 205.68454,582.64291 C 200.94476,658.43957 165.57389,738.67661 201.08774,811.97903 C 229.6309,860.36121 288.27105,875.24722 337.68684,892.98157 C 465.94323,929.67028 606.08617,906.26611 723.87619,847.21427 C 751.7828,830.50643 781.92261,809.00479 793.15382,777.51985 C 817.78434,644.97177 814.66132,509.29813 806.60681,375.32216 C 822.67533,314.50999 819.45876,246.80372 789.06596,190.85927 C 764.53146,160.14381 727.17147,186.15746 703.51411,203.92579 C 670.00109,224.18835 629.05338,225.88665 591.57225,234.54564 C 489.43963,251.52246 379.52878,253.28158 283.46862,209.9712 C 266.9095,200.50885 251.28994,188.56833 240.41631,172.68507 z "
       id="path20424" />
    <path
       style="opacity:1;color:#000000;fill:#ffffff;fill-opacity:1;fill-rule:nonzero;stroke:none;stroke-width:3.9000001;stroke-linecap:butt;stroke-linejoin:miter;marker:none;marker-start:none;marker-mid:none;marker-end:none;stroke-miterlimit:4;stroke-dasharray:none;stroke-dashoffset:0;stroke-opacity:1;visibility:visible;display:inline;overflow:visible"
       d="M 695.4375,332.86161 C 669.845,339.09136 647.70336,357.12265 621.49988,366.48383 C 551.52776,398.04058 477.36951,421.96657 406.9375,452.7369 C 406.72824,416.66341 412.27417,379.27737 400.89242,344.19763 C 363.03642,327.89399 355.15104,385.36592 333.81704,403.50247 C 311.38058,435.06162 280.94896,462.43302 262.59881,496.02281 C 253.5637,518.39981 244.53957,549.37603 266.90665,568.05902 C 292.1466,581.37199 319.12669,560.55544 341.33279,551.50343 C 356.17886,543.92416 375.40043,532.2596 363.48647,554.97147 C 347.80367,607.52194 323.45405,661.50435 275.50478,698.51769 C 247.03748,725.54737 204.48795,701.3892 179.8125,691.87354 C 179.8125,720.04373 179.8125,748.2139 179.8125,776.38407 C 190.70784,777.03274 225.13342,789.32435 246.5,785.15019 C 294.31777,774.31256 320.93463,733.924 343.21729,699.27043 C 375.01549,644.37874 391.75426,583.95373 401.9375,523.53808 C 478.06843,490.09143 554.74298,456.63419 635.9375,433.13415 C 627.13717,480.89232 644.00641,528.54496 669.67321,570.50474 C 675.87125,585.88241 698.42732,619.71262 690.58485,624.49614 C 649.7449,604.49516 612.4509,578.40856 566.69209,566.77031 C 537.0219,554.41258 509.56893,576.64037 494.24653,596.42586 C 456.80818,641.37741 408.81939,685.90059 402.60163,743.43677 C 401.67508,764.3752 402.88311,792.06165 426.53281,803.65218 C 464.88676,814.56075 506.3883,804.95229 544.99659,799.227 C 609.86588,786.58894 678.96118,763.74554 716.75,713.81121 C 743.50762,727.54645 776.07327,749.71085 807.65376,732.29583 C 824.91312,729.12151 813.28931,714.11524 813.35991,704.05292 C 809.51077,684.18034 805.66164,664.30777 801.8125,644.4352 C 787.11596,663.79628 736.06697,653.21678 734.39042,633.24094 C 733.50638,570.48056 688.68606,518.12411 669.875,459.37872 C 673.51112,432.53662 700.8015,420.88803 719.08068,403.8625 C 730.87383,382.41652 728.58843,352.16672 706.95247,335.9064 L 701.46205,333.59503 L 695.4375,332.86161 z M 379.71875,440.63644 C 393.22965,457.68003 362.31361,476.40093 358.23621,470.06146 C 365.82874,460.49122 372.93368,450.644 379.71875,440.63644 z M 703.84375,599.79792 C 703.8411,613.40581 702.851,616.37098 703.84375,599.79792 z M 548.0625,646.15615 C 588.56928,652.02336 625.22737,669.57765 660.8125,686.49104 C 611.80998,723.36623 543.92853,739.74573 479.617,736.18623 C 440.88036,736.97966 486.09525,702.16581 494.29142,687.11395 C 509.52245,671.92745 524.52352,651.72472 548.0625,646.15615 z M 456.75,739.51798 C 457.01645,739.82086 456.02346,739.99794 456.75,739.51798 z "
       id="path22200" />
  </g>
  <g
     inkscape:groupmode="layer"
     id="layer2"
     inkscape:label="shine"
     style="display:inline">
    <path
       id="path11495"
       d="M 249.61585,158.22874 C 203.67511,207.1581 193.22113,281.19008 199.45802,347.64837 C 192.93279,465.07561 195.58637,582.83135 193.86086,700.31992 C 189.78508,742.16542 177.70133,791.50893 204.62903,827.50272 C 239.17389,862.86951 288.2579,871.15795 330.31995,891.68343 C 451.1945,929.22637 579.00608,902.05775 697.23138,866.37824 C 762.35833,840.97031 810.92453,769.93834 807.21207,694.34283 C 813.29513,607.81271 808.84802,521.0179 806.46885,434.43095 C 818.27811,354.6758 827.47993,268.91109 799.69258,191.96609 C 767.70607,152.16647 727.81794,204.71449 695.30043,216.58704 C 644.97431,237.04982 590.69916,241.95708 537.9071,249.97063 C 479.24243,251.05769 420.25938,246.68634 362.96205,233.04517 C 317.04297,229.58367 272.56323,201.61073 249.61585,158.22874 z "
       style="opacity:1;color:#000000;fill:url(#linearGradient10548);fill-opacity:1;fill-rule:nonzero;stroke:none;stroke-width:3.9000001;stroke-linecap:butt;stroke-linejoin:miter;marker:none;marker-start:none;marker-mid:none;marker-end:none;stroke-miterlimit:4;stroke-dasharray:none;stroke-dashoffset:0;stroke-opacity:1;visibility:visible;display:inline;overflow:visible" />
    <path
       style="opacity:1;color:#000000;fill:url(#linearGradient10552);fill-opacity:1;fill-rule:nonzero;stroke:none;stroke-width:3.9000001;stroke-linecap:butt;stroke-linejoin:miter;marker:none;marker-start:none;marker-mid:none;marker-end:none;stroke-miterlimit:4;stroke-dasharray:none;stroke-dashoffset:0;stroke-opacity:1;visibility:visible;display:inline;overflow:visible"
       d="M 249.61585,158.22874 C 203.67511,207.1581 193.22113,281.19008 199.45802,347.64837 C 192.93279,465.07561 195.58637,582.83135 193.86086,700.31992 C 189.78508,742.16542 177.70133,791.50893 204.62903,827.50272 C 239.17389,862.86951 288.2579,871.15795 330.31995,891.68343 C 451.1945,929.22637 579.00608,902.05775 697.23138,866.37824 C 762.35833,840.97031 810.92453,769.93834 807.21207,694.34283 C 813.29513,607.81271 808.84802,521.0179 806.46885,434.43095 C 818.27811,354.6758 827.47993,268.91109 799.69258,191.96609 C 767.70607,152.16647 727.81794,204.71449 695.30043,216.58704 C 644.97431,237.04982 590.69916,241.95708 537.9071,249.97063 C 479.24243,251.05769 420.25938,246.68634 362.96205,233.04517 C 317.04297,229.58367 272.56323,201.61073 249.61585,158.22874 z "
       id="path10550" />
  </g>
  <g
     inkscape:label="rim"
     inkscape:groupmode="layer"
     id="layer1"
     style="display:inline">
    <path
       style="opacity:1;color:#000000;fill:#939393;fill-opacity:1;fill-rule:nonzero;stroke:none;stroke-width:3.9000001;stroke-linecap:butt;stroke-linejoin:miter;marker:none;marker-start:none;marker-mid:none;marker-end:none;stroke-miterlimit:4;stroke-dasharray:none;stroke-dashoffset:0;stroke-opacity:1;visibility:visible;display:inline;overflow:visible"
       id="path1319"
       d="M 450.85476,101.02907 C 423.28363,98.985243 395.6792,102.28043 368.44767,106.88782 C 322.44159,112.02773 271.28491,140.15707 265.79445,145.60302 C 241.3868,181.78908 316.73535,204.67991 337.68477,212.15621 C 425.94906,240.61758 519.26832,243.44069 609.84017,227.88024 C 666.25966,216.18113 725.91462,197.69001 744.02806,166.48272 C 751.71794,131.1883 684.93739,119.16491 663.64538,113.69317 C 594.08423,97.679693 522.53588,95.411753 451.6425,96.707793 C 422.51703,97.258633 393.44287,99.242963 364.42107,101.84771 L 375.28346,79.103293 C 404.28992,77.399653 433.31844,76.031173 462.37001,75.687643 C 534.30312,75.017593 606.7536,77.502723 677.47629,92.805103 C 710.44295,100.64441 781.50205,113.67725 772.40007,164.82798 C 745.66655,226.36075 654.13562,234.18577 601.39613,247.32982 C 508.96458,260.67893 414.42481,257.22171 324.04404,231.16074 C 291.32366,220.6684 210.14491,195.87734 237.61954,143.16285 C 271.3279,100.92965 331.61408,93.723293 378.88575,82.433123 C 408.12602,77.286233 437.62329,73.443563 467.18051,71.483671 L 450.85476,101.02907 z " />
    <path
       style="opacity:1;color:#000000;fill:#939393;fill-opacity:1;fill-rule:nonzero;stroke:none;stroke-width:3.9000001;stroke-linecap:butt;stroke-linejoin:miter;marker:none;marker-start:none;marker-mid:none;marker-end:none;stroke-miterlimit:4;stroke-dasharray:none;stroke-dashoffset:0;stroke-opacity:1;visibility:visible;display:inline;overflow:visible"
       d="M 272.66574,131.72514 C 262.96511,132.7976 248.00292,141.5703 241.44676,138.04141 C 225.20946,172.10102 203.26358,205.38705 187.83424,240.785 C 174.0807,289.63053 187.6848,341.38891 186.61991,391.39375 C 191.6504,487.59766 190.93873,584.20308 179.50996,679.87295 C 178.3557,718.19594 168.61497,756.35212 170.9931,794.5215 C 191.36401,822.67769 214.18644,852.53699 243.13476,871.31878 C 294.68,895.80439 351.89711,902.60296 407.46291,909.0383 C 515.16122,917.89466 626.77736,908.70235 727.21082,863.45887 C 755.94684,843.95929 788.8472,827.65842 805.95808,793.86098 C 829.66381,754.11764 816.88012,704.70444 819.01378,660.33341 C 817.58144,515.49925 822.37219,370.61223 826.31322,225.93584 C 820.57766,189.03461 785.83045,169.00189 772.24619,136.05984 C 762.67871,144.73301 731.56213,147.95351 751.99603,164.46245 C 771.58728,193.07512 803.498,219.22944 797.44486,258.89903 C 798.12213,426.93296 795.34205,595.0772 788.42921,762.89366 C 781.08321,786.72664 767.2855,809.89682 748.58266,825.44237 C 737.83799,832.22803 725.9153,837.50478 715.94464,845.05173 C 748.98709,827.70589 692.73765,859.0169 683.48557,860.29055 C 564.91045,901.35156 435.22593,904.61694 314.37087,872.73573 C 281.02795,863.89698 259.47142,844.40376 228.17677,822.51129 C 221.79778,814.28247 218.51599,803.4494 209.90428,797.27491 C 189.51366,772.88796 207.62398,737.73239 206.45287,708.2375 C 214.62997,619.94433 221.84151,531.33852 217.239,442.52961 C 217.4202,381.20948 208.92955,319.87741 212.43756,258.66542 C 223.6914,213.208 256.39545,178.02084 272.78133,134.86044 L 272.66574,131.72514 z "
       id="path1323"
       sodipodi:nodetypes="ccccccccccccccccccccccccccc" />
  </g>
</svg>
