<?xml version="1.0" encoding="UTF-8" standalone="no"?>
<!-- Created with Inkscape (http://www.inkscape.org/) -->
<svg
   xmlns:dc="http://purl.org/dc/elements/1.1/"
   xmlns:cc="http://web.resource.org/cc/"
   xmlns:rdf="http://www.w3.org/1999/02/22-rdf-syntax-ns#"
   xmlns:svg="http://www.w3.org/2000/svg"
   xmlns="http://www.w3.org/2000/svg"
   xmlns:xlink="http://www.w3.org/1999/xlink"
   xmlns:sodipodi="http://inkscape.sourceforge.net/DTD/sodipodi-0.dtd"
   xmlns:inkscape="http://www.inkscape.org/namespaces/inkscape"
   width="1000"
   height="1000"
   id="svg2"
   sodipodi:version="0.32"
   inkscape:version="0.43"
   version="1.0"
   sodipodi:docbase="/home/kkowal/tale/art/item/can"
   sodipodi:docname="mt-dewm.svg">
  <defs
     id="defs4">
    <linearGradient
       id="linearGradient6942">
      <stop
         style="stop-color:#000000;stop-opacity:1;"
         offset="0"
         id="stop6944" />
      <stop
         style="stop-color:#000000;stop-opacity:0;"
         offset="1"
         id="stop6946" />
    </linearGradient>
    <linearGradient
       inkscape:collect="always"
       xlink:href="#linearGradient6942"
       id="linearGradient6948"
       x1="560.28625"
       y1="298.64511"
       x2="422.90549"
       y2="128.68118"
       gradientUnits="userSpaceOnUse" />
    <linearGradient
       inkscape:collect="always"
       xlink:href="#linearGradient6942"
       id="linearGradient7839"
       x1="511.11194"
       y1="384.6825"
       x2="511.11194"
       y2="143.07669"
       gradientUnits="userSpaceOnUse" />
    <radialGradient
       inkscape:collect="always"
       xlink:href="#linearGradient6942"
       id="radialGradient8762"
       cx="507.29367"
       cy="197.69186"
       fx="507.29367"
       fy="197.69186"
       r="303.73029"
       gradientTransform="matrix(1,-3.175282e-8,1.380942e-8,0.434904,-2.73001e-6,133.2322)"
       gradientUnits="userSpaceOnUse" />
    <linearGradient
       inkscape:collect="always"
       xlink:href="#linearGradient6942"
       id="linearGradient10548"
       x1="-364.93997"
       y1="556.20978"
       x2="523.98883"
       y2="574.39258"
       gradientUnits="userSpaceOnUse" />
    <linearGradient
       inkscape:collect="always"
       xlink:href="#linearGradient6942"
       id="linearGradient10552"
       gradientUnits="userSpaceOnUse"
       x1="1146.2483"
       y1="563.28082"
       x2="546.21216"
       y2="564.29108" />
  </defs>
  <sodipodi:namedview
     id="base"
     pagecolor="#ffffff"
     bordercolor="#666666"
     borderopacity="1.0"
     inkscape:pageopacity="0.0"
     inkscape:pageshadow="2"
     inkscape:zoom="0.49497475"
     inkscape:cx="693.3866"
     inkscape:cy="587.68375"
     inkscape:document-units="px"
     inkscape:current-layer="layer3"
     inkscape:window-width="1600"
     inkscape:window-height="1125"
     inkscape:window-x="0"
     inkscape:window-y="25" />
  <metadata
     id="metadata7">
    <rdf:RDF>
      <cc:Work
         rdf:about="">
        <dc:format>image/svg+xml</dc:format>
        <dc:type
           rdf:resource="http://purl.org/dc/dcmitype/StillImage" />
      </cc:Work>
    </rdf:RDF>
  </metadata>
  <g
     inkscape:groupmode="layer"
     id="layer4"
     inkscape:label="lid"
     style="display:inline">
    <path
       style="opacity:1;color:#000000;fill:#e2e2e2;fill-opacity:1;fill-rule:nonzero;stroke:none;stroke-width:3.9000001;stroke-linecap:butt;stroke-linejoin:miter;marker:none;marker-start:none;marker-mid:none;marker-end:none;stroke-miterlimit:4;stroke-dasharray:none;stroke-dashoffset:0;stroke-opacity:1;visibility:visible;display:inline;overflow:visible"
       d="M 249.63229,145.01233 C 321.92897,92.465553 412.46274,89.032733 496.73725,87.575443 C 582.27042,84.796753 671.7075,93.763513 748.23441,137.95371 C 781.2161,164.42117 803.3273,205.95385 810.76315,249.14683 C 813.54126,283.21095 793.7739,314.31544 768.212,332.42102 C 727.21201,369.07344 676.60243,397.12364 622.0687,395.63298 C 568.04231,396.47961 514.05851,392.43676 460.03981,392.02699 C 400.14981,388.87182 340.85693,375.4607 284.11775,354.98449 C 245.32296,339.13962 205.38269,304.62449 203.56338,256.6917 C 203.72446,213.58017 243.39784,186.36169 249.63229,145.01233 z "
       id="path2412" />
    <path
       id="path8754"
       d="M 249.63229,145.01233 C 321.92897,92.465553 412.46274,89.032733 496.73725,87.575443 C 582.27042,84.796753 671.7075,93.763513 748.23441,137.95371 C 781.2161,164.42117 803.3273,205.95385 810.76315,249.14683 C 813.54126,283.21095 793.7739,314.31544 768.212,332.42102 C 727.21201,369.07344 676.60243,397.12364 622.0687,395.63298 C 568.04231,396.47961 514.05851,392.43676 460.03981,392.02699 C 400.14981,388.87182 340.85693,375.4607 284.11775,354.98449 C 245.32296,339.13962 205.38269,304.62449 203.56338,256.6917 C 203.72446,213.58017 243.39784,186.36169 249.63229,145.01233 z "
       style="opacity:1;color:#000000;fill:url(#radialGradient8762);fill-opacity:1;fill-rule:nonzero;stroke:none;stroke-width:3.9000001;stroke-linecap:butt;stroke-linejoin:miter;marker:none;marker-start:none;marker-mid:none;marker-end:none;stroke-miterlimit:4;stroke-dasharray:none;stroke-dashoffset:0;stroke-opacity:1;visibility:visible;display:inline;overflow:visible" />
    <path
       style="color:#000000;fill:#000000;fill-opacity:1;fill-rule:nonzero;stroke:none;stroke-width:3.9000001;stroke-linecap:butt;stroke-linejoin:miter;marker:none;marker-start:none;marker-mid:none;marker-end:none;stroke-miterlimit:4;stroke-dasharray:none;stroke-dashoffset:0;stroke-opacity:1;visibility:visible;display:inline;overflow:visible"
       d="M 443.80579,125.19656 C 395.3322,132.52306 346.57793,141.57898 300.8483,161.01779 C 281.83709,178.06909 274.34159,208.0245 282.05519,233.21158 C 285.77679,283.49889 275.43068,333.91558 281.6762,384.10336 C 315.0196,419.09033 364.65911,416.28554 407.71007,420.18551 C 500.74712,431.90008 596.65995,444.80734 688.8163,419.52253 C 725.82609,405.28519 748.77037,358.62786 738.95371,317.67424 C 738.48563,281.31958 744.67899,245.25566 743.69875,208.88855 C 723.92601,161.38827 674.05246,140.7704 629.0084,134.89345 C 568.25057,122.08875 505.33066,112.59919 443.80579,125.19656 z "
       id="path3347" />
    <path
       style="color:#000000;fill:#e2e2e2;fill-opacity:1;fill-rule:nonzero;stroke:none;stroke-width:3.9000001;stroke-linecap:butt;stroke-linejoin:miter;marker:none;marker-start:none;marker-mid:none;marker-end:none;stroke-miterlimit:4;stroke-dasharray:none;stroke-dashoffset:0;stroke-opacity:1;visibility:visible;display:inline;overflow:visible"
       d="M 409.44903,131.43106 C 424.91446,127.98305 441.28847,127.57662 456.697,131.36267 C 481.32718,139.66026 500.72127,161.43664 510.18192,186.92283 C 522.57657,211.16582 532.89811,237.85537 552.8625,256.27439 C 560.10517,267.42542 576.20932,273.00111 576.4268,288.49445 C 577.06325,302.198 563.65879,307.89762 553.74646,311.72408 C 533.75823,318.06723 512.62769,319.03827 491.89913,319.10647 C 467.95484,318.65223 443.79786,316.15172 420.71043,309.11975 C 397.80188,299.49439 378.06932,283.1378 358.27812,267.84038 C 346.95219,256.68321 342.15995,237.75518 349.23318,222.59267 C 356.47394,200.47038 366.67213,179.36092 381.00857,161.57459 C 388.50909,151.08937 397.9343,142.5797 407.321,134.19389 L 408.42671,132.85442 L 409.44903,131.43106 L 409.44903,131.43106 z "
       id="path2455" />
    <path
       id="path6067"
       d="M 409.44903,131.43106 C 424.91446,127.98305 441.28847,127.57662 456.697,131.36267 C 481.32718,139.66026 500.72127,161.43664 510.18192,186.92283 C 522.57657,211.16582 532.89811,237.85537 552.8625,256.27439 C 560.10517,267.42542 576.20932,273.00111 576.4268,288.49445 C 577.06325,302.198 563.65879,307.89762 553.74646,311.72408 C 533.75823,318.06723 512.62769,319.03827 491.89913,319.10647 C 467.95484,318.65223 443.79786,316.15172 420.71043,309.11975 C 397.80188,299.49439 378.06932,283.1378 358.27812,267.84038 C 346.95219,256.68321 342.15995,237.75518 349.23318,222.59267 C 356.47394,200.47038 366.67213,179.36092 381.00857,161.57459 C 388.50909,151.08937 397.9343,142.5797 407.321,134.19389 L 408.42671,132.85442 L 409.44903,131.43106 L 409.44903,131.43106 z "
       style="color:#000000;fill:url(#linearGradient6948);fill-opacity:1;fill-rule:nonzero;stroke:none;stroke-width:3.9000001;stroke-linecap:butt;stroke-linejoin:miter;marker:none;marker-start:none;marker-mid:none;marker-end:none;stroke-miterlimit:4;stroke-dasharray:none;stroke-dashoffset:0;stroke-opacity:1;visibility:visible;display:inline;overflow:visible" />
    <path
       style="color:#000000;fill:#939393;fill-opacity:1;fill-rule:nonzero;stroke:none;stroke-width:3.9000001;stroke-linecap:butt;stroke-linejoin:miter;marker:none;marker-start:none;marker-mid:none;marker-end:none;stroke-miterlimit:4;stroke-dasharray:none;stroke-dashoffset:0;stroke-opacity:1;visibility:visible;display:inline;overflow:visible"
       id="path1493"
       d="M 382.54781,128.96298 C 385.45693,127.84562 406.18298,123.55204 412.47592,123.25291 C 431.93221,122.62559 446.87954,118.74772 466.5209,121.60742 C 487.94869,128.2744 499.88241,149.96482 510.09466,169.69176 C 524.52096,199.30691 536.19018,230.66657 557.38957,255.63277 C 580.95415,282.2978 614.07307,290.74478 647.06256,285.09979 C 649.03444,284.64264 651.00632,284.18548 652.9782,283.72834 L 644.4886,301.80936 C 642.40893,302.12257 640.32939,302.43579 638.24972,302.749 C 602.63844,306.23144 567.40176,295.5075 542.43184,266.84709 C 520.96838,241.17973 508.64153,209.55336 493.30782,179.61115 C 484.05987,162.66646 473.26448,143.47091 454.06066,139.14749 C 435.56569,135.62052 416.64544,138.12855 398.04694,139.22557 C 389.4887,140.01156 380.01789,141.77438 371.93449,142.62403 L 382.54781,128.96298 z "
       sodipodi:nodetypes="ccccccccccccccc" />
    <path
       style="color:#000000;fill:#e2e2e2;fill-opacity:1;fill-rule:nonzero;stroke:none;stroke-width:3.9000001;stroke-linecap:butt;stroke-linejoin:miter;marker:none;marker-start:none;marker-mid:none;marker-end:none;stroke-miterlimit:4;stroke-dasharray:none;stroke-dashoffset:0;stroke-opacity:1;visibility:visible;display:inline;overflow:visible"
       d="M 405.94255,131.41803 C 366.07041,137.43796 324.92248,144.8051 290.03687,167.80462 C 275.14173,188.30807 292.62525,216.37027 312.11788,224.3081 C 381.55706,263.47934 461.12018,271.41635 538.13359,275.50483 C 600.05564,279.28804 666.01084,276.40509 720.88119,241.83821 C 737.7726,231.63291 743.69458,205.98012 730.76132,189.78596 C 718.9718,174.15703 701.80557,164.86211 687.10462,152.88368 C 667.92517,139.67997 645.50922,133.63216 623.27027,130.18027 C 606.10591,126.77004 574.52479,109.44349 565.57393,133.0448 C 561.64139,159.03988 598.65117,160.75805 596.10798,184.85954 C 593.33687,203.49683 576.6264,212.92439 561.24109,217.21266 C 524.59366,230.16469 484.96965,233.05964 446.99349,225.89178 C 427.27889,225.37184 402.19618,226.58591 390.40051,205.93517 C 381.59761,183.24136 400.69505,164.41814 408.84555,145.39883 C 410.2644,140.71333 410.3276,135.19347 407.69734,130.95275"
       id="path2433" />
    <path
       id="path6958"
       d="M 405.94255,131.41803 C 366.07041,137.43796 324.92248,144.8051 290.03687,167.80462 C 275.14173,188.30807 292.62525,216.37027 312.11788,224.3081 C 381.55706,263.47934 461.12018,271.41635 538.13359,275.50483 C 600.05564,279.28804 666.01084,276.40509 720.88119,241.83821 C 737.7726,231.63291 743.69458,205.98012 730.76132,189.78596 C 718.9718,174.15703 701.80557,164.86211 687.10462,152.88368 C 667.92517,139.67997 645.50922,133.63216 623.27027,130.18027 C 606.10591,126.77004 574.52479,109.44349 565.57393,133.0448 C 561.64139,159.03988 598.65117,160.75805 596.10798,184.85954 C 593.33687,203.49683 576.6264,212.92439 561.24109,217.21266 C 524.59366,230.16469 484.96965,233.05964 446.99349,225.89178 C 427.27889,225.37184 402.19618,226.58591 390.40051,205.93517 C 381.59761,183.24136 400.69505,164.41814 408.84555,145.39883 C 410.2644,140.71333 410.3276,135.19347 407.69734,130.95275"
       style="color:#000000;fill:url(#linearGradient7839);fill-opacity:1;fill-rule:nonzero;stroke:none;stroke-width:3.9000001;stroke-linecap:butt;stroke-linejoin:miter;marker:none;marker-start:none;marker-mid:none;marker-end:none;stroke-miterlimit:4;stroke-dasharray:none;stroke-dashoffset:0;stroke-opacity:1;visibility:visible;display:inline;overflow:visible" />
    <path
       style="color:#000000;fill:#939393;fill-opacity:1;fill-rule:nonzero;stroke:none;stroke-width:3.9000001;stroke-linecap:butt;stroke-linejoin:miter;marker:none;marker-start:none;marker-mid:none;marker-end:none;stroke-miterlimit:4;stroke-dasharray:none;stroke-dashoffset:0;stroke-opacity:1;visibility:visible;display:inline;overflow:visible"
       id="path1437"
       d="M 438.7533,254.91344 C 454.23821,260.01257 473.19767,261.44305 489.30855,264.24192 C 549.42207,269.69194 610.97852,274.27719 670.41728,260.88003 C 692.91185,255.16043 741.10619,237.51436 726.62152,195.60898 C 696.98449,146.89454 626.92044,137.11757 575.93854,130.74071 C 499.5032,122.95205 421.87895,129.85968 348.25027,151.85676 C 330.64445,158.16805 275.59178,170.63794 293.65778,198.88494 C 335.96055,236.86931 399.13397,248.06797 453.02769,258.17108 C 471.58988,261.29033 462.38472,259.83217 480.64171,262.55544 L 468.62406,277.34214 C 450.47809,274.10706 460.51106,275.8055 440.27368,274.13291 C 383.11746,262.33211 316.33494,251.20616 271.06723,211.32563 C 239.53012,163.07809 326.4061,141.59425 357.48597,132.76555 C 432.36111,113.59313 510.30706,107.74384 587.23911,115.53637 C 643.19017,122.26068 717.68731,132.46149 749.71653,186.16281 C 770.75415,242.96233 704.49651,271.10253 660.30774,280.0811 C 599.11393,291.07599 536.7125,285.79883 475.33331,278.56966 C 459.6814,276.82039 438.08543,275.03125 425.11813,271.15522 L 438.7533,254.91344 z "
       sodipodi:nodetypes="ccccccccccccccccccc" />
    <path
       style="color:#000000;fill:#939393;fill-opacity:1;fill-rule:nonzero;stroke:none;stroke-width:3.9000001;stroke-linecap:butt;stroke-linejoin:miter;marker:none;marker-start:none;marker-mid:none;marker-end:none;stroke-miterlimit:4;stroke-dasharray:none;stroke-dashoffset:0;stroke-opacity:1;visibility:visible;display:inline;overflow:visible"
       id="path1453"
       d="M 393.7557,126.82403 C 390.0045,123.69169 403.93537,125.33548 406.60327,125.45943 C 412.59967,125.63767 414.13554,124.17534 419.80385,126.09965 C 430.44669,130.84589 424.00123,138.69581 420.71093,147.19183 C 415.01908,159.3759 407.60099,170.75576 400.93795,182.47942 C 397.83369,189.1885 390.81355,197.34744 394.07106,204.75448 C 413.1475,217.94257 440.17217,220.42204 463.13483,222.29779 C 498.83831,224.49649 535.34394,220.23126 567.55451,205.08547 C 566.39379,206.60044 588.22634,194.76321 592.70124,179.51338 C 591.74109,169.88757 579.48932,164.6035 571.43367,160.42079 C 562.80459,156.13811 553.60645,152.2654 547.69904,144.72305 C 543.85394,138.02788 546.26482,132.2916 551.85045,127.58962 C 560.54331,121.63249 562.85323,123.11195 572.60808,119.36768 C 577.04452,117.56011 577.3346,117.8803 582.1256,117.91122 C 574.08842,123.08541 588.85997,123.15451 589.16748,123.16984 L 583.61496,130.2547 C 583.39799,130.28664 583.18103,130.3186 582.96406,130.35057 C 579.29196,131.2477 575.77764,132.50248 572.33721,134.0213 C 563.36405,137.52897 551.05914,138.78484 573.24209,127.90289 C 571.18332,128.70272 568.49212,134.36445 566.73207,134.36104 C 572.08807,139.95086 579.68335,142.9505 586.51627,146.74275 C 598.35138,153.24985 612.24557,161.57483 613.51773,175.63221 C 611.94448,199.68898 580.37435,212.48937 561.35355,221.56211 C 527.28888,234.95723 489.9044,238.51442 453.24042,236.06414 C 427.98428,233.96795 395.13197,232.05876 375.73298,214.95643 C 368.2714,204.15402 374.23045,192.8798 380.10732,182.66767 C 386.60127,171.24411 393.80912,160.16503 399.56945,148.3837 C 400.92033,145.29596 405.06549,139.59124 401.6797,139.50895 C 396.61924,138.77882 391.49991,138.68892 386.38515,138.61207 C 382.60947,138.45882 379.38096,138.69531 376.85244,135.68422 L 393.7557,126.82403 z "
       sodipodi:nodetypes="ccccccccccccccccccccccccccccccc" />
  </g>
  <g
     inkscape:groupmode="layer"
     id="layer3"
     inkscape:label="branding"
     style="display:inline">
    <g
       style="display:inline"
       id="g11486">
      <path
         id="path1497"
         d="M 249.61585,158.22874 C 203.67511,207.1581 193.22113,281.19008 199.45802,347.64837 C 192.93279,465.07561 195.58637,582.83135 193.86086,700.31992 C 189.78508,742.16542 177.70133,791.50893 204.62903,827.50272 C 239.17389,862.86951 288.2579,871.15795 330.31995,891.68343 C 451.1945,929.22637 579.00608,902.05775 697.23138,866.37824 C 762.35833,840.97031 810.92453,769.93834 807.21207,694.34283 C 813.29513,607.81271 808.84802,521.0179 806.46885,434.43095 C 818.27811,354.6758 827.47993,268.91109 799.69258,191.96609 C 767.70607,152.16647 727.81794,204.71449 695.30043,216.58704 C 644.97431,237.04982 590.69916,241.95708 537.9071,249.97063 C 479.24243,251.05769 420.25938,246.68634 362.96205,233.04517 C 317.04297,229.58367 272.56323,201.61073 249.61585,158.22874 z "
         style="opacity:1;color:#000000;fill:#018e0a;fill-opacity:1;fill-rule:nonzero;stroke:none;stroke-width:3.9000001;stroke-linecap:butt;stroke-linejoin:miter;marker:none;marker-start:none;marker-mid:none;marker-end:none;stroke-miterlimit:4;stroke-dasharray:none;stroke-dashoffset:0;stroke-opacity:1;visibility:visible;display:inline;overflow:visible" />
      <path
         id="path10522"
         d="M 360.62445,685.61407 C 340.77882,694.16922 314.1679,695.0786 298.41568,678.06564 C 285.85463,693.04791 290.01856,719.50234 269.43802,727.83324 C 255.61041,731.38054 242.583,740.87399 227.35608,738.70553 C 200.75647,737.16383 204.82272,706.67617 202.4248,688.10794 C 199.44357,664.97626 190.90228,642.50819 192.98531,618.81733 C 194.53194,595.67277 198.27566,572.72818 198.23053,549.4553 C 199.99549,530.21215 198.70307,506.55835 216.50079,494.11048 C 234.01465,481.00413 261.7368,478.94759 278.17497,494.88354 C 289.15973,507.00489 319.01292,512.21406 314.43473,488.08626 C 308.466,467.8769 322.94506,440.36116 346.55074,446.77873 C 375.8166,451.88903 394.47867,479.68649 422.97697,486.36202 C 448.60078,491.83907 441.22941,452.81222 466.13486,451.55066 C 502.59991,439.83176 542.18913,443.46018 577.96263,455.82995 C 598.92027,452.24703 627.22113,474.0934 611.66856,495.64531 C 598.07759,519.94488 571.81452,534.43948 559.90186,559.90052 C 535.75728,593.33445 492.04204,598.62623 454.98356,608.12915 C 433.60952,618.47813 406.71822,606.20905 387.22792,621.35398 C 371.06273,639.44045 377.32906,667.8507 360.62445,685.61407 z "
         style="opacity:1;color:#000000;fill:#293f00;fill-opacity:1;fill-rule:nonzero;stroke:none;stroke-width:3.9000001;stroke-linecap:butt;stroke-linejoin:miter;marker:none;marker-start:none;marker-mid:none;marker-end:none;stroke-miterlimit:4;stroke-dasharray:none;stroke-dashoffset:0;stroke-opacity:1;visibility:visible;display:inline;overflow:visible" />
      <path
         id="path9637"
         d="M 629.78125,475.09375 C 606.62679,476.11419 585.50207,529.33867 567.46875,546.625 C 540.70016,583.3867 497.25287,606.56083 451.84375,608.78125 C 416.36796,603.51219 373.93138,618.54145 362.625,655.65625 C 358.48876,692.99192 341.698,727.66637 319.75,757.78125 C 300.59211,793.60388 272.58494,822.42704 244.28125,851 C 363.73729,919.43149 515.42098,918.94924 645.3125,883.40625 C 708.12953,875.70031 753.80456,823.10786 804.875,790.96875 C 802.80753,745.99974 813.52221,700.16867 800.25,656.25 C 767.55228,627.34534 738.13616,595.00395 709.625,562.03125 C 686.05915,538.99154 670.40012,509.50288 647.875,485.96875 C 641.72743,477.98853 635.68337,474.83364 629.78125,475.09375 z "
         style="opacity:1;color:#000000;fill:#88cb00;fill-opacity:1;fill-rule:nonzero;stroke:none;stroke-width:3.9000001;stroke-linecap:butt;stroke-linejoin:miter;marker:none;marker-start:none;marker-mid:none;marker-end:none;stroke-miterlimit:4;stroke-dasharray:none;stroke-dashoffset:0;stroke-opacity:1;visibility:visible;display:inline;overflow:visible" />
      <path
         id="path7845"
         d="M 497.8125,437.03125 C 478.95919,437.37802 460.50592,441.36762 445.3125,454.09375 C 438.9728,459.88365 436.11646,466.95409 436.09375,474.375 C 422.40578,469.20185 409.05913,463.06943 395.6875,457.1875 C 379.15568,450.5052 363.18839,441.25259 345.3125,438.90625 C 326.39769,438.41141 309.4572,449.79585 303.375,467.375 C 301.14761,475.68577 302.08332,483.85356 304.46875,491.78125 C 291.95006,485.47268 279.25475,479.4671 265.78125,475.5 C 252.55522,471.34622 239.36593,471.68454 226.40625,476.28125 C 209.48582,483.57718 198.25313,492.1594 191.875,509.03125 C 189.05093,516.82473 189.20811,524.77115 190.65625,532.78125 C 191.10104,535.00212 191.98533,537.06906 192.75,539.1875 L 215.875,528.5625 C 215.39688,527.09551 214.72912,525.66707 214.5,524.125 C 213.71185,518.37191 214.27998,512.9264 216.875,507.625 C 219.21231,503.45282 225.04427,498.18306 228.46875,495.0625 C 235.51978,492.78537 242.90651,492.52968 250.71875,494.34375 C 268.58875,498.19295 284.92151,506.84132 301.15625,514.9375 C 314.19367,521.6698 327.33338,528.44393 339.34375,536.90625 C 358.01621,520.14627 360.08604,520.19731 352.75,514.8125 C 352.75306,514.80777 352.77882,514.78663 352.78125,514.78125 C 352.78537,514.76972 352.77713,514.73029 352.78125,514.71875 C 352.78369,514.71337 352.80943,514.69224 352.8125,514.6875 C 352.73525,514.69092 352.64445,514.68793 352.5625,514.6875 C 350.54265,513.21098 347.86114,511.32293 344.625,508.59375 C 338.47849,502.94518 332.98916,496.6685 329.71875,488.875 C 326.71332,481.37745 324.68867,473.46067 328.21875,465.75 C 329.22445,464.0561 332.05264,461.66294 334.5,459.71875 C 350.45567,459.07528 365.3326,468.9814 380.0625,473.90625 C 400.25742,482.41278 420.18837,491.53828 440.375,500.0625 C 457.08771,506.98836 475.92546,491.43541 461.53125,477.125 C 458.82839,469.70679 461.51103,464.30576 467.875,460.0625 C 467.96097,460.03288 468.04544,460.02535 468.125,460 C 483.07796,455.23472 499.19861,455.8793 514.625,457 C 542.67521,459.65145 570.68425,464.33334 597.84375,471.875 C 599.67073,472.45364 602.16103,473.66485 604.5,474.75 C 599.41949,485.40492 593.95814,495.88759 587.90625,506.03125 C 574.48323,528.42742 559.38236,550.19353 539.46875,567.34375 C 513.82104,588.52863 529.04462,578.34243 488.875,593.125 C 464.67027,598.73505 439.8283,601.03206 415,601 C 392.86192,601.14381 370.45954,607.61254 367.125,632.625 C 363.84277,645.92528 360.25232,659.17639 356.09375,672.21875 L 352.71875,671.75 C 352.41812,675.19686 349.03986,676.60263 346.09375,679.03125 C 345.56923,679.32059 345.07734,679.58946 344.625,679.84375 C 344.3264,679.94549 344.01536,680.07366 343.6875,680.1875 C 335.78483,681.81044 328.35041,679.14393 321.3125,675.71875 C 314.68977,672.14716 309.03902,667.18762 301.8125,664.90625 C 281.83652,671.47301 281.15935,676.50413 276.0625,692.53125 C 273.82737,700.15239 271.16808,707.61558 266.1875,713.875 C 266.0342,714.00764 265.86057,714.1428 265.6875,714.28125 C 261.47093,716.07125 255.06556,718.80089 251.875,719.71875 C 240.27939,722.96865 228.20803,723.96084 216.28125,722.40625 C 212.60049,722.01365 209.27482,720.59391 206,719 L 187.53125,736.21875 C 191.86149,738.91435 196.36108,741.2824 201.40625,742.34375 C 214.78527,744.94156 228.48059,744.43864 241.8125,741.625 C 260.01546,737.60874 280.56022,731.20043 291.21875,715 C 295.3959,707.392 298.1572,699.21032 300.8125,690.96875 C 301.77833,691.58933 302.69083,692.33628 303.53125,693.25 C 312.32183,698.02882 321.66651,701.91485 331.8125,702.21875 C 336.91111,701.99955 341.79905,700.90681 346.46875,699.15625 C 342.94737,707.86616 339.03242,716.4084 334.65625,724.78125 C 314.30281,764.06831 288.21442,800.10106 257.53125,832 C 251.96356,837.71215 246.29062,843.32907 240.46875,848.78125 C 245.49027,851.7372 250.55272,854.57037 255.6875,857.28125 C 263.29503,849.91422 270.66135,842.2836 277.875,834.53125 C 308.53295,801.5725 334.37114,764.5178 354.84375,724.46875 C 362.53347,709.88032 368.71862,694.69565 374.25,679.25 C 375.47189,677.68188 376.72374,676.07378 377.59375,675.15625 L 375.78125,674.90625 C 380.97887,660.03685 385.64398,644.94825 390.5,629.96875 C 391.19093,626.96264 392.79912,624.31713 394.46875,622.21875 C 397.31486,621.74406 400.23502,621.60244 403.0625,621.375 C 428.53427,620.26317 454.00905,618.48011 479.0625,613.5625 C 509.98532,607.38188 538.50283,592.4002 561.71875,571.15625 C 581.36578,552.27659 596.76851,529.57414 610.9375,506.4375 C 616.96454,497.16959 621.89947,487.27159 626.96875,477.46875 C 633.57715,487.33032 640.45818,496.97676 647.875,506.28125 C 667.13027,529.5388 686.34887,552.78549 704.84375,576.65625 C 718.63824,594.40153 732.00601,612.5284 746.6875,629.5625 C 753.46303,637.64936 761.05147,644.95871 769.53125,651.21875 C 773.48383,654.08021 777.93764,656.03897 782.4375,657.84375 C 784.80624,658.76039 798.28368,664.68709 800.65625,665.59375 L 806.78125,641.53125 C 804.37725,640.584 801.96238,639.59556 799.53125,638.71875 C 795.71451,637.31069 791.82785,636.0607 788.21875,634.15625 C 780.02061,629.22562 772.87542,622.88838 766.40625,615.84375 C 751.13703,599.57249 737.46498,581.89732 723.40625,564.59375 C 704.55771,541.1535 685.40965,517.91947 667.375,493.84375 C 659.12867,482.37124 651.71041,470.38346 644.28125,458.375 C 636.00448,446.38059 624.27557,445.59789 615.84375,454.15625 C 614.84215,453.94728 613.85662,453.73702 612.90625,453.5 C 584.62662,447.25391 556.0126,442.20142 527.25,438.75 C 518.35719,437.77514 509.18448,437.00071 500.09375,437.03125 C 499.63343,437.0328 499.1787,437.02557 498.71875,437.03125 C 498.41931,437.03495 498.11176,437.02575 497.8125,437.03125 z M 377.59375,675.15625 L 378.59375,675.28125 C 378.65877,675.05597 378.70527,674.85391 378.71875,674.71875 C 378.72079,674.69286 378.71863,674.64752 378.71875,674.625 C 378.7185,674.6143 378.71884,674.57853 378.71875,674.5625 C 378.71879,674.55973 378.71864,674.53442 378.71875,674.53125 C 378.7188,674.52846 378.71859,674.50326 378.71875,674.5 C 378.71302,674.49438 378.69328,674.47429 378.6875,674.46875 C 378.68758,674.46592 378.68724,674.44094 378.6875,674.4375 C 378.68122,674.43124 378.66045,674.41028 378.65625,674.40625 C 378.65277,674.40643 378.62783,674.40619 378.625,674.40625 C 378.61814,674.40644 378.5957,674.40656 378.59375,674.40625 C 378.5895,674.40627 378.56693,674.40592 378.5625,674.40625 C 378.55918,674.40615 378.53404,674.40626 378.53125,674.40625 C 378.52797,674.40607 378.50278,674.40628 378.5,674.40625 C 378.48951,674.41135 378.44837,674.43174 378.4375,674.4375 C 378.24064,674.53749 377.94162,674.78938 377.59375,675.15625 z M 330.96875,460.40625 C 324.97233,463.54623 322.38667,464.77991 321.875,464.9375 C 321.87221,464.93748 321.84682,464.93772 321.84375,464.9375 C 321.84194,464.93773 321.81949,464.93758 321.8125,464.9375 C 321.81242,464.93398 321.81236,464.90916 321.8125,464.90625 C 321.81942,464.89922 321.84183,464.87664 321.84375,464.875 C 322.45752,464.39989 327.28682,461.81404 330.96875,460.40625 z M 466.03125,460.8125 C 463.52643,462.09023 461.03582,463.4157 458.5,464.625 C 458.28017,464.72983 458.1074,464.79688 458,464.84375 C 458.83534,464.33833 462.9999,462.13005 466.03125,460.8125 z M 389.5625,623.46875 C 388.50974,624.08199 387.38481,624.78922 386.125,625.5 C 386.1014,625.51332 386.08136,625.52146 386.0625,625.53125 C 386.62538,625.1341 388.54743,623.88626 389.5625,623.46875 z M 385.875,625.59375 C 385.8784,625.59421 385.90334,625.5937 385.90625,625.59375 C 385.90632,625.59665 385.90584,625.62127 385.90625,625.625 C 385.9033,625.62505 385.87852,625.62509 385.875,625.625 C 385.87471,625.62142 385.87496,625.59666 385.875,625.59375 z M 261.625,717.0625 C 258.66476,718.89892 255.54568,720.53923 254.71875,720.90625 C 255.30917,720.51981 257.3536,719.35949 261.625,717.0625 z M 254.5,721 C 254.50371,721.00024 254.52833,720.99996 254.53125,721 C 254.53118,721.00698 254.53101,721.02936 254.53125,721.03125 C 254.52904,721.03143 254.50705,721.03115 254.5,721.03125 C 254.49989,721.02753 254.49998,721.00291 254.5,721 z "
         style="color:#000000;fill:#0ae700;fill-opacity:1;fill-rule:nonzero;stroke:none;stroke-width:3.9000001;stroke-linecap:butt;stroke-linejoin:miter;marker:none;marker-start:none;marker-mid:none;marker-end:none;stroke-miterlimit:4;stroke-dasharray:none;stroke-dashoffset:0;stroke-opacity:1;visibility:visible;display:inline;overflow:visible" />
    </g>
  </g>
  <g
     inkscape:groupmode="layer"
     id="layer2"
     inkscape:label="shine"
     style="display:inline">
    <path
       id="path11495"
       d="M 249.61585,158.22874 C 203.67511,207.1581 193.22113,281.19008 199.45802,347.64837 C 192.93279,465.07561 195.58637,582.83135 193.86086,700.31992 C 189.78508,742.16542 177.70133,791.50893 204.62903,827.50272 C 239.17389,862.86951 288.2579,871.15795 330.31995,891.68343 C 451.1945,929.22637 579.00608,902.05775 697.23138,866.37824 C 762.35833,840.97031 810.92453,769.93834 807.21207,694.34283 C 813.29513,607.81271 808.84802,521.0179 806.46885,434.43095 C 818.27811,354.6758 827.47993,268.91109 799.69258,191.96609 C 767.70607,152.16647 727.81794,204.71449 695.30043,216.58704 C 644.97431,237.04982 590.69916,241.95708 537.9071,249.97063 C 479.24243,251.05769 420.25938,246.68634 362.96205,233.04517 C 317.04297,229.58367 272.56323,201.61073 249.61585,158.22874 z "
       style="opacity:1;color:#000000;fill:url(#linearGradient10548);fill-opacity:1;fill-rule:nonzero;stroke:none;stroke-width:3.9000001;stroke-linecap:butt;stroke-linejoin:miter;marker:none;marker-start:none;marker-mid:none;marker-end:none;stroke-miterlimit:4;stroke-dasharray:none;stroke-dashoffset:0;stroke-opacity:1;visibility:visible;display:inline;overflow:visible" />
    <path
       style="opacity:1;color:#000000;fill:url(#linearGradient10552);fill-opacity:1;fill-rule:nonzero;stroke:none;stroke-width:3.9000001;stroke-linecap:butt;stroke-linejoin:miter;marker:none;marker-start:none;marker-mid:none;marker-end:none;stroke-miterlimit:4;stroke-dasharray:none;stroke-dashoffset:0;stroke-opacity:1;visibility:visible;display:inline;overflow:visible"
       d="M 249.61585,158.22874 C 203.67511,207.1581 193.22113,281.19008 199.45802,347.64837 C 192.93279,465.07561 195.58637,582.83135 193.86086,700.31992 C 189.78508,742.16542 177.70133,791.50893 204.62903,827.50272 C 239.17389,862.86951 288.2579,871.15795 330.31995,891.68343 C 451.1945,929.22637 579.00608,902.05775 697.23138,866.37824 C 762.35833,840.97031 810.92453,769.93834 807.21207,694.34283 C 813.29513,607.81271 808.84802,521.0179 806.46885,434.43095 C 818.27811,354.6758 827.47993,268.91109 799.69258,191.96609 C 767.70607,152.16647 727.81794,204.71449 695.30043,216.58704 C 644.97431,237.04982 590.69916,241.95708 537.9071,249.97063 C 479.24243,251.05769 420.25938,246.68634 362.96205,233.04517 C 317.04297,229.58367 272.56323,201.61073 249.61585,158.22874 z "
       id="path10550" />
  </g>
  <g
     inkscape:label="Layer 1"
     inkscape:groupmode="layer"
     id="layer1"
     style="display:inline">
    <path
       style="opacity:1;color:#000000;fill:#939393;fill-opacity:1;fill-rule:nonzero;stroke:none;stroke-width:3.9000001;stroke-linecap:butt;stroke-linejoin:miter;marker:none;marker-start:none;marker-mid:none;marker-end:none;stroke-miterlimit:4;stroke-dasharray:none;stroke-dashoffset:0;stroke-opacity:1;visibility:visible;display:inline;overflow:visible"
       id="path1319"
       d="M 450.85476,101.02907 C 423.28363,98.985243 395.6792,102.28043 368.44767,106.88782 C 322.44159,112.02773 271.28491,140.15707 265.79445,145.60302 C 241.3868,181.78908 316.73535,204.67991 337.68477,212.15621 C 425.94906,240.61758 519.26832,243.44069 609.84017,227.88024 C 666.25966,216.18113 725.91462,197.69001 744.02806,166.48272 C 751.71794,131.1883 684.93739,119.16491 663.64538,113.69317 C 594.08423,97.679693 522.53588,95.411753 451.6425,96.707793 C 422.51703,97.258633 393.44287,99.242963 364.42107,101.84771 L 375.28346,79.103293 C 404.28992,77.399653 433.31844,76.031173 462.37001,75.687643 C 534.30312,75.017593 606.7536,77.502723 677.47629,92.805103 C 710.44295,100.64441 781.50205,113.67725 772.40007,164.82798 C 745.66655,226.36075 654.13562,234.18577 601.39613,247.32982 C 508.96458,260.67893 414.42481,257.22171 324.04404,231.16074 C 291.32366,220.6684 210.14491,195.87734 237.61954,143.16285 C 271.3279,100.92965 331.61408,93.723293 378.88575,82.433123 C 408.12602,77.286233 437.62329,73.443563 467.18051,71.483671 L 450.85476,101.02907 z " />
    <path
       style="opacity:1;color:#000000;fill:#939393;fill-opacity:1;fill-rule:nonzero;stroke:none;stroke-width:3.9000001;stroke-linecap:butt;stroke-linejoin:miter;marker:none;marker-start:none;marker-mid:none;marker-end:none;stroke-miterlimit:4;stroke-dasharray:none;stroke-dashoffset:0;stroke-opacity:1;visibility:visible;display:inline;overflow:visible"
       d="M 272.66574,131.72514 C 262.96511,132.7976 248.00292,141.5703 241.44676,138.04141 C 225.20946,172.10102 203.26358,205.38705 187.83424,240.785 C 174.0807,289.63053 187.6848,341.38891 186.61991,391.39375 C 191.6504,487.59766 190.93873,584.20308 179.50996,679.87295 C 178.3557,718.19594 168.61497,756.35212 170.9931,794.5215 C 191.36401,822.67769 214.18644,852.53699 243.13476,871.31878 C 294.68,895.80439 351.89711,902.60296 407.46291,909.0383 C 515.16122,917.89466 626.77736,908.70235 727.21082,863.45887 C 755.94684,843.95929 788.8472,827.65842 805.95808,793.86098 C 829.66381,754.11764 816.88012,704.70444 819.01378,660.33341 C 817.58144,515.49925 822.37219,370.61223 826.31322,225.93584 C 820.57766,189.03461 785.83045,169.00189 772.24619,136.05984 C 762.67871,144.73301 731.56213,147.95351 751.99603,164.46245 C 771.58728,193.07512 803.498,219.22944 797.44486,258.89903 C 798.12213,426.93296 795.34205,595.0772 788.42921,762.89366 C 781.08321,786.72664 767.2855,809.89682 748.58266,825.44237 C 737.83799,832.22803 725.9153,837.50478 715.94464,845.05173 C 748.98709,827.70589 692.73765,859.0169 683.48557,860.29055 C 564.91045,901.35156 435.22593,904.61694 314.37087,872.73573 C 281.02795,863.89698 259.47142,844.40376 228.17677,822.51129 C 221.79778,814.28247 218.51599,803.4494 209.90428,797.27491 C 189.51366,772.88796 207.62398,737.73239 206.45287,708.2375 C 214.62997,619.94433 221.84151,531.33852 217.239,442.52961 C 217.4202,381.20948 208.92955,319.87741 212.43756,258.66542 C 223.6914,213.208 256.39545,178.02084 272.78133,134.86044 L 272.66574,131.72514 z "
       id="path1323"
       sodipodi:nodetypes="ccccccccccccccccccccccccccc" />
  </g>
</svg>
