<?xml version="1.0" encoding="UTF-8" standalone="no"?>
<!-- Created with Inkscape (http://www.inkscape.org/) -->
<svg
   xmlns:dc="http://purl.org/dc/elements/1.1/"
   xmlns:cc="http://web.resource.org/cc/"
   xmlns:rdf="http://www.w3.org/1999/02/22-rdf-syntax-ns#"
   xmlns:svg="http://www.w3.org/2000/svg"
   xmlns="http://www.w3.org/2000/svg"
   xmlns:sodipodi="http://inkscape.sourceforge.net/DTD/sodipodi-0.dtd"
   xmlns:inkscape="http://www.inkscape.org/namespaces/inkscape"
   width="744.09448819"
   height="1052.3622047"
   id="svg2"
   sodipodi:version="0.32"
   inkscape:version="0.43"
   sodipodi:docbase="C:\Documents and Settings\Cowbert\Desktop"
   sodipodi:docname="title.svg">
  <defs
     id="defs4" />
  <sodipodi:namedview
     id="base"
     pagecolor="#ffffff"
     bordercolor="#666666"
     borderopacity="1.0"
     inkscape:pageopacity="0.0"
     inkscape:pageshadow="2"
     inkscape:zoom="1.979899"
     inkscape:cx="459.65113"
     inkscape:cy="902.45216"
     inkscape:document-units="px"
     inkscape:current-layer="layer1"
     inkscape:window-width="1280"
     inkscape:window-height="913"
     inkscape:window-x="-4"
     inkscape:window-y="-4" />
  <metadata
     id="metadata7">
    <rdf:RDF>
      <cc:Work
         rdf:about="">
        <dc:format>image/svg+xml</dc:format>
        <dc:type
           rdf:resource="http://purl.org/dc/dcmitype/StillImage" />
      </cc:Work>
    </rdf:RDF>
  </metadata>
  <g
     inkscape:label="Layer 1"
     inkscape:groupmode="layer"
     id="layer1">
    <path
       style="fill:#000000;fill-opacity:1;fill-rule:nonzero;stroke:none;stroke-width:1px;stroke-linecap:butt;stroke-linejoin:miter;stroke-opacity:1"
       id="path1403"
       d="M 246.47203,136.57742 C 246.69756,136.09017 247.04574,135.62806 247.33147,135.15525 C 248.53664,133.65505 248.21136,132.19058 248.137,130.59419 C 247.19186,128.41755 244.84926,127.31693 242.33433,126.07328 C 238.6925,124.50452 234.75952,124.10841 230.5981,123.92009 C 225.19224,123.94665 220.20367,125.17472 215.33887,126.70049 C 210.31152,128.36512 206.38523,130.97391 202.92601,133.95648 C 213.99021,122.13023 207.08031,127.76151 206.94059,134.67619 C 207.32845,137.67103 209.61714,139.80476 212.41613,141.92611 C 215.64969,144.10738 219.63432,145.37935 223.7457,146.50793 C 228.05683,147.59124 232.49255,147.57989 236.984,147.38023 C 241.41056,147.0819 245.41183,145.8496 249.35213,144.50301 C 253.15953,143.13424 256.37647,141.18249 259.54434,139.20233 C 264.88803,136.07607 275.40659,124.63294 260.27455,140.34063 C 262.92379,137.61839 264.61759,134.54625 266.30746,131.4947 C 267.31887,129.76035 268.05756,127.9595 268.83668,126.17454 C 270.37705,123.71203 273.23894,121.7684 275.52299,119.60751 C 274.49133,121.7054 273.578,123.83131 272.62849,125.94806 C 271.15161,128.72903 270.50109,131.60614 270.18823,134.54208 C 270.04692,137.24219 271.6652,139.15617 273.89977,141.1862 C 276.50679,142.9281 279.42955,142.966 282.8028,142.97554 C 286.49581,142.72283 289.57971,141.46943 292.69881,140.18957 C 296.08651,138.62398 298.65663,136.45012 301.18577,134.26846 C 284.95175,152.45419 295.83923,140.26724 299.51664,134.88639 C 302.0078,130.57409 305.51001,127.66684 309.4332,123.60939 C 308.59774,124.9647 307.77239,126.32292 306.95037,127.68231 C 305.3002,129.95533 304.9066,132.34655 304.70933,134.83337 C 304.84392,137.36482 306.66884,139.04385 308.91318,140.85999 C 311.49862,142.54408 314.50054,142.88709 317.84061,143.15159 C 321.69881,143.17654 324.93518,142.02987 328.21501,140.76207 C 332.27469,138.98879 335.44167,136.50947 338.44112,133.94281 C 341.04013,127.55197 328.00296,147.78089 339.46427,131.48404 C 342.22534,127.59334 344.19338,123.47918 345.94834,119.32381 C 347.59105,115.28246 348.6954,111.15366 349.44646,106.98984 C 350.062,104.0962 349.65575,101.34793 348.49902,98.591517 C 347.11528,96.75704 346.09675,97.266542 343.78972,97.13228 C 341.01146,98.023812 339.26511,99.718524 337.39484,101.33417 C 341.7778,98.338289 345.67204,91.416007 338.74492,100.78314 C 336.49933,103.90745 334.92277,107.22072 333.52156,110.56755 C 332.04891,114.09579 331.37745,117.7333 330.96066,121.38515 C 330.57017,124.90851 331.42817,128.33099 332.67545,131.71655 C 334.02149,134.9083 336.86832,137.32741 340.13351,139.63498 C 343.44315,141.71887 347.45223,142.56822 351.68202,143.22831 C 355.8603,143.74845 359.89607,143.28041 363.92358,142.53162 C 372.05575,139.95722 376.18645,133.6281 364.07383,146.04203 C 365.80644,143.88542 365.44444,141.87559 364.81836,139.57717 C 363.77998,137.15941 361.40874,135.35503 359.0875,133.50828 C 356.3941,131.61661 353.32967,130.01575 350.36817,128.341 C 345.72568,124.17931 348.74588,126.33264 356.97214,118.33855 C 359.19269,118.83943 361.21607,119.69344 363.27183,120.4533 C 366.54775,121.73202 369.77739,123.06772 373.0317,124.37312 C 376.69888,125.82585 380.33718,127.3134 383.98045,128.79521 C 387.76189,130.39138 391.65914,131.83686 395.60944,133.21323 C 399.67066,134.68996 403.96723,135.41641 408.45827,135.79576 C 412.85124,135.98019 416.45288,134.82468 420.08533,133.27598 C 431.41462,124.08649 413.43853,143.11252 419.5241,134.63132 C 421.36943,131.99744 421.42242,129.34454 421.10946,126.52091 C 420.32261,123.92701 418.13791,122.54959 415.20616,121.13911 C 411.37689,120.14439 408.1875,121.05207 404.67136,122.16348 C 400.50949,123.74665 397.50017,126.19582 394.61771,128.7517 C 407.77407,113.23593 398.99703,124.24677 397.92264,129.53208 C 397.58014,132.43184 398.78142,135.03143 400.43533,137.62618 C 402.29073,140.10622 405.32015,141.62097 408.61531,143.06057 C 412.3595,144.5401 416.50202,145.16287 420.68299,145.6734 C 423.12884,145.94312 425.59517,145.84357 428.05436,145.80478 L 420.05713,154.10685 C 417.59794,154.14563 415.13161,154.24517 412.68576,153.97545 C 408.50481,153.46494 404.36226,152.84216 400.6181,151.36263 C 397.32294,149.92303 394.29351,148.40827 392.43811,145.92823 C 390.78421,143.33349 389.58292,140.73389 389.92543,137.83414 C 391.32232,130.96218 396.38239,126.12892 402.61493,120.44964 C 405.49738,117.89376 408.5067,115.44458 412.66859,113.86143 C 416.18472,112.75001 419.37412,111.84233 423.20338,112.83704 C 426.13512,114.24752 428.31984,115.62494 429.10669,118.21884 C 429.41964,121.04249 429.36666,123.69538 427.52133,126.32926 C 423.53056,131.89102 418.84097,137.47828 412.08811,141.57803 C 408.45567,143.12673 404.85401,144.28225 400.46104,144.09781 C 395.97,143.71846 391.67344,142.99201 387.61221,141.51528 C 383.66192,140.13892 379.76467,138.69344 375.98323,137.09727 C 372.33996,135.61545 368.70166,134.12792 365.03447,132.67518 C 361.78016,131.36979 358.55053,130.03407 355.27461,128.75537 C 353.21885,127.99549 351.19548,127.14149 348.97493,126.6406 C 355.78067,119.0526 352.53911,116.63824 358.36538,120.03895 C 361.3269,121.7137 364.39133,123.31455 367.08472,125.20622 C 369.40598,127.05298 371.7772,128.85736 372.81559,131.27511 C 373.44166,133.57354 373.80366,135.58337 372.07105,137.73997 C 366.97673,143.0845 364.18994,148.32517 355.92636,150.83367 C 351.89884,151.58246 347.86309,152.0505 343.68479,151.53038 C 339.45501,150.87028 335.44592,150.02093 332.13629,147.93704 C 328.8711,145.62946 326.02426,143.21035 324.67823,140.01862 C 323.43094,136.63305 322.57294,133.21057 322.96344,129.6872 C 323.38022,126.03535 324.05168,122.39786 325.52435,118.86961 C 326.92553,115.52277 328.50212,112.2095 330.7477,109.0852 C 334.9262,103.43487 339.92755,98.136031 345.39206,93.032108 C 347.26232,91.416471 349.0087,89.721759 351.78694,88.830227 C 354.09398,88.964479 355.11249,88.454987 356.49623,90.289464 C 357.65297,93.045876 358.05923,95.794149 357.44369,98.687775 C 356.69263,102.85161 355.58827,106.9804 353.94555,111.02175 C 352.1906,115.17711 350.22255,119.29127 347.46149,123.18199 C 342.71833,129.92628 336.99837,136.25951 330.4439,142.24488 C 327.44444,144.81152 324.27746,147.29085 320.21778,149.06412 C 316.93796,150.33194 313.70159,151.47859 309.84339,151.45364 C 306.50332,151.18915 303.50141,150.84613 300.91595,149.16205 C 298.67161,147.3459 296.84669,145.66687 296.71212,143.13544 C 296.90937,140.6486 297.30299,138.2574 298.95316,135.98437 C 299.77517,134.62497 300.60051,133.26676 301.43598,131.91145 C 315.36028,117.40274 309.93011,122.35978 307.51386,126.58433 C 303.62046,132.28122 298.75956,137.56472 293.18854,142.57053 C 290.65941,144.75217 288.0893,146.92605 284.70159,148.49162 C 281.5825,149.7715 278.49859,151.02489 274.80557,151.2776 C 271.43231,151.26806 268.50957,151.23016 265.90255,149.48826 C 263.66797,147.45823 262.0497,145.54424 262.191,142.84413 C 262.50386,139.90819 263.15439,137.03109 264.63128,134.25012 C 265.58078,132.13336 266.49412,130.00745 267.52578,127.90957 C 270.25182,124.88809 272.62807,116.41449 276.83391,117.87248 C 276.05477,119.65744 275.31609,121.45829 274.30468,123.19264 C 272.61481,126.2442 270.92101,129.31633 268.27178,132.03857 C 263.05857,137.45083 258.38549,143.03353 251.54712,147.5044 C 248.37924,149.48454 245.1623,151.43629 241.3549,152.80508 C 237.41461,154.15165 233.41333,155.38396 228.98679,155.6823 C 224.49532,155.88194 220.0596,155.89331 215.74846,154.80998 C 211.6371,153.68141 207.65247,152.40945 204.4189,150.22816 C 201.61993,148.10682 199.33124,145.9731 198.94337,142.97825 C 199.08516,135.96179 204.61573,131.46085 210.92323,125.65442 C 214.38245,122.67184 218.30874,120.06307 223.33609,118.39842 C 228.20089,116.87267 233.18946,115.64458 238.59532,115.61804 C 242.75674,115.80635 246.68971,116.20246 250.33155,117.77123 C 252.84648,119.01487 255.18908,120.1155 256.13421,122.29212 C 256.20859,123.88852 256.53387,125.35299 255.32869,126.85319 C 255.04295,127.326 254.69477,127.78811 254.46925,128.27537 L 246.47203,136.57742 z "
       inkscape:export-filename="C:\Documents and Settings\Cowbert\Desktop\title.png"
       inkscape:export-xdpi="72"
       inkscape:export-ydpi="72" />
    <path
       style="fill:#000000;fill-opacity:1;fill-rule:nonzero;stroke:none;stroke-width:1px;stroke-linecap:butt;stroke-linejoin:miter;stroke-opacity:1"
       id="path1405"
       d="M 489.50021,125.28651 C 488.35219,125.17603 487.21759,125.00278 486.07721,124.85908 C 482.56302,124.33692 479.01637,123.9461 475.46488,123.57512 C 470.71692,123.00838 465.93538,123.08038 461.15945,123.35062 C 455.73756,123.68874 450.6009,124.87044 445.57485,126.26195 C 441.50046,127.39787 437.87493,129.09378 434.29254,130.82915 C 432.28222,129.72273 441.15401,123.25937 444.82713,120.58646 C 447.6294,118.56733 450.10935,116.36014 452.52243,114.11439 C 446.44097,120.03911 445.22924,122.26999 452.39491,113.64354 C 455.76535,109.31473 461.61193,103.91201 464.86825,100.67993 C 464.64051,102.84945 463.82289,104.98983 463.16061,107.11562 C 461.88163,110.94519 460.70785,114.78955 459.64869,118.65165 C 458.48522,122.63017 457.8741,126.65232 457.80548,130.7071 C 457.7914,134.25125 459.52156,137.40563 461.74952,140.50513 C 464.00783,143.23368 467.39246,145.01593 471.17448,146.58449 C 474.98199,147.8968 478.98283,147.92125 483.10213,147.74102 C 487.74834,147.2862 491.78405,145.70625 495.78234,144.09857 C 500.47552,142.0643 504.74766,139.6072 508.99805,137.15371 C 509.61758,136.78633 510.2359,136.41794 510.85483,136.05006 L 502.8576,144.35211 C 502.23868,144.72001 501.62037,145.08839 501.00083,145.45577 C 496.75045,147.90926 492.47831,150.36637 487.78512,152.40062 C 483.78684,154.00831 479.75113,155.58826 475.10491,156.04309 C 470.9856,156.22331 466.98475,156.19886 463.17726,154.88655 C 459.39525,153.31798 456.0106,151.53574 453.7523,148.80718 C 451.52434,145.70769 449.79419,142.5533 449.80826,139.00915 C 449.87687,134.95439 450.48799,130.93222 451.65147,126.95372 C 452.71063,123.09161 453.88441,119.24725 455.1634,115.41767 C 455.82568,113.2919 456.64328,111.1515 456.87103,108.98199 C 459.63667,105.95131 467.26171,97.392202 460.39213,105.34149 C 455.51283,111.21547 450.17493,116.88522 444.52521,122.41645 C 442.11214,124.6622 439.63218,126.86939 436.8299,128.88851 C 429.9052,133.92757 437.14178,127.43964 442.28976,122.52709 C 445.87214,120.79172 449.49767,119.09581 453.57208,117.95989 C 458.59814,116.56837 463.73477,115.38669 469.15666,115.04855 C 473.93259,114.77832 478.71414,114.70633 483.46211,115.27305 C 487.0136,115.64405 490.56023,116.03487 494.07443,116.55703 C 495.21482,116.70073 496.34941,116.87397 497.49743,116.98445 L 489.50021,125.28651 z "
       inkscape:export-filename="C:\Documents and Settings\Cowbert\Desktop\title.png"
       inkscape:export-xdpi="72"
       inkscape:export-ydpi="72" />
    <path
       style="fill:#000000;fill-opacity:1;fill-rule:nonzero;stroke:none;stroke-width:1px;stroke-linecap:butt;stroke-linejoin:miter;stroke-opacity:1"
       id="path1407"
       d="M 542.1934,144.8644 C 541.54672,145.21931 540.88264,145.56183 540.22796,145.91018 C 537.21427,147.35381 533.69988,148.04471 530.25049,148.78269 C 525.30311,149.90979 520.68023,149.53494 515.81643,148.58357 C 510.86277,147.19489 508.76701,144.65491 507.01952,141.33795 C 505.80403,137.66088 507.01181,134.22863 508.90038,130.79766 C 513.61807,124.46876 519.19799,118.26475 527.04794,113.66571 C 530.89845,111.5459 533.91159,111.38771 538.21858,112.40669 C 542.06357,114.61641 543.96468,117.83815 545.81319,120.98288 C 547.86792,124.87574 549.23353,128.9213 550.77591,132.92249 C 552.11994,136.76901 554.55551,140.16345 558.18403,143.1647 C 562.69822,146.19292 567.46142,146.18999 573.05283,144.88727 C 580.86377,142.07278 586.45826,137.29647 591.46386,132.36996 C 578.42038,148.72728 594.66252,125.24376 597.27961,119.5926 C 600.40418,112.58542 602.03226,105.32391 602.65639,98.011278 C 602.99346,93.607856 602.46752,89.425889 598.31807,86.091726 C 593.28942,84.996218 590.32941,87.490431 587.16464,89.992307 C 595.42315,80.866149 589.72181,86.807703 585.22998,96.425106 C 582.64844,102.27573 580.97406,108.29857 579.86883,114.36631 C 578.80825,119.28989 579.12037,124.10087 581.04318,128.86821 C 582.95255,132.75575 586.50138,135.79581 590.90974,138.40954 C 595.31201,140.70518 600.43436,141.47937 605.77744,141.81391 C 611.50435,142.03449 616.74554,140.79886 621.8619,139.15544 C 627.09804,137.38582 631.09196,134.59231 634.666,131.4587 C 623.56821,143.30985 630.65551,137.17697 631.54378,130.22274 C 631.51971,127.5395 629.863,126.20078 627.24173,124.58934 C 624.01871,123.78538 621.69374,124.66728 618.87185,125.70272 C 607.54617,134.50896 625.00978,116.88443 619.80434,123.63913 C 617.77244,126.44416 617.86107,129.30946 618.32492,132.3343 C 619.17804,135.68219 621.96813,138.11268 625.17876,140.51176 C 628.91094,142.99155 633.49945,144.34931 638.31933,145.42747 C 642.18705,146.24264 646.20316,146.30858 650.20301,146.35816 L 642.2058,154.66022 C 638.20595,154.61064 634.18984,154.5447 630.32211,153.72952 C 625.50223,152.65137 620.91371,151.29361 617.18154,148.81381 C 613.97092,146.41474 611.18083,143.98424 610.32769,140.63637 C 609.86386,137.61152 609.77523,134.74621 611.80712,131.94118 C 615.85948,126.68276 620.20679,121.21191 626.86907,117.40067 C 629.69095,116.36523 632.01593,115.48332 635.23894,116.28727 C 637.86023,117.89871 639.51694,119.23744 639.54101,121.92068 C 638.63649,129.00212 632.94221,133.94581 626.66877,139.76075 C 623.09474,142.89438 619.10081,145.68787 613.86467,147.4575 C 608.74833,149.10092 603.50713,150.33654 597.78022,150.11597 C 592.43715,149.78144 587.3148,149.00724 582.91252,146.7116 C 578.50416,144.09786 574.95534,141.0578 573.04595,137.17027 C 571.12316,132.40292 570.81103,127.59196 571.87161,122.66836 C 572.97683,116.60062 574.65122,110.57779 577.23275,104.72716 C 581.21845,96.193446 586.82565,88.753071 595.16185,81.690254 C 598.32662,79.188377 601.28664,76.694154 606.31529,77.789662 C 610.46474,81.123825 610.99068,85.305803 610.65361,89.709214 C 610.02948,97.021843 608.4014,104.28335 605.27682,111.29055 C 600.33765,121.95588 593.33245,131.73611 583.46663,140.67202 C 578.46105,145.59852 572.86653,150.37483 565.0556,153.18933 C 559.4642,154.49205 554.70101,154.49497 550.18681,151.46677 C 546.5583,148.46552 544.12273,145.07108 542.77869,141.22454 C 541.23632,137.22335 539.8707,133.17779 537.81597,129.28494 C 535.96746,126.1402 534.06635,122.91846 530.22135,120.70875 C 525.91437,119.68977 522.90124,119.84795 519.05072,121.96777 C 503.32707,131.17978 524.60321,116.94637 516.8976,122.4956 C 515.00905,125.92657 513.80126,129.35883 515.01674,133.0359 C 516.76424,136.35285 518.85998,138.89283 523.81364,140.2815 C 528.67746,141.23289 533.30033,141.60773 538.24772,140.48064 C 541.69709,139.74266 545.21151,139.05174 548.22519,137.60813 C 548.87987,137.25978 549.54395,136.91725 550.19062,136.56234 L 542.1934,144.8644 z "
       inkscape:export-filename="C:\Documents and Settings\Cowbert\Desktop\title.png"
       inkscape:export-xdpi="72"
       inkscape:export-ydpi="72" />
  </g>
</svg>
