<?xml version="1.0" encoding="UTF-8" standalone="no"?>
<!-- Created with Inkscape (http://www.inkscape.org/) -->
<svg
   xmlns:dc="http://purl.org/dc/elements/1.1/"
   xmlns:cc="http://web.resource.org/cc/"
   xmlns:rdf="http://www.w3.org/1999/02/22-rdf-syntax-ns#"
   xmlns:svg="http://www.w3.org/2000/svg"
   xmlns="http://www.w3.org/2000/svg"
   xmlns:sodipodi="http://inkscape.sourceforge.net/DTD/sodipodi-0.dtd"
   xmlns:inkscape="http://www.inkscape.org/namespaces/inkscape"
   width="744.09448819"
   height="1052.3622047"
   id="svg2"
   sodipodi:version="0.32"
   inkscape:version="0.43"
   sodipodi:docbase="C:\Program Files\Inkscape"
   sodipodi:docname="castle-2.svg">
  <defs
     id="defs4" />
  <sodipodi:namedview
     id="base"
     pagecolor="#ffffff"
     bordercolor="#666666"
     borderopacity="1.0"
     inkscape:pageopacity="0.0"
     inkscape:pageshadow="2"
     inkscape:zoom="0.7"
     inkscape:cx="374.30761"
     inkscape:cy="698.96916"
     inkscape:document-units="px"
     inkscape:current-layer="layer1"
     inkscape:window-width="1280"
     inkscape:window-height="977"
     inkscape:window-x="-4"
     inkscape:window-y="-4" />
  <metadata
     id="metadata7">
    <rdf:RDF>
      <cc:Work
         rdf:about="">
        <dc:format>image/svg+xml</dc:format>
        <dc:type
           rdf:resource="http://purl.org/dc/dcmitype/StillImage" />
      </cc:Work>
    </rdf:RDF>
  </metadata>
  <g
     inkscape:label="Layer 1"
     inkscape:groupmode="layer"
     id="layer1">
    <path
       style="fill:#000000;fill-opacity:1;fill-rule:nonzero;stroke:none;stroke-width:1px;stroke-linecap:butt;stroke-linejoin:miter;stroke-opacity:1"
       id="path1331"
       d="M 95.041844,482.46671 C 96.675519,482.95125 98.465751,482.98091 100.16568,483.14183 C 110.9545,484.23332 121.78954,484.24027 132.60075,483.52758 C 152.76079,482.05551 172.69019,478.49372 192.49384,474.56049 C 214.61563,470.14076 236.50931,464.67535 258.22626,458.58661 C 275.1758,453.81502 292.00709,448.61578 308.59948,442.71628 C 312.31088,441.36907 310.47126,442.04215 314.1185,440.69746 L 309.46158,451.0755 C 305.78963,452.40966 307.64228,451.74243 303.90348,453.07669 C 287.22524,458.91187 270.32825,464.09697 253.30936,468.84403 C 231.50821,474.89874 209.52816,480.31719 187.32445,484.69302 C 167.38214,488.59893 147.30596,492.1078 127.0024,493.42955 C 116.02037,494.04641 105.01941,493.90997 94.074161,492.74828 C 92.761081,492.60428 90.127269,492.15764 89.251498,492.25765 L 95.041844,482.46671 z " />
    <path
       style="fill:#000000;fill-opacity:1;fill-rule:nonzero;stroke:none;stroke-width:1px;stroke-linecap:butt;stroke-linejoin:miter;stroke-opacity:1"
       id="path1333"
       d="M 313.61327,443.181 C 315.81504,444.53042 318.11277,445.72604 320.37232,446.97865 C 329.61325,452.13403 339.09693,456.8348 348.80784,461.03711 C 364.41289,467.80841 380.77498,472.5697 397.27578,476.5844 C 417.14007,481.31326 437.29539,484.69526 457.49965,487.58826 C 475.18787,490.06985 492.93288,492.13537 510.71229,493.84057 C 513.91387,494.14605 517.11752,494.42883 520.32122,494.71081 L 514.25614,504.33398 C 511.04428,504.04707 507.83247,503.75934 504.62283,503.44832 C 486.79537,501.7116 469.0019,499.62043 451.26722,497.10389 C 430.96115,494.16032 410.7053,490.71998 390.75091,485.90196 C 374.07104,481.79221 357.54632,476.88957 341.78559,469.98578 C 331.98685,465.70234 322.41326,460.92943 313.07969,455.70838 C 312.21752,455.22983 307.00402,452.00059 307.82293,452.97194 L 313.61327,443.181 z " />
    <path
       style="fill:#000000;fill-opacity:1;fill-rule:nonzero;stroke:none;stroke-width:1px;stroke-linecap:butt;stroke-linejoin:miter;stroke-opacity:1"
       id="path1335"
       d="M 520.60976,495.19273 C 520.69409,497.12947 520.09714,499.38521 519.78075,501.38708 C 518.48602,509.03109 517.35752,516.7003 516.3938,524.39271 C 515.02365,535.38354 514.78967,546.4708 515.63074,557.50906 C 516.64403,570.79281 519.62126,583.78547 523.95742,596.35618 C 529.22769,611.32697 536.46807,625.49981 544.72595,639.02452 C 552.45912,651.8504 561.84008,663.53976 572.00019,674.5063 C 574.68567,677.35907 573.34863,675.9462 576.01101,678.74522 L 567.90368,686.72406 C 565.2215,683.90481 566.56963,685.32898 563.85962,682.45123 C 553.53402,671.31259 543.98649,659.44909 536.09852,646.43788 C 527.67659,632.7162 520.28089,618.34061 514.84244,603.16117 C 510.3382,590.34596 507.1497,577.11538 505.99401,563.55257 C 505.01734,552.31905 505.09318,541.02414 506.39443,529.81519 C 507.30411,522.07312 508.39923,514.35442 509.70634,506.66882 C 509.93716,505.22928 510.29766,501.32432 510.81882,500.98308 L 520.60976,495.19273 z " />
    <path
       style="fill:#000000;fill-opacity:1;fill-rule:nonzero;stroke:none;stroke-width:1px;stroke-linecap:butt;stroke-linejoin:miter;stroke-opacity:1"
       id="path1337"
       d="M 308.61327,445.32385 C 310.90283,446.86784 310.70606,448.40187 310.81468,450.95481 C 310.98264,457.44256 311.01619,463.93305 311.06158,470.42257 C 311.1504,483.1177 311.38499,495.81134 311.57004,508.50534 C 311.78125,523.55102 311.76357,538.6005 311.34769,553.64246 C 310.9701,566.97268 310.0429,580.28634 308.48405,593.53074 C 307.15325,604.60837 305.22754,615.60589 302.91335,626.51806 C 301.01749,635.37729 298.80946,644.16439 296.39486,652.89525 C 294.51012,659.71479 292.3673,666.45773 290.10319,673.15955 C 288.29545,678.76843 286.08481,684.22075 283.42242,689.47534 C 281.83902,692.65614 279.79213,695.5521 277.69615,698.40616 L 266.88937,701.95639 C 269.0448,699.31377 271.16982,696.63462 272.8398,693.64653 C 275.63549,688.61679 277.97166,683.36127 279.75577,677.88411 C 282.0469,671.24407 284.22544,664.56444 286.13296,657.8028 C 288.58118,649.14128 290.82871,640.42489 292.75189,631.63034 C 295.1203,620.82039 297.08394,609.91909 298.47687,598.9388 C 300.11764,585.79726 301.07497,572.57641 301.50294,559.34084 C 301.96661,544.34568 301.99327,529.34136 301.80607,514.34104 C 301.62293,501.63848 301.39095,488.93633 301.28247,476.23287 C 301.24123,469.76545 301.20422,463.29761 301.07515,456.83122 C 301.01464,454.34136 300.38191,452.59014 302.82293,455.1148 L 308.61327,445.32385 z " />
    <path
       style="fill:#000000;fill-opacity:1;fill-rule:nonzero;stroke:none;stroke-width:1px;stroke-linecap:butt;stroke-linejoin:miter;stroke-opacity:1"
       id="path1341"
       d="M 97.752613,483.76035 C 97.75678,486.10416 97.754255,488.44778 97.727067,490.79142 C 97.579858,499.41169 97.354681,508.03027 96.989022,516.64415 C 96.46932,529.26117 95.390028,541.84807 93.896137,554.38549 C 92.350556,566.80681 90.176241,579.15573 87.209971,591.31809 C 84.997589,600.62346 81.842029,609.65104 77.890794,618.35154 C 75.584536,623.34682 72.785196,628.08177 69.76123,632.6697 L 59.040837,636.47283 C 62.126205,632.07037 65.010974,627.52782 67.37564,622.68999 C 71.459433,614.24204 74.737724,605.44432 76.995985,596.3246 C 80.068853,584.30943 82.269475,572.08254 83.887049,559.79001 C 85.451254,547.33992 86.54454,534.83035 87.116833,522.29486 C 87.515041,513.71047 87.743644,505.12007 87.904653,496.52821 C 87.949445,494.20243 87.976606,491.87697 87.961673,489.5507 L 97.752613,483.76035 z " />
    <path
       style="fill:#000000;fill-opacity:1;fill-rule:nonzero;stroke:none;stroke-width:1px;stroke-linecap:butt;stroke-linejoin:miter;stroke-opacity:1"
       id="path1347"
       d="M 60.454055,629.05861 C 59.435504,628.20848 62.73025,629.55696 63.262631,629.72044 C 69.663232,631.48511 76.146141,632.93804 82.622434,634.39464 C 94.318827,636.97801 106.05539,639.37357 117.76605,641.89038 C 131.00427,644.73914 144.1895,647.83296 157.29514,651.2406 C 169.25779,654.39554 181.08937,658.0312 192.80929,661.98965 C 203.21168,665.49313 213.52662,669.24818 223.75798,673.22218 C 232.45417,676.6234 241.12039,680.10042 249.77039,683.61723 C 256.20136,686.26288 262.60024,688.9857 268.9832,691.74489 C 271.51089,692.84133 274.04369,693.92592 276.57074,695.02381 L 269.55032,703.97391 C 267.0221,702.88088 264.4917,701.79288 261.96486,700.69663 C 255.60394,697.95391 249.22859,695.24384 242.8176,692.61996 C 234.18353,689.11406 225.53375,685.64657 216.85181,682.26073 C 206.66525,678.31679 196.38985,674.60622 186.03496,671.12743 C 174.38352,667.22117 162.62394,663.62857 150.73057,660.53021 C 137.66471,657.15846 124.52175,654.09296 111.32712,651.26752 C 99.604137,648.75531 87.856025,646.35981 76.153768,643.7513 C 69.598787,642.26483 63.027088,640.80582 56.57301,638.92042 C 55.141085,638.4396 53.567159,638.10874 52.410715,637.10195 L 60.454055,629.05861 z " />
    <path
       style="fill:#000000;fill-opacity:1;fill-rule:nonzero;stroke:none;stroke-width:1px;stroke-linecap:butt;stroke-linejoin:miter;stroke-opacity:1"
       id="path1349"
       d="M 280.04184,696.03814 C 281.07665,695.88798 282.10651,695.47663 283.12348,695.17653 C 288.37118,693.57346 293.6629,692.12686 298.97273,690.74552 C 307.65847,688.47632 316.5105,686.94615 325.40026,685.74391 C 336.6431,684.27058 347.95473,683.42426 359.26141,682.6221 C 368.49621,681.91491 377.74795,681.47071 386.98966,680.87279 C 398.33456,679.22066 397.17449,675.84802 389.94177,682.69876 C 391.83893,676.05651 391.6175,668.93041 392.33416,662.06549 C 393.59649,650.94359 396.1678,640.02507 399.43114,629.33272 C 402.31381,619.86837 406.00085,610.65742 411.20632,602.23057 C 417.20163,593.93524 424.49175,585.05315 435.23277,584.37828 C 442.89371,584.7928 447.46257,590.24346 451.05858,596.431 C 455.35775,604.86214 457.66197,614.10635 459.81381,623.27088 C 462.10542,633.23602 464.01539,643.28374 465.94798,653.32322 C 467.41933,661.12722 468.87152,668.9618 471.58988,676.4423 C 473.29058,681.09201 476.47308,683.35841 481.07736,684.5031 C 486.97914,685.06249 492.89216,683.96755 498.72658,683.15605 C 506.18955,682.08028 513.67512,681.17528 521.16318,680.29507 C 528.21354,679.43921 535.285,678.78416 542.37247,678.33473 C 548.54475,677.97445 554.72643,677.8203 560.9073,677.70151 C 565.4358,677.5862 569.96399,677.59537 574.49247,677.68352 L 568.64023,687.4376 C 564.15268,687.38801 559.66566,687.41842 555.1789,687.52881 C 549.04445,687.66352 542.90896,687.83675 536.7855,688.24314 C 529.75486,688.74821 522.74017,689.43398 515.74393,690.29618 C 508.27685,691.18679 500.81498,692.11892 493.3715,693.19167 C 487.17117,694.02936 480.81178,695.12654 474.59968,693.85351 C 469.0476,692.15858 464.88447,688.83296 462.57326,683.37708 C 459.60032,675.75575 458.01532,667.72356 456.52777,659.69898 C 454.60541,649.70082 452.71087,639.69401 450.47189,629.76081 C 448.42944,620.88621 446.28747,611.92592 442.30121,603.69041 C 439.46952,598.5705 436.13748,593.93513 429.72083,594.32862 C 426.24263,595.32159 417.77809,602.31824 420.31455,599.73944 C 432.49171,587.35901 424.40614,595.34852 421.92445,598.42107 C 416.35267,606.34006 412.67678,615.31966 409.736,624.51602 C 406.38905,634.99974 403.72407,645.71749 402.33622,656.64798 C 401.49396,663.77989 401.33681,670.9664 400.33234,678.06984 C 397.43679,687.44225 389.96336,690.54471 381.40366,690.78174 C 372.16578,691.33933 362.92436,691.843 353.69557,692.54238 C 342.45665,693.34773 331.21422,694.23676 320.04872,695.78142 C 311.27811,697.03706 302.55735,698.65643 294.00033,700.97616 C 288.70572,702.39006 283.44825,703.92912 278.17525,705.41888 C 276.8679,705.66108 275.59397,706.02965 274.2515,705.82908 L 280.04184,696.03814 z " />
    <path
       style="fill:#000000;fill-opacity:1;fill-rule:nonzero;stroke:none;stroke-width:1px;stroke-linecap:butt;stroke-linejoin:miter;stroke-opacity:1"
       id="path1355"
       d="M 100.97071,488.23084 C 102.18258,487.84955 102.9721,485.42898 103.59181,484.11551 C 106.40676,477.31191 108.18899,470.14423 109.82326,462.98314 C 112.07031,452.66314 113.56364,442.19533 114.55096,431.68412 C 115.44191,421.73155 115.86626,411.74063 115.80194,401.74942 C 115.78397,396.95564 115.37478,392.1834 114.80315,387.42855 L 124.33782,381.22526 C 124.99229,386.09701 125.49893,390.9879 125.56299,395.90883 C 125.7251,406.00946 125.33716,416.11093 124.50503,426.17892 C 123.5783,436.81812 122.16042,447.41581 119.9877,457.87679 C 118.39877,465.21288 116.64423,472.53368 114.02405,479.58132 C 113.31587,481.38887 112.3643,483.21085 111.89406,485.05732 L 100.97071,488.23084 z " />
    <path
       style="fill:#000000;fill-opacity:1;fill-rule:nonzero;stroke:none;stroke-width:1px;stroke-linecap:butt;stroke-linejoin:miter;stroke-opacity:1"
       id="path1357"
       d="M 111.5331,390.96783 C 111.04662,390.1068 111.6953,389.34068 111.87282,388.47489 C 112.69596,386.04988 114.20436,383.9904 115.66245,381.92042 C 120.2924,376.06577 125.79579,370.94044 131.60756,366.2786 C 135.34715,363.35009 139.51728,361.10705 143.82942,359.16313 C 148.4384,357.21764 153.33138,356.94299 158.25648,357.08409 C 163.19397,357.40988 167.78476,359.06793 172.21086,361.16261 C 175.71414,362.90817 178.66011,365.47438 181.49088,368.13368 L 173.50663,376.23568 C 170.91451,373.85568 168.28882,371.48822 165.05275,370.00298 C 161.01441,368.21538 156.83077,366.84817 152.36018,366.81159 C 147.86199,366.94119 143.47848,367.51583 139.43227,369.65388 C 135.41221,371.76376 131.51226,374.09875 128.07102,377.08987 C 117.15756,386.65176 135.02284,370.02047 126.47097,378.37551 C 124.97945,380.1661 123.4628,381.95933 122.33556,384.01151 C 122.01249,384.38391 121.79256,386.01103 121.32404,385.17748 L 111.5331,390.96783 z " />
    <path
       style="fill:#000000;fill-opacity:1;fill-rule:nonzero;stroke:none;stroke-width:1px;stroke-linecap:butt;stroke-linejoin:miter;stroke-opacity:1"
       id="path1359"
       d="M 181.32404,368.04225 C 181.47721,368.93073 181.25276,369.8426 181.14506,370.73577 C 180.81335,373.73222 180.70261,376.74668 180.5802,379.75713 C 180.38514,385.24283 180.30541,390.73177 180.23118,396.22018 C 180.12938,403.06579 180.34554,409.91043 180.68836,416.74655 C 181.04305,423.4642 181.77908,430.15113 182.76024,436.80377 C 183.63617,442.62374 184.85674,448.38321 186.21948,454.10639 C 187.26905,458.5984 188.67408,462.99155 190.18733,467.34504 C 191.05143,469.86889 192.0936,472.32257 193.1666,474.76254 L 184.25842,481.83608 C 183.12136,479.31894 182.00654,476.79022 181.09497,474.18021 C 179.50602,469.72247 178.02109,465.22562 176.89709,460.62435 C 175.48426,454.8168 174.20029,448.97516 173.26629,443.06919 C 172.22019,436.32033 171.40798,429.53751 171.0061,422.71685 C 170.61128,415.8091 170.36952,408.89134 170.41706,401.97114 C 170.48529,396.45978 170.55844,390.94809 170.72573,385.43868 C 170.83044,382.36259 170.92815,379.28448 171.17716,376.21588 C 171.25951,375.45208 171.24789,374.38823 171.5331,373.8326 L 181.32404,368.04225 z " />
    <path
       style="fill:#000000;fill-opacity:1;fill-rule:nonzero;stroke:none;stroke-width:1px;stroke-linecap:butt;stroke-linejoin:miter;stroke-opacity:1"
       id="path1361"
       d="M 397.1847,399.60957 C 380.30581,413.75177 392.44547,402.74884 397.48783,397.99465 C 400.06361,396.36922 402.79858,395.02755 405.54304,393.71639 C 410.5656,391.41922 415.93537,390.11344 421.34835,389.13858 C 428.08194,388.0452 434.92684,388.2099 441.70973,388.63405 C 448.81042,389.14807 455.79902,390.53992 462.70366,392.22213 C 469.51701,393.9283 476.13566,396.29857 482.62013,398.97849 C 487.93458,401.25918 493.08585,403.89502 498.17708,406.63155 L 490.91069,415.38313 C 485.91527,412.72622 480.86837,410.15159 475.64602,407.96472 C 469.30434,405.40422 462.84037,403.12938 456.17986,401.54042 C 449.44944,399.97303 442.64011,398.68286 435.72541,398.30764 C 429.18812,397.99979 422.59245,397.94392 416.14746,399.25497 C 410.99899,400.35403 405.91188,401.79279 401.22072,404.23819 C 398.66112,405.5838 396.05274,406.90633 393.81537,408.76051 C 395.82254,406.75147 397.84476,404.75734 399.8369,402.73338 C 402.35233,400.17777 388.98044,412.05222 391.39436,409.40051 L 397.1847,399.60957 z " />
    <path
       style="fill:#000000;fill-opacity:1;fill-rule:nonzero;stroke:none;stroke-width:1px;stroke-linecap:butt;stroke-linejoin:miter;stroke-opacity:1"
       id="path1367"
       d="M 498.4669,406.61368 C 498.85359,407.78758 498.0657,409.21148 497.61788,410.44704 C 496.35056,413.82612 495.44738,417.31964 494.54691,420.80911 C 493.29695,425.9737 492.39754,431.21509 491.59568,436.46535 C 490.69923,442.57168 489.83855,448.68289 489.08122,454.80811 C 488.38861,460.47534 487.83157,466.15802 487.37108,471.84851 C 486.98463,476.5549 486.8392,481.27374 486.78456,485.99381 C 486.77829,487.79391 486.85796,489.59221 486.92291,491.39053 L 477.2287,497.34141 C 477.13564,495.49732 477.02911,493.65366 477.00699,491.8067 C 476.98398,487.00364 477.09504,482.20054 477.44749,477.40844 C 477.85495,471.6675 478.414,465.93806 479.07668,460.22103 C 479.80805,454.06591 480.64732,447.92538 481.54514,441.79238 C 482.32307,436.45181 483.18288,431.121 484.34954,425.84937 C 485.20591,422.25579 486.0739,418.65718 487.26335,415.15599 C 487.54385,414.35162 488.0519,411.83912 488.67596,412.40403 L 498.4669,406.61368 z " />
    <path
       style="fill:#000000;fill-opacity:1;fill-rule:nonzero;stroke:none;stroke-width:1px;stroke-linecap:butt;stroke-linejoin:miter;stroke-opacity:1"
       id="path1373"
       d="M 392.89899,398.89528 C 394.54376,399.95943 394.77968,400.9792 395.4289,402.66414 C 396.43751,405.32356 396.92116,408.12981 397.38937,410.92266 C 398.12201,415.69243 398.39174,420.51328 398.55692,425.33083 C 398.76256,431.74773 398.57958,438.16782 398.3239,444.58022 C 398.07992,450.42807 397.64127,456.2652 397.06505,462.08906 C 396.74102,465.5983 396.2099,469.0815 395.66163,472.56094 L 385.57485,477.81902 C 386.15217,474.40679 386.72772,470.99178 387.08543,467.5478 C 387.70362,461.78874 388.17809,456.01478 388.45022,450.22834 C 388.73847,443.89231 388.95698,437.54812 388.81598,431.20491 C 388.69893,426.51271 388.50679,421.81652 387.87711,417.16026 C 387.50337,414.57763 387.12981,411.98002 386.328,409.48794 C 385.08319,406.17118 385.49502,408.68693 387.10864,408.68622 L 392.89899,398.89528 z " />
    <path
       style="fill:#000000;fill-opacity:1;fill-rule:nonzero;stroke:none;stroke-width:1px;stroke-linecap:butt;stroke-linejoin:miter;stroke-opacity:1"
       id="path1375"
       d="M 197.1847,471.03814 C 196.00094,467.51751 192.09597,474.64124 190.44365,476.30472 C 193.18354,473.55972 194.64008,469.9447 196.00765,466.38121 C 198.99386,457.74959 200.45822,448.69004 201.70832,439.67079 C 203.43526,426.84431 204.44063,413.93467 205.18603,401.01812 C 205.93991,387.49684 206.12866,373.95273 206.20909,360.41324 C 206.26502,349.90853 206.24162,339.40363 206.11038,328.89961 C 206.03883,322.28824 205.86714,315.6788 205.65538,309.07063 L 215.3766,303.16398 C 215.61736,309.79588 215.79187,316.43033 215.87573,323.06622 C 216.02049,333.59012 216.06084,344.11486 216.00995,354.63971 C 215.94488,368.23202 215.78151,381.8287 215.07983,395.40534 C 214.36279,408.40209 213.40002,421.39225 211.73894,434.30635 C 210.52585,443.52431 209.10611,452.76281 206.36008,461.66763 C 205.04913,465.57544 203.641,469.47757 201.2991,472.90622 C 196.69416,477.59641 196.03116,481.39991 191.39435,480.82908 L 197.1847,471.03814 z " />
    <path
       style="fill:#000000;fill-opacity:1;fill-rule:nonzero;stroke:none;stroke-width:1px;stroke-linecap:butt;stroke-linejoin:miter;stroke-opacity:1"
       id="path1377"
       d="M 211.47042,300.32385 C 210.66408,299.97277 212.00945,299.05627 212.25154,298.48699 C 199.32399,313.13106 208.3485,301.88628 210.8699,297.56852 C 213.39974,293.10962 215.2734,288.34395 216.90322,283.49675 C 218.86634,277.43609 220.13521,271.18535 221.22432,264.91783 C 221.88859,260.82904 222.52751,256.73648 223.23424,252.65476 C 225.6028,245.74575 230.69444,240.84634 234.53482,247.29093 C 235.7539,250.50794 236.73051,253.8133 237.84566,257.06885 C 239.74328,262.45829 241.81982,267.78262 243.96366,273.07821 C 246.15532,278.4341 248.41201,283.76352 250.8481,289.01312 C 252.19791,292.05591 253.84917,294.93102 255.61987,297.74146 L 247.08844,305.26511 C 245.18936,302.32453 243.40027,299.32297 241.96651,296.12001 C 239.47756,290.82748 237.18737,285.44609 234.96523,280.03658 C 232.78608,274.69389 230.67757,269.32117 228.73956,263.88571 C 227.62449,260.69812 226.57311,257.49143 225.55409,254.27211 C 225.65162,254.19373 233.69327,248.11342 233.45489,247.66187 C 232.51954,251.61016 231.91394,255.63121 231.3056,259.6492 C 230.26103,266.05718 229.05981,272.45201 227.20976,278.68365 C 225.66314,283.72564 223.89664,288.70265 221.44909,293.38866 C 218.11362,299.71055 214.87948,304.70866 208.96631,309.37726 C 207.82655,309.84987 206.91709,310.63378 205.68007,310.11479 L 211.47042,300.32385 z " />
    <path
       style="fill:#000000;fill-opacity:1;fill-rule:nonzero;stroke:none;stroke-width:1px;stroke-linecap:butt;stroke-linejoin:miter;stroke-opacity:1"
       id="path1379"
       d="M 252.59691,294.05861 C 251.91617,293.49514 254.13639,294.79538 254.43963,294.96211 C 258.33757,296.9461 262.36912,298.65051 266.38976,300.36664 C 274.34406,303.70185 282.3897,306.81412 290.42353,309.95136 C 300.73975,314.02507 311.15688,317.8338 321.73741,321.16451 C 331.9471,324.3702 342.27839,327.1639 352.67313,329.69855 C 358.02428,330.99693 363.41873,332.10073 368.82301,333.15112 L 362.44297,342.56842 C 356.99176,341.48714 351.55142,340.34883 346.15418,339.02023 C 335.69203,336.43302 325.29105,333.59753 315.01552,330.34093 C 304.37448,326.95075 293.89677,323.08738 283.51076,318.98486 C 275.44311,315.83573 267.36614,312.7041 259.38847,309.33172 C 255.29213,307.57257 251.18707,305.81932 247.22976,303.76031 C 246.32136,303.24059 245.29514,302.79427 244.55357,302.10195 L 252.59691,294.05861 z " />
    <path
       style="fill:#000000;fill-opacity:1;fill-rule:nonzero;stroke:none;stroke-width:1px;stroke-linecap:butt;stroke-linejoin:miter;stroke-opacity:1"
       id="path1381"
       d="M 369.18118,336.61368 C 369.18537,337.34102 369.18309,338.06787 369.18406,338.79493 C 369.06301,341.48901 368.98044,344.18418 368.9135,346.88007 C 368.79519,352.50537 368.74288,358.13178 368.695,363.75803 C 368.61625,371.13291 368.62298,378.50818 368.72816,385.88266 C 368.86923,393.89847 369.32654,401.9028 369.98609,409.89128 C 370.66638,418.24248 371.79851,426.54326 373.07612,434.82085 C 374.2452,442.39241 375.50992,449.94947 376.96504,457.47147 C 377.98095,462.71145 379.32067,467.87678 380.95534,472.95567 L 371.81861,479.73141 C 370.07295,474.53761 368.63759,469.24921 367.56276,463.87363 C 366.04305,456.31445 364.77687,448.70706 363.58458,441.08993 C 362.27833,432.742 361.07696,424.37593 360.36082,415.95303 C 359.6543,407.89604 359.15216,399.8228 358.97435,391.73534 C 358.83282,384.33236 358.81629,376.92766 358.88947,369.52362 C 358.9334,363.8839 358.98253,358.2441 359.0842,352.60507 C 359.1395,349.89051 359.19196,347.17554 359.32198,344.46326 C 359.34475,343.77639 359.42171,343.09255 359.39024,342.40403 L 369.18118,336.61368 z " />
    <path
       style="fill:#000000;fill-opacity:1;fill-rule:nonzero;stroke:none;stroke-width:1px;stroke-linecap:butt;stroke-linejoin:miter;stroke-opacity:1"
       id="path1383"
       d="M 254.0293,297.63385 C 255.33553,299.27806 255.18274,301.4272 255.3747,303.45789 C 255.8512,308.86575 256.32693,314.27358 256.77335,319.68406 C 257.46977,327.59977 258.09176,335.52092 258.61298,343.45008 C 259.26098,353.0552 259.71202,362.67129 260.16948,372.28678 C 260.65171,382.37096 261.20053,392.4518 261.74339,402.53286 C 262.20174,411.44917 263.02107,420.34077 263.94272,429.21943 C 264.62113,435.98386 265.54787,442.71909 266.78856,449.40294 C 267.22864,451.96351 267.90978,454.46694 268.58718,456.97098 L 259.37019,463.63714 C 258.60124,461.04727 257.86697,458.44615 257.37362,455.78648 C 256.05244,449.02112 255.0556,442.19906 254.35521,435.34072 C 253.39826,426.40939 252.55584,417.46325 252.05511,408.49337 C 251.50376,398.40576 250.96344,388.31742 250.46865,378.22686 C 250.0029,368.62813 249.58747,359.02644 248.94125,349.43742 C 248.43928,341.52549 247.84955,333.61988 247.13446,325.72412 C 246.69985,320.31879 246.23203,314.91623 245.74671,309.51531 C 245.6781,308.70572 244.64754,304.28152 245.98596,305.67719 L 254.0293,297.63385 z " />
    <path
       style="fill:#000000;fill-opacity:1;fill-rule:nonzero;stroke:none;stroke-width:1px;stroke-linecap:butt;stroke-linejoin:miter;stroke-opacity:1"
       id="path1385"
       d="M 233.61327,241.03814 C 234.98295,242.03434 236.48004,242.83853 237.94292,243.68967 C 242.53548,246.26958 247.23036,248.66354 251.91146,251.07776 C 257.95515,254.21991 263.95219,257.44965 270.04141,260.50344 C 276.32608,263.63454 282.72878,266.51873 289.26761,269.0759 C 295.68994,271.55477 302.30011,273.49541 308.97247,275.16879 C 315.74948,276.79212 322.63518,277.89529 329.53048,278.87239 C 331.33347,279.12243 333.14026,279.34342 334.9463,279.56989 L 328.76846,289.12107 C 326.94611,288.88566 325.12297,288.6558 323.3044,288.39219 C 316.2999,287.36145 309.30552,286.19836 302.43293,284.47606 C 295.63494,282.709 288.89773,280.68892 282.35774,278.11163 C 275.73622,275.47006 269.2415,272.52575 262.86772,269.33117 C 256.77325,266.2541 250.76368,263.01501 244.7013,259.87572 C 239.9703,257.43506 235.22522,255.01357 230.59961,252.37681 C 230.17063,252.12575 225.84304,249.4602 227.82293,250.82908 L 233.61327,241.03814 z " />
    <path
       style="fill:#000000;fill-opacity:1;fill-rule:nonzero;stroke:none;stroke-width:1px;stroke-linecap:butt;stroke-linejoin:miter;stroke-opacity:1"
       id="path1387"
       d="M 328.52959,290.82908 C 325.24495,290.61892 333.60114,286.61296 335.89391,284.25155 C 335.94874,287.13611 336.81775,289.92963 337.60112,292.68584 C 338.87093,297.0025 340.53645,301.18596 342.24117,305.34502 C 343.95066,309.4259 346.09318,313.29513 348.43144,317.04273 C 350.66747,320.51963 353.39534,323.61941 356.2527,326.58933 C 358.94261,329.365 362.06936,331.62586 365.30361,333.71333 C 367.33633,334.97781 369.48815,336.02222 371.64559,337.05035 L 364.54383,345.93606 C 362.26915,344.81399 359.99744,343.67947 357.85653,342.31169 C 354.41359,340.03799 351.07872,337.59255 348.19576,334.61904 C 345.16829,331.47613 342.27368,328.20036 339.87624,324.53935 C 337.3913,320.63548 335.11429,316.60262 333.27679,312.34721 C 331.4915,308.08345 329.76065,303.7891 328.39607,299.36849 C 327.48535,296.33268 326.58133,293.28552 326.1586,290.13495 C 325.09394,283.87745 336.89323,280.54008 334.31993,281.03814 L 328.52959,290.82908 z " />
    <path
       style="fill:#000000;fill-opacity:1;fill-rule:nonzero;stroke:none;stroke-width:1px;stroke-linecap:butt;stroke-linejoin:miter;stroke-opacity:1"
       id="path1391"
       d="M 392.47655,403.91816 C 387.21147,406.28854 385.68646,410.53138 390.43173,403.76772 C 394.89204,396.98465 399.39599,390.233 404.06217,383.58914 C 410.28286,374.92359 416.31986,366.13079 421.49012,356.79127 C 426.93145,346.89635 431.2295,336.43192 434.81398,325.73705 C 437.76975,316.77946 440.17023,307.64945 442.21587,298.44428 C 443.47836,290.07175 444.5867,285.9338 450.91251,280.22139 C 454.60894,282.17254 454.91788,287.05634 455.7545,290.80473 C 457.14587,297.5224 458.72617,304.19659 460.43271,310.84058 C 462.39844,318.44235 464.51787,326.00486 466.8596,333.49961 C 469.02822,340.48394 471.54948,347.34952 474.26128,354.13908 C 476.54472,359.87422 479.11838,365.48529 481.76849,371.05822 C 483.86323,375.40373 486.05703,379.70074 488.25807,383.99312 C 490.09299,387.49965 491.89134,391.02507 493.70654,394.54179 C 495.23103,397.47034 496.81479,400.36728 498.35976,403.28496 C 498.83669,404.21165 499.35245,405.11723 499.8585,406.02802 L 493.70439,411.20703 C 493.18029,410.27583 492.64485,409.35068 492.15353,408.4014 C 490.61029,405.47851 489.02569,402.57784 487.49299,399.64935 C 485.6661,396.13423 483.88017,392.59783 482.03676,389.09122 C 479.81797,384.77895 477.61691,380.4568 475.49726,376.09479 C 472.81979,370.47792 470.20559,364.82866 467.89138,359.05026 C 465.13969,352.20634 462.57183,345.28853 460.36671,338.24699 C 457.99568,330.71764 455.84884,323.11968 453.8623,315.48008 C 452.13596,308.81033 450.51994,302.11303 449.12854,295.36455 C 448.70137,293.40494 446.26248,287.00117 447.89026,287.67533 C 457.80573,278.40894 449.30195,287.67915 449.40596,294.83902 C 447.38559,304.11823 445.03602,313.32894 442.11865,322.37 C 438.58984,333.19612 434.35864,343.80211 428.97694,353.85139 C 423.88789,363.30541 417.93825,372.22842 411.65136,380.92465 C 406.96986,387.54683 402.39956,394.2457 398.00687,401.06357 C 395.60467,404.64051 392.38863,410.24596 388.38216,410.8414 L 392.47655,403.91816 z " />
    <path
       style="fill:#000000;fill-opacity:1;fill-rule:nonzero;stroke:none;stroke-width:1px;stroke-linecap:butt;stroke-linejoin:miter;stroke-opacity:1"
       id="path1393"
       d="M 114.72623,384.67285 C 114.42721,383.08859 115.83633,381.55741 116.64177,380.15728 C 119.85074,374.69184 123.40524,369.44 126.90094,364.1564 C 132.43662,356.0259 137.26817,347.45521 141.28453,338.47828 C 145.39326,329.06195 148.42368,319.22103 151.04688,309.30104 C 152.98413,301.90816 154.62409,294.43744 155.82076,286.88866 C 153.81665,283.08499 162.52262,273.31532 163.51976,279.58474 C 163.62082,284.61919 164.1263,289.62566 164.75574,294.61741 C 165.75799,302.0099 166.94262,309.37767 168.23549,316.72467 C 169.4075,323.52578 170.77922,330.28875 172.32921,337.01318 C 173.55157,342.32728 175.03603,347.57477 176.60837,352.79433 C 177.86049,356.87609 179.20661,360.9289 180.63044,364.95386 C 180.89216,365.68307 181.15886,366.41047 181.42415,367.13837 L 175.00103,371.97973 C 174.73398,371.24836 174.46749,370.51678 174.20004,369.78556 C 172.74576,365.72791 171.38331,361.6376 170.10128,357.52224 C 168.50366,352.25707 166.97869,346.96782 165.72743,341.60794 C 164.14426,334.84568 162.73887,328.04421 161.55245,321.2004 C 160.23989,313.82207 159.0437,306.42179 158.01061,298.99903 C 157.34579,293.93869 156.76812,288.86445 156.6432,283.75706 C 160.96273,280.74406 164.8344,274.84952 162.92891,283.12441 C 161.80918,290.75944 160.19746,298.31138 158.28126,305.78551 C 155.69498,315.81766 152.70008,325.76951 148.68733,335.33282 C 144.76523,344.45192 140.01134,353.18175 134.46359,361.41749 C 130.99649,366.68911 127.4345,371.90198 124.15925,377.29672 C 123.60104,378.24194 122.50102,381.24992 121.64947,380.57846 L 114.72623,384.67285 z " />
    <path
       style="fill:#000000;fill-opacity:1;fill-rule:nonzero;stroke:none;stroke-width:1px;stroke-linecap:butt;stroke-linejoin:miter;stroke-opacity:1"
       id="path1395"
       d="M 276.5331,457.3964 C 276.50297,456.11751 276.56509,454.83836 276.60426,453.55981 C 276.73596,449.05544 277.19052,444.56899 277.65706,440.08938 C 278.35087,433.91629 279.09327,427.74917 279.73538,421.57035 C 280.40236,415.12052 280.88513,408.65394 281.307,402.18408 C 281.69448,396.63856 281.89763,391.08964 281.63662,385.53708 C 281.60688,385.20175 281.57715,384.86642 281.54741,384.53109 L 291.13581,378.41119 C 291.18007,378.76944 291.22432,379.1277 291.26857,379.48595 C 291.77571,385.18239 291.57077,390.88768 291.2115,396.5902 C 290.80838,403.09951 290.34801,409.60601 289.70688,416.0968 C 289.08893,422.28723 288.37238,428.4663 287.6443,434.6446 C 287.15228,439.05018 286.68108,443.46456 286.46751,447.89352 C 286.41992,449.13098 286.36282,450.36951 286.32404,451.60605 L 276.5331,457.3964 z " />
    <path
       style="fill:#000000;fill-opacity:1;fill-rule:nonzero;stroke:none;stroke-width:1px;stroke-linecap:butt;stroke-linejoin:miter;stroke-opacity:1"
       id="path1397"
       d="M 283.11357,383.94513 C 288.19047,378.35412 288.79493,377.8643 293.59462,375.68705 C 296.74082,374.28031 299.9897,373.13884 303.2684,372.08861 C 308.05711,370.69101 312.95432,369.71399 317.87742,368.93427 C 322.86406,368.12127 327.90751,367.89158 332.95027,367.94742 C 337.69157,368.00012 342.32247,368.9317 346.90643,370.05244 C 351.32698,371.26063 355.57526,372.99238 359.77599,374.80384 C 363.6125,376.43757 367.2226,378.50028 370.71224,380.76762 L 363.20321,389.31192 C 359.86608,387.18358 356.40357,385.27449 352.74519,383.74579 C 348.70895,382.05 344.63132,380.40834 340.3697,379.36167 C 336.00993,378.38758 331.60754,377.64022 327.11936,377.71425 C 322.25499,377.80643 317.39643,378.12829 312.60265,379.01234 C 307.83798,379.86479 303.08591,380.87157 298.49004,382.4113 C 295.34487,383.5382 292.2163,384.72146 289.2073,386.18191 C 284.91468,388.48077 281.85078,390.93698 294.03691,380.77161 L 283.11357,383.94513 z " />
    <path
       style="fill:#000000;fill-opacity:1;fill-rule:nonzero;stroke:none;stroke-width:1px;stroke-linecap:butt;stroke-linejoin:miter;stroke-opacity:1"
       id="path1399"
       d="M 369.44901,381.4255 C 369.04693,382.10057 368.81122,383.67668 368.59022,384.65079 C 367.70993,388.34313 366.90676,392.05213 366.14614,395.77074 C 365.13501,401.01384 364.3838,406.30253 363.71617,411.59893 C 363.00542,417.463 362.52513,423.35227 362.17643,429.24806 C 361.86244,434.96254 361.75978,440.68626 362.03198,446.40331 C 362.28935,451.64795 363.19605,456.81963 364.27284,461.94803 C 364.90967,465.01989 365.86547,468.00083 366.90004,470.95624 L 357.83959,477.83365 C 356.70101,474.752 355.62793,471.64643 354.92526,468.42981 C 353.7082,463.14799 352.75001,457.80112 352.35886,452.38841 C 351.97571,446.55449 352.00225,440.71179 352.28911,434.87226 C 352.59532,428.90757 353.04513,422.95018 353.71292,417.01425 C 354.34227,411.64427 355.07758,406.28599 356.02477,400.96192 C 356.73909,397.19896 357.50595,393.44527 358.40832,389.72222 C 358.67461,388.57328 359.05957,387.30175 359.11479,386.17889 L 369.44901,381.4255 z " />
    <path
       style="fill:#000000;fill-opacity:1;fill-rule:nonzero;stroke:none;stroke-width:1px;stroke-linecap:butt;stroke-linejoin:miter;stroke-opacity:1"
       id="path1401"
       d="M 282.24739,387.3964 C 281.92184,386.01899 282.88268,383.73681 283.33339,382.13473 C 285.23094,375.21798 287.30034,368.35106 289.38928,361.4903 C 292.3412,351.91319 295.2409,342.3204 298.04954,332.70026 C 300.99583,322.42525 303.95643,312.15448 307.19189,301.96611 C 310.60431,291.34321 314.27047,280.80451 317.76878,270.20986 C 320.56168,262.0349 322.90212,253.68906 326.19705,245.69457 C 331.69146,233.81108 338.44992,233.93463 340.71871,244.40801 C 342.11461,253.05016 342.62126,261.81107 343.16357,270.54044 C 343.76187,280.53246 344.1031,290.53705 344.48885,300.5388 C 344.8285,309.38265 345.3447,318.21767 346.08655,327.03673 C 346.6778,334.23286 347.76136,341.36808 349.26637,348.42638 C 350.61472,354.47266 352.3639,360.41708 354.26492,366.30958 C 355.30633,369.67127 356.67841,372.90694 358.12141,376.11045 L 349.24773,383.22723 C 347.70318,379.90793 346.22939,376.5548 345.11101,373.0621 C 343.1444,367.07508 341.33484,361.03469 339.90862,354.89345 C 338.29644,347.71112 337.11119,340.44602 336.46788,333.10894 C 335.67083,324.24081 335.13032,315.35333 334.77432,306.45646 C 334.37682,296.47464 334.05573,286.48892 333.48389,276.51492 C 332.97252,267.91254 332.46038,259.2939 331.2777,250.75293 C 330.17572,244.44221 334.06291,241.2466 336.71622,241.36585 C 332.85836,248.9843 331.0016,257.44933 328.09725,265.444 C 324.62129,276.03809 320.97316,286.57423 317.507,297.17141 C 314.2429,307.32616 311.2347,317.55858 308.3244,327.81993 C 305.52777,337.4567 302.64528,347.06788 299.68586,356.65594 C 297.59024,363.49184 295.49873,370.32986 293.59265,377.22166 C 293.25604,378.42619 292.64264,381.87538 292.03833,381.60605 L 282.24739,387.3964 z " />
  </g>
</svg>
