<?xml version="1.0" encoding="UTF-8" standalone="no"?>
<!-- Created with Inkscape (http://www.inkscape.org/) -->
<svg
   xmlns:dc="http://purl.org/dc/elements/1.1/"
   xmlns:cc="http://web.resource.org/cc/"
   xmlns:rdf="http://www.w3.org/1999/02/22-rdf-syntax-ns#"
   xmlns:svg="http://www.w3.org/2000/svg"
   xmlns="http://www.w3.org/2000/svg"
   xmlns:sodipodi="http://inkscape.sourceforge.net/DTD/sodipodi-0.dtd"
   xmlns:inkscape="http://www.inkscape.org/namespaces/inkscape"
   width="744.09448819"
   height="1052.3622047"
   id="svg1417"
   sodipodi:version="0.32"
   inkscape:version="0.43"
   sodipodi:docbase="C:\Program Files\Inkscape"
   sodipodi:docname="castle-3.svg">
  <defs
     id="defs1419" />
  <sodipodi:namedview
     id="base"
     pagecolor="#ffffff"
     bordercolor="#666666"
     borderopacity="1.0"
     inkscape:pageopacity="0.0"
     inkscape:pageshadow="2"
     inkscape:zoom="0.7"
     inkscape:cx="425.59785"
     inkscape:cy="607.60299"
     inkscape:document-units="px"
     inkscape:current-layer="layer1"
     inkscape:window-width="1280"
     inkscape:window-height="977"
     inkscape:window-x="-4"
     inkscape:window-y="-4" />
  <metadata
     id="metadata1422">
    <rdf:RDF>
      <cc:Work
         rdf:about="">
        <dc:format>image/svg+xml</dc:format>
        <dc:type
           rdf:resource="http://purl.org/dc/dcmitype/StillImage" />
      </cc:Work>
    </rdf:RDF>
  </metadata>
  <g
     inkscape:label="Layer 1"
     inkscape:groupmode="layer"
     id="layer1">
    <path
       style="fill:#000000;fill-opacity:1;fill-rule:nonzero;stroke:none;stroke-width:1px;stroke-linecap:butt;stroke-linejoin:miter;stroke-opacity:1"
       id="path1429"
       d="M 135.475,584.83748 C 139.87656,580.83897 129.25882,591.31927 133.98126,586.36479 C 138.89022,581.1935 142.711,575.13723 146.10348,568.89726 C 151.99764,557.92015 155.77963,546.00185 158.79378,533.95868 C 162.686,518.1401 164.81297,501.96559 166.44326,485.77852 C 168.06043,469.31084 169.00757,452.78475 169.47114,436.24631 C 169.83166,423.28491 169.67975,410.31686 169.42661,397.35513 C 169.28589,390.38211 169.10514,383.40998 168.9179,376.43808 L 175.80558,372.28414 C 175.9943,379.26125 176.17766,386.23855 176.32362,393.2167 C 176.58747,406.21292 176.76027,419.21539 176.42967,432.21218 C 175.99418,448.80327 175.08,465.38273 173.49275,481.90554 C 171.89634,498.19433 169.81818,514.47206 166.01253,530.41115 C 163.05101,542.62322 159.35488,554.7227 153.57987,565.93098 C 150.24583,572.34337 146.48027,578.58688 141.67388,584.01555 C 139.06093,586.91121 135.34888,590.47642 133.23097,592.56145 L 135.475,584.83748 z " />
    <path
       style="fill:#000000;fill-opacity:1;fill-rule:nonzero;stroke:none;stroke-width:1px;stroke-linecap:butt;stroke-linejoin:miter;stroke-opacity:1"
       id="path1431"
       d="M 168.76939,378.10955 C 168.35253,377.33854 168.85121,376.95048 169.25987,376.01867 C 170.57626,373.47127 172.4076,371.25081 174.25564,369.07712 C 179.13093,363.49564 184.56619,358.45893 190.49774,354.03594 C 195.83244,350.10934 201.59073,346.81378 207.56342,343.96627 C 214.03499,340.8956 220.81862,338.54594 227.77296,336.84915 C 234.32663,335.18696 241.05002,334.59744 247.79025,334.54181 C 253.42572,334.47447 258.96784,335.45889 264.40176,336.86421 C 268.78177,338.02673 272.94529,339.81728 276.94812,341.91879 C 280.39475,343.75825 283.53643,346.07915 286.54558,348.55493 C 289.37439,350.91653 291.96655,353.53305 294.46653,356.2341 C 296.83889,358.83938 298.94548,361.66465 300.97337,364.5412 C 302.83734,367.19243 304.46882,369.99092 306.01107,372.83747 L 299.80089,377.94912 C 298.32956,375.18334 296.76542,372.46749 294.971,369.89534 C 293.00431,367.11084 290.99284,364.35265 288.69027,361.83144 C 286.27475,359.21649 283.76767,356.68515 281.02679,354.40628 C 278.14702,352.04995 275.13785,349.84553 271.82826,348.1222 C 267.97406,346.15013 263.9696,344.47956 259.75748,343.43124 C 254.49805,342.15307 249.14641,341.31026 243.7135,341.47546 C 237.14223,341.6328 230.60267,342.35358 224.24021,344.07515 C 217.45466,345.91701 210.80943,348.25058 204.51342,351.4089 C 198.70463,354.35636 193.07009,357.65318 187.91249,361.65249 C 185.80369,363.31629 183.74533,365.01663 181.79142,366.86232 C 181.28767,367.33817 179.80771,368.79813 180.29664,368.30707 C 188.7759,359.79079 183.8474,364.70877 181.93692,366.69106 C 180.08172,368.72139 178.25784,370.79833 176.75977,373.11233 C 176.51322,373.5088 175.80018,375.26961 175.69263,374.01516 L 168.76939,378.10955 z " />
    <path
       style="fill:#000000;fill-opacity:1;fill-rule:nonzero;stroke:none;stroke-width:1px;stroke-linecap:butt;stroke-linejoin:miter;stroke-opacity:1"
       id="path1433"
       d="M 306.00231,372.50532 C 305.9931,373.54149 306.00981,374.57724 306.024,375.61326 C 306.10256,380.50866 306.01654,385.40406 305.9286,390.29864 C 305.74984,398.62814 305.52561,406.95662 305.38672,415.28695 C 305.20367,426.22144 305.39341,437.15773 305.80851,448.08476 C 306.29802,460.7013 307.25178,473.29781 308.74066,485.83576 C 310.32841,499.20491 312.91213,512.43401 316.28236,525.46372 C 319.66645,538.37954 324.05093,551.00551 329.03597,563.38437 C 331.8635,570.37906 335.01363,577.23662 338.3425,584.00528 L 332.0914,589.0668 C 328.72276,582.2489 325.53276,575.34171 322.66648,568.29609 C 317.61791,555.82918 313.16604,543.11578 309.71556,530.10833 C 306.27499,516.98679 303.62491,503.66173 301.9792,490.19213 C 300.44698,477.5975 299.45317,464.94268 298.93709,452.26555 C 298.49474,441.29855 298.28709,430.32152 298.44255,419.34574 C 298.57106,411.01249 298.79076,402.68111 298.97956,394.34909 C 299.07396,389.47884 299.173,384.60797 299.11794,379.73656 C 299.10042,378.691 299.07571,377.64547 299.07907,376.59972 L 306.00231,372.50532 z " />
    <path
       style="fill:#000000;fill-opacity:1;fill-rule:nonzero;stroke:none;stroke-width:1px;stroke-linecap:butt;stroke-linejoin:miter;stroke-opacity:1"
       id="path1437"
       d="M 133.8748,583.72532 C 134.94383,584.47238 135.46584,585.50005 136.35826,586.62693 C 139.12849,589.57039 142.7002,591.48419 146.28237,593.25258 C 152.5822,596.17067 159.22259,598.2655 165.88736,600.16962 C 174.41678,602.61231 183.09374,604.49349 191.82668,606.04085 C 201.51503,607.73107 211.27907,608.98874 221.10594,609.4529 C 230.84663,609.88386 240.60594,609.50404 250.29363,608.43308 C 258.79353,607.47195 267.21361,605.91774 275.54481,603.99316 C 282.78813,602.31633 289.93491,600.25799 297.01625,597.99994 C 303.25399,595.97554 309.39748,593.67513 315.44144,591.13247 C 320.64176,588.93001 325.65648,586.32731 330.52377,583.47002 C 332.52968,582.28797 334.45874,580.98596 336.37709,579.66893 L 333.67041,587.24318 C 331.69531,588.54049 329.70547,589.81598 327.64894,590.98206 C 322.66767,593.78818 317.54993,596.3511 312.25554,598.51796 C 306.13501,601.01565 299.92768,603.29959 293.62344,605.29269 C 286.48159,607.54004 279.2586,609.53396 271.95639,611.19167 C 263.53453,613.08089 255.02162,614.57997 246.43568,615.49081 C 236.62605,616.48825 226.75076,616.80938 216.89938,616.30856 C 206.98024,615.76729 197.12474,614.4534 187.34631,612.72079 C 178.53841,611.12531 169.78863,609.19315 161.18873,606.69789 C 154.39577,604.72396 147.62691,602.5561 141.22814,599.50958 C 137.36965,597.55601 133.55989,595.41033 130.57502,592.21705 C 130.1313,591.68615 127.43796,588.40295 129.78041,590.64856 L 133.8748,583.72532 z " />
    <path
       style="fill:#000000;fill-opacity:1;fill-rule:nonzero;stroke:none;stroke-width:1px;stroke-linecap:butt;stroke-linejoin:miter;stroke-opacity:1"
       id="path1439"
       d="M 261.05052,607.87087 C 261.83947,608.51956 260.87552,608.73955 260.76363,609.29497 C 260.20951,610.40159 260.24656,611.56788 260.24325,612.76807 C 260.44121,615.56067 262.15861,617.61518 263.96048,619.62441 C 268.53424,624.26196 274.20134,627.61826 279.94363,630.60146 C 288.76106,634.96375 298.07107,638.41534 307.6923,640.5026 C 318.86704,642.67301 330.33354,642.67239 341.64721,641.83438 C 351.75562,641.0526 361.72249,638.9951 371.38312,635.94816 C 378.11533,633.8141 384.59175,630.94948 390.57443,627.19769 C 389.44456,629.76432 399.00658,619.81019 397.01164,621.78107 C 388.44871,630.24069 393.52951,625.35506 395.33233,623.0048 C 397.18068,620.55358 397.97979,617.79067 398.23433,614.78536 C 398.23435,614.60033 398.23437,614.4153 398.23439,614.23027 L 405.10323,610.04525 C 405.11958,610.25751 405.13592,610.46977 405.15227,610.68203 C 405.16453,614.05682 404.68995,617.32219 402.89512,620.26627 C 399.19322,626.24539 393.65358,630.98322 387.76382,634.73399 C 381.51732,638.32588 374.87462,641.16254 367.96681,643.22992 C 358.11441,646.17896 347.9796,648.16178 337.70767,648.84689 C 326.16977,649.59814 314.48125,649.49652 303.12195,647.1213 C 293.31854,644.87384 283.8151,641.33236 274.83426,636.81351 C 268.85016,633.66178 262.96996,630.10608 258.20654,625.24469 C 256.05552,622.86043 254.02003,620.34031 253.45992,617.0903 C 253.30075,615.62007 253.12924,614.13668 253.46524,612.67562 C 253.73726,612.38375 253.66033,610.4563 254.12728,611.96526 L 261.05052,607.87087 z " />
    <path
       style="fill:#000000;fill-opacity:1;fill-rule:nonzero;stroke:none;stroke-width:1px;stroke-linecap:butt;stroke-linejoin:miter;stroke-opacity:1"
       id="path1443"
       d="M 258.12356,607.96898 C 250.40362,614.80537 252.58672,614.27695 253.16749,608.05411 C 253.87887,600.66274 254.69686,593.28259 255.39066,585.88938 C 256.39428,575.31928 257.23592,564.73456 257.94568,554.14083 C 258.63404,543.59329 259.0287,533.02898 259.26347,522.46233 C 259.49513,512.5596 259.45243,502.65335 259.36919,492.7491 C 259.29746,484.80016 259.19365,476.85155 259.09334,468.90294 C 259.04311,464.96467 258.99547,461.02637 258.94976,457.08805 L 265.85803,452.96846 C 265.90287,456.90589 265.94986,460.8433 266.00001,464.78066 C 266.10027,472.73217 266.20485,480.68365 266.281,488.63543 C 266.37043,498.56185 266.42784,508.49036 266.21472,518.41567 C 265.9943,529.01518 265.6191,539.61244 264.95416,550.19412 C 264.25683,560.80809 263.42929,571.41343 262.43317,582.00372 C 261.74177,589.3969 260.95823,596.78006 260.20944,604.16743 C 259.63861,610.38736 260.6851,610.52026 254.02917,614.89222 L 258.12356,607.96898 z " />
    <path
       style="fill:#000000;fill-opacity:1;fill-rule:nonzero;stroke:none;stroke-width:1px;stroke-linecap:butt;stroke-linejoin:miter;stroke-opacity:1"
       id="path1453"
       d="M 258.67297,457.9116 C 258.36315,454.50184 260.70574,454.35045 264.20509,450.89457 C 266.22792,449.59314 268.3949,448.55124 270.56211,447.51766 C 275.21003,445.35455 279.97404,443.45663 284.78374,441.68752 C 290.93769,439.43657 297.24589,437.65877 303.60282,436.08751 C 309.77246,434.5507 316.02574,433.43612 322.36161,432.9176 C 329.38499,432.4681 336.41392,433.05914 343.37919,433.94511 C 350.46477,434.8525 357.47423,436.24398 364.44211,437.80028 C 370.05499,439.02208 375.57449,440.60278 381.00181,442.47696 C 385.74317,444.13378 390.36766,446.09104 394.92432,448.1975 C 397.48936,449.37305 399.98714,450.6839 402.46387,452.03315 L 397.31682,458.21402 C 394.88382,456.90212 392.42849,455.63195 389.91122,454.4875 C 385.42113,452.43387 380.86332,450.53007 376.1919,448.92367 C 370.83852,447.11766 365.39597,445.6048 359.87019,444.4179 C 352.9714,442.90217 346.03024,441.55628 339.01481,440.7014 C 332.19697,439.87851 325.31179,439.37004 318.45068,439.94612 C 312.23867,440.57674 306.10954,441.76788 300.05866,443.30791 C 293.78455,444.91905 287.56227,446.74048 281.49761,449.02895 C 276.76284,450.82911 272.06191,452.73496 267.50771,454.95849 C 265.511,455.96788 263.41414,456.95654 261.84514,458.58391 C 262.89279,457.54303 268.51453,454.44545 265.59621,453.81721 L 258.67297,457.9116 z " />
    <path
       style="fill:#000000;fill-opacity:1;fill-rule:nonzero;stroke:none;stroke-width:1px;stroke-linecap:butt;stroke-linejoin:miter;stroke-opacity:1"
       id="path1467"
       d="M 401.46172,451.29722 C 401.5642,452.62978 400.98446,454.5642 400.69694,456.04348 C 399.63393,461.75751 398.88896,467.52492 398.26338,473.30144 C 397.32332,481.83768 396.89272,490.41913 396.78577,499.00373 C 396.72545,509.18593 397.12464,519.36602 397.75201,529.52733 C 398.37877,539.28099 399.20489,549.02183 400.2838,558.73599 C 401.19476,566.7715 402.23676,574.79124 403.2681,582.81194 C 404.01294,588.61962 404.77751,594.42471 405.47611,600.23819 C 405.88982,603.6758 406.24191,607.12021 406.56392,610.56747 L 399.7653,614.86563 C 399.44982,611.4368 399.11758,608.00942 398.71165,604.5899 C 398.02585,598.78263 397.26533,592.98481 396.51759,587.18527 C 395.48712,579.15224 394.43647,571.12149 393.51145,563.07541 C 392.40516,553.32657 391.55896,543.55007 390.91249,533.76009 C 390.25788,523.54587 389.8367,513.3131 389.84973,503.07642 C 389.91154,494.42242 390.30385,485.76927 391.20586,477.15977 C 391.8097,471.32816 392.52831,465.50522 393.5483,459.73024 C 393.742,458.6581 394.14104,455.58791 394.53848,455.39162 L 401.46172,451.29722 z " />
    <path
       style="fill:#000000;fill-opacity:1;fill-rule:nonzero;stroke:none;stroke-width:1px;stroke-linecap:butt;stroke-linejoin:miter;stroke-opacity:1"
       id="path1473"
       d="M 279.88617,447.305 C 279.88612,445.93408 280.10482,444.38684 280.1866,442.95901 C 280.34077,436.53802 280.26757,430.1131 280.23517,423.69081 C 280.2011,414.42115 280.16026,405.15172 279.89378,395.88536 C 279.5928,386.51195 279.16415,377.14238 278.61345,367.78033 C 278.14978,359.90841 277.60479,352.04167 277.09222,344.17288 C 276.66568,337.72824 276.30449,331.27961 275.99137,324.82855 C 275.84733,321.75418 275.71973,318.67909 275.5817,315.60445 L 282.44462,311.40974 C 282.58475,314.48301 282.7157,317.55666 282.85201,320.6301 C 283.15601,327.06831 283.50718,333.5042 283.92909,339.93584 C 284.4378,347.80903 284.98777,355.67955 285.4577,363.55523 C 286.02062,372.93901 286.4605,382.33027 286.77794,391.72559 C 287.06058,401.00978 287.12888,410.29694 287.15168,419.58505 C 287.18538,426.03694 287.24141,432.48974 287.15466,438.94136 C 287.11902,440.07713 287.1717,442.63649 286.80941,443.21061 L 279.88617,447.305 z " />
    <path
       style="fill:#000000;fill-opacity:1;fill-rule:nonzero;stroke:none;stroke-width:1px;stroke-linecap:butt;stroke-linejoin:miter;stroke-opacity:1"
       id="path1475"
       d="M 379.84695,442.30396 C 373.47907,445.37341 374.39454,450.39838 374.42374,445.15131 C 374.1034,439.9113 373.40884,434.70025 372.84562,429.482 C 371.95529,421.37797 371.30817,413.25028 370.77944,405.1154 C 370.19125,396.00949 369.81323,386.89171 369.50543,377.77251 C 369.22209,369.01829 368.97999,360.26169 368.93975,351.50254 C 368.90491,344.35616 369.03889,337.21046 369.29813,330.06907 C 369.48339,324.86836 369.83223,319.67547 370.38624,314.50121 L 377.45418,310.662 C 376.85897,315.77883 376.46556,320.91568 376.27349,326.06411 C 375.98625,333.17256 375.84185,340.28633 375.85866,347.40083 C 375.87623,356.13785 376.10697,364.87249 376.3847,373.60467 C 376.68299,382.70102 377.04719,391.79618 377.61735,400.88003 C 378.12972,408.98323 378.75239,417.08026 379.62492,425.15344 C 380.18592,430.42218 380.8509,435.68153 381.29007,440.96217 C 381.51886,445.72419 381.7872,446.02021 375.75255,449.2272 L 379.84695,442.30396 z " />
    <path
       style="fill:#000000;fill-opacity:1;fill-rule:nonzero;stroke:none;stroke-width:1px;stroke-linecap:butt;stroke-linejoin:miter;stroke-opacity:1"
       id="path1477"
       d="M 274.83541,317.4977 C 274.5404,316.44695 275.16712,315.59648 275.61974,314.65184 C 276.75499,312.39462 277.99542,310.19302 279.2553,308.00376 C 281.01658,304.90955 283.15698,302.07337 285.46502,299.37205 C 290.00681,294.19085 295.08751,289.54947 300.48128,285.28508 C 304.42644,282.10546 308.70681,279.39889 313.06722,276.83437 C 317.3239,274.25145 321.85946,272.26173 326.63951,270.8944 C 330.89868,269.71632 335.29283,269.47936 339.68221,269.71261 C 343.58953,269.95548 347.36606,270.98297 351.02345,272.32714 C 354.3382,273.53769 357.32815,275.38182 360.21577,277.37561 C 363.00037,279.33974 365.4136,281.73836 367.72227,284.2272 C 370.08274,286.77738 371.77397,289.79512 373.31995,292.87909 C 374.77087,295.88811 375.73981,299.08413 376.60457,302.30008 C 377.32573,305.02959 377.75647,307.81761 378.12262,310.61254 L 371.35463,314.95876 C 371.04181,312.25926 370.6804,309.56248 370.02131,306.92134 C 369.24661,303.84807 368.37344,300.79132 367.04034,297.9052 C 365.64644,295.02133 364.12154,292.19109 361.93621,289.8144 C 359.76089,287.46203 357.48399,285.19692 354.84227,283.36066 C 352.12295,281.51245 349.30326,279.82205 346.17563,278.7454 C 342.70844,277.58369 339.165,276.65022 335.48187,276.57209 C 331.32221,276.48308 327.17853,276.88371 323.19723,278.16393 C 318.62328,279.68529 314.3126,281.81818 310.21268,284.35414 C 305.9529,286.95316 301.80843,289.73339 297.96302,292.92404 C 296.17273,294.39528 294.40104,295.88237 292.71111,297.46938 C 292.25296,297.89963 290.91032,299.2235 291.35387,298.77821 C 299.88678,290.21195 295.07995,295.01884 293.15092,297.0009 C 290.8045,299.54373 288.58098,302.20078 286.78223,305.16816 C 285.48823,307.29489 284.24293,309.44994 283.08339,311.65364 C 282.78177,312.22481 282.35215,313.65364 281.75865,313.40331 L 274.83541,317.4977 z " />
    <path
       style="fill:#000000;fill-opacity:1;fill-rule:nonzero;stroke:none;stroke-width:1px;stroke-linecap:butt;stroke-linejoin:miter;stroke-opacity:1"
       id="path1479"
       d="M 280.32049,308.69653 C 272.90068,316.51424 275.39137,314.68878 276.2741,309.13729 C 277.22484,302.18824 278.2932,295.25626 279.48874,288.34512 C 281.24162,278.18874 283.32619,268.09376 285.41349,258.00201 C 287.71883,246.93484 289.90519,235.84322 291.88486,224.71302 C 293.64211,214.73656 295.13313,204.71482 296.52175,194.68102 C 297.5785,187.02823 298.50975,179.35897 299.4233,171.68801 C 300.02158,166.77509 300.37089,161.81991 301.72451,157.0467 C 306.38907,150.15754 308.9184,148.37328 313.88937,154.03948 C 317.24037,158.39004 319.74558,163.31496 322.12347,168.2435 C 325.12393,174.74007 327.6144,181.45451 330.12296,188.15155 C 332.89008,195.58164 335.75954,202.97403 338.7807,210.30466 C 342.09465,218.32131 345.65983,226.22998 349.26975,234.11666 C 352.94178,242.11255 356.4959,250.16153 359.97228,258.24417 C 363.11708,265.58489 366.15418,272.97102 369.25308,280.3311 C 371.77021,286.35468 374.339,292.35638 376.90315,298.36003 C 377.21778,299.10286 377.5342,299.84494 377.84972,300.5874 L 371.50984,305.53728 C 371.19452,304.79508 370.87546,304.05447 370.56388,303.31068 C 367.99938,297.30344 365.42509,291.3003 362.90721,285.27329 C 359.80662,277.92042 356.7734,270.5392 353.63788,263.20106 C 350.17176,255.13523 346.63502,247.09996 342.97276,239.12098 C 339.34595,231.20754 335.76168,223.27316 332.42371,215.23255 C 329.3798,207.88141 326.49499,200.46514 323.71348,193.01095 C 321.23115,186.37676 318.77652,179.7231 315.84463,173.27058 C 313.585,168.52095 311.20011,163.77888 308.0361,159.55623 C 304.33372,155.46504 304.46685,158.83471 309.14373,153.94017 C 307.0944,158.25517 307.18315,163.18845 306.49621,167.85797 C 305.58466,175.54229 304.66198,183.22569 303.61742,190.8933 C 302.24166,200.95548 300.75703,211.00477 299.02637,221.01247 C 297.06676,232.16629 294.89294,243.28056 292.58922,254.36824 C 290.50288,264.43858 288.40537,274.50931 286.62777,284.63977 C 285.41357,291.52914 284.31108,298.43896 283.38216,305.37288 C 282.5493,311.16772 282.92012,311.82507 277.2945,316.14896 L 280.32049,308.69653 z " />
    <path
       style="fill:#000000;fill-opacity:1;fill-rule:nonzero;stroke:none;stroke-width:1px;stroke-linecap:butt;stroke-linejoin:miter;stroke-opacity:1"
       id="path1483"
       d="M 171.69634,380.03175 C 170.55166,379.43823 170.27432,378.54349 169.82473,377.43431 C 169.23619,374.08832 169.65161,370.68128 170.0405,367.33654 C 171.0025,360.33795 172.65674,353.4536 174.61955,346.67379 C 177.06232,338.44957 179.9674,330.36843 183.29809,322.463 C 186.43031,315.07253 190.17276,307.94595 194.66607,301.29183 C 200.12799,293.38786 206.90968,286.42612 214.44459,280.48415 C 220.04438,276.18574 226.5313,273.42558 233.14829,271.12163 C 239.33746,269.04203 245.75353,267.78545 252.22382,267.00138 C 257.53004,266.41241 262.87011,266.40147 268.14362,267.23552 C 272.89936,268.04627 277.10335,270.23568 280.96215,273.04324 C 285.09421,276.25764 288.27639,280.44227 291.26696,284.69127 C 294.38878,289.19923 296.80381,294.12616 298.87135,299.18981 C 300.8115,304.07591 302.17814,309.1553 303.30828,314.28129 C 304.35894,319.06556 304.97654,323.92588 305.45486,328.79593 C 305.8983,333.49567 306.03928,338.21495 306.11793,342.93253 C 306.17494,347.13992 306.16426,351.34781 306.14888,355.55544 C 306.13345,359.13452 306.11165,362.71358 306.0917,366.29264 C 306.08215,367.69121 306.07814,369.08981 306.07326,370.4884 L 299.15342,374.58855 C 299.15157,373.18403 299.1472,371.77954 299.16138,370.37503 C 299.18083,366.79684 299.20238,363.21866 299.22011,359.64047 C 299.23846,355.44575 299.25394,351.25085 299.2121,347.05622 C 299.1531,342.3958 299.04987,337.73305 298.65178,333.08701 C 298.22262,328.30506 297.66263,323.52963 296.67253,318.82684 C 295.61591,313.82276 294.33635,308.86034 292.48753,304.08289 C 290.54075,299.17748 288.24807,294.40483 285.25863,290.03872 C 282.44529,286.0084 279.46531,282.01405 275.54242,278.98646 C 271.97884,276.44381 268.09423,274.53741 263.70552,273.94362 C 258.61898,273.30744 253.48507,273.42935 248.40065,274.07801 C 242.0883,274.96345 235.83123,276.28074 229.82162,278.44479 C 223.42581,280.82947 217.20666,283.71323 211.92278,288.12193 C 197.51994,300.28707 220.08875,278.96706 202.24849,298.60812 C 197.6582,305.06391 193.86495,312.04097 190.69133,319.29513 C 187.30683,327.10041 184.38093,335.09717 181.88923,343.23184 C 179.88318,349.89412 178.19771,356.66209 177.13299,363.54287 C 176.70552,366.66058 176.26973,369.81007 176.51078,372.96306 C 176.36463,372.99259 176.75699,374.45914 175.79074,373.10851 L 171.69634,380.03175 z " />
    <path
       style="fill:#000000;fill-opacity:1;fill-rule:nonzero;stroke:none;stroke-width:1px;stroke-linecap:butt;stroke-linejoin:miter;stroke-opacity:1"
       id="path1487"
       d="M 195.05227,610.95072 C 195.05916,609.78693 194.991,608.62237 194.9519,607.4588 C 194.79273,602.50428 195.01788,597.54811 195.26087,592.60016 C 195.70043,584.36781 196.38275,576.14988 197.15041,567.94223 C 197.98686,559.06022 199.09044,550.20406 200.50363,541.39535 C 201.7797,533.5064 203.42187,525.67645 205.50495,517.96072 C 207.0493,512.10625 209.14363,506.40995 212.1124,501.12543 C 215.02588,495.9293 218.99786,491.53036 223.44991,487.59467 C 225.6818,485.58982 228.23993,484.438 231.17714,484.04013 C 233.85648,483.96366 235.91845,485.3007 237.75462,487.12174 C 239.98882,489.61351 241.1223,492.78578 242.11304,495.92549 C 243.36127,500.23074 244.00175,504.68022 244.60443,509.11287 C 245.28708,514.36646 245.76312,519.64404 246.13853,524.92769 C 246.53811,530.75678 246.91484,536.58755 247.14671,542.426 C 247.36869,547.87451 247.44376,553.32726 247.48792,558.77963 C 247.51711,562.95092 247.51597,567.12234 247.51045,571.2937 C 247.50462,574.67024 247.44431,578.04636 247.3879,581.42234 C 247.33698,584.39107 247.29129,587.35988 247.25094,590.32877 C 247.21575,592.91196 247.18953,595.49526 247.17145,598.07862 C 247.16763,600.37801 247.19959,602.67728 247.25924,604.97583 C 247.30079,606.34489 247.35228,607.71363 247.402,609.08241 L 242.54004,612.0335 C 242.49077,610.66203 242.4396,609.29063 242.39253,607.91908 C 242.32077,605.60402 242.27947,603.28832 242.27496,600.97206 C 242.28138,598.3824 242.3106,595.79285 242.34337,593.20337 C 242.38206,590.23257 242.42628,587.26185 242.47699,584.29124 C 242.53359,580.92312 242.59595,577.55497 242.61349,574.18637 C 242.62029,570.01945 242.62361,565.8525 242.59886,561.68563 C 242.56097,556.24992 242.49729,550.81368 242.28738,545.38143 C 242.06889,539.55889 241.70745,533.74398 241.30879,527.93123 C 240.94927,522.67914 240.4917,517.43291 239.83355,512.20907 C 239.26254,507.86115 238.65696,503.49856 237.50532,499.25965 C 236.64331,496.37546 235.6878,493.4412 233.70386,491.11411 C 232.18766,489.68846 230.67621,488.65192 228.49467,489.0553 C 225.90255,489.75678 223.69808,491.13638 221.77701,493.03057 C 220.52216,494.25764 218.1003,496.71707 223.66192,491.09502 C 224.14793,490.60374 216.4217,499.79994 217.42343,499.09057 C 214.3631,504.20045 212.18054,509.74868 210.63016,515.49498 C 208.49889,523.14545 206.84478,530.92282 205.54148,538.75572 C 204.10399,547.5273 202.98116,556.34793 202.13082,565.19575 C 201.35152,573.38018 200.66849,581.5757 200.20241,589.78435 C 199.9482,594.68954 199.71177,599.60219 199.81844,604.51525 C 199.85421,605.6955 199.89351,606.8768 199.94774,608.05555 L 195.05227,610.95072 z " />
    <path
       style="fill:#000000;fill-opacity:1;fill-rule:nonzero;stroke:none;stroke-width:1px;stroke-linecap:butt;stroke-linejoin:miter;stroke-opacity:1"
       id="path1493"
       d="M 227.4001,395.56355 C 227.495,395.77515 226.39484,395.60331 226.048,395.5844 C 224.12708,395.77821 222.4963,396.69222 220.98319,397.83606 C 221.31658,397.33161 219.23368,399.50608 219.66609,399.08341 C 225.48299,393.39738 220.40585,398.47342 219.63291,402.0393 C 219.08099,405.69636 220.62457,408.72504 222.86771,411.4772 C 225.25857,414.3101 228.35987,415.92628 231.99559,416.42192 C 236.61386,416.97057 241.66376,411.09226 236.30529,416.34947 C 238.20683,414.03642 238.34872,411.18411 237.94193,408.34336 C 237.49583,405.61004 236.17007,403.27397 234.53053,401.09924 C 233.12092,399.33728 231.30966,398.04227 229.37937,396.91824 C 228.41334,396.38672 227.36898,396.03565 226.33285,395.67236 L 229.73371,391.11365 C 230.85899,391.53355 231.98832,391.95043 233.03066,392.55753 C 235.13494,393.83196 237.12396,395.28055 238.68314,397.21292 C 240.5529,399.57232 242.02097,402.18566 242.65474,405.15949 C 243.26909,408.3568 243.32536,411.59835 241.6932,414.52791 C 237.70349,418.77757 234.97186,422.00836 228.88916,421.18614 C 224.88807,420.39431 221.41603,418.54347 218.74648,415.39678 C 216.19372,412.30117 214.34486,408.86231 214.61783,404.72194 C 215.27375,399.37014 218.23125,395.48472 222.8833,392.47535 C 224.77132,391.39056 226.77669,390.59111 228.99228,390.71831 C 229.73508,390.831 230.52718,390.85387 231.15989,391.29604 L 227.4001,395.56355 z " />
  </g>
</svg>
