<?xml version="1.0" encoding="UTF-8" standalone="no"?>
<!-- Created with Inkscape (http://www.inkscape.org/) -->
<svg
   xmlns:dc="http://purl.org/dc/elements/1.1/"
   xmlns:cc="http://web.resource.org/cc/"
   xmlns:rdf="http://www.w3.org/1999/02/22-rdf-syntax-ns#"
   xmlns:svg="http://www.w3.org/2000/svg"
   xmlns="http://www.w3.org/2000/svg"
   xmlns:xlink="http://www.w3.org/1999/xlink"
   xmlns:sodipodi="http://inkscape.sourceforge.net/DTD/sodipodi-0.dtd"
   xmlns:inkscape="http://www.inkscape.org/namespaces/inkscape"
   width="1000"
   height="1000"
   id="svg2"
   sodipodi:version="0.32"
   inkscape:version="0.43"
   version="1.0"
   sodipodi:docbase="/home/kkowal/tale/art/ride"
   sodipodi:docname="gyro-pig.svg">
  <defs
     id="defs4">
    <linearGradient
       gradientTransform="matrix(-1.318693,0,0,1,1123.869,5.637235)"
       gradientUnits="userSpaceOnUse"
       y2="731.89899"
       x2="400.93997"
       y1="675.82758"
       x1="459.02106"
       id="linearGradient5404"
       xlink:href="#linearGradient5398"
       inkscape:collect="always" />
    <linearGradient
       id="linearGradient5398">
      <stop
         id="stop5400"
         offset="0"
         style="stop-color:#000000;stop-opacity:1;" />
      <stop
         id="stop5402"
         offset="1"
         style="stop-color:#000000;stop-opacity:0;" />
    </linearGradient>
    <linearGradient
       gradientTransform="matrix(-1.318693,0,0,1,1123.869,5.637235)"
       gradientUnits="userSpaceOnUse"
       y2="731.89899"
       x2="400.93997"
       y1="675.82758"
       x1="459.02106"
       id="linearGradient5906"
       xlink:href="#linearGradient5398"
       inkscape:collect="always" />
    <linearGradient
       id="linearGradient5900">
      <stop
         id="stop5902"
         offset="0"
         style="stop-color:#000000;stop-opacity:1;" />
      <stop
         id="stop5904"
         offset="1"
         style="stop-color:#000000;stop-opacity:0;" />
    </linearGradient>
  </defs>
  <sodipodi:namedview
     id="base"
     pagecolor="#ffffff"
     bordercolor="#666666"
     borderopacity="1.0"
     inkscape:pageopacity="0.0"
     inkscape:pageshadow="2"
     inkscape:zoom="0.49497475"
     inkscape:cx="979.34062"
     inkscape:cy="658.0613"
     inkscape:document-units="px"
     inkscape:current-layer="g5908"
     inkscape:window-width="1670"
     inkscape:window-height="971"
     inkscape:window-x="0"
     inkscape:window-y="25"
     showguides="true"
     inkscape:guide-bbox="true" />
  <metadata
     id="metadata7">
    <rdf:RDF>
      <cc:Work
         rdf:about="">
        <dc:format>image/svg+xml</dc:format>
        <dc:type
           rdf:resource="http://purl.org/dc/dcmitype/StillImage" />
      </cc:Work>
    </rdf:RDF>
  </metadata>
  <g
     inkscape:label="Layer 1"
     inkscape:groupmode="layer"
     id="layer1">
    <g
       id="g3446"
       transform="matrix(3.8907,0,0,3.8907,-1208.935,-1022.735)">
      <path
         sodipodi:nodetypes="ccccccccc"
         id="path3426"
         d="M 392.32144,332.14285 C 414.41129,328.76944 436.75221,328.86957 459.01851,328.2091 C 480.88025,328.61016 503.12812,327.22869 524.28353,330.06787 C 536.56837,330.9167 534.3413,344.61717 523.50297,345.20702 C 507.92356,350.5383 491.24128,350.47471 475.37801,354.70511 C 458.68061,357.77608 441.708,354.74236 425.02266,353.30769 C 413.24756,352.59667 401.67008,350.87631 390.08696,348.61372 C 375.71081,347.06576 364.2208,340.81522 377.97401,335.60932 C 382.38176,333.2997 387.36992,332.25401 392.32144,332.14285 z "
         style="opacity:1;color:#000000;fill:#616161;fill-opacity:0.52873565;fill-rule:nonzero;stroke:none;stroke-width:0.52545293;stroke-linecap:butt;stroke-linejoin:miter;marker:none;marker-start:none;marker-mid:none;marker-end:none;stroke-miterlimit:4;stroke-dasharray:none;stroke-dashoffset:0;stroke-opacity:1;visibility:visible;display:inline;overflow:visible" />
      <path
         d="M 450.99694,346.60552 C 451.10767,346.03946 451.2612,345.455 451.58647,344.97868 C 451.38214,346.20863 452.40336,346.84744 450.8951,345.95047 C 448.05384,344.51585 444.86441,343.93425 444.08193,340.45664 C 445.09344,335.8681 451.12855,335.65545 455.03907,335.02107 C 458.70278,334.4541 462.41061,334.03033 466.12012,334.26997 C 469.99823,334.68472 470.78855,338.86921 467.90316,341.15127 C 466.83322,341.83632 465.66513,342.35226 464.51573,342.88826 C 464.37163,342.9563 464.22636,343.02182 464.08168,343.0886 L 460.86341,337.69511 C 460.86535,337.69426 461.26946,337.51467 461.28222,337.51211 C 462.1528,337.12153 463.02141,336.72625 463.8723,336.29419 C 463.22077,337.70274 463.89758,339.83537 464.52066,340.1021 C 462.38117,339.75349 459.63983,339.7977 456.63558,340.24625 C 454.83831,340.51518 453.03959,340.83512 451.30921,341.40379 C 450.79084,341.57415 449.92991,342.55818 449.79641,342.02911 C 449.66783,341.51954 451.18494,340.96769 450.37108,340.21734 C 449.36605,336.94253 451.36801,340.40431 454.23278,341.0223 C 456.56841,342.20102 458.56175,344.06642 457.72841,346.91092 C 457.13224,348.57807 456.91639,348.62375 457.57449,346.60552 L 450.99694,346.60552 z "
         id="path2312"
         style="opacity:1;color:#000000;fill:#000000;fill-opacity:1;fill-rule:nonzero;stroke:none;stroke-width:2.04437971;stroke-linecap:butt;stroke-linejoin:miter;marker:none;marker-start:none;marker-mid:none;marker-end:none;stroke-miterlimit:4;stroke-dasharray:none;stroke-dashoffset:0;stroke-opacity:1;visibility:visible;display:inline;overflow:visible" />
      <path
         id="path2270"
         d="M 478.4375,327.3125 C 459.63363,327.43866 440.81018,328.11499 422.03125,329.09375 C 406.12241,330.00823 389.90168,330.49262 374.40625,334.46875 C 363.55346,338.37154 367.86031,345.4639 376.8125,347.34375 C 388.71384,350.44489 400.99925,351.74934 413.15625,353.40625 C 414.47523,353.54729 415.80477,353.68933 417.125,353.8125 C 417.03936,353.00002 416.93812,352.18651 416.84375,351.375 C 415.81931,351.27639 414.80411,351.17498 413.78125,351.0625 C 401.93395,349.36158 389.85656,347.60632 378.5625,343.46875 C 375.38798,341.96364 373.60427,341.37369 373.5,340.6875 C 373.49943,340.68266 373.5004,340.66111 373.5,340.65625 C 373.49977,340.65138 373.50006,340.62989 373.5,340.625 C 373.52936,340.09399 374.53259,339.46767 376.65625,338.28125 C 390.95869,332.30793 406.95319,331.20399 422.25,329.9375 C 443.16631,328.21742 464.15506,327.88495 485.125,328.5625 C 498.87829,329.44548 512.94092,329.67108 526.40625,332.9375 C 530.577,334.35218 533.90668,334.73391 530.15625,338.3125 C 521.36848,344.78196 510.03975,347.08903 499.53125,349.1875 C 497.94133,349.49561 496.34612,349.76209 494.75,350.03125 C 494.93044,350.86947 495.03945,351.72059 495.125,352.59375 C 496.88052,352.32292 498.62337,352.01678 500.375,351.71875 C 511.66642,349.67836 523.55581,347.60407 533.5625,341.71875 C 541.34795,335.79278 535.83321,329.43825 527.6875,329.03125 C 513.66528,327.25037 499.44108,327.67045 485.34375,327.3125 C 483.0343,327.31149 480.74675,327.29701 478.4375,327.3125 z "
         style="opacity:1;color:#000000;fill:#000000;fill-opacity:1;fill-rule:nonzero;stroke:none;stroke-width:2.04437971;stroke-linecap:butt;stroke-linejoin:miter;marker:none;marker-start:none;marker-mid:none;marker-end:none;stroke-miterlimit:4;stroke-dasharray:none;stroke-dashoffset:0;stroke-opacity:1;visibility:visible;display:inline;overflow:visible" />
    </g>
    <path
       style="color:#000000;fill:#5c5c5c;fill-opacity:1;fill-rule:nonzero;stroke:none;stroke-width:2.04437971;stroke-linecap:butt;stroke-linejoin:miter;marker:none;marker-start:none;marker-mid:none;marker-end:none;stroke-miterlimit:4;stroke-dasharray:none;stroke-dashoffset:0;stroke-opacity:1;visibility:visible;display:inline;overflow:visible"
       d="M 543.26956,552.9985 C 508.11289,579.28349 462.48922,587.01326 428.2465,614.76496 C 418.47007,622.90703 410.36683,633.57322 407.12872,646.0314 C 431.80848,655.89398 458.92358,645.51725 484.20205,651.61864 C 494.91851,653.7295 499.06191,665.85716 496.21746,675.46003 C 496.93954,684.09568 484.78577,694.38265 492.45803,700.42922 C 502.9518,710.30931 519.21239,709.85394 531.06385,702.76368 C 556.30088,689.31046 574.65981,664.62618 602.57189,655.97373 C 621.34953,653.88781 640.80241,640.94622 643.9643,621.17473 C 647.44294,595.92498 631.12604,571.98737 610.84635,558.44213 C 599.18772,550.97273 585.4581,546.75688 571.7391,545.46486 C 561.78614,544.99323 551.56812,547.36115 543.26956,552.9985 z "
       id="path3403" />
    <path
       d="M 652.42436,635.1134 C 679.01251,625.35599 646.91124,639.41768 641.22794,642.20626 C 615.4757,654.90698 590.71657,669.50349 566.63987,685.12387 C 547.05708,696.54475 530.13083,711.95173 511.11203,724.15164 C 494.82521,735.17531 477.8918,726.57776 479.41178,706.77492 C 480.84663,694.64873 484.8025,683.01328 488.8524,671.55256 C 491.18484,664.38084 494.48303,657.23634 495.51795,649.82542 C 497.02622,660.69206 501.97371,657.49636 490.33188,657.49259 C 473.3638,657.95002 456.43898,659.38946 439.4937,660.34762 C 425.82478,660.90208 411.70255,661.98685 398.4625,657.81217 C 381.23662,652.06199 383.82642,635.29673 395.08008,624.84743 C 413.76473,609.80015 435.54701,599.02307 456.93283,588.38158 C 483.72578,575.29346 510.87108,562.93897 538.15602,550.91464 C 542.5557,548.97439 546.969,547.06542 551.38377,545.15991 L 560.71313,562.56927 C 556.21377,564.14217 551.71651,565.7214 547.24905,567.38347 C 519.68134,577.6569 492.47387,589.0293 466.36311,602.62309 C 447.1492,612.85571 427.67041,623.83258 412.09442,639.2596 C 407.35932,645.04149 408.93108,636.87242 408.57621,636.55638 C 418.14644,639.69754 426.53572,639.26956 435.5725,639.5828 C 452.35713,639.44203 469.10173,638.13347 485.75763,636.0821 C 499.03892,634.54695 520.76533,632.35765 519.55516,652.2103 C 517.99165,661.41998 513.25752,669.76191 510.29864,678.54695 C 506.73433,687.97859 503.15007,697.63947 502.4311,707.77568 C 502.54833,710.19589 487.99602,705.96705 498.87489,705.93188 C 519.58014,698.04247 536.21102,681.23356 556.05195,671.5917 C 580.58577,656.51773 605.15694,641.4878 629.35683,625.88326 C 639.53416,619.02064 645.12097,611.81371 656.42773,609.83719 L 652.42436,635.1134 z "
       id="path2294"
       style="color:#000000;fill:#000000;fill-opacity:1;fill-rule:nonzero;stroke:none;stroke-width:2.04437971;stroke-linecap:butt;stroke-linejoin:miter;marker:none;marker-start:none;marker-mid:none;marker-end:none;stroke-miterlimit:4;stroke-dasharray:none;stroke-dashoffset:0;stroke-opacity:1;visibility:visible;display:inline;overflow:visible" />
    <path
       style="color:#000000;fill:#000000;fill-opacity:1;fill-rule:nonzero;stroke:none;stroke-width:2.04437971;stroke-linecap:butt;stroke-linejoin:miter;marker:none;marker-start:none;marker-mid:none;marker-end:none;stroke-miterlimit:4;stroke-dasharray:none;stroke-dashoffset:0;stroke-opacity:1;visibility:visible;display:inline;overflow:visible"
       id="path2302"
       d="M 668.03817,429.32355 C 669.03045,421.09191 675.38785,414.81283 681.26923,409.51479 C 712.20784,385.46828 753.10439,378.55863 790.94557,373.27646 C 841.395,367.33582 895.63731,367.10328 941.12204,392.6011 C 977.28524,414.33781 978.17065,452.58522 953.65052,483.55488 C 927.34772,512.47574 888.91752,525.7314 851.00016,530.47552 C 821.44991,532.81916 785.80008,531.75237 764.92185,507.53739 C 747.63446,482.92724 766.31663,457.73309 786.46325,442.46559 C 811.59644,424.94849 841.89009,417.03994 872.3345,419.06206 C 893.05081,421.00149 916.61063,429.15018 921.86172,451.62644 C 924.12494,470.0312 907.72209,479.4723 892.33838,483.57539 C 879.92339,486.7365 867.04658,486.22344 855.14158,481.57681 C 853.5255,480.92446 852.06026,479.98416 850.55067,479.13116 L 865.19873,459.90624 C 865.78206,460.24228 866.31703,460.67173 866.95293,460.91681 C 875.8066,464.26483 875.15071,463.24601 884.33268,462.65723 C 889.72181,461.49193 896.24239,459.9795 899.56653,455.43419 C 896.43296,442.22277 879.7645,438.97645 868.185,437.25839 C 843.62398,435.18247 819.11082,441.51708 798.96353,455.98048 C 787.44184,464.96889 772.43191,480.24281 781.45799,495.76421 C 795.99547,515.0629 825.22634,515.5306 847.05106,515.17118 C 881.4273,512.20168 916.55955,500.81146 940.03113,474.29852 C 958.42539,450.3755 958.7408,422.75067 932.23405,404.45376 C 891.62646,378.19819 840.54247,377.53611 794.08093,383.66665 C 760.27203,389.25844 722.44996,397.61002 697.74226,423.24016 C 696.64084,424.61794 691.4545,434.59735 693.62944,429.32355 L 668.03817,429.32355 z " />
    <path
       id="path3422"
       d="M 406.40056,552.9985 C 371.24389,579.28349 325.62022,587.01326 291.3775,614.76496 C 281.60107,622.90703 273.49783,633.57322 270.25972,646.0314 C 294.93948,655.89398 322.05458,645.51725 347.33305,651.61864 C 358.04951,653.7295 362.19291,665.85716 359.34846,675.46003 C 360.07054,684.09568 347.91677,694.38265 355.58903,700.42922 C 366.0828,710.30931 382.34339,709.85394 394.19485,702.76368 C 419.43188,689.31046 437.79081,664.62618 465.70289,655.97373 C 484.48053,653.88781 503.93341,640.94622 507.0953,621.17473 C 510.57394,595.92498 494.25704,571.98737 473.97735,558.44213 C 462.31872,550.97273 448.5891,546.75688 434.8701,545.46486 C 424.91714,544.99323 414.69912,547.36115 406.40056,552.9985 z "
       style="color:#000000;fill:#5c5c5c;fill-opacity:1;fill-rule:nonzero;stroke:none;stroke-width:2.04437971;stroke-linecap:butt;stroke-linejoin:miter;marker:none;marker-start:none;marker-mid:none;marker-end:none;stroke-miterlimit:4;stroke-dasharray:none;stroke-dashoffset:0;stroke-opacity:1;visibility:visible;display:inline;overflow:visible" />
    <path
       style="color:#000000;fill:#000000;fill-opacity:1;fill-rule:nonzero;stroke:none;stroke-width:2.04437971;stroke-linecap:butt;stroke-linejoin:miter;marker:none;marker-start:none;marker-mid:none;marker-end:none;stroke-miterlimit:4;stroke-dasharray:none;stroke-dashoffset:0;stroke-opacity:1;visibility:visible;display:inline;overflow:visible"
       id="path3424"
       d="M 515.55536,635.1134 C 542.14351,625.35599 510.04224,639.41768 504.35894,642.20626 C 478.6067,654.90698 453.84757,669.50349 429.77087,685.12387 C 410.18808,696.54475 393.26183,711.95173 374.24303,724.15164 C 357.95621,735.17531 341.0228,726.57776 342.54278,706.77492 C 343.97763,694.64873 347.9335,683.01328 351.9834,671.55256 C 354.31584,664.38084 357.61403,657.23634 358.64895,649.82542 C 360.15722,660.69206 365.10471,657.49636 353.46288,657.49259 C 336.4948,657.95002 319.56998,659.38946 302.6247,660.34762 C 288.95578,660.90208 274.83355,661.98685 261.5935,657.81217 C 244.36762,652.06199 246.95742,635.29673 258.21108,624.84743 C 276.89573,609.80015 298.67801,599.02307 320.06383,588.38158 C 346.85678,575.29346 374.00208,562.93897 401.28702,550.91464 C 405.6867,548.97439 410.1,547.06542 414.51477,545.15991 L 423.84413,562.56927 C 419.34477,564.14217 414.84751,565.7214 410.38005,567.38347 C 382.81234,577.6569 355.60487,589.0293 329.49411,602.62309 C 310.2802,612.85571 290.80141,623.83258 275.22542,639.2596 C 270.49032,645.04149 272.06208,636.87242 271.70721,636.55638 C 281.27744,639.69754 289.66672,639.26956 298.7035,639.5828 C 315.48813,639.44203 332.23273,638.13347 348.88863,636.0821 C 362.16992,634.54695 383.89633,632.35765 382.68616,652.2103 C 381.12265,661.41998 376.38852,669.76191 373.42964,678.54695 C 369.86533,687.97859 366.28107,697.63947 365.5621,707.77568 C 365.67933,710.19589 351.12702,705.96705 362.00589,705.93188 C 382.71114,698.04247 399.34202,681.23356 419.18295,671.5917 C 443.71677,656.51773 468.28794,641.4878 492.48783,625.88326 C 502.66516,619.02064 508.25197,611.81371 519.55873,609.83719 L 515.55536,635.1134 z " />
    <path
       style="color:#000000;fill:#743e12;fill-opacity:1;fill-rule:nonzero;stroke:none;stroke-width:2.04437971;stroke-linecap:butt;stroke-linejoin:miter;marker:none;marker-start:none;marker-mid:none;marker-end:none;stroke-miterlimit:4;stroke-dasharray:none;stroke-dashoffset:0;stroke-opacity:1;visibility:visible;display:inline;overflow:visible"
       d="M 418.21157,324.41992 C 487.99221,325.98527 557.76032,321.49466 627.53361,322.72525 C 651.84686,321.53606 676.12012,319.51009 700.28903,316.60689 C 718.96183,325.85139 716.89976,349.14159 718.89308,366.6469 C 728.05077,426.21803 724.79792,481.29524 724.38939,545.69388 C 726.29054,577.55007 723.90103,609.26609 725.22457,641.16033 C 716.06318,660.92443 690.53949,658.06994 672.9164,654.29569 C 589.3344,641.07672 504.1906,630.72999 419.60584,640.03257 C 397.8936,637.73053 389.11334,608.36142 401.25244,591.95877 C 423.0332,526.96253 419.45897,457.29118 416.97596,389.81325 C 415.90583,372.28483 414.23812,354.79485 412.07524,337.36817 C 412.7165,332.5781 414.59073,327.75647 418.21157,324.41992 z "
       id="path3345"
       sodipodi:nodetypes="cccccccccccc" />
    <path
       style="opacity:1;color:#000000;fill:#202020;fill-opacity:1;fill-rule:nonzero;stroke:none;stroke-width:80;stroke-linecap:butt;stroke-linejoin:miter;marker:none;marker-start:none;marker-mid:none;marker-end:none;stroke-miterlimit:4;stroke-dasharray:none;stroke-dashoffset:0;stroke-opacity:0.25465836;visibility:visible;display:inline;overflow:visible"
       d="M 441.07144,347.85715 C 432.89814,360.1653 441.37062,374.4656 442.0321,387.57484 C 443.67575,399.77864 440.00236,414.34745 449.56396,424.10716 C 463.11647,431.44855 479.26346,426.16781 493.43139,431.27892 C 551.77659,440.11004 611.31862,432.51253 669.55143,442.54562 C 681.39913,443.9314 695.82864,437.78188 696.9628,424.54748 C 699.24883,411.54092 696.55322,398.11346 699.77553,385.21653 C 700.85788,374.03416 706.079,361.83598 699.83928,351.24429 C 688.39052,341.20234 674.53364,348.37888 660.4386,348.58003 C 642.73294,351.1361 622.70842,355.74729 604.5435,350.39277 C 565.43466,347.38629 526.00297,355.99502 487.11644,348.82232 C 471.80317,347.68602 456.41757,346.89165 441.07144,347.85715 z "
       id="path4249"
       sodipodi:nodetypes="cccccccccccc" />
    <path
       style="color:#000000;fill:#5c5c5c;fill-opacity:1;fill-rule:nonzero;stroke:none;stroke-width:2.04437971;stroke-linecap:butt;stroke-linejoin:miter;marker:none;marker-start:none;marker-mid:none;marker-end:none;stroke-miterlimit:4;stroke-dasharray:none;stroke-dashoffset:0;stroke-opacity:1;visibility:visible;display:inline;overflow:visible"
       d="M 364.71421,400.84431 C 414.05864,395.8839 465.03976,399.62551 511.39609,418.22127 C 535.49579,426.31552 562.04779,439.9239 570.48345,465.70936 C 574.55589,487.43227 563.73107,508.45442 552.8701,526.45801 C 538.91696,542.01821 516.59033,543.85384 499.68042,554.86864 C 475.19714,567.2897 447.64378,572.96437 420.25894,571.92072 C 380.48061,572.97919 339.80047,568.88143 302.79757,553.42729 C 284.43689,541.07491 274.50293,519.72037 268.24769,499.2426 C 264.37092,469.474 286.19172,443.48304 310.05552,428.73238 C 326.86976,417.47476 344.10202,403.69059 364.71421,400.84431 z "
       id="path3199" />
    <path
       style="color:#000000;fill:#b4b4b4;fill-opacity:1;fill-rule:nonzero;stroke:none;stroke-width:2.04437971;stroke-linecap:butt;stroke-linejoin:miter;marker:none;marker-start:none;marker-mid:none;marker-end:none;stroke-miterlimit:4;stroke-dasharray:none;stroke-dashoffset:0;stroke-opacity:1;visibility:visible;display:inline;overflow:visible"
       d="M 364.01945,404.31816 C 360.45732,403.17173 352.78548,405.70773 347.345,405.70773 C 344.18777,405.70773 338.35682,409.15967 335.53396,410.5711 C 331.47721,412.59944 328.86001,413.56068 325.11245,415.43448 C 321.44465,417.26836 318.23688,419.21962 314.6909,420.99261 C 311.01769,422.82922 308.04021,425.01272 304.96415,426.55075 C 301.60725,428.2292 298.10983,430.32531 294.54264,432.10889 C 290.51981,434.1203 287.4844,436.36594 284.12113,439.05655 C 280.26793,442.13911 278.44168,445.93441 275.7839,449.4781 C 273.17145,452.96137 272.0272,457.68631 270.22576,461.28914 C 268.76208,464.21654 267.46084,467.48547 266.75195,470.32112 C 265.86744,473.85906 263.2781,476.19056 263.2781,481.4374 C 263.2781,485.60601 263.2781,489.77462 263.2781,493.94324 C 263.2781,498.34907 265.03569,502.36318 266.05715,506.44904 C 267.18347,510.9542 268.42102,515.20976 269.531,519.64964 C 270.46041,523.36728 272.99598,527.27436 274.39437,530.07115 C 275.90568,533.09376 279.05812,536.75265 281.34208,539.7979 C 283.65393,542.88038 286.25257,544.00188 288.9845,546.0508 C 292.70226,548.83915 296.33213,549.37727 300.79558,551.60898 C 306.04822,554.23528 311.65098,557.1019 317.46999,558.55664 C 322.85425,559.9027 329.17232,560.93397 334.1444,563.42001 C 338.11957,565.40758 345.70382,563.7045 350.12409,564.80954 C 353.95775,565.76797 358.59889,565.5043 362.62989,565.5043 C 366.88748,565.5043 371.26327,565.23098 375.13573,566.1991 C 379.35581,567.2541 385.71983,566.30551 389.72585,565.5043 C 395.4507,564.35934 400.75404,564.60734 406.40026,562.72525 C 410.92036,561.21854 414.77145,558.53967 418.9061,556.47235 C 422.84757,554.50159 428.23191,553.27241 432.1067,552.30374 C 435.65685,551.41619 439.40289,549.69779 442.52821,548.13512 C 446.59038,546.10402 450.31619,543.54636 453.64449,541.88223 C 456.75059,540.32917 460.1951,537.49033 462.67648,535.62929 C 466.45999,532.79168 468.45592,529.15508 471.70846,525.90254 C 475.05832,522.55268 477.88608,518.3354 480.74045,515.48102 C 482.84859,513.37289 484.12353,505.42244 484.90902,502.28042 C 486.18903,497.1605 486.99335,493.25431 486.99335,487.6903 C 486.99335,483.7533 486.99335,479.81626 486.99335,475.87926 C 486.99335,471.50724 484.477,467.20343 483.5195,463.37342 C 482.41575,458.95845 480.2915,456.34565 478.65612,452.25715 C 477.27983,448.81641 473.53939,445.49753 471.70846,441.83564 C 469.65822,437.73519 466.0073,435.30179 462.67648,432.80365 C 459.32234,430.28804 456.02945,427.74321 452.25496,425.85599 C 448.53207,423.99456 445.91044,421.3171 441.83345,420.29785 C 438.55717,419.47878 434.57835,416.32292 431.4119,414.73967 C 427.68496,412.87622 422.18094,411.5635 418.21134,410.5711 C 413.41309,409.37152 409.67471,406.64052 405.01074,405.70773 C 401.04724,404.915 396.92131,404.55382 393.1997,403.6234 C 390.17005,402.866 385.91954,403.6234 382.77815,403.6234 C 379.30434,403.6234 375.83049,403.6234 372.35664,403.6234 C 369.38792,403.6234 366.99685,403.72269 364.01945,404.31816 z "
       id="path2314" />
    <path
       style="color:#000000;fill:#000000;fill-opacity:1;fill-rule:nonzero;stroke:none;stroke-width:2.04437971;stroke-linecap:butt;stroke-linejoin:miter;marker:none;marker-start:none;marker-mid:none;marker-end:none;stroke-miterlimit:4;stroke-dasharray:none;stroke-dashoffset:0;stroke-opacity:1;visibility:visible;display:inline;overflow:visible"
       id="path2208"
       d="M 354.28364,423.8436 C 352.34132,420.72591 332.85455,424.5989 322.89763,428.17251 C 298.71285,437.6336 280.35602,456.90833 272.34491,481.55505 C 264.95989,509.00814 281.83067,530.48539 304.14216,544.18505 C 335.76095,561.59193 372.60195,563.39947 407.24606,555.61309 C 435.74622,547.96961 464.86978,531.60945 475.69316,502.64385 C 483.17101,477.32555 468.97805,454.60297 450.77696,438.11963 C 428.20433,419.3486 399.30001,411.17326 370.33324,410.64035 C 358.06536,410.77147 345.93715,412.9284 334.15537,416.25242 L 326.80031,397.89357 C 342.20916,394.35245 357.96074,392.36387 373.80281,393.21943 C 406.18005,395.38986 438.13518,405.35566 463.42847,426.28299 C 486.74551,447.33448 503.21975,476.70713 492.71626,508.61927 C 479.05582,542.02268 446.22197,561.22585 412.46014,569.76617 C 372.87321,578.39143 330.73117,576.30582 294.33561,557.24847 C 265.06206,539.9929 245.06099,511.52574 255.21299,476.46267 C 265.03467,447.46241 285.96742,424.5612 313.71429,411.54549 C 327.8487,405.19769 342.86202,400.28028 358.26791,398.68812 L 354.28364,423.8436 z " />
    <path
       style="color:#000000;fill:#5c5c5c;fill-opacity:1;fill-rule:nonzero;stroke:none;stroke-width:2.04437971;stroke-linecap:butt;stroke-linejoin:miter;marker:none;marker-start:none;marker-mid:none;marker-end:none;stroke-miterlimit:4;stroke-dasharray:none;stroke-dashoffset:0;stroke-opacity:1;visibility:visible;display:inline;overflow:visible"
       d="M 321.63856,455.731 C 316.41001,471.311 305.28288,484.54665 302.43924,500.98622 C 301.15582,508.71475 305.17296,517.22231 312.33928,520.62188 C 323.64332,523.5759 335.58446,520.40436 345.71266,515.1628 C 352.723,512.52767 359.7896,507.38238 361.34954,499.62553 C 361.72942,491.62481 357.93276,484.26442 356.95098,476.44727 C 353.36866,467.0031 344.67999,461.14063 337.6251,454.45547 C 333.39443,451.07764 326.20157,450.07606 322.38048,454.58593 C 322.09992,454.94465 321.8522,455.3289 321.63856,455.731 z "
       id="path3225" />
    <path
       style="color:#000000;fill:#000000;fill-opacity:1;fill-rule:nonzero;stroke:none;stroke-width:2.04437971;stroke-linecap:butt;stroke-linejoin:miter;marker:none;marker-start:none;marker-mid:none;marker-end:none;stroke-miterlimit:4;stroke-dasharray:none;stroke-dashoffset:0;stroke-opacity:1;visibility:visible;display:inline;overflow:visible"
       id="path2212"
       d="M 346.52593,442.86344 C 343.35699,447.11547 339.67919,451.02695 336.35478,455.18665 C 329.38238,464.21467 322.68707,473.67121 318.16677,484.19972 C 315.03888,491.26776 315.3068,498.06073 319.2194,504.64741 C 324.25782,509.26073 332.42996,510.58014 332.89545,510.5761 C 339.55547,510.21228 345.38736,507.75079 348.65309,501.79852 C 351.49863,494.0435 348.24033,485.81 344.73924,478.80464 C 341.10953,471.56821 335.64648,465.68294 329.03657,461.10943 C 326.4442,459.30006 323.67756,458.46725 320.60636,458.33384 L 327.99079,435.15087 C 334.15903,436.89768 339.88365,439.61638 344.84682,443.75118 C 353.4704,451.02913 360.68399,459.7122 365.38407,470.06037 C 371.25004,482.80179 375.28731,497.24761 369.74154,510.83903 C 363.59739,523.68285 351.66099,531.26629 337.58479,532.77534 C 322.04817,533.3016 307.19566,529.39323 298.86633,515.05686 C 292.10741,502.75762 291.40055,488.78962 297.31429,475.95046 C 302.64992,464.25914 310.11299,453.75168 317.09411,443.01308 C 318.67926,440.58536 323.4005,433.38379 323.13979,432.49593 L 346.52593,442.86344 z " />
    <path
       style="color:#000000;fill:#5c5c5c;fill-opacity:1;fill-rule:nonzero;stroke:none;stroke-width:2.04437971;stroke-linecap:butt;stroke-linejoin:miter;marker:none;marker-start:none;marker-mid:none;marker-end:none;stroke-miterlimit:4;stroke-dasharray:none;stroke-dashoffset:0;stroke-opacity:1;visibility:visible;display:inline;overflow:visible"
       d="M 379.99906,456.42572 C 376.72165,458.87321 376.17501,463.35051 376.64287,467.12892 C 375.96281,474.44488 373.65119,481.80192 375.17374,489.16709 C 374.90505,501.18562 379.33391,514.1406 389.52501,521.21926 C 397.11946,526.32145 408.31262,524.29517 413.90009,517.13068 C 422.03846,508.56733 423.70707,495.25448 419.57308,484.42394 C 415.92493,470.77249 407.60669,457.72063 394.86399,450.99481 C 389.41502,448.78583 383.18792,451.8745 379.99906,456.42572 z "
       id="path3227" />
    <path
       style="color:#000000;fill:#000000;fill-opacity:1;fill-rule:nonzero;stroke:none;stroke-width:2.04437971;stroke-linecap:butt;stroke-linejoin:miter;marker:none;marker-start:none;marker-mid:none;marker-end:none;stroke-miterlimit:4;stroke-dasharray:none;stroke-dashoffset:0;stroke-opacity:1;visibility:visible;display:inline;overflow:visible"
       id="path2222"
       d="M 403.54282,463.09582 C 404.1579,460.76436 397.66362,466.34082 396.16301,467.861 C 389.64321,475.22714 385.18319,483.91733 383.29834,493.54958 C 382.55008,500.34072 384.63619,506.55825 389.22212,511.54072 C 392.41607,514.96811 398.53525,513.83608 393.41163,513.92439 C 398.50654,512.68069 401.61649,508.06508 404.34076,503.88191 C 407.78185,498.55197 408.14835,492.83069 407.09829,486.74447 C 405.42537,479.46509 400.93682,473.42478 396.22919,467.80205 C 392.37989,463.21064 387.78256,459.41787 382.82274,456.10614 C 381.70626,455.35232 380.46653,454.83509 379.25699,454.26386 L 392.89553,434.14174 C 394.8138,435.31311 396.73728,436.47943 398.51739,437.85926 C 404.74644,442.69358 410.4278,448.18296 415.24764,454.44368 C 421.72238,462.99544 427.78472,472.18162 430.02183,482.84416 C 432.09059,493.88818 430.65998,505.0971 424.78954,514.8156 C 419.36614,523.89708 412.25483,532.51132 401.99766,536.17091 C 389.80374,539.70374 378.11655,534.80839 370.30667,525.23532 C 362.51702,515.12845 359.06367,502.60876 361.03416,489.91769 C 363.51432,476.9166 369.68388,465.12241 377.57056,454.57702 C 381.77073,448.98281 386.41953,443.63808 392.50739,440.05424 L 403.54282,463.09582 z " />
    <path
       style="color:#000000;fill:#000000;fill-opacity:1;fill-rule:nonzero;stroke:none;stroke-width:2.04437971;stroke-linecap:butt;stroke-linejoin:miter;marker:none;marker-start:none;marker-mid:none;marker-end:none;stroke-miterlimit:4;stroke-dasharray:none;stroke-dashoffset:0;stroke-opacity:1;visibility:visible;display:inline;overflow:visible"
       id="path2256"
       d="M 359.78022,387.51547 C 345.98929,387.76067 367.16189,388.55604 369.54242,388.71645 C 398.01748,390.13594 426.39013,393.15244 454.52332,397.78035 C 490.29978,404.02589 526.55772,413.03889 557.15905,433.35251 C 585.34951,453.09731 589.51929,484.11836 573.22375,513.00098 C 554.36432,542.22539 522.8521,559.41983 490.36604,569.37955 C 461.8713,577.51687 432.11226,579.57786 402.62621,577.9575 C 393.53558,577.43311 384.49652,576.30527 375.51997,574.80155 L 382.63789,554.4044 C 390.7002,556.33466 398.85627,557.86732 407.09845,558.79794 C 432.69019,561.56641 458.681,560.82725 483.68902,554.23601 C 512.57287,546.07515 540.91087,531.37271 557.20901,505.16802 C 568.81045,483.68117 566.32601,461.85932 546.12452,446.44359 C 518.11934,426.2819 483.6882,417.84795 450.05862,412.75472 C 424.67243,409.39981 398.68154,407.80956 373.2445,410.30225 C 367.31091,410.92566 361.69651,412.58465 355.77813,412.78362 L 359.78022,387.51547 z " />
    <path
       style="color:#000000;fill:#000000;fill-opacity:1;fill-rule:nonzero;stroke:none;stroke-width:2.04437971;stroke-linecap:butt;stroke-linejoin:miter;marker:none;marker-start:none;marker-mid:none;marker-end:none;stroke-miterlimit:4;stroke-dasharray:none;stroke-dashoffset:0;stroke-opacity:1;visibility:visible;display:inline;overflow:visible"
       id="path2262"
       d="M 401.94615,402.22128 C 402.8651,398.3128 403.08694,394.26546 403.38135,390.27123 C 404.11152,376.68514 403.98534,363.06726 403.76338,349.46825 C 403.21269,335.81508 401.39842,320.7964 416.29984,314.38523 C 443.77122,311.85067 471.866,317.37562 499.50063,318.68834 C 541.49008,320.57257 583.53625,318.53921 625.38956,315.07894 C 649.19134,313.34536 672.82657,309.81389 696.618,307.9953 C 720.50465,305.3281 727.89581,321.0763 728.57586,342.4311 C 727.95471,382.13939 727.11845,421.8334 727.53697,461.55231 C 728.08089,504.71539 730.06958,547.84322 732.55947,590.93284 C 731.81479,612.16532 738.59352,634.17092 734.90658,655.30412 C 726.84337,680.76474 694.35544,666.67212 676.21408,662.35877 C 635.71466,652.41103 594.21513,647.98513 552.63545,646.04207 C 515.07382,644.5587 477.44192,645.41582 439.95775,648.1592 C 421.50019,648.91679 394.1567,658.16086 384.38793,636.80174 C 380.16446,619.89591 387.47259,602.30555 392.68185,586.33586 C 394.51386,580.77966 396.42478,575.25005 398.29321,569.70611 L 418.65274,576.30785 C 416.58713,581.60477 414.53408,586.90822 412.67487,592.28201 C 408.81612,603.6448 404.09032,616.13251 405.74678,628.25406 C 412.87454,630.41558 426.96362,631.0123 436.63341,630.56129 C 476.14834,630.80808 515.65828,631.79888 555.12278,633.85535 C 597.48246,636.04422 639.82616,639.2612 681.77016,645.75334 C 691.26646,647.05023 710.43983,647.07575 712.8109,650.20691 C 719.4268,631.85491 713.36323,610.21954 716.07679,591.26806 C 716.61822,548.09421 716.62904,504.91035 715.56104,461.7437 C 714.58257,422.56213 713.99982,383.18121 709.08338,344.26366 C 707.46329,335.79477 706.07225,329.69665 700.24421,329.45083 C 676.37189,328.05415 652.42798,330.12291 628.55134,330.26344 C 584.70684,331.36261 540.85675,332.3603 497,332.77544 C 473.64677,332.90659 449.90619,331.62383 426.84309,335.1106 C 428.49213,329.10546 423.98471,346.53754 425.71206,349.46825 C 425.4901,363.06726 425.36392,376.68514 426.09409,390.27123 C 426.3885,394.26546 426.61035,398.3128 427.52929,402.22128 L 401.94615,402.22128 z " />
    <path
       id="path3399"
       d="M 717.65681,529.37635 C 690.57528,563.13607 632.00165,607.07935 673.34396,652.97708 C 703.18617,678.76359 734.97004,723.99286 774.64884,725.3625 C 766.72255,693.97066 763.37312,646.34982 805.59329,633.26029 C 847.76754,628.56177 828.36213,584.60184 797.83294,579.30033 C 771.67665,561.78148 745.6504,543.89228 717.65681,529.37635 z "
       style="color:#000000;fill:#5c5c5c;fill-opacity:1;fill-rule:nonzero;stroke:none;stroke-width:2.04437971;stroke-linecap:butt;stroke-linejoin:miter;marker:none;marker-start:none;marker-mid:none;marker-end:none;stroke-miterlimit:4;stroke-dasharray:none;stroke-dashoffset:0;stroke-opacity:1;visibility:visible;display:inline;overflow:visible" />
    <path
       style="color:#000000;fill:#000000;fill-opacity:1;fill-rule:nonzero;stroke:none;stroke-width:2.04437971;stroke-linecap:butt;stroke-linejoin:miter;marker:none;marker-start:none;marker-mid:none;marker-end:none;stroke-miterlimit:4;stroke-dasharray:none;stroke-dashoffset:0;stroke-opacity:1;visibility:visible;display:inline;overflow:visible"
       id="path3401"
       d="M 720.43341,515.78399 C 726.45314,520.13306 732.40545,524.65035 738.50606,528.92491 C 755.29591,540.70198 772.79301,551.4009 790.48943,561.74674 C 804.41966,569.83224 818.43069,577.7772 832.41355,585.77092 C 839.73558,590.51302 848.60272,593.6681 854.28796,600.53247 C 863.56472,615.94213 846.04952,624.16158 835.20101,630.4158 C 820.97182,638.82505 807.33488,648.29365 794.47795,658.68365 C 786.58348,664.47495 781.93285,671.31508 781.6235,681.12135 C 781.94406,693.48654 785.32021,705.5716 788.91012,717.33622 C 795.47902,731.60669 794.46013,754.54458 771.92585,748.20313 C 754.94485,740.23902 740.79481,726.92353 726.85077,714.59114 C 710.04727,699.46643 693.25508,684.33009 676.32264,669.34953 C 667.04635,660.07375 655.58233,652.8518 647.07683,642.80656 C 638.37832,631.35307 643.4912,617.30769 648.31711,605.37814 C 655.34107,588.06347 665.29036,572.23085 676.70696,557.50907 C 686.31446,545.34277 696.9053,533.9217 708.92083,524.1004 C 712.29901,521.30334 715.96241,518.90383 719.66006,516.56182 L 733.12355,535.70578 C 730.02889,537.2344 726.96862,538.83277 724.12713,540.80828 C 712.6056,548.68255 702.52413,558.46898 693.56626,569.13876 C 683.0709,582.02826 674.31858,596.33257 668.99991,612.15733 C 667.27995,617.44857 664.4711,623.92118 666.29631,629.40982 C 673.69284,638.99729 683.31765,646.71725 691.46575,655.63057 C 707.30763,671.36052 723.48497,686.77991 740.60568,701.12208 C 751.92773,710.5617 764.73763,722.63979 779.45374,725.85619 C 763.94568,726.17212 772.87036,743.65953 767.26814,722.76811 C 763.73784,709.03413 760.27282,695.13091 759.48017,680.92588 C 759.41492,664.78804 766.41861,651.90869 779.92817,642.92907 C 793.70346,632.87947 807.95374,623.49145 821.68219,613.37403 C 837.5092,602.12633 829.52763,602.06595 834.01349,614.28107 C 831.46562,612.1194 823.30041,606.4331 818.76296,603.51041 C 805.50057,594.63712 792.03054,586.07949 778.55401,577.5366 C 761.12399,566.6007 743.49165,555.97251 725.46872,546.03889 C 721.60105,543.99398 709.03195,536.79704 709.39795,538.82554 L 720.43341,515.78399 z " />
    <g
       id="g2171"
       transform="translate(53.53808,124.2488)">
      <path
         id="path2129"
         d="M 132.85715,223.57143 C 128.65438,232.88848 120.10172,241.88278 109.08418,241.21903 C 101.54681,241.4787 92.955761,241.27237 87.260982,247.06323 C 80.515661,251.77867 74.62922,260.47844 78.028429,268.90957 C 80.623442,277.41018 88.3203,283.35687 96.457266,286.1849 C 108.2371,293.73303 110.43038,309.21039 109.81042,322.09111 C 109.65655,332.68116 114.53865,343.30603 122.26942,350.42731 C 130.67732,356.26865 141.02688,351.42448 148.54904,346.44575 C 156.05426,341.78628 161.65646,334.46354 164.21602,326.01785 C 167.36034,318.13741 173.63416,311.09136 182.23319,309.32351 C 191.9524,306.17648 202.76402,299.34195 203.2103,288.00913 C 204.42848,274.55953 196.78785,261.54122 185.66519,254.36344 C 179.17277,248.6121 170.95855,244.85215 165.15286,238.3795 C 160.28354,231.07081 161.04123,219.99671 152.47169,215.35146 C 145.23477,211.30556 134.87507,215.38401 132.85715,223.57143 z "
         style="opacity:1;color:#000000;fill:#d7d7d7;fill-opacity:0.56521738;fill-rule:nonzero;stroke:none;stroke-width:80;stroke-linecap:butt;stroke-linejoin:miter;marker:none;marker-start:none;marker-mid:none;marker-end:none;stroke-miterlimit:4;stroke-dasharray:none;stroke-dashoffset:0;stroke-opacity:0.25465836;visibility:visible;display:inline;overflow:visible" />
      <path
         d="M 125.05856,253.739 C 124.9246,253.59691 114.2709,250.30771 113.95334,250.26165 C 101.65608,250.19395 88.448788,255.96141 84.648658,268.33107 C 84.336008,278.46074 94.176988,282.4794 102.91935,282.95862 C 112.97381,280.90313 135.10789,283.14685 127.51414,304.05929 C 123.40182,315.09973 115.74426,326.81319 118.10055,338.98731 C 124.09118,346.48056 135.7502,342.1815 143.3075,338.55715 C 156.13347,331.19517 165.81182,319.01168 170.9303,305.22669 C 169.94771,285.54979 208.24741,307.94116 190.51811,296.73882 C 181.62308,297.64679 195.00168,292.20865 194.30613,280.4853 C 191.74185,268.13961 178.72151,263.22445 167.83568,260.43019 C 152.88306,257.70428 147.01129,247.21126 146.90348,232.98457 C 146.87683,225.93364 147.21271,227.66333 142.27818,227.95428 C 144.38013,226.85979 131.29407,231.09559 127.47329,232.88578 L 115.38546,213.6588 C 125.06362,209.05341 135.31227,205.48249 146.15771,205.57999 C 162.03963,206.42291 170.95758,217.26205 170.3048,232.90625 C 170.47649,238.89983 170.09723,238.0913 176.95396,240.43817 C 195.39199,247.02501 212.81299,258.48954 215.25327,279.62363 C 215.99196,298.70654 205.59022,320.81046 183.9524,320.06874 C 179.09879,318.59922 170.1019,305.94962 172.00472,310.65029 C 174.77852,317.50255 177.25005,317.10379 190.14227,316.68706 C 193.59223,316.57555 196.77012,306.77426 192.05661,314.60787 C 181.99234,330.2793 170.63831,345.66169 154.33966,355.34012 C 134.90378,365.67319 103.61964,369.36138 96.427328,342.52672 C 94.255498,326.94088 101.149,312.81189 105.16032,298.10228 C 108.51184,306.52502 122.15419,306.92413 96.727108,304.09115 C 76.938338,300.19302 59.484118,284.87452 63.764398,263.04155 C 70.076198,242.58164 89.826328,231.34584 110.25616,228.98205 C 120.67783,228.79895 131.73586,229.28027 141.24278,233.98055 L 125.05856,253.739 z "
         id="path3191"
         style="opacity:1;color:#000000;fill:#d7d7d7;fill-opacity:0.56521738;fill-rule:nonzero;stroke:none;stroke-width:80;stroke-linecap:butt;stroke-linejoin:miter;marker:none;marker-start:none;marker-mid:none;marker-end:none;stroke-miterlimit:4;stroke-dasharray:none;stroke-dashoffset:0;stroke-opacity:0.25465836;visibility:visible;display:inline;overflow:visible" />
    </g>
    <g
       id="g2175"
       transform="translate(123.2386,24.24366)">
      <path
         id="path2137"
         d="M 108.57142,420.7143 C 92.793842,418.60056 79.783672,429.55444 66.065812,435.31961 C 56.537022,440.75723 47.979722,447.72475 38.524872,453.27811 C 30.136912,459.36748 21.521042,468.62633 22.642932,479.75877 C 24.781942,489.81405 35.586532,494.67415 44.761272,496.31909 C 53.433412,498.69971 57.220422,507.725 57.010162,516.02637 C 57.746562,525.80568 55.741392,535.48872 53.973792,545.0219 C 53.578612,553.42457 63.424582,559.63567 70.942762,556.12112 C 79.260582,554.52802 88.691562,546.87552 96.765542,553.20149 C 102.99964,558.39623 108.81987,566.74478 117.98685,565.53808 C 127.73962,566.77725 139.81873,565.57388 145.5344,556.44168 C 149.34544,546.13109 145.56627,535.17514 144.90433,524.6455 C 143.80198,516.70802 144.8645,508.71096 144.88119,500.78819 C 144.01113,491.83484 143.40407,481.82074 149.38622,474.35937 C 154.59346,463.79794 159.71704,453.02469 162.73923,441.62206 C 164.31719,428.29569 152.57214,416.65337 139.8387,415.14985 C 129.08289,413.44178 118.70263,417.8153 108.57142,420.7143 z "
         style="opacity:1;color:#000000;fill:#d7d7d7;fill-opacity:0.56521738;fill-rule:nonzero;stroke:none;stroke-width:80;stroke-linecap:butt;stroke-linejoin:miter;marker:none;marker-start:none;marker-mid:none;marker-end:none;stroke-miterlimit:4;stroke-dasharray:none;stroke-dashoffset:0;stroke-opacity:0.25465836;visibility:visible;display:inline;overflow:visible" />
      <path
         d="M 54.867462,455.08538 C 59.409272,457.80027 60.507922,455.27078 53.221732,456.94603 C 44.588462,460.30126 30.449392,467.77303 30.898572,478.691 C 36.864842,484.13646 45.605302,484.88484 53.182242,486.77121 C 74.636532,492.08022 72.332232,513.27033 68.954402,530.41031 C 68.357572,533.77572 67.413842,537.09052 66.940142,540.47913 C 65.490042,550.85212 70.674202,542.5021 64.081882,542.57439 C 78.684422,539.35795 91.595472,538.26843 104.49847,547.04612 C 110.8251,554.30193 124.4613,559.7121 127.55772,559.69689 C 140.86971,557.03219 143.63234,541.61739 143.13075,530.03166 C 143.59016,515.92609 131.48573,505.91166 129.40257,492.75973 C 130.6879,477.46395 146.49399,470.59807 152.59713,457.1636 C 157.83122,444.56411 155.33183,430.79232 142.28009,424.85768 C 129.58711,420.48235 115.86531,423.31926 103.59474,427.93378 C 96.208912,430.72867 89.493682,434.79433 84.483972,440.91436 C 83.958222,441.57796 83.614012,442.35587 83.180122,443.07483 L 61.806992,432.27619 C 62.773832,430.71396 63.652932,429.09239 64.818082,427.65976 C 72.480382,418.46339 82.545822,412.29056 93.909582,408.53008 C 113.16135,402.0672 134.86729,398.97083 153.94857,407.60161 C 174.86244,419.51283 180.49174,442.71047 171.92504,464.6062 C 168.40201,473.0491 157.89238,490.77435 152.96652,490.845 C 155.38385,502.01364 164.43774,516.05903 163.40464,529.5526 C 163.70349,551.03857 156.59693,575.13885 133.1827,580.92883 C 115.84924,582.26871 103.50105,575.48597 90.534942,564.62298 C 81.874092,560.02484 81.549492,562.4552 69.460772,564.89646 C 44.330002,566.33808 42.132342,546.65791 48.099902,526.81094 C 49.320562,520.27157 53.252162,509.49857 44.769732,507.34075 C 28.808092,502.88769 9.385102,497.83472 8.606332,477.73751 C 10.476092,458.83944 26.895192,445.69712 42.613622,437.25812 C 51.441042,433.06492 62.085602,429.89742 71.051722,435.32693 L 54.867462,455.08538"
         id="path3193"
         style="opacity:1;color:#000000;fill:#d7d7d7;fill-opacity:0.56521738;fill-rule:nonzero;stroke:none;stroke-width:80;stroke-linecap:butt;stroke-linejoin:miter;marker:none;marker-start:none;marker-mid:none;marker-end:none;stroke-miterlimit:4;stroke-dasharray:none;stroke-dashoffset:0;stroke-opacity:0.25465836;visibility:visible;display:inline;overflow:visible" />
    </g>
    <g
       id="g2167"
       transform="translate(204.0508,229.3046)">
      <path
         id="path2120"
         d="M -97.85714,204.28572 C -93.537878,196.59442 -93.339239,185.9673 -85.372502,180.7939 C -72.644482,177.70801 -68.393899,195.13926 -57.505002,198.18061 C -44.696974,199.91238 -31.226275,197.26373 -18.645256,201.46585 C -10.611528,204.86516 -2.5197792,208.17549 6.2513659,209.24223 C 15.60139,211.21747 26.146925,212.26241 33.691336,218.49433 C 41.559532,230.34551 34.011986,245.21714 25.927234,254.7787 C 17.932791,263.18655 5.1239112,264.26805 -2.8990235,272.64282 C -16.811897,278.46234 -10.002153,295.86812 -4.0366925,305.12445 C 1.0654745,321.65613 -1.136295,339.50304 -4.7367891,356.08663 C -9.3004132,368.22688 -21.042984,376.67214 -33.17703,380.11221 C -46.194911,381.47147 -55.830142,370.8245 -65.1434,363.45296 C -75.173553,354.12913 -67.40732,337.15207 -78.547944,328.65041 C -91.62262,322.30657 -101.85879,337.31312 -113.4511,340.67498 C -127.50432,345.43042 -145.16346,345.73758 -156.36932,334.59076 C -162.75943,322.46594 -150.76285,311.66156 -148.7818,300.09126 C -145.10915,286.98296 -139.73726,274.39237 -133.31959,262.40218 C -131.64158,249.60663 -145.90965,244.29586 -155.06046,239.44593 C -165.29069,234.43835 -167.34329,220.03001 -159.08631,212.2519 C -149.52475,202.73855 -134.79844,203.57596 -122.30564,203.82281 C -114.18127,204.14075 -105.96188,205.26328 -97.85714,204.28572 z "
         style="opacity:1;color:#000000;fill:#d7d7d7;fill-opacity:0.56521738;fill-rule:nonzero;stroke:none;stroke-width:80;stroke-linecap:butt;stroke-linejoin:miter;marker:none;marker-start:none;marker-mid:none;marker-end:none;stroke-miterlimit:4;stroke-dasharray:none;stroke-dashoffset:0;stroke-opacity:0.25465836;visibility:visible;display:inline;overflow:visible" />
      <path
         d="M -79.284103,228.66358 C -81.705093,224.64698 -91.327063,219.97483 -97.008963,217.61952 C -112.93278,211.92532 -131.82688,209.49601 -147.43399,217.45047 C -156.32942,222.63622 -153.20783,226.51004 -146.20332,231.02652 C -133.09906,237.90699 -116.9551,239.57162 -113.34932,256.38101 C -114.10415,275.52905 -127.6129,292.10623 -136.10431,308.74282 C -138.20004,314.35387 -151.16194,334.38258 -141.42259,338.34148 C -130.28398,341.29296 -117.35164,334.76737 -106.40185,328.00996 C -93.863453,318.09023 -69.225433,302.51183 -64.565073,328.45638 C -63.314183,340.68975 -63.519573,354.25436 -54.660403,363.81611 C -44.046813,372.65847 -31.525523,370.3051 -21.821033,361.45465 C -8.9825731,347.12668 -8.5354531,325.64379 -14.709223,308.24602 C -19.799153,294.8759 -36.414233,287.49237 -27.383023,272.05932 C -15.577043,264.53148 -1.1904031,263.08881 10.608737,254.91028 C 21.344847,247.16888 24.058297,235.91051 15.889157,225.36045 C 3.2854969,211.64834 -15.882923,208.11115 -33.684243,207.50953 C -48.488583,207.37565 -64.040653,210.36064 -77.392053,202.40209 C -84.062973,198.14921 -87.965113,191.27924 -92.324913,184.93935 C -88.377253,193.67576 -76.957033,181.01861 -81.524403,189.14601 C -84.518063,195.66539 -86.208303,202.67806 -87.525423,209.7028 L -109.76894,205.69608 C -107.99043,197.31236 -105.86136,188.98719 -102.97702,180.90967 C -97.517753,166.53599 -82.216253,156.59015 -71.318283,172.78535 C -69.009893,176.64274 -66.987503,180.91434 -63.313593,183.66402 C -52.989073,188.8853 -40.546153,186.36187 -29.437383,187.93608 C -6.4529631,189.98115 17.360847,195.95225 33.167207,213.99642 C 47.452377,233.21263 43.288317,256.12348 24.353367,270.6098 C 16.117067,276.71345 -2.7713431,286.53257 -8.0789631,287.02365 C -6.6646931,283.94261 -6.3218831,273.74294 -7.6493931,276.86235 C -9.9601531,282.29229 8.6398469,296.00502 4.9747269,303.02836 C 11.101877,327.25326 9.7428569,354.79696 -6.8897731,374.65895 C -24.899703,392.57453 -53.152603,395.40719 -71.770813,376.45186 C -82.070813,363.83786 -84.173003,348.63861 -87.304973,333.17696 C -77.695333,342.284 -70.648533,329.54819 -94.139223,344.32471 C -112.51126,355.12499 -135.68112,367.12153 -156.30043,354.83645 C -174.23368,339.67673 -163.35629,317.53335 -154.19486,300.47077 C -147.45702,287.55808 -139.12241,274.63706 -136.08774,260.27478 C -140.97313,256.04567 -153.31945,252.54419 -160.0483,247.65969 C -179.02974,234.36062 -180.68652,211.24348 -158.4658,199.83482 C -136.16271,189.54983 -110.53393,192.57726 -87.615023,199.33961 C -77.972233,202.52597 -68.168523,206.10701 -59.870713,212.08297 L -79.284103,228.66358 z "
         id="path3195"
         style="opacity:1;color:#000000;fill:#d7d7d7;fill-opacity:0.56521738;fill-rule:nonzero;stroke:none;stroke-width:80;stroke-linecap:butt;stroke-linejoin:miter;marker:none;marker-start:none;marker-mid:none;marker-end:none;stroke-miterlimit:4;stroke-dasharray:none;stroke-dashoffset:0;stroke-opacity:0.25465836;visibility:visible;display:inline;overflow:visible" />
    </g>
    <path
       style="opacity:1;color:#000000;fill:#000000;fill-opacity:1;fill-rule:nonzero;stroke:none;stroke-width:80;stroke-linecap:butt;stroke-linejoin:miter;marker:none;marker-start:none;marker-mid:none;marker-end:none;stroke-miterlimit:4;stroke-dasharray:none;stroke-dashoffset:0;stroke-opacity:0.25465836;visibility:visible;display:inline;overflow:visible"
       id="path4239"
       d="M 437.56884,403.16313 C 436.91217,406.70676 437.67269,401.03786 437.71041,400.27562 C 437.80992,392.48059 436.6628,384.72973 435.41228,377.05488 C 434.24645,369.4358 432.5001,361.91348 431.36702,354.28999 C 429.50149,344.9058 436.24865,342.38514 444.25337,342.70475 C 456.54407,344.20099 468.85248,345.52754 481.19566,346.50936 C 500.10019,347.94751 519.04011,348.86511 537.99005,349.42285 C 561.54217,350.08468 585.10027,349.31064 608.62591,348.20325 C 627.03042,347.35485 645.41389,346.11476 663.79056,344.80657 C 672.40036,344.18831 681.00704,343.52692 689.61921,342.94197 C 693.65644,342.71538 697.69812,342.30624 701.74445,342.47587 C 709.13362,343.36657 708.07694,351.02674 707.23343,356.44557 C 705.33284,367.209 704.04636,378.0647 703.10341,388.95059 C 702.0994,400.47283 701.49656,412.0329 701.53323,423.60026 C 702.17672,432.80334 699.63144,440.20785 690.17308,442.91927 C 675.30749,445.25536 660.03066,443.39334 645.09619,442.41524 C 624.50185,441.00735 603.89794,439.72862 583.27368,438.84913 C 570.55121,438.31828 557.82134,437.97835 545.08907,437.80718 L 546.7549,429.61543 C 559.36297,430.67182 571.97389,431.6965 584.59391,432.60093 C 605.16989,434.06653 625.76382,435.30931 646.37441,436.16994 C 659.6975,436.62528 673.38603,437.43579 686.50563,434.62763 C 692.1592,432.86414 692.76293,429.13472 692.7876,423.37305 C 693.49544,411.69188 694.38881,400.02286 695.25508,388.35263 C 696.15923,377.43091 697.2154,366.52149 698.03049,355.59303 C 698.22421,351.25229 697.09919,349.64568 699.58284,352.55845 C 696.84961,352.35627 694.10339,352.41057 691.36322,352.35688 C 682.66906,352.27205 673.97405,352.31067 665.28002,352.39058 C 646.74239,352.59563 628.20682,352.99662 609.67814,353.60964 C 585.46338,354.36284 561.24345,355.13491 537.01386,355.07839 C 517.88667,355.05035 498.76007,354.56392 479.66382,353.44624 C 467.33388,352.77183 454.99321,351.82759 442.64194,351.84417 C 440.21436,352.15564 441.08686,349.32867 440.91607,353.35611 C 441.48624,360.89805 442.86842,368.35014 443.953,375.82875 C 445.21533,383.88747 446.65807,391.92907 447.4906,400.04662 C 447.68265,402.51594 448.23562,405.14267 447.43767,407.53815 L 437.56884,403.16313 z " />
    <g
       id="g5908"
       inkscape:label="Layer 1"
       transform="translate(1032.857,59.9999)">
      <g
         id="g5955"
         transform="matrix(0.404889,0,0,0.404889,-491.0871,186.1874)">
        <path
           id="path5957"
           d="M 259.60919,455.52777 C 252.39732,469.13432 250.45294,485.14896 252.30442,500.30046 C 254.02001,509.31473 256.45803,518.27394 259.813,526.79881 C 265.05909,537.3404 273.3334,548.27102 285.59361,550.53231 C 293.73678,551.5632 302.0546,550.57748 310.06853,549.07444 C 315.66132,548.07089 322.02681,545.80429 324.07039,539.94135 C 329.12529,529.2824 333.70797,518.34072 337.28352,507.10047 C 339.53057,496.87702 337.92835,486.35532 338.34381,475.99754 C 337.83041,465.26737 335.80634,454.33684 331.0339,444.65651 C 327.17084,438.17146 321.67772,432.84879 317.45537,426.63029 C 311.67248,421.29772 303.08632,420.98436 295.66979,421.48069 C 288.61938,423.79008 284.45989,430.78807 280.2354,436.43144 C 276.3242,441.84729 275.86041,450.6955 268.79378,453.13801 C 265.76963,454.07807 262.48958,454.1166 259.60919,455.52777 z "
           style="opacity:1;color:#000000;fill:#8b0000;fill-opacity:1;fill-rule:nonzero;stroke:none;stroke-width:80;stroke-linecap:butt;stroke-linejoin:miter;marker:none;marker-start:none;marker-mid:none;marker-end:none;stroke-miterlimit:4;stroke-dasharray:none;stroke-dashoffset:0;stroke-opacity:0.25465836;visibility:visible;display:inline;overflow:visible" />
        <path
           d="M 239.29068,476.72259 C 239.69074,473.4485 240.3398,470.16334 240.97237,466.89413 C 243.57857,452.61167 251.78843,440.79308 261.16963,430.07058 C 275.02367,414.28381 292.39268,400.9523 314.53702,406.64622 C 337.61697,415.55526 348.12345,440.33401 353.33844,462.85202 C 358.06039,486.57402 356.53001,511.48332 347.89486,534.1349 C 339.14716,556.49899 319.9456,565.69025 297.08222,565.07668 C 280.84727,563.18224 267.04708,554.0896 256.83729,541.67056 C 248.69023,531.52447 244.4095,519.53063 242.49256,506.81214 C 241.30646,497.18041 242.53519,487.58261 244.97817,478.25714 C 245.78699,475.32118 246.89001,472.48224 247.94674,469.63052 L 275.50816,479.30973 C 274.65464,481.41679 273.7639,483.51175 273.04733,485.67097 C 271.29082,491.52892 270.15149,497.51546 270.78379,503.6655 C 271.78463,511.62245 274.37584,519.09108 279.52393,525.37492 C 285.6561,532.32917 293.10907,537.66032 302.67536,538.18321 C 304.45027,538.23861 319.61508,536.35881 323.19207,525.07859 C 331.24657,507.37322 332.42629,487.08132 328.53634,468.17089 C 325.1954,454.73308 319.37052,437.32509 305.08189,432.23732 C 304.30549,432.15592 288.94013,436.36571 282.66219,446.33804 C 276.56987,453.51386 270.75711,461.11838 269.81043,470.79346 C 269.76898,471.99543 269.49661,480.41111 269.8262,476.72259 L 239.29068,476.72259 z "
           id="path5959"
           style="opacity:1;color:#000000;fill:#000000;fill-opacity:1;fill-rule:nonzero;stroke:none;stroke-width:80;stroke-linecap:butt;stroke-linejoin:miter;marker:none;marker-start:none;marker-mid:none;marker-end:none;stroke-miterlimit:4;stroke-dasharray:none;stroke-dashoffset:0;stroke-opacity:0.25465836;visibility:visible;display:inline;overflow:visible" />
      </g>
      <g
         transform="matrix(0.404889,0,0,0.404889,-519.8764,186.1874)"
         id="g5961">
        <path
           style="opacity:1;color:#000000;fill:#8b0000;fill-opacity:1;fill-rule:nonzero;stroke:none;stroke-width:80;stroke-linecap:butt;stroke-linejoin:miter;marker:none;marker-start:none;marker-mid:none;marker-end:none;stroke-miterlimit:4;stroke-dasharray:none;stroke-dashoffset:0;stroke-opacity:0.25465836;visibility:visible;display:inline;overflow:visible"
           d="M 259.60919,455.52777 C 252.39732,469.13432 250.45294,485.14896 252.30442,500.30046 C 254.02001,509.31473 256.45803,518.27394 259.813,526.79881 C 265.05909,537.3404 273.3334,548.27102 285.59361,550.53231 C 293.73678,551.5632 302.0546,550.57748 310.06853,549.07444 C 315.66132,548.07089 322.02681,545.80429 324.07039,539.94135 C 329.12529,529.2824 333.70797,518.34072 337.28352,507.10047 C 339.53057,496.87702 337.92835,486.35532 338.34381,475.99754 C 337.83041,465.26737 335.80634,454.33684 331.0339,444.65651 C 327.17084,438.17146 321.67772,432.84879 317.45537,426.63029 C 311.67248,421.29772 303.08632,420.98436 295.66979,421.48069 C 288.61938,423.79008 284.45989,430.78807 280.2354,436.43144 C 276.3242,441.84729 275.86041,450.6955 268.79378,453.13801 C 265.76963,454.07807 262.48958,454.1166 259.60919,455.52777 z "
           id="path5963" />
        <path
           style="opacity:1;color:#000000;fill:#000000;fill-opacity:1;fill-rule:nonzero;stroke:none;stroke-width:80;stroke-linecap:butt;stroke-linejoin:miter;marker:none;marker-start:none;marker-mid:none;marker-end:none;stroke-miterlimit:4;stroke-dasharray:none;stroke-dashoffset:0;stroke-opacity:0.25465836;visibility:visible;display:inline;overflow:visible"
           id="path5965"
           d="M 239.29068,476.72259 C 239.69074,473.4485 240.3398,470.16334 240.97237,466.89413 C 243.57857,452.61167 251.78843,440.79308 261.16963,430.07058 C 275.02367,414.28381 292.39268,400.9523 314.53702,406.64622 C 337.61697,415.55526 348.12345,440.33401 353.33844,462.85202 C 358.06039,486.57402 356.53001,511.48332 347.89486,534.1349 C 339.14716,556.49899 319.9456,565.69025 297.08222,565.07668 C 280.84727,563.18224 267.04708,554.0896 256.83729,541.67056 C 248.69023,531.52447 244.4095,519.53063 242.49256,506.81214 C 241.30646,497.18041 242.53519,487.58261 244.97817,478.25714 C 245.78699,475.32118 246.89001,472.48224 247.94674,469.63052 L 275.50816,479.30973 C 274.65464,481.41679 273.7639,483.51175 273.04733,485.67097 C 271.29082,491.52892 270.15149,497.51546 270.78379,503.6655 C 271.78463,511.62245 274.37584,519.09108 279.52393,525.37492 C 285.6561,532.32917 293.10907,537.66032 302.67536,538.18321 C 304.45027,538.23861 319.61508,536.35881 323.19207,525.07859 C 331.24657,507.37322 332.42629,487.08132 328.53634,468.17089 C 325.1954,454.73308 319.37052,437.32509 305.08189,432.23732 C 304.30549,432.15592 288.94013,436.36571 282.66219,446.33804 C 276.56987,453.51386 270.75711,461.11838 269.81043,470.79346 C 269.76898,471.99543 269.49661,480.41111 269.8262,476.72259 L 239.29068,476.72259 z " />
      </g>
      <g
         id="g5967"
         transform="matrix(0.404889,0,0,0.404889,-551.1911,186.1874)">
        <path
           id="path5969"
           d="M 259.60919,455.52777 C 252.39732,469.13432 250.45294,485.14896 252.30442,500.30046 C 254.02001,509.31473 256.45803,518.27394 259.813,526.79881 C 265.05909,537.3404 273.3334,548.27102 285.59361,550.53231 C 293.73678,551.5632 302.0546,550.57748 310.06853,549.07444 C 315.66132,548.07089 322.02681,545.80429 324.07039,539.94135 C 329.12529,529.2824 333.70797,518.34072 337.28352,507.10047 C 339.53057,496.87702 337.92835,486.35532 338.34381,475.99754 C 337.83041,465.26737 335.80634,454.33684 331.0339,444.65651 C 327.17084,438.17146 321.67772,432.84879 317.45537,426.63029 C 311.67248,421.29772 303.08632,420.98436 295.66979,421.48069 C 288.61938,423.79008 284.45989,430.78807 280.2354,436.43144 C 276.3242,441.84729 275.86041,450.6955 268.79378,453.13801 C 265.76963,454.07807 262.48958,454.1166 259.60919,455.52777 z "
           style="opacity:1;color:#000000;fill:#8b0000;fill-opacity:1;fill-rule:nonzero;stroke:none;stroke-width:80;stroke-linecap:butt;stroke-linejoin:miter;marker:none;marker-start:none;marker-mid:none;marker-end:none;stroke-miterlimit:4;stroke-dasharray:none;stroke-dashoffset:0;stroke-opacity:0.25465836;visibility:visible;display:inline;overflow:visible" />
        <path
           d="M 239.29068,476.72259 C 239.69074,473.4485 240.3398,470.16334 240.97237,466.89413 C 243.57857,452.61167 251.78843,440.79308 261.16963,430.07058 C 275.02367,414.28381 292.39268,400.9523 314.53702,406.64622 C 337.61697,415.55526 348.12345,440.33401 353.33844,462.85202 C 358.06039,486.57402 356.53001,511.48332 347.89486,534.1349 C 339.14716,556.49899 319.9456,565.69025 297.08222,565.07668 C 280.84727,563.18224 267.04708,554.0896 256.83729,541.67056 C 248.69023,531.52447 244.4095,519.53063 242.49256,506.81214 C 241.30646,497.18041 242.53519,487.58261 244.97817,478.25714 C 245.78699,475.32118 246.89001,472.48224 247.94674,469.63052 L 275.50816,479.30973 C 274.65464,481.41679 273.7639,483.51175 273.04733,485.67097 C 271.29082,491.52892 270.15149,497.51546 270.78379,503.6655 C 271.78463,511.62245 274.37584,519.09108 279.52393,525.37492 C 285.6561,532.32917 293.10907,537.66032 302.67536,538.18321 C 304.45027,538.23861 319.61508,536.35881 323.19207,525.07859 C 331.24657,507.37322 332.42629,487.08132 328.53634,468.17089 C 325.1954,454.73308 319.37052,437.32509 305.08189,432.23732 C 304.30549,432.15592 288.94013,436.36571 282.66219,446.33804 C 276.56987,453.51386 270.75711,461.11838 269.81043,470.79346 C 269.76898,471.99543 269.49661,480.41111 269.8262,476.72259 L 239.29068,476.72259 z "
           id="path5971"
           style="opacity:1;color:#000000;fill:#000000;fill-opacity:1;fill-rule:nonzero;stroke:none;stroke-width:80;stroke-linecap:butt;stroke-linejoin:miter;marker:none;marker-start:none;marker-mid:none;marker-end:none;stroke-miterlimit:4;stroke-dasharray:none;stroke-dashoffset:0;stroke-opacity:0.25465836;visibility:visible;display:inline;overflow:visible" />
      </g>
    </g>
    <g
       id="g5951">
      <path
         id="path3373"
         d="M 611.35681,529.37635 C 584.27528,563.13607 525.70165,607.07935 567.04396,652.97708 C 596.88617,678.76359 628.67004,723.99286 668.34884,725.3625 C 660.42255,693.97066 657.07312,646.34982 699.29329,633.26029 C 741.46754,628.56177 722.06213,584.60184 691.53294,579.30033 C 665.37665,561.78148 639.3504,543.89228 611.35681,529.37635 z "
         style="color:#000000;fill:#5c5c5c;fill-opacity:1;fill-rule:nonzero;stroke:none;stroke-width:2.04437971;stroke-linecap:butt;stroke-linejoin:miter;marker:none;marker-start:none;marker-mid:none;marker-end:none;stroke-miterlimit:4;stroke-dasharray:none;stroke-dashoffset:0;stroke-opacity:1;visibility:visible;display:inline;overflow:visible" />
      <path
         style="color:#000000;fill:#000000;fill-opacity:1;fill-rule:nonzero;stroke:none;stroke-width:2.04437971;stroke-linecap:butt;stroke-linejoin:miter;marker:none;marker-start:none;marker-mid:none;marker-end:none;stroke-miterlimit:4;stroke-dasharray:none;stroke-dashoffset:0;stroke-opacity:1;visibility:visible;display:inline;overflow:visible"
         id="path2292"
         d="M 614.13341,515.78399 C 620.15314,520.13306 626.10545,524.65035 632.20606,528.92491 C 648.99591,540.70198 666.49301,551.4009 684.18943,561.74674 C 698.11966,569.83224 712.13069,577.7772 726.11355,585.77092 C 733.43558,590.51302 742.30272,593.6681 747.98796,600.53247 C 757.26472,615.94213 739.74952,624.16158 728.90101,630.4158 C 714.67182,638.82505 701.03488,648.29365 688.17795,658.68365 C 680.28348,664.47495 675.63285,671.31508 675.3235,681.12135 C 675.64406,693.48654 679.02021,705.5716 682.61012,717.33622 C 689.17902,731.60669 688.16013,754.54458 665.62585,748.20313 C 648.64485,740.23902 634.49481,726.92353 620.55077,714.59114 C 603.74727,699.46643 586.95508,684.33009 570.02264,669.34953 C 560.74635,660.07375 549.28233,652.8518 540.77683,642.80656 C 532.07832,631.35307 537.1912,617.30769 542.01711,605.37814 C 549.04107,588.06347 558.99036,572.23085 570.40696,557.50907 C 580.01446,545.34277 590.6053,533.9217 602.62083,524.1004 C 605.99901,521.30334 609.66241,518.90383 613.36006,516.56182 L 626.82355,535.70578 C 623.72889,537.2344 620.66862,538.83277 617.82713,540.80828 C 606.3056,548.68255 596.22413,558.46898 587.26626,569.13876 C 576.7709,582.02826 568.01858,596.33257 562.69991,612.15733 C 560.97995,617.44857 558.1711,623.92118 559.99631,629.40982 C 567.39284,638.99729 577.01765,646.71725 585.16575,655.63057 C 601.00763,671.36052 617.18497,686.77991 634.30568,701.12208 C 645.62773,710.5617 658.43763,722.63979 673.15374,725.85619 C 657.64568,726.17212 666.57036,743.65953 660.96814,722.76811 C 657.43784,709.03413 653.97282,695.13091 653.18017,680.92588 C 653.11492,664.78804 660.11861,651.90869 673.62817,642.92907 C 687.40346,632.87947 701.65374,623.49145 715.38219,613.37403 C 731.2092,602.12633 723.22763,602.06595 727.71349,614.28107 C 725.16562,612.1194 717.00041,606.4331 712.46296,603.51041 C 699.20057,594.63712 685.73054,586.07949 672.25401,577.5366 C 654.82399,566.6007 637.19165,555.97251 619.16872,546.03889 C 615.30105,543.99398 602.73195,536.79704 603.09795,538.82554 L 614.13341,515.78399 z " />
    </g>
  </g>
</svg>
