<?xml version="1.0" encoding="UTF-8" standalone="no"?>
<!-- Created with Inkscape (http://www.inkscape.org/) -->
<svg
   xmlns:dc="http://purl.org/dc/elements/1.1/"
   xmlns:cc="http://web.resource.org/cc/"
   xmlns:rdf="http://www.w3.org/1999/02/22-rdf-syntax-ns#"
   xmlns:svg="http://www.w3.org/2000/svg"
   xmlns="http://www.w3.org/2000/svg"
   xmlns:xlink="http://www.w3.org/1999/xlink"
   xmlns:sodipodi="http://inkscape.sourceforge.net/DTD/sodipodi-0.dtd"
   xmlns:inkscape="http://www.inkscape.org/namespaces/inkscape"
   width="1000"
   height="1000"
   id="svg2"
   sodipodi:version="0.32"
   inkscape:version="0.43"
   version="1.0"
   sodipodi:docbase="/home/kkowal/tale/art/ride"
   sodipodi:docname="lamb-chopper.svg"
   inkscape:export-filename="/home/kkowal/tale/art/ride/lamb-chopper.png"
   inkscape:export-xdpi="45.611675"
   inkscape:export-ydpi="45.611675">
  <defs
     id="defs4">
    <linearGradient
       id="linearGradient5398">
      <stop
         style="stop-color:#000000;stop-opacity:1;"
         offset="0"
         id="stop5400" />
      <stop
         style="stop-color:#000000;stop-opacity:0;"
         offset="1"
         id="stop5402" />
    </linearGradient>
    <linearGradient
       inkscape:collect="always"
       xlink:href="#linearGradient5398"
       id="linearGradient5404"
       x1="459.02106"
       y1="675.82758"
       x2="400.93997"
       y2="731.89899"
       gradientUnits="userSpaceOnUse"
       gradientTransform="matrix(-1.318693,0,0,1,1123.869,5.637235)" />
  </defs>
  <sodipodi:namedview
     id="base"
     pagecolor="#ffffff"
     bordercolor="#666666"
     borderopacity="1.0"
     inkscape:pageopacity="0.0"
     inkscape:pageshadow="2"
     inkscape:zoom="0.35"
     inkscape:cx="855.84385"
     inkscape:cy="866.23298"
     inkscape:document-units="px"
     inkscape:current-layer="layer1"
     inkscape:window-width="1670"
     inkscape:window-height="971"
     inkscape:window-x="0"
     inkscape:window-y="25" />
  <metadata
     id="metadata7">
    <rdf:RDF>
      <cc:Work
         rdf:about="">
        <dc:format>image/svg+xml</dc:format>
        <dc:type
           rdf:resource="http://purl.org/dc/dcmitype/StillImage" />
      </cc:Work>
    </rdf:RDF>
  </metadata>
  <g
     inkscape:label="Layer 1"
     inkscape:groupmode="layer"
     id="layer1">
    <path
       style="opacity:1;color:#000000;fill:#5c5c5c;fill-opacity:1;fill-rule:nonzero;stroke:none;stroke-width:80;stroke-linecap:butt;stroke-linejoin:miter;marker:none;marker-start:none;marker-mid:none;marker-end:none;stroke-miterlimit:4;stroke-dasharray:none;stroke-dashoffset:0;stroke-opacity:0.25465836;visibility:visible;display:inline;overflow:visible"
       d="M 117.85714,322.85715 C 102.70416,316.28253 90.53214,334.02392 92.371744,347.74926 C 92.234706,367.22612 115.30084,371.73693 130.61634,368.62155 C 158.30864,365.78453 186.05909,371.11633 213.82529,371.01187 C 235.48198,371.95948 257.20569,371.55407 278.80115,370.8699 C 304.73385,370.94648 299.65826,400.75258 290.08721,415.78328 C 281.99921,434.55785 264.56944,455.15984 275.91727,476.33981 C 285.29694,493.94518 307.02967,496.01552 323.08445,504.66667 C 350.18747,516.84642 379.44367,523.37141 409.11093,524.37722 C 436.52349,526.13523 464.24116,527.0187 491.5459,523.74079 C 515.6516,516.85934 502.65339,489.26015 484.46706,484.11569 C 468.238,474.54371 459.65173,456.98363 459.09213,438.59313 C 456.51042,419.01939 459.61392,399.34784 460.13859,379.82166 C 456.1462,360.48382 433.48781,355.392 416.54134,354.90805 C 389.26401,356.18114 364.57148,341.66118 337.72786,339.24029 C 306.18494,333.65524 273.87141,335.43318 242.25802,330.49672 C 202.01544,329.06317 161.72434,327.24355 121.67994,323.23671 L 119.76164,323.13053 L 117.85714,322.85715 L 117.85714,322.85715 z "
       id="path4191" />
    <path
       style="opacity:1;color:#000000;fill:#000000;fill-opacity:1;fill-rule:nonzero;stroke:none;stroke-width:80;stroke-linecap:butt;stroke-linejoin:miter;marker:none;marker-start:none;marker-mid:none;marker-end:none;stroke-miterlimit:4;stroke-dasharray:none;stroke-dashoffset:0;stroke-opacity:0.25465836;visibility:visible;display:inline;overflow:visible"
       id="path4187"
       d="M 449.42339,422.75483 C 450.36614,425.48378 451.13803,410.46952 451.14743,407.79904 C 450.79618,394.97948 451.0955,380.93416 440.63336,372.02226 C 417.22644,356.68877 387.79826,352.49674 360.65263,348.21344 C 321.25,342.1398 281.43206,339.42444 241.64948,337.33114 C 213.68177,335.86792 185.70969,334.4891 157.73241,333.22139 C 145.00013,332.63729 132.26521,332.10085 119.52404,331.75389 C 112.94745,331.4172 109.40111,331.80399 108.90534,331.82044 C 108.03226,331.64473 107.16677,332.03749 106.64742,332.10233 C 104.27188,335.37985 103.52657,339.37806 102.97696,343.30262 C 102.52857,347.08466 103.19403,350.48245 104.8347,353.81763 C 105.70528,355.57486 107.11203,355.27255 108.23821,355.52112 C 107.53013,354.89712 106.34698,355.58944 105.41528,355.7401 C 107.10317,353.54509 107.74835,350.78217 108.45523,348.14561 C 109.38425,344.56617 109.70294,340.91608 109.72002,337.23727 C 109.7751,335.03451 108.90136,333.3124 107.86693,331.51608 C 107.43713,330.90058 106.65504,331.29955 106.1094,331.20205 L 114.9345,312.23449 C 119.41833,314.15912 123.32878,316.8712 125.93434,321.1061 C 128.67484,325.92527 130.26884,331.1574 130.34634,336.74083 C 130.37362,342.03294 129.79187,347.28662 128.56581,352.44214 C 127.25723,357.90137 125.59231,363.33534 122.25746,367.93675 C 116.86848,374.25769 109.81581,377.1308 101.42386,375.16887 C 94.802901,372.98272 89.552576,368.84082 86.252597,362.60161 C 83.161509,355.91172 82.116568,348.79002 82.879216,341.43971 C 83.734386,334.3187 85.370049,327.23316 89.18425,321.06192 C 92.832117,315.99142 97.462442,312.46112 103.81782,311.66377 C 110.48408,311.08733 117.12895,311.63069 123.76373,312.40214 C 136.36925,313.72788 148.95582,315.22607 161.55816,316.58134 C 189.17317,319.5809 216.83385,322.13542 244.51474,324.44504 C 284.5074,327.83722 324.54386,330.90993 364.4134,335.57014 C 394.3946,339.70756 426.78872,343.518 453.036,359.5832 C 467.78759,371.78523 468.81777,389.36924 469.48512,407.34323 C 469.93257,415.30006 470.91789,423.68922 469.16105,431.50487 L 449.42339,422.75483 z " />
    <path
       style="opacity:1;color:#000000;fill:#000000;fill-opacity:1;fill-rule:nonzero;stroke:none;stroke-width:80;stroke-linecap:butt;stroke-linejoin:miter;marker:none;marker-start:none;marker-mid:none;marker-end:none;stroke-miterlimit:4;stroke-dasharray:none;stroke-dashoffset:0;stroke-opacity:0.25465836;visibility:visible;display:inline;overflow:visible"
       id="path4189"
       d="M 111.6959,357.90499 C 116.43627,358.85889 121.31935,359.09733 126.13757,359.4422 C 145.86833,360.7317 165.62616,361.54717 185.3938,361.96871 C 206.05853,362.47186 226.73011,362.44089 247.39897,362.32652 C 258.9138,362.29876 270.42895,362.04627 281.94349,362.21581 C 287.79832,362.2791 293.60476,362.86488 299.14779,364.79195 C 304.51007,366.75902 308.23647,370.60856 310.7306,375.63254 C 313.20613,381.66527 311.99488,387.80363 310.00184,393.76144 C 307.29409,400.5219 303.78954,406.9285 300.52517,413.4305 C 297.80195,418.83166 295.36165,424.36643 293.13954,429.9905 C 291.5533,434.08186 290.12947,438.2332 288.77638,442.40657 C 287.45815,446.42232 286.51011,450.54207 285.65734,454.67709 C 285.03648,457.56519 284.80361,460.50586 284.61145,463.44629 L 263.96948,462.30518 C 264.25618,458.53859 264.5993,454.77203 265.38335,451.06929 C 266.38483,446.30135 267.49907,441.55344 268.93518,436.89478 C 270.412,432.20865 272.05692,427.57752 273.97218,423.05013 C 276.52561,417.03224 279.30783,411.11639 282.28387,405.29538 C 285.18249,399.58084 288.2726,393.92145 290.49437,387.90047 C 290.81671,386.75701 291.50522,384.40178 291.32426,383.61885 C 290.86469,383.56078 290.31784,383.72026 289.94554,383.44462 C 286.01345,382.56385 282.03211,381.96776 278.00233,381.72648 C 266.79209,380.87803 255.55988,380.37125 244.32971,379.86986 C 223.73781,379.01218 203.13292,378.48217 182.52867,378.03099 C 162.67593,377.59659 142.80542,377.31307 122.95372,377.92121 C 118.06792,378.12088 113.12169,378.2717 108.31711,379.23787 L 111.6959,357.90499 z " />
    <path
       style="color:#000000;fill:#743e12;fill-opacity:1;fill-rule:nonzero;stroke:none;stroke-width:2.04437971;stroke-linecap:butt;stroke-linejoin:miter;marker:none;marker-start:none;marker-mid:none;marker-end:none;stroke-miterlimit:4;stroke-dasharray:none;stroke-dashoffset:0;stroke-opacity:1;visibility:visible;display:inline;overflow:visible"
       d="M 508.17493,670.33686 C 504.75797,688.07758 481.71309,701.28887 493.52649,721.55922 C 503.91697,741.49548 527.25278,756.85819 525.33189,781.6707 C 515.97558,809.94134 549.33636,809.8445 568.10627,806.80726 C 587.73036,809.22386 618.31693,805.50537 607.47333,777.94882 C 599.04332,744.60518 563.11451,722.92394 562.76815,686.96682 C 567.6335,663.77366 541.4448,645.028 521.6393,656.97285 C 517.00842,661.27394 514.6657,668.23923 508.17493,670.33686 z "
       id="path5524" />
    <path
       style="color:#000000;fill:#743e12;fill-opacity:1;fill-rule:nonzero;stroke:none;stroke-width:2.04437971;stroke-linecap:butt;stroke-linejoin:miter;marker:none;marker-start:none;marker-mid:none;marker-end:none;stroke-miterlimit:4;stroke-dasharray:none;stroke-dashoffset:0;stroke-opacity:1;visibility:visible;display:inline;overflow:visible"
       d="M 293.08326,668.07279 C 275.18865,697.45075 292.13642,732.9376 309.79703,758.06268 C 322.59255,774.85534 313.74359,802.76697 289.61404,794.6306 C 261.19423,799.94362 247.74866,770.64255 243.93228,747.71483 C 235.0043,723.36631 217.11277,700.68953 218.16875,673.77806 C 228.70958,649.3697 261.71053,665.14909 281.9895,663.01393 C 287.41399,663.90565 292.53283,667.95224 293.08326,673.73309"
       id="path5515" />
    <path
       style="color:#000000;fill:#616161;fill-opacity:0.52873565;fill-rule:nonzero;stroke:none;stroke-width:2.04437971;stroke-linecap:butt;stroke-linejoin:miter;marker:none;marker-start:none;marker-mid:none;marker-end:none;stroke-miterlimit:4;stroke-dasharray:none;stroke-dashoffset:0;stroke-opacity:1;visibility:visible;display:inline;overflow:visible"
       d="M 156.10377,156.38084 C 348.40122,147.72457 540.32578,177.23208 729.60211,207.69141 C 779.56845,228.62953 935.49298,231.21873 918.08037,298.71997 C 841.98711,329.49951 733.79845,317.39529 652.04867,316.73832 C 513.74032,302.2736 377.41215,271.20387 240.66555,248.20792 C 195.83928,237.78495 17.893598,201.20927 102.62418,157.72587 C 120.38211,154.19876 138.27434,158.63252 156.10377,156.38084 z "
       id="path5484"
       sodipodi:nodetypes="ccccccc" />
    <path
       style="color:#000000;fill:#000000;fill-opacity:1;fill-rule:nonzero;stroke:none;stroke-width:2.04437971;stroke-linecap:butt;stroke-linejoin:miter;marker:none;marker-start:none;marker-mid:none;marker-end:none;stroke-miterlimit:4;stroke-dasharray:none;stroke-dashoffset:0;stroke-opacity:1;visibility:visible;display:inline;overflow:visible"
       id="path4568"
       d="M 423.02401,543.38064 C 414.2026,559.54322 426.74869,530.88219 427.73591,527.67762 C 439.44464,484.78333 446.0449,440.65159 452.50018,396.7155 C 459.64954,347.93836 464.92816,298.91754 469.62554,249.8518 C 470.92581,236.09765 472.15331,222.33674 473.27864,208.56712 L 501.2123,211.84017 C 499.13023,225.53397 497.11318,239.23753 495.08747,252.93979 C 487.89656,301.83589 480.61432,350.72009 473.99314,399.69762 C 467.97327,444.40502 462.29753,489.15939 456.09654,533.84149 C 454.25243,545.63682 453.96135,559.06277 446.34793,568.72345 L 423.02401,543.38064 z " />
    <path
       style="color:#000000;fill:#000000;fill-opacity:1;fill-rule:nonzero;stroke:none;stroke-width:2.04437971;stroke-linecap:butt;stroke-linejoin:miter;marker:none;marker-start:none;marker-mid:none;marker-end:none;stroke-miterlimit:4;stroke-dasharray:none;stroke-dashoffset:0;stroke-opacity:1;visibility:visible;display:inline;overflow:visible"
       id="path4578"
       d="M 478.27294,303.29576 C 457.95266,302.50788 437.15477,296.85509 416.89732,293.6012 C 352.96116,282.49029 289.77719,267.6225 226.79224,252.10345 C 176.94382,236.9507 121.72961,231.05989 76.410415,203.62475 C 27.474223,163.76542 98.117591,147.9047 130.18793,146.12047 C 218.34474,144.40413 306.40968,152.50728 394.15642,160.14215 C 497.88778,169.06437 601.41402,180.71531 704.10947,197.96807 C 767.0293,209.45834 830.48753,220.53885 891.2341,241.0669 C 917.26773,248.7853 959.41345,272.2309 930.73908,302.40952 C 894.73302,325.76846 846.01935,324.48601 804.53146,325.81069 C 741.42296,327.44816 678.30026,324.78171 615.32825,320.76549 C 560.13831,316.87278 504.95945,312.55447 449.91345,306.94813 C 438.77157,305.88781 444.26412,306.41291 433.43577,305.37316 L 440.67464,280.42809 C 451.2503,282.0986 445.88391,281.26054 456.77414,282.94055 C 508.62386,291.95548 561.26622,296.17683 613.62757,300.85706 C 675.80263,305.17603 738.229,307.95932 800.52794,304.70421 C 836.26333,302.46185 876.23699,301.08043 907.79506,282.43947 C 901.75543,272.68529 889.07232,269.11565 879.13701,263.37887 C 821.6922,238.75132 760.4227,224.40876 699.59482,210.97821 C 599.06823,190.57387 497.17125,177.76533 394.89513,170.21214 C 308.70022,163.92214 221.56022,158.33922 135.40255,167.63213 C 122.29446,169.67509 78.905946,173.62843 94.422492,182.40359 C 133.83548,213.04839 187.90306,219.45745 233.74739,235.37313 C 296.0643,251.83662 359.41412,265.04541 423.83453,269.53948 C 433.36454,269.81785 466.43016,270.93608 467.23861,270.7258 L 478.27294,303.29576 z " />
    <path
       style="color:#000000;fill:#000000;fill-opacity:1;fill-rule:nonzero;stroke:none;stroke-width:2.04437971;stroke-linecap:butt;stroke-linejoin:miter;marker:none;marker-start:none;marker-mid:none;marker-end:none;stroke-miterlimit:4;stroke-dasharray:none;stroke-dashoffset:0;stroke-opacity:1;visibility:visible;display:inline;overflow:visible"
       id="path4524"
       d="M 273.14666,780.1165 C 277.59182,780.98866 282.1425,781.24031 286.65192,781.59472 C 312.57828,783.13469 338.53996,784.01129 364.4966,784.86327 C 406.48332,786.13159 448.48243,787.06946 490.48797,787.35991 C 523.22669,787.57776 555.96642,787.49649 588.70437,787.21216 C 593.09444,787.17676 597.48433,787.12794 601.87415,787.06975 L 596.53527,816.71064 C 592.20146,816.44742 587.86711,816.19428 583.53187,815.95525 C 551.12297,814.15038 518.69607,812.619 486.24514,811.81705 C 444.20675,810.73384 402.15274,810.27854 360.10158,810.77299 C 333.97355,810.99056 307.81697,810.97462 281.73151,812.66091 C 277.06592,813.01871 272.36417,813.28126 267.75801,814.13913 L 273.14666,780.1165 z " />
    <path
       style="color:#000000;fill:#000000;fill-opacity:1;fill-rule:nonzero;stroke:none;stroke-width:2.04437971;stroke-linecap:butt;stroke-linejoin:miter;marker:none;marker-start:none;marker-mid:none;marker-end:none;stroke-miterlimit:4;stroke-dasharray:none;stroke-dashoffset:0;stroke-opacity:1;visibility:visible;display:inline;overflow:visible"
       id="path4520"
       d="M 304.64631,672.61133 C 304.60881,677.515 302.39434,680.75531 299.99755,684.87119 C 297.78296,688.4441 296.95333,692.18576 296.64513,696.2852 C 296.93488,702.6359 299.55667,708.44723 302.15861,714.14357 C 306.56449,723.14921 311.44645,731.91138 316.11654,740.78085 C 321.24346,750.19229 325.13787,760.10667 327.44715,770.56375 C 329.53127,780.65321 328.38169,790.72294 325.71839,800.55567 C 324.39117,805.22643 322.47279,809.67967 320.41729,814.06566 L 290.30743,800.75169 C 291.70279,797.94723 293.1051,795.14043 294.02414,792.13203 C 295.54059,786.90996 296.52243,781.7076 295.41919,776.26944 C 293.69021,768.52214 290.68786,761.21964 286.91707,754.2263 C 282.13721,745.01066 277.05556,735.95345 272.40797,726.6694 C 267.8422,716.96175 264.03457,706.84076 263.85158,695.968 C 264.08868,687.499 265.62605,679.31876 269.28762,671.6153 C 271.36762,666.91544 271.92873,663.96115 270.19956,672.61133 L 304.64631,672.61133 z " />
    <path
       style="color:#000000;fill:#000000;fill-opacity:1;fill-rule:nonzero;stroke:none;stroke-width:2.04437971;stroke-linecap:butt;stroke-linejoin:miter;marker:none;marker-start:none;marker-mid:none;marker-end:none;stroke-miterlimit:4;stroke-dasharray:none;stroke-dashoffset:0;stroke-opacity:1;visibility:visible;display:inline;overflow:visible"
       id="path4522"
       d="M 508.86654,680.55583 C 521.87313,679.57507 529.07343,668.52372 521.1327,678.43037 C 517.37995,683.28041 514.56722,688.69834 512.08151,694.2741 C 510.02709,698.58198 509.53454,702.9789 509.83151,707.6436 C 510.72989,713.51114 513.40258,718.80688 516.04737,724.04588 C 520.18577,731.94863 524.66846,739.66516 529.19192,747.35198 C 534.04088,755.40213 538.72599,763.55333 542.59096,772.12515 C 546.90058,781.71704 546.96385,791.66737 544.18333,801.63197 C 543.96705,802.23014 543.75078,802.82827 543.53451,803.42641 L 512.27734,791.84035 C 512.33129,791.78925 512.38524,791.73819 512.43919,791.68709 C 513.08471,788.81169 513.74412,786.74427 512.02338,783.76947 C 508.68288,776.32507 504.74197,769.18126 500.56322,762.17292 C 495.8001,754.06122 490.87063,746.04103 486.48629,737.71394 C 482.11413,729.30992 478.37459,720.54169 477.19712,711.05421 C 476.33139,701.31439 477.42404,691.79087 481.38965,682.75534 C 484.57834,675.34767 488.28229,668.1843 492.647,661.39382 C 498.66333,651.93231 499.93047,648.5583 514.25519,646.5332 L 508.86654,680.55583 z " />
    <path
       style="color:#000000;fill:#743e12;fill-opacity:1;fill-rule:nonzero;stroke:none;stroke-width:2.04437971;stroke-linecap:butt;stroke-linejoin:miter;marker:none;marker-start:none;marker-mid:none;marker-end:none;stroke-miterlimit:4;stroke-dasharray:none;stroke-dashoffset:0;stroke-opacity:1;visibility:visible;display:inline;overflow:visible"
       d="M 641.75829,361.284 C 565.87858,349.58582 633.76045,466.91991 551.29249,468.76593 C 470.09749,501.75537 382.65226,470.81303 298.49124,481.76051 C 238.58091,490.43107 164.74907,395.36146 129.94027,485.603 C 111.74334,553.27033 249.21534,588.87322 173.61274,659.26928 C 169.75709,719.83262 192.99403,790.8516 225.2415,836.16243 C 311.34879,812.58645 170.30746,704.66465 248.05369,668.84292 C 339.02693,673.2716 457.4105,660.74811 534.21655,680.26713 C 564.60674,735.23299 601.37915,790.24766 619.01517,846.52698 C 707.58243,811.63926 602.96566,740.42543 603.80666,683.39199 C 607.8013,614.39652 661.12392,547.13891 727.18988,525.20126 C 785.84115,534.38631 860.23714,481.07977 794.9505,429.08652 C 741.87725,411.69432 699.37998,365.63407 641.75829,361.284 z "
       id="path5469" />
    <path
       style="color:#000000;fill:#000000;fill-opacity:1;fill-rule:nonzero;stroke:none;stroke-width:2.04437971;stroke-linecap:butt;stroke-linejoin:miter;marker:none;marker-start:none;marker-mid:none;marker-end:none;stroke-miterlimit:4;stroke-dasharray:none;stroke-dashoffset:0;stroke-opacity:1;visibility:visible;display:inline;overflow:visible"
       id="path4496"
       d="M 624.10471,346.54766 C 608.55289,347.46889 631.96217,346.7756 635.46581,346.64662 C 650.53862,345.80235 665.49422,347.30368 680.21055,350.46426 C 691.64754,352.98024 702.43291,357.41969 712.5359,363.27103 C 720.34679,367.86761 726.79715,374.18161 732.94565,380.74517 C 736.89801,385.36118 741.2574,389.53916 745.89018,393.45111 C 749.25277,396.21787 753.20887,397.93897 757.18038,399.61032 C 763.04858,401.72352 768.99548,403.61074 774.91209,405.58348 C 783.33386,408.41827 791.54515,411.78739 799.49314,415.75528 C 808.11425,420.01558 815.65239,425.89231 822.28143,432.80232 C 828.88004,440.03593 833.43811,448.69042 837.00803,457.73299 C 840.60094,467.12449 841.40777,476.90052 839.9138,486.77274 C 837.75382,497.37107 831.32885,505.59752 823.35322,512.5371 C 813.67743,520.37085 801.77074,523.88593 789.95424,527.05067 C 776.62975,530.39668 763.11346,532.89478 749.58753,535.26605 C 740.69727,536.76355 731.77835,538.07127 722.98312,540.06487 C 715.64415,541.92562 708.95741,545.4421 702.46423,549.23138 C 696.1838,552.95988 690.67385,557.73242 685.38045,562.72009 C 679.8666,568.04914 675.13613,574.09634 670.48807,580.17334 C 666.33056,585.73971 662.31782,591.41234 658.34758,597.11317 C 654.94248,601.94362 651.56959,606.79502 648.30127,611.71904 C 645.55961,615.89703 642.85541,620.09907 640.16019,624.30707 C 637.22431,628.91915 634.17591,633.45811 631.15927,638.01735 C 627.84926,642.85186 624.71841,647.80418 621.60735,652.76783 C 618.54462,657.68788 615.5423,662.64497 612.583,667.62782 C 609.62304,672.56331 606.77442,677.56398 603.91038,682.55536 C 603.84609,682.65955 602.80809,684.48537 602.77905,684.53618 L 573.21366,669.3323 C 573.60472,668.66899 574.01251,668.01558 574.38686,667.34238 C 577.35817,662.31116 580.31414,657.2709 583.28355,652.23847 C 586.34378,647.09805 589.36609,641.93465 592.55235,636.8703 C 595.81199,631.68135 599.14985,626.54265 602.46886,621.39154 C 605.35548,616.97044 608.24685,612.55187 611.05695,608.08148 C 613.8647,603.65841 616.71258,599.26104 619.66621,594.93357 C 623.12709,589.84745 626.66294,584.81312 630.25842,579.82102 C 634.51942,573.84948 638.86175,567.93652 643.31959,562.10994 C 648.82863,555.01269 654.38071,547.92521 660.64151,541.46524 C 667.38296,534.80247 674.59035,528.59714 682.63077,523.53317 C 691.2827,518.16044 700.32273,513.37284 710.04937,510.23619 C 719.92556,507.32282 730.08715,506.08252 740.30349,504.94629 C 752.96157,503.14094 765.61378,501.12009 778.00876,497.93266 C 785.88425,495.77036 793.8762,493.45966 800.75119,488.90375 C 803.50905,486.65394 806.23182,484.49726 807.45684,481.01783 C 808.0203,476.6347 807.80853,472.439 806.07254,468.24678 C 803.798,462.85921 801.096,457.6908 796.90235,453.51263 C 792.4363,449.29461 787.50372,445.71391 781.88032,443.15473 C 775.12069,440.05552 768.19613,437.3434 761.05045,435.25395 C 754.24507,433.15815 747.38343,431.167 740.82365,428.37082 C 734.18129,425.26897 727.78203,421.71081 722.34875,416.70605 C 717.05488,411.84761 712.07508,406.69283 707.35104,401.27449 C 703.04366,396.79721 698.58649,392.45348 693.14079,389.35259 C 685.63502,385.21692 677.70818,382.01891 669.27629,380.28824 C 657.03856,377.86013 648.25017,377.55438 641.81034,377.99228 C 634.02179,378.54509 626.46708,380.18434 618.71949,380.54864 L 624.10471,346.54766 z " />
    <path
       style="color:#000000;fill:#000000;fill-opacity:1;fill-rule:nonzero;stroke:none;stroke-width:2.04437971;stroke-linecap:butt;stroke-linejoin:miter;marker:none;marker-start:none;marker-mid:none;marker-end:none;stroke-miterlimit:4;stroke-dasharray:none;stroke-dashoffset:0;stroke-opacity:1;visibility:visible;display:inline;overflow:visible"
       id="path4510"
       d="M 611.43504,666.95101 C 611.39183,669.71125 610.46838,672.21229 609.66602,674.80437 C 608.75246,680.81236 610.22456,686.74906 611.69084,692.54854 C 615.83912,704.89328 622.87513,716.03608 629.54959,727.14053 C 638.25506,741.37509 646.95989,755.60915 654.71689,770.3878 C 661.06287,782.26824 665.54474,794.83223 666.64963,808.27334 C 666.91564,821.32618 661.51523,832.82776 654.42762,843.42888 L 626.99596,826.16205 C 630.63356,821.11773 634.07298,815.96172 634.39158,809.55412 C 633.70852,800.17825 630.21848,791.46784 626.1463,783.046 C 619.16003,768.78222 611.11026,755.08927 602.68095,741.63327 C 594.50785,728.53694 585.83354,715.50144 580.61201,700.87855 C 577.76621,691.22662 575.92699,681.25645 576.52087,671.14665 C 576.72415,668.93757 577.897,659.00626 576.98832,666.95101 L 611.43504,666.95101 z " />
    <path
       style="color:#000000;fill:#000000;fill-opacity:1;fill-rule:nonzero;stroke:none;stroke-width:2.04437971;stroke-linecap:butt;stroke-linejoin:miter;marker:none;marker-start:none;marker-mid:none;marker-end:none;stroke-miterlimit:4;stroke-dasharray:none;stroke-dashoffset:0;stroke-opacity:1;visibility:visible;display:inline;overflow:visible"
       id="path4514"
       d="M 226.74156,646.53862 C 231.78375,647.51003 236.94129,647.74551 242.05442,648.10671 C 266.18276,649.34869 290.34679,649.64982 314.49875,650.13162 C 349.06779,650.85908 383.64738,650.61777 418.22016,650.34095 C 441.98049,650.12414 465.73984,649.77718 489.49625,649.29195 C 501.22888,648.98714 512.96582,648.95126 524.70133,649.04131 C 531.88981,648.97988 538.99694,648.97301 545.98832,650.76231 C 556.87874,654.30158 561.41088,663.78047 562.72824,674.40679 C 563.22628,681.3239 562.9985,688.25768 563.4313,695.17803 C 563.83224,701.56461 565.57692,707.67064 567.69727,713.66389 C 570.59429,721.24763 574.78425,728.22202 579.10167,735.06337 C 584.98677,744.12341 591.67223,752.62395 598.18634,761.23223 C 604.29817,769.20145 610.1121,777.38675 615.54411,785.83303 C 620.57704,793.54426 624.01206,801.97684 625.78488,810.98673 C 627.23455,820.36884 625.54468,829.68386 623.00046,838.70842 C 622.04221,842.05085 620.72292,845.26301 619.37532,848.46105 L 588.84502,835.73613 C 589.7175,833.84361 590.72995,832.00565 591.29829,829.98156 C 592.66275,825.45991 593.91053,820.86916 593.27138,816.10477 C 592.01653,810.89319 589.91104,806.03681 586.97149,801.51738 C 582.12177,793.69172 577.00258,786.04093 571.47155,778.676 C 564.64148,769.48895 557.54658,760.48749 551.13052,751.00172 C 545.58345,742.45256 540.50633,733.56265 536.83481,724.02841 C 533.71173,715.48255 531.36641,706.69571 530.71902,697.58021 C 530.22666,691.08601 530.32603,684.57231 529.74514,678.09025 C 530.95501,679.41284 532.35827,680.54648 533.60579,681.83363 C 528.63667,681.63378 523.63949,681.3923 518.66526,681.09431 C 507.27588,680.44774 495.88461,679.82672 484.4822,679.45503 C 460.92413,678.56724 437.36118,677.79258 413.7924,677.25264 C 379.28343,676.51383 344.76197,676.13321 310.24996,676.95744 C 285.8842,677.44045 261.50681,677.74608 237.16422,678.98232 C 231.88537,679.3471 226.56757,679.59552 221.35462,680.55044 L 226.74156,646.53862 z " />
    <path
       style="color:#000000;fill:#000000;fill-opacity:1;fill-rule:nonzero;stroke:none;stroke-width:2.04437971;stroke-linecap:butt;stroke-linejoin:miter;marker:none;marker-start:none;marker-mid:none;marker-end:none;stroke-miterlimit:4;stroke-dasharray:none;stroke-dashoffset:0;stroke-opacity:1;visibility:visible;display:inline;overflow:visible"
       id="path4516"
       d="M 226.98316,674.89554 C 239.07261,680.78155 248.86863,655.69926 243.64786,668.34019 C 240.95739,674.90153 239.35735,681.80666 238.0734,688.75838 C 236.51895,696.57456 237.53359,704.3123 239.30499,711.96917 C 242.18549,721.76722 247.59977,730.51713 252.912,739.14889 C 258.7788,748.29876 264.44591,757.56854 269.00126,767.44711 C 272.94915,776.39801 274.17496,785.94337 273.67826,795.62848 C 273.07372,803.89202 270.52627,811.76421 267.63816,819.46578 C 265.10177,826.09323 261.43349,832.14452 257.44899,837.97953 C 254.21677,842.64113 250.29357,846.73774 246.31098,850.75109 L 222.05911,827.74006 C 224.69208,825.38707 227.25918,822.94707 229.41314,820.11542 C 232.20634,816.34685 234.8764,812.48911 236.66865,808.11986 C 238.55293,803.37135 240.36249,798.56331 240.80622,793.42245 C 240.9985,788.53 240.72381,783.77068 238.65991,779.21632 C 234.755,770.52733 230.04022,762.26332 224.97996,754.19232 C 218.3261,743.11964 211.56703,731.90527 208.05961,719.36723 C 205.24796,707.736 204.08073,695.79509 206.08409,683.90615 C 207.52193,675.48093 209.24105,667.10404 211.7124,658.91294 C 214.54386,648.03152 217.8803,641.4517 232.3718,640.8729 L 226.98316,674.89554 z " />
    <path
       style="color:#000000;fill:#000000;fill-opacity:1;fill-rule:nonzero;stroke:none;stroke-width:2.04437971;stroke-linecap:butt;stroke-linejoin:miter;marker:none;marker-start:none;marker-mid:none;marker-end:none;stroke-miterlimit:4;stroke-dasharray:none;stroke-dashoffset:0;stroke-opacity:1;visibility:visible;display:inline;overflow:visible"
       id="path4518"
       d="M 218.6096,608.08382 C 218.63734,612.81325 215.87567,617.02024 212.71725,623.16868 C 206.96119,634.52971 201.95057,646.25245 197.118,658.03028 C 192.86591,668.39145 189.36987,679.04914 187.20409,690.04192 C 185.7822,697.32393 186.5069,704.53757 188.41032,711.62249 C 191.20634,719.92929 196.06069,727.31556 200.82416,734.60366 C 206.14808,742.49744 211.62602,750.28659 216.54408,758.44333 C 221.19297,766.06673 224.59572,774.29911 226.99216,782.87845 C 229.22612,791.0306 229.26885,799.35949 227.93688,807.64436 C 226.78432,814.46657 224.00478,820.75359 220.91789,826.88232 C 218.98544,830.73885 216.48668,834.23365 213.90632,837.66921 L 186.70393,818.22655 C 188.20317,816.362 189.81332,814.58093 190.89919,812.41592 C 192.68612,809.10556 194.48788,805.78212 195.26305,802.05887 C 195.85529,798.11967 196.10367,794.28973 194.94255,790.38089 C 193.18324,784.484 190.99086,778.75892 187.70802,773.50714 C 182.99625,765.69473 177.91384,758.12328 172.90728,750.49766 C 166.75116,740.76066 160.58187,730.84323 157.06272,719.79778 C 154.0302,708.23572 153.2886,696.36314 155.66767,684.57063 C 158.40883,671.75939 162.55603,659.32152 167.6781,647.26212 C 172.66783,635.2967 177.90084,623.4273 182.52021,611.31144 C 183.9287,607.45034 186.39922,597.08826 184.16289,608.08382 L 218.6096,608.08382 z " />
    <path
       style="color:#000000;fill:#000000;fill-opacity:1;fill-rule:nonzero;stroke:none;stroke-width:2.04437971;stroke-linecap:butt;stroke-linejoin:miter;marker:none;marker-start:none;marker-mid:none;marker-end:none;stroke-miterlimit:4;stroke-dasharray:none;stroke-dashoffset:0;stroke-opacity:1;visibility:visible;display:inline;overflow:visible"
       id="path4536"
       d="M 177.37051,617.11967 C 177.38642,611.60357 179.75167,608.33075 182.91628,604.52404 C 185.23709,601.38723 186.46319,597.78859 187.54516,594.10855 C 187.70916,591.76681 184.37399,589.19632 182.05806,586.80171 C 171.2182,576.82045 158.56142,569.13847 146.21617,561.2006 C 133.50132,553.80143 123.97647,543.97779 117.99419,530.56686 C 113.70676,519.37728 113.5089,507.53384 115.24885,495.833 C 117.47004,484.69895 121.89387,474.17315 126.44075,463.82102 C 130.44991,454.63432 135.1987,445.82675 141.2815,437.85332 C 148.14583,429.18462 157.29342,424.53415 168.13515,423.26802 C 181.1949,422.33015 192.07112,427.8678 202.7447,434.6541 C 210.86965,439.97307 218.28746,446.25921 225.82404,452.35867 C 230.09432,456.03802 234.67239,459.15666 239.81954,461.40879 C 245.32904,463.38647 251.19934,463.75325 256.98525,464.2084 C 264.60107,464.66874 274.42908,464.63124 288.63936,464.38508 C 306.41254,464.1877 324.18247,463.78079 341.95155,463.3633 C 356.84651,463.0074 371.74197,462.67483 386.63829,462.38112 C 397.54294,462.16852 408.44873,462.0241 419.35519,461.9506 C 430.74358,461.84257 442.12881,462.11235 453.51371,462.34504 C 461.83592,462.43304 470.151,462.80111 478.46702,463.10944 C 483.19661,463.24615 487.92708,463.46096 492.65841,463.41418 C 498.26435,463.40638 503.86423,463.2134 509.45957,462.89817 C 514.46864,462.7128 519.21483,461.2988 523.9319,459.7336 C 531.10224,457.16288 537.83272,453.56376 544.51796,449.95091 C 551.55777,446.13907 558.38385,441.95389 565.15061,437.68177 C 571.0766,433.86891 576.54122,429.42182 581.81195,424.76228 C 586.01434,420.98604 589.77455,416.77395 593.46756,412.51136 C 596.49472,408.955 599.24162,405.17698 601.96429,401.38689 C 602.31322,400.88359 602.65835,400.37769 603.00534,399.8731 L 631.63736,417.09298 C 631.23344,417.67334 630.84416,418.26393 630.42553,418.83408 C 627.14979,423.38251 623.81677,427.89554 620.1812,432.16697 C 615.64814,437.43992 610.93022,442.55602 605.74409,447.20076 C 599.35601,452.85522 592.76365,458.28688 585.64767,463.01437 C 578.32758,467.85833 570.76805,472.31886 563.10297,476.59438 C 555.35709,480.87674 547.58288,485.14874 539.44103,488.64231 C 532.38232,491.55349 525.15356,494.18605 517.51634,495.0423 C 511.04731,495.69556 504.56221,495.99431 498.05739,495.97805 C 489.35627,496.00927 480.6676,495.8673 471.98401,495.25788 C 463.9139,494.80178 455.8422,494.36327 447.76026,494.17847 C 435.82001,493.84888 429.69502,493.73882 424.41412,493.77756 C 413.52091,493.71974 402.62805,493.61257 391.73506,493.52347 C 376.87044,493.40819 362.00509,493.33953 347.14016,493.43934 C 329.49679,493.56366 311.85171,493.86197 294.22463,494.66361 C 279.45073,495.2405 264.66615,496.49358 249.87697,495.91846 C 240.63642,495.17242 231.43431,493.72516 222.98046,489.69936 C 215.60019,485.95386 208.99644,481.08075 202.84239,475.54826 C 196.50411,470.1121 190.21183,464.54477 183.01692,460.24409 C 179.67937,458.40714 164.32695,453.88102 173.96703,455.74697 C 171.26086,455.55758 170.04218,454.60519 167.71703,457.29106 C 162.95184,462.90755 159.2389,469.1902 156.22536,475.93725 C 152.51181,483.91811 148.98934,492.07026 147.30775,500.7573 C 146.42297,507.05843 146.0217,513.40334 148.29323,519.49269 C 152.03521,527.35839 158.77174,532.33671 165.97381,537.07549 C 179.36746,546.25138 193.0451,555.11314 205.40601,565.68253 C 215.42046,574.75578 222.91152,585.84828 220.14945,599.93487 C 218.57074,607.01868 216.08244,613.82799 212.55315,620.18925 C 208.15217,628.06785 210.26822,625.43529 211.81725,617.11967 L 177.37051,617.11967 z " />
    <path
       style="color:#000000;fill:#000000;fill-opacity:1;fill-rule:nonzero;stroke:none;stroke-width:2.04437971;stroke-linecap:butt;stroke-linejoin:miter;marker:none;marker-start:none;marker-mid:none;marker-end:none;stroke-miterlimit:4;stroke-dasharray:none;stroke-dashoffset:0;stroke-opacity:1;visibility:visible;display:inline;overflow:visible"
       id="path4530"
       d="M 149.75193,816.34247 C 134.42915,816.85062 169.50671,818.10838 172.41764,818.33949 C 211.44934,821.2657 250.59255,822.20763 289.70533,823.3982 C 346.35307,825.01421 403.01695,825.93928 459.68225,826.65961 C 507.86467,827.32012 556.05612,827.55174 604.23921,826.8341 C 628.79706,826.36152 653.3679,825.80073 677.87246,824.00058 C 684.98201,823.56277 692.02404,822.74877 698.63587,820.0997 C 698.91675,820.06819 698.99355,819.71841 699.15492,819.54642 L 728.8988,834.00125 C 726.75008,837.64569 724.62272,841.2677 721.3019,844.01633 C 710.26003,852.22161 697.32717,854.38127 683.71039,854.08616 C 655.80333,854.26167 627.90102,852.85613 600.0114,852.11517 C 551.98804,850.47592 503.95428,849.19226 455.91377,848.17267 C 399.25683,846.83585 342.59486,845.34396 285.91669,845.56873 C 246.45102,845.69939 206.96157,845.87014 167.53112,847.67904 C 161.84968,848.03088 152.73681,850.07795 144.36325,850.3651 L 149.75193,816.34247 z " />
    <g
       id="g4167"
       transform="matrix(0.879407,0,0,0.879407,228.9212,66.97679)">
      <path
         style="opacity:1;color:#000000;fill:#8b0000;fill-opacity:1;fill-rule:nonzero;stroke:none;stroke-width:80;stroke-linecap:butt;stroke-linejoin:miter;marker:none;marker-start:none;marker-mid:none;marker-end:none;stroke-miterlimit:4;stroke-dasharray:none;stroke-dashoffset:0;stroke-opacity:0.25465836;visibility:visible;display:inline;overflow:visible"
         d="M 259.60919,455.52777 C 252.39732,469.13432 250.45294,485.14896 252.30442,500.30046 C 254.02001,509.31473 256.45803,518.27394 259.813,526.79881 C 265.05909,537.3404 273.3334,548.27102 285.59361,550.53231 C 293.73678,551.5632 302.0546,550.57748 310.06853,549.07444 C 315.66132,548.07089 322.02681,545.80429 324.07039,539.94135 C 329.12529,529.2824 333.70797,518.34072 337.28352,507.10047 C 339.53057,496.87702 337.92835,486.35532 338.34381,475.99754 C 337.83041,465.26737 335.80634,454.33684 331.0339,444.65651 C 327.17084,438.17146 321.67772,432.84879 317.45537,426.63029 C 311.67248,421.29772 303.08632,420.98436 295.66979,421.48069 C 288.61938,423.79008 284.45989,430.78807 280.2354,436.43144 C 276.3242,441.84729 275.86041,450.6955 268.79378,453.13801 C 265.76963,454.07807 262.48958,454.1166 259.60919,455.52777 z "
         id="path4169" />
      <path
         style="opacity:1;color:#000000;fill:#000000;fill-opacity:1;fill-rule:nonzero;stroke:none;stroke-width:80;stroke-linecap:butt;stroke-linejoin:miter;marker:none;marker-start:none;marker-mid:none;marker-end:none;stroke-miterlimit:4;stroke-dasharray:none;stroke-dashoffset:0;stroke-opacity:0.25465836;visibility:visible;display:inline;overflow:visible"
         id="path4171"
         d="M 239.29068,476.72259 C 239.69074,473.4485 240.3398,470.16334 240.97237,466.89413 C 243.57857,452.61167 251.78843,440.79308 261.16963,430.07058 C 275.02367,414.28381 292.39268,400.9523 314.53702,406.64622 C 337.61697,415.55526 348.12345,440.33401 353.33844,462.85202 C 358.06039,486.57402 356.53001,511.48332 347.89486,534.1349 C 339.14716,556.49899 319.9456,565.69025 297.08222,565.07668 C 280.84727,563.18224 267.04708,554.0896 256.83729,541.67056 C 248.69023,531.52447 244.4095,519.53063 242.49256,506.81214 C 241.30646,497.18041 242.53519,487.58261 244.97817,478.25714 C 245.78699,475.32118 246.89001,472.48224 247.94674,469.63052 L 275.50816,479.30973 C 274.65464,481.41679 273.7639,483.51175 273.04733,485.67097 C 271.29082,491.52892 270.15149,497.51546 270.78379,503.6655 C 271.78463,511.62245 274.37584,519.09108 279.52393,525.37492 C 285.6561,532.32917 293.10907,537.66032 302.67536,538.18321 C 304.45027,538.23861 319.61508,536.35881 323.19207,525.07859 C 331.24657,507.37322 332.42629,487.08132 328.53634,468.17089 C 325.1954,454.73308 319.37052,437.32509 305.08189,432.23732 C 304.30549,432.15592 288.94013,436.36571 282.66219,446.33804 C 276.56987,453.51386 270.75711,461.11838 269.81043,470.79346 C 269.76898,471.99543 269.49661,480.41111 269.8262,476.72259 L 239.29068,476.72259 z " />
    </g>
    <g
       transform="matrix(0.879407,0,0,0.879407,157.8542,65.2001)"
       id="g4161">
      <path
         id="path4163"
         d="M 259.60919,455.52777 C 252.39732,469.13432 250.45294,485.14896 252.30442,500.30046 C 254.02001,509.31473 256.45803,518.27394 259.813,526.79881 C 265.05909,537.3404 273.3334,548.27102 285.59361,550.53231 C 293.73678,551.5632 302.0546,550.57748 310.06853,549.07444 C 315.66132,548.07089 322.02681,545.80429 324.07039,539.94135 C 329.12529,529.2824 333.70797,518.34072 337.28352,507.10047 C 339.53057,496.87702 337.92835,486.35532 338.34381,475.99754 C 337.83041,465.26737 335.80634,454.33684 331.0339,444.65651 C 327.17084,438.17146 321.67772,432.84879 317.45537,426.63029 C 311.67248,421.29772 303.08632,420.98436 295.66979,421.48069 C 288.61938,423.79008 284.45989,430.78807 280.2354,436.43144 C 276.3242,441.84729 275.86041,450.6955 268.79378,453.13801 C 265.76963,454.07807 262.48958,454.1166 259.60919,455.52777 z "
         style="opacity:1;color:#000000;fill:#8b0000;fill-opacity:1;fill-rule:nonzero;stroke:none;stroke-width:80;stroke-linecap:butt;stroke-linejoin:miter;marker:none;marker-start:none;marker-mid:none;marker-end:none;stroke-miterlimit:4;stroke-dasharray:none;stroke-dashoffset:0;stroke-opacity:0.25465836;visibility:visible;display:inline;overflow:visible" />
      <path
         d="M 239.29068,476.72259 C 239.69074,473.4485 240.3398,470.16334 240.97237,466.89413 C 243.57857,452.61167 251.78843,440.79308 261.16963,430.07058 C 275.02367,414.28381 292.39268,400.9523 314.53702,406.64622 C 337.61697,415.55526 348.12345,440.33401 353.33844,462.85202 C 358.06039,486.57402 356.53001,511.48332 347.89486,534.1349 C 339.14716,556.49899 319.9456,565.69025 297.08222,565.07668 C 280.84727,563.18224 267.04708,554.0896 256.83729,541.67056 C 248.69023,531.52447 244.4095,519.53063 242.49256,506.81214 C 241.30646,497.18041 242.53519,487.58261 244.97817,478.25714 C 245.78699,475.32118 246.89001,472.48224 247.94674,469.63052 L 275.50816,479.30973 C 274.65464,481.41679 273.7639,483.51175 273.04733,485.67097 C 271.29082,491.52892 270.15149,497.51546 270.78379,503.6655 C 271.78463,511.62245 274.37584,519.09108 279.52393,525.37492 C 285.6561,532.32917 293.10907,537.66032 302.67536,538.18321 C 304.45027,538.23861 319.61508,536.35881 323.19207,525.07859 C 331.24657,507.37322 332.42629,487.08132 328.53634,468.17089 C 325.1954,454.73308 319.37052,437.32509 305.08189,432.23732 C 304.30549,432.15592 288.94013,436.36571 282.66219,446.33804 C 276.56987,453.51386 270.75711,461.11838 269.81043,470.79346 C 269.76898,471.99543 269.49661,480.41111 269.8262,476.72259 L 239.29068,476.72259 z "
         id="path4165"
         style="opacity:1;color:#000000;fill:#000000;fill-opacity:1;fill-rule:nonzero;stroke:none;stroke-width:80;stroke-linecap:butt;stroke-linejoin:miter;marker:none;marker-start:none;marker-mid:none;marker-end:none;stroke-miterlimit:4;stroke-dasharray:none;stroke-dashoffset:0;stroke-opacity:0.25465836;visibility:visible;display:inline;overflow:visible" />
    </g>
    <g
       id="g4155"
       transform="matrix(0.879407,0,0,0.879407,87.67581,66.08844)">
      <path
         style="opacity:1;color:#000000;fill:#8b0000;fill-opacity:1;fill-rule:nonzero;stroke:none;stroke-width:80;stroke-linecap:butt;stroke-linejoin:miter;marker:none;marker-start:none;marker-mid:none;marker-end:none;stroke-miterlimit:4;stroke-dasharray:none;stroke-dashoffset:0;stroke-opacity:0.25465836;visibility:visible;display:inline;overflow:visible"
         d="M 259.60919,455.52777 C 252.39732,469.13432 250.45294,485.14896 252.30442,500.30046 C 254.02001,509.31473 256.45803,518.27394 259.813,526.79881 C 265.05909,537.3404 273.3334,548.27102 285.59361,550.53231 C 293.73678,551.5632 302.0546,550.57748 310.06853,549.07444 C 315.66132,548.07089 322.02681,545.80429 324.07039,539.94135 C 329.12529,529.2824 333.70797,518.34072 337.28352,507.10047 C 339.53057,496.87702 337.92835,486.35532 338.34381,475.99754 C 337.83041,465.26737 335.80634,454.33684 331.0339,444.65651 C 327.17084,438.17146 321.67772,432.84879 317.45537,426.63029 C 311.67248,421.29772 303.08632,420.98436 295.66979,421.48069 C 288.61938,423.79008 284.45989,430.78807 280.2354,436.43144 C 276.3242,441.84729 275.86041,450.6955 268.79378,453.13801 C 265.76963,454.07807 262.48958,454.1166 259.60919,455.52777 z "
         id="path4157" />
      <path
         style="opacity:1;color:#000000;fill:#000000;fill-opacity:1;fill-rule:nonzero;stroke:none;stroke-width:80;stroke-linecap:butt;stroke-linejoin:miter;marker:none;marker-start:none;marker-mid:none;marker-end:none;stroke-miterlimit:4;stroke-dasharray:none;stroke-dashoffset:0;stroke-opacity:0.25465836;visibility:visible;display:inline;overflow:visible"
         id="path4159"
         d="M 239.29068,476.72259 C 239.69074,473.4485 240.3398,470.16334 240.97237,466.89413 C 243.57857,452.61167 251.78843,440.79308 261.16963,430.07058 C 275.02367,414.28381 292.39268,400.9523 314.53702,406.64622 C 337.61697,415.55526 348.12345,440.33401 353.33844,462.85202 C 358.06039,486.57402 356.53001,511.48332 347.89486,534.1349 C 339.14716,556.49899 319.9456,565.69025 297.08222,565.07668 C 280.84727,563.18224 267.04708,554.0896 256.83729,541.67056 C 248.69023,531.52447 244.4095,519.53063 242.49256,506.81214 C 241.30646,497.18041 242.53519,487.58261 244.97817,478.25714 C 245.78699,475.32118 246.89001,472.48224 247.94674,469.63052 L 275.50816,479.30973 C 274.65464,481.41679 273.7639,483.51175 273.04733,485.67097 C 271.29082,491.52892 270.15149,497.51546 270.78379,503.6655 C 271.78463,511.62245 274.37584,519.09108 279.52393,525.37492 C 285.6561,532.32917 293.10907,537.66032 302.67536,538.18321 C 304.45027,538.23861 319.61508,536.35881 323.19207,525.07859 C 331.24657,507.37322 332.42629,487.08132 328.53634,468.17089 C 325.1954,454.73308 319.37052,437.32509 305.08189,432.23732 C 304.30549,432.15592 288.94013,436.36571 282.66219,446.33804 C 276.56987,453.51386 270.75711,461.11838 269.81043,470.79346 C 269.76898,471.99543 269.49661,480.41111 269.8262,476.72259 L 239.29068,476.72259 z " />
    </g>
    <g
       id="g4151"
       transform="matrix(0.879407,0,0,0.879407,16.609,66.08844)">
      <path
         id="path2357"
         d="M 259.60919,455.52777 C 252.39732,469.13432 250.45294,485.14896 252.30442,500.30046 C 254.02001,509.31473 256.45803,518.27394 259.813,526.79881 C 265.05909,537.3404 273.3334,548.27102 285.59361,550.53231 C 293.73678,551.5632 302.0546,550.57748 310.06853,549.07444 C 315.66132,548.07089 322.02681,545.80429 324.07039,539.94135 C 329.12529,529.2824 333.70797,518.34072 337.28352,507.10047 C 339.53057,496.87702 337.92835,486.35532 338.34381,475.99754 C 337.83041,465.26737 335.80634,454.33684 331.0339,444.65651 C 327.17084,438.17146 321.67772,432.84879 317.45537,426.63029 C 311.67248,421.29772 303.08632,420.98436 295.66979,421.48069 C 288.61938,423.79008 284.45989,430.78807 280.2354,436.43144 C 276.3242,441.84729 275.86041,450.6955 268.79378,453.13801 C 265.76963,454.07807 262.48958,454.1166 259.60919,455.52777 z "
         style="opacity:1;color:#000000;fill:#8b0000;fill-opacity:1;fill-rule:nonzero;stroke:none;stroke-width:80;stroke-linecap:butt;stroke-linejoin:miter;marker:none;marker-start:none;marker-mid:none;marker-end:none;stroke-miterlimit:4;stroke-dasharray:none;stroke-dashoffset:0;stroke-opacity:0.25465836;visibility:visible;display:inline;overflow:visible" />
      <path
         d="M 239.29068,476.72259 C 239.69074,473.4485 240.3398,470.16334 240.97237,466.89413 C 243.57857,452.61167 251.78843,440.79308 261.16963,430.07058 C 275.02367,414.28381 292.39268,400.9523 314.53702,406.64622 C 337.61697,415.55526 348.12345,440.33401 353.33844,462.85202 C 358.06039,486.57402 356.53001,511.48332 347.89486,534.1349 C 339.14716,556.49899 319.9456,565.69025 297.08222,565.07668 C 280.84727,563.18224 267.04708,554.0896 256.83729,541.67056 C 248.69023,531.52447 244.4095,519.53063 242.49256,506.81214 C 241.30646,497.18041 242.53519,487.58261 244.97817,478.25714 C 245.78699,475.32118 246.89001,472.48224 247.94674,469.63052 L 275.50816,479.30973 C 274.65464,481.41679 273.7639,483.51175 273.04733,485.67097 C 271.29082,491.52892 270.15149,497.51546 270.78379,503.6655 C 271.78463,511.62245 274.37584,519.09108 279.52393,525.37492 C 285.6561,532.32917 293.10907,537.66032 302.67536,538.18321 C 304.45027,538.23861 319.61508,536.35881 323.19207,525.07859 C 331.24657,507.37322 332.42629,487.08132 328.53634,468.17089 C 325.1954,454.73308 319.37052,437.32509 305.08189,432.23732 C 304.30549,432.15592 288.94013,436.36571 282.66219,446.33804 C 276.56987,453.51386 270.75711,461.11838 269.81043,470.79346 C 269.76898,471.99543 269.49661,480.41111 269.8262,476.72259 L 239.29068,476.72259 z "
         id="path2345"
         style="opacity:1;color:#000000;fill:#000000;fill-opacity:1;fill-rule:nonzero;stroke:none;stroke-width:80;stroke-linecap:butt;stroke-linejoin:miter;marker:none;marker-start:none;marker-mid:none;marker-end:none;stroke-miterlimit:4;stroke-dasharray:none;stroke-dashoffset:0;stroke-opacity:0.25465836;visibility:visible;display:inline;overflow:visible" />
    </g>
    <g
       id="g4173">
      <path
         id="path5495"
         d="M 526.28796,316.00154 C 588.15657,219.80625 766.01596,286.77034 743.61863,400.84368 C 741.45903,513.54876 561.99105,567.76795 516.07502,454.185 C 489.41938,413.1682 480.8298,347.81753 526.28796,316.00154 z "
         style="color:#000000;fill:#616161;fill-opacity:0.52873565;fill-rule:nonzero;stroke:none;stroke-width:2.04437971;stroke-linecap:butt;stroke-linejoin:miter;marker:none;marker-start:none;marker-mid:none;marker-end:none;stroke-miterlimit:4;stroke-dasharray:none;stroke-dashoffset:0;stroke-opacity:1;visibility:visible;display:inline;overflow:visible" />
      <path
         d="M 486.42886,411.07416 C 485.89402,418.41957 487.26175,385.37262 488.1276,380.16798 C 495.18982,338.91801 518.44331,304.71344 551.91187,280.21385 C 597.46455,249.04427 651.92863,248.91906 697.31909,279.71778 C 742.58978,314.19131 756.29721,369.77094 744.41288,423.59425 C 730.08886,476.25642 689.14123,515.554 637.70808,531.77553 C 589.98997,544.45028 545.66222,523.74906 517.50946,485.13058 C 501.80869,461.96061 493.14662,435.1689 487.15524,408.06756 L 513.78508,403.27743 C 518.05029,427.27404 525.16783,450.99776 539.05986,471.31106 C 560.00265,499.55574 592.399,516.55393 628.02021,509.47656 C 673.14269,497.87769 709.39142,464.43348 722.04395,419.11853 C 732.27512,373.76219 721.01529,326.68149 682.32187,298.0159 C 646.09578,274.34083 604.26799,273.96705 567.95754,298.37269 C 539.83757,318.7399 519.91016,348.05517 516.81722,383.24973 C 516.23018,393.16351 518.27959,401.85509 520.86461,411.07416 L 486.42886,411.07416 z "
         id="path4564"
         style="color:#000000;fill:#000000;fill-opacity:1;fill-rule:nonzero;stroke:none;stroke-width:2.04437971;stroke-linecap:butt;stroke-linejoin:miter;marker:none;marker-start:none;marker-mid:none;marker-end:none;stroke-miterlimit:4;stroke-dasharray:none;stroke-dashoffset:0;stroke-opacity:1;visibility:visible;display:inline;overflow:visible" />
    </g>
    <g
       id="g4177">
      <path
         id="path4580"
         d="M 623.64486,369.2085 C 556.90719,341.32937 495.97118,335.54425 426.92608,348.05429 C 400.48599,401.56818 490.37837,399.65493 523.44621,407.59423 C 558.70201,413.047 603.79532,436.83615 624.65119,396.81504 C 628.83447,386.61873 625.80122,379.89596 623.64486,369.2085 z "
         style="color:#000000;fill:#743e12;fill-opacity:1;fill-rule:nonzero;stroke:none;stroke-width:2.04437971;stroke-linecap:butt;stroke-linejoin:miter;marker:none;marker-start:none;marker-mid:none;marker-end:none;stroke-miterlimit:4;stroke-dasharray:none;stroke-dashoffset:0;stroke-opacity:1;visibility:visible;display:inline;overflow:visible"
         sodipodi:nodetypes="ccccc" />
      <path
         d="M 619.79872,429.23275 C 642.76737,427.79985 607.29475,429.04282 602.8326,428.9883 C 566.33292,428.60853 530.20587,422.61328 494.4431,415.7647 C 466.47455,409.14777 436.09915,405.6026 411.07515,390.40744 C 383.09604,370.4089 403.7029,344.59018 428.33853,335.68581 C 465.43296,325.2253 504.88287,327.10343 542.89584,330.37479 C 574.77593,333.30743 606.55601,338.36667 637.27355,347.52897 L 624.77827,374.10089 C 596.44709,364.0619 566.81162,358.16384 536.93239,355.17379 C 505.34617,352.33612 472.3391,351.36696 441.85825,361.43746 C 435.22613,364.13395 425.01334,367.49001 430.16505,366.51099 C 451.75272,380.63937 478.35863,385.02456 502.92294,391.3203 C 533.80357,397.70974 565.50821,402.5232 597.08881,399.76502 C 606.96326,398.74797 615.7893,396.05442 625.18565,395.22096 L 619.79872,429.23275 z "
         id="path4464"
         style="color:#000000;fill:#000000;fill-opacity:1;fill-rule:nonzero;stroke:none;stroke-width:2.04437971;stroke-linecap:butt;stroke-linejoin:miter;marker:none;marker-start:none;marker-mid:none;marker-end:none;stroke-miterlimit:4;stroke-dasharray:none;stroke-dashoffset:0;stroke-opacity:1;visibility:visible;display:inline;overflow:visible" />
    </g>
  </g>
</svg>
