<?xml version="1.0" encoding="UTF-8" standalone="no"?>
<!-- Created with Inkscape (http://www.inkscape.org/) -->
<svg
   xmlns:dc="http://purl.org/dc/elements/1.1/"
   xmlns:cc="http://web.resource.org/cc/"
   xmlns:rdf="http://www.w3.org/1999/02/22-rdf-syntax-ns#"
   xmlns:svg="http://www.w3.org/2000/svg"
   xmlns="http://www.w3.org/2000/svg"
   xmlns:sodipodi="http://inkscape.sourceforge.net/DTD/sodipodi-0.dtd"
   xmlns:inkscape="http://www.inkscape.org/namespaces/inkscape"
   width="1000"
   height="1000"
   id="svg2"
   sodipodi:version="0.32"
   inkscape:version="0.43"
   version="1.0"
   sodipodi:docbase="/home/kkowal/tale/art/ride"
   sodipodi:docname="mc-lorry.svg"
   inkscape:export-filename="/home/kkowal/tale/art/ride/mc-lorry.png"
   inkscape:export-xdpi="90"
   inkscape:export-ydpi="90">
  <defs
     id="defs4" />
  <sodipodi:namedview
     id="base"
     pagecolor="#ffffff"
     bordercolor="#666666"
     borderopacity="1.0"
     inkscape:pageopacity="0.0"
     inkscape:pageshadow="2"
     inkscape:zoom="0.49497475"
     inkscape:cx="614.11941"
     inkscape:cy="818.52978"
     inkscape:document-units="px"
     inkscape:current-layer="layer1"
     inkscape:window-width="1600"
     inkscape:window-height="1125"
     inkscape:window-x="0"
     inkscape:window-y="25" />
  <metadata
     id="metadata7">
    <rdf:RDF>
      <cc:Work
         rdf:about="">
        <dc:format>image/svg+xml</dc:format>
        <dc:type
           rdf:resource="http://purl.org/dc/dcmitype/StillImage" />
      </cc:Work>
    </rdf:RDF>
  </metadata>
  <g
     inkscape:label="Layer 1"
     inkscape:groupmode="layer"
     id="layer1">
    <g
       style="display:inline"
       id="g13414"
       transform="matrix(1.477124,0,0,1.812734,-264.9754,-660.9187)">
      <path
         style="color:#000000;fill:#5c5c5c;fill-opacity:1;fill-rule:nonzero;stroke:none;stroke-width:1px;stroke-linecap:butt;stroke-linejoin:miter;marker:none;marker-start:none;marker-mid:none;marker-end:none;stroke-miterlimit:4;stroke-dasharray:none;stroke-dashoffset:0;stroke-opacity:1;visibility:visible;display:inline;overflow:visible"
         d="M 435.71429,682.04464 C 389.48937,683.23971 339.08899,733.45212 379.27679,775.01339 C 454.66209,834.2292 547.96184,723.41172 457.68304,685.66964 C 450.75802,682.98912 443.27837,681.84908 435.71429,682.04464 z M 433.33929,694.79464 C 446.30885,694.69706 459.10916,698.80914 468.65179,708.01339 C 497.67187,730.30741 472.36113,779.21375 438.80804,777.82589 C 415.68448,779.17947 380.86718,773.69316 378.05804,745.04464 C 376.50702,714.81933 405.31864,695.00547 433.33929,694.79464 z "
         id="path13357" />
      <path
         style="color:#000000;fill:#5c5c5c;fill-opacity:0.42236023;fill-rule:nonzero;stroke:none;stroke-width:1px;stroke-linecap:butt;stroke-linejoin:miter;marker:none;marker-start:none;marker-mid:none;marker-end:none;stroke-miterlimit:4;stroke-dasharray:none;stroke-dashoffset:0;stroke-opacity:1;visibility:visible;display:inline;overflow:visible"
         d="M 438.79501,777.82217 C 472.3481,779.21003 497.67478,730.30547 468.6547,708.01145 C 438.49529,678.92145 375.79374,700.82609 378.06266,745.0414 C 380.87179,773.68993 415.67145,779.17575 438.79501,777.82217 z "
         id="path13359" />
      <path
         d="M 384.66277,709.48124 C 381.18899,713.40986 392.88063,705.57855 386.27562,709.32297 C 379.24497,713.75604 374.13328,720.47795 370.88188,728.05375 C 366.46057,739.12995 368.09018,750.9562 373.62372,761.28139 C 381.3328,774.29487 394.93393,781.43906 409.14873,785.15052 C 425.7223,789.06878 442.89001,787.59385 458.72598,781.52805 C 465.24622,779.37936 478.67565,769.67493 485.66081,756.41412 C 491.31713,744.94873 491.28984,732.20505 486.69426,720.43845 C 481.81192,709.14182 473.0032,700.23754 463.10848,693.17678 C 453.44604,686.25128 441.90504,684.75351 430.33747,685.72401 C 419.63287,686.75957 409.39462,690.21476 399.96495,695.30313 C 409.85254,688.79462 390.91747,701.75281 387.95664,704.24486 C 385.21091,706.50995 382.86434,709.14214 380.91203,712.10407 L 371.17112,712.26017 C 373.06143,708.6784 375.43731,705.45801 378.52002,702.7857 C 385.88935,696.25048 394.10511,690.83502 403.01113,686.59004 C 413.01878,681.76755 423.78009,678.63112 434.90667,677.95212 C 447.4373,677.35983 459.74766,679.6365 469.9883,687.31073 C 480.39493,695.03217 489.61533,704.64804 494.84757,716.65919 C 499.92492,729.47808 500.25135,743.41831 494.54674,756.14415 C 486.69307,772.44958 472.26956,783.38533 455.37936,789.5174 C 438.68246,795.17406 420.80187,796.20999 403.65445,791.80695 C 388.40553,787.50889 374.01367,779.49978 365.74536,765.49323 C 359.6149,754.12831 357.52891,741.13421 361.76704,728.71576 C 364.85933,720.33974 369.90957,712.86518 376.92086,707.26586 C 380.73066,704.45901 385.21415,700.6735 389.99228,701.03122 L 384.66277,709.48124 z "
         id="path9648"
         style="color:#000000;fill:#000000;fill-opacity:1;fill-rule:nonzero;stroke:none;stroke-width:1px;stroke-linecap:butt;stroke-linejoin:miter;marker:none;marker-start:none;marker-mid:none;marker-end:none;stroke-miterlimit:4;stroke-dasharray:none;stroke-dashoffset:0;stroke-opacity:1;visibility:visible;display:inline;overflow:visible" />
      <path
         style="color:#000000;fill:#000000;fill-opacity:1;fill-rule:nonzero;stroke:none;stroke-width:1px;stroke-linecap:butt;stroke-linejoin:miter;marker:none;marker-start:none;marker-mid:none;marker-end:none;stroke-miterlimit:4;stroke-dasharray:none;stroke-dashoffset:0;stroke-opacity:1;visibility:visible;display:inline;overflow:visible"
         id="path9650"
         d="M 393.055,715.49579 C 390.23666,718.54006 399.72232,712.47162 394.36354,715.37315 C 388.65944,718.80831 384.51222,724.01709 381.8743,729.88753 C 378.2872,738.47042 379.60934,747.63452 384.09881,755.63546 C 390.35334,765.71953 401.3882,771.25553 412.92094,774.13152 C 426.3674,777.16776 440.2959,776.02484 453.14393,771.32449 C 458.43393,769.65948 469.32949,762.13957 474.99669,751.86384 C 479.58577,742.97937 479.56363,733.10436 475.83515,723.98648 C 471.87401,715.23278 464.72732,708.3329 456.69954,702.86155 C 448.86022,697.49502 439.49678,696.33441 430.11178,697.08644 C 421.42693,697.88889 413.12044,700.5663 405.46996,704.50925 C 413.49196,699.46584 398.12957,709.50708 395.72739,711.43815 C 393.49972,713.19336 391.5959,715.23303 390.01196,717.52821 L 382.10897,717.64917 C 383.64261,714.87368 385.57021,712.37822 388.07127,710.30746 C 394.05015,705.24335 400.71576,701.04694 407.94139,697.75752 C 416.06079,694.0206 424.79165,691.5902 433.81886,691.06405 C 443.98521,690.60508 453.97284,692.36926 462.28128,698.31598 C 470.72438,704.29929 478.20507,711.75057 482.45009,721.05795 C 486.56944,730.99124 486.83428,741.79345 482.20602,751.65464 C 475.83418,764.28963 464.13211,772.76368 450.42876,777.51539 C 436.88224,781.89871 422.37536,782.70145 408.46333,779.28955 C 396.09158,775.95901 384.41518,769.75279 377.70694,758.89919 C 372.73318,750.09257 371.04077,740.02351 374.47925,730.40052 C 376.98809,723.90999 381.08545,718.11799 386.77384,713.77911 C 389.86481,711.6041 393.50235,708.67072 397.37894,708.94792 L 393.055,715.49579 z " />
      <path
         d="M 421.89632,731.76183 C 423.83444,732.65928 422.72527,734.5484 422.78591,734.80544 C 418.71689,738.02913 431.60141,731.3432 426.36587,732.90518 C 425.34223,734.28242 425.77262,735.55799 426.26075,737.09556 C 427.00799,738.95034 428.32969,739.67582 430.06279,740.35977 C 434.2119,740.11373 437.73175,737.01746 428.2827,742.05742 C 429.95402,741.53633 430.52642,740.49301 431.21009,739.05835 C 431.49669,737.41238 430.78092,736.45162 429.84441,735.26237 C 428.7846,734.56641 427.71722,734.75174 426.53242,734.85017 L 431.83862,726.56974 C 434.09898,727.00842 436.15084,727.71518 437.77538,729.44726 C 439.57202,731.658 440.78824,734.04844 440.81289,736.97286 C 440.62681,739.76982 439.95411,742.26404 437.85482,744.27093 C 432.36939,747.2676 429.16576,750.03737 423.42107,747.57712 C 420.77628,746.06537 418.62675,744.16295 417.40009,741.29235 C 416.3901,738.63011 415.7219,735.93945 416.51416,733.11057 C 418.24196,728.75809 422.74163,726.16613 427.47704,726.09021 C 429.67699,726.36999 430.75654,726.90489 431.56731,729.24993 L 421.89632,731.76183 z "
         id="path9652"
         style="color:#000000;fill:#000000;fill-opacity:1;fill-rule:nonzero;stroke:none;stroke-width:1px;stroke-linecap:butt;stroke-linejoin:miter;marker:none;marker-start:none;marker-mid:none;marker-end:none;stroke-miterlimit:4;stroke-dasharray:none;stroke-dashoffset:0;stroke-opacity:1;visibility:visible;display:inline;overflow:visible" />
    </g>
    <path
       id="path13369"
       d="M 167.61111,578.03638 C 99.33117,580.20273 24.883548,671.22446 84.245914,746.56398 C 195.59936,853.90649 333.41467,653.02389 200.06167,584.60755 C 189.83256,579.74846 178.7842,577.68189 167.61111,578.03638 z M 164.10294,601.14873 C 183.26059,600.97184 202.16823,608.42596 216.26389,625.11082 C 259.13014,665.52395 221.74304,754.17813 172.18096,751.66231 C 138.02459,754.11598 86.595114,744.17076 82.445674,692.23862 C 80.154614,637.44818 122.71296,601.53091 164.10294,601.14873 z "
       style="color:#000000;fill:#5c5c5c;fill-opacity:1;fill-rule:nonzero;stroke:none;stroke-width:1px;stroke-linecap:butt;stroke-linejoin:miter;marker:none;marker-start:none;marker-mid:none;marker-end:none;stroke-miterlimit:4;stroke-dasharray:none;stroke-dashoffset:0;stroke-opacity:1;visibility:visible;display:inline;overflow:visible" />
    <path
       id="path13371"
       d="M 172.16172,751.65556 C 221.72379,754.17137 259.13444,665.52043 216.26818,625.1073 C 171.71898,572.37487 79.101024,612.08216 82.452494,692.23275 C 86.601934,744.16491 138.00534,754.10924 172.16172,751.65556 z "
       style="color:#000000;fill:#5c5c5c;fill-opacity:0.42236023;fill-rule:nonzero;stroke:none;stroke-width:1px;stroke-linecap:butt;stroke-linejoin:miter;marker:none;marker-start:none;marker-mid:none;marker-end:none;stroke-miterlimit:4;stroke-dasharray:none;stroke-dashoffset:0;stroke-opacity:1;visibility:visible;display:inline;overflow:visible" />
    <path
       d="M 89.036334,629.06635 C 83.905134,636.1879 101.17513,621.99182 91.418714,628.77945 C 81.033574,636.81542 73.482974,649.00045 68.680242,662.73336 C 62.149418,682.81157 64.556561,704.24942 72.730284,722.96623 C 84.117554,746.55621 104.20811,759.50672 125.20513,766.23462 C 149.68636,773.33738 175.0452,770.66372 198.43688,759.66804 C 208.06809,755.77304 227.90502,738.1815 238.22298,714.14318 C 246.57806,693.35946 246.53775,670.25857 239.7495,648.92886 C 232.53768,628.45106 219.52612,612.30997 204.91039,599.51069 C 190.63776,586.95662 173.59027,584.24156 156.50353,586.00081 C 140.69151,587.878 125.56834,594.14134 111.63955,603.3652 C 126.24475,591.56701 98.2753,615.05676 93.901784,619.57419 C 89.846004,623.68018 86.379834,628.45164 83.496024,633.82084 L 69.107484,634.1038 C 71.899704,627.61101 75.409194,621.7733 79.962724,616.92912 C 90.848144,605.08249 102.98384,595.2657 116.13913,587.57068 C 130.92167,578.82879 146.81747,573.14329 163.25281,571.91244 C 181.7621,570.83878 199.94603,574.96578 215.07273,588.87711 C 230.44462,602.87403 244.06429,620.30503 251.79296,642.07806 C 259.29283,665.3153 259.77501,690.58522 251.3486,713.65379 C 239.74775,743.21119 218.44244,763.0348 193.49351,774.15061 C 168.83011,784.40462 142.41827,786.28249 117.08939,778.30096 C 94.564864,770.50971 73.306284,755.99133 61.092965,730.60118 C 52.037518,709.9996 48.956249,686.44477 55.216494,663.93341 C 59.78419,648.74991 67.244016,635.20052 77.600574,625.05045 C 83.228124,619.96237 89.850784,613.10025 96.90867,613.7487 L 89.036334,629.06635 z "
       id="path2410"
       style="color:#000000;fill:#000000;fill-opacity:1;fill-rule:nonzero;stroke:none;stroke-width:1px;stroke-linecap:butt;stroke-linejoin:miter;marker:none;marker-start:none;marker-mid:none;marker-end:none;stroke-miterlimit:4;stroke-dasharray:none;stroke-dashoffset:0;stroke-opacity:1;visibility:visible;display:inline;overflow:visible" />
    <path
       style="color:#000000;fill:#000000;fill-opacity:1;fill-rule:nonzero;stroke:none;stroke-width:1px;stroke-linecap:butt;stroke-linejoin:miter;marker:none;marker-start:none;marker-mid:none;marker-end:none;stroke-miterlimit:4;stroke-dasharray:none;stroke-dashoffset:0;stroke-opacity:1;visibility:visible;display:inline;overflow:visible"
       id="path2412"
       d="M 101.43269,639.96912 C 97.26966,645.48757 111.28116,634.48712 103.36557,639.74682 C 94.939914,645.97384 88.813954,655.41597 84.917424,666.05751 C 79.618834,681.61602 81.571784,698.22809 88.203294,712.73167 C 97.442,731.0114 113.74187,741.04671 130.77716,746.26009 C 150.63924,751.764 171.21338,749.69219 190.1915,741.1717 C 198.00549,738.15349 214.09958,724.52189 222.47074,705.89472 C 229.24938,689.78954 229.21668,671.88877 223.70925,655.36049 C 217.85815,639.49236 207.3016,626.98472 195.44359,617.06661 C 183.86393,607.33852 170.03297,605.23464 156.17016,606.59787 C 143.34156,608.0525 131.07184,612.90593 119.77113,620.05345 C 131.62062,610.91109 108.92846,629.11319 105.38014,632.6137 C 102.0896,635.79543 99.27742,639.4928 96.93775,643.65336 L 85.264064,643.87263 C 87.529424,638.84139 90.376734,634.31779 94.071114,630.56406 C 102.90266,621.38418 112.74859,613.7772 123.42175,607.81436 C 135.4151,601.04031 148.31167,596.63465 161.64597,595.68088 C 176.66293,594.84889 191.41591,598.04687 203.6885,608.8267 C 216.16001,619.67285 227.20992,633.18004 233.48034,650.05184 C 239.56513,668.05825 239.95633,687.63979 233.11982,705.5155 C 223.70782,728.41938 206.42241,743.78056 186.18086,752.39416 C 166.17097,760.33995 144.74251,761.7951 124.19271,755.61024 C 105.9181,749.57285 88.670614,738.32264 78.761704,718.64795 C 71.414854,702.68388 68.914944,684.43136 73.994014,666.98743 C 77.699874,655.22184 83.752184,644.72248 92.154644,636.85723 C 96.72038,632.91452 102.09349,627.59709 107.81969,628.09958 L 101.43269,639.96912 z " />
    <path
       d="M 144.03491,669.45512 C 146.89775,671.08197 145.25936,674.50644 145.34894,674.97238 C 139.33849,680.81607 158.37053,668.69626 150.63698,671.52771 C 149.12494,674.02429 149.76069,676.33655 150.48171,679.12375 C 151.58548,682.48598 153.53779,683.80109 156.09779,685.04091 C 162.22655,684.59491 167.4258,678.98219 153.46838,688.11828 C 155.93713,687.1737 156.78263,685.28243 157.7925,682.68178 C 158.21584,679.69807 157.15856,677.95647 155.77522,675.80067 C 154.20975,674.53908 152.6331,674.87504 150.88301,675.05346 L 158.72092,660.04326 C 162.05975,660.83846 165.0906,662.11964 167.49025,665.25942 C 170.1441,669.2669 171.94062,673.60013 171.97703,678.90135 C 171.70216,683.97149 170.70851,688.49284 167.60759,692.13079 C 159.50492,697.56295 154.77277,702.58382 146.28716,698.12405 C 142.38046,695.38364 139.20535,691.93506 137.39341,686.73144 C 135.90153,681.90548 134.91453,677.02804 136.08479,671.90004 C 138.63697,664.01014 145.28353,659.31161 152.27832,659.174 C 155.52792,659.68115 157.12255,660.65079 158.32016,664.90173 L 144.03491,669.45512 z "
       id="path2414"
       style="color:#000000;fill:#000000;fill-opacity:1;fill-rule:nonzero;stroke:none;stroke-width:1px;stroke-linecap:butt;stroke-linejoin:miter;marker:none;marker-start:none;marker-mid:none;marker-end:none;stroke-miterlimit:4;stroke-dasharray:none;stroke-dashoffset:0;stroke-opacity:1;visibility:visible;display:inline;overflow:visible" />
    <path
       id="path11515"
       d="M 593.66237,430.45234 C 571.02384,430.93616 548.60754,437.40497 528.99202,450.05252 C 427.13195,508.6186 383.91148,657.19657 490.5868,718.96028 C 589.71324,799.35751 752.28831,690.15725 726.92666,538.81984 C 710.64633,466.86007 651.51637,429.21588 593.66237,430.45234 z M 591.16971,446.42706 C 617.09994,446.20367 643.24816,455.13989 665.11824,471.74868 C 692.67609,492.40417 713.57957,530.09298 712.57086,570.59932 C 707.40624,626.27448 675.01524,672.07371 638.25305,702.19249 C 581.07,748.07121 496.53779,723.69984 459.38255,654.32498 C 445.20905,630.92879 443.60379,599.13674 451.39684,572.18548 C 465.49877,524.53979 498.42338,489.27602 533.19259,464.27115 C 550.97919,452.33739 571.00178,446.60079 591.16971,446.42706 z "
       style="color:#000000;fill:#8a4113;fill-opacity:1;fill-rule:nonzero;stroke:none;stroke-width:1px;stroke-linecap:butt;stroke-linejoin:miter;marker:none;marker-start:none;marker-mid:none;marker-end:none;stroke-miterlimit:4;stroke-dasharray:none;stroke-dashoffset:0;stroke-opacity:1;visibility:visible;display:inline;overflow:visible" />
    <path
       id="path11517"
       d="M 533.19919,464.27115 C 498.42997,489.27602 465.51136,524.53465 451.40944,572.18033 C 443.6164,599.13154 445.19913,630.90843 459.37262,654.30462 C 496.52787,723.67949 581.08413,748.09249 638.26718,702.21376 C 675.0294,672.09497 707.42726,626.29869 712.59188,570.62355 C 713.60058,530.11721 692.69655,492.42209 665.1387,471.76659 C 626.25858,442.23988 573.85428,436.99401 533.19919,464.27115 z "
       style="opacity:1;color:#000000;fill:#5c5c5c;fill-opacity:0.42236023;fill-rule:nonzero;stroke:none;stroke-width:1px;stroke-linecap:butt;stroke-linejoin:miter;marker:none;marker-start:none;marker-mid:none;marker-end:none;stroke-miterlimit:4;stroke-dasharray:none;stroke-dashoffset:0;stroke-opacity:1;visibility:visible;display:inline;overflow:visible" />
    <g
       id="g2416"
       transform="matrix(1.477124,0,0,1.812734,-255.4797,-469.2866)">
      <path
         d="M 571.60238,499.65447 C 568.67264,499.47608 565.73251,499.80794 562.82573,500.14999 C 548.12898,501.68081 531.42598,509.76936 522.53192,515.02964 C 501.9482,527.58739 485.1293,545.31681 473.86477,566.61026 C 463.05357,587.1437 464.83164,609.1115 477.15618,628.37412 C 492.81052,650.27905 518.01676,661.96837 543.89704,666.67734 C 570.77848,670.59919 597.21476,663.12216 619.50801,648.20749 C 640.73863,633.30707 655.50198,611.67514 661.92898,586.64422 C 666.68535,566.24473 662.28005,546.06655 649.06639,529.89847 C 635.5616,514.45818 616.34249,506.95049 596.80754,502.5317 C 584.70646,499.95425 572.33033,499.07885 559.97997,499.19768 L 564.69712,491.75107 C 577.24323,491.97267 589.78949,493.14528 602.03405,495.98235 C 622.31995,500.92945 642.16244,509.07489 656.08725,525.28521 C 669.97073,542.50904 674.82281,563.86529 669.98487,585.54764 C 663.54086,611.43793 648.69556,634.02604 627.06275,649.83407 C 601.31615,667.80067 570.72065,677.85739 539.22036,672.7997 C 512.41358,667.55353 486.42527,655.1454 470.15198,632.46009 C 457.06844,612.15044 454.61691,588.71606 465.76301,566.80039 C 477.01953,544.89515 493.85599,526.46079 514.58014,513.109 C 530.68541,502.98888 548.31584,494.66085 567.31211,492.00936 C 570.50774,491.59706 573.71152,491.29544 576.93272,491.20313 L 571.60238,499.65447 z "
         id="path2418"
         style="opacity:1;color:#000000;fill:#000000;fill-opacity:1;fill-rule:nonzero;stroke:none;stroke-width:1px;stroke-linecap:butt;stroke-linejoin:miter;marker:none;marker-start:none;marker-mid:none;marker-end:none;stroke-miterlimit:4;stroke-dasharray:none;stroke-dashoffset:0;stroke-opacity:1;visibility:visible;display:inline;overflow:visible" />
      <path
         d="M 558.97548,581.47683 C 560.64019,582.81263 563.08851,580.22504 564.95912,579.1972 C 563.34322,579.82589 562.19393,580.97855 561.11165,582.27155 C 559.96265,584.21757 560.30012,586.00781 561.01725,588.00712 C 562.22069,590.20863 564.06081,590.80641 566.37761,591.18786 C 565.90671,592.76688 572.51906,588.82241 571.04395,589.55666 C 569.52005,590.3152 568.04189,591.16234 566.54086,591.96518 C 568.70652,590.70105 569.32734,588.79642 569.67577,586.46375 C 569.71198,584.33425 568.74151,583.20775 567.20336,581.97934 C 565.36065,581.16123 563.60532,581.44227 561.73404,581.93827 C 556.3637,584.56904 561.67084,581.95672 564.38393,580.52518 L 554.88186,578.12351 C 558.71391,576.07448 561.97007,573.64399 566.27055,573.25353 C 569.29646,573.23769 572.15152,573.69336 574.62883,575.58445 C 577.12106,577.87052 578.81968,580.45512 579.11576,583.92473 C 579.13941,587.4811 578.53194,590.81107 576.1667,593.61933 C 571.78703,597.77616 566.29424,600.21756 560.42475,598.92456 C 556.91088,597.77221 554.07288,595.78207 552.31444,592.4453 C 550.97781,589.29331 550.296,586.14314 551.3265,582.76464 C 552.22513,580.49115 553.37642,578.4637 555.33409,576.91967 C 558.16839,575.3328 561.11101,571.43407 564.30581,573.02549 L 558.97548,581.47683 z "
         id="path2420"
         style="opacity:1;color:#000000;fill:#000000;fill-opacity:1;fill-rule:nonzero;stroke:none;stroke-width:1px;stroke-linecap:butt;stroke-linejoin:miter;marker:none;marker-start:none;marker-mid:none;marker-end:none;stroke-miterlimit:4;stroke-dasharray:none;stroke-dashoffset:0;stroke-opacity:1;visibility:visible;display:inline;overflow:visible" />
      <path
         style="opacity:1;color:#000000;fill:#000000;fill-opacity:1;fill-rule:nonzero;stroke:none;stroke-width:1px;stroke-linecap:butt;stroke-linejoin:miter;marker:none;marker-start:none;marker-mid:none;marker-end:none;stroke-miterlimit:4;stroke-dasharray:none;stroke-dashoffset:0;stroke-opacity:1;visibility:visible;display:inline;overflow:visible"
         id="path2422"
         d="M 570.7893,510.19767 C 568.2345,510.04194 565.67064,510.33165 563.13587,510.63025 C 550.31998,511.96661 535.7546,519.0277 527.99878,523.61978 C 510.04933,534.58235 495.38288,550.05966 485.55996,568.64826 C 476.13236,586.57339 477.68288,605.75068 488.43015,622.56643 C 502.08107,641.68884 524.06147,651.89329 546.62964,656.0041 C 570.07084,659.42777 593.12385,652.90052 612.56406,639.88042 C 631.07762,626.87276 643.95158,607.98867 649.55607,586.13736 C 653.70373,568.32916 649.86221,550.71416 638.33961,536.59986 C 626.56314,523.12091 609.80365,516.5669 592.76875,512.70942 C 582.21634,510.45937 571.42409,509.69517 560.6543,509.79891 L 564.76776,503.29822 C 575.70824,503.49167 586.64886,504.51533 597.32638,506.99201 C 615.01613,511.3107 632.31921,518.42144 644.46195,532.57261 C 656.56865,547.60855 660.79977,566.25197 656.58098,585.18008 C 650.96166,607.78159 638.01624,627.5004 619.15195,641.30038 C 596.70036,656.98473 570.02041,665.76398 542.55147,661.34875 C 519.17537,656.76899 496.513,645.93703 482.32233,626.13337 C 470.9132,608.4036 468.77541,587.94602 478.49505,568.81424 C 488.31098,549.69156 502.99275,533.59886 521.06466,521.94311 C 535.10881,513.10852 550.48293,505.83838 567.04809,503.5237 C 569.83475,503.16377 572.62851,502.90047 575.43747,502.81988 L 570.7893,510.19767 z " />
    </g>
    <path
       style="opacity:1;color:#000000;fill:#2b2b2b;fill-opacity:1;fill-rule:nonzero;stroke:none;stroke-width:1px;stroke-linecap:butt;stroke-linejoin:miter;marker:none;marker-start:none;marker-mid:none;marker-end:none;stroke-miterlimit:4;stroke-dasharray:none;stroke-dashoffset:0;stroke-opacity:1;visibility:visible;display:inline;overflow:visible"
       d="M 411.03566,348.12056 C 467.71836,379.10721 532.25669,369.18524 592.70844,371.09012 C 636.86218,362.24095 723.19544,341.46188 650.63019,316.28795 C 603.729,304.49334 554.8652,310.50649 507.16798,305.0848 C 478.55528,308.83784 416.68521,305.02235 411.03566,348.12056 z "
       id="path6979"
       sodipodi:nodetypes="ccccc" />
    <path
       sodipodi:nodetypes="ccccc"
       id="path7882"
       d="M 409.98056,368.83751 C 466.66326,399.82417 531.20159,389.90219 591.65335,391.80709 C 635.8071,382.95791 722.14034,362.17883 649.57509,337.00491 C 602.6739,325.21031 553.8101,331.22345 506.1129,325.80176 C 477.50018,329.55481 415.63012,325.73931 409.98056,368.83751 z "
       style="opacity:1;color:#000000;fill:#007cff;fill-opacity:0.44720495;fill-rule:nonzero;stroke:none;stroke-width:1px;stroke-linecap:butt;stroke-linejoin:miter;marker:none;marker-start:none;marker-mid:none;marker-end:none;stroke-miterlimit:4;stroke-dasharray:none;stroke-dashoffset:0;stroke-opacity:1;visibility:visible;display:inline;overflow:visible" />
    <path
       style="color:#000000;fill:#5c5c5c;fill-opacity:1;fill-rule:nonzero;stroke:none;stroke-width:1px;stroke-linecap:butt;stroke-linejoin:miter;marker:none;marker-start:none;marker-mid:none;marker-end:none;stroke-miterlimit:4;stroke-dasharray:none;stroke-dashoffset:0;stroke-opacity:1;visibility:visible;display:inline;overflow:visible"
       d="M 658.75484,650.72375 C 687.92339,673.26227 717.74,694.99483 749.80184,710.80747 C 760.06643,723.47064 783.45476,734.55158 792.25404,714.72537 C 795.2682,695.00128 775.116,690.27666 763.89211,685.4995 C 742.12653,677.50566 723.38747,661.10468 702.95672,649.30152 C 689.59348,644.43642 672.62307,624.02013 660.04848,635.6658 C 657.83166,640.11243 657.45987,645.80251 658.75484,650.72375 z "
       id="path10558" />
    <g
       id="g10573"
       transform="matrix(1.477124,0,0,1.812734,-167.9072,-497.7727)">
      <path
         d="M 633.97535,660.76259 C 635.64006,662.09839 638.08838,659.5108 639.95899,658.48296 C 638.34309,659.11165 637.1938,660.26431 636.11152,661.55731 C 634.96252,663.50333 635.29999,665.29357 636.01712,667.29288 C 637.22056,669.49439 639.06068,670.09217 641.37748,670.47362 C 640.90658,672.05264 647.51893,668.10817 646.04382,668.84242 C 644.51992,669.60096 643.04176,670.4481 641.54073,671.25094 C 643.70639,669.98681 644.32721,668.08218 644.67564,665.74951 C 644.71185,663.62001 643.74138,662.49351 642.20323,661.2651 C 640.36052,660.44699 638.60519,660.72803 636.73391,661.22403 C 631.36357,663.8548 636.67071,661.24248 639.3838,659.81094 L 629.88173,657.40927 C 633.71378,655.36024 636.96994,652.92975 641.27042,652.53929 C 644.29633,652.52345 647.15139,652.97912 649.6287,654.87021 C 652.12093,657.15628 653.81955,659.74088 654.11563,663.21049 C 654.13928,666.76686 653.53181,670.09683 651.16657,672.90509 C 646.7869,677.06192 641.29411,679.50332 635.42462,678.21032 C 631.91075,677.05797 629.07275,675.06783 627.31431,671.73106 C 625.97768,668.57907 625.29587,665.4289 626.32637,662.0504 C 627.225,659.77691 628.37629,657.74946 630.33396,656.20543 C 633.16826,654.61856 636.11088,650.71983 639.30568,652.31125 L 633.97535,660.76259 z "
         id="path1393"
         style="color:#000000;fill:#000000;fill-opacity:1;fill-rule:nonzero;stroke:none;stroke-width:1px;stroke-linecap:butt;stroke-linejoin:miter;marker:none;marker-start:none;marker-mid:none;marker-end:none;stroke-miterlimit:4;stroke-dasharray:none;stroke-dashoffset:0;stroke-opacity:1;visibility:visible;display:inline;overflow:visible" />
      <path
         d="M 563.57443,615.36222 C 565.7359,616.96325 568.2141,618.26165 570.56207,619.6066 C 578.51555,624.11054 586.5524,628.46705 594.6388,632.72738 C 603.89031,637.62739 613.25473,642.31211 622.70543,646.81531 C 628.7454,649.68484 634.82018,652.48021 640.90819,655.24605 L 636.3695,659.91364 C 630.34262,657.05258 624.32236,654.17747 618.31755,651.27035 C 608.86781,646.68671 599.46842,641.99779 590.17907,637.09611 C 582.05229,632.80324 573.95846,628.4481 565.82876,624.16068 C 563.85844,623.11383 559.74536,620.8768 558.58023,620.35796 L 563.57443,615.36222 z "
         id="path9681"
         style="opacity:1;color:#000000;fill:#000000;fill-opacity:1;fill-rule:nonzero;stroke:none;stroke-width:1px;stroke-linecap:butt;stroke-linejoin:miter;marker:none;marker-start:none;marker-mid:none;marker-end:none;stroke-miterlimit:4;stroke-dasharray:none;stroke-dashoffset:0;stroke-opacity:1;visibility:visible;display:inline;overflow:visible" />
      <path
         d="M 560.10179,629.86914 C 561.1846,630.72447 562.94949,631.66116 564.36828,632.45494 C 569.90718,635.5311 575.52699,638.45858 581.1349,641.40623 C 587.47801,644.7438 593.87578,647.97595 600.27936,651.19553 C 605.39858,653.73702 610.44375,656.42288 615.48702,659.11082 C 619.31753,661.16877 623.17204,663.18155 627.03986,665.16835 C 629.35026,666.35656 631.68777,667.49071 634.02123,668.63257 L 629.16636,673.50814 C 626.83299,672.33989 624.50908,671.15269 622.20607,669.92542 C 618.36959,667.88123 614.53616,665.83136 610.72061,663.74828 C 605.72021,661.04634 600.70166,658.37865 595.62599,655.82012 C 589.25043,652.54146 582.88164,649.24948 576.52693,645.93058 C 570.88114,642.97591 565.20792,640.07367 559.5295,637.18233 C 558.97727,636.90364 554.98763,634.68617 556.33268,635.84514 L 560.10179,629.86914 z "
         id="path9683"
         style="opacity:1;color:#000000;fill:#000000;fill-opacity:1;fill-rule:nonzero;stroke:none;stroke-width:1px;stroke-linecap:butt;stroke-linejoin:miter;marker:none;marker-start:none;marker-mid:none;marker-end:none;stroke-miterlimit:4;stroke-dasharray:none;stroke-dashoffset:0;stroke-opacity:1;visibility:visible;display:inline;overflow:visible" />
    </g>
    <g
       id="g2430"
       transform="matrix(1.477124,0,0,1.812734,-129.924,-365.7018)">
      <path
         id="path1503"
         d="M 364.16,391.88818 C 378.66068,405.36823 399.77249,401.88688 417.67006,405.67983 C 454.67076,408.61018 492.20741,407.08501 528.50965,399.02671 C 536.80141,392.54794 556.31308,390.69698 555.60188,405.54451 C 560.27713,423.94825 562.78179,442.88996 562.14563,461.8849 C 563.07356,481.50621 561.03636,501.29565 554.60395,519.92276 C 549.91392,535.02731 547.07446,550.68258 542.24125,565.70528 C 537.74952,577.969 527.96029,590.71566 513.60099,590.38867 C 478.91838,594.8151 443.81872,598.04562 408.87255,595.26906 C 391.29648,593.46929 371.39392,584.50726 366.41531,566.03014 C 362.68,551.9194 360.82911,537.37439 357.28533,523.20085 C 352.4937,496.76327 354.7146,469.66842 356.30087,443.02251 C 358.18242,425.93218 356.74133,407.85186 364.16,391.88818 z "
         style="opacity:1;color:#000000;fill:#8a4113;fill-opacity:1;fill-rule:nonzero;stroke:none;stroke-width:1px;stroke-linecap:butt;stroke-linejoin:miter;marker:none;marker-start:none;marker-mid:none;marker-end:none;stroke-miterlimit:4;stroke-dasharray:none;stroke-dashoffset:0;stroke-opacity:1;visibility:visible;display:inline;overflow:visible" />
      <path
         d="M 474.62398,411.77054 C 471.62918,412.05884 463.06012,411.73698 458.59945,411.64192 C 438.08728,411.18787 417.61917,409.50257 397.29362,406.72801 C 386.73022,404.23868 363.40313,404.66092 360.33779,390.69733 C 363.1432,374.11058 391.07731,371.53333 404.54441,369.53861 C 430.87181,365.95016 457.52318,365.69578 484.01511,367.18547 C 502.79071,368.96346 522.28664,369.35065 540.30261,375.53002 C 549.5798,378.52759 556.87559,387.44397 547.72234,395.19847 C 533.23505,404.71705 515.28239,406.47302 498.47924,408.64277 C 485.67102,410.24834 472.81007,411.40381 459.93124,412.26099 L 464.58224,404.38802 C 477.29342,403.6921 489.99134,402.67122 502.622,401.06412 C 511.9669,399.82569 521.36969,398.47262 530.46312,395.9224 C 534.02519,394.92343 543.97116,390.03562 540.85857,392.03513 C 539.36673,392.99348 534.2954,395.5228 538.60682,393.35082 C 546.5541,388.74375 541.1285,384.85554 534.35494,382.28627 C 516.83331,376.23056 497.86089,375.61215 479.58861,373.78964 C 453.2997,372.2198 426.79751,372.58218 400.74529,376.74898 C 383.68312,379.80148 376.09531,380.83902 369.37926,387.78411 C 370.45371,398.06837 395.4552,397.86171 402.17599,400.01368 C 422.4328,402.85731 442.87928,404.44708 463.34522,404.12807 C 468.71849,404.02971 474.91174,403.79487 479.95349,403.32052 L 474.62398,411.77054 z "
         id="path1315"
         style="opacity:1;color:#000000;fill:#000000;fill-opacity:1;fill-rule:nonzero;stroke:none;stroke-width:1px;stroke-linecap:butt;stroke-linejoin:miter;marker:none;marker-start:none;marker-mid:none;marker-end:none;stroke-miterlimit:4;stroke-dasharray:none;stroke-dashoffset:0;stroke-opacity:1;visibility:visible;display:inline;overflow:visible" />
      <path
         id="path1327"
         d="M 550.8125,382.5625 L 541.15625,385.0625 C 541.4764,386.07314 541.94556,387.03098 542.375,388 C 544.92547,393.40581 547.21049,398.94911 549.34375,404.53125 C 553.69006,416.04617 556.39528,428.08878 558.15625,440.25 C 560.7318,458.82644 559.80007,477.66707 557.03125,496.15625 C 554.13494,514.37896 548.9257,532.12366 542.625,549.4375 C 540.04138,556.30393 537.32383,563.14921 534.3125,569.84375 C 534.31235,569.8547 534.31268,569.86404 534.3125,569.875 C 534.26588,572.70346 533.23423,575.69964 531.625,578.21875 L 539.65625,577.9375 C 544.0722,568.40014 547.82349,558.56554 551.3125,548.65625 C 557.35905,531.04861 562.4213,513.05072 565.25,494.625 C 567.97464,475.72175 568.91035,456.49253 566.4375,437.5 C 564.75029,424.98913 562.07177,412.57926 557.78125,400.6875 C 555.70984,395.03198 553.44399,389.46439 551.28125,383.84375 C 551.21809,383.6761 550.98907,383.03802 550.8125,382.5625 z "
         style="opacity:1;color:#000000;fill:#000000;fill-opacity:1;fill-rule:nonzero;stroke:none;stroke-width:1px;stroke-linecap:butt;stroke-linejoin:miter;marker:none;marker-start:none;marker-mid:none;marker-end:none;stroke-miterlimit:4;stroke-dasharray:none;stroke-dashoffset:0;stroke-opacity:1;visibility:visible;display:inline;overflow:visible" />
      <path
         d="M 371.16861,386.68809 C 370.51724,387.7016 369.64871,389.60757 369.06786,390.94447 C 366.31887,397.81152 364.43319,404.99628 362.74168,412.18638 C 359.64101,425.66643 357.87939,439.41241 356.82414,453.19202 C 355.32146,471.65452 356.29221,490.18056 358.97675,508.48198 C 361.53826,525.09907 365.76882,541.40675 370.69201,557.46678 C 373.18828,565.79618 376.04677,574.00665 379.75248,581.87822 L 371.36924,586.03953 C 367.72301,577.90198 364.85621,569.46791 362.47024,560.8773 C 357.7333,544.539 353.61435,527.99299 350.96074,511.17831 C 348.20265,492.61565 347.09673,473.8278 348.39042,455.08152 C 349.28509,441.14741 350.88712,427.24561 353.65029,413.5506 C 355.2037,406.16431 357.06559,398.83828 359.44773,391.67244 C 359.89656,390.42587 360.84798,387.66573 361.18364,387.00341 L 371.16861,386.68809 z "
         id="path1329"
         style="opacity:1;color:#000000;fill:#000000;fill-opacity:1;fill-rule:nonzero;stroke:none;stroke-width:1px;stroke-linecap:butt;stroke-linejoin:miter;marker:none;marker-start:none;marker-mid:none;marker-end:none;stroke-miterlimit:4;stroke-dasharray:none;stroke-dashoffset:0;stroke-opacity:1;visibility:visible;display:inline;overflow:visible" />
      <path
         id="path1347"
         d="M 374.09375,567.96875 C 371.00401,569.95119 368.69422,572.69055 367.90625,576.59375 C 370.40105,592.63334 395.24272,595.10233 407.21875,597.03125 C 430.63118,600.50131 454.34751,600.75304 477.90625,599.3125 C 494.60302,597.59315 511.91626,597.22553 527.9375,591.25 C 536.18753,588.3513 542.7023,579.71745 534.5625,572.21875 C 534.42257,572.11878 534.26565,572.03571 534.125,571.9375 C 533.16657,577.47938 528.90125,583.05064 524.28125,584.03125 C 524.25,584.04609 524.21888,584.04774 524.1875,584.0625 C 523.69434,584.29448 523.1739,584.50524 522.65625,584.71875 C 507.0746,590.57469 490.21792,591.17511 473.96875,592.9375 C 450.59053,594.45552 427.01147,594.09186 403.84375,590.0625 C 388.6707,587.11071 381.9412,586.12223 375.96875,579.40625 C 376.08694,578.17607 376.52045,577.09949 377.21875,576.15625 C 376.10259,573.45699 375.09258,570.72455 374.125,567.96875 C 374.11831,567.97303 374.10043,567.96446 374.09375,567.96875 z "
         style="opacity:1;color:#000000;fill:#000000;fill-opacity:1;fill-rule:nonzero;stroke:none;stroke-width:1px;stroke-linecap:butt;stroke-linejoin:miter;marker:none;marker-start:none;marker-mid:none;marker-end:none;stroke-miterlimit:4;stroke-dasharray:none;stroke-dashoffset:0;stroke-opacity:1;visibility:visible;display:inline;overflow:visible" />
      <path
         d="M 427.58433,405.78868 C 427.56662,409.78192 430.45918,422.69357 431.92041,429.25546 C 434.89171,442.39433 438.17785,455.45973 441.54705,468.50147 C 443.55062,476.27833 445.63133,484.03568 447.94738,491.7257 L 439.19339,495.33986 C 436.9883,487.53964 435.0122,479.67758 433.08715,471.80408 C 429.88664,458.67819 426.72736,445.54212 423.63245,432.39092 C 421.76201,424.36698 420.05946,416.21864 417.91335,408.30057 L 427.58433,405.78868 z "
         id="path1365"
         style="opacity:1;color:#000000;fill:#000000;fill-opacity:1;fill-rule:nonzero;stroke:none;stroke-width:1px;stroke-linecap:butt;stroke-linejoin:miter;marker:none;marker-start:none;marker-mid:none;marker-end:none;stroke-miterlimit:4;stroke-dasharray:none;stroke-dashoffset:0;stroke-opacity:1;visibility:visible;display:inline;overflow:visible" />
      <path
         sodipodi:nodetypes="ccccsccsccccc"
         d="M 501.39678,406.21537 C 510.7331,402.6989 508.27377,403.30926 505.62653,409.07612 C 502.28087,417.06892 499.20074,425.17402 496.18414,433.29642 C 492.133,444.21501 488.27803,455.20598 484.61033,466.25915 C 482.00195,474.06313 479.7143,481.96846 477.64609,489.93126 C 477.43031,490.75893 477.23462,491.59158 477.02888,492.42174 L 467.60105,493.72389 C 467.8184,492.87367 468.02444,492.02056 468.25311,491.17323 C 470.42179,483.10072 472.81427,475.08859 475.48553,467.16735 C 479.2226,456.0789 483.22882,445.08347 487.17592,434.06875 C 490.10917,425.95423 493.08835,417.85617 495.97355,409.72444 C 498.10645,404.03282 497.14233,403.72458 505.21189,401.29956 L 501.39678,406.21537 z "
         id="path1369"
         style="opacity:1;color:#000000;fill:#000000;fill-opacity:1;fill-rule:nonzero;stroke:none;stroke-width:1px;stroke-linecap:butt;stroke-linejoin:miter;marker:none;marker-start:none;marker-mid:none;marker-end:none;stroke-miterlimit:4;stroke-dasharray:none;stroke-dashoffset:0;stroke-opacity:1;visibility:visible;display:inline;overflow:visible" />
      <path
         d="M 461.92952,494.17703 C 461.88595,494.92242 461.87949,495.66972 461.86021,496.41605 C 461.7555,500.54733 461.25459,504.65563 460.85157,508.76513 C 460.07238,516.99241 459.64998,525.25054 459.46462,533.51145 C 459.30599,541.79491 459.33169,550.08071 459.39712,558.36504 C 459.44784,564.32417 459.53758,570.28286 459.62461,576.24154 C 459.68472,579.96354 459.72305,583.6858 459.75649,587.40812 C 459.79295,589.84068 459.78974,592.27255 459.7388,594.70471 L 450.22919,597.02755 C 450.31023,594.64468 450.36762,592.26185 450.33585,589.87727 C 450.3328,586.14938 450.32429,582.4215 450.32423,578.6936 C 450.31991,572.71077 450.31474,566.72795 450.3105,560.74512 C 450.30475,552.41267 450.3074,544.07957 450.46956,535.74834 C 450.64319,527.41808 451.01743,519.09424 451.56865,510.78028 C 451.85975,506.82053 452.26654,502.86429 452.32784,498.89194 C 452.30861,498.15762 452.30248,497.42227 452.25853,496.68892 L 461.92952,494.17703 z "
         id="path1371"
         style="opacity:1;color:#000000;fill:#000000;fill-opacity:1;fill-rule:nonzero;stroke:none;stroke-width:1px;stroke-linecap:butt;stroke-linejoin:miter;marker:none;marker-start:none;marker-mid:none;marker-end:none;stroke-miterlimit:4;stroke-dasharray:none;stroke-dashoffset:0;stroke-opacity:1;visibility:visible;display:inline;overflow:visible" />
      <path
         d="M 428.59449,466.39783 C 427.26635,463.9956 428.70733,466.01942 429.25125,466.73576 C 431.16195,468.9756 433.21338,471.0895 435.21366,473.24834 C 437.75199,475.98737 440.07781,478.90812 442.3257,481.88675 C 444.05924,484.25852 445.91804,486.53275 447.79183,488.79374 C 450.33524,489.47266 443.08429,491.18591 440.91634,492.67918 C 441.39689,489.54622 441.58863,486.37019 441.88289,483.21379 C 442.27503,479.03866 442.7591,474.87302 443.26071,470.70988 C 443.49604,468.83166 443.73607,466.95404 443.97057,465.07572 L 453.49901,463.22662 C 453.24891,465.10123 453.00155,466.97623 452.74992,468.85065 C 452.21345,472.95955 451.73059,477.07615 451.34288,481.20188 C 451.05596,484.42753 450.78788,487.65507 450.61219,490.88899 C 450.37352,496.92123 442.45366,499.61799 439.59424,494.19133 C 437.74215,491.83366 435.86304,489.4967 434.11105,487.06233 C 431.95903,484.21565 429.73255,481.42448 427.26969,478.83679 C 425.19396,476.63544 423.08145,474.46706 421.07206,472.20434 C 420.20204,471.15026 419.30861,470.25629 418.9235,468.90973 L 428.59449,466.39783 z "
         id="path1375"
         style="opacity:1;color:#000000;fill:#000000;fill-opacity:1;fill-rule:nonzero;stroke:none;stroke-width:1px;stroke-linecap:butt;stroke-linejoin:miter;marker:none;marker-start:none;marker-mid:none;marker-end:none;stroke-miterlimit:4;stroke-dasharray:none;stroke-dashoffset:0;stroke-opacity:1;visibility:visible;display:inline;overflow:visible" />
      <path
         d="M 424.40802,488.17268 C 425.53115,488.73311 426.91692,488.76958 428.17191,488.93432 C 432.19769,489.38832 436.23561,489.72105 440.27709,489.99752 C 445.07221,490.32477 449.87455,490.49795 454.67985,490.55571 C 459.57728,490.62029 464.47356,490.45895 469.36845,490.32333 C 473.61307,490.1385 477.86032,489.97653 482.10034,489.70199 C 485.17093,489.52032 488.22932,489.18945 491.29169,488.90816 L 486.43595,497.39212 C 483.34295,497.66745 480.24788,497.91662 477.14427,498.03887 C 472.87868,498.21427 468.61375,498.4179 464.34543,498.51545 C 459.39813,498.63674 454.449,498.74135 449.50021,498.64156 C 444.62401,498.53706 439.75232,498.29472 434.88694,497.95288 C 430.74919,497.65563 426.61158,497.33149 422.48779,496.87741 C 421.58027,496.7607 419.02048,496.18382 419.07769,496.62402 L 424.40802,488.17268 z "
         id="path1377"
         style="opacity:1;color:#000000;fill:#000000;fill-opacity:1;fill-rule:nonzero;stroke:none;stroke-width:1px;stroke-linecap:butt;stroke-linejoin:miter;marker:none;marker-start:none;marker-mid:none;marker-end:none;stroke-miterlimit:4;stroke-dasharray:none;stroke-dashoffset:0;stroke-opacity:1;visibility:visible;display:inline;overflow:visible" />
    </g>
    <path
       style="opacity:1;color:#000000;fill:#8a4113;fill-opacity:1;fill-rule:nonzero;stroke:none;stroke-width:1px;stroke-linecap:butt;stroke-linejoin:miter;marker:none;marker-start:none;marker-mid:none;marker-end:none;stroke-miterlimit:4;stroke-dasharray:none;stroke-dashoffset:0;stroke-opacity:1;visibility:visible;display:inline;overflow:visible"
       d="M 792.54664,546.98522 C 769.90811,547.46903 747.49182,553.93785 727.8763,566.58541 C 626.01623,625.15147 582.79575,773.72946 689.47108,835.49317 C 788.59752,915.8904 951.17259,806.69014 925.81093,655.35272 C 909.53061,583.39295 850.40065,545.74878 792.54664,546.98522 z M 790.05399,562.95995 C 815.98422,562.73656 842.13244,571.67279 864.00252,588.28156 C 891.56037,608.93707 912.46385,646.62587 911.45514,687.13222 C 906.29052,742.80737 873.89952,788.6066 837.13733,818.72537 C 779.95428,864.60409 695.42207,840.23274 658.26683,770.85787 C 644.09334,747.46169 642.48806,715.66963 650.28112,688.71835 C 664.38305,641.07269 697.30766,605.80892 732.07688,580.80403 C 749.86347,568.87029 769.88606,563.13367 790.05399,562.95995 z "
       id="path10585" />
    <path
       style="color:#000000;fill:#000000;fill-opacity:1;fill-rule:nonzero;stroke:none;stroke-width:1px;stroke-linecap:butt;stroke-linejoin:miter;marker:none;marker-start:none;marker-mid:none;marker-end:none;stroke-miterlimit:4;stroke-dasharray:none;stroke-dashoffset:0;stroke-opacity:1;visibility:visible;display:inline;overflow:visible"
       id="path1391"
       d="M 787.20463,551.69196 C 782.87703,551.36858 778.53409,551.97016 774.24043,552.5902 C 752.53149,555.36517 727.85909,570.02757 714.72147,579.56304 C 684.31676,602.3269 659.47315,634.46563 642.83404,673.06499 C 626.86455,710.28666 629.49099,750.10843 647.69586,785.02643 C 670.81926,824.73424 708.05201,845.92387 746.28039,854.45998 C 785.98762,861.56925 825.03729,848.01538 857.96719,820.97907 C 889.32744,793.96856 911.13475,754.75562 920.62822,709.38122 C 927.65398,672.40239 921.1468,635.82471 901.62858,606.51628 C 881.68034,578.52714 853.29132,564.9177 824.43577,556.90761 C 806.56098,552.23538 788.2799,550.6485 770.03688,550.86391 L 777.00469,537.3652 C 795.53686,537.76689 814.06924,539.89253 832.15597,545.03537 C 862.12078,554.00315 891.43059,568.76866 911.99926,598.15368 C 932.50688,629.37588 939.67401,668.0891 932.52778,707.39341 C 923.00917,754.32563 901.08082,795.27186 869.12648,823.92761 C 831.09555,856.49628 785.90219,874.72644 739.37236,865.5582 C 699.77542,856.04827 661.38746,833.55563 637.34979,792.43321 C 618.02377,755.61722 614.40256,713.13691 630.86674,673.40965 C 647.49401,633.70127 672.36355,600.28467 702.97569,576.08144 C 726.76518,557.73635 752.80751,542.63985 780.86737,537.8334 C 785.5877,537.086 790.32009,536.53926 795.07819,536.37193 L 787.20463,551.69196 z " />
    <path
       style="opacity:1;color:#000000;fill:#5c5c5c;fill-opacity:0.42236023;fill-rule:nonzero;stroke:none;stroke-width:1px;stroke-linecap:butt;stroke-linejoin:miter;marker:none;marker-start:none;marker-mid:none;marker-end:none;stroke-miterlimit:4;stroke-dasharray:none;stroke-dashoffset:0;stroke-opacity:1;visibility:visible;display:inline;overflow:visible"
       d="M 732.08346,580.80403 C 697.31424,605.80892 664.39563,641.06753 650.2937,688.71322 C 642.50068,715.66443 644.0834,747.44132 658.2569,770.83749 C 695.41216,840.21239 779.96841,864.62538 837.15146,818.74665 C 873.91367,788.62784 906.31154,742.83158 911.47615,687.15644 C 912.48485,646.65009 891.58083,608.95497 864.02298,588.29948 C 825.14286,558.77276 772.73856,553.52689 732.08346,580.80403 z "
       id="path10626" />
    <path
       d="M 786.00361,570.80396 C 782.22985,570.52168 778.44271,571.04684 774.69854,571.58812 C 755.76787,574.01058 734.253,586.81046 722.7967,595.13468 C 696.28313,615.0069 674.61896,643.06315 660.10928,676.75933 C 646.18355,709.25283 648.47386,744.01615 664.34892,774.49864 C 684.51302,809.16248 716.9808,827.66043 750.31679,835.11223 C 784.94235,841.31844 818.9945,829.48627 847.71011,805.8843 C 875.05694,782.30487 894.07338,748.07303 902.35191,708.46242 C 908.47851,676.1809 902.8041,644.24959 885.78379,618.66412 C 868.38848,594.23038 843.63264,582.34969 818.46998,575.3571 C 802.88276,571.27836 786.94126,569.89306 771.03295,570.08112 L 777.10904,558.29709 C 793.26949,558.64778 809.43014,560.50341 825.20217,564.99296 C 851.33212,572.8216 876.89092,585.71147 894.82725,611.36378 C 912.71035,638.61994 918.96024,672.4155 912.72857,706.72712 C 904.42814,747.69766 885.30614,783.44261 857.44124,808.4583 C 824.27746,836.88986 784.86786,852.80431 744.29282,844.80066 C 709.76342,836.49877 676.28829,816.86332 655.32691,780.96455 C 638.4742,748.8252 635.31642,711.74105 649.67353,677.06021 C 664.17289,642.39589 685.85968,613.22411 712.55413,592.09532 C 733.29909,576.08057 756.00858,562.90174 780.47738,558.70583 C 784.59362,558.05339 788.72035,557.57608 792.86952,557.42999 L 786.00361,570.80396 z "
       id="path1429"
       style="color:#000000;fill:#000000;fill-opacity:1;fill-rule:nonzero;stroke:none;stroke-width:1px;stroke-linecap:butt;stroke-linejoin:miter;marker:none;marker-start:none;marker-mid:none;marker-end:none;stroke-miterlimit:4;stroke-dasharray:none;stroke-dashoffset:0;stroke-opacity:1;visibility:visible;display:inline;overflow:visible" />
    <g
       id="g6990"
       transform="matrix(1.477124,0,0,1.812734,-33.61633,-494.1103)">
      <path
         sodipodi:nodetypes="cccccccccc"
         id="path4268"
         d="M 210.03125,489.28125 C 189.87489,490.69082 163.59593,495.17597 154.42805,515.56276 C 148.65111,539.17698 152.52304,564.0556 148.58268,588.06728 C 151.14485,611.88894 121.72446,642.54629 149.36538,659.27708 C 176.39642,672.94895 208.25092,667.69243 237.48021,667.61991 C 264.56006,665.77208 291.75556,665.02707 318.76127,666.80066 C 346.2798,666.45422 330.70153,638.13241 324.86308,622.18943 C 313.38273,589.78543 311.08934,554.11891 313.46866,519.65239 C 312.66571,489.68894 276.44731,489.27132 254.42514,491.83168 C 239.59921,491.86301 224.91975,488.61854 210.03125,489.28125 z "
         style="opacity:1;color:#000000;fill:#5c5c5c;fill-opacity:1;fill-rule:nonzero;stroke:none;stroke-width:1px;stroke-linecap:butt;stroke-linejoin:miter;marker:none;marker-start:none;marker-mid:none;marker-end:none;stroke-miterlimit:4;stroke-dasharray:none;stroke-dashoffset:0;stroke-opacity:1;visibility:visible;display:inline;overflow:visible" />
      <path
         d="M 318.48786,525.49176 C 318.40806,526.89775 318.38272,528.30707 318.34235,529.71474 C 318.29432,538.88022 318.67701,548.04691 319.19138,557.19653 C 320.13572,573.3205 322.12631,589.36484 324.9484,605.26374 C 327.45042,619.0468 330.63585,632.70071 334.42691,646.18495 C 336.05084,652.04505 337.96208,657.81818 340.28412,663.43782 L 331.66171,667.50755 C 329.38774,661.65661 327.52403,655.66185 325.95589,649.58291 C 322.36204,635.89122 319.30295,622.06083 316.80837,608.12619 C 313.98272,592.09202 311.8385,575.94158 310.66442,559.69788 C 309.98637,550.53836 309.4279,541.36911 308.97906,532.19558 C 308.92596,530.79844 308.89313,529.39959 308.81687,528.00366 L 318.48786,525.49176 z "
         id="path3317"
         style="opacity:1;color:#000000;fill:#000000;fill-opacity:1;fill-rule:nonzero;stroke:none;stroke-width:1px;stroke-linecap:butt;stroke-linejoin:miter;marker:none;marker-start:none;marker-mid:none;marker-end:none;stroke-miterlimit:4;stroke-dasharray:none;stroke-dashoffset:0;stroke-opacity:1;visibility:visible;display:inline;overflow:visible" />
      <path
         d="M 313.00333,532.98951 C 311.932,532.164 310.88432,531.28952 309.83852,530.42177 C 307.69766,528.72391 305.48036,527.12581 303.29066,525.49216 C 300.87377,523.69224 298.49154,521.84657 296.20371,519.88516 C 294.54449,518.29534 293.04967,516.57787 291.27455,515.13827 C 289.21165,514.29273 286.94865,514.42851 284.75875,514.48368 C 281.18933,514.71974 277.626,515.03778 274.05773,515.29108 C 269.9423,515.59067 265.81853,515.73834 261.69753,515.9332 C 257.59272,516.13418 253.48608,516.29281 249.37823,516.41569 C 245.31282,516.53111 241.24609,516.58763 237.17937,516.63102 C 233.19694,516.7063 229.21521,516.64264 225.23355,516.56286 C 221.74022,516.47825 218.24561,516.44501 214.75367,516.31421 C 212.04256,516.22802 209.33834,516.0397 206.6347,515.82946 C 204.49266,515.62591 202.37819,515.4288 200.23648,515.60533 C 199.15347,515.70063 198.47275,516.37117 197.65649,516.96828 C 199.50976,516.11321 201.22312,514.9828 203.00643,513.99006 C 201.5145,514.706 200.59627,516.0419 199.61709,517.31885 C 198.367,519.1644 196.90174,520.82557 195.359,522.4253 C 193.64176,524.13573 191.67432,525.54337 189.63435,526.83655 C 186.16895,529.03309 182.49008,530.63589 178.73402,532.17862 L 182.26978,523.04877 C 185.06967,521.75226 191.74191,518.25789 180.17486,524.28434 C 182.09677,523.33704 183.98716,522.33693 185.64966,520.96332 C 187.16298,519.70302 188.65024,518.4061 189.79378,516.78464 C 190.93883,515.20779 192.02294,513.57434 193.3196,512.11676 C 197.26005,509.80233 200.598,506.75506 205.32458,507.18434 C 207.6058,507.35125 209.88145,507.5801 212.16373,507.73923 C 214.80578,507.93289 217.45144,508.06511 220.09885,508.16225 C 223.55724,508.25606 227.01574,508.34987 230.47467,508.42303 C 234.41471,508.49199 238.35459,508.48416 242.2948,508.42274 C 246.33453,508.37113 250.37418,508.29999 254.41202,508.16268 C 258.50094,508.02206 262.58828,507.84427 266.67482,507.64638 C 270.76021,507.47344 274.84467,507.26546 278.92043,506.9302 C 282.59102,506.63177 286.26426,506.22761 289.95019,506.23584 C 293.08928,506.40599 296.16754,506.76901 298.73702,508.76327 C 300.55009,510.37091 302.09122,512.23458 303.89892,513.85053 C 306.11689,515.71098 308.40368,517.48821 310.73368,519.20657 C 312.96897,520.85285 315.22195,522.47541 317.43018,524.15813 C 318.11942,524.65128 320.21479,526.09413 318.33366,524.53817 L 313.00333,532.98951 z "
         id="path4214"
         style="opacity:1;color:#000000;fill:#000000;fill-opacity:1;fill-rule:nonzero;stroke:none;stroke-width:1px;stroke-linecap:butt;stroke-linejoin:miter;marker:none;marker-start:none;marker-mid:none;marker-end:none;stroke-miterlimit:4;stroke-dasharray:none;stroke-dashoffset:0;stroke-opacity:1;visibility:visible;display:inline;overflow:visible" />
      <path
         d="M 182.98157,522.51787 C 185.54414,524.48205 185.22227,526.63351 185.20761,529.57667 C 184.98056,539.94435 184.05574,550.28936 182.98454,560.60003 C 181.22513,577.36376 178.46422,594.00452 174.97273,610.49051 C 171.94291,624.41968 168.33829,638.22218 164.21525,651.86712 C 163.61017,653.8702 162.9788,655.86511 162.34498,657.85922 L 153.13944,658.78975 C 153.81898,656.81455 154.4993,654.83951 155.14287,652.85219 C 159.53892,639.35004 163.35436,625.65705 166.45931,611.79917 C 170.0131,595.49769 172.74349,579.01397 174.37237,562.40483 C 175.32709,552.33498 176.06986,542.21496 175.88731,532.09385 C 175.70535,528.49795 175.01348,528.04862 177.65123,530.96921 L 182.98157,522.51787 z "
         id="path4216"
         style="opacity:1;color:#000000;fill:#000000;fill-opacity:1;fill-rule:nonzero;stroke:none;stroke-width:1px;stroke-linecap:butt;stroke-linejoin:miter;marker:none;marker-start:none;marker-mid:none;marker-end:none;stroke-miterlimit:4;stroke-dasharray:none;stroke-dashoffset:0;stroke-opacity:1;visibility:visible;display:inline;overflow:visible" />
      <path
         d="M 162.12636,652.08946 C 162.60722,652.84655 162.96058,653.67895 163.34755,654.48907 C 164.1676,656.06926 165.09536,657.58639 166.04674,659.0894 C 167.0875,660.77711 168.34268,662.29102 169.71343,663.71209 C 171.33249,665.15889 173.27297,665.43611 175.35796,665.62902 C 182.94971,665.73655 190.5481,665.35958 198.13543,665.08881 C 212.85463,664.49919 227.58393,664.22809 242.31205,663.97642 C 255.97255,663.75158 269.63321,663.53393 283.29451,663.36307 C 291.2716,663.25582 299.24968,663.27072 307.22711,663.32383 C 311.44734,663.31979 315.66469,663.47573 319.88094,663.64005 C 322.54044,663.79517 325.19628,664.00463 327.85504,664.17157 C 329.90813,664.47527 331.61011,663.90798 333.42093,663.0638 C 325.30499,666.37541 327.04121,667.40314 331.30393,663.57467 C 332.29013,662.6114 333.0508,661.46071 333.82668,660.33082 L 343.65498,660.4647 C 342.83701,661.81147 342.03426,663.16916 341.09541,664.4377 C 338.09291,668.20319 334.65507,670.94446 329.61535,672.13064 C 327.19927,672.53246 324.8058,672.61941 322.36227,672.29245 C 319.7483,672.09701 317.13549,671.87379 314.51606,671.7642 C 310.37511,671.57016 306.23286,671.41285 302.08745,671.35218 C 294.20969,671.18894 286.33067,671.07461 278.45096,671.09648 C 264.8763,671.10414 251.30121,671.15809 237.72811,671.37795 C 222.96337,671.62945 208.19928,672.02036 193.45481,672.86109 C 185.56724,673.25775 177.62972,674.03779 169.73996,673.51044 C 166.70673,672.90207 163.94086,671.82044 161.7798,669.51744 C 160.24768,667.79992 158.79179,666.02299 157.5775,664.05879 C 156.55054,662.44809 155.54671,660.82346 154.62708,659.14814 C 154.39898,658.7191 153.12889,656.39229 154.05972,657.98471 L 162.12636,652.08946 z "
         id="path4222"
         style="opacity:1;color:#000000;fill:#000000;fill-opacity:1;fill-rule:nonzero;stroke:none;stroke-width:1px;stroke-linecap:butt;stroke-linejoin:miter;marker:none;marker-start:none;marker-mid:none;marker-end:none;stroke-miterlimit:4;stroke-dasharray:none;stroke-dashoffset:0;stroke-opacity:1;visibility:visible;display:inline;overflow:visible" />
      <path
         d="M 158.23283,509.89096 C 161.69261,512.74598 160.12383,516.95119 159.69088,520.9005 C 158.38072,532.05424 157.25305,543.22761 156.16431,554.40472 C 155.02456,565.93516 153.88725,577.46618 152.67253,588.98904 C 151.91407,596.35843 151.08831,603.72311 149.77866,611.0171 C 148.91569,615.70642 147.54261,620.27355 145.89082,624.73953 C 144.74877,627.75506 143.38543,630.67784 141.99348,633.58398 C 141.00333,635.32802 140.49075,637.15902 140.22654,639.11353 C 140.26037,640.99844 141.09332,642.66968 141.8791,644.33911 C 142.83585,646.30015 143.94777,648.16455 145.19315,649.95109 C 146.334,651.48371 147.89777,652.54888 149.46126,653.60011 C 151.32344,654.76687 153.29133,655.74954 155.24725,656.74628 C 157.44205,657.86345 159.66084,658.93104 161.89543,659.96586 C 164.07287,660.95963 166.27645,661.89431 168.46339,662.86672 C 169.3605,663.26814 170.26197,663.65962 171.16255,664.05315 L 164.39639,671.15881 C 163.49456,670.75886 162.59298,670.35838 161.69083,669.95915 C 159.47348,668.98243 157.25078,668.01673 155.06088,666.97922 C 152.7916,665.90292 150.53583,664.79845 148.29805,663.6579 C 146.18719,662.56208 144.07082,661.46166 142.10988,660.10833 C 140.15098,658.68522 138.27122,657.15645 136.86592,655.15517 C 135.48621,653.14524 134.26948,651.03885 133.17555,648.85842 C 132.07141,646.60951 131.03834,644.30575 130.76944,641.78461 C 130.64702,639.07708 131.01274,636.49189 132.22706,634.0268 C 133.56258,631.1666 135.01477,628.36024 136.2313,625.445 C 137.95999,621.25965 139.41328,616.96286 140.36072,612.52806 C 141.84792,605.35742 142.80009,598.09566 143.64486,590.82398 C 145.01283,579.31248 146.25072,567.78545 147.39809,556.24999 C 148.48364,545.12611 149.546,533.99889 150.46073,522.8596 C 150.70614,519.40528 149.29722,513.27458 152.90249,518.3423 L 158.23283,509.89096 z "
         id="path4230"
         style="opacity:1;color:#000000;fill:#000000;fill-opacity:1;fill-rule:nonzero;stroke:none;stroke-width:1px;stroke-linecap:butt;stroke-linejoin:miter;marker:none;marker-start:none;marker-mid:none;marker-end:none;stroke-miterlimit:4;stroke-dasharray:none;stroke-dashoffset:0;stroke-opacity:1;visibility:visible;display:inline;overflow:visible" />
      <path
         d="M 156.21252,511.91126 C 148.99376,514.47103 146.4633,516.77645 151.85062,512.91326 C 154.5204,510.92401 157.12681,508.86034 159.56456,506.59345 C 161.5826,504.64379 163.27402,502.40752 164.87409,500.11315 C 167.53476,496.00806 171.73416,492.49049 176.87495,492.53818 C 179.49142,492.87194 181.92227,493.92831 184.30949,494.99511 C 187.21469,496.34711 190.03081,497.88012 192.87035,499.36275 C 195.81371,500.91633 198.76412,502.45572 201.73639,503.95325 C 204.26771,505.24035 206.82211,506.48001 209.38188,507.70904 C 209.85,507.94452 210.32725,508.16106 210.7999,508.38705 L 203.92567,515.3724 C 203.45349,515.14157 202.98297,514.90734 202.50914,514.6799 C 199.94014,513.41446 197.38291,512.12557 194.83163,510.82476 C 191.85923,509.29202 188.90522,507.72432 185.94169,506.17451 C 183.18998,504.74725 180.44857,503.28661 177.58338,502.09589 C 175.8248,501.42566 174.03237,500.59082 172.17779,501.20034 C 181.3541,496.71654 178.57959,496.7514 174.64892,500.62383 C 172.86508,502.9986 171.24455,505.50452 169.22947,507.70014 C 166.84123,510.25945 164.25944,512.5941 161.45009,514.69039 C 158.25866,517.30218 154.8905,519.95215 150.88219,520.3626 L 156.21252,511.91126 z "
         id="path4240"
         style="opacity:1;color:#000000;fill:#000000;fill-opacity:1;fill-rule:nonzero;stroke:none;stroke-width:1px;stroke-linecap:butt;stroke-linejoin:miter;marker:none;marker-start:none;marker-mid:none;marker-end:none;stroke-miterlimit:4;stroke-dasharray:none;stroke-dashoffset:0;stroke-opacity:1;visibility:visible;display:inline;overflow:visible" />
      <path
         id="path6062"
         d="M 247.48737,501.48972 C 264.6283,511.00169 299.43757,514.91942 304.48558,490.41204 C 300.6986,471.03534 298.47242,451.55508 299.17828,431.79594 C 293.87941,413.47371 313.03488,383.32158 289.39821,374.76859 C 272.59739,371.72348 246.12688,365.97374 240.19152,388.1732 C 237.66283,410.90184 238.53085,434.37661 240.65718,457.34032 C 246.46943,471.32657 238.20965,490.08015 247.48737,501.48972 z "
         style="opacity:1;color:#000000;fill:#9b9b9b;fill-opacity:1;fill-rule:nonzero;stroke:none;stroke-width:1px;stroke-linecap:butt;stroke-linejoin:miter;marker:none;marker-start:none;marker-mid:none;marker-end:none;stroke-miterlimit:4;stroke-dasharray:none;stroke-dashoffset:0;stroke-opacity:1;visibility:visible;display:inline;overflow:visible" />
      <path
         id="path6060"
         d="M 174.25131,494.92374 C 191.24291,511.46075 233.47583,518.89237 244.4276,494.09111 C 242.84433,471.8487 248.18199,444.38999 234.80765,426.25543 C 217.81674,409.89816 178.32437,412.94144 180.6251,442.68679 C 180.75357,460.33638 179.09907,477.90875 174.25131,494.92374 z "
         style="opacity:1;color:#000000;fill:#9b9b9b;fill-opacity:1;fill-rule:nonzero;stroke:none;stroke-width:1px;stroke-linecap:butt;stroke-linejoin:miter;marker:none;marker-start:none;marker-mid:none;marker-end:none;stroke-miterlimit:4;stroke-dasharray:none;stroke-dashoffset:0;stroke-opacity:1;visibility:visible;display:inline;overflow:visible" />
      <path
         d="M 180.45619,493.22344 C 181.62699,494.29112 182.95101,495.10947 184.30554,495.92418 C 187.93724,498.05439 191.81213,499.70931 195.73174,501.22468 C 200.57367,503.04473 205.57101,504.38799 210.63738,505.40606 C 214.89203,506.23289 219.20745,506.58191 223.53229,506.33925 C 227.07208,506.13222 230.48736,505.2111 233.84769,504.14191 C 239.97295,501.74284 242.09782,500.17081 235.39886,503.8209 C 238.81195,500.99617 241.74826,499.24004 245.9854,497.06459 C 248.11313,497.23263 249.97779,498.27795 251.84741,499.22262 C 254.01278,500.37959 256.2469,501.37685 258.5462,502.23112 C 261.49484,503.28754 264.56883,503.87255 267.65073,504.37178 C 271.19055,504.87648 274.76123,505.11866 278.33358,505.21473 C 281.88985,505.34414 285.43483,505.08549 288.96673,504.70361 C 291.7661,504.49982 294.40409,503.79029 296.96102,502.68496 C 290.86126,504.98305 290.85772,506.58021 295.46484,503.0163 C 296.97112,501.74916 298.10579,500.14559 299.24079,498.55698 C 299.42735,498.3126 299.58576,498.04909 299.75825,497.79515 L 309.5716,498.01796 C 309.39906,498.29317 309.2147,498.56096 309.05398,498.84358 C 307.84826,500.68647 306.66268,502.5527 305.22422,504.22682 C 301.95804,507.75206 298.06606,510.53508 293.23162,511.74547 C 290.25899,512.49595 287.23431,512.94735 284.17291,513.15997 C 280.46059,513.41061 276.74041,513.52659 273.02133,513.3208 C 269.27556,513.11908 265.52932,512.80618 261.83224,512.1515 C 258.49089,511.51642 255.17593,510.71702 252.00245,509.47288 C 249.60598,508.47439 247.26239,507.36787 244.93689,506.21318 C 243.67419,505.7381 242.91977,505.10828 242.24548,506.2317 C 252.99836,500.60511 247.73757,502.58246 244.95864,505.94097 C 240.06219,508.73077 235.39147,511.70513 229.84975,512.99799 C 226.1329,513.94838 222.34294,514.61209 218.49269,514.60053 C 213.86703,514.53863 209.26839,513.97516 204.75004,512.97376 C 199.4947,511.76179 194.30433,510.26774 189.28063,508.29125 C 185.14451,506.63484 181.05492,504.84824 177.18593,502.62567 C 176.66071,502.32057 172.76783,499.823 175.12585,501.67478 L 180.45619,493.22344 z "
         id="path4248"
         style="opacity:1;color:#000000;fill:#000000;fill-opacity:1;fill-rule:nonzero;stroke:none;stroke-width:1px;stroke-linecap:butt;stroke-linejoin:miter;marker:none;marker-start:none;marker-mid:none;marker-end:none;stroke-miterlimit:4;stroke-dasharray:none;stroke-dashoffset:0;stroke-opacity:1;visibility:visible;display:inline;overflow:visible" />
      <path
         id="path6960"
         d="M 184.35284,427.74857 C 194.36103,439.45199 211.54352,439.81293 225.61317,437.68281 C 238.50234,433.52924 231.44912,417.84305 220.08599,418.15729 C 208.68069,414.54603 195.17542,413.79543 184.54201,419.84556 C 182.464,421.8545 181.11409,426.0595 184.35284,427.74857 z "
         style="opacity:1;color:#000000;fill:#5c5c5c;fill-opacity:1;fill-rule:nonzero;stroke:none;stroke-width:1px;stroke-linecap:butt;stroke-linejoin:miter;marker:none;marker-start:none;marker-mid:none;marker-end:none;stroke-miterlimit:4;stroke-dasharray:none;stroke-dashoffset:0;stroke-opacity:1;visibility:visible;display:inline;overflow:visible" />
      <path
         d="M 171.43612,497.69074 C 171.49268,496.83068 171.48906,495.96776 171.50345,495.10644 C 171.4254,491.90084 171.39679,488.69728 171.52128,485.49277 C 171.76237,480.39943 172.4756,475.34576 173.19274,470.30227 C 174.02282,464.78884 174.71177,459.25626 175.36221,453.71924 C 175.87293,449.41589 176.27082,445.10051 176.58103,440.77837 C 176.79785,437.8276 176.90702,434.87138 176.97781,431.91412 C 176.52918,427.0434 180.6211,422.20591 186.17116,424.45068 C 188.30951,425.65206 190.50678,426.71161 192.76165,427.67308 C 197.35873,429.50594 202.1352,430.82493 206.96639,431.86892 C 211.8417,432.9514 216.80765,433.2744 221.78093,432.96613 C 225.56366,432.75841 229.11261,431.71589 232.46,430.0015 C 226.92462,431.92816 226.46794,434.04312 230.66466,430.4544 C 230.50224,428.63252 228.93834,427.75076 227.46862,426.80223 C 224.43408,425.14313 221.0647,424.26587 217.72163,423.46866 C 213.91561,422.5936 210.03364,422.13862 206.14831,421.80221 C 202.43149,421.42701 198.7096,421.51698 195.00329,421.91185 C 191.83013,422.27702 188.90411,423.44722 186.10764,424.92729 C 195.20188,420.15968 189.68203,422.68539 185.89598,425.80469 C 185.54836,426.1151 185.24218,426.46718 184.91549,426.79821 L 175.13563,426.14069 C 175.47691,425.67739 175.77791,425.18267 176.16031,424.74966 C 179.80854,420.53611 184.21005,418.0071 189.45015,415.77625 C 192.79919,414.54869 196.23035,413.61261 199.82205,413.48659 C 203.77585,413.29546 207.73233,413.42466 211.66834,413.86244 C 215.7494,414.30474 219.81998,414.89893 223.79752,415.93719 C 227.58912,416.9548 231.39495,418.12352 234.71018,420.28939 C 237.52002,422.31634 239.80218,424.71976 240.25627,428.29369 C 239.85547,434.77554 234.82131,436.52917 229.03635,439.11401 C 225.08873,440.45459 220.98905,441.16555 216.81109,441.20069 C 211.49972,441.21126 206.2228,440.6207 201.05249,439.37313 C 195.99649,438.15099 190.9869,436.70658 186.15744,434.75818 C 184.23368,433.94788 182.15193,432.65328 180.18726,432.35634 C 181.07993,432.0095 189.17931,426.48676 186.54277,429.67427 C 186.37005,432.67014 186.2682,435.67058 186.04616,438.66395 C 185.71491,443.06486 185.2889,447.45807 184.75442,451.83919 C 184.07824,457.41122 183.3723,462.97984 182.56637,468.5348 C 181.88113,473.43119 181.18426,478.33561 180.92359,483.27681 C 180.79242,486.35663 180.80779,489.43828 180.9949,492.51629 C 181.03179,493.4038 181.06737,494.29165 181.10711,495.17884 L 171.43612,497.69074 z "
         id="path4250"
         style="opacity:1;color:#000000;fill:#000000;fill-opacity:1;fill-rule:nonzero;stroke:none;stroke-width:1px;stroke-linecap:butt;stroke-linejoin:miter;marker:none;marker-start:none;marker-mid:none;marker-end:none;stroke-miterlimit:4;stroke-dasharray:none;stroke-dashoffset:0;stroke-opacity:1;visibility:visible;display:inline;overflow:visible" />
      <path
         id="path6971"
         d="M 245.46707,379.76633 C 261.78044,384.31069 278.56865,388.21148 295.55336,388.26653 C 303.51817,386.91138 300.01799,378.04197 293.48247,377.59382 C 285.6554,374.19491 277.73531,370.27951 268.97552,370.52306 C 260.78742,369.50688 252.81173,371.92976 245.14281,374.54293 C 242.2016,375.46032 241.72106,379.73718 245.46707,379.76633 z "
         style="opacity:1;color:#000000;fill:#5c5c5c;fill-opacity:1;fill-rule:nonzero;stroke:none;stroke-width:1px;stroke-linecap:butt;stroke-linejoin:miter;marker:none;marker-start:none;marker-mid:none;marker-end:none;stroke-miterlimit:4;stroke-dasharray:none;stroke-dashoffset:0;stroke-opacity:1;visibility:visible;display:inline;overflow:visible" />
      <path
         d="M 240.1265,502.7415 C 240.24962,500.92646 240.25501,499.10623 240.25885,497.28783 C 240.05146,487.39756 239.50418,477.51723 239.0625,467.63533 C 238.47625,452.9549 237.84597,438.27742 237.06751,423.60579 C 236.48902,412.44043 235.83844,401.27894 235.03485,390.12743 C 234.76445,386.01981 234.23106,381.90622 234.69317,377.80233 C 240.57037,371.69591 242.42174,373.3465 248.25157,375.82733 C 254.00543,378.12255 260.00512,379.7494 266.02566,381.17599 C 272.90123,382.78672 279.86832,383.97599 286.89074,384.70723 C 291.20436,385.14646 295.50443,385.1222 299.58393,383.60156 C 304.41218,380.75703 291.15099,387.11001 296.73398,385.33742 C 295.6697,383.46069 293.574,382.49943 291.72132,381.49889 C 287.5943,379.50768 283.1587,378.29183 278.70923,377.26845 C 274.00998,376.22816 269.21492,375.86886 264.4135,375.96451 C 259.62433,376.15925 254.91598,377.12299 250.29927,378.361 C 246.7524,379.28707 243.38529,380.68585 240.19535,382.47057 C 242.11862,381.45519 244.0419,380.43982 245.96517,379.42444 L 236.53791,376.89119 C 238.82442,375.67998 241.11092,374.46877 243.39743,373.25755 C 246.972,371.7518 250.64765,370.50992 254.44158,369.67435 C 259.39335,368.59644 264.41788,367.76262 269.50374,367.83129 C 274.62181,367.95298 279.72027,368.52537 284.69451,369.77594 C 289.47837,371.00091 294.24744,372.42665 298.63888,374.72876 C 301.73526,376.49283 304.69644,378.49243 305.98699,381.96441 C 306.95194,388.32821 301.95923,391.09084 295.59932,392.48678 C 290.8893,393.28208 286.11994,393.09437 281.39438,392.46042 C 274.25247,391.50143 267.15996,390.1925 260.15622,388.4903 C 253.90398,386.95793 247.6698,385.26068 241.66054,382.93469 C 235.01522,380.27981 238.30075,382.76131 244.59661,377.88971 C 243.85841,379.66803 243.58322,384.49861 244.04453,387.52145 C 244.521,398.74241 245.07798,409.95988 245.56621,421.18032 C 246.24893,435.8491 246.92169,450.51848 247.64428,465.18529 C 248.18934,475.03911 248.8299,484.88717 249.50679,494.73269 C 249.61257,496.56458 249.70707,498.39724 249.79748,500.2296 L 240.1265,502.7415 z "
         id="path4256"
         style="opacity:1;color:#000000;fill:#000000;fill-opacity:1;fill-rule:nonzero;stroke:none;stroke-width:1px;stroke-linecap:butt;stroke-linejoin:miter;marker:none;marker-start:none;marker-mid:none;marker-end:none;stroke-miterlimit:4;stroke-dasharray:none;stroke-dashoffset:0;stroke-opacity:1;visibility:visible;display:inline;overflow:visible" />
      <path
         d="M 306.36603,383.56533 C 306.37712,385.19947 305.9316,386.8039 305.60763,388.39898 C 303.6569,398.04664 302.66361,407.85092 302.07872,417.66682 C 301.29517,432.45142 301.96071,447.28277 303.60576,461.98691 C 304.64852,471.48199 306.44994,480.86956 308.93595,490.08779 C 309.79525,493.2511 310.84144,496.35694 311.97669,499.43029 L 303.16939,503.38734 C 302.0321,500.15979 300.99156,496.89905 300.1527,493.57949 C 297.76996,484.0778 296.06943,474.4214 295.08905,464.6708 C 293.5625,449.73309 292.94273,434.69798 293.44887,419.68675 C 293.85944,409.77172 294.65793,399.87588 296.11554,390.05574 C 296.29256,388.78104 296.51697,387.22029 296.69504,386.07722 L 306.36603,383.56533 z "
         id="path4258"
         style="opacity:1;color:#000000;fill:#000000;fill-opacity:1;fill-rule:nonzero;stroke:none;stroke-width:1px;stroke-linecap:butt;stroke-linejoin:miter;marker:none;marker-start:none;marker-mid:none;marker-end:none;stroke-miterlimit:4;stroke-dasharray:none;stroke-dashoffset:0;stroke-opacity:1;visibility:visible;display:inline;overflow:visible" />
      <path
         d="M 308.09341,494.00058 C 308.66223,494.73423 309.08756,495.56241 309.54686,496.36545 C 310.73182,498.49031 311.64065,500.74821 312.50838,503.01588 C 313.67881,506.17052 314.47238,509.4436 315.26494,512.70815 C 316.08113,516.01298 316.80455,519.33776 317.45259,522.67921 C 317.69108,523.90592 317.90944,525.13637 318.13063,526.36627 L 308.9133,529.6114 C 308.70389,528.39401 308.49709,527.17613 308.276,525.96078 C 307.67329,522.68778 307.00892,519.42768 306.20081,516.19819 C 305.45416,513.11664 304.72019,510.02296 303.61328,507.04586 C 302.83224,505.02642 302.01956,503.00943 300.90716,501.14457 C 300.6684,500.78617 300.1583,499.83996 300.02676,499.89583 L 308.09341,494.00058 z "
         id="path4262"
         style="opacity:1;color:#000000;fill:#000000;fill-opacity:1;fill-rule:nonzero;stroke:none;stroke-width:1px;stroke-linecap:butt;stroke-linejoin:miter;marker:none;marker-start:none;marker-mid:none;marker-end:none;stroke-miterlimit:4;stroke-dasharray:none;stroke-dashoffset:0;stroke-opacity:1;visibility:visible;display:inline;overflow:visible" />
      <path
         d="M 154.19222,508.37573 C 155.03844,509.20511 155.91725,509.95011 156.82012,510.71444 C 158.43627,511.94214 160.1804,512.98531 161.93176,514.00544 C 164.38573,515.411 166.8998,516.70665 169.42712,517.97407 C 172.02019,519.26982 174.62222,520.54734 177.22486,521.82369 C 179.39777,522.89481 181.56888,523.96927 183.75473,525.01377 C 184.58425,525.40711 185.4319,525.75957 186.27309,526.12654 L 179.50339,533.23717 C 178.62097,532.83122 177.73204,532.43864 176.86482,532.00024 C 174.68164,530.92377 172.50162,529.84096 170.32461,528.75198 C 167.72421,527.45959 165.12365,526.16756 162.52934,524.86295 C 159.92794,523.531 157.32817,522.19201 154.80549,520.71438 C 152.89409,519.5643 150.98888,518.39541 149.22274,517.02746 C 148.3102,516.26665 146.45662,514.70484 148.86188,516.82707 L 154.19222,508.37573 z "
         id="path4266"
         style="opacity:1;color:#000000;fill:#000000;fill-opacity:1;fill-rule:nonzero;stroke:none;stroke-width:1px;stroke-linecap:butt;stroke-linejoin:miter;marker:none;marker-start:none;marker-mid:none;marker-end:none;stroke-miterlimit:4;stroke-dasharray:none;stroke-dashoffset:0;stroke-opacity:1;visibility:visible;display:inline;overflow:visible" />
    </g>
    <g
       id="g13407"
       transform="matrix(1.477124,0,0,1.812734,-264.9754,-660.9187)">
      <path
         id="path13278"
         d="M 490,714.1875 C 443.77508,715.38257 393.3747,765.59498 433.5625,807.15625 C 508.9478,866.37206 602.24755,755.55458 511.96875,717.8125 C 505.04373,715.13198 497.56408,713.99194 490,714.1875 z M 487.625,726.9375 C 500.59456,726.83992 513.39487,730.952 522.9375,740.15625 C 551.95758,762.45027 526.64684,811.35661 493.09375,809.96875 C 469.97019,811.32233 435.15289,805.83602 432.34375,777.1875 C 430.79273,746.96219 459.60435,727.14833 487.625,726.9375 z "
         style="color:#000000;fill:#5c5c5c;fill-opacity:1;fill-rule:nonzero;stroke:none;stroke-width:1px;stroke-linecap:butt;stroke-linejoin:miter;marker:none;marker-start:none;marker-mid:none;marker-end:none;stroke-miterlimit:4;stroke-dasharray:none;stroke-dashoffset:0;stroke-opacity:1;visibility:visible;display:inline;overflow:visible" />
      <path
         id="path13302"
         d="M 493.08072,809.96503 C 526.63381,811.35289 551.96049,762.44833 522.94041,740.15431 C 492.781,711.06431 430.07945,732.96895 432.34837,777.18426 C 435.1575,805.83279 469.95716,811.31861 493.08072,809.96503 z "
         style="color:#000000;fill:#5c5c5c;fill-opacity:0.42236023;fill-rule:nonzero;stroke:none;stroke-width:1px;stroke-linecap:butt;stroke-linejoin:miter;marker:none;marker-start:none;marker-mid:none;marker-end:none;stroke-miterlimit:4;stroke-dasharray:none;stroke-dashoffset:0;stroke-opacity:1;visibility:visible;display:inline;overflow:visible" />
      <path
         d="M 438.94848,741.62414 C 435.4747,745.55276 447.16634,737.72145 440.56133,741.46587 C 433.53068,745.89894 428.41899,752.62085 425.16759,760.19665 C 420.74628,771.27285 422.37589,783.0991 427.90943,793.42429 C 435.61851,806.43777 449.21964,813.58196 463.43444,817.29342 C 480.00801,821.21168 497.17572,819.73675 513.01169,813.67095 C 519.53193,811.52226 532.96136,801.81783 539.94652,788.55702 C 545.60284,777.09163 545.57555,764.34795 540.97997,752.58135 C 536.09763,741.28472 527.28891,732.38044 517.39419,725.31968 C 507.73175,718.39418 496.19075,716.89641 484.62318,717.86691 C 473.91858,718.90247 463.68033,722.35766 454.25066,727.44603 C 464.13825,720.93752 445.20318,733.89571 442.24235,736.38776 C 439.49662,738.65285 437.15005,741.28504 435.19774,744.24697 L 425.45683,744.40307 C 427.34714,740.8213 429.72302,737.60091 432.80573,734.9286 C 440.17506,728.39338 448.39082,722.97792 457.29684,718.73294 C 467.30449,713.91045 478.0658,710.77402 489.19238,710.09502 C 501.72301,709.50273 514.03337,711.7794 524.27401,719.45363 C 534.68064,727.17507 543.90104,736.79094 549.13328,748.80209 C 554.21063,761.62098 554.53706,775.56121 548.83245,788.28705 C 540.97878,804.59248 526.55527,815.52823 509.66507,821.6603 C 492.96817,827.31696 475.08758,828.35289 457.94016,823.94985 C 442.69124,819.65179 428.29938,811.64268 420.03107,797.63613 C 413.90061,786.27121 411.81462,773.27711 416.05275,760.85866 C 419.14504,752.48264 424.19528,745.00808 431.20657,739.40876 C 435.01637,736.60191 439.49986,732.8164 444.27799,733.17412 L 438.94848,741.62414 z "
         id="path9656"
         style="color:#000000;fill:#000000;fill-opacity:1;fill-rule:nonzero;stroke:none;stroke-width:1px;stroke-linecap:butt;stroke-linejoin:miter;marker:none;marker-start:none;marker-mid:none;marker-end:none;stroke-miterlimit:4;stroke-dasharray:none;stroke-dashoffset:0;stroke-opacity:1;visibility:visible;display:inline;overflow:visible" />
      <path
         style="color:#000000;fill:#000000;fill-opacity:1;fill-rule:nonzero;stroke:none;stroke-width:1px;stroke-linecap:butt;stroke-linejoin:miter;marker:none;marker-start:none;marker-mid:none;marker-end:none;stroke-miterlimit:4;stroke-dasharray:none;stroke-dashoffset:0;stroke-opacity:1;visibility:visible;display:inline;overflow:visible"
         id="path9658"
         d="M 447.34071,747.63869 C 444.52237,750.68296 454.00803,744.61452 448.64925,747.51605 C 442.94515,750.95121 438.79793,756.15999 436.16001,762.03043 C 432.57291,770.61332 433.89505,779.77742 438.38452,787.77836 C 444.63905,797.86243 455.67391,803.39843 467.20665,806.27442 C 480.65311,809.31066 494.58161,808.16774 507.42964,803.46739 C 512.71964,801.80238 523.6152,794.28247 529.2824,784.00674 C 533.87148,775.12227 533.84934,765.24726 530.12086,756.12938 C 526.15972,747.37568 519.01303,740.4758 510.98525,735.00445 C 503.14593,729.63792 493.78249,728.47731 484.39749,729.22934 C 475.71264,730.03179 467.40615,732.7092 459.75567,736.65215 C 467.77767,731.60874 452.41528,741.64998 450.0131,743.58105 C 447.78543,745.33626 445.88161,747.37593 444.29767,749.67111 L 436.39468,749.79207 C 437.92832,747.01658 439.85592,744.52112 442.35698,742.45036 C 448.33586,737.38625 455.00147,733.18984 462.2271,729.90042 C 470.3465,726.1635 479.07736,723.7331 488.10457,723.20695 C 498.27092,722.74798 508.25855,724.51216 516.56699,730.45888 C 525.01009,736.44219 532.49078,743.89347 536.7358,753.20085 C 540.85515,763.13414 541.11999,773.93635 536.49173,783.79754 C 530.11989,796.43253 518.41782,804.90658 504.71447,809.65829 C 491.16795,814.04161 476.66107,814.84435 462.74904,811.43245 C 450.37729,808.10191 438.70089,801.89569 431.99265,791.04209 C 427.01889,782.23547 425.32648,772.16641 428.76496,762.54342 C 431.2738,756.05289 435.37116,750.26089 441.05955,745.92201 C 444.15052,743.747 447.78806,740.81362 451.66465,741.09082 L 447.34071,747.63869 z " />
      <path
         d="M 476.18203,763.90473 C 478.12015,764.80218 477.01098,766.6913 477.07162,766.94834 C 473.0026,770.17203 485.88712,763.4861 480.65158,765.04808 C 479.62794,766.42532 480.05833,767.70089 480.54646,769.23846 C 481.2937,771.09324 482.6154,771.81872 484.3485,772.50267 C 488.49761,772.25663 492.01746,769.16036 482.56841,774.20032 C 484.23973,773.67923 484.81213,772.63591 485.4958,771.20125 C 485.7824,769.55528 485.06663,768.59452 484.13012,767.40527 C 483.07031,766.70931 482.00293,766.89464 480.81813,766.99307 L 486.12433,758.71264 C 488.38469,759.15132 490.43655,759.85808 492.06109,761.59016 C 493.85773,763.8009 495.07395,766.19134 495.0986,769.11576 C 494.91252,771.91272 494.23982,774.40694 492.14053,776.41383 C 486.6551,779.4105 483.45147,782.18027 477.70678,779.72002 C 475.06199,778.20827 472.91246,776.30585 471.6858,773.43525 C 470.67581,770.77301 470.00761,768.08235 470.79987,765.25347 C 472.52767,760.90099 477.02734,758.30903 481.76275,758.23311 C 483.9627,758.51289 485.04225,759.04779 485.85302,761.39283 L 476.18203,763.90473 z "
         id="path9660"
         style="color:#000000;fill:#000000;fill-opacity:1;fill-rule:nonzero;stroke:none;stroke-width:1px;stroke-linecap:butt;stroke-linejoin:miter;marker:none;marker-start:none;marker-mid:none;marker-end:none;stroke-miterlimit:4;stroke-dasharray:none;stroke-dashoffset:0;stroke-opacity:1;visibility:visible;display:inline;overflow:visible" />
    </g>
    <g
       id="g13426"
       transform="matrix(1.477124,0,0,1.812734,-264.9754,-660.9187)">
      <path
         id="path13363"
         d="M 343.9286,717.40178 C 297.70368,718.59685 247.3033,768.80926 287.4911,810.37053 C 362.8764,869.58634 456.17615,758.76886 365.89735,721.02678 C 358.97233,718.34626 351.49268,717.20622 343.9286,717.40178 z M 341.5536,730.15178 C 354.52316,730.0542 367.32347,734.16628 376.8661,743.37053 C 405.88618,765.66455 380.57544,814.57089 347.02235,813.18303 C 323.89879,814.53661 289.08149,809.0503 286.27235,780.40178 C 284.72133,750.17647 313.53295,730.36261 341.5536,730.15178 z "
         style="color:#000000;fill:#5c5c5c;fill-opacity:1;fill-rule:nonzero;stroke:none;stroke-width:1px;stroke-linecap:butt;stroke-linejoin:miter;marker:none;marker-start:none;marker-mid:none;marker-end:none;stroke-miterlimit:4;stroke-dasharray:none;stroke-dashoffset:0;stroke-opacity:1;visibility:visible;display:inline;overflow:visible" />
      <path
         id="path13365"
         d="M 347.00932,813.17931 C 380.56241,814.56717 405.88909,765.66261 376.86901,743.36859 C 346.7096,714.27859 284.00805,736.18323 286.27697,780.39854 C 289.0861,809.04707 323.88576,814.53289 347.00932,813.17931 z "
         style="color:#000000;fill:#5c5c5c;fill-opacity:0.42236023;fill-rule:nonzero;stroke:none;stroke-width:1px;stroke-linecap:butt;stroke-linejoin:miter;marker:none;marker-start:none;marker-mid:none;marker-end:none;stroke-miterlimit:4;stroke-dasharray:none;stroke-dashoffset:0;stroke-opacity:1;visibility:visible;display:inline;overflow:visible" />
      <path
         style="color:#000000;fill:#000000;fill-opacity:1;fill-rule:nonzero;stroke:none;stroke-width:1px;stroke-linecap:butt;stroke-linejoin:miter;marker:none;marker-start:none;marker-mid:none;marker-end:none;stroke-miterlimit:4;stroke-dasharray:none;stroke-dashoffset:0;stroke-opacity:1;visibility:visible;display:inline;overflow:visible"
         id="path9632"
         d="M 293.94845,743.76704 C 290.47467,747.69566 302.16631,739.86435 295.5613,743.60877 C 288.53065,748.04184 283.41896,754.76375 280.16756,762.33955 C 275.74625,773.41575 277.37586,785.242 282.9094,795.56719 C 290.61848,808.58067 304.21961,815.72486 318.43441,819.43632 C 335.00798,823.35458 352.17569,821.87965 368.01166,815.81385 C 374.5319,813.66516 387.96133,803.96073 394.94649,790.69992 C 400.60281,779.23453 400.57552,766.49085 395.97994,754.72425 C 391.0976,743.42762 382.28888,734.52334 372.39416,727.46258 C 362.73172,720.53708 351.19072,719.03931 339.62315,720.00981 C 328.91855,721.04537 318.6803,724.50056 309.25063,729.58893 C 319.13822,723.08042 300.20315,736.03861 297.24232,738.53066 C 294.49659,740.79575 292.15002,743.42794 290.19771,746.38987 L 280.4568,746.54597 C 282.34711,742.9642 284.72299,739.74381 287.8057,737.0715 C 295.17503,730.53628 303.39079,725.12082 312.29681,720.87584 C 322.30446,716.05335 333.06577,712.91692 344.19235,712.23792 C 356.72298,711.64563 369.03334,713.9223 379.27398,721.59653 C 389.68061,729.31797 398.90101,738.93384 404.13325,750.94499 C 409.2106,763.76388 409.53703,777.70411 403.83242,790.42995 C 395.97875,806.73538 381.55524,817.67113 364.66504,823.8032 C 347.96814,829.45986 330.08755,830.49579 312.94013,826.09275 C 297.69121,821.79469 283.29935,813.78558 275.03104,799.77903 C 268.90058,788.41411 266.81459,775.42001 271.05272,763.00156 C 274.14501,754.62554 279.19525,747.15098 286.20654,741.55166 C 290.01634,738.74481 294.49983,734.9593 299.27796,735.31702 L 293.94845,743.76704 z " />
      <path
         d="M 302.34068,749.78159 C 299.52234,752.82586 309.008,746.75742 303.64922,749.65895 C 297.94512,753.09411 293.7979,758.30289 291.15998,764.17333 C 287.57288,772.75622 288.89502,781.92032 293.38449,789.92126 C 299.63902,800.00533 310.67388,805.54133 322.20662,808.41732 C 335.65308,811.45356 349.58158,810.31064 362.42961,805.61029 C 367.71961,803.94528 378.61517,796.42537 384.28237,786.14964 C 388.87145,777.26517 388.84931,767.39016 385.12083,758.27228 C 381.15969,749.51858 374.013,742.6187 365.98522,737.14735 C 358.1459,731.78082 348.78246,730.62021 339.39746,731.37224 C 330.71261,732.17469 322.40612,734.8521 314.75564,738.79505 C 322.77764,733.75164 307.41525,743.79288 305.01307,745.72395 C 302.7854,747.47916 300.88158,749.51883 299.29764,751.81401 L 291.39465,751.93497 C 292.92829,749.15948 294.85589,746.66402 297.35695,744.59326 C 303.33583,739.52915 310.00144,735.33274 317.22707,732.04332 C 325.34647,728.3064 334.07733,725.876 343.10454,725.34985 C 353.27089,724.89088 363.25852,726.65506 371.56696,732.60178 C 380.01006,738.58509 387.49075,746.03637 391.73577,755.34375 C 395.85512,765.27704 396.11996,776.07925 391.4917,785.94044 C 385.11986,798.57543 373.41779,807.04948 359.71444,811.80119 C 346.16792,816.18451 331.66104,816.98725 317.74901,813.57535 C 305.37726,810.24481 293.70086,804.03859 286.99262,793.18499 C 282.01886,784.37837 280.32645,774.30931 283.76493,764.68632 C 286.27377,758.19579 290.37113,752.40379 296.05952,748.06491 C 299.15049,745.8899 302.78803,742.95652 306.66462,743.23372 L 302.34068,749.78159 z "
         id="path9634"
         style="color:#000000;fill:#000000;fill-opacity:1;fill-rule:nonzero;stroke:none;stroke-width:1px;stroke-linecap:butt;stroke-linejoin:miter;marker:none;marker-start:none;marker-mid:none;marker-end:none;stroke-miterlimit:4;stroke-dasharray:none;stroke-dashoffset:0;stroke-opacity:1;visibility:visible;display:inline;overflow:visible" />
      <path
         style="color:#000000;fill:#000000;fill-opacity:1;fill-rule:nonzero;stroke:none;stroke-width:1px;stroke-linecap:butt;stroke-linejoin:miter;marker:none;marker-start:none;marker-mid:none;marker-end:none;stroke-miterlimit:4;stroke-dasharray:none;stroke-dashoffset:0;stroke-opacity:1;visibility:visible;display:inline;overflow:visible"
         id="path9636"
         d="M 331.182,766.04763 C 333.12012,766.94508 332.01095,768.8342 332.07159,769.09124 C 328.00257,772.31493 340.88709,765.629 335.65155,767.19098 C 334.62791,768.56822 335.0583,769.84379 335.54643,771.38136 C 336.29367,773.23614 337.61537,773.96162 339.34847,774.64557 C 343.49758,774.39953 347.01743,771.30326 337.56838,776.34322 C 339.2397,775.82213 339.8121,774.77881 340.49577,773.34415 C 340.78237,771.69818 340.0666,770.73742 339.13009,769.54817 C 338.07028,768.85221 337.0029,769.03754 335.8181,769.13597 L 341.1243,760.85554 C 343.38466,761.29422 345.43652,762.00098 347.06106,763.73306 C 348.8577,765.9438 350.07392,768.33424 350.09857,771.25866 C 349.91249,774.05562 349.23979,776.54984 347.1405,778.55673 C 341.65507,781.5534 338.45144,784.32317 332.70675,781.86292 C 330.06196,780.35117 327.91243,778.44875 326.68577,775.57815 C 325.67578,772.91591 325.00758,770.22525 325.79984,767.39637 C 327.52764,763.04389 332.02731,760.45193 336.76272,760.37601 C 338.96267,760.65579 340.04222,761.19069 340.85299,763.53573 L 331.182,766.04763 z " />
    </g>
    <path
       style="opacity:1;color:#000000;fill:#2b2b2b;fill-opacity:1;fill-rule:nonzero;stroke:none;stroke-width:1px;stroke-linecap:butt;stroke-linejoin:miter;marker:none;marker-start:none;marker-mid:none;marker-end:none;stroke-miterlimit:4;stroke-dasharray:none;stroke-dashoffset:0;stroke-opacity:1;visibility:visible;display:inline;overflow:visible"
       id="path15193"
       d="M 471.80369,304.65929 C 473.33176,302.08856 474.17605,297.0674 474.8178,293.6512 C 477.41375,278.7009 478.54941,263.54004 479.49414,248.40981 C 480.66267,228.9749 481.19124,209.50838 481.53679,190.04356 C 481.75898,176.82582 481.77078,163.60548 481.64923,150.3867 C 481.61424,146.03952 481.54816,141.69287 481.44623,137.34678 L 490.61417,134.89147 C 490.63735,139.28468 490.62231,143.67771 490.57019,148.07073 C 490.44228,161.37374 490.23826,174.67639 489.87714,187.97528 C 489.32619,207.49264 488.69549,227.00956 487.73517,246.51155 C 486.92582,261.71727 485.95989,276.93583 483.92459,292.0343 C 483.33818,296.15906 482.59532,300.26851 481.78866,304.34397 L 471.80369,304.65929 z " />
    <path
       style="opacity:1;color:#000000;fill:#2b2b2b;fill-opacity:1;fill-rule:nonzero;stroke:none;stroke-width:1px;stroke-linecap:butt;stroke-linejoin:miter;marker:none;marker-start:none;marker-mid:none;marker-end:none;stroke-miterlimit:4;stroke-dasharray:none;stroke-dashoffset:0;stroke-opacity:1;visibility:visible;display:inline;overflow:visible"
       id="path15195"
       d="M 627.01492,365.86582 C 627.05258,362.9015 626.55055,359.75544 626.26741,356.75656 C 624.60776,338.32365 623.54771,319.84305 622.39583,301.37326 C 620.69709,273.91507 618.74762,246.47259 617.24095,219.00275 C 616.03897,196.7874 615.00187,174.56259 614.3941,152.32251 C 614.14677,143.0756 613.9808,133.8267 613.88109,124.57706 L 622.78992,122.26762 C 622.67202,131.53926 622.63339,140.81197 622.71137,150.08416 C 622.91725,172.35055 623.68347,194.60759 624.75037,216.84856 C 626.13432,244.29385 628.06168,271.70864 630.04168,299.11635 C 631.41374,317.41034 632.67135,335.73406 635.07936,353.92743 C 635.53106,357.08369 636.04733,360.23181 636.68591,363.35393 L 627.01492,365.86582 z " />
    <path
       style="opacity:1;color:#000000;fill:#2b2b2b;fill-opacity:1;fill-rule:nonzero;stroke:none;stroke-width:1px;stroke-linecap:butt;stroke-linejoin:miter;marker:none;marker-start:none;marker-mid:none;marker-end:none;stroke-miterlimit:4;stroke-dasharray:none;stroke-dashoffset:0;stroke-opacity:1;visibility:visible;display:inline;overflow:visible"
       id="path15197"
       d="M 489.92087,136.91165 C 490.14308,137.21983 490.75506,138.27159 491.27138,139.14091 C 492.64103,141.50684 493.88635,143.94161 495.19911,146.3391 C 497.36355,150.24173 499.69262,154.04934 502.23902,157.71405 C 504.02282,160.42279 506.05199,162.6555 509.04822,163.81659 C 508.63215,165.78723 516.48644,160.74752 514.69705,161.67196 C 504.51179,166.93394 508.18765,165.20211 510.41785,163.95158 C 514.26908,161.27823 517.29986,157.62216 520.22824,154.00423 C 523.24693,150.25723 525.87536,146.22973 528.22225,142.03516 C 530.13729,138.61626 531.72335,135.03291 533.23365,131.42185 C 534.77151,126.20181 540.30304,119.26101 545.48605,124.3308 C 547.64366,127.93917 548.17338,132.26232 548.8761,136.35001 C 549.70516,142.02796 550.58557,147.69173 551.75095,153.31131 C 552.81959,158.46324 554.3927,163.50122 556.73977,168.21433 C 559.94805,172.96214 565.23397,167.34476 556.08456,172.08328 C 559.60774,169.97309 560.94478,165.99969 562.11226,162.25777 C 563.24377,158.1392 564.10478,153.95092 564.96,149.76774 C 565.53863,147.0554 565.85956,144.30232 566.16083,141.54886 C 566.72023,135.02995 573.70702,134.28465 578.35706,136.97401 C 580.70625,138.46414 583.00757,140.02717 585.3495,141.52883 C 587.43421,142.96775 589.66074,144.09458 592.03063,144.95497 C 595.94258,145.10095 598.13832,142.1332 589.15117,147.15544 C 590.97928,144.95303 591.17559,141.93919 591.47777,139.17763 C 591.81645,135.60301 591.84143,132.01004 591.92544,128.42334 C 591.90936,124.73001 592.89138,121.26752 594.50361,117.97782 C 597.46944,112.23966 602.35526,110.2114 608.01157,107.27515 C 613.03027,106.53048 617.97881,108.40324 622.53512,110.33079 C 627.01413,112.33136 631.13321,115.03807 634.50467,118.60662 C 636.98607,121.40089 637.61551,124.49524 636.60355,127.99403 C 634.17527,132.51397 628.89964,134.51905 624.151,135.92747 C 621.55328,136.70173 618.94279,136.71066 616.29385,136.31203 C 615.4096,136.11251 614.55325,135.80957 613.6917,135.53126 L 620.01464,128.01183 C 620.65803,128.12523 621.28654,128.35666 621.95474,128.29679 C 624.0312,128.15172 626.05635,127.78795 627.96629,126.90377 C 634.2695,123.67932 619.74893,131.14813 626.76815,127.83232 C 628.0045,126.44704 627.98032,125.80274 626.53775,124.15702 C 623.49903,121.19634 619.96298,118.88081 615.99462,117.32534 C 612.37883,115.97334 608.15705,114.28485 604.54823,116.38264 C 614.64709,110.98534 607.11997,114.23887 604.23848,118.00715 C 602.62436,120.50561 601.45032,123.13624 601.38627,126.16965 C 601.23715,129.82606 601.2231,133.48872 600.95446,137.14008 C 600.66678,140.67686 600.3305,144.26493 598.95958,147.57451 C 596.28083,152.57321 590.46096,154.63288 585.46751,152.23862 C 582.89843,151.05171 580.44666,149.65426 578.09964,148.06816 C 575.86483,146.62032 573.67976,145.07747 571.32876,143.82251 C 573.02986,142.82514 574.71671,141.64044 575.8904,140.05584 C 575.29922,142.74274 575.11463,145.51662 574.54937,148.22063 C 573.68044,152.52613 572.65378,156.79978 571.65245,161.07572 C 570.39401,165.7303 568.87034,170.41452 565.58643,174.07146 C 558.14618,178.18621 552.90691,181.10826 548.19842,172.66414 C 545.74011,167.56263 544.00664,162.15813 542.83931,156.61695 C 541.64334,150.94376 540.66547,145.23306 539.82245,139.49684 C 539.28234,136.40575 538.76193,132.89429 537.51327,130.17072 C 541.93708,134.30693 547.2443,122.99131 542.92897,130.81437 C 541.34232,134.55472 539.77603,138.3097 537.84686,141.89117 C 535.45444,146.31268 532.88244,150.63644 529.78855,154.61218 C 526.75458,158.56153 523.59691,162.4501 519.90861,165.81401 C 515.10761,169.89167 508.76284,173.42409 502.51516,171.05604 C 498.91352,169.10644 496.24375,166.11962 493.99288,162.72055 C 491.40758,158.90946 489.01791,154.97346 486.71683,150.9848 C 485.37791,148.66037 484.09892,146.29985 482.68642,144.01883 C 482.3108,143.45394 481.1503,141.71022 481.85422,142.8069 L 489.92087,136.91165" />
    <path
       style="opacity:1;color:#000000;fill:#fff900;fill-opacity:0.47204967;fill-rule:nonzero;stroke:none;stroke-width:1px;stroke-linecap:butt;stroke-linejoin:miter;marker:none;marker-start:none;marker-mid:none;marker-end:none;stroke-miterlimit:4;stroke-dasharray:none;stroke-dashoffset:0;stroke-opacity:1;visibility:visible;display:inline;overflow:visible"
       d="M 608.77189,93.149911 C 593.62539,94.52525 581.65407,107.82149 578.11564,121.93116 C 572.23026,120.84753 566.00331,122.09855 560.95939,125.18116 C 558.28813,115.11338 548.05151,105.99265 537.36564,109.24366 C 525.47886,111.87415 520.2379,124.04721 516.28795,134.26033 C 514.50166,137.51636 512.683,141.86375 510.11564,144.02491 C 501.98897,129.83625 494.50991,114.77475 481.33439,104.46241 C 482.29182,111.26078 487.19075,121.2049 480.70939,126.64991 C 470.72403,129.74852 464.06256,143.11798 471.34192,151.87295 C 478.33956,165.33069 486.54994,182.21556 503.05314,185.39991 C 514.39575,187.28612 525.20371,180.79259 532.74064,172.96241 C 536.74112,184.67656 548.95523,195.12099 561.95939,191.21241 C 573.53253,188.3868 581.90581,177.90336 585.05314,166.83741 C 596.81766,169.00824 609.73905,161.61776 613.24064,150.08741 C 629.38178,153.33798 649.56171,143.37471 650.95939,125.68116 C 650.89099,109.36393 635.21673,98.676843 620.89689,94.899911 C 617.03209,93.644692 612.88164,92.943574 608.77189,93.149911 z "
       id="path15199" />
    <path
       style="opacity:1;color:#000000;fill:#00f0ff;fill-opacity:0.47204967;fill-rule:nonzero;stroke:none;stroke-width:1px;stroke-linecap:butt;stroke-linejoin:miter;marker:none;marker-start:none;marker-mid:none;marker-end:none;stroke-miterlimit:4;stroke-dasharray:none;stroke-dashoffset:0;stroke-opacity:1;visibility:visible;display:inline;overflow:visible"
       d="M 495.06654,135.67223 C 483.47009,127.41305 468.17125,138.52572 465.77669,150.87703 C 462.05039,163.13809 468.97835,179.57289 482.93768,180.7352 C 496.80977,182.56553 507.00425,168.8082 505.4698,155.84214 C 505.41382,148.03132 502.1672,139.64789 495.06654,135.67223 z "
       id="path17857" />
    <path
       style="opacity:1;color:#000000;fill:#00f0ff;fill-opacity:0.47204967;fill-rule:nonzero;stroke:none;stroke-width:1px;stroke-linecap:butt;stroke-linejoin:miter;marker:none;marker-start:none;marker-mid:none;marker-end:none;stroke-miterlimit:4;stroke-dasharray:none;stroke-dashoffset:0;stroke-opacity:1;visibility:visible;display:inline;overflow:visible"
       d="M 538.9951,116.20795 C 531.98615,113.88862 528.68455,126.12388 535.14623,128.60697 C 542.24502,131.97763 548.32665,120.06375 540.86991,116.9086 C 540.2308,116.71055 539.6385,116.39361 538.9951,116.20795 z "
       id="path17905" />
    <path
       style="opacity:1;color:#000000;fill:#00f0ff;fill-opacity:0.47204967;fill-rule:nonzero;stroke:none;stroke-width:1px;stroke-linecap:butt;stroke-linejoin:miter;marker:none;marker-start:none;marker-mid:none;marker-end:none;stroke-miterlimit:4;stroke-dasharray:none;stroke-dashoffset:0;stroke-opacity:1;visibility:visible;display:inline;overflow:visible"
       d="M 557.38798,121.56509 C 606.88629,79.315734 630.65618,84.024142 645.18013,93.0427 C 658.31627,101.19951 662.75997,122.01339 652.73882,135.55149 C 643.52887,147.99369 624.62059,156.64883 613.11783,142.6876 C 600.11772,126.90899 621.21523,103.43655 640.2188,116.81689 C 649.7343,123.51671 645.54598,139.9971 640.66084,127.95503 C 633.37311,109.99049 616.23207,143.17929 635.23819,141.43793 C 654.36228,139.68576 655.58499,109.55704 639.55728,101.42062 C 621.64123,92.32558 609.71371,85.0854 557.38798,121.56509 z "
       id="path17925"
       sodipodi:nodetypes="csssssssc" />
  </g>
  <g
     inkscape:groupmode="layer"
     id="layer2"
     inkscape:label="1"
     style="display:inline" />
</svg>
