<?xml version="1.0" ?>
<!-- Created with Inkscape (http://www.inkscape.org/) --><svg height="1052.3622047" id="svg2" inkscape:export-filename="C:\Documents and Settings\Cowbert\Desktop\euphorion-sword-standing.png" inkscape:export-xdpi="90" inkscape:export-ydpi="90" inkscape:version="0.43" sodipodi:docbase="C:\Documents and Settings\Cowbert\Desktop" sodipodi:docname="euphorion.svg" sodipodi:version="0.32" width="744.09448819" xmlns="http://www.w3.org/2000/svg" xmlns:cc="http://web.resource.org/cc/" xmlns:dc="http://purl.org/dc/elements/1.1/" xmlns:inkscape="http://www.inkscape.org/namespaces/inkscape" xmlns:rdf="http://www.w3.org/1999/02/22-rdf-syntax-ns#" xmlns:sodipodi="http://inkscape.sourceforge.net/DTD/sodipodi-0.dtd" xmlns:svg="http://www.w3.org/2000/svg">
  <defs id="defs4"/>
  <sodipodi:namedview bordercolor="#666666" borderopacity="1.0" id="base" inkscape:current-layer="layer11" inkscape:cx="245.01094" inkscape:cy="850.88094" inkscape:document-units="px" inkscape:guide-bbox="true" inkscape:pageopacity="0.0" inkscape:pageshadow="2" inkscape:window-height="977" inkscape:window-width="1045" inkscape:window-x="-4" inkscape:window-y="-4" inkscape:zoom="0.98994949" pagecolor="#ffffff" showguides="true"/>
  <metadata id="metadata7">
    <rdf:RDF>
      <cc:Work rdf:about="">
        <dc:format>image/svg+xml</dc:format>
        <dc:type rdf:resource="http://purl.org/dc/dcmitype/StillImage"/>
      </cc:Work>
    </rdf:RDF>
  </metadata>
  
  
  
  
  
  
  
  
  
  
  
  <g id="layer2" inkscape:groupmode="layer" inkscape:label="lunge-hair" style="display:inline">
    <path d="M 257.28744,212.09666 C 219.03006,218.25327 175.13432,291.80064 142.48307,252.96502 C 131.04148,203.73283 82.022473,243.25908 51.206593,234.02629 C 19.736555,203.2494 92.696022,178.02971 106.2868,151.25038 C 144.9079,113.7704 58.909999,101.62845 143.27609,70.484287 C 171.07579,62.445216 205.68798,52.127181 233.19998,62.797573 C 264.14242,79.136075 278.16007,77.434581 304.53458,65.001504 C 329.39343,54.048079 372.71788,37.439556 379.94542,73.026269 C 355.32797,135.43396 436.32853,111.51026 375.02134,155.17614 C 333.31074,165.94231 290.821,178.33436 259.09858,209.59423" id="path6007" sodipodi:nodetypes="cccccccccc" style="fill:#68d9b8;fill-opacity:1;fill-rule:evenodd;stroke:none;stroke-width:1px;stroke-linecap:butt;stroke-linejoin:miter;stroke-opacity:1;display:inline"/>
    <path d="M 369.93012,172.38082 C 376.70717,164.02511 382.55617,154.83423 386.78254,144.82195 C 390.2935,136.28561 392.72488,126.71116 384.86243,120.38727 C 379.09692,117.18118 372.92594,115.67692 369.24228,109.84691 C 368.00535,102.53171 371.74593,95.367376 373.33729,88.267942 C 375.50158,77.567207 374.02989,68.341177 365.06674,62.00931 C 349.44416,54.796788 332.32226,59.943455 316.98506,65.562815 C 300.57595,71.67645 284.9552,80.70756 267.53435,83.432444 C 256.63288,85.273009 248.23959,79.911067 240.04976,73.315256 C 228.90975,63.965824 214.38579,64.335703 200.75637,65.032528 C 178.33092,66.344333 156.44616,71.870212 135.19689,79.167631 C 135.76181,78.369122 101.42157,95.811988 102.23422,95.249533 C 115.76791,85.882893 108.15966,90.126996 105.72561,96.059609 C 106.43293,105.33863 116.39658,110.66866 122.15299,116.97987 C 130.33339,128.40938 120.89097,139.89142 113.34139,148.62504 C 100.74204,162.44483 86.545937,174.56557 72.589865,186.8643 C 62.948328,196.42285 50.15391,204.21135 44.030067,216.90706 C 43.274294,228.51119 62.459987,228.47554 70.121618,228.80186 C 88.329102,229.13887 106.2603,225.28199 124.36486,223.97141 C 134.34356,222.92862 142.9069,224.77076 146.31227,235.23875 C 147.88905,242.86661 146.40684,250.68912 148.11483,258.28681 C 152.51048,266.4964 163.56046,262.51839 170.54084,260.10995 C 184.18733,254.78485 196.68615,246.79229 208.88489,238.61444 C 219.15967,231.68521 229.20576,224.40241 239.26536,217.14487 C 259.11571,202.17792 228.52245,226.01764 246.26617,211.75615 L 259.2317,208.60504 C 250.57309,215.7327 241.57188,222.39806 232.47144,228.9046 C 222.41687,236.12431 212.35848,243.34471 202.05412,250.1792 C 189.65433,258.33771 176.90831,266.33487 162.9159,271.19641 C 153.76323,273.93567 141.55418,276.15388 136.67147,265.41223 C 134.63367,257.78552 135.652,250.03324 134.79775,242.24588 C 131.98011,233.37057 124.30907,233.82821 116.14523,234.53408 C 97.981409,235.94899 79.938809,239.59404 61.662664,238.99485 C 50.501209,238.3322 32.415641,236.93077 31.708728,222.08384 C 36.165946,208.03213 50.130792,199.82084 60.009111,190.04957 C 73.911413,177.82607 88.044556,165.79726 100.79002,152.25802 C 106.90164,145.47476 117.84905,135.06201 111.61143,125.33794 C 104.90607,118.01426 94.954502,112.48192 93.587041,101.67308 C 97.370155,81.575202 126.80595,74.860662 142.58151,68.344883 C 164.10471,61.183987 186.26269,55.842088 208.91456,54.705596 C 223.43779,54.121532 238.4631,54.375557 250.18175,64.426868 C 257.83658,70.513403 265.46668,74.890255 275.51838,72.636102 C 292.62162,69.296728 308.02421,60.411393 324.37911,54.628696 C 340.4662,49.0419 358.99908,44.189399 374.90008,52.927883 C 385.0189,59.763182 387.36905,70.881524 385.47486,82.726803 C 384.22924,89.408671 381.8291,95.776576 380.61588,102.39907 C 384.39388,106.702 390.15756,108.14804 394.98805,111.41313 C 403.7016,119.09215 403.2576,129.5165 399.08246,140.00203 C 395.06592,150.31298 389.36938,159.74781 382.78782,168.50892 C 379.06788,173.28747 373.64381,180.86441 367.80611,180.15419 C 367.80611,180.15419 361.84061,181.12536 369.93012,172.38082 z " id="path1975" sodipodi:nodetypes="cccccccccccsccccccccccccccccccccccccccccccccccccccc" style="fill:#000000;fill-opacity:1;fill-rule:nonzero;stroke:none;stroke-width:1px;stroke-linecap:butt;stroke-linejoin:miter;stroke-opacity:1"/>
  </g>
  
  
  
  
  
  
  
  
  
  
  
  
  
  
</svg>
