<?xml version="1.0" ?>
<!-- Created with Inkscape (http://www.inkscape.org/) --><svg height="1052.3622047" id="svg2" inkscape:export-filename="C:\Documents and Settings\Cowbert\Desktop\euphorion-sword-standing.png" inkscape:export-xdpi="90" inkscape:export-ydpi="90" inkscape:version="0.43" sodipodi:docbase="C:\Documents and Settings\Cowbert\Desktop" sodipodi:docname="euphorion.svg" sodipodi:version="0.32" width="744.09448819" xmlns="http://www.w3.org/2000/svg" xmlns:cc="http://web.resource.org/cc/" xmlns:dc="http://purl.org/dc/elements/1.1/" xmlns:inkscape="http://www.inkscape.org/namespaces/inkscape" xmlns:rdf="http://www.w3.org/1999/02/22-rdf-syntax-ns#" xmlns:sodipodi="http://inkscape.sourceforge.net/DTD/sodipodi-0.dtd" xmlns:svg="http://www.w3.org/2000/svg">
  <defs id="defs4"/>
  <sodipodi:namedview bordercolor="#666666" borderopacity="1.0" id="base" inkscape:current-layer="layer11" inkscape:cx="245.01094" inkscape:cy="850.88094" inkscape:document-units="px" inkscape:guide-bbox="true" inkscape:pageopacity="0.0" inkscape:pageshadow="2" inkscape:window-height="977" inkscape:window-width="1045" inkscape:window-x="-4" inkscape:window-y="-4" inkscape:zoom="0.98994949" pagecolor="#ffffff" showguides="true"/>
  <metadata id="metadata7">
    <rdf:RDF>
      <cc:Work rdf:about="">
        <dc:format>image/svg+xml</dc:format>
        <dc:type rdf:resource="http://purl.org/dc/dcmitype/StillImage"/>
      </cc:Work>
    </rdf:RDF>
  </metadata>
  
  
  
  
  
  
  <g id="layer5" inkscape:groupmode="layer" inkscape:label="lunge-arm-left" style="display:inline">
    <path d="M 294.01033,254.08825 C 308.07503,262.07153 325.84846,259.44581 338.98939,269.61988 C 367.38653,281.21092 396.72188,293.33472 427.74616,293.03746 C 445.81463,285.72162 450.43191,271.05944 443.1968,261.32051 C 437.75317,249.90714 423.10516,243.49085 425.65656,229.72337 C 420.82461,216.97634 439.79141,209.93868 431.07792,200.55094 C 421.78129,192.21999 413.13416,193.04023 402.22442,191.72309 C 378.05445,190.31114 268.86709,164.14465 251.85266,177.06926 C 240.73943,185.95078 247.07409,224.82785 251.79124,239.53738 C 257.74199,251.22535 271.83859,254.02764 283.50464,253.24828 C 287.01288,253.42251 290.52686,253.60052 294.01033,254.08825 z " id="path9857" sodipodi:nodetypes="ccccccccccc" style="fill:#8e4e1e;fill-opacity:1;fill-rule:evenodd;stroke:none;stroke-width:1px;stroke-linecap:butt;stroke-linejoin:miter;stroke-opacity:1;display:inline"/>
    <path d="M 461.14113,196.20819 C 458.41012,196.20819 451.82902,196.20819 447.25554,196.20819 C 441.44916,196.20819 439.42605,197.43983 436.99228,199.96181 C 434.49127,202.55349 433.22213,201.82581 432.16251,206.21786 C 431.49191,208.99752 431.55879,213.16958 431.55879,216.85316 C 431.55879,221.02385 431.55879,225.19457 431.55879,229.36526 C 431.55879,233.53595 431.55879,237.70666 431.55879,241.87735 C 431.55879,247.00607 432.6707,248.08392 436.38856,250.01023 C 439.4116,251.57653 443.20278,252.40115 446.0481,253.13826 C 448.98189,253.89828 451.29147,254.38946 454.50019,254.38946 C 458.2279,254.38946 461.49062,255.01506 465.36719,255.01506 C 469.0426,255.01506 472.7633,255.28865 476.23418,254.38946 C 478.80575,253.72327 481.8436,249.82792 483.47883,248.13341 C 486.44299,245.06179 490.04415,242.19076 491.32721,236.87252 C 491.52844,236.03838 491.72968,235.20424 491.93093,234.3701 C 492.68656,231.23797 491.32721,225.37389 491.32721,221.85799 C 491.32721,216.53711 488.86749,213.45465 485.89371,209.3459 C 483.22591,205.65988 479.05583,202.25681 475.02672,201.21303 C 472.44916,200.54528 469.8341,198.92941 466.57463,198.085 C 465.79371,197.88269 464.9647,198.085 464.15975,198.085" id="path3341" style="fill:#e7d192;fill-opacity:1;fill-rule:evenodd;stroke:none;stroke-width:1px;stroke-linecap:butt;stroke-linejoin:miter;stroke-opacity:1;display:inline"/>
    <path d="M 437.79809,195.69604 C 436.07097,194.96436 439.27085,194.36481 439.96782,193.73481 C 443.9673,191.6139 448.25035,190.38905 452.58351,189.2941 C 458.87885,187.97599 465.12179,188.56062 471.31847,189.99553 C 478.12483,191.89356 483.53954,196.03861 488.40926,201.13395 C 493.75365,207.47138 495.74833,215.26891 496.84345,223.3938 C 497.5702,231.5395 495.31241,238.91394 491.80583,246.05636 C 486.21041,255.07637 477.41613,262.6676 467.03107,264.29056 C 461.24653,264.60595 456.97911,261.95936 452.64273,258.39501 C 449.86908,255.7969 448.31765,252.41922 446.72109,249.01482 L 459.22992,241.0873 C 460.50702,243.8333 461.55809,246.63229 463.90439,248.65883 C 467.50628,251.11891 470.61738,252.84923 475.11275,251.62336 C 489.04296,245.31591 463.01277,262.36619 477.639,249.74508 C 481.40852,243.69709 483.97791,237.34235 483.71489,229.97449 C 483.06799,222.86238 481.59847,216.00187 476.91068,210.47415 C 472.59304,206.11286 467.78005,202.71635 461.74887,201.45016 C 456.04209,200.56375 450.35299,200.43206 444.73866,202.10471 C 440.68637,203.51374 436.69726,205.06331 432.89096,207.10822 C 431.60457,207.39354 429.95203,209.18435 428.95487,207.98123 L 437.79809,195.69604 z " id="path2436" style="fill:#000000;fill-opacity:1;fill-rule:nonzero;stroke:none;stroke-width:1px;stroke-linecap:butt;stroke-linejoin:miter;stroke-opacity:1;display:inline"/>
    <path d="M 433.97368,221.85803 C 442.35745,225.6166 451.96578,229.15674 461.03646,225.80389 C 469.14898,218.70535 457.81445,208.90558 452.86684,203.55234 C 443.46368,197.69388 424.78697,206.40533 425.70485,217.40986 C 426.00109,219.05325 425.89117,228.00164 433.97368,221.85803 z " id="path4216" sodipodi:nodetypes="ccccc" style="fill:#e7d192;fill-opacity:1;fill-rule:evenodd;stroke:none;stroke-width:1px;stroke-linecap:butt;stroke-linejoin:miter;stroke-opacity:1;display:inline"/>
    <path d="M 440.34065,217.05473 C 440.90805,217.45134 442.97117,218.50647 444.03044,219.08935 C 448.53771,221.45907 453.34176,222.15445 458.29875,222.47496 C 468.19485,221.60579 472.88174,215.33239 459.02388,226.21936 C 460.6904,223.82317 459.28312,223.11452 457.60568,220.84031 L 468.99139,211.23674 C 471.82052,214.70097 474.11057,217.87302 473.32796,222.67016 C 464.67689,230.1427 460.45159,235.48857 449.37546,234.49289 C 443.89759,233.785 438.56133,232.50583 433.62321,229.83521 C 431.97772,228.87183 428.96458,228.71582 427.61974,227.30039 L 440.34065,217.05473 z " id="path2438" sodipodi:nodetypes="ccccccccccc" style="fill:#000000;fill-opacity:1;fill-rule:nonzero;stroke:none;stroke-width:1px;stroke-linecap:butt;stroke-linejoin:miter;stroke-opacity:1;display:inline"/>
    <path d="M 250.27156,167.04608 C 251.76115,167.23991 253.26708,167.39867 254.7666,167.55286 C 262.67093,168.24658 270.52705,169.38983 278.37158,170.59108 C 290.53781,172.53334 302.71112,174.42785 314.89378,176.25621 C 326.27374,177.99915 337.67523,179.57958 349.08432,181.10164 C 358.16856,182.31147 367.27078,183.368 376.37381,184.41264 C 383.67578,185.26017 390.99058,185.97932 398.31463,186.58638 C 404.16728,187.07514 410.03412,187.3292 415.88747,187.80067 C 420.82112,188.18964 425.70049,188.94795 430.48656,190.23285 C 434.27455,191.28812 437.37266,193.36358 440.13846,196.14208 C 442.23211,198.78436 442.20896,201.1987 441.65094,204.32446 C 438.23058,208.05882 414.41179,225.40382 435.5999,209.4496 C 433.31081,210.68442 432.07408,212.68843 430.7723,214.85496 C 429.75436,217.30188 430.08372,219.73861 430.39428,222.28426 C 430.9457,225.43369 432.2058,228.32393 433.54399,231.17825 C 435.18246,234.42455 437.19046,237.44334 439.16795,240.47258 C 441.35228,243.76268 443.63616,246.97731 445.76083,250.30934 C 448.03184,253.82791 449.56547,257.7087 450.74281,261.73626 C 451.77379,265.57191 451.77847,269.50238 451.61442,273.43794 C 451.40416,277.30345 449.8759,280.53307 447.89723,283.70525 C 442.2639,291.41156 434.92275,294.70397 426.36555,295.95893 C 418.76134,296.82 411.10696,296.73301 403.49003,296.1551 C 394.23955,295.31583 385.20136,293.02337 376.25524,290.54121 C 365.74263,287.53067 355.3631,284.05185 344.98583,280.58091 C 335.48813,277.35221 325.95795,274.22844 316.43332,271.08671 C 308.71424,268.52751 300.99228,265.97836 293.24457,263.51365 C 287.03615,261.56557 280.8296,259.611 274.61802,257.67352 C 269.42433,256.03014 264.18874,254.55063 258.90942,253.23586 C 256.20864,252.54936 253.47916,252.00102 250.75002,251.45365 L 259.42165,240.83321 C 262.19782,241.43185 264.97351,242.03408 267.72327,242.75518 C 273.05164,244.15105 278.33607,245.71003 283.59009,247.38253 C 289.79762,249.33834 296.00477,251.29546 302.20531,253.27483 C 309.94713,255.77007 317.65904,258.36292 325.37888,260.92998 C 334.89702,264.07964 344.40595,267.25858 353.90126,270.4815 C 364.21974,273.93668 374.54945,277.37517 385.03031,280.27057 C 393.78344,282.59975 402.63334,284.72544 411.68318,285.2913 C 419.06381,285.66975 426.50743,285.68225 433.81987,284.43686 C 449.24122,280.51058 429.32981,284.94061 434.66121,286.35985 C 436.76513,284.10385 438.62521,281.95498 439.13559,278.7092 C 439.53645,275.29355 439.71933,271.88009 438.95881,268.48537 C 437.99828,264.88623 436.7762,261.41213 434.72549,258.29295 C 432.60855,255.00285 430.37087,251.80231 428.19372,248.5543 C 426.12431,245.39205 424.02946,242.23765 422.29344,238.86036 C 420.74898,235.67099 419.27203,232.44343 418.52683,228.93276 C 417.90516,225.77986 417.36146,222.62115 418.00418,219.40996 C 418.82899,216.34459 419.89697,213.51801 422.22303,211.29617 C 437.45449,199.77734 437.3231,200.31292 428.45547,207.40995 C 429.00835,206.27723 430.92049,206.53317 429.44563,204.70042 C 427.07669,202.80584 424.63635,201.25114 421.59144,200.67696 C 416.97813,199.68263 412.30615,199.05377 407.60243,198.7217 C 401.74966,198.31713 395.89025,198.00491 390.04659,197.46544 C 382.70336,196.80454 375.36988,196.035 368.04772,195.15713 C 358.93847,194.08021 349.82842,193.00575 340.74084,191.74397 C 329.33398,190.17854 317.93727,188.53791 306.55567,186.78518 C 294.36563,184.93289 282.18094,183.04322 269.99283,181.17775 C 262.16516,180.04816 254.32069,179.02844 246.43072,178.49549 C 245.00731,178.38805 243.55831,178.18126 242.14299,178.33844 L 250.27156,167.04608 z " id="path7977" style="fill:#000000;fill-opacity:1;fill-rule:nonzero;stroke:none;stroke-width:1px;stroke-linecap:butt;stroke-linejoin:miter;stroke-opacity:1;display:inline"/>
  </g>
  
  
  
  
  
  
  
  
  
  
  
  
  
  
  
  
  
  
  
</svg>
