<?xml version="1.0" ?>
<!-- Created with Inkscape (http://www.inkscape.org/) --><svg height="1052.3622047" id="svg2" inkscape:export-filename="C:\Documents and Settings\Cowbert\Desktop\euphorion-sword-standing.png" inkscape:export-xdpi="90" inkscape:export-ydpi="90" inkscape:version="0.43" sodipodi:docbase="C:\Documents and Settings\Cowbert\Desktop" sodipodi:docname="euphorion.svg" sodipodi:version="0.32" width="744.09448819" xmlns="http://www.w3.org/2000/svg" xmlns:cc="http://web.resource.org/cc/" xmlns:dc="http://purl.org/dc/elements/1.1/" xmlns:inkscape="http://www.inkscape.org/namespaces/inkscape" xmlns:rdf="http://www.w3.org/1999/02/22-rdf-syntax-ns#" xmlns:sodipodi="http://inkscape.sourceforge.net/DTD/sodipodi-0.dtd" xmlns:svg="http://www.w3.org/2000/svg">
  <defs id="defs4"/>
  <sodipodi:namedview bordercolor="#666666" borderopacity="1.0" id="base" inkscape:current-layer="layer11" inkscape:cx="245.01094" inkscape:cy="850.88094" inkscape:document-units="px" inkscape:guide-bbox="true" inkscape:pageopacity="0.0" inkscape:pageshadow="2" inkscape:window-height="977" inkscape:window-width="1045" inkscape:window-x="-4" inkscape:window-y="-4" inkscape:zoom="0.98994949" pagecolor="#ffffff" showguides="true"/>
  <metadata id="metadata7">
    <rdf:RDF>
      <cc:Work rdf:about="">
        <dc:format>image/svg+xml</dc:format>
        <dc:type rdf:resource="http://purl.org/dc/dcmitype/StillImage"/>
      </cc:Work>
    </rdf:RDF>
  </metadata>
  
  
  
  
  
  
  
  
  
  
  
  
  
  
  
  
  
  
  <g id="layer13" inkscape:groupmode="layer" inkscape:label="stand-torso" style="display:inline">
    <path d="M 216.48836,221.62075 C 194.17251,252.39586 172.38829,278.53628 163.56487,316.1071 C 154.00805,346.15889 180.88303,368.04717 207.44949,369.42101 C 238.16166,370.05631 270.16502,378.17391 300.19742,368.69858 C 322.44563,355.54742 305.42621,325.51174 302.73697,305.64542 C 297.11744,277.64984 281.38657,253.67156 274.95428,225.97045 C 269.85433,201.96871 243.18356,192.64816 223.05526,202.1613 C 218.66383,204.43892 218.03462,216.80156 216.48836,221.62075 z " id="path16611" sodipodi:nodetypes="cccccccc" style="fill:#8e4e1e;fill-opacity:1;fill-rule:evenodd;stroke:none;stroke-width:1px;stroke-linecap:butt;stroke-linejoin:miter;stroke-opacity:1"/>
    <path d="M 203.04196,245.20972 C 200.02097,254.81966 192.91908,262.30553 189.61431,271.80321 C 179.32956,293.64085 169.386,317.82672 173.51056,342.65304 C 176.24438,354.87444 188.9291,359.84752 199.50245,362.27097 C 230.59099,369.12255 263.01641,368.59401 294.20148,362.83229 C 302.0743,359.81525 302.33743,349.72336 302.57846,342.39394 C 303.48544,317.86428 290.9164,296.04233 282.96313,273.74167 C 281.84508,266.69848 272.65462,257.31116 280.38863,251.6305 C 285.70818,247.17404 291.79079,249.6513 292.43023,256.89387 C 294.13429,264.91332 298.07443,271.98354 300.69,279.67878 C 308.93421,300.52325 319.14791,322.62927 315.0209,345.76967 C 312.83449,362.40024 305.77941,372.77227 282.53883,376.30168 C 264.27414,378.89565 245.71337,379.52526 227.28519,378.95126 C 209.34482,377.96702 190.99927,375.42714 174.53251,367.63452 C 163.94922,361.68024 158.3532,348.91901 159.25473,336.70923 C 159.23115,308.69146 171.91999,283.06482 184.20239,258.87181 C 185.75014,250.18089 195.09306,249.2768 201.44526,246.12747 L 202.23961,245.6889 L 203.04196,245.20972 L 203.04196,245.20972 z " id="path16372" sodipodi:nodetypes="cccccccccccccccccccc" style="fill:#000000;fill-opacity:1;fill-rule:nonzero;stroke:none;stroke-width:1px;stroke-linecap:butt;stroke-linejoin:miter;stroke-opacity:1;display:inline"/>
  </g>
  
  
  
  
  
  
  
</svg>
