<?xml version="1.0" ?>
<!-- Created with Inkscape (http://www.inkscape.org/) --><svg height="1052.3622047" id="svg2" inkscape:export-filename="C:\Documents and Settings\Cowbert\Desktop\euphorion-sword-standing.png" inkscape:export-xdpi="90" inkscape:export-ydpi="90" inkscape:version="0.43" sodipodi:docbase="C:\Documents and Settings\Cowbert\Desktop" sodipodi:docname="euphorion.svg" sodipodi:version="0.32" width="744.09448819" xmlns="http://www.w3.org/2000/svg" xmlns:cc="http://web.resource.org/cc/" xmlns:dc="http://purl.org/dc/elements/1.1/" xmlns:inkscape="http://www.inkscape.org/namespaces/inkscape" xmlns:rdf="http://www.w3.org/1999/02/22-rdf-syntax-ns#" xmlns:sodipodi="http://inkscape.sourceforge.net/DTD/sodipodi-0.dtd" xmlns:svg="http://www.w3.org/2000/svg">
  <defs id="defs4"/>
  <sodipodi:namedview bordercolor="#666666" borderopacity="1.0" id="base" inkscape:current-layer="layer11" inkscape:cx="245.01094" inkscape:cy="850.88094" inkscape:document-units="px" inkscape:guide-bbox="true" inkscape:pageopacity="0.0" inkscape:pageshadow="2" inkscape:window-height="977" inkscape:window-width="1045" inkscape:window-x="-4" inkscape:window-y="-4" inkscape:zoom="0.98994949" pagecolor="#ffffff" showguides="true"/>
  <metadata id="metadata7">
    <rdf:RDF>
      <cc:Work rdf:about="">
        <dc:format>image/svg+xml</dc:format>
        <dc:type rdf:resource="http://purl.org/dc/dcmitype/StillImage"/>
      </cc:Work>
    </rdf:RDF>
  </metadata>
  
  
  
  
  
  
  
  
  <g id="layer23" inkscape:groupmode="layer" inkscape:label="stand-sword" style="display:inline">
    <path d="M 334.26189,320.63917 C 332.93284,305.98268 364.2147,293.33922 353.21869,314.98671 C 344.96083,336.71592 375.50211,325.93205 387.41052,330.4602 C 400.93521,334.14361 421.50377,322.68471 430.38321,336.01264 C 424.34277,356.42437 419.42112,388.43224 419.37087,409.69737 C 419.59722,429.05899 404.0795,419.77836 394.93139,406.14931 C 378.94243,396.83828 365.91268,382.77094 349.75322,374.05255 C 334.2152,366.19002 328.71414,399.28792 313.44644,384.94825 C 313.17347,365.57978 313.94762,342.66142 323.93909,325.15431 C 326.08334,321.16879 330.54383,319.64449 334.56377,318.76233" id="path19305" sodipodi:nodetypes="cccccccccc" style="fill:#c5c5c5;fill-opacity:1;fill-rule:evenodd;stroke:none;stroke-width:1.72078443px;stroke-linecap:butt;stroke-linejoin:miter;stroke-opacity:1;display:inline"/>
    <path d="M 325.01242,328.44183 C 324.51188,326.63876 325.81121,325.38849 326.75086,323.79217 C 329.0216,320.10575 331.41278,316.50116 333.81594,312.90667 C 336.38751,308.95949 339.33373,305.33346 342.51691,301.91357 C 349.40145,295.84904 354.5654,290.60757 359.44434,299.06624 C 360.69754,304.02506 359.37835,309.05249 358.34448,313.93943 C 357.29125,318.54362 356.25762,323.15191 355.27611,327.77305 L 343.712,332.30486 C 344.66318,327.65257 345.6666,323.01254 346.75095,318.39115 C 347.68088,314.20314 348.827,309.96977 348.7139,305.64096 C 350.7644,303.81899 322.64775,315.51564 354.84549,300.1927 C 351.30804,302.90129 348.38533,306.21904 345.88615,310.00559 C 343.45709,313.50191 341.10284,317.05291 338.83302,320.66278 C 338.35843,321.44311 336.83291,325.212 336.43427,323.0529 L 325.01242,328.44183 z " id="path16561" style="fill:#000000;fill-opacity:1;fill-rule:nonzero;stroke:none;stroke-width:1px;stroke-linecap:butt;stroke-linejoin:miter;stroke-opacity:1;display:inline"/>
    <path d="M 351.55564,324.07895 C 353.52819,324.12319 355.50143,324.1308 357.47435,324.14655 C 365.50123,324.16207 373.52748,324.25333 381.55377,324.35042 C 392.54179,324.5032 403.52994,324.62429 414.51899,324.63817 C 423.07148,324.66594 431.62315,324.5377 440.17338,324.34685 L 432.89543,334.58532 C 424.34013,334.71397 415.78418,334.8004 407.22784,334.75599 C 396.22223,334.71771 385.21741,334.58183 374.21223,334.47899 C 366.16426,334.4065 358.11615,334.362 350.06799,334.43563 C 348.06263,334.45148 346.05693,334.45942 344.05191,334.50326 L 351.55564,324.07895 z " id="path16575" style="fill:#000000;fill-opacity:1;fill-rule:nonzero;stroke:none;stroke-width:1px;stroke-linecap:butt;stroke-linejoin:miter;stroke-opacity:1;display:inline"/>
    <path d="M 442.30434,322.17772 C 442.7482,323.39348 441.96139,324.43444 441.5071,325.60045 C 440.07557,328.70113 438.61843,331.7892 437.1897,334.89136 C 434.28783,341.00311 432.22677,347.47924 430.31706,353.98095 C 428.12402,361.57191 426.54861,369.33108 425.29549,377.14171 C 424.12896,384.15455 423.8161,391.24795 424.51881,398.32151 C 425.08724,403.50545 426.72507,408.42135 428.6051,413.22507 L 418.0998,420.02489 C 416.04147,414.89146 414.23884,409.63647 413.50868,404.0971 C 412.59699,396.69036 412.71971,389.23376 413.86361,381.85076 C 415.0474,373.87642 416.58149,365.95605 418.70541,358.18853 C 420.56415,351.52469 422.55713,344.87504 425.30865,338.53947 C 426.68403,335.42741 428.09512,332.33309 429.52566,329.24805 C 429.92582,328.75216 430.50984,326.0356 430.88249,327.56665 L 442.30434,322.17772 z " id="path16583" style="fill:#000000;fill-opacity:1;fill-rule:nonzero;stroke:none;stroke-width:1px;stroke-linecap:butt;stroke-linejoin:miter;stroke-opacity:1;display:inline"/>
    <path d="M 324.4812,362.87573 C 324.73528,364.27915 324.05992,365.7284 323.67933,367.08487 C 322.34518,371.79287 321.21693,376.55873 320.14462,381.3366 C 319.27839,383.75317 319.2419,388.179 319.24515,389.8289 C 325.8721,380.98896 308.19397,397.22752 316.61875,390.21457 C 320.61567,386.66407 324.05459,382.51281 327.60362,378.49935 C 332.97024,372.762 338.80735,366.42914 346.51095,364.70328 C 350.61736,364.66568 353.97799,366.76974 357.33597,368.97158 C 361.82321,372.13427 366.07364,375.6394 370.38318,379.05305 C 375.32155,382.95135 380.32314,386.76115 385.38717,390.48193 C 390.02552,393.91983 394.75352,397.22409 399.46874,400.5469 C 403.51759,403.38006 407.51926,406.28462 411.53526,409.16736 C 415.10798,411.76458 418.67819,414.36464 422.28647,416.90872 C 422.53142,417.08105 422.77634,417.25338 423.02129,417.42569 L 413.84262,426.08752 C 413.59847,425.91491 413.35434,425.74231 413.11021,425.56972 C 409.50183,423.00451 405.92684,420.39023 402.34161,417.79051 C 398.33925,414.9092 394.35015,412.00785 390.31296,409.17886 C 385.58627,405.83307 380.8536,402.49574 376.20278,399.0369 C 371.1099,395.28142 366.08959,391.4226 361.11082,387.50636 C 356.87768,384.16451 352.70078,380.72716 348.23855,377.71487 C 345.49687,376.12266 343.02954,374.48156 339.839,375.59858 C 333.17081,380.25351 351.97949,365.73391 339.76913,376.15183 C 336.10592,380.14304 332.63859,384.32486 328.8627,388.20275 C 323.6302,393.14659 317.2201,401.76852 309.9995,398.53982 C 307.28182,394.54459 307.42817,390.6744 308.57073,385.85356 C 309.58191,381.00373 310.68535,376.17551 311.93826,371.38564 C 312.16214,370.52342 312.48391,368.10975 313.05934,368.26466 L 324.4812,362.87573 z " id="path16585" style="fill:#000000;fill-opacity:1;fill-rule:nonzero;stroke:none;stroke-width:1px;stroke-linecap:butt;stroke-linejoin:miter;stroke-opacity:1;display:inline"/>
  </g>
  
  
  
  
  <g id="layer26" inkscape:groupmode="layer" inkscape:label="stand-sword" style="display:inline"/>
  
  
  
  
  
  
  
  
  
  
  
  
</svg>
