<?xml version="1.0" ?>
<!-- Created with Inkscape (http://www.inkscape.org/) --><svg height="1052.3622047" id="svg2" inkscape:export-filename="C:\Documents and Settings\Cowbert\Desktop\euphorion-sword-standing.png" inkscape:export-xdpi="90" inkscape:export-ydpi="90" inkscape:version="0.43" sodipodi:docbase="C:\Documents and Settings\Cowbert\Desktop" sodipodi:docname="euphorion.svg" sodipodi:version="0.32" width="744.09448819" xmlns="http://www.w3.org/2000/svg" xmlns:cc="http://web.resource.org/cc/" xmlns:dc="http://purl.org/dc/elements/1.1/" xmlns:inkscape="http://www.inkscape.org/namespaces/inkscape" xmlns:rdf="http://www.w3.org/1999/02/22-rdf-syntax-ns#" xmlns:sodipodi="http://inkscape.sourceforge.net/DTD/sodipodi-0.dtd" xmlns:svg="http://www.w3.org/2000/svg">
  <defs id="defs4"/>
  <sodipodi:namedview bordercolor="#666666" borderopacity="1.0" id="base" inkscape:current-layer="layer11" inkscape:cx="245.01094" inkscape:cy="850.88094" inkscape:document-units="px" inkscape:guide-bbox="true" inkscape:pageopacity="0.0" inkscape:pageshadow="2" inkscape:window-height="977" inkscape:window-width="1045" inkscape:window-x="-4" inkscape:window-y="-4" inkscape:zoom="0.98994949" pagecolor="#ffffff" showguides="true"/>
  <metadata id="metadata7">
    <rdf:RDF>
      <cc:Work rdf:about="">
        <dc:format>image/svg+xml</dc:format>
        <dc:type rdf:resource="http://purl.org/dc/dcmitype/StillImage"/>
      </cc:Work>
    </rdf:RDF>
  </metadata>
  
  
  
  
  
  
  
  
  
  
  
  
  
  
  
  
  
  
  
  
  
  
  <g id="layer3" inkscape:groupmode="layer" inkscape:label="lunge-face" style="display:inline">
    <path d="M 237.96833,117.0047 C 228.8515,109.09407 214.12994,116.15551 210.90253,127.11398 C 204.70649,133.79283 210.38328,144.74519 218.35673,146.23632 C 228.15271,146.097 232.13623,157.66352 232.83936,166.15578 C 234.13209,179.96295 241.64954,191.89336 247.57209,203.96821 C 255.37614,218.43355 266.95625,232.50417 283.29661,236.11946 C 304.08661,241.54323 328.08365,237.30033 343.91169,221.62711 C 358.80387,207.29817 368.76445,188.54521 378.45855,170.30524 C 382.13435,162.58301 381.66029,151.93104 374.83042,146.20701 C 359.98621,125.50064 338.47838,108.28668 313.17612,105.01277 C 288.554,101.52695 263.79825,108.57471 240.98695,117.63025" id="path6888" style="fill:#e7d192;fill-opacity:1;fill-rule:evenodd;stroke:none;stroke-width:1px;stroke-linecap:butt;stroke-linejoin:miter;stroke-opacity:1;display:inline"/>
    <path d="M 289.56343,121.72919 C 290.55917,123.19312 290.95866,124.98341 291.49584,126.66039 C 292.42465,130.02136 291.70985,133.00721 290.60851,136.1526 C 284.79876,142.94892 276.62132,148.51999 276.3743,138.40185 C 277.13727,135.02985 279.12571,132.45397 281.31155,129.95236 C 281.49204,129.78247 281.6725,129.61257 281.853,129.44265 L 294.99945,126.35182 C 294.80727,126.46984 294.61503,126.58784 294.42283,126.70584 C 292.1533,128.48433 290.11058,130.35113 288.88237,133.0932 C 285.41074,135.08371 285.09079,126.06836 277.54156,139.78215 C 279.17979,137.9195 280.39911,136.64636 279.80928,133.66274 C 279.64032,133.07855 278.30776,129.27001 278.89984,130.46857 L 289.56343,121.72919 z " id="path1963" style="fill:#000000;fill-opacity:1;fill-rule:nonzero;stroke:none;stroke-width:1px;stroke-linecap:butt;stroke-linejoin:miter;stroke-opacity:1;display:inline"/>
    <path d="M 345.80162,141.92841 C 347.53615,143.42828 348.63801,145.42178 349.77723,147.40376 C 351.80425,151.30378 352.27793,155.54674 352.40488,159.88345 C 352.30439,167.85896 341.35119,176.37919 338.18106,166.91075 C 338.15224,162.22698 339.99616,158.01831 342.09457,153.9788 C 342.75085,152.79353 343.58841,151.73703 344.36028,150.63557 L 357.26612,146.73212 C 356.45487,147.70437 355.59036,148.63074 354.86674,149.67946 C 352.67396,153.02536 350.82893,156.53217 350.2386,160.59408 C 349.53246,161.00382 335.11187,171.91975 340.21675,165.84964 C 340.4695,162.14341 340.26137,158.58289 338.58736,155.18633 C 338.19418,154.52774 335.36198,150.37331 337.06964,152.7273 L 345.80162,141.92841 z " id="path1965" style="fill:#000000;fill-opacity:1;fill-rule:nonzero;stroke:none;stroke-width:1px;stroke-linecap:butt;stroke-linejoin:miter;stroke-opacity:1;display:inline"/>
    <path d="M 320.18596,159.21464 C 319.1163,156.97588 320.67793,160.63768 320.904,161.18666 C 322.33045,165.17562 322.91074,169.31575 323.04915,173.53722 C 322.43412,183.40078 314.36214,190.22529 304.92834,191.96215 C 298.58376,192.09053 292.67645,189.63594 287.14782,186.6428 L 296.95338,177.23393 C 301.97288,179.76879 307.33547,181.96458 312.98941,180.85373 C 316.63454,178.90145 303.14437,192.80398 310.94839,179.59728 C 311.14185,175.80215 310.68529,172.12797 309.39853,168.53766 C 308.94039,167.52881 308.72666,166.39447 308.03344,165.53178 L 320.18596,159.21464 z " id="path1967" style="fill:#000000;fill-opacity:1;fill-rule:nonzero;stroke:none;stroke-width:1px;stroke-linecap:butt;stroke-linejoin:miter;stroke-opacity:1;display:inline"/>
    <path d="M 258.51355,117.74628 C 258.20766,115.52239 259.86648,113.67686 261.04951,111.85509 C 267.4765,103.20849 275.1468,97.246677 284.64345,101.88129 C 291.90813,106.68819 297.00555,114.12624 302.58626,120.78342 C 309.80164,129.73687 316.29463,126.03808 326.44496,122.64481 C 326.44496,122.64481 305.35954,146.9653 292.04713,129.13224 C 286.79442,122.84335 281.98843,115.68801 274.94686,111.44522 C 268.0973,109.67512 260.12079,117.83099 276.53822,105.73228 C 275.68465,106.44614 274.64713,106.95864 273.95918,107.88918 C 273.16561,108.87401 271.36065,112.09591 270.6661,111.42914 L 258.51355,117.74628 z " id="path1969" sodipodi:nodetypes="ccccccccccc" style="fill:#000000;fill-opacity:1;fill-rule:nonzero;stroke:none;stroke-width:1px;stroke-linecap:butt;stroke-linejoin:miter;stroke-opacity:1;display:inline"/>
    <path d="M 239.72824,124.41562 C 238.39053,123.22937 236.46561,122.51437 234.79145,121.68453 C 230.475,119.32009 226.02443,118.21339 221.18831,118.17067 C 201.73255,127.58986 227.94593,105.67279 216.85655,119.88512 C 213.33995,125.11283 213.29151,130.43521 215.9003,135.94922 C 219.96766,140.80298 225.98987,141.8817 231.90259,142.35941 C 234.53793,142.54982 237.15329,142.20835 239.76576,141.91244 L 231.41203,152.8053 C 228.6335,152.96686 225.85145,153.14365 223.07593,152.77305 C 216.20953,151.83287 209.37442,149.86733 204.95449,143.93473 C 201.40577,137.63206 200.88084,130.82076 204.15166,124.18873 C 209.52313,114.97331 219.19578,107.54846 229.804,107.54279 C 235.01321,107.98509 239.8709,109.65126 244.54634,112.06548 C 245.24297,112.39736 249.54491,114.87446 248.46021,113.61675 L 239.72824,124.41562 z " id="path1971" style="fill:#000000;fill-opacity:1;fill-rule:nonzero;stroke:none;stroke-width:1px;stroke-linecap:butt;stroke-linejoin:miter;stroke-opacity:1;display:inline"/>
    <path d="M 233.95309,142.40459 C 233.83341,144.16129 234.0435,145.91156 234.1867,147.66015 C 235.60314,160.43589 239.61823,172.72172 244.69051,184.40138 C 251.62185,200.49914 262.30403,214.07658 276.56617,223.68396 C 290.57883,232.80376 306.92093,235.55064 322.9499,231.51451 C 345.86643,219.56657 335.91575,231.00213 352.37523,206.35835 C 358.14096,197.60014 362.21415,187.86373 365.31154,177.80015 L 377.50055,172.66384 C 374.43903,183.02865 370.46955,193.11329 364.75283,202.23964 C 353.09158,220.62991 336.08192,236.64735 315.16609,242.30647 C 298.25955,245.68121 281.31138,242.32733 266.81054,232.58398 C 252.15787,222.44741 241.06266,208.36901 233.78377,191.73753 C 228.509,179.79542 224.3277,167.27909 222.39273,154.26228 C 222.15783,152.42171 221.86725,150.57848 221.80053,148.72173 L 233.95309,142.40459 z " id="path1973" style="fill:#000000;fill-opacity:1;fill-rule:nonzero;stroke:none;stroke-width:1px;stroke-linecap:butt;stroke-linejoin:miter;stroke-opacity:1;display:inline"/>
    <path d="M 314.43297,156.71987 C 323.641,133.45408 337.17702,137.6464 342.00846,137.67423 C 348.71546,138.41327 355.19303,140.50985 361.72663,142.16353 C 370.17957,144.51501 378.55185,144.46457 387.05563,142.74694 C 389.29085,142.225 391.38289,141.25581 393.52491,140.44969 L 382.68203,156.55401 C 380.3485,157.20971 378.05492,158.05054 375.64344,158.38162 C 366.56354,159.61701 357.56106,158.84093 348.69497,156.4146 C 342.50908,154.82924 324.32924,149.09624 319.58266,153.03226 L 314.43297,156.71987 z " id="path2117" sodipodi:nodetypes="ccccccsccc" style="fill:#000000;fill-opacity:1;fill-rule:nonzero;stroke:none;stroke-width:1px;stroke-linecap:butt;stroke-linejoin:miter;stroke-opacity:1;display:inline"/>
  </g>
  
  
  
</svg>
