<?xml version="1.0" ?>
<!-- Created with Inkscape (http://www.inkscape.org/) --><svg height="1052.3622047" id="svg2" inkscape:export-filename="C:\Documents and Settings\Cowbert\Desktop\euphorion-sword-standing.png" inkscape:export-xdpi="90" inkscape:export-ydpi="90" inkscape:version="0.43" sodipodi:docbase="C:\Documents and Settings\Cowbert\Desktop" sodipodi:docname="euphorion.svg" sodipodi:version="0.32" width="744.09448819" xmlns="http://www.w3.org/2000/svg" xmlns:cc="http://web.resource.org/cc/" xmlns:dc="http://purl.org/dc/elements/1.1/" xmlns:inkscape="http://www.inkscape.org/namespaces/inkscape" xmlns:rdf="http://www.w3.org/1999/02/22-rdf-syntax-ns#" xmlns:sodipodi="http://inkscape.sourceforge.net/DTD/sodipodi-0.dtd" xmlns:svg="http://www.w3.org/2000/svg">
  <defs id="defs4"/>
  <sodipodi:namedview bordercolor="#666666" borderopacity="1.0" id="base" inkscape:current-layer="layer11" inkscape:cx="245.01094" inkscape:cy="850.88094" inkscape:document-units="px" inkscape:guide-bbox="true" inkscape:pageopacity="0.0" inkscape:pageshadow="2" inkscape:window-height="977" inkscape:window-width="1045" inkscape:window-x="-4" inkscape:window-y="-4" inkscape:zoom="0.98994949" pagecolor="#ffffff" showguides="true"/>
  <metadata id="metadata7">
    <rdf:RDF>
      <cc:Work rdf:about="">
        <dc:format>image/svg+xml</dc:format>
        <dc:type rdf:resource="http://purl.org/dc/dcmitype/StillImage"/>
      </cc:Work>
    </rdf:RDF>
  </metadata>
  
  
  
  
  
  
  
  
  
  
  
  
  
  
  
  
  
  
  
  
  
  
  
  <g id="layer24" inkscape:groupmode="layer" inkscape:label="lunge-arm-right-bowing" style="display:inline">
    <path d="M 282.04001,213.3479 C 288.87147,218.31643 298.46771,217.91473 304.2697,224.60973 C 314.66399,236.68998 318.21765,255.47312 310.89874,270.12481 C 304.05485,285.86301 289.3267,289.53726 270.76886,289.35021 C 262.95347,286.18793 258.76925,277.44088 257.94763,269.19947 C 254.54356,252.07949 261.47526,233.12131 275.38692,223.08519 C 277.74675,221.04594 280.10089,218.96091 282.04001,216.47589" id="path22040" sodipodi:nodetypes="ccccccc" style="fill:#e7d192;fill-opacity:1;fill-rule:evenodd;stroke:none;stroke-width:1px;stroke-linecap:butt;stroke-linejoin:miter;stroke-opacity:1"/>
    <path d="M 236.76091,190.20053 C 234.87727,198.69701 239.41668,209.62693 248.41095,208.8828 C 258.81529,209.67505 270.73221,207.60219 280.84611,211.95805 C 286.88949,216.69188 285.15861,225.33692 284.39436,232.04058 C 282.83363,257.4859 275.4879,284.31689 256.74646,301.98906 C 245.32285,313.19445 226.90471,315.39206 213.37267,307.03185 C 206.62393,303.06526 199.96448,298.90051 192.7017,296.00044 C 174.10273,286.47693 160.57166,264.29436 164.52611,242.5055 C 166.7659,228.84166 177.78189,218.929 189.48528,213.55225 C 205.50194,201.74948 217.31664,196.17331 233.57756,194.18043 L 234.86187,194.04678 L 236.15719,193.95416 L 236.76091,190.20053 z " id="path21150" sodipodi:nodetypes="ccccccccccccc" style="fill:#8e4e1e;fill-opacity:1;fill-rule:evenodd;stroke:none;stroke-width:1px;stroke-linecap:butt;stroke-linejoin:miter;stroke-opacity:1"/>
    <path d="M 236.56208,196.34308 C 236.92243,196.88764 235.12154,196.92225 234.53851,197.0252 C 231.38952,197.71073 228.30313,198.67833 225.23123,199.66339 C 219.2974,201.59695 213.5763,204.12983 207.97834,206.92269 C 199.99359,210.98302 192.3445,215.71277 185.14629,221.12551 C 203.90741,204.57748 179.22577,227.66182 175.29806,233.58063 C 170.82737,240.28846 168.60788,247.79778 169.27612,255.89511 C 170.52165,263.87899 175.60788,269.90768 180.94786,275.43174 C 186.93311,281.32413 193.71491,286.23775 200.70913,290.7438 C 206.48637,294.47421 212.70782,297.31864 219.11754,299.64457 C 224.74147,301.67335 230.59167,302.81396 236.46828,303.70082 C 241.71082,304.488 247.02496,304.65565 252.24199,303.65397 C 269.74806,292.84852 241.32432,316.18354 255.01399,301.98459 C 260.63703,295.3615 263.92685,287.07769 266.77377,278.86473 C 269.87967,269.69703 271.98177,260.20855 273.70783,250.67081 C 275.1029,243.00058 276.10714,235.25797 276.47577,227.46111 C 276.74015,222.52729 276.33966,217.63555 274.85266,212.94473 C 273.55697,210.06794 271.54416,209.5977 268.72454,209.48113 C 263.89223,210.22474 259.2502,211.9075 254.64768,213.55289 C 249.26117,215.46981 243.94814,217.59443 238.65009,219.75683 L 245.85718,206.76093 C 251.21448,204.62747 256.59518,202.55461 262.04258,200.67919 C 267.10848,198.99253 272.37448,197.055 277.76622,197.60049 C 281.94898,198.7163 285.35734,200.74206 287.2488,204.99763 C 289.28064,210.20939 289.83696,215.81226 289.6832,221.41019 C 289.41736,229.44409 288.452,237.42331 287.04771,245.32847 C 285.33531,255.07448 283.28315,264.77587 280.3162,274.20326 C 277.53184,282.86891 274.25028,291.51203 269.1292,299.00692 C 262.83755,307.13993 254.3441,314.78922 244.10944,316.12977 C 238.48222,316.58723 232.84952,316.25669 227.28313,315.2661 C 221.16408,314.22176 215.09139,312.85836 209.2698,310.5953 C 202.63165,308.00627 196.19964,304.88769 190.21795,300.91087 C 183.00964,296.12998 176.01082,290.95031 169.83101,284.78505 C 163.7475,278.58075 158.31611,271.54199 156.48479,262.70311 C 155.22903,253.67469 156.78377,245.03109 161.43137,237.17093 C 168.66902,224.65014 179.7203,215.81407 191.289,207.77846 C 198.77726,202.50625 206.64892,197.83897 214.85081,193.86113 C 220.68407,191.13296 226.62917,188.64585 232.78308,186.79596 C 236.0199,185.82215 239.27048,184.87246 242.59932,184.29575 C 243.53289,184.10506 244.5266,183.68073 245.40529,184.05787 L 236.56208,196.34308 z " id="path21148" style="fill:#000000;fill-opacity:1;fill-rule:nonzero;stroke:none;stroke-width:1px;stroke-linecap:butt;stroke-linejoin:miter;stroke-opacity:1"/>
    <path d="M 285.25743,206.57968 C 285.81095,206.59927 286.36502,206.6006 286.91879,206.61107 C 289.47836,206.64658 292.03665,206.75044 294.59207,206.90279 C 298.21542,207.05095 301.54412,208.14108 304.7474,209.81584 C 308.38043,212.15973 310.82131,215.70739 312.83356,219.53758 C 314.82969,223.53399 315.74045,227.88525 315.92671,232.34922 C 316.01525,234.4832 315.54377,236.53864 315.10946,238.60077 L 301.27722,243.41766 C 301.86429,241.81662 302.482,240.22727 302.60322,238.4941 C 302.73924,234.77364 302.26135,231.18462 300.63502,227.80436 C 299.0769,224.83887 297.3709,222.01176 294.35697,220.458 C 291.53667,219.46257 288.67748,218.84998 285.66708,218.89875 C 283.15222,218.8298 280.6364,218.77077 278.12074,218.83346 C 277.55194,218.84393 276.98285,218.84553 276.41421,218.86485 L 285.25743,206.57968 z " id="path22034" style="fill:#000000;fill-opacity:1;fill-rule:nonzero;stroke:none;stroke-width:1px;stroke-linecap:butt;stroke-linejoin:miter;stroke-opacity:1"/>
    <path d="M 315.33376,235.20355 C 313.34283,232.3718 315.48631,235.15183 315.82746,235.03612 C 317.95957,236.94176 319.63241,239.24977 321.17525,241.66711 C 323.47059,245.44678 324.30317,249.65209 324.40164,254.05474 C 324.34316,259.28409 322.40746,264.03884 320.00418,268.53611 C 317.55319,272.96456 314.31683,276.80913 310.72623,280.27361 C 303.95103,286.87313 296.30831,292.0106 287.5852,295.03978 C 283.28645,296.51927 278.80345,297.1295 274.30923,297.49619 C 272.10093,297.67266 269.89699,297.55142 267.69341,297.40175 L 276.61437,285.43074 C 278.64164,285.41822 280.67127,285.4037 282.68718,285.13906 C 286.86315,284.56588 291.0067,283.72703 294.91555,282.03653 C 301.17716,278.32762 303.33213,276.24071 305.92625,272.245 C 308.30929,268.52285 310.47745,264.60853 311.06187,260.1083 C 311.24277,256.6144 311.00789,253.3031 309.14182,250.25853 C 307.81019,248.24666 306.41076,246.31783 304.53723,244.79493 C 303.47523,243.82442 302.42269,242.96865 301.87374,241.55412 L 315.33376,235.20355 z " id="path22036" sodipodi:nodetypes="cccccccscccccccccc" style="fill:#000000;fill-opacity:1;fill-rule:nonzero;stroke:none;stroke-width:1px;stroke-linecap:butt;stroke-linejoin:miter;stroke-opacity:1"/>
  </g>
  
  
</svg>
