<?xml version="1.0" ?>
<!-- Created with Inkscape (http://www.inkscape.org/) --><svg height="1052.3622047" id="svg2" inkscape:export-filename="C:\Documents and Settings\Cowbert\Desktop\euphorion-sword-standing.png" inkscape:export-xdpi="90" inkscape:export-ydpi="90" inkscape:version="0.43" sodipodi:docbase="C:\Documents and Settings\Cowbert\Desktop" sodipodi:docname="euphorion.svg" sodipodi:version="0.32" width="744.09448819" xmlns="http://www.w3.org/2000/svg" xmlns:cc="http://web.resource.org/cc/" xmlns:dc="http://purl.org/dc/elements/1.1/" xmlns:inkscape="http://www.inkscape.org/namespaces/inkscape" xmlns:rdf="http://www.w3.org/1999/02/22-rdf-syntax-ns#" xmlns:sodipodi="http://inkscape.sourceforge.net/DTD/sodipodi-0.dtd" xmlns:svg="http://www.w3.org/2000/svg">
  <defs id="defs4"/>
  <sodipodi:namedview bordercolor="#666666" borderopacity="1.0" id="base" inkscape:current-layer="layer11" inkscape:cx="245.01094" inkscape:cy="850.88094" inkscape:document-units="px" inkscape:guide-bbox="true" inkscape:pageopacity="0.0" inkscape:pageshadow="2" inkscape:window-height="977" inkscape:window-width="1045" inkscape:window-x="-4" inkscape:window-y="-4" inkscape:zoom="0.98994949" pagecolor="#ffffff" showguides="true"/>
  <metadata id="metadata7">
    <rdf:RDF>
      <cc:Work rdf:about="">
        <dc:format>image/svg+xml</dc:format>
        <dc:type rdf:resource="http://purl.org/dc/dcmitype/StillImage"/>
      </cc:Work>
    </rdf:RDF>
  </metadata>
  <g id="layer10" inkscape:groupmode="layer" inkscape:label="lunge-legs" style="display:inline">
    <path d="M 260.71248,446.07668 C 274.43071,457.66986 293.49554,460.8678 310.5186,456.90487 C 319.03018,455.47838 327.45808,453.16308 335.28167,449.35611 C 338.70446,445.82808 337.65508,439.71329 334.47856,436.3987 C 328.75196,427.7748 318.723,423.84459 309.20502,421.79203 C 295.24351,418.33231 279.85837,419.34837 267.1424,426.61978 C 261.40003,430.75947 257.53607,439.08453 260.71248,446.07668 z " id="path10022" style="fill:#8e4e1e;fill-opacity:1;fill-rule:evenodd;stroke:none;stroke-width:1px;stroke-linecap:butt;stroke-linejoin:miter;stroke-opacity:1;display:inline"/>
    <path d="M 135.20521,441.65297 C 133.94405,449.33927 128.66425,456.03722 129.21618,464.08403 C 129.82158,470.66419 134.09784,476.73729 139.9742,479.31761 C 142.87823,482.87943 148.81161,482.98305 151.82979,479.52465 C 159.22027,474.48896 167.7611,471.51452 174.88525,466.02733 C 181.03885,454.92817 176.29116,438.91493 165.00206,433.5644 C 158.55861,430.85429 151.32612,431.23554 144.67625,432.87161 C 140.04454,432.99789 135.96269,436.98104 135.20521,441.65297 z " id="path10020" style="fill:#8e4e1e;fill-opacity:1;fill-rule:evenodd;stroke:none;stroke-width:1px;stroke-linecap:butt;stroke-linejoin:miter;stroke-opacity:1;display:inline"/>
    <path d="M 323.29513,419.28541 C 324.88669,420.83595 326.82357,421.92075 328.65973,423.13685 C 334.03295,426.32519 338.555,430.51279 342.4793,435.41284 C 348.86017,449.89713 327.53639,455.88717 316.90536,458.88016 C 304.43058,462.19152 291.57676,462.66692 278.79839,461.681 C 269.21621,461.07217 260.50222,457.93029 252.50237,452.5998 C 252.13219,452.33192 251.762,452.06403 251.39181,451.79615 L 262.22958,441.62383 C 262.58099,441.87411 262.93239,442.12439 263.2838,442.37469 C 270.7435,447.11528 278.93914,449.47188 287.72294,449.88688 C 300.11163,450.55901 312.54619,449.77984 324.51178,446.12752 C 348.28844,438.24272 323.13001,452.01002 330.59284,444.26092 C 326.92029,439.99156 322.86903,436.25862 317.93809,433.52542 C 317.30531,433.11724 311.96146,429.38085 314.45193,431.57058 L 323.29513,419.28541 z " id="path2286" style="fill:#000000;fill-opacity:1;fill-rule:nonzero;stroke:none;stroke-width:1px;stroke-linecap:butt;stroke-linejoin:miter;stroke-opacity:1;display:inline"/>
    <path d="M 143.3232,437.94923 C 135.97056,446.93239 134.81044,461.08184 141.3632,470.86884 C 145.87801,475.65293 153.38327,474.96397 158.64448,471.95986 C 162.02419,470.48702 165.22242,468.5925 168.24424,466.44674 C 167.35966,468.22604 167.53686,465.30465 168.89104,465.67412 C 171.72476,462.66707 173.83064,457.93768 178.33052,457.4663 C 181.00664,457.32862 186.00052,453.56777 187.27899,457.1236 C 186.23838,460.06176 183.38249,461.77045 181.62436,464.22146 C 177.14827,469.46434 171.67112,473.71477 166.05142,477.55775 C 159.10645,482.06306 151.347,485.6593 143.1371,486.54649 C 134.93153,486.51955 127.39394,480.05234 125.46631,471.84973 C 121.29473,459.46474 124.59432,444.77924 133.58474,435.552 C 134.73912,432.34461 139.50957,428.89107 142.08795,432.37329 C 142.8172,434.14659 141.33163,436.7549 143.3232,437.94923 z " id="path7833" style="fill:#000000;fill-opacity:1;fill-rule:nonzero;stroke:none;stroke-width:1px;stroke-linecap:butt;stroke-linejoin:miter;stroke-opacity:1;display:inline"/>
    <path d="M 190.70162,355.83332 C 168.26332,372.42693 151.92553,395.83416 133.34799,416.55637 C 127.41066,424.81457 133.21257,434.88178 140.40389,439.72263 C 151.07002,448.10905 164.25168,453.13264 177.50845,454.61889 C 193.13031,455.62317 210.35617,450.42962 220.30552,437.34261 C 225.26396,427.68353 229.82635,415.6336 240.8703,412.0955 C 251.84868,413.80279 253.0731,428.39978 250.23138,437.24673 C 248.82578,448.5706 261.46369,452.63543 269.41603,447.38846 C 281.05157,442.93448 292.34134,437.48895 304.22709,433.78092 C 318.41777,427.63875 329.0842,413.39045 330.08593,397.31733 C 333.05472,372.78892 318.28705,345.28479 294.07226,339.79546 C 270.0282,334.25597 245.00965,336.2621 220.95443,340.56961 C 210.11059,343.79402 200.02329,349.32056 190.70162,355.83332 z " id="path9955" style="fill:#30763e;fill-opacity:1;fill-rule:evenodd;stroke:none;stroke-width:1px;stroke-linecap:butt;stroke-linejoin:miter;stroke-opacity:1;display:inline"/>
    <path d="M 314.26364,339.22643 C 310.17782,344.159 298.33687,349.2061 311.85094,356.19678 C 328.86864,373.47756 332.34322,404.3676 317.33313,424.09951 C 309.4952,432.7925 297.71255,435.43301 287.09528,438.58049 C 277.16905,440.99311 266.84011,441.91581 256.69558,440.628 C 251.7223,433.14462 262.95696,428.27683 263.03106,420.9506 C 264.40894,413.26065 256.67271,407.36375 249.94039,407.02315 C 240.04746,405.39697 229.71773,407.04262 220.43573,410.68789 C 217.54336,413.03979 212.11917,420.24669 214.75285,422.45471 C 224.99162,419.84188 236.09935,416.30542 246.46581,420.12711 C 252.05619,423.88977 246.67392,430.83006 244.09738,434.87688 C 238.07048,441.20716 243.20077,453.21583 251.6306,453.19356 C 274.24139,454.03069 297.77607,449.03605 316.33303,435.0346 C 331.46458,424.45663 341.77569,405.52133 339.64495,386.34571 C 338.49403,367.85137 329.76604,349.18565 314.26364,339.22643 z " id="path2200" sodipodi:nodetypes="ccccccccccccccc" style="fill:#000000;fill-opacity:1;fill-rule:nonzero;stroke:none;stroke-width:1px;stroke-linecap:butt;stroke-linejoin:miter;stroke-opacity:1;display:inline"/>
    <path d="M 181.64144,369.90461 C 169.07875,385.92797 152.66293,398.50205 141.84486,416.02472 C 138.44921,426.73404 146.21056,439.26952 156.85288,441.0155 C 171.41856,447.67287 188.39238,450.95405 203.81283,445.48968 C 212.14219,441.16149 215.13856,431.36739 218.72998,423.17397 C 217.82359,416.62596 228.48183,413.20529 230.97743,419.49157 C 232.56744,427.21213 226.3801,433.08815 222.76346,439.02525 C 212.85383,454.64793 193.79324,462.57126 176.12278,460.06668 C 159.92708,458.85676 143.52269,452.60614 132.03945,440.41453 C 124.66195,430.19099 127.12659,414.57221 136.39385,406.49251 C 145.59984,395.42826 156.91045,386.3961 165.48129,374.74106 C 169.62348,370.881 172.80743,361.11984 179.87605,364.56068 C 181.57901,365.58555 182.89489,367.98658 181.64144,369.90461 z " id="path2214" style="fill:#000000;fill-opacity:1;fill-rule:nonzero;stroke:none;stroke-width:1px;stroke-linecap:butt;stroke-linejoin:miter;stroke-opacity:1;display:inline"/>
  </g>
  
  
  
  
  
  
  
  
  
  
  
  
  
  
  
  
  
  
  
  
  
  
  
  
  
</svg>
