<?xml version="1.0" ?>
<!-- Created with Inkscape (http://www.inkscape.org/) --><svg height="1052.3622047" id="svg2" inkscape:export-filename="C:\Documents and Settings\Cowbert\Desktop\euphorion-sword-standing.png" inkscape:export-xdpi="90" inkscape:export-ydpi="90" inkscape:version="0.43" sodipodi:docbase="C:\Documents and Settings\Cowbert\Desktop" sodipodi:docname="euphorion.svg" sodipodi:version="0.32" width="744.09448819" xmlns="http://www.w3.org/2000/svg" xmlns:cc="http://web.resource.org/cc/" xmlns:dc="http://purl.org/dc/elements/1.1/" xmlns:inkscape="http://www.inkscape.org/namespaces/inkscape" xmlns:rdf="http://www.w3.org/1999/02/22-rdf-syntax-ns#" xmlns:sodipodi="http://inkscape.sourceforge.net/DTD/sodipodi-0.dtd" xmlns:svg="http://www.w3.org/2000/svg">
  <defs id="defs4"/>
  <sodipodi:namedview bordercolor="#666666" borderopacity="1.0" id="base" inkscape:current-layer="layer11" inkscape:cx="245.01094" inkscape:cy="850.88094" inkscape:document-units="px" inkscape:guide-bbox="true" inkscape:pageopacity="0.0" inkscape:pageshadow="2" inkscape:window-height="977" inkscape:window-width="1045" inkscape:window-x="-4" inkscape:window-y="-4" inkscape:zoom="0.98994949" pagecolor="#ffffff" showguides="true"/>
  <metadata id="metadata7">
    <rdf:RDF>
      <cc:Work rdf:about="">
        <dc:format>image/svg+xml</dc:format>
        <dc:type rdf:resource="http://purl.org/dc/dcmitype/StillImage"/>
      </cc:Work>
    </rdf:RDF>
  </metadata>
  
  
  
  
  
  
  
  
  
  
  
  
  
  
  
  
  
  
  
  
  
  <g id="layer8" inkscape:groupmode="layer" inkscape:label="lunge-armor" style="display:inline">
    <path d="M 217.13361,195.0254 C 205.32595,195.8087 193.85664,203.08416 188.5788,214.18694 C 187.49613,235.52187 204.54233,251.00567 209.24718,270.74041 C 213.19056,285.68312 212.75909,301.6195 209.30636,316.61506 C 200.26398,323.84093 208.65711,341.64609 219.71832,338.67019 C 251.57658,330.58529 285.05289,320.46277 308.84602,295.71218 C 332.73077,268.49014 327.76172,219.85891 297.88971,199.41518 C 275.86949,183.65617 245.86235,178.88612 221.09933,190.41496 C 219.40146,191.52063 217.87469,193.05578 217.13361,195.0254 z " id="path12201" style="fill:#c5c5c5;fill-opacity:1;fill-rule:evenodd;stroke:none;stroke-width:1px;stroke-linecap:butt;stroke-linejoin:miter;stroke-opacity:1"/>
    <path d="M 218.18282,199.78685 C 217.39697,199.97842 216.3818,200.11548 215.50975,200.28671 C 211.47048,200.86745 207.64104,202.2602 203.86029,203.78052 C 183.15165,217.4255 207.97489,196.81254 197.46376,207.84625 C 192.17702,214.8039 195.56567,222.71324 198.85172,229.77148 C 204.61155,240.64492 211.53233,250.81293 215.98928,262.38425 C 220.5531,274.01393 220.32558,286.22282 217.85725,298.27757 C 215.6311,308.29416 210.90455,317.53555 209.13135,327.65782 C 209.46139,336.49934 221.19012,333.91739 227.10155,333.02442 C 245.0616,329.70144 262.32698,322.89467 278.38956,314.01645 C 291.88959,303.12198 295.7058,307.89174 308.80478,282.67738 C 314.94533,270.10304 315.59205,256.14633 313.63099,242.46778 C 313.14972,239.38797 312.26992,236.40755 311.45373,233.41358 L 322.92155,226.58492 C 323.80926,229.74134 324.76143,232.8833 325.31226,236.12978 C 327.58588,250.59113 327.21956,265.39246 321.32912,278.98561 C 311.45051,300.4053 291.93853,314.59123 272.35916,325.7998 C 255.79058,334.48062 238.09614,341.31321 219.68794,344.24294 C 210.4132,345.29525 197.95991,345.24236 196.84929,333.02108 C 197.83642,322.50508 202.81173,313.08113 205.45894,302.96172 C 208.14536,291.75259 208.82605,280.48556 204.74316,269.47886 C 200.25569,258.0748 193.6646,247.91557 187.77631,237.26207 C 183.76101,228.93397 180.07965,219.89732 184.44382,210.89654 C 190.54578,201.67303 200.74267,195.95224 210.56667,191.76786 C 214.64917,190.39506 218.77723,189.19334 223.05537,188.67258 C 224.13516,188.57513 225.235,188.32395 226.31139,188.49449 L 218.18282,199.78685 z " id="path12199" style="fill:#000000;fill-opacity:1;fill-rule:nonzero;stroke:none;stroke-width:1px;stroke-linecap:butt;stroke-linejoin:miter;stroke-opacity:1"/>
  </g>
  
  
  
  
</svg>
