<?xml version="1.0" ?>
<!-- Created with Inkscape (http://www.inkscape.org/) --><svg height="1052.3622047" id="svg2" inkscape:export-filename="C:\Documents and Settings\Cowbert\Desktop\euphorion-sword-standing.png" inkscape:export-xdpi="90" inkscape:export-ydpi="90" inkscape:version="0.43" sodipodi:docbase="C:\Documents and Settings\Cowbert\Desktop" sodipodi:docname="euphorion.svg" sodipodi:version="0.32" width="744.09448819" xmlns="http://www.w3.org/2000/svg" xmlns:cc="http://web.resource.org/cc/" xmlns:dc="http://purl.org/dc/elements/1.1/" xmlns:inkscape="http://www.inkscape.org/namespaces/inkscape" xmlns:rdf="http://www.w3.org/1999/02/22-rdf-syntax-ns#" xmlns:sodipodi="http://inkscape.sourceforge.net/DTD/sodipodi-0.dtd" xmlns:svg="http://www.w3.org/2000/svg">
  <defs id="defs4"/>
  <sodipodi:namedview bordercolor="#666666" borderopacity="1.0" id="base" inkscape:current-layer="layer11" inkscape:cx="245.01094" inkscape:cy="850.88094" inkscape:document-units="px" inkscape:guide-bbox="true" inkscape:pageopacity="0.0" inkscape:pageshadow="2" inkscape:window-height="977" inkscape:window-width="1045" inkscape:window-x="-4" inkscape:window-y="-4" inkscape:zoom="0.98994949" pagecolor="#ffffff" showguides="true"/>
  <metadata id="metadata7">
    <rdf:RDF>
      <cc:Work rdf:about="">
        <dc:format>image/svg+xml</dc:format>
        <dc:type rdf:resource="http://purl.org/dc/dcmitype/StillImage"/>
      </cc:Work>
    </rdf:RDF>
  </metadata>
  
  
  
  
  
  
  
  
  
  
  
  
  
  
  
  
  
  <g id="layer6" inkscape:groupmode="layer" inkscape:label="lunge-torso" style="display:inline">
    <path d="M 221.43813,233.73924 C 205.05762,271.46471 188.45226,309.09452 171.32295,346.48672 C 168.9006,357.81881 180.36306,369.62801 191.78059,367.20097 C 225.03147,367.46202 259.29692,372.1631 291.58353,361.74111 C 312.39751,349.02538 317.86234,319.21175 306.27524,298.50302 C 298.53601,278.59229 289.69144,258.86976 286.06031,237.67813 C 283.88781,227.77828 285.297,217.06099 280.38584,207.84093 C 278.99873,198.66934 274.56463,188.74088 263.88461,189.41984 C 256.62917,187.28475 246.61163,183.53493 240.99241,190.83425 C 231.73014,203.8247 227.45524,219.16893 221.43813,233.73924 z " id="path7979" style="fill:#8e4e1e;fill-opacity:1;fill-rule:evenodd;stroke:none;stroke-width:1px;stroke-linecap:butt;stroke-linejoin:miter;stroke-opacity:1;display:inline"/>
    <path d="M 303.94631,264.24339 C 305.12176,267.51669 306.07145,270.93125 307.12316,274.26419 C 311.80998,288.34195 315.30929,302.78637 317.77701,317.44636 C 322.07403,342.34636 305.52647,356.75384 284.105,365.37489 C 263.56773,372.83853 241.53895,373.09453 220.01835,373.28657 C 204.06915,372.28004 186.96856,375.92925 171.63343,370.275 C 158.30854,359.77695 168.45737,340.01604 173.86345,327.38178 C 178.70926,316.33249 184.25278,305.63393 189.94941,295.03628 L 203.69626,291.19261 C 197.97958,301.66027 192.42818,312.23506 187.50808,323.13405 C 183.29949,332.6663 172.67151,350.73881 181.63296,359.36204 C 196.75914,363.56612 213.02529,360.4847 228.47582,361.46142 C 249.56703,361.22864 271.27717,360.76971 291.11702,352.49555 C 297.65137,349.42475 305.56928,350.01103 305.02923,324.25915 C 302.75479,309.8474 299.30908,295.66659 294.57958,281.89772 C 293.7475,279.40387 291.91356,274.20768 291.54028,272.5859 L 303.94631,264.24339 z " id="path2192" style="fill:#000000;fill-opacity:1;fill-rule:nonzero;stroke:none;stroke-width:1px;stroke-linecap:butt;stroke-linejoin:miter;stroke-opacity:1;display:inline"/>
  </g>
  
  
  
  
  
  
  
  
</svg>
