<?xml version="1.0" ?>
<!-- Created with Inkscape (http://www.inkscape.org/) --><svg height="1052.3622047" id="svg2" inkscape:export-filename="C:\Documents and Settings\Cowbert\Desktop\euphorion-sword-standing.png" inkscape:export-xdpi="90" inkscape:export-ydpi="90" inkscape:version="0.43" sodipodi:docbase="C:\Documents and Settings\Cowbert\Desktop" sodipodi:docname="euphorion.svg" sodipodi:version="0.32" width="744.09448819" xmlns="http://www.w3.org/2000/svg" xmlns:cc="http://web.resource.org/cc/" xmlns:dc="http://purl.org/dc/elements/1.1/" xmlns:inkscape="http://www.inkscape.org/namespaces/inkscape" xmlns:rdf="http://www.w3.org/1999/02/22-rdf-syntax-ns#" xmlns:sodipodi="http://inkscape.sourceforge.net/DTD/sodipodi-0.dtd" xmlns:svg="http://www.w3.org/2000/svg">
  <defs id="defs4"/>
  <sodipodi:namedview bordercolor="#666666" borderopacity="1.0" id="base" inkscape:current-layer="layer11" inkscape:cx="245.01094" inkscape:cy="850.88094" inkscape:document-units="px" inkscape:guide-bbox="true" inkscape:pageopacity="0.0" inkscape:pageshadow="2" inkscape:window-height="977" inkscape:window-width="1045" inkscape:window-x="-4" inkscape:window-y="-4" inkscape:zoom="0.98994949" pagecolor="#ffffff" showguides="true"/>
  <metadata id="metadata7">
    <rdf:RDF>
      <cc:Work rdf:about="">
        <dc:format>image/svg+xml</dc:format>
        <dc:type rdf:resource="http://purl.org/dc/dcmitype/StillImage"/>
      </cc:Work>
    </rdf:RDF>
  </metadata>
  
  
  
  
  
  
  
  <g id="layer22" inkscape:groupmode="layer" inkscape:label="lunge-sword" style="display:inline">
    <path d="M 459.29961,210.97663 C 458.60208,196.67391 465.52086,174.078 479.85043,172.43076 C 493.55283,172.00759 489.52843,190.31897 497.49151,195.60023 C 519.07652,210.77222 546.35556,206.59213 570.92494,206.16898 C 581.85011,204.89639 592.96416,208.41663 603.56977,207.25233 C 623.78789,201.71738 645.35949,209.97989 659.78933,225.00473 C 668.78463,233.80586 676.19956,244.16495 682.99241,254.83344 C 691.48688,261.17064 699.16227,272.66808 696.32214,283.92032 C 690.68975,293.55307 679.84964,283.86082 672.35344,282.82617 C 621.17754,274.61421 568.0365,278.90315 518.32203,261.81267 C 508.89169,252.98529 494.81428,257.43327 487.37152,266.78029 C 481.25564,272.20845 471.30002,287.28262 463.75745,281.14608 C 463.94359,264.19712 460.00526,262.66538 450.86765,250.60074 C 443.51035,243.15967 431.27031,236.56677 459.56052,231.72953 C 474.31546,226.29504 453.64284,213.69329 459.29961,210.97663 z " id="path2457" sodipodi:nodetypes="ccccccccccccccc" style="fill:#c5c5c5;fill-opacity:1;fill-rule:evenodd;stroke:none;stroke-width:1px;stroke-linecap:butt;stroke-linejoin:miter;stroke-opacity:1;display:inline"/>
    <path d="M 463.95766,222.99576 C 462.44001,222.45964 460.97826,221.69246 459.50331,221.02442 C 456.0544,219.44025 453.79809,216.62769 451.51452,213.67782 C 449.16656,209.60577 449.586,205.80607 450.61519,201.42766 C 452.52153,196.36443 455.45073,191.80912 458.28413,187.26364 C 461.637,182.12894 464.62563,176.77968 467.27708,171.22729 C 469.46361,161.52316 479.84283,158.51743 485.36173,155.64378 C 489.35847,158.91111 490.5536,163.94199 491.88735,168.81844 C 493.41108,175.73206 494.85537,182.65916 496.56654,189.52675 C 497.58652,193.72995 499.26693,197.68529 500.98731,201.61537 L 488.69279,209.80901 C 486.82772,205.62571 484.99767,201.41708 483.84714,196.94676 C 482.08869,190.06916 480.56692,183.1373 479.1001,176.18698 C 478.28442,173.14584 477.55272,168.91878 475.4919,166.98343 C 481.71497,162.96824 487.99414,155.83488 481.31867,166.96636 C 478.69938,172.7007 475.92812,178.34774 472.48139,183.60952 C 469.7528,187.95777 466.95803,192.27304 464.62223,196.86752 C 463.53244,199.73585 461.44759,201.5095 461.02747,204.98525 C 460.53751,209.51817 460.20574,213.44374 471.53826,215.68139 L 463.95766,222.99576 z " id="path2442" sodipodi:nodetypes="cccccccccccccccccccc" style="fill:#000000;fill-opacity:1;fill-rule:nonzero;stroke:none;stroke-width:1px;stroke-linecap:butt;stroke-linejoin:miter;stroke-opacity:1;display:inline"/>
    <path d="M 499.37766,196.94725 C 501.81487,197.60247 504.41916,197.69818 506.93333,197.96769 C 519.81332,199.22435 532.74419,199.7085 545.67081,200.08807 C 562.24567,200.50132 578.8252,200.65356 595.40288,200.89865 C 609.27899,201.10635 623.15481,201.37906 637.03269,201.26839 C 642.57298,201.24358 648.1047,200.96131 653.63411,200.63073 L 645.16233,212.83293 C 639.5824,213.10401 633.99997,213.3041 628.4127,213.29961 C 614.52769,213.30578 600.64572,212.99973 586.76273,212.78324 C 570.17517,212.5203 553.58557,212.35835 537.00121,211.91595 C 523.93945,211.52198 510.875,211.012 497.85409,209.82539 C 495.53292,209.60469 492.64497,209.0873 490.53444,209.23244 L 499.37766,196.94725 z " id="path2444" style="fill:#000000;fill-opacity:1;fill-rule:nonzero;stroke:none;stroke-width:1px;stroke-linecap:butt;stroke-linejoin:miter;stroke-opacity:1;display:inline"/>
    <path d="M 655.02516,202.42356 C 654.32219,202.27188 657.75689,207.05707 658.56095,208.29707 C 665.74402,219.558 673.1766,230.63855 680.89485,241.51254 C 690.16127,254.51619 699.88862,267.15822 709.8261,279.61566 L 698.46616,288.52709 C 688.50113,275.98359 678.71566,263.28271 669.35743,250.24463 C 661.56887,239.36159 654.01311,228.30752 646.67811,217.09112 C 644.87234,214.39842 642.87506,211.77195 641.56438,208.77448 L 655.02516,202.42356 z " id="path2446" style="fill:#000000;fill-opacity:1;fill-rule:nonzero;stroke:none;stroke-width:1px;stroke-linecap:butt;stroke-linejoin:miter;stroke-opacity:1;display:inline"/>
    <path d="M 446.25019,243.24203 C 447.26647,243.79849 448.49443,243.71917 449.61011,243.95639 C 453.21495,243.99253 456.51009,245.00418 459.85479,246.20556 C 464.11493,248.58945 465.74525,252.56128 467.36124,257.03151 C 468.96452,262.86518 469.94658,268.85933 470.98682,274.82191 C 471.82569,280.40013 472.82748,285.92915 474.34219,291.34045 C 472.4454,289.06151 468.6778,292.99971 466.21553,294.59555 C 468.74012,289.00617 470.64807,283.13585 472.79662,277.38192 C 474.8394,271.97754 477.32751,266.77805 479.9047,261.63167 L 493.99499,257.59301 C 491.39006,262.58416 488.8513,267.61616 486.73916,272.85745 C 484.47585,278.63915 482.42019,284.50008 480.29865,290.3386 C 477.13946,298.06968 467.74283,308.73498 461.8881,299.43964 C 459.96231,293.75039 458.94975,287.83331 458.05041,281.86715 C 457.04969,276.08766 456.07948,270.28998 454.64988,264.60451 C 453.54048,261.38155 452.93217,258.61208 449.67418,257.19177 C 446.57469,256.57353 443.4685,256.06574 440.30766,255.78677 C 439.44187,255.70929 437.74814,255.06427 437.40697,255.52722 L 446.25019,243.24203 z " id="path2450" style="fill:#000000;fill-opacity:1;fill-rule:nonzero;stroke:none;stroke-width:1px;stroke-linecap:butt;stroke-linejoin:miter;stroke-opacity:1;display:inline"/>
    <path d="M 487.54907,255.77873 C 496.06414,255.73622 504.51825,256.97391 512.94097,258.12932 C 531.21203,260.73184 549.41497,263.81098 567.67917,266.46363 C 591.17201,269.78379 614.73153,272.58461 638.32257,275.03882 C 658.9557,277.13262 679.61542,278.94145 700.28217,280.63921 C 704.96213,281.02665 709.64429,281.38398 714.32612,281.74588 L 705.46384,293.45397 C 700.78644,293.07248 696.10869,292.69541 691.43311,292.28986 C 670.77735,290.51163 650.12736,288.64482 629.50413,286.49631 C 605.8637,283.98269 582.25059,281.16691 558.70309,277.84052 C 540.4085,275.19304 522.166,272.16498 503.84215,269.73557 C 495.72353,268.72137 487.43887,267.39873 479.27024,268.36647 C 472.871,270.55212 471.16944,273.09615 486.54016,261.79997 C 486.54016,261.79997 480.01718,256.81239 487.54907,255.77873 z " id="path2454" sodipodi:nodetypes="cccccccccccccc" style="fill:#000000;fill-opacity:1;fill-rule:nonzero;stroke:none;stroke-width:1px;stroke-linecap:butt;stroke-linejoin:miter;stroke-opacity:1;display:inline"/>
  </g>
  
  
  
  
  
  
  
  
  
  
  
  
  
  
  
  
  
  
</svg>
