<?xml version="1.0" ?>
<!-- Created with Inkscape (http://www.inkscape.org/) --><svg height="1052.3622047" id="svg2" inkscape:export-filename="C:\Documents and Settings\Cowbert\Desktop\euphorion-sword-standing.png" inkscape:export-xdpi="90" inkscape:export-ydpi="90" inkscape:version="0.43" sodipodi:docbase="C:\Documents and Settings\Cowbert\Desktop" sodipodi:docname="euphorion.svg" sodipodi:version="0.32" width="744.09448819" xmlns="http://www.w3.org/2000/svg" xmlns:cc="http://web.resource.org/cc/" xmlns:dc="http://purl.org/dc/elements/1.1/" xmlns:inkscape="http://www.inkscape.org/namespaces/inkscape" xmlns:rdf="http://www.w3.org/1999/02/22-rdf-syntax-ns#" xmlns:sodipodi="http://inkscape.sourceforge.net/DTD/sodipodi-0.dtd" xmlns:svg="http://www.w3.org/2000/svg">
  <defs id="defs4"/>
  <sodipodi:namedview bordercolor="#666666" borderopacity="1.0" id="base" inkscape:current-layer="layer11" inkscape:cx="245.01094" inkscape:cy="850.88094" inkscape:document-units="px" inkscape:guide-bbox="true" inkscape:pageopacity="0.0" inkscape:pageshadow="2" inkscape:window-height="977" inkscape:window-width="1045" inkscape:window-x="-4" inkscape:window-y="-4" inkscape:zoom="0.98994949" pagecolor="#ffffff" showguides="true"/>
  <metadata id="metadata7">
    <rdf:RDF>
      <cc:Work rdf:about="">
        <dc:format>image/svg+xml</dc:format>
        <dc:type rdf:resource="http://purl.org/dc/dcmitype/StillImage"/>
      </cc:Work>
    </rdf:RDF>
  </metadata>
  
  
  
  
  
  
  
  
  
  
  <g id="layer27" inkscape:groupmode="layer" inkscape:label="lunge-bow" style="display:inline">
    <path d="M 457.02976,222.15038 C 457.04018,220.30866 457.28773,218.42685 457.4293,216.5762 C 457.98888,206.83455 457.76894,197.05744 457.4615,187.30957 C 456.93071,171.40013 455.54655,155.53225 453.42513,139.76825 C 451.37162,124.75058 448.35354,109.89154 444.37202,95.298011 C 441.26923,83.937238 437.28108,72.862768 432.79878,62.015196 C 429.56086,54.211784 426.02548,46.547129 422.29705,38.984049 C 419.82518,33.972161 417.17048,29.06174 414.39577,24.224116 L 426.38522,15.749126 C 429.18499,20.691567 431.87051,25.703032 434.36136,30.821072 C 438.10385,38.507963 441.6551,46.293813 444.89771,54.222561 C 449.41879,65.278474 453.45661,76.556052 456.61047,88.117181 C 460.62933,102.92253 463.69976,117.98626 465.82066,133.21058 C 468.00107,149.09496 469.4653,165.08016 470.17867,181.10869 C 470.61165,190.91582 470.91077,200.73911 470.76707,210.55693 C 470.71259,212.20049 470.71972,214.38573 470.49054,215.79948 L 457.02976,222.15038 z " id="path21129" style="fill:#000000;fill-opacity:1;fill-rule:nonzero;stroke:none;stroke-width:1px;stroke-linecap:butt;stroke-linejoin:miter;stroke-opacity:1;display:inline"/>
    <path d="M 463.8496,243.33287 C 463.97756,244.19588 463.77602,245.06382 463.69097,245.92517 C 463.33262,249.08086 462.65391,252.17184 461.89186,255.24416 C 460.09143,261.86026 457.78375,268.31545 455.38039,274.71788 C 450.73583,287.04644 445.12895,298.95304 439.02102,310.56711 C 431.05827,325.76052 421.34737,339.86035 410.67132,353.11819 C 400.69836,365.4445 389.58474,376.70654 377.98082,387.36798 C 372.27859,392.5956 366.40416,397.61573 360.40951,402.47797 L 346.31535,404.45454 C 352.38888,399.69126 358.34456,394.76725 364.10924,389.6065 C 375.79443,379.16927 386.99863,368.12378 397.08605,356.00964 C 407.79228,343.07417 417.58043,329.30441 425.55737,314.3727 C 431.64905,303.01062 437.18157,291.31952 441.76541,279.21324 C 444.10881,272.98058 446.31508,266.68626 448.16317,260.27515 C 448.93788,257.42305 449.70516,254.56163 450.06081,251.61368 C 450.16924,251.00743 450.22397,250.12629 450.38883,249.68378 L 463.8496,243.33287 z " id="path21131" style="fill:#000000;fill-opacity:1;fill-rule:nonzero;stroke:none;stroke-width:1px;stroke-linecap:butt;stroke-linejoin:miter;stroke-opacity:1;display:inline"/>
  </g>
  
  
  
  
  
  
  
  
  
  
  
  
  
  
  
</svg>
