<?xml version="1.0" ?>
<!-- Created with Inkscape (http://www.inkscape.org/) --><svg height="1052.3622047" id="svg2" inkscape:export-filename="C:\Documents and Settings\Cowbert\Desktop\euphorion-sword-standing.png" inkscape:export-xdpi="90" inkscape:export-ydpi="90" inkscape:version="0.43" sodipodi:docbase="C:\Documents and Settings\Cowbert\Desktop" sodipodi:docname="euphorion.svg" sodipodi:version="0.32" width="744.09448819" xmlns="http://www.w3.org/2000/svg" xmlns:cc="http://web.resource.org/cc/" xmlns:dc="http://purl.org/dc/elements/1.1/" xmlns:inkscape="http://www.inkscape.org/namespaces/inkscape" xmlns:rdf="http://www.w3.org/1999/02/22-rdf-syntax-ns#" xmlns:sodipodi="http://inkscape.sourceforge.net/DTD/sodipodi-0.dtd" xmlns:svg="http://www.w3.org/2000/svg">
  <defs id="defs4"/>
  <sodipodi:namedview bordercolor="#666666" borderopacity="1.0" id="base" inkscape:current-layer="layer11" inkscape:cx="245.01094" inkscape:cy="850.88094" inkscape:document-units="px" inkscape:guide-bbox="true" inkscape:pageopacity="0.0" inkscape:pageshadow="2" inkscape:window-height="977" inkscape:window-width="1045" inkscape:window-x="-4" inkscape:window-y="-4" inkscape:zoom="0.98994949" pagecolor="#ffffff" showguides="true"/>
  <metadata id="metadata7">
    <rdf:RDF>
      <cc:Work rdf:about="">
        <dc:format>image/svg+xml</dc:format>
        <dc:type rdf:resource="http://purl.org/dc/dcmitype/StillImage"/>
      </cc:Work>
    </rdf:RDF>
  </metadata>
  
  
  
  
  
  
  
  
  
  
  
  
  
  
  
  
  
  
  
  
  <g id="layer4" inkscape:groupmode="layer" inkscape:label="lunge-arm-right" style="display:inline">
    <path d="M 100.92359,267.14995 C 92.191342,273.47345 81.083834,277.40763 75.48539,287.43887 C 71.318191,306.27478 93.42301,323.69153 110.03073,315.61653 C 141.59182,303.23125 168.62048,278.46302 203.01776,274.2378 C 218.98375,272.14148 208.92947,275.61619 221.21145,263.07049 C 234.23385,247.11116 231.69109,215.4355 211.73936,212.36755 C 191.11504,207.07737 190.7452,215.8244 173.0965,226.37638 C 148.72076,239.33155 123.55806,250.99037 100.92359,267.14995 z " id="path14305" sodipodi:nodetypes="cccccccc" style="fill:#e7d192;fill-opacity:1;fill-rule:evenodd;stroke:none;stroke-width:1px;stroke-linecap:butt;stroke-linejoin:miter;stroke-opacity:1;display:inline"/>
    <path d="M 238.51391,297.44056 C 247.62204,294.66131 248.43696,281.40551 243.00406,274.69725 C 237.81718,267.28846 229.06499,260.22627 230.71217,249.98904 C 232.88457,234.14041 243.22235,221.58471 250.18173,207.81826 C 255.09529,205.65549 265.51716,200.29219 260.63803,193.69572 C 254.19581,189.10723 245.94275,192.49278 239.18675,194.58125 C 220.81286,200.31555 203.33632,210.24342 185.27975,216.99498 C 161.63036,226.12643 138.34467,234.60008 116.07517,246.84989 C 108.35119,256.15927 110.31838,271.10101 118.27591,279.5783 C 128.92225,298.91923 148.39671,314.9853 170.66989,314.88852 C 194.31521,313.91434 215.15451,300.0223 238.51391,297.44056 z " id="path8909" sodipodi:nodetypes="ccccccccccc" style="fill:#8e4e1e;fill-opacity:1;fill-rule:evenodd;stroke:none;stroke-width:1px;stroke-linecap:butt;stroke-linejoin:miter;stroke-opacity:1;display:inline"/>
    <path d="M 118.52096,258.97639 C 118.33674,264.09528 114.1075,268.42132 109.34313,269.24865 C 100.20177,273.6998 92.073257,279.98137 83.605417,285.61261 C 83.31947,292.44299 86.102078,299.16881 90.151611,304.434 C 95.025852,310.16676 103.16296,312.84027 110.22362,310.27887 C 118.35118,308.1384 125.4761,303.3915 132.89359,299.52684 C 133.95431,294.19445 143.00009,299.12054 138.46837,302.89921 C 132.28023,311.39236 122.27275,315.07579 113.21634,319.24728 C 105.35902,322.67852 96.071177,325.04296 87.946273,321.14396 C 77.9188,316.40351 70.815346,304.93043 71.784733,293.41857 C 72.495655,284.81774 78.941168,278.1954 85.853191,274.15536 C 93.411049,269.41097 101.28674,265.16219 108.42383,259.73244 C 111.79555,258.74792 116.716,264.50004 118.52096,258.97639 z " id="path14215" style="fill:#000000;fill-opacity:1;fill-rule:nonzero;stroke:none;stroke-width:1px;stroke-linecap:butt;stroke-linejoin:miter;stroke-opacity:1"/>
    <path d="M 101.61675,281.49813 C 102.51484,287.07336 108.87501,290.78054 113.943,288.6832 C 118.36812,287.58714 122.32938,285.09798 125.93638,282.29747 C 123.05132,284.38719 120.24247,286.58657 117.38729,288.71932 C 122.23118,288.0463 127.07488,287.37202 131.91868,286.69837 C 125.24988,291.84515 118.74881,297.68611 110.67973,300.32718 C 104.30565,302.67448 96.342812,301.00248 92.153815,295.25216 C 90.677043,293.39216 89.52611,291.27391 88.613953,289.0639 C 88.797592,286.95244 90.995428,286.15592 92.660363,285.60565 C 95.75833,284.51352 98.58236,282.75077 101.61675,281.49813 z " id="path14229" style="fill:#000000;fill-opacity:1;fill-rule:nonzero;stroke:none;stroke-width:1px;stroke-linecap:butt;stroke-linejoin:miter;stroke-opacity:1"/>
    <path d="M 236.56208,200.7223 C 237.88617,201.27984 236.14463,201.52679 235.93735,201.92626 C 233.86806,202.94494 231.80658,203.98762 229.74133,205.01856 C 226.19426,206.8503 222.56165,208.49187 218.96704,210.21832 C 214.69882,212.24615 210.44668,214.30988 206.17619,216.3326 C 201.18094,218.69494 196.14038,220.95149 191.06114,223.11249 C 185.87201,225.31636 180.63289,227.3884 175.35959,229.36504 C 170.43839,231.26012 165.45516,232.97412 160.44269,234.58974 C 154.99482,236.29884 149.50941,237.87565 144.0144,239.41292 C 139.1644,240.77594 134.3288,242.19384 129.49533,243.6184 C 125.36993,244.80022 121.26416,246.04794 117.19127,247.41087 C 109.7215,249.90061 102.21923,256.80377 118.33462,244.72366 C 115.60514,246.3867 114.33299,248.84485 113.42277,251.84003 C 112.88322,255.23635 114.05228,258.38795 115.31299,261.45845 C 117.24008,265.55096 120.02087,269.1039 122.77918,272.61644 C 126.04841,276.69219 129.3418,280.74715 132.62265,284.8129 C 135.71926,288.69352 138.81205,292.57611 142.0966,296.28848 C 144.80678,299.42552 147.79967,302.25645 150.95696,304.89627 C 153.63776,307.11256 156.63034,308.81472 159.73114,310.29779 C 162.8162,311.82154 166.10275,312.07083 169.45902,311.98911 C 173.4771,311.74398 177.34164,310.58876 181.11968,309.22226 C 185.5845,307.64429 189.63522,305.24543 193.38044,302.30889 C 174.13001,318.23646 190.89898,303.57977 195.21227,298.65936 C 199.00604,294.27665 202.37542,289.53411 205.61203,284.70344 C 208.6039,280.17856 211.34108,275.48156 214.07401,270.78644 C 216.37707,266.71264 218.85383,262.75137 221.62934,259.00647 C 222.16404,258.27866 222.75031,257.59433 223.31071,256.88836 L 237.62231,254.03784 C 237.04428,254.66566 236.4338,255.26256 235.88754,255.92201 C 233.01164,259.40074 230.36848,263.06493 228.13041,267.02543 C 225.34172,271.75746 222.62249,276.53542 219.68958,281.17428 C 216.47934,286.17817 213.13149,291.09419 209.4007,295.70033 C 202.90726,303.64495 195.88351,310.4109 187.13597,315.87909 C 182.91643,318.57326 178.3948,320.69714 173.63122,322.14424 C 169.42719,323.3713 165.11955,324.26381 160.72809,324.08622 C 156.80054,323.73831 152.99004,322.98725 149.46019,321.05675 C 146.10495,319.27928 142.85711,317.29533 139.94361,314.79715 C 136.64818,311.94522 133.50947,308.91503 130.65412,305.58414 C 127.34219,301.79858 124.2155,297.85006 121.074,293.91283 C 117.78306,289.83414 114.47859,285.76716 111.19328,281.68361 C 108.19463,277.88063 105.20937,274.01381 103.05102,269.61619 C 101.31228,265.83143 99.935124,261.86865 99.919814,257.62282 C 100.24543,253.61199 101.17595,249.93652 103.8808,246.88504 C 111.17886,241.33638 116.2795,236.5898 124.7169,234.48236 C 128.84206,233.20864 132.98324,231.99356 137.13061,230.79962 C 141.97069,229.40119 146.80905,227.99615 151.66553,226.65961 C 157.11034,225.11052 162.55073,223.53587 167.92279,221.73108 C 172.87418,220.04704 177.79546,218.27324 182.67988,216.38995 C 187.88878,214.38412 193.06592,212.2894 198.18908,210.05804 C 203.21726,207.83712 208.21773,205.54966 213.1714,203.15506 C 217.43735,201.09763 221.70368,199.04115 225.98048,197.00805 C 229.58656,195.30828 233.14931,193.51531 236.70313,191.70159 C 238.79937,190.63379 240.89074,189.55387 243.01713,188.55339 C 243.99697,188.34958 244.46343,187.69227 245.40529,188.43711 L 236.56208,200.7223 z " id="path21114" style="fill:#000000;fill-opacity:1;fill-rule:nonzero;stroke:none;stroke-width:1px;stroke-linecap:butt;stroke-linejoin:miter;stroke-opacity:1"/>
  </g>
  
  
  
  
  
</svg>
