<?xml version="1.0" ?>
<!-- Created with Inkscape (http://www.inkscape.org/) --><svg height="1052.3622047" id="svg2" inkscape:export-filename="C:\Documents and Settings\Cowbert\Desktop\euphorion-sword-standing.png" inkscape:export-xdpi="90" inkscape:export-ydpi="90" inkscape:version="0.43" sodipodi:docbase="C:\Documents and Settings\Cowbert\Desktop" sodipodi:docname="euphorion.svg" sodipodi:version="0.32" width="744.09448819" xmlns="http://www.w3.org/2000/svg" xmlns:cc="http://web.resource.org/cc/" xmlns:dc="http://purl.org/dc/elements/1.1/" xmlns:inkscape="http://www.inkscape.org/namespaces/inkscape" xmlns:rdf="http://www.w3.org/1999/02/22-rdf-syntax-ns#" xmlns:sodipodi="http://inkscape.sourceforge.net/DTD/sodipodi-0.dtd" xmlns:svg="http://www.w3.org/2000/svg">
  <defs id="defs4"/>
  <sodipodi:namedview bordercolor="#666666" borderopacity="1.0" id="base" inkscape:current-layer="layer11" inkscape:cx="245.01094" inkscape:cy="850.88094" inkscape:document-units="px" inkscape:guide-bbox="true" inkscape:pageopacity="0.0" inkscape:pageshadow="2" inkscape:window-height="977" inkscape:window-width="1045" inkscape:window-x="-4" inkscape:window-y="-4" inkscape:zoom="0.98994949" pagecolor="#ffffff" showguides="true"/>
  <metadata id="metadata7">
    <rdf:RDF>
      <cc:Work rdf:about="">
        <dc:format>image/svg+xml</dc:format>
        <dc:type rdf:resource="http://purl.org/dc/dcmitype/StillImage"/>
      </cc:Work>
    </rdf:RDF>
  </metadata>
  
  <g id="layer11" inkscape:groupmode="layer" inkscape:label="right-hair" style="display:inline">
    <path d="M 224.68648,289.04612 C 211.3406,275.04526 191.40361,290.23062 185.95132,305.02936 C 178.7894,316.59986 166.95767,330.02217 152.43599,326.53028 C 137.58519,318.55714 145.10341,299.00625 142.28209,285.48771 C 138.30403,267.02636 130.63406,249.01965 131.90387,229.74359 C 128.70553,204.8954 106.98333,189.27799 98.47936,166.969 C 94.332172,150.49388 96.34872,136.22151 121.90119,129.81861 C 139.4341,122.52169 161.82936,118.35793 170.60633,98.69431 C 176.51195,84.379929 188.23159,65.765678 205.81906,70.992868 C 222.50825,75.520604 235.17945,95.174186 254.02269,89.915604 C 273.57923,84.178605 286.7077,51.298016 307.57731,48.451896 C 325.21348,50.425632 309.06134,84.133002 308.20249,96.892848 C 315.71736,104.71771 350.35697,68.963664 344.55316,88.39039 C 340.99765,103.42056 323.07199,133.21875 319.05324,148.11582 C 312.07416,164.32629 309.37741,182.05484 304.49757,198.88971 C 296.11346,214.70705 277.92247,226.77225 279.78162,246.90587 C 279.19997,265.27014 277.68714,284.98466 266.80228,300.28512 C 263.91826,313.05501 260.56347,339.21643 242.3297,332.13356 C 229.18245,322.58491 230.72237,302.94905 224.68648,289.04612 z " id="path15307" sodipodi:nodetypes="ccccccccccccccccccc" style="fill:#68d9b8;fill-opacity:1;fill-rule:evenodd;stroke:none;stroke-width:1px;stroke-linecap:butt;stroke-linejoin:miter;stroke-opacity:1;display:inline"/>
    <path d="M 330.39851,119.07814 C 329.68931,119.3389 316.09147,130.31001 323.76985,122.4169 C 328.94089,116.11803 333.51549,109.27092 336.9466,101.79875 C 338.43975,97.207791 340.91255,90.838455 334.99311,90.085522 C 308.98474,103.46574 337.92988,84.371495 326.54873,93.667721 C 320.82112,99.401967 305.97067,114.24515 305.76818,98.828135 C 307.14734,88.360674 308.73309,77.947046 309.29312,67.386035 C 309.58035,58.74809 309.00252,51.393214 299.42253,54.798532 C 285.69554,64.604934 297.98632,51.830823 277.57984,74.855443 C 266.84956,87.468111 257.78864,102.70062 237.24072,97.144993 C 226.11262,91.849664 216.91683,83.361022 205.72969,78.142115 C 191.66373,70.930929 173.38327,85.01694 187.13887,75.155739 C 180.93342,80.688498 179.90335,88.700033 178.89163,96.624163 C 177.37524,109.00745 165.01837,115.00353 154.78489,119.16925 C 143.05124,123.51784 131.03896,127.00934 119.45783,131.80139 C 105.94285,140.08708 109.20668,129.86919 104.56528,147.44809 C 103.36621,159.15087 109.34766,169.24381 115.38051,178.59418 C 123.62413,189.53799 129.60424,201.60939 133.51623,214.86086 C 139.21443,236.41142 142.23576,258.61626 145.13555,280.72403 C 148.85889,293.87161 144.57963,317.17211 156.48281,326.43067 C 187.26362,314.05911 148.12483,341.89015 172.76241,316.42364 C 184.43278,302.21277 195.89209,289.26537 210.63546,278.47844 C 221.87161,273.75396 228.40662,283.5428 233.12029,292.71447 C 238.37766,304.15413 240.86813,316.6419 245.35923,328.38204 C 250.59853,341.40667 259.92934,330.11233 245.48688,340.95031 C 252.07905,334.34898 255.30254,324.8293 258.56357,316.13089 C 262.34005,305.69005 265.14572,294.91671 267.87343,284.14273 C 270.05983,275.56714 271.93378,266.91253 273.52822,258.19912 C 274.75592,251.71242 275.34207,245.13727 275.55326,238.5402 C 275.62693,235.94084 275.42616,233.35166 275.23773,230.76373 L 287.06651,224.18454 C 287.3185,226.9 287.58183,229.61558 287.54485,232.3495 C 287.42846,239.14005 286.9157,245.91134 285.71077,252.59848 C 284.13686,261.4046 282.28294,270.15337 280.07636,278.8141 C 277.33329,289.68989 274.52927,300.56613 270.85798,311.15335 C 267.577,320.33157 264.13177,329.67462 258.49044,337.61049 C 246.45385,346.94906 240.94572,350.82127 234.19763,335.75557 C 229.7455,324.08198 227.28633,311.6768 222.13482,300.27665 C 218.08935,292.39893 212.91076,284.08712 203.70944,290.16555 C 225.1082,273.77076 188.07557,305.84471 185.39118,312.8984 C 175.60656,323.44065 161.6616,340.51401 146.48057,335.53023 C 134.23529,323.89698 137.15239,302.55841 133.9233,287.06666 C 131.11355,265.15234 128.06249,243.1588 122.3753,221.81713 C 118.54904,208.90922 112.69546,197.19005 104.6502,186.53688 C 98.131434,176.44355 91.984279,165.64703 92.510789,153.0725 C 95.44413,135.39438 111.91409,126.82145 126.87317,120.58947 C 138.54825,115.98998 150.60267,112.52929 162.23222,107.80823 C 181.95374,98.481596 153.68961,120.15602 166.71371,102.32266 C 167.99184,93.908993 168.54691,85.201396 174.26304,78.491039 C 187.96921,67.922221 198.46256,60.785032 215.21654,68.678533 C 226.27371,73.857191 235.21772,82.688899 246.48479,87.358607 C 259.84674,90.481888 266.00087,80.977199 252.38092,91.429836 C 247.62188,95.08219 264.21674,83.698909 265.02324,78.49484 C 277.0326,64.749591 290.30278,50.614706 307.17247,43.630023 C 318.60769,41.960438 321.62006,50.831276 321.16008,61.369887 C 320.71539,71.930802 319.33598,82.375945 317.83506,92.825217 C 317.37589,96.082159 304.52413,104.60248 313.59881,96.892412 C 322.10302,89.508788 332.04528,79.73886 343.85763,79.652614 C 351.6433,82.13782 351.55068,89.804301 349.36933,96.875585 C 346.30751,104.78812 341.67157,111.82586 336.66212,118.56121 C 332.98524,123.24549 327.63734,131.53783 321.66703,129.8764 L 330.39851,119.07814 z " id="path1753" sodipodi:nodetypes="cccccccccccccccccccccccccccccccccccccccccccccccccccscccccccccc" style="fill:#000000;fill-opacity:1;fill-rule:nonzero;stroke:none;stroke-width:1px;stroke-linecap:butt;stroke-linejoin:miter;stroke-opacity:1;display:inline"/>
  </g>
  
  
  
  
  
  
  
  
  
  
  
  
  
  
  
  
  
  
  
  
  
  
  
  
</svg>
