<?xml version="1.0" ?>
<!-- Created with Inkscape (http://www.inkscape.org/) --><svg height="1052.3622047" id="svg2" inkscape:export-filename="C:\Documents and Settings\Cowbert\Desktop\euphorion-sword-standing.png" inkscape:export-xdpi="90" inkscape:export-ydpi="90" inkscape:version="0.43" sodipodi:docbase="C:\Documents and Settings\Cowbert\Desktop" sodipodi:docname="euphorion.svg" sodipodi:version="0.32" width="744.09448819" xmlns="http://www.w3.org/2000/svg" xmlns:cc="http://web.resource.org/cc/" xmlns:dc="http://purl.org/dc/elements/1.1/" xmlns:inkscape="http://www.inkscape.org/namespaces/inkscape" xmlns:rdf="http://www.w3.org/1999/02/22-rdf-syntax-ns#" xmlns:sodipodi="http://inkscape.sourceforge.net/DTD/sodipodi-0.dtd" xmlns:svg="http://www.w3.org/2000/svg">
  <defs id="defs4"/>
  <sodipodi:namedview bordercolor="#666666" borderopacity="1.0" id="base" inkscape:current-layer="layer11" inkscape:cx="245.01094" inkscape:cy="850.88094" inkscape:document-units="px" inkscape:guide-bbox="true" inkscape:pageopacity="0.0" inkscape:pageshadow="2" inkscape:window-height="977" inkscape:window-width="1045" inkscape:window-x="-4" inkscape:window-y="-4" inkscape:zoom="0.98994949" pagecolor="#ffffff" showguides="true"/>
  <metadata id="metadata7">
    <rdf:RDF>
      <cc:Work rdf:about="">
        <dc:format>image/svg+xml</dc:format>
        <dc:type rdf:resource="http://purl.org/dc/dcmitype/StillImage"/>
      </cc:Work>
    </rdf:RDF>
  </metadata>
  
  
  
  
  
  
  
  
  
  <g id="layer28" inkscape:groupmode="layer" inkscape:label="stand-bow" style="display:inline">
    <path d="M 326.47755,333.6868 C 323.92466,325.95408 337.91006,322.54695 343.89973,318.87738 C 371.21601,298.28439 328.64432,334.20744 359.91109,306.33555 C 375.25394,292.32451 388.93348,276.58225 400.85208,259.57811 C 413.58137,240.95528 424.05251,220.87532 432.88414,200.14239 C 438.28331,187.36246 442.74843,174.20807 446.20752,160.77509 L 461.93636,155.06823 C 458.53588,168.78118 454.09348,182.21306 448.67801,195.26525 C 439.88104,216.3199 429.41922,236.70559 416.84206,255.76567 C 405.07281,273.10825 391.57625,289.20804 376.36512,303.64974 C 364.09688,315.17924 350.61987,325.38021 336.24676,334.15411 C 323.10629,342.16709 340.66815,334.96973 337.24344,327.93708 L 326.47755,333.6868 z " id="path23111" sodipodi:nodetypes="ccccccccccccc" style="fill:#000000;fill-opacity:1;fill-rule:nonzero;stroke:none;stroke-width:1px;stroke-linecap:butt;stroke-linejoin:miter;stroke-opacity:1"/>
    <path d="M 450.52804,162.41779 L 66.670068,393.74272" id="path23113" style="fill:none;fill-opacity:0.75;fill-rule:evenodd;stroke:#000000;stroke-width:1px;stroke-linecap:butt;stroke-linejoin:miter;stroke-opacity:1"/>
    <path d="M 313.58828,342.73477 C 306.39103,349.78139 303.57715,350.76789 296.84031,354.24719 C 290.66157,357.47573 284.37867,360.50549 278.08183,363.49685 C 266.89831,368.79096 255.74113,374.14623 244.20621,378.64083 C 228.85524,384.44553 212.96089,388.66001 196.94325,392.15951 C 181.0418,395.57502 164.94854,398.01407 148.80117,399.91489 C 134.80927,401.60582 120.75506,402.63634 106.67081,403.06825 C 94.998027,403.42041 83.324756,403.18465 71.680112,402.33315 C 65.115476,401.82456 58.589258,400.94936 52.088572,399.92012 L 62.928018,386.81132 C 69.298044,387.75827 75.689766,388.56836 82.117882,389.00503 C 93.597116,389.73356 105.10131,389.87133 116.59848,389.48184 C 130.53601,388.94418 144.44294,387.84471 158.28708,386.12609 C 174.28172,384.16181 190.22178,381.66247 205.94996,378.12519 C 221.76859,374.5137 237.46719,370.17591 252.52454,364.07471 C 263.93924,359.36833 275.02895,353.9283 286.16404,348.60501 C 292.44277,345.53379 298.70768,342.42526 304.82224,339.03603 C 310.51289,335.76121 318.47784,329.34604 296.53294,345.76665 L 313.58828,342.73477 z " id="path23115" style="fill:#000000;fill-opacity:1;fill-rule:nonzero;stroke:none;stroke-width:1px;stroke-linecap:butt;stroke-linejoin:miter;stroke-opacity:1"/>
  </g>
  
  
  
  
  
  
  
  
  
  
  
  
  
  
  
  
</svg>
