<?xml version="1.0" ?>
<!-- Created with Inkscape (http://www.inkscape.org/) --><svg height="1052.3622047" id="svg2" inkscape:export-filename="C:\Documents and Settings\Cowbert\Desktop\euphorion-sword-standing.png" inkscape:export-xdpi="90" inkscape:export-ydpi="90" inkscape:version="0.43" sodipodi:docbase="C:\Documents and Settings\Cowbert\Desktop" sodipodi:docname="euphorion.svg" sodipodi:version="0.32" width="744.09448819" xmlns="http://www.w3.org/2000/svg" xmlns:cc="http://web.resource.org/cc/" xmlns:dc="http://purl.org/dc/elements/1.1/" xmlns:inkscape="http://www.inkscape.org/namespaces/inkscape" xmlns:rdf="http://www.w3.org/1999/02/22-rdf-syntax-ns#" xmlns:sodipodi="http://inkscape.sourceforge.net/DTD/sodipodi-0.dtd" xmlns:svg="http://www.w3.org/2000/svg">
  <defs id="defs4"/>
  <sodipodi:namedview bordercolor="#666666" borderopacity="1.0" id="base" inkscape:current-layer="layer11" inkscape:cx="245.01094" inkscape:cy="850.88094" inkscape:document-units="px" inkscape:guide-bbox="true" inkscape:pageopacity="0.0" inkscape:pageshadow="2" inkscape:window-height="977" inkscape:window-width="1045" inkscape:window-x="-4" inkscape:window-y="-4" inkscape:zoom="0.98994949" pagecolor="#ffffff" showguides="true"/>
  <metadata id="metadata7">
    <rdf:RDF>
      <cc:Work rdf:about="">
        <dc:format>image/svg+xml</dc:format>
        <dc:type rdf:resource="http://purl.org/dc/dcmitype/StillImage"/>
      </cc:Work>
    </rdf:RDF>
  </metadata>
  
  
  
  
  
  
  
  
  
  
  
  
  
  
  <g id="layer31" inkscape:groupmode="layer" inkscape:label="stand-pants-right" style="display:inline">
    <path d="M 149.36953,430.14603 C 149.59051,432.9535 146.81729,436.97907 145.52746,440.32054 C 143.86904,444.61688 141.88255,447.46604 140.83161,451.82214 C 139.93716,455.52959 139.96192,460.40719 141.25851,463.76612 C 141.82128,465.22407 147.51021,467.44766 148.94262,468.18981 C 151.90487,469.72463 155.04001,469.51693 158.33432,469.51693 C 164.02626,469.51693 169.71819,469.51693 175.41016,469.51693 C 178.91735,469.51693 182.25828,468.63219 185.65562,468.63219 C 187.64514,468.63219 190.46434,467.65973 192.05905,466.42033 C 194.7819,464.30419 196.38408,464.8683 198.4625,461.99665 C 200.41219,459.30284 202.55177,460.1572 204.01213,457.13058 C 205.18018,454.7098 204.624,449.93462 204.01213,447.39845 C 202.71707,442.03043 199.61005,438.41312 195.90112,434.56971 C 191.77951,430.29871 185.69027,427.65123 180.10601,425.72234 C 176.35181,424.42556 171.87828,424.39523 167.72602,424.39523 C 164.92194,424.39523 161.88862,425.4651 159.18812,426.16471 C 156.67658,426.81534 154.70645,427.43632 152.78469,427.93417 C 151.62603,428.23434 151.24519,429.36857 149.36953,430.14603 z " id="path16645" style="fill:#874a1c;fill-opacity:1;fill-rule:evenodd;stroke:none;stroke-width:1px;stroke-linecap:butt;stroke-linejoin:miter;stroke-opacity:1;display:inline"/>
    <path d="M 164.23134,358.00214 C 151.94986,373.45307 139.75348,389.96652 135.13627,409.51785 C 134.65103,418.44364 142.10336,425.51958 149.77573,428.72207 C 170.27624,440.52094 192.54433,449.22738 215.37676,455.23767 C 224.5093,456.1331 234.85162,449.78382 235.23148,439.97059 C 236.94965,427.23758 227.64105,413.4441 227.90529,400.73445 C 226.48315,384.97057 228.7297,369.35827 218.15195,356.80218 C 207.15412,345.74709 188.53266,345.16521 175.75853,353.44111 C 172.00161,355.16246 168.21768,356.87517 164.23134,358.00214 z " id="path24025" sodipodi:nodetypes="ccccccccc" style="fill:#30763e;fill-opacity:1;fill-rule:evenodd;stroke:none;stroke-width:1px;stroke-linecap:butt;stroke-linejoin:miter;stroke-opacity:1;display:inline"/>
    <path d="M 190.31971,348.90681 C 181.45298,350.23208 172.19558,353.96987 167.32298,361.92781 C 156.27449,375.71654 146.68848,390.91421 140.80802,407.65281 C 139.68701,415.42145 146.75443,421.21465 153.18463,423.94467 C 174.73478,434.57245 197.99773,441.66701 221.72232,445.31055 C 224.84598,444.62111 234.5732,442.87125 230.9547,448.5113 C 224.92195,448.81224 228.09276,438.91687 226.86928,434.75926 C 226.11342,426.01544 219.70535,418.71185 219.88496,409.84207 C 219.57416,404.20732 224.77421,399.05137 230.46065,400.32477 C 236.76763,402.90514 232.63013,410.53979 235.10022,415.26965 C 238.67835,424.77116 243.36493,435.28935 239.58019,445.47404 C 236.15668,455.16086 224.62062,458.6146 215.25172,457.361 C 201.85006,455.51616 188.83035,451.53903 175.87299,447.74728 C 161.14487,442.91321 146.16072,437.51282 133.72959,428.01448 C 126.38583,422.32721 126.22475,411.62063 129.76619,403.74584 C 134.08399,394.54877 139.19532,385.71791 144.34643,376.95872 C 150.31357,367.49148 156.73923,357.96181 165.32785,350.69346 C 172.20479,346.12755 181.8444,343.25025 189.43924,347.7356 L 189.97429,348.25025 L 190.31971,348.90681 L 190.31971,348.90681 z " id="path16374" style="fill:#000000;fill-opacity:1;fill-rule:nonzero;stroke:none;stroke-width:1px;stroke-linecap:butt;stroke-linejoin:miter;stroke-opacity:1;display:inline"/>
    <path d="M 146.42907,436.2222 C 149.65708,429.56971 161.13438,425.40051 155.66736,429.47284 C 153.83758,433.33486 152.3682,437.37248 150.9062,441.39625 C 149.21287,446.04275 147.56831,450.70603 147.42682,455.69154 C 148.49267,460.60409 153.17825,462.2961 157.38322,463.64303 C 164.15789,465.41588 171.19342,464.99194 178.06088,464.11955 C 184.38007,463.14756 190.43026,460.99641 196.11627,458.02059 C 200.57387,455.39766 209.53715,448.21448 191.37226,461.84346 C 189.28889,463.40657 195.33792,458.3521 196.79753,456.15749 L 210.84097,452.25476 C 206.35417,461.28865 198.07927,467.11375 189.17694,471.1869 C 182.99765,473.82392 176.55117,475.75516 169.87152,476.38715 C 162.42527,476.99512 154.84573,477.1065 147.65443,474.696 C 141.81434,472.41758 136.31524,469.17395 134.47927,462.55803 C 133.62536,456.82475 135.18449,451.42519 137.12568,446.06426 C 138.54022,441.94358 140.04765,437.85974 141.59139,433.78945 C 143.70883,427.29614 143.32927,428.42208 153.42213,422.7183 L 146.42907,436.2222 z " id="path16380" style="fill:#000000;fill-opacity:1;fill-rule:nonzero;stroke:none;stroke-width:1px;stroke-linecap:butt;stroke-linejoin:miter;stroke-opacity:1;display:inline"/>
  </g>
  
  
  
  
  
  
  
  
  
  
  
</svg>
