<?xml version="1.0" ?>
<!-- Created with Inkscape (http://www.inkscape.org/) --><svg height="1052.3622047" id="svg2" inkscape:export-filename="C:\Documents and Settings\Cowbert\Desktop\euphorion-sword-standing.png" inkscape:export-xdpi="90" inkscape:export-ydpi="90" inkscape:version="0.43" sodipodi:docbase="C:\Documents and Settings\Cowbert\Desktop" sodipodi:docname="euphorion.svg" sodipodi:version="0.32" width="744.09448819" xmlns="http://www.w3.org/2000/svg" xmlns:cc="http://web.resource.org/cc/" xmlns:dc="http://purl.org/dc/elements/1.1/" xmlns:inkscape="http://www.inkscape.org/namespaces/inkscape" xmlns:rdf="http://www.w3.org/1999/02/22-rdf-syntax-ns#" xmlns:sodipodi="http://inkscape.sourceforge.net/DTD/sodipodi-0.dtd" xmlns:svg="http://www.w3.org/2000/svg">
  <defs id="defs4"/>
  <sodipodi:namedview bordercolor="#666666" borderopacity="1.0" id="base" inkscape:current-layer="layer11" inkscape:cx="245.01094" inkscape:cy="850.88094" inkscape:document-units="px" inkscape:guide-bbox="true" inkscape:pageopacity="0.0" inkscape:pageshadow="2" inkscape:window-height="977" inkscape:window-width="1045" inkscape:window-x="-4" inkscape:window-y="-4" inkscape:zoom="0.98994949" pagecolor="#ffffff" showguides="true"/>
  <metadata id="metadata7">
    <rdf:RDF>
      <cc:Work rdf:about="">
        <dc:format>image/svg+xml</dc:format>
        <dc:type rdf:resource="http://purl.org/dc/dcmitype/StillImage"/>
      </cc:Work>
    </rdf:RDF>
  </metadata>
  
  
  
  
  
  
  
  
  
  
  
  
  
  
  
  
  <g id="layer29" inkscape:groupmode="layer" inkscape:label="stand-pants-crotch" style="display:inline">
    <path d="M 205,373.07648 C 199.82506,379.82557 199.52537,388.75275 199.15594,396.89082 C 199.73045,405.38464 204.79333,414.50189 213.42819,416.86414 C 219.78479,417.91839 225.60216,413.95849 229.91757,409.71423 C 238.50324,403.63193 250.64846,406.27874 258.13112,412.93053 C 261.91974,416.52688 266.98964,419.1323 272.33927,418.56467 C 277.33948,418.28868 281.22649,414.5717 283.49777,410.36935 C 286.75261,404.60549 288.50568,397.95026 288.75589,391.35777 C 288.46457,382.65912 284.09597,373.41836 275.94591,369.58565 C 268.95312,367.06647 261.56743,365.90471 254.43779,363.864 C 242.06905,361.25571 228.49046,360.11674 216.72888,365.65478 C 212.64516,367.84696 209.00612,370.75649 205,373.07648 z " id="path23118" style="fill:#30763e;fill-opacity:1;fill-rule:evenodd;stroke:none;stroke-width:1px;stroke-linecap:butt;stroke-linejoin:miter;stroke-opacity:1;display:inline"/>
    <path d="M 217.84672,425.94012 C 210.64766,421.22806 214.50418,410.72149 220.75089,407.14487 C 230.7032,398.6872 244.37829,399.87932 256.21528,402.10831 C 263.65225,403.70003 272.06456,406.05982 276.67949,412.76463 C 278.97443,419.6312 267.99172,423.82028 263.55619,421.35196 C 259.13495,414.38824 249.18834,414.55372 241.85765,413.01195 C 236.2837,411.77432 227.63328,413.60445 224.14081,413.95159 C 226.31138,411.51882 232.87829,408.10609 227.24771,412.92148 C 223.98584,417.16084 221.08159,421.67945 217.84672,425.94012 z " id="path16376" style="fill:#000000;fill-opacity:1;fill-rule:nonzero;stroke:none;stroke-width:1px;stroke-linecap:butt;stroke-linejoin:miter;stroke-opacity:1;display:inline"/>
  </g>
  
  
  
  
  
  
  
  
  
</svg>
