<?xml version="1.0" ?>
<!-- Created with Inkscape (http://www.inkscape.org/) --><svg height="1052.3622047" id="svg2" inkscape:export-filename="C:\Documents and Settings\Cowbert\Desktop\euphorion-sword-standing.png" inkscape:export-xdpi="90" inkscape:export-ydpi="90" inkscape:version="0.43" sodipodi:docbase="C:\Documents and Settings\Cowbert\Desktop" sodipodi:docname="euphorion.svg" sodipodi:version="0.32" width="744.09448819" xmlns="http://www.w3.org/2000/svg" xmlns:cc="http://web.resource.org/cc/" xmlns:dc="http://purl.org/dc/elements/1.1/" xmlns:inkscape="http://www.inkscape.org/namespaces/inkscape" xmlns:rdf="http://www.w3.org/1999/02/22-rdf-syntax-ns#" xmlns:sodipodi="http://inkscape.sourceforge.net/DTD/sodipodi-0.dtd" xmlns:svg="http://www.w3.org/2000/svg">
  <defs id="defs4"/>
  <sodipodi:namedview bordercolor="#666666" borderopacity="1.0" id="base" inkscape:current-layer="layer11" inkscape:cx="245.01094" inkscape:cy="850.88094" inkscape:document-units="px" inkscape:guide-bbox="true" inkscape:pageopacity="0.0" inkscape:pageshadow="2" inkscape:window-height="977" inkscape:window-width="1045" inkscape:window-x="-4" inkscape:window-y="-4" inkscape:zoom="0.98994949" pagecolor="#ffffff" showguides="true"/>
  <metadata id="metadata7">
    <rdf:RDF>
      <cc:Work rdf:about="">
        <dc:format>image/svg+xml</dc:format>
        <dc:type rdf:resource="http://purl.org/dc/dcmitype/StillImage"/>
      </cc:Work>
    </rdf:RDF>
  </metadata>
  
  
  
  
  
  
  
  
  
  
  
  
  
  
  
  
  
  
  
  
  
  
  
  
  
  <g id="layer12" inkscape:groupmode="layer" inkscape:label="stand-face" style="display:inline">
    <path d="M 163.10688,132.64487 C 149.76005,146.22588 153.24543,172.65583 169.76428,181.86031 C 181.40683,181.43134 195.3045,186.96581 198.2579,199.87702 C 208.87006,227.27902 239.32528,241.71691 266.9764,232.39917 C 292.02112,225.73327 311.64717,201.70392 313.62596,174.61281 C 316.64863,163.55285 331.82396,165.34991 337.97536,157.15997 C 344.01552,144.94943 336.83517,129.96487 326.08547,123.5188 C 305.94172,106.92107 279.11753,104.47117 254.32931,103.98772 C 225.89815,102.42108 195.62026,107.43277 172.65917,126.04237 C 169.4604,128.22031 166.28922,130.44136 163.10688,132.64487 z " id="path16208" sodipodi:nodetypes="cccccccccc" style="fill:#e7d192;fill-opacity:1;fill-rule:evenodd;stroke:none;stroke-width:1px;stroke-linecap:butt;stroke-linejoin:miter;stroke-opacity:1;display:inline"/>
    <path d="M 219.19802,141.37832 C 220.48824,144.53289 225.02698,138.10071 227.70075,136.08524 C 225.33235,138.03428 224.31764,140.54936 223.49831,143.41337 C 223.87319,146.83601 224.91996,146.56938 227.61462,146.00047 C 215.45044,153.4261 222.32603,154.99345 218.74371,147.3782 C 216.29889,144.09579 213.15503,143.80475 209.43793,143.8938 C 207.91948,143.99545 207.07782,145.08323 205.96705,145.92233 L 213.01841,133.98148 C 214.6611,133.51457 216.24773,132.92358 218.00382,133.13031 C 222.72518,133.65816 226.79806,135.13115 229.70471,139.28499 C 235.14315,148.89519 230.14216,151.84975 219.58674,157.23816 C 215.17193,156.42531 212.2988,154.66953 211.46298,149.71547 C 211.56194,145.96398 212.20969,142.70097 214.65477,139.72785 L 219.19802,141.37832 z " id="path1701" sodipodi:nodetypes="cccccccccccccc" style="fill:#000000;fill-opacity:1;fill-rule:nonzero;stroke:none;stroke-width:1px;stroke-linecap:butt;stroke-linejoin:miter;stroke-opacity:1;display:inline"/>
    <path d="M 296.03922,139.60885 C 294.93321,139.50192 293.86574,139.85575 292.7917,140.04295 C 282.31921,146.90011 303.97457,128.95025 295.2878,138.35524 C 293.44541,141.10044 293.78457,142.92685 295.06534,145.53956 C 298.0083,145.05062 291.1885,150.28311 288.85869,152.20934 C 289.04059,150.58624 287.18075,150.18755 285.76135,149.53564 C 285.35268,149.40403 284.92895,149.51369 284.51617,149.50281 L 293.50824,139.04893 C 294.10428,139.24222 294.73479,139.33934 295.30164,139.63046 C 298.19385,141.2961 300.53941,143.06051 301.2772,146.6199 C 303.98031,152.76134 291.64399,160.46246 284.48992,154.22977 C 282.05184,150.64452 280.90186,147.25773 282.55444,142.89652 C 286.12063,135.71702 292.95021,133.89816 301.01075,128.93494 C 302.26436,128.87887 304.41987,130.32264 305.67675,130.374 L 296.03922,139.60885 z " id="path1705" sodipodi:nodetypes="ccccccccccccccc" style="fill:#000000;fill-opacity:1;fill-rule:nonzero;stroke:none;stroke-width:1px;stroke-linecap:butt;stroke-linejoin:miter;stroke-opacity:1;display:inline"/>
    <path d="M 272.44836,144.88507 C 273.49001,146.46328 274.50881,148.70025 275.41129,150.61601 C 277.96349,155.89999 278.96794,161.45898 278.90232,167.30024 C 277.28016,177.38157 267.77674,183.69531 258.49527,185.5537 C 252.37456,186.26104 246.66064,184.44658 241.11429,181.98632 C 238.89884,180.95013 237.00447,179.39611 235.06405,177.91744 L 245.30612,168.93797 C 247.06573,170.21188 248.7823,171.55753 250.79777,172.39212 C 255.89166,174.38963 261.08899,175.80335 266.53644,174.44 C 278.69389,169.6391 256.07861,185.89006 266.69825,173.06435 C 267.3275,167.87293 266.41873,162.99609 264.16968,158.25787 C 263.71067,157.32109 261.4584,152.98074 261.78479,153.62445 L 272.44836,144.88507 z " id="path1707" style="fill:#000000;fill-opacity:1;fill-rule:nonzero;stroke:none;stroke-width:1px;stroke-linecap:butt;stroke-linejoin:miter;stroke-opacity:1;display:inline"/>
    <path d="M 325.26949,136.36406 C 325.26764,139.0128 325.41829,141.66637 325.4029,144.32411 C 324.49725,158.36399 320.61578,172.04043 316.22491,185.29178 C 310.73465,205.33635 298.77202,217.50843 283.01232,229.44296 C 272.24205,236.43062 259.51776,238.15856 247.05116,237.32287 C 235.22567,236.5371 224.39128,231.93223 214.37491,225.64836 C 204.68749,219.35432 197.35614,210.38298 190.86543,200.78822 C 185.29068,192.35825 180.98416,183.17056 177.80163,173.51846 C 176.91203,170.82678 176.39619,168.03899 175.87905,165.25396 L 187.55182,158.54536 C 187.96383,161.18031 188.37533,163.81805 189.17633,166.3659 C 192.11451,175.75019 196.23499,184.65889 201.6054,192.82691 C 207.81593,202.03366 214.85058,210.61326 224.21688,216.53197 C 233.89325,222.42138 244.30027,226.51884 255.64358,226.97656 C 267.70035,227.19333 276.4424,227.54689 286.40772,219.92424 C 283.89568,221.85282 297.05979,213.11637 304.10933,190.2706 C 308.52607,177.40254 312.35377,164.10505 313.44728,150.44225 C 313.48805,147.84436 313.48079,145.25519 313.11694,142.68119 L 325.26949,136.36406 z " id="path1717" sodipodi:nodetypes="cccccccsccccccccccc" style="fill:#000000;fill-opacity:1;fill-rule:nonzero;stroke:none;stroke-width:1px;stroke-linecap:butt;stroke-linejoin:miter;stroke-opacity:1;display:inline"/>
    <path d="M 161.00018,148.43095 C 158.63525,157.24453 160.16724,167.74807 166.79136,174.21518 C 172.98565,179.30636 181.56789,180.24692 189.06803,178.29413 C 192.13568,175.50528 193.08999,182.5397 189.82818,182.58328 C 188.23381,185.39829 186.26646,188.76802 182.76536,189.02158 C 172.94289,191.1784 161.58282,188.92393 154.66212,180.9563 C 147.16791,171.60221 146.30252,157.89582 150.73774,146.91089 C 153.22471,140.71064 157.45196,135.22725 162.89211,131.54869 C 164.56688,127.5738 169.02524,133.55472 165.60264,135.21482 C 163.95644,138.72799 162.91672,142.51441 161.6614,146.19213 C 161.43249,146.93567 161.21147,147.68185 161.00018,148.43095 z " id="path1723" style="fill:#000000;fill-opacity:1;fill-rule:nonzero;stroke:none;stroke-width:1px;stroke-linecap:butt;stroke-linejoin:miter;stroke-opacity:1;display:inline"/>
    <path d="M 322.71002,161.54534 C 323.77051,162.57433 325.25044,162.64249 326.63357,162.96815 C 335.35688,162.85081 341.48515,155.71561 328.28381,165.47721 C 333.98003,160.67253 335.13549,154.04125 333.84701,146.90566 C 332.18595,140.07249 328.25451,134.53415 323.31872,129.84951 C 322.99919,129.57878 322.67965,129.30806 322.36012,129.03733 L 332.66082,120.18786 C 333.00569,120.49319 333.35057,120.79856 333.69546,121.10388 C 339.05319,126.36298 343.35089,132.50911 345.37247,139.97019 C 347.14203,147.98014 346.7268,155.67942 341.26754,162.13608 C 333.3238,168.27007 327.4717,175.32093 317.42406,173.18939 C 316.73456,172.98193 312.99004,171.38651 313.97805,172.34419 L 322.71002,161.54534 z " id="path1727" style="fill:#000000;fill-opacity:1;fill-rule:nonzero;stroke:none;stroke-width:1px;stroke-linecap:butt;stroke-linejoin:miter;stroke-opacity:1;display:inline"/>
    <path d="M 184.09658,126.4626 C 183.95683,122.03143 187.6731,119.06544 190.62565,116.49227 C 199.75868,108.07573 211.79143,101.85582 224.29154,103.06033 C 233.21118,103.75709 241.77924,106.76064 250.67474,107.63889 C 254.56372,106.06227 254.75061,113.24342 251.22785,113.74007 C 248.58599,115.87397 247.29839,119.29057 244.82788,121.56589 C 241.35307,123.9165 237.21459,122.06475 233.50197,121.48489 C 224.57347,119.71045 215.47425,116.97358 206.32171,118.61669 C 199.96115,119.7843 194.12343,122.84082 188.06585,125.03818 C 186.75193,125.53979 185.4304,126.02067 184.09658,126.4626 z " id="path2093" style="fill:#000000;fill-opacity:1;fill-rule:nonzero;stroke:none;stroke-width:1px;stroke-linecap:butt;stroke-linejoin:miter;stroke-opacity:1;display:inline"/>
    <path d="M 256.54266,132.72569 C 256.88544,127.40727 261.51111,123.81317 265.91149,121.94681 C 272.22259,117.31375 279.60671,113.02749 287.62232,113.86705 C 299.19032,114.05798 310.64892,118.97163 322.22795,116.21899 C 322.90696,113.22586 328.89698,115.36421 324.80402,117.04669 C 322.61451,117.04725 326.73943,114.92616 327.59346,115.21949 C 331.15536,114.25046 334.94552,113.94867 338.24465,112.12699 C 340.94602,115.44136 335.37357,117.23646 333.7358,119.36815 C 325.374,127.36177 314.18057,133.23243 302.54018,132.0609 C 291.79894,131.32833 280.97509,127.33942 270.22658,130.1295 C 266.71799,131.43669 263.30184,134.70684 259.3386,133.24634 C 258.42792,132.97357 257.49291,132.76154 256.54266,132.72569 z " id="path2099" style="fill:#000000;fill-opacity:1;fill-rule:nonzero;stroke:none;stroke-width:1px;stroke-linecap:butt;stroke-linejoin:miter;stroke-opacity:1;display:inline"/>
  </g>
</svg>
