<?xml version="1.0" ?>
<!-- Created with Inkscape (http://www.inkscape.org/) --><svg height="1052.3622047" id="svg2" inkscape:export-filename="C:\Documents and Settings\Cowbert\Desktop\euphorion-sword-standing.png" inkscape:export-xdpi="90" inkscape:export-ydpi="90" inkscape:version="0.43" sodipodi:docbase="C:\Documents and Settings\Cowbert\Desktop" sodipodi:docname="euphorion.svg" sodipodi:version="0.32" width="744.09448819" xmlns="http://www.w3.org/2000/svg" xmlns:cc="http://web.resource.org/cc/" xmlns:dc="http://purl.org/dc/elements/1.1/" xmlns:inkscape="http://www.inkscape.org/namespaces/inkscape" xmlns:rdf="http://www.w3.org/1999/02/22-rdf-syntax-ns#" xmlns:sodipodi="http://inkscape.sourceforge.net/DTD/sodipodi-0.dtd" xmlns:svg="http://www.w3.org/2000/svg">
  <defs id="defs4"/>
  <sodipodi:namedview bordercolor="#666666" borderopacity="1.0" id="base" inkscape:current-layer="layer11" inkscape:cx="245.01094" inkscape:cy="850.88094" inkscape:document-units="px" inkscape:guide-bbox="true" inkscape:pageopacity="0.0" inkscape:pageshadow="2" inkscape:window-height="977" inkscape:window-width="1045" inkscape:window-x="-4" inkscape:window-y="-4" inkscape:zoom="0.98994949" pagecolor="#ffffff" showguides="true"/>
  <metadata id="metadata7">
    <rdf:RDF>
      <cc:Work rdf:about="">
        <dc:format>image/svg+xml</dc:format>
        <dc:type rdf:resource="http://purl.org/dc/dcmitype/StillImage"/>
      </cc:Work>
    </rdf:RDF>
  </metadata>
  
  
  
  
  
  
  
  
  
  
  
  
  
  
  
  
  
  
  
  <g id="layer21" inkscape:groupmode="layer" inkscape:label="stand-arm-right" style="display:inline">
    <path d="M 198.38574,199.23447 C 151.18395,214.68073 130.90336,271.43344 136.33882,318.78765 C 145.57335,347.0206 190.91796,359.75636 209.41548,335.6897 C 224.84114,304.44432 179.74972,294.64915 223.48158,243.31178 C 239.63973,222.36507 274.91931,171.95503 198.38574,199.23447 z " id="path16591" sodipodi:nodetypes="ccccc" style="fill:#8e4e1e;fill-opacity:1;fill-rule:evenodd;stroke:none;stroke-width:1px;stroke-linecap:butt;stroke-linejoin:miter;stroke-opacity:1"/>
    <path d="M 207.38986,193.65594 C 172.58852,204.52283 150.38901,225.79256 136.78664,254.06406 C 126.81468,274.17352 124.9421,298.86049 134.02799,319.68952 C 141.14688,337.12759 157.69847,351.22036 176.49599,351.1341 C 193.10135,351.67377 211.32168,342.27221 216.49438,325.01631 C 218.66729,310.0325 209.84407,296.86623 203.7328,284.09944 C 198.37977,279.80178 190.92119,284.5676 191.48858,291.29808 C 190.43483,298.90158 197.47062,302.88584 199.94871,309.08587 C 203.92219,317.20096 204.9292,329.11498 196.9559,335.06359 C 185.81362,341.46715 171.64987,337.79015 161.81748,330.34758 C 145.51904,318.27059 140.1468,295.3602 143.33487,275.66256 C 146.27233,256.34651 156.02707,238.41078 169.58351,224.94594 C 178.75736,216.0963 196.06884,207.17162 204.32617,197.31509 C 206.08406,194.71678 206.76956,196.76855 207.38986,193.65594 z M 178.60744,216.00569 C 177.81938,216.61817 177.97157,216.49987 178.60744,216.00569 z M 177.92071,216.49835 L 177.23962,217.02768 L 177.92071,216.49835 z M 196.2512,337.69371 C 195.84449,338.04497 195.89363,338.00251 196.2512,337.69371 z M 194.66643,338.95273 C 193.87953,339.51717 193.93791,339.47532 194.66643,338.95273 z M 193.71557,339.66435 C 193.17024,340.04111 193.35339,339.91456 193.71557,339.66435 z " id="path16324" sodipodi:nodetypes="ccccccccccccccccccccccccc" style="fill:#000000;fill-opacity:1;fill-rule:nonzero;stroke:none;stroke-width:1px;stroke-linecap:butt;stroke-linejoin:miter;stroke-opacity:1;display:inline"/>
    <path d="M 144.99525,329.39764 C 131.00836,344.32914 135.54498,372.57215 155.2611,379.4854 C 173.10492,386.94993 187.12645,368.25314 194.6515,354.80367 C 194.83392,334.79245 171.1627,344.71409 160.75417,335.51314 C 155.78464,332.82928 150.69421,329.88726 144.99525,329.39764 z " id="path17540" style="fill:#e7d192;fill-opacity:1;fill-rule:evenodd;stroke:none;stroke-width:1px;stroke-linecap:butt;stroke-linejoin:miter;stroke-opacity:1"/>
    <path d="M 149.45404,324.83193 C 147.93104,331.36762 143.21311,336.526 141.76884,343.09684 C 138.35239,351.90891 141.16045,362.91038 148.68919,368.46975 C 155.65218,374.26945 165.66449,377.44929 174.20106,373.61036 C 175.23598,372.68679 179.33718,371.38031 176.36818,373.46392 C 175.15589,374.55736 173.28167,374.76954 175.3466,373.28099 C 179.02943,369.19964 180.00962,362.75827 184.91889,359.76019 C 187.41483,357.32086 192.58201,358.66228 191.45533,362.81932 C 189.7987,369.43783 184.79715,374.48404 179.68721,378.48309 C 172.25621,384.27773 162.31815,387.43503 153.18854,384.50479 C 141.63815,381.29454 131.1782,371.58496 129.19216,359.00952 C 128.01054,351.50881 130.91273,344.18491 133.61839,337.38678 C 135.20209,333.608 136.96626,329.91487 138.63916,326.17852 C 141.69341,323.33543 145.92542,325.785 149.45404,324.83193 z " id="path16535" style="fill:#000000;fill-opacity:1;fill-rule:nonzero;stroke:none;stroke-width:1px;stroke-linecap:butt;stroke-linejoin:miter;stroke-opacity:1"/>
    <path d="M 198.76029,333.85225 C 199.72097,335.30869 200.38964,336.95841 201.12673,338.5451 C 202.8106,342.04065 202.99946,345.67754 202.83088,349.48044 C 202.22868,353.86976 200.02514,357.24567 197.12422,360.35635 C 189.65205,367.35839 183.91378,370.24072 174.60964,370.94211 C 172.89178,371.05974 171.20332,370.73883 169.50915,370.52781 L 177.29806,360.51609 C 178.78831,360.5599 180.2805,360.69619 181.76704,360.45392 C 189.17559,359.22031 199.11851,352.47894 184.8304,362.15834 C 187.65034,359.96522 190.1434,357.75751 191.22744,354.12129 C 191.7029,351.07892 191.94577,348.31746 190.57758,345.41743 C 190.26249,344.74623 188.50836,341.29557 188.99159,342.01451 L 198.76029,333.85225 z " id="path16527" style="fill:#000000;fill-opacity:1;fill-rule:nonzero;stroke:none;stroke-width:1px;stroke-linecap:butt;stroke-linejoin:miter;stroke-opacity:1"/>
  </g>
  
  
  
  
  
  
</svg>
