<?xml version="1.0" ?>
<!-- Created with Inkscape (http://www.inkscape.org/) --><svg height="1052.3622047" id="svg2" inkscape:export-filename="C:\Documents and Settings\Cowbert\Desktop\euphorion-sword-standing.png" inkscape:export-xdpi="90" inkscape:export-ydpi="90" inkscape:version="0.43" sodipodi:docbase="C:\Documents and Settings\Cowbert\Desktop" sodipodi:docname="euphorion.svg" sodipodi:version="0.32" width="744.09448819" xmlns="http://www.w3.org/2000/svg" xmlns:cc="http://web.resource.org/cc/" xmlns:dc="http://purl.org/dc/elements/1.1/" xmlns:inkscape="http://www.inkscape.org/namespaces/inkscape" xmlns:rdf="http://www.w3.org/1999/02/22-rdf-syntax-ns#" xmlns:sodipodi="http://inkscape.sourceforge.net/DTD/sodipodi-0.dtd" xmlns:svg="http://www.w3.org/2000/svg">
  <defs id="defs4"/>
  <sodipodi:namedview bordercolor="#666666" borderopacity="1.0" id="base" inkscape:current-layer="layer11" inkscape:cx="245.01094" inkscape:cy="850.88094" inkscape:document-units="px" inkscape:guide-bbox="true" inkscape:pageopacity="0.0" inkscape:pageshadow="2" inkscape:window-height="977" inkscape:window-width="1045" inkscape:window-x="-4" inkscape:window-y="-4" inkscape:zoom="0.98994949" pagecolor="#ffffff" showguides="true"/>
  <metadata id="metadata7">
    <rdf:RDF>
      <cc:Work rdf:about="">
        <dc:format>image/svg+xml</dc:format>
        <dc:type rdf:resource="http://purl.org/dc/dcmitype/StillImage"/>
      </cc:Work>
    </rdf:RDF>
  </metadata>
  
  
  
  
  
  
  
  
  
  
  
  
  
  
  
  
  
  
  
  
  
  
  
  
  <g id="layer19" inkscape:groupmode="layer" inkscape:label="stand-armor" style="display:inline">
    <path d="M 193.68991,192.59891 C 162.95468,198.71695 165.01505,236.33674 175.28798,259.05547 C 183.15906,283.86672 190.67232,314.22795 213.01405,328.74577 C 235.59872,335.45521 272.89789,339.76376 280.43795,309.08111 C 287.96234,280.97514 302.91602,255.04041 306.68003,225.9647 C 306.39204,188.84992 259.49587,172.47657 230.51459,186.06723 C 218.78121,190.89729 205.95231,190.40071 193.68991,192.59891 z " id="path20216" style="fill:#c5c5c5;fill-opacity:1;fill-rule:evenodd;stroke:none;stroke-width:1px;stroke-linecap:butt;stroke-linejoin:miter;stroke-opacity:1"/>
    <path d="M 197.72881,191.90798 C 169.05971,212.88462 219.45402,176.75558 186.35751,200.33976 C 174.96726,208.69019 195.95681,192.16726 185.15959,201.33798 C 179.9838,205.89051 176.64538,211.60699 175.07796,218.40422 C 173.82132,228.85515 177.10091,239.14302 180.2927,248.93014 C 184.7353,261.97823 189.67906,274.83579 194.41343,287.77203 C 198.82316,298.16691 200.29169,310.37416 207.86363,318.94634 C 215.06449,324.99365 224.42729,325.24894 233.29219,325.25371 C 242.36974,324.79885 251.41754,324.20228 260.50779,324.53781 C 283.94182,319.82322 259.92838,336.83562 267.80053,322.3119 C 272.9357,309.93886 277.09992,297.14626 281.46184,284.4618 C 286.27564,270.3599 290.86302,256.16648 294.49876,241.68453 C 297.05153,231.79069 298.74126,221.70018 299.07809,211.46341 C 299.30449,205.96644 298.41989,200.68948 296.37675,195.64854 L 306.7934,188.68438 C 309.17965,194.26348 310.45888,200.0834 310.29167,206.24107 C 310.10015,216.79306 308.51934,227.21193 305.90661,237.41599 C 302.30538,252.02206 297.72232,266.32995 292.91143,280.55061 C 288.58303,293.31833 284.26832,306.10074 279.54373,318.71672 C 274.54175,330.43154 265.08227,336.47041 253.05148,334.65494 C 244.00764,334.44918 235.00761,335.26472 225.96934,335.40657 C 216.06552,335.1354 205.99557,334.07915 198.31587,326.89581 C 190.50127,317.67721 188.345,305.4374 184.0456,294.25513 C 179.32146,281.27103 174.35805,268.37945 169.82873,255.3205 C 166.37839,244.95265 162.98329,234.188 163.64575,223.08415 C 164.7612,215.53115 167.64554,208.84393 172.95933,203.40705 C 178.73574,197.7997 185.16921,192.93702 192.00934,188.80714 C 168.69879,206.70369 212.04241,173.73733 185.3728,194.1841 L 197.72881,191.90798 z " id="path16505" style="fill:#000000;fill-opacity:1;fill-rule:nonzero;stroke:none;stroke-width:1px;stroke-linecap:butt;stroke-linejoin:miter;stroke-opacity:1"/>
  </g>
  
</svg>
