<?xml version="1.0" ?>
<!-- Created with Inkscape (http://www.inkscape.org/) --><svg height="1052.3622047" id="svg2" inkscape:export-filename="C:\Documents and Settings\Cowbert\Desktop\euphorion-sword-standing.png" inkscape:export-xdpi="90" inkscape:export-ydpi="90" inkscape:version="0.43" sodipodi:docbase="C:\Documents and Settings\Cowbert\Desktop" sodipodi:docname="euphorion.svg" sodipodi:version="0.32" width="744.09448819" xmlns="http://www.w3.org/2000/svg" xmlns:cc="http://web.resource.org/cc/" xmlns:dc="http://purl.org/dc/elements/1.1/" xmlns:inkscape="http://www.inkscape.org/namespaces/inkscape" xmlns:rdf="http://www.w3.org/1999/02/22-rdf-syntax-ns#" xmlns:sodipodi="http://inkscape.sourceforge.net/DTD/sodipodi-0.dtd" xmlns:svg="http://www.w3.org/2000/svg">
  <defs id="defs4"/>
  <sodipodi:namedview bordercolor="#666666" borderopacity="1.0" id="base" inkscape:current-layer="layer11" inkscape:cx="245.01094" inkscape:cy="850.88094" inkscape:document-units="px" inkscape:guide-bbox="true" inkscape:pageopacity="0.0" inkscape:pageshadow="2" inkscape:window-height="977" inkscape:window-width="1045" inkscape:window-x="-4" inkscape:window-y="-4" inkscape:zoom="0.98994949" pagecolor="#ffffff" showguides="true"/>
  <metadata id="metadata7">
    <rdf:RDF>
      <cc:Work rdf:about="">
        <dc:format>image/svg+xml</dc:format>
        <dc:type rdf:resource="http://purl.org/dc/dcmitype/StillImage"/>
      </cc:Work>
    </rdf:RDF>
  </metadata>
  
  
  
  
  
  
  
  
  
  
  
  
  
  
  
  <g id="layer30" inkscape:groupmode="layer" inkscape:label="stand-pant-left" style="display:inline">
    <path d="M 328.54667,432.68358 C 341.63299,441.547 343.3365,466.53043 324.1372,468.28785 C 307.81657,472.34017 290.87733,465.01572 277.31705,456.45949 C 261.75675,444.08359 274.84211,421.78776 291.71615,421.02782 C 304.93948,418.29206 319.25129,422.31768 328.54667,432.68358 z " id="path16649" style="fill:#8e4e1e;fill-opacity:1;fill-rule:evenodd;stroke:none;stroke-width:1px;stroke-linecap:butt;stroke-linejoin:miter;stroke-opacity:1;display:inline"/>
    <path d="M 276.19949,438.84625 C 275.99946,439.66244 276.32337,440.474 276.38482,441.28138 C 276.78446,443.70164 277.9185,445.75264 279.0826,447.83353 C 281.33406,451.14091 284.6073,453.1094 288.0172,454.89433 C 293.17334,457.30689 298.69916,458.61078 304.21101,459.80158 C 310.12277,461.08567 316.1321,461.23695 322.14002,461.00241 C 327.29805,460.84584 331.81685,459.51187 335.80467,456.14955 C 321.3389,467.98765 330.57985,461.31657 332.29192,455.3361 C 332.49428,451.80036 331.12255,448.66454 329.75398,445.52121 C 327.96291,441.73399 325.3854,438.48502 322.72627,435.32991 C 319.97293,432.14427 316.73502,429.5018 313.40869,426.99901 C 313.17033,426.82544 312.93196,426.65187 312.69362,426.47829 L 321.92328,417.87538 C 322.16869,418.05728 322.41409,418.23917 322.65948,418.42105 C 326.18393,421.14031 329.60281,424.01764 332.52429,427.44076 C 335.39644,430.87568 338.1785,434.41439 340.16251,438.49841 C 341.89762,442.18667 343.45078,445.97081 343.67314,450.12716 C 343.19528,459.33569 338.60171,462.51208 330.50552,467.78201 C 325.59667,470.3031 320.37843,471.36494 314.87651,471.35366 C 308.60427,471.43295 302.34106,470.96127 296.20319,469.54671 C 290.40645,468.21606 284.61757,466.6633 279.25447,463.96065 C 275.31977,461.71847 271.58658,459.21903 268.96132,455.33739 C 267.4802,452.88363 266.09101,450.41076 265.45485,447.55121 C 265.20648,446.45304 264.83646,445.36787 264.77828,444.23485 L 276.19949,438.84625 z " id="path16525" style="fill:#000000;fill-opacity:1;fill-rule:nonzero;stroke:none;stroke-width:1px;stroke-linecap:butt;stroke-linejoin:miter;stroke-opacity:1;display:inline"/>
    <path d="M 258.3981,382.81649 C 261.5554,398.61072 250.29437,413.52184 254.14252,429.30134 C 255.76423,438.37314 265.07897,445.37028 274.27721,443.87771 C 282.0064,443.57155 289.74355,444.00544 297.45641,444.19119 C 309.78852,443.31493 321.335,437.78764 331.36963,430.84271 C 336.95504,426.51442 340.1042,418.62031 337.15925,411.86658 C 333.77879,402.38787 326.59971,395.0155 321.42714,386.53747 C 312.12434,372.92324 304.01082,358.02892 291.35007,347.14987 C 283.90061,341.12037 273.53268,336.24819 263.95257,339.81707 C 255.68948,343.4119 252.08796,352.94843 252.38375,361.46185 C 252.40753,368.96188 254.87101,376.26804 258.3981,382.81649 z " id="path24956" style="fill:#30763e;fill-opacity:1;fill-rule:evenodd;stroke:none;stroke-width:1px;stroke-linecap:butt;stroke-linejoin:miter;stroke-opacity:1"/>
    <path d="M 263.60528,386.63165 C 263.35694,396.37259 254.51161,433.23824 264.48303,438.73678 C 277.85567,443.62748 292.50457,440.41386 306.07412,437.91766 C 315.79807,435.54719 325.69369,432.60245 334.12713,426.91668 C 330.47662,429.58031 322.29747,436.83485 329.579,429.66041 C 336.41588,420.95884 328.62314,411.10363 324.46344,403.31262 C 315.43834,387.83733 304.87182,373.21511 292.53385,360.42493 C 290.31141,353.99566 304.44987,344.59272 307.36434,354.76587 C 322.32689,371.72748 335.51306,390.72908 344.80426,411.62696 C 348.44746,422.0226 341.47327,432.02145 333.07662,437.08318 C 315.34075,448.67544 293.83756,452.29398 273.20438,453.26358 C 262.68312,453.25993 248.87313,450.77201 245.59067,438.55127 C 242.44707,426.36155 247.53705,402.92229 249.45949,390.6521 C 250.15042,384.59875 252.43501,364.43993 263.60528,386.63165 z " id="path16400" sodipodi:nodetypes="cccccccccccccc" style="fill:#000000;fill-opacity:1;fill-rule:nonzero;stroke:none;stroke-width:1px;stroke-linecap:butt;stroke-linejoin:miter;stroke-opacity:1;display:inline"/>
  </g>
  
  
  
  
  
  
  
  
  
  
</svg>
