<?xml version="1.0" ?>
<!-- Created with Inkscape (http://www.inkscape.org/) --><svg height="1052.3622047" id="svg2" inkscape:export-filename="C:\Documents and Settings\Cowbert\Desktop\euphorion-sword-standing.png" inkscape:export-xdpi="90" inkscape:export-ydpi="90" inkscape:version="0.43" sodipodi:docbase="C:\Documents and Settings\Cowbert\Desktop" sodipodi:docname="euphorion.svg" sodipodi:version="0.32" width="744.09448819" xmlns="http://www.w3.org/2000/svg" xmlns:cc="http://web.resource.org/cc/" xmlns:dc="http://purl.org/dc/elements/1.1/" xmlns:inkscape="http://www.inkscape.org/namespaces/inkscape" xmlns:rdf="http://www.w3.org/1999/02/22-rdf-syntax-ns#" xmlns:sodipodi="http://inkscape.sourceforge.net/DTD/sodipodi-0.dtd" xmlns:svg="http://www.w3.org/2000/svg">
  <defs id="defs4"/>
  <sodipodi:namedview bordercolor="#666666" borderopacity="1.0" id="base" inkscape:current-layer="layer11" inkscape:cx="245.01094" inkscape:cy="850.88094" inkscape:document-units="px" inkscape:guide-bbox="true" inkscape:pageopacity="0.0" inkscape:pageshadow="2" inkscape:window-height="977" inkscape:window-width="1045" inkscape:window-x="-4" inkscape:window-y="-4" inkscape:zoom="0.98994949" pagecolor="#ffffff" showguides="true"/>
  <metadata id="metadata7">
    <rdf:RDF>
      <cc:Work rdf:about="">
        <dc:format>image/svg+xml</dc:format>
        <dc:type rdf:resource="http://purl.org/dc/dcmitype/StillImage"/>
      </cc:Work>
    </rdf:RDF>
  </metadata>
  
  
  
  
  
  
  
  
  
  
  
  
  <g id="layer17" inkscape:groupmode="layer" inkscape:label="stand-arm-left" style="display:inline">
    <path d="M 301.05723,360.67788 C 304.09328,364.96892 312.90624,365.09672 318.26329,367.87233 C 320.25998,368.90687 324.15977,368.18513 326.41353,368.18513 C 328.66045,368.18513 329.99968,367.59702 331.54516,365.99551 C 333.61754,363.84803 335.98744,361.97122 336.6768,359.11386 C 337.64083,355.11795 338.78981,352.2706 338.78981,347.85297 C 338.78981,340.51522 336.46696,335.72236 334.86563,329.08482 C 334.06552,325.76835 331.42608,322.12912 328.52656,320.32635 C 326.51317,319.07452 325.02013,317.59771 323.09305,317.19832 C 320.83886,316.73114 318.42057,316.80621 316.15026,317.19832 C 314.36189,317.5072 312.0415,319.46445 310.71678,320.01353 C 308.62626,320.88006 306.65409,324.36701 305.58513,326.58238 C 304.28506,329.27677 303.90183,331.9957 303.17025,335.02806 C 302.31026,338.59277 302.00581,342.42394 300.75537,345.66335 C 300.09334,347.3784 300.88357,350.13677 300.45351,351.9194 C 299.99429,353.82296 300.45351,356.48669 300.45351,358.48825 C 300.45351,359.67536 300.37876,358.92025 301.05723,360.67788 z " id="path18430" style="fill:#e7d192;fill-opacity:1;fill-rule:evenodd;stroke:none;stroke-width:1px;stroke-linecap:butt;stroke-linejoin:miter;stroke-opacity:1"/>
    <path d="M 295.71791,203.65817 C 340.34459,222.66879 356.83175,306.46175 314.35909,332.57817 C 285.65091,352.03205 275.23995,340.61511 264.53081,317.85051 C 260.20854,310.72076 247.82011,219.87425 291.87584,204.10052 L 295.71791,203.65817 z " id="path16600" sodipodi:nodetypes="ccccc" style="fill:#8e4e1e;fill-opacity:1;fill-rule:evenodd;stroke:none;stroke-width:1px;stroke-linecap:butt;stroke-linejoin:miter;stroke-opacity:1"/>
    <path d="M 273.67737,188.90521 C 314.00197,203.58653 349.66791,242.77497 346.10165,289.51118 C 346.34772,321.77231 316.5582,352.47916 284.95524,344.25472 C 268.32237,346.89555 248.74752,314.35404 267.86584,314.66655 C 282.74515,338.28146 325.2518,341.58224 330.94026,308.36943 C 341.87943,266.39952 315.27289,222.30997 277.74968,206.2885 C 264.63397,215.74339 246.76343,236.95285 273.67737,188.90521 z " id="path16342" sodipodi:nodetypes="ccccccc" style="fill:#000000;fill-opacity:1;fill-rule:nonzero;stroke:none;stroke-width:1px;stroke-linecap:butt;stroke-linejoin:miter;stroke-opacity:1;display:inline"/>
    <path d="M 334.33264,317.63809 C 335.50216,318.99331 336.48656,320.51222 337.50877,321.98806 C 339.91723,325.44202 341.77792,329.21573 343.38485,333.12151 C 345.27821,337.99282 345.48294,343.08981 345.08833,348.24552 C 344.53514,353.33258 342.45399,357.74491 339.64519,361.85907 C 334.15153,368.77887 326.8708,373.28072 318.50084,374.48532 C 313.72054,374.94239 309.4409,373.48106 305.2951,371.1929 C 302.19636,369.29364 300.00588,366.46759 297.95665,363.48136 L 308.10577,356.06827 C 309.83938,358.50141 311.54437,360.85749 314.2305,362.26045 C 317.8711,363.82125 321.44481,364.76863 325.41534,363.81033 C 330.01933,361.95939 332.73396,357.49798 333.56958,352.99599 C 334.23668,348.52524 334.31799,344.09904 332.77438,339.77913 C 331.35413,336.15205 329.64359,332.67683 327.38955,329.51563 C 327.07149,329.07474 324.41817,325.446 325.42492,326.79783 L 334.33264,317.63809 z " id="path16537" sodipodi:nodetypes="cscccccccccccscc" style="fill:#000000;fill-opacity:1;fill-rule:nonzero;stroke:none;stroke-width:1px;stroke-linecap:butt;stroke-linejoin:miter;stroke-opacity:1"/>
  </g>
  
  
  
  
  
  
  
  
  
  
  
  
  
</svg>
