<?xml version="1.0" encoding="UTF-8" standalone="no"?>
<!-- Created with Inkscape (http://www.inkscape.org/) -->
<svg
   xmlns:dc="http://purl.org/dc/elements/1.1/"
   xmlns:cc="http://web.resource.org/cc/"
   xmlns:rdf="http://www.w3.org/1999/02/22-rdf-syntax-ns#"
   xmlns:svg="http://www.w3.org/2000/svg"
   xmlns="http://www.w3.org/2000/svg"
   xmlns:sodipodi="http://inkscape.sourceforge.net/DTD/sodipodi-0.dtd"
   xmlns:inkscape="http://www.inkscape.org/namespaces/inkscape"
   width="744.09448819"
   height="1052.3622047"
   id="svg1343"
   sodipodi:version="0.32"
   inkscape:version="0.43"
   sodipodi:docbase="C:\Documents and Settings\Cowbert\Desktop"
   sodipodi:docname="tree-fir.svg"
   inkscape:export-filename="C:\Documents and Settings\Cowbert\Desktop\tree-fir.png"
   inkscape:export-xdpi="72"
   inkscape:export-ydpi="72">
  <defs
     id="defs1345" />
  <sodipodi:namedview
     id="base"
     pagecolor="#ffffff"
     bordercolor="#666666"
     borderopacity="1.0"
     inkscape:pageopacity="0.0"
     inkscape:pageshadow="2"
     inkscape:zoom="0.7"
     inkscape:cx="308.29252"
     inkscape:cy="564.22205"
     inkscape:document-units="px"
     inkscape:current-layer="layer1"
     inkscape:window-width="1045"
     inkscape:window-height="977"
     inkscape:window-x="-4"
     inkscape:window-y="-4" />
  <metadata
     id="metadata1348">
    <rdf:RDF>
      <cc:Work
         rdf:about="">
        <dc:format>image/svg+xml</dc:format>
        <dc:type
           rdf:resource="http://purl.org/dc/dcmitype/StillImage" />
      </cc:Work>
    </rdf:RDF>
  </metadata>
  <g
     inkscape:label="Layer 1"
     inkscape:groupmode="layer"
     id="layer1">
    <path
       style="fill:#a57649;fill-opacity:1;fill-rule:evenodd;stroke:none;stroke-width:1px;stroke-linecap:butt;stroke-linejoin:miter;stroke-opacity:1"
       d="M 109.92581,239.62617 C 110.50559,249.87648 101.83819,263.90237 98.743561,273.46923 C 83.172191,292.75209 161.6545,291.43149 146.24787,271.28772 C 139.87046,264.72088 139.5424,247.20759 138.18331,239.53745 C 132.57552,232.8456 120.12243,235.97121 112.33621,238.03877 C 111.40883,238.3815 110.69825,239.0504 109.92581,239.62617 z "
       id="path13263"
       sodipodi:nodetypes="cccccc" />
    <path
       style="fill:#188430;fill-opacity:1;fill-rule:evenodd;stroke:none;stroke-width:1px;stroke-linecap:butt;stroke-linejoin:miter;stroke-opacity:1"
       d="M 115.64008,47.126171 C 107.59831,60.677521 80.142381,70.581201 87.131841,87.783201 C 94.414561,102.45914 82.292601,115.07021 73.508281,125.42157 C 60.431911,135.90079 68.570871,149.62737 75.936111,160.1862 C 77.985671,177.12915 59.374601,189.53316 54.647901,205.39749 C 44.834511,214.84683 40.894341,236.4492 58.396921,239.62788 C 86.933471,242.96027 116.00588,243.36542 144.20685,237.06581 C 160.07943,232.21531 179.58242,234.82717 191.24048,221.33821 C 201.78949,212.72719 223.10969,200.64361 205.64863,187.17263 C 196.77343,178.20712 183.95888,170.31104 181.17698,157.29351 C 190.90454,146.82613 187.50122,132.73249 175.15842,125.4786 C 167.51449,116.81545 152.3913,108.56064 155.73098,95.207411 C 164.80293,83.934131 162.17385,70.677701 157.29298,58.300251 C 152.79274,47.530661 156.21708,31.140521 144.1737,25.130001 C 141.00894,24.912401 137.64081,27.337091 136.71152,30.340461"
       id="path12370" />
    <path
       style="fill:#000000;fill-opacity:1;fill-rule:nonzero;stroke:none;stroke-width:1px;stroke-linecap:butt;stroke-linejoin:miter;stroke-opacity:1"
       d="M 40.066011,227.87452 C 42.757311,218.61581 48.590371,210.50352 52.764441,201.8133 C 59.378871,188.59666 68.490811,176.15443 71.472711,161.47746 C 72.868971,151.81957 51.857321,157.35627 59.771661,143.84992 C 66.834271,127.48409 78.100651,113.3794 86.242841,97.644291 C 89.270941,90.746821 72.502601,90.271101 79.189111,80.876441 C 86.838481,67.292381 100.27274,58.238861 111.25668,47.525241 C 121.31567,37.837261 131.59265,28.132261 143.25118,20.416261 C 156.80119,19.553641 155.70509,39.305451 160.27123,48.417781 C 163.3924,61.232831 170.59904,74.119461 167.79713,87.602291 C 166.44307,94.059721 153.31686,102.57355 150.54978,98.996851 C 157.2719,88.844121 160.49448,108.02905 166.59712,110.71182 C 175.30357,120.65753 186.97865,128.15855 193.6803,139.72797 C 197.62446,149.22238 186.39301,154.55137 179.18203,157.07906 C 170.66751,163.5909 186.46381,147.65536 182.97041,156.61679 C 188.80485,166.60107 198.8722,173.39627 206.93802,181.54952 C 213.36694,187.87252 224.70094,196.6621 218.65879,206.59657 C 213.09539,215.30497 199.32437,213.13191 197.26826,224.31381 C 185.30052,236.84155 166.70162,237.44025 150.64562,240.01116 C 122.44141,242.89172 94.110491,245.81708 65.730241,245.56627 C 55.926271,245.13761 40.499761,243.42446 39.854251,230.83056 C 38.256281,224.81461 45.326281,225.28676 48.986981,223.31195 C 55.215711,219.62223 46.917951,232.12849 54.435451,232.52768 C 69.208681,238.41509 85.626301,235.46962 101.11797,235.1306 C 128.3412,233.1073 155.95876,232.1494 182.52254,225.40562 C 191.3138,222.56199 192.22757,210.89333 201.55948,208.27315 C 213.33016,207.62279 208.24576,197.43399 201.66922,192.94781 C 191.7315,182.52673 178.96362,174.27989 171.78406,161.56602 C 169.02931,151.21152 182.78714,147.75746 189.89343,144.17862 C 185.51577,146.3133 179.43682,153.85548 183.35487,145.95099 C 176.0827,133.87362 163.58251,126.10474 154.72529,115.25185 C 148.27424,109.56615 141.37031,96.811161 152.39228,91.904531 C 155.03643,90.699551 165.42325,86.222051 157.77423,91.592361 C 150.99564,95.900581 161.10433,84.619481 157.46118,80.974161 C 154.15062,65.166981 148.45183,49.922221 143.75355,34.477181 C 144.46861,26.751921 133.03432,33.383421 139.69919,29.834671 C 146.61311,25.065431 132.93798,35.860241 130.45825,38.301391 C 117.64662,51.635011 101.90652,62.290391 90.952061,77.348751 C 84.663951,84.260971 103.29443,84.615241 97.704281,94.252171 C 91.919431,107.37755 82.312681,118.50741 75.839061,131.33448 C 72.241411,137.46986 64.717721,147.95293 77.392491,147.13153 C 88.581481,154.46032 79.166661,169.31687 74.987781,178.34932 C 67.534751,192.92053 59.071961,206.99556 52.387341,221.94328 C 48.762141,224.35102 44.062621,225.83557 40.066011,227.87452 z "
       id="path6059" />
    <path
       style="fill:#000000;fill-opacity:1;fill-rule:nonzero;stroke:none;stroke-width:1px;stroke-linecap:butt;stroke-linejoin:miter;stroke-opacity:1"
       id="path6091"
       d="M 115.49988,237.09211 C 115.4084,237.64261 115.55508,239.00939 115.60505,239.80643 C 115.70207,242.68535 115.57727,245.56445 115.44743,248.44005 C 115.31559,252.52119 114.71676,256.54819 113.85181,260.53013 C 112.9745,264.49595 111.07724,267.85444 108.45316,270.88984 C 103.73359,275.77668 98.277021,279.04029 92.109481,281.32639 L 98.120701,270.81364 C 106.37356,266.84479 104.19517,265.77966 96.493051,272.8088 C 99.267091,270.56913 101.43119,268.07746 102.44661,264.56408 C 103.50575,260.87579 104.17761,257.10885 104.33984,253.2641 C 104.48495,250.49473 104.62016,247.72241 104.56424,244.94815 C 104.52442,244.02358 104.5874,243.06698 104.35171,242.16793 L 115.49988,237.09211 z " />
    <path
       style="fill:#000000;fill-opacity:1;fill-rule:nonzero;stroke:none;stroke-width:1px;stroke-linecap:butt;stroke-linejoin:miter;stroke-opacity:1"
       id="path6093"
       d="M 144.7856,233.52068 C 145.95829,236.15678 144.79736,233.46092 144.37424,235.60975 C 143.74966,237.75895 143.63961,240.01214 143.45067,242.23076 C 143.19728,245.76642 143.04405,249.30862 142.99756,252.85236 C 142.90315,255.99951 143.63938,258.92636 144.79539,261.8063 C 146.19541,264.59792 148.51084,265.96543 151.27516,267.14847 C 152.68204,267.68409 154.1503,268.01742 155.60063,268.40572 L 147.60428,277.44849 C 146.00948,276.95729 144.38654,276.53959 142.86321,275.84091 C 139.42369,274.07952 136.46174,271.95964 134.63442,268.43099 C 133.08245,265.11006 132.0793,261.66307 132.01926,257.95941 C 131.9375,254.30989 132.0973,250.66432 132.30856,247.01961 C 132.46145,244.62018 132.58715,242.21495 132.92567,239.83254 C 133.04512,238.93715 133.45264,235.19543 133.63743,238.5965 L 144.7856,233.52068 z " />
    <path
       style="fill:#000000;fill-opacity:1;fill-rule:nonzero;stroke:none;stroke-width:1px;stroke-linecap:butt;stroke-linejoin:miter;stroke-opacity:1"
       id="path1386"
       d="M 311.35492,242.23652 C 308.91023,241.14486 307.1483,239.16986 305.37877,237.22195 C 301.05306,232.02566 299.59225,225.819 299.94394,219.20082 C 301.28235,209.70028 307.3912,202.27663 313.77962,195.52061 C 308.15116,200.70308 343.36005,167.00448 337.37643,172.89453 C 328.43706,181.6941 333.16752,177.06585 335.11953,175.03035 C 337.90332,171.8801 340.28832,169.65521 337.41908,166.23088 C 333.25482,163.37155 329.2695,160.79637 327.05523,156.12222 C 325.14996,149.21417 330.08505,143.84316 334.39192,139.04635 C 342.25649,130.81348 350.81203,123.29633 359.03178,115.429 C 363.6737,108.65028 352.79028,124.53924 362.81173,110.69725 C 360.55611,108.08272 356.60203,106.90132 353.45918,105.34217 C 347.16893,102.42735 342.83349,98.170306 341.38163,91.318997 C 341.05877,82.654181 346.72958,75.770458 352.01502,69.483017 C 360.49365,60.177859 369.44368,51.303321 378.49427,42.55638 C 384.03679,37.283314 389.78901,31.721 397.68494,30.94115 C 404.76574,31.382023 408.68646,36.716849 411.82155,42.46351 C 415.47004,50.508473 418.35341,58.884743 421.47143,67.147281 C 424.57434,75.426528 427.94014,83.628361 429.75892,92.304575 C 431.64275,101.84755 428.22351,105.03525 421.14385,111.61029 C 418.17052,112.89848 414.91729,113.34494 411.8721,114.31162 C 412.62096,111.91127 416.0497,111.49679 417.9829,109.88894 C 422.38831,114.01625 427.1221,117.77717 431.60381,121.82559 C 437.98285,127.73124 444.03139,133.99901 449.41759,140.82543 C 453.72508,146.31167 456.37857,152.3944 454.12342,159.23105 C 448.59061,167.79433 441.78542,169.61209 433.12633,172.87135 C 428.00332,178.22761 433.85375,165.32687 436.17622,171.37296 C 439.44114,176.17211 443.47154,180.39764 447.34973,184.70039 C 451.95403,189.78637 456.50058,194.92719 460.79996,200.27454 C 464.647,205.04499 468.03363,210.12595 470.17532,215.88363 C 471.98358,221.11156 471.80351,226.13751 469.00799,230.91087 C 462.96917,238.7368 455.71535,241.94203 446.64185,244.6113 C 439.61307,246.62124 432.37426,247.63696 425.12382,248.4239 C 417.92144,249.19861 410.68333,249.50738 403.44647,249.72723 C 396.51714,249.91862 389.58515,249.97896 382.65362,250.02629 C 376.06822,250.07192 369.48293,250.09198 362.89765,250.02868 C 357.15015,249.987 351.40465,249.8205 345.66111,249.61154 C 340.87597,249.42863 336.09656,249.14054 331.32321,248.76211 C 327.13648,248.4922 323.00319,247.78383 318.91118,246.88856 C 315.27256,246.03933 312.05987,244.22419 308.99829,242.15228 C 308.39338,241.74258 307.84544,241.25791 307.2694,240.81102 L 315.28709,231.85383 C 315.74864,232.20207 316.18648,232.58321 316.67247,232.89908 C 319.13423,234.44986 321.64892,235.81268 324.57064,236.28265 C 328.4166,237.00224 332.2868,237.56182 336.19858,237.77369 C 340.89314,238.0995 345.59164,238.36516 350.29538,238.51927 C 355.98717,238.69945 361.67994,238.84838 367.37491,238.87212 C 373.92919,238.9151 380.48355,238.87647 387.03776,238.83281 C 393.92211,238.77638 400.80706,238.70361 407.68836,238.47907 C 414.77169,238.22377 421.85409,237.84856 428.89603,237.00964 C 435.78771,236.15926 442.66345,235.03233 449.28684,232.88446 C 454.21396,231.18488 469.08993,221.15768 456.98667,230.96169 C 459.99936,228.41859 460.96598,226.00877 459.84836,222.03739 C 458.14125,216.90081 455.22506,212.44232 451.80502,208.24987 C 447.6035,202.99629 443.13847,197.96232 438.62768,192.97327 C 434.48154,188.37402 430.20478,183.84316 426.67633,178.73956 C 421.82708,170.53758 426.23136,163.91261 435.37202,161.06154 C 441.10051,159.00021 452.63555,151.26822 442.13663,160.14297 C 445.68429,156.38417 443.20325,152.52778 440.35217,148.72055 C 435.23049,142.15747 429.40536,136.18493 423.307,130.52489 C 418.67413,126.34731 413.7522,122.49511 409.26317,118.16427 C 404.28844,112.15786 403.70862,104.96683 414.33662,102.54553 C 416.98981,102.00841 419.70098,101.66355 421.62961,99.598683 C 412.38981,108.54659 419.73268,104.27798 419.00821,97.68388 C 417.63568,89.309432 414.22257,81.507064 411.31557,73.579482 C 408.27674,65.522059 405.39068,57.396006 402.04646,49.460816 C 400.29754,46.038685 398.50145,41.873658 394.11832,42.421306 C 388.13859,45.218987 383.48089,50.024527 378.77784,54.574463 C 372.27638,60.96668 377.00588,56.160219 364.03643,69.505844 C 359.40901,74.564631 354.3855,79.835549 352.41823,86.553675 C 352.52834,91.487106 356.20099,93.541264 360.4199,95.540997 C 365.26011,97.895523 370.71518,99.751288 373.30897,104.83869 C 376.04959,114.65445 365.18353,121.39723 359.2584,127.44829 C 354.04929,132.3458 337.6578,147.76246 346.41042,139.31179 C 343.13084,142.58853 339.57793,145.94896 337.45263,150.08825 C 339.13933,153.45211 342.74705,155.09926 345.73727,157.55203 C 350.95036,162.7829 351.69442,168.78424 347.14006,174.8831 C 346.37097,175.82929 313.49331,208.68051 325.79724,195.82336 C 319.98817,201.57961 313.92733,207.64122 311.42285,215.63019 C 310.48658,220.55892 311.07215,225.0405 314.23927,229.09752 C 314.85601,229.76806 318.48325,233.07886 315.78031,231.05928 L 311.35492,242.23652 z " />
    <path
       style="fill:#000000;fill-opacity:1;fill-rule:nonzero;stroke:none;stroke-width:1px;stroke-linecap:butt;stroke-linejoin:miter;stroke-opacity:1"
       d="M 548.0886,208.72473 C 545.52383,221.6519 560.21063,230.18007 571.00803,233.04715 C 598.34662,241.81449 627.41316,242.88921 655.88887,243.30454 C 667.17127,242.99491 679.8422,242.68376 688.88925,235.06954 C 681.60336,240.9037 689.91348,225.23993 685.39023,221.61568 C 682.17598,210.98602 673.43787,191.92205 689.89467,188.12513 C 694.15561,184.06487 703.85991,191.90126 695.41155,189.02109 C 691.9886,179.54023 688.22021,170.33713 682.96232,161.57946 C 666.65183,130.04393 647.80218,99.881847 628.90362,69.892525 C 623.85528,59.323273 647.9031,58.063387 646.66868,63.743347 C 637.46601,64.641336 637.28984,48.234241 628.23836,45.358941 C 619.65738,38.481346 606.85197,22.259857 597.22388,27.259894 C 587.51906,41.668935 578.68393,56.686314 571.06067,72.300187 C 570.46212,80.463251 587.09003,83.212312 578.81469,92.877106 C 568.82923,115.62647 551.45756,134.17438 541.19978,156.75303 C 539.85477,169.46128 557.80846,162.21318 565.37604,163.60432 C 580.82943,167.59234 569.28399,185.38129 561.29012,191.31621 C 552.73596,197.27924 549.0718,208.50907 543.65759,215.2309 C 538.23063,218.51339 532.8626,219.93374 535.79346,211.73581 C 539.31416,196.8989 553.91908,188.83628 561.67653,176.72953 C 555.55255,170.89113 540.64408,180.04687 532.96456,171.49034 C 522.93536,159.85626 536.23179,145.72369 542.0037,135.28834 C 551.14864,120.72062 561.25984,106.70956 569.0585,91.337297 C 561.81268,85.375938 554.73299,75.936554 562.47345,67.145326 C 570.38683,51.683901 579.21252,36.583209 589.174,22.377121 C 597.07481,10.159504 612.33784,13.606947 620.69988,23.09184 C 634.00845,33.444441 647.59128,45.06129 654.77008,60.616326 C 660.66268,74.117109 627.30755,78.52011 638.76317,65.685943 C 646.01609,71.475437 650.44451,83.608543 656.65713,91.728983 C 674.3835,120.10022 690.76567,149.40371 705.07802,179.60357 C 711.67132,190.78155 695.80949,206.391 687.20011,196.1978 C 695.18296,191.74309 690.23153,208.53767 694.95273,213.07653 C 699.92918,224.5493 700.81956,240.49413 688.27195,247.50447 C 664.76492,258.46177 637.97073,254.09816 612.99677,252.57628 C 589.72784,249.94678 564.24408,247.85451 545.48856,232.30143 C 538.90156,225.80306 527.82725,211.22746 541.33265,211.04153 C 542.5368,210.27508 546.84951,209.39864 548.0886,208.72473 z "
       id="path1388"
       sodipodi:nodetypes="ccccccccccccccccccccccccccccccccccccc" />
    <path
       style="fill:#000000;fill-opacity:1;fill-rule:nonzero;stroke:none;stroke-width:1px;stroke-linecap:butt;stroke-linejoin:miter;stroke-opacity:1"
       d="M 154.49598,412.14429 C 140.61242,396.96061 141.65008,377.26151 133.39902,361.43949 C 125.30278,355.42386 117.99191,360.86857 116.34596,366.12824 C 107.32106,377.9722 98.519542,390.14166 92.065307,403.61691 C 102.06281,394.48725 106.11636,410.13287 97.238758,415.63412 C 85.072875,431.17567 72.548071,447.03214 65.055329,465.45665 C 72.485383,469.04842 86.958365,450.32163 89.096749,467.5361 C 87.977285,479.42149 80.036001,489.39959 75.871981,500.42609 C 70.171556,512.24364 64.254644,524.04876 60.45971,536.65198 C 67.318577,546.93406 81.634586,530.19511 90.714833,528.03334 C 100.24714,522.16173 114.76877,513.13089 123.73563,524.81422 C 127.52613,530.68805 140.48106,545.40226 137.33417,544.83488 C 143.16541,530.797 159.49481,536.01594 170.44141,532.88951 C 176.19434,530.02415 169.89837,536.84979 172.57054,529.77508 C 174.41306,517.17614 155.57322,507.65265 163.66773,495.64736 C 169.46267,491.80291 178.3712,481.10388 176.26994,486.34986 C 181.82731,473.3214 169.0886,462.25032 160.87289,453.89951 C 148.51596,443.15711 164.77781,432.44798 163.26302,421.57374 C 157.67232,414.83463 129.10636,379.22415 161.63805,400.58001 C 171.05572,408.84127 182.7076,425.55697 169.18415,435.74886 C 165.26752,449.72378 185.28093,456.22393 187.56587,469.70872 C 193.5044,482.10453 183.92786,493.88242 173.33228,499.41152 C 166.35516,505.22177 175.12056,492.33828 174.28574,503.03269 C 182.04618,513.24985 188.85039,529.70499 177.86801,540.19572 C 170.30633,547.41053 154.35433,545.59336 147.98229,545.26622 C 152.05154,543.71015 136.8231,562.70649 130.32181,552.50721 C 121.24155,546.36713 118.01646,526.25585 103.83093,531.90032 C 88.64754,539.3536 74.520701,550.84499 57.218904,552.70463 C 43.810566,548.52107 49.691165,531.96999 54.391633,523.12818 C 61.675562,505.57705 70.985413,488.93528 77.936523,471.23911 C 73.986893,478.22813 55.750954,484.64428 52.709311,471.67811 C 52.949731,461.06713 61.003706,452.03973 65.859849,442.85221 C 73.313372,432.10725 80.324531,420.77933 89.302672,411.30382 C 100.43864,409.93645 79.835295,420.78763 80.468833,408.70029 C 81.982842,394.0537 94.258962,382.32525 101.68973,369.94712 C 109.03948,360.08454 117.17819,347.47376 130.64827,346.33233 C 145.61938,349.10297 147.85995,366.80471 152.44669,378.63665 C 155.13119,390.88682 166.7989,403.93714 152.17455,411.60858 L 154.49598,412.14429 z "
       id="path1390"
       sodipodi:nodetypes="ccccccccccccccccccccccccccccccccccccccc" />
    <path
       style="fill:#000000;fill-opacity:1;fill-rule:nonzero;stroke:none;stroke-width:1px;stroke-linecap:butt;stroke-linejoin:miter;stroke-opacity:1"
       d="M 349.95355,355.15329 C 351.58387,368.0054 341.00496,377.86212 337.39541,389.47927 C 331.43641,401.64573 326.06404,414.23681 320.40202,426.44283 C 337.48547,429.96725 321.07579,445.96519 316.36416,453.8647 C 309.14025,463.87455 301.80774,473.82117 295.34582,484.35175 C 300.57398,478.28877 318.30291,472.9304 316.74363,486.01084 C 312.45435,495.79284 303.40818,502.70615 296.54408,510.73036 C 290.92765,515.99778 279.91135,526.73782 288.09834,533.46404 C 300.03392,541.51226 315.05151,541.80028 328.79162,544.22688 C 353.55945,547.18854 378.78414,550.09192 403.64269,546.83711 C 406.9938,546.77061 419.08308,539.63233 412.95107,544.63845 C 415.72042,536.23879 409.64609,529.62048 405.59707,522.78594 C 400.42963,514.55449 393.63381,506.76518 391.42577,497.1232 C 392.69607,483.02951 410.09613,486.57625 419.18997,489.91462 C 422.26148,494.84614 412.57988,494.06849 413.13839,488.1661 C 409.2765,475.46729 401.28586,464.71697 395.09113,453.09537 C 388.20976,440.62436 379.62111,428.9334 373.80161,415.9804 C 370.8289,403.33997 399.37417,406.38205 386.84032,413.84697 C 381.19844,405.04484 378.05373,394.38313 372.26023,385.40017 C 364.09408,370.17737 355.64167,355.07863 348.59355,339.29102 C 344.92945,337.15735 356.88078,329.52809 352.34474,336.17954 C 348.67355,344.24472 354.67787,359.8373 342.25118,360.40378 C 333.00094,362.62633 342.58123,347.35557 339.96638,342.34342 C 338.06414,329.84237 354.46599,318.60226 359.42172,334.30873 C 369.10391,357.14539 383.07102,377.8353 393.1146,400.49002 C 401.39932,409.73578 392.73644,425.4067 380.64021,419.01046 C 377.30616,416.126 388.29471,408.76591 387.66901,417.46056 C 401.61397,441.50731 417.87307,464.67814 427.13746,491.05093 C 426.52903,506.94114 408.0556,499.46722 398.69013,497.96509 C 403.31248,487.77054 406.41665,506.19844 411.24834,509.77894 C 417.24061,519.2261 425.67295,529.06998 424.89313,540.88581 C 421.46313,554.45352 405.88747,558.52303 393.64119,558.86895 C 364.63429,560.77628 335.57814,556.97776 306.97486,552.48225 C 295.80789,550.24853 283.42141,547.33274 275.70482,538.34999 C 269.79604,529.07226 276.36647,518.7237 283.13457,512.10306 C 290.08858,504.19915 297.73971,496.90715 304.21976,488.59007 C 311.20942,488.85316 293.24886,495.52922 289.51717,494.2728 C 278.29368,488.86578 288.8878,475.40811 294.04728,468.94424 C 301.08181,458.97822 308.60583,449.31675 314.68064,438.71139 C 321.87916,436.79366 305.93147,439.51284 309.47213,432.03423 C 309.6756,420.63066 317.11196,411.08753 321.15512,400.79458 C 327.74087,387.60711 332.40465,373.50632 338.70079,360.24035 C 342.15382,357.90252 346.72246,358.22758 349.95355,355.15329 z "
       id="path1404" />
    <path
       style="fill:#000000;fill-opacity:1;fill-rule:nonzero;stroke:none;stroke-width:1px;stroke-linecap:butt;stroke-linejoin:miter;stroke-opacity:1"
       id="path1410"
       d="M 598.95669,317.86699 C 600.20485,319.47527 601.66879,321.68835 602.90357,323.53245 C 608.54999,332.4846 613.53861,341.83944 618.36555,351.25324 C 624.07935,363.13571 630.53933,374.90784 633.94017,387.72692 C 637.31699,398.37021 629.18297,407.59545 618.36182,404.16138 C 615.60373,402.80507 612.79099,401.44791 609.80098,400.73623 C 618.17524,388.30692 617.12211,400.33168 621.58974,409.97905 C 626.71607,421.65108 633.34969,432.71254 637.47601,444.80953 C 641.59155,455.25731 634.5736,465.1562 623.30312,463.25227 C 613.95889,461.74438 616.97304,463.45336 621.97095,458.32308 C 623.51052,467.71509 629.10061,476.22221 633.69752,484.45256 C 640.72643,497.06298 648.20912,509.43117 654.70498,522.33178 C 660.46078,532.42782 664.62131,550.18312 647.09032,550.77576 C 636.7264,549.34857 627.29046,544.38184 617.89373,540.04274 C 607.42703,534.38164 603.93006,541.09654 612.45917,531.74813 C 611.2748,535.8833 612.75724,540.6584 612.44808,545.09445 C 609.9153,556.67936 598.43596,560.15887 588.29928,561.53665 C 577.08079,562.54467 565.79483,561.56847 554.6314,560.35717 C 544.7049,559.24878 534.83165,557.73736 524.97921,556.1093 C 517.80259,554.84646 510.31941,554.1767 503.99316,550.31952 C 498.28344,545.6259 500.35052,539.67407 503.9498,534.44386 C 509.29897,527.45113 516.0016,521.64729 523.07382,516.47261 C 523.39979,516.23644 523.72576,516.00026 524.05173,515.76409 L 523.51014,527.77331 C 523.19862,528.01011 522.8871,528.24691 522.57558,528.48371 C 506.48237,541.22834 524.48795,527.10238 515.96665,534.1121 C 514.27375,536.04971 511.01238,538.85732 511.51849,540.94487 C 517.39404,543.71108 524.01257,544.15119 530.33868,545.34868 C 540.0792,546.94037 549.84503,548.39234 559.66112,549.43853 C 570.34359,550.53415 581.18071,551.44329 591.87666,550.05984 C 599.11996,548.60911 606.9468,540.9604 598.38821,550.30961 C 597.6567,551.1087 601.9062,548.12434 600.82334,548.15716 C 602.16983,543.43897 600.37258,538.76043 600.63086,533.89423 C 609.25074,523.20221 613.0463,524.54429 624.6969,530.13155 C 633.06513,534.00089 641.7363,538.89102 651.06807,539.4315 C 645.64202,546.29404 651.75246,542.21991 644.9082,529.29869 C 638.5248,516.44804 631.04571,504.18336 624.07121,491.65318 C 618.9137,482.44944 613.16589,473.13942 610.79941,462.76283 C 610.04435,451.46046 620.35579,449.9979 628.544,452.4334 C 634.8709,452.12125 625.29094,462.29706 627.16693,450.99319 C 623.16728,439.1106 616.82079,428.2055 611.68862,416.79687 C 606.6942,406.06784 599.96552,397.91568 610.38314,388.7289 C 615.59853,389.07382 619.70324,391.84935 624.46764,393.80601 C 630.78825,394.58183 620.5805,403.99541 623.39942,393.50683 C 620.25142,381.10717 614.17071,369.71208 608.60137,358.26576 C 603.89069,349.03152 599.00989,339.86372 593.53013,331.0593 C 592.27589,329.16096 591.04976,327.23215 589.62999,325.45168 L 598.95669,317.86699 z " />
    <path
       style="fill:#000000;fill-opacity:1;fill-rule:nonzero;stroke:none;stroke-width:1px;stroke-linecap:butt;stroke-linejoin:miter;stroke-opacity:1"
       id="path1414"
       d="M 588.69709,325.28153 C 589.51499,326.37542 588.30173,323.95058 588.08789,323.47074 C 586.4199,320.29319 584.49553,317.25621 582.36479,314.37411 C 579.06565,313.07261 572.35861,322.77117 581.98047,313.05916 C 574.51692,321.62405 569.24799,331.87551 564.16878,341.97068 C 557.29866,355.924 551.11997,370.20553 545.10103,384.54264 C 542.16248,390.90351 539.06378,400.25258 537.07708,405.66833 C 536.84025,402.57935 542.11259,400.58983 545.13758,398.73311 C 550.07442,395.52045 555.32438,395.61869 557.12795,402.05747 C 556.84006,408.64756 553.08465,414.39005 549.5671,419.76852 C 542.11229,430.3106 532.78839,439.37408 523.37779,448.15164 C 509.33569,461.52017 515.831,454.17896 510.66261,460.5863 C 509.58511,463.49015 509.5951,462.32388 514.37348,463.08983 C 520.0647,463.73324 525.66393,464.60508 530.9554,466.81352 C 536.19169,470.08764 536.44019,474.99425 533.07844,479.75506 C 526.7848,487.34553 518.42051,492.02572 510.13173,497.02782 C 503.11193,500.19495 492.67684,510.92799 501.21674,502.26491 C 498.86023,504.28072 500.26826,504.71604 502.54405,506.19543 C 506.69983,508.28972 511.18721,509.60243 515.6228,510.95866 C 520.06228,512.22183 524.50241,513.4686 528.86682,514.97262 C 531.87376,515.83609 534.22114,517.45021 536.3981,519.57653 C 540.51802,525.38957 533.13177,530.01233 527.61061,530.62427 C 525.25231,530.94622 522.89297,531.25551 520.52954,531.53776 C 519.75101,531.64395 518.97044,531.73408 518.1909,531.83223 L 521.88825,520.39351 C 522.66829,520.29551 523.44759,520.19152 524.22838,520.09952 C 526.48691,519.80409 528.75204,519.52515 530.98808,519.08706 C 528.85648,521.18629 525.41029,524.67649 527.07324,527.16347 C 526.75342,527.00038 523.80441,525.42705 522.56912,525.21243 C 518.25922,523.81275 513.88712,522.62567 509.54502,521.33051 C 504.65951,519.80892 499.72389,518.2718 495.24567,515.74783 C 490.73923,512.83665 487.01795,508.63465 489.21634,502.97574 C 494.08109,494.535 503.30143,490.02856 511.25331,485.05883 C 515.35371,482.54375 533.73864,469.03116 521.05847,479.5682 C 522.04036,478.75904 525.80531,477.12726 524.15913,476.72943 C 519.23854,475.08976 514.06026,474.66408 508.9591,473.82292 C 502.75545,472.49647 496.33293,469.33867 498.70739,461.84618 C 504.18351,451.21835 515.06611,444.62129 523.17848,436.13187 C 526.57757,432.88034 527.15877,432.90252 537.56508,420.45135 C 540.80859,416.02061 543.82113,411.42711 545.88564,406.31483 C 549.55183,408.54691 547.24453,408.56507 544.06404,410.70651 C 539.00697,413.87233 533.53634,417.89064 528.00464,413.55537 C 523.03955,405.15213 530.62507,394.76137 533.25558,386.59206 C 539.26298,372.12556 545.48385,357.74048 552.26043,343.61562 C 557.44699,333.03976 562.89962,322.49746 569.95908,313.02874 C 576.26659,306.45215 582.88608,298.10923 591.25997,306.28767 C 593.70571,309.48441 595.90959,312.85766 597.81728,316.41002 C 598.5662,317.85885 599.36057,319.30881 599.87434,320.85615 L 588.69709,325.28153 z " />
    <path
       style="fill:#000000;fill-opacity:1;fill-rule:nonzero;stroke:none;stroke-width:1px;stroke-linecap:butt;stroke-linejoin:miter;stroke-opacity:1"
       d="M 115.28965,630.41193 C 112.4009,633.38872 105.29734,639.39078 112.20142,633.16347 C 100.34519,647.29925 88.452481,661.68283 78.892768,677.54392 C 70.86081,685.91168 89.666303,680.28676 88.833791,690.49375 C 86.833301,701.18664 76.448361,708.34579 69.908699,716.63659 C 62.695671,724.32958 55.380329,732.06938 49.859273,741.11287 C 58.553613,741.52135 71.270536,748.17965 62.75328,757.7265 C 56.858452,767.24011 47.532277,774.43676 43.280955,784.99452 C 66.191073,779.46479 85.72745,764.93085 108.52039,759.172 C 122.93316,757.14273 134.96016,768.30625 141.86436,779.77794 C 143.95559,785.17896 151.56032,791.75347 152.58251,793.8095 C 147.46579,798.50836 156.43464,785.68542 159.24651,784.9229 C 168.26125,778.1726 177.65118,786.16257 186.7672,787.91774 C 192.7072,787.53721 195.31552,795.90924 188.57264,792.32916 C 185.56988,783.80223 182.60239,775.44956 177.34345,767.95978 C 172.37238,759.64843 165.4062,752.27527 162.19285,743.06883 C 159.91944,735.33138 175.27938,727.16943 176.58326,730.83294 C 168.91581,733.59526 168.35291,718.16105 162.71475,714.04021 C 156.62573,704.80765 147.34602,695.96422 147.46781,684.17983 C 148.29666,679.16154 159.84262,672.77256 160.27323,674.20739 C 158.10072,673.61724 163.18753,662.50935 157.15155,659.67449 C 148.27813,644.78855 136.36849,631.97869 126.2,618.06076 C 121.91789,616.3814 117.08253,606.9279 124.19623,610.37238 C 125.02428,622.53973 113.76328,629.68576 106.33165,637.43479 C 108.72199,635.03754 114.25191,629.53704 108.90386,634.95603 C 103.41146,634.72961 92.154555,636.74184 101.21923,630.11064 C 104.77705,626.08882 109.41001,622.66781 109.91312,621.40415 C 116.35932,615.23905 109.15722,602.07492 121.03094,600.48222 C 131.54477,601.05674 136.11573,613.31593 142.93857,619.92624 C 151.89554,632.61553 163.1064,643.94157 169.78534,658.09516 C 173.96424,666.37445 171.75245,677.1585 163.81745,682.36493 C 162.22878,685.11833 153.41293,687.27822 158.66993,683.96381 C 160.30503,691.88123 165.66983,697.50453 170.13115,704.00973 C 175.7123,712.17886 182.30203,720.50804 183.92058,730.4838 C 184.65122,736.33723 170.65698,745.98556 170.40194,739.93555 C 176.82476,736.54753 176.41427,750.90134 181.98353,753.30574 C 189.56996,764.77179 197.38517,776.92165 199.63942,790.69571 C 198.51726,805.3389 180.80214,800.97667 172.69771,795.30268 C 170.30055,794.80913 159.13216,793.41899 164.72927,791.62966 C 161.21857,799.45802 150.58893,808.54161 142.5823,800.8051 C 132.61127,791.28544 128.49556,774.76648 113.8247,770.73458 C 103.84918,769.09236 94.599718,775.14574 85.635006,778.63793 C 73.710497,784.20284 61.974093,790.48076 49.44201,794.46967 C 41.456994,797.73883 28.321037,792.50165 33.479539,782.37697 C 38.354972,771.65735 47.198215,763.02382 54.309028,754.10138 C 45.295153,755.55752 35.207726,748.77518 39.877458,738.61287 C 42.270161,730.94842 49.704027,726.83519 54.237357,720.57886 C 61.990684,712.12517 70.107168,703.22106 77.252801,694.71461 C 66.780389,694.79022 61.211868,685.5104 67.860772,676.84203 C 74.598147,665.12814 83.432514,654.75682 91.408347,643.87535 C 96.848356,636.90384 99.266971,629.1551 111.41562,630.29019 C 112.70696,630.33078 113.99831,630.37135 115.28965,630.41193 z "
       id="path1418"
       sodipodi:nodetypes="cccccccccccccccccccccccccccccccccccccccccccccccccccc" />
    <path
       style="fill:#000000;fill-opacity:1;fill-rule:nonzero;stroke:none;stroke-width:1px;stroke-linecap:butt;stroke-linejoin:miter;stroke-opacity:1"
       d="M 368.8382,614.36676 C 384.5964,633.72307 397.74288,655.02328 412.12748,675.36701 C 417.69977,683.74487 400.7169,695.98308 400.21076,691.20205 C 410.28719,696.71405 413.36874,710.05147 423.43402,716.40098 C 430.63107,724.37898 447.3726,739.55954 432.95827,748.51944 C 426.36846,751.50034 408.97321,753.18234 406.84196,748.868 C 415.91018,749.03728 419.10315,766.89833 428.3488,771.96136 C 435.32687,782.21399 451.37864,791.62408 446.90684,805.76662 C 439.66658,817.05923 424.31607,813.70588 413.42174,811.04301 C 395.76775,807.14924 378.28114,801.71649 360.10369,800.92734 C 352.84605,804.38424 365.9708,794.07117 361.42206,801.64528 C 359.47162,813.01154 376.55318,826.06352 364.09287,835.34752 C 350.23232,840.33526 339.38451,827.19484 328.52172,820.90216 C 313.29422,812.00383 294.17472,814.34364 278.57777,821.01395 C 268.96725,832.5213 249.56733,817.86546 263.99216,807.86735 C 268.3476,802.67071 275.21604,790.29114 281.79991,793.41579 C 282.16893,795.47277 278.7305,805.51007 282.99321,799.78071 C 280.51774,802.01695 269.25127,813.46492 273.60523,812.20013 C 291.56658,803.979 313.66395,799.73968 331.8923,809.53057 C 339.11997,816.27519 358.37955,821.9141 358.52,828.76302 C 353.57814,820.51066 349.45496,810.18747 349.8449,800.61836 C 353.27161,788.62455 368.6925,787.60749 378.61416,791.36427 C 399.13663,794.74138 419.08177,802.93211 440.17972,801.81485 C 430.80367,799.84904 428.32352,786.11184 420.19029,780.63374 C 411.72222,771.43845 402.16434,762.07971 399.17174,749.48936 C 401.23876,736.41862 424.75252,734.56984 429.77621,742.65506 C 423.24787,737.13508 419.15845,725.93923 410.41042,720.44679 C 402.99325,711.49059 394.29496,703.09193 389.66457,692.25431 C 387.13121,684.11142 404.69929,680.41347 401.40071,682.02324 C 396.06161,672.0922 389.72673,662.84217 382.81167,653.97357 C 375.87907,644.06285 369.13511,634.01906 362.02093,624.23619 C 365.54575,621.93648 366.27163,617.45355 368.8382,614.36676 z "
       id="path1430" />
    <path
       style="fill:#000000;fill-opacity:1;fill-rule:nonzero;stroke:none;stroke-width:1px;stroke-linecap:butt;stroke-linejoin:miter;stroke-opacity:1"
       d="M 368.08862,613.01044 C 371.32463,627.05959 352.19062,630.67708 346.02814,640.59668 C 336.66348,648.0115 326.39666,654.183 316.9482,661.48467 C 324.76666,654.34472 347.20931,661.86876 340.51577,673.67702 C 333.30327,683.56286 321.7882,689.0415 312.20229,696.34154 C 304.01861,701.95668 295.85088,707.61131 288.0561,713.76161 C 286.11573,702.44105 311.39228,700.32282 308.25347,713.29418 C 304.92703,726.20955 291.29389,732.11502 283.21356,741.79653 C 272.35607,752.35784 260.41607,762.05438 251.01561,773.94209 C 249.72437,784.92053 268.24907,776.24845 274.93711,777.08634 C 285.53467,773.68092 304.75663,780.44063 294.20426,793.67381 C 274.57613,809.44446 268.91238,806.8207 276.17172,794.91096 C 276.5183,790.1677 294.78785,782.77779 285.90332,787.25277 C 272.32245,789.26681 257.33816,791.61902 244.01789,789.18934 C 229.6877,780.14884 242.90839,766.75837 251.5967,759.92679 C 264.04902,746.78285 280.78279,732.61865 291.67974,721.27206 C 301.93254,711.9951 283.35835,727.12072 280.17761,717.46797 C 272.34239,704.67578 292.84897,701.31613 299.33547,693.83191 C 311.48349,685.45182 323.88514,677.35737 335.10669,667.73195 C 328.12461,677.29848 309.9367,670.42437 309.50146,659.15301 C 315.10075,646.18283 331.47171,642.20412 341.17745,632.62767 C 351.19368,628.44689 356.91078,611.76857 368.08862,613.01044 z "
       id="path1444"
       sodipodi:nodetypes="cccccccccccccccccccccc" />
    <path
       style="fill:#000000;fill-opacity:1;fill-rule:nonzero;stroke:none;stroke-width:1px;stroke-linecap:butt;stroke-linejoin:miter;stroke-opacity:1"
       id="path1446"
       d="M 559.16005,607.29616 C 559.28953,609.5522 558.68829,611.946 558.38313,614.22017 C 557.07739,623.29287 555.97002,632.38924 554.97118,641.50029 C 554.15888,652.16542 551.85569,662.86199 552.71215,673.58254 C 553.47833,678.83757 556.55941,677.11192 560.26632,675.60158 C 566.98039,672.37123 571.48249,676.95988 570.20917,683.87281 C 567.5972,692.26552 563.41356,700.07836 559.44369,707.89123 C 554.31784,717.8869 549.15295,727.86242 544.0999,737.89524 C 541.8573,741.96203 538.57983,749.94698 537.30346,752.60516 C 540.44949,750.35253 544.15968,750.57116 547.56321,752.8128 C 551.44559,758.76502 547.0287,765.43403 544.30394,771.11173 C 540.58393,778.75042 536.58026,786.24548 532.7056,793.80552 C 530.48518,798.19111 528.0293,802.59693 527.76512,807.49269 C 531.48577,810.19174 536.80897,809.85122 541.29329,810.02448 C 551.991,810.22753 562.6919,809.97324 573.38779,809.76182 C 583.4204,809.08795 593.74641,810.34256 603.62869,808.18225 C 606.70408,806.30595 609.31,801.69234 600.21461,811.79079 C 598.8571,813.29801 600.50215,807.61832 599.78567,805.72064 C 597.53485,800.67722 594.46875,796.13239 594.19707,790.5426 C 602.49221,781.87069 606.4417,785.67835 615.4038,789.64547 C 624.25301,793.7461 625.8214,788.1403 618.67996,795.51527 C 618.26629,784.75363 612.9295,774.25672 608.7262,764.41125 C 602.95019,750.96738 596.71055,737.72986 590.41038,724.52563 C 587.62596,718.44109 584.38329,712.52477 582.27982,706.15653 C 581.98758,693.43982 591.67084,698.05916 596.60973,702.40729 C 598.96252,704.6985 601.71899,706.66308 604.56739,707.89555 C 595.26291,713.71225 599.28583,714.63855 596.39411,704.73979 C 593.34669,695.64142 589.45463,686.84997 585.48887,678.12132 C 580.91138,668.18599 576.31873,658.25731 571.59269,648.3916 C 569.50619,644.0564 567.39231,639.73398 565.1944,635.45411 C 576.82045,625.64463 574.3745,628.02773 580.04093,636.82395 C 582.32327,640.35676 584.55223,644.27059 588.06532,646.40104 C 578.84782,642.46357 583.50475,657.92484 580.19963,645.86697 C 578.24136,639.47665 575.70101,633.28469 573.15191,627.11249 C 570.58882,621.02723 567.86525,615.01033 565.08926,609.0196 C 563.27926,605.03303 561.4697,601.03116 558.52977,597.7736 C 556.22589,597.00944 557.64768,597.7609 556.62368,599.12445 C 566.52572,588.52304 560.42933,594.72928 559.01948,599.32953 C 558.25645,602.43288 558.12823,605.61987 558.08153,608.79856 L 546.94361,613.322 C 546.86118,609.73216 546.86666,606.13372 547.44517,602.57761 C 548.69795,595.53044 550.36919,591.90817 556.74914,587.10368 C 560.46363,585.85925 563.71491,586.45575 566.77658,589.02689 C 570.44441,592.80007 572.88408,597.3716 574.98119,602.18845 C 577.81293,608.24663 580.56132,614.34517 583.18808,620.49507 C 585.8388,626.85834 588.4596,633.24509 590.58242,639.80789 C 592.75338,646.94972 593.31876,659.79139 581.71526,656.60846 C 576.83485,653.66426 573.60981,649.20225 570.66889,644.35253 C 564.83451,635.34591 562.37809,635.80989 574.91132,628.37626 C 577.17043,632.71199 579.3234,637.10197 581.44669,641.50587 C 586.20056,651.40544 590.81343,661.37138 595.41631,671.34188 C 599.49824,680.28904 603.48785,689.29914 606.72483,698.59235 C 609.02896,705.87236 612.50341,720.76784 598.71135,718.39419 C 594.89572,716.54842 591.49756,714.10573 588.39943,711.18828 C 581.83848,705.41249 589.65485,710.00914 593.26594,701.27596 C 594.6279,706.3548 597.78668,712.46623 600.27394,717.65359 C 606.61133,730.93239 612.90298,744.23728 618.73254,757.74883 C 623.49054,768.82272 628.75082,780.14335 630.23452,792.1976 C 628.90017,805.71679 616.96204,803.76564 608.68221,799.61217 C 600.25712,795.86741 595.11363,797.94736 606.2185,790.53534 C 607.03936,793.52231 608.46042,796.31889 609.82093,799.10185 C 613.67806,808.34634 612.54932,817.73758 600.35746,819.75004 C 589.99175,821.04828 579.49725,820.57256 569.07577,820.98328 C 558.26066,821.19062 547.43572,821.45864 536.62153,821.10101 C 529.86474,820.68424 522.41095,820.34955 517.99681,814.49947 C 514.82594,807.89424 517.67157,801.60211 520.79569,795.43912 C 524.56145,787.83575 528.63108,780.38717 532.39945,772.78443 C 534.20836,769.14131 536.28482,761.94777 539.276,761.52123 C 538.34887,762.12586 533.04164,764.60897 529.53442,761.77886 C 523.26823,755.0455 528.81481,746.5842 532.18868,739.51937 C 537.20385,729.45252 542.38063,719.46766 547.526,709.46707 C 551.38894,701.94119 555.32662,694.42695 558.49549,686.57546 C 560.19856,682.51596 563.73034,686.44166 557.82746,687.37302 C 550.36824,689.27782 544.04224,686.8835 541.93767,678.91407 C 540.22216,667.724 542.63204,656.46549 543.56162,645.28666 C 544.55822,636.1267 545.58547,626.97058 546.92371,617.85286 C 547.12834,616.32575 547.44416,612.02104 547.98281,611.72154 L 559.16005,607.29616 z " />
    <path
       style="fill:#000000;fill-opacity:1;fill-rule:nonzero;stroke:none;stroke-width:1px;stroke-linecap:butt;stroke-linejoin:miter;stroke-opacity:1"
       id="path1454"
       d="M 371.30291,245.1533 C 371.37283,246.35468 371.2757,247.54982 371.21149,248.74981 C 371.02649,252.63343 370.28935,256.44299 369.4416,260.22631 C 368.42427,264.83001 366.36247,269.0088 363.97131,273.02807 C 359.98163,279.46459 354.44203,284.26629 347.40234,286.65301 C 345.17986,287.29086 342.87548,287.37211 340.58594,287.50863 L 344.58257,276.17101 C 346.32101,275.8939 348.06985,275.68189 349.65627,274.84477 C 360.51604,268.47514 345.69746,277.44751 351.96836,273.69451 C 354.43845,270.45557 356.58772,267.00759 357.76023,263.06537 C 358.72014,259.67096 359.56701,256.23653 359.8606,252.7086 C 359.95845,251.66421 360.09053,250.621 360.12567,249.57869 L 371.30291,245.1533 z " />
    <path
       style="fill:#000000;fill-opacity:1;fill-rule:nonzero;stroke:none;stroke-width:1px;stroke-linecap:butt;stroke-linejoin:miter;stroke-opacity:1"
       id="path1456"
       d="M 405.58862,243.01807 C 405.59584,243.68879 405.57361,244.35784 405.5661,245.02817 C 405.62824,247.58848 406.12412,250.11394 406.52614,252.63695 C 407.04436,256.22092 407.78328,259.75451 408.84701,263.21362 C 409.79006,266.48145 411.73982,268.91996 414.12845,271.21861 C 417.07048,273.66954 420.62743,274.78976 424.29522,275.60515 C 425.60497,275.89526 426.94337,275.92364 428.27358,276.01742 L 423.39819,287.00584 C 421.79812,286.78038 420.18538,286.62073 418.61814,286.20164 C 414.03671,284.91985 409.63082,283.21687 405.97832,280.05547 C 402.7801,277.05835 400.10556,273.7531 398.63126,269.55026 C 397.31469,265.78341 396.32668,261.93752 395.75739,257.98006 C 395.31529,255.23774 394.81712,252.50197 394.50692,249.74083 C 394.47329,248.97517 394.37085,248.21214 394.41138,247.44346 L 405.58862,243.01807 z " />
    <path
       style="fill:#000000;fill-opacity:1;fill-rule:nonzero;stroke:none;stroke-width:1px;stroke-linecap:butt;stroke-linejoin:miter;stroke-opacity:1"
       id="path1460"
       d="M 614.16005,244.43902 C 614.14551,245.44407 614.16547,246.44849 614.16958,247.45331 C 614.26843,250.34038 614.36819,253.22709 614.40758,256.11546 C 614.58445,260.28742 613.71401,264.13449 611.96073,267.86566 C 605.72414,275.66785 598.83919,277.97431 589.41561,279.03596 C 587.42019,279.24032 585.41481,279.28823 583.41209,279.36489 L 587.57861,268.08859 C 589.42108,267.96392 591.26787,267.87274 593.09588,267.59173 C 598.83935,266.58328 611.69952,258.44781 599.93934,267.83336 C 602.46851,265.94906 603.11235,263.62872 603.18873,260.43428 C 603.24029,257.64202 603.20261,254.85266 603.06655,252.06171 C 603.0273,250.99599 602.9637,249.93123 602.98281,248.8644 L 614.16005,244.43902 z " />
    <path
       style="fill:#000000;fill-opacity:1;fill-rule:nonzero;stroke:none;stroke-width:1px;stroke-linecap:butt;stroke-linejoin:miter;stroke-opacity:1"
       id="path1462"
       d="M 644.87434,246.58188 C 644.76233,246.95879 644.93328,248.65791 644.97965,249.44788 C 645.10971,252.69952 645.18857,255.95266 645.31773,259.20434 C 645.32929,262.70488 645.9408,266.10324 646.90614,269.44515 C 647.95017,272.29027 650.17729,273.92789 652.57921,275.56721 C 653.15987,275.9327 653.78884,276.20971 654.39317,276.5307 L 647.34576,286.26973 C 646.60149,285.84273 645.82501,285.46912 645.11179,284.98806 C 641.68065,282.59369 638.57824,279.90987 636.82823,275.99882 C 635.32321,272.11926 634.40518,268.09738 634.25828,263.91637 C 634.08933,260.64812 633.97952,257.37839 633.89773,254.10682 C 633.8612,253.07618 633.90353,252.01351 633.69709,251.00726 L 644.87434,246.58188 z " />
    <path
       style="fill:#000000;fill-opacity:1;fill-rule:nonzero;stroke:none;stroke-width:1px;stroke-linecap:butt;stroke-linejoin:miter;stroke-opacity:1"
       id="path1468"
       d="M 542.06921,560.09366 C 549.58136,559.90475 549.8161,548.23933 549.80193,555.48542 C 549.93693,558.98328 550.03688,562.47881 549.96471,565.97708 C 549.14708,574.04415 542.35621,579.56328 535.18047,582.486 C 530.46228,584.29434 525.4785,585.1746 520.50539,585.93674 L 523.98759,574.4307 C 528.44889,573.62495 532.92647,572.67025 536.99968,570.60302 C 545.87008,564.84086 530.85126,577.82812 538.49639,569.58157 C 538.91987,566.4341 538.89655,563.27593 538.6955,560.08563 C 538.46493,554.18793 538.56511,551.16657 546.49459,548.91642 L 542.06921,560.09366 z " />
    <path
       style="fill:#000000;fill-opacity:1;fill-rule:nonzero;stroke:none;stroke-width:1px;stroke-linecap:butt;stroke-linejoin:miter;stroke-opacity:1"
       id="path1470"
       d="M 587.73148,553.01426 C 587.73148,554.2631 587.73148,555.51195 587.73148,556.76079 C 587.61517,560.42848 587.8849,564.0267 588.88291,567.55121 C 590.72641,571.89005 595.10595,572.98979 599.31783,574.0747 C 603.20243,575.00104 607.18631,575.25948 611.16181,575.42271 L 606.46285,586.48772 C 602.07737,586.18157 597.68956,585.74449 593.43813,584.56011 C 587.374,582.73284 581.65105,580.14591 578.80255,574.10111 C 577.12325,569.9653 576.49192,565.64886 576.55424,561.18618 C 576.55424,559.93733 576.55424,558.68849 576.55424,557.43964 L 587.73148,553.01426 z " />
    <path
       style="fill:#000000;fill-opacity:1;fill-rule:nonzero;stroke:none;stroke-width:1px;stroke-linecap:butt;stroke-linejoin:miter;stroke-opacity:1"
       id="path1472"
       d="M 375.58862,549.43902 C 375.78859,550.53214 375.49069,551.71386 375.35484,552.84359 C 375.06338,557.06022 374.9365,561.28622 374.81338,565.51047 C 374.54042,570.1156 374.52605,574.60565 376.33687,578.87602 C 379.38449,582.73825 384.38703,583.98146 388.93689,585.28081 L 382.93617,595.69744 C 376.8529,593.80212 370.67887,591.57499 366.80624,586.2028 C 363.92495,581.10448 363.18767,575.59868 363.57522,569.7788 C 363.68744,565.47975 363.80783,561.18037 364.03327,556.88547 C 364.07332,556.12817 363.93921,553.27464 364.41138,553.8644 L 375.58862,549.43902 z " />
    <path
       style="fill:#000000;fill-opacity:1;fill-rule:nonzero;stroke:none;stroke-width:1px;stroke-linecap:butt;stroke-linejoin:miter;stroke-opacity:1"
       id="path1476"
       d="M 335.58862,548.72473 C 335.61182,549.92168 335.57871,551.11734 335.55786,552.31406 C 335.45495,555.97526 335.3792,559.63681 335.22954,563.2964 C 335.17069,567.80562 334.01831,571.97596 332.07981,576.00076 C 328.32383,583.06017 322.11061,587.38973 314.79181,589.82148 C 314.03375,590.06494 313.25748,590.24197 312.49032,590.45222 L 315.17372,578.73411 C 315.81986,578.49811 316.48263,578.30759 317.11215,578.0261 C 329.19338,572.27587 312.97916,581.41773 320.09637,576.95559 C 322.259,574.03807 323.73179,571.02711 323.89901,567.31309 C 324.15458,563.73934 324.24382,560.16022 324.31794,556.57775 C 324.35608,555.43523 324.4105,554.29301 324.41138,553.15012 L 335.58862,548.72473 z " />
    <path
       style="fill:#000000;fill-opacity:1;fill-rule:nonzero;stroke:none;stroke-width:1px;stroke-linecap:butt;stroke-linejoin:miter;stroke-opacity:1"
       id="path1478"
       d="M 136.61356,552.65946 C 142.41801,546.09592 143.87841,544.01487 141.14982,548.0693 C 139.94097,550.77498 139.25655,553.66261 138.60068,556.53986 C 137.81406,559.76752 137.55441,562.94254 138.24926,566.15551 C 140.66357,569.83091 145.18305,570.65386 149.25414,571.48599 C 150.57799,571.73225 151.91671,571.8777 153.2505,572.05476 L 148.0377,582.88719 C 146.56863,582.64833 145.09097,582.45409 143.6395,582.11569 C 137.68673,580.62628 131.72591,578.55354 128.38491,573.02642 C 126.39009,568.79926 126.17854,564.44411 127.04764,559.86282 C 127.62423,556.62446 128.28389,553.3948 129.33156,550.27007 C 131.11178,545.12114 130.32998,546.31012 136.23596,540.64396 L 136.61356,552.65946 z " />
    <path
       style="fill:#000000;fill-opacity:1;fill-rule:nonzero;stroke:none;stroke-width:1px;stroke-linecap:butt;stroke-linejoin:miter;stroke-opacity:1"
       id="path1482"
       d="M 99.160049,530.86759 C 99.502973,532.19406 98.869986,533.90109 98.573211,535.5308 C 97.477315,541.57267 96.325858,547.58904 94.520108,553.4628 C 92.465531,559.87435 89.176429,565.69428 84.946659,570.8998 C 79.250579,577.79327 72.663688,582.43385 64.674201,585.99323 C 63.740897,586.4078 62.799254,586.80314 61.861791,587.20809 L 63.792523,575.34272 C 64.678246,574.92974 65.57668,574.54342 66.449914,574.10368 C 71.989347,571.10571 82.243966,562.52176 72.926078,570.75707 C 77.213412,566.4876 80.61491,561.56445 82.739612,555.85752 C 84.795834,550.34511 86.032669,544.64139 87.018411,538.84762 C 87.179529,538.01771 87.642414,533.31816 87.982808,535.29297 L 99.160049,530.86759 z " />
    <path
       style="fill:#000000;fill-opacity:1;fill-rule:nonzero;stroke:none;stroke-width:1px;stroke-linecap:butt;stroke-linejoin:miter;stroke-opacity:1"
       id="path1488"
       d="M 101.30291,767.29616 C 101.42029,769.12482 101.11572,770.96786 100.91402,772.78624 C 100.12916,779.07265 98.876488,785.28606 97.574954,791.48201 C 96.029156,798.4907 94.567111,805.54059 92.19611,812.32428 C 88.773935,821.23591 81.334484,827.26345 72.216701,829.4057 C 68.723173,830.128 65.159003,830.25185 61.605374,830.31073 L 65.880332,819.0751 C 68.982018,818.90034 72.09813,818.66817 75.081788,817.73069 C 91.071405,811.84148 69.046262,824.44963 80.332468,814.2656 C 83.319486,808.10861 84.359467,801.25027 85.977703,794.64721 C 87.290744,788.60522 88.577719,782.55064 89.457309,776.42748 C 89.672076,774.88048 89.839639,773.20214 90.125665,771.72154 L 101.30291,767.29616 z " />
    <path
       style="fill:#000000;fill-opacity:1;fill-rule:nonzero;stroke:none;stroke-width:1px;stroke-linecap:butt;stroke-linejoin:miter;stroke-opacity:1"
       id="path1496"
       d="M 135.58862,771.58188 C 135.89806,772.58603 135.58838,773.32766 135.27459,774.66326 C 134.74779,778.36779 134.63377,782.11373 134.53948,785.84902 C 134.44454,791.32502 134.95868,796.78003 135.6135,802.20933 C 136.09422,807.04738 137.35475,811.69393 139.16579,816.18468 C 140.66314,819.79172 143.07181,822.59369 146.07036,825.00782 C 149.53669,827.63109 153.66913,828.54642 157.84823,829.32597 C 157.84424,829.35525 159.94329,829.61901 159.94448,829.61918 L 154.68396,840.42851 C 154.62339,840.41807 152.43729,840.0694 152.37834,840.03088 C 147.28166,838.94041 142.36245,837.32883 138.19016,834.08621 C 134.44684,830.97526 131.26519,827.45573 129.23527,822.95959 C 126.99422,817.99763 125.44345,812.79657 124.76083,807.37984 C 124.0099,801.70139 123.38341,795.99551 123.35669,790.26036 C 123.33912,786.28598 123.46856,782.31276 123.8336,778.35358 C 123.91655,777.63689 124.04916,773.53362 124.41138,776.00726 L 135.58862,771.58188 z " />
    <path
       style="fill:#000000;fill-opacity:1;fill-rule:nonzero;stroke:none;stroke-width:1px;stroke-linecap:butt;stroke-linejoin:miter;stroke-opacity:1"
       id="path1498"
       d="M 317.73148,805.15712 C 317.87699,806.59707 317.56819,808.11617 317.4118,809.57078 C 317.08455,813.16995 316.57066,816.74214 315.88152,820.28755 C 314.84206,825.05754 312.32012,829.14749 309.26754,832.8798 C 303.40013,839.98384 297.09906,843.62986 288.4372,845.72571 C 285.63154,846.33147 282.76974,846.51676 279.91165,846.65856 L 283.97028,835.34299 C 286.44589,835.06082 288.93684,834.8305 291.32341,834.05589 C 296.01899,832.43443 308.99736,822.91449 297.24999,832.5747 C 300.1491,829.85919 302.78038,826.91145 304.20016,823.12668 C 305.14984,819.94089 305.70081,816.68018 306.00496,813.36533 C 306.11096,812.36661 306.2438,809.75994 306.55424,809.5825 L 317.73148,805.15712 z " />
    <path
       style="fill:#000000;fill-opacity:1;fill-rule:nonzero;stroke:none;stroke-width:1px;stroke-linecap:butt;stroke-linejoin:miter;stroke-opacity:1"
       id="path1500"
       d="M 382.73148,798.01045 C 382.41091,797.73627 382.79761,799.25431 382.82078,799.69005 C 383.55034,802.78947 384.39962,805.85897 385.24749,808.9276 C 386.35489,813.04753 387.83366,817.04704 389.45751,820.98652 C 391.02266,824.90217 393.42957,828.24946 396.29696,831.29195 C 399.46473,834.42586 403.37194,836.50646 407.35293,838.40098 C 409.08571,839.19705 410.89171,839.80685 412.68456,840.44731 L 406.36808,850.67554 C 404.40438,849.93012 402.42569,849.2178 400.53244,848.30026 C 395.9249,846.05123 391.48045,843.4378 387.8096,839.80544 C 384.35261,836.26108 381.47815,832.26494 379.48943,827.70605 C 377.68817,823.52854 376.05343,819.28116 374.81346,814.89802 C 373.92959,811.7579 373.05512,808.61435 372.26819,805.44831 C 372.02336,804.4436 371.77213,803.43588 371.55424,802.43583 L 382.73148,798.01045 z " />
    <path
       style="fill:#000000;fill-opacity:1;fill-rule:nonzero;stroke:none;stroke-width:1px;stroke-linecap:butt;stroke-linejoin:miter;stroke-opacity:1"
       id="path1502"
       d="M 561.30291,813.01045 C 561.74597,814.26704 561.40754,814.58408 560.67721,816.72209 C 559.53496,820.07253 558.3643,823.41289 557.12471,826.7283 C 554.29019,834.13991 548.7829,840.13819 541.94077,844.14033 C 537.60228,846.62141 532.79036,847.7166 527.90311,848.45864 L 531.33885,836.93864 C 535.4652,836.05235 539.42481,834.71435 542.84364,832.15286 C 550.80796,825.18958 535.14449,841.54304 545.2642,828.68866 C 546.66933,825.58512 547.82894,822.38836 548.90444,819.15447 C 549.20881,818.27098 550.3001,814.20513 550.12567,817.43583 L 561.30291,813.01045 z " />
    <path
       style="fill:#000000;fill-opacity:1;fill-rule:nonzero;stroke:none;stroke-width:1px;stroke-linecap:butt;stroke-linejoin:miter;stroke-opacity:1"
       id="path1504"
       d="M 584.16005,814.43902 C 584.04476,814.84941 584.2102,816.3588 584.26091,817.11739 C 584.42723,819.98193 584.4339,822.8509 584.44757,825.71908 C 584.39149,829.16536 584.85898,832.55454 585.58273,835.91164 C 586.44409,839.70892 588.69309,842.49183 591.47374,845.06867 C 595.05883,847.99224 599.25592,849.93351 603.54589,851.57457 L 597.07985,861.70892 C 592.17154,859.70443 587.38462,857.33512 583.3073,853.89047 C 579.6044,850.54173 576.60904,846.70177 575.13402,841.85632 C 574.11009,838.06566 573.36228,834.21494 573.32065,830.26949 C 573.26306,827.44539 573.28928,824.62058 573.18789,821.79745 C 573.15032,820.82105 573.18164,819.81792 572.98281,818.8644 L 584.16005,814.43902 z " />
  </g>
</svg>
