<?xml version="1.0" encoding="UTF-8" standalone="no"?>
<!-- Created with Inkscape (http://www.inkscape.org/) -->
<svg
   xmlns:dc="http://purl.org/dc/elements/1.1/"
   xmlns:cc="http://web.resource.org/cc/"
   xmlns:rdf="http://www.w3.org/1999/02/22-rdf-syntax-ns#"
   xmlns:svg="http://www.w3.org/2000/svg"
   xmlns="http://www.w3.org/2000/svg"
   xmlns:sodipodi="http://inkscape.sourceforge.net/DTD/sodipodi-0.dtd"
   xmlns:inkscape="http://www.inkscape.org/namespaces/inkscape"
   width="744.09448819"
   height="1052.3622047"
   id="svg2"
   sodipodi:version="0.32"
   inkscape:version="0.43"
   sodipodi:docbase="C:\Documents and Settings\Cowbert\Desktop"
   sodipodi:docname="volcano.svg"
   inkscape:export-filename="C:\Documents and Settings\Cowbert\Desktop\volcano.png"
   inkscape:export-xdpi="72"
   inkscape:export-ydpi="72">
  <defs
     id="defs4">
    <linearGradient
       id="linearGradient2235">
      <stop
         id="stop2237"
         offset="0"
         style="stop-color:#98521d;stop-opacity:1;" />
      <stop
         style="stop-color:#9c612a;stop-opacity:1;"
         offset="0.8888889"
         id="stop2243" />
      <stop
         id="stop2239"
         offset="1"
         style="stop-color:#a07037;stop-opacity:0;" />
    </linearGradient>
    <linearGradient
       id="linearGradient7049">
      <stop
         id="stop7051"
         offset="0"
         style="stop-color:#98521d;stop-opacity:1;" />
      <stop
         style="stop-color:#9c612a;stop-opacity:1;"
         offset="0.8888889"
         id="stop7053" />
      <stop
         id="stop7055"
         offset="1"
         style="stop-color:#a07037;stop-opacity:0;" />
    </linearGradient>
  </defs>
  <sodipodi:namedview
     id="base"
     pagecolor="#ffffff"
     bordercolor="#666666"
     borderopacity="1.0"
     inkscape:pageopacity="0.0"
     inkscape:pageshadow="2"
     inkscape:zoom="0.49497475"
     inkscape:cx="791.15184"
     inkscape:cy="761.03047"
     inkscape:document-units="px"
     inkscape:current-layer="layer7"
     inkscape:window-width="1045"
     inkscape:window-height="977"
     inkscape:window-x="-4"
     inkscape:window-y="-4" />
  <metadata
     id="metadata7">
    <rdf:RDF>
      <cc:Work
         rdf:about="">
        <dc:format>image/svg+xml</dc:format>
        <dc:type
           rdf:resource="http://purl.org/dc/dcmitype/StillImage" />
      </cc:Work>
    </rdf:RDF>
  </metadata>
  <g
     inkscape:label="1"
     inkscape:groupmode="layer"
     id="layer1"
     style="display:inline">
    <path
       style="color:#000000;fill:#493f35;fill-opacity:0.82716047;fill-rule:evenodd;stroke:none;stroke-width:15;stroke-linecap:square;stroke-linejoin:miter;marker:none;marker-start:none;marker-mid:none;marker-end:none;stroke-miterlimit:4;stroke-dasharray:none;stroke-dashoffset:0;stroke-opacity:1;visibility:visible;display:inline;overflow:visible"
       d="M 293.25661,108.00977 C 305.17298,83.779543 331.77002,71.373145 356.20461,63.634285 C 375.22284,56.749072 395.97763,68.898789 383.68896,89.81286 C 394.64111,108.33682 417.07718,73.620354 435.57661,77.342622 C 463.2588,72.516201 486.07606,116.33677 465.66884,135.5284 C 453.26696,157.02912 462.57413,160.06606 480.32272,148.79244 C 506.42127,142.00616 526.36829,173.66107 522.63023,196.79562 C 534.40636,223.57794 486.79802,227.43468 472.6674,208.22466 C 458.38098,183.24548 457.27014,199.92434 424.61745,203.06306 C 398.75177,197.83874 387.21137,168.55913 382.39291,145.71351 C 375.65514,120.33883 346.1361,130.61227 327.70078,125.86358 C 315.12531,122.39987 303.70393,115.67779 293.25661,108.00977 z "
       id="path3964"
       sodipodi:nodetypes="cccccccccccc" />
    <path
       style="color:#000000;fill:#86572c;fill-opacity:1;fill-rule:evenodd;stroke:none;stroke-width:15;stroke-linecap:square;stroke-linejoin:miter;marker:none;marker-start:none;marker-mid:none;marker-end:none;stroke-miterlimit:4;stroke-dasharray:none;stroke-dashoffset:0;stroke-opacity:1;visibility:visible;display:inline;overflow:visible"
       d="M 192.54233,244.43834 C 78.67681,304.43895 602.96921,301.16165 446.19635,234.31741 C 416.86718,213.59476 394.71973,184.55819 385.25612,149.77046 C 376.83514,108.11747 358.03233,133.52053 319.80374,122.00872 C 299.51737,104.16331 276.16012,102.5203 267.18912,137.944 C 250.09689,176.26226 235.21325,226.38317 192.54233,244.43834 z "
       id="path2210"
       sodipodi:nodetypes="cccccc" />
    <path
       style="color:#000000;fill:#353535;fill-opacity:1;fill-rule:evenodd;stroke:none;stroke-width:15;stroke-linecap:square;stroke-linejoin:miter;marker:none;marker-start:none;marker-mid:none;marker-end:none;stroke-miterlimit:4;stroke-dasharray:none;stroke-dashoffset:0;stroke-opacity:1;visibility:visible;display:inline;overflow:visible"
       d="M 271.82804,123.72405 C 272.56562,136.97339 262.63295,148.08479 263.18278,161.3102 C 260.21998,173.96637 279.98627,173.77052 280.64854,161.89528 C 284.53249,152.09711 299.70758,151.36849 301.41891,162.84769 C 300.74,171.647 308.89856,182.60829 317.30953,174.14996 C 326.62775,164.40711 330.81145,178.34178 336.73458,183.05571 C 346.58538,187.69708 349.61566,174.39361 356.6068,171.70729 C 364.01708,174.67816 371.11673,189.82669 378.98077,177.02409 C 386.75322,166.63112 391.50478,151.72398 384.22143,139.77929 C 379.87043,131.01156 369.87667,126.20047 360.27714,127.84988 C 337.11102,129.55949 313.22656,124.76492 293.76103,111.73209 C 285.49445,105.27152 274.80616,113.22495 272.99721,122.05878 L 271.82804,123.72405 L 271.82804,123.72405 z "
       id="path3089" />
    <path
       style="fill:#000000;fill-opacity:1;fill-rule:nonzero;stroke:none;stroke-width:1px;stroke-linecap:butt;stroke-linejoin:miter;stroke-opacity:1"
       id="path1309"
       d="M 180.47992,244.21004 C 181.48027,243.24822 184.23477,242.60304 185.84464,242.02874 C 194.28572,239.04663 202.23553,235.01981 209.81901,230.29414 C 227.65731,215.47651 217.65941,227.79873 231.33613,208.08227 C 240.88518,193.97366 248.0839,178.46369 254.2473,162.62791 C 259.48325,149.26466 263.22662,135.38158 268.38782,121.99506 C 272.50436,111.74526 279.57861,101.2228 291.53726,102.24545 C 298.00674,103.70339 303.72769,107.19114 309.43973,110.42399 C 315.31807,113.96827 321.5505,116.79864 327.92576,119.30449 C 334.20822,121.77937 340.74675,122.97791 347.454,123.30706 C 353.71917,123.47105 359.73619,121.74618 365.7772,120.35928 C 372.01425,118.92842 376.19881,121.24046 380.15384,125.84625 C 383.84914,131.66542 385.47764,138.46635 387.32726,145.03533 C 389.58291,153.67101 392.7192,162.02112 396.25557,170.20346 C 400.33861,179.64067 405.63852,188.45866 411.27683,197.03194 C 416.35024,204.68864 422.02981,211.907 428.38688,218.53277 C 433.48927,223.89412 439.49335,228.1602 445.77355,232.00422 C 451.20024,235.23728 457.09472,237.47379 463.07599,239.4236 C 465.84509,240.30489 468.68096,240.93298 471.50995,241.5813 L 464.35904,252.18615 C 461.4238,251.46604 458.48133,250.76618 455.6107,249.80953 C 449.35707,247.66972 443.20004,245.23073 437.53038,241.78421 C 430.92503,237.74875 424.70055,233.12657 419.3072,227.54152 C 412.7619,220.72571 406.88541,213.32265 401.64867,205.45197 C 395.84946,196.69056 390.39372,187.67804 386.14989,178.04395 C 382.48695,169.70534 379.19933,161.19807 376.85793,152.38322 C 375.13562,146.28269 373.71117,139.96298 370.62515,134.37867 C 367.5131,130.88392 364.93908,130.50398 360.29583,131.91578 C 353.94683,133.43701 347.53679,134.77122 340.95984,134.32632 C 333.85884,133.6695 326.90687,132.24688 320.26673,129.54839 C 313.70205,126.93465 307.3373,123.8747 301.26048,120.2575 C 296.06376,117.33417 290.82833,114.00312 284.83377,113.13862 C 271.56354,115.75076 291.59901,103.15967 280.24351,117.19498 C 274.7273,130.41871 271.18281,144.34564 266.05895,157.72045 C 259.96549,173.82392 252.87086,189.61626 243.49195,204.10304 C 233.56836,219.18274 221.15853,232.91064 205.66522,242.39142 C 197.75636,246.97122 189.49775,250.87897 180.82001,253.79103 C 178.67232,254.4999 176.41313,255.60114 174.14273,255.32032 L 180.47992,244.21004 z " />
    <path
       style="fill:#000000;fill-opacity:1;fill-rule:nonzero;stroke:none;stroke-width:1px;stroke-linecap:butt;stroke-linejoin:miter;stroke-opacity:1"
       id="path1311"
       d="M 273.6949,127.67556 C 283.56522,115.87778 283.5364,106.89049 281.29837,112.52965 C 279.87388,117.11586 277.49504,131.82518 276.59035,136.53508 C 275.37286,143.33218 274.52712,150.18575 274.07312,157.07279 C 273.77738,158.97986 274.84974,160.92288 275.81446,162.59432 C 284.63237,152.88545 266.88947,172.61335 278.55103,158.94139 C 284.98745,151.78621 290.06348,143.17519 299.5185,147.94599 C 304.20905,151.79379 306.0774,157.57269 307.94899,163.13499 C 308.90986,168.45163 310.29107,171.38402 313.93627,172.84129 C 317.94627,169.39695 321.38948,165.50411 326.00183,162.88854 C 332.1347,161.54561 335.34861,166.0538 338.20514,170.75899 C 339.29549,176.11717 342.44608,176.77034 344.36044,177.50931 C 334.27121,188.28099 341.02984,179.7612 345.59684,171.28446 C 353.94631,160.25757 357.46167,159.72541 363.64336,169.01103 C 365.60009,172.87347 367.596,175.72668 371.47366,177.11862 C 382.56197,170.62613 376.61805,174.26258 374.53833,176.29891 C 376.61564,174.10909 378.23104,171.56848 379.88532,169.06349 L 391.95349,164.82587 C 390.37018,167.55869 388.82517,170.32139 386.83926,172.79386 C 380.44588,179.42299 374.6737,188.7245 364.52012,187.8539 C 359.48899,185.74346 356.38687,182.17471 353.89386,177.29025 C 349.45667,170.30084 349.66474,175.6371 357.78022,167.39044 C 351.99636,175.58623 349.85264,184.63558 339.54199,189.35755 C 333.11041,188.81181 330.66784,184.61862 328.31075,178.86449 C 326.39517,175.48225 325.479,172.76983 321.76197,174.95593 C 317.61083,178.66703 313.81758,183.38975 308.04918,184.19648 C 301.16568,182.37242 299.06058,177.28846 297.53646,170.56315 C 296.09353,165.99205 294.81995,161.07983 291.25039,157.70492 C 280.57291,160.12861 279.39383,170.6312 271.00904,174.44785 C 264.55386,173.99781 262.93724,169.4191 262.91056,163.31742 C 263.13147,156.23477 263.95853,149.20269 265.12826,142.21123 C 265.97269,137.35822 266.88056,132.51245 268.19798,127.76099 C 269.92474,121.42932 269.58962,122.0403 276.87578,115.28684 L 273.6949,127.67556 z "
       sodipodi:nodetypes="cccccccccccccccccccccccccccccccccc" />
    <path
       style="fill:#000000;fill-opacity:1;fill-rule:nonzero;stroke:none;stroke-width:1px;stroke-linecap:butt;stroke-linejoin:miter;stroke-opacity:1"
       id="path2204"
       d="M 286.98866,104.32086 C 288.04333,102.69334 291.8422,97.395982 292.87837,95.735595 C 297.75386,88.519678 304.58398,83.091816 311.5999,78.087209 C 322.54485,70.589024 334.8205,65.560904 347.40323,61.573385 C 357.47629,58.592378 368.05811,56.52574 378.36188,59.337091 C 388.62456,63.497572 390.85804,72.842863 389.54554,82.478129 C 388.4948,87.465112 386.28826,92.38662 386.22981,97.285242 C 379.15295,89.370753 384.54713,91.54191 393.00761,88.035105 C 402.10199,84.132991 411.45644,80.892419 420.92956,78.048857 C 430.18942,75.148659 439.51324,74.155849 448.92651,76.640175 C 460.37259,80.760323 468.19149,90.546143 472.58964,101.65346 C 475.76838,110.99984 474.571,120.60297 472.19959,129.95724 C 470.13625,137.8817 466.09971,145.00315 462.2999,152.18017 C 461.6755,162.46202 454.51192,150.76594 460.64955,152.41442 C 467.84121,151.39178 474.7555,149.0184 481.82584,147.39269 C 489.27968,145.50663 496.3944,146.55451 503.48587,149.08798 C 511.63085,152.44556 515.58812,158.66006 520.55507,165.70818 C 522.5777,169.76586 522.87801,174.09748 522.8697,178.53375 C 522.33974,182.54436 522.2802,186.50929 522.69215,190.51746 C 525.24506,198.23029 526.6543,198.45091 523.0792,193.63251 C 523.68859,194.44838 524.53554,195.02876 525.26096,195.72425 L 527.02762,204.40123 C 526.1564,203.72998 525.22876,203.12857 524.41273,202.38652 C 520.038,196.90696 515.85914,192.78885 515.23622,185.74042 C 515.09511,181.61394 515.34313,177.53242 515.64437,173.41462 C 515.37307,169.37047 514.80046,165.48189 512.51084,162.00665 C 517.44828,168.33063 513.65045,161.85422 505.96705,157.58826 C 499.52989,154.82924 493.04149,153.50844 486.05741,155.17117 C 478.84092,156.76609 471.81172,159.14106 464.51974,160.37888 C 456.07305,160.84989 451.26716,153.15959 455.957,146.00128 C 459.68671,139.02117 463.53309,132.03697 465.40727,124.2761 C 467.47805,115.34637 468.32439,106.25714 464.73848,97.558298 C 460.88143,89.469809 465.64672,94.013924 451.68655,85.054042 C 442.9072,82.131524 434.13722,83.027193 425.34931,85.721978 C 415.97114,88.498546 406.714,91.687225 397.71611,95.534502 C 388.66101,99.303105 384.20906,103.36277 378.7016,92.622933 C 379.62051,87.331228 381.63538,82.326418 382.56917,77.024578 C 382.85318,73.363931 378.44703,63.296982 380.74322,66.162031 C 388.84799,76.27467 383.83556,69.374897 381.00423,67.788656 C 371.3463,64.65884 361.48001,66.315454 351.85197,69.229732 C 339.54542,73.064291 327.53424,77.921929 316.83364,85.229961 C 310.1311,90.003783 303.57509,95.171947 299.00443,102.12953 C 298.6537,102.73001 296.03536,106.7161 297.10116,105.82591 L 286.98866,104.32086 z "
       sodipodi:nodetypes="cccccccccccccccccccccccccccccccccccccscccccc" />
    <path
       style="fill:#000000;fill-opacity:1;fill-rule:nonzero;stroke:none;stroke-width:1px;stroke-linecap:butt;stroke-linejoin:miter;stroke-opacity:1"
       id="path2206"
       d="M 389.75174,165.59699 C 392.4368,168.83678 394.59057,171.98141 396.87529,175.43317 C 404.66362,186.0402 393.13051,171.29068 400.60561,180.29975 C 404.74482,185.23484 409.76656,189.13277 415.22313,192.47361 C 421.08934,195.71425 427.49238,196.44353 434.06396,196.35973 C 439.47175,196.21958 444.31833,194.28605 449.08782,191.9493 C 452.2727,189.86858 455.23032,189.34843 458.8502,189.65613 C 461.83896,190.85276 463.6799,193.44279 465.68586,195.83489 C 468.32358,198.96116 471.43689,201.61137 474.57743,204.20776 C 478.17887,207.20204 482.39883,209.06331 486.71387,210.74151 C 490.93966,212.2363 495.34658,212.5081 499.77764,212.55964 C 503.82374,212.53768 507.55262,211.29726 511.22428,209.75188 C 514.67093,208.1657 517.14323,205.4994 519.51344,202.64241 C 520.83545,200.89408 521.79061,198.92607 522.80723,196.99832 L 529.1766,203.14991 C 528.02892,205.21742 526.94816,207.3318 525.46988,209.19465 C 522.76002,212.35154 519.93003,215.32047 516.10101,217.14299 C 512.08421,218.92058 507.99821,220.39254 503.54491,220.57329 C 498.81543,220.66343 494.09482,220.5322 489.52147,219.13963 C 484.87389,217.64736 480.35402,215.79828 476.39467,212.87428 C 473.05641,210.32626 469.78388,207.69336 466.91864,204.60366 C 465.0356,202.46305 463.30349,200.18513 461.29477,198.16701 C 458.52558,197.57274 456.77948,197.24895 454.00341,199.31463 C 448.91126,201.89846 443.67151,204.00544 437.88889,204.34602 C 430.88562,204.63152 423.94933,204.14074 417.52249,201.02486 C 411.60758,197.98595 406.34838,193.98052 401.84422,189.0677 C 397.04091,183.69689 392.68722,177.93117 388.76098,171.8879 C 386.83885,168.89168 382.43327,161.75002 391.15528,174.34005 L 389.75174,165.59699 z " />
    <path
       style="fill:#910000;fill-opacity:1;fill-rule:nonzero;stroke:none;stroke-width:1px;stroke-linecap:butt;stroke-linejoin:miter;stroke-opacity:1"
       id="path3248"
       d="M 307.75402,109.46115 C 307.31636,109.85157 307.48177,110.47075 307.34589,110.96356 C 307.34342,112.24474 307.0121,113.57745 306.71048,114.69477 C 306.48721,116.52825 306.24989,118.35986 306.03247,120.19408 C 305.42559,122.20801 305.17665,124.48198 304.81826,126.62639 C 304.38991,129.06928 303.99739,131.51825 303.59078,133.96478 C 303.19652,136.56481 302.67295,139.13895 302.07082,141.6978 C 301.28197,144.16363 300.52911,146.59485 299.76888,149.11054 C 298.99633,151.6103 298.05967,154.05364 297.05335,156.46715 C 296.14639,159.00796 294.52819,161.13342 293.30797,163.44817 C 292.04127,165.80183 290.7623,168.14883 289.51642,170.51362 C 288.22008,173.05903 286.69479,175.30827 285.38525,177.83942 C 283.99486,180.43145 282.71738,183.07906 281.47557,185.74453 C 280.42548,188.52751 278.93458,191.12955 277.968,193.8934 C 277.00347,196.49939 276.78144,199.32815 276.32044,202.00073 C 276.30708,204.76555 276.6558,207.51387 276.79333,210.27343 C 276.96417,213.01418 276.69947,215.73015 276.24785,218.42835 C 275.76545,221.06914 274.88342,223.60033 273.93565,226.10262 C 272.86828,228.7766 271.68297,231.4218 270.07125,233.75929 C 268.58255,236.61957 266.95911,239.40538 265.33091,242.1875 C 263.79645,244.70832 262.4499,247.32131 261.35513,250.05943 C 260.44097,252.49241 260.43407,254.68934 261.13955,257.13323 C 265.99876,266.3575 257.63338,252.34594 260.87411,257.30826 C 262.30984,259.61975 264.23334,261.46125 266.2793,263.2344 C 268.31464,264.96631 270.62906,266.34113 272.71868,267.96464 C 274.89963,269.3195 277.23977,270.44248 279.38041,271.8136 C 281.59271,272.87401 283.84781,273.83957 286.12312,274.75529 C 288.48964,275.86783 290.90595,276.67064 293.44108,277.37098 C 296.11592,278.0916 298.8387,278.60629 301.56148,279.10582 C 304.36782,279.68271 307.09544,280.17403 309.95719,280.48781 C 312.76872,280.60521 315.48318,281.17983 318.26285,281.33607 C 321.04966,281.40818 323.70748,281.79186 326.48787,281.86669 C 329.29349,281.8667 331.97646,282.20255 334.77597,282.23641 C 337.55004,282.249 340.34756,282.2557 343.04976,282.73329 C 345.70809,282.8807 348.36745,283.00671 351.02751,283.11788 C 353.73408,283.34234 356.33683,283.469 359.06819,283.41035 C 361.80647,283.2669 364.42835,283.48446 367.16072,283.36152 C 369.87794,283.02332 372.59943,283.33324 375.28127,283.17724 C 377.99402,283.04284 380.72761,282.76579 383.40333,282.91391 C 386.09665,282.50012 388.82389,282.68457 391.48282,282.39147 C 394.1508,282.07647 396.73415,282.07018 399.41748,281.84531 C 402.07115,281.88412 404.72408,281.74121 407.40828,281.54099 C 410.0387,281.503 412.57271,281.20419 415.19663,280.80099 C 416.64145,280.57552 418.08341,280.33237 419.52596,280.09295 L 419.72843,280.54129 C 418.28547,280.78073 416.84312,281.02408 415.39793,281.24986 C 412.81753,281.64725 410.33076,282.09589 407.78687,282.44913 C 405.14966,282.64756 402.54522,282.75689 399.98648,283.20704 C 397.33807,283.42669 394.89045,283.896 392.26045,284.19908 C 389.64632,284.48852 387.05792,285.21062 384.34968,285.1843 C 381.78113,285.74591 379.0674,285.72658 376.39949,285.90889 C 373.77329,286.06256 371.15283,286.65208 368.45258,286.55362 C 365.76045,286.67782 363.22373,287.07511 360.51765,287.06926 C 357.81829,287.1336 355.24004,287.33648 352.56702,287.26911 C 349.90076,287.16149 347.23512,287.03985 344.57079,286.89132 C 341.94049,287.11788 339.22174,286.78676 336.53127,286.83205 C 333.77446,286.80065 331.15859,287.06733 328.39523,286.93078 C 325.65165,286.86156 323.04183,287.09082 320.29323,286.87926 C 317.54559,286.73513 314.82578,286.98188 312.0555,286.52906 C 309.21451,286.23802 306.46769,286.07136 303.66427,285.66418 C 300.88252,285.17962 298.10182,284.67273 295.36177,283.98496 C 292.829,283.33374 290.35706,282.69221 287.90362,281.91642 C 285.56577,281.02581 283.25355,280.07139 280.98445,279.01631 C 278.65832,278.18512 276.33386,277.02311 274.1653,275.70167 C 271.77464,274.63757 269.5758,273.08319 267.43906,271.51665 C 265.30322,269.85053 263.21997,268.09917 261.38452,266.14853 C 258.02984,262.03277 254.90927,257.45433 253.77822,252.21168 C 253.45328,249.14838 253.45156,246.21602 254.82652,243.37043 C 256.09084,240.54819 257.54247,237.82382 259.14727,235.17838 C 260.747,232.43302 262.32458,229.67443 263.77835,226.84809 C 264.74531,224.255 266.06999,221.75384 267.01347,219.11069 C 267.82517,216.77386 268.54888,214.40028 268.85515,211.93592 C 269.11855,209.40358 269.176,206.86367 268.95827,204.32235 C 268.73863,201.4662 268.44323,198.59922 268.73411,195.73565 C 268.80772,192.61964 269.50733,189.55358 270.64406,186.6074 C 271.74389,183.68663 272.5171,180.63565 274.06341,177.85831 C 275.34653,175.15795 276.6882,172.4874 278.08897,169.84587 C 279.42735,167.27335 280.48506,164.67349 281.907,162.13988 C 283.16871,159.78311 284.44792,157.43573 285.69949,155.07356 C 286.87641,152.79943 287.67885,150.31605 288.83542,147.98995 C 289.73532,145.66272 290.59126,143.31731 291.27059,140.91442 C 291.98004,138.3958 292.62173,135.93453 293.02317,133.36738 C 293.54152,130.86226 293.97542,128.3423 294.37915,125.81607 C 294.77913,123.37075 295.19336,120.92786 295.60116,118.48386 C 295.95326,116.29455 296.43734,114.05614 296.32772,111.86245 C 296.55581,110.02399 296.78861,108.18607 297.01887,106.34786 C 297.01754,105.00674 297.01177,103.59923 297.32927,102.24048 C 297.32871,101.94737 297.8213,100.82413 297.32736,101.23258 L 307.75402,109.46115 z " />
    <path
       style="fill:#910000;fill-opacity:1;fill-rule:nonzero;stroke:none;stroke-width:1px;stroke-linecap:butt;stroke-linejoin:miter;stroke-opacity:1"
       id="path3250"
       d="M 289.58653,164.04874 C 289.15477,164.48084 289.13133,165.09218 288.92449,165.6325 C 288.50413,166.98335 288.4203,168.38036 288.32869,169.7789 C 288.2759,171.83107 288.61152,173.85464 288.94589,175.87038 C 289.34794,178.08727 290.07789,180.22046 290.81406,182.34317 C 291.44178,184.51564 292.38354,186.48674 293.50563,188.47176 C 297.06277,193.19924 288.75861,182.0527 295.29673,191.18147 C 297.2092,193.58827 298.89659,196.14877 300.8263,198.53025 C 302.52115,200.61003 304.19954,202.70299 305.87274,204.80019 C 307.30979,206.95983 308.96295,209.00105 310.50317,211.10331 C 312.73458,214.25779 314.99069,217.46678 316.5828,220.96212 C 317.78779,223.27837 318.56083,225.75921 319.17543,228.28493 C 319.87439,230.83269 319.67964,233.37563 319.77913,235.94621 C 319.87221,238.65917 319.7042,241.36776 319.48413,244.07006 C 319.09367,246.56476 318.57209,249.09663 318.29138,251.6283 C 317.95678,254.00485 318.02817,256.47616 317.96151,258.80765 C 318.10563,260.93514 318.90179,262.83407 319.86428,264.69702 C 317.86027,262.61784 321.19246,266.32438 322.67021,267.58506 C 324.48774,268.95135 326.34676,270.09098 328.40108,271.04939 C 330.58865,272.03632 332.94174,272.66116 335.13135,273.55628 C 337.54998,274.16015 340.00871,274.57968 342.46992,274.96481 C 345.19138,275.31057 347.78034,275.82349 350.51286,276.03726 C 353.27233,276.24245 356.03706,276.36019 358.8018,276.46536 C 361.53996,276.56441 364.27937,276.62 367.01879,276.66933 C 369.75449,276.70505 372.4891,276.79586 375.2232,276.89206 C 378.00052,277.01367 380.77695,277.15414 383.55424,277.27656 C 386.42514,277.40377 389.29764,277.48636 392.17034,277.55893 C 393.64412,277.59395 395.11833,277.59144 396.5924,277.59325 L 396.76986,278.05207 C 395.29448,278.05063 393.81896,278.05346 392.34385,278.01926 C 389.47017,277.94701 386.59668,277.86487 383.72479,277.738 C 380.94767,277.61591 378.17142,277.47585 375.39433,277.35328 C 372.6614,277.25633 369.92794,277.16541 367.19339,277.12925 C 364.45299,277.08019 361.71259,277.02491 358.97343,276.92639 C 356.20672,276.82175 353.44002,276.70459 350.67851,276.50048 C 348.00137,276.29228 345.43563,276.36029 342.7777,275.89932 C 340.30601,275.51682 337.83735,275.09811 335.40695,274.50078 C 333.16789,274.14828 330.8665,273.48232 328.73486,272.48699 C 326.72389,271.56796 324.71824,270.91499 322.95543,269.53206 C 320.82057,267.81612 318.96771,265.96819 317.7033,263.52211 C 316.80778,261.54793 316.08295,259.54164 315.98421,257.34459 C 315.55016,254.82702 315.69349,252.26886 316.04427,249.71445 C 316.34524,247.00967 316.41182,244.25313 316.46467,241.54589 C 316.65335,238.88326 316.78939,236.21531 316.6606,233.54551 C 316.521,230.94865 316.02191,228.38944 315.48842,225.83367 C 314.79503,223.41 313.95262,221.0333 312.70131,218.83214 C 310.2393,215.21677 315.03396,222.45525 310.72837,216.0176 C 309.30647,214.03092 307.91311,211.918 306.21294,210.20088 C 304.54737,208.10129 302.87683,206.00562 301.18146,203.92997 C 299.32753,201.63993 297.28411,199.52803 295.59876,197.07707 C 292.81756,193.35724 289.90763,189.68529 287.88552,185.4199 C 286.80811,183.22189 285.78769,180.99994 284.96576,178.70569 C 284.27478,176.47481 283.60943,174.23035 283.31479,171.90496 C 283.04388,169.74669 282.796,167.57697 283.01331,165.39934 C 283.21981,163.85833 283.45588,162.32094 283.9725,160.84589 C 284.02695,160.56687 284.69177,159.33939 284.18011,159.78208 L 289.58653,164.04874 z " />
    <path
       style="fill:#910000;fill-opacity:1;fill-rule:nonzero;stroke:none;stroke-width:1px;stroke-linecap:butt;stroke-linejoin:miter;stroke-opacity:1"
       id="path3256"
       d="M 300.98074,201.06581 C 301.1684,201.12067 301.31128,201.88213 301.43144,202.17891 C 301.87192,203.40705 302.12844,204.68166 302.39107,205.95499 C 302.70296,207.77828 302.56059,209.61055 302.37646,211.4355 C 302.15266,213.43391 301.52035,215.33208 300.85842,217.21775 C 300.11825,219.19782 299.20956,221.10737 298.31227,223.01933 C 297.33038,225.04078 296.46895,227.11553 295.62393,229.1966 C 294.44196,231.09924 293.78513,233.49292 293.07067,235.67786 C 292.08841,237.88312 291.52343,240.19118 291.15043,242.62118 C 290.82134,245.16165 291.18209,247.67547 291.69188,250.16081 C 292.24004,252.65017 293.04109,254.92569 294.16349,257.21135 C 295.0697,258.89722 296.28336,260.75933 297.99876,262.76104 C 299.49584,264.4994 301.24249,265.97904 303.01389,267.42397 C 304.6911,268.76165 306.50783,269.9015 308.33764,271.01398 C 308.72816,271.24608 309.13234,271.45376 309.52965,271.67363 L 309.6276,272.15572 C 309.22839,271.93622 308.82272,271.72828 308.4299,271.49719 C 306.59256,270.38626 304.76903,269.2469 303.08328,267.911 C 301.30309,266.46665 299.54594,264.98926 298.03844,263.25138 C 296.26462,261.19754 294.48865,259.22067 293.30338,256.7336 C 292.1569,254.34099 291.01141,251.94414 290.4694,249.33398 C 289.98513,246.79812 289.66152,244.23512 290.03435,241.65555 C 290.44813,239.16277 291.08556,236.72561 291.66405,234.30179 C 292.41884,232.0235 293.41634,229.75164 293.90453,227.43765 C 294.76232,225.3444 295.64074,223.25953 296.63063,221.22425 C 297.5151,219.33239 298.40861,217.44127 299.12156,215.47604 C 299.74526,213.63653 300.32823,211.78288 300.50775,209.83608 C 300.64414,208.07232 300.7433,206.30257 300.36796,204.55598 C 300.07671,203.31647 299.78929,202.07549 299.34327,200.87899 C 299.2495,200.45166 298.94789,199.96773 299.04987,199.542 L 300.98074,201.06581 z " />
  </g>
  <g
     inkscape:groupmode="layer"
     id="layer5"
     inkscape:label="2">
    <path
       style="opacity:1;color:#000000;fill:#86572c;fill-opacity:1;fill-rule:evenodd;stroke:none;stroke-width:15;stroke-linecap:square;stroke-linejoin:miter;marker:none;marker-start:none;marker-mid:none;marker-end:none;stroke-miterlimit:4;stroke-dasharray:none;stroke-dashoffset:0;stroke-opacity:1;visibility:visible;display:inline;overflow:visible"
       d="M 208.57143,600.21936 C 292.87574,562.04659 294.96234,545.25151 312.43708,499.02452 C 321.59653,479.76634 324.4019,458.19698 333.46066,439.02167 C 344.67671,419.87379 362.77301,445.16642 361.70197,459.01166 C 367.02299,488.6031 371.92356,519.66372 390.96429,544.08743 C 407.5309,568.58649 445.44658,593.69304 475.76192,594.98513 C 579.40555,654.21975 141.5235,650.31184 208.57143,600.21936 z "
       id="path3224"
       sodipodi:nodetypes="ccccccc" />
    <path
       style="opacity:1;color:#000000;fill:#343434;fill-opacity:1;fill-rule:evenodd;stroke:none;stroke-width:15;stroke-linecap:square;stroke-linejoin:miter;marker:none;marker-start:none;marker-mid:none;marker-end:none;stroke-miterlimit:4;stroke-dasharray:none;stroke-dashoffset:0;stroke-opacity:1;visibility:visible;display:inline;overflow:visible"
       d="M 310.35715,510.21933 C 311.91063,501.44375 319.72037,494.55479 318.93879,485.23356 C 320.8249,475.57801 323.41576,466.00947 327.53264,457.05227 C 330.42765,448.34791 329.55953,438.78318 333.21393,430.28402 C 333.18616,426.25008 336.2697,420.93219 340.93104,422.08391 C 344.03853,423.89464 346.5738,426.63589 350.14203,427.81067 C 353.8059,429.37926 357.24053,432.50206 357.13705,436.79687 C 358.43256,445.67567 358.41098,454.82487 361.49977,463.35941 C 364.1433,473.0866 366.62423,482.93699 367.20049,493.03422 C 368.18071,499.436 372.92312,505.64489 370.67868,512.26652 C 366.39602,512.16538 360.44617,512.47397 358.84879,517.3138 C 358.00233,520.79541 360.41451,525.48335 356.55526,527.84417 C 352.99214,530.20575 348.45133,527.99583 346.22022,524.84056 C 342.29868,520.42431 341.99185,512.74468 335.68005,510.64229 C 330.24536,509.61124 327.01607,515.01628 323.56206,518.16517 C 320.62243,520.89456 315.14974,523.39818 311.78444,520.09853 C 309.58718,517.40762 309.27172,513.43372 310.35715,510.21933 z "
       id="path3216" />
    <path
       style="opacity:1;color:#000000;fill:#493f35;fill-opacity:0.82745098;fill-rule:evenodd;stroke:none;stroke-width:15;stroke-linecap:square;stroke-linejoin:miter;marker:none;marker-start:none;marker-mid:none;marker-end:none;stroke-miterlimit:4;stroke-dasharray:none;stroke-dashoffset:0;stroke-opacity:1;visibility:visible;display:inline;overflow:visible"
       d="M 336.42856,419.14789 C 352.08059,423.46744 361.00732,437.1507 361.39507,453.82251 C 362.95747,467.34975 366.8261,480.47842 367.1674,494.23681 C 370.09128,507.89388 374.14551,523.82309 385.83308,532.39233 C 397.19595,535.94351 408.09911,548.99982 420.55658,543.21998 C 427.91742,535.43659 438.27489,512.64855 448.51367,530.73342 C 453.82027,543.1081 468.98424,548.71397 481.59351,546.35971 C 493.33873,540.48035 501.41475,528.63688 505.13268,516.35467 C 516.0396,502.31983 528.33904,520.58817 539.84233,522.86407 C 552.02077,528.57459 568.16894,533.49443 579.32192,522.99708 C 593.07092,515.0537 583.43709,499.2916 587.36599,487.20902 C 588.43912,475.09955 580.51953,462.36684 570.09448,456.54015 C 553.98496,453.00541 537.80621,459.97116 521.5047,459.54292 C 510.19915,463.38329 492.14092,459.52648 500.4358,444.11703 C 506.16201,432.93877 507.90347,420.04469 507.92735,407.633 C 506.12971,393.70333 487.30556,395.12893 477.5,399.1479 C 456.21611,403.86898 435.7303,411.91583 414.34285,416.05002 C 395.10723,419.20683 415.51657,384.91023 394.04594,386.27798 C 377.52185,388.16619 362.87486,397.60497 347.54124,403.57469 C 339.9773,405.20342 336.27007,411.80469 336.42856,419.14789 z "
       id="path1447"
       sodipodi:nodetypes="cccccccccccccccccccc" />
    <path
       style="fill:#000000;fill-opacity:1;fill-rule:nonzero;stroke:none;stroke-width:1px;stroke-linecap:butt;stroke-linejoin:miter;stroke-opacity:1;display:inline"
       id="path1389"
       d="M 205.9914,595.38745 C 207.07908,595.49429 208.12935,595.24911 209.19722,595.09868 C 213.4382,594.17032 217.54111,592.72487 221.63345,591.29649 C 227.69809,589.18206 233.65072,586.772 239.4734,584.06451 C 247.183,580.47999 254.12539,575.58049 260.70169,570.24253 C 268.50749,563.71477 275.19857,556.01153 281.24463,547.85686 C 288.3686,538.1513 294.34129,527.66933 299.67121,516.8905 C 305.4583,505.05485 310.25619,492.76623 314.52541,480.31095 C 318.49534,468.57676 321.77365,456.62357 324.7568,444.60488 C 326.65155,437.08236 328.25221,429.49018 330.12912,421.96374 C 330.65441,418.99853 331.58443,417.26325 333.94226,415.6636 C 335.92772,415.35149 337.12968,416.56715 338.66564,417.67289 C 340.6692,419.23159 342.94817,420.30203 345.2566,421.31256 C 348.35036,422.23692 351.09293,423.56887 353.56792,425.62248 C 359.20727,431.4029 361.15796,437.06139 362.86993,444.48203 C 364.27705,451.1206 365.21412,457.84742 366.26145,464.54934 C 367.52444,473.16244 369.44385,481.65411 371.57955,490.08674 C 373.72478,498.44606 376.41836,506.64646 379.35287,514.7577 C 381.88255,521.71314 384.91141,528.46327 388.34091,535.01748 C 389.91263,539.38061 402.83935,556.26746 393.95803,544.48079 C 397.16159,548.79405 400.82255,552.72881 404.70354,556.43367 C 408.385,559.89595 412.45691,562.89875 416.62451,565.74272 C 420.68775,568.47848 424.96558,570.87042 429.25185,573.23334 C 433.2634,575.44009 437.39091,577.41825 441.55485,579.31699 C 445.55641,581.15294 449.66566,582.73059 453.78495,584.27755 C 458.25087,585.94986 462.65953,587.76911 467.11087,589.47884 C 471.15987,591.04891 475.32535,592.27164 479.50747,593.42541 L 482.5206,601.95302 C 478.23754,600.84931 473.98072,599.63464 469.82719,598.10559 C 465.34985,596.45281 460.94475,594.61564 456.48813,592.90842 C 452.32667,591.34117 448.14764,589.81417 444.08464,588.00026 C 439.85488,586.10906 435.64259,584.17754 431.56161,581.97772 C 427.19273,579.62706 422.84527,577.22751 418.66313,574.55425 C 414.35538,571.73174 410.1401,568.75205 406.27275,565.34078 C 402.2092,561.68328 398.37367,557.7726 394.99472,553.46546 C 389.58325,546.32245 384.09941,539.21762 380.18802,531.10221 C 376.84491,524.40863 373.87703,517.5374 371.38459,510.4792 C 368.49344,502.27871 365.85297,493.98753 363.75898,485.54385 C 361.66535,477.02751 359.83114,468.4476 358.58872,459.76099 C 357.55491,453.11858 356.62272,446.44637 355.0725,439.89954 C 353.72705,434.68633 347.73481,423.24848 354.76793,434.5868 C 352.91301,432.26358 350.94482,430.68723 347.9672,429.9411 C 345.43272,428.9962 342.90594,428.01614 340.64506,426.49791 C 339.594,425.75999 337.87083,425.03214 337.88879,423.80141 C 337.66348,425.12777 337.54165,426.49258 337.0762,427.75486 C 335.25423,435.29092 333.61766,442.87107 331.71135,450.38704 C 328.68206,462.47839 325.34438,474.50053 321.30494,486.29735 C 316.95415,498.85592 312.07003,511.24468 306.18117,523.16899 C 300.73116,534.08622 294.62486,544.69703 287.36082,554.51954 C 281.13445,562.84573 274.25647,570.70983 266.25245,577.38312 C 259.47709,582.87429 252.3308,587.92192 244.40856,591.64364 C 238.49802,594.41771 232.45315,596.88564 226.29138,599.04909 C 222.08202,600.52516 217.86594,602.01752 213.51905,603.04355 C 212.26887,603.30074 211.01739,603.65008 209.73051,603.62263 L 205.9914,595.38745 z " />
    <path
       style="fill:#000000;fill-opacity:1;fill-rule:nonzero;stroke:none;stroke-width:1px;stroke-linecap:butt;stroke-linejoin:miter;stroke-opacity:1;display:inline"
       id="path1393"
       d="M 314.41951,506.38707 C 314.4328,507.16777 314.50339,507.9478 314.54972,508.72864 C 314.72424,511.37387 314.91565,514.01739 315.13323,516.6592 C 317.33892,524.61465 316.17424,520.60256 313.5646,517.28121 C 316.72834,517.4577 319.05098,514.88917 321.3124,512.80184 C 324.11767,509.63094 326.97995,507.18731 331.19523,506.52597 C 335.08738,506.7597 337.66902,509.42339 340.18976,512.1141 C 342.23628,514.72042 357.10297,534.94853 347.32997,521.99933 C 348.89729,524.33675 350.06478,524.65571 352.43436,524.50433 C 354.44547,522.90209 355.18593,520.51661 356.02004,518.17474 C 356.76492,515.02797 357.89265,512.09883 359.5007,509.31437 C 361.10193,507.01099 363.08191,506.47126 365.67775,506.19922 C 367.96115,506.49663 369.84275,507.82054 371.76818,508.98704 C 372.6986,509.58114 373.63785,510.1613 374.57574,510.74353 L 376.68355,519.53876 C 375.74904,518.94911 374.81797,518.35418 373.87179,517.78328 C 372.21264,516.72989 370.56929,515.6478 368.86905,514.66177 C 367.35117,514.72406 366.83489,514.05923 365.77475,515.82861 C 364.52538,518.51332 363.61925,521.29875 362.80465,524.15539 C 361.62658,527.15355 360.3107,530.02878 357.58982,531.93537 C 354.24358,533.41805 351.44952,533.67145 348.5503,530.96091 C 344.31498,525.5372 333.92353,511.3606 341.31838,521.08769 C 339.4428,518.69458 337.5101,516.23851 334.74853,514.84301 C 331.35445,515.04722 329.37054,517.23597 327.03991,519.80146 C 323.98145,522.59333 320.83161,525.48278 316.52073,525.82875 C 310.12788,524.36049 307.94685,517.45106 307.57512,511.69189 C 307.38256,509.02318 307.19445,506.35383 307.04407,503.68242 C 307.03119,502.85499 306.96764,502.02949 307.00906,501.20206 L 314.41951,506.38707 z " />
    <path
       style="fill:#000000;fill-opacity:1;fill-rule:nonzero;stroke:none;stroke-width:1px;stroke-linecap:butt;stroke-linejoin:miter;stroke-opacity:1;display:inline"
       id="path1395"
       d="M 331.29477,416.90872 C 331.65937,416.23913 331.93165,415.485 332.26191,414.78003 C 333.22751,412.55276 334.72068,410.65132 336.19364,408.74848 C 339.15555,405.24906 342.77814,402.41921 346.46663,399.73324 C 352.01571,395.75054 358.05154,392.55478 364.2529,389.72695 C 370.7289,386.82451 377.47065,384.59272 384.4196,383.16878 C 389.95341,382.00431 395.30265,382.36426 400.53186,384.38411 C 407.29009,387.98598 410.19297,394.51554 410.42309,401.62387 C 410.3532,406.22404 409.07091,410.63268 407.67791,414.97548 C 407.19224,423.45525 403.99207,414.06838 403.75807,413.74424 C 410.17502,412.86363 416.25773,410.01668 422.31579,407.77219 C 434.21328,403.3043 446.39366,399.65573 458.68485,396.44736 C 469.75802,393.5248 480.98387,390.92717 492.48868,391.40052 C 502.63438,392.27193 509.98576,399.19671 512.41931,409.20424 C 513.59055,416.67627 511.75034,424.06919 509.68142,431.20942 C 507.54576,438.59928 504.28523,445.60192 502.13806,452.98207 C 503.25511,469.3394 495.32916,453.34128 501.56048,457.50251 C 508.1788,459.49426 515.19252,458.22834 521.88212,457.17274 C 530.71659,455.65973 539.48083,453.76942 548.31667,452.26575 C 555.28436,451.07978 562.34289,450.62058 569.24629,452.29907 C 577.44776,455.03563 582.81211,462.08875 586.64261,469.61892 C 589.35925,475.45863 590.30924,481.84644 590.83177,488.20679 C 591.24494,494.09513 590.93701,499.99825 590.46629,505.87226 C 590.07491,510.29271 589.45203,514.68692 589.02351,519.10304 L 581.78329,513.68286 C 582.27261,509.2881 582.86398,504.90315 583.19625,500.49215 C 583.59901,494.75182 583.81943,488.98181 583.27219,483.24173 C 582.59714,477.1865 581.51209,471.11188 578.47204,465.74066 C 573.84786,458.3768 587.92499,473.67551 572.10338,460.88022 C 565.73452,458.75106 559.05835,459.25205 552.49814,460.28538 C 543.65797,461.73811 534.90206,463.64943 526.07632,465.18571 C 518.90336,466.3633 511.51799,467.60557 504.29686,466.12291 C 495.66492,463.39083 492.61744,455.07288 495.25415,447.11599 C 497.57257,439.7884 500.71147,432.74134 502.80403,425.3357 C 504.64511,418.63495 506.35704,411.60331 504.5752,404.70212 C 503.2119,401.24251 498.87511,396.12514 506.46036,405.65826 C 507.77611,407.31189 497.04949,396.55556 495.99269,399.73845 C 484.81653,398.88565 473.88789,401.54938 463.12134,404.32877 C 450.9208,407.48852 438.82725,411.08072 427.01752,415.4983 C 420.57875,417.87679 414.19473,420.69807 407.43498,422.00738 C 400.32845,422.1392 398.32152,414.48093 400.85086,409.04333 C 402.09224,404.97269 403.19008,400.82502 402.95275,396.52553 C 402.62205,394.198 399.0877,388.04143 400.51988,389.90573 C 408.70676,400.56271 405.02327,395.19489 402.7969,393.14017 C 398.38797,390.60812 393.67052,390.22774 388.65647,391.15928 C 381.91524,392.4224 375.39371,394.57154 369.12182,397.34881 C 363.09718,400.06379 357.23448,403.14221 351.8511,407.00006 C 348.38006,409.52472 344.95941,412.17623 342.20955,415.50185 C 340.93654,417.21207 339.64752,418.91803 338.8885,420.9353 C 338.83351,421.28288 338.18735,422.47549 338.70523,422.09372 L 331.29477,416.90872 z " />
    <path
       style="fill:#000000;fill-opacity:1;fill-rule:nonzero;stroke:none;stroke-width:1px;stroke-linecap:butt;stroke-linejoin:miter;stroke-opacity:1;display:inline"
       id="path1409"
       d="M 385.1338,529.24421 C 387.3375,526.46504 378.02811,519.27635 382.5812,524.13987 C 385.0361,526.41179 387.82195,528.27514 390.59957,530.1216 C 394.52878,532.81241 398.80566,534.79031 403.29566,536.31475 C 407.76312,537.72705 412.24097,537.68318 416.76536,536.73616 C 420.89093,535.5216 423.96957,532.77038 426.77171,529.6434 C 428.97337,526.54236 430.78453,523.27896 433.37005,520.494 C 436.64205,518.24796 439.33425,519.3617 442.43689,521.26358 C 446.48033,524.27925 450.17308,527.733 454.04876,530.95797 C 459.0654,535.16202 464.6273,538.49948 470.88119,540.43659 C 477.39218,542.14852 483.38951,540.70955 488.9634,537.20395 C 494.30012,533.37976 497.80283,527.84161 500.80383,522.12321 C 503.18999,517.21956 504.83346,512.01656 507.44519,507.22634 C 509.81327,503.5974 512.93791,503.02246 516.90702,503.95006 C 520.98558,505.50032 524.55886,508.07569 528.14346,510.51409 C 532.01177,513.2062 535.96734,515.76397 540.02002,518.16786 C 543.73028,520.41325 547.69916,522.05307 551.85678,523.23124 C 555.93899,524.23094 560.10219,524.06595 564.23409,523.5781 C 568.15115,523.04691 571.79316,521.6013 575.31162,519.86987 C 578.49933,518.26684 581.12093,515.94404 583.58793,513.41921 C 584.23691,512.73238 584.8056,511.97667 585.4141,511.2558 L 591.43628,518.00357 C 590.78352,518.77281 590.15536,519.56377 589.46098,520.29718 C 586.76208,523.07294 583.81542,525.55788 580.36543,527.3704 C 576.57026,529.28899 572.63987,530.91884 568.41042,531.60041 C 563.94673,532.256 559.44675,532.5557 554.97418,531.72129 C 550.52123,530.71196 546.24778,529.22873 542.2753,526.92644 C 538.11306,524.58687 534.06261,522.06412 530.14245,519.3347 C 526.69751,516.98011 523.30189,514.52059 519.59552,512.58552 C 516.97939,511.51083 515.46503,510.87314 513.81678,513.64521 C 511.39671,518.47197 509.78532,523.65341 507.27408,528.44263 C 503.94936,534.56881 500.03712,540.42746 494.27121,544.52695 C 488.05719,548.48148 481.31481,550.43874 473.93095,548.95117 C 467.22072,547.30813 461.2106,544.15561 455.81231,539.82865 C 451.88707,536.70405 448.15895,533.35095 444.33392,530.10667 C 442.62541,528.78393 441.1046,527.02103 438.97925,527.58878 C 436.71839,530.40265 435.00345,533.60151 432.74097,536.43804 C 429.48853,539.96122 425.91727,543.05869 421.26831,544.5798 C 416.29502,545.83485 411.29491,546.20242 406.2625,544.85857 C 401.45125,543.56921 396.89849,541.61819 392.69649,538.91944 C 389.78725,537.08088 386.88613,535.21472 384.21611,533.03516 C 381.57893,530.82885 375.94059,527.52804 377.72334,524.05921 L 385.1338,529.24421 z " />
    <path
       style="fill:#910000;fill-opacity:1;fill-rule:nonzero;stroke:none;stroke-width:1px;stroke-linecap:butt;stroke-linejoin:miter;stroke-opacity:1"
       id="path3212"
       d="M 356.55889,427.38419 C 355.35016,428.05025 356.04649,428.52015 355.56509,429.58739 C 355.12861,431.4065 354.85847,433.25569 354.58109,435.10357 C 354.17094,437.82928 354.039,440.57717 353.95947,443.32771 C 353.58485,446.2288 353.99257,449.24738 354.07279,452.143 C 354.58853,455.32124 355.20543,458.54835 355.46237,461.67728 C 356.03949,465.04429 356.61336,468.41184 357.17803,471.78097 C 357.81708,475.14664 358.4554,478.51223 359.13389,481.8702 C 359.80779,485.31334 360.16734,488.63347 360.856,492.0869 C 361.57785,495.6948 362.55649,499.24456 363.52384,502.79258 C 364.47351,506.38683 365.51254,509.95616 366.67899,513.48582 C 367.92745,516.7289 368.77418,519.97686 370.04872,523.18009 C 371.35928,526.24551 372.324,529.27864 373.51245,532.38097 C 374.79431,535.53386 375.34675,538.86911 375.71169,542.22995 C 375.82514,545.54816 375.53612,548.85112 375.22198,552.21476 C 375.04409,555.64792 373.80556,558.73251 373.19053,562.01542 C 372.52143,565.00896 372.75296,568.16211 372.89221,571.11288 C 373.42657,573.88052 374.79408,576.26532 376.29694,578.59832 C 373.8046,575.1789 374.14778,576.6001 378.4737,580.65622 C 380.64815,582.60155 383.0057,584.32564 385.33584,586.07662 C 387.86369,588.00343 390.20514,590.01396 392.80978,591.84649 C 395.49542,593.69656 398.3098,595.3915 400.84857,597.3931 C 403.50342,599.02763 406.20858,600.57849 408.91093,602.1326 C 411.61626,603.684 414.14022,605.32995 416.90665,606.78281 C 419.8052,608.13551 422.39738,609.93944 425.26565,611.28558 C 428.24737,612.64358 431.34347,613.69265 434.29968,615.00784 C 437.42574,616.20917 440.53484,617.27704 443.77039,618.24989 C 446.80877,619.57525 450.10557,620.27525 453.3589,621.04669 C 454.27049,621.2577 455.18303,621.46454 456.0951,621.67347 L 456.33393,622.3269 C 455.42141,622.11814 454.50846,621.91122 453.59636,621.70062 C 450.45918,620.95871 447.31544,620.06976 444.2185,619.56719 C 441.08655,618.6285 438.07164,617.77024 434.95692,616.9888 C 431.90975,616.33301 428.94003,615.28435 426.04113,613.9582 C 423.28381,612.69181 420.43199,611.81372 417.80658,610.14295 C 415.13812,608.74514 412.54471,607.67512 409.94407,606.17701 C 407.22721,604.62581 404.51364,603.06787 401.83652,601.44879 C 399.11473,600.10533 396.43623,598.38832 393.88303,596.59676 C 391.36727,594.86398 388.88908,593.38353 386.47934,591.5236 C 384.12146,589.75755 381.74141,588.01611 379.47649,586.13085 C 376.04119,583.11888 372.91726,580.05988 370.57145,576.06372 C 369.16707,573.46094 367.93258,570.80451 367.56227,567.82696 C 366.80622,564.48497 366.98284,561.08425 367.748,557.68176 C 368.38689,554.36057 368.5584,551.00461 369.09243,547.63275 C 369.30315,544.25871 369.35341,541.02389 368.69281,537.70955 C 368.15144,534.54616 367.44656,531.4356 366.12789,528.48649 C 364.81744,525.27218 363.23314,522.25137 362.03607,518.98526 C 360.72797,515.57421 359.13204,512.32465 358.15047,508.78136 C 357.05877,505.18861 356.02626,501.57879 355.0754,497.94579 C 354.12288,494.33637 353.1858,490.72062 352.52308,487.04409 C 351.83128,483.4666 350.91768,480.03867 350.20248,476.47261 C 349.54088,473.08425 348.87534,469.69558 348.30322,466.29081 C 347.72822,462.93427 347.17424,459.574 346.56523,456.22339 C 345.60171,452.97316 345.08658,449.57006 344.67772,446.17296 C 343.94581,442.86814 343.87177,439.41372 343.77849,436.03595 C 343.97235,433.14891 344.20791,430.2634 344.70144,427.40848 C 345.07054,425.41998 345.41227,423.41976 346.01654,421.48511 C 346.30732,420.84361 347.80227,417.70285 346.29826,420.20495 L 356.55889,427.38419 z " />
    <path
       style="fill:#910000;fill-opacity:1;fill-rule:nonzero;stroke:none;stroke-width:1px;stroke-linecap:butt;stroke-linejoin:miter;stroke-opacity:1"
       id="path3214"
       d="M 358.99373,495.58938 C 359.51769,494.83684 359.54622,496.6624 359.76377,497.08493 C 360.14024,498.96928 360.03542,500.89177 359.97857,502.79806 C 359.86856,505.32078 359.37969,507.79551 358.8668,510.25963 C 358.26983,512.98091 357.3732,515.61435 356.1557,517.99269 C 355.05604,520.63683 353.77874,523.30537 352.35204,525.74289 C 351.094,528.66298 349.8754,531.59964 348.64308,534.53054 C 347.38135,537.40195 346.13402,540.27937 344.91256,543.16808 C 343.71588,546.01109 342.6514,548.90581 341.60209,551.80543 C 339.91947,554.40104 339.32111,557.73744 338.77946,560.82703 C 337.97741,564.05989 338.61289,567.17411 339.34824,570.40664 C 340.26209,573.3951 341.28059,576.30027 342.67874,579.05228 C 344.21305,581.74191 345.7182,584.34149 347.50177,586.8486 C 348.03326,587.66523 350.914,591.27991 352.67502,593.29281 C 354.73996,595.38158 356.02825,597.81826 357.02764,600.51395 C 357.61582,602.64571 357.00523,604.48875 356.3717,606.49003 C 355.48352,608.58834 354.06393,610.3567 352.6785,612.13707 C 352.32229,612.57683 351.9262,612.98159 351.55015,613.40374 L 351.09787,612.87511 C 351.47071,612.45576 351.86373,612.05388 352.2166,611.61682 C 353.58655,609.85198 354.99141,608.09959 355.86162,606.01691 C 356.46314,604.05083 357.03822,602.24783 356.42427,600.16759 C 355.53462,597.8829 354.5315,595.75627 352.76915,593.98213 C 350.52364,591.41595 348.15407,589.14279 346.21927,586.30891 C 344.32859,583.63144 342.20287,581.147 340.79681,578.14979 C 339.31895,575.1679 337.55324,572.35865 336.9427,569.00748 C 336.20557,565.62431 335.6962,562.12078 336.03048,558.69547 C 336.63508,555.40374 337.83646,552.23591 338.48659,549.02724 C 339.55089,546.1097 340.63063,543.19729 341.84446,540.33764 C 343.07308,537.44906 344.32705,534.57161 345.58077,531.69384 C 346.80878,528.76071 348.03325,525.82611 349.29054,522.90531 C 350.11733,520.03553 351.171,517.19169 351.99442,514.29662 C 352.52534,511.64814 353.37834,508.99959 354.01221,506.30509 C 354.45071,503.93533 354.86662,501.55714 354.89778,499.13867 C 354.86957,497.39539 354.916,495.63644 354.33589,493.96346 C 354.18039,493.31718 353.3912,492.59011 353.86342,491.99976 L 358.99373,495.58938 z " />
  </g>
  <g
     inkscape:groupmode="layer"
     id="layer4"
     inkscape:label="1-path"
     style="display:inline">
    <rect
       style="opacity:0.2;color:#000000;fill:#35a141;fill-opacity:1;fill-rule:evenodd;stroke:none;stroke-width:15;stroke-linecap:square;stroke-linejoin:miter;marker:none;marker-start:none;marker-mid:none;marker-end:none;stroke-miterlimit:4;stroke-dasharray:none;stroke-dashoffset:0;stroke-opacity:1;visibility:visible;display:inline;overflow:visible"
       id="rect1415"
       width="312.85715"
       height="90"
       x="172.85715"
       y="209.50504" />
  </g>
  <g
     inkscape:groupmode="layer"
     id="layer6"
     inkscape:label="2-crop">
    <rect
       style="opacity:0.2;color:#000000;fill:#35a141;fill-opacity:1;fill-rule:evenodd;stroke:none;stroke-width:15;stroke-linecap:square;stroke-linejoin:miter;marker:none;marker-start:none;marker-mid:none;marker-end:none;stroke-miterlimit:4;stroke-dasharray:none;stroke-dashoffset:0;stroke-opacity:1;visibility:visible;display:inline;overflow:visible"
       id="rect3259"
       width="410.12195"
       height="283.85287"
       x="187.88837"
       y="367.47876" />
  </g>
  <g
     inkscape:groupmode="layer"
     id="layer7"
     inkscape:label="2-path">
    <rect
       style="opacity:0.2;color:#000000;fill:#35a141;fill-opacity:1;fill-rule:evenodd;stroke:none;stroke-width:15;stroke-linecap:square;stroke-linejoin:miter;marker:none;marker-start:none;marker-mid:none;marker-end:none;stroke-miterlimit:4;stroke-dasharray:none;stroke-dashoffset:0;stroke-opacity:1;visibility:visible;display:inline;overflow:visible"
       id="rect5008"
       width="310.11685"
       height="75.761452"
       x="189.90869"
       y="566.47882" />
  </g>
  <g
     inkscape:groupmode="layer"
     id="layer3"
     inkscape:label="unit"
     style="display:inline">
    <rect
       style="opacity:0.2;color:#000000;fill:#35a141;fill-opacity:1;fill-rule:evenodd;stroke:none;stroke-width:15;stroke-linecap:square;stroke-linejoin:miter;marker:none;marker-start:none;marker-mid:none;marker-end:none;stroke-miterlimit:4;stroke-dasharray:none;stroke-dashoffset:0;stroke-opacity:1;visibility:visible;display:inline;overflow:visible"
       id="rect1417"
       width="335.71429"
       height="335.71429"
       x="160"
       y="5.2193251" />
  </g>
  <g
     inkscape:groupmode="layer"
     id="layer2"
     inkscape:label="1-crop"
     style="display:inline">
    <rect
       style="opacity:0.2;color:#000000;fill:#35a141;fill-opacity:1;fill-rule:evenodd;stroke:none;stroke-width:15;stroke-linecap:square;stroke-linejoin:miter;marker:none;marker-start:none;marker-mid:none;marker-end:none;stroke-miterlimit:4;stroke-dasharray:none;stroke-dashoffset:0;stroke-opacity:1;visibility:visible;display:inline;overflow:visible"
       id="rect1413"
       width="367.14285"
       height="267.14285"
       x="168.57143"
       y="49.505039" />
  </g>
</svg>
