<?xml version="1.0" encoding="UTF-8" standalone="no"?>
<!-- Created with Inkscape (http://www.inkscape.org/) -->
<svg
   xmlns:dc="http://purl.org/dc/elements/1.1/"
   xmlns:cc="http://web.resource.org/cc/"
   xmlns:rdf="http://www.w3.org/1999/02/22-rdf-syntax-ns#"
   xmlns:svg="http://www.w3.org/2000/svg"
   xmlns="http://www.w3.org/2000/svg"
   xmlns:xlink="http://www.w3.org/1999/xlink"
   xmlns:sodipodi="http://inkscape.sourceforge.net/DTD/sodipodi-0.dtd"
   xmlns:inkscape="http://www.inkscape.org/namespaces/inkscape"
   width="744.09448819"
   height="1052.3622047"
   id="svg2"
   sodipodi:version="0.32"
   inkscape:version="0.43"
   sodipodi:docbase="C:\Documents and Settings\Cowbert\Desktop\art"
   sodipodi:docname="cheezyz.svg">
  <defs
     id="defs4">
    <linearGradient
       inkscape:collect="always"
       id="linearGradient3462">
      <stop
         style="stop-color:#000000;stop-opacity:1;"
         offset="0"
         id="stop3464" />
      <stop
         style="stop-color:#000000;stop-opacity:0;"
         offset="1"
         id="stop3466" />
    </linearGradient>
    <linearGradient
       inkscape:collect="always"
       id="linearGradient3452">
      <stop
         style="stop-color:#000000;stop-opacity:1;"
         offset="0"
         id="stop3454" />
      <stop
         style="stop-color:#000000;stop-opacity:0;"
         offset="1"
         id="stop3456" />
    </linearGradient>
    <linearGradient
       inkscape:collect="always"
       xlink:href="#linearGradient3452"
       id="linearGradient3458"
       x1="354.30994"
       y1="559.40778"
       x2="334.3605"
       y2="292.72745"
       gradientUnits="userSpaceOnUse" />
    <linearGradient
       inkscape:collect="always"
       xlink:href="#linearGradient3462"
       id="linearGradient3468"
       x1="294.96454"
       y1="824.06775"
       x2="586.89868"
       y2="576.58032"
       gradientUnits="userSpaceOnUse" />
    <linearGradient
       inkscape:collect="always"
       xlink:href="#linearGradient3452"
       id="linearGradient3478"
       x1="501.03568"
       y1="549.30621"
       x2="352.54324"
       y2="614.96613"
       gradientUnits="userSpaceOnUse" />
  </defs>
  <sodipodi:namedview
     id="base"
     pagecolor="#ffffff"
     bordercolor="#666666"
     borderopacity="1.0"
     inkscape:pageopacity="0.0"
     inkscape:pageshadow="2"
     inkscape:zoom="0.7"
     inkscape:cx="526.9889"
     inkscape:cy="573.54846"
     inkscape:document-units="px"
     inkscape:current-layer="layer2"
     inkscape:window-width="1280"
     inkscape:window-height="913"
     inkscape:window-x="-4"
     inkscape:window-y="-4" />
  <metadata
     id="metadata7">
    <rdf:RDF>
      <cc:Work
         rdf:about="">
        <dc:format>image/svg+xml</dc:format>
        <dc:type
           rdf:resource="http://purl.org/dc/dcmitype/StillImage" />
      </cc:Work>
    </rdf:RDF>
  </metadata>
  <g
     inkscape:label="1"
     inkscape:groupmode="layer"
     id="layer1">
    <path
       style="opacity:1;color:#000000;fill:#ec9e2d;fill-opacity:1;fill-rule:nonzero;stroke:none;stroke-width:10;stroke-linecap:square;stroke-linejoin:miter;marker:none;marker-start:none;marker-mid:none;marker-end:none;stroke-miterlimit:4;stroke-dasharray:none;stroke-dashoffset:0;stroke-opacity:1;visibility:visible;display:inline;overflow:visible"
       d="M 108.42949,312.16317 C 86.637356,300.66406 60.309934,287.83407 55.59646,264.02014 C 55.361501,245.69488 81.924073,239.94037 98.670197,244.01177 C 120.52463,248.68483 142.95868,249.83559 165.46588,249.93095 C 186.63207,250.28331 209.38239,249.59666 228.21139,240.13596 C 236.6832,230.21945 225.60792,205.857 249.65809,210.78531 C 269.29819,211.35366 289.29495,216.85018 308.76877,211.57797 C 324.93073,215.15973 336.17356,233.48007 354.71181,227.93918 C 375.82243,216.27664 398.95218,207.06019 421.45269,197.35813 C 440.00875,192.27036 462.92053,176.69196 481.1728,188.84335 C 496.30757,201.24664 494.20329,221.06897 504.57497,235.84459 C 514.76979,248.46017 518.81347,271.86301 494.07298,273.25614 C 465.83239,278.92809 437.89029,287.75969 408.55203,287.04551 C 369.19122,289.16576 329.91502,292.64587 290.5354,294.38153 C 265.78742,296.03295 242.03429,302.6776 218.14962,308.03347 C 196.78407,311.16546 175.47162,314.68068 154.50915,319.4402 C 138.63219,321.32442 122.72045,317.71162 108.42949,312.16317 z "
       id="path2489" />
    <path
       style="opacity:1;color:#000000;fill:#ec9e2d;fill-opacity:1;fill-rule:nonzero;stroke:none;stroke-width:10;stroke-linecap:square;stroke-linejoin:miter;marker:none;marker-start:none;marker-mid:none;marker-end:none;stroke-miterlimit:4;stroke-dasharray:none;stroke-dashoffset:0;stroke-opacity:1;visibility:visible;display:inline;overflow:visible"
       d="M 128.21946,307.38409 C 96.52246,302.24669 82.694373,339.31968 97.037623,359.08057 C 109.19017,396.58786 105.46394,441.23703 138.85678,470.97691 C 168.74854,495.01495 211.57116,500.27906 250.75462,504.72441 C 298.2477,508.29602 346.65422,507.25965 393.73653,499.91419 C 435.16321,489.41776 471.50664,468.20784 511.07899,453.73595 C 541.06814,440.1628 572.21525,428.24798 602.28625,415.09602 C 625.59007,396.7694 618.62127,364.88678 602.05951,345.35682 C 584.44514,322.08332 563.60284,300.63202 543.48335,279.08965 C 515.93064,260.23344 477.85768,268.44249 447.57907,278.28913 C 398.94383,281.16199 359.3702,288.07583 313.79468,293.15683 C 252.24207,296.41632 190.59819,307.76064 128.97227,307.44552 L 128.21946,307.38409 z "
       id="path2466"
       sodipodi:nodetypes="ccccccccccccc" />
    <path
       sodipodi:nodetypes="ccccccccccccc"
       id="path3450"
       d="M 128.21946,307.38409 C 96.52246,302.24669 82.694373,339.31968 97.037623,359.08057 C 109.19017,396.58786 105.46394,441.23703 138.85678,470.97691 C 168.74854,495.01495 211.57116,500.27906 250.75462,504.72441 C 298.2477,508.29602 346.65422,507.25965 393.73653,499.91419 C 435.16321,489.41776 471.50664,468.20784 511.07899,453.73595 C 541.06814,440.1628 572.21525,428.24798 602.28625,415.09602 C 625.59007,396.7694 618.62127,364.88678 602.05951,345.35682 C 584.44514,322.08332 563.60284,300.63202 543.48335,279.08965 C 515.93064,260.23344 477.85768,268.44249 447.57907,278.28913 C 398.94383,281.16199 359.3702,288.07583 313.79468,293.15683 C 252.24207,296.41632 190.59819,307.76064 128.97227,307.44552 L 128.21946,307.38409 z "
       style="opacity:1;color:#000000;fill:url(#linearGradient3458);fill-opacity:1.0;fill-rule:nonzero;stroke:none;stroke-width:10;stroke-linecap:square;stroke-linejoin:miter;marker:none;marker-start:none;marker-mid:none;marker-end:none;stroke-miterlimit:4;stroke-dasharray:none;stroke-dashoffset:0;stroke-opacity:1;visibility:visible;display:inline;overflow:visible" />
    <path
       style="opacity:1;color:#000000;fill:#ec9e2d;fill-opacity:1;fill-rule:nonzero;stroke:none;stroke-width:10;stroke-linecap:square;stroke-linejoin:miter;marker:none;marker-start:none;marker-mid:none;marker-end:none;stroke-miterlimit:4;stroke-dasharray:none;stroke-dashoffset:0;stroke-opacity:1;visibility:visible;display:inline;overflow:visible"
       d="M 106.75473,311.09705 C 101.15262,392.05095 127.12584,471.26648 123.91864,552.16663 C 127.18758,613.75729 129.27625,675.58925 123.52757,737.23751 C 129.49609,768.18576 170.6204,773.6104 198.7798,783.50107 C 234.98393,796.65852 268.66332,814.73831 298.35223,836.82266 C 320.60862,847.32218 369.05251,809.81798 403.19454,798.24821 C 460.68251,776.23445 524.55244,772.36578 586.75904,777.73886 C 626.04755,768.25346 623.98387,726.74672 625.07902,698.73579 C 628.80075,613.59072 619.5096,527.42192 640.57731,443.23366 C 662.58213,421.71521 656.2354,369.32761 613.3869,378.03142 C 576.30318,383.41227 540.4361,395.04013 502.61068,396.1187 C 432.243,404.42409 362.64235,417.77152 291.93165,423.70583 C 245.4844,417.79115 226.43351,374.6581 187.22695,357.50583 C 161.44598,340.93014 140.36566,316.18486 106.75473,311.09705 z "
       id="path2386"
       sodipodi:nodetypes="cccccccccccccc" />
    <path
       style="opacity:1;color:#000000;fill:#ec9e2d;fill-opacity:1;fill-rule:nonzero;stroke:none;stroke-width:10;stroke-linecap:square;stroke-linejoin:miter;marker:none;marker-start:none;marker-mid:none;marker-end:none;stroke-miterlimit:4;stroke-dasharray:none;stroke-dashoffset:0;stroke-opacity:1;visibility:visible;display:inline;overflow:visible"
       d="M 382.91595,671.99966 C 391.00546,686.28029 401.5529,699.97983 404.49516,716.01745 C 425.24529,739.76978 472.00513,739.6871 494.15642,716.61642 C 516.56146,701.10162 541.40967,685.01134 558.57856,664.71151 C 571.45732,643.79453 579.04923,623.1179 592.94825,602.62617 C 602.30988,579.60923 597.77312,552.74817 580.53102,533.67505 C 584.90824,522.53511 572.54426,505.40494 560.06323,512.38528 C 551.21004,519.03514 553.64224,532.87435 556.97878,540.558 C 562.7483,553.74558 553.50841,567.6622 545.26121,578.62283 C 534.64261,590.85709 524.17659,603.16712 514.11038,615.73229 C 492.70617,640.43276 467.34043,665.51036 432.46881,675.52229 C 419.13661,678.27392 404.51723,677.02488 392.74985,670.98733 C 389.52613,670.17882 385.81351,670.36291 382.91595,671.99966 z "
       id="path2301"
       sodipodi:nodetypes="ccccccccccccc" />
    <path
       sodipodi:nodetypes="ccccccccccccc"
       id="path3460"
       d="M 382.91595,671.99966 C 391.00546,686.28029 401.5529,699.97983 404.49516,716.01745 C 425.24529,739.76978 472.00513,739.6871 494.15642,716.61642 C 516.56146,701.10162 541.40967,685.01134 558.57856,664.71151 C 571.45732,643.79453 579.04923,623.1179 592.94825,602.62617 C 602.30988,579.60923 597.77312,552.74817 580.53102,533.67505 C 584.90824,522.53511 572.54426,505.40494 560.06323,512.38528 C 551.21004,519.03514 553.64224,532.87435 556.97878,540.558 C 562.7483,553.74558 553.50841,567.6622 545.26121,578.62283 C 534.64261,590.85709 524.17659,603.16712 514.11038,615.73229 C 492.70617,640.43276 467.34043,665.51036 432.46881,675.52229 C 419.13661,678.27392 404.51723,677.02488 392.74985,670.98733 C 389.52613,670.17882 385.81351,670.36291 382.91595,671.99966 z "
       style="opacity:1;color:#000000;fill:url(#linearGradient3468);fill-opacity:1.0;fill-rule:nonzero;stroke:none;stroke-width:10;stroke-linecap:square;stroke-linejoin:miter;marker:none;marker-start:none;marker-mid:none;marker-end:none;stroke-miterlimit:4;stroke-dasharray:none;stroke-dashoffset:0;stroke-opacity:1;visibility:visible;display:inline;overflow:visible" />
    <path
       style="fill:#000000;fill-opacity:1;fill-rule:nonzero;stroke:none;stroke-width:1px;stroke-linecap:butt;stroke-linejoin:miter;stroke-opacity:1"
       id="path1379"
       d="M 385.05584,632.18696 C 385.22225,625.44378 386.30205,618.78355 387.76661,612.15144 C 393.32976,587.32386 405.54255,564.18148 422.30369,543.53062 C 444.89419,515.49969 476.9617,494.59525 516.47491,490.5741 C 548.07142,488.62395 573.48767,504.57551 589.40967,527.02973 C 607.56074,555.56686 601.91078,588.33632 589.69538,618.06456 C 571.71102,656.8629 541.86478,691.60135 504.84031,718.2516 C 483.33839,732.64336 457.11129,747.30655 429.06901,742.84346 C 408.29782,738.17528 396.28076,722.26049 391.01331,705.04235 C 389.96218,701.4644 389.49289,697.79344 389.04607,694.12393 L 408.36739,683.39344 C 408.52897,686.68655 408.71693,689.98071 409.43677,693.21964 C 412.81044,707.30281 421.5187,721.54235 438.86625,724.82319 C 464.09631,727.65915 487.47407,712.52637 506.44206,699.76667 C 542.39729,672.90744 547.64707,664.41622 570.18848,624.90828 C 582.20806,597.72385 589.36176,567.20791 573.4877,540.33594 C 559.88367,520.2254 537.61553,505.99276 509.57837,508.80314 C 490.24492,511.4427 472.35156,518.54879 456.82579,529.09955 C 447.55663,535.39854 431.59556,555.41598 437.2468,545.82921 C 438.8045,543.18672 441.2707,541.02738 443.28263,538.62646 C 426.39177,557.83616 413.74746,579.62552 408.3227,603.40946 C 407.0206,609.32453 405.64258,615.35777 406.10501,621.38728 L 385.05584,632.18696 z " />
    <path
       style="fill:#000000;fill-opacity:1;fill-rule:nonzero;stroke:none;stroke-width:1px;stroke-linecap:butt;stroke-linejoin:miter;stroke-opacity:1"
       id="path1329"
       d="M 117.00952,301.6376 C 125.81752,302.20655 134.75863,301.35091 143.56499,300.71728 C 183.33366,297.37692 222.94176,292.53695 262.55465,287.92054 C 314.90853,281.9055 367.14204,275.06897 419.35301,268.11377 C 450.67222,264.13106 481.88263,259.39124 513.25115,255.72605 C 528.15337,252.87706 537.02104,259.21782 546.38477,268.18663 C 564.41055,286.25504 581.54372,304.97388 599.00897,323.44642 C 616.60026,342.05971 634.61049,360.37408 653.24938,378.20976 C 654.09115,379.01086 654.9329,379.81196 655.77467,380.61306 L 639.17517,396.47415 C 638.35833,395.64165 637.54149,394.80916 636.72464,393.97666 C 618.65818,375.536 600.77775,356.9612 583.04682,338.2783 C 565.6817,320.04643 548.5162,301.63502 529.95612,284.29216 C 521.98131,277.16101 517.21424,273.94976 505.2989,276.00943 C 474.28473,278.71121 443.41004,282.63862 412.51926,286.29907 C 360.24308,292.74032 308.04771,299.71742 255.72068,305.81705 C 215.65168,310.6424 175.67447,316.07843 135.57254,320.66836 C 131.91243,321.05279 110.77689,321.53857 116.03617,324.09649 L 117.00952,301.6376 z " />
    <path
       style="opacity:1;color:#000000;fill:#ec9e2d;fill-opacity:1;fill-rule:nonzero;stroke:none;stroke-width:10;stroke-linecap:square;stroke-linejoin:miter;marker:none;marker-start:none;marker-mid:none;marker-end:none;stroke-miterlimit:4;stroke-dasharray:none;stroke-dashoffset:0;stroke-opacity:1;visibility:visible;display:inline;overflow:visible"
       d="M 304.14001,423.15098 C 321.4392,403.86085 356.12979,400.93792 367.57406,377.01337 C 379.02713,360.63952 396.37582,342.86435 420.56397,343.54278 C 460.38561,339.79966 496.46179,321.55465 536.46087,318.53663 C 571.66,313.61379 606.50387,306.51113 640.94389,298.65449 C 659.54802,297.47738 676.67204,288.03903 695.57746,289.39155 C 711.39305,298.47301 701.69102,317.84056 689.87062,326.5649 C 674.72221,342.71037 676.39546,385.86424 640.26854,380.79729 C 628.01889,394.40579 620.27303,390.17167 603.08771,389.60189 C 575.73121,387.99694 548.33838,391.40398 520.96365,392.14278 C 482.43029,393.8317 444.74454,396.06211 409.26104,409.96467 C 380.82991,420.35192 350.05099,428.11681 318.90071,427.72704 C 311.86491,427.23767 305.71329,429.1146 304.14001,423.15098 z "
       id="path2498"
       sodipodi:nodetypes="ccccccccccccc" />
    <path
       style="fill:#000000;fill-opacity:1;fill-rule:nonzero;stroke:none;stroke-width:1px;stroke-linecap:butt;stroke-linejoin:miter;stroke-opacity:1"
       id="path1335"
       d="M 112.51721,297.39867 C 109.9666,295.54347 123.66385,303.04715 125.81008,304.19596 C 150.02607,317.1921 173.34356,331.35119 195.62248,346.68482 C 220.9407,364.26643 244.68647,383.44794 267.3415,403.528 C 282.74809,420.3713 299.52482,420.65164 322.80657,417.15721 C 366.20116,409.04954 409.13303,399.16359 452.64886,391.52492 C 498.91487,383.48794 545.71266,378.03589 592.69052,375.05862 C 611.87657,373.88796 646.36916,372.47099 665.57831,372.6641 L 641.14139,393.0003 C 622.39281,392.45749 603.61095,392.74269 584.85916,393.70406 C 538.37972,396.19275 492.07972,401.47762 446.38375,409.67 C 402.56243,417.58348 359.43126,428.02464 315.78532,436.59109 C 289.35009,440.64127 268.47409,438.31527 251.46495,419.21639 C 229.70162,398.92208 206.43726,379.8216 181.34496,362.59146 C 159.34059,347.61565 136.26401,333.76894 111.75414,321.95821 C 106.41413,319.44913 100.52192,317.2162 95.483253,314.61203 L 112.51721,297.39867 z "
       sodipodi:nodetypes="ccccccccccccccccc" />
    <path
       style="opacity:1;color:#000000;fill:#ec9e2d;fill-opacity:1;fill-rule:nonzero;stroke:none;stroke-width:10;stroke-linecap:square;stroke-linejoin:miter;marker:none;marker-start:none;marker-mid:none;marker-end:none;stroke-miterlimit:4;stroke-dasharray:none;stroke-dashoffset:0;stroke-opacity:1;visibility:visible;display:inline;overflow:visible"
       d="M 363.12267,566.80575 C 378.89148,559.59595 396.61169,556.67969 412.7594,550.25821 C 428.8251,545.63485 447.20751,546.23975 461.22186,536.93578 C 466.97609,533.57615 473.85803,529.59004 481.04895,531.1904 C 488.79602,534.46172 488.61217,542.92919 492.66128,548.62262 C 499.23926,560.63328 508.19738,572.07404 510.32157,585.55262 C 509.4753,592.39865 500.25135,593.29638 494.26934,595.28247 C 484.58919,599.06319 474.73394,602.52886 464.37323,604.6023 C 444.81998,609.03435 424.62165,611.46127 405.6872,617.86287 C 399.93188,621.8806 389.60378,624.88084 384.45336,618.79772 C 379.00044,612.8689 375.72405,604.97131 377.55318,597.31893 C 376.06178,586.08815 366.79681,577.38663 363.12267,566.80575 z "
       id="path1381" />
    <path
       style="fill:#000000;fill-opacity:1;fill-rule:nonzero;stroke:none;stroke-width:1px;stroke-linecap:butt;stroke-linejoin:miter;stroke-opacity:1"
       id="path1347"
       d="M 99.188052,318.05847 C 122.77388,321.80679 113.42628,286.1521 114.35868,318.51747 C 116.57785,356.83932 120.86131,395.02843 124.43685,433.25289 C 129.79958,491.31808 134.70759,549.44011 137.30483,607.68796 C 138.55931,644.46579 139.37532,681.47737 134.27654,718.16456 C 132.77415,722.13967 132.46867,745.86583 125.29117,739.0084 C 137.6536,742.05424 153.85901,747.78909 166.90263,752.74011 C 195.74705,763.93599 223.54263,776.97354 250.83545,790.68613 C 270.76662,800.70247 290.22407,811.39039 309.22238,822.65583 C 317.0862,826.77604 318.87556,831.61307 323.28233,825.25308 C 340.12537,811.94052 360.88674,803.13276 381.65269,795.44177 C 419.89318,781.90144 460.15448,773.30655 500.66365,767.07609 C 530.11087,762.81767 559.94856,760.3062 589.74662,760.83253 C 618.51787,763.34763 617.78054,753.37385 604.23528,768.76761 C 614.02803,739.50859 612.37155,707.45029 613.29701,677.26758 C 614.42843,635.13731 614.66296,593.00437 616.38528,550.87889 C 617.63024,523.07877 619.25571,495.2335 623.8995,467.63552 C 626.38846,452.39536 630.58471,437.41433 634.51595,422.40297 C 636.50994,415.1473 638.06275,407.8274 638.9544,400.42609 C 639.36257,395.89728 639.41944,391.355 639.53196,386.81956 C 639.553,386.52337 639.57404,386.22718 639.59509,385.93099 L 662.37334,375.41491 C 662.32913,375.67551 662.28494,375.93612 662.24076,376.19673 C 661.55495,380.68317 661.6798,385.20405 661.43697,389.71416 C 660.91094,397.63758 659.4919,405.48062 657.25827,413.20668 C 653.2295,428.2016 648.4745,443.07079 645.48946,458.25048 C 639.93263,485.68938 637.88157,513.485 636.11571,541.21801 C 633.70343,583.37601 633.1981,625.5616 632.38207,667.73857 C 631.71582,698.78035 632.1221,730.04862 627.65182,760.93245 C 621.15597,787.15858 601.38116,781.62793 580.44936,780.43923 C 551.49705,779.55426 522.46994,781.81549 493.84436,785.98116 C 453.96932,792.02043 414.33203,800.73143 377.15724,815.05049 C 356.76318,823.32004 337.48404,833.24416 321.46007,847.11961 C 310.93154,852.42524 302.5403,845.42733 294.35686,839.98684 C 276.04616,828.35029 257.0227,817.55949 237.47319,807.51398 C 210.66408,793.79759 183.16541,780.96939 154.41921,770.43921 C 139.35964,765.09291 123.54714,761.34829 108.57067,756.15914 C 99.302026,748.37653 112.5468,737.3411 112.76534,727.62947 C 120.23273,691.16435 119.74156,653.97026 119.25912,617.18262 C 117.57155,558.98281 112.82545,500.9176 106.83907,442.99373 C 102.85655,405.2069 97.928517,367.51952 93.456739,329.78193 C 92.466548,320.24177 86.484126,293.84445 108.73007,297.03414 L 99.188052,318.05847 z " />
    <path
       id="path3470"
       d="M 363.12267,566.80575 C 378.89148,559.59595 396.61169,556.67969 412.7594,550.25821 C 428.8251,545.63485 447.20751,546.23975 461.22186,536.93578 C 466.97609,533.57615 473.85803,529.59004 481.04895,531.1904 C 488.79602,534.46172 488.61217,542.92919 492.66128,548.62262 C 499.23926,560.63328 508.19738,572.07404 510.32157,585.55262 C 509.4753,592.39865 500.25135,593.29638 494.26934,595.28247 C 484.58919,599.06319 474.73394,602.52886 464.37323,604.6023 C 444.81998,609.03435 424.62165,611.46127 405.6872,617.86287 C 399.93188,621.8806 389.60378,624.88084 384.45336,618.79772 C 379.00044,612.8689 375.72405,604.97131 377.55318,597.31893 C 376.06178,586.08815 366.79681,577.38663 363.12267,566.80575 z "
       style="opacity:1;color:#000000;fill:url(#linearGradient3478);fill-opacity:1.0;fill-rule:nonzero;stroke:none;stroke-width:10;stroke-linecap:square;stroke-linejoin:miter;marker:none;marker-start:none;marker-mid:none;marker-end:none;stroke-miterlimit:4;stroke-dasharray:none;stroke-dashoffset:0;stroke-opacity:1;visibility:visible;display:inline;overflow:visible" />
    <path
       style="opacity:1;color:#000000;fill:#ec9e2d;fill-opacity:1;fill-rule:nonzero;stroke:none;stroke-width:10;stroke-linecap:square;stroke-linejoin:miter;marker:none;marker-start:none;marker-mid:none;marker-end:none;stroke-miterlimit:4;stroke-dasharray:none;stroke-dashoffset:0;stroke-opacity:1;visibility:visible;display:inline;overflow:visible"
       d="M 363.12897,566.03127 C 396.49907,564.23325 425.59221,548.14474 456.91904,539.6019 C 461.44633,523.00801 489.44046,545.45018 470.68399,550.61887 C 448.58898,566.20086 432.52907,587.51719 408.1393,600.81265 C 393.8706,609.64554 377.49201,615.64446 363.24623,624.39588 C 351.84984,634.10426 355.62441,650.4147 366.503,658.91927 C 386.29913,678.00137 420.59789,684.5013 448.07646,673.62437 C 472.89693,664.95039 489.31832,645.6071 503.44787,626.8937 C 521.87082,605.78665 542.04515,584.9711 551.95835,559.6122 C 563.46646,532.64248 566.02092,500.20599 547.2606,475.55525 C 526.06147,447.98747 480.21396,437.51197 445.60061,453.12749 C 411.28193,467.52346 391.02359,497.12512 374.80013,525.52999 C 368.88337,536.54583 360.00311,547.23928 359.24475,559.64943 C 359.56458,562.00926 360.25781,565.08479 363.12897,566.03127 z "
       id="path2268" />
    <path
       style="fill:#000000;fill-opacity:1;fill-rule:nonzero;stroke:none;stroke-width:1px;stroke-linecap:butt;stroke-linejoin:miter;stroke-opacity:1"
       id="path1353"
       d="M 353.1364,577.92475 C 353.30281,571.18157 354.3826,564.52132 355.84717,557.88923 C 361.41031,533.06164 373.62311,509.91926 390.38425,489.26841 C 412.97475,461.23748 445.04228,440.33304 484.55546,436.31188 C 516.15197,434.36174 541.56824,450.3133 557.49022,472.76752 C 575.6413,501.30465 569.99134,534.0741 557.77593,563.80234 C 539.79158,602.60069 509.94534,637.33913 472.92086,663.98939 C 451.41894,678.38114 425.19184,693.04433 397.14957,688.58123 C 376.37838,683.91307 364.36132,667.99827 359.09387,650.78012 C 358.04273,647.20219 357.57345,643.53122 357.12662,639.86172 L 376.44796,629.13122 C 376.60953,632.42433 376.79749,635.71849 377.51732,638.95742 C 380.891,653.04059 389.59925,667.28014 406.94682,670.56098 C 432.17687,673.39693 455.55463,658.26415 474.52263,645.50445 C 510.47785,618.64523 515.72764,610.15401 538.26904,570.64605 C 550.28863,543.46164 557.44231,512.94569 541.56826,486.07373 C 527.96422,465.96319 505.69608,451.73054 477.65892,454.54092 C 458.32548,457.18048 440.43211,464.28657 424.90636,474.83733 C 415.63719,481.13633 399.67611,501.15377 405.32736,491.56699 C 406.88506,488.92451 409.35125,486.76517 411.36319,484.36425 C 394.47233,503.57395 381.82803,525.36331 376.40326,549.14724 C 375.10116,555.06232 373.72314,561.09555 374.18558,567.12507 L 353.1364,577.92475 z " />
    <path
       style="fill:#000000;fill-opacity:1;fill-rule:nonzero;stroke:none;stroke-width:1px;stroke-linecap:butt;stroke-linejoin:miter;stroke-opacity:1"
       id="path1355"
       d="M 363.95172,560.46399 C 360.78339,559.69346 367.51648,558.09571 368.92106,557.58105 C 381.33232,553.07219 393.75087,548.57787 406.16288,544.06992 C 426.4971,536.62373 446.85283,529.21822 467.47845,522.42592 C 479.43032,519.55747 499.40043,507.12523 507.85716,519.82027 C 504.48359,538.11057 473.77635,557.57665 458.53428,570.28907 C 436.90386,588.47102 414.55688,606.0007 391.16298,622.43163 C 376.94051,632.25644 362.31772,641.71153 346.60068,649.62354 L 350.0773,629.53154 C 365.17187,621.78476 379.31505,612.69404 393.02545,603.18985 C 416.1862,586.87209 438.26755,569.4226 459.52009,551.22913 C 466.51116,545.26499 507.91184,502.24684 483.57543,531.44212 C 483.48841,531.54649 486.91653,528.44285 486.97283,530.34205 C 487.39628,530.67963 491.80091,533.15242 491.91388,533.45474 C 492.02195,533.74396 462.3488,540.24037 462.48303,541.69724 C 441.91579,548.40597 421.69205,555.8917 401.54225,563.52424 C 389.06579,568.23093 376.58788,572.94055 364.2622,577.95105 C 361.25717,579.17848 358.36678,580.986 355.06126,580.29081 L 363.95172,560.46399 z " />
    <path
       style="fill:#000000;fill-opacity:1;fill-rule:nonzero;stroke:none;stroke-width:1px;stroke-linecap:butt;stroke-linejoin:miter;stroke-opacity:1"
       id="path1373"
       d="M 370.75494,565.89939 C 373.46884,568.82425 376.54438,573.36706 379.12191,577.02046 C 385.39926,585.9921 391.38216,595.11911 397.68734,604.07564 L 380.71415,618.3107 C 374.54031,609.33333 368.64543,600.20533 362.19424,591.378 C 359.85068,588.24066 357.4551,585.12888 354.88825,582.1293 L 370.75494,565.89939 z " />
    <path
       style="fill:#000000;fill-opacity:1;fill-rule:nonzero;stroke:none;stroke-width:1px;stroke-linecap:butt;stroke-linejoin:miter;stroke-opacity:1"
       id="path1375"
       d="M 373.66107,631.43185 C 371.72792,630.99013 375.43383,636.98863 376.23432,638.58597 C 381.72614,649.31215 387.33319,659.99325 393.16575,670.57821 C 400.74212,684.19556 408.44554,697.75728 416.07705,711.35054 C 418.70643,716.02973 421.32053,720.71548 423.91385,725.41032 L 406.0797,738.96669 C 403.66363,734.20658 401.22021,729.45773 398.67847,724.74873 C 391.31831,711.04504 383.6943,697.4554 375.95666,683.91521 C 369.9785,673.40317 364.27387,662.7717 358.30977,652.2534 C 356.42672,648.90523 354.64179,645.5086 352.61485,642.23002 L 373.66107,631.43185 z " />
    <path
       style="fill:#000000;fill-opacity:1;fill-rule:nonzero;stroke:none;stroke-width:1px;stroke-linecap:butt;stroke-linejoin:miter;stroke-opacity:1"
       id="path1377"
       d="M 556.4584,465.89048 C 554.07259,464.74433 559.11577,472.88599 559.97098,474.57012 C 566.10891,486.41815 572.99369,497.94936 579.86341,509.47527 C 586.51503,520.48833 593.22302,531.47574 600.0547,542.40289 C 601.13525,544.13766 602.23558,545.86275 603.32975,547.59084 L 585.94852,561.53941 C 584.88153,559.77805 583.8121,558.01781 582.75371,556.2524 C 576.05578,545.18397 569.43183,534.08099 562.7804,522.99074 C 555.89583,511.4032 548.92412,499.85491 542.22247,488.18364 C 540.01733,484.32517 537.95068,480.38659 535.40924,476.69016 L 556.4584,465.89048 z " />
    <path
       style="fill:#000000;fill-opacity:1;fill-rule:nonzero;stroke:none;stroke-width:1px;stroke-linecap:butt;stroke-linejoin:miter;stroke-opacity:1"
       id="path2458"
       d="M 107.25589,319.55344 C 102.97029,317.77686 99.209727,315.19013 95.509424,312.64846 C 86.185636,305.91132 78.209785,297.95449 70.420584,289.93438 C 64.415499,283.7046 58.756091,277.21904 54.518546,269.9586 C 46.42696,258.21917 56.864149,243.69783 72.880638,243.05942 C 89.197745,243.24489 105.47784,244.18142 121.79889,244.36655 C 147.64308,244.61809 173.51049,243.0517 199.15816,239.97538 C 226.69559,239.52864 241.20736,217.9662 220.44458,242.38242 C 224.60783,238.95483 218.4972,233.84653 215.555,230.42647 C 205.82153,221.63528 200.6383,201.84923 224.18571,200.9012 C 237.28733,201.60319 250.28374,203.20716 263.34568,204.26764 C 279.96471,205.44831 296.83725,205.9116 313.41481,203.58713 C 322.74312,202.4 331.81709,196.64883 339.94659,202.56811 C 345.18181,207.94473 340.21746,212.9607 336.73367,217.95148 C 330.74847,220.97594 337.09775,218.49978 342.30117,217.81102 C 363.32694,214.10337 383.55352,207.52618 403.64032,201.03538 C 423.4884,194.6311 443.13384,187.74716 463.04268,181.48764 C 472.26444,178.70465 482.02317,174.78181 491.3767,178.46331 C 498.22036,182.54816 498.62219,189.61939 499.78789,196.18504 C 501.04828,205.09649 503.92671,213.66204 507.50335,222.03401 C 511.03505,230.02955 515.63518,237.61056 520.76787,244.90194 C 523.78167,249.1738 527.39455,253.00472 532.0217,256.00545 C 532.67373,256.43179 533.43342,256.70609 534.13731,257.05542 L 519.7821,275.59619 C 518.76296,275.04608 517.68192,274.57502 516.7219,273.94437 C 510.99926,270.131 506.20411,265.59084 502.43492,260.22385 C 496.89072,252.48488 491.98996,244.39412 488.04113,235.93648 C 484.01317,227.11188 480.47896,218.08956 478.7666,208.6624 C 478.10091,205.29186 476.37293,199.84901 477.31939,197.23842 C 471.16992,198.61254 463.72126,200.30791 457.38514,202.38957 C 437.57306,208.37477 418.00463,214.95979 398.31466,221.24334 C 377.44891,227.92033 356.43152,234.85104 334.53453,238.36406 C 324.22352,239.46699 310.16444,237.34252 312.65017,225.67381 C 314.18541,222.05649 316.94366,213.45409 321.68343,218.64338 C 330.26305,223.35042 309.67845,222.59645 305.53492,224.06173 C 288.16605,225.61245 270.69175,225.09101 253.37201,223.78357 C 241.73699,222.89194 229.05709,220.67445 217.65082,222.40455 C 232.49576,206.68407 224.7076,202.90125 233.30394,214.54305 C 238.71701,220.80071 244.89486,227.15826 244.79131,235.42066 C 229.21939,254.36741 217.934,258.2624 191.4654,259.81302 C 165.33597,262.38113 139.06868,263.8249 112.8084,263.78771 C 96.924634,263.74309 80.883814,262.6417 65.062729,264.05855 C 85.11847,242.31183 72.22474,248.33719 74.118569,255.5831 C 77.336637,262.37156 82.252894,268.31167 87.590086,273.98261 C 94.769307,281.56286 102.15773,289.10556 111.1099,295.18943 C 112.37998,295.99329 122.82916,301.63615 116.7979,298.52911 L 107.25589,319.55344 z " />
    <path
       style="fill:#000000;fill-opacity:1;fill-rule:nonzero;stroke:none;stroke-width:1px;stroke-linecap:butt;stroke-linejoin:miter;stroke-opacity:1"
       id="path2464"
       d="M 286.43777,417.43434 C 282.71824,416.25799 292.98367,413.36568 295.15717,412.37753 C 312.47327,404.3259 328.63503,394.5138 344.09271,384.02451 C 359.47405,374.51868 371.29048,361.71399 384.79145,350.48159 C 396.84554,340.31586 412.82309,335.37362 428.5571,331.2007 C 456.11477,324.56938 484.20144,319.8671 512.11268,314.58892 C 540.35371,309.25895 568.46953,303.43035 596.59222,297.6327 C 615.45528,293.83133 634.32138,290.0165 653.28447,286.62668 C 666.4442,284.30189 679.61779,282.04513 692.71042,279.43214 C 703.88084,276.49176 715.42139,276.33894 717.95712,287.98255 C 716.23095,299.68195 708.8399,310.40774 702.9247,320.9561 C 696.66602,332.15122 690.08525,343.21065 683.35529,354.20381 C 676.7146,366.42211 667.3757,376.57738 657.78217,387.24733 C 655.65576,389.43825 652.9245,390.97037 650.18351,392.50314 L 652.69565,370.42222 C 654.44872,368.74054 656.22026,367.07688 657.73143,365.21523 C 635.69384,390.07014 654.2527,370.33649 659.44466,361.05043 C 666.44483,350.20599 673.14694,339.22457 679.51398,328.09852 C 685.08184,318.34732 690.54431,308.5425 695.40092,298.51721 C 703.35693,296.77366 688.34388,299.90298 685.72392,300.24454 C 672.5571,302.69295 659.36026,305.0096 646.14562,307.2423 C 627.38369,310.50621 608.6524,313.91557 589.98859,317.60225 C 561.84895,323.1972 533.70783,328.78778 505.50064,334.10814 C 477.78157,339.34118 449.82333,344.03927 422.775,351.6443 C 408.21952,356.12753 394.32475,361.74372 383.86109,371.94094 C 370.73861,383.71723 357.14946,395.11131 341.83393,404.78741 C 325.61435,415.3592 308.82863,425.34453 291.03399,433.8252 C 286.72536,435.83075 281.82743,439.18057 276.89442,438.46164 L 286.43777,417.43434 z " />
    <path
       style="fill:#000000;fill-opacity:1;fill-rule:nonzero;stroke:none;stroke-width:1px;stroke-linecap:butt;stroke-linejoin:miter;stroke-opacity:1"
       id="path2533"
       d="M 189.12645,707.68959 C 187.4871,708.60078 186.30184,710.18293 185.26766,711.64178 C 181.74048,716.56869 182.23354,722.33098 184.17339,728.15021 C 187.6591,737.38611 195.34397,746.57837 206.51651,754.68739 C 204.70358,753.66123 212.925,758.84972 211.35422,757.79564 C 194.47437,746.4681 211.99115,759.808 228.65409,761.49127 C 239.67212,762.31786 246.70349,758.80964 250.225,753.88639 C 253.98472,747.69898 251.57644,740.34134 247.1726,733.32643 C 246.80721,732.79479 246.4418,732.26315 246.07641,731.73149 L 264.34921,737.03132 C 264.68613,737.60721 265.02302,738.18312 265.35991,738.75902 C 269.58097,746.79435 271.14328,755.00387 266.1328,761.8033 C 261.10448,767.93295 251.77246,772.19023 238.09683,771.83376 C 216.98448,770.81736 200.6406,761.12509 187.88547,750.8395 C 177.06032,741.84324 169.55241,731.98749 166.4859,722.14423 C 164.69197,715.57606 164.82991,709.20025 168.76635,703.64255 C 169.23541,702.96184 173.57455,698.15692 171.25204,700.21842 L 189.12645,707.68959 z " />
    <path
       style="fill:#000000;fill-opacity:1;fill-rule:nonzero;stroke:none;stroke-width:1px;stroke-linecap:butt;stroke-linejoin:miter;stroke-opacity:1"
       id="path2537"
       d="M 189.46115,681.75834 C 193.47813,683.84698 199.50371,686.45037 204.30574,688.52806 C 231.80176,699.93682 232.45665,700.25869 252.46905,707.09347 C 259.17643,709.37573 266.05482,711.51642 273.01154,713.58757 L 278.08245,722.94215 C 270.95319,720.8222 263.90601,718.62973 257.0179,716.30496 C 232.27629,707.95959 208.58399,698.78761 185.47295,689.25059 C 180.01483,686.98522 174.21223,684.58115 169.23337,682.1436 L 189.46115,681.75834 z " />
    <path
       style="fill:#000000;fill-opacity:1;fill-rule:nonzero;stroke:none;stroke-width:1px;stroke-linecap:butt;stroke-linejoin:miter;stroke-opacity:1"
       id="path2541"
       d="M 180.90548,654.31279 C 150.91777,641.32757 189.52409,656.56183 198.846,660.15767 C 196.71908,659.42589 208.7896,663.90193 206.24695,663.00814 C 203.86519,662.17089 201.59724,661.24742 199.2157,660.41002 C 197.6548,659.86117 202.25954,661.56611 203.7842,662.14219 C 208.78683,664.03232 213.81172,665.90592 218.86246,667.76056 C 231.52494,672.41021 244.36428,676.92138 257.35614,681.31626 C 265.62978,684.11375 274.0673,686.77626 282.55888,689.39143 L 287.38688,698.55377 C 278.79124,695.86739 270.23791,693.14414 261.81772,690.31177 C 234.08611,680.97698 207.04231,671.10503 180.17844,661.10625 C 175.66706,659.45967 160.32186,653.62361 180.85075,661.46723 C 181.45772,661.69917 179.60389,661.02805 178.98471,660.8052 C 172.99939,658.65099 162.52585,656.31741 160.98639,653.19117 L 180.90548,654.31279 z " />
    <path
       style="fill:#000000;fill-opacity:1;fill-rule:nonzero;stroke:none;stroke-width:1px;stroke-linecap:butt;stroke-linejoin:miter;stroke-opacity:1"
       id="path2543"
       d="M 209.97157,697.26506 C 209.32711,700.39359 208.72158,696.23073 208.46559,695.36182 C 207.38653,691.32873 206.53452,687.26983 205.63017,683.21735 C 204.27029,677.36672 202.92729,671.5153 202.46899,665.58381 C 202.38213,664.38315 202.46234,663.17577 202.52026,661.96952 L 220.75244,665.2061 C 220.71697,666.30704 220.66246,667.40905 220.75386,668.50458 C 221.22363,674.29684 222.53963,680.01632 223.97887,685.71889 C 224.98926,689.69755 225.93216,693.69917 227.60695,697.58809 C 228.71962,699.32985 229.68705,699.04975 228.77456,700.51378 L 209.97157,697.26506 z " />
    <path
       style="fill:#000000;fill-opacity:1;fill-rule:nonzero;stroke:none;stroke-width:1px;stroke-linecap:butt;stroke-linejoin:miter;stroke-opacity:1"
       id="path2547"
       d="M 160.88059,624.01174 C 165.8965,625.60243 171.97618,628.77279 176.86985,631.06724 C 192.66023,638.58708 208.62412,645.99907 224.95442,653.17441 C 234.16393,657.25753 243.62625,661.16754 253.68542,664.60179 C 249.88278,666.89959 246.33039,657.56733 244.84367,655.48932 C 237.85667,646.00183 231.29791,636.42473 226.82272,626.5635 C 225.69301,623.89113 226.23386,625.21917 225.1984,622.57954 L 243.21358,626.14367 C 244.24928,628.67937 243.70597,627.40351 244.84558,629.97107 C 249.50863,639.66612 256.17571,649.07339 263.29281,658.38395 C 267.10944,663.54869 275.69144,672.2436 261.9271,674.5091 C 249.07575,673.54599 239.32719,666.82875 228.95543,663.05207 C 212.69712,655.87626 196.74587,648.501 180.75231,641.1539 C 176.8323,639.37275 168.41439,635.96223 166.41161,634.61752 L 160.88059,624.01174 z " />
    <path
       style="fill:#000000;fill-opacity:1;fill-rule:nonzero;stroke:none;stroke-width:1px;stroke-linecap:butt;stroke-linejoin:miter;stroke-opacity:1"
       id="path2549"
       d="M 148.17614,583.94079 C 154.14478,584.29307 160.50958,588.02045 165.57131,590.08549 C 183.70268,597.41647 201.81863,604.76107 220.14981,611.92689 C 231.95527,616.44911 243.58443,621.22241 255.9701,625.15448 C 254.58732,622.03494 253.34357,615.10295 252.13825,610.84303 C 249.44435,601.78959 247.212,592.73466 245.82589,583.69842 L 263.22902,588.81106 C 264.59022,597.75519 266.97624,606.71976 269.83923,615.67818 C 271.71143,621.77973 278.03039,632.18887 266.06959,635.10164 C 251.87581,636.03514 237.07355,625.21394 224.81357,621.88533 C 206.63336,614.73652 188.58982,607.47285 170.34532,600.37853 C 166.69585,598.97597 156.23244,595.85624 156.93468,594.45455 L 148.17614,583.94079 z " />
    <path
       style="fill:#000000;fill-opacity:1;fill-rule:nonzero;stroke:none;stroke-width:1px;stroke-linecap:butt;stroke-linejoin:miter;stroke-opacity:1"
       id="path2551"
       d="M 148.9905,549.84223 C 148.44954,549.67075 149.21968,546.227 149.37593,545.10661 C 150.33164,539.14921 150.92877,533.12867 152.48593,527.27185 C 153.77512,522.23901 156.19949,516.24826 167.72448,517.06927 C 188.12518,521.8978 202.09014,535.3726 214.28635,545.32677 C 226.39637,555.06106 237.29266,565.1882 250.03941,574.72377 C 259.8447,581.06619 244.93876,574.81164 246.08604,570.9198 C 247.35997,563.35852 246.73535,555.5279 246.44847,547.77244 L 263.59725,553.78797 C 263.85813,561.82302 264.70189,569.97423 263.1546,577.77848 C 259.06687,589.75043 239.68753,579.78955 231.1712,571.2492 C 219.32333,561.51343 208.14312,551.58104 196.08499,541.90738 C 191.46222,538.23057 186.78887,534.56879 181.63894,531.07598 C 179.9267,529.91473 174.47368,526.56763 176.31823,527.66995 C 194.53992,538.55941 180.60605,530.004 175.70487,527.66292 C 170.30922,525.346 170.54509,532.30592 169.55348,534.0122 C 168.09854,539.7879 167.4991,545.71381 167.03393,551.64367 C 166.96983,553.33682 167.26394,555.15809 167.03237,556.76586 L 148.9905,549.84223 z " />
    <path
       style="fill:#000000;fill-opacity:1;fill-rule:nonzero;stroke:none;stroke-width:1px;stroke-linecap:butt;stroke-linejoin:miter;stroke-opacity:1"
       id="path2559"
       d="M 140.98293,503.67066 C 144.19427,502.90613 148.0734,502.67464 151.57846,502.27388 C 161.93626,501.0542 172.42696,500.21718 182.95019,499.56901 C 192.89809,498.85539 202.8607,498.52126 212.31946,500.51476 C 228.17309,504.78578 241.45932,511.33069 255.0073,517.37258 C 258.30192,518.86136 261.59902,520.34868 264.93178,521.81306 L 245.56641,521.75238 C 242.32185,520.26825 239.07632,518.78458 235.79929,517.3209 C 231.34654,515.3298 216.51558,509.00019 236.45902,517.49726 C 238.57657,518.39947 216.08279,509.1914 218.37934,510.40119 C 210.35223,508.07288 202.17505,507.63581 193.08489,508.37663 C 182.87582,508.90222 172.68423,509.64929 162.68794,510.92391 C 160.36862,511.22125 153.94029,512.36296 153.93768,511.97129 L 140.98293,503.67066 z " />
    <path
       style="fill:#000000;fill-opacity:1;fill-rule:nonzero;stroke:none;stroke-width:1px;stroke-linecap:butt;stroke-linejoin:miter;stroke-opacity:1"
       id="path2561"
       d="M 212.04114,507.05242 C 208.43337,507.88756 205.98772,506.15259 203.211,505.02831 C 191.90622,500.55012 181.29598,495.6204 173.20811,489.42525 C 166.6518,484.20619 162.20683,478.33405 158.34565,472.41465 C 155.28055,467.7122 152.8198,462.89461 152.0239,457.91528 L 170.55872,461.43825 C 171.69283,466.01486 174.13031,470.45302 177.08449,474.77658 C 180.97436,480.33947 185.58493,485.82299 192.56795,490.47885 C 197.83499,493.81461 221.91779,505.48642 198.8929,494.71748 C 200.79783,495.53204 206.2155,496.70798 202.43185,497.5281 L 212.04114,507.05242 z " />
    <path
       style="fill:#000000;fill-opacity:1;fill-rule:nonzero;stroke:none;stroke-width:1px;stroke-linecap:butt;stroke-linejoin:miter;stroke-opacity:1"
       id="path2563"
       d="M 150.99037,436.01017 C 151.21087,434.98876 151.40624,433.9649 151.65367,432.94676 C 152.35809,429.84433 154.6831,427.35883 158.97948,425.45496 C 173.42384,421.47068 189.38086,431.72897 197.67662,437.41194 C 214.82533,450.35665 227.68452,464.66619 240.40092,478.80138 C 251.78381,489.38334 257.39279,501.76613 270.76477,511.82391 C 269.0896,511.50055 273.81579,513.19665 273.11406,512.81533 C 254.39317,502.6425 259.032,512.79784 260.13871,498.07073 C 260.75142,485.54154 260.86734,472.97817 261.62989,460.4595 C 261.98754,453.74154 262.74254,447.05694 263.82312,440.40393 L 280.72545,445.73703 C 279.44299,452.25433 278.67899,458.82514 278.28403,465.42636 C 277.48787,477.98219 277.47205,490.58955 277.30827,503.18755 C 276.89001,512.12886 270.64426,527.27319 251.60348,509.05709 C 241.21238,498.19106 233.4058,486.76288 223.10004,475.8742 C 210.55925,461.93275 197.67687,447.5953 178.80369,435.52873 C 172.61087,432.10989 178.08602,435.16015 185.37077,438.86271 C 187.95086,440.17408 173.20335,432.52572 172.82671,433.92857 C 170.38435,435.12051 169.76779,436.7953 169.58456,438.67184 C 169.49241,439.66821 169.37372,440.66366 169.36437,441.66625 L 150.99037,436.01017 z " />
    <path
       style="fill:#000000;fill-opacity:1;fill-rule:nonzero;stroke:none;stroke-width:1px;stroke-linecap:butt;stroke-linejoin:miter;stroke-opacity:1"
       id="path2565"
       d="M 199.8952,475.85426 C 196.83984,477.67491 200.40004,471.6484 200.7082,470.7702 C 203.21508,463.7549 206.28077,456.83142 209.78905,449.99705 C 210.70708,448.18454 211.72097,446.39186 212.7621,444.60542 L 229.37562,450.84607 C 228.33843,452.57528 227.33564,454.31221 226.42632,456.069 C 222.93646,462.77812 219.90502,469.58893 218.00288,476.5716 C 217.29671,479.17845 217.50218,482.27645 214.39321,484.28873 L 199.8952,475.85426 z " />
    <path
       style="fill:#000000;fill-opacity:1;fill-rule:nonzero;stroke:none;stroke-width:1px;stroke-linecap:butt;stroke-linejoin:miter;stroke-opacity:1"
       id="path2567"
       d="M 185.17361,562.61791 C 187.10119,559.88261 189.45386,557.26832 191.74618,554.64925 C 197.51245,548.20447 203.64413,541.88946 209.83363,535.59787 L 225.00007,543.10734 C 218.82953,549.32712 212.83879,555.6219 207.61199,562.17416 C 205.86594,564.42991 203.38164,567.06017 203.21546,569.54154 L 185.17361,562.61791 z " />
    <path
       style="fill:#000000;fill-opacity:1;fill-rule:nonzero;stroke:none;stroke-width:1px;stroke-linecap:butt;stroke-linejoin:miter;stroke-opacity:1"
       id="path2569"
       d="M 156.54026,626.19136 C 157.7473,623.05635 158.17075,619.80646 158.71985,616.60088 C 159.29631,613.1591 159.77438,609.71012 160.22895,606.25971 L 177.50458,610.97326 C 177.04866,614.44913 176.59916,617.92537 176.15909,621.40226 C 175.75529,624.61497 175.16913,627.99503 175.05952,631.15034 L 156.54026,626.19136 z " />
    <path
       style="fill:#000000;fill-opacity:1;fill-rule:nonzero;stroke:none;stroke-width:1px;stroke-linecap:butt;stroke-linejoin:miter;stroke-opacity:1"
       id="path2571"
       d="M 189.4901,641.17687 C 190.70256,639.09934 191.97301,637.02539 193.29948,634.96812 C 194.61667,632.91723 195.97252,630.87459 197.33254,628.83278 L 214.00637,634.67373 C 212.68935,636.69726 211.4075,638.72824 210.22234,640.77857 C 209.36902,642.30907 207.67435,644.90592 208.01194,646.1366 L 189.4901,641.17687 z " />
    <path
       style="fill:#000000;fill-opacity:1;fill-rule:nonzero;stroke:none;stroke-width:1px;stroke-linecap:butt;stroke-linejoin:miter;stroke-opacity:1"
       id="path2573"
       d="M 149.73318,586.50502 C 151.5096,584.4272 153.48346,582.40381 155.4468,580.38412 C 160.53102,575.21255 165.8125,570.10982 170.98643,564.9695 L 186.79787,572.26537 C 181.50576,577.30214 176.22531,582.34896 171.52135,587.58848 C 170.43243,588.84595 167.43365,592.01811 167.97942,592.68389 L 149.73318,586.50502 z " />
    <path
       style="fill:#000000;fill-opacity:1;fill-rule:nonzero;stroke:none;stroke-width:1px;stroke-linecap:butt;stroke-linejoin:miter;stroke-opacity:1"
       id="path2575"
       d="M 201.25742,602.06039 C 202.43354,601.05793 203.5725,600.01913 204.76934,599.0238 C 206.84554,597.31906 209.13233,595.74738 211.42704,594.18255 L 225.54682,605.77412 C 223.39747,607.29805 221.25443,608.83085 219.49359,610.5951 C 218.82603,611.28798 217.21359,612.74472 217.51674,613.3415 L 201.25742,602.06039 z " />
  </g>
  <g
     inkscape:groupmode="layer"
     id="layer2"
     inkscape:label="1-crop">
    <rect
       style="opacity:1;color:#000000;fill:#ec9e2d;fill-opacity:0.08641974;fill-rule:nonzero;stroke:none;stroke-width:10;stroke-linecap:square;stroke-linejoin:miter;marker:none;marker-start:none;marker-mid:none;marker-end:none;stroke-miterlimit:4;stroke-dasharray:none;stroke-dashoffset:0;stroke-opacity:1;visibility:visible;display:inline;overflow:visible"
       id="rect3481"
       width="687.14288"
       height="725.71436"
       x="37.142857"
       y="138.07648" />
  </g>
</svg>
