<?xml version="1.0" encoding="UTF-8" standalone="no"?>
<!-- Created with Inkscape (http://www.inkscape.org/) -->
<svg
   xmlns:dc="http://purl.org/dc/elements/1.1/"
   xmlns:cc="http://web.resource.org/cc/"
   xmlns:rdf="http://www.w3.org/1999/02/22-rdf-syntax-ns#"
   xmlns:svg="http://www.w3.org/2000/svg"
   xmlns="http://www.w3.org/2000/svg"
   xmlns:xlink="http://www.w3.org/1999/xlink"
   xmlns:sodipodi="http://inkscape.sourceforge.net/DTD/sodipodi-0.dtd"
   xmlns:inkscape="http://www.inkscape.org/namespaces/inkscape"
   width="1000"
   height="1000"
   id="svg2"
   sodipodi:version="0.32"
   inkscape:version="0.43"
   sodipodi:docbase="/home/kkowal/tale/art/item"
   sodipodi:docname="cheezyz.svg"
   version="1.0">
  <defs
     id="defs4">
    <linearGradient
       inkscape:collect="always"
       id="linearGradient3462">
      <stop
         style="stop-color:#000000;stop-opacity:1;"
         offset="0"
         id="stop3464" />
      <stop
         style="stop-color:#000000;stop-opacity:0;"
         offset="1"
         id="stop3466" />
    </linearGradient>
    <linearGradient
       inkscape:collect="always"
       id="linearGradient3452">
      <stop
         style="stop-color:#000000;stop-opacity:1;"
         offset="0"
         id="stop3454" />
      <stop
         style="stop-color:#000000;stop-opacity:0;"
         offset="1"
         id="stop3456" />
    </linearGradient>
    <linearGradient
       inkscape:collect="always"
       xlink:href="#linearGradient3452"
       id="linearGradient3458"
       x1="354.30994"
       y1="559.40778"
       x2="334.3605"
       y2="292.72745"
       gradientUnits="userSpaceOnUse"
       gradientTransform="matrix(1.315369,0,0,1.345715,9.954622,-194.5197)" />
    <linearGradient
       inkscape:collect="always"
       xlink:href="#linearGradient3462"
       id="linearGradient3468"
       x1="294.96454"
       y1="824.06775"
       x2="586.89868"
       y2="576.58032"
       gradientUnits="userSpaceOnUse"
       gradientTransform="matrix(1.315369,0,0,1.345715,9.954622,-194.5197)" />
    <linearGradient
       inkscape:collect="always"
       xlink:href="#linearGradient3452"
       id="linearGradient3478"
       x1="501.03568"
       y1="549.30621"
       x2="352.54324"
       y2="614.96613"
       gradientUnits="userSpaceOnUse"
       gradientTransform="matrix(1.315369,0,0,1.345715,9.954622,-194.5197)" />
    <linearGradient
       inkscape:collect="always"
       xlink:href="#linearGradient3462"
       id="linearGradient1374"
       gradientUnits="userSpaceOnUse"
       gradientTransform="matrix(0.463919,0.474639,-0.263484,0.744729,212.496,-154.7017)"
       x1="294.96454"
       y1="824.06775"
       x2="586.89868"
       y2="576.58032" />
    <linearGradient
       inkscape:collect="always"
       xlink:href="#linearGradient3452"
       id="linearGradient1376"
       gradientUnits="userSpaceOnUse"
       gradientTransform="matrix(0.463919,0.474639,-0.263484,0.744729,212.496,-154.7017)"
       x1="501.03568"
       y1="549.30621"
       x2="352.54324"
       y2="614.96613" />
  </defs>
  <sodipodi:namedview
     id="base"
     pagecolor="#ffffff"
     bordercolor="#666666"
     borderopacity="1.0"
     inkscape:pageopacity="0.0"
     inkscape:pageshadow="2"
     inkscape:zoom="0.0875"
     inkscape:cx="-68.007211"
     inkscape:cy="2059.2147"
     inkscape:document-units="px"
     inkscape:current-layer="layer1"
     inkscape:window-width="1280"
     inkscape:window-height="913"
     inkscape:window-x="0"
     inkscape:window-y="25" />
  <metadata
     id="metadata7">
    <rdf:RDF>
      <cc:Work
         rdf:about="">
        <dc:format>image/svg+xml</dc:format>
        <dc:type
           rdf:resource="http://purl.org/dc/dcmitype/StillImage" />
      </cc:Work>
    </rdf:RDF>
  </metadata>
  <g
     inkscape:label="1"
     inkscape:groupmode="layer"
     id="layer1">
    <path
       style="opacity:1;color:#000000;fill:#ec9e2d;fill-opacity:1;fill-rule:nonzero;stroke:none;stroke-width:10;stroke-linecap:square;stroke-linejoin:miter;marker:none;marker-start:none;marker-mid:none;marker-end:none;stroke-miterlimit:4;stroke-dasharray:none;stroke-dashoffset:0;stroke-opacity:1;visibility:visible;display:inline;overflow:visible"
       d="M 152.57936,225.56278 C 123.91467,210.08826 89.284406,192.82275 83.084451,160.77599 C 82.775393,136.11542 117.71497,128.37149 139.74228,133.85044 C 168.48893,140.13904 197.99797,141.68764 227.60323,141.81596 C 255.44457,142.29014 285.36963,141.36611 310.1367,128.6347 C 321.28025,115.28991 306.71218,82.505007 338.34702,89.137106 C 364.18098,89.901943 390.48409,97.298691 416.09934,90.203801 C 437.35828,95.023828 452.14674,119.67777 476.53137,112.22132 C 504.29962,96.52687 534.72376,84.124158 564.32022,71.067953 C 588.72828,64.221266 618.86572,43.257184 642.87418,59.609488 C 662.78198,76.300778 660.01407,102.97598 673.65666,122.85974 C 687.0666,139.83671 692.38553,171.33026 659.84267,173.20502 C 622.69589,180.83784 585.94173,192.72266 547.3511,191.76157 C 495.57713,194.61483 443.91446,199.29806 392.11574,201.63376 C 359.56303,203.8561 328.31891,212.79791 296.90177,220.00538 C 268.79819,224.22015 240.76447,228.95063 213.19109,235.35558 C 192.30704,237.89121 171.37724,233.02941 152.57936,225.56278 z "
       id="path2489" />
    <path
       style="opacity:1;color:#000000;fill:#ec9e2d;fill-opacity:1;fill-rule:nonzero;stroke:none;stroke-width:10;stroke-linecap:square;stroke-linejoin:miter;marker:none;marker-start:none;marker-mid:none;marker-end:none;stroke-miterlimit:4;stroke-dasharray:none;stroke-dashoffset:0;stroke-opacity:1;visibility:visible;display:inline;overflow:visible"
       d="M 178.61046,219.1315 C 136.91723,212.21803 118.72819,262.10769 137.59485,288.70021 C 153.57993,339.17433 148.67857,399.25937 192.60246,439.28076 C 231.92114,471.62911 288.24867,478.7131 339.78936,484.69527 C 402.26026,489.50164 465.93267,488.10698 527.86326,478.22209 C 582.35461,464.09689 630.15962,435.55439 682.21184,416.07935 C 721.65862,397.81376 762.62855,381.77981 802.183,364.08103 C 832.83611,339.41863 823.66957,296.51372 801.88475,270.23196 C 778.71536,238.91247 751.30006,210.04514 724.83551,181.05526 C 688.59355,155.68018 638.51357,166.72722 598.68604,179.97798 C 534.71278,183.84403 482.65887,193.14809 422.71027,199.98567 C 341.7459,204.37201 260.66148,219.63823 179.60069,219.21417 L 178.61046,219.1315 z "
       id="path2466"
       sodipodi:nodetypes="ccccccccccccc" />
    <path
       sodipodi:nodetypes="ccccccccccccc"
       id="path3450"
       d="M 178.61046,219.1315 C 136.91723,212.21803 118.72819,262.10769 137.59485,288.70021 C 153.57993,339.17433 148.67857,399.25937 192.60246,439.28076 C 231.92114,471.62911 288.24867,478.7131 339.78936,484.69527 C 402.26026,489.50164 465.93267,488.10698 527.86326,478.22209 C 582.35461,464.09689 630.15962,435.55439 682.21184,416.07935 C 721.65862,397.81376 762.62855,381.77981 802.183,364.08103 C 832.83611,339.41863 823.66957,296.51372 801.88475,270.23196 C 778.71536,238.91247 751.30006,210.04514 724.83551,181.05526 C 688.59355,155.68018 638.51357,166.72722 598.68604,179.97798 C 534.71278,183.84403 482.65887,193.14809 422.71027,199.98567 C 341.7459,204.37201 260.66148,219.63823 179.60069,219.21417 L 178.61046,219.1315 z "
       style="opacity:1;color:#000000;fill:url(#linearGradient3458);fill-opacity:1;fill-rule:nonzero;stroke:none;stroke-width:10;stroke-linecap:square;stroke-linejoin:miter;marker:none;marker-start:none;marker-mid:none;marker-end:none;stroke-miterlimit:4;stroke-dasharray:none;stroke-dashoffset:0;stroke-opacity:1;visibility:visible;display:inline;overflow:visible" />
    <path
       style="opacity:1;color:#000000;fill:#ec9e2d;fill-opacity:1;fill-rule:nonzero;stroke:none;stroke-width:10;stroke-linecap:square;stroke-linejoin:miter;marker:none;marker-start:none;marker-mid:none;marker-end:none;stroke-miterlimit:4;stroke-dasharray:none;stroke-dashoffset:0;stroke-opacity:1;visibility:visible;display:inline;overflow:visible"
       d="M 150.37643,224.12808 C 143.00759,333.06894 177.17195,439.67044 172.9533,548.53896 C 177.25316,631.42242 180.00053,714.6306 172.4389,797.59157 C 180.2897,839.23908 234.38333,846.5391 271.42331,859.84912 C 319.04509,877.5553 363.3459,901.88554 402.39775,931.60477 C 431.67311,945.73413 495.39468,895.26418 540.30403,879.69457 C 615.9219,850.07033 699.93439,844.8642 781.75899,852.09483 C 833.43786,839.33019 830.72336,783.47396 832.16389,745.77924 C 837.05934,631.19827 824.83805,515.23964 852.54985,401.94626 C 881.4943,372.98857 873.14601,302.48981 816.78444,314.20265 C 768.00569,321.44374 720.82726,337.09152 671.07289,338.54297 C 578.51346,349.71966 486.96295,367.68149 393.95233,375.66738 C 332.85708,367.7079 307.79813,309.66312 256.22706,286.58106 C 222.31558,264.27491 194.58719,230.97483 150.37643,224.12808 z "
       id="path2386"
       sodipodi:nodetypes="cccccccccccccc" />
    <path
       style="opacity:1;color:#000000;fill:#ec9e2d;fill-opacity:1;fill-rule:nonzero;stroke:none;stroke-width:10;stroke-linecap:square;stroke-linejoin:miter;marker:none;marker-start:none;marker-mid:none;marker-end:none;stroke-miterlimit:4;stroke-dasharray:none;stroke-dashoffset:0;stroke-opacity:1;visibility:visible;display:inline;overflow:visible"
       d="M 513.63021,709.80004 C 524.2709,729.01769 538.14467,747.45336 542.01482,769.03542 C 569.30889,800.99928 630.81531,800.88802 659.95242,769.84147 C 689.42331,748.96297 722.10786,727.31004 744.69128,699.99226 C 761.63159,671.84398 771.61775,644.01913 789.90009,616.44311 C 802.21408,585.46887 796.24657,549.32155 773.56685,523.65457 C 779.32451,508.66339 763.06132,485.61107 746.64417,495.00462 C 734.99896,503.95343 738.1982,522.57706 742.58698,532.91706 C 750.17602,550.66378 738.02216,569.39158 727.17406,584.14146 C 713.20668,600.60529 699.44001,617.17107 686.19923,634.08021 C 658.04481,667.31999 624.67951,701.06729 578.81048,714.54049 C 561.27373,718.2434 542.04385,716.56255 526.56541,708.43773 C 522.32503,707.3497 517.44157,707.59744 513.63021,709.80004 z "
       id="path2301"
       sodipodi:nodetypes="ccccccccccccc" />
    <path
       sodipodi:nodetypes="ccccccccccccc"
       id="path3460"
       d="M 513.63021,709.80004 C 524.2709,729.01769 538.14467,747.45336 542.01482,769.03542 C 569.30889,800.99928 630.81531,800.88802 659.95242,769.84147 C 689.42331,748.96297 722.10786,727.31004 744.69128,699.99226 C 761.63159,671.84398 771.61775,644.01913 789.90009,616.44311 C 802.21408,585.46887 796.24657,549.32155 773.56685,523.65457 C 779.32451,508.66339 763.06132,485.61107 746.64417,495.00462 C 734.99896,503.95343 738.1982,522.57706 742.58698,532.91706 C 750.17602,550.66378 738.02216,569.39158 727.17406,584.14146 C 713.20668,600.60529 699.44001,617.17107 686.19923,634.08021 C 658.04481,667.31999 624.67951,701.06729 578.81048,714.54049 C 561.27373,718.2434 542.04385,716.56255 526.56541,708.43773 C 522.32503,707.3497 517.44157,707.59744 513.63021,709.80004 z "
       style="opacity:1;color:#000000;fill:url(#linearGradient3468);fill-opacity:1;fill-rule:nonzero;stroke:none;stroke-width:10;stroke-linecap:square;stroke-linejoin:miter;marker:none;marker-start:none;marker-mid:none;marker-end:none;stroke-miterlimit:4;stroke-dasharray:none;stroke-dashoffset:0;stroke-opacity:1;visibility:visible;display:inline;overflow:visible" />
    <path
       style="fill:#000000;fill-opacity:1;fill-rule:nonzero;stroke:none;stroke-width:1px;stroke-linecap:butt;stroke-linejoin:miter;stroke-opacity:1"
       id="path1379"
       d="M 516.44495,656.2235 C 516.66384,647.1491 518.08418,638.18633 520.01062,629.26141 C 527.32821,595.85057 543.39253,564.70752 565.4396,536.91736 C 595.15444,499.19572 637.33503,471.06431 689.30946,465.65299 C 730.87052,463.02865 764.30225,484.49489 785.24555,514.71187 C 809.1209,553.1147 801.68912,597.21305 785.62136,637.21878 C 761.9653,689.43027 722.7065,736.17832 674.00568,772.04195 C 645.72273,791.40915 611.22442,811.14162 574.33849,805.13558 C 547.01672,798.85354 531.20986,777.43677 524.28122,754.26607 C 522.8986,749.45117 522.28131,744.5111 521.69358,739.57299 L 547.10823,725.13281 C 547.32077,729.5644 547.56801,733.9974 548.51486,738.35607 C 552.95248,757.308 564.40705,776.47036 587.22547,780.88544 C 620.4123,784.70183 651.16267,764.33742 676.11257,747.16651 C 723.40694,711.02165 730.31234,699.59489 759.9626,646.42847 C 775.77278,609.84599 785.18253,568.78024 764.30229,532.61823 C 746.40798,505.55518 717.11717,486.40211 680.23797,490.18408 C 654.80736,493.73617 631.271,503.29894 610.84889,517.49726 C 598.65653,525.9739 577.66184,552.91166 585.0953,540.0106 C 587.14425,536.45457 590.38821,533.54871 593.03464,530.31776 C 570.81694,556.16853 554.18501,585.4908 547.04945,617.49719 C 545.33671,625.45719 543.5241,633.57621 544.13237,641.69021 L 516.44495,656.2235 z " />
    <path
       style="fill:#000000;fill-opacity:1;fill-rule:nonzero;stroke:none;stroke-width:1px;stroke-linecap:butt;stroke-linejoin:miter;stroke-opacity:1"
       id="path1329"
       d="M 163.86526,211.39836 C 175.45103,212.16401 187.21188,211.01256 198.79549,210.15988 C 251.10595,205.6647 303.2052,199.15149 355.31074,192.93911 C 424.17539,184.84459 492.88171,175.64457 561.55837,166.28485 C 602.75467,160.92526 643.80787,154.54682 685.06903,149.61452 C 704.67094,145.78059 716.33519,154.31344 728.65195,166.3829 C 752.36249,190.69783 774.89893,215.88805 797.87217,240.74681 C 821.0112,265.79499 844.70129,290.44091 869.21829,314.44265 C 870.32553,315.5207 871.43274,316.59875 872.53998,317.6768 L 850.70552,339.0213 C 849.63108,337.901 848.55663,336.7807 847.48217,335.6604 C 823.71812,310.84453 800.19876,285.84815 776.87606,260.70629 C 754.03452,236.1714 731.45557,211.39489 707.04222,188.05635 C 696.55241,178.45986 690.28195,174.13843 674.60889,176.91016 C 633.81383,180.54598 593.20223,185.83116 552.56947,190.75708 C 483.80703,199.42516 415.15088,208.81435 346.32156,217.02271 C 293.61605,223.51626 241.03129,230.8316 188.28247,237.00834 C 183.46808,237.52567 155.66706,238.17939 162.58495,241.62162 L 163.86526,211.39836 z " />
    <path
       style="opacity:1;color:#000000;fill:#ec9e2d;fill-opacity:1;fill-rule:nonzero;stroke:none;stroke-width:10;stroke-linecap:square;stroke-linejoin:miter;marker:none;marker-start:none;marker-mid:none;marker-end:none;stroke-miterlimit:4;stroke-dasharray:none;stroke-dashoffset:0;stroke-opacity:1;visibility:visible;display:inline;overflow:visible"
       d="M 410.01082,374.92071 C 432.76563,348.96169 478.39654,345.02827 493.44997,312.83265 C 508.51498,290.79812 531.3349,266.87781 563.15123,267.79078 C 615.53136,262.75361 662.98483,238.20103 715.59836,234.13964 C 761.89819,227.5149 807.73072,217.95674 853.03204,207.38395 C 877.50333,205.79989 900.02772,193.09857 924.89532,194.91867 C 945.69865,207.13973 932.9369,233.20293 917.38872,244.9434 C 897.46298,266.67059 899.66392,324.74339 852.14371,317.92472 C 836.0309,336.23788 825.84224,330.53996 803.23721,329.7732 C 767.25333,327.6134 731.22167,332.1983 695.21381,333.19252 C 644.52824,335.46532 594.95759,338.46682 548.28371,357.1757 C 510.8863,371.15397 470.40068,381.6033 429.42658,381.07878 C 420.17191,380.42023 412.08026,382.94604 410.01082,374.92071 z "
       id="path2498"
       sodipodi:nodetypes="ccccccccccccc" />
    <path
       style="fill:#000000;fill-opacity:1;fill-rule:nonzero;stroke:none;stroke-width:1px;stroke-linecap:butt;stroke-linejoin:miter;stroke-opacity:1"
       id="path1335"
       d="M 157.95622,205.69397 C 154.60123,203.1974 172.61816,213.29522 175.44124,214.84119 C 207.29419,232.33028 237.96528,251.38438 267.27027,272.01907 C 300.57306,295.6789 331.8075,321.49174 361.60722,348.51377 C 381.87256,371.18005 403.94014,371.55731 434.56422,366.8548 C 491.6441,355.94419 548.11533,342.64052 605.35468,332.36105 C 666.21154,321.54557 727.76788,314.20867 789.56108,310.20211 C 814.7978,308.62674 860.16827,306.7199 885.43538,306.97977 L 853.29183,334.34649 C 828.63053,333.61603 803.92547,333.99982 779.25995,335.29355 C 718.12236,338.64262 657.2208,345.75455 597.11376,356.77915 C 539.47257,367.42844 482.73919,381.47926 425.32869,393.00726 C 390.55662,398.45765 363.09699,395.32751 340.7237,369.62587 C 312.0969,342.31552 281.4957,316.61172 248.49007,293.42487 C 219.54622,273.2717 189.19201,254.63798 156.9525,238.74411 C 149.92842,235.3676 142.17799,232.36272 135.55028,228.85825 L 157.95622,205.69397 z "
       sodipodi:nodetypes="ccccccccccccccccc" />
    <path
       style="opacity:1;color:#000000;fill:#ec9e2d;fill-opacity:1;fill-rule:nonzero;stroke:none;stroke-width:10;stroke-linecap:square;stroke-linejoin:miter;marker:none;marker-start:none;marker-mid:none;marker-end:none;stroke-miterlimit:4;stroke-dasharray:none;stroke-dashoffset:0;stroke-opacity:1;visibility:visible;display:inline;overflow:visible"
       d="M 487.59475,568.23904 C 508.33655,558.53671 531.64516,554.61226 552.88534,545.97078 C 574.01766,539.74905 598.1973,540.56307 616.63134,528.04259 C 624.20027,523.52148 633.25256,518.15732 642.71127,520.31094 C 652.90152,524.71321 652.65969,536.10801 657.98576,543.76974 C 666.63823,559.93266 678.42146,575.32866 681.21555,593.46698 C 680.1024,602.67979 667.9695,603.88787 660.10095,606.56058 C 647.36799,611.64835 634.4047,616.31216 620.77655,619.10242 C 595.05682,625.06669 568.48858,628.33263 543.5828,636.94736 C 536.01243,642.35408 522.42717,646.39155 515.65247,638.2054 C 508.47987,630.2269 504.17021,619.599 506.57619,609.30108 C 504.61445,594.18765 492.4276,582.47789 487.59475,568.23904 z "
       id="path1381" />
    <path
       style="fill:#000000;fill-opacity:1;fill-rule:nonzero;stroke:none;stroke-width:1px;stroke-linecap:butt;stroke-linejoin:miter;stroke-opacity:1"
       id="path1347"
       d="M 140.42346,233.49617 C 171.44752,238.54034 159.15198,190.5593 160.37843,234.11385 C 163.29746,285.68413 168.93179,337.07578 173.63494,388.515 C 180.6889,466.65418 187.14475,544.86985 190.56107,623.25483 C 192.21118,672.7473 193.28453,722.55433 186.57776,771.92482 C 184.60156,777.27418 184.19974,809.20283 174.75868,799.97468 C 191.01983,804.07351 212.33592,811.79099 229.49309,818.45365 C 267.43413,833.52011 303.99556,851.06493 339.89568,869.51816 C 366.11251,882.9973 391.70623,897.38019 416.69601,912.54026 C 427.03983,918.08489 429.3935,924.59415 435.19002,916.03542 C 457.34483,898.12051 484.65368,886.26778 511.96856,875.9179 C 562.26889,857.69648 615.22734,846.13021 668.51183,837.74579 C 707.24577,832.01517 746.49333,828.63544 785.68876,829.34373 C 823.53356,832.72834 822.5637,819.30648 804.74669,840.02209 C 817.62777,800.6478 815.44888,757.50647 816.6662,716.88915 C 818.15444,660.19383 818.46293,603.49491 820.72842,546.80603 C 822.366,509.395 824.50409,471.92321 830.61239,434.78421 C 833.88629,414.2753 839.4059,394.11511 844.57693,373.9141 C 847.19976,364.15004 849.24228,354.29954 850.41513,344.33949 C 850.95202,338.245 851.02683,332.13239 851.17483,326.02898 C 851.20251,325.63039 851.23018,325.23181 851.25787,324.83322 L 881.21966,310.68158 C 881.16151,311.03227 881.10339,311.38298 881.04527,311.73368 C 880.14318,317.77115 880.3074,323.85496 879.98799,329.92429 C 879.29607,340.58695 877.42951,351.14144 874.49146,361.53852 C 869.19215,381.7174 862.93757,401.72709 859.01114,422.15462 C 851.70186,459.07955 849.00396,496.48453 846.6812,533.80525 C 843.50817,590.53789 842.84347,647.30765 841.77009,704.06582 C 840.89373,745.8392 841.42814,787.91737 835.54807,829.4782 C 827.00363,864.77109 800.99247,857.32841 773.45944,855.72876 C 735.37648,854.53784 697.19514,857.58081 659.54195,863.18662 C 607.09158,871.31375 554.95393,883.03627 506.05538,902.30564 C 479.22968,913.4341 453.87051,926.78913 432.79308,945.46153 C 418.94418,952.60139 407.90661,943.1842 397.14237,935.86285 C 373.05705,920.20338 348.03419,905.68204 322.31938,892.16365 C 287.05552,873.7053 250.88464,856.4422 213.07279,842.27159 C 193.26391,835.07699 172.46464,830.0378 152.76506,823.05469 C 140.57337,812.58151 157.99514,797.73097 158.2826,784.66189 C 168.10497,735.59024 167.4589,685.53761 166.82431,636.03194 C 164.60454,557.7116 158.36167,479.57239 150.48737,401.62339 C 145.24889,350.77309 138.7667,300.05663 132.88468,249.2726 C 131.5822,236.43427 123.71311,200.91101 152.97473,205.20342 L 140.42346,233.49617 z " />
    <path
       id="path3470"
       d="M 487.59475,568.23904 C 508.33655,558.53671 531.64516,554.61226 552.88534,545.97078 C 574.01766,539.74905 598.1973,540.56307 616.63134,528.04259 C 624.20027,523.52148 633.25256,518.15732 642.71127,520.31094 C 652.90152,524.71321 652.65969,536.10801 657.98576,543.76974 C 666.63823,559.93266 678.42146,575.32866 681.21555,593.46698 C 680.1024,602.67979 667.9695,603.88787 660.10095,606.56058 C 647.36799,611.64835 634.4047,616.31216 620.77655,619.10242 C 595.05682,625.06669 568.48858,628.33263 543.5828,636.94736 C 536.01243,642.35408 522.42717,646.39155 515.65247,638.2054 C 508.47987,630.2269 504.17021,619.599 506.57619,609.30108 C 504.61445,594.18765 492.4276,582.47789 487.59475,568.23904 z "
       style="opacity:1;color:#000000;fill:url(#linearGradient3478);fill-opacity:1;fill-rule:nonzero;stroke:none;stroke-width:10;stroke-linecap:square;stroke-linejoin:miter;marker:none;marker-start:none;marker-mid:none;marker-end:none;stroke-miterlimit:4;stroke-dasharray:none;stroke-dashoffset:0;stroke-opacity:1;visibility:visible;display:inline;overflow:visible" />
    <path
       style="opacity:1;color:#000000;fill:#ec9e2d;fill-opacity:1;fill-rule:nonzero;stroke:none;stroke-width:10;stroke-linecap:square;stroke-linejoin:miter;marker:none;marker-start:none;marker-mid:none;marker-end:none;stroke-miterlimit:4;stroke-dasharray:none;stroke-dashoffset:0;stroke-opacity:1;visibility:visible;display:inline;overflow:visible"
       d="M 487.60304,567.19681 C 531.49702,564.77719 569.76522,543.12665 610.97155,531.63042 C 616.9266,509.29978 653.7492,539.50054 629.07753,546.45612 C 600.01445,567.42503 578.88975,596.11073 546.80821,614.00263 C 528.03961,625.88918 506.49573,633.96201 487.75728,645.73893 C 472.76683,658.80364 477.73178,680.75284 492.04113,692.19756 C 518.08034,717.87662 563.19585,726.62368 599.34029,711.98643 C 631.98836,700.31373 653.58854,674.28318 672.1741,649.10028 C 696.40707,620.69621 722.94375,592.68442 735.98326,558.55858 C 751.12067,522.26503 754.48072,478.61477 729.80399,445.4419 C 701.91932,408.34354 641.61295,394.2465 596.08364,415.26054 C 550.94193,434.63341 524.29474,474.46879 502.95492,512.69365 C 495.1722,527.51782 483.49138,541.90816 482.49386,558.60868 C 482.91455,561.78434 483.82641,565.92312 487.60304,567.19681 z "
       id="path2268" />
    <path
       style="fill:#000000;fill-opacity:1;fill-rule:nonzero;stroke:none;stroke-width:1px;stroke-linecap:butt;stroke-linejoin:miter;stroke-opacity:1"
       id="path1353"
       d="M 474.45913,583.20205 C 474.67802,574.12765 476.09834,565.16485 478.02479,556.23995 C 485.34237,522.8291 501.4067,491.68606 523.45378,463.8959 C 553.16861,426.17427 595.34923,398.04286 647.32362,392.63152 C 688.88468,390.00719 722.31644,411.47344 743.25971,441.69041 C 767.13507,480.09325 759.70329,524.19158 743.63552,564.19731 C 719.97948,616.40882 680.72067,663.15685 632.01984,699.0205 C 603.73689,718.38769 569.23859,738.12016 532.35267,732.1141 C 505.0309,725.83209 489.22403,704.41531 482.2954,681.24459 C 480.91276,676.42972 480.29548,671.48964 479.70774,666.55154 L 505.12242,652.11134 C 505.33494,656.54293 505.58218,660.97593 506.52902,665.33461 C 510.96665,684.28654 522.42121,703.44891 545.23966,707.86398 C 578.42647,711.68036 609.17684,691.31596 634.12675,674.14504 C 681.42112,638.00019 688.32653,626.57343 717.97677,573.40699 C 733.78697,536.82453 743.19669,495.75877 722.31646,459.59678 C 704.42214,432.53373 675.13133,413.38064 638.25213,417.16261 C 612.82153,420.71471 589.28516,430.27748 568.86307,444.47579 C 556.6707,452.95244 535.676,479.89021 543.10947,466.98914 C 545.15842,463.43311 548.40237,460.52726 551.04881,457.2963 C 528.83111,483.14708 512.19919,512.46934 505.06362,544.47573 C 503.35088,552.43574 501.53828,560.55474 502.14656,568.66876 L 474.45913,583.20205 z " />
    <path
       style="fill:#000000;fill-opacity:1;fill-rule:nonzero;stroke:none;stroke-width:1px;stroke-linecap:butt;stroke-linejoin:miter;stroke-opacity:1"
       id="path1355"
       d="M 488.68526,559.70484 C 484.51774,558.66793 493.37423,556.51781 495.22177,555.82523 C 511.54715,549.75759 527.88212,543.70952 544.20849,537.6431 C 570.95548,527.62266 597.73077,517.65695 624.86106,508.51645 C 640.58217,504.65634 666.85023,487.92609 677.97395,505.00999 C 673.53646,529.62352 633.14512,555.81931 613.09618,572.9266 C 584.64421,597.39432 555.24969,620.98426 524.47809,643.09561 C 505.7703,656.317 486.53595,669.04085 465.86225,679.68816 L 470.43528,652.65006 C 490.29021,642.22511 508.8937,629.99159 526.92793,617.20166 C 557.39285,595.24261 586.43796,571.76058 614.39288,547.27736 C 623.58872,539.25133 678.04587,481.36117 646.03452,520.64969 C 645.92006,520.79014 650.4293,516.61352 650.50335,519.16931 C 651.06035,519.62359 656.85406,522.95126 657.00266,523.3581 C 657.14481,523.74731 618.11368,532.48962 618.29024,534.45015 C 591.23674,543.47819 564.63507,553.55185 538.13066,563.82307 C 521.71952,570.15693 505.30647,576.49473 489.09365,583.23744 C 485.14093,584.88921 481.339,587.32161 476.99103,586.38609 L 488.68526,559.70484 z " />
    <path
       style="fill:#000000;fill-opacity:1;fill-rule:nonzero;stroke:none;stroke-width:1px;stroke-linecap:butt;stroke-linejoin:miter;stroke-opacity:1"
       id="path1373"
       d="M 497.634,567.01934 C 501.20378,570.95537 505.24925,577.06869 508.63965,581.98513 C 516.89668,594.0584 524.7664,606.34075 533.06003,618.39368 L 510.73403,637.55001 C 502.61316,625.46903 494.85922,613.18535 486.37353,601.30628 C 483.29088,597.08432 480.13981,592.89675 476.76346,588.86017 L 497.634,567.01934 z " />
    <path
       style="fill:#000000;fill-opacity:1;fill-rule:nonzero;stroke:none;stroke-width:1px;stroke-linecap:butt;stroke-linejoin:miter;stroke-opacity:1"
       id="path1375"
       d="M 501.45663,655.20734 C 498.91383,654.61291 503.78846,662.68518 504.8414,664.83474 C 512.06517,679.26912 519.44051,693.64283 527.11247,707.88717 C 537.07819,726.21224 547.21103,744.46244 557.24928,762.75509 C 560.70788,769.05195 564.14639,775.35763 567.55756,781.67555 L 544.09908,799.91855 C 540.92106,793.5128 537.70706,787.12221 534.36373,780.78523 C 524.68241,762.34398 514.65403,744.0562 504.47618,725.83497 C 496.6127,711.68876 489.109,697.38183 481.26402,683.2272 C 478.78711,678.72152 476.43927,674.15063 473.7731,669.73859 L 501.45663,655.20734 z " />
    <path
       style="fill:#000000;fill-opacity:1;fill-rule:nonzero;stroke:none;stroke-width:1px;stroke-linecap:butt;stroke-linejoin:miter;stroke-opacity:1"
       id="path1377"
       d="M 741.90249,432.43588 C 738.76427,430.89349 745.39791,441.84984 746.52282,444.1162 C 754.59646,460.06027 763.65249,475.57799 772.6887,491.08857 C 781.43803,505.90901 790.26151,520.69493 799.24769,535.39976 C 800.66901,537.73426 802.11635,540.05574 803.55558,542.38126 L 780.69286,561.15205 C 779.28938,558.78176 777.88268,556.41298 776.49051,554.03725 C 767.68026,539.1423 758.96733,524.20085 750.21825,509.27654 C 741.1625,493.68302 731.99213,478.14231 723.17699,462.43611 C 720.27642,457.24371 717.55801,451.94351 714.21508,446.96917 L 741.90249,432.43588 z " />
    <path
       style="fill:#000000;fill-opacity:1;fill-rule:nonzero;stroke:none;stroke-width:1px;stroke-linecap:butt;stroke-linejoin:miter;stroke-opacity:1"
       id="path2458"
       d="M 151.03564,235.50797 C 145.3985,233.1172 140.45197,229.6362 135.58471,226.21584 C 123.32049,217.14957 112.82931,206.44195 102.58364,195.64917 C 94.684737,187.26566 87.24053,178.53795 81.666596,168.76747 C 71.023179,152.96954 84.751929,133.42796 105.81951,132.56885 C 127.28252,132.81844 148.69685,134.07874 170.16505,134.32787 C 204.15968,134.66637 238.18486,132.55846 271.921,128.41861 C 308.14287,127.81742 327.23119,98.800536 299.92048,131.6578 C 305.39669,127.04524 297.35896,120.17092 293.48888,115.5685 C 280.68578,103.73807 273.86793,77.111692 304.84145,75.835914 C 322.07491,76.780593 339.16998,78.939079 356.35124,80.366182 C 378.21139,81.955027 400.405,82.578483 422.2106,79.45041 C 434.48076,77.852871 446.41638,70.113437 457.10967,78.0791 C 463.99591,85.314496 457.46596,92.064561 452.88349,98.780727 C 445.01075,102.85079 453.36239,99.518582 460.20681,98.591708 C 487.86344,93.602269 514.46885,84.751247 540.89039,76.016482 C 566.99793,67.398148 592.83893,58.134329 619.02639,49.710801 C 631.1564,45.96569 643.99273,40.686667 656.29607,45.640916 C 665.298,51.137958 665.82656,60.653817 667.35988,69.489308 C 669.01776,81.481578 672.80395,93.008364 677.50855,104.27465 C 682.15404,115.03436 688.20491,125.23623 694.95629,135.04835 C 698.92054,140.79706 703.67281,145.95238 709.75922,149.99051 C 710.61688,150.56424 711.61615,150.93337 712.54203,151.40347 L 693.65964,176.35406 C 692.31909,175.61376 690.89713,174.97985 689.63434,174.13118 C 682.10696,168.99947 675.79958,162.88971 670.8417,155.66727 C 663.54904,145.25283 657.10273,134.36497 651.90856,122.9834 C 646.61031,111.10801 641.96152,98.966543 639.70914,86.280275 C 638.83351,81.74449 636.56058,74.419967 637.80552,70.906857 C 629.7167,72.756031 619.91897,75.037515 611.58464,77.838836 C 585.52445,85.893207 559.78476,94.754766 533.88519,103.21063 C 506.43904,112.19595 478.79342,121.52271 449.99081,126.25023 C 436.42804,127.73446 417.93516,124.87553 421.20481,109.17278 C 423.22422,104.3049 426.85234,92.728523 433.08688,99.711827 C 444.37224,106.04616 417.29591,105.03153 411.84564,107.00338 C 388.99917,109.09021 366.01403,108.3885 343.23219,106.62906 C 327.92785,105.42918 311.24911,102.44507 296.24566,104.77329 C 315.77223,83.618007 305.52793,78.527411 316.83528,94.193952 C 323.95546,102.61498 332.08161,111.17043 331.94541,122.28925 C 311.46259,147.78617 296.61815,153.02772 261.80218,155.11441 C 227.43235,158.57035 192.88119,160.51326 158.33924,160.46321 C 137.44623,160.40316 116.34664,158.92101 95.536083,160.82768 C 121.91678,131.5628 104.95677,139.67122 107.44786,149.42215 C 111.68079,158.55748 118.14748,166.55117 125.16786,174.18264 C 134.61118,184.38349 144.32968,194.53381 156.10509,202.72097 C 157.77571,203.80273 171.52023,211.39641 163.5869,207.21522 L 151.03564,235.50797 z " />
    <path
       style="fill:#000000;fill-opacity:1;fill-rule:nonzero;stroke:none;stroke-width:1px;stroke-linecap:butt;stroke-linejoin:miter;stroke-opacity:1"
       id="path2464"
       d="M 386.72585,367.22774 C 381.8333,365.64471 395.33612,361.75248 398.19507,360.42272 C 420.97213,349.58752 442.2308,336.38323 462.56334,322.26764 C 482.79547,309.47551 498.33843,292.24405 516.09718,277.12844 C 531.95275,263.44827 552.96912,256.79742 573.66514,251.18186 C 609.91363,242.258 646.85796,235.93007 683.57152,228.82715 C 720.71888,221.65453 757.70155,213.81089 794.69325,206.00891 C 819.50513,200.89335 844.321,195.75968 869.26445,191.19795 C 886.57435,188.06944 903.90247,185.03249 921.1241,181.51615 C 935.81732,177.55924 950.9974,177.35359 954.33282,193.02256 C 952.06227,208.76662 942.34032,223.20047 934.55965,237.39555 C 926.32718,252.46099 917.67104,267.34383 908.81866,282.13749 C 900.08371,298.57983 887.79961,312.24593 875.18058,326.60464 C 872.38357,329.55299 868.79096,331.61479 865.18555,333.67746 L 868.48994,303.96284 C 870.79587,301.69978 873.1261,299.46097 875.11384,296.95572 C 846.12629,330.40333 870.53803,303.84747 877.36737,291.35108 C 886.57517,276.75756 895.39092,261.9797 903.76592,247.00721 C 911.08971,233.88488 918.27487,220.69039 924.6631,207.19921 C 935.12819,204.85289 915.3805,209.06406 911.93428,209.5237 C 894.61506,212.81856 877.25635,215.93611 859.87423,218.94069 C 835.19538,223.33298 810.55683,227.92101 786.00704,232.88223 C 748.99305,240.41143 711.9771,247.93476 674.87425,255.09445 C 638.41346,262.13663 601.63807,268.45891 566.05955,278.69312 C 546.91373,284.72626 528.63699,292.28405 514.87342,306.0066 C 497.61252,321.85413 479.73778,337.18731 459.59221,350.20858 C 438.25749,364.43519 416.17808,377.8726 392.77157,389.28516 C 387.10414,391.98406 380.66155,396.49196 374.17283,395.52449 L 386.72585,367.22774 z " />
    <path
       sodipodi:nodetypes="ccccccccccccc"
       id="path1352"
       d="M 213.07682,527.50236 C 213.06698,541.97715 214.35053,557.18581 211.48984,570.526 C 214.85787,598.06385 236.57245,620.1963 252.92762,613.52877 C 267.40966,612.60874 283.17676,612.41977 296.49043,605.45092 C 307.97642,595.98621 316.94642,584.19114 328.79369,575.52737 C 339.20134,562.82939 344.17411,540.67187 341.20064,518.28381 C 346.1665,512.06516 344.94415,493.43942 337.31475,492.7139 C 331.45545,493.46418 328.93738,504.92504 328.46074,512.23092 C 327.66261,524.79053 319.70924,530.76903 312.99526,535.01729 C 304.84554,539.0885 296.74666,543.28855 288.76602,547.86838 C 272.32801,556.10426 253.9528,562.74071 235.1372,553.64546 C 228.22712,549.36671 221.77401,541.49759 217.90569,531.416 C 216.62318,529.28377 214.85232,527.65872 213.07682,527.50236 z "
       style="opacity:1;color:#000000;fill:#ec9e2d;fill-opacity:1;fill-rule:nonzero;stroke:none;stroke-width:10;stroke-linecap:square;stroke-linejoin:miter;marker:none;marker-start:none;marker-mid:none;marker-end:none;stroke-miterlimit:4;stroke-dasharray:none;stroke-dashoffset:0;stroke-opacity:1;visibility:visible;display:inline;overflow:visible" />
    <path
       style="opacity:1;color:#000000;fill:url(#linearGradient1374);fill-opacity:1;fill-rule:nonzero;stroke:none;stroke-width:10;stroke-linecap:square;stroke-linejoin:miter;marker:none;marker-start:none;marker-mid:none;marker-end:none;stroke-miterlimit:4;stroke-dasharray:none;stroke-dashoffset:0;stroke-opacity:1;visibility:visible;display:inline;overflow:visible"
       d="M 213.07682,527.50236 C 213.06698,541.97715 214.35053,557.18581 211.48984,570.526 C 214.85787,598.06385 236.57245,620.1963 252.92762,613.52877 C 267.40966,612.60874 283.17676,612.41977 296.49043,605.45092 C 307.97642,595.98621 316.94642,584.19114 328.79369,575.52737 C 339.20134,562.82939 344.17411,540.67187 341.20064,518.28381 C 346.1665,512.06516 344.94415,493.43942 337.31475,492.7139 C 331.45545,493.46418 328.93738,504.92504 328.46074,512.23092 C 327.66261,524.79053 319.70924,530.76903 312.99526,535.01729 C 304.84554,539.0885 296.74666,543.28855 288.76602,547.86838 C 272.32801,556.10426 253.9528,562.74071 235.1372,553.64546 C 228.22712,549.36671 221.77401,541.49759 217.90569,531.416 C 216.62318,529.28377 214.85232,527.65872 213.07682,527.50236 z "
       id="path1354"
       sodipodi:nodetypes="ccccccccccccc" />
    <path
       d="M 224.55957,498.86838 C 226.4135,493.92552 228.6693,489.47797 231.0962,485.23399 C 240.21872,469.38466 251.98213,457.94653 265.19912,450.52273 C 283.065,440.36961 303.44973,440.02196 322.84018,455.78178 C 338.01224,469.32638 345.60035,493.26949 347.07055,517.54899 C 347.9721,547.41661 336.71673,569.13928 323.21685,585.48085 C 304.65081,605.83901 281.65153,617.54356 257.45324,619.81751 C 243.68608,620.32983 227.6553,618.80153 215.8219,602.16779 C 207.41574,588.83246 206.03408,571.27649 208.12712,555.95352 C 208.58221,552.79001 209.33174,549.83339 210.09131,546.88853 L 221.88216,548.06787 C 221.08943,550.59703 220.30868,553.13951 219.78922,555.89329 C 217.64363,567.9827 217.93167,582.72058 225.11509,593.39773 C 236.07257,607.48491 250.90521,607.31108 263.06681,606.81152 C 286.82412,603.87441 291.4969,600.04251 312.36401,581.31884 C 325.1028,566.77877 336.462,547.44809 336.17805,519.90132 C 335.1657,498.46743 328.58515,477.29866 314.83768,466.08411 C 305.17304,458.87347 294.99961,455.67269 285.01695,456.16102 C 279.05712,456.45256 266.37819,463.78437 271.52587,459.32712 C 272.94478,458.09853 274.65785,457.66097 276.22382,456.82787 C 263.32637,463.11683 251.71928,473.34252 242.93594,488.48029 C 240.77334,492.26739 238.54439,496.10646 237.17024,500.81629 L 224.55957,498.86838 z "
       id="path1356"
       style="fill:#000000;fill-opacity:1;fill-rule:nonzero;stroke:none;stroke-width:1px;stroke-linecap:butt;stroke-linejoin:miter;stroke-opacity:1" />
    <path
       id="path1358"
       d="M 231.61127,439.76678 C 240.8264,441.88193 249.81553,448.1208 258.99872,451.00287 C 267.6701,455.18512 276.03867,464.36061 284.99165,464.08343 C 288.54636,464.31259 292.7893,464.61045 295.70364,469.21538 C 298.43571,475.32868 296.11937,481.54739 296.4977,487.70931 C 296.38474,499.77616 297.52612,512.54829 294.96019,523.5944 C 292.76376,528.29116 288.24806,524.58168 284.94959,523.22148 C 279.46262,521.44253 273.97743,519.34583 268.62457,515.97239 C 258.38567,509.99233 248.37582,502.21282 237.90503,497.99325 C 234.17642,498.25368 228.5945,495.58592 227.80793,488.61106 C 226.84036,481.60754 227.40127,474.17088 230.26612,469.3401 C 232.53336,460.26834 230.52788,449.39056 231.61127,439.76678 z "
       style="opacity:1;color:#000000;fill:#ec9e2d;fill-opacity:1;fill-rule:nonzero;stroke:none;stroke-width:10;stroke-linecap:square;stroke-linejoin:miter;marker:none;marker-start:none;marker-mid:none;marker-end:none;stroke-miterlimit:4;stroke-dasharray:none;stroke-dashoffset:0;stroke-opacity:1;visibility:visible;display:inline;overflow:visible" />
    <path
       style="opacity:1;color:#000000;fill:url(#linearGradient1376);fill-opacity:1;fill-rule:nonzero;stroke:none;stroke-width:10;stroke-linecap:square;stroke-linejoin:miter;marker:none;marker-start:none;marker-mid:none;marker-end:none;stroke-miterlimit:4;stroke-dasharray:none;stroke-dashoffset:0;stroke-opacity:1;visibility:visible;display:inline;overflow:visible"
       d="M 231.61127,439.76678 C 240.8264,441.88193 249.81553,448.1208 258.99872,451.00287 C 267.6701,455.18512 276.03867,464.36061 284.99165,464.08343 C 288.54636,464.31259 292.7893,464.61045 295.70364,469.21538 C 298.43571,475.32868 296.11937,481.54739 296.4977,487.70931 C 296.38474,499.77616 297.52612,512.54829 294.96019,523.5944 C 292.76376,528.29116 288.24806,524.58168 284.94959,523.22148 C 279.46262,521.44253 273.97743,519.34583 268.62457,515.97239 C 258.38567,509.99233 248.37582,502.21282 237.90503,497.99325 C 234.17642,498.25368 228.5945,495.58592 227.80793,488.61106 C 226.84036,481.60754 227.40127,474.17088 230.26612,469.3401 C 232.53336,460.26834 230.52788,449.39056 231.61127,439.76678 z "
       id="path1360" />
    <path
       id="path1362"
       d="M 231.81825,439.19299 C 247.77305,453.6927 265.50898,455.51986 282.29301,464.02668 C 288.76553,453.81755 295.8394,483.81798 285.77604,478.76471 C 271.42013,479.88192 258.35311,488.13415 243.53508,486.45933 C 234.58822,486.26496 225.40926,482.95861 216.4945,482.71445 C 208.64949,484.5354 206.10305,498.47381 208.90902,509.9708 C 213.06499,533.57779 227.26422,554.69799 242.87796,559.64002 C 256.67811,564.96102 269.39297,558.34974 280.87862,551.11976 C 294.98676,544.14498 309.83059,538.21856 321.11119,524.03825 C 333.55612,509.41532 343.28768,486.47137 341.07949,459.20889 C 338.50847,428.61645 319.99905,399.05404 299.82681,394.25454 C 280.1126,388.68667 262.91479,401.11647 247.90418,414.57012 C 242.25679,419.96561 235.3195,423.71441 231.6978,432.59666 C 231.2244,434.5059 230.73565,437.12537 231.81825,439.19299 z "
       style="opacity:1;color:#000000;fill:#ec9e2d;fill-opacity:1;fill-rule:nonzero;stroke:none;stroke-width:10;stroke-linecap:square;stroke-linejoin:miter;marker:none;marker-start:none;marker-mid:none;marker-end:none;stroke-miterlimit:4;stroke-dasharray:none;stroke-dashoffset:0;stroke-opacity:1;visibility:visible;display:inline;overflow:visible" />
    <path
       d="M 224.04876,443.30755 C 225.90269,438.3647 228.15849,433.91712 230.58539,429.67316 C 239.70791,413.82383 251.47131,402.3857 264.68831,394.9619 C 282.55419,384.80879 302.93892,384.46114 322.32936,400.22095 C 337.50143,413.76555 345.08955,437.70868 346.55973,461.98817 C 347.46128,491.85579 336.20592,513.57844 322.70604,529.92001 C 304.14,550.27819 281.14072,561.98272 256.94242,564.25669 C 243.17527,564.769 227.14449,563.2407 215.31109,546.60696 C 206.90493,533.27164 205.52327,515.71567 207.61631,500.39268 C 208.0714,497.22918 208.82093,494.27257 209.58049,491.32771 L 221.37135,492.50704 C 220.57863,495.03621 219.79787,497.57868 219.2784,500.33246 C 217.13282,512.42188 217.42086,527.15975 224.60428,537.83691 C 235.56176,551.92408 250.3944,551.75026 262.55601,551.25069 C 286.31331,548.31359 290.98609,544.48169 311.85321,525.758 C 324.59199,511.21795 335.95119,491.88726 335.66725,464.34051 C 334.65488,442.90661 328.07433,421.73782 314.32687,410.52328 C 304.66222,403.31264 294.4888,400.11186 284.50615,400.60019 C 278.54631,400.89173 265.86738,408.22355 271.01507,403.7663 C 272.43396,402.53771 274.14703,402.10015 275.71302,401.26705 C 262.81556,407.55601 251.20848,417.7817 242.42513,432.91947 C 240.26253,436.70657 238.03358,440.54563 236.65944,445.25548 L 224.04876,443.30755 z "
       id="path1364"
       style="fill:#000000;fill-opacity:1;fill-rule:nonzero;stroke:none;stroke-width:1px;stroke-linecap:butt;stroke-linejoin:miter;stroke-opacity:1" />
    <path
       d="M 233.66684,435.43739 C 232.40001,433.35975 235.9446,435.36564 236.73182,435.64903 C 243.67765,438.18201 250.62304,440.72928 257.56899,443.2633 C 268.96437,447.36932 280.35903,451.51584 291.71732,456.24714 C 298.01782,459.78374 310.55803,460.00367 311.13634,473.47193 C 304.75207,485.49202 285.37738,485.41412 274.95677,487.64695 C 260.13134,490.92094 245.14535,493.36905 229.96317,494.50199 C 220.77641,495.06827 211.50135,495.1692 202.12522,493.60159 L 209.03202,480.28865 C 218.07583,481.68386 227.03239,481.62664 235.89711,481.05608 C 250.94131,479.89676 265.78294,477.38229 280.43609,473.92036 C 285.25084,472.79693 315.79203,460.41045 296.80939,470.602 C 296.74152,470.63843 299.14965,469.95417 298.67536,471.39529 C 298.78287,471.84769 300.17472,475.77985 300.14747,476.05861 C 300.1214,476.3253 284.64375,467.07934 284.32216,468.22801 C 273.01297,463.46219 261.65842,459.43807 250.29948,455.55837 C 243.27127,453.14176 236.24162,450.72665 229.20331,448.60788 C 227.48581,448.09567 225.66865,448.06989 224.31833,445.98324 L 233.66684,435.43739 z "
       id="path1366"
       style="fill:#000000;fill-opacity:1;fill-rule:nonzero;stroke:none;stroke-width:1px;stroke-linecap:butt;stroke-linejoin:miter;stroke-opacity:1" />
    <path
       d="M 235.39084,442.71436 C 235.87921,446.18071 236.10906,451.02364 236.34221,454.96783 C 236.89051,464.62874 237.26127,474.2656 237.82646,483.92847 L 226.20156,486.47359 C 225.70279,476.85755 225.37312,467.26172 224.70615,457.62578 C 224.44557,454.17697 224.15412,450.72249 223.75365,447.2703 L 235.39084,442.71436 z "
       id="path1368"
       style="fill:#000000;fill-opacity:1;fill-rule:nonzero;stroke:none;stroke-width:1px;stroke-linecap:butt;stroke-linejoin:miter;stroke-opacity:1" />
    <path
       d="M 219.47228,492.89763 C 218.69184,491.65112 218.83057,497.87734 218.78106,499.44687 C 218.50265,510.04159 218.28957,520.65743 218.20643,531.30872 C 218.1333,545.04599 218.13377,558.80213 218.09257,572.54763 C 218.07949,577.28036 218.0576,582.01072 218.02368,586.73799 L 206.17819,588.36904 C 206.31154,583.67729 206.42923,578.98094 206.49081,574.2676 C 206.687,560.56866 206.73073,546.82942 206.70871,533.07307 C 206.70509,522.40698 206.85982,511.78178 206.86437,501.11771 C 206.87297,497.73046 206.93987,494.3537 206.86339,490.94998 L 219.47228,492.89763 z "
       id="path1370"
       style="fill:#000000;fill-opacity:1;fill-rule:nonzero;stroke:none;stroke-width:1px;stroke-linecap:butt;stroke-linejoin:miter;stroke-opacity:1" />
    <path
       d="M 347.89304,456.3769 C 347.0882,454.39092 347.28264,462.84794 347.23564,464.50807 C 346.96138,476.24494 347.11707,488.10035 347.26717,499.94466 C 347.45122,511.30351 347.66818,522.67002 347.9584,534.05037 C 348.0026,535.85517 348.05853,537.66215 348.11081,539.46845 L 336.37209,541.60654 C 336.34119,539.78838 336.30885,537.96987 336.283,536.15278 C 336.09206,524.7307 335.94454,513.31801 335.78092,501.90176 C 335.64017,490.0045 335.44865,478.09512 335.41482,466.22233 C 335.40846,462.30217 335.48745,458.38808 335.28238,454.42898 L 347.89304,456.3769 z "
       id="path1372"
       style="fill:#000000;fill-opacity:1;fill-rule:nonzero;stroke:none;stroke-width:1px;stroke-linecap:butt;stroke-linejoin:miter;stroke-opacity:1" />
    <path
       style="opacity:1;color:#000000;fill:#000000;fill-opacity:1;fill-rule:nonzero;stroke:none;stroke-width:3.9000001;stroke-linecap:butt;stroke-linejoin:miter;marker:none;marker-start:none;marker-mid:none;marker-end:none;stroke-miterlimit:4;stroke-dasharray:none;stroke-dashoffset:0;stroke-opacity:1;visibility:visible;display:inline;overflow:visible"
       id="path1388"
       d="M 182.0368,617.3757 C 183.11239,624.70031 191.90729,632.35349 197.61623,637.96384 C 231.762,666.90713 271.62531,688.47264 311.26511,708.90384 C 354.30567,731.10269 399.10301,750.00764 445.46295,764.08405 L 444.61113,844.21794 C 399.53041,824.55693 354.68919,804.34244 310.23016,783.31058 C 271.68614,764.63507 233.15836,745.81857 195.92221,724.62003 C 189.59924,720.76988 183.28767,716.2987 177.57751,711.93482 L 182.0368,617.3757 z " />
  </g>
</svg>
