<?xml version="1.0" encoding="UTF-8" standalone="no"?>
<!-- Created with Inkscape (http://www.inkscape.org/) -->
<svg
   xmlns:dc="http://purl.org/dc/elements/1.1/"
   xmlns:cc="http://creativecommons.org/ns#"
   xmlns:rdf="http://www.w3.org/1999/02/22-rdf-syntax-ns#"
   xmlns:svg="http://www.w3.org/2000/svg"
   xmlns="http://www.w3.org/2000/svg"
   xmlns:xlink="http://www.w3.org/1999/xlink"
   xmlns:sodipodi="http://sodipodi.sourceforge.net/DTD/sodipodi-0.dtd"
   xmlns:inkscape="http://www.inkscape.org/namespaces/inkscape"
   width="400"
   height="400"
   id="svg5301"
   sodipodi:version="0.32"
   inkscape:version="0.46"
   version="1.0"
   sodipodi:docname="cup.svg"
   inkscape:output_extension="org.inkscape.output.svg.inkscape">
  <defs
     id="defs5303">
    <linearGradient
       inkscape:collect="always"
       id="linearGradient5243">
      <stop
         style="stop-color:#000000;stop-opacity:1;"
         offset="0"
         id="stop5245" />
      <stop
         style="stop-color:#000000;stop-opacity:0;"
         offset="1"
         id="stop5247" />
    </linearGradient>
    <radialGradient
       inkscape:collect="always"
       xlink:href="#linearGradient5243"
       id="radialGradient5241"
       gradientUnits="userSpaceOnUse"
       gradientTransform="matrix(3.5092626,2.6456614e-5,-1.478429e-5,1.6321661,-7130.6989,-496.51043)"
       cx="2082.905"
       cy="444.43082"
       fx="2082.905"
       fy="444.43082"
       r="28.116682" />
    <linearGradient
       inkscape:collect="always"
       id="linearGradient4849">
      <stop
         style="stop-color:#000000;stop-opacity:1;"
         offset="0"
         id="stop4851" />
      <stop
         style="stop-color:#000000;stop-opacity:0;"
         offset="1"
         id="stop4853" />
    </linearGradient>
    <radialGradient
       inkscape:collect="always"
       xlink:href="#linearGradient4849"
       id="radialGradient4914"
       gradientUnits="userSpaceOnUse"
       gradientTransform="matrix(4.7519065,1.716198e-2,-7.4616187e-3,2.0660161,-9719.0503,-722.5193)"
       cx="2163.2959"
       cy="404.60443"
       fx="2163.2959"
       fy="404.60443"
       r="28.116682" />
    <inkscape:perspective
       sodipodi:type="inkscape:persp3d"
       inkscape:vp_x="0 : 526.18109 : 1"
       inkscape:vp_y="0 : 1000 : 0"
       inkscape:vp_z="744.09448 : 526.18109 : 1"
       inkscape:persp3d-origin="372.04724 : 350.78739 : 1"
       id="perspective5309" />
  </defs>
  <sodipodi:namedview
     id="base"
     pagecolor="#ffffff"
     bordercolor="#666666"
     borderopacity="1.0"
     gridtolerance="10000"
     guidetolerance="10"
     objecttolerance="10"
     inkscape:pageopacity="0.0"
     inkscape:pageshadow="2"
     inkscape:zoom="1.4"
     inkscape:cx="211.71111"
     inkscape:cy="196.90493"
     inkscape:document-units="px"
     inkscape:current-layer="layer1"
     showgrid="false"
     inkscape:window-width="818"
     inkscape:window-height="901"
     inkscape:window-x="858"
     inkscape:window-y="49" />
  <metadata
     id="metadata5306">
    <rdf:RDF>
      <cc:Work
         rdf:about="">
        <dc:format>image/svg+xml</dc:format>
        <dc:type
           rdf:resource="http://purl.org/dc/dcmitype/StillImage" />
      </cc:Work>
    </rdf:RDF>
  </metadata>
  <g
     inkscape:label="Layer 1"
     inkscape:groupmode="layer"
     id="layer1">
    <path
       style="opacity:1;fill:#c0b79f;fill-opacity:1;fill-rule:nonzero;stroke:none;stroke-width:1.05799997;stroke-linecap:butt;stroke-linejoin:miter;marker:none;marker-start:none;marker-mid:none;marker-end:none;stroke-miterlimit:4.0999999;stroke-dasharray:none;stroke-dashoffset:0;stroke-opacity:1;visibility:visible;display:inline;overflow:visible;enable-background:accumulate"
       d="M 303.48243,159.79129 C 296.35893,159.66905 289.13954,161.12982 282.63868,163.72879 C 270.2661,167.38213 261.66633,177.53072 251.82618,185.22879 C 251.68611,185.12508 251.56115,185.02015 251.41993,184.91629 C 198.60526,166.01214 112.49311,165.20009 86.388684,208.19754 C 81.549964,253.80095 127.15697,306.47821 174.60743,312.66629 C 206.73845,324.97873 246.32448,307.50047 262.20118,276.47879 C 266.82778,267.43881 270.51311,259.39453 273.20118,252.10379 C 273.62279,252.40581 274.3977,252.21452 275.73243,251.16629 C 283.70174,242.21418 293.53191,235.38445 302.91993,227.97879 C 314.34666,218.60757 326.22323,211.12447 332.91993,198.35379 C 339.17151,187.17614 334.24285,172.15402 323.73243,165.44754 C 317.62751,161.62364 310.60594,159.91353 303.48243,159.79129 z M 297.98243,176.60379 C 301.45354,176.60679 304.90215,177.23075 308.20118,178.57254 C 319.96885,184.67852 314.94288,201.53035 307.35743,209.16629 C 300.92013,217.82132 290.3401,223.26752 280.51368,226.82254 C 280.10263,226.81241 279.71489,226.76328 279.32618,226.72879 C 279.25539,227.24474 279.15349,227.77421 279.04493,228.29129 C 279.10497,231.17972 278.4706,233.97143 277.57618,236.69754 C 280.46131,220.90247 276.7277,208.89343 265.54493,197.10379 L 265.73243,196.22879 L 266.57618,194.63504 C 272.98023,184.3851 285.58562,176.59308 297.98243,176.60379 z"
       id="path5202" />
    <path
       style="opacity:1;fill:url(#radialGradient5241);fill-opacity:1;fill-rule:nonzero;stroke:none;stroke-width:1.05799997;stroke-linecap:butt;stroke-linejoin:miter;marker:none;marker-start:none;marker-mid:none;marker-end:none;stroke-miterlimit:4.0999999;stroke-dasharray:none;stroke-dashoffset:0;stroke-opacity:1;visibility:visible;display:inline;overflow:visible;enable-background:accumulate"
       d="M 132.19224,196.07254 C 120.8994,192.3172 109.82408,209.6444 121.93677,216.04588 C 134.17191,222.72975 148.67154,218.28767 161.88835,220.25312 C 183.41883,223.14942 206.34495,228.50951 227.22887,219.63414 C 235.09873,219.92847 244.9383,213.68026 239.04125,204.93827 C 231.77993,193.50642 216.60868,193.96719 204.67616,192.66834 C 190.39645,192.08311 176.07295,191.61245 161.7976,191.58744 C 151.82277,192.26968 142.01521,194.31814 132.19227,196.07254"
       id="path5218" />
    <path
       d="M 191.51506,192.7111 C 189.84568,192.67834 188.17579,192.69152 186.50623,192.70304 C 182.95535,192.73295 179.40616,192.86551 175.85815,193.00431 C 171.06868,193.18472 166.29269,193.58526 161.52076,194.01553 C 156.72134,194.45681 151.93659,195.041 147.16178,195.6939 C 142.90713,196.25731 138.67626,196.97996 134.45685,197.76097 C 130.84291,198.40871 127.28563,199.31352 123.75869,200.32483 C 120.86774,201.14034 118.06801,202.2171 115.3401,203.46692 C 114.23168,203.99937 113.16405,204.61529 112.14887,205.30918 C 111.8447,205.51709 110.96085,206.18092 111.25271,205.95603 C 121.3476,198.17606 123.73121,195.92628 120.11946,199.27436 C 118.97141,200.37547 118.29243,201.71947 118.05199,203.27785 C 117.92503,204.81536 118.56169,206.06593 119.50185,207.2248 C 120.98408,208.80675 122.91245,209.80964 124.84115,210.7357 C 127.55995,211.97829 130.43303,212.81958 133.30948,213.60532 C 136.83237,214.54071 140.42573,215.17059 144.01792,215.76969 C 147.89556,216.39947 151.79006,216.91712 155.68726,217.40795 C 159.64938,217.90791 163.62144,218.31734 167.59974,218.66152 C 171.67448,219.00313 175.75496,219.27093 179.83628,219.51901 C 183.86718,219.76591 187.90348,219.90743 191.93911,220.04879 C 195.78421,220.17706 199.631,220.18324 203.47745,220.14451 C 207.03085,220.1022 210.57904,219.90837 214.12351,219.66564 C 217.38118,219.43224 220.63194,219.11627 223.8719,218.70566 C 226.63269,218.35598 229.36143,217.81202 232.05949,217.13681 C 234.2546,216.58973 236.38395,215.83012 238.46625,214.95302 C 240.15233,214.22361 241.74415,213.30508 243.25185,212.25973 C 247.08919,209.40493 246.23536,210.03479 234.07385,219.32968 C 233.87591,219.48098 234.45895,219.01347 234.64678,218.84978 C 235.17907,218.38601 235.66871,217.8883 236.15059,217.37352 C 236.98031,216.48686 237.62625,215.46576 238.15753,214.37949 C 238.59102,213.45862 238.83449,212.47483 238.9247,211.4648 C 238.99602,210.49549 238.7743,209.56017 238.47687,208.64655 C 238.13612,207.69625 237.6217,206.83663 237.01504,206.03548 C 236.31954,205.15878 235.44126,204.45781 234.54528,203.79819 C 233.4726,203.0175 232.27868,202.44167 231.08595,201.87328 C 229.67218,201.20449 228.19551,200.68508 226.71294,200.19286 C 225.08402,199.67954 223.43875,199.21801 221.78993,198.77305 C 220.0381,198.32002 218.28407,197.87554 216.52178,197.4652 C 214.67789,197.04027 212.83265,196.62372 210.9788,196.2454 C 209.03105,195.86536 207.08262,195.48839 205.12828,195.14384 C 203.03215,194.7963 200.93619,194.44781 198.83567,194.12722 C 196.68424,193.80162 194.52555,193.52699 192.36586,193.26366 C 190.27816,193.01053 188.18658,192.78948 186.09415,192.58006 C 184.72995,192.4481 185.41112,192.51287 184.05046,192.38574 L 194.22712,184.13869 C 195.58593,184.26968 194.90576,184.20296 196.26778,184.33886 C 198.357,184.55448 200.44487,184.782 202.52903,185.04199 C 204.68923,185.31279 206.84791,185.59755 209.00154,185.91777 C 211.11015,186.2403 213.21707,186.57509 215.32163,186.92262 C 217.2876,187.2606 219.24868,187.62757 221.20604,188.0117 C 223.06629,188.39218 224.91946,188.80447 226.77044,189.22786 C 228.54082,189.63991 230.30564,190.07564 232.06523,190.53193 C 233.72584,190.97821 235.38629,191.43029 237.02584,191.94982 C 238.53133,192.44448 240.02807,192.97463 241.47034,193.63473 C 242.69713,194.20449 243.92088,194.78914 245.02206,195.58473 C 245.9526,196.26476 246.87539,196.9762 247.59653,197.8854 C 248.23538,198.71571 248.77493,199.61108 249.14924,200.59363 C 249.47415,201.54584 249.73583,202.51915 249.69468,203.53597 C 249.63702,204.59137 249.41007,205.6209 248.98569,206.593 C 248.46301,207.7222 247.83224,208.79597 246.99241,209.72281 C 243.05306,214.12701 237.77395,217.15684 233.175,220.77758 C 231.66832,221.7759 230.08763,222.65951 228.41251,223.346 C 226.34538,224.18069 224.23188,224.89437 222.05987,225.40664 C 219.38508,226.03138 216.68348,226.53376 213.95338,226.85012 C 210.73045,227.22416 207.49857,227.51435 204.26147,227.73639 C 200.73167,227.95818 197.19816,228.13221 193.66026,228.14988 C 189.82781,228.16664 185.99485,228.14338 182.16458,227.99847 C 178.13435,227.84949 174.10378,227.69796 170.07861,227.44251 C 165.99156,227.1889 161.90484,226.92665 157.82369,226.58807 C 153.83663,226.24726 149.85613,225.83576 145.88559,225.33631 C 141.97878,224.8475 138.07686,224.31935 134.18792,223.70247 C 130.55358,223.11408 126.91772,222.50235 123.34594,221.5975 C 120.40778,220.82914 117.47198,220.00903 114.67933,218.79829 C 112.66497,217.87525 110.64421,216.87819 109.06014,215.2896 C 108.01747,214.08039 107.29111,212.76851 107.3572,211.12037 C 107.54975,209.46902 108.19046,208.01697 109.37527,206.82274 C 114.04655,202.26844 119.42227,198.15172 125.26301,195.16712 C 127.96039,193.97608 130.72725,192.96018 133.57554,192.18762 C 137.07095,191.2203 140.59636,190.36273 144.17388,189.7534 C 148.3589,189.01361 152.55403,188.32859 156.77141,187.79733 C 161.52666,187.17717 166.29134,186.62566 171.06749,186.19112 C 175.89119,185.7576 180.71709,185.34142 185.5536,185.07824 C 189.21744,184.86989 192.88197,184.66895 196.548,184.50396 C 198.34435,184.41723 200.1407,184.33112 201.93468,184.20344 L 191.51506,192.7111 z"
       id="path5184"
       style="opacity:1;fill:#000000;fill-opacity:1;fill-rule:nonzero;stroke:none;stroke-width:1.05799997;stroke-linecap:butt;stroke-linejoin:miter;marker:none;marker-start:none;marker-mid:none;marker-end:none;stroke-miterlimit:4.0999999;stroke-dasharray:none;stroke-dashoffset:0;stroke-opacity:1;visibility:visible;display:inline;overflow:visible;enable-background:accumulate" />
    <path
       style="opacity:1;fill:#000000;fill-opacity:1;fill-rule:nonzero;stroke:none;stroke-width:1.05799997;stroke-linecap:butt;stroke-linejoin:miter;marker:none;marker-start:none;marker-mid:none;marker-end:none;stroke-miterlimit:4.0999999;stroke-dasharray:none;stroke-dashoffset:0;stroke-opacity:1;visibility:visible;display:inline;overflow:visible;enable-background:accumulate"
       id="path5186"
       d="M 273.08935,215.74705 C 272.80221,215.44227 272.56902,215.09145 272.32437,214.75289 C 271.98075,214.23465 271.64438,213.71114 271.32284,213.17895 C 270.91835,212.49302 270.48284,211.82626 270.05238,211.15655 C 269.51908,210.3172 268.95795,209.49644 268.38469,208.68403 C 267.72813,207.72402 267.0311,206.79253 266.31418,205.87704 C 265.53572,204.88198 264.69352,203.93886 263.8316,203.01595 C 262.89111,201.99975 261.88317,201.05074 260.85365,200.12613 C 259.68689,199.10243 258.46768,198.13912 257.23364,197.19802 C 255.94177,196.2131 254.63776,195.24461 253.30222,194.31973 C 251.92216,193.3567 250.50619,192.4476 249.08163,191.55232 C 247.61744,190.65521 246.11986,189.81367 244.61504,188.98669 C 243.1291,188.19125 241.63051,187.41926 240.11473,186.68212 C 238.6352,185.94436 237.12548,185.27185 235.59975,184.63651 C 234.08515,184.02269 232.55958,183.43632 231.02441,182.8758 C 229.4943,182.31901 227.93956,181.83436 226.37809,181.374 C 224.77075,180.90498 223.14503,180.50395 221.51359,180.12871 C 219.81807,179.74346 218.11108,179.41304 216.40072,179.10143 C 214.65867,178.77545 212.90178,178.54149 211.14471,178.31366 C 209.37282,178.08701 207.59687,177.8937 205.82025,177.70814 C 204.02778,177.51146 202.23025,177.37352 200.43138,177.25192 C 198.62289,177.13371 196.81356,177.03182 195.00373,176.93739 C 193.2234,176.83386 191.44155,176.77168 189.65903,176.72661 C 187.92355,176.68754 186.18824,176.63716 184.45242,176.62428 C 182.7274,176.61501 181.00254,176.61973 179.27768,176.64839 C 177.52635,176.67109 175.7762,176.72872 174.02606,176.79584 C 172.28366,176.86635 170.54043,176.91631 168.79837,176.99436 C 167.043,177.0785 165.28762,177.16099 163.53359,177.26978 C 161.77502,177.36563 160.01998,177.5076 158.26595,177.66474 C 156.45038,177.84278 154.636,178.03196 152.82464,178.24917 C 150.91668,178.47312 149.01428,178.74095 147.11474,179.02698 C 145.19464,179.31705 143.27976,179.64034 141.37011,179.99217 C 139.52537,180.32495 137.69243,180.71734 135.85832,181.10308 C 134.15015,181.44847 132.45463,181.85183 130.75659,182.24315 C 129.1769,182.61682 127.6075,183.03097 126.03995,183.45183 C 124.53749,183.85877 123.04615,184.30408 121.55853,184.76176 C 120.12722,185.18178 118.71664,185.66714 117.3113,186.16608 C 115.9476,186.64779 114.59536,187.16178 113.24734,187.6859 C 111.94536,188.20721 110.64792,188.74089 109.35824,189.29205 C 108.11813,189.80771 106.89808,190.36964 105.67854,190.93176 C 104.49357,191.47657 103.32242,192.05014 102.16358,192.64836 C 101.01839,193.21397 99.907274,193.84261 98.799014,194.47603 C 97.734084,195.09926 96.678434,195.73762 95.639134,196.40255 C 97.133334,195.22072 92.605544,198.55433 94.156234,197.42758 C 108.08373,187.30789 104.10139,190.13427 101.1988,192.34325 C 100.27011,193.05583 99.365194,193.79911 98.479164,194.56381 C 97.606624,195.31882 96.775214,196.11912 95.976184,196.95113 C 95.182374,197.77019 94.450624,198.64469 93.752414,199.54568 C 93.074104,200.42733 92.471334,201.3624 91.896884,202.31381 C 91.326654,203.24402 90.859274,204.22937 90.417864,205.22547 C 89.990604,206.20488 89.662664,207.22008 89.390874,208.25204 C 89.121944,209.30299 88.976264,210.37785 88.861444,211.45468 C 88.732794,212.55276 88.718634,213.6584 88.727564,214.76243 C 88.742234,215.89036 88.839864,217.01407 88.946084,218.13625 C 89.072204,219.32438 89.265934,220.50431 89.478374,221.67963 C 89.696214,222.89163 89.967504,224.09296 90.251444,225.2909 C 90.532004,226.49635 90.861634,227.68926 91.207614,228.87731 C 91.550904,230.06365 91.921334,231.24164 92.330204,232.40696 C 92.747514,233.59834 93.200394,234.77651 93.664064,235.95042 C 94.139374,237.14737 94.654294,238.32782 95.175464,239.50533 C 95.704214,240.70479 96.253374,241.89462 96.834054,243.06978 C 97.427554,244.31267 98.065064,245.53341 98.707794,246.75135 C 99.363174,247.97394 100.01939,249.1963 100.69382,250.4085 C 101.35308,251.60118 102.02161,252.78874 102.70059,253.97029 C 103.39239,255.18317 104.08655,256.39445 104.80515,257.59168 C 105.54028,258.81823 106.2825,260.04047 107.03229,261.25801 C 107.79659,262.47443 108.54926,263.69798 109.31069,264.9161 C 110.06959,266.13133 110.81535,267.35454 111.57965,268.56641 C 112.34479,269.7835 113.1128,270.99891 113.88738,272.21007 C 114.68658,273.43767 115.46352,274.67927 116.2634,275.90639 C 117.05839,277.13728 117.86855,278.35871 118.70164,279.56429 C 119.48802,280.70455 120.28942,281.83454 121.10447,282.9545 C 121.85174,284.00612 122.64402,285.02473 123.44322,286.03711 C 124.2232,287.01813 125.05849,287.95234 125.90658,288.87442 C 126.76008,289.79295 127.65909,290.66686 128.56654,291.53163 C 129.48039,292.38499 130.43016,293.19909 131.39308,293.99618 C 132.33695,294.77465 133.30846,295.51691 134.28993,296.24691 C 135.2692,296.9707 136.2908,297.63514 137.33043,298.26845 C 138.43043,298.94835 139.57528,299.55103 140.71861,300.15367 C 141.94759,300.7976 143.19933,301.3955 144.45951,301.97556 C 145.78325,302.58994 147.123,303.16964 148.47186,303.72664 C 149.85681,304.29244 151.2544,304.82509 152.66413,305.32604 C 154.11685,305.86856 155.59875,306.3247 157.07878,306.7851 C 158.62424,307.26383 160.18623,307.68555 161.75293,308.08776 C 163.29974,308.48237 164.84722,308.87408 166.40077,309.24139 C 167.91824,309.60107 169.44465,309.91953 170.97409,310.22338 C 172.45615,310.51622 173.94394,310.77933 175.43342,311.03182 C 176.86794,311.27391 178.3065,311.49084 179.74624,311.69863 C 181.1408,311.89899 182.53822,312.07773 183.93648,312.24878 C 185.29799,312.41452 186.66152,312.56184 188.02573,312.70269 C 189.38201,312.84392 190.74031,312.96467 192.09895,313.07983 C 193.46788,313.20427 194.83883,313.29904 196.21281,313.34116 C 197.6013,313.37827 198.98978,313.39112 200.3786,313.3805 C 201.77147,313.35247 203.16299,313.28562 204.55249,313.18757 C 205.99375,313.07184 207.42725,312.88336 208.85991,312.69032 C 210.31483,312.47327 211.76148,312.20368 213.20375,311.91438 C 214.65395,311.61263 216.09183,311.25804 217.52837,310.8977 C 218.93726,310.53379 220.34092,310.14941 221.73345,309.72641 C 223.10727,309.30826 224.47097,308.85523 225.82809,308.38546 C 227.13379,307.94112 228.42819,307.46531 229.71618,306.97237 C 230.95731,306.48977 232.17381,305.94933 233.38914,305.40565 C 234.60058,304.85828 235.79213,304.2665 236.96665,303.64404 C 238.11218,303.05528 239.22549,302.40787 240.34184,301.76635 C 241.39918,301.14401 242.4346,300.48473 243.44423,299.78783 C 246.41324,297.67 250.39761,294.79235 236.42289,304.89157 C 236.26238,305.0076 236.73752,304.65078 236.89348,304.52859 C 237.33051,304.1862 237.39222,304.13074 237.81964,303.77813 C 238.72641,303.03649 239.60132,302.25743 240.47032,301.47239 C 241.33646,300.70109 242.14932,299.87378 242.94987,299.03565 C 243.76913,298.18444 244.55839,297.30567 245.31527,296.39868 C 246.08075,295.477 246.82093,294.53506 247.55269,293.58647 C 248.27349,292.63211 248.9781,291.66542 249.67529,290.69373 C 250.35209,289.73496 251.01893,288.76931 251.66267,287.78796 C 252.31451,286.79867 252.94898,285.79837 253.57165,284.79059 C 254.2159,283.7596 254.81699,282.70329 255.40695,281.64059 C 256.02945,280.50787 256.57456,279.33557 257.11629,278.16289 C 257.66983,276.96119 258.21207,275.75443 258.74976,274.54563 C 259.28004,273.34347 259.79766,272.13592 260.31242,270.92709 C 260.82549,269.75034 261.33317,268.57127 261.84894,267.39572 C 262.38832,266.18209 262.9024,264.95758 263.42307,263.7359 C 263.95384,262.49447 264.48108,261.25163 265.00444,260.00709 C 265.51616,258.78109 266.0149,257.54983 266.52258,256.32218 C 267.00885,255.1291 267.48988,253.9338 267.94985,252.73037 C 268.39092,251.55879 268.82644,250.38517 269.25925,249.21053 C 269.6742,248.05991 270.10381,246.91459 270.51622,245.76302 C 270.92645,244.65623 271.32588,243.54573 271.70036,242.42627 C 272.06758,241.3067 272.43127,240.18618 272.77236,239.05835 C 273.11144,237.93187 273.40903,236.79361 273.69212,235.65193 C 273.97319,234.5107 274.21851,233.36118 274.45204,232.20939 C 274.68151,231.08563 274.84489,229.94974 275.00557,228.81452 C 275.14855,227.72044 275.24753,226.62166 275.29575,225.51942 C 275.34009,224.46567 275.31463,223.41046 275.24854,222.35831 C 275.19728,221.3641 275.03694,220.38118 274.86293,219.40253 C 274.70039,218.47467 274.45187,217.56818 274.17434,216.66928 C 273.89192,215.76677 273.52284,214.89706 273.11818,214.0437 C 272.68165,213.15954 272.17178,212.31512 271.64623,211.48178 C 271.11967,210.66083 270.55045,209.8699 269.94633,209.10453 C 269.43376,208.45287 268.88157,207.83444 268.30999,207.2345 L 276.81861,201.00115 C 277.39542,201.60968 277.95655,202.23334 278.47873,202.89001 C 279.08942,203.66463 279.66623,204.4637 280.19431,205.29736 C 280.72424,206.14155 281.24642,206.99278 281.69273,207.88487 C 282.11087,208.74718 282.49631,209.62677 282.78429,210.54226 C 283.06755,211.45354 283.32552,212.37155 283.48739,213.31358 C 283.66409,214.30574 283.82359,215.30248 283.87687,216.3103 C 283.94448,217.37433 283.97989,218.44105 283.93184,219.50693 C 283.88395,220.62 283.79594,221.73058 283.6474,222.8351 C 283.48823,223.97755 283.32519,225.12041 283.09571,226.25128 C 282.86455,227.40669 282.62176,228.55987 282.34338,229.70497 C 282.06299,230.85105 281.76826,231.9938 281.43189,233.12496 C 281.09417,234.25542 280.73217,235.378 280.36629,236.49961 C 279.99468,237.62422 279.60081,238.74113 279.17794,239.84755 C 278.76688,241.00326 278.32866,242.14885 277.91473,243.30347 C 277.47888,244.48099 277.04404,245.65875 276.59791,246.83236 C 276.13929,248.04042 275.65707,249.23917 275.1698,250.43588 C 274.65791,251.66544 274.15191,252.89742 273.64306,254.12828 C 273.12003,255.37392 272.59162,256.61721 272.06101,257.8596 C 271.5417,259.07625 271.03992,260.30045 270.50577,261.51077 C 269.98764,262.68712 269.48384,263.86981 268.96014,265.04377 C 268.44589,266.25466 267.92692,267.4635 267.39799,268.66801 C 266.86131,269.87814 266.31823,271.08543 265.76688,272.28897 C 265.22869,273.45922 264.69825,274.63405 264.09159,275.77109 C 263.50686,276.83488 262.91539,277.89516 262.27501,278.92675 C 261.65386,279.93585 261.02698,280.94141 260.37143,281.92874 C 259.73797,282.9199 259.0654,283.88451 258.39029,284.84768 C 257.69546,285.82478 256.98444,286.7904 256.26938,287.75277 C 255.54116,288.70167 254.80755,289.64641 254.04595,290.5689 C 253.29665,291.48304 252.51296,292.36792 251.69572,293.22202 C 250.89854,294.06464 250.09395,294.90173 249.23017,295.67719 C 248.36251,296.46892 247.48677,297.25278 246.57949,297.99912 C 242.98915,301.01912 239.07594,303.63001 235.24972,306.341 C 234.23673,307.024 233.20468,307.67906 232.14616,308.28933 C 231.03352,308.92804 229.91733,309.56124 228.77586,310.14764 C 227.59645,310.75972 226.4049,311.34965 225.19075,311.89027 C 223.9756,312.43316 222.75555,312.96525 221.51139,313.43927 C 220.22525,313.92505 218.93271,314.39359 217.63021,314.83349 C 216.2714,315.29291 214.91107,315.74913 213.53625,316.15886 C 212.14152,316.57416 210.73736,316.95677 209.32695,317.31477 C 207.8894,317.67239 206.44933,318.02023 204.99761,318.316 C 203.54995,318.60175 202.09925,318.87566 200.63759,319.07999 C 199.19784,319.27635 197.75574,319.45801 196.30656,319.57019 C 194.91082,319.66872 193.51323,319.73281 192.11396,319.75265 C 190.72261,319.76269 189.33142,319.74218 187.94058,319.70298 C 186.5612,319.65329 185.18452,319.55955 183.80986,319.43409 C 182.4497,319.31606 181.08971,319.19476 179.73191,319.05324 C 178.36905,318.90906 177.00687,318.75824 175.64688,318.5886 C 174.2503,318.41355 172.85457,318.23063 171.46204,318.02566 C 170.02449,317.81308 168.58846,317.59119 167.15647,317.3436 C 165.66969,317.08543 164.18493,316.8163 162.70573,316.51748 C 161.17696,316.20737 159.65005,315.88783 158.13393,315.52018 C 156.5824,315.14636 155.03509,314.75558 153.48997,314.35618 C 151.92006,313.94649 150.35488,313.51948 148.80301,313.04562 C 147.31134,312.59219 145.8227,312.127 144.35767,311.59216 C 142.9449,311.08379 141.54225,310.54932 140.15124,309.98428 C 138.79799,309.42285 137.45149,308.84456 136.12033,308.23256 C 134.85038,307.65368 133.5892,307.05536 132.3501,306.41271 C 131.19244,305.81528 130.03933,305.20703 128.92702,304.52795 C 127.87744,303.89128 126.84556,303.22324 125.8614,302.48849 C 124.87588,301.75647 123.90959,301.00059 122.96421,300.21724 C 121.99792,299.41333 121.0409,298.59734 120.12671,297.7342 C 119.21286,296.86629 118.31131,295.98501 117.45377,295.06084 C 116.59893,294.13427 115.76095,293.19162 114.9781,292.20277 C 114.17671,291.1864 113.39386,290.1551 112.6498,289.09595 C 111.84183,287.96772 111.04684,286.83017 110.26585,285.68306 C 109.43782,284.47098 108.62952,283.2454 107.83386,282.01175 C 107.0301,280.78639 106.24456,279.54932 105.44553,278.32089 C 104.66841,277.11057 103.90108,275.89402 103.13594,274.67622 C 102.3686,273.46576 101.62251,272.24219 100.86597,271.025 C 100.10218,269.80757 99.353054,268.58096 98.585894,267.36564 C 97.833064,266.14866 97.091354,264.92492 96.354874,263.69808 C 95.630704,262.5025 94.923224,261.29706 94.233114,260.08146 C 93.550084,258.90009 92.879364,257.71141 92.224324,256.51421 C 91.555454,255.29637 90.895694,254.07348 90.237444,252.84987 C 89.595894,251.62966 88.953674,250.40958 88.345834,249.17207 C 87.757904,247.99588 87.202674,246.80456 86.671904,245.60148 C 86.149044,244.42082 85.626874,243.23969 85.147184,242.0406 C 84.681484,240.86409 84.220514,239.68571 83.801524,238.49152 C 83.384214,237.32388 83.007544,236.14265 82.663584,234.9513 C 82.313564,233.75901 81.991184,232.55869 81.701344,231.3503 C 81.409314,230.14954 81.139544,228.94317 80.915294,227.72774 C 80.693914,226.54931 80.488884,225.36674 80.350964,224.17526 C 80.231424,223.04818 80.130934,221.91882 80.106824,220.78501 C 80.091984,219.67252 80.092994,218.55769 80.216754,217.45031 C 80.324834,216.36397 80.456514,215.27806 80.710774,214.21455 C 80.975154,213.16816 81.291294,212.13751 81.714154,211.14271 C 82.150684,210.13568 82.609124,209.13663 83.176154,208.19477 C 83.745544,207.23263 84.343264,206.28643 85.016514,205.39274 C 85.708644,204.4812 86.433494,203.59466 87.226114,202.76779 C 88.018064,201.92549 88.844244,201.11638 89.714424,200.35449 C 90.596754,199.57888 91.505884,198.83368 92.431714,198.11052 C 96.165864,195.26905 99.927004,192.45438 103.83701,189.85979 C 104.87546,189.2038 105.92842,188.5709 106.992,187.95639 C 108.10127,187.32448 109.21998,186.70981 110.36348,186.14155 C 111.52417,185.55319 112.69347,184.98237 113.8776,184.4424 C 115.09495,183.88328 116.31601,183.33163 117.55359,182.81789 C 118.84242,182.27725 120.13362,181.74187 121.43443,181.23066 C 122.78026,180.71246 124.12963,180.2027 125.49164,179.72815 C 126.89749,179.23521 128.30874,178.757 129.73937,178.3402 C 131.22363,177.88914 132.71277,177.45484 134.21102,177.05211 C 135.77233,176.63662 137.33633,176.23062 138.91164,175.87002 C 140.60007,175.48448 142.28784,175.09494 143.98707,174.75827 C 145.81444,174.37949 147.64198,173.99925 149.47963,173.67245 C 151.3903,173.32884 153.30484,173.00539 155.22494,172.71864 C 157.13206,172.43188 159.04222,172.1656 160.95693,171.93523 C 162.77857,171.71544 164.60257,171.51791 166.42859,171.33915 C 168.1843,171.18132 169.9417,171.04681 171.7018,170.95092 C 173.45886,170.8451 175.21693,170.75847 176.97517,170.6756 C 178.71757,170.59957 180.46114,170.55005 182.2037,170.47892 C 183.95486,170.41464 185.70602,170.36202 187.45819,170.33725 C 189.18693,170.30583 190.916,170.30136 192.64507,170.31432 C 194.37954,170.33511 196.11333,170.38478 197.8473,170.42697 C 199.62661,170.47931 201.40526,170.54833 203.18221,170.65515 C 204.99374,170.75259 206.80526,170.84967 208.61509,170.97145 C 210.41667,171.09343 212.21605,171.24097 214.01138,171.43583 C 215.79239,171.61871 217.57204,171.81674 219.34816,172.04206 C 221.10926,172.27071 222.86767,172.51879 224.61428,172.84182 C 226.33155,173.1527 228.04596,173.48169 229.74738,173.87134 C 231.38928,174.2446 233.02477,174.6454 234.64122,175.11845 C 236.20859,175.58058 237.76788,176.07157 239.30238,176.63401 C 240.83957,177.19725 242.36564,177.79096 243.88126,178.40987 C 245.40868,179.05298 246.92159,179.72941 248.40366,180.47216 C 249.91944,181.21394 251.41415,181.998 252.89941,182.79919 C 254.40913,183.62955 255.91024,184.47734 257.38067,185.37578 C 258.81333,186.26946 260.23166,187.18609 261.62115,188.14576 C 262.96395,189.07128 264.27588,190.03939 265.57484,191.02549 C 266.8195,191.97008 268.05152,192.93324 269.23683,193.9516 C 270.28675,194.87155 271.31846,195.81377 272.27362,196.83332 C 273.14853,197.75663 273.99477,198.70861 274.7874,199.70382 C 275.52219,200.61228 276.2236,201.54754 276.90528,202.49642 C 277.49052,203.30503 278.06344,204.12228 278.63047,204.94379 C 279.07121,205.60834 279.51651,206.27016 279.9419,206.94469 C 280.27288,207.45881 280.6133,207.96757 280.97311,208.46189 C 281.22315,208.7793 281.46072,209.11129 281.76152,209.38367 L 273.08935,215.74705 z" />
    <path
       style="opacity:1;fill:#000000;fill-opacity:1;fill-rule:nonzero;stroke:none;stroke-width:1.05799997;stroke-linecap:butt;stroke-linejoin:miter;marker:none;marker-start:none;marker-mid:none;marker-end:none;stroke-miterlimit:4.0999999;stroke-dasharray:none;stroke-dashoffset:0;stroke-opacity:1;visibility:visible;display:inline;overflow:visible;enable-background:accumulate"
       id="path5188"
       d="M 247.84826,189.05445 C 248.07757,188.74175 248.31817,188.43809 248.56501,188.13899 C 248.96714,187.67409 249.35376,187.19626 249.73667,186.71551 C 250.23946,186.05913 250.80986,185.46032 251.37672,184.86015 C 252.11134,184.10367 252.8608,183.3617 253.61633,182.62611 C 254.50894,181.75724 255.43426,180.92307 256.36869,180.09984 C 257.40765,179.17372 258.49179,178.30093 259.58269,177.43728 C 263.56368,174.39219 267.61803,171.43895 271.73054,168.57431 C 273.11329,167.59723 274.54494,166.69683 276.00491,165.84104 C 277.62254,164.9165 279.30996,164.12298 281.00784,163.35888 C 282.83892,162.54911 284.72362,161.87132 286.62147,161.23726 C 288.6188,160.58188 290.6404,160.00421 292.67769,159.48704 C 294.74162,158.96006 296.83421,158.56231 298.93321,158.20552 C 301.00574,157.86932 303.09445,157.65404 305.18839,157.51224 C 307.21758,157.389 309.25133,157.40622 311.27968,157.52386 C 313.23199,157.65266 315.17267,157.91017 317.09732,158.25685 C 318.89553,158.57813 320.64989,159.08097 322.37711,159.66813 C 323.96944,160.219 325.48236,160.95572 326.95346,161.77082 C 328.31345,162.54557 329.56064,163.49267 330.75169,164.50312 C 331.88844,165.45721 332.89705,166.54176 333.84952,167.67583 C 334.75039,168.78089 335.51081,169.98714 336.21559,171.22368 C 336.90806,172.43143 337.46902,173.70646 337.98934,174.99568 C 338.49618,176.23436 338.8892,177.51263 339.21124,178.81021 C 339.52485,180.11593 339.69784,181.44818 339.80558,182.78486 C 339.90911,184.1247 339.92159,185.46843 339.87033,186.81059 C 339.82194,188.18889 339.59314,189.54534 339.25036,190.87831 C 338.87251,192.2983 338.27614,193.64136 337.61722,194.94964 C 336.86979,196.40856 335.95492,197.76933 335.00819,199.10401 C 333.98929,200.52794 332.86417,201.8696 331.72067,203.19373 C 330.58493,204.50617 329.41058,205.78435 328.2224,207.04915 C 327.0639,208.29504 325.84958,209.48671 324.63915,210.68143 C 323.41877,211.88483 322.12976,213.01442 320.83502,214.13634 C 319.51212,215.27334 318.17321,216.3914 316.82182,217.49451 C 315.43401,218.61731 314.01028,219.69498 312.59179,220.77834 C 311.15744,221.87988 309.7064,222.95908 308.25756,224.04139 C 306.82759,225.10491 305.4209,226.19894 304.00864,227.28587 C 302.6242,228.34773 301.24465,229.41616 299.8705,230.49154 C 298.51001,231.56836 297.16485,232.66417 295.80907,233.74687 C 294.52614,234.78416 293.24944,235.82914 291.98252,236.88621 C 290.78793,237.86376 289.62505,238.87845 288.47244,239.90495 C 287.35761,240.90316 286.27667,241.93799 285.22371,243.00096 C 284.23196,244.00798 283.24341,245.0182 282.27223,246.04507 C 281.31741,247.04832 280.39563,248.0816 279.4752,249.11622 C 278.59877,250.10216 277.74882,251.11089 276.90275,252.12287 C 276.09596,253.08618 275.32407,254.07801 274.55033,255.06789 C 273.80964,256.0155 273.09609,256.98292 272.39317,257.95859 C 271.72244,258.89158 271.07246,259.83907 270.42349,260.78712 C 270.00332,261.40355 270.21155,261.09466 269.79863,261.71375 L 261.07217,267.58071 C 261.48391,266.95632 261.27568,267.26744 261.69686,266.64743 C 262.35443,265.69858 263.0007,264.7419 263.6748,263.80452 C 264.38582,262.82653 265.09178,261.84523 265.83989,260.89486 C 266.61548,259.89943 267.39226,258.90446 268.1977,257.93284 C 269.05305,256.9176 269.90249,255.89722 270.78482,254.90492 C 271.70997,253.8716 272.62466,252.82863 273.58118,251.82391 C 274.55438,250.78721 275.55068,249.77256 276.54935,248.76043 C 277.60146,247.68756 278.68426,246.64555 279.8001,245.63896 C 280.95659,244.60514 282.11998,243.57877 283.3235,242.59953 C 284.59716,241.53252 285.88516,240.48298 287.17501,239.43546 C 288.53129,238.35131 289.88133,237.25966 291.23795,236.17583 C 292.61126,235.09472 293.99603,234.02836 295.38148,232.96281 C 296.79813,231.87664 298.20347,230.77551 299.6358,229.70981 C 301.0838,228.62708 302.53754,227.55176 303.97104,226.44978 C 305.38735,225.37032 306.80686,224.29388 308.19703,223.18073 C 309.5469,222.08066 310.88615,220.96802 312.20837,219.83459 C 313.50193,218.71642 314.79364,217.59519 316.01773,216.40042 C 317.22884,215.20627 318.4472,214.01833 319.60941,212.77614 C 320.80332,211.51189 321.9856,210.2362 323.12674,208.92373 C 324.26821,207.60901 325.39721,206.28148 326.41644,204.868 C 327.35441,203.55543 328.26304,202.21725 329.00609,200.78223 C 329.66535,199.49921 330.25918,198.18065 330.6458,196.78653 C 331.00241,195.4779 331.24183,194.14238 331.29106,192.78389 C 331.35294,191.45153 331.3494,190.11712 331.25194,188.78616 C 331.15314,187.46539 330.98352,186.1499 330.68053,184.85893 C 330.36153,183.5734 329.9943,182.30021 329.49522,181.07124 C 328.98754,179.79131 328.43704,178.52657 327.75485,177.32819 C 327.0585,176.10811 326.31949,174.91081 325.43059,173.81894 C 324.49415,172.69579 323.50172,171.62172 322.38267,170.67575 C 321.20815,169.67965 319.98237,168.74071 318.64093,167.97735 C 317.19326,167.16701 315.70193,166.43596 314.13033,165.89454 C 312.4252,165.30725 310.68955,164.81449 308.91243,164.49491 C 307.0043,164.14932 305.07981,163.89448 303.14352,163.77285 C 301.12629,163.66829 299.10468,163.64799 297.08796,163.78153 C 295.00465,163.92648 292.92605,164.14318 290.86566,164.48855 C 288.77105,164.84985 286.68385,165.25459 284.62566,165.78965 C 282.58888,166.31758 280.56609,166.9 278.57062,167.56823 C 276.66805,168.21887 274.77728,168.90899 272.94434,169.73888 C 271.23955,170.51787 269.54555,171.32681 267.92692,172.275 C 266.46037,173.14682 265.02568,174.0689 263.63264,175.05483 C 260.36283,177.35368 262.766,175.66942 270.70675,169.89407 C 270.91734,169.7409 270.28489,170.19933 270.07481,170.35337 C 269.47254,170.79529 268.87618,171.24519 268.28706,171.70458 C 267.20409,172.55735 266.12551,173.41689 265.09498,174.33309 C 264.17135,175.14183 263.258,175.96319 262.37652,176.81803 C 261.63498,177.53579 260.90862,178.26908 260.18411,179.00411 C 259.63361,179.58836 259.07164,180.1656 258.58031,180.80167 C 258.21359,181.27044 257.85345,181.74433 257.46531,182.19557 C 257.23095,182.47919 256.99641,182.76356 256.78751,183.06692 L 247.84826,189.05445 z" />
    <path
       style="opacity:1;fill:#000000;fill-opacity:1;fill-rule:nonzero;stroke:none;stroke-width:1.05799997;stroke-linecap:butt;stroke-linejoin:miter;marker:none;marker-start:none;marker-mid:none;marker-end:none;stroke-miterlimit:4.0999999;stroke-dasharray:none;stroke-dashoffset:0;stroke-opacity:1;visibility:visible;display:inline;overflow:visible;enable-background:accumulate"
       id="path5190"
       d="M 260.49351,199.89625 C 260.69162,199.57942 260.88687,199.26097 261.09004,198.94722 C 261.38611,198.49281 261.68185,198.03819 261.9813,197.58588 C 262.34027,197.03233 262.71356,196.48847 263.08855,195.94572 C 263.53317,195.30508 264.00291,194.68259 264.47012,194.05844 C 264.96802,193.40023 265.50318,192.77232 266.04728,192.15225 C 266.60722,191.50582 267.18926,190.87938 267.78545,190.26649 C 268.43712,189.60079 269.12791,188.97563 269.8278,188.36141 C 270.57861,187.70955 271.35252,187.08498 272.14261,186.48158 C 275.83007,183.83527 279.39106,180.98756 283.20682,178.52031 C 284.08847,177.95327 285.01126,177.4557 285.94619,176.98335 C 286.88804,176.5114 287.85905,176.10195 288.83765,175.71336 C 289.82873,175.32307 290.83902,174.98579 291.85455,174.66572 C 292.88339,174.34718 293.92168,174.05952 294.96941,173.81012 C 295.99387,173.57179 297.02726,173.37641 298.06639,173.21424 C 299.06945,173.04597 300.08413,172.98111 301.09813,172.92356 C 302.08415,172.86946 303.07034,172.9006 304.05551,172.95369 C 305.01607,173.02144 305.97376,173.12038 306.9264,173.26071 C 307.85357,173.37825 308.75731,173.61113 309.6452,173.89695 C 310.51167,174.18379 311.3306,174.58484 312.12002,175.03859 C 312.87673,175.4804 313.55791,176.03053 314.20553,176.61686 C 314.84338,177.20291 315.39894,177.86758 315.92398,178.55418 C 316.45341,179.25558 316.90629,180.00883 317.33354,180.77529 C 317.74208,181.53395 318.08452,182.3254 318.39038,183.1302 C 318.70483,183.93749 318.89991,184.77962 319.04576,185.63126 C 319.19379,186.50385 319.25702,187.38724 319.28788,188.27078 C 319.32059,189.13776 319.27557,190.00262 319.1948,190.86548 C 319.1132,191.70884 318.96432,192.54315 318.78947,193.37155 C 318.61699,194.17874 318.38818,194.97201 318.13831,195.75816 C 317.8886,196.54394 317.58848,197.31175 317.26795,198.07094 C 316.94119,198.83476 316.57498,199.58062 316.19898,200.32117 C 315.81978,201.0737 315.39995,201.80357 314.95162,202.51665 C 314.48424,203.25357 313.99444,203.9758 313.47833,204.67931 C 312.96171,205.39342 312.39755,206.0707 311.83491,206.74859 C 311.27243,207.44104 310.65971,208.08929 310.0416,208.7318 C 309.40611,209.38627 308.74736,210.0174 308.08136,210.64053 C 307.4039,211.2692 306.71446,211.88509 306.01254,212.48621 C 305.28382,213.09611 304.54583,213.69485 303.80024,214.28384 C 303.04218,214.87245 302.26844,215.4403 301.49369,216.0066 C 297.75295,218.47822 294.32414,221.43457 290.53098,223.8426 C 289.68575,224.4073 288.79061,224.88864 287.90879,225.39149 C 287.02832,225.89098 286.12205,226.34244 285.22068,226.8024 C 284.31171,227.25778 283.39735,227.70169 282.48417,228.14845 C 281.56695,228.57852 280.65461,229.01869 279.72811,229.42862 C 278.7979,229.84508 277.83464,230.17896 276.88386,230.54403 C 275.93393,230.89516 274.98568,231.25105 274.03389,231.59693 L 282.31978,225.07126 C 283.26921,224.722 284.21898,224.37371 285.16537,224.01685 C 286.11784,223.6592 287.073,223.3069 288.00001,222.88598 C 288.92178,222.46971 289.83479,222.03399 290.74764,221.59823 C 291.66065,221.14991 292.57703,220.70841 293.48313,220.24591 C 294.38181,219.78463 295.28571,219.33205 296.16062,218.82615 C 297.04615,218.32695 297.92948,217.82354 298.77641,217.26008 C 302.14772,215.07171 307.34927,211.05142 292.66555,221.80573 C 293.44351,221.24312 294.2159,220.67307 294.97986,220.09143 C 295.7273,219.51069 296.45973,218.91084 297.19048,218.30923 C 297.89795,217.71811 298.58251,217.10031 299.26436,216.47982 C 299.92665,215.85631 300.59467,215.23893 301.22864,214.58603 C 301.85046,213.95225 302.46504,213.31031 303.03223,212.62654 C 303.59117,211.94772 304.16848,211.28268 304.68493,210.5701 C 305.2093,209.87813 305.6986,209.16089 306.16615,208.4294 C 306.62206,207.72975 307.03886,207.00669 307.42362,206.26537 C 307.79776,205.52768 308.17325,204.79075 308.50575,204.03294 C 308.82492,203.28029 309.13718,202.52424 309.38689,201.7449 C 309.64908,200.96876 309.87906,200.18104 310.05964,199.38171 C 310.24865,198.56374 310.4009,197.73647 310.49195,196.90152 C 310.58738,196.05042 310.63678,195.19533 310.61031,194.33857 C 310.59716,193.46742 310.53949,192.59604 310.39415,191.73604 C 310.25505,190.90332 310.07667,190.07775 309.76913,189.28838 C 309.47389,188.49434 309.14325,187.71444 308.74247,186.96695 C 308.33495,186.2078 307.87971,185.47457 307.36124,184.78552 C 306.84631,184.11542 306.30137,183.46687 305.67567,182.89614 C 305.04254,182.32737 304.37688,181.79418 303.63754,181.36774 C 302.86379,180.92875 302.06105,180.54423 301.2111,180.27417 C 300.33434,180.00239 299.44106,179.79053 298.52906,179.67472 C 297.58502,179.54091 296.63643,179.44448 295.68464,179.38468 C 294.70908,179.33946 293.73199,179.31887 292.75626,179.37615 C 291.74967,179.43922 290.74342,179.51815 289.7483,179.68763 C 288.71659,179.85472 287.69061,180.05503 286.67391,180.29777 C 285.6314,180.55382 284.59784,180.84539 283.57439,181.16991 C 282.56241,181.49632 281.55548,181.84028 280.56896,182.23821 C 279.59491,182.63427 278.62896,183.05154 277.69318,183.53226 C 276.76449,184.01333 275.84844,184.5202 274.97421,185.09579 C 274.53836,185.38359 274.10622,185.67569 273.6788,185.97579 C 273.53852,186.07424 273.12071,186.37369 273.25914,186.27284 C 282.02202,179.89436 284.01513,178.40874 280.95456,180.68635 C 280.16211,181.27759 279.39157,181.89724 278.63941,182.53894 C 277.94373,183.14561 277.25244,183.75779 276.60044,184.4119 C 276.00677,185.01726 275.42204,185.63198 274.869,186.27517 C 274.31951,186.88653 273.78485,187.51054 273.27954,188.15916 C 272.81536,188.76853 272.36299,189.38738 271.92208,190.01374 C 271.55266,190.55103 271.17919,191.08565 270.82984,191.63624 C 270.53966,192.07565 270.25775,192.52057 269.97971,192.9676 C 269.78244,193.26796 269.59546,193.57439 269.41505,193.88489 L 260.49351,199.89625 z" />
    <path
       style="opacity:1;fill:url(#radialGradient4914);fill-opacity:1;fill-rule:nonzero;stroke:none;stroke-width:1.05799997;stroke-linecap:butt;stroke-linejoin:miter;marker:none;marker-start:none;marker-mid:none;marker-end:none;stroke-miterlimit:4.0999999;stroke-dasharray:none;stroke-dashoffset:0;stroke-opacity:1;visibility:visible;display:inline;overflow:visible;enable-background:accumulate"
       id="path5255"
       d="M 109.28,170.08237 C 111.98848,166.81316 95.318774,180.95076 100.42438,176.39336 C 101.07275,175.82051 101.64644,175.17322 102.20654,174.51596 C 102.93389,173.67202 103.61923,172.7934 104.26911,171.88875 C 105.06565,170.81288 105.72428,169.64691 106.35284,168.46785 C 107.10473,167.06767 107.66885,165.5845 108.14712,164.0724 C 108.7008,162.29098 109.01811,160.4497 109.2704,158.60511 C 109.54138,156.52897 109.63132,154.43918 109.61715,152.34749 C 109.59027,150.03675 109.34704,147.7373 109.02642,145.45119 C 108.65632,143.00402 108.16452,140.57748 107.63617,138.16024 C 107.09127,135.65834 106.48863,133.16985 105.89269,130.67984 C 105.27683,128.17078 104.6581,125.66247 104.11627,123.13621 C 103.57122,120.65701 103.1836,118.14856 102.89146,115.62824 C 102.5997,113.05245 102.53793,110.46119 102.58074,107.87185 C 102.66759,105.1452 102.93484,102.42832 103.28316,99.723934 C 103.65119,96.917444 104.20497,94.141304 104.80244,91.376174 C 105.38246,88.655014 106.10396,85.969054 106.87232,83.296134 C 107.58084,80.744984 108.48054,78.255654 109.44199,75.790854 C 110.36176,73.460348 111.45594,71.206068 112.63254,68.996048 C 113.77008,66.828538 115.10976,64.780258 116.53018,62.790138 C 117.93533,60.823298 119.54113,59.014998 121.17953,57.242308 C 122.75446,55.562498 124.41911,53.974168 126.1628,52.471478 C 131.10959,48.523039 136.21528,44.753189 141.52993,41.312639 C 143.3828,40.111859 145.32891,39.070179 147.31256,38.104979 C 149.18885,37.206869 151.13069,36.459609 153.10631,35.812989 C 155.04418,35.195089 157.04643,34.830749 159.05627,34.546129 C 161.01167,34.284319 162.98706,34.257209 164.95512,34.337619 C 166.85691,34.423799 168.73607,34.732399 170.59371,35.134259 C 172.40041,35.527199 174.14857,36.131009 175.87727,36.777709 C 177.59328,37.434509 179.22555,38.281169 180.81263,39.201589 C 182.35647,40.103659 183.78281,41.185089 185.15356,42.328579 C 186.49128,43.429259 187.65779,44.705679 188.74679,46.047119 C 189.78328,47.322919 190.6245,48.735428 191.3698,50.195858 C 192.08487,51.635098 192.5435,53.170208 192.9027,54.730438 C 193.23914,56.273868 193.26331,57.850558 193.13571,59.417768 C 192.99981,60.995328 192.55635,62.514788 192.03148,64.000698 C 191.49234,65.514348 190.72516,66.927868 189.89894,68.300518 C 189.06608,69.673638 188.06,70.922728 186.99133,72.116578 C 185.96217,73.253808 184.83501,74.293174 183.65713,75.273154 C 179.26236,78.661394 174.92027,82.189124 170.12737,84.995244 C 168.99847,85.667884 167.76952,86.125654 166.51162,86.487214 C 165.29008,86.835884 164.03031,87.009624 162.77127,87.153894 C 161.54231,87.280184 160.30648,87.289104 159.07423,87.219434 C 157.90068,87.149844 156.74949,86.914634 155.61879,86.603434 C 154.58957,86.313914 153.62103,85.864874 152.68839,85.349044 C 151.81462,84.867104 151.04479,84.243944 150.34735,83.535614 C 149.69424,82.847074 149.20218,82.041814 148.8049,81.185324 C 148.42366,80.317814 148.18066,79.400074 148.013,78.469974 C 147.83394,77.528354 147.81695,76.574024 147.88157,75.621144 C 147.94548,74.692374 148.20117,73.799578 148.48342,72.918088 C 148.77082,72.063908 149.13461,71.238858 149.56039,70.445318 C 149.99903,69.652428 150.54415,68.930278 151.13452,68.245848 C 151.74486,67.550358 152.4508,66.952258 153.18186,66.389138 C 157.88964,64.388078 161.16932,59.790568 165.78997,57.516178 C 165.93115,57.451978 166.07233,57.387778 166.21351,57.323578 L 156.02957,64.722648 C 155.88878,64.786568 155.74798,64.850478 155.60719,64.914398 C 151.41725,66.964588 145.95504,72.387388 163.36464,58.990918 C 162.63547,59.552698 161.9316,60.149598 161.32298,60.843498 C 160.73382,61.526798 160.19089,62.247748 159.75361,63.039518 C 159.32529,63.834458 158.96031,64.661298 158.67008,65.517048 C 158.38783,66.401128 158.12831,67.294868 158.06023,68.225918 C 157.99753,69.178568 158.00932,70.133718 158.19152,71.074848 C 158.36169,72.004638 158.60554,72.920538 158.98524,73.788878 C 159.39043,74.640794 159.87322,75.450974 160.52128,76.143824 C 161.21281,76.854294 161.9829,77.478604 162.84936,77.966664 C 163.7746,78.485564 164.73517,78.940164 165.75686,79.237694 C 166.87877,79.556844 168.0223,79.794984 169.18908,79.870574 C 170.41986,79.939374 171.65396,79.936414 172.88149,79.808394 C 174.13759,79.666774 175.39445,79.497274 176.61282,79.148264 C 177.86654,78.789884 179.09108,78.335234 180.21603,77.665404 C 180.76992,77.342104 180.82143,77.321724 181.36133,76.967204 C 181.5565,76.839044 182.12984,76.436684 181.94125,76.574354 C 165.35533,88.681904 170.19686,85.265724 173.60516,82.576334 C 174.79082,81.591704 175.92463,80.546254 176.9613,79.403814 C 178.03191,78.209634 179.04087,76.960204 179.87305,75.584754 C 180.70093,74.214278 181.46278,72.799348 182.00243,71.287218 C 182.52772,69.803938 182.96059,68.284748 183.09837,66.710318 C 183.2296,65.140188 183.2056,63.563908 182.8751,62.015918 C 182.52038,60.454088 182.0538,58.921908 181.34355,57.480358 C 180.60721,56.014968 179.77014,54.598588 178.74279,53.315448 C 177.66407,51.967348 176.49484,50.693148 175.1663,49.584738 C 173.79855,48.440749 172.37501,47.359169 170.83947,46.447509 C 169.25412,45.524099 167.62164,44.679799 165.90593,44.022309 C 164.17802,43.381329 162.43674,42.769399 160.63383,42.370539 C 158.7795,41.968699 156.90429,41.656759 155.00596,41.566109 C 153.04378,41.480929 151.07344,41.500889 149.12356,41.762669 C 147.11505,42.041449 145.11554,42.405409 143.18022,43.024719 C 141.21463,43.666179 139.28173,44.405039 137.41444,45.296379 C 135.4394,46.256139 133.50051,47.289779 131.65661,48.486029 C 128.02234,50.837698 122.74614,54.826848 138.7138,43.211669 C 141.53573,41.158939 133.11922,47.158769 136.0322,45.300939 C 134.28099,46.809659 132.6085,48.403829 131.02522,50.088988 C 129.38015,51.863478 127.76934,53.675468 126.36125,55.647448 C 124.93868,57.640778 123.59578,59.691548 122.45336,61.860798 C 121.27241,64.077938 120.16962,66.337788 119.23904,68.672888 C 118.26523,71.146008 117.34907,73.642408 116.63319,76.204454 C 115.85884,78.883154 115.1187,81.572184 114.54012,84.301334 C 113.94312,87.061664 113.38729,89.832744 113.03732,92.637124 C 112.69516,95.334764 112.43421,98.044444 112.36345,100.7643 C 112.33559,103.34847 112.40363,105.93327 112.69795,108.5034 C 112.99188,111.02461 113.38379,113.53287 113.91713,116.01547 C 114.45677,118.54294 115.0626,121.05545 115.6883,123.56291 C 116.2947,126.04771 116.89082,128.53503 117.44823,131.03137 C 117.98477,133.44122 118.48033,135.86181 118.86861,138.30041 C 119.20265,140.57498 119.46636,142.86243 119.50472,145.16376 C 119.53665,147.23997 119.47253,149.31428 119.21833,151.37752 C 118.97872,153.20563 118.67664,155.03095 118.15356,156.8023 C 117.69352,158.29766 117.15484,159.76771 116.42038,161.15335 C 115.80957,162.31942 115.16954,163.47305 114.38894,164.53626 C 113.75737,165.42716 113.09037,166.29217 112.38164,167.12332 C 111.84362,167.76443 111.29069,168.3947 110.66511,168.95304 C 107.06019,172.19522 102.65811,174.4824 98.959034,177.581 L 109.28,170.08237 z" />
    <path
       style="opacity:1;fill:#c0b79f;fill-opacity:1;fill-rule:nonzero;stroke:none;stroke-width:1.05799997;stroke-linecap:butt;stroke-linejoin:miter;marker:none;marker-start:none;marker-mid:none;marker-end:none;stroke-miterlimit:4.0999999;stroke-dasharray:none;stroke-dashoffset:0;stroke-opacity:1;visibility:visible;display:inline;overflow:visible;enable-background:accumulate"
       id="path5269"
       d="M 211.06681,163.98954 C 211.40663,163.58314 211.75425,163.18336 212.10928,162.79013 C 212.63916,162.19222 213.18965,161.61249 213.75219,161.04529 C 214.42521,160.36077 215.13464,159.71452 215.8538,159.07925 C 219.85806,155.68285 224.31273,152.77168 228.53115,149.71116 C 229.55274,149.0067 230.62464,148.38075 231.70438,147.77089 C 232.89075,147.088 234.13267,146.51374 235.39233,145.98152 C 236.8075,145.396 238.26928,144.93581 239.73592,144.49966 C 241.37131,144.02463 243.0208,143.60209 244.67114,143.18298 C 246.45853,142.73824 248.24318,142.28224 250.02332,141.80929 C 251.8104,141.33451 253.57705,140.79104 255.32162,140.17899 C 256.92283,139.61518 258.46314,138.90231 259.96745,138.11975 C 258.89062,139.18217 263.25889,135.90139 261.90245,136.88026 C 245.52839,148.69666 250.41978,145.92483 253.3915,142.74751 C 254.27185,141.76683 254.86751,140.6136 255.23631,139.35719 C 255.58521,138.12726 255.57109,136.88091 255.40616,135.6269 C 255.15522,134.16346 254.54117,132.80852 253.88755,131.48793 C 253.0463,129.88469 252.07876,128.35137 251.14755,126.79952 C 250.05024,125.05382 248.97511,123.29509 247.92744,121.51918 C 246.79127,119.61859 245.75059,117.66369 244.75737,115.68535 C 243.72175,113.6344 242.84997,111.5108 242.07918,109.34825 C 241.3087,107.14657 240.79013,104.87162 240.37435,102.58004 C 239.98502,100.30355 239.8647,97.998234 239.8656,95.692604 C 239.88187,93.425804 240.23804,91.189534 240.73009,88.983324 C 241.22488,86.812254 242.04497,84.741484 242.98281,82.728714 C 243.90938,80.760454 245.10822,78.950444 246.43365,77.232644 C 250.44701,72.443288 256.19741,69.199818 261.12776,65.627478 C 263.07901,64.326478 265.26825,63.478908 267.48657,62.759968 C 269.83648,62.017748 272.27103,61.629358 274.71342,61.354528 C 277.16928,61.101558 279.63537,61.131668 282.09546,61.280188 C 284.46443,61.435668 286.7956,61.883818 289.08805,62.483998 C 291.27217,63.081398 293.3205,64.038518 295.28062,65.156508 C 297.10213,66.207788 298.72005,67.541398 300.19169,69.034548 C 301.50325,70.412728 302.52286,72.014628 303.40619,73.689788 C 304.185,75.209464 304.68412,76.837024 305.00753,78.507574 C 305.27897,80.062774 305.20517,81.636924 304.97155,83.189494 C 304.73927,84.650854 304.21374,86.031654 303.59853,87.368854 C 303.00249,88.651544 302.14679,89.763154 301.1594,90.764504 C 296.97969,94.348494 292.52383,97.660974 287.80496,100.50353 C 286.7073,101.15406 285.52815,101.62914 284.31533,102.01314 C 283.16347,102.36673 281.97597,102.50198 280.7759,102.49539 C 279.60313,102.47743 278.45707,102.23466 277.34099,101.89074 C 276.26781,101.54894 275.29289,100.98925 274.36845,100.35687 C 273.50031,99.753654 272.79213,98.970594 272.17608,98.119164 C 271.65023,97.345424 271.32738,96.478074 271.1154,95.573544 C 270.92499,94.726204 270.99428,93.871234 271.13604,93.024674 C 271.22645,92.488284 271.39911,91.973234 271.578,91.461504 L 281.79661,84.037244 C 281.608,84.550884 281.43219,85.069934 281.33979,85.611214 C 281.1997,86.459454 281.12074,87.316044 281.31153,88.165624 C 281.51858,89.074454 281.82246,89.950214 282.34231,90.732974 C 282.94825,91.591114 283.64884,92.376684 284.51076,92.988054 C 285.43253,93.620594 286.40469,94.181434 287.47343,94.529094 C 288.58594,94.876714 289.72896,95.118384 290.89912,95.140454 C 292.09591,95.145424 293.28239,95.015074 294.43156,94.663274 C 295.63727,94.287754 296.807,93.814714 297.89749,93.170884 C 301.58936,90.950504 306.22774,87.251764 289.48814,99.405934 C 287.95174,100.52147 292.67335,97.194344 291.0815,98.086524 C 292.07293,97.082394 292.93255,95.967624 293.53312,94.681804 C 294.15672,93.339774 294.6872,91.954294 294.92817,90.486434 C 295.17084,88.929184 295.25036,87.350144 294.98742,85.787604 C 294.67664,84.109144 294.19247,82.471304 293.43172,80.936654 C 292.56418,79.251934 291.55529,77.644334 290.25567,76.253484 C 288.80842,74.744104 287.20697,73.395788 285.39438,72.339278 C 283.44311,71.217948 281.40789,70.244988 279.22935,69.646768 C 276.94734,69.035818 274.62312,68.588738 272.2626,68.424178 C 269.80882,68.270378 267.34861,68.236258 264.89841,68.485548 C 262.44782,68.763958 260.00656,69.162168 257.64894,69.907428 C 255.4138,70.633708 253.21064,71.496238 251.24495,72.807768 C 268.45221,60.264968 259.43079,66.126438 256.33221,70.040928 C 255.00325,71.761558 253.79832,73.573988 252.86907,75.545924 C 251.9268,77.560274 251.1032,79.632404 250.60762,81.806874 C 250.11206,84.015294 249.74772,86.254194 249.73206,88.524194 C 249.72255,90.831744 249.84584,93.138994 250.23253,95.417654 C 250.64904,97.709484 251.15711,99.987434 251.9351,102.18751 C 252.7116,104.34604 253.59297,106.46442 254.63085,108.51185 C 255.62982,110.4856 256.67839,112.43511 257.8287,114.32549 C 258.89046,116.09142 259.97602,117.84206 261.09336,119.57346 C 262.04466,121.10985 263.0428,122.61963 263.91124,124.20529 C 264.58402,125.50687 265.23548,126.83694 265.50413,128.29029 C 265.68816,129.54283 265.6966,130.78561 265.34231,132.01475 C 264.96379,133.27964 264.36139,134.43963 263.46961,135.42532 C 259.62237,139.50954 254.68438,142.44163 249.94162,145.40395 C 248.45266,146.17537 246.92766,146.87649 245.34246,147.42928 C 243.60303,148.03515 241.84253,148.57404 240.06199,149.04662 C 238.27334,149.52338 236.48061,149.98478 234.68579,150.43776 C 233.02215,150.86711 231.35823,151.29554 229.7105,151.78355 C 228.22931,152.22891 226.75329,152.69845 225.32503,153.29584 C 224.0566,153.8353 222.80561,154.41585 221.61013,155.10479 C 220.51674,155.72483 219.43042,156.35956 218.39577,157.07494 C 235.77008,144.43218 229.59962,148.63343 226.02004,151.69305 C 225.31161,152.32043 224.61228,152.95814 223.95086,153.63552 C 223.40424,154.18916 222.87022,154.7561 222.35936,155.343 C 222.02743,155.71616 221.70511,156.09785 221.3926,156.48742 L 211.06681,163.98954 z" />
    <path
       style="opacity:1;fill:#c0b79f;fill-opacity:1;fill-rule:nonzero;stroke:none;stroke-width:1.05799997;stroke-linecap:butt;stroke-linejoin:miter;marker:none;marker-start:none;marker-mid:none;marker-end:none;stroke-miterlimit:4.0999999;stroke-dasharray:none;stroke-dashoffset:0;stroke-opacity:1;visibility:visible;display:inline;overflow:visible;enable-background:accumulate"
       id="path5273"
       d="M 197.8541,152.24507 C 198.27486,151.98983 198.71234,151.76434 199.14378,151.52813 C 199.85626,151.1207 200.55841,150.6946 201.24623,150.24682 C 207.63666,145.68304 188.32868,160.18965 193.76117,155.63309 C 194.7686,154.80001 195.61243,153.80862 196.39695,152.76944 C 197.22706,151.65787 197.9394,150.46916 198.52623,149.21334 C 199.14993,147.84692 199.44875,146.38276 199.62361,144.90049 C 199.80245,143.13545 199.57502,141.37809 199.28837,139.63911 C 198.93876,137.64988 198.4231,135.69436 197.8665,133.75445 C 197.22061,131.54724 196.45261,129.37865 195.66683,127.21817 C 194.75827,124.69722 193.73003,122.22202 192.73068,119.7363 C 191.61749,117.00829 190.54848,114.26336 189.50633,111.50755 C 188.43866,108.71406 187.48307,105.88076 186.58196,103.02986 C 185.6589,100.19507 184.92152,97.309244 184.30112,94.394884 C 183.68322,91.539624 183.38808,88.636494 183.26213,85.722514 C 183.13952,82.871194 183.41844,80.035504 183.89847,77.229284 C 184.40503,74.468714 185.24681,71.787028 186.29887,69.189708 C 187.40624,66.517978 188.99395,64.099138 190.70332,61.781438 C 192.55651,59.329818 194.68751,57.113288 196.85847,54.945658 C 199.0848,52.737008 201.46519,50.695198 203.89465,48.715448 C 209.47005,44.428679 215.12983,40.236139 220.98856,36.342629 C 223.34152,34.791359 225.75319,33.332619 228.18532,31.909709 C 230.37643,30.625909 232.65809,29.513449 235.00509,28.547749 C 237.11154,27.690219 239.29519,27.060909 241.50968,26.557029 C 243.43767,26.138019 245.40141,25.962399 247.37109,25.959089 C 249.03837,25.980579 250.63694,26.383479 252.1458,27.071899 C 253.41093,27.693159 254.41376,28.627179 255.16566,29.807419 C 255.83363,30.997939 255.83928,32.295649 255.64647,33.607089 C 255.36851,35.178629 254.6699,36.617869 253.94158,38.021919 C 253.06859,39.654179 251.97357,41.148629 250.80896,42.581719 C 249.52916,44.122609 248.12111,45.547359 246.66705,46.922259 C 242.11704,51.015318 236.90486,54.388228 231.9828,57.959488 C 230.37501,59.111548 228.72834,60.206828 227.02315,61.209078 C 225.53572,62.078408 223.96802,62.793928 222.35204,63.386228 C 221.02762,63.859168 219.65027,64.133728 218.25298,64.262548 C 217.21402,64.346368 216.17774,64.297448 215.16516,64.050998 C 214.4896,63.851988 213.92611,63.479978 213.51184,62.913568 C 213.19647,62.415258 213.12843,61.882488 213.22442,61.311878 C 213.37008,60.647648 213.7509,60.084898 214.1526,59.550098 C 214.46822,59.170558 214.30561,59.357138 214.6406,58.990498 L 224.8678,51.560008 C 224.53584,51.924418 224.69686,51.738978 224.38456,52.116148 C 223.99183,52.642848 223.62632,53.198238 223.49131,53.852538 C 223.40726,54.419728 223.47004,54.957768 223.77646,55.455878 C 224.16815,56.026908 224.70749,56.416138 225.36595,56.639688 C 226.34231,56.909868 227.34751,56.986408 228.35906,56.920048 C 229.73165,56.809338 231.08621,56.553398 232.38811,56.094588 C 233.97849,55.524178 235.51876,54.824418 236.98079,53.974428 C 238.6758,52.980798 240.31129,51.892468 241.90841,50.748118 C 224.53585,63.390158 233.13497,57.469148 236.74146,54.133628 C 238.18743,52.764288 239.58941,51.346818 240.85955,49.810388 C 242.00861,48.391359 243.08238,46.908219 243.93775,45.290129 C 244.64274,43.902749 245.32157,42.482159 245.5674,40.929969 C 245.73777,39.622199 245.71366,38.332999 245.07204,37.140869 C 244.33018,35.958919 243.34616,35.015049 242.09429,34.374749 C 240.61704,33.662949 239.04398,33.243559 237.39566,33.206669 C 235.45208,33.189309 233.51331,33.347789 231.60842,33.750709 C 229.41548,34.234969 227.25493,34.852669 225.16936,35.693819 C 222.84357,36.643849 220.58335,37.741669 218.41276,39.009889 C 216.00256,40.416729 213.61273,41.859369 211.28182,43.394989 C 207.73865,45.748399 201.76879,50.205328 217.26497,38.893189 C 217.67866,38.591199 216.43481,39.493359 216.02321,39.798169 C 214.79434,40.708209 214.76796,40.743169 213.5651,41.689459 C 211.13538,43.668839 208.75445,45.710209 206.52892,47.919659 C 204.36919,50.077808 202.25093,52.286278 200.41022,54.728958 C 198.71455,57.035988 197.14958,59.448268 196.05059,62.104658 C 194.99944,64.706958 194.13543,67.387568 193.6357,70.154778 C 193.15277,72.962278 192.87491,75.800984 192.99128,78.653874 C 193.10942,81.573044 193.3906,84.481704 194.00761,87.342704 C 194.62344,90.258954 195.36292,93.145434 196.28219,95.982234 C 197.18459,98.832674 198.14161,101.66589 199.20564,104.46059 C 200.25125,107.21053 201.33243,109.94592 202.47298,112.65811 C 203.49593,115.12504 204.54542,117.58178 205.49287,120.07914 C 206.31089,122.21717 207.10897,124.36493 207.77359,126.55653 C 208.34779,128.4823 208.87819,130.4249 209.25079,132.40098 C 209.55564,134.12094 209.80867,135.86116 209.65434,137.61274 C 209.49778,139.08402 209.22044,140.54006 208.59935,141.89479 C 208.01602,143.14765 207.3079,144.33384 206.48118,145.44282 C 205.7089,146.47219 204.87791,147.4543 203.88322,148.27899 C 199.83437,151.68146 195.41044,154.6155 191.07257,157.63841 C 190.36034,158.10383 189.63374,158.54759 188.89686,158.97295 C 188.43848,159.22759 187.97473,159.47292 187.52779,159.74757 L 197.8541,152.24507 z" />
    <path
       style="opacity:1;fill:#c0b79f;fill-opacity:1;fill-rule:nonzero;stroke:none;stroke-width:1.05799997;stroke-linecap:butt;stroke-linejoin:miter;marker:none;marker-start:none;marker-mid:none;marker-end:none;stroke-miterlimit:4.0999999;stroke-dasharray:none;stroke-dashoffset:0;stroke-opacity:1;visibility:visible;display:inline;overflow:visible;enable-background:accumulate"
       id="path5299"
       d="M 127.50803,171.84541 C 127.87066,171.47522 128.24813,171.12097 128.63863,170.78044 C 132.56113,167.6251 136.70326,164.75005 140.82703,161.8638 C 141.79414,161.17751 142.76523,160.49751 143.75004,159.8368 C 145.01977,159.00865 146.27287,158.1555 147.5301,157.3086 C 151.56914,154.59939 159.074,149.03886 141.68433,161.66715 C 143.02104,160.70073 144.2978,159.6574 145.49501,158.52324 C 146.57253,157.535 147.44344,156.38056 148.12933,155.09496 C 148.72947,153.92762 148.93495,152.6561 149.00627,151.36191 C 149.04504,150.02139 148.68293,148.74752 148.21483,147.5074 C 147.63139,146.06515 146.74284,144.78928 145.80277,143.56163 C 144.62644,142.0844 143.27838,140.75982 141.89476,139.47967 C 140.2828,138.02746 138.62041,136.6326 136.95065,135.2477 C 135.20297,133.81236 133.41028,132.43295 131.62599,131.0437 C 129.85788,129.66932 128.10673,128.27341 126.36311,126.86816 C 124.66487,125.49973 123.03526,124.04932 121.41315,122.59236 C 119.82349,121.1591 118.32686,119.62928 116.88701,118.04691 C 115.45279,116.46094 114.20292,114.7259 113.02201,112.94724 C 111.848,111.17103 110.82762,109.30547 109.89254,107.39492 C 109.00088,105.56056 108.34704,103.63062 107.81374,101.66613 C 107.30498,99.756874 107.05422,97.794774 106.95351,95.825304 C 106.86677,93.963904 107.04169,92.109834 107.28783,90.267514 C 107.51337,88.490434 107.95677,86.758094 108.4854,85.050404 C 108.99747,83.419124 109.65409,81.840574 110.36612,80.288044 C 111.0385,78.823414 111.87409,77.445964 112.78677,76.120894 C 113.64986,74.884314 114.63388,73.741408 115.6606,72.639558 C 119.68349,68.803678 124.36258,65.695778 128.99821,62.649758 C 130.13408,61.909738 131.37835,61.365758 132.64733,60.901008 C 133.88096,60.464138 135.15856,60.195738 136.45272,60.021798 C 137.71754,59.859808 138.99046,59.895778 140.25712,60.003538 C 141.51243,60.111168 142.72922,60.445338 143.92647,60.821288 C 145.11119,61.198188 146.23982,61.718718 147.34408,62.284568 C 148.45472,62.854238 149.47428,63.576308 150.46627,64.328838 C 151.45794,65.073678 152.3576,65.923688 153.20174,66.829498 C 154.03606,67.720098 154.74194,68.714248 155.40843,69.733048 C 156.03894,70.679978 156.53631,71.702878 156.98405,72.745908 C 157.39029,73.736018 157.65955,74.772764 157.83502,75.826394 C 157.99947,76.841914 157.96521,77.868764 157.85865,78.887204 C 157.73577,79.883554 157.49593,80.859084 157.19752,81.815924 C 156.88387,82.762304 156.46403,83.669384 156.00489,84.552864 C 155.54694,85.409974 155.02201,86.224554 154.4359,86.998784 C 153.85369,87.758324 153.16948,88.424444 152.43404,89.032944 C 148.21907,91.886264 144.50223,95.674334 139.85905,97.859724 C 139.03933,98.243844 138.17913,98.519034 137.30369,98.741454 C 136.43842,98.945504 135.55803,99.069554 134.67314,99.145644 C 133.79508,99.217194 132.91411,99.199294 132.03922,99.103244 C 131.23193,99.008894 130.46711,98.747794 129.73232,98.411024 C 129.0282,98.076804 128.41208,97.602924 127.83366,97.087024 C 127.26876,96.567984 126.78352,95.974714 126.35308,95.341804 C 125.97442,94.777424 125.69592,94.158094 125.48238,93.515084 C 125.29072,92.940844 125.24337,92.344664 125.25384,91.743964 C 125.28897,91.351074 125.26512,91.546644 125.32536,91.157264 L 135.58864,83.700554 C 135.52874,84.089074 135.55156,83.894214 135.52008,84.285104 C 135.50645,84.887044 135.5464,85.489494 135.73518,86.065994 C 135.93514,86.716084 136.21474,87.335834 136.5832,87.909184 C 137.0104,88.544144 137.47892,89.150844 138.05241,89.662674 C 138.63247,90.176484 139.24916,90.649424 139.95158,90.986294 C 140.68046,91.324334 141.43885,91.590314 142.24034,91.691704 C 143.11386,91.794974 143.9929,91.812094 144.8702,91.737044 C 145.75323,91.665504 146.63037,91.538224 147.49399,91.337774 C 148.36771,91.113984 149.22788,90.842044 150.04639,90.458194 C 150.46636,90.261834 150.88072,90.059434 151.27919,89.821334 C 151.41327,89.741224 151.80143,89.478884 151.67542,89.571184 C 136.84697,100.43303 138.82015,98.972894 142.25356,96.429504 C 142.9904,95.819984 143.67623,95.153274 144.25954,94.392334 C 144.84743,93.616744 145.37403,92.800894 145.83402,91.942434 C 146.29527,91.059194 146.71748,90.151664 147.02906,89.203744 C 147.3299,88.245394 147.56857,87.266984 147.6977,86.269574 C 147.8002,85.249444 147.83629,84.222944 147.67908,83.205114 C 147.50463,82.149424 147.24495,81.109294 146.83949,80.116354 C 146.39683,79.069104 145.90907,78.041534 145.28856,77.085564 C 144.62326,76.066414 143.92421,75.066624 143.08997,74.176128 C 142.2455,73.271578 141.34591,72.420748 140.35716,71.673528 C 139.36188,70.923928 138.34742,70.195498 137.23207,69.631378 C 136.12724,69.069328 135.00255,68.540488 133.8182,68.165378 C 132.62328,67.786358 131.40595,67.459208 130.15333,67.344368 C 128.88859,67.239258 127.61669,67.201118 126.35367,67.359178 C 125.06255,67.531918 123.78786,67.798118 122.55665,68.232318 C 121.29092,68.693738 120.05055,69.235828 118.9181,69.973388 C 115.10838,72.474788 117.5074,70.912538 127.85909,63.436528 C 128.04854,63.299718 127.49179,63.725598 127.31144,63.874208 C 126.90369,64.210218 126.62216,64.457908 126.23836,64.822208 C 126.06232,64.989308 125.89178,65.162118 125.71849,65.332078 C 124.68341,66.440168 123.69077,67.589218 122.81888,68.832148 C 121.89909,70.161758 121.05815,71.544258 120.37815,73.013888 C 119.65638,74.572074 118.99069,76.156944 118.47096,77.795474 C 117.94186,79.505984 117.49264,81.240714 117.26304,83.020104 C 117.0118,84.868194 116.82336,86.728394 116.90291,88.596634 C 116.99399,90.570884 117.23545,92.537604 117.7432,94.451964 C 118.27848,96.417224 118.92021,98.353714 119.80534,100.19285 C 120.73061,102.1091 121.74065,103.98171 122.92051,105.75556 C 124.10466,107.53203 125.35705,109.26501 126.78957,110.85228 C 128.2268,112.43674 129.72435,113.96475 131.31029,115.40167 C 132.92816,116.86131 134.55105,118.31643 136.24423,119.68911 C 137.98462,121.0967 139.73228,122.49535 141.49771,123.87148 C 143.28131,125.26258 145.07408,126.64227 146.82711,128.07203 C 148.50784,129.45072 150.18409,130.83604 151.81831,132.2698 C 153.22327,133.53367 154.60562,134.8303 155.81332,136.28854 C 156.77256,137.49883 157.68661,138.7543 158.29186,140.18601 C 158.77462,141.41681 159.15063,142.68185 159.1113,144.02018 C 159.03924,145.32396 158.82192,146.60101 158.20824,147.7722 C 157.50584,149.06946 156.62067,150.23544 155.52786,151.23395 C 154.31902,152.37434 153.03308,153.42662 151.68599,154.40052 C 146.98238,157.81932 142.33245,161.32867 137.51209,164.58711 C 136.233,165.44968 134.95805,166.31851 133.66672,167.16277 C 132.65303,167.84422 131.65328,168.54526 130.65743,169.25245 C 126.19701,172.37892 144.77052,158.77082 138.89416,163.32936 C 138.52509,163.65308 138.17,163.99129 137.8303,164.34584 L 127.50803,171.84541 z" />
  </g>
</svg>
