<?xml version="1.0" encoding="UTF-8" standalone="no"?>
<!-- Created with Inkscape (http://www.inkscape.org/) -->
<svg
   xmlns:dc="http://purl.org/dc/elements/1.1/"
   xmlns:cc="http://creativecommons.org/ns#"
   xmlns:rdf="http://www.w3.org/1999/02/22-rdf-syntax-ns#"
   xmlns:svg="http://www.w3.org/2000/svg"
   xmlns="http://www.w3.org/2000/svg"
   xmlns:xlink="http://www.w3.org/1999/xlink"
   xmlns:sodipodi="http://sodipodi.sourceforge.net/DTD/sodipodi-0.dtd"
   xmlns:inkscape="http://www.inkscape.org/namespaces/inkscape"
   width="400"
   height="400"
   id="svg5301"
   sodipodi:version="0.32"
   inkscape:version="0.46"
   version="1.0"
   sodipodi:docname="cup.svg"
   inkscape:output_extension="org.inkscape.output.svg.inkscape">
  <defs
     id="defs5303">
    <linearGradient
       inkscape:collect="always"
       id="linearGradient5243">
      <stop
         style="stop-color:#000000;stop-opacity:1;"
         offset="0"
         id="stop5245" />
      <stop
         style="stop-color:#000000;stop-opacity:0;"
         offset="1"
         id="stop5247" />
    </linearGradient>
    <radialGradient
       inkscape:collect="always"
       xlink:href="#linearGradient5243"
       id="radialGradient5241"
       gradientUnits="userSpaceOnUse"
       gradientTransform="matrix(3.5092626,2.6456614e-5,-1.478429e-5,1.6321661,-7132.1275,-470.79614)"
       cx="2082.905"
       cy="444.43082"
       fx="2082.905"
       fy="444.43082"
       r="28.116682" />
    <linearGradient
       inkscape:collect="always"
       id="linearGradient4849">
      <stop
         style="stop-color:#000000;stop-opacity:1;"
         offset="0"
         id="stop4851" />
      <stop
         style="stop-color:#000000;stop-opacity:0;"
         offset="1"
         id="stop4853" />
    </linearGradient>
    <radialGradient
       inkscape:collect="always"
       xlink:href="#linearGradient4849"
       id="radialGradient4914"
       gradientUnits="userSpaceOnUse"
       gradientTransform="matrix(4.7519065,1.716198e-2,-7.4616187e-3,2.0660161,-9720.4789,-696.80501)"
       cx="2163.2959"
       cy="404.60443"
       fx="2163.2959"
       fy="404.60443"
       r="28.116682" />
    <inkscape:perspective
       sodipodi:type="inkscape:persp3d"
       inkscape:vp_x="0 : 526.18109 : 1"
       inkscape:vp_y="0 : 1000 : 0"
       inkscape:vp_z="744.09448 : 526.18109 : 1"
       inkscape:persp3d-origin="372.04724 : 350.78739 : 1"
       id="perspective5309" />
  </defs>
  <sodipodi:namedview
     id="base"
     pagecolor="#ffffff"
     bordercolor="#666666"
     borderopacity="1.0"
     gridtolerance="10000"
     guidetolerance="10"
     objecttolerance="10"
     inkscape:pageopacity="0.0"
     inkscape:pageshadow="2"
     inkscape:zoom="1.4"
     inkscape:cx="211.71111"
     inkscape:cy="196.90493"
     inkscape:document-units="px"
     inkscape:current-layer="layer1"
     showgrid="false"
     inkscape:window-width="818"
     inkscape:window-height="901"
     inkscape:window-x="858"
     inkscape:window-y="49" />
  <metadata
     id="metadata5306">
    <rdf:RDF>
      <cc:Work
         rdf:about="">
        <dc:format>image/svg+xml</dc:format>
        <dc:type
           rdf:resource="http://purl.org/dc/dcmitype/StillImage" />
      </cc:Work>
    </rdf:RDF>
  </metadata>
  <g
     inkscape:label="Layer 1"
     inkscape:groupmode="layer"
     id="layer1">
    <path
       style="opacity:1;fill:#c0b79f;fill-opacity:1;fill-rule:nonzero;stroke:none;stroke-width:1.05799997;stroke-linecap:butt;stroke-linejoin:miter;marker:none;marker-start:none;marker-mid:none;marker-end:none;stroke-miterlimit:4.0999999;stroke-dasharray:none;stroke-dashoffset:0;stroke-opacity:1;visibility:visible;display:inline;overflow:visible;enable-background:accumulate"
       d="M 302.05386,185.50558 C 294.93036,185.38334 287.71097,186.84411 281.21011,189.44308 C 268.83753,193.09642 260.23776,203.24501 250.39761,210.94308 C 250.25754,210.83937 250.13258,210.73444 249.99136,210.63058 C 197.17669,191.72643 111.06454,190.91438 84.960113,233.91183 C 80.121393,279.51524 125.7284,332.1925 173.17886,338.38058 C 205.30988,350.69302 244.89591,333.21476 260.77261,302.19308 C 265.39921,293.1531 269.08454,285.10882 271.77261,277.81808 C 272.19422,278.1201 272.96913,277.92881 274.30386,276.88058 C 282.27317,267.92847 292.10334,261.09874 301.49136,253.69308 C 312.91809,244.32186 324.79466,236.83876 331.49136,224.06808 C 337.74294,212.89043 332.81428,197.86831 322.30386,191.16183 C 316.19894,187.33793 309.17737,185.62782 302.05386,185.50558 z M 296.55386,202.31808 C 300.02497,202.32108 303.47358,202.94504 306.77261,204.28683 C 318.54028,210.39281 313.51431,227.24464 305.92886,234.88058 C 299.49156,243.53561 288.91153,248.98181 279.08511,252.53683 C 278.67406,252.5267 278.28632,252.47757 277.89761,252.44308 C 277.82682,252.95903 277.72492,253.4885 277.61636,254.00558 C 277.6764,256.89401 277.04203,259.68572 276.14761,262.41183 C 279.03274,246.61676 275.29913,234.60772 264.11636,222.81808 L 264.30386,221.94308 L 265.14761,220.34933 C 271.55166,210.09939 284.15705,202.30737 296.55386,202.31808 z"
       id="path5202" />
    <path
       style="opacity:1;fill:url(#radialGradient5241);fill-opacity:1;fill-rule:nonzero;stroke:none;stroke-width:1.05799997;stroke-linecap:butt;stroke-linejoin:miter;marker:none;marker-start:none;marker-mid:none;marker-end:none;stroke-miterlimit:4.0999999;stroke-dasharray:none;stroke-dashoffset:0;stroke-opacity:1;visibility:visible;display:inline;overflow:visible;enable-background:accumulate"
       d="M 130.76367,221.78683 C 119.47083,218.03149 108.39551,235.35869 120.5082,241.76017 C 132.74334,248.44404 147.24297,244.00196 160.45978,245.96741 C 181.99026,248.86371 204.91638,254.2238 225.8003,245.34843 C 233.67016,245.64276 243.50973,239.39455 237.61268,230.65256 C 230.35136,219.22071 215.18011,219.68148 203.24759,218.38263 C 188.96788,217.7974 174.64438,217.32674 160.36903,217.30173 C 150.3942,217.98397 140.58664,220.03243 130.7637,221.78683"
       id="path5218" />
    <path
       d="M 190.08649,218.42539 C 188.41711,218.39263 186.74722,218.40581 185.07766,218.41733 C 181.52678,218.44724 177.97759,218.5798 174.42958,218.7186 C 169.64011,218.89901 164.86412,219.29955 160.09219,219.72982 C 155.29277,220.1711 150.50802,220.75529 145.73321,221.40819 C 141.47856,221.9716 137.24769,222.69425 133.02828,223.47526 C 129.41434,224.123 125.85706,225.02781 122.33012,226.03912 C 119.43917,226.85463 116.63944,227.93139 113.91153,229.18121 C 112.80311,229.71366 111.73548,230.32958 110.7203,231.02347 C 110.41613,231.23138 109.53228,231.89521 109.82414,231.67032 C 119.91903,223.89035 122.30264,221.64057 118.69089,224.98865 C 117.54284,226.08976 116.86386,227.43376 116.62342,228.99214 C 116.49646,230.52965 117.13312,231.78022 118.07328,232.93909 C 119.55551,234.52104 121.48388,235.52393 123.41258,236.44999 C 126.13138,237.69258 129.00446,238.53387 131.88091,239.31961 C 135.4038,240.255 138.99716,240.88488 142.58935,241.48398 C 146.46699,242.11376 150.36149,242.63141 154.25869,243.12224 C 158.22081,243.6222 162.19287,244.03163 166.17117,244.37581 C 170.24591,244.71742 174.32639,244.98522 178.40771,245.2333 C 182.43861,245.4802 186.47491,245.62172 190.51054,245.76308 C 194.35564,245.89135 198.20243,245.89753 202.04888,245.8588 C 205.60228,245.81649 209.15047,245.62266 212.69494,245.37993 C 215.95261,245.14653 219.20337,244.83056 222.44333,244.41995 C 225.20412,244.07027 227.93286,243.52631 230.63092,242.8511 C 232.82603,242.30402 234.95538,241.54441 237.03768,240.66731 C 238.72376,239.9379 240.31558,239.01937 241.82328,237.97402 C 245.66062,235.11922 244.80679,235.74908 232.64528,245.04397 C 232.44734,245.19527 233.03038,244.72776 233.21821,244.56407 C 233.7505,244.1003 234.24014,243.60259 234.72202,243.08781 C 235.55174,242.20115 236.19768,241.18005 236.72896,240.09378 C 237.16245,239.17291 237.40592,238.18912 237.49613,237.17909 C 237.56745,236.20978 237.34573,235.27446 237.0483,234.36084 C 236.70755,233.41054 236.19313,232.55092 235.58647,231.74977 C 234.89097,230.87307 234.01269,230.1721 233.11671,229.51248 C 232.04403,228.73179 230.85011,228.15596 229.65738,227.58757 C 228.24361,226.91878 226.76694,226.39937 225.28437,225.90715 C 223.65545,225.39383 222.01018,224.9323 220.36136,224.48734 C 218.60953,224.03431 216.8555,223.58983 215.09321,223.17949 C 213.24932,222.75456 211.40408,222.33801 209.55023,221.95969 C 207.60248,221.57965 205.65405,221.20268 203.69971,220.85813 C 201.60358,220.51059 199.50762,220.1621 197.4071,219.84151 C 195.25567,219.51591 193.09698,219.24128 190.93729,218.97795 C 188.84959,218.72482 186.75801,218.50377 184.66558,218.29435 C 183.30138,218.16239 183.98255,218.22716 182.62189,218.10003 L 192.79855,209.85298 C 194.15736,209.98397 193.47719,209.91725 194.83921,210.05315 C 196.92843,210.26877 199.0163,210.49629 201.10046,210.75628 C 203.26066,211.02708 205.41934,211.31184 207.57297,211.63206 C 209.68158,211.95459 211.7885,212.28938 213.89306,212.63691 C 215.85903,212.97489 217.82011,213.34186 219.77747,213.72599 C 221.63772,214.10647 223.49089,214.51876 225.34187,214.94215 C 227.11225,215.3542 228.87707,215.78993 230.63666,216.24622 C 232.29727,216.6925 233.95772,217.14458 235.59727,217.66411 C 237.10276,218.15877 238.5995,218.68892 240.04177,219.34902 C 241.26856,219.91878 242.49231,220.50343 243.59349,221.29902 C 244.52403,221.97905 245.44682,222.69049 246.16796,223.59969 C 246.80681,224.43 247.34636,225.32537 247.72067,226.30792 C 248.04558,227.26013 248.30726,228.23344 248.26611,229.25026 C 248.20845,230.30566 247.9815,231.33519 247.55712,232.30729 C 247.03444,233.43649 246.40367,234.51026 245.56384,235.4371 C 241.62449,239.8413 236.34538,242.87113 231.74643,246.49187 C 230.23975,247.49019 228.65906,248.3738 226.98394,249.06029 C 224.91681,249.89498 222.80331,250.60866 220.6313,251.12093 C 217.95651,251.74567 215.25491,252.24805 212.52481,252.56441 C 209.30188,252.93845 206.07,253.22864 202.8329,253.45068 C 199.3031,253.67247 195.76959,253.8465 192.23169,253.86417 C 188.39924,253.88093 184.56628,253.85767 180.73601,253.71276 C 176.70578,253.56378 172.67521,253.41225 168.65004,253.1568 C 164.56299,252.90319 160.47627,252.64094 156.39512,252.30236 C 152.40806,251.96155 148.42756,251.55005 144.45702,251.0506 C 140.55021,250.56179 136.64829,250.03364 132.75935,249.41676 C 129.12501,248.82837 125.48915,248.21664 121.91737,247.31179 C 118.97921,246.54343 116.04341,245.72332 113.25076,244.51258 C 111.2364,243.58954 109.21564,242.59248 107.63157,241.00389 C 106.5889,239.79468 105.86254,238.4828 105.92863,236.83466 C 106.12118,235.18331 106.76189,233.73126 107.9467,232.53703 C 112.61798,227.98273 117.9937,223.86601 123.83444,220.88141 C 126.53182,219.69037 129.29868,218.67447 132.14697,217.90191 C 135.64238,216.93459 139.16779,216.07702 142.74531,215.46769 C 146.93033,214.7279 151.12546,214.04288 155.34284,213.51162 C 160.09809,212.89146 164.86277,212.33995 169.63892,211.90541 C 174.46262,211.47189 179.28852,211.05571 184.12503,210.79253 C 187.78887,210.58418 191.4534,210.38324 195.11943,210.21825 C 196.91578,210.13152 198.71213,210.04541 200.50611,209.91773 L 190.08649,218.42539 z"
       id="path5184"
       style="opacity:1;fill:#000000;fill-opacity:1;fill-rule:nonzero;stroke:none;stroke-width:1.05799997;stroke-linecap:butt;stroke-linejoin:miter;marker:none;marker-start:none;marker-mid:none;marker-end:none;stroke-miterlimit:4.0999999;stroke-dasharray:none;stroke-dashoffset:0;stroke-opacity:1;visibility:visible;display:inline;overflow:visible;enable-background:accumulate" />
    <path
       style="opacity:1;fill:#000000;fill-opacity:1;fill-rule:nonzero;stroke:none;stroke-width:1.05799997;stroke-linecap:butt;stroke-linejoin:miter;marker:none;marker-start:none;marker-mid:none;marker-end:none;stroke-miterlimit:4.0999999;stroke-dasharray:none;stroke-dashoffset:0;stroke-opacity:1;visibility:visible;display:inline;overflow:visible;enable-background:accumulate"
       id="path5186"
       d="M 271.66078,241.46134 C 271.37364,241.15656 271.14045,240.80574 270.8958,240.46718 C 270.55218,239.94894 270.21581,239.42543 269.89427,238.89324 C 269.48978,238.20731 269.05427,237.54055 268.62381,236.87084 C 268.09051,236.03149 267.52938,235.21073 266.95612,234.39832 C 266.29956,233.43831 265.60253,232.50682 264.88561,231.59133 C 264.10715,230.59627 263.26495,229.65315 262.40303,228.73024 C 261.46254,227.71404 260.4546,226.76503 259.42508,225.84042 C 258.25832,224.81672 257.03911,223.85341 255.80507,222.91231 C 254.5132,221.92739 253.20919,220.9589 251.87365,220.03402 C 250.49359,219.07099 249.07762,218.16189 247.65306,217.26661 C 246.18887,216.3695 244.69129,215.52796 243.18647,214.70098 C 241.70053,213.90554 240.20194,213.13355 238.68616,212.39641 C 237.20663,211.65865 235.69691,210.98614 234.17118,210.3508 C 232.65658,209.73698 231.13101,209.15061 229.59584,208.59009 C 228.06573,208.0333 226.51099,207.54865 224.94952,207.08829 C 223.34218,206.61927 221.71646,206.21824 220.08502,205.843 C 218.3895,205.45775 216.68251,205.12733 214.97215,204.81572 C 213.2301,204.48974 211.47321,204.25578 209.71614,204.02795 C 207.94425,203.8013 206.1683,203.60799 204.39168,203.42243 C 202.59921,203.22575 200.80168,203.08781 199.00281,202.96621 C 197.19432,202.848 195.38499,202.74611 193.57516,202.65168 C 191.79483,202.54815 190.01298,202.48597 188.23046,202.4409 C 186.49498,202.40183 184.75967,202.35145 183.02385,202.33857 C 181.29883,202.3293 179.57397,202.33402 177.84911,202.36268 C 176.09778,202.38538 174.34763,202.44301 172.59749,202.51013 C 170.85509,202.58064 169.11186,202.6306 167.3698,202.70865 C 165.61443,202.79279 163.85905,202.87528 162.10502,202.98407 C 160.34645,203.07992 158.59141,203.22189 156.83738,203.37903 C 155.02181,203.55707 153.20743,203.74625 151.39607,203.96346 C 149.48811,204.18741 147.58571,204.45524 145.68617,204.74127 C 143.76607,205.03134 141.85119,205.35463 139.94154,205.70646 C 138.0968,206.03924 136.26386,206.43163 134.42975,206.81737 C 132.72158,207.16276 131.02606,207.56612 129.32802,207.95744 C 127.74833,208.33111 126.17893,208.74526 124.61138,209.16612 C 123.10892,209.57306 121.61758,210.01837 120.12996,210.47605 C 118.69865,210.89607 117.28807,211.38143 115.88273,211.88037 C 114.51903,212.36208 113.16679,212.87607 111.81877,213.40019 C 110.51679,213.9215 109.21935,214.45518 107.92967,215.00634 C 106.68956,215.522 105.46951,216.08393 104.24997,216.64605 C 103.065,217.19086 101.89385,217.76443 100.73501,218.36265 C 99.589819,218.92826 98.478703,219.5569 97.370443,220.19032 C 96.305513,220.81355 95.249863,221.45191 94.210563,222.11684 C 95.704763,220.93501 91.176973,224.26862 92.727663,223.14187 C 106.65516,213.02218 102.67282,215.84856 99.770229,218.05754 C 98.841539,218.77012 97.936623,219.5134 97.050593,220.2781 C 96.178053,221.03311 95.346643,221.83341 94.547613,222.66542 C 93.753803,223.48448 93.022053,224.35898 92.323843,225.25997 C 91.645533,226.14162 91.042763,227.07669 90.468313,228.0281 C 89.898083,228.95831 89.430703,229.94366 88.989293,230.93976 C 88.562033,231.91917 88.234093,232.93437 87.962303,233.96633 C 87.693373,235.01728 87.547693,236.09214 87.432873,237.16897 C 87.304223,238.26705 87.290063,239.37269 87.298993,240.47672 C 87.313663,241.60465 87.411293,242.72836 87.517513,243.85054 C 87.643633,245.03867 87.837363,246.2186 88.049803,247.39392 C 88.267643,248.60592 88.538933,249.80725 88.822873,251.00519 C 89.103433,252.21064 89.433063,253.40355 89.779043,254.5916 C 90.122333,255.77794 90.492763,256.95593 90.901633,258.12125 C 91.318943,259.31263 91.771823,260.4908 92.235493,261.66471 C 92.710803,262.86166 93.225723,264.04211 93.746893,265.21962 C 94.275643,266.41908 94.824803,267.60891 95.405483,268.78407 C 95.998983,270.02696 96.636493,271.2477 97.279223,272.46564 C 97.934603,273.68823 98.590819,274.91059 99.265249,276.12279 C 99.924509,277.31547 100.59304,278.50303 101.27202,279.68458 C 101.96382,280.89746 102.65798,282.10874 103.37658,283.30597 C 104.11171,284.53252 104.85393,285.75476 105.60372,286.9723 C 106.36802,288.18872 107.12069,289.41227 107.88212,290.63039 C 108.64102,291.84562 109.38678,293.06883 110.15108,294.2807 C 110.91622,295.49779 111.68423,296.7132 112.45881,297.92436 C 113.25801,299.15196 114.03495,300.39356 114.83483,301.62068 C 115.62982,302.85157 116.43998,304.073 117.27307,305.27858 C 118.05945,306.41884 118.86085,307.54883 119.6759,308.66879 C 120.42317,309.72041 121.21545,310.73902 122.01465,311.7514 C 122.79463,312.73242 123.62992,313.66663 124.47801,314.58871 C 125.33151,315.50724 126.23052,316.38115 127.13797,317.24592 C 128.05182,318.09928 129.00159,318.91338 129.96451,319.71047 C 130.90838,320.48894 131.87989,321.2312 132.86136,321.9612 C 133.84063,322.68499 134.86223,323.34943 135.90186,323.98274 C 137.00186,324.66264 138.14671,325.26532 139.29004,325.86796 C 140.51902,326.51189 141.77076,327.10979 143.03094,327.68985 C 144.35468,328.30423 145.69443,328.88393 147.04329,329.44093 C 148.42824,330.00673 149.82583,330.53938 151.23556,331.04033 C 152.68828,331.58285 154.17018,332.03899 155.65021,332.49939 C 157.19567,332.97812 158.75766,333.39984 160.32436,333.80205 C 161.87117,334.19666 163.41865,334.58837 164.9722,334.95568 C 166.48967,335.31536 168.01608,335.63382 169.54552,335.93767 C 171.02758,336.23051 172.51537,336.49362 174.00485,336.74611 C 175.43937,336.9882 176.87793,337.20513 178.31767,337.41292 C 179.71223,337.61328 181.10965,337.79202 182.50791,337.96307 C 183.86942,338.12881 185.23295,338.27613 186.59716,338.41698 C 187.95344,338.55821 189.31174,338.67896 190.67038,338.79412 C 192.03931,338.91856 193.41026,339.01333 194.78424,339.05545 C 196.17273,339.09256 197.56121,339.10541 198.95003,339.09479 C 200.3429,339.06676 201.73442,338.99991 203.12392,338.90186 C 204.56518,338.78613 205.99868,338.59765 207.43134,338.40461 C 208.88626,338.18756 210.33291,337.91797 211.77518,337.62867 C 213.22538,337.32692 214.66326,336.97233 216.0998,336.61199 C 217.50869,336.24808 218.91235,335.8637 220.30488,335.4407 C 221.6787,335.02255 223.0424,334.56952 224.39952,334.09975 C 225.70522,333.65541 226.99962,333.1796 228.28761,332.68666 C 229.52874,332.20406 230.74524,331.66362 231.96057,331.11994 C 233.17201,330.57257 234.36356,329.98079 235.53808,329.35833 C 236.68361,328.76957 237.79692,328.12216 238.91327,327.48064 C 239.97061,326.8583 241.00603,326.19902 242.01566,325.50212 C 244.98467,323.38429 248.96904,320.50664 234.99432,330.60586 C 234.83381,330.72189 235.30895,330.36507 235.46491,330.24288 C 235.90194,329.90049 235.96365,329.84503 236.39107,329.49242 C 237.29784,328.75078 238.17275,327.97172 239.04175,327.18668 C 239.90789,326.41538 240.72075,325.58807 241.5213,324.74994 C 242.34056,323.89873 243.12982,323.01996 243.8867,322.11297 C 244.65218,321.19129 245.39236,320.24935 246.12412,319.30076 C 246.84492,318.3464 247.54953,317.37971 248.24672,316.40802 C 248.92352,315.44925 249.59036,314.4836 250.2341,313.50225 C 250.88594,312.51296 251.52041,311.51266 252.14308,310.50488 C 252.78733,309.47389 253.38842,308.41758 253.97838,307.35488 C 254.60088,306.22216 255.14599,305.04986 255.68772,303.87718 C 256.24126,302.67548 256.7835,301.46872 257.32119,300.25992 C 257.85147,299.05776 258.36909,297.85021 258.88385,296.64138 C 259.39692,295.46463 259.9046,294.28556 260.42037,293.11001 C 260.95975,291.89638 261.47383,290.67187 261.9945,289.45019 C 262.52527,288.20876 263.05251,286.96592 263.57587,285.72138 C 264.08759,284.49538 264.58633,283.26412 265.09401,282.03647 C 265.58028,280.84339 266.06131,279.64809 266.52128,278.44466 C 266.96235,277.27308 267.39787,276.09946 267.83068,274.92482 C 268.24563,273.7742 268.67524,272.62888 269.08765,271.47731 C 269.49788,270.37052 269.89731,269.26002 270.27179,268.14056 C 270.63901,267.02099 271.0027,265.90047 271.34379,264.77264 C 271.68287,263.64616 271.98046,262.5079 272.26355,261.36622 C 272.54462,260.22499 272.78994,259.07547 273.02347,257.92368 C 273.25294,256.79992 273.41632,255.66403 273.577,254.52881 C 273.71998,253.43473 273.81896,252.33595 273.86718,251.23371 C 273.91152,250.17996 273.88606,249.12475 273.81997,248.0726 C 273.76871,247.07839 273.60837,246.09547 273.43436,245.11682 C 273.27182,244.18896 273.0233,243.28247 272.74577,242.38357 C 272.46335,241.48106 272.09427,240.61135 271.68961,239.75799 C 271.25308,238.87383 270.74321,238.02941 270.21766,237.19607 C 269.6911,236.37512 269.12188,235.58419 268.51776,234.81882 C 268.00519,234.16716 267.453,233.54873 266.88142,232.94879 L 275.39004,226.71544 C 275.96685,227.32397 276.52798,227.94763 277.05016,228.6043 C 277.66085,229.37892 278.23766,230.17799 278.76574,231.01165 C 279.29567,231.85584 279.81785,232.70707 280.26416,233.59916 C 280.6823,234.46147 281.06774,235.34106 281.35572,236.25655 C 281.63898,237.16783 281.89695,238.08584 282.05882,239.02787 C 282.23552,240.02003 282.39502,241.01677 282.4483,242.02459 C 282.51591,243.08862 282.55132,244.15534 282.50327,245.22122 C 282.45538,246.33429 282.36737,247.44487 282.21883,248.54939 C 282.05966,249.69184 281.89662,250.8347 281.66714,251.96557 C 281.43598,253.12098 281.19319,254.27416 280.91481,255.41926 C 280.63442,256.56534 280.33969,257.70809 280.00332,258.83925 C 279.6656,259.96971 279.3036,261.09229 278.93772,262.2139 C 278.56611,263.33851 278.17224,264.45542 277.74937,265.56184 C 277.33831,266.71755 276.90009,267.86314 276.48616,269.01776 C 276.05031,270.19528 275.61547,271.37304 275.16934,272.54665 C 274.71072,273.75471 274.2285,274.95346 273.74123,276.15017 C 273.22934,277.37973 272.72334,278.61171 272.21449,279.84257 C 271.69146,281.08821 271.16305,282.3315 270.63244,283.57389 C 270.11313,284.79054 269.61135,286.01474 269.0772,287.22506 C 268.55907,288.40141 268.05527,289.5841 267.53157,290.75806 C 267.01732,291.96895 266.49835,293.17779 265.96942,294.3823 C 265.43274,295.59243 264.88966,296.79972 264.33831,298.00326 C 263.80012,299.17351 263.26968,300.34834 262.66302,301.48538 C 262.07829,302.54917 261.48682,303.60945 260.84644,304.64104 C 260.22529,305.65014 259.59841,306.6557 258.94286,307.64303 C 258.3094,308.63419 257.63683,309.5988 256.96172,310.56197 C 256.26689,311.53907 255.55587,312.50469 254.84081,313.46706 C 254.11259,314.41596 253.37898,315.3607 252.61738,316.28319 C 251.86808,317.19733 251.08439,318.08221 250.26715,318.93631 C 249.46997,319.77893 248.66538,320.61602 247.8016,321.39148 C 246.93394,322.18321 246.0582,322.96707 245.15092,323.71341 C 241.56058,326.73341 237.64737,329.3443 233.82115,332.05529 C 232.80816,332.73829 231.77611,333.39335 230.71759,334.00362 C 229.60495,334.64233 228.48876,335.27553 227.34729,335.86193 C 226.16788,336.47401 224.97633,337.06394 223.76218,337.60456 C 222.54703,338.14745 221.32698,338.67954 220.08282,339.15356 C 218.79668,339.63934 217.50414,340.10788 216.20164,340.54778 C 214.84283,341.0072 213.4825,341.46342 212.10768,341.87315 C 210.71295,342.28845 209.30879,342.67106 207.89838,343.02906 C 206.46083,343.38668 205.02076,343.73452 203.56904,344.03029 C 202.12138,344.31604 200.67068,344.58995 199.20902,344.79428 C 197.76927,344.99064 196.32717,345.1723 194.87799,345.28448 C 193.48225,345.38301 192.08466,345.4471 190.68539,345.46694 C 189.29404,345.47698 187.90285,345.45647 186.51201,345.41727 C 185.13263,345.36758 183.75595,345.27384 182.38129,345.14838 C 181.02113,345.03035 179.66114,344.90905 178.30334,344.76753 C 176.94048,344.62335 175.5783,344.47253 174.21831,344.30289 C 172.82173,344.12784 171.426,343.94492 170.03347,343.73995 C 168.59592,343.52737 167.15989,343.30548 165.7279,343.05789 C 164.24112,342.79972 162.75636,342.53059 161.27716,342.23177 C 159.74839,341.92166 158.22148,341.60212 156.70536,341.23447 C 155.15383,340.86065 153.60652,340.46987 152.0614,340.07047 C 150.49149,339.66078 148.92631,339.23377 147.37444,338.75991 C 145.88277,338.30648 144.39413,337.84129 142.9291,337.30645 C 141.51633,336.79808 140.11368,336.26361 138.72267,335.69857 C 137.36942,335.13714 136.02292,334.55885 134.69176,333.94685 C 133.42181,333.36797 132.16063,332.76965 130.92153,332.127 C 129.76387,331.52957 128.61076,330.92132 127.49845,330.24224 C 126.44887,329.60557 125.41699,328.93753 124.43283,328.20278 C 123.44731,327.47076 122.48102,326.71488 121.53564,325.93153 C 120.56935,325.12762 119.61233,324.31163 118.69814,323.44849 C 117.78429,322.58058 116.88274,321.6993 116.0252,320.77513 C 115.17036,319.84856 114.33238,318.90591 113.54953,317.91706 C 112.74814,316.90069 111.96529,315.86939 111.22123,314.81024 C 110.41326,313.68201 109.61827,312.54446 108.83728,311.39735 C 108.00925,310.18527 107.20095,308.95969 106.40529,307.72604 C 105.60153,306.50068 104.81599,305.26361 104.01696,304.03518 C 103.23984,302.82486 102.47251,301.60831 101.70737,300.39051 C 100.94003,299.18005 100.19394,297.95648 99.437399,296.73929 C 98.673609,295.52186 97.924483,294.29525 97.157323,293.07993 C 96.404493,291.86295 95.662783,290.63921 94.926303,289.41237 C 94.202133,288.21679 93.494653,287.01135 92.804543,285.79575 C 92.121513,284.61438 91.450793,283.4257 90.795753,282.2285 C 90.126883,281.01066 89.467123,279.78777 88.808873,278.56416 C 88.167323,277.34395 87.525103,276.12387 86.917263,274.88636 C 86.329333,273.71017 85.774103,272.51885 85.243333,271.31577 C 84.720473,270.13511 84.198303,268.95398 83.718613,267.75489 C 83.252913,266.57838 82.791943,265.4 82.372953,264.20581 C 81.955643,263.03817 81.578973,261.85694 81.235013,260.66559 C 80.884993,259.4733 80.562613,258.27298 80.272773,257.06459 C 79.980743,255.86383 79.710973,254.65746 79.486723,253.44203 C 79.265343,252.2636 79.060313,251.08103 78.922393,249.88955 C 78.802853,248.76247 78.702363,247.63311 78.678253,246.4993 C 78.663413,245.38681 78.664423,244.27198 78.788183,243.1646 C 78.896263,242.07826 79.027943,240.99235 79.282203,239.92884 C 79.546583,238.88245 79.862723,237.8518 80.285583,236.857 C 80.722113,235.84997 81.180553,234.85092 81.747583,233.90906 C 82.316973,232.94692 82.914693,232.00072 83.587943,231.10703 C 84.280073,230.19549 85.004923,229.30895 85.797543,228.48208 C 86.589493,227.63978 87.415673,226.83067 88.285853,226.06878 C 89.168183,225.29317 90.077313,224.54797 91.003143,223.82481 C 94.737293,220.98334 98.498433,218.16867 102.40844,215.57408 C 103.44689,214.91809 104.49985,214.28519 105.56343,213.67068 C 106.6727,213.03877 107.79141,212.4241 108.93491,211.85584 C 110.0956,211.26748 111.2649,210.69666 112.44903,210.15669 C 113.66638,209.59757 114.88744,209.04592 116.12502,208.53218 C 117.41385,207.99154 118.70505,207.45616 120.00586,206.94495 C 121.35169,206.42675 122.70106,205.91699 124.06307,205.44244 C 125.46892,204.9495 126.88017,204.47129 128.3108,204.05449 C 129.79506,203.60343 131.2842,203.16913 132.78245,202.7664 C 134.34376,202.35091 135.90776,201.94491 137.48307,201.58431 C 139.1715,201.19877 140.85927,200.80923 142.5585,200.47256 C 144.38587,200.09378 146.21341,199.71354 148.05106,199.38674 C 149.96173,199.04313 151.87627,198.71968 153.79637,198.43293 C 155.70349,198.14617 157.61365,197.87989 159.52836,197.64952 C 161.35,197.42973 163.174,197.2322 165.00002,197.05344 C 166.75573,196.89561 168.51313,196.7611 170.27323,196.66521 C 172.03029,196.55939 173.78836,196.47276 175.5466,196.38989 C 177.289,196.31386 179.03257,196.26434 180.77513,196.19321 C 182.52629,196.12893 184.27745,196.07631 186.02962,196.05154 C 187.75836,196.02012 189.48743,196.01565 191.2165,196.02861 C 192.95097,196.0494 194.68476,196.09907 196.41873,196.14126 C 198.19804,196.1936 199.97669,196.26262 201.75364,196.36944 C 203.56517,196.46688 205.37669,196.56396 207.18652,196.68574 C 208.9881,196.80772 210.78748,196.95526 212.58281,197.15012 C 214.36382,197.333 216.14347,197.53103 217.91959,197.75635 C 219.68069,197.985 221.4391,198.23308 223.18571,198.55611 C 224.90298,198.86699 226.61739,199.19598 228.31881,199.58563 C 229.96071,199.95889 231.5962,200.35969 233.21265,200.83274 C 234.78002,201.29487 236.33931,201.78586 237.87381,202.3483 C 239.411,202.91154 240.93707,203.50525 242.45269,204.12416 C 243.98011,204.76727 245.49302,205.4437 246.97509,206.18645 C 248.49087,206.92823 249.98558,207.71229 251.47084,208.51348 C 252.98056,209.34384 254.48167,210.19163 255.9521,211.09007 C 257.38476,211.98375 258.80309,212.90038 260.19258,213.86005 C 261.53538,214.78557 262.84731,215.75368 264.14627,216.73978 C 265.39093,217.68437 266.62295,218.64753 267.80826,219.66589 C 268.85818,220.58584 269.88989,221.52806 270.84505,222.54761 C 271.71996,223.47092 272.5662,224.4229 273.35883,225.41811 C 274.09362,226.32657 274.79503,227.26183 275.47671,228.21071 C 276.06195,229.01932 276.63487,229.83657 277.2019,230.65808 C 277.64264,231.32263 278.08794,231.98445 278.51333,232.65898 C 278.84431,233.1731 279.18473,233.68186 279.54454,234.17618 C 279.79458,234.49359 280.03215,234.82558 280.33295,235.09796 L 271.66078,241.46134 z" />
    <path
       style="opacity:1;fill:#000000;fill-opacity:1;fill-rule:nonzero;stroke:none;stroke-width:1.05799997;stroke-linecap:butt;stroke-linejoin:miter;marker:none;marker-start:none;marker-mid:none;marker-end:none;stroke-miterlimit:4.0999999;stroke-dasharray:none;stroke-dashoffset:0;stroke-opacity:1;visibility:visible;display:inline;overflow:visible;enable-background:accumulate"
       id="path5188"
       d="M 246.41969,214.76874 C 246.649,214.45604 246.8896,214.15238 247.13644,213.85328 C 247.53857,213.38838 247.92519,212.91055 248.3081,212.4298 C 248.81089,211.77342 249.38129,211.17461 249.94815,210.57444 C 250.68277,209.81796 251.43223,209.07599 252.18776,208.3404 C 253.08037,207.47153 254.00569,206.63736 254.94012,205.81413 C 255.97908,204.88801 257.06322,204.01522 258.15412,203.15157 C 262.13511,200.10648 266.18946,197.15324 270.30197,194.2886 C 271.68472,193.31152 273.11637,192.41112 274.57634,191.55533 C 276.19397,190.63079 277.88139,189.83727 279.57927,189.07317 C 281.41035,188.2634 283.29505,187.58561 285.1929,186.95155 C 287.19023,186.29617 289.21183,185.7185 291.24912,185.20133 C 293.31305,184.67435 295.40564,184.2766 297.50464,183.91981 C 299.57717,183.58361 301.66588,183.36833 303.75982,183.22653 C 305.78901,183.10329 307.82276,183.12051 309.85111,183.23815 C 311.80342,183.36695 313.7441,183.62446 315.66875,183.97114 C 317.46696,184.29242 319.22132,184.79526 320.94854,185.38242 C 322.54087,185.93329 324.05379,186.67001 325.52489,187.48511 C 326.88488,188.25986 328.13207,189.20696 329.32312,190.21741 C 330.45987,191.1715 331.46848,192.25605 332.42095,193.39012 C 333.32182,194.49518 334.08224,195.70143 334.78702,196.93797 C 335.47949,198.14572 336.04045,199.42075 336.56077,200.70997 C 337.06761,201.94865 337.46063,203.22692 337.78267,204.5245 C 338.09628,205.83022 338.26927,207.16247 338.37701,208.49915 C 338.48054,209.83899 338.49302,211.18272 338.44176,212.52488 C 338.39337,213.90318 338.16457,215.25963 337.82179,216.5926 C 337.44394,218.01259 336.84757,219.35565 336.18865,220.66393 C 335.44122,222.12285 334.52635,223.48362 333.57962,224.8183 C 332.56072,226.24223 331.4356,227.58389 330.2921,228.90802 C 329.15636,230.22046 327.98201,231.49864 326.79383,232.76344 C 325.63533,234.00933 324.42101,235.201 323.21058,236.39572 C 321.9902,237.59912 320.70119,238.72871 319.40645,239.85063 C 318.08355,240.98763 316.74464,242.10569 315.39325,243.2088 C 314.00544,244.3316 312.58171,245.40927 311.16322,246.49263 C 309.72887,247.59417 308.27783,248.67337 306.82899,249.75568 C 305.39902,250.8192 303.99233,251.91323 302.58007,253.00016 C 301.19563,254.06202 299.81608,255.13045 298.44193,256.20583 C 297.08144,257.28265 295.73628,258.37846 294.3805,259.46116 C 293.09757,260.49845 291.82087,261.54343 290.55395,262.6005 C 289.35936,263.57805 288.19648,264.59274 287.04387,265.61924 C 285.92904,266.61745 284.8481,267.65228 283.79514,268.71525 C 282.80339,269.72227 281.81484,270.73249 280.84366,271.75936 C 279.88884,272.76261 278.96706,273.79589 278.04663,274.83051 C 277.1702,275.81645 276.32025,276.82518 275.47418,277.83716 C 274.66739,278.80047 273.8955,279.7923 273.12176,280.78218 C 272.38107,281.72979 271.66752,282.69721 270.9646,283.67288 C 270.29387,284.60587 269.64389,285.55336 268.99492,286.50141 C 268.57475,287.11784 268.78298,286.80895 268.37006,287.42804 L 259.6436,293.295 C 260.05534,292.67061 259.84711,292.98173 260.26829,292.36172 C 260.92586,291.41287 261.57213,290.45619 262.24623,289.51881 C 262.95725,288.54082 263.66321,287.55952 264.41132,286.60915 C 265.18691,285.61372 265.96369,284.61875 266.76913,283.64713 C 267.62448,282.63189 268.47392,281.61151 269.35625,280.61921 C 270.2814,279.58589 271.19609,278.54292 272.15261,277.5382 C 273.12581,276.5015 274.12211,275.48685 275.12078,274.47472 C 276.17289,273.40185 277.25569,272.35984 278.37153,271.35325 C 279.52802,270.31943 280.69141,269.29306 281.89493,268.31382 C 283.16859,267.24681 284.45659,266.19727 285.74644,265.14975 C 287.10272,264.0656 288.45276,262.97395 289.80938,261.89012 C 291.18269,260.80901 292.56746,259.74265 293.95291,258.6771 C 295.36956,257.59093 296.7749,256.4898 298.20723,255.4241 C 299.65523,254.34137 301.10897,253.26605 302.54247,252.16407 C 303.95878,251.08461 305.37829,250.00817 306.76846,248.89502 C 308.11833,247.79495 309.45758,246.68231 310.7798,245.54888 C 312.07336,244.43071 313.36507,243.30948 314.58916,242.11471 C 315.80027,240.92056 317.01863,239.73262 318.18084,238.49043 C 319.37475,237.22618 320.55703,235.95049 321.69817,234.63802 C 322.83964,233.3233 323.96864,231.99577 324.98787,230.58229 C 325.92584,229.26972 326.83447,227.93154 327.57752,226.49652 C 328.23678,225.2135 328.83061,223.89494 329.21723,222.50082 C 329.57384,221.19219 329.81326,219.85667 329.86249,218.49818 C 329.92437,217.16582 329.92083,215.83141 329.82337,214.50045 C 329.72457,213.17968 329.55495,211.86419 329.25196,210.57322 C 328.93296,209.28769 328.56573,208.0145 328.06665,206.78553 C 327.55897,205.5056 327.00847,204.24086 326.32628,203.04248 C 325.62993,201.8224 324.89092,200.6251 324.00202,199.53323 C 323.06558,198.41008 322.07315,197.33601 320.9541,196.39004 C 319.77958,195.39394 318.5538,194.455 317.21236,193.69164 C 315.76469,192.8813 314.27336,192.15025 312.70176,191.60883 C 310.99663,191.02154 309.26098,190.52878 307.48386,190.2092 C 305.57573,189.86361 303.65124,189.60877 301.71495,189.48714 C 299.69772,189.38258 297.67611,189.36228 295.65939,189.49582 C 293.57608,189.64077 291.49748,189.85747 289.43709,190.20284 C 287.34248,190.56414 285.25528,190.96888 283.19709,191.50394 C 281.16031,192.03187 279.13752,192.61429 277.14205,193.28252 C 275.23948,193.93316 273.34871,194.62328 271.51577,195.45317 C 269.81098,196.23216 268.11698,197.0411 266.49835,197.98929 C 265.0318,198.86111 263.59711,199.78319 262.20407,200.76912 C 258.93426,203.06797 261.33743,201.38371 269.27818,195.60836 C 269.48877,195.45519 268.85632,195.91362 268.64624,196.06766 C 268.04397,196.50958 267.44761,196.95948 266.85849,197.41887 C 265.77552,198.27164 264.69694,199.13118 263.66641,200.04738 C 262.74278,200.85612 261.82943,201.67748 260.94795,202.53232 C 260.20641,203.25008 259.48005,203.98337 258.75554,204.7184 C 258.20504,205.30265 257.64307,205.87989 257.15174,206.51596 C 256.78502,206.98473 256.42488,207.45862 256.03674,207.90986 C 255.80238,208.19348 255.56784,208.47785 255.35894,208.78121 L 246.41969,214.76874 z" />
    <path
       style="opacity:1;fill:#000000;fill-opacity:1;fill-rule:nonzero;stroke:none;stroke-width:1.05799997;stroke-linecap:butt;stroke-linejoin:miter;marker:none;marker-start:none;marker-mid:none;marker-end:none;stroke-miterlimit:4.0999999;stroke-dasharray:none;stroke-dashoffset:0;stroke-opacity:1;visibility:visible;display:inline;overflow:visible;enable-background:accumulate"
       id="path5190"
       d="M 259.06494,225.61054 C 259.26305,225.29371 259.4583,224.97526 259.66147,224.66151 C 259.95754,224.2071 260.25328,223.75248 260.55273,223.30017 C 260.9117,222.74662 261.28499,222.20276 261.65998,221.66001 C 262.1046,221.01937 262.57434,220.39688 263.04155,219.77273 C 263.53945,219.11452 264.07461,218.48661 264.61871,217.86654 C 265.17865,217.22011 265.76069,216.59367 266.35688,215.98078 C 267.00855,215.31508 267.69934,214.68992 268.39923,214.0757 C 269.15004,213.42384 269.92395,212.79927 270.71404,212.19587 C 274.4015,209.54956 277.96249,206.70185 281.77825,204.2346 C 282.6599,203.66756 283.58269,203.16999 284.51762,202.69764 C 285.45947,202.22569 286.43048,201.81624 287.40908,201.42765 C 288.40016,201.03736 289.41045,200.70008 290.42598,200.38001 C 291.45482,200.06147 292.49311,199.77381 293.54084,199.52441 C 294.5653,199.28608 295.59869,199.0907 296.63782,198.92853 C 297.64088,198.76026 298.65556,198.6954 299.66956,198.63785 C 300.65558,198.58375 301.64177,198.61489 302.62694,198.66798 C 303.5875,198.73573 304.54519,198.83467 305.49783,198.975 C 306.425,199.09254 307.32874,199.32542 308.21663,199.61124 C 309.0831,199.89808 309.90203,200.29913 310.69145,200.75288 C 311.44816,201.19469 312.12934,201.74482 312.77696,202.33115 C 313.41481,202.9172 313.97037,203.58187 314.49541,204.26847 C 315.02484,204.96987 315.47772,205.72312 315.90497,206.48958 C 316.31351,207.24824 316.65595,208.03969 316.96181,208.84449 C 317.27626,209.65178 317.47134,210.49391 317.61719,211.34555 C 317.76522,212.21814 317.82845,213.10153 317.85931,213.98507 C 317.89202,214.85205 317.847,215.71691 317.76623,216.57977 C 317.68463,217.42313 317.53575,218.25744 317.3609,219.08584 C 317.18842,219.89303 316.95961,220.6863 316.70974,221.47245 C 316.46003,222.25823 316.15991,223.02604 315.83938,223.78523 C 315.51262,224.54905 315.14641,225.29491 314.77041,226.03546 C 314.39121,226.78799 313.97138,227.51786 313.52305,228.23094 C 313.05567,228.96786 312.56587,229.69009 312.04976,230.3936 C 311.53314,231.10771 310.96898,231.78499 310.40634,232.46288 C 309.84386,233.15533 309.23114,233.80358 308.61303,234.44609 C 307.97754,235.10056 307.31879,235.73169 306.65279,236.35482 C 305.97533,236.98349 305.28589,237.59938 304.58397,238.2005 C 303.85525,238.8104 303.11726,239.40914 302.37167,239.99813 C 301.61361,240.58674 300.83987,241.15459 300.06512,241.72089 C 296.32438,244.19251 292.89557,247.14886 289.10241,249.55689 C 288.25718,250.12159 287.36204,250.60293 286.48022,251.10578 C 285.59975,251.60527 284.69348,252.05673 283.79211,252.51669 C 282.88314,252.97207 281.96878,253.41598 281.0556,253.86274 C 280.13838,254.29281 279.22604,254.73298 278.29954,255.14291 C 277.36933,255.55937 276.40607,255.89325 275.45529,256.25832 C 274.50536,256.60945 273.55711,256.96534 272.60532,257.31122 L 280.89121,250.78555 C 281.84064,250.43629 282.79041,250.088 283.7368,249.73114 C 284.68927,249.37349 285.64443,249.02119 286.57144,248.60027 C 287.49321,248.184 288.40622,247.74828 289.31907,247.31252 C 290.23208,246.8642 291.14846,246.4227 292.05456,245.9602 C 292.95324,245.49892 293.85714,245.04634 294.73205,244.54044 C 295.61758,244.04124 296.50091,243.53783 297.34784,242.97437 C 300.71915,240.786 305.9207,236.76571 291.23698,247.52002 C 292.01494,246.95741 292.78733,246.38736 293.55129,245.80572 C 294.29873,245.22498 295.03116,244.62513 295.76191,244.02352 C 296.46938,243.4324 297.15394,242.8146 297.83579,242.19411 C 298.49808,241.5706 299.1661,240.95322 299.80007,240.30032 C 300.42189,239.66654 301.03647,239.0246 301.60366,238.34083 C 302.1626,237.66201 302.73991,236.99697 303.25636,236.28439 C 303.78073,235.59242 304.27003,234.87518 304.73758,234.14369 C 305.19349,233.44404 305.61029,232.72098 305.99505,231.97966 C 306.36919,231.24197 306.74468,230.50504 307.07718,229.74723 C 307.39635,228.99458 307.70861,228.23853 307.95832,227.45919 C 308.22051,226.68305 308.45049,225.89533 308.63107,225.096 C 308.82008,224.27803 308.97233,223.45076 309.06338,222.61581 C 309.15881,221.76471 309.20821,220.90962 309.18174,220.05286 C 309.16859,219.18171 309.11092,218.31033 308.96558,217.45033 C 308.82648,216.61761 308.6481,215.79204 308.34056,215.00267 C 308.04532,214.20863 307.71468,213.42873 307.3139,212.68124 C 306.90638,211.92209 306.45114,211.18886 305.93267,210.49981 C 305.41774,209.82971 304.8728,209.18116 304.2471,208.61043 C 303.61397,208.04166 302.94831,207.50847 302.20897,207.08203 C 301.43522,206.64304 300.63248,206.25852 299.78253,205.98846 C 298.90577,205.71668 298.01249,205.50482 297.10049,205.38901 C 296.15645,205.2552 295.20786,205.15877 294.25607,205.09897 C 293.28051,205.05375 292.30342,205.03316 291.32769,205.09044 C 290.3211,205.15351 289.31485,205.23244 288.31973,205.40192 C 287.28802,205.56901 286.26204,205.76932 285.24534,206.01206 C 284.20283,206.26811 283.16927,206.55968 282.14582,206.8842 C 281.13384,207.21061 280.12691,207.55457 279.14039,207.9525 C 278.16634,208.34856 277.20039,208.76583 276.26461,209.24655 C 275.33592,209.72762 274.41987,210.23449 273.54564,210.81008 C 273.10979,211.09788 272.67765,211.38998 272.25023,211.69008 C 272.10995,211.78853 271.69214,212.08798 271.83057,211.98713 C 280.59345,205.60865 282.58656,204.12303 279.52599,206.40064 C 278.73354,206.99188 277.963,207.61153 277.21084,208.25323 C 276.51516,208.8599 275.82387,209.47208 275.17187,210.12619 C 274.5782,210.73155 273.99347,211.34627 273.44043,211.98946 C 272.89094,212.60082 272.35628,213.22483 271.85097,213.87345 C 271.38679,214.48282 270.93442,215.10167 270.49351,215.72803 C 270.12409,216.26532 269.75062,216.79994 269.40127,217.35053 C 269.11109,217.78994 268.82918,218.23486 268.55114,218.68189 C 268.35387,218.98225 268.16689,219.28868 267.98648,219.59918 L 259.06494,225.61054 z" />
    <path
       style="opacity:1;fill:url(#radialGradient4914);fill-opacity:1;fill-rule:nonzero;stroke:none;stroke-width:1.05799997;stroke-linecap:butt;stroke-linejoin:miter;marker:none;marker-start:none;marker-mid:none;marker-end:none;stroke-miterlimit:4.0999999;stroke-dasharray:none;stroke-dashoffset:0;stroke-opacity:1;visibility:visible;display:inline;overflow:visible;enable-background:accumulate"
       id="path5255"
       d="M 107.85143,195.79666 C 110.55991,192.52745 93.890203,206.66505 98.995809,202.10765 C 99.644179,201.5348 100.21787,200.88751 100.77797,200.23025 C 101.50532,199.38631 102.19066,198.50769 102.84054,197.60304 C 103.63708,196.52717 104.29571,195.3612 104.92427,194.18214 C 105.67616,192.78196 106.24028,191.29879 106.71855,189.78669 C 107.27223,188.00527 107.58954,186.16399 107.84183,184.3194 C 108.11281,182.24326 108.20275,180.15347 108.18858,178.06178 C 108.1617,175.75104 107.91847,173.45159 107.59785,171.16548 C 107.22775,168.71831 106.73595,166.29177 106.2076,163.87453 C 105.6627,161.37263 105.06006,158.88414 104.46412,156.39413 C 103.84826,153.88507 103.22953,151.37676 102.6877,148.8505 C 102.14265,146.3713 101.75503,143.86285 101.46289,141.34253 C 101.17113,138.76674 101.10936,136.17548 101.15217,133.58614 C 101.23902,130.85949 101.50627,128.14261 101.85459,125.43822 C 102.22262,122.63173 102.7764,119.85559 103.37387,117.09046 C 103.95389,114.3693 104.67539,111.68334 105.44375,109.01042 C 106.15227,106.45927 107.05197,103.96994 108.01342,101.50514 C 108.93319,99.174634 110.02737,96.920354 111.20397,94.710334 C 112.34151,92.542824 113.68119,90.494544 115.10161,88.504424 C 116.50676,86.537584 118.11256,84.729284 119.75096,82.956594 C 121.32589,81.276784 122.99054,79.688454 124.73423,78.185764 C 129.68102,74.237325 134.78671,70.467475 140.10136,67.026925 C 141.95423,65.826145 143.90034,64.784465 145.88399,63.819265 C 147.76028,62.921155 149.70212,62.173895 151.67774,61.527275 C 153.61561,60.909375 155.61786,60.545035 157.6277,60.260415 C 159.5831,59.998605 161.55849,59.971495 163.52655,60.051905 C 165.42834,60.138085 167.3075,60.446685 169.16514,60.848545 C 170.97184,61.241485 172.72,61.845295 174.4487,62.491995 C 176.16471,63.148795 177.79698,63.995455 179.38406,64.915875 C 180.9279,65.817945 182.35424,66.899375 183.72499,68.042865 C 185.06271,69.143545 186.22922,70.419965 187.31822,71.761405 C 188.35471,73.037205 189.19593,74.449714 189.94123,75.910144 C 190.6563,77.349384 191.11493,78.884494 191.47413,80.444724 C 191.81057,81.988154 191.83474,83.564844 191.70714,85.132054 C 191.57124,86.709614 191.12778,88.229074 190.60291,89.714984 C 190.06377,91.228634 189.29659,92.642154 188.47037,94.014804 C 187.63751,95.387924 186.63143,96.637014 185.56276,97.830864 C 184.5336,98.968094 183.40644,100.00746 182.22856,100.98744 C 177.83379,104.37568 173.4917,107.90341 168.6988,110.70953 C 167.5699,111.38217 166.34095,111.83994 165.08305,112.2015 C 163.86151,112.55017 162.60174,112.72391 161.3427,112.86818 C 160.11374,112.99447 158.87791,113.00339 157.64566,112.93372 C 156.47211,112.86413 155.32092,112.62892 154.19022,112.31772 C 153.161,112.0282 152.19246,111.57916 151.25982,111.06333 C 150.38605,110.58139 149.61622,109.95823 148.91878,109.2499 C 148.26567,108.56136 147.77361,107.7561 147.37633,106.89961 C 146.99509,106.0321 146.75209,105.11436 146.58443,104.18426 C 146.40537,103.24264 146.38838,102.28831 146.453,101.33543 C 146.51691,100.40666 146.7726,99.513864 147.05485,98.632374 C 147.34225,97.778194 147.70604,96.953144 148.13182,96.159604 C 148.57046,95.366714 149.11558,94.644564 149.70595,93.960134 C 150.31629,93.264644 151.02223,92.666544 151.75329,92.103424 C 156.46107,90.102364 159.74075,85.504854 164.3614,83.230464 C 164.50258,83.166264 164.64376,83.102064 164.78494,83.037864 L 154.601,90.436934 C 154.46021,90.500854 154.31941,90.564764 154.17862,90.628684 C 149.98868,92.678874 144.52647,98.101674 161.93607,84.705204 C 161.2069,85.266984 160.50303,85.863884 159.89441,86.557784 C 159.30525,87.241084 158.76232,87.962034 158.32504,88.753804 C 157.89672,89.548744 157.53174,90.375584 157.24151,91.231334 C 156.95926,92.115414 156.69974,93.009154 156.63166,93.940204 C 156.56896,94.892854 156.58075,95.848004 156.76295,96.789134 C 156.93312,97.718924 157.17697,98.634824 157.55667,99.503164 C 157.96186,100.35508 158.44465,101.16526 159.09271,101.85811 C 159.78424,102.56858 160.55433,103.19289 161.42079,103.68095 C 162.34603,104.19985 163.3066,104.65445 164.32829,104.95198 C 165.4502,105.27113 166.59373,105.50927 167.76051,105.58486 C 168.99129,105.65366 170.22539,105.6507 171.45292,105.52268 C 172.70902,105.38106 173.96588,105.21156 175.18425,104.86255 C 176.43797,104.50417 177.66251,104.04952 178.78746,103.37969 C 179.34135,103.05639 179.39286,103.03601 179.93276,102.68149 C 180.12793,102.55333 180.70127,102.15097 180.51268,102.28864 C 163.92676,114.39619 168.76829,110.98001 172.17659,108.29062 C 173.36225,107.30599 174.49606,106.26054 175.53273,105.1181 C 176.60334,103.92392 177.6123,102.67449 178.44448,101.29904 C 179.27236,99.928564 180.03421,98.513634 180.57386,97.001504 C 181.09915,95.518224 181.53202,93.999034 181.6698,92.424604 C 181.80103,90.854474 181.77703,89.278194 181.44653,87.730204 C 181.09181,86.168374 180.62523,84.636194 179.91498,83.194644 C 179.17864,81.729254 178.34157,80.312874 177.31422,79.029734 C 176.2355,77.681634 175.06627,76.407434 173.73773,75.299024 C 172.36998,74.155035 170.94644,73.073455 169.4109,72.161795 C 167.82555,71.238385 166.19307,70.394085 164.47736,69.736595 C 162.74945,69.095615 161.00817,68.483685 159.20526,68.084825 C 157.35093,67.682985 155.47572,67.371045 153.57739,67.280395 C 151.61521,67.195215 149.64487,67.215175 147.69499,67.476955 C 145.68648,67.755735 143.68697,68.119695 141.75165,68.739005 C 139.78606,69.380465 137.85316,70.119325 135.98587,71.010665 C 134.01083,71.970425 132.07194,73.004065 130.22804,74.200315 C 126.59377,76.551984 121.31757,80.541134 137.28523,68.925955 C 140.10716,66.873225 131.69065,72.873055 134.60363,71.015225 C 132.85242,72.523945 131.17993,74.118115 129.59665,75.803274 C 127.95158,77.577764 126.34077,79.389754 124.93268,81.361734 C 123.51011,83.355064 122.16721,85.405834 121.02479,87.575084 C 119.84384,89.792224 118.74105,92.052074 117.81047,94.387174 C 116.83666,96.860294 115.9205,99.356694 115.20462,101.91874 C 114.43027,104.59744 113.69013,107.28647 113.11155,110.01562 C 112.51455,112.77595 111.95872,115.54703 111.60875,118.35141 C 111.26659,121.04905 111.00564,123.75873 110.93488,126.47859 C 110.90702,129.06276 110.97506,131.64756 111.26938,134.21769 C 111.56331,136.7389 111.95522,139.24716 112.48856,141.72976 C 113.0282,144.25723 113.63403,146.76974 114.25973,149.2772 C 114.86613,151.762 115.46225,154.24932 116.01966,156.74566 C 116.5562,159.15551 117.05176,161.5761 117.44004,164.0147 C 117.77408,166.28927 118.03779,168.57672 118.07615,170.87805 C 118.10808,172.95426 118.04396,175.02857 117.78976,177.09181 C 117.55015,178.91992 117.24807,180.74524 116.72499,182.51659 C 116.26495,184.01195 115.72627,185.482 114.99181,186.86764 C 114.381,188.03371 113.74097,189.18734 112.96037,190.25055 C 112.3288,191.14145 111.6618,192.00646 110.95307,192.83761 C 110.41505,193.47872 109.86212,194.10899 109.23654,194.66733 C 105.63162,197.90951 101.22954,200.19669 97.530463,203.29529 L 107.85143,195.79666 z" />
    <path
       style="opacity:1;fill:#c0b79f;fill-opacity:1;fill-rule:nonzero;stroke:none;stroke-width:1.05799997;stroke-linecap:butt;stroke-linejoin:miter;marker:none;marker-start:none;marker-mid:none;marker-end:none;stroke-miterlimit:4.0999999;stroke-dasharray:none;stroke-dashoffset:0;stroke-opacity:1;visibility:visible;display:inline;overflow:visible;enable-background:accumulate"
       id="path5269"
       d="M 209.63824,189.70383 C 209.97806,189.29743 210.32568,188.89765 210.68071,188.50442 C 211.21059,187.90651 211.76108,187.32678 212.32362,186.75958 C 212.99664,186.07506 213.70607,185.42881 214.42523,184.79354 C 218.42949,181.39714 222.88416,178.48597 227.10258,175.42545 C 228.12417,174.72099 229.19607,174.09504 230.27581,173.48518 C 231.46218,172.80229 232.7041,172.22803 233.96376,171.69581 C 235.37893,171.11029 236.84071,170.6501 238.30735,170.21395 C 239.94274,169.73892 241.59223,169.31638 243.24257,168.89727 C 245.02996,168.45253 246.81461,167.99653 248.59475,167.52358 C 250.38183,167.0488 252.14848,166.50533 253.89305,165.89328 C 255.49426,165.32947 257.03457,164.6166 258.53888,163.83404 C 257.46205,164.89646 261.83032,161.61568 260.47388,162.59455 C 244.09982,174.41095 248.99121,171.63912 251.96293,168.4618 C 252.84328,167.48112 253.43894,166.32789 253.80774,165.07148 C 254.15664,163.84155 254.14252,162.5952 253.97759,161.34119 C 253.72665,159.87775 253.1126,158.52281 252.45898,157.20222 C 251.61773,155.59898 250.65019,154.06566 249.71898,152.51381 C 248.62167,150.76811 247.54654,149.00938 246.49887,147.23347 C 245.3627,145.33288 244.32202,143.37798 243.3288,141.39964 C 242.29318,139.34869 241.4214,137.22509 240.65061,135.06254 C 239.88013,132.86086 239.36156,130.58591 238.94578,128.29433 C 238.55645,126.01784 238.43613,123.71252 238.43703,121.40689 C 238.4533,119.14009 238.80947,116.90382 239.30152,114.69761 C 239.79631,112.52654 240.6164,110.45577 241.55424,108.443 C 242.48081,106.47474 243.67965,104.66473 245.00508,102.94693 C 249.01844,98.157574 254.76884,94.914104 259.69919,91.341764 C 261.65044,90.040764 263.83968,89.193194 266.058,88.474254 C 268.40791,87.732034 270.84246,87.343644 273.28485,87.068814 C 275.74071,86.815844 278.2068,86.845954 280.66689,86.994474 C 283.03586,87.149954 285.36703,87.598104 287.65948,88.198284 C 289.8436,88.795684 291.89193,89.752804 293.85205,90.870794 C 295.67356,91.922074 297.29148,93.255684 298.76312,94.748834 C 300.07468,96.127014 301.09429,97.728914 301.97762,99.404074 C 302.75643,100.92375 303.25555,102.55131 303.57896,104.22186 C 303.8504,105.77706 303.7766,107.35121 303.54298,108.90378 C 303.3107,110.36514 302.78517,111.74594 302.16996,113.08314 C 301.57392,114.36583 300.71822,115.47744 299.73083,116.47879 C 295.55112,120.06278 291.09526,123.37526 286.37639,126.21782 C 285.27873,126.86835 284.09958,127.34343 282.88676,127.72743 C 281.7349,128.08102 280.5474,128.21627 279.34733,128.20968 C 278.17456,128.19172 277.0285,127.94895 275.91242,127.60503 C 274.83924,127.26323 273.86432,126.70354 272.93988,126.07116 C 272.07174,125.46794 271.36356,124.68488 270.74751,123.83345 C 270.22166,123.05971 269.89881,122.19236 269.68683,121.28783 C 269.49642,120.44049 269.56571,119.58552 269.70747,118.73896 C 269.79788,118.20257 269.97054,117.68752 270.14943,117.17579 L 280.36804,109.75153 C 280.17943,110.26517 280.00362,110.78422 279.91122,111.3255 C 279.77113,112.17374 279.69217,113.03033 279.88296,113.87991 C 280.09001,114.78874 280.39389,115.6645 280.91374,116.44726 C 281.51968,117.3054 282.22027,118.09097 283.08219,118.70234 C 284.00396,119.33488 284.97612,119.89572 286.04486,120.24338 C 287.15737,120.591 288.30039,120.83267 289.47055,120.85474 C 290.66734,120.85971 291.85382,120.72936 293.00299,120.37756 C 294.2087,120.00204 295.37843,119.529 296.46892,118.88517 C 300.16079,116.66479 304.79917,112.96605 288.05957,125.12022 C 286.52317,126.23576 291.24478,122.90863 289.65293,123.80081 C 290.64436,122.79668 291.50398,121.68191 292.10455,120.39609 C 292.72815,119.05406 293.25863,117.66858 293.4996,116.20072 C 293.74227,114.64347 293.82179,113.06443 293.55885,111.50189 C 293.24807,109.82343 292.7639,108.18559 292.00315,106.65094 C 291.13561,104.96622 290.12672,103.35862 288.8271,101.96777 C 287.37985,100.45839 285.7784,99.110074 283.96581,98.053564 C 282.01454,96.932234 279.97932,95.959274 277.80078,95.361054 C 275.51877,94.750104 273.19455,94.303024 270.83403,94.138464 C 268.38025,93.984664 265.92004,93.950544 263.46984,94.199834 C 261.01925,94.478244 258.57799,94.876454 256.22037,95.621714 C 253.98523,96.347994 251.78207,97.210524 249.81638,98.522054 C 267.02364,85.979254 258.00222,91.840724 254.90364,95.755214 C 253.57468,97.475844 252.36975,99.288274 251.4405,101.26021 C 250.49823,103.27456 249.67463,105.34669 249.17905,107.52116 C 248.68349,109.72958 248.31915,111.96848 248.30349,114.23848 C 248.29398,116.54603 248.41727,118.85328 248.80396,121.13194 C 249.22047,123.42377 249.72854,125.70172 250.50653,127.9018 C 251.28303,130.06033 252.1644,132.17871 253.20228,134.22614 C 254.20125,136.19989 255.24982,138.1494 256.40013,140.03978 C 257.46189,141.80571 258.54745,143.55635 259.66479,145.28775 C 260.61609,146.82414 261.61423,148.33392 262.48267,149.91958 C 263.15545,151.22116 263.80691,152.55123 264.07556,154.00458 C 264.25959,155.25712 264.26803,156.4999 263.91374,157.72904 C 263.53522,158.99393 262.93282,160.15392 262.04104,161.13961 C 258.1938,165.22383 253.25581,168.15592 248.51305,171.11824 C 247.02409,171.88966 245.49909,172.59078 243.91389,173.14357 C 242.17446,173.74944 240.41396,174.28833 238.63342,174.76091 C 236.84477,175.23767 235.05204,175.69907 233.25722,176.15205 C 231.59358,176.5814 229.92966,177.00983 228.28193,177.49784 C 226.80074,177.9432 225.32472,178.41274 223.89646,179.01013 C 222.62803,179.54959 221.37704,180.13014 220.18156,180.81908 C 219.08817,181.43912 218.00185,182.07385 216.9672,182.78923 C 234.34151,170.14647 228.17105,174.34772 224.59147,177.40734 C 223.88304,178.03472 223.18371,178.67243 222.52229,179.34981 C 221.97567,179.90345 221.44165,180.47039 220.93079,181.05729 C 220.59886,181.43045 220.27654,181.81214 219.96403,182.20171 L 209.63824,189.70383 z" />
    <path
       style="opacity:1;fill:#c0b79f;fill-opacity:1;fill-rule:nonzero;stroke:none;stroke-width:1.05799997;stroke-linecap:butt;stroke-linejoin:miter;marker:none;marker-start:none;marker-mid:none;marker-end:none;stroke-miterlimit:4.0999999;stroke-dasharray:none;stroke-dashoffset:0;stroke-opacity:1;visibility:visible;display:inline;overflow:visible;enable-background:accumulate"
       id="path5273"
       d="M 196.42553,177.95936 C 196.84629,177.70412 197.28377,177.47863 197.71521,177.24242 C 198.42769,176.83499 199.12984,176.40889 199.81766,175.96111 C 206.20809,171.39733 186.90011,185.90394 192.3326,181.34738 C 193.34003,180.5143 194.18386,179.52291 194.96838,178.48373 C 195.79849,177.37216 196.51083,176.18345 197.09766,174.92763 C 197.72136,173.56121 198.02018,172.09705 198.19504,170.61478 C 198.37388,168.84974 198.14645,167.09238 197.8598,165.3534 C 197.51019,163.36417 196.99453,161.40865 196.43793,159.46874 C 195.79204,157.26153 195.02404,155.09294 194.23826,152.93246 C 193.3297,150.41151 192.30146,147.93631 191.30211,145.45059 C 190.18892,142.72258 189.11991,139.97765 188.07776,137.22184 C 187.01009,134.42835 186.0545,131.59505 185.15339,128.74415 C 184.23033,125.90936 183.49295,123.02353 182.87255,120.10917 C 182.25465,117.25391 181.95951,114.35078 181.83356,111.4368 C 181.71095,108.58548 181.98987,105.74979 182.4699,102.94357 C 182.97646,100.183 183.81824,97.501314 184.8703,94.903994 C 185.97767,92.232264 187.56538,89.813424 189.27475,87.495724 C 191.12794,85.044104 193.25894,82.827574 195.4299,80.659944 C 197.65623,78.451294 200.03662,76.409484 202.46608,74.429734 C 208.04148,70.142965 213.70126,65.950425 219.55999,62.056915 C 221.91295,60.505645 224.32462,59.046905 226.75675,57.623995 C 228.94786,56.340195 231.22952,55.227735 233.57652,54.262035 C 235.68297,53.404505 237.86662,52.775195 240.08111,52.271315 C 242.0091,51.852305 243.97284,51.676685 245.94252,51.673375 C 247.6098,51.694865 249.20837,52.097765 250.71723,52.786185 C 251.98236,53.407445 252.98519,54.341465 253.73709,55.521705 C 254.40506,56.712225 254.41071,58.009935 254.2179,59.321375 C 253.93994,60.892915 253.24133,62.332155 252.51301,63.736205 C 251.64002,65.368465 250.545,66.862915 249.38039,68.296005 C 248.10059,69.836895 246.69254,71.261645 245.23848,72.636545 C 240.68847,76.729604 235.47629,80.102514 230.55423,83.673774 C 228.94644,84.825834 227.29977,85.921114 225.59458,86.923364 C 224.10715,87.792694 222.53945,88.508214 220.92347,89.100514 C 219.59905,89.573454 218.2217,89.848014 216.82441,89.976834 C 215.78545,90.060654 214.74917,90.011734 213.73659,89.765284 C 213.06103,89.566274 212.49754,89.194264 212.08327,88.627854 C 211.7679,88.129544 211.69986,87.596774 211.79585,87.026164 C 211.94151,86.361934 212.32233,85.799184 212.72403,85.264384 C 213.03965,84.884844 212.87704,85.071424 213.21203,84.704784 L 223.43923,77.274294 C 223.10727,77.638704 223.26829,77.453264 222.95599,77.830434 C 222.56326,78.357134 222.19775,78.912524 222.06274,79.566824 C 221.97869,80.134014 222.04147,80.672054 222.34789,81.170164 C 222.73958,81.741194 223.27892,82.130424 223.93738,82.353974 C 224.91374,82.624154 225.91894,82.700694 226.93049,82.634334 C 228.30308,82.523624 229.65764,82.267684 230.95954,81.808874 C 232.54992,81.238464 234.09019,80.538704 235.55222,79.688714 C 237.24723,78.695084 238.88272,77.606754 240.47984,76.462404 C 223.10728,89.104444 231.7064,83.183434 235.31289,79.847914 C 236.75886,78.478574 238.16084,77.061104 239.43098,75.524674 C 240.58004,74.105645 241.65381,72.622505 242.50918,71.004415 C 243.21417,69.617035 243.893,68.196445 244.13883,66.644255 C 244.3092,65.336485 244.28509,64.047285 243.64347,62.855155 C 242.90161,61.673205 241.91759,60.729335 240.66572,60.089035 C 239.18847,59.377235 237.61541,58.957845 235.96709,58.920955 C 234.02351,58.903595 232.08474,59.062075 230.17985,59.464995 C 227.98691,59.949255 225.82636,60.566955 223.74079,61.408105 C 221.415,62.358135 219.15478,63.455955 216.98419,64.724175 C 214.57399,66.131015 212.18416,67.573655 209.85325,69.109275 C 206.31008,71.462685 200.34022,75.919614 215.8364,64.607475 C 216.25009,64.305485 215.00624,65.207645 214.59464,65.512455 C 213.36577,66.422495 213.33939,66.457455 212.13653,67.403745 C 209.70681,69.383125 207.32588,71.424495 205.10035,73.633945 C 202.94062,75.792094 200.82236,78.000564 198.98165,80.443244 C 197.28598,82.750274 195.72101,85.162554 194.62202,87.818944 C 193.57087,90.421244 192.70686,93.101854 192.20713,95.869064 C 191.7242,98.676564 191.44634,101.51527 191.56271,104.36816 C 191.68085,107.28733 191.96203,110.19599 192.57904,113.05699 C 193.19487,115.97324 193.93435,118.85972 194.85362,121.69652 C 195.75602,124.54696 196.71304,127.38018 197.77707,130.17488 C 198.82268,132.92482 199.90386,135.66021 201.04441,138.3724 C 202.06736,140.83933 203.11685,143.29607 204.0643,145.79343 C 204.88232,147.93146 205.6804,150.07922 206.34502,152.27082 C 206.91922,154.19659 207.44962,156.13919 207.82222,158.11527 C 208.12707,159.83523 208.3801,161.57545 208.22577,163.32703 C 208.06921,164.79831 207.79187,166.25435 207.17078,167.60908 C 206.58745,168.86194 205.87933,170.04813 205.05261,171.15711 C 204.28033,172.18648 203.44934,173.16859 202.45465,173.99328 C 198.4058,177.39575 193.98187,180.32979 189.644,183.3527 C 188.93177,183.81812 188.20517,184.26188 187.46829,184.68724 C 187.00991,184.94188 186.54616,185.18721 186.09922,185.46186 L 196.42553,177.95936 z" />
    <path
       style="opacity:1;fill:#c0b79f;fill-opacity:1;fill-rule:nonzero;stroke:none;stroke-width:1.05799997;stroke-linecap:butt;stroke-linejoin:miter;marker:none;marker-start:none;marker-mid:none;marker-end:none;stroke-miterlimit:4.0999999;stroke-dasharray:none;stroke-dashoffset:0;stroke-opacity:1;visibility:visible;display:inline;overflow:visible;enable-background:accumulate"
       id="path5299"
       d="M 126.07946,197.5597 C 126.44209,197.18951 126.81956,196.83526 127.21006,196.49473 C 131.13256,193.33939 135.27469,190.46434 139.39846,187.57809 C 140.36557,186.8918 141.33666,186.2118 142.32147,185.55109 C 143.5912,184.72294 144.8443,183.86979 146.10153,183.02289 C 150.14057,180.31368 157.64543,174.75315 140.25576,187.38144 C 141.59247,186.41502 142.86923,185.37169 144.06644,184.23753 C 145.14396,183.24929 146.01487,182.09485 146.70076,180.80925 C 147.3009,179.64191 147.50638,178.37039 147.5777,177.0762 C 147.61647,175.73568 147.25436,174.46181 146.78626,173.22169 C 146.20282,171.77944 145.31427,170.50357 144.3742,169.27592 C 143.19787,167.79869 141.84981,166.47411 140.46619,165.19396 C 138.85423,163.74175 137.19184,162.34689 135.52208,160.96199 C 133.7744,159.52665 131.98171,158.14724 130.19742,156.75799 C 128.42931,155.38361 126.67816,153.9877 124.93454,152.58245 C 123.2363,151.21402 121.60669,149.76361 119.98458,148.30665 C 118.39492,146.87339 116.89829,145.34357 115.45844,143.7612 C 114.02422,142.17523 112.77435,140.44019 111.59344,138.66153 C 110.41943,136.88532 109.39905,135.01976 108.46397,133.10921 C 107.57231,131.27485 106.91847,129.34491 106.38517,127.38042 C 105.87641,125.47116 105.62565,123.50906 105.52494,121.53959 C 105.4382,119.67819 105.61312,117.82412 105.85926,115.9818 C 106.0848,114.20472 106.5282,112.47238 107.05683,110.76469 C 107.5689,109.13341 108.22552,107.55486 108.93755,106.00233 C 109.60993,104.5377 110.44552,103.16025 111.3582,101.83518 C 112.22129,100.5986 113.20531,99.455694 114.23203,98.353844 C 118.25492,94.517964 122.93401,91.410064 127.56964,88.364044 C 128.70551,87.624024 129.94978,87.080044 131.21876,86.615294 C 132.45239,86.178424 133.72999,85.910024 135.02415,85.736084 C 136.28897,85.574094 137.56189,85.610064 138.82855,85.717824 C 140.08386,85.825454 141.30065,86.159624 142.4979,86.535574 C 143.68262,86.912474 144.81125,87.433004 145.91551,87.998854 C 147.02615,88.568524 148.04571,89.290594 149.0377,90.043124 C 150.02937,90.787964 150.92903,91.637974 151.77317,92.543784 C 152.60749,93.434384 153.31337,94.428534 153.97986,95.447334 C 154.61037,96.394264 155.10774,97.417164 155.55548,98.460194 C 155.96172,99.450304 156.23098,100.48705 156.40645,101.54068 C 156.5709,102.5562 156.53664,103.58305 156.43008,104.60149 C 156.3072,105.59784 156.06736,106.57337 155.76895,107.53021 C 155.4553,108.47659 155.03546,109.38367 154.57632,110.26715 C 154.11837,111.12426 153.59344,111.93884 153.00733,112.71307 C 152.42512,113.47261 151.74091,114.13873 151.00547,114.74723 C 146.7905,117.60055 143.07366,121.38862 138.43048,123.57401 C 137.61076,123.95813 136.75056,124.23332 135.87512,124.45574 C 135.00985,124.65979 134.12946,124.78384 133.24457,124.85993 C 132.36651,124.93148 131.48554,124.91358 130.61065,124.81753 C 129.80336,124.72318 129.03854,124.46208 128.30375,124.12531 C 127.59963,123.79109 126.98351,123.31721 126.40509,122.80131 C 125.84019,122.28227 125.35495,121.689 124.92451,121.05609 C 124.54585,120.49171 124.26735,119.87238 124.05381,119.22937 C 123.86215,118.65513 123.8148,118.05895 123.82527,117.45825 C 123.8604,117.06536 123.83655,117.26093 123.89679,116.87155 L 134.16007,109.41484 C 134.10017,109.80336 134.12299,109.6085 134.09151,109.99939 C 134.07788,110.60133 134.11783,111.20378 134.30661,111.78028 C 134.50657,112.43037 134.78617,113.05012 135.15463,113.62347 C 135.58183,114.25843 136.05035,114.86513 136.62384,115.37696 C 137.2039,115.89077 137.82059,116.36371 138.52301,116.70058 C 139.25189,117.03862 140.01028,117.3046 140.81177,117.40599 C 141.68529,117.50926 142.56433,117.52638 143.44163,117.45133 C 144.32466,117.37979 145.2018,117.25251 146.06542,117.05206 C 146.93914,116.82827 147.79931,116.55633 148.61782,116.17248 C 149.03779,115.97612 149.45215,115.77372 149.85062,115.53562 C 149.9847,115.45551 150.37286,115.19317 150.24685,115.28547 C 135.4184,126.14732 137.39158,124.68718 140.82499,122.14379 C 141.56183,121.53427 142.24766,120.86756 142.83097,120.10662 C 143.41886,119.33103 143.94546,118.51518 144.40545,117.65672 C 144.8667,116.77348 145.28891,115.86595 145.60049,114.91803 C 145.90133,113.95968 146.14,112.98127 146.26913,111.98386 C 146.37163,110.96373 146.40772,109.93723 146.25051,108.9194 C 146.07606,107.86371 145.81638,106.82358 145.41092,105.83064 C 144.96826,104.78339 144.4805,103.75582 143.85999,102.79985 C 143.19469,101.7807 142.49564,100.78091 141.6614,99.890414 C 140.81693,98.985864 139.91734,98.135034 138.92859,97.387814 C 137.93331,96.638214 136.91885,95.909784 135.8035,95.345664 C 134.69867,94.783614 133.57398,94.254774 132.38963,93.879664 C 131.19471,93.500644 129.97738,93.173494 128.72476,93.058654 C 127.46002,92.953544 126.18812,92.915404 124.9251,93.073464 C 123.63398,93.246204 122.35929,93.512404 121.12808,93.946604 C 119.86235,94.408024 118.62198,94.950114 117.48953,95.687674 C 113.67981,98.189074 116.07883,96.626824 126.43052,89.150814 C 126.61997,89.014004 126.06322,89.439884 125.88287,89.588494 C 125.47512,89.924504 125.19359,90.172194 124.80979,90.536494 C 124.63375,90.703594 124.46321,90.876404 124.28992,91.046364 C 123.25484,92.154454 122.2622,93.303504 121.39031,94.546434 C 120.47052,95.876044 119.62958,97.258544 118.94958,98.728174 C 118.22781,100.28636 117.56212,101.87123 117.04239,103.50976 C 116.51329,105.22027 116.06407,106.955 115.83447,108.73439 C 115.58323,110.58248 115.39479,112.44268 115.47434,114.31092 C 115.56542,116.28517 115.80688,118.25189 116.31463,120.16625 C 116.84991,122.13151 117.49164,124.068 118.37677,125.90714 C 119.30204,127.82339 120.31208,129.696 121.49194,131.46985 C 122.67609,133.24632 123.92848,134.9793 125.361,136.56657 C 126.79823,138.15103 128.29578,139.67904 129.88172,141.11596 C 131.49959,142.5756 133.12248,144.03072 134.81566,145.4034 C 136.55605,146.81099 138.30371,148.20964 140.06914,149.58577 C 141.85274,150.97687 143.64551,152.35656 145.39854,153.78632 C 147.07927,155.16501 148.75552,156.55033 150.38974,157.98409 C 151.7947,159.24796 153.17705,160.54459 154.38475,162.00283 C 155.34399,163.21312 156.25804,164.46859 156.86329,165.9003 C 157.34605,167.1311 157.72206,168.39614 157.68273,169.73447 C 157.61067,171.03825 157.39335,172.3153 156.77967,173.48649 C 156.07727,174.78375 155.1921,175.94973 154.09929,176.94824 C 152.89045,178.08863 151.60451,179.14091 150.25742,180.11481 C 145.55381,183.53361 140.90388,187.04296 136.08352,190.3014 C 134.80443,191.16397 133.52948,192.0328 132.23815,192.87706 C 131.22446,193.55851 130.22471,194.25955 129.22886,194.96674 C 124.76844,198.09321 143.34195,184.48511 137.46559,189.04365 C 137.09652,189.36737 136.74143,189.70558 136.40173,190.06013 L 126.07946,197.5597 z" />
  </g>
</svg>
