<?xml version="1.0" encoding="UTF-8" standalone="no"?>
<!-- Created with Inkscape (http://www.inkscape.org/) -->
<svg
   xmlns:dc="http://purl.org/dc/elements/1.1/"
   xmlns:cc="http://web.resource.org/cc/"
   xmlns:rdf="http://www.w3.org/1999/02/22-rdf-syntax-ns#"
   xmlns:svg="http://www.w3.org/2000/svg"
   xmlns="http://www.w3.org/2000/svg"
   xmlns:sodipodi="http://inkscape.sourceforge.net/DTD/sodipodi-0.dtd"
   xmlns:inkscape="http://www.inkscape.org/namespaces/inkscape"
   width="744.09448819"
   height="1052.3622047"
   id="svg2"
   sodipodi:version="0.32"
   inkscape:version="0.43"
   sodipodi:docbase="C:\Documents and Settings\Cowbert\Desktop\art"
   sodipodi:docname="egg.svg">
  <defs
     id="defs4" />
  <sodipodi:namedview
     id="base"
     pagecolor="#ffffff"
     bordercolor="#666666"
     borderopacity="1.0"
     inkscape:pageopacity="0.0"
     inkscape:pageshadow="2"
     inkscape:zoom="0.7"
     inkscape:cx="457.01137"
     inkscape:cy="562.60805"
     inkscape:document-units="px"
     inkscape:current-layer="layer2"
     inkscape:window-width="1045"
     inkscape:window-height="913"
     inkscape:window-x="-4"
     inkscape:window-y="-4" />
  <metadata
     id="metadata7">
    <rdf:RDF>
      <cc:Work
         rdf:about="">
        <dc:format>image/svg+xml</dc:format>
        <dc:type
           rdf:resource="http://purl.org/dc/dcmitype/StillImage" />
      </cc:Work>
    </rdf:RDF>
  </metadata>
  <g
     inkscape:label="unit"
     inkscape:groupmode="layer"
     id="layer1">
    <rect
       style="opacity:1;color:#000000;fill:#f9d2bd;fill-opacity:0.21604939;fill-rule:nonzero;stroke:none;stroke-width:10;stroke-linecap:square;stroke-linejoin:miter;marker:none;marker-start:none;marker-mid:none;marker-end:none;stroke-miterlimit:4;stroke-dasharray:none;stroke-dashoffset:0;stroke-opacity:1;visibility:visible;display:none;overflow:visible"
       id="rect7001"
       width="211.42857"
       height="211.42857"
       x="50"
       y="579.505" />
  </g>
  <g
     inkscape:groupmode="layer"
     id="layer11"
     inkscape:label="1-crop">
    <rect
       style="opacity:1;color:#000000;fill:#f9d2bd;fill-opacity:0.21604939;fill-rule:nonzero;stroke:none;stroke-width:10;stroke-linecap:square;stroke-linejoin:miter;marker:none;marker-start:none;marker-mid:none;marker-end:none;stroke-miterlimit:4;stroke-dasharray:none;stroke-dashoffset:0;stroke-opacity:1;visibility:visible;display:none;overflow:visible"
       id="rect7004"
       width="132.85715"
       height="132.85715"
       x="88.571434"
       y="203.79076" />
  </g>
  <g
     inkscape:groupmode="layer"
     id="layer12"
     inkscape:label="2-crop">
    <rect
       style="opacity:1;color:#000000;fill:#f9d2bd;fill-opacity:0.21604939;fill-rule:nonzero;stroke:none;stroke-width:10;stroke-linecap:square;stroke-linejoin:miter;marker:none;marker-start:none;marker-mid:none;marker-end:none;stroke-miterlimit:4;stroke-dasharray:none;stroke-dashoffset:0;stroke-opacity:1;visibility:visible;display:none;overflow:visible"
       id="rect7007"
       width="161.42859"
       height="138.57143"
       x="267.14285"
       y="206.6479" />
  </g>
  <g
     inkscape:groupmode="layer"
     id="layer13"
     inkscape:label="3-crop">
    <rect
       style="opacity:1;color:#000000;fill:#f9d2bd;fill-opacity:0.21604939;fill-rule:nonzero;stroke:none;stroke-width:10;stroke-linecap:square;stroke-linejoin:miter;marker:none;marker-start:none;marker-mid:none;marker-end:none;stroke-miterlimit:4;stroke-dasharray:none;stroke-dashoffset:0;stroke-opacity:1;visibility:visible;display:none;overflow:visible"
       id="rect7010"
       width="147.14285"
       height="162.85715"
       x="497.14285"
       y="202.36218" />
  </g>
  <g
     inkscape:groupmode="layer"
     id="layer14"
     inkscape:label="4-crop">
    <rect
       style="opacity:1;color:#000000;fill:#f9d2bd;fill-opacity:0.21604939;fill-rule:nonzero;stroke:none;stroke-width:10;stroke-linecap:square;stroke-linejoin:miter;marker:none;marker-start:none;marker-mid:none;marker-end:none;stroke-miterlimit:4;stroke-dasharray:none;stroke-dashoffset:0;stroke-opacity:1;visibility:visible;display:none;overflow:visible"
       id="rect7013"
       width="134.28572"
       height="131.42857"
       x="85.714287"
       y="399.50504" />
  </g>
  <g
     inkscape:groupmode="layer"
     id="layer15"
     inkscape:label="5-crop">
    <rect
       style="opacity:1;color:#000000;fill:#f9d2bd;fill-opacity:0.21604939;fill-rule:nonzero;stroke:none;stroke-width:10;stroke-linecap:square;stroke-linejoin:miter;marker:none;marker-start:none;marker-mid:none;marker-end:none;stroke-miterlimit:4;stroke-dasharray:none;stroke-dashoffset:0;stroke-opacity:1;visibility:visible;display:none;overflow:visible"
       id="rect7016"
       width="144.28572"
       height="158.57143"
       x="280"
       y="370.93362" />
  </g>
  <g
     inkscape:groupmode="layer"
     id="layer16"
     inkscape:label="6-crop">
    <rect
       style="opacity:1;color:#000000;fill:#f9d2bd;fill-opacity:0.21604939;fill-rule:nonzero;stroke:none;stroke-width:10;stroke-linecap:square;stroke-linejoin:miter;marker:none;marker-start:none;marker-mid:none;marker-end:none;stroke-miterlimit:4;stroke-dasharray:none;stroke-dashoffset:0;stroke-opacity:1;visibility:visible;display:none;overflow:visible"
       id="rect7019"
       width="145.71428"
       height="170"
       x="471.42856"
       y="383.79074" />
  </g>
  <g
     inkscape:groupmode="layer"
     id="layer17"
     inkscape:label="7-crop">
    <rect
       style="opacity:1;color:#000000;fill:#f9d2bd;fill-opacity:0.21604939;fill-rule:nonzero;stroke:none;stroke-width:10;stroke-linecap:square;stroke-linejoin:miter;marker:none;marker-start:none;marker-mid:none;marker-end:none;stroke-miterlimit:4;stroke-dasharray:none;stroke-dashoffset:0;stroke-opacity:1;visibility:visible;display:none;overflow:visible"
       id="rect7022"
       width="148.57143"
       height="162.85713"
       x="80"
       y="596.64789" />
  </g>
  <g
     inkscape:groupmode="layer"
     id="layer18"
     inkscape:label="8-crop">
    <rect
       style="opacity:1;color:#000000;fill:#f9d2bd;fill-opacity:0.21604939;fill-rule:nonzero;stroke:none;stroke-width:10;stroke-linecap:square;stroke-linejoin:miter;marker:none;marker-start:none;marker-mid:none;marker-end:none;stroke-miterlimit:4;stroke-dasharray:none;stroke-dashoffset:0;stroke-opacity:1;visibility:visible;display:none;overflow:visible"
       id="rect7025"
       width="131.42857"
       height="177.14285"
       x="285.71429"
       y="585.2193" />
  </g>
  <g
     inkscape:groupmode="layer"
     id="layer19"
     inkscape:label="9-crop">
    <rect
       style="opacity:1;color:#000000;fill:#f9d2bd;fill-opacity:0.21604939;fill-rule:nonzero;stroke:none;stroke-width:10;stroke-linecap:square;stroke-linejoin:miter;marker:none;marker-start:none;marker-mid:none;marker-end:none;stroke-miterlimit:4;stroke-dasharray:none;stroke-dashoffset:0;stroke-opacity:1;visibility:visible;display:none;overflow:visible"
       id="rect7028"
       width="154.28572"
       height="160"
       x="464.28571"
       y="596.64789" />
  </g>
  <g
     inkscape:groupmode="layer"
     id="layer20"
     inkscape:label="1-path">
    <rect
       style="opacity:1;color:#000000;fill:#f9d2bd;fill-opacity:0.21604939;fill-rule:nonzero;stroke:none;stroke-width:10;stroke-linecap:square;stroke-linejoin:miter;marker:none;marker-start:none;marker-mid:none;marker-end:none;stroke-miterlimit:4;stroke-dasharray:none;stroke-dashoffset:0;stroke-opacity:1;visibility:visible;display:none;overflow:visible"
       id="rect7031"
       width="142.85715"
       height="47.142857"
       x="80"
       y="282.36218" />
  </g>
  <g
     inkscape:groupmode="layer"
     id="layer21"
     inkscape:label="2-path">
    <rect
       style="opacity:1;color:#000000;fill:#f9d2bd;fill-opacity:0.21604939;fill-rule:nonzero;stroke:none;stroke-width:10;stroke-linecap:square;stroke-linejoin:miter;marker:none;marker-start:none;marker-mid:none;marker-end:none;stroke-miterlimit:4;stroke-dasharray:none;stroke-dashoffset:0;stroke-opacity:1;visibility:visible;display:none;overflow:visible"
       id="rect7034"
       width="165.71428"
       height="55.714287"
       x="262.85715"
       y="285.21933" />
  </g>
  <g
     inkscape:groupmode="layer"
     id="layer22"
     inkscape:label="3-path">
    <rect
       style="opacity:1;color:#000000;fill:#f9d2bd;fill-opacity:0.21604939;fill-rule:nonzero;stroke:none;stroke-width:10;stroke-linecap:square;stroke-linejoin:miter;marker:none;marker-start:none;marker-mid:none;marker-end:none;stroke-miterlimit:4;stroke-dasharray:none;stroke-dashoffset:0;stroke-opacity:1;visibility:visible;display:none;overflow:visible"
       id="rect7037"
       width="152.85715"
       height="67.14286"
       x="491.42856"
       y="298.07648" />
  </g>
  <g
     inkscape:groupmode="layer"
     id="layer23"
     inkscape:label="4-path">
    <rect
       style="opacity:1;color:#000000;fill:#f9d2bd;fill-opacity:0.21604939;fill-rule:nonzero;stroke:none;stroke-width:10;stroke-linecap:square;stroke-linejoin:miter;marker:none;marker-start:none;marker-mid:none;marker-end:none;stroke-miterlimit:4;stroke-dasharray:none;stroke-dashoffset:0;stroke-opacity:1;visibility:visible;display:none;overflow:visible"
       id="rect7040"
       width="117.14286"
       height="60"
       x="95.714287"
       y="468.07648" />
  </g>
  <g
     inkscape:groupmode="layer"
     id="layer24"
     inkscape:label="5-path">
    <rect
       style="opacity:1;color:#000000;fill:#f9d2bd;fill-opacity:0.21604939;fill-rule:nonzero;stroke:none;stroke-width:10;stroke-linecap:square;stroke-linejoin:miter;marker:none;marker-start:none;marker-mid:none;marker-end:none;stroke-miterlimit:4;stroke-dasharray:none;stroke-dashoffset:0;stroke-opacity:1;visibility:visible;display:none;overflow:visible"
       id="rect7043"
       width="134.28572"
       height="75.714287"
       x="285.71429"
       y="449.50504" />
  </g>
  <g
     inkscape:groupmode="layer"
     id="layer25"
     inkscape:label="6-path">
    <rect
       style="opacity:1;color:#000000;fill:#f9d2bd;fill-opacity:0.21604939;fill-rule:nonzero;stroke:none;stroke-width:10;stroke-linecap:square;stroke-linejoin:miter;marker:none;marker-start:none;marker-mid:none;marker-end:none;stroke-miterlimit:4;stroke-dasharray:none;stroke-dashoffset:0;stroke-opacity:1;visibility:visible;display:none;overflow:visible"
       id="rect7046"
       width="137.14285"
       height="75.714287"
       x="474.28571"
       y="472.36218" />
  </g>
  <g
     inkscape:groupmode="layer"
     id="layer26"
     inkscape:label="7-path">
    <rect
       style="opacity:1;color:#000000;fill:#f9d2bd;fill-opacity:0.21604939;fill-rule:nonzero;stroke:none;stroke-width:10;stroke-linecap:square;stroke-linejoin:miter;marker:none;marker-start:none;marker-mid:none;marker-end:none;stroke-miterlimit:4;stroke-dasharray:none;stroke-dashoffset:0;stroke-opacity:1;visibility:visible;display:none;overflow:visible"
       id="rect7049"
       width="131.42857"
       height="68.571426"
       x="91.428574"
       y="689.50507" />
  </g>
  <g
     inkscape:groupmode="layer"
     id="layer27"
     inkscape:label="8-path">
    <rect
       style="opacity:1;color:#000000;fill:#f9d2bd;fill-opacity:0.21604939;fill-rule:nonzero;stroke:none;stroke-width:10;stroke-linecap:square;stroke-linejoin:miter;marker:none;marker-start:none;marker-mid:none;marker-end:none;stroke-miterlimit:4;stroke-dasharray:none;stroke-dashoffset:0;stroke-opacity:1;visibility:visible;display:none;overflow:visible"
       id="rect7052"
       width="127.14286"
       height="81.428574"
       x="290"
       y="678.07648" />
  </g>
  <g
     inkscape:groupmode="layer"
     id="layer28"
     inkscape:label="9-path">
    <rect
       style="opacity:1;color:#000000;fill:#f9d2bd;fill-opacity:0.21604939;fill-rule:nonzero;stroke:none;stroke-width:10;stroke-linecap:square;stroke-linejoin:miter;marker:none;marker-start:none;marker-mid:none;marker-end:none;stroke-miterlimit:4;stroke-dasharray:none;stroke-dashoffset:0;stroke-opacity:1;visibility:visible;display:none;overflow:visible"
       id="rect7055"
       width="152.85715"
       height="81.428574"
       x="467.14285"
       y="675.2193" />
  </g>
  <g
     inkscape:groupmode="layer"
     id="layer2"
     inkscape:label="1"
     style="display:inline">
    <path
       style="opacity:1;color:#000000;fill:#fbedd5;fill-opacity:1;fill-rule:nonzero;stroke:none;stroke-width:10;stroke-linecap:square;stroke-linejoin:miter;marker:none;marker-start:none;marker-mid:none;marker-end:none;stroke-miterlimit:4;stroke-dasharray:none;stroke-dashoffset:0;stroke-opacity:1;visibility:visible;display:none;overflow:visible"
       d="M 156.78571,216.29076 C 135.334,221.61814 117.24123,238.68739 110.67272,259.79185 C 94.038518,276.99335 100.84033,309.79119 122.94324,318.9591 C 151.21012,333.04311 189.37624,320.50736 203.80931,292.42296 C 219.93392,269.2746 211.71455,233.33904 187.12057,219.51314 C 178.85181,214.18595 168.08592,210.86528 158.57143,214.86218"
       id="path1489" />
    <path
       style="opacity:1;color:#000000;fill:#f9d2bd;fill-opacity:1;fill-rule:nonzero;stroke:none;stroke-width:10;stroke-linecap:square;stroke-linejoin:miter;marker:none;marker-start:none;marker-mid:none;marker-end:none;stroke-miterlimit:4;stroke-dasharray:none;stroke-dashoffset:0;stroke-opacity:1;visibility:visible;display:none;overflow:visible"
       d="M 120,262.36218 C 128.45688,261.65682 136.5197,265.64295 143.20221,270.45556 C 147.33717,274.28806 149.23067,279.84519 151.09456,285.01798 C 152.86102,291.2772 153.85605,297.7252 155.65352,303.9774 C 156.8474,307.90687 155.60237,312.83325 151.15909,313.84221 C 148.49139,314.46831 142.59696,317.60585 145.81618,320.20033 C 150.22779,319.12032 152.12487,313.72742 157.028,313.08534 C 161.56607,310.96302 160.72861,305.79721 159.16764,302.01078 C 157.94064,298.46919 157.31143,294.74943 157.38728,291.02116 C 156.73954,286.34661 158.55099,280.77925 163.32592,279.03561 C 170.60564,274.94681 179.21533,278.41481 186.8524,275.82925 C 192.09264,274.17266 197.91048,271.49931 200.25179,266.18883 C 202.12463,263.55116 201.41089,256.15853 198.4536,257.4992 C 198.32098,262.04364 197.26634,267.80511 192.30691,269.38739 C 185.61333,272.38511 178.46298,274.99282 171.01388,274.63077 C 166.4496,274.66122 161.50702,275.35302 158.08126,278.67088 C 153.91603,281.95654 148.72037,278.33092 148.53263,273.59272 C 146.86322,269.28325 144.54144,264.50161 139.89899,262.81151 C 134.98881,263.16981 130.15137,256.45395 134.97435,252.94633 C 137.08461,251.13446 143.21277,247.04868 139.4853,244.65255 C 134.99896,244.66708 133.53477,249.85829 131.08766,252.77339 C 128.46609,256.28442 124.82871,259.66644 120.22424,259.91989 C 121.11511,260.9229 117.17228,262.6535 120,262.36218 z "
       id="path5677" />
    <path
       style="fill:#000000;fill-opacity:1;fill-rule:nonzero;stroke:none;stroke-width:1px;stroke-linecap:butt;stroke-linejoin:miter;stroke-opacity:1"
       d="M 160.50523,219.44249 C 129.66508,231.81382 100.04814,263.56085 108.2156,299.04925 C 133.55276,338.72499 204.28198,314.30581 204.59709,268.8779 C 223.82156,241.77566 157.90924,224.80218 176.77962,210.32665 C 212.36272,214.87324 222.65744,262.68273 207.94841,290.71789 C 190.3392,326.86827 133.40871,344.50043 104.26595,312.61183 C 85.33557,281.19997 109.25226,243.468 135.50115,224.85268 C 140.59587,221.29889 163.72716,200.47579 160.50523,219.44249 z "
       id="path1319" />
  </g>
  <g
     inkscape:groupmode="layer"
     id="layer3"
     inkscape:label="2"
     style="display:inline">
    <path
       style="opacity:1;color:#000000;fill:#fbedd5;fill-opacity:1;fill-rule:nonzero;stroke:none;stroke-width:10;stroke-linecap:square;stroke-linejoin:miter;marker:none;marker-start:none;marker-mid:none;marker-end:none;stroke-miterlimit:4;stroke-dasharray:none;stroke-dashoffset:0;stroke-opacity:1;visibility:visible;display:none;overflow:visible"
       d="M 353.21429,221.29076 C 319.60492,231.2509 289.91617,256.64435 278.20773,290.11433 C 273.72172,308.17761 288.80099,328.1698 307.4251,328.7282 C 344.94844,336.3981 387.17129,320.21553 407.57907,287.2748 C 419.58943,266.76663 411.90192,237.01459 390.61491,225.86984 C 379.60306,219.14597 365.48355,216.47897 353.21429,221.29076 z "
       id="path3510" />
    <path
       style="fill:#000000;fill-opacity:1;fill-rule:nonzero;stroke:none;stroke-width:1px;stroke-linecap:butt;stroke-linejoin:miter;stroke-opacity:1"
       d="M 363.1008,221.94495 C 324.28363,229.33425 284.6131,258.83266 281.83073,300.89134 C 291.15622,328.4351 325.68023,329.58149 348.97401,321.5486 C 377.34532,313.69686 411.97718,294.91311 411.16553,261.2831 C 415.21378,238.42621 368.30289,233.30431 376.49707,217.78939 C 415.53622,213.63769 436.29653,273.41296 405.46499,296.32379 C 377.30401,325.29905 333.1671,342.65191 293.34255,332.14124 C 262.28316,313.91337 271.94483,265.69039 299.12316,248.41905 C 311.27874,232.02936 356.65141,204.27298 363.23198,221.81919 L 363.1008,221.94495 z "
       id="path1331" />
    <path
       style="opacity:1;color:#000000;fill:#f9d2bd;fill-opacity:1;fill-rule:nonzero;stroke:none;stroke-width:10;stroke-linecap:square;stroke-linejoin:miter;marker:none;marker-start:none;marker-mid:none;marker-end:none;stroke-miterlimit:4;stroke-dasharray:none;stroke-dashoffset:0;stroke-opacity:1;visibility:visible;display:none;overflow:visible"
       d="M 322.5,235.21931 C 325.47035,239.90937 326.73277,247.22614 321.95818,251.21216 C 316.44949,260.01412 308.94557,267.42266 303.78455,276.44008 C 300.99774,281.35775 299.83988,287.48265 302.27896,292.78192 C 304.34083,299.41803 309.74854,305.62338 317.0511,306.15146 C 323.29284,307.20984 330.47494,306.91676 335.37653,311.59362 C 338.42512,306.92803 329.22834,306.34017 326.22698,304.95617 C 319.70229,302.70063 312.03541,301.59291 307.29569,296.10547 C 304.09321,292.21134 303.47513,286.35571 306.28533,282.08012 C 308.65723,275.89477 309.20675,267.97069 315.48384,264.24547 C 322.20392,261.36596 328.49325,257.27051 335.64149,255.53326 C 345.13558,253.77407 355.31322,254.45659 364.24592,258.23784 C 368.80374,260.19554 377.62954,263.24401 373.1821,269.70647 C 368.85315,274.45088 362.00231,270.26166 356.6313,270.05645 C 353.71742,269.72133 345.16597,268.494 346.3415,272.95606 C 350.84586,273.37649 355.44834,272.44914 360.00015,272.88699 C 363.66795,272.90338 367.63157,274.51979 370.94796,272.1776 C 374.84068,269.87435 378.87741,265.64267 383.82846,267.55393 C 389.15506,269.02576 393.65818,272.36087 398.21381,275.3481 C 403.43618,277.00813 402.26464,270.02988 397.63753,270.97109 C 386.33086,266.67202 376.21496,259.66867 364.67297,255.95041 C 359.25643,252.72005 359.13492,243.98816 364.01503,240.2224 C 368.17426,237.28549 364.82917,228.50725 360.91916,234.64423 C 358.12552,239.25704 359.62989,246.11175 354.58984,249.3722 C 349.06331,252.33393 342.76202,249.52959 336.91095,250.5124 C 331.69168,249.35006 327.58998,257.20937 323.38324,255.3786 C 322.06284,249.83397 329.8739,246.50194 328.19532,240.58485 C 327.91434,237.89309 325.87743,233.63205 322.5,235.21931 z "
       id="path6560" />
  </g>
  <g
     inkscape:groupmode="layer"
     id="layer4"
     inkscape:label="3"
     style="display:inline">
    <path
       style="opacity:1;color:#000000;fill:#fbedd5;fill-opacity:1;fill-rule:nonzero;stroke:none;stroke-width:10;stroke-linecap:square;stroke-linejoin:miter;marker:none;marker-start:none;marker-mid:none;marker-end:none;stroke-miterlimit:4;stroke-dasharray:none;stroke-dashoffset:0;stroke-opacity:1;visibility:visible;display:none;overflow:visible"
       d="M 581.78571,218.79076 C 558.6364,218.12812 537.02016,233.53874 527.18515,254.01751 C 516.47742,269.61797 509.24345,287.75806 507.25921,306.62967 C 508.80696,336.25352 541.40581,359.49923 569.91737,351.31071 C 609.27779,345.26851 638.40292,302.56602 629.64798,263.71619 C 624.53553,241.15607 605.35264,221.19821 581.78571,218.79076 z "
       id="path3787" />
    <path
       style="opacity:1;color:#000000;fill:#f9d2bd;fill-opacity:1;fill-rule:nonzero;stroke:none;stroke-width:10;stroke-linecap:square;stroke-linejoin:miter;marker:none;marker-start:none;marker-mid:none;marker-end:none;stroke-miterlimit:4;stroke-dasharray:none;stroke-dashoffset:0;stroke-opacity:1;visibility:visible;display:none;overflow:visible"
       d="M 580.35712,220.57648 C 581.39854,230.95608 590.64319,237.36556 597.99293,243.52834 C 605.89833,249.78179 615.34555,256.42695 616.99318,267.15317 C 621.36103,289.26948 606.56063,312.3177 585.8032,319.92858 C 574.14212,324.96252 560.21652,326.72015 548.39946,321.19712 C 539.22913,315.5067 537.38553,303.59347 537.98763,293.65657 C 538.49499,283.48131 539.96193,272.49034 546.58823,264.36287 C 548.60093,261.85203 552.58275,262.90696 549.3233,265.93282 C 545.64222,270.73886 543.02434,276.41948 542.55266,282.50295 C 541.38754,289.56732 541.22394,297.34483 544.47425,303.86254 C 549.88619,308.79867 556.90776,300.86814 554.33615,295.09686 C 553.68399,282.50739 558.14685,268.75865 569.08399,261.58694 C 576.64817,256.43363 587.23375,255.65452 594.98329,260.85977 C 599.78777,261.93802 604.46993,270.38124 597.36655,271.52366 C 591.16329,270.45983 593.2425,260.66732 586.26641,259.52569 C 580.38307,257.83906 573.93678,260.40039 569.22214,263.96623 C 563.44219,268.42008 560.17509,275.47724 559.64939,282.66353 C 558.41241,289.27754 558.04167,296.02975 556.57877,302.60491 C 554.23303,306.27884 549.61264,309.20648 549.98301,314.05388 C 551.49464,319.49243 558.0568,320.60992 562.92304,320.34931 C 575.88465,320.82744 588.71835,315.89039 598.50779,307.4822 C 605.35633,301.70085 609.033,292.99055 611.4745,284.56209 C 613.66727,276.93903 614.24982,268.25784 609.89547,261.24959 C 605.97935,254.36105 598.24153,251.3013 592.38675,246.40063 C 587.85468,243.0811 584.04397,238.77934 581.61623,233.70578 C 578.87044,229.79692 573.04401,224.81452 576.31684,219.71195 C 577.62476,217.89914 580.34988,217.88248 580.35712,220.57648 z "
       id="path6686" />
    <path
       style="fill:#000000;fill-opacity:1;fill-rule:nonzero;stroke:none;stroke-width:1px;stroke-linecap:butt;stroke-linejoin:miter;stroke-opacity:1"
       d="M 582.23901,222.47202 C 544.52284,223.03016 523.51961,260.90654 513.6043,292.60995 C 501.33228,325.20005 542.62553,360.08992 573.10256,344.49372 C 616.13299,339.54978 644.20083,281.15595 615.93563,246.39595 C 602.89505,241.17494 574.68223,206.93846 607.08295,220.82287 C 649.58216,249.16404 642.21418,320.87121 597.77151,343.73226 C 571.86637,360.06089 530.53576,363.052 510.86644,335.83531 C 492.64153,300.10586 516.08515,260.27622 539.64466,233.37156 C 547.63316,225.8684 579.74558,196.04644 582.23901,222.47202 z "
       id="path1339" />
  </g>
  <g
     inkscape:groupmode="layer"
     id="layer5"
     inkscape:label="4"
     style="display:inline">
    <path
       style="opacity:1;color:#000000;fill:#fbedd5;fill-opacity:1;fill-rule:nonzero;stroke:none;stroke-width:10;stroke-linecap:square;stroke-linejoin:miter;marker:none;marker-start:none;marker-mid:none;marker-end:none;stroke-miterlimit:4;stroke-dasharray:none;stroke-dashoffset:0;stroke-opacity:1;visibility:visible;display:none;overflow:visible"
       d="M 123.99623,411.92548 C 138.8501,403.25819 159.76466,408.20359 169.48911,422.29058 C 187.74675,438.98502 199.8827,463.04148 199.90333,488.01969 C 197.34479,508.84386 173.28534,523.49834 153.56588,516.54752 C 123.08736,510.45409 101.44942,476.82345 108.66756,446.55949 C 110.52273,434.53482 114.62952,422.58492 122.2262,412.94239 C 122.72586,412.51041 124.11446,412.9298 123.99623,411.92548 z "
       id="path4225" />
    <path
       style="opacity:1;color:#000000;fill:#f9d2bd;fill-opacity:1;fill-rule:nonzero;stroke:none;stroke-width:10;stroke-linecap:square;stroke-linejoin:miter;marker:none;marker-start:none;marker-mid:none;marker-end:none;stroke-miterlimit:4;stroke-dasharray:none;stroke-dashoffset:0;stroke-opacity:1;visibility:visible;display:none;overflow:visible"
       d="M 134.60283,506.62726 C 134.82624,502.13521 134.99994,497.32465 137.62242,493.47452 C 140.72037,488.08289 144.93125,483.32025 147.23343,477.48554 C 147.57111,475.55823 146.37568,473.40314 144.45197,472.86912 C 142.92475,472.04849 141.42499,470.75594 139.57306,470.98491 C 137.90526,471.94235 138.62626,474.90612 140.51207,475.07565 C 142.49893,476.44769 142.52978,479.51389 141.09346,481.2943 C 138.1389,486.74086 134.50297,491.78366 131.57045,497.24421 C 130.34107,499.50423 129.10864,502.01851 129.35128,504.65604 C 129.74127,506.39716 131.19476,508.20063 133.09889,508.18461 C 133.85611,508.06904 134.66063,507.46965 134.60283,506.62726 z "
       id="path6774" />
    <path
       style="opacity:1;color:#000000;fill:#f9d2bd;fill-opacity:1;fill-rule:nonzero;stroke:none;stroke-width:10;stroke-linecap:square;stroke-linejoin:miter;marker:none;marker-start:none;marker-mid:none;marker-end:none;stroke-miterlimit:4;stroke-dasharray:none;stroke-dashoffset:0;stroke-opacity:1;visibility:visible;display:none;overflow:visible"
       d="M 150.26019,515.21356 C 159.62184,502.66299 166.20135,488.23616 171.45414,473.57203 C 172.4651,465.14059 167.38451,457.55134 162.03387,451.5501 C 157.35581,446.28042 152.0301,441.41201 145.66256,438.27258 C 139.42345,436.98048 133.46888,442.1992 132.1613,448.08557 C 130.24077,450.83655 131.52977,454.79717 129.20005,457.32213 C 124.95916,459.13065 126.99264,451.967 128.4915,450.19632 C 130.26927,445.94072 131.27573,441.21169 134.35162,437.59608 C 137.26216,433.59725 142.94476,431.93829 147.41843,434.22964 C 150.2405,435.41654 152.2173,437.94477 153.39508,440.66081 C 159.37388,447.42338 168.87508,450.89552 172.75381,459.49597 C 177.50711,468.94976 175.12538,480.47801 169.57351,489.04886 C 165.01538,497.47629 159.90349,505.6046 155.71738,514.23169 C 154.52557,515.74343 151.67857,517.42269 150.26019,515.21356 z "
       id="path6716" />
    <path
       style="fill:#000000;fill-opacity:1;fill-rule:nonzero;stroke:none;stroke-width:1px;stroke-linecap:butt;stroke-linejoin:miter;stroke-opacity:1"
       d="M 148.76871,411.36957 C 177.77973,428.33258 201.7843,462.77831 192.55845,497.50912 C 173.29861,529.22375 121.07191,509.6452 116.79647,476.30896 C 94.827785,451.38651 140.48907,417.43153 131.55031,403.4526 C 100.92021,409.71953 100.69799,450.22731 108.5547,474.24297 C 117.34283,503.74385 148.11229,532.98613 180.64537,522.4025 C 212.48281,508.12216 208.50082,463.24256 188.56868,440.52842 C 178.37527,428.91547 169.11371,401.10975 148.76871,411.36957 z "
       id="path1345" />
  </g>
  <g
     inkscape:groupmode="layer"
     id="layer6"
     inkscape:label="5"
     style="display:inline">
    <path
       style="opacity:1;color:#000000;fill:#fbedd5;fill-opacity:1;fill-rule:nonzero;stroke:none;stroke-width:10;stroke-linecap:square;stroke-linejoin:miter;marker:none;marker-start:none;marker-mid:none;marker-end:none;stroke-miterlimit:4;stroke-dasharray:none;stroke-dashoffset:0;stroke-opacity:1;visibility:visible;display:none;overflow:visible"
       d="M 379.28571,390.57648 C 410.60281,408.21414 421.3145,453.78485 401.13438,483.52726 C 384.8935,508.38238 352.2087,521.0481 323.46111,513.61989 C 298.26975,503.36315 284.88348,471.27816 295.31447,446.15867 C 300.51918,410.05752 338.66472,382.62225 374.54643,389.20761 C 376.14655,389.58897 377.72891,390.04523 379.28571,390.57648 z "
       id="path4413" />
    <path
       style="opacity:1;color:#000000;fill:#f9d2bd;fill-opacity:1;fill-rule:nonzero;stroke:none;stroke-width:10;stroke-linecap:square;stroke-linejoin:miter;marker:none;marker-start:none;marker-mid:none;marker-end:none;stroke-miterlimit:4;stroke-dasharray:none;stroke-dashoffset:0;stroke-opacity:1;visibility:visible;display:none;overflow:visible"
       d="M 307.08636,416.72369 C 315.57722,424.70448 323.16739,434.0731 327.36835,445.04035 C 329.64379,454.86632 328.44682,465.02013 327.96347,474.96874 C 327.03855,481.15727 325.27612,487.21679 324.85549,493.47919 C 328.23792,497.09796 331.39844,491.38246 331.012,488.16998 C 330.15733,484.90535 330.99586,481.51488 331.06498,478.16238 C 331.55539,470.49623 331.91527,462.82233 332.21762,455.14666 C 331.49274,450.80188 330.96969,444.9936 335.33878,442.34717 C 343.63037,438.68784 352.93054,439.3513 361.64574,437.44325 C 368.05702,436.53093 375.7659,438.90579 378.26792,445.42322 C 380.55697,449.041 376.66588,453.98333 380.43542,456.80592 C 384.70577,458.49486 383.31222,451.88313 382.70575,449.54681 C 381.74753,445.72119 381.03695,441.81954 380.02993,438.02057 C 377.98851,432.98264 371.77912,430.859 366.79424,432.46009 C 362.37391,433.89914 357.8014,434.6965 353.14142,434.53992 C 346.57555,434.55557 339.79311,434.52342 333.62763,437.06641 C 328.43918,437.70522 324.70443,433.0544 322.72552,428.85559 C 319.02211,423.21914 315.38116,416.58569 308.61568,414.24122 C 307.40468,414.13249 306.06463,415.66728 307.08636,416.72369 z "
       id="path6824" />
    <path
       style="fill:#000000;fill-opacity:1;fill-rule:nonzero;stroke:none;stroke-width:1px;stroke-linecap:butt;stroke-linejoin:miter;stroke-opacity:1"
       d="M 379.76743,398.22244 C 350.23332,379.16174 307.08139,403.02171 302.96329,436.7238 C 289.16466,465.88707 304.73702,512.9753 341.61686,512.1127 C 377.74304,512.12452 415.76077,478.08656 406.71383,440.10323 C 400.16758,430.98542 373.2738,392.6778 400.9436,406.78996 C 431.32251,439.13844 413.4651,496.90808 373.83459,512.76752 C 347.12521,529.39512 300.86451,522.79112 293.40449,487.8796 C 278.86214,442.38575 309.8437,380.45121 361.7013,381.15859 C 371.3118,380.5415 390.97199,385.36094 379.76743,398.22244 z "
       id="path1351" />
  </g>
  <g
     inkscape:groupmode="layer"
     id="layer7"
     inkscape:label="6"
     style="display:inline">
    <path
       style="opacity:1;color:#000000;fill:#fbedd5;fill-opacity:1;fill-rule:nonzero;stroke:none;stroke-width:10;stroke-linecap:square;stroke-linejoin:miter;marker:none;marker-start:none;marker-mid:none;marker-end:none;stroke-miterlimit:4;stroke-dasharray:none;stroke-dashoffset:0;stroke-opacity:1;visibility:visible;display:none;overflow:visible"
       d="M 510.71429,521.64789 C 527.02842,534.23269 547.86855,541.19737 568.5172,539.81654 C 593.10898,534.19284 609.73462,506.16047 602.87583,481.88409 C 602.43443,456.49865 596.67596,430.30313 581.47683,409.50323 C 563.62276,390.90256 528.80286,394.60875 515.25926,416.54606 C 503.42553,429.88808 491.54696,444.21623 486.70349,461.74162 C 484.53802,484.18107 495.88074,505.59498 510.71429,521.64789 z "
       id="path4863" />
    <path
       style="opacity:1;color:#000000;fill:#f9d2bd;fill-opacity:1;fill-rule:nonzero;stroke:none;stroke-width:10;stroke-linecap:square;stroke-linejoin:miter;marker:none;marker-start:none;marker-mid:none;marker-end:none;stroke-miterlimit:4;stroke-dasharray:none;stroke-dashoffset:0;stroke-opacity:1;visibility:visible;display:none;overflow:visible"
       d="M 533.92859,530.93359 C 527.64953,526.75926 527.62111,518.00517 529.69619,511.52603 C 531.67674,503.42426 528.51688,494.14115 521.36154,489.59887 C 514.57038,483.77969 505.89656,477.84895 504.99158,468.13698 C 503.95482,457.15963 506.64949,445.49153 513.88364,436.96742 C 518.20303,435.89097 519.57895,428.5753 524.46258,429.7066 C 526.12605,433.15676 521.91825,437.29918 519.97309,440.34704 C 516.27193,445.97368 512.35111,451.57847 509.74568,457.82423 C 505.83042,466.40629 510.64865,476.68606 518.47099,481.16412 C 528.91147,487.50526 538.5046,495.96474 550.57925,499.06227 C 559.65502,500.48636 570.66924,494.50241 571.34591,484.67162 C 571.28168,475.4778 563.23831,468.77673 555.31916,465.63894 C 547.55826,461.92058 542.7045,452.16595 546.22724,443.95011 C 549.07415,436.97058 555.5529,430.30126 563.56597,430.47514 C 570.75138,430.59609 577.92735,435.76137 579.45706,442.87026 C 578.24378,447.51426 575.50505,442.80503 575.62062,440.37392 C 572.66462,435.27298 565.8697,433.10838 560.24904,434.18263 C 553.70662,435.34124 549.08766,441.82904 549.66896,448.37321 C 550.00955,456.06477 556.04412,462.77318 563.44931,464.50638 C 568.66075,466.50714 573.80281,470.35057 574.73179,476.2081 C 576.34759,481.73992 575.90778,487.89654 573.29365,493.05541 C 572.41973,498.01692 577.58321,500.71921 581.51913,502.06988 C 587.92465,502.33723 585.55121,511.11062 579.82302,509.56969 C 574.37707,507.21427 569.24409,502.33686 562.59893,503.14622 C 556.07733,503.96027 548.36039,504.33868 543.18782,499.52646 C 537.59562,496.07554 531.44603,502.93417 532.62814,508.57129 C 532.13714,515.04199 532.72373,521.72462 535.77378,527.54835 C 536.60219,529.10914 536.29561,531.57402 533.92859,530.93359 z "
       id="path6847" />
    <path
       style="fill:#000000;fill-opacity:1;fill-rule:nonzero;stroke:none;stroke-width:1px;stroke-linecap:butt;stroke-linejoin:miter;stroke-opacity:1"
       d="M 517.58923,529.55841 C 478.30015,514.76118 472.23955,457.04881 500.43723,429.01512 C 515.75455,404.71871 555.12143,376.4373 580.16941,402.88853 C 602.03521,429.2861 609.15733,464.81082 611.25028,498.14953 C 607.49416,534.84791 559.84767,552.53308 529.40406,536.22871 C 520.45432,509.18743 567.37973,543.88346 580.10015,528.99128 C 609.22575,511.64876 603.40265,472.07826 593.13945,445.3929 C 587.80919,419.31806 557.21812,389.21982 530.90474,408.88595 C 504.07925,426.76567 481.33588,462.94081 497.20407,495.0746 C 504.40741,506.14116 519.13432,514.53037 517.58923,529.55841 z "
       id="path1357" />
  </g>
  <g
     inkscape:groupmode="layer"
     id="layer8"
     inkscape:label="7"
     style="display:inline">
    <path
       style="opacity:1;color:#000000;fill:#fbedd5;fill-opacity:1;fill-rule:nonzero;stroke:none;stroke-width:10;stroke-linecap:square;stroke-linejoin:miter;marker:none;marker-start:none;marker-mid:none;marker-end:none;stroke-miterlimit:4;stroke-dasharray:none;stroke-dashoffset:0;stroke-opacity:1;visibility:visible;display:none;overflow:visible"
       d="M 177.02924,750.5791 C 194.80138,750.51099 210.48935,733.63085 209.2611,715.9017 C 214.65484,675.65955 192.67727,633.24703 156.56181,614.6266 C 135.11942,606.1504 108.16246,621.62893 104.64813,644.41039 C 92.514081,687.22106 120.51914,736.78948 163.46822,748.4535 C 167.89369,749.65145 172.4506,750.35625 177.02924,750.5791 z "
       id="path5015" />
    <path
       style="opacity:1;color:#000000;fill:#f9d2bd;fill-opacity:1;fill-rule:nonzero;stroke:none;stroke-width:10;stroke-linecap:square;stroke-linejoin:miter;marker:none;marker-start:none;marker-mid:none;marker-end:none;stroke-miterlimit:4;stroke-dasharray:none;stroke-dashoffset:0;stroke-opacity:1;visibility:visible;display:none;overflow:visible"
       d="M 174.50385,745.27582 C 171.97324,733.66828 171.99327,721.597 173.84462,709.89145 C 173.52565,703.1573 166.98293,699.21371 161.28586,697.19216 C 153.31843,693.70437 144.0751,690.76244 139.35184,682.85295 C 135.35365,673.58611 139.71834,663.11527 145.53546,655.67144 C 149.7483,650.57543 155.74935,647.4318 160.409,642.84866 C 163.45074,638.8003 156.77042,634.76843 155.61992,640.30657 C 153.51694,644.69028 149.29087,649.23061 143.94447,647.476 C 138.40843,646.46043 136.74564,639.29823 130.96789,638.8614 C 124.63244,638.81063 128.7835,646.41087 133.277,646.01717 C 138.7359,646.59723 141.85629,652.57012 139.2397,657.3801 C 136.53622,662.18008 133.40433,667.15989 133.73565,672.91713 C 133.45107,683.71295 140.82744,693.45349 150.37586,697.89809 C 156.70856,701.22438 164.27361,702.8777 169.24158,708.3239 C 172.79675,713.81283 170.50423,720.57136 168.78197,726.27644 C 166.27929,732.41049 158.36821,729.79468 155.00715,726.07327 C 150.50762,724.40212 147.92818,731.45314 153.37616,731.38875 C 157.9906,731.97671 163.44526,730.55197 167.18816,734.09669 C 172.60765,736.85227 168.33369,744.91725 173.52954,747.81267 C 175.21021,748.57263 175.16805,746.09219 174.50385,745.27582 z "
       id="path6860" />
    <path
       style="fill:#000000;fill-opacity:1;fill-rule:nonzero;stroke:none;stroke-width:1px;stroke-linecap:butt;stroke-linejoin:miter;stroke-opacity:1"
       d="M 198.06393,750.78278 C 227.30115,722.78864 216.90967,675.19485 194.50838,646.33311 C 181.90013,620.08164 145.392,589.99881 117.67367,613.28507 C 87.62964,643.84433 96.963769,695.65526 121.99846,726.37919 C 135.95506,744.4162 158.48423,758.82568 182.11126,754.5864 C 195.35558,729.75157 139.27903,751.51354 132.66857,726.73517 C 105.03801,701.34201 97.133445,652.48176 122.92087,623.30955 C 145.10491,604.21322 173.92668,625.195 186.78287,645.11044 C 205.92451,669.73726 211.92008,701.48142 201.09235,731.14968 C 199.86531,737.63853 197.97949,744.12921 198.06393,750.78278 z "
       id="path1415" />
  </g>
  <g
     inkscape:groupmode="layer"
     id="layer9"
     inkscape:label="8"
     style="display:inline">
    <path
       style="opacity:1;color:#000000;fill:#fbedd5;fill-opacity:1;fill-rule:nonzero;stroke:none;stroke-width:10;stroke-linecap:square;stroke-linejoin:miter;marker:none;marker-start:none;marker-mid:none;marker-end:none;stroke-miterlimit:4;stroke-dasharray:none;stroke-dashoffset:0;stroke-opacity:1;visibility:visible;display:none;overflow:visible"
       d="M 323.57144,734.14789 C 328.11388,745.76982 343.56217,751.37941 354.50331,745.37986 C 387.60596,740.68066 411.49771,703.50573 402.05325,671.4357 C 394.43125,642.33756 374.21173,616.60774 347.31136,602.98265 C 327.415,596.65189 304.53864,615.23643 306.66047,636.00779 C 306.08932,669.45027 313.78791,702.37538 323.57144,734.14789 z "
       id="path5316" />
    <path
       style="opacity:1;color:#000000;fill:#f9d2bd;fill-opacity:1;fill-rule:nonzero;stroke:none;stroke-width:10;stroke-linecap:square;stroke-linejoin:miter;marker:none;marker-start:none;marker-mid:none;marker-end:none;stroke-miterlimit:4;stroke-dasharray:none;stroke-dashoffset:0;stroke-opacity:1;visibility:visible;display:none;overflow:visible"
       d="M 313.90491,703.85956 C 323.52476,702.89819 333.63305,705.48369 342.85,701.63651 C 347.08308,699.47808 347.87516,693.99726 346.96132,689.76788 C 346.26064,680.80089 344.65949,671.20895 348.70117,662.76008 C 350.79206,658.51236 356.04842,656.91802 360.47618,657.5853 C 364.56872,656.9531 368.34736,655.04888 372.37108,654.19112 C 376.15477,651.69 371.31077,646.47507 368.44379,650.04533 C 363.28759,652.56104 357.72141,654.75658 351.87212,654.34218 C 348.22376,654.16434 345.01433,656.3992 343.47821,659.62011 C 339.53785,666.68998 341.36086,674.96035 341.52072,682.62267 C 341.50798,686.89373 341.56256,691.25941 340.57922,695.43096 C 339.58763,698.5724 336.11065,699.25567 333.23522,699.23443 C 328.42865,699.40349 323.60336,699.11139 318.82047,699.7192 C 316.37167,698.91809 310.36668,701.51375 313.09362,704.09197 L 313.48102,704.04699 L 313.90491,703.85956 L 313.90491,703.85956 z "
       id="path6879" />
    <path
       style="opacity:1;color:#000000;fill:#f9d2bd;fill-opacity:1;fill-rule:nonzero;stroke:none;stroke-width:10;stroke-linecap:square;stroke-linejoin:miter;marker:none;marker-start:none;marker-mid:none;marker-end:none;stroke-miterlimit:4;stroke-dasharray:none;stroke-dashoffset:0;stroke-opacity:1;visibility:visible;display:none;overflow:visible"
       d="M 323.50134,612.6933 C 324.9002,616.20377 328.40018,618.28143 329.97331,621.68617 C 332.2528,624.94286 336.45005,626.55744 340.34341,626.00366 C 343.42238,625.97542 346.92703,627.27201 348.16185,630.31951 C 348.84336,631.74794 350.14978,633.40351 351.92793,633.08912 C 353.61767,632.59274 354.01119,630.07053 352.65428,628.99922 C 350.72503,626.32617 348.40844,623.66638 345.24344,622.48172 C 343.2479,622.02007 340.9912,622.5252 339.21958,621.26711 C 336.70174,619.8255 334.60088,617.76818 332.09096,616.31474 C 329.79119,614.55889 328.57145,611.49886 325.66245,610.55588 C 324.43965,609.86416 322.356,610.8753 323.08587,612.38733 C 323.18927,612.52861 323.33991,612.62976 323.50134,612.6933 z "
       id="path6902" />
    <path
       style="fill:#000000;fill-opacity:1;fill-rule:nonzero;stroke:none;stroke-width:1px;stroke-linecap:butt;stroke-linejoin:miter;stroke-opacity:1"
       d="M 331.90915,749.26752 C 379.97602,764.38645 425.66651,702.66776 401.93672,659.89555 C 390.45207,629.74511 360.01558,591.16705 325.21055,597.48579 C 298.13328,612.62592 301.63704,647.82973 303.94804,674.17848 C 305.7433,698.66403 310.82678,732.54721 333.29188,745.24532 C 318.6664,712.66654 308.06665,677.02588 312.30757,641.05178 C 307.87543,605.15836 359.0239,597.25053 374.17929,626.11705 C 401.79593,652.7912 407.99429,703.81623 378.81159,731.42731 C 364.42714,740.59168 341.91951,732.65629 331.90915,749.26752 z "
       id="path1397" />
    <path
       style="opacity:1;color:#000000;fill:#f9d2bd;fill-opacity:1;fill-rule:nonzero;stroke:none;stroke-width:10;stroke-linecap:square;stroke-linejoin:miter;marker:none;marker-start:none;marker-mid:none;marker-end:none;stroke-miterlimit:4;stroke-dasharray:none;stroke-dashoffset:0;stroke-opacity:1;visibility:visible;display:none;overflow:visible"
       d="M 388.90873,728.10322 C 388.4753,728.53665 384.60277,723.78443 383.85797,722.29484 C 382.63699,719.85287 380.4424,717.27565 379.05974,714.97123 C 377.2418,711.94133 376.28182,708.47566 376.28182,704.86971 C 376.28182,701.27582 376.21625,698.19209 376.7869,694.76818 C 377.3915,691.14057 377.03944,687.10185 377.03944,683.40397 C 377.03944,680.40787 374.56429,677.54444 373.5039,675.07021 C 372.71719,673.23455 372.49375,672.15221 372.49375,670.01944 C 372.49375,667.8334 374.34638,668.04157 374.76659,668.25168 C 375.79622,668.76649 376.28182,671.77993 376.28182,672.79736 C 376.28182,674.40951 376.37758,676.77694 377.03944,678.10066 C 377.99254,680.00687 379.40903,683.13008 379.81736,685.17173 C 380.1814,686.99194 380.82751,687.81655 380.82751,689.71742 C 380.82751,692.06716 380.32243,693.57516 380.32243,695.77833 C 380.32243,699.1281 380.54087,702.58301 380.0699,705.87986 C 379.77583,707.9383 379.98234,709.71955 381.08005,711.18316 C 382.55572,713.15073 383.02358,715.65207 384.86812,717.49661 C 386.13376,718.76225 387.03124,721.01037 387.64604,722.54738 C 388.56582,724.84682 389.16127,724.32002 389.16127,726.58799 C 389.16127,727.10003 388.99291,727.59814 388.90873,728.10322 z "
       id="path6900" />
  </g>
  <g
     inkscape:groupmode="layer"
     id="layer10"
     inkscape:label="9"
     style="display:inline">
    <path
       style="opacity:1;color:#000000;fill:#fbedd5;fill-opacity:1;fill-rule:nonzero;stroke:none;stroke-width:10;stroke-linecap:square;stroke-linejoin:miter;marker:none;marker-start:none;marker-mid:none;marker-end:none;stroke-miterlimit:4;stroke-dasharray:none;stroke-dashoffset:0;stroke-opacity:1;visibility:visible;display:none;overflow:visible"
       d="M 520,742.00507 C 550.60729,755.04541 590.09718,737.26916 600.61379,705.7021 C 612.64486,678.69487 605.7325,643.10486 581.21494,625.37077 C 557.59435,606.68452 521.11225,603.15403 496.38365,621.68289 C 470.38467,642.56979 465.57519,683.63646 483.94107,710.99078 C 491.96857,724.9846 504.56016,736.77127 520,742.00507 z "
       id="path5574" />
    <path
       style="opacity:1;color:#000000;fill:#f9d2bd;fill-opacity:1;fill-rule:nonzero;stroke:none;stroke-width:10;stroke-linecap:square;stroke-linejoin:miter;marker:none;marker-start:none;marker-mid:none;marker-end:none;stroke-miterlimit:4;stroke-dasharray:none;stroke-dashoffset:0;stroke-opacity:1;visibility:visible;display:none;overflow:visible"
       d="M 538.92859,742.7193 C 541.57279,731.87655 552.0478,725.96305 561.11222,720.98152 C 571.77363,715.13517 580.63118,703.4872 579.11318,690.81916 C 577.75049,683.06585 570.28947,679.02366 564.65577,674.55428 C 558.90903,669.17717 555.06054,660.31417 558.51031,652.68271 C 558.4592,646.54644 570.34586,642.50197 565.01998,636.59158 C 558.82536,636.00557 557.80772,643.46453 556.57841,647.9525 C 554.41533,652.9292 549.94305,658.10964 552.23363,663.84609 C 554.62301,668.75742 556.40839,676.12954 550.56014,679.35923 C 545.62972,683.1536 539.56664,685.34402 535.13193,689.80346 C 528.99969,692.771 521.34706,687.30809 521.00924,680.79105 C 518.90704,673.49121 516.91944,664.65672 509.40475,661.04851 C 502.9234,659.1279 496.18568,663.70227 493.52532,669.49794 C 489.13274,671.42112 485.79063,681.86543 492.7839,681.55855 C 497.94709,678.74438 494.95035,670.59474 500.38404,667.94943 C 505.55171,665.04188 511.18858,669.86237 512.46645,674.84459 C 514.79395,682.68562 517.36529,691.31887 524.28629,696.36586 C 528.65919,699.56857 534.12521,696.17597 537.43396,692.98873 C 543.61877,687.44341 550.56614,681.13998 559.33354,680.87764 C 565.99174,681.9186 570.72037,687.97552 572.88665,694.01387 C 574.05832,702.22305 568.11973,708.96475 563.51896,715.04327 C 555.76327,723.78188 542.0512,724.1156 535.37878,734.12378 C 530.9449,736.86199 534.03502,746.8578 538.92859,742.7193 L 538.92859,742.7193 z "
       id="path6935" />
    <path
       style="fill:#000000;fill-opacity:1;fill-rule:nonzero;stroke:none;stroke-width:1px;stroke-linecap:butt;stroke-linejoin:miter;stroke-opacity:1"
       d="M 555.65796,745.73199 C 607.22965,742.03013 628.58558,670.30108 595.98346,633.71691 C 568.33005,594.40192 495.4861,594.02521 477.02633,642.38243 C 456.82022,688.02618 491.9887,752.1879 544.38422,750.16882 C 551.95039,726.48606 503.78492,746.80782 498.92265,723.07435 C 465.00555,690.65808 480.75136,619.34984 530.77542,614.30155 C 576.39386,606.92858 621.02617,661.29628 597.6686,703.3766 C 586.56003,720.23759 566.61755,728.74841 555.65796,745.73199 z "
       id="path1379" />
  </g>
</svg>
