<?xml version="1.0" encoding="UTF-8" standalone="no"?>
<!-- Created with Inkscape (http://www.inkscape.org/) -->
<svg
   xmlns:dc="http://purl.org/dc/elements/1.1/"
   xmlns:cc="http://web.resource.org/cc/"
   xmlns:rdf="http://www.w3.org/1999/02/22-rdf-syntax-ns#"
   xmlns:svg="http://www.w3.org/2000/svg"
   xmlns="http://www.w3.org/2000/svg"
   xmlns:xlink="http://www.w3.org/1999/xlink"
   xmlns:sodipodi="http://sodipodi.sourceforge.net/DTD/sodipodi-0.dtd"
   xmlns:inkscape="http://www.inkscape.org/namespaces/inkscape"
   width="400"
   height="400"
   id="svg2"
   sodipodi:version="0.32"
   inkscape:version="0.45.1"
   version="1.0"
   sodipodi:docbase="/home/kris/tale/art/item"
   sodipodi:docname="itome.svg"
   inkscape:output_extension="org.inkscape.output.svg.inkscape">
  <defs
     id="defs4">
    <linearGradient
       id="linearGradient8699">
      <stop
         id="stop8701"
         offset="0"
         style="stop-color:#121212;stop-opacity:0.63917524;" />
      <stop
         style="stop-color:#ffffff;stop-opacity:0.41237113;"
         offset="0.5"
         id="stop8703" />
      <stop
         id="stop8705"
         offset="1"
         style="stop-color:#cbcbcb;stop-opacity:1;" />
    </linearGradient>
    <linearGradient
       id="linearGradient8605">
      <stop
         style="stop-color:#000000;stop-opacity:0.26804122;"
         offset="0"
         id="stop8607" />
      <stop
         id="stop8615"
         offset="0.5"
         style="stop-color:#ffffff;stop-opacity:1;" />
      <stop
         style="stop-color:#494949;stop-opacity:0.18556701;"
         offset="1"
         id="stop8609" />
    </linearGradient>
    <linearGradient
       id="linearGradient8595">
      <stop
         style="stop-color:#000000;stop-opacity:1;"
         offset="0"
         id="stop8597" />
      <stop
         style="stop-color:#000000;stop-opacity:0;"
         offset="1"
         id="stop8599" />
    </linearGradient>
    <linearGradient
       inkscape:collect="always"
       xlink:href="#linearGradient8605"
       id="linearGradient8611"
       x1="138.01028"
       y1="142.91617"
       x2="241.93153"
       y2="173.65283"
       gradientUnits="userSpaceOnUse"
       gradientTransform="matrix(1.2018758,0,0,1.2018758,-33.093375,-0.8312082)" />
    <linearGradient
       inkscape:collect="always"
       xlink:href="#linearGradient8605"
       id="linearGradient8681"
       gradientUnits="userSpaceOnUse"
       x1="138.01028"
       y1="142.91617"
       x2="241.93153"
       y2="173.65283"
       gradientTransform="matrix(1.2018758,0,0,1.2018758,-33.093375,-0.8312082)" />
    <linearGradient
       inkscape:collect="always"
       xlink:href="#linearGradient8699"
       id="linearGradient8697"
       x1="109.09647"
       y1="-137.40115"
       x2="343.45184"
       y2="430.30457"
       gradientUnits="userSpaceOnUse"
       gradientTransform="matrix(1.2018758,0,0,1.2018758,-33.093375,-0.8312082)" />
  </defs>
  <sodipodi:namedview
     id="base"
     pagecolor="#ffffff"
     bordercolor="#666666"
     borderopacity="1.0"
     gridtolerance="10000"
     guidetolerance="10"
     objecttolerance="10"
     inkscape:pageopacity="0"
     inkscape:pageshadow="2"
     inkscape:zoom="0.9899495"
     inkscape:cx="434.01331"
     inkscape:cy="187.7318"
     inkscape:document-units="px"
     inkscape:current-layer="layer9"
     width="400px"
     height="400px"
     inkscape:window-width="1680"
     inkscape:window-height="975"
     inkscape:window-x="0"
     inkscape:window-y="49" />
  <metadata
     id="metadata7">
    <rdf:RDF>
      <cc:Work
         rdf:about="">
        <dc:format>image/svg+xml</dc:format>
        <dc:type
           rdf:resource="http://purl.org/dc/dcmitype/StillImage" />
      </cc:Work>
    </rdf:RDF>
  </metadata>
  <g
     inkscape:groupmode="layer"
     id="layer4"
     inkscape:label="back"
     style="display:inline">
    <g
       style="display:inline"
       id="g8555"
       transform="matrix(1.2018758,0,0,1.2018758,-31.272257,-1.4382472)">
      <path
         sodipodi:nodetypes="ccccc"
         id="path8545"
         d="M 102.53048,306.56089 L 298.50008,303.02536 C 293.11259,233.82991 279.13882,147.46187 274.76149,83.317179 L 78.791898,87.862866 C 85.526249,160.76221 96.30121,236.69201 102.53048,306.56089 z "
         style="color:#000000;fill:#ffffff;fill-opacity:0.80730897;fill-rule:nonzero;stroke:none;stroke-width:3.05800009;stroke-linecap:butt;stroke-linejoin:miter;marker:none;marker-start:none;marker-mid:none;marker-end:none;stroke-miterlimit:4;stroke-dashoffset:0;stroke-opacity:1;visibility:visible;display:inline;overflow:visible;enable-background:accumulate" />
      <path
         style="opacity:1;color:#000000;fill:#000000;fill-opacity:0.40697673;fill-rule:nonzero;stroke:none;stroke-width:3.05800009;stroke-linecap:butt;stroke-linejoin:miter;marker:none;marker-start:none;marker-mid:none;marker-end:none;stroke-miterlimit:4;stroke-dasharray:none;stroke-dashoffset:0;stroke-opacity:1;visibility:visible;display:inline;overflow:visible;enable-background:accumulate"
         id="path8547"
         d="M 83.143688,85.838797 C 83.220898,86.734873 83.240458,87.632273 83.263988,88.529874 C 83.376378,92.954894 83.487268,97.37982 83.648128,101.80403 C 83.949948,111.11709 84.706678,120.41582 85.582848,129.70721 C 86.877128,142.94394 88.589628,156.15513 89.631878,169.40458 C 91.087148,184.5911 93.201708,199.73667 95.241478,214.88428 C 96.839108,226.64626 98.422748,238.40929 99.975878,250.17456 C 101.14598,258.94313 102.23051,267.71779 103.28742,276.49424 C 104.06808,282.96202 104.80065,289.43293 105.54643,295.90296 C 105.92793,299.21481 106.31244,302.52645 106.71112,305.83718 L 100.19041,307.8724 C 99.932458,304.5253 99.641218,301.17975 99.363058,297.83354 C 98.819258,291.30252 98.287688,284.7709 97.707628,278.24159 C 96.924448,269.38529 96.113328,260.53031 95.199878,251.68082 C 93.996418,239.80995 92.752318,227.94138 91.476728,216.07467 C 89.838248,200.8586 88.229418,185.63977 86.343368,170.43939 C 84.413448,157.35727 82.773948,144.2528 80.955837,131.16188 C 79.781424,121.99572 78.678587,112.82507 77.664941,103.64827 C 77.157201,99.378698 76.729079,95.099289 75.926774,90.85306 C 75.741343,90.005492 75.566236,89.157171 75.392462,88.308515 L 83.143688,85.838797 z " />
      <path
         style="opacity:1;color:#000000;fill:#000000;fill-opacity:0.22757473;fill-rule:nonzero;stroke:none;stroke-width:3.05800009;stroke-linecap:butt;stroke-linejoin:miter;marker:none;marker-start:none;marker-mid:none;marker-end:none;stroke-miterlimit:4;stroke-dasharray:none;stroke-dashoffset:0;stroke-opacity:1;visibility:visible;display:inline;overflow:visible;enable-background:accumulate"
         id="path8549"
         d="M 80.446512,85.572474 C 81.336348,85.593029 82.226308,85.577495 83.116408,85.565626 C 86.578768,85.528656 90.041508,85.509813 93.504168,85.480201 C 103.02657,85.320194 112.55016,85.201613 122.07338,85.072013 C 137.37317,84.895858 152.6728,84.724364 167.97166,84.508387 C 185.35361,84.294427 202.73077,83.921906 220.10706,83.536976 C 235.28304,83.194609 250.45896,82.8502 265.63468,82.501264 C 274.46529,82.296135 270.09476,82.397867 278.74629,82.196094 L 275.00482,85.198802 C 266.46874,85.307374 270.78144,85.251952 262.06672,85.365136 C 247.04794,85.567088 232.02948,85.782879 217.0117,86.023204 C 199.64212,86.303335 182.27249,86.58335 164.90639,86.968013 C 149.3696,87.302336 133.83028,87.601544 118.30171,88.113086 C 108.41821,88.454641 98.536588,88.841748 88.670558,89.402756 C 84.974518,89.608209 81.278817,89.818024 77.586134,90.054633 C 76.672114,90.108851 75.750783,90.139723 74.84744,90.260724 L 80.446512,85.572474 z " />
      <path
         d="M 278.31769,82.169597 C 278.39491,83.065673 278.41447,83.963073 278.438,84.860674 C 278.55038,89.285695 278.66127,93.71062 278.82213,98.134831 C 279.12395,107.44789 279.88069,116.74662 280.75686,126.03801 C 282.05113,139.27474 283.76363,152.48593 284.80588,165.73538 C 286.26116,180.92189 288.37572,196.06747 290.41549,211.21508 C 292.01311,222.97706 293.59675,234.74009 295.14989,246.50536 C 296.31998,255.27393 297.40452,264.04859 298.46142,272.82504 C 299.24208,279.29282 299.97465,285.76373 300.72043,292.23376 C 301.10193,295.54561 301.48644,298.85725 301.88513,302.16797 L 295.36441,304.2032 C 295.10646,300.8561 294.81522,297.51054 294.53706,294.16434 C 293.99327,287.63332 293.4617,281.1017 292.88163,274.57239 C 292.09845,265.71609 291.28733,256.8611 290.37389,248.01162 C 289.17043,236.14075 287.92633,224.27218 286.65073,212.40547 C 285.01226,197.1894 283.40342,181.97057 281.51737,166.77019 C 279.58746,153.68807 277.94795,140.5836 276.12984,127.49268 C 274.95543,118.32652 273.85259,109.15587 272.83894,99.979072 C 272.33121,95.709499 271.90308,91.43009 271.10078,87.18386 C 270.91535,86.336292 270.74024,85.487971 270.56646,84.639315 L 278.31769,82.169597 z "
         id="path8551"
         style="opacity:1;color:#000000;fill:#000000;fill-opacity:0.40697673;fill-rule:nonzero;stroke:none;stroke-width:3.05800009;stroke-linecap:butt;stroke-linejoin:miter;marker:none;marker-start:none;marker-mid:none;marker-end:none;stroke-miterlimit:4;stroke-dasharray:none;stroke-dashoffset:0;stroke-opacity:1;visibility:visible;display:inline;overflow:visible;enable-background:accumulate" />
      <path
         d="M 105.57236,304.39021 C 106.4622,304.41076 107.35215,304.39523 108.24225,304.38336 C 111.70462,304.34639 115.16736,304.32755 118.63002,304.29794 C 128.15242,304.13793 137.67601,304.01935 147.19923,303.88975 C 162.49902,303.71359 177.79865,303.5421 193.09751,303.32612 C 210.47946,303.11216 227.85662,302.73964 245.23291,302.35471 C 260.40889,302.01235 275.58481,301.66794 290.76053,301.319 C 299.59114,301.11387 295.22061,301.2156 303.87213,301.01383 L 300.13067,304.01654 C 291.59459,304.12511 295.90729,304.06969 287.19257,304.18287 C 272.17379,304.38482 257.15533,304.60061 242.13754,304.84094 C 224.76796,305.12107 207.39834,305.40109 190.03224,305.78575 C 174.49545,306.12007 158.95613,306.41928 143.42756,306.93082 C 133.54405,307.27238 123.66243,307.65949 113.7964,308.22049 C 110.10037,308.42594 106.40467,308.63576 102.71198,308.87237 C 101.79797,308.92658 100.87663,308.95746 99.973288,309.07846 L 105.57236,304.39021 z "
         id="path8553"
         style="opacity:1;color:#000000;fill:#000000;fill-opacity:0.40697673;fill-rule:nonzero;stroke:none;stroke-width:3.05800009;stroke-linecap:butt;stroke-linejoin:miter;marker:none;marker-start:none;marker-mid:none;marker-end:none;stroke-miterlimit:4;stroke-dasharray:none;stroke-dashoffset:0;stroke-opacity:1;visibility:visible;display:inline;overflow:visible;enable-background:accumulate" />
    </g>
  </g>
  <g
     inkscape:groupmode="layer"
     id="layer8"
     inkscape:label="paper"
     style="display:inline">
    <path
       style="opacity:1;color:#000000;fill:url(#linearGradient8697);fill-opacity:1;fill-rule:nonzero;stroke:none;stroke-width:3.05800009;stroke-linecap:butt;stroke-linejoin:miter;marker:none;marker-start:none;marker-mid:none;marker-end:none;stroke-miterlimit:4;stroke-dasharray:none;stroke-dashoffset:0;stroke-opacity:1;visibility:visible;display:inline;overflow:visible;enable-background:accumulate"
       d="M 94.991836,53.170732 L 303.81323,48.92146 L 329.91591,295.9863 C 316.7634,317.63736 312.71648,334.43209 312.91882,353.65499 L 100.45519,357.90427 L 74.959555,115.0887 C 71.317319,98.698652 79.815864,69.560783 94.991836,53.170732 z "
       id="path8478"
       sodipodi:nodetypes="ccccccc" />
    <path
       style="opacity:1;color:#000000;fill:#ffffff;fill-opacity:1;fill-rule:nonzero;stroke:none;stroke-width:3.05800009;stroke-linecap:butt;stroke-linejoin:miter;marker:none;marker-start:none;marker-mid:none;marker-end:none;stroke-miterlimit:4;stroke-dasharray:none;stroke-dashoffset:0;stroke-opacity:1;visibility:visible;display:inline;overflow:visible;enable-background:accumulate"
       d="M 307.75108,46.342416 L 304.03278,47.544292 C 301.05117,47.616107 300.61013,47.637063 293.51637,47.807202 C 277.14616,48.195834 260.76018,48.590203 244.3897,48.971519 C 225.64571,49.400241 206.91454,49.822417 188.16444,50.060719 C 171.66142,50.301266 155.16622,50.503021 138.66219,50.699215 C 128.38939,50.843559 118.09846,50.971712 107.82656,51.149919 C 104.09135,51.182901 100.36898,51.183857 96.634091,51.225036 C 95.673936,51.238255 94.701956,51.247929 93.742077,51.225036 L 91.188091,53.440995 L 89.986216,53.628788 C 89.539659,54.289602 89.087886,54.925378 88.634105,55.581836 C 88.592641,55.642017 88.562486,55.709166 88.52143,55.769629 L 87.69514,56.483243 C 87.81695,56.466397 87.948363,56.45964 88.070726,56.445684 C 87.586743,57.189936 87.117723,57.948122 86.643499,58.699201 C 85.790168,60.018733 85.025413,61.393516 84.239747,62.755532 C 83.343923,64.337468 82.453632,65.950484 81.610644,67.563035 C 80.645441,69.450747 79.775829,71.354072 78.868865,73.271945 C 77.872129,75.334437 76.931667,77.443544 76.01441,79.544234 C 75.123915,81.7143 74.403667,83.945481 73.723334,86.192109 C 73.03983,88.364774 72.564691,90.607917 72.108314,92.839985 C 71.702324,94.90159 71.498421,96.985577 71.282024,99.074715 C 71.086689,100.89278 71.013324,102.69388 70.943996,104.52071 C 70.888745,106.14506 70.836531,107.77861 70.793762,109.40333 C 70.731695,110.91601 70.745296,112.43456 70.756203,113.94793 C 70.77348,115.37153 70.85006,116.80709 70.906438,118.22961 L 71.620052,117.92914 C 72.356315,122.27439 72.807573,126.63573 73.310189,130.99954 C 74.403619,141.22034 75.611405,151.43841 76.878258,161.64737 C 78.839472,176.22756 80.580462,190.83275 82.662285,205.40316 C 84.696787,222.33279 86.453522,239.27286 88.220961,256.21997 C 89.596952,269.4367 90.941551,282.66053 92.239733,295.88187 C 93.225091,305.73811 94.099131,315.61422 94.943953,325.47806 C 95.569674,332.75016 96.122609,339.98803 96.709208,347.26206 C 97.009257,350.98894 97.332357,354.72664 97.610615,358.45453 L 98.361787,358.22917 L 95.206864,360.93339 C 96.181308,360.79863 97.150489,360.7684 98.136436,360.70804 C 102.11978,360.44452 106.13069,360.18568 110.11764,359.95687 C 120.76022,359.33205 131.41858,358.91006 142.08002,358.52964 C 158.83084,357.95991 175.57376,357.625 192.33345,357.25265 C 211.06644,356.82423 229.82196,356.51302 248.5587,356.20101 C 264.75854,355.93334 280.95865,355.71234 297.15955,355.48739 C 304.02646,355.39532 304.58822,355.37322 307.33794,355.33716 C 307.35735,355.80285 307.35704,356.26119 307.3755,356.72683 L 310.75577,355.2996 C 310.96319,355.29687 310.87047,355.30253 311.0938,355.2996 L 311.43183,354.99913 L 316.65248,352.82073 C 316.59512,351.43056 316.50255,350.04361 316.50224,348.65173 C 316.50517,347.17098 316.52945,345.66258 316.57736,344.18225 C 316.61309,342.57517 316.63323,340.98121 316.69003,339.37475 C 316.78472,337.61502 316.86774,335.83096 317.06562,334.07898 C 317.28364,332.08746 317.49679,330.10189 317.92947,328.14472 C 318.40955,326.00436 318.93683,323.88122 319.61961,321.79731 C 320.32791,319.65493 321.0125,317.50149 321.94824,315.44991 C 322.89207,313.38434 323.84759,311.33151 324.84025,309.29029 C 325.76802,307.40363 326.71637,305.5325 327.73227,303.69406 C 328.61019,302.11279 329.47905,300.51753 330.39893,298.96167 C 331.21778,297.64745 332.04045,296.33151 332.91536,295.05558 C 333.59944,294.05885 334.23044,293.04122 335.01864,292.12601 C 335.51605,291.59821 335.9282,290.96397 336.55854,290.5861 L 333.14071,291.11192 C 332.72008,287.50021 332.30437,283.90794 331.90127,280.29504 C 331.0968,273.08894 330.30207,265.86485 329.45996,258.66128 C 328.31988,248.88639 327.15408,239.13169 325.8919,229.36556 C 324.21651,216.26182 322.50731,203.14176 320.78392,190.04168 C 318.5836,173.17081 316.30683,156.32686 314.73699,139.41267 C 313.6127,124.6559 311.77632,109.91121 310.38019,95.168619 C 309.43506,84.820196 308.60247,74.480194 308.2769,64.107642 C 308.10338,59.180114 307.98499,54.237978 307.86376,49.309547 C 307.83838,48.30983 307.83439,47.340434 307.75108,46.342416 z M 299.71354,50.84945 C 299.78581,51.203051 299.86401,51.5477 299.93889,51.901091 C 300.80435,56.630391 301.26912,61.418069 301.81682,66.173366 C 302.91025,76.394161 304.11805,86.612263 305.38489,96.821198 C 307.3461,111.4014 309.12468,125.96903 311.20648,140.53943 C 313.24098,157.46907 314.96014,174.44667 316.72759,191.39379 C 318.1036,204.61051 319.44817,217.83434 320.74637,231.05569 C 321.7317,240.91193 322.60575,250.7505 323.45059,260.61433 C 324.07631,267.88644 324.62924,275.16187 325.21584,282.43588 C 325.49173,285.86255 325.78128,289.2996 326.04213,292.72694 C 325.72571,293.18456 325.41943,293.6591 325.10316,294.11661 C 324.40445,295.13086 323.73334,296.15373 323.075,297.19642 C 322.22166,298.51595 321.45693,299.89075 320.67125,301.25275 C 319.77542,302.8347 318.92269,304.44771 318.0797,306.06025 C 317.1145,307.94797 316.20734,309.88885 315.30037,311.80672 C 314.30363,313.86921 313.36317,315.94075 312.44591,318.04145 C 311.55542,320.21151 310.87272,322.44269 310.19239,324.68933 C 309.50889,326.86199 309.03375,329.10513 308.57737,331.3372 C 308.17138,333.39879 307.96749,335.48279 307.75108,337.57193 C 307.55575,339.38999 307.44483,341.22865 307.3755,343.05549 C 307.32025,344.67984 307.30558,346.31338 307.26282,347.93811 C 307.20534,349.33924 307.21522,350.74301 307.22526,352.14468 C 306.13787,352.17078 305.18489,352.19432 300.99053,352.29491 C 284.62034,352.68355 268.27189,353.07792 251.90142,353.45923 C 233.15745,353.88795 214.38869,354.27259 195.63861,354.51087 C 179.13557,354.75143 162.64039,354.95316 146.13635,355.14937 C 135.86356,355.29371 125.61019,355.42184 115.33828,355.60007 C 111.76546,355.63162 108.16908,355.67497 104.59652,355.71275 C 104.18659,352.18715 103.78811,348.64792 103.39464,345.12122 C 102.59017,337.91513 101.79544,330.7286 100.95333,323.52501 C 99.813233,313.75011 98.647461,303.95785 97.385263,294.19173 C 95.709885,281.08799 94.000673,268.00549 92.277291,254.90542 C 90.076969,238.03455 87.800172,221.15304 86.230354,204.23884 C 85.106069,189.48208 83.232153,174.77494 81.835996,160.03235 C 80.890862,149.68393 80.095848,139.30637 79.770272,128.93382 C 79.602045,124.15664 79.474617,119.40204 79.357127,114.62398 L 80.183416,114.28595 C 80.126052,112.89578 80.071046,111.50882 80.070741,110.11695 C 80.073671,108.6362 80.060376,107.16537 80.108299,105.68503 C 80.14402,104.07797 80.164162,102.44644 80.220975,100.83997 C 80.315656,99.080244 80.398663,97.333768 80.596561,95.581764 C 80.814577,93.59026 81.065296,91.604641 81.497968,89.647502 C 81.97804,87.507133 82.467793,85.384004 83.150547,83.300096 C 83.858846,81.157714 84.580999,79.00428 85.51674,76.952689 C 86.46056,74.887119 87.4161,72.83428 88.408754,70.793076 C 89.33653,68.906415 90.247323,66.997724 91.263209,65.159283 C 92.141131,63.578017 93.009979,62.020309 93.929871,60.464456 C 94.74872,59.150241 95.57138,57.796723 96.446298,56.520801 C 96.602265,56.293547 96.741479,56.072256 96.897001,55.844746 C 98.802167,55.730426 100.70026,55.616092 102.60591,55.506718 C 113.2485,54.881887 123.90687,54.459903 134.5683,54.079491 C 151.31913,53.509754 168.09959,53.174852 184.85929,52.802498 C 203.59227,52.374074 222.31023,52.062856 241.04698,51.750857 C 257.24681,51.483192 273.44694,51.224613 289.64783,50.999684 C 296.42048,50.908865 297.09108,50.883854 299.71354,50.84945 z "
       id="path8460" />
  </g>
  <g
     inkscape:groupmode="layer"
     id="layer9"
     inkscape:label="binding"
     style="display:inline">
    <path
       style="opacity:1;color:#000000;fill:#ffffff;fill-opacity:0.78823529;fill-rule:nonzero;stroke:none;stroke-width:3.05800009;stroke-linecap:butt;stroke-linejoin:miter;marker:none;marker-start:none;marker-mid:none;marker-end:none;stroke-miterlimit:4;stroke-dasharray:none;stroke-dashoffset:0;stroke-opacity:1;visibility:visible;display:inline;overflow:visible;enable-background:accumulate"
       d="M 85.886256,42.85107 L 115.63117,300.23557 C 100.05051,318.64908 94.7895,342.52595 92.563686,366.40282 C 86.695642,282.63144 71.114975,179.43483 64.032854,104.162 C 63.425815,81.903908 73.745478,57.217658 85.886256,42.85107 z "
       id="path8543"
       sodipodi:nodetypes="ccccc" />
    <path
       style="opacity:1;color:#000000;fill:#000000;fill-opacity:0.22757473;fill-rule:nonzero;stroke:none;stroke-width:3.05800009;stroke-linecap:butt;stroke-linejoin:miter;marker:none;marker-start:none;marker-mid:none;marker-end:none;stroke-miterlimit:4;stroke-dasharray:none;stroke-dashoffset:0;stroke-opacity:1;visibility:visible;display:inline;overflow:visible;enable-background:accumulate"
       id="path7370"
       d="M 91.939204,40.981861 C 91.236876,41.38962 90.773384,42.081574 90.219175,42.651123 C 89.340977,43.638733 88.602111,44.730736 87.839918,45.806319 C 86.865115,47.183183 85.966626,48.610884 85.054278,50.029069 C 84.029358,51.708007 83.044765,53.410729 82.066598,55.117091 C 80.934726,57.100971 79.904911,59.139965 78.871204,61.175882 C 77.765209,63.37857 76.701085,65.601465 75.6495,67.830446 C 74.606921,70.044345 73.817764,72.360555 73.028592,74.672423 C 72.267879,76.921189 71.708881,79.225085 71.173995,81.534782 C 70.691925,83.646753 70.435072,85.7959 70.192163,87.944955 C 69.971673,89.835561 69.889161,91.736965 69.78367,93.635906 C 69.720368,95.369468 69.686363,97.103894 69.646563,98.838097 C 69.593167,100.43555 69.595429,102.03327 69.592165,103.63116 C 69.592509,105.13315 69.670663,106.63321 69.734578,108.13336 L 59.386747,112.37193 C 59.323935,110.83688 59.243139,109.30174 59.223889,107.76551 C 59.211735,106.13243 59.196916,104.49994 59.266069,102.8676 C 59.313725,101.11434 59.358384,99.360969 59.419944,97.608119 C 59.497187,95.636758 59.598841,93.665855 59.816479,91.703963 C 60.057584,89.449553 60.293023,87.193488 60.745369,84.968786 C 61.253854,82.560134 61.784079,80.154466 62.545625,77.809919 C 63.303639,75.385555 64.079215,72.965231 65.071385,70.623488 C 66.093372,68.356605 67.134065,66.098984 68.244608,63.873325 C 69.255125,61.803727 70.260752,59.731232 71.33616,57.69418 C 72.275396,55.95406 73.230662,54.223667 74.228771,52.516581 C 75.10414,51.046816 75.961563,49.565196 76.912326,48.141275 C 77.645832,47.016103 78.358872,45.876805 79.137363,44.782312 C 79.642959,44.073922 80.158368,43.370588 80.655912,42.657496 L 91.939204,40.981861 z " />
    <path
       style="opacity:1;color:#000000;fill:#000000;fill-opacity:0.40697673;fill-rule:nonzero;stroke:none;stroke-width:3.05800009;stroke-linecap:butt;stroke-linejoin:miter;marker:none;marker-start:none;marker-mid:none;marker-end:none;stroke-miterlimit:4;stroke-dasharray:none;stroke-dashoffset:0;stroke-opacity:1;visibility:visible;display:inline;overflow:visible;enable-background:accumulate"
       id="path8454"
       d="M 121.07707,299.58044 C 120.37475,299.9882 119.91125,300.68015 119.35704,301.2497 C 118.47885,302.23732 117.73998,303.32932 116.97779,304.4049 C 116.00298,305.78177 115.1045,307.20946 114.19215,308.62765 C 113.16723,310.30659 112.18264,312.00931 111.20447,313.71567 C 110.07259,315.69955 109.04278,317.73854 108.00908,319.77446 C 106.90307,321.97715 105.83896,324.20004 104.78736,326.42903 C 103.74478,328.64292 102.95563,330.95913 102.16646,333.271 C 101.40574,335.51977 100.84675,337.82367 100.31187,340.13336 C 99.829795,342.24533 99.572942,344.39448 99.330031,346.54354 C 99.109546,348.43414 99.027026,350.33554 98.921537,352.23448 C 98.858234,353.96804 98.824233,355.70247 98.784427,357.43668 C 98.73104,359.03413 98.733299,360.63184 98.73003,362.22974 C 98.730379,363.73173 98.808537,365.23178 98.87244,366.73194 L 88.524615,370.97051 C 88.461805,369.43546 88.381002,367.90032 88.36176,366.36409 C 88.349597,364.73101 88.334778,363.09853 88.403934,361.46617 C 88.451589,359.71291 88.49625,357.95954 88.55781,356.20669 C 88.635055,354.23534 88.73671,352.26443 88.954345,350.30254 C 89.195454,348.04813 89.430889,345.79207 89.883239,343.56737 C 90.391717,341.15872 90.921948,338.75304 91.683493,336.40849 C 92.441504,333.98413 93.217086,331.5638 94.209259,329.22207 C 95.231238,326.95519 96.27193,324.69756 97.382475,322.4719 C 98.392988,320.40231 99.398622,318.32981 100.47402,316.29276 C 101.41327,314.55264 102.36853,312.82225 103.36664,311.11516 C 104.24201,309.6454 105.09943,308.16378 106.0502,306.73985 C 106.7837,305.61468 107.49674,304.47539 108.27523,303.38089 C 108.78083,302.6725 109.29624,301.96916 109.79378,301.25608 L 121.07707,299.58044 z " />
  </g>
  <g
     inkscape:groupmode="layer"
     id="layer5"
     inkscape:label="cover"
     style="display:inline">
    <g
       style="display:inline"
       id="g8580"
       transform="matrix(1.2018758,0,0,1.2018758,-11.847012,-64.570297)">
      <path
         sodipodi:nodetypes="ccccc"
         id="path8582"
         d="M 102.53048,306.56089 L 298.50008,303.02536 C 293.11259,233.82991 279.13882,147.46187 274.76149,83.317179 L 78.791898,87.862866 C 85.526249,160.76221 96.30121,236.69201 102.53048,306.56089 z "
         style="color:#000000;fill:#ffffff;fill-opacity:0.8887043;fill-rule:nonzero;stroke:none;stroke-width:3.05800009;stroke-linecap:butt;stroke-linejoin:miter;marker:none;marker-start:none;marker-mid:none;marker-end:none;stroke-miterlimit:4;stroke-dashoffset:0;stroke-opacity:1;visibility:visible;display:inline;overflow:visible;enable-background:accumulate" />
      <path
         style="opacity:1;color:#000000;fill:#000000;fill-opacity:0.40697673;fill-rule:nonzero;stroke:none;stroke-width:3.05800009;stroke-linecap:butt;stroke-linejoin:miter;marker:none;marker-start:none;marker-mid:none;marker-end:none;stroke-miterlimit:4;stroke-dasharray:none;stroke-dashoffset:0;stroke-opacity:1;visibility:visible;display:inline;overflow:visible;enable-background:accumulate"
         id="path8584"
         d="M 83.143688,85.838797 C 83.220898,86.734873 83.240458,87.632273 83.263988,88.529874 C 83.376378,92.954894 83.487268,97.37982 83.648128,101.80403 C 83.949948,111.11709 84.706678,120.41582 85.582848,129.70721 C 86.877128,142.94394 88.589628,156.15513 89.631878,169.40458 C 91.087148,184.5911 93.201708,199.73667 95.241478,214.88428 C 96.839108,226.64626 98.422748,238.40929 99.975878,250.17456 C 101.14598,258.94313 102.23051,267.71779 103.28742,276.49424 C 104.06808,282.96202 104.80065,289.43293 105.54643,295.90296 C 105.92793,299.21481 106.31244,302.52645 106.71112,305.83718 L 100.19041,307.8724 C 99.932458,304.5253 99.641218,301.17975 99.363058,297.83354 C 98.819258,291.30252 98.287688,284.7709 97.707628,278.24159 C 96.924448,269.38529 96.113328,260.53031 95.199878,251.68082 C 93.996418,239.80995 92.752318,227.94138 91.476728,216.07467 C 89.838248,200.8586 88.229418,185.63977 86.343368,170.43939 C 84.413448,157.35727 82.773948,144.2528 80.955837,131.16188 C 79.781424,121.99572 78.678587,112.82507 77.664941,103.64827 C 77.157201,99.378698 76.729079,95.099289 75.926774,90.85306 C 75.741343,90.005492 75.566236,89.157171 75.392462,88.308515 L 83.143688,85.838797 z " />
      <path
         style="opacity:1;color:#000000;fill:#000000;fill-opacity:0.40697673;fill-rule:nonzero;stroke:none;stroke-width:3.05800009;stroke-linecap:butt;stroke-linejoin:miter;marker:none;marker-start:none;marker-mid:none;marker-end:none;stroke-miterlimit:4;stroke-dasharray:none;stroke-dashoffset:0;stroke-opacity:1;visibility:visible;display:inline;overflow:visible;enable-background:accumulate"
         id="path8586"
         d="M 80.446512,85.572474 C 81.336348,85.593029 82.226308,85.577495 83.116408,85.565626 C 86.578768,85.528656 90.041508,85.509813 93.504168,85.480201 C 103.02657,85.320194 112.55016,85.201613 122.07338,85.072013 C 137.37317,84.895858 152.6728,84.724364 167.97166,84.508387 C 185.35361,84.294427 202.73077,83.921906 220.10706,83.536976 C 235.28304,83.194609 250.45896,82.8502 265.63468,82.501264 C 274.46529,82.296135 270.09476,82.397867 278.74629,82.196094 L 275.00482,85.198802 C 266.46874,85.307374 270.78144,85.251952 262.06672,85.365136 C 247.04794,85.567088 232.02948,85.782879 217.0117,86.023204 C 199.64212,86.303335 182.27249,86.58335 164.90639,86.968013 C 149.3696,87.302336 133.83028,87.601544 118.30171,88.113086 C 108.41821,88.454641 98.536588,88.841748 88.670558,89.402756 C 84.974518,89.608209 81.278817,89.818024 77.586134,90.054633 C 76.672114,90.108851 75.750783,90.139723 74.84744,90.260724 L 80.446512,85.572474 z " />
      <path
         d="M 278.31769,82.169597 C 278.39491,83.065673 278.41447,83.963073 278.438,84.860674 C 278.55038,89.285695 278.66127,93.71062 278.82213,98.134831 C 279.12395,107.44789 279.88069,116.74662 280.75686,126.03801 C 282.05113,139.27474 283.76363,152.48593 284.80588,165.73538 C 286.26116,180.92189 288.37572,196.06747 290.41549,211.21508 C 292.01311,222.97706 293.59675,234.74009 295.14989,246.50536 C 296.31998,255.27393 297.40452,264.04859 298.46142,272.82504 C 299.24208,279.29282 299.97465,285.76373 300.72043,292.23376 C 301.10193,295.54561 301.48644,298.85725 301.88513,302.16797 L 295.36441,304.2032 C 295.10646,300.8561 294.81522,297.51054 294.53706,294.16434 C 293.99327,287.63332 293.4617,281.1017 292.88163,274.57239 C 292.09845,265.71609 291.28733,256.8611 290.37389,248.01162 C 289.17043,236.14075 287.92633,224.27218 286.65073,212.40547 C 285.01226,197.1894 283.40342,181.97057 281.51737,166.77019 C 279.58746,153.68807 277.94795,140.5836 276.12984,127.49268 C 274.95543,118.32652 273.85259,109.15587 272.83894,99.979072 C 272.33121,95.709499 271.90308,91.43009 271.10078,87.18386 C 270.91535,86.336292 270.74024,85.487971 270.56646,84.639315 L 278.31769,82.169597 z "
         id="path8588"
         style="opacity:1;color:#000000;fill:#000000;fill-opacity:0.40697673;fill-rule:nonzero;stroke:none;stroke-width:3.05800009;stroke-linecap:butt;stroke-linejoin:miter;marker:none;marker-start:none;marker-mid:none;marker-end:none;stroke-miterlimit:4;stroke-dasharray:none;stroke-dashoffset:0;stroke-opacity:1;visibility:visible;display:inline;overflow:visible;enable-background:accumulate" />
      <path
         d="M 105.57236,304.39021 C 106.4622,304.41076 107.35215,304.39523 108.24225,304.38336 C 111.70462,304.34639 115.16736,304.32755 118.63002,304.29794 C 128.15242,304.13793 137.67601,304.01935 147.19923,303.88975 C 162.49902,303.71359 177.79865,303.5421 193.09751,303.32612 C 210.47946,303.11216 227.85662,302.73964 245.23291,302.35471 C 260.40889,302.01235 275.58481,301.66794 290.76053,301.319 C 299.59114,301.11387 295.22061,301.2156 303.87213,301.01383 L 300.13067,304.01654 C 291.59459,304.12511 295.90729,304.06969 287.19257,304.18287 C 272.17379,304.38482 257.15533,304.60061 242.13754,304.84094 C 224.76796,305.12107 207.39834,305.40109 190.03224,305.78575 C 174.49545,306.12007 158.95613,306.41928 143.42756,306.93082 C 133.54405,307.27238 123.66243,307.65949 113.7964,308.22049 C 110.10037,308.42594 106.40467,308.63576 102.71198,308.87237 C 101.79797,308.92658 100.87663,308.95746 99.973288,309.07846 L 105.57236,304.39021 z "
         id="path8590"
         style="opacity:1;color:#000000;fill:#000000;fill-opacity:0.40697673;fill-rule:nonzero;stroke:none;stroke-width:3.05800009;stroke-linecap:butt;stroke-linejoin:miter;marker:none;marker-start:none;marker-mid:none;marker-end:none;stroke-miterlimit:4;stroke-dasharray:none;stroke-dashoffset:0;stroke-opacity:1;visibility:visible;display:inline;overflow:visible;enable-background:accumulate" />
    </g>
  </g>
  <g
     inkscape:groupmode="layer"
     id="layer3"
     inkscape:label="i"
     style="display:inline">
    <path
       style="opacity:1;color:#000000;fill:url(#linearGradient8681);fill-opacity:1;fill-rule:nonzero;stroke:none;stroke-width:3.05800009;stroke-linecap:butt;stroke-linejoin:miter;marker:none;marker-start:none;marker-mid:none;marker-end:none;stroke-miterlimit:4;stroke-dasharray:none;stroke-dashoffset:0;stroke-opacity:1;visibility:visible;display:inline;overflow:visible;enable-background:accumulate"
       d="M 179.97729,148.47584 C 193.59065,148.13987 207.25955,149.25776 220.82654,147.68505 C 225.58802,150.44372 226.57713,156.57935 226.08907,161.61542 C 226.36051,174.00024 224.91848,187.07234 230.33688,198.64448 C 232.30392,202.33553 234.9476,205.66751 236.45757,209.59683 C 235.28309,213.89368 229.96794,214.73051 226.19727,214.00109 C 213.92398,212.8048 201.73887,216.25414 189.45974,215.15097 C 185.26106,215.16435 181.06694,215.64946 176.86756,215.39921 C 172.96386,213.91477 173.44153,208.10501 176.7055,206.18793 C 180.95583,204.04596 185.23317,201.5454 188.51167,198.01201 C 192.42195,192.6207 195.65784,186.69045 198.1724,180.51588 C 199.95917,176.35043 201.12015,171.73087 199.98105,167.22739 C 198.67499,160.74621 193.93696,155.08879 187.6714,152.8821 C 184.98004,151.66562 182.15848,150.53432 179.97729,148.47584 z "
       id="path8377" />
    <path
       style="opacity:1;color:#000000;fill:url(#linearGradient8611);fill-opacity:1;fill-rule:nonzero;stroke:none;stroke-width:3.05800009;stroke-linecap:butt;stroke-linejoin:miter;marker:none;marker-start:none;marker-mid:none;marker-end:none;stroke-miterlimit:4;stroke-dasharray:none;stroke-dashoffset:0;stroke-opacity:1;visibility:visible;display:inline;overflow:visible;enable-background:accumulate"
       d="M 243.10935,88.378988 C 232.11657,96.17569 222.12008,101.64342 205.75126,105.37356 C 197.96482,107.14794 183.95709,122.04534 198.13588,130.0377 C 212.08495,137.90057 224.53726,127.92053 226.91185,121.40489 C 231.54105,108.70284 231.51799,99.305612 243.10935,88.378988 z "
       id="path8430"
       sodipodi:nodetypes="cszsc" />
    <path
       style="opacity:1;color:#000000;fill:#000000;fill-opacity:0.40697673;fill-rule:nonzero;stroke:none;stroke-width:3.05800009;stroke-linecap:butt;stroke-linejoin:miter;marker:none;marker-start:none;marker-mid:none;marker-end:none;stroke-miterlimit:4;stroke-dasharray:none;stroke-dashoffset:0;stroke-opacity:1;visibility:visible;display:inline;overflow:visible;enable-background:accumulate"
       id="path8365"
       d="M 183.63015,211.29909 C 184.34909,211.13127 185.07848,211.02534 185.80657,210.89632 C 187.20201,210.71879 188.60469,210.61467 190.00565,210.4948 C 192.03724,210.34204 194.07271,210.25009 196.10753,210.15322 C 198.64123,210.04234 201.17584,209.95501 203.71043,209.86727 C 206.34992,209.77921 208.98957,209.69589 211.62918,209.61113 C 214.01813,209.53557 216.40901,209.5348 218.79898,209.51516 C 220.90078,209.49836 223.00259,209.48401 225.10441,209.46975 C 226.99121,209.45707 228.87802,209.44627 230.76483,209.43558 C 232.30795,209.45284 233.85019,209.39223 235.39065,209.33922 C 236.40038,209.46104 237.01898,208.7653 237.80105,208.41003 C 235.78056,206.14617 232.65078,211.62091 230.10868,213.27778 C 230.65198,212.92756 230.08852,212.14569 230.08016,211.67702 C 229.68475,210.54628 229.19023,209.45354 228.7223,208.3517 C 228.16482,207.09675 227.66308,205.81835 227.1491,204.54532 C 226.60805,203.17682 226.07989,201.80337 225.55131,200.43004 C 225.01465,199.01676 224.54077,197.58201 224.05949,196.14962 C 223.60601,194.70012 223.20933,193.23381 222.79931,191.7717 C 222.40042,190.34898 222.08429,188.90583 221.75495,187.46617 C 221.43295,186.07916 221.21069,184.67345 220.97229,183.27104 C 220.75612,181.86782 220.65599,180.45279 220.53788,179.03968 C 220.43162,177.63371 220.42674,176.22373 220.40441,174.81484 C 220.38764,173.45044 220.43894,172.08637 220.47505,170.72265 C 220.51241,169.41125 220.54196,168.09966 220.57274,166.7881 C 220.60057,165.48954 220.62614,164.19093 220.65235,162.89234 C 220.67629,161.57855 220.69223,160.26463 220.70964,158.95074 C 220.7262,157.65902 220.73862,156.36724 220.75172,155.07548 C 220.86259,154.1018 220.66966,153.13655 220.60461,152.17674 C 220.68372,151.50846 219.93006,151.48377 219.63199,151.17756 C 218.82204,150.94781 217.96676,150.97726 217.13291,150.92757 C 215.5769,150.87508 214.01875,150.86856 212.46171,150.84634 C 210.55772,150.81273 208.65367,150.81325 206.74993,150.82897 C 204.83592,150.871 202.92182,150.90892 201.00775,150.94845 C 199.22122,150.98617 197.43456,151.01722 195.64794,151.0493 C 194.00627,151.1423 192.36322,151.2059 190.72046,151.27462 C 189.093,151.34318 187.46463,151.3839 185.83646,151.43031 C 184.14982,151.49558 182.46402,151.5909 180.77767,151.66998 C 179.001,151.75247 177.22668,151.88764 175.4518,152.00455 C 173.92388,152.0848 172.40652,152.29478 170.88842,152.4772 C 170.01325,152.52987 169.21382,152.92834 168.40809,153.17092 C 166.90461,148.63539 175.70629,147.46659 177.77126,145.79804 C 179.16098,146.07886 180.54531,146.3849 181.93,146.68982 C 183.60452,147.06115 185.25355,147.52879 186.90522,147.98783 C 188.52844,148.39544 190.08486,149.00823 191.65101,149.58742 C 193.114,150.11143 194.45393,150.89024 195.81102,151.63104 C 197.1154,152.33942 198.22483,153.3175 199.36534,154.24973 C 200.52648,155.2219 201.3859,156.46168 202.29678,157.65244 C 203.18479,158.86922 203.77173,160.25135 204.40848,161.60381 C 205.07436,163.09266 205.38975,164.68653 205.76319,166.26142 C 206.10886,167.8661 206.15769,169.50361 206.25804,171.13358 C 206.31951,172.7888 206.1174,174.42989 205.95752,176.07199 C 205.77491,177.71158 205.32151,179.29457 204.9106,180.88495 C 204.49422,182.46094 203.81612,183.93778 203.18325,185.43111 C 202.48572,186.94464 201.5247,188.30256 200.61144,189.68682 C 199.63766,191.18064 198.42879,192.48715 197.26029,193.82406 C 196.01006,195.14952 194.67264,196.38752 193.34481,197.63339 C 192.0347,198.82932 190.67811,199.97212 189.32936,201.12366 C 188.05577,202.22106 186.72603,203.24965 185.40408,204.28713 C 184.14566,205.27617 182.84051,206.20262 181.54123,207.13652 C 180.41259,207.88931 179.37967,208.76486 178.33868,209.62987 C 177.69119,210.13711 177.1837,210.78392 176.62008,211.37289 C 176.51952,211.70945 176.06924,211.61519 175.98776,211.65103 C 175.71239,211.47285 176.11491,211.40924 176.13622,211.36872 C 176.56757,211.36535 177.01093,211.28245 177.45031,211.23911 C 178.1814,211.17086 178.90641,211.05457 179.63358,210.94992 C 180.51424,210.88567 181.37486,210.68068 182.24259,210.53582 C 183.21315,210.36986 184.17764,210.1822 185.14518,210.00149 C 186.20088,209.76349 187.26557,209.55589 188.32576,209.34592 C 188.67557,209.25585 189.03154,209.19448 189.38442,209.11876 L 182.15279,217.7719 C 182.14687,217.77313 181.09187,218.00309 181.08836,217.99227 C 180.00963,218.20324 178.92881,218.41132 177.8479,218.61231 C 176.86261,218.78811 175.87986,218.97881 174.88992,219.13024 C 173.96886,219.23467 173.05133,219.3607 172.12756,219.44191 C 171.27297,219.44806 170.41401,219.5721 169.56188,219.4213 C 168.7995,219.17167 167.94812,219.15455 167.29754,218.6014 C 166.71558,217.945 165.88092,217.49891 165.65563,216.55167 C 165.56549,215.66102 165.09439,214.8188 165.53823,213.89677 C 166.04946,213.01536 166.47014,212.07269 167.2236,211.34991 C 168.25424,210.31722 169.26221,209.25874 170.45541,208.40403 C 171.74364,207.46477 173.03362,206.52899 174.3364,205.6099 C 175.66621,204.61057 177.00554,203.62411 178.30115,202.58005 C 179.65726,201.45865 181.02473,200.35036 182.34816,199.19012 C 183.67993,198.0131 185.02868,196.85531 186.28683,195.5971 C 187.46732,194.41575 188.6893,193.26871 189.69238,191.92436 C 190.6143,190.67978 191.56667,189.45237 192.34218,188.10784 C 193.04925,186.80653 193.78318,185.52265 194.21647,184.09334 C 194.67678,182.66108 195.17991,181.23937 195.42032,179.74698 C 195.63694,178.26003 195.89001,176.77797 195.89106,175.26813 C 195.86075,173.80524 195.87483,172.33861 195.59729,170.89232 C 195.31657,169.53718 195.09855,168.16385 194.5371,166.88342 C 193.99873,165.73557 193.50629,164.56037 192.75369,163.52776 C 191.97921,162.54965 191.2499,161.53192 190.24442,160.76579 C 189.22197,159.99714 188.22036,159.19952 187.06574,158.62781 C 185.81455,158.0091 184.57574,157.36144 183.24329,156.92498 C 181.73661,156.41376 180.23596,155.88519 178.68807,155.50461 C 177.07959,155.09511 175.4752,154.66685 173.84259,154.35973 C 172.41211,154.08594 170.97902,153.82467 169.55435,153.52202 C 163.96792,151.05842 168.71955,148.85398 175.57691,144.30523 C 176.4952,144.22176 177.41708,144.14293 178.33727,144.07099 C 179.86347,143.9559 181.38943,143.84097 182.9183,143.76587 C 184.70522,143.65465 186.49181,143.53849 188.28064,143.46192 C 189.98447,143.37317 191.68789,143.27538 193.39408,143.24428 C 195.01654,143.18617 196.63903,143.12867 198.26116,143.06196 C 199.91661,142.99516 201.57215,142.91118 203.22927,142.90476 C 205.00533,142.87925 206.7814,142.85456 208.5574,142.82453 C 210.47632,142.79217 212.39517,142.75114 214.31435,142.73836 C 216.23805,142.75055 218.16175,142.76352 220.08547,142.77252 C 221.74613,142.79206 223.41278,142.75961 225.06443,142.96631 C 226.32821,143.26065 227.58323,143.44065 228.63113,144.29549 C 229.51509,145.17975 230.42369,145.94599 230.77157,147.22249 C 231.03327,148.46309 231.34969,149.67648 231.20428,150.97041 C 231.19068,152.26568 231.1778,153.56096 231.16065,154.85619 C 231.14285,156.17428 231.12547,157.49236 231.10487,158.81041 C 231.08499,160.11405 231.06725,161.41771 231.03534,162.72114 C 231.00485,164.03893 230.9759,165.35677 230.93764,166.67437 C 230.89842,168.00356 230.85954,169.33276 230.81658,170.66183 C 230.82636,172.01986 230.81374,173.37957 230.88357,174.73601 C 230.96498,176.07549 231.03677,177.41528 231.22988,178.74492 C 231.42517,180.08096 231.60328,181.41928 231.90492,182.73776 C 232.20612,184.13039 232.49401,185.5264 232.86413,186.90309 C 233.25358,188.32478 233.63814,189.74779 234.0654,191.15885 C 234.5188,192.54191 234.96693,193.92616 235.48351,195.28768 C 236.0039,196.63555 236.51789,197.98594 237.06049,199.32522 C 237.5721,200.57487 238.06689,201.83199 238.6223,203.06314 C 239.12815,204.22305 239.64607,205.3778 240.13555,206.54471 C 240.48023,207.65053 240.96746,208.72342 240.98868,209.90828 C 240.14289,214.51025 237.66408,216.32897 230.96644,217.47356 C 229.89774,217.53572 228.82816,217.64321 227.75499,217.58037 C 226.22649,217.55662 224.69785,217.52724 223.16898,217.5381 C 221.29283,217.53899 219.41669,217.53984 217.54055,217.5409 C 215.45343,217.54215 213.36631,217.54296 211.2792,217.54677 C 208.92408,217.55476 206.56871,217.55823 204.21464,217.63948 C 201.58576,217.71333 198.9568,217.78839 196.32903,217.89622 C 193.7895,218.00564 191.24952,218.11208 188.71341,218.28689 C 186.67976,218.43539 184.64434,218.57486 182.62129,218.83769 C 181.27288,219.04363 179.90707,219.18865 178.60021,219.60095 C 177.91712,219.8444 177.20979,220.00735 176.55931,220.33693 L 183.63015,211.29909 z " />
    <path
       style="opacity:1;color:#000000;fill:#000000;fill-opacity:0.40697673;fill-rule:nonzero;stroke:none;stroke-width:3.05800009;stroke-linecap:butt;stroke-linejoin:miter;marker:none;marker-start:none;marker-mid:none;marker-end:none;stroke-miterlimit:4;stroke-dasharray:none;stroke-dashoffset:0;stroke-opacity:1;visibility:visible;display:inline;overflow:visible;enable-background:accumulate"
       d="M 249.61034,86.530137 L 238.41788,87.844688 C 238.26321,87.974731 238.12185,88.090232 237.96717,88.220275 C 237.61073,88.558183 237.23058,88.892478 236.87797,89.234357 L 235.4883,89.459709 C 234.96618,89.833241 234.51257,90.284252 234.02352,90.699143 C 233.36813,91.287605 232.66608,91.819669 231.99535,92.389281 C 231.47552,92.778993 230.94949,93.181654 230.41789,93.553598 C 229.95466,93.766161 229.49232,93.94406 229.02822,94.154536 C 227.53887,94.843795 225.9815,95.383003 224.44607,95.95735 C 222.78692,96.539147 221.14851,97.10611 219.48833,97.685046 C 217.79116,98.249891 216.09246,98.897692 214.41792,99.525419 C 212.74688,100.14763 211.12912,100.87364 209.49774,101.59114 C 204.88778,103.63276 200.68289,106.47959 196.35222,109.02775 C 195.05753,109.86831 193.94697,110.95225 192.82171,111.99488 C 191.85726,112.95033 191.13522,114.07431 190.3804,115.18736 C 189.72691,116.20195 189.38718,117.3813 188.95318,118.49252 C 188.62538,119.54225 188.64176,120.60436 188.54003,121.685 C 188.48281,122.69288 188.74851,123.67179 188.91562,124.65213 C 189.13632,125.68156 189.77048,126.53277 190.26773,127.43147 C 190.81459,128.29361 191.56415,128.98724 192.25833,129.72255 C 192.94898,130.4687 193.78341,130.99365 194.58697,131.60048 C 195.39727,132.13484 196.26226,132.6211 197.1034,133.10282 C 197.24573,133.18275 197.40837,133.21826 197.5541,133.29062 L 195.93908,134.71784 C 196.59406,134.97553 197.29958,135.17596 197.96724,135.39389 C 198.92228,135.66762 199.88246,135.76249 200.85926,135.91972 C 202.1955,136.15965 203.56667,136.09908 204.91559,136.10751 C 206.44686,136.0678 207.95489,135.76019 209.46018,135.50657 C 211.03108,135.23163 212.53435,134.68898 214.04233,134.19202 C 218.70657,132.54811 222.65407,129.35132 226.81226,126.83053 C 228.12673,125.78021 229.0733,124.39866 230.07986,123.07467 C 231.14239,121.71137 231.90431,120.1597 232.70897,118.64275 C 233.48742,117.02504 234.09898,115.3605 234.73713,113.68502 C 235.37576,112.04997 235.85781,110.36106 236.38971,108.68972 C 236.8251,107.09196 237.37609,105.52972 237.89205,103.95733 C 238.37553,102.47266 238.93814,101.016 239.50707,99.562977 C 240.05731,98.159845 240.82161,96.866048 241.53524,95.544205 C 242.25075,94.302131 243.08043,93.111104 243.90143,91.938578 C 244.62892,90.861895 245.53639,89.954561 246.41786,89.009006 C 247.22621,88.163707 248.18867,87.518178 249.12208,86.830606 C 249.28107,86.730542 249.45136,86.630198 249.61034,86.530137 z M 230.0423,99.525419 C 229.57712,100.52088 229.12597,101.5271 228.76531,102.56767 C 228.21298,104.07436 227.65231,105.57502 227.18785,107.11226 C 226.70522,108.70114 226.2178,110.29711 225.72306,111.8822 C 225.18043,113.48917 224.68086,115.08298 224.03292,116.65215 C 223.38219,118.216 222.77436,119.81679 221.89208,121.27186 C 221.02893,122.60885 220.18504,123.98937 219.11275,125.17795 C 218.65763,125.63743 218.22661,126.08741 217.76064,126.53006 C 217.37128,126.6704 216.9594,126.79456 216.55876,126.90565 C 215.18496,127.22926 213.83204,127.58115 212.42731,127.7695 C 211.45398,127.86018 210.47572,127.96512 209.49774,127.95729 L 210.21135,127.3188 C 209.59911,127.15578 208.97488,127.02485 208.37098,126.83053 C 207.52759,126.53586 206.66438,126.27838 205.85455,125.89157 C 205.08559,125.4843 204.2584,125.16681 203.52592,124.68969 C 202.86367,124.24628 202.14,123.87843 201.57287,123.30002 C 201.02322,122.74378 200.40765,122.25764 199.95785,121.60989 C 199.70841,121.04819 199.22909,120.54105 199.20668,119.88219 C 199.19271,119.18358 198.98416,118.48087 199.16912,117.77891 C 199.37213,116.99199 199.39642,116.16461 199.84517,115.45027 C 200.32812,114.58058 200.73603,113.63882 201.42264,112.89629 C 202.2274,112.03137 202.97503,111.12003 203.93906,110.41742 C 204.32287,110.12864 204.68026,109.83997 205.06582,109.55357 C 205.94301,109.1384 206.79746,108.76075 207.69493,108.38925 C 209.33751,107.74791 210.99102,107.06639 212.65266,106.47376 C 214.31303,105.899 215.95072,105.32223 217.6104,104.74607 C 219.1842,104.21172 220.78522,103.67311 222.34279,103.09349 C 223.66879,102.55583 224.99027,102.04774 226.28644,101.44091 C 227.54541,100.81898 228.79824,100.17824 230.0423,99.525419 z M 203.0001,110.45498 C 203.04489,110.44427 203.03049,110.47925 202.92498,110.56765 C 201.9736,111.11735 201.02329,111.67294 200.07053,112.22023 C 199.23502,112.70017 202.68652,110.52992 203.0001,110.45498 z "
       id="path8416" />
  </g>
</svg>
