<?xml version="1.0" encoding="UTF-8" standalone="no"?>
<!-- Created with Inkscape (http://www.inkscape.org/) -->
<svg
   xmlns:dc="http://purl.org/dc/elements/1.1/"
   xmlns:cc="http://web.resource.org/cc/"
   xmlns:rdf="http://www.w3.org/1999/02/22-rdf-syntax-ns#"
   xmlns:svg="http://www.w3.org/2000/svg"
   xmlns="http://www.w3.org/2000/svg"
   xmlns:sodipodi="http://inkscape.sourceforge.net/DTD/sodipodi-0.dtd"
   xmlns:inkscape="http://www.inkscape.org/namespaces/inkscape"
   width="1000"
   height="1000"
   id="svg2"
   sodipodi:version="0.32"
   inkscape:version="0.43"
   version="1.0"
   sodipodi:docbase="/home/kkowal/tale/art/item"
   sodipodi:docname="maltov-cocktail.svg"
   inkscape:export-filename="/home/kkowal/tale/art/item/maltov-cocktail.png"
   inkscape:export-xdpi="90"
   inkscape:export-ydpi="90">
  <defs
     id="defs4" />
  <sodipodi:namedview
     id="base"
     pagecolor="#ffffff"
     bordercolor="#666666"
     borderopacity="1.0"
     inkscape:pageopacity="0.0"
     inkscape:pageshadow="2"
     inkscape:zoom="0.7"
     inkscape:cx="407.37375"
     inkscape:cy="521.59185"
     inkscape:document-units="px"
     inkscape:current-layer="layer1"
     inkscape:window-width="1590"
     inkscape:window-height="1121"
     inkscape:window-x="0"
     inkscape:window-y="25" />
  <metadata
     id="metadata7">
    <rdf:RDF>
      <cc:Work
         rdf:about="">
        <dc:format>image/svg+xml</dc:format>
        <dc:type
           rdf:resource="http://purl.org/dc/dcmitype/StillImage" />
      </cc:Work>
    </rdf:RDF>
  </metadata>
  <g
     inkscape:label="Layer 1"
     inkscape:groupmode="layer"
     id="layer1">
    <path
       style="color:#000000;fill:#ffffff;fill-opacity:1;fill-rule:nonzero;stroke:none;stroke-width:3.9000001;stroke-linecap:butt;stroke-linejoin:miter;marker:none;marker-start:none;marker-mid:none;marker-end:none;stroke-miterlimit:4;stroke-dasharray:none;stroke-dashoffset:0;stroke-opacity:1;visibility:visible;display:inline;overflow:visible"
       d="M 532.8125,344.84375 C 529.23418,345.63473 525.61285,346.26352 521.9375,346.71875 C 489.44446,345.95016 452.92015,351.79148 429.84375,376.53125 C 433.67662,374.61604 437.66382,373.03281 441.8125,371.9375 C 464.06305,371.98852 469.8732,399.05273 469.21875,416.875 C 467.86361,448.85099 467.71494,482.7933 451.40625,511.4375 C 444.29348,523.9535 435.24333,541.72777 447.15625,554.125 C 464.03545,568.84694 487.33469,559.31952 506.75,557.28125 C 523.62305,553.90882 538.62746,562.34876 553.8125,567.46875 C 566.98293,570.35721 584.15745,560.05337 580.09375,545.125 C 570.66307,524.52874 557.09198,505.846 548,484.96875 C 534.02644,456.64756 528.49875,424.83874 530.25,393.40625 C 532.06428,377.29579 531.37839,360.96727 532.8125,344.84375 z "
       id="path3118" />
    <path
       style="color:#000000;fill:#000000;fill-opacity:1;fill-rule:nonzero;stroke:none;stroke-width:3.9000001;stroke-linecap:butt;stroke-linejoin:miter;marker:none;marker-start:none;marker-mid:none;marker-end:none;stroke-miterlimit:4;stroke-dasharray:none;stroke-dashoffset:0;stroke-opacity:1;visibility:visible;display:inline;overflow:visible"
       d="M 446.09375,366.875 C 443.64228,366.98314 441.12086,367.58288 438.59375,368.5 C 434.32623,371.84963 430.35979,375.65727 426.78125,380 C 426.66279,380.41056 426.5267,380.80834 426.40625,381.21875 C 436.15473,374.62895 447.90317,370.29701 455.0625,383.28125 C 466.19005,406.21599 464.83952,434.15993 462.6875,458.78125 C 459.2069,481.63708 452.34223,503.73585 442.5625,524.6875 C 440.67628,528.78599 437.78306,533.19526 437.15625,537.59375 L 447.84375,532.40625 C 449.03835,530.7035 450.90595,524.56954 452,521.59375 C 460.04144,500.48818 465.63408,478.59555 468.65625,456.21875 C 470.41251,430.69409 472.28951,402.5295 462.46875,378.21875 C 458.49493,369.58992 452.56222,366.58966 446.09375,366.875 z "
       id="path3120" />
    <path
       style="color:#000000;fill:#ff003a;fill-opacity:0.41614906;fill-rule:nonzero;stroke:none;stroke-width:3.9000001;stroke-linecap:butt;stroke-linejoin:miter;marker:none;marker-start:none;marker-mid:none;marker-end:none;stroke-miterlimit:4;stroke-dasharray:none;stroke-dashoffset:0;stroke-opacity:1;visibility:visible;display:inline;overflow:visible"
       d="M 410.20613,447.45258 C 410.89711,412.1046 585.78474,399.97232 586.25417,446.0671 C 587.21359,495.54932 410.03749,483.11575 410.20613,447.45258 z "
       id="path1770"
       sodipodi:nodetypes="ccc" />
    <path
       style="color:#000000;fill:#000000;fill-opacity:1;fill-rule:nonzero;stroke:none;stroke-width:3.9000001;stroke-linecap:butt;stroke-linejoin:miter;marker:none;marker-start:none;marker-mid:none;marker-end:none;stroke-miterlimit:4;stroke-dasharray:none;stroke-dashoffset:0;stroke-opacity:1;visibility:visible;display:inline;overflow:visible"
       d="M 538.3125,343.5 C 535.51886,344.25589 532.70026,344.88239 529.84375,345.4375 C 528.42952,355.45781 527.51725,365.55666 526.84375,375.65625 C 525.6818,396.80552 525.69257,418.13987 529.5,439.03125 C 533.82276,460.80736 541.758,481.6519 550.40625,502.03125 C 554.7581,511.92903 559.03205,521.91188 564.40625,531.3125 C 565.76669,533.77833 567.67769,535.83846 569.59375,537.875 L 578.0625,530.375 C 576.28127,528.58142 574.60448,526.70405 573.15625,524.625 C 567.0978,515.97473 562.19316,506.56594 557.5625,497.09375 C 548.18213,477.32797 540.35805,456.68774 536.4375,435.09375 C 533.06312,414.25985 532.91053,393.06345 534.75,372.0625 C 535.58374,362.50999 536.66542,352.94852 538.3125,343.5 z "
       id="path3122" />
    <path
       style="color:#000000;fill:#ff003a;fill-opacity:0.41614906;fill-rule:nonzero;stroke:none;stroke-width:3.9000001;stroke-linecap:butt;stroke-linejoin:miter;marker:none;marker-start:none;marker-mid:none;marker-end:none;stroke-miterlimit:4;stroke-dasharray:none;stroke-dashoffset:0;stroke-opacity:1;visibility:visible;display:inline;overflow:visible"
       d="M 423.83333,431.36093 C 241.17007,679.51118 748.11527,674.80544 584.91979,440.62444 C 569.0292,421.0609 483.79019,402.4708 423.83333,431.36093 z "
       id="path1793"
       sodipodi:nodetypes="ccc" />
    <g
       id="g3341">
      <path
         id="path3327"
         d="M 532.8125 344.84375 C 529.23418 345.63473 525.61285 346.26352 521.9375 346.71875 C 489.44446 345.95016 452.92015 351.79148 429.84375 376.53125 C 433.67662 374.61604 437.66382 373.03281 441.8125 371.9375 C 464.06305 371.98852 469.8732 399.05273 469.21875 416.875 C 468.74982 427.93997 468.3996 439.23388 467.5 450.46875 C 477.76665 452.73743 488.5002 453.20993 498.875 454.625 C 510.56897 452.32367 522.74133 449.33763 534.875 448.125 C 530.69484 430.27201 529.22669 411.77317 530.25 393.40625 C 532.06428 377.29579 531.37839 360.96727 532.8125 344.84375 z "
         style="color:#000000;fill:#ffffff;fill-opacity:1;fill-rule:nonzero;stroke:none;stroke-width:3.9000001;stroke-linecap:butt;stroke-linejoin:miter;marker:none;marker-start:none;marker-mid:none;marker-end:none;stroke-miterlimit:4;stroke-dasharray:none;stroke-dashoffset:0;stroke-opacity:1;visibility:visible;display:inline;overflow:visible" />
      <path
         id="path3329"
         d="M 446.6875 366.84375 C 446.48645 366.84618 446.29589 366.86608 446.09375 366.875 C 443.64228 366.98314 441.12086 367.58288 438.59375 368.5 C 434.32623 371.84963 430.35979 375.65727 426.78125 380 C 426.66279 380.41056 426.5267 380.80834 426.40625 381.21875 C 436.15473 374.62895 447.90317 370.29701 455.0625 383.28125 C 464.80367 403.35855 464.9879 427.27219 463.4375 449.4375 C 465.28088 449.94417 467.15408 450.39897 469.03125 450.78125 C 470.62484 426.74068 471.59688 400.81494 462.46875 378.21875 C 458.61911 369.85957 452.92005 366.76848 446.6875 366.84375 z "
         style="color:#000000;fill:#000000;fill-opacity:1;fill-rule:nonzero;stroke:none;stroke-width:3.9000001;stroke-linecap:butt;stroke-linejoin:miter;marker:none;marker-start:none;marker-mid:none;marker-end:none;stroke-miterlimit:4;stroke-dasharray:none;stroke-dashoffset:0;stroke-opacity:1;visibility:visible;display:inline;overflow:visible" />
      <path
         id="path3331"
         d="M 538.3125 343.5 C 535.51886 344.25589 532.70026 344.88239 529.84375 345.4375 C 528.42952 355.45781 527.51725 365.55666 526.84375 375.65625 C 525.6818 396.80552 525.69257 418.13987 529.5 439.03125 C 530.13123 442.2111 530.84874 445.35842 531.625 448.5 C 534.14428 448.18671 536.67214 447.93873 539.1875 447.78125 C 538.12523 443.58554 537.21269 439.36343 536.4375 435.09375 C 533.06312 414.25985 532.91053 393.06345 534.75 372.0625 C 535.58374 362.50999 536.66542 352.94852 538.3125 343.5 z "
         style="color:#000000;fill:#000000;fill-opacity:1;fill-rule:nonzero;stroke:none;stroke-width:3.9000001;stroke-linecap:butt;stroke-linejoin:miter;marker:none;marker-start:none;marker-mid:none;marker-end:none;stroke-miterlimit:4;stroke-dasharray:none;stroke-dashoffset:0;stroke-opacity:1;visibility:visible;display:inline;overflow:visible" />
    </g>
    <path
       style="color:#000000;fill:#884000;fill-opacity:0.6956522;fill-rule:nonzero;stroke:none;stroke-width:5.2428503;stroke-linecap:butt;stroke-linejoin:miter;marker:none;marker-start:none;marker-mid:none;marker-end:none;stroke-miterlimit:4;stroke-dasharray:none;stroke-dashoffset:0;stroke-opacity:1;visibility:visible;display:inline;overflow:visible"
       d="M 417.65959,408.27194 C 399.48856,364.83257 469.68569,363.80604 498.08236,367.85044 C 534.99625,360.62322 578.59587,362.11978 585.82797,404.85584 C 622.47551,436.94825 639.32736,488.03349 634.32716,535.46824 C 637.51025,580.35205 602.08513,623.81113 555.8415,627.79447 C 512.23108,638.7146 462.95204,641.5078 423.75418,616.01985 C 389.01753,604.71065 367.70336,581.42518 364.22486,544.26543 C 362.73064,504.02594 377.71518,474.08536 388.97183,440.77335 C 395.50104,428.00969 404.03487,414.58438 417.65959,408.27194 z "
       id="path3563"
       sodipodi:nodetypes="ccccccccc" />
    <path
       style="color:#000000;fill:#000000;fill-opacity:1;fill-rule:nonzero;stroke:none;stroke-width:3.9000001;stroke-linecap:butt;stroke-linejoin:miter;marker:none;marker-start:none;marker-mid:none;marker-end:none;stroke-miterlimit:4;stroke-dasharray:none;stroke-dashoffset:0;stroke-opacity:1;visibility:visible;display:inline;overflow:visible"
       d="M 509.64904,361.53909 C 483.61605,361.27603 457.08698,364.54404 432.07626,369.0443 C 416.48247,374.47304 393.03671,390.99109 407.86181,408.63478 C 380.51871,417.31098 389.00785,448.83262 373.30294,467.35593 C 352.91566,508.06032 351.04766,562.47704 385.12387,596.86086 C 417.04927,632.01849 467.42126,639.6536 513.03586,638.33718 C 554.54875,636.90061 599.37647,624.1696 626.12538,591.28324 C 645.29798,562.4301 642.64027,526.47746 638.15627,494.27578 C 637.30574,467.44388 623.92545,444.19585 607.76905,422.28448 C 603.18314,405.41075 568.75844,403.08766 586.13558,382.81447 C 581.28509,355.56038 544.18051,365.01278 523.39226,361.61754 C 518.81157,361.54788 514.2302,361.53198 509.64904,361.53909 z M 504.00413,371.96067 C 524.53944,375.05293 561.45956,366.68146 570.27339,388.14761 C 554.11794,405.43303 584.50574,425.03746 597.45252,411.60777 C 586.96133,417.63028 582.07962,432.31749 597.22396,427.55552 C 600.04819,447.20816 616.57824,451.27295 619.83048,472.92997 C 632.63136,511.33034 635.94754,558.82773 608.89006,592.20091 C 584.57918,618.23587 546.62722,626.5523 512.0715,629.24901 C 460.94141,632.13652 402.84886,613.5492 377.41628,566.88717 C 356.53968,524.30254 373.9849,472.8861 403.52597,438.5818 C 402.00977,428.48736 403.68046,423.8584 406.10712,420.17842 C 417.27288,422.88171 440.44038,401.44659 422.93782,403.00475 C 426.99029,400.8493 410.68533,391.3755 422.37795,384.36021 C 440.67944,379.80118 462.55537,373.21103 483.30085,372.77152 C 490.19048,372.27917 497.09669,372.01735 504.00413,371.96067 z M 589.42668,418.16554 C 585.12258,423.63598 590.62058,410.07991 589.42668,418.16554 z M 415.42934,388.91855 C 413.70367,390.31839 414.19578,389.91919 415.42934,388.91855 z M 416.33476,413.1855 L 416.37947,413.2177 L 416.33476,413.1855 z M 416.50244,413.30356 L 416.53597,413.33576 L 416.50244,413.30356 z M 389.63043,432.52606 C 394.97153,435.89798 383.16066,433.56473 389.63043,432.52606 z M 400.92025,434.66191 C 401.2371,439.01322 395.10525,433.48429 400.92025,434.66191 z M 397.82393,437.54904 C 392.70334,441.20559 392.88082,440.68449 397.82393,437.54904 z "
       id="path1607"
       sodipodi:nodetypes="cccccccccccccccccccccccccccccccccccccccccc" />
    <path
       style="color:#000000;fill:#000000;fill-opacity:0.11801243;fill-rule:nonzero;stroke:none;stroke-width:3.9000001;stroke-linecap:butt;stroke-linejoin:miter;marker:none;marker-start:none;marker-mid:none;marker-end:none;stroke-miterlimit:4;stroke-dasharray:none;stroke-dashoffset:0;stroke-opacity:1;visibility:visible;display:inline;overflow:visible"
       d="M 467.32842,390.89152 C 458.08124,392.06238 440.7444,395.40777 459.39736,394.63299 C 489.62984,399.15618 520.85901,399.04189 550.66249,391.86106 C 542.54157,399.68257 547.30328,394.34783 556.93283,405.82417 C 600.14393,450.61489 638.53678,487.54808 616.18048,563.57127 C 604.64585,607.39853 494.15145,665.33783 399.48112,581.6534 C 385.57218,567.30606 393.27638,560.87858 409.64576,574.23269 C 492.86225,637.66563 581.2192,609.2801 606.91261,558.8487 C 621.99441,517.72081 607.95968,464.72467 551.75214,416.09179 C 534.24526,409.51827 523.70402,378.41744 551.00707,381.61446 C 570.89513,396.26301 537.33542,409.10939 523.54388,407.76661 C 498.79003,408.14669 473.65263,407.93747 449.11885,406.85219 C 398.40753,392.46004 464.45244,374.02854 471.42819,380.15215 C 475.63734,383.64933 470.02646,388.66394 467.32842,390.89152 z "
       id="path1529"
       sodipodi:nodetypes="cccccccccccccc" />
    <path
       style="color:#000000;fill:#000000;fill-opacity:0.11801243;fill-rule:nonzero;stroke:none;stroke-width:3.9000001;stroke-linecap:butt;stroke-linejoin:miter;marker:none;marker-start:none;marker-mid:none;marker-end:none;stroke-miterlimit:4;stroke-dasharray:none;stroke-dashoffset:0;stroke-opacity:1;visibility:visible;display:inline;overflow:visible"
       id="path5363"
       d="M 446.85679,458.87789 C 442.81604,459.53934 438.78408,461.11485 435.02092,462.82714 C 420.3134,472.75642 421.84672,465.96774 413.98091,484.4834 C 408.1769,500.98052 418.3362,515.70142 431.5558,525.15507 C 449.53751,536.26339 471.86978,537.11019 491.64997,530.54715 C 502.80466,525.5256 511.75951,522.78051 509.02315,500.68871 C 505.82038,484.59358 494.9066,471.20869 481.1815,462.31374 C 469.93548,455.34868 456.77154,453.25689 443.68377,454.12752 L 450.20358,443.81708 C 463.99146,443.80476 477.72971,446.50882 489.36414,454.11673 C 503.81707,463.8913 515.0495,478.28635 519.12889,495.20825 C 522.97309,517.35465 508.05918,533.65623 486.72807,540.22635 C 465.68604,545.9638 442.54436,544.28919 423.7361,532.80957 C 409.16195,522.50814 397.85409,506.58898 402.74648,488.26504 C 408.41866,471.11377 424.35843,459.59776 440.09267,451.53618 C 444.66207,449.45404 449.53541,447.21204 454.62121,446.91796 L 446.85679,458.87789 z " />
    <g
       id="g3137">
      <path
         id="path1335"
         d="M 536.21875 294.84375 C 521.15692 295.21496 507.84434 304.22287 494.6875 310.8125 C 486.91277 315.84258 465.69722 326.19465 470.15625 307.90625 C 475.55999 286.65655 450.11672 297.50013 441 304.03125 C 417.682 318.72178 390.79729 328.11922 371.03125 348 C 363.74426 363.47788 346.74675 347.69769 355.1875 336.1875 C 370.51448 325.30107 360.55273 294.18869 340.59375 301.875 C 325.03534 312.92265 309.94214 324.90824 295.15625 337.0625 C 277.34765 348.291 276.82703 371.02303 271.46875 389.1875 C 259.53349 413.66134 253.21649 446.15502 271.4375 469.28125 C 270.18543 447.0201 279.10637 424.86173 294.28125 408.875 C 312.05057 401.39667 314.43618 425.09169 311.21875 437.03125 C 311.52573 449.84256 321.49857 466.91852 336.40625 461.875 C 348.04718 454.11472 358.89117 444.62161 369.5625 435.40625 C 381.42517 426.20102 387.40485 412.28809 397.1875 401.3125 C 410.08659 389.32229 424.49628 376.50921 441.8125 371.9375 C 455.89293 371.96979 463.39788 382.83382 466.84375 395.3125 C 466.84442 395.31256 466.84308 395.34369 466.84375 395.34375 C 485.52348 397.06231 504.3386 397.55033 523.03125 395.8125 C 525.44358 394.40272 527.88709 393.18183 530.375 392.15625 C 532.5102 371.77013 530.86204 351.06233 534.71875 330.875 C 536.17053 319.34632 552.68084 303.20061 537.6875 294.84375 C 537.19796 294.83738 536.70462 294.83178 536.21875 294.84375 z "
         style="opacity:1;color:#000000;fill:#ffffff;fill-opacity:1;fill-rule:nonzero;stroke:none;stroke-width:3.9000001;stroke-linecap:butt;stroke-linejoin:miter;marker:none;marker-start:none;marker-mid:none;marker-end:none;stroke-miterlimit:4;stroke-dasharray:none;stroke-dashoffset:0;stroke-opacity:1;visibility:visible;display:inline;overflow:visible" />
      <path
         id="path1315"
         d="M 446.09375 366.875 C 439.09938 367.18354 431.46943 371.31029 425.03125 376.25 C 403.43906 394.16377 385.67603 416.07562 365.8125 435.8125 C 353.3348 446.22838 339.96999 465.32224 329.625 463.34375 C 319.02837 453.19414 320.39289 431.54724 319.6875 417.90625 C 318.42478 398.03892 316.21258 389.37114 297.46875 405.15625 C 286.8457 417.91204 279.88546 433.2095 274.0625 448.625 C 269.63767 460.5729 266.11317 472.83227 263.28125 485.25 L 272.3125 481.625 C 274.60544 469.45115 277.87348 457.48134 282.21875 445.875 C 287.75136 431.44474 294.59169 416.60605 305.53125 405.4375 C 306.57889 405.12899 307.67201 405.2704 308.46875 406.53125 C 311.2995 411.01095 311.09237 416.88521 311.9375 421.90625 C 313.29173 437.49631 311.70123 459.5917 323.1875 471.46875 C 337.6233 476.71575 361.94012 443.23559 372.71875 434.5625 C 389.48544 417.64074 405.27033 399.64412 422.96875 383.6875 C 433.24572 375.93929 447.03911 368.72994 455.0625 383.28125 C 456.83016 386.92453 458.28347 390.69967 459.46875 394.5625 C 462.15573 394.85405 464.83786 395.16281 467.53125 395.40625 C 466.36698 389.52445 464.71295 383.77414 462.46875 378.21875 C 458.49493 369.58992 452.56222 366.58966 446.09375 366.875 z M 304.90625 405.65625 C 304.04504 406.36369 303.18375 407.08625 302.3125 407.78125 C 302.30556 407.78657 302.2875 407.80795 302.28125 407.8125 C 302.27568 407.8163 302.25489 407.84069 302.25 407.84375 C 302.24578 407.84609 302.22231 407.84212 302.21875 407.84375 C 302.21649 407.84401 302.18912 407.84415 302.1875 407.84375 C 302.18922 407.83795 302.21465 407.82062 302.21875 407.8125 C 302.22138 407.80788 302.21554 407.78641 302.21875 407.78125 C 302.43384 407.45733 303.58966 406.26642 304.90625 405.65625 z "
         style="opacity:1;color:#000000;fill:#000000;fill-opacity:1;fill-rule:nonzero;stroke:none;stroke-width:3.9000001;stroke-linecap:butt;stroke-linejoin:miter;marker:none;marker-start:none;marker-mid:none;marker-end:none;stroke-miterlimit:4;stroke-dasharray:none;stroke-dashoffset:0;stroke-opacity:1;visibility:visible;display:inline;overflow:visible" />
      <path
         id="path1333"
         d="M 544.59375 290.59375 C 535.25139 290.92418 526.24172 294.60733 517.3125 296.96875 C 505.62969 300.7695 494.26503 305.42926 483.09375 310.53125 C 480.99313 311.44158 474.86381 313.53833 473.375 314.625 C 475.29153 309.15836 478.0256 303.62152 477.125 297.6875 C 473.74431 285.48982 457.85263 294.28096 450.78125 297.53125 C 432.12856 306.52883 414.23184 317.01966 397.4375 329.15625 C 385.73494 337.43539 374.43101 346.31692 362.34375 354.03125 C 361.49007 354.52323 360.90131 354.992 360.53125 355.375 C 360.75189 354.82331 361.00882 353.99598 361.21875 352.78125 C 363.72653 344.03038 366.62737 335.35595 367.9375 326.3125 C 369.35073 316.31974 369.8832 303.8696 359.8125 298.15625 C 347.73763 293.04749 335.05714 301.88998 325.78125 308.875 C 309.87817 321.63182 295.02147 335.64445 281.90625 351.28125 C 277.39792 356.48812 273.05093 361.90886 267.78125 366.375 L 279.4375 364.28125 C 283.30307 359.25642 287.19489 354.26288 291.15625 349.3125 C 299.68176 337.30337 320.8213 318.9783 322.875 317.34375 C 331.02241 311.45537 342.25592 302.42314 353.09375 306.1875 C 361.59966 310.67518 360.15081 322.20272 358.875 330.15625 C 357.40379 339.25563 353.879 347.80302 351 356.5 C 348.44338 362.50117 351.9284 367.13381 358.21875 363.96875 C 370.81382 355.67142 382.39623 345.94881 394.5625 337.03125 C 411.00677 324.8033 428.5658 314.14982 447.21875 305.65625 C 450.70663 304.50414 466.38996 295.54993 467.625 303.1875 C 467.53167 308.87754 464.30123 313.80223 462.75 319.125 C 463.21151 328.35489 474.39573 321.97323 478.9375 319.875 C 490.0215 314.4217 501.34016 309.53215 513.0625 305.625 C 521.80684 303.00007 530.72272 300.20663 539.90625 299.8125 C 543.8013 299.70981 543.52122 301.3002 542.59375 304.46875 C 541.29538 308.34633 539.1738 311.84806 537.09375 315.34375 C 534.12951 320.30553 533.16844 326.23952 532.09375 331.84375 C 529.28668 346.31051 527.82339 360.96594 526.84375 375.65625 C 526.50674 381.79036 526.26185 387.94514 526.1875 394.09375 C 528.64457 392.84845 531.12959 391.80927 533.65625 390.9375 C 533.81587 384.63969 534.20032 378.33817 534.75 372.0625 C 536.04002 357.28215 537.93706 342.50199 541.5625 328.09375 C 543.02975 322.56584 544.72484 317.14889 547.90625 312.34375 C 549.98813 308.54405 552.03646 304.62912 553 300.375 C 553.72716 295.14856 551.65925 290.61824 545.71875 290.59375 C 545.33785 290.59581 544.97352 290.58032 544.59375 290.59375 z "
         style="opacity:1;color:#000000;fill:#030000;fill-opacity:1;fill-rule:nonzero;stroke:none;stroke-width:3.9000001;stroke-linecap:butt;stroke-linejoin:miter;marker:none;marker-start:none;marker-mid:none;marker-end:none;stroke-miterlimit:4;stroke-dasharray:none;stroke-dashoffset:0;stroke-opacity:1;visibility:visible;display:inline;overflow:visible" />
    </g>
  </g>
</svg>
