<?xml version="1.0" encoding="UTF-8" standalone="no"?>
<!-- Created with Inkscape (http://www.inkscape.org/) -->
<svg
   xmlns:dc="http://purl.org/dc/elements/1.1/"
   xmlns:cc="http://creativecommons.org/ns#"
   xmlns:rdf="http://www.w3.org/1999/02/22-rdf-syntax-ns#"
   xmlns:svg="http://www.w3.org/2000/svg"
   xmlns="http://www.w3.org/2000/svg"
   xmlns:xlink="http://www.w3.org/1999/xlink"
   xmlns:sodipodi="http://sodipodi.sourceforge.net/DTD/sodipodi-0.dtd"
   xmlns:inkscape="http://www.inkscape.org/namespaces/inkscape"
   width="400"
   height="400"
   id="svg3271"
   sodipodi:version="0.32"
   inkscape:version="0.46"
   version="1.0"
   sodipodi:docname="mug.svg"
   inkscape:output_extension="org.inkscape.output.svg.inkscape">
  <defs
     id="defs3273">
    <linearGradient
       inkscape:collect="always"
       id="linearGradient4849">
      <stop
         style="stop-color:#000000;stop-opacity:1;"
         offset="0"
         id="stop4851" />
      <stop
         style="stop-color:#000000;stop-opacity:0;"
         offset="1"
         id="stop4853" />
    </linearGradient>
    <inkscape:perspective
       sodipodi:type="inkscape:persp3d"
       inkscape:vp_x="0 : 526.18109 : 1"
       inkscape:vp_y="0 : 1000 : 0"
       inkscape:vp_z="744.09448 : 526.18109 : 1"
       inkscape:persp3d-origin="372.04724 : 350.78739 : 1"
       id="perspective3279" />
    <radialGradient
       inkscape:collect="always"
       xlink:href="#linearGradient4849"
       id="radialGradient4857"
       cx="2163.2959"
       cy="404.60443"
       fx="2163.2959"
       fy="404.60443"
       r="28.116682"
       gradientTransform="matrix(1.756112,6.3423722e-3,-2.7575118e-3,0.7635158,-3620.2926,-133.79998)"
       gradientUnits="userSpaceOnUse" />
    <radialGradient
       inkscape:collect="always"
       xlink:href="#linearGradient4849"
       id="radialGradient4872"
       gradientUnits="userSpaceOnUse"
       gradientTransform="matrix(1.756112,3.0676371e-3,-2.7575118e-3,0.3692923,-1635.4712,352.71799)"
       cx="2163.2959"
       cy="404.60443"
       fx="2163.2959"
       fy="404.60443"
       r="28.116682" />
    <radialGradient
       inkscape:collect="always"
       xlink:href="#linearGradient4849"
       id="radialGradient4891"
       gradientUnits="userSpaceOnUse"
       gradientTransform="matrix(1.756112,6.3423722e-3,-2.7575118e-3,0.7635158,-3620.2926,-133.79998)"
       cx="2163.2959"
       cy="404.60443"
       fx="2163.2959"
       fy="404.60443"
       r="28.116682" />
    <radialGradient
       inkscape:collect="always"
       xlink:href="#linearGradient4849"
       id="radialGradient4900"
       gradientUnits="userSpaceOnUse"
       gradientTransform="matrix(4.7519065,1.716198e-2,-7.4616187e-3,2.0660161,-10117.314,-718.59184)"
       cx="2163.2959"
       cy="404.60443"
       fx="2163.2959"
       fy="404.60443"
       r="28.116682" />
    <radialGradient
       inkscape:collect="always"
       xlink:href="#linearGradient4849"
       id="radialGradient4914"
       gradientUnits="userSpaceOnUse"
       gradientTransform="matrix(4.7519065,1.716198e-2,-7.4616187e-3,2.0660161,-10117.314,-718.59184)"
       cx="2163.2959"
       cy="404.60443"
       fx="2163.2959"
       fy="404.60443"
       r="28.116682" />
  </defs>
  <sodipodi:namedview
     id="base"
     pagecolor="#ffffff"
     bordercolor="#666666"
     borderopacity="1.0"
     gridtolerance="10000"
     guidetolerance="10"
     objecttolerance="10"
     inkscape:pageopacity="0.0"
     inkscape:pageshadow="2"
     inkscape:zoom="0.98994949"
     inkscape:cx="282.66944"
     inkscape:cy="255.8416"
     inkscape:document-units="px"
     inkscape:current-layer="layer1"
     showgrid="false"
     showguides="true"
     inkscape:guide-bbox="true"
     inkscape:window-width="1680"
     inkscape:window-height="975"
     inkscape:window-x="0"
     inkscape:window-y="49" />
  <metadata
     id="metadata3276">
    <rdf:RDF>
      <cc:Work
         rdf:about="">
        <dc:format>image/svg+xml</dc:format>
        <dc:type
           rdf:resource="http://purl.org/dc/dcmitype/StillImage" />
      </cc:Work>
    </rdf:RDF>
  </metadata>
  <g
     inkscape:label="Layer 1"
     inkscape:groupmode="layer"
     id="layer1">
    <flowRoot
       xml:space="preserve"
       id="flowRoot3512"
       style="fill:black;stroke:none;stroke-opacity:1;stroke-width:1px;stroke-linejoin:miter;stroke-linecap:butt;fill-opacity:1;font-family:Bitstream Vera Sans;font-style:normal;font-weight:normal;font-size:12px"><flowRegion
         id="flowRegion3514"><rect
           id="rect3516"
           width="18.687822"
           height="40.911179"
           x="614.17273"
           y="344.94669" /></flowRegion><flowPara
         id="flowPara3518"></flowPara></flowRoot>    <g
       id="g4906"
       transform="translate(13.571427,21.760685)">
      <path
         id="path3955"
         d="M 159.82968,90.675219 C 130.0683,91.118609 100.37835,97.982299 73.663027,111.22333 C 71.173306,113.84556 68.949577,116.64639 66.982641,119.67935 C 50.883743,147.21465 53.717116,180.31749 54.46774,210.91974 C 51.970442,235.40073 50.804189,263.59665 68.166483,283.30322 C 98.126477,302.96912 134.37045,310.8554 169.80777,311.79999 C 200.43153,316.06469 235.09794,305.86779 253.26877,279.58257 C 254.55598,276.33398 255.60858,273.08146 256.56648,269.7736 C 263.0358,270.90722 270.01871,270.30802 276.18443,268.84344 C 293.35785,263.17912 312.53799,260.56756 326.58228,248.21076 C 352.35918,220.88366 355.88176,175.37702 334.61535,144.37091 C 319.01191,127.92987 296.04078,120.54673 273.64763,121.11687 C 270.44868,121.19832 267.24135,121.38838 264.09247,121.79335 C 262.38719,122.39309 260.74551,123.20371 259.2724,124.2456 C 256.88091,118.33467 252.92945,112.95418 246.58838,108.34829 C 219.42604,96.171569 189.59106,90.231829 159.82968,90.675219 z M 297.07065,153.33428 C 303.82302,153.35766 310.52857,154.81053 316.7733,157.81597 C 325.3481,164.31298 329.12557,175.86736 327.5123,186.31274 C 328.29513,202.34826 326.18559,219.45885 316.43506,232.73626 C 304.43022,246.87179 281.05455,247.95137 266.96724,236.37234 C 265.19892,235.15054 263.6008,233.77379 262.06302,232.31346 C 262.71867,215.67724 261.75563,198.82488 261.72478,182.33841 C 261.34785,176.91477 261.52725,171.41892 261.80921,165.93375 C 271.94858,158.05401 284.57632,153.29104 297.07065,153.33428 z"
         style="fill:#c0b79f;fill-opacity:1;fill-rule:nonzero;stroke:none;stroke-width:1.05799997;stroke-linecap:butt;stroke-linejoin:miter;marker:none;marker-start:none;marker-mid:none;marker-end:none;stroke-miterlimit:4.0999999;stroke-dasharray:none;stroke-dashoffset:0;stroke-opacity:1;visibility:visible;display:inline;overflow:visible;enable-background:accumulate" />
      <path
         style="fill:#000000;fill-opacity:1;fill-rule:nonzero;stroke:none;stroke-width:1.05799997;stroke-linecap:butt;stroke-linejoin:miter;marker:none;marker-start:none;marker-mid:none;marker-end:none;stroke-miterlimit:4.0999999;stroke-dasharray:none;stroke-dashoffset:0;stroke-opacity:1;visibility:visible;display:inline;overflow:visible;enable-background:accumulate"
         id="path3939"
         d="M 262.81446,127.96952 C 262.42616,127.67749 262.05734,127.36071 261.68501,127.04837 C 261.08267,126.55489 260.50631,126.03142 259.92697,125.51156 C 259.20854,124.84415 258.48958,124.17722 257.77549,123.50523 C 256.96073,122.73085 256.12054,121.98388 255.27684,121.24161 C 254.3368,120.41217 253.36781,119.6173 252.39178,118.83093 C 251.32294,117.96785 250.22163,117.14603 249.11139,116.3374 C 247.88127,115.44585 246.62085,114.59716 245.33581,113.78712 C 243.93522,112.9068 242.49811,112.08937 241.04367,111.3024 C 239.50265,110.45596 237.92509,109.68101 236.33834,108.92538 C 234.65688,108.11866 232.93889,107.39099 231.20764,106.69903 C 229.39467,105.97024 227.54923,105.32685 225.70757,104.67516 C 223.8505,104.02833 221.97908,103.42167 220.09982,102.84208 C 218.19836,102.27043 216.28311,101.74478 214.36272,101.23999 C 212.43177,100.74637 210.49324,100.28258 208.55147,99.833769 C 206.62458,99.389839 204.68606,98.998369 202.74456,98.625519 C 200.78763,98.250129 198.82124,97.928499 196.85214,97.624329 C 194.78535,97.312229 192.71207,97.045509 190.63988,96.771559 C 188.52033,96.491439 186.39617,96.246749 184.27094,96.012359 C 182.15897,95.779379 180.04375,95.579379 177.92798,95.385479 C 175.84632,95.214249 173.76221,95.076109 171.67784,94.943109 C 169.60375,94.832299 167.52885,94.745009 165.45367,94.661889 C 163.38743,94.584039 161.31983,94.533919 159.25223,94.513169 C 157.20385,94.486409 155.15519,94.511569 153.10708,94.531189 C 151.10172,94.564609 149.0969,94.619159 147.09316,94.710289 C 145.10133,94.800809 143.11166,94.928609 141.12254,95.066799 C 139.19105,95.193569 137.262,95.353789 135.3324,95.506539 C 133.49616,95.659719 131.66344,95.852139 129.82991,96.031899 C 128.04914,96.221119 126.2681,96.404849 124.48841,96.604789 C 122.7209,96.796449 120.95637,97.013059 119.19427,97.250939 C 117.40782,97.504129 115.6238,97.774919 113.84601,98.083959 C 112.08364,98.381399 110.33237,98.741359 108.5792,99.088259 C 106.8585,99.436619 105.15187,99.850229 103.44362,100.25576 C 101.80816,100.66344 100.17676,101.08854 98.551577,101.53696 C 97.007577,101.98241 95.460597,102.41698 93.929857,102.90697 C 92.484087,103.35283 91.049677,103.835 89.628257,104.35288 C 88.258247,104.81938 86.922598,105.37621 85.583166,105.92181 C 84.297852,106.44529 83.04122,107.03448 81.787295,107.62767 C 80.604265,108.19438 79.442882,108.80405 78.293676,109.43642 C 77.212118,110.02964 76.168172,110.68556 75.119085,111.33311 C 74.149823,111.9413 73.198149,112.57665 72.262711,113.23541 C 69.795449,115.03317 66.375972,117.49402 78.01713,109.06025 C 78.160544,108.95636 77.734091,109.27331 77.592841,109.3799 C 77.05328,109.7866 77.29519,109.60216 76.760499,110.01563 C 75.958463,110.63642 75.184569,111.29171 74.41338,111.95023 C 73.688463,112.5767 72.984922,113.22718 72.295724,113.89238 C 71.620054,114.54781 70.983891,115.24152 70.349623,115.93662 C 69.731048,116.61976 69.15631,117.34021 68.590772,118.06708 C 68.02361,118.79659 67.50299,119.55985 66.976688,120.31889 C 66.459044,121.06473 65.971437,121.83096 65.499253,122.60618 C 65.031128,123.38138 64.615498,124.18653 64.201492,124.99156 C 63.783156,125.79888 63.422456,126.63355 63.05878,127.46635 C 62.690503,128.30032 62.36011,129.14989 62.046764,130.00581 C 61.735312,130.86185 61.463637,131.7314 61.205492,132.60468 C 60.947888,133.48159 60.723837,134.36773 60.510611,135.25635 C 60.30496,136.15902 60.102016,137.06234 59.900695,137.96596 C 59.69721,138.87418 59.519972,139.78783 59.348416,140.70246 C 59.175237,141.65422 59.02614,142.61014 58.888138,143.56755 C 58.743371,144.56379 58.624581,145.56344 58.507956,146.56325 C 58.386189,147.61983 58.28607,148.67863 58.19001,149.73779 C 58.093138,150.87084 58.042266,152.00727 57.990583,153.14311 C 57.935653,154.34113 57.891005,155.53961 57.846357,156.73804 C 57.801439,158.00192 57.763556,159.26605 57.726485,160.5302 C 57.693202,161.84915 57.698073,163.16867 57.694555,164.48794 C 57.694284,165.79626 57.688331,167.1046 57.706461,168.41283 C 57.730273,169.73232 57.749485,171.05181 57.789803,172.37095 C 57.826063,173.7569 57.894793,175.14152 57.965959,176.52601 C 58.045243,177.92297 58.137785,179.31909 58.243587,180.71426 C 58.356424,182.11585 58.459249,183.51817 58.56018,184.92065 C 58.654888,186.30146 58.746889,187.68248 58.829149,189.0641 C 58.910868,190.43383 58.982304,191.80417 59.048058,193.17477 C 59.108671,194.56589 59.201214,195.95527 59.274815,197.34571 C 59.335969,198.76421 59.392252,200.18301 59.397934,201.60292 C 59.39144,203.03952 59.370875,204.47601 59.353828,205.91253 C 59.335428,207.4153 59.318921,208.91809 59.303768,210.42088 C 59.285909,212.01756 59.271568,213.61427 59.25885,215.21101 C 59.24505,216.86628 59.241532,218.52155 59.212579,220.17663 C 59.179566,221.82908 59.14466,223.48153 59.114083,225.13404 C 59.087024,226.71777 59.059153,228.30149 59.034799,229.88527 C 59.005575,231.37626 59.01667,232.8676 59.024246,234.35873 C 59.02587,235.7956 59.0854,237.23126 59.145201,238.66659 C 59.210143,240.06 59.296192,241.45231 59.376287,242.84491 C 59.458547,244.1949 59.554066,245.54415 59.656621,246.89273 C 59.757822,248.18046 59.876342,249.46658 60.005144,250.75179 C 60.123934,251.98255 60.266266,253.21096 60.423209,254.43742 C 60.563376,255.62215 60.758744,256.79893 60.969806,257.97276 C 61.174374,259.11945 61.427648,260.2561 61.699594,261.3884 C 61.973433,262.5063 62.313027,263.60671 62.668585,264.70086 C 63.023061,265.78076 63.431656,266.84132 63.847827,267.89864 C 64.262375,268.92264 64.709664,269.93273 65.113388,270.96126 C 65.4703,271.89461 65.850482,272.81901 66.252582,273.73375 C 66.657389,274.6527 67.129572,275.53908 67.631792,276.4079 C 68.169189,277.3399 68.782892,278.22404 69.420138,279.08993 C 70.107984,280.03298 70.87809,280.91053 71.660102,281.77546 C 72.484056,282.70775 73.388646,283.56223 74.308661,284.39785 C 75.346383,285.32739 76.468259,286.15589 77.603665,286.9606 C 78.890873,287.86563 80.263589,288.63216 81.64361,289.38343 C 83.092092,290.16623 84.573315,290.88487 86.066173,291.57869 C 87.610987,292.31157 89.179337,292.99184 90.761767,293.63885 C 92.433487,294.33522 94.141467,294.93875 95.852417,295.52999 C 97.656997,296.14113 99.473217,296.71695 101.29864,297.26246 C 103.20415,297.83604 105.12265,298.36459 107.04548,298.87606 C 108.99185,299.40915 110.95148,299.89249 112.91355,300.36432 C 114.95463,300.84714 117.00653,301.28317 119.05708,301.7231 C 121.15092,302.16327 123.24937,302.58104 125.35025,302.98568 C 127.4311,303.40718 129.5217,303.77754 131.60959,304.16357 C 133.64039,304.54048 135.67714,304.88435 137.71632,305.21312 C 139.68028,305.54825 141.64749,305.86192 143.61713,306.15943 C 145.55728,306.45119 147.5023,306.70703 149.44867,306.95086 C 151.44943,307.19997 153.45452,307.41052 155.46042,307.60959 C 157.60406,307.82093 159.75094,307.9963 161.89863,308.15881 C 164.14373,308.32829 166.39046,308.47165 168.638,308.6074 C 170.89069,308.75455 173.14607,308.8528 175.402,308.93937 C 177.61734,309.03413 179.83404,309.08302 182.05127,309.12467 C 184.21168,309.16201 186.37182,309.1303 188.53196,309.08289 C 190.59252,309.02106 192.65227,308.92419 194.71013,308.79985 C 196.63485,308.69648 198.55335,308.5069 200.4705,308.31073 C 202.26453,308.11368 204.05396,307.87345 205.83797,307.59966 C 207.51943,307.36081 209.18709,307.04 210.84637,306.68035 C 212.47696,306.32471 214.08915,305.89258 215.69268,305.43073 C 217.25589,304.98547 218.79773,304.47678 220.32576,303.92415 C 221.82593,303.38665 223.29687,302.77397 224.76456,302.15393 C 226.20195,301.52197 227.63663,300.88456 229.05643,300.21406 C 230.42779,299.56079 231.7794,298.86675 233.1099,298.13401 C 234.39982,297.43164 235.64346,296.64952 236.88223,295.86179 C 238.08718,295.09025 239.26128,294.27031 240.41184,293.41981 C 228.19946,302.30752 233.9344,298.21589 236.62111,296.05925 C 237.63556,295.24471 238.62376,294.39832 239.58572,293.52255 C 240.51629,292.66531 241.40789,291.76776 242.28921,290.86057 C 243.13806,289.98125 243.96093,289.07758 244.76324,288.1557 C 245.53605,287.27219 246.27477,286.36064 247.00915,285.44518 C 247.71134,284.56502 248.38674,283.66479 249.04834,282.75397 C 249.68856,281.86743 250.29388,280.95675 250.89243,280.04174 C 251.46987,279.15877 252.0392,278.27126 252.58119,277.36604 C 253.12779,276.47155 253.62162,275.54634 254.08569,274.60676 C 254.55084,273.65235 254.99082,272.68644 255.39995,271.70682 C 255.82073,270.70471 256.17277,269.67643 256.51101,268.64428 C 256.846,267.59895 257.13824,266.54069 257.41912,265.47976 C 257.69214,264.43727 257.93892,263.38813 258.16974,262.33553 C 258.40651,261.26103 258.59755,260.17739 258.80671,259.09743 C 259.02238,257.9952 259.21531,256.8888 259.39688,255.78045 C 259.58088,254.65768 259.73999,253.53102 259.89044,252.40335 C 260.05604,251.24708 260.16319,250.08429 260.26304,248.92096 C 260.361,247.72551 260.44461,246.52895 260.52552,245.33225 C 260.61373,244.08071 260.65324,242.82654 260.69112,241.57267 C 260.72711,240.32088 260.75687,239.06893 260.78583,237.81698 C 260.81722,236.58944 260.8413,235.36176 260.86484,234.13406 C 260.88757,232.94797 260.90786,231.76185 260.92735,230.57574 C 260.94629,229.42799 260.96307,228.28022 260.97903,227.13245 C 260.99527,226.01371 261.0069,224.89489 261.02314,223.77616 C 261.03667,222.65 261.05074,221.52385 261.0621,220.3977 C 261.07428,219.24741 261.08537,218.09712 261.09755,216.94683 C 261.11541,215.75707 261.09376,214.56727 261.07563,213.37764 C 261.06048,212.17304 261.03829,210.96874 260.99905,209.76472 C 260.96009,208.54562 260.91436,207.32695 260.8532,206.10877 C 260.78583,204.87544 260.69058,203.64391 260.58505,202.41334 C 260.48033,201.14556 260.35531,199.87954 260.23165,198.61349 C 260.09825,197.3061 259.95808,195.99952 259.80736,194.69404 C 259.65583,193.37623 259.52027,192.05671 259.38795,190.73684 C 259.26429,189.4488 259.12168,188.16267 258.98585,186.8759 C 258.85407,185.62995 258.73392,184.38282 258.61892,183.13525 C 258.50879,181.93758 258.40975,180.73894 258.31478,179.54 C 258.22359,178.35984 258.14133,177.17894 258.06718,175.99759 C 257.99088,174.8095 257.92404,173.62084 257.86397,172.43183 C 257.79984,171.21839 257.74843,170.00435 257.69728,168.79031 C 257.64777,167.53636 257.59987,166.28232 257.56551,165.02783 C 257.54359,163.74379 257.53412,162.45953 257.52654,161.1753 C 257.51653,159.90045 257.50841,158.62561 257.50083,157.35074 C 257.49759,156.10326 257.5214,154.85585 257.54061,153.60853 C 257.55901,152.41248 257.57606,151.21641 257.59257,150.02031 C 257.60826,148.86448 257.62233,147.70861 257.63586,146.55275 C 257.64371,145.426 257.66103,144.29958 257.69566,143.17335 C 257.73219,142.07802 257.76845,140.98269 257.80255,139.8873 C 257.83583,138.81513 257.86532,137.74286 257.89346,136.67055 C 257.92458,135.6121 257.98168,134.5546 258.03174,133.49691 C 258.08098,132.45927 258.12482,131.42138 258.16676,130.38342 C 258.21006,129.36104 258.23685,128.33804 258.28799,127.31604 C 258.32452,126.65498 258.36375,125.99408 258.40191,125.33313 L 266.0778,120.73977 C 266.04046,121.40097 266.00258,122.06213 265.96118,122.72311 C 265.89813,123.74094 265.85727,124.75932 265.82372,125.77861 C 265.78232,126.81955 265.73902,127.86044 265.69004,128.90106 C 265.64026,129.95282 265.58695,131.00437 265.53608,132.05606 C 265.50739,133.13085 265.47763,134.20562 265.44381,135.28027 C 265.40917,136.37734 265.37264,137.47437 265.33286,138.57127 C 265.29309,139.69191 265.25683,140.81237 265.25439,141.93387 C 265.23897,143.09198 265.223,144.25009 265.20487,145.40817 C 265.1862,146.60673 265.16645,147.80532 265.1448,149.00386 C 265.12261,150.24577 265.09745,151.48768 265.08256,152.7297 C 265.08933,154.00487 265.09636,155.28003 265.10367,156.5552 C 265.11395,157.83356 265.12018,159.11197 265.13885,160.39023 C 265.1586,161.6369 265.21894,162.88249 265.2663,164.12835 C 265.31636,165.33817 265.37129,166.5478 265.4319,167.75713 C 265.49414,168.94146 265.558,170.12571 265.63106,171.30939 C 265.70601,172.48595 265.78178,173.66249 265.87107,174.83805 C 265.96064,176.03472 266.05399,177.23112 266.1579,178.42662 C 266.26668,179.67202 266.38006,180.91702 266.50561,182.16085 C 266.63658,183.45122 266.78243,184.74003 266.90528,186.03116 C 267.03056,187.34608 267.16207,188.66043 267.31333,189.97264 C 267.46243,191.28147 267.61423,192.58986 267.74817,193.90031 C 267.88726,195.16904 268.00659,196.44015 268.12213,197.71118 C 268.22874,198.9529 268.34104,200.19413 268.41491,201.43842 C 268.47877,202.66164 268.54344,203.88469 268.57375,205.10936 C 268.61677,206.31886 268.65926,207.52816 268.66494,208.73858 C 268.68415,209.93473 268.71419,211.13105 268.70715,212.32733 C 268.70093,213.47662 268.69254,214.62588 268.68144,215.77514 C 268.67008,216.90156 268.66034,218.02799 268.64627,219.15438 C 268.63463,220.27461 268.61704,221.39475 268.60054,222.5149 C 268.58268,223.665 268.56401,224.81507 268.54317,225.96511 C 268.52152,227.15396 268.49879,228.34281 268.47363,229.53158 C 268.44765,230.76136 268.41978,231.9911 268.39272,233.22086 C 268.36106,234.47627 268.32805,235.73163 268.29233,236.98694 C 268.25688,238.24952 268.23226,239.51303 268.15704,240.77396 C 268.08614,241.97518 268.00713,243.17593 267.91323,244.37557 C 267.82312,245.55289 267.73112,246.73065 267.57716,247.90166 C 267.43266,249.03842 267.27923,250.17399 267.10524,251.30669 C 266.92801,252.42364 266.74644,253.54005 266.53429,254.651 C 266.33027,255.73688 266.12949,256.82348 265.91545,257.90744 C 265.69437,258.97531 265.45923,260.04017 265.18891,261.09681 C 264.91426,262.17463 264.62689,263.24937 264.30623,264.31456 C 263.98721,265.37222 263.64274,266.42266 263.24849,267.45503 C 262.85369,268.45487 262.44321,269.44859 261.96832,270.41374 C 261.52292,271.38403 261.04993,272.34122 260.51713,273.26708 C 259.97405,274.1826 259.44315,275.10641 258.83729,275.98291 C 258.24686,276.91575 257.64235,277.83963 257.0135,278.74726 C 256.3611,279.67788 255.69869,280.60257 254.98595,281.48825 C 254.26942,282.43159 253.5215,283.35076 252.75518,284.25406 C 251.95504,285.19131 251.14976,286.12453 250.29793,287.01583 C 249.42581,287.94623 248.53448,288.85897 247.61339,289.74129 C 246.66794,290.64989 245.69164,291.52528 244.67448,292.35378 C 241.39598,295.05789 237.92699,297.51471 234.45231,299.9627 C 233.28173,300.78541 232.09978,301.59311 230.87995,302.34192 C 229.62684,303.11684 228.36182,303.8732 227.05567,304.55644 C 225.70703,305.26218 224.34758,305.9471 222.9635,306.58096 C 221.53396,307.23434 220.09684,307.87185 218.64782,308.48109 C 217.16795,309.09295 215.67807,309.6806 214.16437,310.20414 C 212.62091,310.73507 211.05959,311.20999 209.48745,311.648 C 207.86552,312.09036 206.23601,312.50691 204.58783,312.84096 C 202.9153,313.17527 201.23492,313.46976 199.54426,313.69838 C 197.75294,313.94598 195.95945,314.18207 194.15893,314.35251 C 192.23854,314.53281 190.31598,314.69208 188.38936,314.78365 C 186.32934,314.8868 184.26851,314.97869 182.20605,315.01563 C 180.03806,315.05137 177.86981,315.06428 175.70209,315.01779 C 173.48431,314.96803 171.26762,314.89784 169.05147,314.8047 C 166.79013,314.71235 164.53014,314.59862 162.27178,314.45388 C 160.01828,314.31322 157.76533,314.16862 155.51373,314.00026 C 153.35169,313.83544 151.18993,313.66821 149.03196,313.45618 C 147.01334,313.25699 144.99607,313.04409 142.9834,312.78998 C 141.02946,312.5426 139.07794,312.27634 137.1313,311.97655 C 135.16247,311.67116 133.19689,311.34472 131.23239,311.01167 C 129.1932,310.66978 127.15618,310.31503 125.12403,309.9339 C 123.0356,309.54885 120.94879,309.15757 118.86658,308.74145 C 116.75975,308.33205 114.65508,307.91147 112.55609,307.4652 C 110.49364,307.02647 108.43118,306.58589 106.37982,306.09668 C 104.40747,305.6225 102.43891,305.13308 100.48307,304.59441 C 98.550767,304.07184 96.621177,303.53831 94.703757,302.96371 C 92.863727,302.40618 91.028297,301.83304 89.209107,301.20968 C 87.479477,300.60566 85.753098,299.99012 84.061354,299.28511 C 82.462423,298.62698 80.878104,297.93551 79.314892,297.196 C 77.804445,296.48532 76.30428,295.75272 74.839293,294.95204 C 73.4222,294.17581 72.018907,293.37316 70.692734,292.44676 C 69.513492,291.61907 68.351568,290.76321 67.276234,289.80215 C 66.324289,288.94353 65.39264,288.0621 64.540003,287.10326 C 63.729849,286.21233 62.937284,285.30341 62.218049,284.33664 C 61.549144,283.44182 60.905134,282.5273 60.337702,281.56382 C 59.8068,280.66321 59.305662,279.74525 58.878938,278.78974 C 58.460332,277.85939 58.068243,276.91743 57.709708,275.96224 C 57.325737,274.92868 56.905507,273.91106 56.470665,272.89786 C 56.042859,271.82095 55.629664,270.73837 55.259764,269.63993 C 54.886617,268.52081 54.537012,267.39303 54.241525,266.25075 C 53.95605,265.09852 53.693034,263.94098 53.477642,262.77343 C 53.261709,261.58122 53.046588,260.38794 52.906151,259.18394 C 52.747043,257.94595 52.597134,256.70661 52.479968,255.46383 C 52.353601,254.16918 52.228587,252.87459 52.131445,251.57728 C 52.022125,250.21983 51.944465,248.86002 51.845699,247.50173 C 51.771286,246.10185 51.691461,244.70226 51.615425,243.30246 C 51.559142,241.85341 51.492305,240.40455 51.478505,238.95428 C 51.476882,237.45244 51.467411,235.9503 51.497176,234.44867 C 51.527212,232.8607 51.556436,231.27273 51.591883,229.68487 C 51.626519,228.03187 51.661155,226.3789 51.69552,224.72593 C 51.72745,223.07594 51.740439,221.4259 51.742874,219.77558 C 51.750992,218.18222 51.758568,216.58884 51.767227,214.99546 C 51.776969,213.49518 51.787522,211.99491 51.80051,210.49464 C 51.813499,209.06345 51.828381,207.63226 51.839475,206.20104 C 51.847864,204.79699 51.812957,203.39462 51.744768,201.992 C 51.685508,200.60178 51.575648,199.21442 51.513953,197.82434 C 51.447387,196.45774 51.378657,195.09127 51.299373,193.72535 C 51.218466,192.34622 51.138641,190.96698 51.043122,189.58877 C 50.947873,188.18822 50.845589,186.78817 50.733023,185.38891 C 50.620998,183.98529 50.526561,182.58054 50.438348,181.17524 C 50.367994,179.78727 50.285463,178.39983 50.240545,177.01072 C 50.190756,175.68747 50.158826,174.36386 50.13799,173.03983 C 50.114178,171.7248 50.112825,170.40999 50.120672,169.09475 C 50.120943,167.76869 50.123378,166.44259 50.130955,165.11653 C 50.160179,163.8527 50.193462,162.5889 50.232968,161.32534 C 50.268957,160.12618 50.310628,158.92721 50.358252,157.72843 C 50.405877,156.58204 50.45296,155.43557 50.518984,154.29004 C 50.60395,153.22532 50.696764,152.16116 50.807977,151.09884 C 50.913238,150.09075 51.030404,149.08382 51.162994,148.07897 C 51.294232,147.11136 51.429528,146.14426 51.594048,145.18166 C 51.749368,144.25334 51.924983,143.32848 52.119539,142.40752 C 52.313824,141.49876 52.527863,140.59452 52.719983,139.6853 C 52.92401,138.78023 53.13859,137.87739 53.3851,136.98276 C 53.632962,136.08945 53.893272,135.19945 54.191736,134.32154 C 54.492364,133.4436 54.807875,132.57062 55.167763,131.71489 C 55.526568,130.86575 55.884291,130.01544 56.278003,129.18174 C 56.679292,128.35392 57.100063,127.53511 57.538694,126.72652 C 57.993018,125.92395 58.476567,125.13925 58.980951,124.36715 C 59.502654,123.59377 60.029768,122.82398 60.572035,122.06492 C 61.124585,121.31224 61.692829,120.57157 62.292732,119.85591 C 62.909413,119.13151 63.554234,118.43065 64.211503,117.74307 C 64.885008,117.04551 65.583948,116.37479 66.304807,115.72626 C 67.067877,115.04391 67.846642,114.37977 68.639208,113.73202 C 71.749668,111.23594 75.004625,108.9223 78.288534,106.66047 C 79.238314,106.0272 80.194317,105.40376 81.171968,104.81416 C 82.224031,104.17134 83.293142,103.55691 84.380924,102.97681 C 85.543118,102.36457 86.717219,101.7753 87.911077,101.22724 C 89.175007,100.64831 90.444897,100.08247 91.738877,99.573379 C 93.083987,99.033089 94.439657,98.521179 95.810477,98.048999 C 97.241367,97.555279 98.682007,97.091179 100.13022,96.651119 C 101.6707,96.190789 103.21578,95.745739 104.76736,95.324269 C 106.39768,94.892889 108.02989,94.466649 109.67212,94.082789 C 111.38524,93.682119 113.09999,93.287029 114.82772,92.953309 C 116.58522,92.605269 118.34434,92.264819 120.11266,91.975739 C 121.90209,91.682259 123.6953,91.412229 125.49231,91.169779 C 127.26144,90.941619 129.0322,90.726199 130.8062,90.538079 C 132.58724,90.344989 134.36936,90.160819 136.15203,89.981689 C 137.98583,89.805559 139.81937,89.621749 141.65669,89.485099 C 143.58277,89.339519 145.50884,89.191049 147.43654,89.070009 C 149.43216,88.938339 151.42859,88.818059 153.42692,88.735609 C 155.43661,88.659959 157.44684,88.609219 159.45788,88.591329 C 161.51087,88.575579 163.56412,88.559589 165.61711,88.594849 C 167.69012,88.630789 169.7634,88.680409 171.83505,88.769819 C 173.91645,88.856029 175.99812,88.940609 178.07735,89.071499 C 180.16849,89.209769 182.25963,89.349989 184.34698,89.539619 C 186.46545,89.742219 188.5831,89.952389 190.69805,90.186609 C 192.82816,90.428629 194.95664,90.682849 197.08214,90.962259 C 199.16597,91.236999 201.2517,91.499199 203.32958,91.818119 C 205.31167,92.127459 207.29105,92.456689 209.25988,92.843039 C 211.21004,93.227009 213.15641,93.630359 215.09142,94.085419 C 217.03996,94.543799 218.98714,95.009159 220.92296,95.518989 C 222.85499,96.035169 224.78458,96.562339 226.69551,97.153149 C 228.58505,97.743149 230.46703,98.358669 232.33303,99.019319 C 234.19011,99.676749 236.04718,100.33634 237.87612,101.06987 C 239.62658,101.77955 241.36514,102.51951 243.0696,103.335 C 244.67584,104.09947 246.2699,104.88947 247.8323,105.7411 C 249.31027,106.54141 250.76471,107.38344 252.19316,108.26928 C 253.49904,109.0968 254.78896,109.94976 256.04342,110.85395 C 257.17342,111.67073 258.29448,112.50064 259.38281,113.37265 C 260.37534,114.16695 261.36219,114.9682 262.31955,115.80503 C 263.17759,116.55176 264.03727,117.29716 264.86961,118.07271 C 265.58614,118.7296 266.3005,119.38906 267.03056,120.03085 C 267.61017,120.52933 268.19492,121.02189 268.80321,121.48539 C 269.17473,121.76605 269.54463,122.04995 269.94295,122.29243 L 262.81446,127.96952 z" />
      <path
         id="path3953"
         d="M 162.60839,105.88398 C 143.21801,105.01023 122.92466,105.17803 104.96246,113.48554 C 96.609537,115.62574 88.275827,120.00758 83.664936,127.56503 C 81.674187,136.45448 89.912377,144.91104 98.535617,145.37335 C 125.06531,154.38283 153.38065,149.91259 180.79004,151.09551 C 195.04404,151.21595 209.63844,149.11101 222.46588,142.60067 C 233.40918,143.14664 240.24407,126.90335 231.63571,119.79324 C 220.42209,111.45575 205.70403,113.95061 192.81138,111.01062 C 182.6712,109.79718 172.49557,108.52293 162.60839,105.88398 z"
         style="fill:url(#radialGradient4914);fill-opacity:1;fill-rule:nonzero;stroke:none;stroke-width:1.05799997;stroke-linecap:butt;stroke-linejoin:miter;marker:none;marker-start:none;marker-mid:none;marker-end:none;stroke-miterlimit:4.0999999;stroke-dasharray:none;stroke-dashoffset:0;stroke-opacity:1;visibility:visible;display:inline;overflow:visible;enable-background:accumulate" />
      <path
         d="M 186.04711,112.22469 C 185.56924,112.23751 185.09922,112.11185 184.62704,112.04607 C 183.44753,111.90276 182.26802,111.76501 181.08823,111.62681 C 179.28284,111.41854 177.47285,111.26679 175.66529,111.08024 C 173.31276,110.84131 170.95644,110.63677 168.60012,110.4407 C 165.8831,110.23789 163.16338,110.07494 160.44149,109.95704 C 157.47958,109.83189 154.51632,109.79737 151.55198,109.81577 C 148.48076,109.81076 145.41062,109.91613 142.34291,110.05935 C 139.29225,110.21032 136.24619,110.44319 133.20744,110.74817 C 130.25338,111.05822 127.3069,111.43894 124.37233,111.89925 C 121.56709,112.35322 118.76863,112.85005 115.98829,113.43773 C 113.36192,113.95239 110.7645,114.59703 108.17601,115.27505 C 105.80075,115.89877 103.4604,116.64381 101.13953,117.44377 C 99.038377,118.19813 96.968077,119.03428 94.934297,119.95367 C 93.132697,120.76678 91.406317,121.73212 89.733517,122.78218 C 87.731937,124.14188 83.988835,126.59266 93.193847,120.53658 C 93.424397,120.38484 92.729517,120.83556 92.499777,120.98866 C 91.849007,121.42229 91.841427,121.43774 91.215547,121.89347 C 90.100167,122.72957 89.107357,123.70349 88.177067,124.73783 C 87.430767,125.59734 86.840338,126.57659 86.406037,127.62613 C 86.040196,128.54098 85.922759,129.47858 86.031808,130.45171 C 86.239352,131.62747 86.938022,132.58114 87.669977,133.48874 C 88.785087,134.78463 90.160777,135.79887 91.560287,136.76272 C 93.439277,138.00522 95.472777,138.98506 97.526847,139.89964 C 100.09802,141.02057 102.76146,141.90643 105.436,142.743 C 108.60436,143.73104 111.83307,144.49717 115.0699,145.22081 C 118.74563,146.02534 122.45951,146.63276 126.18042,147.18304 C 130.29316,147.76971 134.42321,148.22139 138.5603,148.59104 C 143.05376,148.99225 147.56048,149.18854 152.068,149.33671 C 156.80175,149.483 161.53901,149.48153 166.27411,149.40753 C 170.95292,149.33046 175.62822,149.13694 180.29973,148.87181 C 184.71092,148.60939 189.11265,148.20664 193.50545,147.72731 C 197.48154,147.28776 201.44301,146.73545 205.39609,146.12613 C 208.78878,145.61444 212.15062,144.93258 215.49325,144.16488 C 218.30335,143.53424 221.0588,142.69702 223.78366,141.77027 C 225.96788,141.01278 228.07201,140.05886 230.10308,138.95925 C 230.80932,138.54005 231.08993,138.3876 231.76614,137.93251 C 232.01996,137.76172 232.77328,137.23853 232.51595,137.40359 C 223.37128,143.26394 226.94472,141.09633 228.8984,139.74862 C 229.99755,138.9832 230.96086,138.04973 231.83108,137.03674 C 232.49268,136.28098 232.9535,135.41343 233.30148,134.47883 C 233.56233,133.6959 233.58127,132.89216 233.44192,132.08663 C 233.23546,131.16188 232.75164,130.35038 232.23264,129.57134 C 231.56969,128.62194 230.72274,127.83059 229.85657,127.07101 C 228.80965,126.15027 227.66775,125.3485 226.50501,124.58286 C 225.17586,123.70717 223.77906,122.94096 222.36224,122.21802 C 220.78766,121.4283 219.16898,120.73179 217.53162,120.08383 C 215.72704,119.37109 213.8954,118.73395 212.05104,118.1328 C 210.10332,117.50157 208.14152,116.91828 206.17026,116.36565 C 204.19548,115.81683 202.20662,115.3211 200.21371,114.84262 C 198.27058,114.37563 196.31636,113.9538 194.35971,113.54686 C 192.43039,113.14817 190.49403,112.78736 188.55523,112.43751 C 186.67516,112.10095 184.79075,111.79039 182.90472,111.48805 C 181.1548,111.21135 179.39622,110.98957 177.63926,110.76105 C 177.35812,110.72501 177.07751,110.68897 176.79691,110.65295 L 181.85482,103.40738 C 182.13678,103.44632 182.41901,103.48528 182.70096,103.52425 C 184.48417,103.7749 186.26629,104.03193 188.03975,104.34376 C 189.94148,104.66701 191.84212,104.99741 193.73789,105.35313 C 195.70347,105.72503 197.66689,106.10987 199.62273,106.53118 C 201.60888,106.96497 203.59287,107.41077 205.5644,107.90822 C 207.59412,108.41767 209.61896,108.94652 211.62973,109.52783 C 213.6451,110.11558 215.65425,110.72685 217.64717,111.38756 C 219.5589,112.03652 221.4609,112.71706 223.33177,113.47702 C 225.07222,114.19698 226.79806,114.95681 228.46491,115.83561 C 229.99295,116.65104 231.50285,117.50357 232.93726,118.47624 C 234.23638,119.36373 235.51276,120.28805 236.68091,121.34501 C 237.77302,122.34133 238.8286,123.38522 239.6742,124.60546 C 240.4527,125.75937 241.15353,126.96559 241.57728,128.30026 C 241.96612,129.63563 242.18882,131.00326 242.02241,132.39749 C 241.83813,133.8319 241.45064,135.23308 240.73357,136.49948 C 239.90367,137.90986 238.91276,139.20259 237.72053,140.32999 C 234.58788,143.16629 230.91756,145.39429 227.08706,147.16034 C 224.87361,148.12208 222.61551,148.97761 220.29627,149.65122 C 217.47318,150.4765 214.62411,151.20929 211.7377,151.78346 C 208.33527,152.46614 204.91579,153.05836 201.47548,153.51821 C 197.49236,154.06283 193.5022,154.55533 189.50041,154.94461 C 185.06486,155.36278 180.62335,155.72362 176.17265,155.93936 C 171.46597,156.15784 166.75684,156.31673 162.04556,156.36684 C 157.2577,156.40418 152.46875,156.39466 147.68332,156.23344 C 143.10625,156.07005 138.53108,155.84517 133.96916,155.43129 C 129.75793,155.04037 125.55157,154.59457 121.36686,153.97659 C 117.55583,153.40188 113.75265,152.76864 109.98953,151.92953 C 106.64473,151.17907 103.3113,150.36994 100.03876,149.34394 C 97.221617,148.45082 94.418547,147.49912 91.717767,146.29109 C 89.456157,145.25864 87.218087,144.15416 85.165642,142.73975 C 83.477145,141.54941 81.841413,140.27222 80.503063,138.68379 C 79.379293,137.29245 78.359971,135.8108 77.869116,134.06688 C 77.479463,132.53812 77.312237,130.97815 77.654536,129.41846 C 77.9806,127.91756 78.475784,126.48294 79.284315,125.1658 C 80.15454,123.78267 81.183333,122.51213 82.381786,121.3971 C 85.372374,118.58007 88.933637,116.44163 92.513037,114.44693 C 94.343597,113.48465 96.206897,112.58574 98.132427,111.82667 C 100.26768,110.97958 102.42214,110.17609 104.61529,109.49054 C 107.01544,108.74574 109.43373,108.05802 111.87907,107.47617 C 114.52005,106.84539 117.17213,106.26305 119.84071,105.76159 C 122.67869,105.23618 125.52261,104.73918 128.38088,104.3376 C 131.37282,103.93325 134.37018,103.57001 137.37808,103.30672 C 140.47204,103.04782 143.56924,102.83692 146.67185,102.71945 C 149.78556,102.60534 152.90062,102.5368 156.01649,102.54386 C 159.03738,102.55431 162.05828,102.60905 165.0762,102.74445 C 167.84652,102.87575 170.61576,103.02774 173.38095,103.24132 C 175.76757,103.42343 178.1542,103.61289 180.53974,103.81151 C 182.38843,103.95373 184.23658,104.10202 186.08256,104.27958 C 187.33215,104.3948 188.58446,104.48382 189.8281,104.65451 C 190.45831,104.74527 191.10232,104.79693 191.70222,105.02471 L 186.04711,112.22469 z"
         id="path3941"
         style="fill:#000000;fill-opacity:1;fill-rule:nonzero;stroke:none;stroke-width:1.05799997;stroke-linecap:butt;stroke-linejoin:miter;marker:none;marker-start:none;marker-mid:none;marker-end:none;stroke-miterlimit:4.0999999;stroke-dasharray:none;stroke-dashoffset:0;stroke-opacity:1;visibility:visible;display:inline;overflow:visible;enable-background:accumulate" />
      <path
         d="M 264.00723,120.94902 C 264.75921,120.89461 265.51551,120.91295 266.26938,120.87951 C 267.67782,120.82945 269.08733,120.79844 270.49685,120.768 C 272.48868,120.72492 274.48132,120.69889 276.47397,120.66991 C 278.90389,120.64036 281.33381,120.59576 283.764,120.5894 C 286.45991,120.57834 289.15041,120.71775 291.83415,120.93484 C 294.69268,121.19653 297.5358,121.58399 300.35808,122.06486 C 303.34271,122.5587 306.24103,123.36449 309.09361,124.28418 C 312.10044,125.27923 315.00281,126.50807 317.85756,127.81382 C 320.77103,129.17706 323.52972,130.78232 326.21319,132.48386 C 328.92317,134.1995 331.39395,136.19074 333.75352,138.2805 C 336.12391,140.38579 338.19096,142.7391 340.15005,145.15839 C 342.13187,147.59878 343.80197,150.22193 345.33947,152.90621 C 346.90539,155.65976 348.07922,158.56689 349.11343,161.51218 C 350.15629,164.53124 350.8758,167.62741 351.48111,170.73898 C 352.07804,173.83759 352.38976,176.96975 352.60028,180.10651 C 352.8127,183.24582 352.7556,186.39121 352.6176,189.53163 C 352.46255,192.66795 352.11213,195.79189 351.67053,198.90465 C 351.22919,201.97523 350.62604,205.02326 349.95957,208.05952 C 349.30934,210.98035 348.50351,213.86955 347.65493,216.74754 C 346.88266,219.38617 345.9935,221.99463 345.06076,224.58983 C 344.23519,226.92436 343.26268,229.21152 342.1868,231.46001 C 341.17479,233.57534 339.94197,235.59065 338.59983,237.54647 C 337.23009,239.55811 335.60383,241.40409 333.88502,243.17723 C 332.06448,245.01171 330.04369,246.6699 327.96473,248.25912 C 323.29728,251.6609 318.45151,254.87342 313.36383,257.74089 C 310.97099,259.06325 308.48965,260.24717 305.97693,261.37122 C 303.46746,262.48738 300.89277,263.47764 298.31375,264.45367 C 295.78236,265.39322 293.21173,266.24291 290.63461,267.07273 C 288.22688,267.8357 285.80183,268.55382 283.37083,269.25352 C 281.17172,269.8994 278.94772,270.46918 276.71642,271.01564 C 274.71214,271.50596 272.68919,271.93038 270.66462,272.3469 C 268.81241,272.72603 266.9437,273.0347 265.07607,273.34231 C 263.36024,273.62437 261.63386,273.84758 259.90748,274.06979 C 258.56291,274.24709 257.21725,274.40628 255.86483,274.51746 L 263.12185,267.82198 C 264.44965,267.68598 265.77339,267.52205 267.09577,267.34914 C 268.79969,267.12471 270.5028,266.89336 272.19509,266.60372 C 274.0389,266.29405 275.88218,265.97499 277.70814,265.58602 C 279.70511,265.16914 281.70046,264.74077 283.67605,264.24596 C 285.87868,263.69663 288.06939,263.11031 290.24414,262.47656 C 292.65079,261.77946 295.0523,261.06664 297.43135,260.29469 C 299.98574,259.46091 302.52985,258.60059 305.02742,257.6369 C 307.58181,256.64943 310.12809,255.64261 312.6013,254.49635 C 315.07939,253.33865 317.53042,252.12962 319.87672,250.76218 C 320.85221,250.1882 321.20073,249.9928 322.15511,249.39287 C 322.52718,249.15905 323.62741,248.43809 323.26238,248.68024 C 310.57294,257.09058 315.85924,253.6116 318.60467,251.70376 C 320.7088,250.18609 322.73553,248.58245 324.60587,246.82941 C 326.34172,245.13399 328.00938,243.37722 329.4032,241.43402 C 330.76834,239.53424 332.07016,237.59826 333.11194,235.53267 C 334.23517,233.32371 335.26126,231.07544 336.11038,228.7671 C 337.08072,226.18676 338.01562,223.59456 338.81305,220.96554 C 339.68409,218.109 340.52753,215.24451 341.20076,212.34346 C 341.88996,209.33396 342.51882,206.31293 342.98045,203.26695 C 343.44479,200.19226 343.81631,197.10589 343.99463,194.0056 C 344.15563,190.90756 344.24953,187.80392 344.05849,184.70455 C 343.87557,181.61509 343.5974,178.52912 343.03538,175.47443 C 342.47038,172.41976 341.78578,169.38025 340.77485,166.41743 C 339.77961,163.54682 338.65476,160.71077 337.13403,158.02782 C 335.64036,155.40737 334.01761,152.84578 332.08315,150.46717 C 330.17168,148.11385 328.15577,145.82626 325.84112,143.78275 C 323.53162,141.75723 321.1136,139.82975 318.46207,138.17337 C 315.82595,136.52541 313.11164,134.97578 310.24526,133.67109 C 307.42893,132.41416 304.56985,131.22626 301.59685,130.29999 C 298.78567,129.44527 295.92686,128.72033 292.99823,128.27374 C 290.20193,127.84088 287.39318,127.46486 284.56333,127.26476 C 281.89853,127.0952 279.22914,126.99982 276.55731,127.04352 C 274.11521,127.0758 271.67203,127.1254 269.22994,127.18474 C 267.21321,127.2357 265.19703,127.29469 263.18111,127.37497 C 261.74291,127.43512 260.30471,127.50366 258.86814,127.59288 C 258.06286,127.62795 257.25784,127.69292 256.45175,127.69679 L 264.00723,120.94902 z"
         id="path3943"
         style="fill:#000000;fill-opacity:1;fill-rule:nonzero;stroke:none;stroke-width:1.05799997;stroke-linecap:butt;stroke-linejoin:miter;marker:none;marker-start:none;marker-mid:none;marker-end:none;stroke-miterlimit:4.0999999;stroke-dasharray:none;stroke-dashoffset:0;stroke-opacity:1;visibility:visible;display:inline;overflow:visible;enable-background:accumulate" />
      <path
         d="M 260.57531,162.64253 C 263.62813,160.36785 266.8333,158.24813 270.18215,156.34552 C 270.89516,155.95887 271.60817,155.57187 272.3201,155.18392 C 273.27529,154.70557 274.23617,154.2386 275.21192,153.79497 C 276.33542,153.27451 277.49951,152.82871 278.66874,152.40169 C 279.95243,151.92856 281.27238,151.54331 282.59396,151.16822 C 283.96965,150.77494 285.36645,150.44722 286.77001,150.14541 C 288.23148,149.82129 289.71703,149.6 291.20421,149.39879 C 292.70681,149.20962 294.22185,149.14424 295.7369,149.10138 C 297.25114,149.07613 298.7651,149.14706 300.27365,149.26298 C 301.79276,149.39833 303.30402,149.59735 304.80472,149.85133 C 306.30516,150.1052 307.77475,150.47499 309.22485,150.90068 C 310.6939,151.32936 312.10233,151.90409 313.47586,152.53628 C 314.90594,153.17975 316.19802,154.0263 317.43138,154.93606 C 318.75891,155.93673 319.88538,157.11874 320.94529,158.34631 C 322.05526,159.66693 323.01641,161.08175 323.93399,162.51581 C 324.89459,164.00678 325.68553,165.57516 326.41803,167.16608 C 327.15701,168.80378 327.72066,170.49907 328.23532,172.20375 C 328.75243,173.9126 329.14668,175.6488 329.51496,177.38792 C 329.88026,179.14293 330.14814,180.9125 330.38356,182.68501 C 330.61843,184.45141 330.75183,186.22677 330.84573,188.00332 C 330.92204,189.7501 330.93097,191.49853 330.9058,193.24632 C 330.88334,194.93122 330.78647,196.61392 330.66362,198.29492 C 330.54077,199.93769 330.35758,201.57542 330.13759,203.20961 C 329.92463,204.80538 329.64186,206.39227 329.33718,207.9755 C 329.03141,209.50073 328.67368,211.01699 328.28809,212.52714 C 327.92901,213.97384 327.47956,215.39875 327.00115,216.81614 C 326.54872,218.18745 326.02161,219.53678 325.47501,220.87903 C 324.96034,222.15017 324.41239,223.4092 323.82521,224.65412 C 323.25074,225.85928 322.58617,227.02562 321.89643,228.17921 C 321.22996,229.28956 320.47825,230.35458 319.69434,231.39907 C 318.94156,232.41084 318.07755,233.34487 317.1892,234.25972 C 316.33683,235.14144 315.41032,235.95882 314.43971,236.73258 C 310.88358,239.41916 307.16483,241.9647 303.1652,244.08436 C 302.01843,244.66984 300.79887,245.12436 299.56551,245.53525 C 298.29535,245.94577 296.98298,246.22432 295.66655,246.48005 C 294.32387,246.7073 292.96955,246.87192 291.61118,246.99637 C 290.28717,247.13015 288.95775,247.20188 287.62535,247.20497 C 286.31704,247.21642 285.00926,247.14146 283.70907,247.01401 C 282.37478,246.87552 281.05943,246.62563 279.75598,246.33788 C 278.46417,246.03999 277.19212,245.67983 275.93738,245.27408 C 274.71593,244.87092 273.53398,244.3821 272.37341,243.85452 C 271.23015,243.33433 270.13371,242.73752 269.05567,242.1155 C 267.99549,241.49482 266.97942,240.81604 265.99203,240.10468 C 265.02249,239.40433 264.09923,238.65419 263.20898,237.87294 C 262.77387,237.48965 262.365,237.08376 261.95749,236.67703 L 270.30608,230.98744 C 270.69059,231.36898 271.07538,231.74973 271.48613,232.10816 C 272.34067,232.85104 273.22902,233.56202 274.16202,234.22387 C 275.11126,234.89453 276.08864,235.53294 277.10905,236.11276 C 278.14947,236.69538 279.20884,237.25166 280.31259,237.73085 C 281.4277,238.21261 282.56284,238.65617 283.73504,239.0136 C 284.94919,239.37741 286.17525,239.71305 287.42538,239.96243 C 288.68229,240.20169 289.94947,240.40027 291.23235,240.48148 C 292.49087,240.55778 293.75211,240.60341 295.01334,240.55448 C 296.30758,240.49874 297.59831,240.4003 298.88362,240.2534 C 300.19951,240.09283 301.51567,239.91453 302.80342,239.61802 C 304.06736,239.32616 305.31885,238.98378 306.5173,238.5147 C 307.68978,238.04758 308.84034,237.53199 309.9062,236.88447 C 310.4252,236.57434 310.43792,236.5735 310.94257,236.24508 C 311.11088,236.1356 311.6104,235.80155 311.44344,235.91201 C 298.01718,244.77121 301.96107,242.21054 304.78172,240.29848 C 305.78102,239.58755 306.75678,238.84986 307.62944,238.01016 C 308.53809,237.14767 309.43835,236.27152 310.2228,235.31308 C 311.04432,234.32247 311.82227,233.30112 312.5139,232.23174 C 313.23503,231.12404 313.91449,229.99345 314.51845,228.82936 C 315.14623,227.61911 315.71176,226.38488 316.23022,225.13304 C 316.78223,223.80968 317.34723,222.48938 317.8186,221.13991 C 318.29728,219.74387 318.79706,218.35191 319.16452,216.92751 C 319.57745,215.44177 319.93869,213.9451 320.27206,212.44315 C 320.60029,210.88367 320.89145,209.31832 321.12605,207.74496 C 321.35686,206.13212 321.5755,204.51747 321.69998,202.89448 C 321.84718,201.23532 321.9565,199.57296 322.00196,197.90876 C 322.04769,196.18571 322.04931,194.46217 322.00304,192.73898 C 321.93052,190.99312 321.81417,189.24823 321.60256,187.51122 C 321.3915,185.76831 321.13498,184.02945 320.79024,182.30364 C 320.45227,180.59739 320.06181,178.89824 319.57907,177.22013 C 319.09498,175.57295 318.56787,173.93351 317.87218,172.34752 C 317.17405,170.81445 316.42126,169.30189 315.49746,167.86688 C 314.62101,166.49347 313.69747,165.14145 312.62728,163.88244 C 311.63529,162.75041 310.57051,161.66972 309.31739,160.7657 C 308.1506,159.94277 306.92211,159.19599 305.57862,158.62464 C 304.25542,158.05623 302.90571,157.5401 301.49754,157.16682 C 300.09182,156.79105 298.66661,156.47832 297.22029,156.26004 C 295.75665,156.04597 294.28544,155.86849 292.8053,155.7839 C 291.33923,155.71038 289.86856,155.66896 288.40087,155.74334 C 286.92993,155.81605 285.46034,155.9317 284.00807,156.16262 C 282.55201,156.39006 281.1038,156.65997 279.67534,157.00292 C 278.29641,157.33562 276.92477,157.6932 275.57289,158.10716 C 274.27784,158.50679 272.99279,158.93498 271.74266,159.44039 C 270.59751,159.90546 269.46129,160.38766 268.36215,160.93707 C 267.40289,161.4102 266.4477,161.89329 265.52607,162.42408 C 264.80683,162.82921 264.08164,163.22636 263.39434,163.67489 C 259.06351,166.46651 274.03512,156.61811 270.43705,159.03445 L 260.57531,162.64253 z"
         id="path3945"
         style="fill:#000000;fill-opacity:1;fill-rule:nonzero;stroke:none;stroke-width:1.05799997;stroke-linecap:butt;stroke-linejoin:miter;marker:none;marker-start:none;marker-mid:none;marker-end:none;stroke-miterlimit:4.0999999;stroke-dasharray:none;stroke-dashoffset:0;stroke-opacity:1;visibility:visible;display:inline;overflow:visible;enable-background:accumulate" />
    </g>
    <path
       style="opacity:1;fill:#c0b79f;fill-opacity:1;fill-rule:nonzero;stroke:none;stroke-width:1.05799997;stroke-linecap:butt;stroke-linejoin:miter;marker:none;marker-start:none;marker-mid:none;marker-end:none;stroke-miterlimit:4.0999999;stroke-dasharray:none;stroke-dashoffset:0;stroke-opacity:1;visibility:visible;display:inline;overflow:visible;enable-background:accumulate"
       id="path4922"
       d="M 131.02256,108.51438 C 131.54429,108.20291 132.07867,107.91325 132.61226,107.62279 C 133.58393,107.12922 134.54521,106.61604 135.51051,106.11021 C 136.83821,105.39413 138.15326,104.65514 139.47097,103.92096 C 140.99033,103.08774 142.47487,102.19546 143.94904,101.28541 C 144.74501,100.79198 145.52674,100.27546 146.28964,99.732219 C 146.55269,99.544909 147.33388,98.971909 147.07238,99.161379 C 138.85093,105.11854 136.39544,107.01436 139.81986,104.38633 C 141.40149,103.1823 142.89937,101.8771 144.34073,100.50985 C 145.79865,99.134289 147.07343,97.594909 148.2044,95.944272 C 149.29591,94.342723 150.07522,92.573314 150.71499,90.752252 C 151.32334,88.987866 151.60017,87.144701 151.75075,85.292168 C 151.87369,83.414223 151.66662,81.543363 151.39391,79.688558 C 151.09985,77.862298 150.69045,76.056432 150.23112,74.265343 C 149.77631,72.541359 149.29323,70.824891 148.81581,69.107044 C 148.34425,67.418695 147.89129,65.72539 147.52332,64.011244 C 147.16149,62.338546 146.97222,60.639008 146.8716,58.932831 C 146.76684,57.239918 146.92705,55.554195 147.22051,53.888718 C 147.54793,52.144015 148.19459,50.491837 148.91298,48.877041 C 149.7151,47.110492 150.77675,45.483248 151.89647,43.905354 C 153.1029,42.219939 154.48985,40.682159 155.94253,39.208468 C 160.0807,35.214874 165.01937,32.081434 169.63594,28.726907 C 171.38421,27.475574 173.27445,26.450303 175.20954,25.522699 C 177.11176,24.631882 179.10546,23.961869 181.12218,23.385807 C 183.08153,22.862284 185.09088,22.573653 187.10912,22.409675 C 189.02963,22.249278 190.94989,22.370501 192.85223,22.646272 C 194.68392,22.885344 196.41761,23.479135 198.08519,24.251925 C 199.7116,25.047751 201.12979,26.16013 202.41829,27.418945 C 203.6564,28.643582 204.53441,30.107306 205.21153,31.696914 C 205.82193,33.231495 206.07356,34.863862 206.20038,36.500597 C 206.31073,38.033107 206.17223,39.560384 205.95072,41.075563 C 205.75029,42.407306 205.38031,43.701289 204.93029,44.967697 C 204.52444,46.09192 203.9135,47.109864 203.20089,48.062431 C 202.54853,48.916026 201.76351,49.64493 200.9236,50.308587 C 196.98041,52.53437 193.6794,56.510511 189.32506,58.286188 C 188.52808,58.614078 187.68632,58.772802 186.8311,58.836183 C 186.05411,58.878994 185.29325,58.741175 184.54919,58.53186 C 183.8312,58.317521 183.1784,57.955887 182.57145,57.523336 C 181.98197,57.084993 181.50451,56.533491 181.09292,55.93001 C 180.68976,55.308173 180.38679,54.634775 180.16737,53.928801 C 179.95774,53.212755 179.8645,52.472682 179.8121,51.730768 C 179.76403,50.999483 179.81217,50.269527 179.91223,49.545139 C 179.95949,49.180472 180.0533,48.825473 180.14826,48.471196 L 189.41903,42.113906 C 189.31471,42.454273 189.21542,42.795844 189.1592,43.148305 C 189.05361,43.8544 188.97232,44.563707 189.01928,45.279455 C 189.05053,45.998613 189.13393,46.717705 189.3281,47.412786 C 189.52637,48.090016 189.81015,48.736209 190.19749,49.328373 C 190.58458,49.90087 191.04136,50.416539 191.60451,50.823651 C 192.18562,51.229366 192.81578,51.555628 193.50298,51.742375 C 194.22403,51.923451 194.961,52.029 195.7061,51.958449 C 196.53264,51.87048 197.3407,51.685062 198.10533,51.350513 C 201.92074,49.688235 207.07798,44.633324 191.6,56.444174 C 192.45806,55.800635 193.26851,55.097711 193.94237,54.257369 C 194.68501,53.331994 195.32757,52.337032 195.76108,51.226156 C 196.23619,49.971148 196.63198,48.686903 196.85763,47.36124 C 197.10535,45.862342 197.27168,44.347831 197.18071,42.825914 C 197.07829,41.218042 196.84872,39.614705 196.26748,38.101743 C 195.61813,36.548332 194.7766,35.110595 193.57228,33.913925 C 192.31332,32.67552 190.90844,31.604564 189.30974,30.835726 C 187.66555,30.085636 185.95622,29.520989 184.15534,29.290918 C 182.27381,29.036573 180.37634,28.932175 178.48015,29.094954 C 176.47911,29.274808 174.48651,29.571328 172.54747,30.110494 C 170.54728,30.699371 168.56854,31.37417 166.6856,32.277809 C 164.7612,33.22248 162.8823,34.262828 161.14623,35.527415 C 176.58146,24.298729 168.15079,30.094808 165.01074,33.189094 C 163.55767,34.640642 162.17117,36.157373 160.96406,37.823331 C 159.84287,39.373497 158.78538,40.978068 157.9777,42.717714 C 157.26013,44.305344 156.61186,45.930686 156.26683,47.645567 C 155.95883,49.287365 155.79018,50.950069 155.87837,52.622982 C 155.96357,54.316676 156.13321,56.005967 156.49295,57.666003 C 156.84531,59.379142 157.29064,61.069985 157.7587,62.754924 C 158.23738,64.475953 158.72542,66.194682 159.17042,67.924818 C 159.62451,69.729762 160.04018,71.546435 160.33991,73.384117 C 160.62043,75.257862 160.84097,77.148018 160.73995,79.046618 C 160.61014,80.921822 160.34717,82.788704 159.74942,84.578807 C 159.11617,86.425237 158.35192,88.227317 157.26291,89.857398 C 156.15087,91.528518 154.89427,93.089298 153.4407,94.47961 C 152.00876,95.858462 150.51916,97.174887 148.9398,98.384139 C 144.54824,101.79828 140.05406,105.10583 135.37708,108.12073 C 133.88847,109.03571 132.38734,109.92918 130.85651,110.77223 C 129.51622,111.52361 128.1772,112.27741 126.82526,113.00773 C 125.82688,113.53929 124.82789,114.06972 123.83126,114.60445 C 123.26953,114.91932 122.70932,115.23708 122.16124,115.57535 L 131.02256,108.51438 z" />
    <path
       style="opacity:1;fill:#c0b79f;fill-opacity:1;fill-rule:nonzero;stroke:none;stroke-width:1.05799997;stroke-linecap:butt;stroke-linejoin:miter;marker:none;marker-start:none;marker-mid:none;marker-end:none;stroke-miterlimit:4.0999999;stroke-dasharray:none;stroke-dashoffset:0;stroke-opacity:1;visibility:visible;display:inline;overflow:visible;enable-background:accumulate"
       id="path4932"
       d="M 227.51996,115.17937 C 227.77037,114.70443 228.09798,114.27999 228.44019,113.86887 C 228.99774,113.20302 229.6166,112.59361 230.26445,112.01668 C 234.03298,108.94702 237.98912,106.1022 242.0456,103.42442 C 243.20887,102.65712 244.46981,102.06596 245.75293,101.53182 C 247.34937,100.87819 249.01058,100.40631 250.67528,99.963785 C 252.66489,99.440611 254.69101,99.078531 256.71664,98.728391 C 258.92779,98.360311 261.15984,98.145653 263.39016,97.934322 C 265.84824,97.710749 268.31342,97.569775 270.77897,97.460379 C 273.47431,97.354686 276.17084,97.284126 278.86722,97.211786 C 281.73557,97.140467 284.60406,97.074684 287.4726,97.011302 C 290.39863,96.951162 293.32474,96.894802 296.25091,96.841657 C 299.20111,96.814659 302.14935,96.719683 305.09599,96.576024 C 308.03959,96.44006 310.97757,96.207367 313.91022,95.923254 C 316.73453,95.627353 319.5491,95.239274 322.34786,94.759356 C 324.95248,94.294787 327.53348,93.708746 330.08288,93.002865 C 332.39832,92.384316 334.61911,91.485757 336.78517,90.470571 C 338.73371,89.535504 340.5665,88.395715 342.33785,87.163331 C 327.18295,98.525738 334.97074,92.822896 338.02141,89.629553 C 339.34323,88.229742 340.46372,86.662901 341.51017,85.051977 C 342.48358,83.550952 343.29099,81.953725 344.01697,80.321289 C 344.66318,78.885468 345.08502,77.371388 345.37265,75.827586 C 345.62089,74.426336 345.60377,73.004688 345.48537,71.592692 C 345.34989,70.238297 344.97426,68.934033 344.49183,67.667081 C 343.97818,66.336974 343.1916,65.150433 342.35215,64.00821 C 341.46127,62.821601 340.40732,61.778099 339.3074,60.788149 C 338.13847,59.734308 336.81468,58.886951 335.44879,58.115899 C 333.84186,57.222583 332.13305,56.546678 330.39492,55.959438 C 328.45496,55.344673 326.45493,54.95257 324.4515,54.612688 C 322.42507,54.271768 320.37813,54.11436 318.32851,54.00431 C 316.3358,53.890065 314.34248,53.977447 312.35275,54.095693 C 310.43005,54.196554 308.52862,54.482663 306.64285,54.859056 C 304.85391,55.218961 303.10401,55.735695 301.37355,56.308974 C 299.76105,56.844513 298.20692,57.528157 296.67761,58.263886 C 295.26425,58.954629 293.91596,59.767055 292.60217,60.629746 C 289.44527,62.855919 284.98464,66.027341 299.72,55.461663 C 299.9183,55.319476 299.33893,55.766624 299.15261,55.924185 C 298.67424,56.328723 298.52462,56.479406 298.06787,56.906709 C 297.04066,57.887891 296.10183,58.955155 295.22087,60.068037 C 294.40017,61.108582 293.72126,62.246537 293.11283,63.420838 C 292.56789,64.525242 292.14738,65.683802 291.80698,66.865671 C 291.51127,67.952183 291.37928,69.072082 291.30847,70.193002 C 291.24981,71.219609 291.36956,72.237896 291.55872,73.244539 C 291.75214,74.223805 292.19308,75.108204 292.71171,75.95076 C 293.29545,76.847665 294.0589,77.594971 294.86012,78.294725 C 295.70699,79.021287 296.62707,79.649972 297.5894,80.211528 C 298.60901,80.806073 299.71605,81.216533 300.84181,81.556887 C 302.12507,81.919116 303.44638,82.100592 304.7677,82.253854 C 306.20336,82.424222 307.64883,82.486411 309.09357,82.502649 C 310.56692,82.537132 312.03753,82.456752 313.50761,82.371904 C 314.99569,82.282137 316.47586,82.10722 317.94893,81.881783 C 319.38567,81.687145 320.79683,81.357196 322.19346,80.974231 C 323.55304,80.594609 324.86398,80.072102 326.14881,79.492315 C 327.37592,78.941034 328.52019,78.23693 329.66053,77.529226 C 328.17407,78.769789 332.85923,75.273367 331.2525,76.438377 C 316.47166,87.155672 320.78478,84.271153 323.7415,81.800775 C 324.62216,81.056428 325.42078,80.224594 326.16651,79.346979 C 326.75295,78.651866 327.21463,77.873239 327.58056,77.043706 C 327.86131,76.37849 328.03006,75.681153 328.10037,74.96447 C 328.15114,74.36636 328.03894,73.787274 327.84111,73.226282 C 327.63342,72.679137 327.282,72.216974 326.89271,71.787898 C 326.46909,71.320906 325.92415,71.014292 325.36804,70.734733 C 324.7627,70.45691 324.12755,70.262488 323.48268,70.102639 C 322.79498,69.923106 322.08544,69.873385 321.37939,69.823726 C 320.57476,69.779217 319.77213,69.836918 318.97141,69.910032 C 318.14266,69.99761 317.329,70.172667 316.5179,70.358025 C 315.67185,70.572284 314.85421,70.884373 314.04857,71.216782 C 313.19091,71.56457 312.34915,71.951877 311.52275,72.368351 C 310.81347,72.700904 310.13788,73.096249 309.48263,73.523969 L 318.22449,66.547202 C 318.89302,66.133865 319.57951,65.75195 320.29091,65.416611 C 321.12661,65.011931 321.971,64.624358 322.83496,64.283265 C 323.65796,63.960248 324.48751,63.644193 325.35344,63.454686 C 326.17251,63.272629 326.99801,63.116496 327.83481,63.042259 C 328.65215,62.973674 329.47297,62.932268 330.29283,62.98464 C 331.01781,63.036523 331.74205,63.109126 332.44572,63.301806 C 333.10843,63.476144 333.76439,63.686143 334.38073,63.989432 C 334.97096,64.292336 335.53699,64.638193 335.98801,65.134042 C 336.40746,65.594676 336.78658,66.090796 337.01943,66.674812 C 337.24394,67.275992 337.38254,67.898287 337.34555,68.544862 C 337.29156,69.297314 337.13374,70.031596 336.85478,70.734823 C 336.4949,71.603633 336.04023,72.422577 335.44446,73.154806 C 334.6973,74.055006 333.89742,74.910599 333.01416,75.679883 C 329.25338,78.915574 325.13325,81.722 320.98922,84.444477 C 319.84924,85.146688 318.69225,85.823362 317.46325,86.360862 C 316.17076,86.923102 314.85354,87.428988 313.48957,87.792196 C 312.08621,88.163819 310.66812,88.474871 309.22742,88.664375 C 307.74815,88.874296 306.26386,89.04696 304.77127,89.128473 C 303.29383,89.211691 301.81541,89.283952 300.33498,89.246213 C 298.87968,89.218594 297.42484,89.146949 295.97825,88.978767 C 294.63327,88.820435 293.28705,88.634116 291.98218,88.259409 C 290.83322,87.901938 289.70108,87.484053 288.66123,86.868766 C 287.68283,86.294512 286.75359,85.642043 285.89038,84.904372 C 285.06389,84.182293 284.27599,83.41338 283.66644,82.493147 C 283.11693,81.621921 282.64953,80.707808 282.43806,79.690178 C 282.23208,78.658515 282.10638,77.612056 282.15824,76.557659 C 282.21754,75.412282 282.35209,74.267834 282.63891,73.155096 C 282.96709,71.949627 283.39064,70.773237 283.92605,69.643128 C 284.5256,68.446206 285.20028,67.286447 286.0186,66.223703 C 286.89221,65.091707 287.83188,64.01136 288.85439,63.01054 C 292.57678,59.435564 296.99672,56.685674 301.22569,53.74329 C 302.54237,52.898449 303.89071,52.10072 305.30554,51.429483 C 306.83432,50.709514 308.39125,50.049994 310.00059,49.529196 C 311.7323,48.971057 313.48447,48.474722 315.27247,48.129188 C 317.16343,47.773479 319.06837,47.503402 320.99268,47.413729 C 322.98616,47.305366 324.98366,47.236728 326.97865,47.361345 C 329.03365,47.483531 331.08557,47.65856 333.11681,48.005224 C 335.13666,48.359809 337.15553,48.75509 339.11356,49.374562 C 340.88023,49.965806 342.61805,50.646593 344.25716,51.539579 C 345.65624,52.311715 347.01212,53.16493 348.20187,54.240759 C 349.31499,55.249347 350.38271,56.30954 351.28802,57.513225 C 352.14613,58.675363 352.97273,59.872744 353.50239,61.226921 C 354.00942,62.516659 354.39597,63.849338 354.54507,65.232176 C 354.67866,66.672902 354.69962,68.123166 354.45979,69.555981 C 354.18227,71.132183 353.75568,72.677737 353.10563,74.144354 C 352.37161,75.797535 351.56626,77.420848 350.5866,78.944639 C 349.54593,80.57123 348.4343,82.157215 347.12171,83.579199 C 343.25619,87.708727 338.43869,90.711391 333.82969,93.969282 C 332.06014,95.177904 330.22757,96.291254 328.28345,97.200278 C 326.12033,98.185678 323.90428,99.051882 321.59918,99.649133 C 319.05578,100.3261 316.48529,100.89899 313.89074,101.34449 C 311.09707,101.80406 308.28952,102.18179 305.47225,102.46451 C 302.53877,102.73989 299.60018,102.96458 296.6566,103.09927 C 293.70584,103.23822 290.75352,103.33078 287.7995,103.36215 C 284.8712,103.41518 281.94292,103.46999 279.01493,103.53829 C 276.13928,103.60268 273.26368,103.66991 270.38861,103.75734 C 267.67873,103.83739 264.96884,103.9224 262.26047,104.04448 C 259.78104,104.16844 257.30227,104.32633 254.83144,104.56995 C 252.59292,104.79328 250.35346,105.02632 248.13596,105.41277 C 246.09704,105.77619 244.05841,106.15616 242.06142,106.71238 C 240.37911,107.18173 238.702,107.68336 237.09446,108.37339 C 235.80372,108.93947 234.53722,109.56308 233.3693,110.35834 C 227.74592,114.1476 245.66629,101.24017 239.58758,105.85769 C 238.94861,106.39853 238.34714,106.98229 237.80399,107.62033 C 237.47945,107.99973 237.15572,108.38118 236.91819,108.82324 L 227.51996,115.17937 z" />
    <path
       style="opacity:1;fill:#c0b79f;fill-opacity:1;fill-rule:nonzero;stroke:none;stroke-width:1.05799997;stroke-linecap:butt;stroke-linejoin:miter;marker:none;marker-start:none;marker-mid:none;marker-end:none;stroke-miterlimit:4.0999999;stroke-dasharray:none;stroke-dashoffset:0;stroke-opacity:1;visibility:visible;display:inline;overflow:visible;enable-background:accumulate"
       id="path4936"
       d="M 189.66777,108.0285 C 189.94064,107.49826 190.22405,106.9739 190.52643,106.45991 C 191.00972,105.63502 191.61435,104.89172 192.22587,104.16017 C 193.04119,103.2033 193.97807,102.36834 194.96537,101.59499 C 199.18591,98.375341 203.19943,94.975339 208.01559,92.790083 C 209.78429,91.98876 211.62024,91.355487 213.47073,90.77421 C 215.66363,90.081707 217.89338,89.515289 220.12316,88.956213 C 222.59789,88.342321 225.07343,87.733563 227.53643,87.073779 C 230.0023,86.406182 232.44698,85.664007 234.87235,84.862349 C 237.06101,84.137549 239.18889,83.245537 241.24186,82.19864 C 242.15295,81.701941 243.04256,81.167025 243.89619,80.576641 C 244.16604,80.390004 244.96109,79.80952 244.69529,80.001888 C 236.33328,86.053743 234.04898,87.961474 237.30213,85.279428 C 238.54023,84.246565 239.48229,82.983855 240.1281,81.514898 C 240.69457,80.104741 240.6216,78.649931 240.35304,77.188257 C 239.9841,75.537455 239.19055,74.042868 238.34447,72.594918 C 237.37482,70.952974 236.21044,69.44026 235.03067,67.946528 C 233.79294,66.389763 232.53422,64.849966 231.28371,63.303466 C 230.06624,61.805713 228.88196,60.281595 227.73629,58.728316 C 226.64032,57.2838 225.69392,55.741893 224.83207,54.149233 C 224.00884,52.619272 223.49322,50.968516 223.16532,49.269848 C 222.84138,47.536496 222.94737,45.779105 223.14305,44.039616 C 223.36343,42.233505 223.90623,40.496537 224.52092,38.791815 C 225.14868,37.060754 225.97067,35.41359 226.88833,33.820562 C 227.84368,32.179574 228.99126,30.668846 230.19519,29.205272 C 231.4526,27.682682 232.88265,26.32344 234.36375,25.023127 C 238.81506,21.476671 243.36834,18.019815 248.21775,15.033363 C 250.0176,13.928747 251.91822,13.008082 253.85945,12.183061 C 255.72227,11.415389 257.6366,10.781384 259.56869,10.213792 C 261.34064,9.6768372 263.17038,9.4160214 265.00774,9.2391387 C 266.74179,9.0930103 268.47646,9.1981281 270.19344,9.4544159 C 271.83407,9.7048254 273.41569,10.21703 274.95614,10.821232 C 276.40831,11.390723 277.74681,12.183799 279.00836,13.09288 C 280.241,13.992875 281.25182,15.130595 282.15695,16.349029 C 283.02915,17.52992 283.63304,18.857052 284.04244,20.259794 C 284.40627,21.62755 284.45435,23.033125 284.37456,24.437359 C 284.28156,25.839297 283.93205,27.195419 283.46159,28.513071 C 282.94379,29.903503 282.15652,31.156255 281.28961,32.350783 C 280.36466,33.574787 279.26529,34.647912 278.12751,35.670886 C 274.14394,38.968944 270.03179,42.173498 265.57034,44.796855 C 264.35719,45.486539 263.04629,45.95732 261.71048,46.342697 C 260.5303,46.661546 259.32125,46.744798 258.10531,46.714972 C 257.03046,46.669144 256.00294,46.388683 255.00252,46.012531 C 254.10482,45.654125 253.35424,45.06187 252.66682,44.396251 C 252.05034,43.789531 251.55889,43.088257 251.14952,42.33038 C 250.81242,41.647077 250.60355,40.913969 250.4868,40.163546 C 250.37864,39.464887 250.50605,38.78061 250.70177,38.111388 C 250.83484,37.67611 251.0487,37.276727 251.27755,36.88615 L 260.6134,30.597691 C 260.37133,30.96425 260.14244,31.339753 259.99049,31.754495 C 259.77246,32.376204 259.61287,33.023098 259.68132,33.687331 C 259.77051,34.407987 259.94914,35.112594 260.25831,35.772777 C 260.63313,36.508884 261.1052,37.182517 261.69298,37.766895 C 262.34542,38.401482 263.06476,38.956829 263.92221,39.28831 C 264.89302,39.640984 265.89224,39.894832 266.93144,39.920355 C 268.11564,39.932236 269.29428,39.828782 270.437,39.496995 C 271.74986,39.100844 273.03426,38.612013 274.21667,37.907384 C 277.49234,35.906016 281.81028,32.515716 267.13472,43.172786 C 265.26236,44.532451 270.86108,40.539238 268.92148,41.75702 C 270.0661,40.751659 271.17436,39.698022 272.11784,38.496963 C 272.99102,37.334666 273.78825,36.113993 274.3194,34.752493 C 274.80867,33.466304 275.17071,32.136202 275.28134,30.75898 C 275.38414,29.387299 275.36029,28.012285 275.01814,26.67049 C 274.64965,25.294583 274.064,24.000958 273.2215,22.845379 C 272.33694,21.654944 271.35479,20.535861 270.14198,19.666172 C 268.89777,18.781826 267.58073,18.007466 266.1554,17.448391 C 264.63549,16.858608 263.0761,16.358097 261.45649,16.12832 C 259.76019,15.895156 258.04875,15.799015 256.33945,15.960274 C 254.52275,16.143733 252.71706,16.427496 250.96637,16.962308 C 249.05244,17.531979 247.15302,18.158253 245.31256,18.937053 C 243.38143,19.773928 241.49255,20.707781 239.70484,21.823136 C 236.41148,23.886055 231.74192,27.494828 245.89963,17.148798 C 248.40425,15.318491 240.83559,20.672099 243.46993,19.006595 C 241.98801,20.291288 240.54948,21.626987 239.28787,23.13403 C 238.08273,24.580103 236.92896,26.070084 235.96787,27.693112 C 235.04154,29.26822 234.2072,30.896979 233.57163,32.61357 C 232.95075,34.294014 232.39841,36.006912 232.16187,37.789819 C 231.95674,39.495534 231.83883,41.223641 232.14388,42.926785 C 232.45068,44.598419 232.93691,46.225708 233.74079,47.732385 C 234.58113,49.31978 235.51276,50.854178 236.58945,52.294387 C 237.72282,53.850001 238.89788,55.374332 240.10761,56.871421 C 241.36047,58.417839 242.60179,59.973591 243.86419,61.512337 C 245.05269,63.017336 246.22801,64.53881 247.23669,66.172606 C 248.11485,67.638878 248.94162,69.150761 249.35814,70.822343 C 249.67882,72.323434 249.79766,73.829 249.25735,75.302019 C 248.64288,76.836289 247.70938,78.156368 246.45212,79.242338 C 242.18604,82.85438 237.59339,86.185451 232.72533,88.953335 C 230.67612,89.9633 228.56048,90.831506 226.38488,91.532712 C 223.96475,92.318145 221.52528,93.042201 219.06884,93.705886 C 216.59167,94.367565 214.10294,94.983127 211.61755,95.612881 C 209.36749,96.191458 207.1178,96.778035 204.90864,97.500484 C 203.03996,98.110302 201.18608,98.772026 199.4042,99.607211 C 195.3826,101.51333 188.42637,106.66343 204.2136,95.508936 C 203.23811,96.247085 202.3135,97.04516 201.50549,97.967822 C 200.90807,98.669278 200.31669,99.384567 199.84095,100.17602 C 199.55546,100.65997 199.28951,101.15523 199.0561,101.66662 L 189.66777,108.0285 z" />
  </g>
</svg>
