<?xml version="1.0" encoding="UTF-8" standalone="no"?>
<!-- Created with Inkscape (http://www.inkscape.org/) -->
<svg
   xmlns:dc="http://purl.org/dc/elements/1.1/"
   xmlns:cc="http://web.resource.org/cc/"
   xmlns:rdf="http://www.w3.org/1999/02/22-rdf-syntax-ns#"
   xmlns:svg="http://www.w3.org/2000/svg"
   xmlns="http://www.w3.org/2000/svg"
   xmlns:sodipodi="http://sodipodi.sourceforge.net/DTD/sodipodi-0.dtd"
   xmlns:inkscape="http://www.inkscape.org/namespaces/inkscape"
   width="400"
   height="400"
   id="svg2"
   sodipodi:version="0.32"
   inkscape:version="0.45.1"
   version="1.0"
   sodipodi:docbase="/home/kris/tale/art/item"
   sodipodi:docname="power-brick.svg"
   inkscape:output_extension="org.inkscape.output.svg.inkscape">
  <defs
     id="defs4" />
  <sodipodi:namedview
     id="base"
     pagecolor="#ffffff"
     bordercolor="#666666"
     borderopacity="1.0"
     gridtolerance="10000"
     guidetolerance="10"
     objecttolerance="10"
     inkscape:pageopacity="0.0"
     inkscape:pageshadow="2"
     inkscape:zoom="0.9899495"
     inkscape:cx="385.62846"
     inkscape:cy="238.51433"
     inkscape:document-units="px"
     inkscape:current-layer="layer1"
     width="400px"
     height="400px"
     inkscape:window-width="1680"
     inkscape:window-height="975"
     inkscape:window-x="0"
     inkscape:window-y="49" />
  <metadata
     id="metadata7">
    <rdf:RDF>
      <cc:Work
         rdf:about="">
        <dc:format>image/svg+xml</dc:format>
        <dc:type
           rdf:resource="http://purl.org/dc/dcmitype/StillImage" />
      </cc:Work>
    </rdf:RDF>
  </metadata>
  <g
     inkscape:label="Layer 1"
     inkscape:groupmode="layer"
     id="layer1">
    <path
       style="opacity:1;color:#000000;fill:#00ffff;fill-opacity:0.49833888;fill-rule:nonzero;stroke:none;stroke-width:3.05800009;stroke-linecap:butt;stroke-linejoin:miter;marker:none;marker-start:none;marker-mid:none;marker-end:none;stroke-miterlimit:4;stroke-dasharray:none;stroke-dashoffset:0;stroke-opacity:1;visibility:visible;display:inline;overflow:visible;enable-background:accumulate"
       id="path5205"
       d="M 189.01648,332.14087 C 188.78218,331.51567 188.62469,330.86818 188.445,330.22695 C 188.03736,328.67218 188.05668,327.141 188.32742,325.56934 C 189.25027,321.84905 191.72575,318.9336 194.28079,316.19947 C 198.63501,311.83317 203.8633,308.51427 209.07286,305.27863 C 215.09812,301.53936 221.36051,298.23184 227.87464,295.44057 C 231.71118,293.8249 235.6614,292.35906 239.87237,292.65659 C 243.19484,293.33894 244.29701,295.84026 244.52497,298.94659 C 244.31998,302.61405 242.75836,306.01147 241.27298,309.31453 C 239.88444,312.24483 238.45502,315.1544 237.16146,318.12843 C 236.26236,320.07134 235.62035,322.09293 235.14994,324.17262 C 235.43137,325.77067 236.95775,325.21473 238.40516,325.07212 C 242.19288,324.47333 245.86638,323.31396 249.5243,322.1898 C 252.82534,321.15414 256.11429,320.07928 259.3909,318.96876 C 261.55207,318.24002 263.68945,317.44885 265.80845,316.60773 C 270.0809,314.02749 261.35707,319.85613 266.40346,316.02885 C 267.89039,314.81253 268.94737,313.24412 269.97223,311.64847 C 270.82785,310.17114 271.43161,308.57473 272.02641,306.98113 C 272.36352,306.15768 272.53052,305.28886 272.73081,304.42927 C 274.22929,306.60957 273.9484,305.23782 277.52759,302.80003 C 277.03653,302.5146 277.6959,302.56558 277.78537,302.44096 C 280.47213,302.16806 283.12183,301.62229 285.75374,301.03057 C 291.09957,299.73562 296.42228,298.34813 301.75669,297.00726 C 306.5996,295.7537 311.4689,294.61412 316.38604,293.69332 C 319.42241,293.24651 322.88096,292.21246 325.58581,294.12342 C 327.509,297.20559 323.9826,299.95626 321.89371,301.82738 C 316.06658,306.28934 309.45705,309.60599 302.95637,312.96685 C 298.15787,315.4241 293.37972,317.92194 288.66222,320.53167 C 287.58821,321.91185 287.63261,319.98985 283.88722,324.14023 C 282.40346,327.02335 284.27256,329.27142 286.02873,331.59952 C 289.3393,335.5318 293.25091,338.89795 297.07504,342.31347 C 300.674,345.49328 304.23514,348.71504 307.68994,352.05123 C 310.43704,354.6896 312.98663,357.51999 315.52967,360.35214 C 317.24248,362.41081 319.19185,364.20127 321.29842,365.83481 C 322.75783,366.85569 324.09761,366.94301 325.75917,366.68588 C 327.92415,365.89037 329.90224,364.65748 331.9076,363.53131 C 334.4078,362.10166 336.96024,360.77193 339.6394,359.71179 C 342.9569,358.74764 346.24231,359.71082 349.43914,360.65394 C 353.16314,361.78872 356.71563,363.37189 360.16697,365.15689 C 363.05276,366.66417 365.77374,368.45261 368.32399,370.47183 C 372.52371,372.59015 369.59166,377.41771 365.06007,376.50996 C 360.37727,375.382 355.79666,373.85389 351.21552,372.37416 C 344.8721,370.33098 338.53321,368.27426 332.21628,366.15047 C 327.35295,364.51712 322.50994,362.82448 317.66761,361.13017 C 315.32827,360.23572 312.79143,359.89251 311.16106,358.11836 C 316.43559,354.28393 318.28875,356.34984 323.5311,358.59669 C 327.88826,360.47434 332.27687,362.27823 336.62028,364.18761 C 339.2563,365.34592 342.53126,367.17242 339.59919,369.92557 C 332.78269,374.046 324.95463,374.13825 317.21637,374.65194 C 307.54358,375.16653 297.85134,374.85681 288.17725,374.54561 C 279.88294,374.27418 271.59572,373.83116 263.31685,373.26234 C 257.35604,372.86653 251.41471,372.24887 245.48502,371.53239 C 241.65054,371.07651 237.83746,370.4544 233.99285,370.08683 C 228.38771,370.79113 231.23007,370.68409 232.48219,370.21098 C 231.3634,372.20238 230.82492,374.44145 230.25288,376.63512 C 229.71284,378.74183 229.16801,380.84727 228.63402,382.95552 C 228.49381,383.78801 228.20338,384.58825 227.97004,385.39957 C 226.69201,384.13804 222.9244,387.44014 228.49497,384.02016 C 231.63421,382.07828 234.78102,380.14886 237.94826,378.25295 C 241.87521,375.87619 245.81517,373.51264 250.08096,371.80139 C 252.38561,370.8701 254.81696,370.43032 257.2879,370.30894 C 259.21143,370.21231 261.07758,370.59247 262.93421,371.02927 C 264.45558,371.41519 265.78067,372.20633 267.08595,373.04113 C 268.33133,373.83505 268.79999,374.72509 269.11967,376.07647 C 265.04193,379.76352 262.49914,379.43406 257.6615,378.41583 C 253.01404,377.30331 248.44408,375.90135 243.89978,374.43021 C 239.98468,373.20142 236.1867,371.6609 232.56121,369.74227 C 229.85838,368.15363 228.2324,366.08632 228.19406,362.92004 C 228.83508,359.37883 231.72963,357.11988 234.38715,354.99363 C 237.60073,352.55579 240.98178,350.35076 244.34591,348.12906 C 247.15161,346.29704 249.92283,344.4136 252.6594,342.48002 C 254.69966,341.06714 256.63887,339.52514 258.52975,337.92173 C 259.36698,337.57414 259.74304,336.35293 260.00787,335.91781 C 258.90309,335.33154 257.6843,335.3187 256.46924,335.26268 C 254.83057,335.27537 253.35907,335.91105 251.8828,336.53948 C 247.87316,339.11743 256.48027,333.22419 252.29348,336.60588 C 251.39922,337.32523 251.07085,338.3047 250.66384,339.3134 C 250.46073,340.30517 250.43649,341.32247 250.37217,342.3301 C 250.34577,343.43281 250.11427,344.4995 249.85639,345.56476 C 249.45407,347.01438 248.57388,348.2077 247.7137,349.41024 C 246.43718,351.02906 244.90575,352.41341 243.36305,353.77058 C 241.61839,355.27727 239.81324,356.71123 238.00931,358.14565 C 236.39055,359.39554 234.8518,360.74067 233.32478,362.09916 C 231.97669,363.30973 230.7161,364.60951 229.46744,365.92043 C 228.37723,367.08374 227.36576,368.3158 226.35292,369.54585 C 225.38932,370.81397 224.27977,371.94005 223.12703,373.03065 C 220.50345,375.08803 217.51474,376.63731 214.49185,378.02693 C 212.91027,378.76856 211.23495,379.21731 209.54273,379.61069 C 208.06817,379.92976 206.62054,379.75408 205.16031,379.5023 C 203.92775,379.2593 202.86328,378.68703 201.82236,378.01982 C 200.86024,377.35497 200.51647,376.38458 200.07795,375.37671 C 199.77864,374.41342 199.96244,373.47131 200.08141,372.50474 C 200.25989,371.53306 200.64592,370.62668 200.99577,369.71032 C 201.38877,368.81937 201.82996,367.95112 202.26064,367.07817 C 202.61512,366.47433 202.7915,365.80072 203.01786,365.14891 C 203.22203,364.62112 202.86879,364.24295 202.74064,363.78332 C 202.39845,363.20456 201.81066,362.90032 201.2991,362.50637 C 200.65466,362.07212 199.92596,361.80866 199.21347,361.51499 C 198.78013,361.324 198.31164,361.23886 197.86206,361.10121 L 201.73609,357.58384 C 202.21914,357.75864 202.71147,357.90941 203.17945,358.12442 C 203.95731,358.496 204.74976,358.8436 205.45086,359.35551 C 206.11912,359.89771 206.82508,360.39017 207.27103,361.15345 C 207.6204,361.88558 208.01826,362.55699 207.96426,363.40948 C 207.82619,364.23341 207.71664,365.04388 207.2905,365.79115 C 206.85823,366.65292 206.42922,367.51667 206.00641,368.3833 C 205.63957,369.20539 205.23936,370.01497 205.02226,370.89516 C 204.85736,371.62777 204.62275,372.34473 204.76458,373.10564 C 205.07671,373.79514 205.16843,374.46579 205.92968,374.87298 C 206.86377,375.33751 207.77031,375.83315 208.83983,375.93553 C 210.16465,376.04627 211.47118,376.07527 212.76784,375.69625 C 214.37054,375.23548 215.95965,374.73162 217.45443,373.9758 C 222.00078,371.68297 212.80817,376.80246 218.10746,373.68917 C 219.30398,372.72565 220.43743,371.71265 221.36481,370.47288 C 222.39058,369.22284 223.40427,367.96122 224.49647,366.7678 C 225.7489,365.41174 227.01529,364.06877 228.3782,362.82117 C 229.90984,361.41838 231.45573,360.02992 233.10191,358.76046 C 234.90425,357.34056 236.71561,355.93141 238.46636,354.44762 C 239.96392,353.16423 241.45254,351.86059 242.74661,350.36637 C 243.56677,349.32687 244.42558,348.30109 244.92328,347.05601 C 245.1948,346.09713 245.51105,345.15406 245.52382,344.14095 C 245.59613,343.06563 245.65554,341.9889 245.76161,340.91631 C 246.03486,339.63681 246.35807,338.42491 247.24031,337.40472 C 249.3768,335.19825 252.07378,333.66194 254.92286,332.50396 C 256.57645,331.96268 258.22105,331.46207 259.99107,331.61877 C 261.59477,331.82839 263.15467,331.99816 264.39676,333.14957 C 265.1616,334.90203 264.98806,335.82373 263.45878,337.22099 C 261.53025,338.90492 259.5373,340.50505 257.42443,341.95727 C 254.64429,343.91772 251.82769,345.82549 248.96759,347.6677 C 245.59679,349.85624 242.21688,352.03801 238.98011,354.42293 C 236.569,356.2816 233.88044,358.20225 232.78635,361.16229 C 232.86028,363.82421 233.77462,365.38145 236.22972,366.78191 C 239.74431,368.69313 243.4356,370.22258 247.24673,371.4444 C 251.75475,372.92955 256.30127,374.35947 260.97969,375.20629 C 265.27638,375.793 269.21694,374.28359 264.10304,377.5769 C 263.81056,377.05663 263.54945,376.42994 263.02297,376.14879 C 261.83018,375.42932 260.61968,374.76501 259.23761,374.47386 C 257.49558,374.1255 255.74794,373.82929 253.96026,373.99505 C 251.63224,374.28348 249.33463,374.68329 247.17791,375.67148 C 240.41142,378.59258 246.18363,376.19035 242.62707,377.84457 C 239.46061,379.70546 236.31334,381.5996 233.2161,383.5741 C 230.40077,385.38518 226.75446,389.33624 223.59597,388.37845 C 223.10717,387.00054 223.34856,385.91403 223.852,384.45937 C 224.43727,382.34888 225.02809,380.23976 225.56914,378.11735 C 226.15141,375.82263 226.69691,373.50281 227.62602,371.31742 C 229.49981,367.51933 233.57679,366.26248 237.38008,366.70359 C 241.14137,367.20838 244.87629,367.88718 248.63452,368.41425 C 254.44448,369.23344 260.27179,369.92437 266.12085,370.40056 C 274.28741,371.08056 282.46529,371.62297 290.6537,371.9603 C 300.33709,372.33498 310.04808,372.64519 319.72138,371.86158 C 320.9913,371.74236 342.37713,367.76106 334.72358,370.39184 C 337.98755,369.37029 334.93082,368.25542 333.11815,367.12488 C 328.84016,365.13488 324.50053,363.27725 320.11818,361.52913 C 315.94158,359.95893 308.74733,360.17927 316.20709,356.39714 C 317.88524,356.81934 319.52521,357.41293 321.10277,358.12409 C 325.83955,359.92399 330.59242,361.68129 335.37507,363.35611 C 341.63676,365.54877 347.91657,367.69506 354.26497,369.62535 C 358.905,370.9706 363.62485,372.51662 368.46886,372.82111 C 367.64541,373.54774 366.58906,376.74068 364.38386,373.322 C 361.95997,371.31286 359.33948,369.56311 356.54542,368.10583 C 353.16509,366.36426 349.67874,364.8263 346.00971,363.7927 C 342.92863,362.99611 339.78435,362.3414 336.72218,363.59673 C 334.1127,364.72699 331.60422,366.06307 329.14234,367.48522 C 327.01035,368.69053 324.89293,370.06479 322.44608,370.49878 C 320.51173,370.39624 318.8609,370.06814 317.3069,368.76959 C 315.17908,367.04708 313.32713,365.03641 311.56523,362.9451 C 309.10369,360.09732 306.62345,357.26166 303.94117,354.61698 C 300.5455,351.26181 297.04748,348.01386 293.49393,344.82647 C 289.62514,341.3313 285.6743,337.89966 282.14999,334.04951 C 280.03932,331.4597 277.61217,328.55308 279.09809,325.06062 C 281.94874,321.01011 287.28351,319.47181 291.26146,316.84976 C 295.93954,314.35843 300.66423,311.95691 305.3909,309.55937 C 310.28403,307.02914 312.66996,306.02889 317.38561,302.46135 C 319.05309,301.01158 321.22955,299.36209 321.57018,297.17511 C 318.94735,296.14592 316.20715,296.65425 313.44445,297.16397 C 308.60016,298.0375 303.80372,299.13909 299.03066,300.34109 C 293.62641,301.68285 288.242,303.09884 282.86267,304.53687 C 279.98804,305.2368 277.05057,306.10591 274.07656,306.08648 C 273.23625,305.58322 272.57829,305.44481 272.43426,304.31707 C 274.90126,302.42558 276.51784,299.43553 277.69546,302.64788 C 277.51026,303.64202 277.3092,304.63202 276.90674,305.5721 C 276.29151,307.24497 275.65948,308.91438 274.839,310.50068 C 273.85116,312.23292 272.82745,313.9373 271.3713,315.3311 C 268.862,317.59931 265.97044,319.40063 262.78274,320.59441 C 260.6733,321.35537 258.5547,322.0899 256.41483,322.76212 C 253.16793,323.79081 249.91845,324.81186 246.65758,325.79551 C 242.87295,326.92263 239.07475,328.11465 235.15667,328.67485 C 232.73667,328.79602 230.63398,328.55727 230.36504,325.79515 C 230.84035,323.57663 231.50705,321.42822 232.50128,319.37464 C 233.82696,316.37398 235.29686,313.44341 236.74685,310.50148 C 238.19607,307.41009 239.71337,304.23243 240.06611,300.79679 C 239.96646,298.33363 239.23811,296.46835 236.53398,296.11334 C 232.57552,296.00883 228.86127,297.46526 225.25206,298.96083 C 220.3533,301.07413 216.28186,303.08302 213.22639,304.89731 C 208.10713,308.01443 202.95857,311.20792 198.68939,315.4642 C 196.32167,317.94994 193.99349,320.59766 193.04085,323.97678 C 192.84845,325.34057 192.6903,326.63112 193.12424,327.98128 C 193.30919,328.56436 193.46532,329.15615 193.73318,329.71026 L 189.01648,332.14087 z " />
    <path
       style="opacity:1;color:#000000;fill:#161c24;fill-opacity:1;fill-rule:nonzero;stroke:none;stroke-width:3.05800009;stroke-linecap:butt;stroke-linejoin:miter;marker:none;marker-start:none;marker-mid:none;marker-end:none;stroke-miterlimit:4;stroke-dasharray:none;stroke-dashoffset:0;stroke-opacity:1;visibility:visible;display:inline;overflow:visible;enable-background:accumulate"
       id="path5191"
       d="M 137.89797,112.78556 C 135.40573,111.85437 132.92234,110.89456 130.45291,109.90311 C 124.43183,107.48984 118.39488,105.11673 112.38633,102.67215 C 106.32992,100.24575 100.38775,97.555236 94.558384,94.627889 C 89.307496,91.993468 84.362318,88.826768 79.620371,85.37207 C 75.467412,82.344751 71.820626,78.737146 68.479665,74.850586 C 65.673871,71.689396 63.781015,67.982396 62.036194,64.182568 C 60.554966,60.854321 60.52166,57.465435 60.740843,53.927864 C 61.253295,50.358042 63.264608,47.712916 65.456673,45.009969 C 70.348066,40.180856 76.570092,37.277924 82.507274,33.925056 C 86.330823,32.047154 90.432987,30.940315 94.589509,30.100724 C 98.983956,29.303187 103.41079,28.701019 107.83662,28.108756 C 111.87049,27.614372 115.89359,27.042568 119.91335,26.445868 C 123.33658,25.992505 126.68699,25.174223 130.02752,24.3246 C 132.69666,23.631637 135.27145,22.662757 137.81084,21.604508 C 139.17004,20.76979 134.95208,23.022799 133.55773,23.797371 C 134.50438,23.29663 133.58546,22.406186 133.59514,21.920405 C 132.77705,20.995339 131.63356,20.541921 130.60074,19.930931 C 129.31719,19.250753 127.93608,18.829854 126.56735,18.370959 C 125.27023,17.958766 123.91042,17.964216 122.57443,17.845564 C 122.16923,17.829101 121.77015,17.901091 121.36801,17.928855 L 128.52277,10.262726 C 128.98993,10.302386 129.46066,10.299892 129.92425,10.381705 C 131.4273,10.647124 132.94269,10.866288 134.37333,11.43281 C 135.85337,12.023885 137.35557,12.571229 138.73869,13.378933 C 140.11431,14.281265 141.55432,15.090454 142.55575,16.44716 C 143.34435,18.04355 144.16774,19.314547 143.71263,21.206884 C 141.36402,25.799961 136.56564,28.095093 131.60191,29.800275 C 128.9684,30.687245 126.32534,31.55288 123.60949,32.1599 C 120.21253,32.901151 116.80729,33.601421 113.35136,34.017849 C 109.34608,34.561344 105.33721,35.075092 101.32739,35.584024 C 96.958003,36.178468 92.580823,36.774233 88.27307,37.731733 C 84.267199,38.747044 80.34144,40.04367 76.725237,42.083739 C 90.233089,34.227867 78.109278,40.895477 75.423103,43.401226 C 73.269432,45.529878 71.179079,47.598403 70.338755,50.620452 C 69.857549,53.67358 69.711938,56.535106 70.925092,59.490216 C 72.464424,63.060806 74.167897,66.526523 76.756382,69.488899 C 79.92782,73.2321 83.421862,76.677677 87.398376,79.57328 C 92.019414,82.933766 96.84468,86.001133 101.96052,88.561649 C 107.71879,91.451863 113.58425,94.118361 119.56561,96.516706 C 125.5999,98.964446 131.65454,101.38208 137.84527,103.41043 C 140.43199,104.22577 143.01748,105.07035 145.68144,105.60163 L 137.89797,112.78556 z " />
    <path
       d="M 288.21196,55.899418 C 288.9796,56.425832 289.64792,57.111313 290.29856,57.779397 C 292.36469,60.007154 294.04773,62.5396 295.61172,65.133351 C 297.59586,68.6135 299.21637,72.281176 300.71747,75.99001 C 302.28104,79.709406 303.29556,83.598379 304.03686,87.553515 C 304.76532,91.713114 304.8172,95.936827 304.75011,100.14554 C 304.66933,104.06772 304.28046,107.97125 303.73275,111.85286 C 303.2431,115.25316 302.43721,118.59337 301.52047,121.90026 C 300.98126,123.79847 300.36591,125.67345 299.73939,127.54419 L 304.59993,129.97965 C 305.19626,128.06601 305.77107,126.14568 306.29232,124.20999 C 307.18236,120.82139 307.96586,117.40174 308.43967,113.92689 C 308.96349,109.97174 309.33148,105.99703 309.39022,102.00476 C 309.44772,97.717917 309.44075,93.415132 308.79481,89.165307 C 308.08343,85.131948 307.20017,81.130305 305.59575,77.341897 C 304.10923,73.590383 302.48156,69.895841 300.60528,66.320696 C 299.24038,63.714691 297.73945,61.182056 295.9783,58.820575 C 295.4801,58.126205 294.95165,57.44187 294.42279,56.778638 L 288.21196,55.899418 z "
       id="path5155"
       style="opacity:1;color:#000000;fill:#00ffff;fill-opacity:0.49803922;fill-rule:nonzero;stroke:none;stroke-width:3.05800009;stroke-linecap:butt;stroke-linejoin:miter;marker:none;marker-start:none;marker-mid:none;marker-end:none;stroke-miterlimit:4;stroke-dasharray:none;stroke-dashoffset:0;stroke-opacity:1;visibility:visible;display:inline;overflow:visible;enable-background:accumulate" />
    <path
       style="opacity:1;color:#000000;fill:#00ffff;fill-opacity:0.49803922;fill-rule:nonzero;stroke:none;stroke-width:3.05800009;stroke-linecap:butt;stroke-linejoin:miter;marker:none;marker-start:none;marker-mid:none;marker-end:none;stroke-miterlimit:4;stroke-dasharray:none;stroke-dashoffset:0;stroke-opacity:1;visibility:visible;display:inline;overflow:visible;enable-background:accumulate"
       id="path5157"
       d="M 305.91701,37.464134 C 307.0667,38.25255 308.06766,39.279203 309.04213,40.2798 C 312.1366,43.616337 314.65731,47.40921 316.99971,51.2939 C 319.97138,56.506158 322.39844,61.999278 324.64665,67.554041 C 326.98842,73.124622 328.50789,78.949181 329.61814,84.872833 C 330.70915,91.102711 330.78686,97.428614 330.68639,103.73205 C 330.5654,109.60634 329.98298,115.4527 329.16267,121.26624 C 328.42931,126.3589 327.22233,131.36157 325.84931,136.31434 C 325.04173,139.15731 324.12012,141.96549 323.18177,144.76732 L 330.46145,148.41493 C 331.35458,145.54885 332.21549,142.67275 332.99616,139.77365 C 334.32919,134.6985 335.50264,129.57686 336.21227,124.37253 C 336.99681,118.44886 337.54795,112.49589 337.63592,106.51663 C 337.72204,100.09617 337.71161,93.651842 336.74417,87.286832 C 335.67873,81.246024 334.35587,75.252718 331.95291,69.578777 C 329.72652,63.960092 327.28874,58.426735 324.47861,53.0722 C 322.43439,49.169157 320.18643,45.376001 317.54873,41.839184 C 316.80258,40.799218 316.01111,39.774282 315.21904,38.780952 L 305.91701,37.464134 z " />
    <path
       d="M 327.88783,21.327924 C 329.3667,22.342079 330.65425,23.662682 331.90773,24.949769 C 335.8882,29.241621 339.13064,34.120466 342.14371,39.117418 C 345.96623,45.822045 349.08821,52.887951 351.98012,60.033149 C 354.99239,67.198695 356.94691,74.690937 358.37505,82.310644 C 359.77844,90.324256 359.8784,98.461387 359.74915,106.56961 C 359.59353,114.12583 358.84434,121.64611 357.78916,129.12418 C 356.84583,135.67497 355.29327,142.11 353.52712,148.48084 C 352.48832,152.13781 351.30283,155.75002 350.09583,159.35407 L 359.45981,164.04606 C 360.60866,160.35937 361.71606,156.65979 362.72026,152.93062 C 364.43496,146.40235 365.94439,139.81429 366.8572,133.11986 C 367.86638,125.50013 368.57532,117.84271 368.68847,110.15147 C 368.79925,101.89272 368.78583,93.603252 367.5414,85.415818 C 366.17089,77.64541 364.46928,69.936106 361.3783,62.637606 C 358.51446,55.410184 355.3787,48.29252 351.76398,41.404879 C 349.13445,36.38432 346.24286,31.50511 342.84994,26.955635 C 341.89014,25.617907 340.87206,24.299512 339.8532,23.021772 L 327.88783,21.327924 z "
       id="path5159"
       style="opacity:1;color:#000000;fill:#00ffff;fill-opacity:0.49803922;fill-rule:nonzero;stroke:none;stroke-width:3.05800009;stroke-linecap:butt;stroke-linejoin:miter;marker:none;marker-start:none;marker-mid:none;marker-end:none;stroke-miterlimit:4;stroke-dasharray:none;stroke-dashoffset:0;stroke-opacity:1;visibility:visible;display:inline;overflow:visible;enable-background:accumulate" />
    <path
       style="opacity:1;color:#000000;fill:#b5341e;fill-opacity:1;fill-rule:nonzero;stroke:none;stroke-width:3.05800009;stroke-linecap:butt;stroke-linejoin:miter;marker:none;marker-start:none;marker-mid:none;marker-end:none;stroke-miterlimit:4;stroke-dasharray:none;stroke-dashoffset:0;stroke-opacity:1;visibility:visible;display:inline;overflow:visible;enable-background:accumulate"
       d="M 103.54063,71.195348 C 104.04571,71.195348 205.56604,27.253713 205.56604,27.253713 L 267.18535,62.609052 C 267.18535,62.609052 256.07367,81.801951 259.10413,91.3984 C 262.13458,100.99485 265.16504,105.54054 265.16504,105.54054 L 257.08382,140.89587 L 202.53558,167.66492 L 97.47972,120.18775 L 103.54063,71.195348 z "
       id="path3198"
       sodipodi:nodetypes="cccsccccc" />
    <path
       style="opacity:1;color:#000000;fill:#b5341e;fill-opacity:1;fill-rule:nonzero;stroke:none;stroke-width:1px;stroke-linecap:butt;stroke-linejoin:miter;marker:none;marker-start:none;marker-mid:none;marker-end:none;stroke-miterlimit:4;stroke-dasharray:none;stroke-dashoffset:0;stroke-opacity:1;visibility:visible;display:inline;overflow:visible;enable-background:accumulate"
       d="M 163.21429,326.16071 C 160.16835,327.3834 156.50541,329.04234 155.87424,332.6571 C 153.05824,342.35306 151.79476,352.87745 154.57675,362.72834 C 155.36785,365.16086 152.83912,366.80463 150.68283,366.18076 C 148.23804,365.73184 145.95202,364.67808 143.5133,364.19077 C 135.87994,362.09036 129.3448,357.28769 123.80454,351.76971 C 120.64729,349.41506 117.05771,346.39891 117.13155,342.08204 C 116.91053,336.51971 119.61586,331.16275 123.32156,327.16229 C 126.33949,324.48662 130.34235,323.4257 133.89155,321.66538 C 139.88074,319.33048 146.46686,319.25031 152.79689,319.69167 C 156.77692,320.12201 160.84936,320.936 164.36965,322.89542 C 165.77954,323.96852 165.63443,327.16438 163.21429,326.16071 z "
       id="path5272" />
    <path
       style="opacity:1;color:#000000;fill:#f8ff00;fill-opacity:1;fill-rule:nonzero;stroke:none;stroke-width:1px;stroke-linecap:butt;stroke-linejoin:miter;marker:none;marker-start:none;marker-mid:none;marker-end:none;stroke-miterlimit:4;stroke-dasharray:none;stroke-dashoffset:0;stroke-opacity:1;visibility:visible;display:inline;overflow:visible;enable-background:accumulate"
       d="M 213.90657,46.630527 C 208.96859,47.653524 203.92959,48.047059 198.90509,48.361456 C 196.75953,47.228813 191.49759,48.214968 193.38287,51.43714 C 195.23933,53.154395 197.19569,54.826273 198.557,57.013544 C 199.90202,59.062393 201.40452,61.026108 202.82492,63.000303 C 204.17126,65.735736 201.34287,68.179065 198.86147,68.693431 C 196.39817,69.203055 193.88937,69.318164 191.4153,69.842661 C 188.35168,70.261426 185.24076,70.393557 182.15845,70.111958 C 178.4148,71.479402 181.57626,75.054521 183.24821,76.800244 C 186.08447,79.807851 180.9591,81.63071 178.50104,81.621952 C 175.36628,81.818619 172.15412,81.515332 169.12388,82.52154 C 167.45787,83.052604 162.9625,82.127201 162.93397,83.81367 C 166.64915,85.683793 171.22161,84.026857 174.8026,86.323163 C 182.0985,87.53562 188.55994,91.518124 195.84933,92.762193 C 198.54644,93.117822 201.50083,94.207916 204.12606,93.375012 C 206.77021,91.447666 204.65235,88.018353 205.37687,85.402089 C 206.53142,82.445883 210.05977,81.253059 212.97283,80.865358 C 216.51439,80.490302 220.09669,80.770453 223.59106,81.259198 C 226.54595,81.467426 229.41544,78.390309 228.05013,75.487697 C 227.00258,73.239358 224.41127,71.675011 224.60397,68.890502 C 224.3905,64.859814 228.58764,65.032489 231.28194,65.192895 C 234.35484,64.334918 234.84294,59.532614 231.79803,58.291538 C 226.95743,53.371974 221.75739,47.814519 214.65214,46.57347 C 214.40362,46.592486 214.15509,46.611511 213.90657,46.630527 z "
       id="path3196" />
    <path
       style="color:#000000;fill:#00ffff;fill-opacity:0.49803922;fill-rule:nonzero;stroke:none;stroke-width:1px;stroke-linecap:butt;stroke-linejoin:miter;marker:none;marker-start:none;marker-mid:none;marker-end:none;stroke-miterlimit:4;stroke-dasharray:none;stroke-dashoffset:0;stroke-opacity:1;visibility:visible;display:inline;overflow:visible;enable-background:accumulate"
       id="path2186"
       d="M 162.23844,327.8346 C 160.8959,327.0767 159.48163,326.46515 158.05742,325.87857 C 155.55212,324.84437 152.95088,324.09309 150.30662,323.51608 C 147.49989,322.92786 144.63982,322.72617 141.77829,322.73653 C 138.83568,322.76969 135.95967,323.34846 133.1372,324.1343 C 130.17556,325.00732 127.37316,326.31028 124.66155,327.77022 C 119.68617,332.43185 137.79066,318.62907 127.17671,326.90284 C 125.3352,328.27459 123.84529,329.98835 122.41625,331.76265 C 121.22812,333.29342 120.60519,335.06188 120.05989,336.8875 C 119.61164,338.61311 119.77636,340.32409 120.01174,342.05706 C 120.35294,343.90838 121.32003,345.46968 122.30691,347.02991 C 123.50398,348.74542 125.08337,350.10226 126.65483,351.45514 C 128.38583,352.88837 130.34552,353.98125 132.29856,355.07191 C 134.22421,356.09913 136.22514,356.97095 138.22506,357.83989 C 139.98334,358.5859 141.78287,359.22494 143.58313,359.85999 C 145.12666,360.38455 146.69046,360.84468 148.25547,361.29956 C 149.73365,361.72574 151.24764,362.0065 152.75627,362.29881 C 154.21022,362.57223 155.67097,362.80626 157.13208,363.03726 C 158.57472,363.26036 160.02494,363.42737 161.47476,363.59517 C 162.35902,363.69779 163.24709,363.73869 164.13527,363.78383 L 154.90257,370.40843 C 154.01296,370.32925 153.12274,370.25525 152.23623,370.14456 C 150.77592,369.96577 149.31505,369.78835 147.86269,369.55158 C 146.39915,369.30688 144.93605,369.05883 143.48036,368.77015 C 141.94865,368.45631 140.41328,368.14893 138.91739,367.68678 C 137.35026,367.20992 135.7834,366.73013 134.24306,366.17094 C 132.43746,365.50966 130.63229,364.84498 128.87282,364.06653 C 126.86369,363.15899 124.85192,362.25213 122.91681,361.19214 C 120.90344,360.06924 118.92589,358.87311 117.14364,357.40122 C 115.50608,355.96633 113.86437,354.52345 112.60934,352.72267 C 111.53775,351.03783 110.4871,349.34683 110.06404,347.36025 C 109.75381,345.49689 109.50925,343.65137 109.9056,341.76949 C 110.38623,339.80978 110.9424,337.90486 112.11186,336.21894 C 113.50492,334.33694 114.95501,332.50709 116.82255,331.0577 C 121.84249,326.94357 127.60405,323.90602 133.30796,320.82978 C 136.07841,319.43147 138.92929,318.17839 141.93947,317.38662 C 144.83461,316.66919 147.77986,316.16832 150.77475,316.21302 C 153.68833,316.27714 156.59614,316.53582 159.44373,317.18534 C 162.13679,317.8243 164.7886,318.61753 167.35735,319.65608 C 168.91356,320.28174 170.48698,320.90255 171.97378,321.67707 L 162.23844,327.8346 z " />
    <path
       style="opacity:1;color:#000000;fill:#706e8a;fill-opacity:1;fill-rule:nonzero;stroke:none;stroke-width:1px;stroke-linecap:butt;stroke-linejoin:miter;marker:none;marker-start:none;marker-mid:none;marker-end:none;stroke-miterlimit:4;stroke-dasharray:none;stroke-dashoffset:0;stroke-opacity:1;visibility:visible;display:inline;overflow:visible;enable-background:accumulate"
       d="M 171.07143,328.125 C 163.08758,325.21227 153.30823,331.2484 152.33209,339.69048 C 150.27485,347.97878 152.68174,357.28781 158.68766,363.39727 C 163.01342,366.86918 170.08795,365.99488 173.43494,361.57054 C 179.53353,356.39004 183.69783,348.33847 182.70172,340.20632 C 181.57435,334.40731 176.88348,329.38202 171.07143,328.125 z "
       id="path5162" />
    <path
       style="opacity:1;color:#000000;fill:#932a18;fill-opacity:1;fill-rule:nonzero;stroke:none;stroke-width:1px;stroke-linecap:butt;stroke-linejoin:miter;marker:none;marker-start:none;marker-mid:none;marker-end:none;stroke-miterlimit:4;stroke-dasharray:none;stroke-dashoffset:0;stroke-opacity:1;visibility:visible;display:inline;overflow:visible;enable-background:accumulate"
       d="M 120.25 331.21875 C 118.23592 334.49144 116.97194 338.2418 117.125 342.09375 C 117.05116 346.41062 120.65525 349.4266 123.8125 351.78125 C 129.35276 357.29923 135.86663 362.08709 143.5 364.1875 C 145.93872 364.67481 148.24271 365.73858 150.6875 366.1875 C 152.84379 366.81137 155.3536 365.15128 154.5625 362.71875 C 151.99276 353.61942 152.91232 343.97116 155.28125 334.90625 L 120.25 331.21875 z "
       id="path7160" />
    <path
       style="color:#000000;fill:#161c24;fill-opacity:1;fill-rule:nonzero;stroke:none;stroke-width:1px;stroke-linecap:butt;stroke-linejoin:miter;marker:none;marker-start:none;marker-mid:none;marker-end:none;stroke-miterlimit:4;stroke-dasharray:none;stroke-dashoffset:0;stroke-opacity:1;visibility:visible;display:inline;overflow:visible;enable-background:accumulate"
       id="path2188"
       d="M 171.59049,318.92618 C 171.07143,319.39848 170.48556,319.78159 169.91203,320.18256 C 168.79106,320.92251 167.73625,321.75183 166.68475,322.585 C 165.21091,323.75866 163.86083,325.06926 162.52127,326.38988 C 161.0706,327.81171 159.86715,329.43931 158.68437,331.08086 C 157.54734,332.69816 156.71146,334.4825 155.89936,336.27496 C 155.19586,337.87205 154.742,339.55127 154.32153,341.2383 C 153.94766,342.74397 153.94689,344.27747 153.98229,345.81424 C 154.04024,347.21091 154.37648,348.55735 154.74229,349.89694 C 155.12182,351.17668 155.71747,352.36493 156.329,353.54417 C 156.96365,354.68903 157.76354,355.72356 158.56992,356.74913 C 159.32315,357.69971 160.17032,358.56713 161.01475,359.43513 C 161.7513,360.23254 162.62988,360.8608 163.48719,361.5139 C 164.35795,362.1547 165.37621,362.49187 166.37028,362.87737 C 167.39931,363.2832 168.46907,363.231 169.54383,363.25102 C 170.85438,363.10809 172.00275,362.4887 173.15361,361.89768 C 154.4651,373.10727 164.13174,367.28667 167.38348,364.89461 C 168.8152,363.82372 170.04152,362.5264 171.26388,361.23186 C 172.57097,359.84396 173.60525,358.25295 174.61803,356.64908 C 175.62573,355.02998 176.20886,353.23223 176.7609,351.42452 C 177.25207,349.70584 177.38244,347.93257 177.4838,346.15947 C 177.5409,344.55544 177.31956,342.97244 177.06481,341.3957 C 176.84676,340.06258 176.29733,338.85467 175.70218,337.65931 C 175.09554,336.55443 174.19866,335.69203 173.29404,334.83816 C 172.35442,333.98723 171.25867,333.36176 170.16142,332.7449 C 169.05092,332.14094 167.83926,331.78738 166.63245,331.43904 C 165.45055,331.13909 164.24115,330.99931 163.03144,330.87365 C 161.88975,330.74439 160.74991,330.88338 159.61299,330.97461 C 158.54157,331.08902 157.49966,331.36276 156.45485,331.61189 C 155.98809,331.73932 155.52984,331.89443 155.06747,332.03565 L 164.09305,325.06754 C 164.56629,324.94702 165.03326,324.80072 165.51297,324.70591 C 166.58775,324.49972 167.65962,324.26572 168.75724,324.21413 C 169.93958,324.16165 171.12379,324.11943 172.29997,324.29806 C 173.54664,324.47292 174.79465,324.65804 176.00206,325.02879 C 177.26032,325.44749 178.52124,325.87086 179.67164,326.5467 C 180.81953,327.23858 181.96275,327.94217 182.94445,328.86686 C 183.92047,329.82724 184.88497,330.79978 185.54636,332.01718 C 186.19196,333.31587 186.79961,334.62744 187.05189,336.07179 C 187.33288,337.72361 187.57445,339.38165 187.54676,341.06431 C 187.48274,342.91664 187.38497,344.76863 186.92508,346.57569 C 186.41249,348.46705 185.87219,350.35423 184.89994,352.07382 C 183.92789,353.74438 182.93621,355.40612 181.64466,356.85825 C 180.45602,358.20272 179.26319,359.54923 177.87391,360.69525 C 173.70883,363.98949 169.13992,366.69693 164.30445,368.96887 C 163.02529,369.48715 161.75997,369.99975 160.3464,369.93321 C 159.1785,369.83185 158.02361,369.70305 156.93185,369.23351 C 155.87791,368.7634 154.8008,368.3381 153.88206,367.61589 C 152.99349,366.90313 152.08309,366.21472 151.31448,365.36477 C 150.45446,364.46163 149.59734,363.55456 148.82862,362.57046 C 147.99164,361.48429 147.15666,360.39195 146.49218,359.18762 C 145.84278,357.94186 145.21059,356.68692 144.79724,355.3376 C 144.39095,353.91795 144.01534,352.4916 143.92612,351.00834 C 143.8546,349.38176 143.80374,347.75502 144.15124,346.14932 C 144.54099,344.3932 144.97822,342.64901 145.6745,340.98291 C 146.46321,339.12464 147.27703,337.27612 148.38456,335.57829 C 149.53743,333.87978 150.70455,332.18845 152.13958,330.70866 C 153.44176,329.35608 154.7575,328.01709 156.20238,326.81358 C 157.20702,325.95859 158.21761,325.11212 159.3009,324.35658 C 159.84642,323.97999 160.40698,323.6204 160.93366,323.2204 L 171.59049,318.92618 z " />
    <path
       style="opacity:1;color:#000000;fill:#706e8a;fill-opacity:1;fill-rule:nonzero;stroke:none;stroke-width:1px;stroke-linecap:butt;stroke-linejoin:miter;marker:none;marker-start:none;marker-mid:none;marker-end:none;stroke-miterlimit:4;stroke-dasharray:none;stroke-dashoffset:0;stroke-opacity:1;visibility:visible;display:inline;overflow:visible;enable-background:accumulate"
       d="M 168.30357,333.125 C 174.01197,332.52061 179.45895,329.81959 185.2937,330.45465 C 191.53807,330.43149 197.84943,330.23635 204.00582,331.47267 C 207.12336,332.79878 208.49905,337.71935 205.61365,339.96002 C 201.59037,342.78133 196.40605,342.04715 191.77961,342.2426 C 184.23077,342.02049 176.67753,342.14525 169.13173,342.4343 C 165.38639,341.96532 164.48749,336.28288 167.41153,334.22132 C 167.75499,333.89858 168.09115,333.55222 168.30357,333.125 z "
       id="path4173" />
    <path
       style="color:#000000;fill:#161c24;fill-opacity:1;fill-rule:nonzero;stroke:none;stroke-width:1px;stroke-linecap:butt;stroke-linejoin:miter;marker:none;marker-start:none;marker-mid:none;marker-end:none;stroke-miterlimit:4;stroke-dasharray:none;stroke-dashoffset:0;stroke-opacity:1;visibility:visible;display:inline;overflow:visible;enable-background:accumulate"
       id="path2192"
       d="M 169.13055,331.15608 C 169.74432,330.82265 170.40741,330.59389 171.05461,330.33548 C 172.41999,329.79269 173.84529,329.44857 175.26795,329.0977 C 177.40026,328.60549 179.56559,328.27899 181.72983,327.96517 C 184.2812,327.57282 186.85457,327.44453 189.4318,327.40284 C 192.1646,327.35546 194.89235,327.54393 197.61207,327.78819 C 200.12484,328.02174 202.60904,328.46053 205.0753,328.98475 C 207.15745,329.41872 209.17288,330.08611 211.17621,330.78705 C 212.70464,331.31563 214.13793,332.04778 215.54073,332.84039 C 216.49051,333.3033 217.01142,334.06473 217.57649,334.8857 C 217.81477,339.98768 214.98761,338.09261 207.30708,342.59038 C 206.20414,342.89332 205.06654,343.0274 203.93492,343.17122 C 202.37356,343.36563 200.80515,343.48192 199.23573,343.58451 C 197.50105,343.70512 195.76232,343.73977 194.02454,343.78624 C 192.15565,343.83125 190.28582,343.82502 188.41647,343.83029 C 186.48129,343.83398 184.54617,343.79902 182.61116,343.77509 C 180.78255,343.73902 178.95372,343.76061 177.12501,343.77344 C 175.52978,343.79041 173.93762,343.88199 172.34624,343.98633 C 171.86433,344.00302 171.3856,344.06065 170.90527,344.09781 L 180.02148,337.36749 C 180.09814,337.3627 181.39855,337.27643 181.46349,337.27751 C 183.05753,337.19927 184.65215,337.12942 186.24869,337.13733 C 188.07501,337.13309 189.90128,337.13247 191.72734,337.1696 C 193.65852,337.19483 195.58985,337.22659 197.52126,337.20993 C 199.3903,337.19913 201.25974,337.19611 203.12794,337.1327 C 204.86209,337.07505 206.59657,337.01851 208.32685,336.88238 C 209.89174,336.75046 211.45775,336.61846 213.01057,336.37666 C 214.11074,336.17095 215.24544,336.02879 216.20411,335.40716 C 197.01959,346.67736 204.78823,342.40535 207.58493,340.4947 C 207.10996,339.98615 206.78533,339.26763 206.01642,339.0134 C 204.67319,338.27227 203.30456,337.58203 201.84678,337.08677 C 199.88842,336.41993 197.91907,335.78292 195.88632,335.37528 C 193.45894,334.8744 191.01207,334.46845 188.54029,334.26039 C 185.84397,334.03628 183.13925,333.88898 180.43251,333.97527 C 177.86985,334.06068 175.3141,334.25737 172.78154,334.67428 C 170.61133,335.01699 168.44155,335.38511 166.31663,335.95251 C 164.89134,336.36342 163.46366,336.77354 162.10901,337.38934 C 161.44935,337.69081 160.78743,337.98545 160.14117,338.31542 L 169.13055,331.15608 z " />
    <path
       style="opacity:1;color:#000000;fill:#706e8a;fill-opacity:1;fill-rule:nonzero;stroke:none;stroke-width:1px;stroke-linecap:butt;stroke-linejoin:miter;marker:none;marker-start:none;marker-mid:none;marker-end:none;stroke-miterlimit:4;stroke-dasharray:none;stroke-dashoffset:0;stroke-opacity:1;visibility:visible;display:inline;overflow:visible;enable-background:accumulate"
       d="M 171.33929,348.83929 C 184.30251,349.40108 197.58588,348.63684 210.13909,352.52775 C 214.53664,361.29468 199.74787,359.43018 194.56798,359.52949 C 185.62326,359.8513 176.29485,361.26523 167.60355,358.63207 C 161.11109,355.55236 164.22804,346.77659 171.33929,348.83929 z "
       id="path5150" />
    <path
       style="color:#000000;fill:#161c24;fill-opacity:1;fill-rule:nonzero;stroke:none;stroke-width:1px;stroke-linecap:butt;stroke-linejoin:miter;marker:none;marker-start:none;marker-mid:none;marker-end:none;stroke-miterlimit:4;stroke-dasharray:none;stroke-dashoffset:0;stroke-opacity:1;visibility:visible;display:inline;overflow:visible;enable-background:accumulate"
       id="path2198"
       d="M 174.99301,344.12312 C 175.56902,344.12774 176.14697,344.10893 176.7235,344.091 C 178.00694,344.05518 179.2904,344.01231 180.57402,343.97762 C 182.53921,343.91554 184.50502,343.91923 186.47079,343.92336 C 188.72605,343.89799 190.97354,344.0571 193.21985,344.23059 C 195.41599,344.41132 197.59574,344.73133 199.7737,345.0574 C 201.78597,345.37443 203.78302,345.77267 205.77594,346.19149 C 207.51198,346.55586 209.211,347.05947 210.90308,347.58514 C 212.30885,348.02028 213.65366,348.61069 214.98761,349.22431 C 216.04538,349.64818 216.84709,350.39421 217.67547,351.13006 C 218.40671,351.98871 218.17559,352.58568 217.99098,353.53423 C 214.56233,357.27241 209.89611,359.18951 205.19272,360.39975 C 203.84796,360.73554 202.48237,360.96871 201.11757,361.20404 C 199.82543,361.43005 198.52585,361.60584 197.22508,361.77267 C 195.68508,361.9309 194.13913,361.99963 192.59302,362.06047 C 190.77548,362.13162 188.95741,362.17404 187.13877,362.1995 C 185.40403,362.22641 183.66953,362.23492 181.93471,362.22167 C 180.36271,362.20998 178.79084,362.1899 177.21918,362.16031 C 175.78766,362.13696 174.35876,362.06285 172.93001,361.97761 C 171.6383,361.89049 170.35064,361.7546 169.06472,361.60669 C 167.94464,361.48955 166.8338,361.30372 165.72136,361.13219 C 165.21702,361.0633 164.71974,360.95399 164.21891,360.86489 L 173.55911,354.33492 C 174.05226,354.4188 174.54354,354.51429 175.03867,354.58654 C 176.13478,354.74786 177.22978,354.9191 178.33238,355.03239 C 179.60095,355.16687 180.87018,355.29923 182.14436,355.36983 C 183.55937,355.44056 184.9748,355.49951 186.39145,355.52769 C 187.95346,355.55159 189.5155,355.57504 191.07765,355.58924 C 192.80148,355.59237 194.5253,355.58679 196.24901,355.56016 C 198.06445,355.52235 199.87979,355.47702 201.69351,355.38528 C 203.2373,355.29072 204.78318,355.20091 206.31602,354.98427 C 207.60514,354.79825 208.89413,354.6105 210.17619,354.37959 C 211.5243,354.12739 212.87327,353.87088 214.19103,353.48416 C 214.94166,353.23874 217.07392,352.20911 216.39226,352.60787 C 213.28333,354.42651 210.16979,356.23722 207.05856,358.0519 C 207.17915,358.00303 207.29974,357.95417 207.42034,357.90529 C 207.54963,357.6852 208.68558,357.62245 207.91365,357.06547 C 207.17339,356.4507 206.44021,355.84238 205.52214,355.48476 C 204.226,354.90878 202.91989,354.35488 201.55929,353.94442 C 199.89881,353.4427 198.2318,352.96247 196.53056,352.61457 C 194.55936,352.20954 192.58541,351.81573 190.59463,351.51649 C 188.43593,351.2083 186.27548,350.90453 184.09901,350.74803 C 181.8665,350.6004 179.63297,350.47675 177.3939,350.51615 C 175.41148,350.53485 173.42926,350.56092 171.44856,350.65449 C 170.13689,350.71091 168.82562,350.77491 167.51385,350.82815 C 166.90046,350.8569 166.28779,350.8885 165.67376,350.89394 L 174.99301,344.12312 z " />
    <path
       style="color:#000000;fill:#cf7a00;fill-opacity:0.62126243;fill-rule:nonzero;stroke:none;stroke-width:1px;stroke-linecap:butt;stroke-linejoin:miter;marker:none;marker-start:none;marker-mid:none;marker-end:none;stroke-miterlimit:4;stroke-dasharray:none;stroke-dashoffset:0;stroke-opacity:1;visibility:visible;display:inline;overflow:visible;enable-background:accumulate"
       id="path2204"
       d="M 215.16926,48.122154 C 214.72798,48.094175 214.28484,48.111973 213.84308,48.118454 C 212.55034,48.152774 211.26046,48.262236 209.97092,48.35584 C 208.36571,48.465291 206.75972,48.563363 205.15357,48.658335 C 203.60063,48.753124 202.0485,48.859791 200.49645,48.967831 C 199.15352,49.06022 197.81014,49.145836 196.46658,49.228734 C 195.35441,49.288034 194.24388,49.371979 193.13351,49.457238 C 192.23451,49.523258 191.33843,49.619516 190.44319,49.722632 C 189.81905,49.736607 189.31306,49.978455 188.78781,50.248522 C 195.45673,46.638031 192.31927,46.382226 193.96691,48.603326 C 194.80693,49.549645 195.73012,50.417809 196.64931,51.285954 C 197.62297,52.192569 198.59932,53.096353 199.56783,54.008493 C 200.46274,54.83483 201.34101,55.678399 202.21427,56.527454 C 202.95909,57.251922 203.68642,57.9941 204.41551,58.734309 C 205.03016,59.35211 205.62461,59.989192 206.21594,60.629139 C 206.73709,61.144771 207.13538,61.733447 207.4779,62.373367 C 207.73897,62.991317 207.61074,63.497324 207.38103,64.087347 C 207.02526,64.720852 206.44891,65.115989 205.86698,65.517239 C 203.47553,67.081255 201.18097,68.279167 198.57306,69.179171 C 197.59077,69.505221 196.57825,69.714656 195.56685,69.924658 C 194.38166,70.148035 193.18771,70.319426 191.99321,70.483919 C 190.83831,70.655773 189.67972,70.799955 188.52092,70.942293 C 187.47688,71.075983 186.42828,71.166867 185.38002,71.259381 C 184.45587,71.341 183.53044,71.406236 182.60493,71.470311 C 181.75415,71.527838 180.90261,71.572838 180.05108,71.617486 C 179.2905,71.65194 178.53034,71.687835 177.77079,71.740183 C 175.55779,71.981341 172.82477,74.070477 181.41655,69.427843 C 180.99449,69.368117 181.37931,69.713289 181.36272,69.840454 C 181.65924,70.246529 182.02343,70.593999 182.37216,70.953422 C 182.83269,71.414306 183.31604,71.850826 183.80102,72.285528 C 184.32107,72.749824 184.83765,73.217965 185.35333,73.687135 C 185.84164,74.130376 186.31464,74.590061 186.78924,75.047835 C 187.23709,75.423993 187.5459,75.904296 187.86834,76.379328 C 188.13352,76.842419 188.03236,77.226492 187.95299,77.70514 C 186.5365,79.683649 183.93996,80.516533 181.66701,81.327068 C 180.85244,81.584064 180.0125,81.744313 179.17624,81.911097 C 178.11274,82.111804 177.04031,82.255305 175.96788,82.397442 C 174.799,82.551617 173.62738,82.683883 172.45594,82.81697 C 171.32797,82.945773 170.20001,83.074486 169.07153,83.19887 C 168.08579,83.301613 167.10128,83.415443 166.11621,83.524443 C 165.26556,83.615262 164.41446,83.7006 163.5644,83.796656 C 162.81979,83.8743 162.07712,83.968699 161.33444,84.06232 C 160.65436,84.148326 159.97369,84.228581 159.29471,84.321952 C 158.87713,84.307192 158.53998,84.52739 158.21224,84.678093 C 159.83621,83.720417 161.46015,82.762748 163.08411,81.805083 C 162.929,81.505749 163.40459,81.784319 163.53136,81.776096 C 164.22683,81.94862 164.93607,82.056954 165.64255,82.172734 C 166.64609,82.328445 167.64919,82.487013 168.65252,82.644089 C 169.84832,82.829641 171.03798,83.050205 172.22417,83.288867 C 173.66014,83.575353 175.0872,83.904134 176.51445,84.230771 C 178.14211,84.608886 179.76599,85.002897 181.38973,85.397403 C 182.98344,85.786022 184.57043,86.201957 186.15494,86.626364 C 187.58833,87.005933 189.00807,87.433903 190.42581,87.867545 C 191.71621,88.25874 192.99966,88.671808 194.28375,89.083054 C 195.51204,89.484645 196.72992,89.916891 197.95128,90.338883 C 199.18654,90.766906 200.42492,91.185916 201.66612,91.596421 C 202.68437,91.9604 203.72763,92.23089 204.78126,92.465601 C 205.49067,92.666354 206.12348,92.515758 206.80348,92.354181 C 209.43021,90.826872 200.48694,96.356091 202.99002,94.254266 C 203.33117,93.872359 203.37989,93.40278 203.48378,92.927338 C 203.54572,92.363682 203.49506,91.798299 203.46615,91.234726 C 203.42697,90.685862 203.36,90.139745 203.29726,89.593305 C 203.23736,89.0635 203.13298,88.54085 203.036,88.017129 C 202.92793,87.521629 202.85191,87.020663 202.77237,86.520227 C 202.69708,86.085556 202.72514,85.648738 202.74042,85.212007 C 202.75385,84.796319 202.95707,84.470425 203.14241,84.118755 C 204.72602,82.446734 207.17712,81.677006 209.10482,80.637005 C 209.633,80.433572 210.19147,80.331875 210.744,80.219712 C 211.43626,80.086871 212.13626,80.003657 212.83557,79.919079 C 213.64279,79.840483 214.45266,79.796096 215.26223,79.750782 C 216.11803,79.70611 216.97429,79.67136 217.83054,79.637003 C 218.63723,79.604558 219.44424,79.582379 220.25128,79.561071 C 221.03307,79.541676 221.81498,79.528585 222.59693,79.516073 C 223.35663,79.504024 224.11642,79.499557 224.87621,79.495504 C 225.66295,79.486247 226.44946,79.508843 227.23595,79.525087 C 227.96119,79.570343 228.68162,79.532601 229.403,79.465499 C 231.45203,79.011524 234.83959,76.713493 225.94685,81.565236 C 226.39647,81.32965 226.50223,80.946868 226.68436,80.517555 C 226.83168,79.937992 226.72364,79.372879 226.61872,78.798887 C 226.45678,78.083338 226.15564,77.415819 225.85787,76.749747 C 225.52118,76.022213 225.10655,75.336314 224.69095,74.652383 C 224.28051,73.986563 223.83935,73.340287 223.40121,72.692546 C 222.99895,72.098264 222.57933,71.516252 222.15595,70.936948 C 221.7693,70.454434 221.42576,69.942335 221.07971,69.431509 C 220.7809,69.023961 220.7794,68.607653 220.75412,68.138785 C 221.69844,65.983732 224.62078,65.594336 226.60317,64.522694 C 227.18559,64.320015 227.79316,64.212914 228.39696,64.097659 C 229.04465,63.978308 229.6954,63.877075 230.34626,63.776978 C 230.93816,63.697292 231.53219,63.641695 232.12765,63.598726 C 232.66514,63.556695 233.20461,63.558209 233.74316,63.550786 C 234.22714,63.585822 234.70625,63.544692 235.18617,63.505802 C 236.63497,62.915172 232.46484,65.05067 231.0918,65.800751 C 231.39574,65.635181 231.40558,65.341414 231.51657,65.05734 C 231.59382,64.674532 231.52041,64.296007 231.47609,63.916085 C 231.40179,63.435306 231.1911,62.998821 231.00743,62.55448 C 230.74716,61.969045 230.39493,61.433389 230.04893,60.896763 C 229.63972,60.263336 229.17267,59.672212 228.7028,59.083691 C 228.24115,58.506554 227.73785,57.964942 227.23826,57.420969 C 226.75277,56.888876 226.23138,56.392446 225.7048,55.901821 C 225.1792,55.410207 224.62412,54.952789 224.06513,54.500158 C 223.49028,54.033387 222.88462,53.606737 222.28163,53.177604 C 221.67774,52.741476 221.05488,52.33285 220.43305,51.923043 C 219.84667,51.533633 219.24127,51.174051 218.63608,50.814932 C 218.06381,50.474686 217.4748,50.16493 216.88511,49.856414 C 216.35105,49.571308 215.80077,49.319376 215.24925,49.070566 C 214.74559,48.8468 214.23687,48.635195 213.72803,48.423633 C 213.26079,48.221288 212.78007,48.053924 212.30154,47.881296 C 212.22476,47.855512 212.14798,47.829738 212.07121,47.803986 L 216.85909,44.713426 C 216.93674,44.741105 217.01442,44.768777 217.09206,44.796465 C 217.57406,44.980131 218.0576,45.15993 218.53004,45.367635 C 219.03992,45.584961 219.55081,45.800001 220.05426,46.032052 C 220.60861,46.29355 221.16123,46.558789 221.69971,46.852149 C 222.29319,47.169768 222.88499,47.490471 223.46121,47.838885 C 224.06883,48.206085 224.67599,48.574435 225.26481,48.971503 C 225.88888,49.388096 226.51293,49.804866 227.12124,50.244412 C 227.73231,50.682305 228.3448,51.11911 228.9262,51.596419 C 229.49181,52.059703 230.05436,52.526897 230.58618,53.029318 C 231.11908,53.534783 231.64883,54.044017 232.14223,54.588874 C 232.64723,55.143807 233.15477,55.697278 233.62,56.286611 C 234.09854,56.890472 234.57358,57.497297 234.99788,58.141358 C 235.36421,58.699422 235.73684,59.256244 236.01971,59.863114 C 236.22985,60.34622 236.46549,60.821385 236.56861,61.343177 C 236.63933,61.773431 236.7369,62.202578 236.69898,62.642696 C 236.65021,63.021782 236.62971,63.40175 236.4371,63.744892 C 234.69586,64.736698 232.77433,66.68115 230.52455,66.801432 C 230.03885,66.801909 229.5531,66.800191 229.06732,66.800447 C 228.53793,66.817362 228.00801,66.827472 227.48027,66.876865 C 226.89625,66.936481 226.31092,66.988125 225.73131,67.08439 C 225.0866,67.187677 224.44146,67.289895 223.80193,67.422478 C 223.20963,67.560462 222.61151,67.690317 222.06273,67.963195 C 223.36853,67.243773 227.26417,65.04782 225.98403,65.811982 C 225.9761,66.106313 225.75166,66.360094 226.065,66.681243 C 226.39489,67.183762 226.72403,67.68617 227.09775,68.15892 C 227.52001,68.745996 227.94006,69.334687 228.343,69.935288 C 228.78223,70.591756 229.22282,71.247692 229.63653,71.920679 C 230.06249,72.623784 230.48864,73.328064 230.8388,74.073187 C 231.15808,74.772716 231.47857,75.473793 231.66874,76.222453 C 231.80943,76.858942 231.9577,77.496141 231.86512,78.152996 C 231.74354,78.671927 231.67976,79.184258 231.29552,79.593652 C 228.82157,80.971881 227.3018,82.496153 224.76954,82.738965 C 224.04083,82.766627 223.31298,82.768722 222.58391,82.738405 C 221.79922,82.72393 221.01454,82.711122 220.2297,82.723108 C 219.47093,82.72944 218.71215,82.735902 217.95344,82.748246 C 217.17387,82.761184 216.39431,82.774131 215.61494,82.795672 C 214.81092,82.818652 214.00693,82.842262 213.20324,82.874288 C 212.34975,82.90899 211.49615,82.942911 210.64349,82.994994 C 209.83653,83.049193 209.02851,83.098574 208.22601,83.202721 C 207.53045,83.300436 206.83364,83.395689 206.14876,83.5551 C 205.60861,83.692665 205.06356,83.822903 204.57012,84.092932 C 213.02729,79.48444 210.19549,80.889576 208.45564,82.007422 C 208.24132,82.258413 207.97983,82.442953 207.92226,82.799243 C 207.88632,83.190905 207.80541,83.58156 207.87641,83.978649 C 207.94326,84.469627 208.00676,84.960966 208.1147,85.445417 C 208.21545,85.98039 208.32589,86.514098 208.39019,87.05519 C 208.4573,87.612187 208.52662,88.168918 208.57071,88.728441 C 208.61171,89.319748 208.65518,89.912391 208.63082,90.505507 C 208.58163,91.056932 208.53324,91.605923 208.27283,92.107153 C 206.86635,94.028783 204.51746,95.093608 202.21167,95.713964 C 201.49232,95.785611 200.78881,95.772753 200.08366,95.572469 C 199.03559,95.298852 197.99643,94.99698 196.97616,94.630282 C 195.73969,94.210371 194.50454,93.786652 193.26978,93.361746 C 192.04871,92.942549 190.82818,92.521638 189.60141,92.119255 C 188.32604,91.703767 187.04945,91.292127 185.76711,90.898559 C 184.35824,90.466729 182.94646,90.043961 181.52289,89.662701 C 179.94715,89.236794 178.36988,88.815532 176.78281,88.433568 C 175.1567,88.039112 173.52901,87.650982 171.8962,87.285154 C 170.46166,86.966063 169.02604,86.6508 167.58159,86.379217 C 166.39005,86.155207 165.19578,85.946329 163.99622,85.769509 C 162.9843,85.616744 161.97215,85.465482 160.95996,85.314476 C 160.22311,85.195349 159.48184,85.089566 158.75949,84.897043 C 156.08265,83.723128 159.3666,82.665811 162.76512,81.177035 C 163.14779,81.126036 163.53398,81.079693 163.91696,81.022023 C 164.59433,80.94344 165.27155,80.863463 165.94774,80.774938 C 166.68907,80.687612 167.43044,80.600575 168.17303,80.524422 C 169.01843,80.437056 169.86427,80.353989 170.70937,80.263728 C 171.68828,80.157684 172.66716,80.051211 173.64671,79.951138 C 174.77033,79.829009 175.89349,79.702691 177.01654,79.575377 C 178.18755,79.440092 179.35879,79.305958 180.52654,79.144443 C 181.59978,78.98969 182.67354,78.834745 183.73513,78.610635 C 184.56795,78.422461 185.40919,78.249078 186.20285,77.924988 C 189.23108,76.464869 179.81746,81.519817 182.67668,79.903458 C 182.78853,79.609218 183.09206,79.505943 182.86138,79.111133 C 182.57494,78.681956 182.29422,78.253477 181.89058,77.915481 C 181.42073,77.46125 180.95234,77.005271 180.46871,76.565635 C 179.95521,76.097317 179.44145,75.629217 178.92048,75.169177 C 178.42764,74.727388 177.93578,74.284493 177.46394,73.82007 C 177.08212,73.434665 176.6921,73.053674 176.37017,72.61482 C 176.15819,72.210012 175.91241,71.8838 176.04046,71.402829 C 179.31493,69.611351 179.77808,68.596799 182.40867,68.479713 C 183.16434,68.443218 183.92023,68.411071 184.67588,68.373724 C 185.52296,68.328682 186.37004,68.283145 187.21631,68.224299 C 188.13562,68.159702 189.05486,68.093865 189.97297,68.013655 C 191.01198,67.920597 192.05085,67.825502 193.08576,67.692961 C 194.23915,67.549029 195.39192,67.400693 196.5422,67.23347 C 197.73394,67.064129 198.92519,66.885075 200.10344,66.636419 C 201.11097,66.403466 202.11992,66.169919 203.09277,65.812539 C 205.19229,65.009141 209.21205,62.896181 200.54397,67.432853 C 201.1204,67.108776 201.6973,66.792635 202.12866,66.275311 C 202.38988,65.850277 202.62452,65.585008 202.46523,65.055678 C 202.13822,64.482693 201.81731,63.914856 201.32273,63.453929 C 200.73981,62.816752 200.15347,62.182773 199.54975,61.565118 C 198.83171,60.822477 198.11575,60.077566 197.37869,59.353682 C 196.51442,58.50349 195.64477,57.659045 194.75805,56.832178 C 193.79209,55.918094 192.81807,55.01259 191.84445,54.106707 C 190.90682,53.22176 189.96708,52.336577 189.09072,51.390094 C 186.87027,48.655703 189.01134,48.875344 193.3116,46.767221 C 193.88474,46.624449 194.45672,46.480115 195.05152,46.448097 C 195.94251,46.362943 196.8337,46.279873 197.72675,46.218615 C 198.82986,46.144762 199.93314,46.07418 201.03731,46.017263 C 202.37091,45.940377 203.70435,45.860582 205.03724,45.772145 C 206.5834,45.671216 208.12973,45.572852 209.67642,45.480412 C 211.28575,45.382996 212.89509,45.284068 214.50271,45.161371 C 215.82479,45.059008 217.14663,44.943007 218.4716,44.885584 C 218.95085,44.867373 219.42981,44.845712 219.90949,44.850601 L 215.16926,48.122154 z " />
    <path
       style="opacity:1;color:#000000;fill:#00ffff;fill-opacity:0.49803922;fill-rule:nonzero;stroke:none;stroke-width:3.05800009;stroke-linecap:butt;stroke-linejoin:miter;marker:none;marker-start:none;marker-mid:none;marker-end:none;stroke-miterlimit:4;stroke-dasharray:none;stroke-dashoffset:0;stroke-opacity:1;visibility:visible;display:inline;overflow:visible;enable-background:accumulate"
       id="path2195"
       d="M 260.41173,140.34574 C 259.84182,140.88042 259.09582,141.27496 258.39596,141.70701 C 256.82304,142.55961 255.1869,143.34251 253.56196,144.13643 C 251.43746,145.15124 249.30519,146.1566 247.17125,147.15997 C 245.01708,148.17061 242.86455,149.18322 240.71035,150.19381 C 238.79784,151.08075 236.93646,152.02739 235.0829,152.98237 C 233.44724,153.8462 231.8144,154.71291 230.18859,155.58732 C 228.75096,156.37337 227.31906,157.16539 225.88893,157.95914 C 224.59765,158.67214 223.32607,159.40501 222.04636,160.12969 C 220.87951,160.78938 219.73126,161.46772 218.5825,162.14536 C 217.53491,162.74654 216.52182,163.38105 215.50572,164.01201 C 214.88122,164.36972 214.29703,164.76342 213.6967,165.14325 L 201.88872,166.4034 C 202.49288,165.98902 203.09574,165.57403 203.70998,165.16801 C 204.75175,164.52861 205.78931,163.88551 206.82538,163.24075 C 207.99593,162.55715 209.16119,161.86876 210.32684,161.18062 C 211.61275,160.44054 212.91122,159.71335 214.20471,158.98074 C 215.64995,158.16737 217.10669,157.3656 218.57702,156.57827 C 220.21411,155.67909 221.85288,154.7813 223.53126,153.92629 C 225.41159,152.92756 227.29543,151.93259 229.24061,151.00645 C 231.40363,149.98747 233.57423,148.97781 235.74169,147.96422 C 237.84428,146.97706 239.94824,145.99159 242.02725,144.97622 C 243.55696,144.23692 245.08288,143.49338 246.57219,142.70775 C 247.16031,142.40697 247.79148,142.1131 248.34022,141.79154 L 260.41173,140.34574 z " />
    <path
       style="opacity:1;color:#000000;fill:#00ffff;fill-opacity:0.49803922;fill-rule:nonzero;stroke:none;stroke-width:3.05800009;stroke-linecap:butt;stroke-linejoin:miter;marker:none;marker-start:none;marker-mid:none;marker-end:none;stroke-miterlimit:4;stroke-dasharray:none;stroke-dashoffset:0;stroke-opacity:1;visibility:visible;display:inline;overflow:visible;enable-background:accumulate"
       id="path2201"
       d="M 263.26229,63.957771 C 262.68842,63.593017 262.06615,63.273851 261.45936,62.941296 C 260.101,62.184759 258.68034,61.495001 257.2754,60.789215 C 255.28606,59.806744 253.27049,58.854876 251.26504,57.891188 C 248.93825,56.787816 246.61337,55.682223 244.29519,54.568659 C 242.01408,53.499021 239.78876,52.364407 237.55933,51.235458 C 235.57415,50.234347 233.60546,49.215489 231.6478,48.184346 C 229.93594,47.27539 228.26001,46.329134 226.57895,45.388475 C 225.1188,44.557508 223.63683,43.748603 222.16198,42.932554 C 220.89941,42.224424 219.62717,41.526345 218.36715,40.815695 C 217.25607,40.195804 216.16008,39.560629 215.06313,38.926708 C 214.08624,38.349145 213.1124,37.768785 212.13921,37.187717 C 211.24766,36.657083 210.3491,36.133171 209.45346,35.606611 C 208.62142,35.116855 207.82325,34.595486 207.01694,34.082256 C 206.25376,33.606549 205.49677,33.125344 204.73774,32.64599 C 204.01076,32.180489 203.28309,31.715634 202.55398,31.252004 C 201.85956,30.801904 201.17645,30.342121 200.4849,29.8894 C 199.91692,29.524613 199.34023,29.167692 198.7687,28.806339 L 207.13076,24.288235 C 207.71586,24.666015 208.30207,25.042805 208.8864,25.421242 C 209.56748,25.870543 210.24624,26.321909 210.93615,26.763567 C 211.65408,27.230307 212.37123,27.69776 213.09597,28.158555 C 213.85685,28.640539 214.62038,29.120203 215.37613,29.606725 C 216.14891,30.098489 216.91565,30.596077 217.71679,31.061946 C 218.60832,31.603746 219.499,32.146373 220.39478,32.684235 C 221.35338,33.258232 222.30944,33.834588 223.26831,34.408333 C 224.34498,35.045638 225.42176,35.682888 226.51259,36.3065 C 227.75368,37.016913 228.99731,37.724805 230.23377,38.439759 C 231.68857,39.272546 233.14561,40.103106 234.59435,40.941852 C 236.23752,41.880939 237.87737,42.823595 239.55385,43.729127 C 241.47284,44.763152 243.40345,45.784533 245.35018,46.788982 C 247.53616,47.920067 249.72601,49.047775 251.97728,50.104904 C 254.29918,51.21172 256.62522,52.313738 258.97179,53.390841 C 261.02881,54.334317 263.09274,55.269262 265.14635,56.216942 C 266.61987,56.902059 268.08706,57.594707 269.55938,58.281231 C 270.29077,58.614767 271.02613,58.944459 271.74629,59.291273 L 263.26229,63.957771 z " />
    <path
       style="opacity:1;color:#000000;fill:#00ffff;fill-opacity:0.49803922;fill-rule:nonzero;stroke:none;stroke-width:3.05800009;stroke-linecap:butt;stroke-linejoin:miter;marker:none;marker-start:none;marker-mid:none;marker-end:none;stroke-miterlimit:4;stroke-dasharray:none;stroke-dashoffset:0;stroke-opacity:1;visibility:visible;display:inline;overflow:visible;enable-background:accumulate"
       id="path2205"
       d="M 96.828772,72.533097 C 97.258544,71.873555 98.044362,71.43604 98.729186,70.941159 C 103.66404,68.273632 109.19663,66.17185 114.42683,63.907541 C 120.28832,61.567947 126.07178,59.120534 131.85707,56.675653 C 141.01002,52.763192 150.15916,48.845787 159.33455,44.963438 C 169.14124,40.798035 178.93271,36.612228 188.74347,32.452309 C 195.48804,29.587604 202.21787,26.703185 208.96074,23.836217 L 203.40851,29.81729 C 196.78278,32.563809 190.16274,35.318175 183.53489,38.061771 C 173.79677,42.101871 164.07514,46.165275 154.40557,50.298584 C 145.02415,54.356762 135.68974,58.47629 126.37904,62.626531 C 120.30534,65.328577 114.20827,68.00049 108.14705,70.71842 C 121.9296,64.739233 113.62623,68.28525 110.53796,69.879501 C 109.96699,70.158795 109.37832,70.461869 108.81415,70.725942 L 96.828772,72.533097 z " />
    <path
       style="opacity:1;color:#000000;fill:#00ffff;fill-opacity:0.49803922;fill-rule:nonzero;stroke:none;stroke-width:3.05800009;stroke-linecap:butt;stroke-linejoin:miter;marker:none;marker-start:none;marker-mid:none;marker-end:none;stroke-miterlimit:4;stroke-dasharray:none;stroke-dashoffset:0;stroke-opacity:1;visibility:visible;display:inline;overflow:visible;enable-background:accumulate"
       id="path2209"
       d="M 107.94508,69.709515 C 107.8093,71.208786 107.84458,72.733814 107.82923,74.245151 C 107.81345,77.56551 107.65936,80.875939 107.50611,84.185579 C 107.274,88.3728 106.88623,92.531918 106.50425,96.690205 C 106.14762,100.66882 105.6459,104.60837 105.1356,108.54374 C 104.77182,111.41163 104.31009,114.24357 103.84646,117.07457 L 92.724533,122.46267 C 93.239343,119.71216 93.777119,116.96915 94.177123,114.16985 C 94.737386,110.32453 95.287991,106.47494 95.685029,102.57786 C 96.079971,98.55357 96.503403,94.531441 96.68341,90.465173 C 96.810401,87.352915 96.948247,84.235253 96.844837,81.114227 C 96.783516,79.656595 96.77002,78.188797 96.588104,76.749636 L 107.94508,69.709515 z " />
    <path
       d="M 200.82116,170.88505 C 200.11433,170.45325 199.34941,170.07874 198.60186,169.68848 C 196.13653,168.37578 193.65861,167.07882 191.13894,165.82586 C 185.13582,162.91536 179.03537,160.12082 172.92074,157.34684 C 163.91236,153.3059 154.95791,149.19652 145.94834,145.15726 C 136.18981,140.76431 126.39652,136.41833 116.53683,132.15633 C 107.88828,128.42316 99.209129,124.73087 90.514631,121.05931 C 89.266066,120.53105 88.017497,120.0028 86.768928,119.47454 L 94.317479,114.95168 C 95.531069,115.49973 96.744659,116.04777 97.958249,116.59583 C 106.44997,120.41364 114.95314,124.21686 123.46442,128.0097 C 133.24446,132.36783 143.05333,136.68844 152.82604,141.05589 C 161.9409,145.09115 171.12649,149.03287 180.39315,152.86572 C 186.78272,155.5379 193.20708,158.16047 199.63936,160.7733 C 202.41729,161.9115 205.19449,163.05196 207.96669,164.19735 C 208.78668,164.54608 209.60067,164.9035 210.42679,165.24288 L 200.82116,170.88505 z "
       id="path2213"
       style="opacity:1;color:#000000;fill:#00ffff;fill-opacity:0.49803922;fill-rule:nonzero;stroke:none;stroke-width:3.05800009;stroke-linecap:butt;stroke-linejoin:miter;marker:none;marker-start:none;marker-mid:none;marker-end:none;stroke-miterlimit:4;stroke-dasharray:none;stroke-dashoffset:0;stroke-opacity:1;visibility:visible;display:inline;overflow:visible;enable-background:accumulate" />
    <path
       style="opacity:1;color:#000000;fill:#00ffff;fill-opacity:0.49803922;fill-rule:nonzero;stroke:none;stroke-width:3.05800009;stroke-linecap:butt;stroke-linejoin:miter;marker:none;marker-start:none;marker-mid:none;marker-end:none;stroke-miterlimit:4;stroke-dasharray:none;stroke-dashoffset:0;stroke-opacity:1;visibility:visible;display:inline;overflow:visible;enable-background:accumulate"
       id="path2221"
       d="M 274.66033,59.447187 C 274.43615,59.907931 274.16051,60.355918 273.89504,60.806178 C 273.43843,61.540907 272.96727,62.270224 272.5039,63.002331 C 271.88692,63.921919 271.32844,64.863387 270.7545,65.798653 C 270.07938,66.896718 269.51188,68.02896 268.94404,69.160296 C 268.32665,70.408819 267.81235,71.683146 267.30942,72.959794 C 266.80071,74.31908 266.35991,75.691627 265.92183,77.06461 C 265.48344,78.445219 265.08212,79.83216 264.68602,81.219954 C 264.30006,82.587896 263.99554,83.967633 263.68101,85.345649 C 263.38404,86.618122 263.11741,87.894377 262.85456,89.171066 C 262.60722,90.30191 262.43402,91.440054 262.25131,92.577322 C 262.14015,93.251595 262.09613,93.930246 262.02713,94.607167 L 250.92775,97.794089 C 250.98599,97.070117 251.00886,96.343548 251.13083,95.622991 C 251.29544,94.441697 251.46372,93.261087 251.72924,92.089617 C 252.00163,90.791404 252.27769,89.493596 252.59006,88.200446 C 252.92315,86.802856 253.22873,85.401647 253.57824,84.006324 C 253.95842,82.593915 254.35987,81.185325 254.78966,79.78099 C 255.22427,78.386162 255.63608,76.986798 256.13271,75.603516 C 256.5889,74.268578 257.06183,72.937748 257.65238,71.632252 C 258.18894,70.455822 258.71507,69.275639 259.33425,68.121865 C 259.86534,67.156454 260.4244,66.200655 260.9693,65.239582 C 261.41717,64.540461 261.8621,63.841052 262.25447,63.122856 C 262.47871,62.719952 262.74249,62.33025 262.95108,61.927722 L 274.66033,59.447187 z " />
    <path
       style="color:#000000;fill:#161c24;fill-opacity:1;fill-rule:nonzero;stroke:none;stroke-width:1px;stroke-linecap:butt;stroke-linejoin:miter;marker:none;marker-start:none;marker-mid:none;marker-end:none;stroke-miterlimit:4;stroke-dasharray:none;stroke-dashoffset:0;stroke-opacity:1;visibility:visible;display:inline;overflow:visible;enable-background:accumulate"
       id="path2182"
       d="M 260.30114,91.196718 C 261.41292,91.226568 262.52411,91.260425 263.63547,91.305558 C 267.22987,91.405681 270.774,91.974868 274.30022,92.637504 C 281.52798,94.063417 288.56971,96.247367 295.58864,98.452771 C 303.20039,100.84862 310.67042,103.65319 318.00825,106.78296 C 324.50695,109.54842 330.62576,113.06346 336.41236,117.09381 C 341.44389,120.60078 345.5933,124.7608 348.22142,130.31865 C 350.75934,137.11915 348.4669,143.27895 345.01817,149.22919 C 338.79059,158.32704 329.74818,164.74084 320.71994,170.79486 C 304.08044,181.7213 286.1947,190.28836 268.0119,198.23053 C 252.09808,204.99769 235.9829,211.27908 219.91608,217.67119 C 205.1477,223.51106 190.41346,229.43604 175.71051,235.43856 C 163.45632,240.4109 151.26807,245.54145 139.15314,250.84361 C 129.15496,255.22585 119.27818,259.87441 109.46816,264.66082 C 101.63748,268.47686 93.96752,272.60823 86.417953,276.95088 C 107.96532,263.85505 87.547351,276.83659 82.764587,280.27512 C 78.734557,283.14153 74.915853,286.28241 71.380392,289.73867 C 68.79514,292.12274 67.046868,295.02929 65.543092,298.14754 C 64.558097,300.64458 64.971711,302.861 65.703936,305.31633 C 66.759219,307.78617 68.681882,309.55227 70.606799,311.33475 C 72.97966,313.36718 75.693286,314.91208 78.389633,316.46075 C 81.311856,318.06853 84.347429,319.45174 87.416935,320.75057 C 90.634791,322.11537 93.938006,323.26112 97.249479,324.37375 C 100.47518,325.45209 103.75095,326.36867 107.03864,327.23587 C 110.12758,328.05449 113.25023,328.73279 116.37284,329.40743 C 118.78437,329.92016 121.21003,330.36117 123.63448,330.80721 L 110.60077,339.91509 C 108.17781,339.4484 105.75344,338.98748 103.34366,338.45558 C 100.21568,337.75331 97.087568,337.04754 93.994795,336.20004 C 90.69353,335.29945 87.404837,334.34899 84.166853,333.23907 C 80.831244,332.09293 77.505554,330.91276 74.263532,329.51884 C 71.150874,328.17826 68.06741,326.76418 65.113235,325.09713 C 62.32004,323.49963 59.561541,321.8191 57.111336,319.71755 C 55.016752,317.73877 52.94443,315.76249 51.76379,313.06591 C 50.858562,310.30225 50.236259,307.72547 51.142766,304.82953 C 52.543417,301.45641 54.201942,298.31253 56.894205,295.73735 C 60.430732,292.1362 64.299948,288.89192 68.406713,285.95548 C 77.888069,279.0705 87.887582,272.98712 98.206452,267.41493 C 105.70164,263.17597 113.30886,259.1371 121.06977,255.40333 C 130.80736,250.70623 140.61058,246.14613 150.52925,241.84227 C 162.55741,236.63256 174.6566,231.59076 186.81628,226.69544 C 201.42285,220.78512 216.06022,214.95191 230.72152,209.17859 C 246.82832,202.79479 262.9682,196.48009 278.88163,189.62382 C 280.52916,188.89542 322.4317,170.58004 301.53339,179.51851 C 299.46756,180.40209 305.38338,177.20098 307.30837,176.0422 C 316.10539,170.21601 324.92562,164.06802 331.15286,155.37777 C 334.48924,149.96425 336.95499,144.31864 334.73633,137.94838 C 332.28943,132.62367 328.21648,128.71712 323.46358,125.34661 C 317.7788,121.37746 311.76082,117.92855 305.37326,115.20627 C 298.08917,112.09934 290.67512,109.30915 283.11093,106.95533 C 276.0403,104.77593 268.91644,102.70519 261.59211,101.55778 C 257.95729,101.04371 254.30677,100.66229 250.6295,100.71716 C 249.46207,100.72316 248.29421,100.72054 247.12741,100.768 L 260.30114,91.196718 z " />
    <path
       style="opacity:1;color:#000000;fill:#00ffff;fill-opacity:0.49803922;fill-rule:nonzero;stroke:none;stroke-width:3.05800009;stroke-linecap:butt;stroke-linejoin:miter;marker:none;marker-start:none;marker-mid:none;marker-end:none;stroke-miterlimit:4;stroke-dasharray:none;stroke-dashoffset:0;stroke-opacity:1;visibility:visible;display:inline;overflow:visible;enable-background:accumulate"
       id="path2217"
       d="M 266.0012,64.951338 C 265.50746,65.291335 264.80834,65.444007 264.19754,65.649765 C 262.89431,66.124078 261.63443,66.657348 260.38713,67.209291 C 276.56408,60.052345 268.26329,63.632103 264.73501,65.514407 C 262.9868,66.466831 261.49858,67.64242 260.01134,68.81112 C 258.5346,69.984202 257.32422,71.310635 256.15139,72.657417 C 255.1377,73.888919 254.46362,75.237966 253.8228,76.595958 C 253.22902,77.823524 253.08596,79.104188 252.9966,80.394759 C 252.96179,81.601601 253.25537,82.781703 253.57206,83.95675 C 253.85296,85.027718 254.48886,85.999796 255.06914,86.986855 C 255.65632,87.925349 256.48259,88.751773 257.26706,89.5961 C 257.97092,90.367658 258.86196,91.005271 259.73712,91.657873 C 260.64476,92.282939 261.72991,92.708657 262.78247,93.168908 C 263.9389,93.628298 265.15247,93.993094 266.3556,94.373771 C 267.46564,94.731246 268.62262,94.98242 269.77628,95.242197 C 269.95095,95.273073 270.12563,95.303949 270.30031,95.334825 L 261.4728,101.40551 C 261.28222,101.35651 261.09164,101.30752 260.90106,101.25853 C 259.69256,100.92035 258.47614,100.59638 257.30447,100.1871 C 256.01726,99.733123 254.71498,99.298877 253.49442,98.745114 C 252.2534,98.152241 251.01583,97.551583 249.96544,96.766021 C 248.98918,95.97689 247.98257,95.208142 247.18218,94.304601 C 246.2996,93.342472 245.41982,92.376554 244.73805,91.321038 C 244.01594,90.172695 243.31099,89.014897 242.92802,87.76862 C 242.5253,86.418861 242.13914,85.063517 242.10096,83.672418 C 242.08442,82.154871 242.09488,80.6365 242.63816,79.159058 C 243.23038,77.628164 243.84363,76.098963 244.8449,74.684806 C 245.9349,73.159343 247.09174,71.665932 248.60354,70.348949 C 250.04903,69.049575 251.50826,67.756316 253.1859,66.620435 C 257.44817,63.878362 261.87515,61.802651 267.11872,59.930931 C 268.48625,59.391808 269.84589,58.839246 271.25571,58.364462 C 271.99058,58.096144 272.72139,57.763937 273.53389,57.670532 L 266.0012,64.951338 z " />
    <path
       style="opacity:1;color:#000000;fill:#00ffff;fill-opacity:0.49803922;fill-rule:nonzero;stroke:none;stroke-width:3.05800009;stroke-linecap:butt;stroke-linejoin:miter;marker:none;marker-start:none;marker-mid:none;marker-end:none;stroke-miterlimit:4;stroke-dasharray:none;stroke-dashoffset:0;stroke-opacity:1;visibility:visible;display:inline;overflow:visible;enable-background:accumulate"
       id="path2191"
       d="M 272.26608,95.440493 C 271.88569,96.612814 271.53671,97.807483 271.17634,98.994525 C 270.44583,101.39581 269.82023,103.86416 269.18915,106.32798 C 268.37402,109.49585 267.61446,112.69395 266.87796,115.90533 C 266.17773,119.08208 265.59571,122.31407 265.00346,125.53977 C 264.47284,128.37455 263.98893,131.22827 263.51136,134.0844 C 263.22704,135.75547 262.98638,137.44187 262.74031,139.12638 L 251.56301,144.72588 C 251.80944,142.97038 252.04984,141.21302 252.35132,139.47663 C 252.84241,136.55727 253.33914,133.63989 253.89597,130.74738 C 254.52595,127.46568 255.12664,124.17108 255.78841,120.9036 C 256.48126,117.63962 257.19575,114.38814 257.98979,111.17664 C 258.55726,108.71049 259.11397,106.23872 259.69243,103.77845 C 259.95987,102.65139 260.24075,101.53205 260.49388,100.3979 L 272.26608,95.440493 z " />
    <path
       style="opacity:1;color:#000000;fill:#00ffff;fill-opacity:0.49803922;fill-rule:nonzero;stroke:none;stroke-width:3.05800009;stroke-linecap:butt;stroke-linejoin:miter;marker:none;marker-start:none;marker-mid:none;marker-end:none;stroke-miterlimit:4;stroke-dasharray:none;stroke-dashoffset:0;stroke-opacity:1;visibility:visible;display:inline;overflow:visible;enable-background:accumulate"
       id="path5146"
       d="M 86.646679,55.899418 C 85.879048,56.425832 85.210723,57.111313 84.560084,57.779397 C 82.493953,60.007154 80.810913,62.5396 79.246925,65.133351 C 77.262786,68.6135 75.642269,72.281176 74.141175,75.99001 C 72.577605,79.709406 71.563081,83.598379 70.821782,87.553515 C 70.093327,91.713114 70.041442,95.936827 70.108529,100.14554 C 70.189309,104.06772 70.578186,107.97125 71.125894,111.85286 C 71.615547,115.25316 72.421431,118.59337 73.338176,121.90026 C 73.877386,123.79847 74.492731,125.67345 75.119249,127.54419 L 70.258715,129.97965 C 69.662387,128.06601 69.087571,126.14568 68.566328,124.20999 C 67.676281,120.82139 66.892785,117.40174 66.418976,113.92689 C 65.895149,109.97174 65.52716,105.99703 65.468426,102.00476 C 65.410925,97.717917 65.417891,93.415132 66.063833,89.165307 C 66.775217,85.131948 67.658469,81.130305 69.262893,77.341897 C 70.749415,73.590383 72.377086,69.895841 74.253368,66.320696 C 75.618267,63.714691 77.119194,61.182056 78.880348,58.820575 C 79.378545,58.126205 79.906997,57.44187 80.435852,56.778638 L 86.646679,55.899418 z " />
    <path
       d="M 68.941631,37.464134 C 67.791941,38.25255 66.790983,39.279203 65.816514,40.2798 C 62.722046,43.616337 60.201338,47.40921 57.858936,51.2939 C 54.887268,56.506158 52.460202,61.999278 50.211996,67.554041 C 47.87022,73.124622 46.350756,78.949181 45.240504,84.872833 C 44.149489,91.102711 44.07178,97.428614 44.172257,103.73205 C 44.293242,109.60634 44.875668,115.4527 45.695976,121.26624 C 46.429335,126.3589 47.636316,131.36157 49.009336,136.31434 C 49.816917,139.15731 50.738526,141.96549 51.676869,144.76732 L 44.397192,148.41493 C 43.504065,145.54885 42.643157,142.67275 41.862485,139.77365 C 40.529452,134.6985 39.356001,129.57686 38.646372,124.37253 C 37.86183,118.44886 37.310689,112.49589 37.222722,106.51663 C 37.136602,100.09617 37.147036,93.651842 38.11447,87.286832 C 39.179918,81.246024 40.502775,75.252718 42.905738,69.578777 C 45.132119,63.960092 47.5699,58.426735 50.380029,53.0722 C 52.424254,49.169157 54.672209,45.376001 57.309909,41.839184 C 58.056065,40.799218 58.847533,39.774282 59.639605,38.780952 L 68.941631,37.464134 z "
       id="path5151"
       style="opacity:1;color:#000000;fill:#00ffff;fill-opacity:0.49803922;fill-rule:nonzero;stroke:none;stroke-width:3.05800009;stroke-linecap:butt;stroke-linejoin:miter;marker:none;marker-start:none;marker-mid:none;marker-end:none;stroke-miterlimit:4;stroke-dasharray:none;stroke-dashoffset:0;stroke-opacity:1;visibility:visible;display:inline;overflow:visible;enable-background:accumulate" />
    <path
       style="opacity:1;color:#000000;fill:#00ffff;fill-opacity:0.49803922;fill-rule:nonzero;stroke:none;stroke-width:3.05800009;stroke-linecap:butt;stroke-linejoin:miter;marker:none;marker-start:none;marker-mid:none;marker-end:none;stroke-miterlimit:4;stroke-dasharray:none;stroke-dashoffset:0;stroke-opacity:1;visibility:visible;display:inline;overflow:visible;enable-background:accumulate"
       id="path5153"
       d="M 46.970813,21.327924 C 45.491945,22.342079 44.204394,23.662682 42.950915,24.949769 C 38.970442,29.241621 35.728007,34.120466 32.71493,39.117418 C 28.892416,45.822045 25.770435,52.887951 22.878524,60.033149 C 19.866253,67.198695 17.911737,74.690937 16.483598,82.310644 C 15.080205,90.324256 14.980246,98.461387 15.109492,106.56961 C 15.265117,114.12583 16.014303,121.64611 17.069481,129.12418 C 18.012815,135.67497 19.565377,142.11 21.331519,148.48084 C 22.370326,152.13781 23.55581,155.75002 24.762818,159.35407 L 15.39883,164.04606 C 14.249984,160.35937 13.142581,156.65979 12.138388,152.93062 C 10.423682,146.40235 8.9142491,139.81429 8.0014397,133.11986 C 6.9922682,125.50013 6.283325,117.84271 6.1701713,110.15147 C 6.0593935,101.89272 6.072815,93.603252 7.3172439,85.415818 C 8.6877502,77.64541 10.389367,69.936106 13.480344,62.637606 C 16.344181,55.410184 19.479945,48.29252 23.094668,41.404879 C 25.724194,36.38432 28.615782,31.50511 32.008706,26.955635 C 32.968501,25.617907 33.986581,24.299512 35.005439,23.021772 L 46.970813,21.327924 z " />
    <path
       style="opacity:1;color:#000000;fill:#00ffff;fill-opacity:0.49833888;fill-rule:nonzero;stroke:none;stroke-width:3.05800009;stroke-linecap:butt;stroke-linejoin:miter;marker:none;marker-start:none;marker-mid:none;marker-end:none;stroke-miterlimit:4;stroke-dasharray:none;stroke-dashoffset:0;stroke-opacity:1;visibility:visible;display:inline;overflow:visible;enable-background:accumulate"
       id="path5209"
       d="M 187.91964,326.755 C 187.79273,326.06818 187.8574,325.37458 187.86696,324.68383 C 187.93511,323.34516 188.5283,322.20311 189.13632,321.04702 C 190.051,319.55626 191.43764,318.54556 192.81563,317.52534 C 195.53248,315.49011 198.2901,314.067 201.53765,313.50026 C 203.0756,313.40348 204.61311,313.55955 206.14557,313.67459 C 207.5363,313.85082 208.91991,313.79012 210.30728,313.66559 C 215.70827,311.51611 208.85928,315.12688 210.96904,313.52892 C 213.31432,311.51985 215.22498,309.07184 217.07621,306.61665 C 219.00262,304.07864 220.55521,301.30669 221.82494,298.39182 C 222.84257,295.9819 223.44664,293.44037 223.75085,290.84965 C 223.98013,289.0217 223.8071,287.40218 222.89706,285.84016 C 221.38678,285.05321 219.66066,285.78008 218.11099,286.25781 C 216.25909,286.65174 209.28146,290.75245 216.18018,286.85223 C 214.74402,287.65345 213.64828,288.793 212.63945,290.05816 C 211.91227,290.83301 212.03578,291.63981 211.94727,292.53614 C 212.42782,293.31986 213.24441,293.41251 214.05914,293.68414 C 215.23056,293.9254 216.42651,294.00983 217.61528,294.12143 C 218.81176,294.23279 220.01031,294.31844 221.20895,294.40233 C 222.61693,294.50507 224.02681,294.56077 225.43765,294.6013 C 227.15007,294.6126 228.86262,294.57908 230.57494,294.55847 C 232.44238,294.52757 234.30945,294.50732 236.17702,294.5144 C 237.79007,294.49864 239.39507,294.63714 240.99772,294.79769 C 241.67231,294.86394 242.33532,295.00389 243.00172,295.12091 L 239.30643,298.68047 C 238.67416,298.58151 238.04449,298.46276 237.40594,298.40749 C 235.84826,298.27459 234.28906,298.16546 232.72414,298.17418 C 230.86774,298.17521 229.0115,298.18998 227.15542,298.23136 C 225.4159,298.26376 223.67567,298.31394 221.93588,298.27383 C 220.49951,298.22608 219.06321,298.1742 217.62935,298.07256 C 216.4164,297.98694 215.20333,297.90059 213.99434,297.76813 C 212.72985,297.62433 211.45364,297.50383 210.23356,297.11935 C 209.00042,296.61357 207.91197,296.12975 207.30388,294.85291 C 206.97457,293.50873 206.91541,292.40117 207.65697,291.14092 C 208.62645,289.64748 209.68942,288.29128 211.2183,287.3124 C 214.45265,285.42031 217.56528,283.38055 221.21598,282.40856 C 223.4419,281.86408 225.44105,281.50332 227.23005,283.20671 C 228.24692,285.11816 228.68161,286.96364 228.38031,289.18088 C 228.09261,291.90826 227.47779,294.58755 226.45299,297.13826 C 225.20191,300.15653 223.662,303.0351 221.73086,305.67958 C 219.90863,308.19039 218.00214,310.64533 215.84401,312.88014 C 213.33492,315.19288 210.33515,317.14557 206.90631,317.4619 C 205.46179,317.49071 204.02101,317.47475 202.58166,317.31577 C 201.14136,317.22213 199.68701,317.08755 198.25816,317.3732 C 197.27529,317.66429 194.50974,319.00402 195.38604,318.47219 C 196.19419,317.98172 200.29378,315.64631 197.82408,317.02345 C 196.49307,317.87749 195.13334,318.71387 194.12295,319.95996 C 193.50325,320.8727 192.89433,321.76201 192.74328,322.88786 C 192.73181,323.43212 192.60513,323.97992 192.76393,324.52003 L 187.91964,326.755 z " />
    <path
       style="opacity:1;color:#000000;fill:#00ffff;fill-opacity:0.49833888;fill-rule:nonzero;stroke:none;stroke-width:3.05800009;stroke-linecap:butt;stroke-linejoin:miter;marker:none;marker-start:none;marker-mid:none;marker-end:none;stroke-miterlimit:4;stroke-dasharray:none;stroke-dashoffset:0;stroke-opacity:1;visibility:visible;display:inline;overflow:visible;enable-background:accumulate"
       id="path5213"
       d="M 293.39292,372.03434 C 294.17584,372.27899 294.95976,372.51954 295.73956,372.77508 C 297.18404,373.23019 298.57182,373.83436 299.95489,374.44433 C 301.41858,375.05932 302.65283,375.99289 303.84166,377.01639 C 304.93172,378.05028 305.29148,379.27174 305.53366,380.68973 C 305.60015,382.17711 304.92549,383.28545 304.12636,384.45972 C 302.16427,386.73038 299.2782,387.7937 296.70025,389.19219 C 295.60845,389.63607 294.44923,389.79138 293.29881,389.98116 C 292.36173,390.1443 291.74477,389.79292 290.97829,389.3985 C 290.19359,388.40109 290.52591,387.87341 290.91465,386.85273 C 291.8318,385.72394 293.1019,385.00406 294.3169,384.24578 C 297.21326,382.48077 300.21239,380.90028 303.19564,379.29157 C 304.7567,378.43039 306.30371,377.54431 307.86088,376.67613 C 309.29052,375.8605 310.7704,375.14184 312.2498,374.42295 C 313.6409,373.74357 315.08511,373.18637 316.52737,372.62818 C 317.90951,372.09351 319.34295,371.71884 320.77645,371.35344 C 321.22615,371.23678 321.6845,371.16092 322.13852,371.06466 L 318.86575,374.99312 C 318.43111,375.09891 317.99154,375.18439 317.56184,375.31049 C 316.17235,375.70852 314.78581,376.11836 313.44971,376.6768 C 312.04144,377.25202 310.6368,377.83689 309.27812,378.52391 C 307.82504,379.25611 306.37855,380.00062 304.96402,380.80582 C 303.41466,381.67288 301.8692,382.54718 300.30314,383.38396 C 298.66087,384.26904 292.30666,387.7938 299.34441,383.82185 C 298.2075,384.4671 297.06206,385.10229 296.04046,385.92597 C 295.79621,385.9935 295.4176,386.64182 295.15772,386.17002 C 295.66355,386.14534 296.1834,386.18091 296.68384,386.05082 C 297.72635,385.79862 298.77881,385.5764 299.74307,385.08014 C 299.93381,384.98282 300.12454,384.88551 300.31528,384.7882 C 299.1744,385.45173 298.03353,386.11525 296.89266,386.77878 C 296.14201,387.22546 299.95828,385.3137 299.0853,385.3438 C 299.86695,384.53982 300.58753,383.80461 300.76896,382.64635 C 300.62508,381.57569 300.56174,380.7124 299.64836,379.93816 C 298.5532,379.03777 297.40852,378.23422 296.0763,377.70488 C 294.71841,377.14846 293.35704,376.59327 291.93107,376.22936 C 291.18939,376.04746 290.43402,375.79788 289.66383,375.83816 L 293.39292,372.03434 z " />
    <path
       style="opacity:1;color:#000000;fill:#000000;fill-opacity:0.19102991;fill-rule:nonzero;stroke:none;stroke-width:3.05800009;stroke-linecap:butt;stroke-linejoin:miter;marker:none;marker-start:none;marker-mid:none;marker-end:none;stroke-miterlimit:4;stroke-dasharray:none;stroke-dashoffset:0;stroke-opacity:1;visibility:visible;display:inline;overflow:visible;enable-background:accumulate"
       d="M 105.56094,71.195349 L 212.63711,119.1776 L 206.07111,166.65476 L 100.51018,117.15729 L 105.56094,71.195349 z "
       id="path6189"
       sodipodi:nodetypes="ccccc" />
  </g>
</svg>
