<?xml version="1.0" encoding="UTF-8" standalone="no"?>
<!-- Created with Inkscape (http://www.inkscape.org/) -->
<svg
   xmlns:dc="http://purl.org/dc/elements/1.1/"
   xmlns:cc="http://web.resource.org/cc/"
   xmlns:rdf="http://www.w3.org/1999/02/22-rdf-syntax-ns#"
   xmlns:svg="http://www.w3.org/2000/svg"
   xmlns="http://www.w3.org/2000/svg"
   xmlns:sodipodi="http://sodipodi.sourceforge.net/DTD/sodipodi-0.dtd"
   xmlns:inkscape="http://www.inkscape.org/namespaces/inkscape"
   width="400"
   height="400"
   id="svg2"
   sodipodi:version="0.32"
   inkscape:version="0.45.1"
   version="1.0"
   sodipodi:docbase="/home/kris/tale"
   sodipodi:docname="spork.svg"
   inkscape:output_extension="org.inkscape.output.svg.inkscape">
  <defs
     id="defs4" />
  <sodipodi:namedview
     id="base"
     pagecolor="#ffffff"
     bordercolor="#666666"
     borderopacity="1.0"
     gridtolerance="10000"
     guidetolerance="10"
     objecttolerance="10"
     inkscape:pageopacity="0.0"
     inkscape:pageshadow="2"
     inkscape:zoom="1.4"
     inkscape:cx="418.64624"
     inkscape:cy="180.79561"
     inkscape:document-units="px"
     inkscape:current-layer="layer1"
     width="400px"
     height="400px"
     inkscape:window-width="1680"
     inkscape:window-height="979"
     inkscape:window-x="0"
     inkscape:window-y="45" />
  <metadata
     id="metadata7">
    <rdf:RDF>
      <cc:Work
         rdf:about="">
        <dc:format>image/svg+xml</dc:format>
        <dc:type
           rdf:resource="http://purl.org/dc/dcmitype/StillImage" />
      </cc:Work>
    </rdf:RDF>
  </metadata>
  <g
     inkscape:label="Layer 1"
     inkscape:groupmode="layer"
     id="layer1">
    <path
       style="fill:#e6e6e6;fill-opacity:1;fill-rule:evenodd;stroke:none;stroke-width:1px;stroke-linecap:butt;stroke-linejoin:miter;stroke-opacity:1"
       d="M 184.09375,54.09375 C 164.01245,64.933272 146.66272,87.005377 151.50403,110.9826 C 154.22688,131.8317 163.924,152.75266 181.68331,164.81698 C 186.53272,177.48075 179.89594,191.72985 179.98746,204.99632 C 179.31586,228.98201 179.2224,253.10448 174.52777,276.73864 C 172.17345,300.4866 169.55547,324.49197 171.25122,348.3355 C 172.63848,363.81852 186.52532,374.35923 201.6496,369.13028 C 218.50482,366.56141 223.20373,347.57433 230.31288,334.7739 C 239.72807,311.68329 230.94151,286.6278 233.42602,262.6319 C 235.95116,232.9728 234.11018,203.16375 236.24626,173.50019 C 237.30446,159.70121 251.75804,152.63 258.96271,142.04507 C 269.44859,129.24203 279.10468,114.41901 278.64056,97.172255 C 278.39233,87.826228 277.48165,67.857772 266.59531,67.98591 C 258.54352,74.49213 254.39996,95.384892 240.65243,86.659666 C 232.92701,77.7089 232.87497,63.502536 222.55711,56.615275 C 211.90537,61.61308 210.78538,78.801212 198.17072,82.801412 C 179.9943,88.675922 191.38311,61.285359 184.09375,54.09375 z "
       id="path2174" />
    <path
       style="fill:#000000;fill-opacity:1;stroke:none;stroke-opacity:1"
       id="path2166"
       d="M 190.41831,159.84546 C 190.54982,161.32317 190.53373,162.80423 190.5506,164.28361 C 190.31053,171.60298 189.67513,178.91621 189.15794,186.2298 C 188.12055,202.21402 186.42207,218.17826 184.57569,234.13373 C 181.55443,256.70486 179.74343,279.32113 178.14952,301.94415 C 177.5427,317.84776 175.50068,333.85481 178.33244,349.71141 C 180.74915,357.19207 183.28692,365.75354 196.7789,367.86617 C 222.92072,362.14751 189.09814,376.04777 206.44306,365.59696 C 214.79505,359.77878 218.00773,352.33494 220.62207,344.93835 C 224.19889,332.95417 225.26434,320.77358 225.98338,308.62144 C 226.56046,296.47514 226.51441,284.32259 226.46322,272.17257 C 226.40492,262.4725 226.32153,252.77248 226.23489,243.07247 C 226.15179,235.75453 226.11219,228.43633 226.19709,221.11837 C 226.26104,215.99005 226.37311,210.86225 226.65491,205.7366 C 226.8418,201.76309 227.23198,197.79606 227.66494,193.83043 C 228.00024,190.70073 228.41939,187.57468 228.80969,184.44747 C 229.10146,182.12026 229.35279,179.79129 229.59801,177.46211 C 229.77209,175.54674 229.97252,173.63287 230.2022,171.71972 C 230.40527,170.08921 230.57407,168.45723 230.7376,166.8251 C 230.78547,166.34762 230.82424,165.86988 230.86755,165.39226 L 244.84687,161.07738 C 244.8005,161.55811 244.75922,162.03903 244.70778,162.51956 C 244.5323,164.16106 244.3507,165.8023 244.13232,167.44189 C 243.88902,169.356 243.66132,171.27029 243.48647,173.18731 C 243.21039,175.53171 242.92701,177.87578 242.59746,180.21763 C 242.16298,183.35488 241.69245,186.49042 241.32163,189.63081 C 240.83837,193.60115 240.37603,197.57219 240.15328,201.55211 C 239.79048,206.69909 239.57779,211.84912 239.40015,216.9997 C 239.16871,224.35058 239.07686,231.70269 239.06787,239.05492 C 239.01848,248.79448 238.97959,258.5341 238.92313,268.27366 C 238.84374,280.46531 238.74039,292.65846 238.15298,304.84573 C 237.48089,316.97732 236.64065,329.12832 233.42575,341.12792 C 231.1256,348.5788 228.23662,356.07132 220.21484,362.07432 C 211.23773,368.13374 198.02035,373.22302 184.41465,373.05428 C 170.85664,370.2197 168.2618,361.49189 166.08294,353.63828 C 163.81451,337.5629 166.20954,321.40511 167.22799,305.32084 C 169.25341,282.75666 171.20044,260.18945 173.22976,237.62637 C 174.83703,221.80143 176.24692,205.9631 176.67532,190.107 C 176.88154,182.94601 177.21927,175.77624 176.77558,168.6165 C 176.68434,167.19595 176.6412,165.77094 176.39014,164.35668 L 190.41831,159.84546 z " />
    <path
       style="fill:#000000;fill-opacity:1;stroke:none;stroke-opacity:1"
       id="path2168"
       d="M 180.12274,55.267196 C 205.85149,39.887461 193.63375,47.442286 187.97557,51.205949 C 183.96111,53.892837 180.22123,56.936623 176.63386,60.156012 C 172.39914,64.015056 168.81135,68.459652 165.65208,73.207914 C 162.33812,78.443293 160.07733,84.201348 158.29197,90.09714 C 156.6232,95.840846 156.13758,101.78268 156.21948,107.73153 C 156.35656,113.24002 157.4656,118.61529 159.177,123.83623 C 160.71587,128.49954 163.42478,132.55827 166.19857,136.55769 C 168.73421,139.96673 171.64415,143.06776 174.57216,146.1409 C 177.11454,148.68852 179.78139,151.10745 182.43269,153.54142 C 184.43912,155.39352 186.45679,157.23352 188.46271,159.0861 C 190.10356,160.53565 191.65583,162.07632 193.21517,163.60951 C 193.44574,163.83933 193.67631,164.06916 193.90686,164.29895 L 179.9232,172.7888 C 179.69215,172.55424 179.46113,172.31969 179.2301,172.08513 C 177.69173,170.57402 176.16151,169.05392 174.55622,167.61121 C 172.57396,165.7461 170.58466,163.8884 168.60106,162.02468 C 165.95871,159.54611 163.30073,157.08209 160.76162,154.49801 C 157.81312,151.34728 154.87101,148.17756 152.32374,144.68947 C 149.49361,140.53248 146.72482,136.31681 145.12675,131.50441 C 143.34843,126.1413 142.17645,120.6222 141.9915,114.95884 C 141.84274,108.86929 142.27004,102.77777 143.89075,96.873854 C 145.61048,90.862071 147.80962,84.988596 151.02556,79.587469 C 154.09041,74.721749 157.60786,70.172246 161.79031,66.187357 C 165.2909,62.919948 168.94504,59.825836 172.88907,57.090957 C 179.35721,52.635787 185.8399,48.453037 192.99218,44.961167 L 180.12274,55.267196 z " />
    <path
       style="fill:#000000;fill-opacity:1;stroke:none;stroke-opacity:1"
       id="path2170"
       d="M 269.92314,53.643961 C 271.33303,54.993576 272.41029,56.625858 273.53148,58.206645 C 275.89146,61.670446 277.56191,65.498515 278.99067,69.413336 C 281.04494,75.35002 282.01861,81.547711 282.62564,87.771583 C 283.19855,94.433236 282.49506,101.06919 281.31311,107.62096 C 280.2408,113.53865 277.99585,119.09597 275.29869,124.44548 C 272.82823,129.07892 269.79092,133.37194 266.57024,137.51449 C 263.9178,140.82896 261.15938,144.05811 258.4077,147.29131 C 256.2868,149.75754 254.14251,152.20352 251.99836,154.6498 C 250.28092,156.48285 248.72113,158.44036 247.15367,160.39575 C 245.72887,162.26774 244.4856,164.2645 243.20356,166.23211 L 228.24474,172.80501 C 229.50871,170.79084 230.75204,168.76248 232.14015,166.82797 C 233.65132,164.77391 235.22039,162.7805 236.9837,160.92948 C 239.15565,158.4755 241.344,156.03578 243.48623,153.55589 C 246.28653,150.33294 249.06335,147.08949 251.78259,143.79863 C 255.05878,139.73687 258.14279,135.51913 260.7112,130.97356 C 263.49081,125.76915 265.82583,120.34322 266.98843,114.53544 C 268.24982,108.11907 269.04363,101.61289 268.53279,95.063064 C 267.97066,88.980435 267.01236,82.927432 264.93928,77.148498 C 263.51897,73.382349 261.85718,69.707746 259.48384,66.424071 C 258.38487,64.976499 257.34862,63.445319 255.88362,62.328673 L 269.92314,53.643961 z " />
    <path
       style="fill:#000000;fill-opacity:1;stroke:none;stroke-opacity:1"
       id="path2172"
       d="M 190.99134,45.509724 C 191.34129,46.85158 191.56845,48.21863 191.82092,49.580587 C 192.26805,52.055326 192.80402,54.51299 193.29258,56.98 C 193.8704,60.061531 194.42028,63.148244 194.96542,66.235616 C 195.43534,69.160896 196.13548,72.037377 196.87812,74.902804 C 197.38357,77.04431 198.46987,78.923221 199.50953,80.829751 C 200.93589,82.268246 201.1079,81.631019 202.86477,81.232482 C 211.60954,76.967203 184.31247,93.424132 194.50958,85.442941 C 196.57868,83.78993 198.17309,81.709384 199.73989,79.610266 C 201.41477,77.168988 202.80749,74.562712 204.17985,71.948227 C 205.5528,69.325385 206.6473,66.580711 207.71899,63.828069 C 208.59538,61.492477 209.44305,59.14655 210.30768,56.806823 C 212.26816,50.319875 223.35823,48.125466 226.5822,46.43483 C 227.9515,47.578437 228.6608,49.206105 229.5198,50.718472 C 230.78475,53.121676 231.82681,55.624094 232.84173,58.137506 C 233.85191,60.802466 234.90436,63.451311 235.95522,66.100694 C 236.88638,68.35864 237.86454,70.597084 238.82999,72.840621 C 239.58537,74.669865 240.43798,76.454593 241.28035,78.244774 C 241.96023,79.698457 242.83259,81.045196 243.64829,82.422431 C 244.33674,83.658422 245.49242,84.429524 246.51519,85.342498 C 247.49185,86.165124 248.71415,86.430835 249.8689,86.856872 C 251.41661,87.062341 252.75943,86.390185 254.17246,85.890246 C 263.1464,81.557117 235.46834,97.404108 245.43778,90.612087 C 247.31819,89.197826 248.63767,87.307263 249.95203,85.402949 C 251.29146,83.327137 252.28468,81.074104 253.25805,78.816247 C 254.14733,76.699065 254.71209,74.476138 255.32937,72.272952 C 255.85438,70.31328 256.20565,68.316312 256.58369,66.325874 C 256.93948,64.575176 257.08213,62.800004 257.24426,61.025999 C 257.34338,60.341561 257.22035,59.655804 257.20846,58.973403 L 271.81416,51.4308 C 271.85023,52.192855 271.99452,52.953172 271.92248,53.71975 C 271.78989,55.550821 271.67417,57.381472 271.31566,59.187889 C 270.94798,61.220145 270.60668,63.258573 270.093,65.261741 C 269.48923,67.526128 268.936,69.809387 268.0898,72.001669 C 267.15139,74.338729 266.19639,76.673693 264.89344,78.84219 C 263.65506,80.87855 262.41802,82.921351 260.61984,84.536288 C 254.79046,89.23671 248.3107,93.291876 241.23155,95.89252 C 239.52857,96.214759 237.97717,96.724433 236.2579,96.056081 C 234.9977,95.450877 233.65674,94.99749 232.59258,94.04054 C 231.47887,92.964425 230.22128,92.025389 229.44979,90.638119 C 228.59538,89.205315 227.71257,87.78788 227.00534,86.273236 C 226.16527,84.45918 225.31269,82.651535 224.56579,80.79647 C 223.60753,78.526032 222.63395,76.261705 221.70962,73.977218 C 220.66754,71.323402 219.62069,68.671382 218.60047,66.009148 C 217.61207,63.558973 216.60123,61.115838 215.31949,58.797321 C 214.73017,57.83429 214.14707,56.225194 213.10516,55.931384 C 217.01325,53.732242 228.13417,46.631582 225.18133,49.991556 C 224.24236,52.318401 223.33358,54.652406 222.49999,57.020051 C 221.42807,59.814302 220.36345,62.612987 219.01908,65.293375 C 217.66902,67.950787 216.31212,70.607809 214.67969,73.109808 C 213.19584,75.345616 211.66601,77.548682 209.64244,79.355998 C 203.85392,84.41149 197.16866,88.698966 189.83956,91.153335 C 187.80272,90.928394 186.55822,90.987348 185.31693,88.991099 C 184.23422,86.939131 183.09481,84.914214 182.54934,82.631645 C 181.7966,79.717239 181.08364,76.791211 180.60674,73.816533 C 180.06256,70.743121 179.51481,67.670007 178.9229,64.605252 C 178.4153,62.143125 177.86584,59.690943 177.34331,57.232171 C 177.0797,55.921529 176.87633,54.587401 176.43355,53.321423 L 190.99134,45.509724 z " />
  </g>
</svg>
