<?xml version="1.0" encoding="UTF-8" standalone="no"?>
<!-- Created with Inkscape (http://www.inkscape.org/) -->
<svg
   xmlns:dc="http://purl.org/dc/elements/1.1/"
   xmlns:cc="http://web.resource.org/cc/"
   xmlns:rdf="http://www.w3.org/1999/02/22-rdf-syntax-ns#"
   xmlns:svg="http://www.w3.org/2000/svg"
   xmlns="http://www.w3.org/2000/svg"
   xmlns:sodipodi="http://inkscape.sourceforge.net/DTD/sodipodi-0.dtd"
   xmlns:inkscape="http://www.inkscape.org/namespaces/inkscape"
   width="1000"
   height="1000"
   id="svg2"
   sodipodi:version="0.32"
   inkscape:version="0.43"
   version="1.0"
   sodipodi:docbase="/home/kkowal/tale/art/item"
   sodipodi:docname="steak-cooked.svg">
  <defs
     id="defs4" />
  <sodipodi:namedview
     id="base"
     pagecolor="#ffffff"
     bordercolor="#666666"
     borderopacity="1.0"
     inkscape:pageopacity="0.0"
     inkscape:pageshadow="2"
     inkscape:zoom="0.7"
     inkscape:cx="873.35351"
     inkscape:cy="460.59839"
     inkscape:document-units="px"
     inkscape:current-layer="layer1"
     inkscape:showpageshadow="false"
     inkscape:window-width="1670"
     inkscape:window-height="971"
     inkscape:window-x="0"
     inkscape:window-y="25" />
  <metadata
     id="metadata7">
    <rdf:RDF>
      <cc:Work
         rdf:about="">
        <dc:format>image/svg+xml</dc:format>
        <dc:type
           rdf:resource="http://purl.org/dc/dcmitype/StillImage" />
      </cc:Work>
    </rdf:RDF>
  </metadata>
  <g
     inkscape:label="Layer 1"
     inkscape:groupmode="layer"
     id="layer1">
    <path
       style="color:#000000;fill:#582f16;fill-opacity:1;fill-rule:nonzero;stroke:none;stroke-width:4;stroke-linecap:butt;stroke-linejoin:miter;marker:none;marker-start:none;marker-mid:none;marker-end:none;stroke-miterlimit:4;stroke-dasharray:none;stroke-dashoffset:0;stroke-opacity:1;visibility:visible;display:inline;overflow:visible"
       d="M 346.6895,153.0214 C 275.09973,154.9495 199.79505,204.25888 191.23245,279.50395 C 192.62709,308.83619 185.94209,336.59895 185.59067,365.82915 C 189.63551,423.66717 243.43347,457.4863 287.88372,485.09018 C 316.12928,502.49745 347.39936,519.70758 359.39576,552.87874 C 399.15734,640.14491 353.41316,741.81673 396.70728,828.21921 C 439.84349,881.42035 517.22285,884.81834 577.8089,864.34703 C 637.22365,844.04653 696.96055,812.21856 734.22727,760.18603 C 788.05874,677.76894 769.40892,574.88356 788.3382,482.89967 C 801.82751,431.13661 807.58988,393.70013 804.65547,339.25872 C 805.17253,276.59986 770.98525,198.11571 709.68974,174.6147 C 591.07235,121.83115 476.11062,132.84218 346.6895,153.0214 z "
       id="path1429"
       sodipodi:nodetypes="cccccccccccc" />
    <path
       style="color:#000000;fill:#000000;fill-opacity:1;fill-rule:nonzero;stroke:none;stroke-width:4;stroke-linecap:butt;stroke-linejoin:miter;marker:none;marker-start:none;marker-mid:none;marker-end:none;stroke-miterlimit:4;stroke-dasharray:none;stroke-dashoffset:0;stroke-opacity:1;visibility:visible;display:inline;overflow:visible"
       d="M 496.12254,124.05711 C 392.23629,125.50942 280.2091,145.62764 202.00747,219.42241 C 176.37695,249.85478 193.21554,293.38277 218.8665,317.7611 C 266.76593,362.24303 329.66927,389.34148 371.5318,440.83894 C 398.81082,472.12864 410.24678,514.33223 406.20723,555.32533 C 406.02542,600.76145 406.73227,657.01079 449.01408,685.06565 C 522.26578,727.90968 616.41361,706.64975 681.63606,658.424 C 767.09707,596.76042 812.56649,491.23772 820.11319,388.22553 C 823.26558,325.22566 815.16099,255.78974 770.82718,207.29811 C 735.20815,165.18428 682.18955,140.44378 627.67735,135.60205 C 584.33781,127.49782 540.2071,123.70059 496.12254,124.05711 z M 488.65379,144.18211 C 568.55997,148.06388 655.98919,146.58141 723.89847,195.44117 C 784.98383,239.69326 801.95302,321.09644 795.07321,392.33191 C 787.34328,496.0111 740.34348,603.1052 648.83497,658.62275 C 606.84654,683.48163 555.60548,694.63401 507.36064,686.91616 C 450.71203,674.26436 416.02211,609.46723 432.2624,554.7016 C 439.41097,478.85496 390.54582,408.80504 328.60126,369.6253 C 287.77356,338.5108 233.7437,315.72806 215.01297,264.00551 C 213.01926,218.07714 258.52115,191.7373 296.41744,178.96211 C 357.77647,155.39793 422.95543,143.89363 488.65379,144.18211 z "
       id="path1377" />
    <path
       style="color:#000000;fill:#fff0f0;fill-opacity:1;fill-rule:nonzero;stroke:none;stroke-width:4;stroke-linecap:butt;stroke-linejoin:miter;marker:none;marker-start:none;marker-mid:none;marker-end:none;stroke-miterlimit:4;stroke-dasharray:none;stroke-dashoffset:0;stroke-opacity:1;visibility:visible;display:inline;overflow:visible"
       d="M 563.83238,228.73568 C 574.20825,217.49197 592.5879,203.65378 607.88523,212.41944 C 614.03729,225.44257 607.55577,240.97327 613.66017,254.5635 C 621.65543,286.39436 636.34793,317.70053 632.87336,351.28672 C 633.50699,382.7835 639.74445,418.21037 619.3229,445.29969 C 613.61442,459.12207 593.91719,464.86797 585.53177,450.13283 C 573.00813,434.07387 576.5053,413.31787 579.37459,394.82917 C 582.77043,355.75546 586.57614,311.4603 561.43183,278.27018 C 539.53262,250.55042 496.99181,252.27538 476.47628,222.95057 C 475.6006,210.45377 487.09004,198.85595 499.79535,201.43341 C 523.84114,202.57929 543.36808,218.06609 563.83238,228.73568 z "
       id="path2310" />
    <path
       style="color:#000000;fill:#000000;fill-opacity:1;fill-rule:nonzero;stroke:none;stroke-width:4;stroke-linecap:butt;stroke-linejoin:miter;marker:none;marker-start:none;marker-mid:none;marker-end:none;stroke-miterlimit:4;stroke-dasharray:none;stroke-dashoffset:0;stroke-opacity:1;visibility:visible;display:inline;overflow:visible"
       id="path1387"
       d="M 563.39349,243.9204 C 557.08193,239.1264 549.7556,235.33999 542.52796,231.69873 C 528.3912,224.99372 512.78054,220.1453 496.68278,219.06747 C 482.06934,216.82947 458.54645,233.7856 483.75161,217.55624 C 480.0315,219.85772 494.12005,226.83364 498.88073,229.48434 C 515.70661,238.52764 533.43283,246.17133 550.62811,254.64268 C 569.79183,262.94236 580.42566,276.91765 586.10664,294.61618 C 593.43784,323.75667 592.99479,353.94606 593.02405,383.64649 C 595.86443,404.34599 586.90541,428.79578 597.20455,448.39065 C 602.06077,450.41551 619.44766,437.10608 592.64973,452.21537 C 591.75265,452.72119 594.44482,451.19806 595.27215,450.60768 C 601.04257,446.48997 604.70393,440.70259 608.08774,435.02055 C 621.28472,409.43188 623.67019,380.69603 622.57486,352.95927 C 621.29082,326.78025 615.05904,301.01589 606.27247,276.03658 C 602.10558,263.54792 595.48832,251.56849 593.9047,238.52658 C 593.45363,232.35566 595.8594,227.23347 600.88892,223.07921 C 603.22857,221.93767 603.10843,222.51053 604.88967,223.8067 C 603.41598,222.64465 601.23216,222.30678 599.32548,221.84609 C 595.21702,221.1587 591.24593,222.01925 587.33511,223.0897 C 572.45646,230.54497 585.67753,223.59117 590.69295,220.48924 C 586.64838,222.74482 583.39656,225.85213 580.1821,228.92845 C 579.93099,229.17428 579.67985,229.42008 579.42872,229.6659 L 553.89248,227.4266 C 554.14069,227.207 554.3889,226.98738 554.63709,226.76776 C 558.25483,223.37386 561.65341,219.80055 565.42776,216.5368 C 575.57918,210.14256 583.71484,203.26992 596.14512,201.9331 C 602.34837,201.41934 608.47834,201.48268 614.35401,203.58696 C 619.71302,205.68352 624.55824,208.20415 627.37017,212.94149 C 629.43281,217.6492 630.51441,222.5469 626.23725,226.59765 C 623.5208,228.34528 619.94784,229.33174 618.46901,232.00518 C 618.36205,243.92425 626.20262,254.84968 629.37831,266.23397 C 638.64556,292.12674 645.28809,318.83688 646.98031,345.99349 C 648.54935,375.55887 646.17637,405.85291 633.70254,433.63584 C 624.58513,451.8587 597.37011,483.40653 575.57554,460.51453 C 561.82412,439.88069 570.78457,412.68389 568.45538,390.1552 C 568.49471,361.4308 568.99852,332.31485 562.77911,304.0056 C 558.37723,288.85029 550.06599,278.21484 533.60344,271.49803 C 516.11063,262.98946 498.14093,255.2005 481.21422,245.82293 C 469.21171,238.88936 453.25504,229.70978 458.22254,215.25513 C 474.91928,203.77425 487.55607,196.42643 509.41207,199.50821 C 527.12974,201.74487 544.25393,207.13498 559.74214,214.99231 C 566.17731,218.33383 577.61384,224.89202 581.19457,227.69478 L 563.39349,243.9204 z " />
    <path
       style="color:#000000;fill:#000000;fill-opacity:1;fill-rule:nonzero;stroke:none;stroke-width:4;stroke-linecap:butt;stroke-linejoin:miter;marker:none;marker-start:none;marker-mid:none;marker-end:none;stroke-miterlimit:4;stroke-dasharray:none;stroke-dashoffset:0;stroke-opacity:1;visibility:visible;display:inline;overflow:visible"
       d="M 204.27879,247.61961 C 167.6149,292.91168 190.71895,356.84515 179.28097,409.55134 C 204.88573,470.78007 284.97364,474.5117 327.93036,519.45661 C 388.53076,576.28041 367.15236,666.12846 371.76537,740.05213 C 369.64752,798.43236 401.164,861.17005 464.53687,870.06799 C 592.84165,892.57997 732.12845,812.04037 776.34129,689.21336 C 777.50276,610.47428 803.66399,533.74733 807.70981,456.12522 C 762.9237,454.02609 779.93701,553.12285 763.81923,591.32261 C 755.85932,659.91883 748.59491,737.27412 689.75143,783.41982 C 625.54035,844.19384 523.47521,875.41302 440.25519,837.64776 C 376.98537,792.08138 401.55059,704.68656 396.00673,638.58059 C 402.47387,555.78934 348.03074,481.1465 269.5226,457.31229 C 197.87927,438.44672 199.75665,365.86916 209.98757,307.24621 C 209.15096,287.92687 217.60662,264.07651 204.27879,247.61961 z "
       id="path1395" />
  </g>
</svg>
