<?xml version="1.0" encoding="UTF-8" standalone="no"?>
<!-- Created with Inkscape (http://www.inkscape.org/) -->
<svg
   xmlns:dc="http://purl.org/dc/elements/1.1/"
   xmlns:cc="http://web.resource.org/cc/"
   xmlns:rdf="http://www.w3.org/1999/02/22-rdf-syntax-ns#"
   xmlns:svg="http://www.w3.org/2000/svg"
   xmlns="http://www.w3.org/2000/svg"
   xmlns:sodipodi="http://inkscape.sourceforge.net/DTD/sodipodi-0.dtd"
   xmlns:inkscape="http://www.inkscape.org/namespaces/inkscape"
   width="744.09448819"
   height="1052.3622047"
   id="svg2"
   sodipodi:version="0.32"
   inkscape:version="0.43"
   sodipodi:docbase="C:\Program Files\Inkscape"
   sodipodi:docname="castle-1.svg">
  <defs
     id="defs4" />
  <sodipodi:namedview
     id="base"
     pagecolor="#ffffff"
     bordercolor="#666666"
     borderopacity="1.0"
     inkscape:pageopacity="0.0"
     inkscape:pageshadow="2"
     inkscape:zoom="0.7"
     inkscape:cx="314.64846"
     inkscape:cy="746.54069"
     inkscape:document-units="px"
     inkscape:current-layer="layer1"
     inkscape:window-width="1280"
     inkscape:window-height="977"
     inkscape:window-x="-4"
     inkscape:window-y="-4" />
  <metadata
     id="metadata7">
    <rdf:RDF>
      <cc:Work
         rdf:about="">
        <dc:format>image/svg+xml</dc:format>
        <dc:type
           rdf:resource="http://purl.org/dc/dcmitype/StillImage" />
      </cc:Work>
    </rdf:RDF>
  </metadata>
  <g
     inkscape:label="Layer 1"
     inkscape:groupmode="layer"
     id="layer1">
    <path
       style="fill:#000000;fill-opacity:1;fill-rule:nonzero;stroke:none;stroke-width:1px;stroke-linecap:butt;stroke-linejoin:miter;stroke-opacity:1"
       id="path1311"
       d="M 127.96167,625.24973 C 127.50443,622.87186 129.55243,621.1017 130.98343,619.25712 C 136.05919,612.9819 141.01691,606.61716 145.64169,600.00064 C 154.7206,587.08761 161.39744,572.7252 167.09015,558.05676 C 175.0212,536.90928 180.35506,514.89282 184.89552,492.80094 C 189.2324,471.54503 192.22378,450.04474 194.56771,428.48629 C 196.22531,412.85767 197.527,397.18804 198.20891,381.4852 C 198.35329,378.14695 198.4346,374.80665 198.49874,371.46608 L 208.31994,365.72721 C 208.27402,369.09381 208.20813,372.46024 208.07551,375.82474 C 207.45677,391.59726 206.17942,407.33619 204.55138,423.03496 C 202.24768,444.68956 199.31406,466.28976 195.03799,487.65108 C 190.55361,509.90915 185.2517,532.08105 177.48971,553.4481 C 171.87235,568.34481 165.30945,582.96847 156.36127,596.19521 C 151.80443,602.91382 146.92066,609.39713 141.7819,615.68168 C 140.75841,616.96105 139.08642,620.15006 137.75261,619.45938 L 127.96167,625.24973 z " />
    <path
       style="fill:#000000;fill-opacity:1;fill-rule:nonzero;stroke:none;stroke-width:1px;stroke-linecap:butt;stroke-linejoin:miter;stroke-opacity:1"
       id="path1313"
       d="M 246.32404,363.75654 C 246.31776,365.50597 246.39327,367.26385 246.42805,369.01602 C 246.40719,377.43799 245.98588,385.85263 245.67035,394.26708 C 245.11076,408.64102 244.94297,423.02728 244.97854,437.41115 C 245.05053,453.9598 245.34824,470.50892 246.07367,487.04251 C 246.78996,502.94717 247.90228,518.85695 250.56889,534.56626 C 252.83271,548.70414 257.52884,562.23787 264.47327,574.74021 C 270.90341,586.27078 280.26085,595.65919 290.32872,604.03728 C 292.32503,605.6863 294.38172,607.25903 296.44046,608.82849 L 288.7471,617.2072 C 286.6502,615.60293 284.55529,613.99547 282.52197,612.31045 C 272.12728,603.63491 262.47879,593.91137 255.75381,582.04511 C 248.53967,569.24939 243.54856,555.39241 241.11087,540.88579 C 238.30674,525.05916 237.11071,509.01599 236.36741,492.97372 C 235.59686,476.39789 235.28891,459.80456 235.19384,443.21203 C 235.13251,428.78626 235.27933,414.35742 235.8112,399.94052 C 236.1203,391.56541 236.52871,383.19217 236.64001,374.81127 C 236.63817,373.05683 236.65655,371.29666 236.5331,369.54688 L 246.32404,363.75654 z " />
    <path
       style="fill:#000000;fill-opacity:1;fill-rule:nonzero;stroke:none;stroke-width:1px;stroke-linecap:butt;stroke-linejoin:miter;stroke-opacity:1"
       id="path1317"
       d="M 198.67596,372.3964 C 199.57153,373.46346 198.27243,371.49163 198.14312,371.20171 C 197.00804,369.73001 195.31202,369.04498 193.69452,368.23786 C 190.86559,367.07481 188.13633,365.76432 185.56001,364.11973 C 182.24726,361.91525 180.42794,358.82951 179.15304,355.16648 C 178.11275,351.05307 178.25675,346.80077 178.50013,342.60291 C 178.84453,338.35158 180.70312,328.59241 181.26444,324.36592 L 190.21536,321.48605 C 189.67004,325.67076 188.8853,332.88418 188.44533,337.08172 C 188.10215,340.92211 187.83497,344.80385 188.46385,348.63201 C 189.28564,351.58698 190.36491,353.90128 193.09231,355.59593 C 195.5853,357.03309 198.18824,358.21906 200.82597,359.37597 C 202.94199,360.48512 205.051,361.59543 206.54221,363.5306 C 207.21001,364.54068 207.90797,365.529 208.4669,366.60605 L 198.67596,372.3964 z "
       sodipodi:nodetypes="ccccccccccccccc" />
    <path
       style="fill:#000000;fill-opacity:1;fill-rule:nonzero;stroke:none;stroke-width:1px;stroke-linecap:butt;stroke-linejoin:miter;stroke-opacity:1"
       id="path1321"
       d="M 259.89547,322.32796 C 258.47796,320.06581 262.17564,322.76786 262.48584,323.3736 C 264.1748,326.53395 265.53536,329.84501 266.76515,333.2049 C 268.23114,337.12819 268.52946,341.17764 268.18463,345.30338 C 266.75334,353.05426 261.46048,357.12199 255.93658,362.63638 C 253.06532,364.97355 249.80438,366.75518 246.54259,368.47773 C 243.48742,369.92216 240.63944,371.60702 238.01491,373.71907 C 236.51413,375.29663 241.11977,370.66537 242.65122,369.11757 L 236.41666,373.25266 C 239.51695,369.97927 232.71157,366.26632 236.57862,363.69122 C 239.53322,361.8773 247.64916,359.51627 250.71575,357.89589 C 253.7382,356.13538 256.77628,354.32951 259.16765,351.72992 C 246.01339,364.93076 256.56946,355.55085 258.0362,350.44147 C 258.86591,346.91757 258.77608,343.44421 257.62123,339.97095 C 256.52674,336.75238 255.26847,333.59306 253.68392,330.57894 C 252.99683,329.23777 252.37134,327.75856 251.5331,326.68974 L 259.89547,322.32796 z "
       sodipodi:nodetypes="ccccccccccccccccc" />
    <path
       style="fill:#000000;fill-opacity:1;fill-rule:nonzero;stroke:none;stroke-width:1px;stroke-linecap:butt;stroke-linejoin:miter;stroke-opacity:1"
       id="path1337"
       d="M 394.89547,365.18511 C 394.89547,365.98818 394.89547,366.79124 394.89547,367.59431 C 394.86911,370.38878 394.92284,373.18217 394.99249,375.97553 C 395.05123,379.81626 395.58247,383.60342 396.41372,387.34404 C 397.54633,391.75628 400.64079,394.55423 404.3419,396.92993 C 409.20331,399.78287 414.54339,401.63705 419.91213,403.27217 C 421.00658,403.59733 422.10558,403.90681 423.20317,404.22109 L 416.56176,413.45593 C 415.4473,413.13099 414.33061,412.81354 413.22128,412.47125 C 407.57366,410.68398 401.96834,408.63545 396.89432,405.52784 C 392.52095,402.60008 388.83001,399.09064 387.15773,393.95595 C 386.11606,390.00631 385.39979,385.99491 385.28063,381.89756 C 385.16419,379.06163 385.07978,376.22364 385.10453,373.38466 C 385.10453,372.58159 385.10453,371.77852 385.10453,370.97545 L 394.89547,365.18511 z " />
    <path
       style="fill:#000000;fill-opacity:1;fill-rule:nonzero;stroke:none;stroke-width:1px;stroke-linecap:butt;stroke-linejoin:miter;stroke-opacity:1"
       id="path1339"
       d="M 423.00515,404.26171 C 423.04431,406.53429 422.69659,410.445 422.59435,412.71474 C 421.8186,425.98619 420.6277,439.23064 419.30887,452.45796 C 417.23642,472.5375 414.99983,492.59977 412.81348,512.66716 C 410.87833,529.12875 409.43299,545.69717 406.06935,561.94907 C 403.85733,572.90169 399.69421,583.2601 393.75658,592.69601 C 387.27656,602.43365 378.45567,609.91368 367.93531,614.74335 C 362.31646,617.12196 356.34899,618.41215 350.3325,619.26654 L 355.65581,609.21403 C 361.37807,608.20819 367.05366,606.81977 372.29429,604.23669 C 375.60714,602.4963 378.79947,600.66632 381.65839,598.2233 C 382.50291,597.50164 384.87173,595.15554 384.09509,595.94982 C 372.02006,608.29913 380.70301,599.66521 383.03724,596.50209 C 389.25844,587.62783 393.55504,577.66112 395.90825,567.06205 C 399.51351,550.9613 400.86099,534.46623 402.82748,518.11421 C 405.01123,498.05481 407.24176,478.00026 409.33733,457.93144 C 410.67349,444.75169 411.87011,431.55514 412.70375,418.33317 C 412.8292,416.12208 412.98415,413.90933 412.96167,411.69355 L 423.00515,404.26171 z "
       sodipodi:nodetypes="ccccccccccssccccccc" />
    <path
       style="fill:#000000;fill-opacity:1;fill-rule:nonzero;stroke:none;stroke-width:1px;stroke-linecap:butt;stroke-linejoin:miter;stroke-opacity:1"
       id="path1345"
       d="M 286.5331,615.25354 C 287.34988,616.61962 285.68165,612.05966 285.49346,611.39468 C 284.04632,605.22481 282.97914,598.97241 281.92175,592.72622 C 280.31095,583.05186 278.93727,573.32682 278.40523,563.5277 C 277.84044,553.49776 278.77413,543.48725 280.726,533.65548 C 282.56142,524.65028 286.31734,516.29969 290.9697,508.4326 C 296.93939,499.22062 304.75716,491.2257 313.39631,484.48326 C 318.06191,480.87394 323.40959,478.46833 329.0618,476.89998 C 333.72525,475.58992 338.12901,476.30769 342.57429,477.91466 C 347.00306,479.76477 350.25728,483.0975 353.28211,486.6992 C 356.47559,490.76002 358.63728,495.43925 360.44367,500.24433 C 362.37146,505.60403 363.46356,511.20553 364.40785,516.8072 C 365.50428,523.22504 365.94853,529.72074 366.19884,536.21854 C 366.3978,542.67473 366.32357,549.13453 366.17246,555.59066 C 366.04909,561.15429 365.77224,566.71267 365.50108,572.27057 C 365.27136,577.0174 364.93302,581.75746 364.55942,586.49476 C 364.26298,590.73189 363.69302,594.93895 363.04209,599.13369 C 362.44707,602.98282 361.66576,606.7965 360.73332,610.5767 C 360.40682,611.83683 360.04372,613.087 359.69002,614.33964 L 349.4276,619.24609 C 349.77986,618.00496 350.12803,616.76265 350.49077,615.52452 C 351.49124,611.85715 352.364,608.16 352.96076,604.40221 C 353.64171,600.29198 354.29755,596.17387 354.61425,592.01599 C 355.01926,587.31502 355.36563,582.60921 355.61513,577.89717 C 355.90219,572.36689 356.17958,566.83515 356.33367,561.29933 C 356.50383,554.90158 356.61409,548.50097 356.46321,542.1014 C 356.28371,535.74056 355.92757,529.37659 354.92213,523.08507 C 354.06534,517.67893 353.09219,512.26703 351.34179,507.06681 C 349.71137,502.60976 347.88217,498.20973 344.939,494.43115 C 342.34839,491.29942 339.58802,488.39417 335.67355,486.95736 C 331.78331,485.82746 328.06877,485.76092 324.19572,487.18161 C 318.97336,489.09098 314.05609,491.58848 309.83876,495.28763 C 294.6572,508.39415 320.49353,483.47488 301.64369,504.50111 C 296.84303,511.93464 292.92528,519.90296 290.89983,528.56786 C 288.75248,538.09009 287.70069,547.81396 288.10571,557.58706 C 288.58539,567.26351 289.77079,576.87755 291.39442,586.42868 C 292.41847,592.59707 293.47747,598.76324 294.81328,604.87306 C 295.1994,606.43157 295.42229,608.11777 296.32404,609.4632 L 286.5331,615.25354 z " />
    <path
       style="fill:#000000;fill-opacity:1;fill-rule:nonzero;stroke:none;stroke-width:1px;stroke-linecap:butt;stroke-linejoin:miter;stroke-opacity:1"
       id="path1347"
       d="M 476.94904,369.29225 C 476.42059,369.0716 479.39607,370.28775 479.64394,371.00286 C 480.87499,374.56244 479.82935,373.96708 480.39124,377.68116 C 480.98331,382.13922 480.13651,386.40524 478.65955,390.58413 C 475.51481,397.29295 469.86536,402.53753 463.85488,406.75151 C 460.66955,408.8366 457.18491,410.36673 453.68369,411.82749 C 451.7815,412.51757 449.91967,413.30361 448.06477,414.10926 L 452.542,403.65245 C 454.42145,402.9015 456.31472,402.18304 458.17053,401.37479 C 461.45301,399.86497 464.71707,398.26682 467.55394,395.99476 C 475.47528,389.07287 458.83576,405.64213 468.13857,394.90843 C 469.95538,391.41119 471.04037,387.76669 470.78251,383.76909 C 470.42934,380.27626 469.78313,376.82887 468.70941,373.47657 C 468.26534,372.15481 467.88066,370.78571 467.24739,369.54688 L 476.94904,369.29225 z "
       sodipodi:nodetypes="csccccccccccccc" />
    <path
       style="fill:#000000;fill-opacity:1;fill-rule:nonzero;stroke:none;stroke-width:1px;stroke-linecap:butt;stroke-linejoin:miter;stroke-opacity:1"
       id="path1351"
       d="M 457.03833,402.32797 C 457.03166,403.45688 457.04274,404.58568 457.04748,405.7143 C 457.21558,410.36301 457.42109,415.01029 457.61617,419.65794 C 457.95396,428.20269 458.51845,436.73565 459.11076,445.26578 C 459.88587,456.43137 460.77938,467.5881 461.54884,478.75411 C 462.33417,490.73239 463.15971,502.70787 464.22223,514.66512 C 465.19615,525.56553 466.39353,536.44724 467.92576,547.28375 C 469.16872,555.98494 470.68013,564.64996 472.8205,573.17717 C 474.39754,579.44555 476.82159,585.436 479.96367,591.07361 C 482.43546,595.45913 485.81761,599.15896 489.40865,602.63768 C 492.66924,605.70906 496.3617,608.22926 500.19434,610.51886 C 503.77383,612.62079 507.64028,614.11017 511.5617,615.42526 C 515.2524,616.64205 519.07728,617.29301 522.91096,617.85148 L 516.67773,627.3666 C 512.6608,626.70169 508.65902,625.92147 504.80395,624.57531 C 500.67409,623.11055 496.60686,621.46033 492.83871,619.19558 C 488.80128,616.72376 484.90117,614.02787 481.45033,610.76514 C 477.57825,607.0713 474.00735,603.05791 471.28295,598.42451 C 467.91535,592.55408 465.27398,586.31047 463.54139,579.75659 C 461.27141,571.12669 459.69948,562.33976 458.4081,553.51309 C 456.83283,542.6245 455.59824,531.68899 454.60066,520.73275 C 453.52091,508.75479 452.6575,496.75991 451.88751,484.75823 C 451.12074,473.59261 450.24677,462.43516 449.45054,451.27169 C 448.85723,442.71072 448.26241,434.14917 447.90096,425.57445 C 447.71354,420.92003 447.50535,416.26649 447.3208,411.61195 C 447.28337,410.44728 447.21788,409.28437 447.24739,408.11831 L 457.03833,402.32797 z " />
    <path
       style="fill:#000000;fill-opacity:1;fill-rule:nonzero;stroke:none;stroke-width:1px;stroke-linecap:butt;stroke-linejoin:miter;stroke-opacity:1"
       id="path1357"
       d="M 64.89547,385.18892 C 64.892923,386.354 64.897001,387.51907 64.898769,388.68409 C 64.832451,392.22362 65.47078,395.69756 66.168862,399.14963 C 66.899719,403.0979 68.472519,406.73014 70.432819,410.20103 C 72.424548,413.58432 75.575771,415.68287 78.899041,417.58724 C 81.988673,419.29271 85.35869,420.0662 88.814709,420.55425 L 82.585957,430.0723 C 78.753534,429.34019 75.01824,428.29043 71.609959,426.31993 C 67.800893,424.03523 64.204931,421.48361 61.819772,417.63111 C 59.590659,413.86814 57.720622,409.93006 56.811418,405.61715 C 56.000662,401.96645 55.220317,398.28722 55.142514,394.53269 C 55.122357,393.3482 55.088442,392.16417 55.10453,390.97927 L 64.89547,385.18892 z " />
    <path
       style="fill:#000000;fill-opacity:1;fill-rule:nonzero;stroke:none;stroke-width:1px;stroke-linecap:butt;stroke-linejoin:miter;stroke-opacity:1"
       id="path1361"
       d="M 88.466899,420.18511 C 88.033061,420.12884 89.182007,423.11845 89.48091,424.13466 C 91.313052,430.65547 92.139737,437.39077 92.757903,444.11762 C 93.594217,456.1728 93.393042,468.27226 93.221205,480.34672 C 93.054825,492.66257 92.628523,504.97424 91.888793,517.26902 C 91.335257,526.8485 90.363071,536.39532 88.837739,545.86814 C 87.656886,553.78097 85.113664,561.32198 81.757534,568.55293 C 78.71329,574.88193 74.697083,580.64651 70.248419,586.05513 C 64.254597,592.96482 57.853197,599.56967 50.704884,605.29051 C 46.827708,608.28725 42.572038,610.73586 38.278663,613.07631 C 38.259001,613.09084 36.601103,613.94287 36.573697,613.95702 L 40.778232,603.38761 C 41.326779,603.08623 41.882383,602.7977 42.423873,602.48348 C 46.534472,600.08698 50.616772,597.60408 54.221818,594.47285 C 69.381991,581.31684 45.189949,603.55452 59.403572,589.48732 C 63.904999,584.35315 68.041785,578.90751 71.220432,572.8378 C 74.715365,565.95777 77.477128,558.75482 78.739611,551.1044 C 80.38282,541.76285 81.400899,532.33243 81.985545,522.86512 C 82.760431,510.62067 83.219935,498.35825 83.402953,486.09064 C 83.587046,474.1127 83.801667,462.11562 83.114005,450.14969 C 82.600632,443.62307 81.877681,437.08837 80.219199,430.73854 C 79.775079,429.13722 79.438183,427.45176 78.675958,425.97545 L 88.466899,420.18511 z " />
    <path
       style="fill:#000000;fill-opacity:1;fill-rule:nonzero;stroke:none;stroke-width:1px;stroke-linecap:butt;stroke-linejoin:miter;stroke-opacity:1"
       id="path1363"
       d="M 143.92121,379.09574 C 143.93737,380.4241 148.45533,379.98384 148.43775,381.31172 C 148.32587,385.27002 148.04116,389.21695 147.66266,393.15737 C 147.28382,397.61853 146.12554,401.90801 144.61979,406.102 C 141.72499,413.33971 136.0817,417.94327 130.5772,423.38838 C 127.50188,426.06889 123.92126,427.95921 120.20269,429.56441 C 119.94149,429.6651 119.68029,429.7658 119.41909,429.8665 L 123.90912,419.41517 C 124.14672,419.30443 124.38432,419.19369 124.62192,419.08295 C 127.99128,417.30774 131.20353,415.26393 133.8643,412.49868 C 122.82035,423.56364 130.98077,416.37521 134.1459,410.53914 C 135.89139,406.72796 137.17744,402.75852 137.65799,398.57006 C 138.1254,394.7196 138.45263,390.85626 138.57432,386.97771 C 138.62713,385.69118 138.70875,384.40671 138.67596,383.11831 L 143.92121,379.09574 z "
       sodipodi:nodetypes="ccccccccccccccc" />
    <path
       style="fill:#000000;fill-opacity:1;fill-rule:nonzero;stroke:none;stroke-width:1px;stroke-linecap:butt;stroke-linejoin:miter;stroke-opacity:1"
       id="path1373"
       d="M 124.18118,417.32797 C 124.18118,417.96568 124.18118,418.60339 124.18118,419.24111 C 124.18118,422.16717 124.18118,425.09323 124.18118,428.01929 C 124.17759,433.65501 123.91374,439.28631 123.68148,444.91605 C 123.37563,451.9525 123.14196,458.99168 122.94595,466.03195 C 122.67456,473.24825 122.87129,480.46371 123.3706,487.66423 C 123.82178,494.45087 125.04196,501.14246 126.57281,507.75883 C 128.02603,513.9428 130.11995,519.94466 132.45004,525.84569 C 134.65232,531.36651 137.28573,536.69782 140.01737,541.9718 C 142.38029,546.65885 145.15776,551.10364 148.16469,555.39798 C 150.88778,559.22401 154.18193,562.55551 157.63397,565.71464 C 160.37857,568.17083 163.44958,570.19448 166.56156,572.14359 L 159.14349,580.76699 C 155.86688,578.68291 152.63995,576.51237 149.74437,573.90884 C 146.10529,570.56659 142.62388,567.04996 139.72708,563.02669 C 136.56831,558.62577 133.71247,554.02017 131.23378,549.19947 C 128.43185,543.83119 125.72571,538.4063 123.44306,532.79299 C 121.00635,526.75347 118.81432,520.60721 117.25097,514.27756 C 115.61264,507.50784 114.27662,500.65719 113.73083,493.70289 C 113.1497,486.39824 112.86318,479.07268 113.10941,471.74449 C 113.28706,464.68676 113.51522,457.63028 113.81492,450.57659 C 114.04592,444.98915 114.31176,439.4019 114.39024,433.80964 C 114.39024,430.88358 114.39024,427.95752 114.39024,425.03145 C 114.39024,424.39374 114.39024,423.75603 114.39024,423.11831 L 124.18118,417.32797 z " />
    <path
       style="fill:#000000;fill-opacity:1;fill-rule:nonzero;stroke:none;stroke-width:1px;stroke-linecap:butt;stroke-linejoin:miter;stroke-opacity:1"
       id="path1375"
       d="M 122.1847,434.60957 C 122.94037,435.30063 123.8237,435.82807 124.62778,436.45326 C 126.24859,437.43604 128.08937,437.84066 129.8995,438.31017 C 133.16098,439.09759 136.49228,439.1533 139.82423,439.06511 C 144.63371,438.84397 149.30904,437.62959 153.92355,436.33886 C 158.93772,434.87698 163.80019,432.96859 168.46228,430.62096 C 173.01259,428.26164 176.86624,424.90211 180.47365,421.3091 C 169.55094,432.73823 179.50446,422.16317 183.72536,416.56551 C 186.81015,412.48597 189.40621,408.08052 191.88817,403.61887 C 194.1302,399.55285 195.99642,395.30401 197.68844,390.98579 C 198.24089,389.5654 198.68752,388.10855 199.16109,386.66124 L 207.67745,381.29535 C 207.23395,382.8062 208.58678,384.83142 208.06113,386.31696 C 206.45757,390.7946 204.66756,395.20059 202.46011,399.42067 C 200.05364,404.04054 197.47584,408.57888 194.47386,412.84256 C 189.43234,419.92353 183.74567,426.39406 177.23388,432.21298 C 173.28036,435.76298 169.0331,438.97213 164.14819,441.14613 C 159.25084,443.36484 154.18838,445.21361 148.98651,446.58661 C 144.10997,447.83108 139.16516,448.90748 134.10436,448.89739 C 130.48742,448.83486 126.8777,448.59301 123.37077,447.62501 C 121.20713,446.97226 119.03871,446.31127 117.14862,445.02372 C 116.53262,444.54212 114.13306,442.72393 116.39435,444.40051 L 122.1847,434.60957 z "
       sodipodi:nodetypes="ccccccccccccccccccccccc" />
    <path
       style="fill:#000000;fill-opacity:1;fill-rule:nonzero;stroke:none;stroke-width:1px;stroke-linecap:butt;stroke-linejoin:miter;stroke-opacity:1"
       id="path1379"
       d="M 244.89547,367.33559 C 244.65171,368.26764 245.14262,369.24011 245.38952,370.16054 C 246.69123,373.63992 248.58198,376.83735 250.57849,379.95244 C 253.93603,384.7705 258.18334,388.86204 262.59125,392.7062 C 268.25877,397.50827 274.49972,401.55892 280.81773,405.43984 C 287.99412,409.79259 295.43755,413.67408 303.00683,417.29157 C 311.44111,421.34427 320.25997,424.45338 329.21483,427.12102 C 338.45839,429.79709 347.89285,431.71808 357.35894,433.40822 C 365.2304,434.80852 373.15371,435.87595 381.126,436.47502 C 387.61585,436.94076 394.11236,436.63434 400.55945,435.83558 C 405.98839,435.17212 411.28177,433.85845 416.43387,432.05711 C 416.74389,431.93293 417.0539,431.80874 417.36392,431.68456 L 412.71826,442.06765 C 412.38505,442.18136 412.05185,442.29507 411.71865,442.40879 C 406.31598,444.07503 400.76903,445.21922 395.14655,445.84013 C 388.48424,446.51192 381.7809,446.69052 375.10022,446.12285 C 367.02677,445.42647 359.00064,444.30162 351.02653,442.85762 C 341.44462,441.10465 331.89666,439.10922 322.55001,436.33898 C 313.42375,433.61149 304.48451,430.28928 295.89084,426.16588 C 288.22186,422.46587 280.67663,418.50644 273.40526,414.06804 C 266.93177,410.0677 260.5442,405.88505 254.74246,400.93949 C 250.10017,396.87366 245.63391,392.54589 242.05781,387.48826 C 239.87477,384.15345 237.83041,380.73079 236.3212,377.02757 C 235.86094,375.74932 235.32389,374.46813 235.10453,373.12594 L 244.89547,367.33559 z " />
    <path
       style="fill:#000000;fill-opacity:1;fill-rule:nonzero;stroke:none;stroke-width:1px;stroke-linecap:butt;stroke-linejoin:miter;stroke-opacity:1"
       id="path1385"
       d="M 54.650216,391.09037 C 55.662853,385.86819 56.012412,385.60503 60.186727,382.79265 C 64.331709,379.97094 68.738411,377.58439 73.291942,375.49804 C 79.182773,372.90149 85.36789,371.09601 91.63736,369.6887 C 97.407814,368.43585 103.28531,367.89639 109.18184,367.98831 C 114.2574,368.06032 119.24196,368.93414 124.15517,370.13514 C 128.43997,371.23228 132.50201,372.96689 136.48641,374.85473 C 140.18097,376.68634 143.66681,378.89648 147.09616,381.17654 C 147.10487,381.16651 148.48725,382.15092 148.48975,382.15267 L 140.8991,390.62455 C 140.45231,390.31496 140.01209,389.99588 139.55871,389.69578 C 136.26098,387.5292 132.9136,385.42014 129.34958,383.71228 C 125.55561,381.97435 121.68771,380.38949 117.60959,379.43815 C 112.92309,378.41794 108.17548,377.706 103.36224,377.76189 C 97.704153,377.8565 92.075165,378.53629 86.5699,379.87258 C 80.524042,381.39219 74.55242,383.27098 68.933101,386.00476 C 64.562841,388.21887 60.347981,390.70425 56.313401,393.48789 L 54.650216,391.09037 z "
       sodipodi:nodetypes="ccccccccccsccccccc" />
    <path
       style="fill:#000000;fill-opacity:1;fill-rule:nonzero;stroke:none;stroke-width:1px;stroke-linecap:butt;stroke-linejoin:miter;stroke-opacity:1"
       id="path1387"
       d="M 185.04184,324.60957 C 183.25567,324.51844 185.76374,323.47948 186.49851,323.11363 C 189.0702,321.86357 191.74817,320.87493 194.44003,319.92367 C 197.93246,318.69989 201.51853,317.78817 205.11503,316.93286 C 209.16178,315.90297 213.2498,315.05778 217.35487,314.29982 C 221.38531,313.48477 225.47482,313.18819 229.57631,313.1064 C 233.31049,313.05849 237.01218,313.52333 240.68496,314.14263 C 244.1679,314.81036 247.57278,315.78495 250.89479,317.01419 C 254.18116,318.29407 257.18319,320.13833 260.12587,322.05543 C 260.54235,322.33012 260.94845,322.61996 261.35973,322.90223 L 253.79852,331.40039 C 253.79494,331.39796 252.62815,330.59626 252.6164,330.59934 C 249.87318,328.86418 247.09715,327.16117 244.01767,326.07486 C 240.85794,325.0519 237.66395,324.11785 234.37313,323.6058 C 230.88708,323.12068 227.37923,322.77613 223.85326,322.93683 C 219.91901,323.15071 216.0109,323.5963 212.15102,324.41468 C 208.10603,325.22568 204.08172,326.12757 200.08012,327.13287 C 196.59588,328.03824 193.12749,329.01361 189.75739,330.29013 C 187.20216,331.31002 184.65154,332.35187 182.22336,333.65468 C 180.76656,334.3885 180.09811,334.97132 179.2515,334.40051 L 185.04184,324.60957 z " />
    <path
       style="fill:#000000;fill-opacity:1;fill-rule:nonzero;stroke:none;stroke-width:1px;stroke-linecap:butt;stroke-linejoin:miter;stroke-opacity:1"
       id="path1391"
       d="M 387.96167,373.10687 C 385.29959,368.40157 393.65472,366.50224 396.50838,364.08119 C 398.73205,363.41201 400.99512,362.8772 403.24601,362.30603 C 407.14696,361.27092 411.12007,360.5719 415.09972,359.92465 C 419.63506,359.17258 424.21584,358.7922 428.79719,358.46183 C 433.17002,358.15605 437.54884,357.99368 441.93158,357.99638 C 446.28241,357.97301 450.52614,358.84871 454.7138,359.93221 C 458.8229,361.06699 462.75383,362.71399 466.63064,364.46503 C 470.11938,366.10475 473.56798,367.82835 476.99326,369.59619 C 477.94638,370.08951 478.89318,370.59483 479.84264,371.09511 L 472.60458,379.87014 C 471.66233,379.37559 470.7222,378.87697 469.7766,378.38883 C 466.40026,376.66118 463.00622,374.96525 459.56176,373.37691 C 455.84873,371.74037 452.07995,370.2089 448.13612,369.21256 C 444.19306,368.29978 440.20537,367.63726 436.13763,367.78519 C 431.83212,367.86561 427.52938,368.05274 423.23517,368.38426 C 418.7463,368.75553 414.26359,369.20924 409.8262,370.00337 C 405.93547,370.69814 402.0647,371.48867 398.24793,372.52415 C 396.15705,373.08541 393.99755,373.53461 392.07244,374.55558 C 394.27407,372.42007 393.15276,372.59784 391.85975,369.81652 L 387.96167,373.10687 z "
       sodipodi:nodetypes="ccccccccscccccccscccc" />
    <path
       style="fill:#000000;fill-opacity:1;fill-rule:nonzero;stroke:none;stroke-width:1px;stroke-linecap:butt;stroke-linejoin:miter;stroke-opacity:1"
       id="path1395"
       d="M 232.89899,313.89528 C 227.75751,313.42358 222.13435,324.85126 226.07033,318.55739 C 228.31084,314.13022 229.85225,309.39388 231.38499,304.68725 C 233.86353,296.95213 235.67866,289.03099 237.29766,281.0785 C 239.16031,271.78996 240.40523,262.39595 241.47242,252.98774 C 242.44846,244.19834 243.03472,235.37213 243.34407,226.53576 C 243.50879,221.47577 243.42716,216.41419 243.22975,211.35699 L 252.93246,205.41998 C 253.17945,210.55236 253.31515,215.69004 253.18372,220.82858 C 252.95282,229.75079 252.38263,238.66204 251.45808,247.54006 C 250.42709,257.03571 249.22939,266.51927 247.42755,275.90394 C 245.85549,283.97153 244.08818,292.00721 241.6924,299.87602 C 240.17918,304.72802 238.62729,309.58154 236.59703,314.24704 C 234.60135,318.5438 233.0528,323.18553 227.10864,323.68622 L 232.89899,313.89528 z " />
    <path
       style="fill:#000000;fill-opacity:1;fill-rule:nonzero;stroke:none;stroke-width:1px;stroke-linecap:butt;stroke-linejoin:miter;stroke-opacity:1"
       id="path1397"
       d="M 130.81882,383.11068 C 130.37627,380.99524 131.88913,379.5379 133.15975,377.89142 C 138.15699,371.91704 143.174,365.96355 147.91714,359.78303 C 155.85133,349.33011 162.84553,338.20149 169.37008,326.82617 C 176.8411,313.79283 183.2824,300.2079 189.11005,286.37063 C 194.17774,274.28477 198.56543,261.92465 202.44637,249.41008 C 204.64773,242.30247 206.60577,235.12405 208.45997,227.91925 L 218.67654,222.91802 C 216.8533,230.17926 214.92085,237.41305 212.74373,244.57738 C 208.91249,257.19674 204.57553,269.66511 199.55372,281.86281 C 193.77158,295.82478 187.40203,309.55143 179.98023,322.72553 C 173.50514,334.24157 166.53226,345.49305 158.6915,356.13558 C 154.00417,362.38809 149.07592,368.44998 143.97611,374.37047 C 143.08843,375.42357 141.74677,377.80066 140.60976,377.32034 L 130.81882,383.11068 z " />
    <path
       style="fill:#000000;fill-opacity:1;fill-rule:nonzero;stroke:none;stroke-width:1px;stroke-linecap:butt;stroke-linejoin:miter;stroke-opacity:1"
       id="path1411"
       d="M 209.2459,224.69886 C 209.25565,224.27087 212.30947,223.76202 212.93411,223.5117 C 215.72518,222.42939 218.46105,221.21323 221.16618,219.93387 C 224.82134,218.16428 228.38663,216.22151 231.91694,214.21714 C 235.61717,212.14894 239.1547,209.81751 242.61757,207.37863 C 245.72112,205.06508 248.74164,202.64332 251.82841,200.30675 C 254.27447,198.26525 256.90519,196.88984 259.97884,196.21748 C 262.75941,196.1476 264.75458,197.58664 266.8601,199.20512 C 269.25601,201.36286 271.5321,203.64964 273.87922,205.86043 C 276.84462,208.65225 280.04834,211.16666 283.29563,213.61756 C 286.53454,216.02915 289.90057,218.2603 293.29939,220.43787 C 294.8623,221.43239 296.45978,222.37041 298.05354,223.31406 L 290.68953,231.98366 C 289.06213,231.01224 287.43076,230.04684 285.836,229.02206 C 282.37072,226.78769 278.93894,224.4988 275.63645,222.02753 C 272.29073,219.48778 268.99109,216.88185 265.93114,213.99791 C 263.63849,211.83611 261.414,209.60061 259.07048,207.49442 C 257.52857,206.4824 256.8068,205.71777 254.96706,206.42888 C 252.59629,207.81801 250.30906,209.31937 248.18718,211.0832 C 245.10065,213.46474 242.06726,215.92183 238.83468,218.10618 C 235.24332,220.4826 231.58798,222.75971 227.8058,224.82323 C 224.18933,226.79599 220.54607,228.72546 216.79654,230.43611 C 213.98937,231.65629 211.17918,232.87595 208.29137,233.89609 C 207.20255,234.19116 207.78721,235.41801 206.66984,235.1148 L 209.2459,224.69886 z "
       sodipodi:nodetypes="ccccccccsccccccsccccscccc" />
    <path
       style="fill:#000000;fill-opacity:1;fill-rule:nonzero;stroke:none;stroke-width:1px;stroke-linecap:butt;stroke-linejoin:miter;stroke-opacity:1"
       id="path1423"
       d="M 247.89899,262.46671 C 248.42118,262.19778 250.40758,262.13916 251.36974,262.06259 C 256.96593,261.63475 262.5823,261.62457 268.19136,261.63876 C 276.276,261.61437 284.32242,262.41113 292.2986,263.67365 C 299.38731,264.79191 306.26148,266.81202 312.71295,269.94734 C 318.05382,272.55302 321.54406,276.60568 323.39266,282.18386 C 324.73346,287.11058 324.30034,292.18118 323.64779,297.1696 C 323.42293,298.81344 323.03555,300.42616 322.69106,302.04659 L 312.4796,307.05825 C 312.86969,305.52467 313.29513,303.99901 313.56627,302.43775 C 314.3341,297.91662 314.96874,293.32435 314.11285,288.7623 C 312.75999,284.00231 310.19858,280.85052 305.55048,278.78418 C 299.35605,275.92323 292.76998,274.156 286.02092,273.1595 C 278.19515,272.01706 270.30984,271.33541 262.39326,271.4251 C 256.87073,271.44338 251.34134,271.49497 245.83772,272.00177 C 244.61796,272.12497 243.30392,272.36856 242.10864,272.25765 L 247.89899,262.46671 z " />
    <path
       style="fill:#000000;fill-opacity:1;fill-rule:nonzero;stroke:none;stroke-width:1px;stroke-linecap:butt;stroke-linejoin:miter;stroke-opacity:1"
       id="path1425"
       d="M 322.03833,299.47082 C 322.57296,300.5931 321.86945,301.24156 321.44315,302.28712 C 320.42634,304.25782 319.22422,306.12191 317.99862,307.96626 C 316.23394,310.57944 314.10904,312.91179 311.96587,315.21385 C 307.28569,320.1994 302.46892,325.01059 296.97687,329.07033 C 293.7941,331.17705 290.40265,331.50596 286.72711,331.01253 C 282.70985,330.03181 279.30707,327.66758 275.97721,325.32029 C 272.4978,322.76829 269.17613,320.00924 265.84454,317.2693 C 262.52835,314.56396 259.44511,311.60107 256.46723,308.53306 C 253.65448,305.5314 251.08265,302.31654 248.56248,299.06897 C 246.2204,296.03967 244.13263,292.82909 242.02506,289.6359 C 241.73962,289.20123 241.44952,288.76965 241.16176,288.33653 L 246.30153,276.52853 C 242.90874,270.9929 250.57129,282.12087 250.56677,282.12393 C 252.63132,285.24748 254.65831,288.4003 256.93914,291.37338 C 259.37234,294.52491 261.8588,297.64253 264.57638,300.55608 C 267.45289,303.52266 270.43663,306.38179 273.64597,308.99112 C 276.91672,311.67557 280.17282,314.38541 283.59675,316.87439 C 286.46022,318.86148 289.37007,320.98169 292.90606,321.46207 C 295.89357,321.24634 298.36847,320.40775 300.62796,318.29721 C 305.53794,314.12845 311.97495,307.57276 301.0487,318.40853 C 303.20675,316.25377 305.35793,314.08005 307.2468,311.67961 C 308.52485,309.97861 309.77582,308.26449 310.84605,306.42138 C 311.29524,306.04948 311.66264,304.06006 312.24739,305.26117 L 322.03833,299.47082 z "
       sodipodi:nodetypes="ccccccccccscccccccccccccc" />
    <path
       style="fill:#000000;fill-opacity:1;fill-rule:nonzero;stroke:none;stroke-width:1px;stroke-linecap:butt;stroke-linejoin:miter;stroke-opacity:1"
       id="path1431"
       d="M 292.9028,219.60957 C 294.01315,220.08983 294.7041,221.02765 295.51848,221.86195 C 297.15255,224.03248 298.12207,226.59804 299.16993,229.0824 C 301.35929,234.13493 302.86814,239.42685 304.26086,244.74211 C 306.64919,254.22025 308.39063,263.84735 310.09719,273.46717 C 312.3901,286.37019 314.24,299.34591 316.04482,312.32449 C 317.83614,325.80542 319.78057,339.26556 322.24199,352.64198 C 324.34439,364.04354 326.92519,375.35579 330.04458,386.52219 C 332.47176,395.19205 335.38064,403.71741 338.63164,412.11053 C 341.04588,418.2873 343.88082,424.28501 347.38319,429.91814 C 349.12997,432.72675 351.26235,435.24234 353.44142,437.71518 L 345.16679,439.96999 C 342.81486,437.36844 340.70861,440.34387 338.8059,437.38946 C 335.13341,431.5905 332.13071,425.42068 329.60828,419.03654 C 326.26652,410.552 323.30087,401.9205 320.79956,393.14942 C 317.6037,381.89781 314.96313,370.49308 312.80777,358.99699 C 310.29598,345.57848 308.30528,332.07333 306.51853,318.54062 C 304.73065,305.60096 302.89918,292.66386 300.64519,279.7957 C 298.96886,270.25512 297.25806,260.70846 294.96241,251.29416 C 293.64382,246.13007 292.26648,240.9685 290.17908,236.05056 C 289.26705,233.85817 288.44696,231.58899 287.16387,229.58147 C 287.05193,229.18746 286.18215,228.49422 287.11245,229.40051 L 292.9028,219.60957 z "
       sodipodi:nodetypes="cccccccccsccccccccccccc" />
    <path
       style="fill:#000000;fill-opacity:1;fill-rule:nonzero;stroke:none;stroke-width:1px;stroke-linecap:butt;stroke-linejoin:miter;stroke-opacity:1"
       id="path1439"
       d="M 140.60976,616.61368 C 138.7088,614.80555 141.65494,616.70117 142.29898,617.05335 C 146.91602,619.45773 151.7002,621.52435 156.49266,623.54963 C 163.3675,626.46958 170.52225,628.63262 177.74118,630.51039 C 184.95958,632.39582 192.36987,633.26809 199.79716,633.75976 C 206.38659,634.19511 212.98529,633.84984 219.54847,633.2233 C 225.68955,632.56796 231.74893,631.35819 237.76057,629.96978 C 243.5006,628.60877 249.18698,627.0288 254.81832,625.27358 C 259.76802,623.7261 264.64125,621.94872 269.46637,620.05179 C 273.84151,618.30359 278.1776,616.45823 282.47698,614.5318 C 286.43715,612.83069 290.21251,610.77156 293.91319,608.57359 C 293.95371,608.5704 295.29802,607.70266 295.33578,607.67891 L 291.34874,618.33228 C 290.85142,618.62176 290.35799,618.91795 289.85676,619.20072 C 286.02003,621.33634 282.08656,623.28035 278.04789,625.0091 C 273.68599,626.89187 269.31514,628.75718 264.87937,630.46093 C 259.96389,632.30108 255.02046,634.07114 249.98895,635.5725 C 244.27274,637.28134 238.50884,638.83768 232.68822,640.15123 C 226.53525,641.49194 220.32935,642.63217 214.04965,643.18089 C 207.31321,643.72393 200.54777,643.9586 193.80011,643.42548 C 186.17412,642.82237 178.577,641.8092 171.17869,639.80148 C 163.81253,637.81936 156.5143,635.55426 149.50274,632.52357 C 144.61976,630.43861 139.74235,628.31718 135.05222,625.82119 C 133.40846,624.88076 131.78904,624.10127 130.81882,622.40403 L 140.60976,616.61368 z " />
    <path
       style="fill:#000000;fill-opacity:1;fill-rule:nonzero;stroke:none;stroke-width:1px;stroke-linecap:butt;stroke-linejoin:miter;stroke-opacity:1"
       id="path1441"
       d="M 356.16834,609.7729 C 355.08454,608.91711 357.30517,610.37429 357.69441,610.61742 C 360.3142,612.08967 363.04195,613.35918 365.7636,614.62913 C 371.32919,617.20678 377.18438,619.06212 383.0239,620.90173 C 390.68926,623.29453 398.49797,625.17987 406.34721,626.85579 C 414.29459,628.50478 422.32855,629.68407 430.37715,630.70831 C 437.71408,631.68545 445.11067,631.96032 452.50429,631.92491 C 459.56404,631.80443 466.59561,631.10605 473.60293,630.2833 C 479.70625,629.55488 485.73984,628.36987 491.71108,626.92748 C 497.10624,625.5743 502.41998,623.92312 507.67478,622.10492 C 512.17073,620.53972 516.59131,618.77489 521.00359,616.99097 C 522.38118,616.45089 523.73047,615.84458 525.0854,615.25122 L 520.62062,625.71336 C 519.2323,626.28504 517.84845,626.86768 516.45007,627.41479 C 511.9882,629.19785 507.5018,630.92162 502.94514,632.45002 C 497.58392,634.22462 492.16602,635.84028 486.66388,637.12142 C 480.55901,638.48515 474.40289,639.61849 468.17846,640.28159 C 461.05277,641.0675 453.90016,641.71353 446.72494,641.72235 C 439.19208,641.67502 431.6634,641.29907 424.19555,640.25705 C 416.06044,639.18457 407.94034,637.9568 399.91366,636.23662 C 391.96784,634.49855 384.06454,632.54664 376.30874,630.08308 C 370.33225,628.17631 364.35311,626.22066 358.67516,623.52546 C 355.85879,622.19098 353.0293,620.86788 350.33698,619.29261 C 349.55589,618.77128 348.58846,618.28087 348.125,617.81624 L 356.16834,609.7729 z " />
    <path
       style="fill:#000000;fill-opacity:1;fill-rule:nonzero;stroke:none;stroke-width:1px;stroke-linecap:butt;stroke-linejoin:miter;stroke-opacity:1"
       id="path1443"
       d="M 40.454055,601.91575 C 39.473202,601.13897 41.451008,602.56293 41.877197,602.87392 C 43.984976,604.31557 46.214994,605.56062 48.457674,606.77608 C 52.435712,608.87271 56.677032,610.37288 60.966252,611.68548 C 66.370844,613.20554 71.864333,614.39363 77.369846,615.48405 C 82.764383,616.52078 88.202543,617.33087 93.666767,617.89245 C 98.523294,618.39672 103.40412,618.37916 108.2772,618.2417 C 112.51611,618.13515 116.70962,617.5149 120.87497,616.76742 C 124.65185,616.07155 128.35246,615.04988 132.02162,613.92987 C 134.42684,613.17965 136.7947,612.31726 139.16168,611.45597 L 134.4911,621.82786 C 132.06645,622.67079 129.64022,623.51199 127.17144,624.21901 C 123.3716,625.27938 119.53998,626.23412 115.64244,626.86748 C 111.31429,627.52888 106.96454,628.05037 102.57867,628.08636 C 97.561995,628.1506 92.540087,628.07373 87.550674,627.48328 C 81.99667,626.82598 76.46103,626.00461 70.978091,624.89341 C 65.367855,623.74464 59.76117,622.52459 54.271901,620.88202 C 49.786853,619.43857 45.356421,617.79764 41.207285,615.54093 C 38.854694,614.23792 36.512891,612.9067 34.306567,611.36369 C 33.470103,610.74397 32.543103,610.15297 32.410715,609.95909 L 40.454055,601.91575 z " />
  </g>
</svg>
