<?xml version="1.0" ?>
<!-- Created with Inkscape (http://www.inkscape.org/) --><svg height="1052.3622047" id="svg2" inkscape:export-filename="C:\Documents and Settings\Cowbert\Desktop\euphorion-sword-standing.png" inkscape:export-xdpi="90" inkscape:export-ydpi="90" inkscape:version="0.43" sodipodi:docbase="C:\Documents and Settings\Cowbert\Desktop" sodipodi:docname="euphorion.svg" sodipodi:version="0.32" width="744.09448819" xmlns="http://www.w3.org/2000/svg" xmlns:cc="http://web.resource.org/cc/" xmlns:dc="http://purl.org/dc/elements/1.1/" xmlns:inkscape="http://www.inkscape.org/namespaces/inkscape" xmlns:rdf="http://www.w3.org/1999/02/22-rdf-syntax-ns#" xmlns:sodipodi="http://inkscape.sourceforge.net/DTD/sodipodi-0.dtd" xmlns:svg="http://www.w3.org/2000/svg">
  <defs id="defs4"/>
  <sodipodi:namedview bordercolor="#666666" borderopacity="1.0" id="base" inkscape:current-layer="layer11" inkscape:cx="245.01094" inkscape:cy="850.88094" inkscape:document-units="px" inkscape:guide-bbox="true" inkscape:pageopacity="0.0" inkscape:pageshadow="2" inkscape:window-height="977" inkscape:window-width="1045" inkscape:window-x="-4" inkscape:window-y="-4" inkscape:zoom="0.98994949" pagecolor="#ffffff" showguides="true"/>
  <metadata id="metadata7">
    <rdf:RDF>
      <cc:Work rdf:about="">
        <dc:format>image/svg+xml</dc:format>
        <dc:type rdf:resource="http://purl.org/dc/dcmitype/StillImage"/>
      </cc:Work>
    </rdf:RDF>
  </metadata>
  
  
  
  
  
  <g id="layer16" inkscape:groupmode="layer" inkscape:label="ease-hair" style="display:inline">
    <path d="M 130.63946,131.52463 C 137.00776,165.3035 128.82059,200.10923 135.88106,233.85407 C 137.69751,255.99504 139.36462,278.8874 149.89961,298.65942 C 158.90349,309.99664 159.34922,330.26505 174.80814,333.80443 C 192.08365,338.17639 195.12761,318.41064 198.50793,305.61623 C 202.76655,292.82106 209.79904,279.94656 221.61936,273.67482 C 239.82789,270.78199 247.46785,293.71856 262.80457,299.70486 C 273.66227,309.26299 291.99592,323.04431 303.05599,305.95909 C 313.88928,288.20949 317.17654,266.68842 325.65578,247.67345 C 334.16375,230.48758 339.1517,211.78366 342.64542,192.77592 C 345.46688,175.23395 352.22037,158.87566 358.63886,142.74074 C 365.2828,129.13788 375.91511,106.76536 357.80151,97.508291 C 347.67524,89.106113 330.18449,107.51121 324.87067,94.994472 C 328.19362,86.409841 340.09604,76.465786 327.99277,78.26737 C 296.928,79.832069 283.81879,95.670546 268.2696,84.425096 C 257.79408,70.088507 242.19901,64.261869 227.70701,55.903659 C 211.74988,46.699266 189.56522,42.511584 174.17158,55.112331 C 160.12627,65.625326 175.50224,84.446978 166.2955,96.728435 C 158.18544,101.67183 147.94715,103.71661 140.96178,111.17243 C 135.30079,116.34556 131.6102,123.66048 130.63946,131.52463 z " id="path16450" sodipodi:nodetypes="cccccccccccccccscccc" style="fill:#68d9b8;fill-opacity:1;fill-rule:evenodd;stroke:none;stroke-width:1px;stroke-linecap:butt;stroke-linejoin:miter;stroke-opacity:1"/>
    <path d="M 271.01167,97.069306 C 270.60291,95.045103 272.33758,94.414304 274.08836,93.031309 C 283.14594,85.945936 293.36936,80.394075 304.58215,76.435825 C 313.28165,73.569935 322.54339,71.028007 331.72316,73.479165 C 338.19352,76.074339 338.18112,80.89177 335.99413,85.995013 C 333.85915,89.58179 330.60496,92.555904 327.3588,95.34221 C 327.76412,92.634957 336.17306,93.040996 340.46203,92.620855 C 349.87845,91.487429 359.04482,91.942382 366.87579,96.957717 C 377.04199,107.43007 369.4108,122.36852 365.20543,133.74434 C 354.12385,161.50701 344.58173,189.69036 336.1175,218.14549 C 327.25479,244.64386 323.64253,272.82504 310.24811,298.04135 C 301.07302,314.40965 284.16645,323.56906 266.5145,311.56744 C 254.41632,302.66792 246.12814,290.73216 235.95678,280.30812 C 237.64105,271.42202 217.76282,276.78503 218.37312,276.42665 C 232.65463,268.0409 226.04427,271.51677 222.70879,274.59545 C 212.61551,285.65874 206.41808,299.02336 200.12128,311.94735 C 194.40917,323.07974 187.58425,342.38453 170.23757,342.74831 C 158.01506,337.9361 154.26033,323.20933 150.53475,312.93165 C 143.76322,293.55948 139.39397,273.6329 135.9148,253.63622 C 132.25413,231.38775 129.71168,209.00654 127.69916,186.60437 C 126.31951,169.92918 124.88502,153.20449 125.66569,136.48121 C 125.8492,127.52344 127.899,118.96374 133.40944,111.38416 C 139.92328,103.85028 149.23801,98.367922 158.97313,94.40399 C 156.79491,97.285004 172.87252,87.893499 169.63876,89.877985 C 154.66433,99.067567 159.20848,96.592226 162.66122,93.95683 C 165.47189,89.77062 164.14929,84.869027 163.11773,80.351238 C 161.43475,74.506125 159.81521,68.720866 161.09548,62.724284 C 165.21959,52.971947 176.94314,47.425331 188.07185,45.203646 C 198.29662,43.545929 208.56433,44.477023 218.58657,46.602202 C 229.59607,49.097518 239.56202,53.786996 248.91828,59.327031 C 256.84743,64.133562 263.83994,69.951847 270.47006,76.046626 C 275.48779,80.752318 280.15978,85.726505 284.77466,90.733392 C 284.7915,90.743965 286.43201,92.555386 286.45489,92.580525 L 276.09391,99.240851 C 275.54077,98.629182 274.9918,98.014557 274.4345,97.405722 C 269.89109,92.448389 265.29345,87.521317 260.34448,82.865779 C 253.8862,76.914826 247.06847,71.235203 239.30572,66.581722 C 230.21789,61.272959 220.51092,56.840517 209.80835,54.606719 C 200.12824,52.777776 190.17099,52.108378 180.45091,54.157979 C 154.93783,61.009014 190.14691,44.856753 173.03691,58.550854 C 171.23206,64.059442 172.58204,69.334279 174.3001,74.824405 C 175.55857,79.976672 176.85731,85.283528 174.94422,90.430072 C 170.04933,97.886795 160.26981,100.38234 151.88182,103.77849 C 133.33574,112.39289 163.81287,95.283023 145.67289,108.11925 C 139.68674,115.02293 137.31663,123.084 137.01357,131.72622 C 135.92294,148.3779 137.2509,165.05745 138.5408,181.67566 C 140.43834,204.02614 142.96976,226.34977 146.61155,248.54064 C 150.05227,268.38157 154.39241,288.15285 161.17132,307.35796 C 164.34528,316.02846 167.76417,330.65679 178.39049,334.0708 C 164.64782,344.25054 185.92714,328.00781 188.43091,315.73703 C 194.80191,302.63615 201.03611,289.24519 210.5207,277.58809 C 221.95729,265.07567 234.39689,260.92582 246.04032,273.71016 C 255.93883,284.05519 264.11158,295.8301 276.12749,304.49226 C 292.34918,315.01801 289.30656,313.85652 298.64615,301.65582 C 313.00192,276.85097 316.3887,248.48963 325.28827,222.07809 C 333.69227,193.66453 342.99613,165.47198 353.85379,137.69719 C 357.41361,127.90046 365.37404,113.41849 357.04258,104.11055 C 349.64908,99.871758 340.98181,100.36201 332.51706,101.35775 C 326.68309,101.98333 318.46235,104.69092 315.2004,99.395372 C 317.20701,95.711094 321.01473,93.048776 323.79558,89.654821 C 325.90912,86.372154 327.78732,83.144152 322.67354,81.469567 C 313.89242,80.32377 305.49823,82.64177 297.40393,85.605528 C 293.58693,87.085248 289.87995,88.619945 286.34841,90.580969 C 285.34182,91.139909 282.40849,92.930266 283.37431,92.318897 C 299.57587,82.063496 290.30106,87.833576 286.6757,90.383052 C 285.13738,91.553047 284.05957,93.419077 282.74436,92.00642 L 271.01167,97.069306 z " id="path16444" style="fill:#000000;fill-opacity:1;fill-rule:nonzero;stroke:none;stroke-width:1px;stroke-linecap:butt;stroke-linejoin:miter;stroke-opacity:1;display:inline"/>
  </g>
  
  
  
  
  
  
  
  
  
  
  
  
  
  
  
  
  
  
  
  
</svg>
