<?xml version="1.0" encoding="UTF-8" standalone="no"?>
<!-- Created with Inkscape (http://www.inkscape.org/) -->
<svg
   xmlns:dc="http://purl.org/dc/elements/1.1/"
   xmlns:cc="http://web.resource.org/cc/"
   xmlns:rdf="http://www.w3.org/1999/02/22-rdf-syntax-ns#"
   xmlns:svg="http://www.w3.org/2000/svg"
   xmlns="http://www.w3.org/2000/svg"
   xmlns:xlink="http://www.w3.org/1999/xlink"
   xmlns:sodipodi="http://inkscape.sourceforge.net/DTD/sodipodi-0.dtd"
   xmlns:inkscape="http://www.inkscape.org/namespaces/inkscape"
   width="841.88977pt"
   height="595.27557pt"
   id="svg1325"
   sodipodi:version="0.32"
   inkscape:version="0.43"
   version="1.0"
   sodipodi:docbase="C:\Documents and Settings\Cowbert\Desktop\art"
   sodipodi:docname="the-mallard.svg"
   inkscape:export-filename="C:\Documents and Settings\Cowbert\Desktop\art\the-mallard.png"
   inkscape:export-xdpi="90"
   inkscape:export-ydpi="90">
  <defs
     id="defs1327">
    <linearGradient
       id="linearGradient6801">
      <stop
         style="stop-color:#000000;stop-opacity:1;"
         offset="0"
         id="stop6803" />
      <stop
         style="stop-color:#000000;stop-opacity:0;"
         offset="1"
         id="stop6805" />
    </linearGradient>
    <linearGradient
       inkscape:collect="always"
       xlink:href="#linearGradient6801"
       id="linearGradient6807"
       x1="362.39941"
       y1="309.97827"
       x2="526.34546"
       y2="643.54968"
       gradientUnits="userSpaceOnUse"
       gradientTransform="matrix(1.647248,0,0,1.663354,-359.2376,-264.5801)" />
    <radialGradient
       inkscape:collect="always"
       xlink:href="#linearGradient6801"
       id="radialGradient7690"
       cx="520.53302"
       cy="577.86151"
       fx="520.53302"
       fy="577.86151"
       r="144.45213"
       gradientTransform="matrix(3.110031,-2.353657,2.554775,3.442126,-2567.487,28.57707)"
       gradientUnits="userSpaceOnUse" />
    <radialGradient
       inkscape:collect="always"
       xlink:href="#linearGradient6801"
       id="radialGradient7707"
       cx="552.95215"
       cy="505.01828"
       fx="552.95215"
       fy="505.01828"
       r="124.95991"
       gradientTransform="matrix(1.571139,9.364537e-2,-0.110536,1.854518,-259.3853,-479.2806)"
       gradientUnits="userSpaceOnUse" />
    <radialGradient
       inkscape:collect="always"
       xlink:href="#linearGradient6801"
       id="radialGradient7711"
       cx="587.37598"
       cy="494.39426"
       fx="587.37598"
       fy="494.39426"
       r="185.03272"
       gradientTransform="matrix(1.964413,0.425483,-0.343567,1.586222,-396.615,-571.0562)"
       gradientUnits="userSpaceOnUse" />
    <radialGradient
       inkscape:collect="always"
       xlink:href="#linearGradient6801"
       id="radialGradient8592"
       gradientUnits="userSpaceOnUse"
       gradientTransform="matrix(2.588056,0.155765,-0.18208,3.084719,-786.5096,-1061.793)"
       cx="577.04901"
       cy="511.50467"
       fx="577.04901"
       fy="511.50467"
       r="124.95991" />
    <radialGradient
       inkscape:collect="always"
       xlink:href="#linearGradient6801"
       id="radialGradient8596"
       cx="428.8847"
       cy="312.85666"
       fx="428.8847"
       fy="312.85666"
       r="89.600669"
       gradientTransform="matrix(1.768087,0.139393,-0.149589,1.934682,-365.6991,-445.1425)"
       gradientUnits="userSpaceOnUse" />
    <radialGradient
       inkscape:collect="always"
       xlink:href="#linearGradient6801"
       id="radialGradient8598"
       gradientUnits="userSpaceOnUse"
       gradientTransform="matrix(3.235876,0.707729,-0.56594,2.638448,-1012.561,-1214.449)"
       cx="587.16003"
       cy="526.42395"
       fx="587.16003"
       fy="526.42395"
       r="185.03272" />
  </defs>
  <sodipodi:namedview
     id="base"
     pagecolor="#ffffff"
     bordercolor="#666666"
     borderopacity="1.0"
     inkscape:pageopacity="0.0"
     inkscape:pageshadow="2"
     inkscape:zoom="0.7"
     inkscape:cx="716.90186"
     inkscape:cy="261.91364"
     inkscape:document-units="px"
     inkscape:current-layer="layer1"
     inkscape:window-width="1280"
     inkscape:window-height="913"
     inkscape:window-x="-4"
     inkscape:window-y="-4" />
  <metadata
     id="metadata1330">
    <rdf:RDF>
      <cc:Work
         rdf:about="">
        <dc:format>image/svg+xml</dc:format>
        <dc:type
           rdf:resource="http://purl.org/dc/dcmitype/StillImage" />
      </cc:Work>
    </rdf:RDF>
  </metadata>
  <g
     inkscape:label="Layer 1"
     inkscape:groupmode="layer"
     id="layer1">
    <path
       style="opacity:1;color:#000000;fill:#ffefd3;fill-opacity:1;fill-rule:nonzero;stroke:none;stroke-width:10;stroke-linecap:square;stroke-linejoin:miter;marker:none;marker-start:none;marker-mid:none;marker-end:none;stroke-miterlimit:4;stroke-dasharray:none;stroke-dashoffset:0;stroke-opacity:1;visibility:visible;display:inline;overflow:visible"
       d="M 580.87046,95.098965 C 505.08008,138.86443 388.45741,153.10177 389.87521,268.14794 C 375.11157,386.07218 461.82469,508.61137 582.30981,518.29218 C 713.86739,549.19286 860.96358,498.65397 934.46165,381.09059 C 1012.0703,295.6401 1027.3657,142.72163 929.39932,66.632198 C 821.08535,-13.246634 686.09908,38.393011 580.87046,95.098965 z "
       id="path2254" />
    <path
       id="path7709"
       d="M 580.87046,95.098965 C 505.08008,138.86443 388.45741,153.10177 389.87521,268.14794 C 375.11157,386.07218 461.82469,508.61137 582.30981,518.29218 C 713.86739,549.19286 860.96358,498.65397 934.46165,381.09059 C 1012.0703,295.6401 1027.3657,142.72163 929.39932,66.632198 C 821.08535,-13.246634 686.09908,38.393011 580.87046,95.098965 z "
       style="opacity:1;color:#000000;fill:url(#radialGradient8598);fill-opacity:1;fill-rule:nonzero;stroke:none;stroke-width:10;stroke-linecap:square;stroke-linejoin:miter;marker:none;marker-start:none;marker-mid:none;marker-end:none;stroke-miterlimit:4;stroke-dasharray:none;stroke-dashoffset:0;stroke-opacity:1;visibility:visible;display:inline;overflow:visible" />
    <path
       style="opacity:1;color:#000000;fill:#ffefd3;fill-opacity:1;fill-rule:nonzero;stroke:none;stroke-width:10;stroke-linecap:square;stroke-linejoin:miter;marker:none;marker-start:none;marker-mid:none;marker-end:none;stroke-miterlimit:4;stroke-dasharray:none;stroke-dashoffset:0;stroke-opacity:1;visibility:visible;display:inline;overflow:visible"
       d="M 452.62041,137.87089 C 322.9968,353.32328 497.85209,568.68612 691.11318,532.95036 C 867.97057,478.80004 862.93768,170.2181 672.02036,142.27573 C 599.58101,127.55447 525.6459,142.52548 452.62041,137.87089 z "
       id="path7692"
       sodipodi:nodetypes="cccc" />
    <path
       style="fill:#000000;fill-opacity:1;fill-rule:nonzero;stroke:none;stroke-width:1px;stroke-linecap:butt;stroke-linejoin:miter;stroke-opacity:1"
       id="path1339"
       d="M 534.99405,128.50594 C 536.95734,120.95573 545.02584,114.41915 550.92893,108.80473 C 564.41123,96.519369 579.37503,86.064077 594.65977,76.220533 C 623.14759,57.932942 654.147,44.213984 686.05331,33.302783 C 725.56037,19.829635 767.18419,14.645594 808.75584,15.695936 C 846.7362,17.035118 884.24029,25.734441 917.85967,43.815544 C 947.19161,60.103701 969.68456,85.313705 985.92692,114.53959 C 1002.6923,145.37677 1009.3615,180.07099 1009.4877,214.97573 C 1009.1775,256.83592 996.06432,296.76746 977.61888,333.8223 C 952.99291,381.03907 918.64136,422.60598 878.85349,457.55282 C 841.58748,490.04188 797.66481,512.80742 750.6724,526.99414 C 709.07762,539.05141 665.66581,542.66265 622.61736,539.27152 C 591.03961,536.49119 560.03856,528.85455 530.60225,517.05334 C 512.067,509.6781 494.81517,499.59793 478.9318,487.52022 C 471.85627,482.05713 465.49855,475.77092 459.50262,469.14405 L 474.71178,454.03174 C 480.12146,460.07571 485.88267,465.78913 492.31304,470.7372 C 507.23325,482.04294 523.48906,491.37349 540.91441,498.19025 C 569.20171,509.32954 598.97716,516.42579 629.27424,518.80053 C 670.79404,521.66621 712.60812,517.71937 752.53572,505.5301 C 797.70862,491.17645 839.67435,468.34326 875.0865,436.34488 C 907.36436,406.9383 933.97755,375.61627 956.29093,334.4752 C 974.55951,299.48025 988.10346,261.7075 989.23832,221.76935 C 989.81662,189.0949 984.17056,156.44754 968.79776,127.38767 C 954.08207,100.23981 933.47114,76.815848 906.2798,61.912998 C 874.36024,44.98207 838.70209,37.298458 802.77129,36.377509 C 762.65241,35.784074 722.58954,41.284302 684.64637,54.802261 C 653.77897,65.755561 623.84684,79.487876 596.45781,97.69027 C 581.94914,107.32591 567.68222,117.55637 555.28197,129.89799 C 545.1113,140.49772 551.82736,135.94291 556.16399,125.80906 L 534.99405,128.50594 z " />
    <path
       style="opacity:1;color:#000000;fill:#ffefd3;fill-opacity:1;fill-rule:nonzero;stroke:none;stroke-width:10;stroke-linecap:square;stroke-linejoin:miter;marker:none;marker-start:none;marker-mid:none;marker-end:none;stroke-miterlimit:4;stroke-dasharray:none;stroke-dashoffset:0;stroke-opacity:1;visibility:visible;display:inline;overflow:visible"
       d="M 570.28099,162.82123 C 580.66649,84.265061 484.49294,53.166352 422.9341,47.305326 C 341.50633,46.16741 257.64762,125.17779 279.33903,210.67262 C 317.98855,278.71659 400.31727,215.02848 429.76694,170.16106 C 479.43411,121.56736 525.8716,231.19703 567.3035,181.70986 L 570.02502,173.09379 L 570.28099,162.82123 L 570.28099,162.82123 z "
       id="path2243" />
    <path
       id="path8594"
       d="M 570.28099,162.82123 C 580.66649,84.265061 484.49294,53.166352 422.9341,47.305326 C 341.50633,46.16741 257.64762,125.17779 279.33903,210.67262 C 317.98855,278.71659 400.31727,215.02848 429.76694,170.16106 C 479.43411,121.56736 525.8716,231.19703 567.3035,181.70986 L 570.02502,173.09379 L 570.28099,162.82123 L 570.28099,162.82123 z "
       style="opacity:1;color:#000000;fill:url(#radialGradient8596);fill-opacity:1;fill-rule:nonzero;stroke:none;stroke-width:10;stroke-linecap:square;stroke-linejoin:miter;marker:none;marker-start:none;marker-mid:none;marker-end:none;stroke-miterlimit:4;stroke-dasharray:none;stroke-dashoffset:0;stroke-opacity:1;visibility:visible;display:inline;overflow:visible" />
    <path
       style="opacity:1;color:#000000;fill:url(#radialGradient8592);fill-opacity:1;fill-rule:nonzero;stroke:none;stroke-width:10;stroke-linecap:square;stroke-linejoin:miter;marker:none;marker-start:none;marker-mid:none;marker-end:none;stroke-miterlimit:4;stroke-dasharray:none;stroke-dashoffset:0;stroke-opacity:1;visibility:visible;display:inline;overflow:visible"
       d="M 452.62041,137.87089 C 322.9968,353.32328 497.85209,568.68612 691.11318,532.95036 C 867.97057,478.80004 862.93768,170.2181 672.02036,142.27573 C 599.58101,127.55447 525.6459,142.52548 452.62041,137.87089 z "
       id="path7717"
       sodipodi:nodetypes="cccc" />
    <path
       style="fill:#000000;fill-opacity:1;fill-rule:nonzero;stroke:none;stroke-width:1px;stroke-linecap:butt;stroke-linejoin:miter;stroke-opacity:1"
       id="path1337"
       d="M 282.49157,188.82826 C 285.74755,195.681 278.75177,180.90496 278.12216,179.41338 C 272.05666,164.31012 271.18161,148.15421 274.83104,132.35406 C 283.01594,103.27077 306.92641,82.381762 331.52154,66.922304 C 359.84686,49.498308 392.13469,41.329412 425.0775,40.466149 C 455.88488,40.293858 486.56353,46.118524 514.62305,59.058234 C 535.74651,69.021589 553.60079,84.320799 566.71473,103.73024 C 575.66826,117.14575 581.03816,132.31822 582.70958,148.33954 C 583.1644,153.29459 582.52093,158.18187 581.74134,163.05535 L 560.73693,166.84896 C 561.70596,163.22731 562.81754,159.64669 562.70284,155.83032 C 562.28915,142.06114 557.67371,129.04497 550.28531,117.47856 C 538.78871,99.924903 522.72066,86.347978 503.74486,77.594281 C 477.41102,65.72745 448.5741,60.731185 419.7952,61.341852 C 389.08904,62.735027 359.17497,71.282253 333.30796,88.393022 C 306.27813,106.74582 310.53154,102.35767 295.90373,128.96839 C 292.07922,141.97353 291.3202,155.11711 296.22972,168.01515 C 298.07594,172.82215 300.32089,177.41525 302.71243,181.94872 L 282.49157,188.82826 z " />
    <path
       style="opacity:1;color:#000000;fill:#a27527;fill-opacity:1;fill-rule:nonzero;stroke:none;stroke-width:10;stroke-linecap:square;stroke-linejoin:miter;marker:none;marker-start:none;marker-mid:none;marker-end:none;stroke-miterlimit:4;stroke-dasharray:none;stroke-dashoffset:0;stroke-opacity:1;visibility:visible;display:inline;overflow:visible"
       d="M 272.59971,508.56117 C 329.24351,495.49545 376.62789,454.39027 431.56917,441.21091 C 440.34224,489.04152 410.6873,545.57319 419.41882,598.50827 C 449.34137,642.74295 528.26344,599.85046 577.52328,608.57868 C 625.86249,599.77224 702.13775,601.65723 712.12029,538.39786 C 717.56362,490.43203 672.88632,426.2773 724.51692,392.09623 C 758.77792,368.64657 833.28579,335.7069 848.45926,395.92763 C 864.79484,444.21284 828.70928,441.17559 797.8915,429.39747 C 725.65057,480.01695 789.52178,536.60636 814.91327,573.71337 C 869.42173,635.67685 801.85746,674.76037 748.18554,660.65796 C 656.87329,654.10663 566.79416,673.25186 478.18978,691.88232 C 414.19649,699.92099 319.81642,735.00598 276.5401,667.90049 C 265.34606,616.84258 261.50718,559.51904 272.59971,508.56117 L 272.59971,508.56117 z "
       id="path2264"
       sodipodi:nodetypes="cccccccccccccc" />
    <path
       style="opacity:1;color:#000000;fill:#1b723e;fill-opacity:1;fill-rule:nonzero;stroke:none;stroke-width:10;stroke-linecap:square;stroke-linejoin:miter;marker:none;marker-start:none;marker-mid:none;marker-end:none;stroke-miterlimit:4;stroke-dasharray:none;stroke-dashoffset:0;stroke-opacity:1;visibility:visible;display:inline;overflow:visible"
       d="M 710.29709,552.52122 C 717.19692,500.95547 664.95693,438.02982 719.49907,397.61027 C 753.04849,372.12696 833.58268,341.22301 852.45059,396.43226 C 864.44183,441.2651 849.98011,447.51052 786.84151,432.16945 C 740.64341,460.98648 777.40718,527.50231 805.33257,556.72443 C 850.36291,605.11034 770.00868,624.33804 736.12412,602.30165 C 717.48336,594.24255 704.94245,572.85525 710.29709,552.52122 z "
       id="path4016"
       sodipodi:nodetypes="ccccccc" />
    <path
       sodipodi:nodetypes="cccccccccccccc"
       id="path5926"
       d="M 272.59971,508.56117 C 329.24351,495.49545 376.62789,454.39027 431.56917,441.21091 C 440.34224,489.04152 410.6873,545.57319 419.41882,598.50827 C 449.34137,642.74295 528.26344,599.85046 577.52328,608.57868 C 625.86249,599.77224 702.13775,601.65723 712.12029,538.39786 C 717.56362,490.43203 672.88632,426.2773 724.51692,392.09623 C 758.77792,368.64657 833.28579,335.7069 848.45926,395.92763 C 864.79484,444.21284 828.70928,441.17559 797.8915,429.39747 C 725.65057,480.01695 789.52178,536.60636 814.91327,573.71337 C 869.42173,635.67685 801.85746,674.76037 748.18554,660.65796 C 656.87329,654.10663 566.79416,673.25186 478.18978,691.88232 C 414.19649,699.92099 319.81642,735.00598 276.5401,667.90049 C 265.34606,616.84258 261.50718,559.51904 272.59971,508.56117 L 272.59971,508.56117 z "
       style="opacity:1;color:#000000;fill:url(#linearGradient6807);fill-opacity:1;fill-rule:nonzero;stroke:none;stroke-width:10;stroke-linecap:square;stroke-linejoin:miter;marker:none;marker-start:none;marker-mid:none;marker-end:none;stroke-miterlimit:4;stroke-dasharray:none;stroke-dashoffset:0;stroke-opacity:1;visibility:visible;display:inline;overflow:visible" />
    <path
       style="opacity:1;color:#000000;fill:#000000;fill-opacity:1;fill-rule:nonzero;stroke:none;stroke-width:10;stroke-linecap:square;stroke-linejoin:miter;marker:none;marker-start:none;marker-mid:none;marker-end:none;stroke-miterlimit:4;stroke-dasharray:none;stroke-dashoffset:0;stroke-opacity:1;visibility:visible;display:inline;overflow:visible"
       d="M 716.18009,532.32335 C 713.94489,547.83081 703.44388,571.16972 727.21519,575.06538 C 750.44245,584.48826 776.90264,588.08373 801.27195,581.331 C 818.8907,573.07473 808.6293,551.85509 803.93308,538.86136 C 791.08588,519.8631 768.38648,536.38948 750.78438,534.86673 C 739.15901,535.64631 727.66504,533.80646 716.18009,532.32335 z "
       id="path4903" />
    <path
       style="fill:#000000;fill-opacity:1;fill-rule:nonzero;stroke:none;stroke-width:1px;stroke-linecap:butt;stroke-linejoin:miter;stroke-opacity:1"
       id="path1359"
       d="M 274.47389,499.20127 C 273.28233,496.06813 274.89533,502.39654 275.06719,503.2038 C 276.27864,509.7441 276.85235,516.37877 277.36369,523.00512 C 278.1505,535.05409 278.25119,547.13601 278.28073,559.20692 C 278.26364,576.20624 277.86223,593.2036 278.1455,610.20238 C 278.40224,626.0392 279.14925,641.90676 282.75067,657.36075 C 285.9618,670.85662 294.59819,679.17638 306.35417,685.45421 C 324.20517,693.45368 343.82912,695.65464 363.14679,696.67774 C 385.15398,697.68891 407.15798,695.66831 428.8747,692.16491 C 450.41986,688.45124 471.70392,683.3836 492.99951,678.45382 C 514.87802,673.2189 536.86619,668.45013 559.02191,664.57115 C 579.4555,661.03897 600.05176,658.5754 620.66882,656.44002 C 638.08888,654.60274 655.56218,653.37524 673.0434,652.32302 C 688.43061,651.40661 703.83586,650.86324 719.24505,650.51979 C 734.7781,650.26302 750.31314,650.57606 765.84241,650.91703 C 778.26941,651.13591 790.72953,651.95177 803.11239,650.57706 C 811.09907,649.70199 816.96525,646.27999 821.64278,639.88602 C 809.46187,657.82532 821.64558,636.48024 822.79173,628.24215 C 823.87085,617.31135 820.98371,606.77936 817.28498,596.62888 C 811.8685,582.8141 804.02529,570.19578 795.75084,557.97748 C 788.13857,546.98646 779.74238,536.58549 771.54617,526.04053 C 764.97447,517.79645 759.19296,508.99737 755.05507,499.26438 C 751.40345,490.11274 751.28781,480.47477 752.89602,470.88926 C 754.63222,461.98262 758.68083,453.92625 763.62043,446.43279 C 770.55222,435.73771 779.25018,428.13139 790.26352,422.53604 C 797.23188,419.1254 804.68963,418.58314 812.2841,418.90405 C 818.81758,419.38363 825.02161,421.36763 831.07459,423.76821 C 835.80154,425.86058 840.32208,428.39129 844.97111,430.63475 C 851.72021,428.35049 842.82837,432.87649 837.86834,438.14398 C 840.20908,441.04866 839.23061,435.32924 839.12964,434.06461 C 837.79915,428.7226 836.39158,423.42475 835.43865,417.99786 C 834.4078,411.95639 835.08712,405.95781 836.07943,399.98236 C 837.09726,395.8252 837.53741,391.61547 837.69406,387.36065 C 837.62636,383.77038 835.93019,382.34963 833.52949,380.12226 C 828.97122,377.11833 823.70036,375.80771 818.45749,374.6247 C 811.96124,373.31918 805.3286,373.64768 798.76925,374.13936 C 791.6762,374.74509 784.73157,376.34327 777.84179,378.0806 C 771.44684,379.71875 765.20789,381.88445 759.08424,384.34727 C 753.56431,386.65555 748.20054,389.3187 743.03576,392.34467 C 738.30223,395.08371 733.99253,398.43318 729.79139,401.92164 C 720.49679,411.06196 721.66189,410.49495 727.05646,404.20007 C 723.33763,408.46045 720.32729,413.25053 717.53471,418.15899 C 714.71511,422.92173 712.88255,428.11013 711.25836,433.37591 C 709.74009,438.34127 709.35612,443.46081 709.25498,448.61361 C 709.41394,454.09471 710.91557,459.37642 712.37026,464.61935 C 714.08356,470.50554 715.98942,476.33125 717.8831,482.16004 C 719.78419,487.93609 721.38186,493.80392 722.80887,499.71503 C 724.23539,505.69498 725.01849,511.79034 725.55648,517.90739 C 726.12676,523.98949 725.78561,530.06631 725.07285,536.11326 C 724.35909,541.76624 722.76044,547.22074 721.01699,552.61975 C 719.16433,558.10152 716.46367,563.19689 713.45398,568.10278 C 707.72534,577.05598 700.38982,583.53899 691.96299,589.48195 C 686.87019,592.98118 681.31393,595.66412 675.77701,598.34764 C 669.72109,601.23341 663.4155,603.51511 657.08341,605.69043 C 650.38384,608.03455 643.50869,609.78724 636.60126,611.37148 C 628.8788,612.97607 621.05859,614.04349 613.24739,615.09849 C 604.36625,616.34037 595.45816,617.37769 586.54086,618.31474 C 577.19363,619.2689 567.82041,619.93764 558.44586,620.54769 C 547.98669,621.20327 537.51874,621.70048 527.05619,622.29339 C 514.97659,623.09407 502.91151,624.11884 490.85379,625.20243 C 480.3861,626.20643 469.90754,627.08375 459.43078,627.98273 C 451.53409,628.62023 443.64691,629.39725 435.7421,629.91302 C 428.88856,630.45765 422.61572,628.92246 416.53118,625.90232 C 410.90985,622.55083 407.86051,617.30273 405.51117,611.37013 C 403.32699,605.08198 403.25587,598.47076 403.41889,591.89656 C 403.8139,585.15448 404.69201,578.45315 405.70019,571.78056 C 406.80415,565.18642 407.80099,558.57689 408.66629,551.94683 C 409.44683,545.38308 410.02119,538.79647 410.66243,532.21781 C 411.30188,525.33773 412.18531,518.48554 413.193,511.65177 C 414.12733,504.74258 415.72775,497.96375 417.39379,491.20586 C 419.03666,484.80188 420.75367,478.41845 422.35265,472.00309 C 423.78029,466.04544 425.38069,460.13312 426.97854,454.22053 C 428.31866,449.28284 429.52639,444.30937 430.80049,439.35499 C 433.49673,441.51392 436.34119,442.22489 431.52298,444.70358 C 422.40771,448.53984 413.60717,453.09996 404.75751,457.51563 C 391.22292,464.2567 377.56999,470.75378 363.88643,477.17993 C 349.52626,483.94201 335.04983,490.44602 320.59779,497.00376 C 309.32521,502.12087 298.03573,507.20022 286.76555,512.32268 C 279.45227,515.65606 272.13217,518.97423 264.8244,522.31992 L 265.00463,500.77432 C 272.32709,497.43016 279.65746,494.10354 286.988,490.77748 C 298.27313,485.68758 309.53593,480.54752 320.82151,475.45857 C 335.23287,468.9515 349.61653,462.38119 363.91934,455.63358 C 377.50172,449.19495 391.0705,442.72469 404.50278,435.97079 C 413.8789,431.32641 423.20903,426.39232 433.20077,423.22392 C 441.88034,421.53323 450.26956,423.59466 451.44089,433.89158 C 450.82147,439.5988 449.59425,445.1819 448.03342,450.72387 C 446.50153,456.58656 444.84487,462.41497 443.37177,468.29345 C 441.80076,474.74666 440.18153,481.18801 438.42962,487.59414 C 436.77481,493.96224 435.06317,500.33152 433.99,506.83184 C 432.9183,513.40935 431.94176,520.00199 431.27165,526.63572 C 430.60272,533.27751 429.97706,539.92337 429.32826,546.56718 C 428.55338,553.38902 427.65712,560.19536 426.49776,566.96305 C 425.46245,573.24645 424.49795,579.54012 423.9095,585.88571 C 423.48856,590.86055 423.08845,595.91094 424.1262,600.83838 C 424.99305,603.67104 425.53601,606.19559 428.17396,607.84607 C 432.28344,609.04392 436.31294,609.63408 440.65892,608.94646 C 448.46581,608.27127 456.27523,607.62662 464.08243,606.95458 C 474.54432,606.08057 484.99813,605.11546 495.4532,604.16257 C 507.64604,603.10132 519.84313,602.05386 532.06204,601.34835 C 542.48987,600.79598 552.91916,600.26331 563.33934,599.57558 C 572.54399,598.93234 581.74823,598.2499 590.9206,597.22714 C 599.70667,596.24819 608.4833,595.18306 617.23587,593.93188 C 624.65593,592.86524 632.09647,591.82445 639.38167,590.00882 C 645.81864,588.3425 652.21777,586.528 658.45285,584.18847 C 664.27652,582.0102 670.05917,579.7062 675.57417,576.80224 C 680.40432,574.2704 685.15941,571.56751 689.40037,568.09155 C 698.88687,559.93934 698.042,558.60076 692.17351,566.52471 C 695.16887,562.84437 697.90379,559.01317 699.76897,554.59429 C 701.61372,550.13329 703.32522,545.60025 704.2536,540.83499 C 705.18183,535.78941 705.92573,530.7157 705.60995,525.56025 C 705.29384,520.09801 704.85567,514.64371 703.69107,509.28435 C 702.46436,503.74562 701.09632,498.24298 699.35238,492.84235 C 697.44553,486.91389 695.48267,481.00325 693.69244,475.0373 C 691.88244,468.90195 690.04658,462.73088 689.33859,456.34598 C 688.83518,449.93461 688.87232,443.51803 690.25908,437.19888 C 691.65924,430.87401 693.35821,424.61631 696.20564,418.77258 C 699.0226,413.03048 702.03608,407.38576 705.8096,402.21242 C 712.3182,394.47391 718.42258,386.45237 726.74069,380.59664 C 731.66793,377.01856 736.74014,373.63879 742.1385,370.81735 C 747.98442,367.89462 753.8819,365.05508 760.02778,362.82196 C 766.74856,360.45851 773.53242,358.26716 780.48628,356.70035 C 788.11106,355.00802 795.79515,353.5227 803.61463,353.15586 C 811.42309,352.88864 819.27107,352.90273 826.90673,354.83946 C 833.83505,356.67181 840.71198,358.82405 846.60518,363.09551 C 851.73751,367.28819 855.86173,371.92903 857.22515,378.68373 C 858.12505,384.32306 858.17908,389.91383 856.95813,395.53743 C 855.99944,400.20011 854.80419,404.86438 855.11816,409.66983 C 855.68531,414.6983 856.71582,419.59493 858.21894,424.43733 C 859.47101,429.81861 860.63759,435.23426 859.05624,440.69384 C 850.18498,450.1815 846.0522,454.3415 834.31226,449.30031 C 829.79007,447.03236 825.37314,444.52554 820.6938,442.59289 C 815.95203,440.93585 811.15228,439.47448 806.07101,439.51676 C 800.64267,439.91116 795.58726,440.90299 790.96756,444.07068 C 779.37142,452.0763 780.8355,454.66328 784.8874,448.1861 C 780.21926,453.85519 776.10345,459.94517 773.89383,467.05842 C 772.02733,474.01658 770.9978,480.9697 773.25074,488.01007 C 776.61739,496.64215 781.55238,504.37056 787.3586,511.57329 C 795.69532,522.3217 804.25607,532.90522 812.04887,544.07045 C 820.95176,557.09273 829.35981,570.54848 835.38182,585.21327 C 839.99032,597.08525 843.63107,609.38256 843.29602,622.27917 C 842.46779,637.72576 838.21443,649.74068 826.76473,660.80241 C 818.64956,667.5345 809.15334,670.95564 798.64851,671.64666 C 785.72123,672.48855 772.77551,671.85974 759.83605,671.59217 C 744.4911,671.27716 729.13908,670.99749 713.79216,671.3507 C 698.54441,671.74807 683.30061,672.3222 668.07603,673.2774 C 650.78287,674.36584 633.49981,675.64586 616.2706,677.5237 C 595.9549,679.69092 575.66321,682.20696 555.54559,685.82966 C 533.61884,689.80484 511.86441,694.65034 490.18398,699.81179 C 468.59516,704.79941 446.99982,709.88159 425.11273,713.37377 C 402.47796,716.76296 379.55731,718.56326 356.67555,717.20933 C 335.60484,715.84288 314.17297,712.96616 294.93619,703.65624 C 280.03979,695.78638 268.80941,684.06694 263.93919,667.53034 C 259.54313,651.15675 258.27895,634.27471 258.01386,617.34372 C 257.59855,600.25418 257.95859,583.16415 258.05532,566.07286 C 258.07648,554.28232 258.02051,542.48577 257.43585,530.70731 C 257.05771,524.52589 256.60661,518.34001 255.68427,512.213 C 255.35128,510.11451 255.16441,508.01849 254.25302,506.0808 L 274.47389,499.20127 z " />
    <path
       style="opacity:1;color:#000000;fill:#ffefd3;fill-opacity:1;fill-rule:nonzero;stroke:none;stroke-width:10;stroke-linecap:square;stroke-linejoin:miter;marker:none;marker-start:none;marker-mid:none;marker-end:none;stroke-miterlimit:4;stroke-dasharray:none;stroke-dashoffset:0;stroke-opacity:1;visibility:visible;display:inline;overflow:visible"
       d="M 456.15022,136.68281 C 395.17863,135.72059 333.35585,109.13865 273.09799,132.07505 C 210.757,158.52807 147.18971,189.16223 98.7298,237.99417 C 71.871268,273.40278 49.865348,314.60303 52.605117,360.59887 C 46.801697,405.82023 72.870834,445.27059 108.99992,469.09769 C 175.60357,524.91557 259.80542,564.1017 347.992,558.60633 C 399.18902,563.12934 447.88449,543.12197 491.74785,518.92768 C 555.75842,510.68391 518.76911,452.54899 498.75229,418.57511 C 472.08801,371.59091 467.12532,317.59434 454.00876,266.03048 C 446.02131,224.20073 446.05232,178.4934 465.2966,140.13714 C 463.49189,136.99755 459.4744,135.8887 456.15022,136.68281 z "
       id="path1361" />
    <path
       style="fill:#000000;fill-opacity:1;fill-rule:nonzero;stroke:none;stroke-width:1px;stroke-linecap:butt;stroke-linejoin:miter;stroke-opacity:1"
       id="path1335"
       d="M 450.92479,150.62447 C 447.49246,149.14818 442.03763,147.22258 437.58468,145.86633 C 412.43273,139.27167 386.38766,136.76511 360.46463,136.24847 C 312.45602,135.49248 265.6959,147.73183 221.5436,165.95534 C 173.68842,186.09977 130.50039,215.9063 96.047536,255.07473 C 73.425759,281.29782 56.358933,324.3942 59.405667,365.5035 C 65.165748,413.72284 96.173435,451.6659 132.1558,481.48925 C 175.78617,515.86664 228.08576,535.8883 281.97687,546.58624 C 339.49322,556.99417 398.2845,552.703 453.80515,534.71355 C 502.65756,517.98923 545.17664,487.71475 581.66621,451.41593 C 583.80447,449.18396 585.94273,446.95197 588.08099,444.72 L 592.72667,465.7495 C 590.48543,468.00386 588.24418,470.25823 586.00294,472.51259 C 547.54091,509.40637 502.87552,539.77327 452.00411,556.18304 C 394.21696,573.87458 333.26207,577.73508 273.77562,566.47753 C 217.85238,554.95949 163.67904,533.8196 118.43565,497.99091 C 79.734012,465.83985 46.952486,425.03288 39.587408,373.48878 C 34.259696,320.14083 54.742933,272.65939 90.911234,234.16192 C 127.56475,194.70423 172.5965,164.59096 222.30145,144.42256 C 268.26427,126.16708 316.82044,114.23873 366.50947,115.58479 C 393.56651,116.39001 420.79167,119.17102 446.94139,126.50198 C 448.62809,127.04668 461.88866,131.88107 456.65574,129.86979 L 450.92479,150.62447 z " />
    <path
       style="fill:#000000;fill-opacity:1;fill-rule:nonzero;stroke:none;stroke-width:1px;stroke-linecap:butt;stroke-linejoin:miter;stroke-opacity:1"
       id="path5793"
       d="M 542.88794,498.37513 C 542.85773,500.99586 542.94339,503.61498 543.0087,506.23434 C 543.38765,516.10836 544.92745,525.88367 546.54118,535.61416 C 548.68469,548.471 551.49262,561.19883 554.57499,573.85536 C 557.158,584.68771 560.37867,595.3444 563.99392,605.86661 C 564.61391,607.66916 565.29383,609.44956 565.9555,611.23663 L 562.31635,613.48743 C 561.64382,611.68285 560.95302,609.88494 560.32313,608.06442 C 556.66271,597.4706 553.39508,586.74134 550.78235,575.83097 C 547.67031,563.11521 544.83314,550.3276 542.66182,537.40991 C 541.01433,527.56697 539.44312,517.68174 538.99383,507.69513 C 538.91913,505.04767 538.81535,502.40023 538.84377,499.75104 L 542.88794,498.37513 z " />
    <path
       style="fill:#000000;fill-opacity:1;fill-rule:nonzero;stroke:none;stroke-width:1px;stroke-linecap:butt;stroke-linejoin:miter;stroke-opacity:1"
       id="path5795"
       d="M 499.35351,525.70165 C 499.35351,527.46241 499.35351,529.22317 499.35351,530.98391 C 499.30846,537.85267 499.92635,544.69941 500.59509,551.52756 C 501.48664,560.57833 502.96825,569.55236 504.6223,578.48838 C 506.05845,586.45568 507.87744,594.33753 510.00868,602.14133 C 510.40093,603.55971 510.88976,604.94773 511.33022,606.35065 L 507.63824,608.51199 C 507.18057,607.0782 506.67317,605.65997 506.26503,604.21001 C 504.08213,596.3352 502.22044,588.37898 500.76462,580.33116 C 499.07883,571.32648 497.57051,562.28222 496.64612,553.16126 C 495.95378,546.24764 495.30617,539.3156 495.30935,532.35982 C 495.30935,530.59908 495.30935,528.83832 495.30935,527.07756 L 499.35351,525.70165 z " />
    <path
       style="fill:#000000;fill-opacity:1;fill-rule:nonzero;stroke:none;stroke-width:1px;stroke-linecap:butt;stroke-linejoin:miter;stroke-opacity:1"
       id="path5797"
       d="M 438.17001,547.08762 C 438.1683,548.65041 438.17179,550.21318 438.17301,551.77593 C 438.10102,556.98032 438.79193,562.13412 439.55615,567.26641 C 440.53296,573.93044 442.45874,580.37301 444.53887,586.75363 C 446.73499,593.4118 449.57755,599.81054 452.63259,606.10289 C 453.81226,608.5764 455.26333,610.89483 456.6733,613.23574 L 453.33952,615.92598 C 451.87863,613.51974 450.37306,611.13785 449.15007,608.5936 C 446.02276,602.19987 443.11014,595.69777 440.85517,588.92932 C 438.70683,582.4199 436.70686,575.84757 435.67005,569.04723 C 434.85613,563.79069 434.10571,558.50909 434.13631,553.17405 C 434.13203,551.60394 434.11987,550.03374 434.12583,548.46353 L 438.17001,547.08762 z " />
    <path
       style="fill:#000000;fill-opacity:1;fill-rule:nonzero;stroke:none;stroke-width:1px;stroke-linecap:butt;stroke-linejoin:miter;stroke-opacity:1"
       id="path5801"
       d="M 642.89944,524.51355 C 642.95118,526.15926 642.74552,527.7956 642.63037,529.4334 C 641.9789,536.32544 640.61739,543.11054 639.07131,549.84601 C 636.71593,559.69441 633.37694,569.25643 629.68706,578.66498 C 626.47706,586.86716 622.57236,594.75032 618.12079,602.33014 L 613.85375,602.26384 C 618.32704,594.84603 622.23365,587.10763 625.43564,579.03935 C 629.13065,569.75923 632.47749,560.3266 634.87119,550.60902 C 636.4316,543.99016 637.8216,537.32359 638.50741,530.54562 C 638.64127,528.99617 638.85577,527.44747 638.85526,525.88946 L 642.89944,524.51355 z " />
    <path
       style="fill:#000000;fill-opacity:1;fill-rule:nonzero;stroke:none;stroke-width:1px;stroke-linecap:butt;stroke-linejoin:miter;stroke-opacity:1"
       id="path5803"
       d="M 589.95216,523.32543 C 589.86257,525.32696 588.97549,527.28856 588.35987,529.19451 C 586.3197,535.54766 584.28019,541.90045 582.1833,548.23484 C 579.42547,556.6215 576.32143,564.88551 573.03053,573.07195 C 569.81366,581.02361 566.06489,588.73462 562.13339,596.34554 C 560.0922,600.2673 557.83779,604.0668 555.57996,607.86299 L 551.31302,607.78985 C 553.57063,604.04784 555.82634,600.30353 557.86673,596.43383 C 561.81006,588.91624 565.54838,581.28621 568.7772,573.42337 C 572.08385,565.30123 575.18656,557.09321 577.94807,548.76435 C 580.05135,542.4392 582.10344,536.09763 584.12744,529.74626 C 584.61842,528.23585 585.25706,525.77532 585.90801,524.70134 L 589.95216,523.32543 z " />
    <path
       style="fill:#000000;fill-opacity:1;fill-rule:nonzero;stroke:none;stroke-width:1px;stroke-linecap:butt;stroke-linejoin:miter;stroke-opacity:1"
       id="path5805"
       d="M 792.06275,31.241788 C 795.05471,32.478259 797.38449,34.925235 799.7861,37.049787 C 810.43475,46.676479 820.21654,57.214306 829.62749,68.061351 C 844.69253,85.49037 858.07345,104.32309 870.17659,123.94765 C 883.11743,144.74656 892.7355,167.35901 899.98179,190.75529 C 906.70927,212.9347 910.54576,235.87512 912.84077,258.92029 C 914.92408,279.99418 915.04874,301.20164 914.03514,322.33911 C 913.16833,340.71334 911.04571,358.99406 908.09441,377.13754 C 905.82353,390.65118 902.52888,403.95772 898.46388,417.02797 C 896.92107,421.93952 895.07808,426.74287 893.18139,431.52313 L 888.92849,431.88004 C 890.83233,427.17019 892.68397,422.4375 894.23326,417.59356 C 898.3279,404.65339 901.63744,391.46936 903.92932,378.07616 C 906.92013,360.04076 909.05174,341.86114 909.95117,323.5894 C 910.99982,302.5796 910.91996,281.4974 908.88807,260.54477 C 906.65374,237.66927 902.89277,214.89375 896.26212,192.86767 C 889.12644,169.67061 879.63773,147.2449 866.83174,126.62382 C 854.8205,107.11152 841.52983,88.390776 826.56654,71.064087 C 817.22792,60.293374 807.52207,49.828235 796.95176,40.271353 C 795.42532,38.920494 791.99921,35.82323 790.91656,35.39272 L 792.06275,31.241788 z " />
    <path
       style="fill:#000000;fill-opacity:1;fill-rule:nonzero;stroke:none;stroke-width:1px;stroke-linecap:butt;stroke-linejoin:miter;stroke-opacity:1"
       id="path5807"
       d="M 258.14929,143.13031 C 258.6065,142.44149 263.92371,147.57967 265.78582,149.25758 C 277.19507,159.80329 287.11047,171.85615 296.43269,184.28297 C 310.76347,203.23 321.54348,224.49453 330.28979,246.56091 C 339.77865,271.03739 345.98995,296.66079 350.21178,322.5593 C 354.15363,346.623 355.13577,371.05175 353.72501,395.37686 C 352.33554,417.08268 348.19238,438.51448 342.10078,459.35412 C 336.49,478.69786 327.28218,496.65018 316.30839,513.40521 C 307.64996,526.55923 297.50881,538.63389 286.26809,549.59649 C 285.67488,550.14956 285.08165,550.70264 284.48845,551.2557 L 283.67057,547.02631 C 284.25146,546.47572 284.83236,545.92514 285.41326,545.37455 C 295.30202,535.55404 304.35713,524.92432 312.04413,513.23608 C 322.99331,496.74717 332.22569,479.06567 337.87842,459.97957 C 344.00832,439.34773 348.17502,418.11103 349.63302,396.60009 C 351.10231,372.46706 350.19621,348.22375 346.32488,324.33834 C 342.17978,298.61839 336.05305,273.16886 326.67525,248.85179 C 318.05176,226.99085 307.41778,205.91628 293.24333,187.14615 C 284.02888,174.84688 274.2309,162.91307 262.94794,152.47597 C 260.01029,149.85341 256.60974,147.48536 254.10512,144.50622 L 258.14929,143.13031 z " />
    <path
       style="fill:#000000;fill-opacity:1;fill-rule:nonzero;stroke:none;stroke-width:1px;stroke-linecap:butt;stroke-linejoin:miter;stroke-opacity:1"
       id="path5811"
       d="M 624.70326,76.908796 C 627.94802,78.539747 633.4385,81.78826 637.21542,84.009453 C 655.00587,94.650475 672.04372,106.53204 688.38932,119.30981 C 710.03317,136.25599 729.76708,155.54948 747.51097,176.59578 C 762.77726,194.62427 775.47945,214.64351 785.10292,236.27034 C 792.75619,253.56986 797.50375,271.9285 800.51097,290.57667 C 802.61054,304.39333 802.7692,318.38097 802.07141,332.31015 C 801.61781,340.20421 800.61195,348.04866 799.20317,355.82261 L 795.02484,356.69918 C 796.48526,349.04772 797.49208,341.31478 797.97981,333.53479 C 798.72812,319.78629 798.63065,305.97547 796.61114,292.32663 C 793.71019,273.89906 789.06518,255.75639 781.5477,238.65401 C 772.07141,217.23452 759.52282,197.41483 744.42386,179.57107 C 726.80852,158.65616 707.20554,139.49108 685.70481,122.65969 C 669.44896,109.95493 652.5037,98.142204 634.80817,87.567699 C 630.48203,85.025396 626.07724,82.589215 621.76676,80.035668 L 624.70326,76.908796 z " />
    <path
       style="fill:#000000;fill-opacity:1;fill-rule:nonzero;stroke:none;stroke-width:1px;stroke-linecap:butt;stroke-linejoin:miter;stroke-opacity:1"
       id="path5813"
       d="M 69.892346,283.33408 C 69.804185,285.42778 71.054545,287.08088 71.929728,288.86368 C 78.297084,297.35076 87.050974,303.63168 95.492578,309.85772 C 109.81753,320.24684 125.30482,328.86476 141.43503,336.02571 C 161.19292,344.653 182.04202,350.30459 203.12468,354.46765 C 223.76717,358.49797 244.70836,360.66116 265.70805,361.4036 C 283.28517,362.09632 300.86238,361.24837 318.30642,359.0522 C 332.03512,357.04862 345.5671,353.84035 358.90205,350.01571 C 368.66234,347.22075 378.09055,343.44711 387.2312,339.02948 C 394.61169,335.43965 401.66037,331.23903 408.51196,326.72021 C 414.53562,322.74563 419.94044,317.9641 425.21188,313.04718 C 429.07232,309.52207 435.31401,302.19559 436.38515,300.96052 C 440.4967,295.38311 443.44992,291.77918 450.27676,292.4362 C 458.32213,296.34463 465.18256,302.41055 472.38888,307.68724 C 484.83347,316.80872 498.19666,324.52788 511.8437,331.64016 C 525.52614,338.75413 539.89942,344.30145 554.66998,348.59847 C 566.86993,352.12937 579.44598,353.52604 592.09858,353.41569 C 602.60102,353.17246 612.89639,351.02673 622.93093,348.01786 C 631.66341,345.3137 640.00268,341.54394 648.17027,337.45285 C 656.01631,333.53687 663.24898,328.57384 670.03342,323.02015 C 677.01614,317.11628 681.14357,312.06093 686.21755,305.14211 C 691.1392,298.47467 694.98574,291.14309 698.37158,283.59246 C 701.26499,276.92494 702.84508,269.84202 704.07946,262.70595 C 705.16521,256.1361 705.3045,249.48041 705.30478,242.83781 C 704.57175,234.33702 705.40622,230.09973 712.38637,225.37861 C 725.29933,224.13928 738.22591,228.18867 750.67084,231.31506 C 773.87139,237.34686 797.3017,242.43168 820.92399,246.45966 C 846.88406,250.8311 873.09713,253.49285 899.38871,254.57649 C 919.63371,255.48924 939.90374,254.70367 960.00188,252.14189 C 972.23,250.55533 984.14481,247.41511 995.31006,242.13497 C 997.53734,241.06314 999.60663,239.71365 1001.6975,238.40374 L 1002.0209,242.70061 C 999.82533,244.01356 997.65123,245.36863 995.32567,246.44422 C 983.85539,251.65955 971.67908,254.80259 959.19381,256.37321 C 938.94229,258.8791 918.52717,259.64396 898.13732,258.69634 C 871.73904,257.57472 845.42053,254.87907 819.35722,250.46801 C 795.67381,246.407 772.18271,241.29626 748.9193,235.24465 C 737.01617,232.26147 724.44805,228.16114 712.12424,229.67975 C 711.11721,230.76816 708.05451,234.38356 709.34082,241.43776 C 709.37192,248.21623 709.27921,255.01026 708.23477,261.72412 C 707.03816,269.06914 705.49833,276.36651 702.62642,283.26026 C 699.26984,291.01593 695.4305,298.54964 690.47671,305.41232 C 684.71711,313.43313 678.37647,321.06845 670.67853,327.2799 C 663.69351,332.85586 656.25824,337.82556 648.23393,341.76164 C 639.91872,345.8628 631.43022,349.63441 622.54528,352.30949 C 612.26628,355.29886 601.72908,357.40811 590.99543,357.5785 C 578.09489,357.60498 565.27746,356.12573 552.84818,352.49536 C 537.92226,348.11345 523.39373,342.48709 509.56314,335.28251 C 495.75888,328.18065 482.3573,320.24017 469.77604,311.0944 C 462.82863,306.00496 456.20573,300.14829 448.47618,296.34312 C 442.8123,297.34976 443.91948,297.53247 440.62425,301.4573 C 435.95255,306.90513 431.29165,312.38962 426.03108,317.27631 C 420.62441,322.23189 415.06421,327.02138 408.90151,331.0115 C 401.91856,335.52383 394.75536,339.74417 387.25841,343.33866 C 377.96598,347.75418 368.38073,351.50358 358.48207,354.30406 C 345.01281,358.10876 331.35584,361.33236 317.49285,363.28244 C 299.90379,365.43648 282.1855,366.24975 264.47084,365.5278 C 243.33712,364.74524 222.26424,362.53102 201.49392,358.44988 C 180.2285,354.21866 159.20324,348.47784 139.2808,339.74565 C 122.99113,332.48819 107.34886,323.76754 92.878263,313.26373 C 84.169904,306.83574 75.182566,300.33089 68.611923,291.57398 C 67.413287,289.37809 66.03029,287.29105 65.84817,284.70999 L 69.892346,283.33408 z " />
    <path
       style="fill:#000000;fill-opacity:1;fill-rule:nonzero;stroke:none;stroke-width:1px;stroke-linecap:butt;stroke-linejoin:miter;stroke-opacity:1"
       id="path5815"
       d="M 62.573803,409.06069 C 65.914933,410.30235 69.121285,411.91131 72.353845,413.41499 C 84.559445,419.1837 96.82021,424.82855 109.17978,430.25323 C 129.80504,439.4653 151.03929,447.17213 172.71677,453.43436 C 201.5649,461.59344 231.14516,466.7677 260.89689,470.09058 C 288.41257,473.0964 316.14901,473.82029 343.7596,471.88137 C 363.50914,470.55368 382.96711,466.84904 401.95353,461.2937 C 415.01551,457.33512 427.48856,451.73588 439.59537,445.45068 C 448.23154,440.98609 456.52846,435.91652 464.43851,430.25049 C 470.86268,424.8974 477.98544,423.65847 486.03975,423.81883 C 497.0046,425.11701 507.51691,428.8984 517.95672,432.36965 C 532.8607,437.41458 547.87306,442.12282 562.9567,446.58806 C 577.46629,450.9463 592.12553,454.75984 606.89072,458.12191 C 617.89432,460.7593 629.06753,462.42474 640.37605,462.58562 C 648.46389,462.74721 656.29038,460.99315 663.94214,458.54443 C 669.97704,456.56561 675.26319,453.14119 680.32767,449.37671 C 684.78298,445.86948 688.68773,441.74582 692.46926,437.52881 C 693.334,437.05942 698.43712,429.58526 700.77501,425.45263 C 703.75032,419.85117 706.10416,413.94623 708.47221,408.06564 C 710.88847,401.88355 713.56762,395.82189 716.56384,389.90666 C 719.50457,384.43078 722.48625,378.97803 725.39335,373.48365 C 728.07889,368.37937 730.60025,363.19219 733.50518,358.21144 C 737.20437,352.06117 741.1459,349.42128 747.99544,348.67339 C 758.71056,348.97618 769.09088,352.18399 779.31976,355.1685 C 795.11539,359.91881 810.82248,364.96372 826.55713,369.915 C 842.88405,375.05273 859.15779,380.36036 875.46161,385.57204 C 888.04764,389.65072 900.7581,393.31231 913.57408,396.57526 C 915.01151,396.94311 916.4591,397.2679 917.90159,397.61421 L 916.18154,401.55795 C 914.72768,401.20654 913.26879,400.87638 911.81997,400.50369 C 898.95602,397.21329 886.19697,393.5285 873.56126,389.43047 C 857.2612,384.21754 840.99009,378.91214 824.66548,373.77778 C 808.94643,368.83026 793.25476,363.78936 777.47173,359.05276 C 767.53551,356.16699 757.4254,352.9919 747.00922,352.86602 C 741.09726,354.07887 739.35213,355.75786 737.77107,358.3313 C 734.82953,363.21802 732.25368,368.29707 729.65974,373.3833 C 726.76096,378.88373 723.8082,384.3539 720.83033,389.81103 C 717.80377,395.61956 715.11551,401.58467 712.72354,407.69027 C 710.33663,413.65694 707.96698,419.64576 705.04176,425.36986 C 701.8492,431.27608 698.1803,436.84673 693.51976,441.70549 C 689.58109,445.97557 685.52479,450.15937 680.87192,453.65079 C 675.52497,457.46262 669.94078,460.88211 663.63246,462.84234 C 655.68564,465.25889 647.57151,466.96073 639.21344,466.73191 C 627.7254,466.48382 616.37642,464.76423 605.19788,462.07764 C 590.38005,458.68804 575.66798,454.84987 561.10483,450.47046 C 545.99473,445.99017 530.95577,441.26831 516.02442,436.21188 C 505.80094,432.81977 495.50381,429.09218 484.75258,427.92741 C 477.20655,427.9268 470.83356,429.46771 464.91091,434.53327 C 456.87152,440.20341 448.43721,445.25831 439.69973,449.75866 C 427.426,456.05233 414.78493,461.64807 401.55713,465.58434 C 382.36954,471.09834 362.72342,474.78452 342.78849,476.07758 C 315.02217,477.96428 287.13539,477.20634 259.47149,474.15238 C 229.57886,470.78094 199.85958,465.55305 170.87973,457.32395 C 149.09897,451.00674 127.76337,443.24439 107.03635,433.97953 C 94.658197,428.54295 82.379641,422.88442 70.153847,417.10751 C 67.628977,415.93505 63.415547,413.88801 61.427615,413.21162 L 62.573803,409.06069 z " />
    <path
       style="fill:#000000;fill-opacity:1;fill-rule:nonzero;stroke:none;stroke-width:1px;stroke-linecap:butt;stroke-linejoin:miter;stroke-opacity:1"
       id="path5817"
       d="M 126.11053,216.58691 C 128.08994,216.01849 131.51068,215.81822 133.89178,215.57913 C 149.20044,214.05708 164.52523,212.71617 179.86403,211.54465 C 210.10102,209.27847 240.39084,207.82548 270.68637,206.64754 C 302.98245,205.52243 335.30416,204.86409 367.61937,205.32276 C 389.45231,205.38361 411.18492,207.34068 432.89964,209.38564 C 442.56101,210.31701 452.30597,211.10947 461.71209,208.38405 C 465.93578,207.06093 470.96636,200.86389 471.19054,200.61525 C 476.57448,193.87531 482.7387,187.90259 489.40981,182.48849 C 499.305,174.64625 510.70957,169.27276 522.33651,164.63219 C 536.86827,159.04118 552.1293,155.92526 567.44413,153.50152 C 582.61035,151.18575 597.91986,150.18458 613.2458,150.03167 C 625.61565,149.88607 637.913,151.04916 650.06516,153.3113 C 659.02252,154.93974 667.51216,158.29982 676.20783,160.89662 C 681.77366,162.74339 687.11331,162.59638 692.71341,161.25923 C 700.3405,158.90937 707.33409,154.96647 714.2655,151.06586 C 726.96232,143.67566 739.97751,136.87294 753.38921,130.90453 C 772.1161,122.68605 791.51571,116.16218 811.00783,110.07615 C 832.04744,103.50893 853.4082,98.041621 874.94281,93.408449 C 892.60612,89.485313 910.49733,86.881266 928.56354,86.10295 C 938.63556,85.7264 948.68157,86.461486 958.67007,87.695228 L 957.20163,91.741369 C 947.34833,90.560821 937.44005,89.871993 927.51008,90.278866 C 909.59385,91.115765 891.85642,93.769297 874.34155,97.674735 C 852.8852,102.32076 831.60346,107.79789 810.64257,114.36962 C 791.24681,120.44653 771.94645,126.973 753.33192,135.21342 C 740.0092,141.20144 727.0898,148.0235 714.4543,155.37092 C 707.33383,159.34622 700.11499,163.32188 692.23406,165.54121 C 686.17176,166.77429 680.34608,166.78218 674.38428,164.79266 C 665.77041,162.18387 657.33884,158.88288 648.44888,157.29956 C 636.45328,155.10875 624.31607,154.01808 612.11451,154.18676 C 596.91174,154.37823 581.7266,155.40823 566.68747,157.74253 C 551.5581,160.18425 536.48349,163.31764 522.15478,168.93757 C 510.78137,173.56828 499.63285,178.92471 490.02827,186.75228 C 484.65547,191.24879 477.7497,197.97831 475.42876,201.11967 C 471.35933,205.84239 467.48657,210.67014 461.38926,212.68097 C 451.57122,215.12657 441.53516,214.50737 431.52402,213.46489 C 409.87552,211.41471 388.20442,209.51957 366.43819,209.46368 C 334.16722,209.02605 301.89013,209.689 269.63887,210.82499 C 239.37491,212.00826 209.11671,213.46734 178.912,215.74533 C 163.59281,216.92227 148.28758,218.26826 132.99841,219.79292 C 130.32041,220.07197 127.62163,220.43198 124.96434,220.73784 L 126.11053,216.58691 z " />
    <path
       style="fill:#000000;fill-opacity:1;fill-rule:nonzero;stroke:none;stroke-width:1px;stroke-linecap:butt;stroke-linejoin:miter;stroke-opacity:1"
       id="path5819"
       d="M 359.99966,119.5423 C 361.72051,115.39993 359.17734,119.63944 362.98841,114.66859 C 367.74254,107.96888 373.67062,102.38798 379.92914,97.165565 C 389.08796,89.490852 399.2045,83.253642 409.88374,78.014277 C 421.89642,72.280215 434.69028,68.667045 447.64683,65.902851 C 459.26469,63.483503 471.07671,62.349828 482.91499,61.902153 C 486.36612,61.774524 489.81843,61.845166 493.26968,61.907093 L 492.06979,66.042523 C 488.66509,65.994102 485.25944,65.938679 481.8555,66.076522 C 470.16106,66.560408 458.49559,67.730377 447.02695,70.166425 C 434.277,72.950048 421.69376,76.584209 409.9029,82.323511 C 399.44048,87.570161 389.55011,93.820628 380.58564,101.42353 C 374.28084,106.80926 370.97793,110.0003 367.2409,115.03038 C 365.59258,117.19627 361.66829,122.83065 364.04384,118.1664 L 359.99966,119.5423 z " />
    <path
       style="fill:#000000;fill-opacity:1;fill-rule:nonzero;stroke:none;stroke-width:1px;stroke-linecap:butt;stroke-linejoin:miter;stroke-opacity:1"
       id="path5830"
       d="M 452.64007,144.78454 C 454.45061,145.94067 453.07426,142.0316 452.52585,145.50874 C 449.83207,149.16488 447.77574,153.22424 445.76992,157.28867 C 441.35464,166.72602 438.47856,176.78131 435.8354,186.84079 C 431.35681,204.67043 428.75709,222.90351 427.14384,241.20619 C 425.12043,264.87144 425.23855,288.6635 426.79677,312.34957 C 428.71698,339.85901 433.76248,367.02808 440.37521,393.7513 C 447.38806,421.47536 457.34555,448.32342 468.24875,474.69841 C 476.43083,494.29504 485.18095,513.67935 495.81863,532.05466 C 502.3739,543.33097 509.83915,554.026 517.77277,564.34824 C 522.49423,570.45827 527.55171,576.28156 532.84188,581.8913 C 536.72847,586.13844 541.13533,589.80273 545.64881,593.33394 C 548.19752,595.24392 550.87864,596.95584 553.55924,598.66647 L 551.09842,602.18716 C 548.35687,600.4319 545.61405,598.67622 543.007,596.71825 C 538.35748,593.12451 533.87968,589.31523 529.87302,584.98685 C 524.51667,579.31224 519.39307,573.42402 514.61157,567.24311 C 506.59848,556.83261 499.05661,546.0456 492.42979,534.67381 C 481.71406,516.20754 472.88796,496.72956 464.65664,477.02502 C 453.68869,450.53507 443.6689,423.57094 436.58434,395.73034 C 429.904,368.86598 424.79834,341.55255 422.81285,313.89436 C 421.20556,290.08046 421.04734,266.15802 423.03162,242.35823 C 424.61625,223.91772 427.18303,205.54578 431.62922,187.56892 C 434.26219,177.34565 437.15017,167.13735 441.50773,157.50459 C 443.51861,153.29111 445.58538,149.08457 448.26581,145.25315 C 449.55495,143.58885 450.54358,141.24229 452.57376,140.47578 L 452.64007,144.78454 z " />
    <path
       style="fill:#000000;fill-opacity:1;fill-rule:nonzero;stroke:none;stroke-width:1px;stroke-linecap:butt;stroke-linejoin:miter;stroke-opacity:1"
       id="path5836"
       d="M 481.44897,148.26316 C 481.11476,148.7538 480.7003,149.18346 480.32596,149.64362 C 475.00357,157.09347 472.3784,166.02592 469.81466,174.73219 C 465.04678,192.14107 462.43129,210.05164 460.46025,227.97564 C 458.03274,251.62276 457.08549,275.40266 457.17683,299.16985 C 457.33927,324.8 459.41719,350.38764 463.46942,375.68617 C 467.2262,398.44427 472.96639,420.81979 479.91687,442.78409 C 485.17007,459.81144 491.89113,476.30416 499.42419,492.41761 C 506.13894,506.69246 514.46624,520.08171 523.50139,532.95517 C 531.9822,544.87169 541.65249,555.84428 551.78758,566.3366 C 560.2733,575.10598 569.44513,583.14214 578.98836,590.70744 C 586.24416,596.42963 593.84693,601.66879 601.70368,606.5069 L 599.26523,610.04341 C 591.32427,605.14254 583.63648,599.84221 576.29952,594.05378 C 566.66645,586.41379 557.40613,578.30112 548.8369,569.44983 C 538.60402,558.86179 528.8395,547.78979 520.2692,535.76897 C 511.133,522.77596 502.70897,509.26301 495.90625,494.85702 C 488.30406,478.6444 481.51305,462.0506 476.20723,444.91436 C 469.19361,422.83507 463.39689,400.34131 459.58134,377.46256 C 455.46753,352.03843 453.33481,326.32156 453.13655,300.55736 C 453.01185,276.69402 453.94161,252.81826 456.33285,229.07094 C 458.28568,211.00558 460.88428,192.95633 465.59709,175.38988 C 468.18876,166.36416 470.89797,157.18399 476.07443,149.27052 C 478.05908,146.92813 479.5536,144.5748 482.59516,144.11221 L 481.44897,148.26316 z " />
    <path
       style="fill:#000000;fill-opacity:1;fill-rule:nonzero;stroke:none;stroke-width:1px;stroke-linecap:butt;stroke-linejoin:miter;stroke-opacity:1"
       id="path5838"
       d="M 477.66025,149.24505 C 477.73715,148.23508 477.74762,147.20024 477.79098,146.18551 C 477.47036,143.24181 475.7151,141.19828 474.06029,138.92358 C 470.95318,135.59389 466.84793,134.04561 462.70225,132.50584 C 458.06528,130.93512 453.29953,130.74028 448.47136,130.96057 L 449.44211,126.76426 C 454.59909,126.6426 459.70572,126.93138 464.63393,128.6633 C 469.18503,130.40396 473.68388,132.20143 477.0863,135.88494 C 479.12905,138.52708 481.13731,141.05034 481.70789,144.47492 C 481.70687,145.48639 482.13243,147.09081 481.70443,147.86914 L 477.66025,149.24505 z " />
    <path
       style="fill:#000000;fill-opacity:1;fill-rule:nonzero;stroke:none;stroke-width:1px;stroke-linecap:butt;stroke-linejoin:miter;stroke-opacity:1"
       id="path5840"
       d="M 447.03576,154.13593 C 447.1699,154.24152 450.20729,155.79326 451.24913,156.3263 C 455.29642,158.36065 459.6471,159.50091 464.01212,160.57521 C 465.56163,160.92676 467.13308,161.15991 468.69612,161.43689 L 467.13794,165.44865 C 465.53061,165.1539 463.91408,164.90526 462.3215,164.53191 C 457.78052,163.37799 453.25759,162.14829 449.04636,160.01715 C 447.37142,159.15733 445.6144,158.40079 444.09926,157.2628 L 447.03576,154.13593 z " />
    <path
       style="fill:#000000;fill-opacity:1;fill-rule:nonzero;stroke:none;stroke-width:1px;stroke-linecap:butt;stroke-linejoin:miter;stroke-opacity:1"
       id="path5842"
       d="M 434.37455,173.81497 C 435.71722,173.8072 437.03965,174.09155 438.36697,174.25351 C 442.42993,175.02017 446.51169,175.66049 450.60193,176.25591 C 455.84746,177.00011 461.12595,177.41312 466.41274,177.68757 L 465.15774,181.80628 C 459.79248,181.50009 454.43512,181.06291 449.11234,180.29415 C 445.01438,179.68503 440.92737,179.01889 436.84999,178.28132 C 435.64501,178.1745 434.44655,177.88696 433.22835,177.9659 L 434.37455,173.81497 z " />
    <path
       style="fill:#000000;fill-opacity:1;fill-rule:nonzero;stroke:none;stroke-width:1px;stroke-linecap:butt;stroke-linejoin:miter;stroke-opacity:1"
       id="path5844"
       d="M 432.02134,192.82472 C 433.24378,192.88467 434.4677,192.98683 435.69003,193.07215 C 439.73663,193.33875 443.79011,193.46401 447.84269,193.58941 C 452.66272,193.7208 457.48018,193.5201 462.29385,193.29675 L 461.27863,197.48231 C 456.40019,197.69231 451.51814,197.87503 446.63453,197.7224 C 442.547,197.58625 438.45841,197.45348 434.37742,197.17251 C 433.21018,197.10691 432.04482,196.95519 430.87514,196.97565 L 432.02134,192.82472 z " />
    <path
       style="fill:#000000;fill-opacity:1;fill-rule:nonzero;stroke:none;stroke-width:1px;stroke-linecap:butt;stroke-linejoin:miter;stroke-opacity:1"
       id="path5846"
       d="M 429.38667,223.04631 C 429.08249,222.42007 433.58272,223.83012 435.00084,224.15291 C 440.21153,225.3044 445.49438,226.02983 450.79483,226.58316 C 452.96044,226.78984 455.13499,226.77711 457.30652,226.82272 L 456.13856,230.96747 C 453.89804,230.90141 451.65376,230.89489 449.42078,230.66296 C 444.01875,230.06385 438.63259,229.30829 433.32269,228.11503 C 431.02667,227.58698 428.53252,227.28696 426.45017,226.17318 L 429.38667,223.04631 z " />
    <path
       style="fill:#000000;fill-opacity:1;fill-rule:nonzero;stroke:none;stroke-width:1px;stroke-linecap:butt;stroke-linejoin:miter;stroke-opacity:1"
       id="path5848"
       d="M 426.13831,242.72533 C 427.58891,242.90279 429.03235,243.17152 430.47683,243.40192 C 434.79391,244.22744 439.11948,244.99869 443.4542,245.72228 C 447.41129,246.44564 451.4086,246.71179 455.41855,246.84664 L 454.22001,250.98247 C 450.09569,250.79792 445.98395,250.48764 441.91384,249.74104 C 437.56442,249.00412 433.2238,248.22092 428.88867,247.40167 C 427.64976,247.2187 426.12037,246.88787 424.99211,246.87626 L 426.13831,242.72533 z " />
    <path
       style="fill:#000000;fill-opacity:1;fill-rule:nonzero;stroke:none;stroke-width:1px;stroke-linecap:butt;stroke-linejoin:miter;stroke-opacity:1"
       id="path5850"
       d="M 426.14505,264.1113 C 427.44499,264.26949 428.72367,264.58983 430.01149,264.83547 C 434.00923,265.62271 438.06658,265.98595 442.11762,266.34166 C 447.79791,266.7149 453.46784,266.19583 459.10617,265.54681 L 458.27367,269.77329 C 452.47119,270.39753 446.63639,270.88371 440.79908,270.44008 C 436.64367,270.04681 432.48037,269.65597 428.38305,268.81867 C 427.29732,268.64016 426.01673,268.23131 424.99886,268.26223 L 426.14505,264.1113 z " />
    <path
       style="fill:#000000;fill-opacity:1;fill-rule:nonzero;stroke:none;stroke-width:1px;stroke-linecap:butt;stroke-linejoin:miter;stroke-opacity:1"
       id="path5852"
       d="M 423.7851,284.30917 C 424.89182,284.27379 425.99349,284.40287 427.09767,284.44971 C 430.7284,284.71157 434.36449,284.83293 438.00257,284.91137 C 443.29473,284.96014 448.5665,284.4205 453.8223,283.85877 C 454.63174,283.77938 455.43785,283.67092 456.24563,283.577 L 455.39957,287.80073 C 454.58403,287.89305 453.76949,287.99415 452.95298,288.0777 C 447.59301,288.63336 442.21531,289.15177 436.82001,289.05189 C 433.14261,288.95189 429.46684,288.81807 425.79646,288.55378 C 424.74413,288.52256 423.69333,288.41631 422.6389,288.4601 L 423.7851,284.30917 z " />
    <path
       style="fill:#000000;fill-opacity:1;fill-rule:nonzero;stroke:none;stroke-width:1px;stroke-linecap:butt;stroke-linejoin:miter;stroke-opacity:1"
       id="path5854"
       d="M 424.9617,303.31892 C 426.36356,303.32967 427.76406,303.44369 429.16365,303.52556 C 433.44219,303.84145 437.72183,303.89007 442.00672,303.81788 C 447.00201,303.53869 451.92679,302.61203 456.83678,301.69421 L 456.17098,305.95072 C 451.13567,306.87032 446.08127,307.78939 440.95686,307.99471 C 436.59208,308.02209 432.2315,307.9503 427.87426,307.63345 C 426.52166,307.57187 425.17087,307.43627 423.81551,307.46986 L 424.9617,303.31892 z " />
    <path
       style="fill:#000000;fill-opacity:1;fill-rule:nonzero;stroke:none;stroke-width:1px;stroke-linecap:butt;stroke-linejoin:miter;stroke-opacity:1"
       id="path5856"
       d="M 428.49152,323.51679 C 429.70533,323.63323 430.92749,323.72273 432.14416,323.83079 C 436.67826,324.27176 441.22299,324.54523 445.77163,324.76092 C 448.18299,324.8676 450.59412,324.77594 453.0046,324.7175 L 451.94379,328.89152 C 449.47409,328.93287 447.00368,329.00581 444.53424,328.88505 C 439.94296,328.66273 435.35804,328.34533 430.78078,327.91422 C 429.63774,327.83222 428.48613,327.67305 427.34532,327.66773 L 428.49152,323.51679 z " />
    <path
       style="fill:#000000;fill-opacity:1;fill-rule:nonzero;stroke:none;stroke-width:1px;stroke-linecap:butt;stroke-linejoin:miter;stroke-opacity:1"
       id="path5858"
       d="M 430.84473,346.09088 C 431.93129,345.93251 433.06263,345.76728 434.16764,345.60606 C 438.17485,345.10807 442.20269,344.80572 446.22333,344.4421 C 450.39773,344.10602 454.52692,343.42156 458.65371,342.73102 L 457.95475,346.98211 C 453.7601,347.67699 449.55502,348.3069 445.31511,348.65265 C 441.32765,349.00789 437.3324,349.30508 433.36318,349.83807 C 432.14265,349.97696 430.93261,350.30028 429.69854,350.24181 L 430.84473,346.09088 z " />
    <path
       style="fill:#000000;fill-opacity:1;fill-rule:nonzero;stroke:none;stroke-width:1px;stroke-linecap:butt;stroke-linejoin:miter;stroke-opacity:1"
       id="path5860"
       d="M 433.19794,365.10063 C 434.2884,365.05997 435.37478,365.17274 436.46312,365.20879 C 440.06746,365.43986 443.67589,365.5889 447.28433,365.73487 C 451.05956,365.88951 454.83633,365.96436 458.61404,365.99341 L 457.46637,370.14392 C 453.65729,370.09623 449.84887,370.01598 446.04231,369.85759 C 442.41902,369.70573 438.79611,369.54668 435.1766,369.31759 C 434.13531,369.29558 433.09449,369.21574 432.05175,369.25157 L 433.19794,365.10063 z " />
    <path
       style="fill:#000000;fill-opacity:1;fill-rule:nonzero;stroke:none;stroke-width:1px;stroke-linecap:butt;stroke-linejoin:miter;stroke-opacity:1"
       id="path5862"
       d="M 435.55115,386.4866 C 436.71696,386.60139 437.8781,386.82282 439.04017,386.99073 C 442.78394,387.57103 446.56263,387.71582 450.34097,387.82855 C 454.89311,387.98613 459.4081,387.50355 463.90947,386.89497 L 463.13188,391.1321 C 458.4915,391.711 453.83834,392.14655 449.15394,391.96777 C 445.27008,391.82038 441.38583,391.63939 437.53971,391.02487 C 436.49715,390.89604 435.45647,390.60675 434.40496,390.63754 L 435.55115,386.4866 z " />
    <path
       style="fill:#000000;fill-opacity:1;fill-rule:nonzero;stroke:none;stroke-width:1px;stroke-linecap:butt;stroke-linejoin:miter;stroke-opacity:1"
       id="path5864"
       d="M 442.61079,403.12014 C 443.79535,403.14828 444.9789,403.08742 446.16259,403.07092 C 449.75117,402.90865 453.26282,402.11797 456.75992,401.34842 C 459.84503,400.65528 462.86195,399.7078 465.88643,398.79263 L 465.52041,403.08603 C 462.43019,403.99585 459.34649,404.93471 456.19674,405.62001 C 452.53393,406.38065 448.85606,407.16617 445.10125,407.24481 C 443.88922,407.25371 442.67698,407.28683 441.46459,407.27107 L 442.61079,403.12014 z " />
    <path
       style="fill:#000000;fill-opacity:1;fill-rule:nonzero;stroke:none;stroke-width:1px;stroke-linecap:butt;stroke-linejoin:miter;stroke-opacity:1"
       id="path5866"
       d="M 444.964,419.75368 C 445.95659,420.44066 447.23933,420.36226 448.37167,420.66513 C 452.01113,421.11229 455.62394,420.5698 459.21876,420.04234 C 462.14153,419.60098 464.96731,418.74038 467.80915,417.95719 L 467.40511,422.24709 C 464.46024,423.04141 461.5142,423.84298 458.49145,424.28856 C 454.61792,424.7889 450.72023,425.30416 446.8231,424.6807 C 446.21848,424.50851 442.03422,423.48042 443.8178,423.90461 L 444.964,419.75368 z " />
    <path
       style="fill:#000000;fill-opacity:1;fill-rule:nonzero;stroke:none;stroke-width:1px;stroke-linecap:butt;stroke-linejoin:miter;stroke-opacity:1"
       id="path5868"
       d="M 459.2315,449.42005 C 460.77639,449.10992 462.20147,448.26261 463.63736,447.60347 C 467.47238,445.83799 471.28876,444.03445 475.08845,442.19325 C 475.73719,441.87793 476.37627,441.54309 477.02016,441.21801 L 477.08745,445.52674 C 477.07233,445.53428 475.1555,446.49718 475.12832,446.50233 C 471.30345,448.33483 467.464,450.13506 463.6137,451.91267 C 462.78962,452.27991 459.54299,453.44193 460.14206,453.6301 L 459.2315,449.42005 z " />
    <path
       style="fill:#000000;fill-opacity:1;fill-rule:nonzero;stroke:none;stroke-width:1px;stroke-linecap:butt;stroke-linejoin:miter;stroke-opacity:1"
       id="path5870"
       d="M 464.97305,469.65429 C 464.04262,469.21647 466.81927,468.41713 467.46843,467.98212 C 470.86667,466.33847 474.20826,464.5867 477.52834,462.78916 C 480.43453,461.20818 483.25526,459.47952 486.08049,457.75835 L 486.37253,462.05752 C 483.49876,463.77614 480.6336,465.51079 477.68366,467.09558 C 474.32864,468.87745 470.95035,470.60965 467.54437,472.29072 C 466.34947,472.86201 465.16787,473.87488 463.82686,473.80522 L 464.97305,469.65429 z " />
    <path
       style="fill:#000000;fill-opacity:1;fill-rule:nonzero;stroke:none;stroke-width:1px;stroke-linecap:butt;stroke-linejoin:miter;stroke-opacity:1"
       id="path5872"
       d="M 469.42401,487.85633 C 469.74966,485.07126 471.97909,484.87913 473.85074,483.4141 C 476.70496,481.79454 479.49227,480.06164 482.27976,478.32966 C 484.36312,476.97708 486.38462,475.5316 488.42016,474.1079 L 488.87546,478.39258 C 486.79994,479.82729 484.73971,481.28677 482.6018,482.62665 C 479.78827,484.34652 476.96648,486.05153 474.11957,487.71481 C 474.08907,487.65701 468.39549,491.94221 473.46819,486.48042 L 469.42401,487.85633 z " />
    <path
       style="fill:#000000;fill-opacity:1;fill-rule:nonzero;stroke:none;stroke-width:1px;stroke-linecap:butt;stroke-linejoin:miter;stroke-opacity:1"
       id="path5874"
       d="M 477.90897,501.73324 C 477.89368,501.53304 479.42846,500.85165 479.9241,500.56407 C 482.94352,498.69697 485.84437,496.64682 488.74811,494.60399 C 490.73858,493.18798 492.59455,491.59673 494.4818,490.04772 L 495.14467,494.30469 C 493.19178,495.86526 491.27313,497.47329 489.21016,498.88793 C 486.21988,500.96577 483.24586,503.0917 480.06822,504.87089 C 478.99456,505.20004 477.95877,506.08917 476.76277,505.88419 L 477.90897,501.73324 z " />
    <path
       style="fill:#000000;fill-opacity:1;fill-rule:nonzero;stroke:none;stroke-width:1px;stroke-linecap:butt;stroke-linejoin:miter;stroke-opacity:1"
       id="path5876"
       d="M 485.11682,517.14232 C 486.42108,516.76289 487.59912,515.92351 488.79494,515.25646 C 492.29553,513.45002 495.61786,511.35429 498.89183,509.16802 C 500.12808,508.30324 501.29599,507.34495 502.49776,506.43366 L 503.06458,510.70476 C 501.81662,511.62151 500.61128,512.59915 499.31999,513.45554 C 495.94044,515.61799 492.5173,517.69628 488.96467,519.56233 C 488.14469,520.01283 485.83133,521.11055 486.0274,521.35235 L 485.11682,517.14232 z " />
    <path
       style="fill:#000000;fill-opacity:1;fill-rule:nonzero;stroke:none;stroke-width:1px;stroke-linecap:butt;stroke-linejoin:miter;stroke-opacity:1"
       id="path5878"
       d="M 504.9709,544.5052 C 503.12437,544.51949 505.92934,543.3072 506.36571,542.76175 C 508.91776,540.93686 511.41888,539.04166 513.91676,537.14231 C 515.58441,535.90524 517.11598,534.4987 518.68069,533.13548 L 519.41276,537.38086 C 517.78996,538.75365 516.1954,540.16193 514.47642,541.41437 C 511.95685,543.30321 509.43154,545.18378 506.88735,547.03872 C 505.87063,547.57567 505.10151,549.00534 503.82472,548.65613 L 504.9709,544.5052 z " />
    <path
       style="fill:#000000;fill-opacity:1;fill-rule:nonzero;stroke:none;stroke-width:1px;stroke-linecap:butt;stroke-linejoin:miter;stroke-opacity:1"
       id="path5880"
       d="M 515.31164,566.27156 C 515.12443,564.10744 517.41491,562.82062 518.78957,561.34973 C 521.28604,559.15974 524.09409,557.38238 526.83785,555.53282 C 530.70852,553.00051 534.29873,550.08652 537.84636,547.12197 C 538.10787,546.89367 538.36939,546.66538 538.63092,546.4371 L 539.33631,550.6871 C 539.06631,550.91679 538.79631,551.14649 538.52629,551.3762 C 534.88045,554.35337 531.18615,557.26959 527.2303,559.82384 C 524.60574,561.61956 521.90045,563.33436 519.61693,565.57724 C 519.52989,565.35005 519.47226,565.10901 519.35581,564.89565 L 515.31164,566.27156 z " />
    <path
       style="fill:#000000;fill-opacity:1;fill-rule:nonzero;stroke:none;stroke-width:1px;stroke-linecap:butt;stroke-linejoin:miter;stroke-opacity:1"
       id="path5882"
       d="M 524.72449,581.717 C 524.60675,579.51234 526.76621,578.13407 528.14008,576.5794 C 530.75533,574.01209 533.58285,571.67803 536.39658,569.33854 C 539.3665,566.88888 542.28385,564.37627 545.19868,561.8604 L 545.90298,566.11058 C 542.97332,568.63041 540.03733,571.14243 537.05312,573.59651 C 534.33762,575.89288 531.56235,578.14702 529.14253,580.76809 C 529.01791,580.62575 528.91595,580.4593 528.76867,580.34109 L 524.72449,581.717 z " />
    <path
       style="fill:#000000;fill-opacity:1;fill-rule:nonzero;stroke:none;stroke-width:1px;stroke-linecap:butt;stroke-linejoin:miter;stroke-opacity:1"
       id="path5884"
       d="M 542.62229,587.27716 C 541.08707,586.9206 544.44191,585.50765 545.10095,585.09575 C 548.58286,583.21114 552.07511,581.34993 555.5321,579.41799 C 558.00571,578.06058 560.39396,576.55618 562.79708,575.07834 L 563.10452,579.37643 C 560.65837,580.85455 558.22402,582.35376 555.71524,583.7233 C 552.27039,585.62563 548.7726,587.43 545.36404,589.39683 C 544.14048,590.21802 542.9449,591.44763 541.4761,591.42809 L 542.62229,587.27716 z " />
    <path
       style="fill:#000000;fill-opacity:1;fill-rule:nonzero;stroke:none;stroke-width:1px;stroke-linecap:butt;stroke-linejoin:miter;stroke-opacity:1"
       id="path5886"
       d="M 550.85853,595.59392 C 552.12757,595.63439 553.3958,595.54895 554.66246,595.52441 C 558.54031,595.20936 562.31592,594.25173 566.07668,593.30084 C 571.172,591.93099 576.02318,589.83395 580.86245,587.75386 C 581.2199,587.59369 581.57737,587.43353 581.93483,587.27336 L 581.87233,591.58218 C 581.5099,591.74226 581.14747,591.90234 580.78505,592.06241 C 575.82406,594.17453 570.82837,596.24639 565.596,597.5827 C 561.66186,598.5284 557.7097,599.49688 553.65408,599.71166 C 552.34048,599.72382 551.0265,599.76417 549.71234,599.74486 L 550.85853,595.59392 z " />
    <path
       style="fill:#000000;fill-opacity:1;fill-rule:nonzero;stroke:none;stroke-width:1px;stroke-linecap:butt;stroke-linejoin:miter;stroke-opacity:1"
       id="path5922"
       d="M 818.87598,399.9294 C 819.04945,399.12089 818.41246,398.12981 818.20066,397.30754 C 817.38067,395.12056 815.57562,394.26711 813.86446,392.99428 L 816.13453,389.34526 C 818.35317,390.93501 820.57462,392.21343 821.73089,394.88629 C 822.13893,396.0951 822.84972,397.23962 822.92015,398.55349 L 818.87598,399.9294 z " />
    <path
       id="path6809"
       d="M 456.15022,136.68281 C 395.17863,135.72059 333.35585,109.13865 273.09799,132.07505 C 210.757,158.52807 147.18971,189.16223 98.7298,237.99417 C 71.871268,273.40278 49.865348,314.60303 52.605117,360.59887 C 46.801697,405.82023 72.870834,445.27059 108.99992,469.09769 C 175.60357,524.91557 259.80542,564.1017 347.992,558.60633 C 399.18902,563.12934 447.88449,543.12197 491.74785,518.92768 C 555.75842,510.68391 518.76911,452.54899 498.75229,418.57511 C 472.08801,371.59091 467.12532,317.59434 454.00876,266.03048 C 446.02131,224.20073 446.05232,178.4934 465.2966,140.13714 C 463.49189,136.99755 459.4744,135.8887 456.15022,136.68281 z "
       style="opacity:1;color:#000000;fill:url(#radialGradient7690);fill-opacity:1;fill-rule:nonzero;stroke:none;stroke-width:10;stroke-linecap:square;stroke-linejoin:miter;marker:none;marker-start:none;marker-mid:none;marker-end:none;stroke-miterlimit:4;stroke-dasharray:none;stroke-dashoffset:0;stroke-opacity:1;visibility:visible;display:inline;overflow:visible" />
    <g
       id="g8600">
      <path
         d="M 699.37653,529.28641 C 699.14117,532.33299 698.80067,535.4082 698.5014,538.46059 C 697.76763,546.94933 695.97915,555.25515 693.47345,563.37616 C 691.31908,570.13006 688.14095,576.45573 684.76027,582.65031 L 680.49276,582.66875 C 683.86126,576.64563 687.04819,570.49793 689.24019,563.92133 C 691.79523,555.99947 693.62569,547.88294 694.37774,539.57016 C 694.67085,536.66528 694.88592,533.40017 695.33235,530.66232 L 699.37653,529.28641 z "
         id="path5799"
         style="fill:#000000;fill-opacity:1;fill-rule:nonzero;stroke:none;stroke-width:1px;stroke-linecap:butt;stroke-linejoin:miter;stroke-opacity:1" />
      <path
         d="M 594.74676,107.91891 C 594.32258,109.43982 593.36879,110.80147 592.61889,112.18961 C 590.68484,115.67518 588.53393,119.02248 586.33935,122.34365 C 583.68457,126.58848 580.28629,130.23172 576.95015,133.9179 L 576.00058,129.71666 C 577.99189,127.50652 578.87289,126.74319 582.07654,122.14079 C 584.27201,118.88657 586.44236,115.61537 588.35137,112.17798 C 589.0149,111.02451 589.93554,109.39539 590.51277,108.45829 L 594.74676,107.91891 z "
         id="path5894"
         style="fill:#000000;fill-opacity:1;fill-rule:nonzero;stroke:none;stroke-width:1px;stroke-linecap:butt;stroke-linejoin:miter;stroke-opacity:1" />
      <path
         d="M 608.52242,118.5604 C 614.3125,115.64404 608.20559,118.1825 609.29896,119.48664 C 607.31955,123.01874 605.36379,126.56416 603.38645,130.09737 C 601.42003,133.68311 599.23245,137.12817 597.00456,140.54997 L 592.74282,140.32525 C 594.98444,136.99109 597.18853,133.63624 599.1189,130.10296 C 601.10957,126.58593 603.05647,123.04449 605.03154,119.51854 C 606.39541,117.51412 606.93216,114.69287 609.66861,114.40947 L 608.52242,118.5604 z "
         id="path5896"
         style="fill:#000000;fill-opacity:1;fill-rule:nonzero;stroke:none;stroke-width:1px;stroke-linecap:butt;stroke-linejoin:miter;stroke-opacity:1" />
      <path
         d="M 623.67681,128.10165 C 627.1465,123.30557 623.99589,128.23245 623.32383,129.32588 C 620.93603,133.11704 618.10049,136.58783 615.28347,140.05554 C 611.95151,144.09228 608.39808,147.92526 604.75879,151.67671 L 603.83181,147.47032 C 606.42157,144.74149 610.86798,139.88045 611.04263,139.57411 C 613.84698,136.21434 616.64691,132.82765 619.05927,129.16455 C 620.19851,127.31699 621.31078,125.49792 622.76624,123.8916 L 623.67681,128.10165 z "
         id="path5898"
         style="fill:#000000;fill-opacity:1;fill-rule:nonzero;stroke:none;stroke-width:1px;stroke-linecap:butt;stroke-linejoin:miter;stroke-opacity:1" />
      <path
         d="M 647.7093,135.42749 C 647.39385,136.33302 646.25483,137.80999 645.59382,138.8351 C 642.70094,142.84407 639.07986,146.17034 635.44766,149.46666 C 632.91548,151.78955 630.16517,153.83832 627.43685,155.91325 L 626.91821,151.63592 C 629.56389,149.56889 632.2281,147.52371 634.68721,145.22636 C 638.15408,141.99276 641.20868,138.89753 641.33872,138.50627 C 641.97792,137.6209 642.9888,136.27327 643.44476,135.58913 L 647.7093,135.42749 z "
         id="path5900"
         style="fill:#000000;fill-opacity:1;fill-rule:nonzero;stroke:none;stroke-width:1px;stroke-linecap:butt;stroke-linejoin:miter;stroke-opacity:1" />
      <path
         d="M 670.88927,156.57993 C 674.98087,154.35389 671.31111,157.02736 669.12717,159.19767 C 665.6085,162.19638 661.67569,164.64021 657.7911,167.11633 C 654.73844,169.06288 651.60269,170.86875 648.47185,172.68204 L 648.26578,168.3778 C 651.35791,166.568 654.45197,164.76042 657.46632,162.81955 C 661.23473,160.38563 665.05264,157.98052 668.39228,154.95277 C 672.14249,151.44439 667.77768,154.39616 672.03545,152.42898 L 670.88927,156.57993 z "
         id="path5902"
         style="fill:#000000;fill-opacity:1;fill-rule:nonzero;stroke:none;stroke-width:1px;stroke-linecap:butt;stroke-linejoin:miter;stroke-opacity:1" />
      <path
         d="M 692.06817,172.02535 C 693.57632,172.38984 689.96967,173.8655 689.22515,174.30957 C 685.56882,176.41501 681.77418,178.24942 677.97543,180.0726 C 674.65899,181.66746 671.29116,183.14931 667.93549,184.65711 L 667.9924,180.34821 C 671.3319,178.84714 674.67596,177.3555 677.97426,175.76334 C 681.70024,173.94795 685.42437,172.12174 688.99588,170.00652 C 690.31622,169.1648 691.68087,167.92744 693.21437,167.87442 L 692.06817,172.02535 z "
         id="path5904"
         style="fill:#000000;fill-opacity:1;fill-rule:nonzero;stroke:none;stroke-width:1px;stroke-linecap:butt;stroke-linejoin:miter;stroke-opacity:1" />
      <path
         d="M 706.43616,184.71416 C 705.57671,187.562 703.51079,188.51489 701.07395,190.0983 C 697.2498,192.40007 693.24345,194.36727 689.26246,196.37196 C 689.25951,196.37036 687.03518,197.45894 687.0337,197.45967 L 686.99963,193.15054 C 687.73585,192.78803 688.47465,192.43084 689.20833,192.06304 C 693.11364,190.08207 697.04941,188.1396 700.76134,185.8006 C 704.99093,182.66042 702.04092,183.82024 702.39198,186.09007 L 706.43616,184.71416 z "
         id="path5906"
         style="fill:#000000;fill-opacity:1;fill-rule:nonzero;stroke:none;stroke-width:1px;stroke-linecap:butt;stroke-linejoin:miter;stroke-opacity:1" />
      <path
         d="M 722.5117,205.32878 C 721.112,205.86097 719.63856,206.14509 718.19593,206.53608 C 714.08733,207.34063 709.90882,207.64929 705.74431,207.99191 C 700.462,208.25334 695.2153,208.87783 689.98389,209.63389 L 690.74633,205.39395 C 696.04382,204.66088 701.35542,204.07175 706.69815,203.79166 C 710.74058,203.44019 714.80418,203.13924 718.77762,202.26703 C 719.54784,201.95379 721.76632,201.62002 721.60114,201.11875 L 722.5117,205.32878 z "
         id="path5908"
         style="fill:#000000;fill-opacity:1;fill-rule:nonzero;stroke:none;stroke-width:1px;stroke-linecap:butt;stroke-linejoin:miter;stroke-opacity:1" />
      <path
         d="M 749.72186,258.75736 C 748.4517,258.54981 747.23514,258.08005 745.99787,257.72584 C 742.17954,256.65681 738.24014,256.18437 734.32162,255.67018 C 731.15304,255.22829 727.96146,255.1221 724.77018,255.01911 L 725.96785,250.88301 C 729.24325,251.01688 732.51859,251.15743 735.77016,251.61675 C 739.82234,252.16782 743.89638,252.68043 747.83464,253.83612 C 748.78204,254.0767 750.00171,254.64392 750.86806,254.60643 L 749.72186,258.75736 z "
         id="path5910"
         style="fill:#000000;fill-opacity:1;fill-rule:nonzero;stroke:none;stroke-width:1px;stroke-linecap:butt;stroke-linejoin:miter;stroke-opacity:1" />
      <path
         d="M 750.89847,280.14333 C 749.81742,280.14333 748.73638,280.14333 747.65532,280.14333 C 743.88482,280.13058 740.11474,280.14501 736.34464,280.18726 C 735.64273,280.20047 734.941,280.22178 734.23917,280.23904 L 735.32234,276.07088 C 736.03019,276.05523 736.73795,276.03472 737.44592,276.02396 C 741.23102,275.99383 745.01616,275.98295 748.80151,275.9924 C 749.88256,275.9924 750.96362,275.9924 752.04466,275.9924 L 750.89847,280.14333 z "
         id="path5912"
         style="fill:#000000;fill-opacity:1;fill-rule:nonzero;stroke:none;stroke-width:1px;stroke-linecap:butt;stroke-linejoin:miter;stroke-opacity:1" />
      <path
         d="M 759.38343,295.20836 C 757.27947,298.9103 754.85959,298.47943 750.89486,299.18732 C 745.66277,300.21073 740.38282,300.90352 735.08864,301.49336 L 735.95584,297.274 C 741.19819,296.67155 746.42033,295.93841 751.60486,294.9381 C 758.29546,293.71344 755.77668,292.58988 755.33925,296.58427 L 759.38343,295.20836 z "
         id="path5914"
         style="fill:#000000;fill-opacity:1;fill-rule:nonzero;stroke:none;stroke-width:1px;stroke-linecap:butt;stroke-linejoin:miter;stroke-opacity:1" />
      <path
         d="M 757.9581,324.10339 C 757.25351,323.77807 755.69523,323.63519 754.54248,323.39668 C 750.06966,322.65373 745.55569,322.25597 741.03374,322.00509 C 739.28173,321.90963 737.52957,322.01728 735.77828,322.05108 L 736.8456,317.87876 C 738.66001,317.86357 740.47584,317.77027 742.28982,317.88671 C 746.92066,318.18305 751.54785,318.59703 756.12498,319.39464 C 756.75576,319.53982 760.37911,320.25867 759.1043,319.95246 L 757.9581,324.10339 z "
         id="path5916"
         style="fill:#000000;fill-opacity:1;fill-rule:nonzero;stroke:none;stroke-width:1px;stroke-linecap:butt;stroke-linejoin:miter;stroke-opacity:1" />
      <path
         d="M 760.30457,341.92505 C 759.0853,341.92505 757.86602,341.92505 756.64674,341.92505 C 751.7866,341.68609 746.93121,341.34796 742.07355,341.05922 C 739.60484,340.94869 737.14294,340.73467 734.6794,340.54799 L 736.03126,336.46063 C 738.47534,336.63821 740.91796,336.83871 743.36626,336.9524 C 748.17384,337.24117 752.9801,337.60518 757.79293,337.77411 C 759.01221,337.77411 760.2315,337.77411 761.45078,337.77411 L 760.30457,341.92505 z "
         id="path5918"
         style="fill:#000000;fill-opacity:1;fill-rule:nonzero;stroke:none;stroke-width:1px;stroke-linecap:butt;stroke-linejoin:miter;stroke-opacity:1" />
      <path
         d="M 755.33925,370.23346 C 756.93349,372.00532 754.69403,370.06317 754.01391,369.88367 C 751.19461,368.53761 748.1019,368.07711 745.06996,367.48741 C 740.76595,366.74439 736.40746,366.52195 732.05313,366.33619 L 733.29276,362.21272 C 737.75814,362.42498 742.22673,362.68681 746.63628,363.47888 C 749.93595,364.12849 753.28355,364.71547 756.3168,366.25568 C 757.43432,367.20385 759.01769,367.5127 759.38343,368.85755 L 755.33925,370.23346 z "
         id="path5920"
         style="fill:#000000;fill-opacity:1;fill-rule:nonzero;stroke:none;stroke-width:1px;stroke-linecap:butt;stroke-linejoin:miter;stroke-opacity:1" />
    </g>
    <path
       style="fill:#000000;fill-opacity:1;fill-rule:nonzero;stroke:none;stroke-width:1px;stroke-linecap:butt;stroke-linejoin:miter;stroke-opacity:1"
       id="path5888"
       d="M 576.46242,127.99752 C 578.86582,129.09835 582.72905,130.96135 585.54625,132.28631 C 595.373,136.84329 605.01763,141.77871 614.56866,146.89442 C 627.0681,153.61902 639.1145,161.15204 650.93132,169.02316 C 662.44962,176.71835 673.43575,185.17233 683.94106,194.21688 C 692.55679,201.67446 700.51359,209.85452 707.75873,218.66593 C 714.47205,226.86196 719.56115,236.16639 724.0627,245.73377 C 728.46965,255.28854 731.4742,265.39436 733.89259,275.62227 C 736.16583,285.62279 737.27186,295.83227 738.06418,306.04534 C 738.77212,315.0787 738.83147,324.14029 738.69813,333.19495 C 738.60848,340.78721 738.16977,348.36652 737.69835,355.94218 C 737.27252,362.51575 736.88324,369.0914 736.42756,375.66295 C 736.36531,376.54431 736.30355,377.4257 736.24155,378.30708 L 732.14153,379.50262 C 732.20349,378.62109 732.26473,377.73951 732.32739,376.85803 C 732.78707,370.29224 733.18297,363.72263 733.60306,357.15416 C 734.07845,349.61779 734.53706,342.07832 734.63898,334.52515 C 734.79013,325.548 734.76583,316.56288 734.08581,307.60462 C 733.33208,297.51979 732.27829,287.43654 730.0778,277.55393 C 727.74075,267.4935 724.82515,257.55067 720.52649,248.14608 C 716.14693,238.7643 711.19326,229.6349 704.63178,221.59849 C 697.49822,212.89826 689.64699,204.83418 681.15134,197.47794 C 670.7291,188.50493 659.82669,180.12201 648.39757,172.49069 C 636.64969,164.67071 624.67372,157.18667 612.24601,150.50955 C 602.73559,145.4203 593.13091,140.51299 583.34672,135.97911 C 580.0527,134.42848 576.64465,132.99888 573.5259,131.12439 L 576.46242,127.99752 z " />
    <path
       style="fill:#000000;fill-opacity:1;fill-rule:nonzero;stroke:none;stroke-width:1px;stroke-linecap:butt;stroke-linejoin:miter;stroke-opacity:1"
       id="path5890"
       d="M 581.45029,102.52837 C 583.45441,103.0827 585.35809,103.95072 587.27898,104.74209 C 592.40281,106.85655 597.36231,109.33875 602.31476,111.82688 C 608.94107,115.17932 615.41684,118.81794 621.86174,122.50954 C 628.43785,126.29719 634.97342,130.15314 641.44926,134.11281 C 647.32225,137.71881 653.1655,141.36925 658.90384,145.18983 C 664.17197,148.68508 669.1388,152.60195 674.06959,156.55836 C 678.91891,160.53317 683.74045,164.54284 688.55803,168.55677 C 693.52407,172.69488 698.28506,177.06832 703.00207,181.4903 C 707.91073,186.14862 712.73599,190.89643 717.52982,195.67488 C 722.23521,200.34631 726.70903,205.24139 731.05004,210.25647 C 735.23597,215.18292 738.81253,220.57458 742.14432,226.11129 C 745.64128,232.00686 747.8777,238.47849 749.84158,245.01931 C 751.71584,251.65731 752.91355,258.45811 754.06652,265.25309 C 755.15348,271.84395 756.28906,278.42652 757.43933,285.00637 C 758.54693,291.37543 759.55311,297.76183 760.47052,304.1614 C 761.37253,310.48954 761.90204,316.85999 762.34107,323.23489 C 762.79549,329.48575 762.81781,335.75157 762.76248,342.01482 C 762.70605,348.14269 762.46939,354.26447 762.10521,360.38067 C 761.87496,363.58557 761.61339,366.78812 761.36161,369.99134 L 757.25993,371.18109 C 757.50491,367.9811 757.75868,364.78184 758.00686,361.58206 C 758.39684,355.51323 758.64329,349.43773 758.70676,343.3556 C 758.77754,337.15782 758.78769,330.95638 758.35324,324.76937 C 757.93659,318.45682 757.43291,312.1481 756.55728,305.88054 C 755.65908,299.50966 754.66054,293.15377 753.56546,286.81415 C 752.41285,280.22451 751.27472,273.63222 750.17981,267.03252 C 749.06118,260.33338 747.89844,253.62886 746.0918,247.07666 C 744.22768,240.73569 742.11228,234.45399 738.75581,228.73087 C 735.52276,223.31795 732.04377,218.05088 727.96782,213.23695 C 723.67835,208.27242 719.25366,203.43 714.60023,198.80837 C 709.82723,194.04935 705.02203,189.32175 700.13489,184.68209 C 695.45371,180.2934 690.72976,175.95188 685.80065,171.84574 C 680.99813,167.84488 676.19222,163.84754 671.35791,159.88583 C 666.48296,155.97488 661.57223,152.10332 656.36185,148.6512 C 650.65328,144.85541 644.84021,141.22895 639.00061,137.64213 C 632.54523,133.69755 626.02969,129.85737 619.47557,126.08222 C 613.07037,122.41644 606.63403,118.80405 600.04752,115.47769 C 595.14703,113.01896 590.23743,110.57123 585.16604,108.4861 C 583.88578,107.97128 580.97982,106.68712 580.3041,106.67932 L 581.45029,102.52837 z " />
  </g>
</svg>
