<?xml version="1.0" encoding="UTF-8" standalone="no"?>
<!-- Created with Inkscape (http://www.inkscape.org/) -->
<svg
   xmlns:dc="http://purl.org/dc/elements/1.1/"
   xmlns:cc="http://web.resource.org/cc/"
   xmlns:rdf="http://www.w3.org/1999/02/22-rdf-syntax-ns#"
   xmlns:svg="http://www.w3.org/2000/svg"
   xmlns="http://www.w3.org/2000/svg"
   xmlns:xlink="http://www.w3.org/1999/xlink"
   xmlns:sodipodi="http://inkscape.sourceforge.net/DTD/sodipodi-0.dtd"
   xmlns:inkscape="http://www.inkscape.org/namespaces/inkscape"
   width="744.09448819"
   height="1052.3622047"
   id="svg2"
   sodipodi:version="0.32"
   inkscape:version="0.42"
   sodipodi:docbase="/home/segphault/Desktop"
   sodipodi:docname="elf-shaded.svg">
  <defs
     id="defs4">
    <linearGradient
       id="linearGradient2143">
      <stop
         style="stop-color:#117234;stop-opacity:1.0000000;"
         offset="0.0000000"
         id="stop2145" />
      <stop
         style="stop-color:#00ffe6;stop-opacity:1.0000000;"
         offset="1.0000000"
         id="stop2147" />
    </linearGradient>
    <linearGradient
       id="linearGradient2125">
      <stop
         style="stop-color:#fff5c6;stop-opacity:1;"
         offset="0"
         id="stop2127" />
      <stop
         style="stop-color:#b0aea1;stop-opacity:1.0000000;"
         offset="1.0000000"
         id="stop2129" />
    </linearGradient>
    <linearGradient
       id="linearGradient2105">
      <stop
         style="stop-color:#00669a;stop-opacity:1.0000000;"
         offset="0.0000000"
         id="stop2107" />
      <stop
         style="stop-color:#00a9ff;stop-opacity:1.0000000;"
         offset="1.0000000"
         id="stop2109" />
    </linearGradient>
    <linearGradient
       id="linearGradient2088">
      <stop
         style="stop-color:#8c581d;stop-opacity:1.0000000;"
         offset="0.0000000"
         id="stop2090" />
      <stop
         style="stop-color:#d49145;stop-opacity:1.0000000;"
         offset="1.0000000"
         id="stop2092" />
    </linearGradient>
    <linearGradient
       inkscape:collect="always"
       xlink:href="#linearGradient2088"
       id="linearGradient2094"
       x1="360.81506"
       y1="295.93472"
       x2="391.69916"
       y2="271.64902"
       gradientUnits="userSpaceOnUse" />
    <linearGradient
       inkscape:collect="always"
       xlink:href="#linearGradient2105"
       id="linearGradient2111"
       x1="396.91867"
       y1="378.57880"
       x2="421.86816"
       y2="365.72165"
       gradientUnits="userSpaceOnUse" />
    <linearGradient
       inkscape:collect="always"
       xlink:href="#linearGradient2125"
       id="linearGradient2141"
       x1="379.92175"
       y1="129.91049"
       x2="462.43338"
       y2="197.05333"
       gradientUnits="userSpaceOnUse" />
    <linearGradient
       inkscape:collect="always"
       xlink:href="#linearGradient2143"
       id="linearGradient2149"
       x1="333.23837"
       y1="14.077878"
       x2="693.60156"
       y2="119.75238"
       gradientUnits="userSpaceOnUse" />
    <linearGradient
       inkscape:collect="always"
       xlink:href="#linearGradient2143"
       id="linearGradient2151"
       x1="333.23837"
       y1="14.077878"
       x2="693.60156"
       y2="119.75238"
       gradientUnits="userSpaceOnUse" />
  </defs>
  <sodipodi:namedview
     id="base"
     pagecolor="#ffffff"
     bordercolor="#666666"
     borderopacity="1.0"
     inkscape:pageopacity="0.0"
     inkscape:pageshadow="2"
     inkscape:zoom="0.98994949"
     inkscape:cx="721.02592"
     inkscape:cy="826.53719"
     inkscape:document-units="px"
     inkscape:current-layer="layer6"
     inkscape:window-width="1280"
     inkscape:window-height="977"
     inkscape:window-x="401"
     inkscape:window-y="36" />
  <metadata
     id="metadata7">
    <rdf:RDF>
      <cc:Work
         rdf:about="">
        <dc:format>image/svg+xml</dc:format>
        <dc:type
           rdf:resource="http://purl.org/dc/dcmitype/StillImage" />
      </cc:Work>
    </rdf:RDF>
  </metadata>
  <g
     inkscape:groupmode="layer"
     id="layer14"
     inkscape:label="Buckler"
     style="display:none">
    <path
       style="fill:#000000;fill-opacity:1.0000000;fill-rule:nonzero;stroke:none;stroke-width:1.0000000px;stroke-linecap:butt;stroke-linejoin:miter;stroke-opacity:1.0000000"
       id="path8848"
       d="M 130.46441,209.76848 C 132.85746,210.22776 130.46326,210.26174 130.46165,210.95198 C 132.15184,209.70684 133.84203,208.46168 135.53221,207.21654 C 132.25334,209.42074 130.17032,213.17315 128.08252,216.56869 C 123.98225,223.64380 120.92576,231.35540 118.98413,239.39790 C 116.74506,248.89906 116.88526,258.73060 118.33782,268.34252 C 120.37800,280.79399 125.07408,292.49980 130.54082,303.64942 C 136.92268,316.39672 144.72880,328.28950 153.49852,339.30560 C 160.86056,348.55085 169.34741,356.81476 179.73483,361.99061 C 188.15216,366.08161 197.32974,367.29137 206.41505,365.56944 C 212.29298,366.13721 234.45667,350.35395 225.63927,356.81374 C 235.22506,349.56005 242.24189,339.41786 247.70924,328.48215 C 254.48489,314.71792 257.49542,299.46020 258.75485,284.10270 C 259.82918,269.00856 258.70319,253.81517 255.90102,238.99290 C 253.65886,227.22120 249.67679,215.92169 244.03676,205.52034 C 239.30379,196.57715 232.55072,189.47488 223.84042,185.03649 C 214.57076,180.65021 204.33544,179.59937 194.29167,179.86082 C 184.27624,180.16761 174.52857,182.81133 165.19011,186.52933 C 157.14160,189.79559 149.59958,194.24445 142.40428,199.24150 C 133.09989,206.52171 148.42998,194.08821 136.83930,203.67731 L 128.22316,202.80175 C 133.40264,198.31305 138.80995,194.13351 144.45431,190.32241 C 151.95039,185.39878 159.78296,181.02447 168.11564,177.90854 C 177.88548,174.30066 188.05905,171.88607 198.44713,171.83664 C 209.08751,171.82297 219.86782,173.23953 229.56025,178.17894 C 238.84744,183.20707 246.15921,190.94568 251.29839,200.58132 C 257.16583,211.37151 261.37142,223.07387 263.76106,235.28321 C 266.71403,250.47091 267.94360,266.04580 266.99023,281.53772 C 265.83710,297.40385 262.94148,313.19988 256.26428,327.57035 C 250.83343,339.08432 243.82726,349.86785 234.20584,357.88467 C 224.62035,365.12664 214.69605,372.16415 202.74626,373.87072 C 192.88136,375.16641 183.02717,373.47270 174.04951,368.87471 C 163.27618,363.21334 154.37007,354.57327 146.66793,344.85701 C 137.72621,333.58395 129.75258,321.43392 123.21194,308.42032 C 117.52748,296.88555 112.64616,284.78441 110.39901,271.92026 C 108.75553,261.79116 108.43151,251.42122 110.54066,241.32922 C 112.36539,232.85105 115.37719,224.72045 119.44648,217.16898 C 121.65761,213.26941 123.98378,209.40963 126.90388,206.05663 C 132.35483,202.03528 131.15179,201.37608 134.70624,201.69136 L 130.46441,209.76848 z " />
  </g>
  <g
     inkscape:groupmode="layer"
     id="layer5"
     inkscape:label="Right Shoe"
     style="display:inline">
    <path
       style="fill:#000000;fill-opacity:1;fill-rule:nonzero;stroke:none;stroke-width:1px;stroke-linecap:butt;stroke-linejoin:miter;stroke-opacity:1"
       id="path1574"
       d="M 278.33866,447.04967 C 277.60713,450.13192 274.31508,452.07035 272.09575,454.31404 C 265.22581,461.54866 258.5323,468.96836 251.89957,476.44743 C 247.57128,481.20083 243.48482,486.26529 239.67719,491.44606 C 239.66572,488.54913 246.55599,489.49814 249.76834,489.20723 C 260.58358,488.23206 271.28127,486.26049 281.97893,484.37182 C 293.24487,482.4515 304.44666,480.14705 315.6517,477.868 C 322.05465,476.54416 328.438,475.11257 334.82832,473.72074 L 329.47928,486.63258 C 323.07057,488.0046 316.67851,489.46618 310.24728,490.71739 C 299.00414,492.99786 287.74974,495.21478 276.44675,497.13906 C 265.59834,499.05681 254.72503,500.89647 243.74857,501.76535 C 237.26104,502.23955 229.23006,503.4835 226.87264,495.3273 C 227.70557,487.30496 233.7589,481.85728 238.65549,476.04332 C 245.27777,468.48616 251.98387,461.01136 258.82504,453.67688 C 260.36475,451.98952 263.88848,446.64838 265.07224,448.54652 L 278.33866,447.04967 z " />
  </g>
  <g
     inkscape:groupmode="layer"
     id="layer12"
     inkscape:label="Hair"
     style="display:inline">
    <path
       style="fill:url(#linearGradient2149);fill-opacity:1.0;fill-rule:evenodd;stroke:none;stroke-width:1px;stroke-linecap:butt;stroke-linejoin:miter;stroke-opacity:1"
       d="M 323.34703,101.60452 C 342.30437,80.84235 351.19061,76.123678 342.89678,39.31802 C 334.60295,2.512365 390.88253,70.461268 400.6574,67.944642 C 410.43227,65.428015 408.65503,67.315485 412.50573,59.765607 C 416.35644,52.215729 419.91094,35.228503 419.91094,35.228503 C 419.91094,35.228503 426.42752,59.451029 429.38961,65.113437 C 432.35169,70.775846 437.38722,82.10066 451.01281,75.809102 C 464.63839,69.517533 464.9346,67.630063 485.96539,60.080186 C 506.99618,52.530307 570.97717,40.576333 580.75204,44.980429 C 590.52691,49.384524 593.19279,48.755368 590.23071,50.642838 C 587.26862,52.530307 582.23308,57.878138 552.31604,67.944642 C 522.39901,78.01115 516.17864,80.2132 520.32555,80.84235 C 524.47247,81.47151 577.78996,85.8756 593.19279,88.07765 C 608.59562,90.2797 623.40604,94.6838 622.81362,100.66078 C 622.2212,106.63777 626.66433,120.79378 578.08617,130.8603 C 529.508,140.9268 536.02459,137.78102 536.02459,137.78102 C 536.02459,137.78102 531.28526,139.98306 548.16913,149.10583 C 565.05301,158.2286 625.7757,197.23631 629.62641,202.26955 C 633.47712,207.30281 638.80887,209.50486 633.47712,211.07774 C 628.14537,212.65064 505.81135,184.65317 476.19052,162.63269 C 446.56968,140.61221 469.67394,128.97282 388.51286,118.90632 C 307.35179,108.83982 322.75462,102.23368 323.34703,101.60452 z "
       id="path6942" />
    <path
       style="fill:#000000;fill-opacity:1.0000000;fill-rule:nonzero;stroke:none;stroke-width:1.0000000px;stroke-linecap:butt;stroke-linejoin:miter;stroke-opacity:1.0000000"
       id="path1456"
       d="M 329.35448,93.161032 C 330.46454,92.487242 341.66632,84.300152 326.03449,95.936892 C 333.45689,90.553652 338.87418,82.781102 342.01016,73.881374 C 346.07117,60.923601 342.26035,47.816167 336.11407,36.411986 C 330.53209,33.222346 321.93402,5.2199157 339.15530,19.775666 C 348.69446,27.955516 358.88444,35.210236 369.08399,42.414416 C 379.81313,49.600575 390.13963,57.537556 401.20274,64.152490 C 408.57176,65.131630 411.68466,63.681878 410.51829,64.496107 C 399.56240,72.144382 406.26647,67.344359 408.76591,61.597084 C 412.15079,53.103786 414.03747,44.067506 415.87985,35.088796 C 422.88810,21.455176 426.10381,26.299286 426.88234,37.060516 C 427.64216,45.987217 429.41721,54.791920 432.18721,63.252804 C 434.05730,68.329053 436.26601,73.895882 441.64354,75.269660 C 450.30301,75.288087 458.56798,71.024421 466.46492,67.645017 C 482.70551,60.126337 499.63384,54.781588 516.97265,51.038212 C 536.76189,46.880323 556.95191,45.338676 577.10019,45.274086 C 590.62368,46.442962 605.92096,44.308846 585.82121,58.264232 C 570.95829,64.244853 555.70621,69.062458 540.55824,74.150782 C 533.31467,74.492504 506.19321,90.455182 525.23362,79.571475 C 540.08286,84.204872 555.97289,84.293102 571.34428,85.352112 C 586.72738,86.777332 602.69426,86.844402 617.39593,92.449522 C 625.32164,95.529952 630.22205,101.21397 625.86216,109.73061 C 616.56789,121.95702 602.22090,128.17772 588.32326,132.13024 C 573.61323,136.18824 558.43665,137.53109 543.37980,139.30269 C 537.31485,138.83104 525.69587,147.23429 539.53509,137.43046 C 540.20196,136.95805 539.45753,139.26575 539.93614,139.94868 C 541.17916,141.72239 542.79859,143.10389 544.37123,144.52571 C 560.32138,157.02830 577.76041,167.27041 594.92952,177.74790 C 608.60357,186.66896 623.33355,193.94745 636.43472,203.85072 C 648.18515,216.98708 622.47473,214.66880 615.63032,213.12544 C 593.87530,208.11938 572.35660,202.00492 551.07163,195.09773 C 529.16205,187.96628 507.50540,180.00504 485.88163,171.96070 C 479.20350,169.53526 472.58842,166.91912 465.92356,164.45416 L 472.28944,158.61512 C 478.07890,162.06143 484.04886,165.14095 490.11157,168.01086 C 510.61902,177.81805 531.70732,186.26208 553.30981,192.93531 C 575.16195,199.69411 597.30406,205.89496 619.95292,208.71976 C 624.63938,209.19095 629.50785,209.81646 634.20408,209.07375 C 635.23192,208.91120 638.00617,207.43663 637.18901,208.11842 C 626.74163,216.83514 633.50040,214.38003 629.87408,209.22522 C 618.90852,197.40212 604.82780,189.42270 591.81076,180.49596 C 574.45484,169.49205 556.72527,159.18845 538.77304,149.32516 C 523.66266,140.46230 536.48954,133.95025 548.35667,133.77090 C 563.15203,133.07714 578.01053,131.56747 592.32264,127.33935 C 610.09056,121.75801 611.03631,120.78319 617.88763,113.16539 C 621.89047,106.08670 618.13455,101.20149 611.55859,97.882372 C 597.99614,91.202402 582.58071,90.553282 567.95323,88.915092 C 551.44541,87.609632 534.87010,87.514292 518.38972,86.028762 C 507.53931,81.323054 539.30067,69.535326 544.09914,69.871208 C 560.04934,64.827233 576.22165,59.689776 591.01663,51.484532 C 595.30194,48.489184 591.48803,51.123212 586.84583,54.732385 C 586.25213,55.193961 587.29404,52.718208 586.62194,52.400258 C 584.18261,51.246306 581.40683,50.776935 578.78714,50.379492 C 576.29994,50.002158 575.50012,49.959183 572.94285,49.707682 C 553.20422,48.316437 533.34524,50.388582 513.98442,54.526811 C 496.10008,58.656382 478.74259,64.777916 462.16385,73.050120 C 453.57000,77.070010 444.39822,82.483502 434.78709,82.078632 C 428.83715,80.017742 426.72306,73.996453 424.92976,68.043650 C 422.50629,59.371554 420.89899,50.494122 419.43430,41.588506 C 417.59097,31.187226 415.90750,36.282136 426.07870,28.439966 C 426.91752,27.793216 423.09054,30.917536 424.12359,31.008166 C 420.90746,39.816986 419.24630,49.164032 416.23179,58.052404 C 412.92575,67.703451 403.94457,77.972057 394.90777,69.602083 C 384.86750,61.663859 374.65679,53.975603 364.25894,46.572592 C 353.86250,39.221076 343.37928,31.810096 332.11812,26.034576 C 327.44911,24.616736 338.07295,10.739806 342.11075,32.165756 C 347.71953,44.116896 352.30849,57.160337 348.73787,70.593718 C 346.13263,79.201443 341.56565,87.016942 334.99132,92.840612 C 331.84688,95.192912 331.27628,96.986472 326.90864,97.774322 L 329.35448,93.161032 z "
       sodipodi:nodetypes="cccccccsccccccccccccccccsscccccccccccsscccccccccccsssccccccscccccccccc" />
  </g>
  <g
     inkscape:groupmode="layer"
     id="layer2"
     inkscape:label="Outline"
     style="display:inline">
    <path
       style="fill:#000000;fill-opacity:1;fill-rule:nonzero;stroke:none;stroke-width:1px;stroke-linecap:butt;stroke-linejoin:miter;stroke-opacity:1"
       id="path1522"
       d="M 188.63711,230.22701 C 189.07476,231.47038 185.45727,233.06128 177.12723,240.27722 C 172.85198,244.06385 168.74888,248.06524 165.12139,252.54949 C 162.58123,255.77953 162.03254,257.97247 163.38034,261.62424 C 166.37595,265.52468 170.51702,268.04786 174.58278,270.49926 C 178.86049,272.79322 182.91204,275.47457 186.76918,278.48389 C 189.89897,280.95644 192.1979,284.25337 194.46044,287.56953 C 195.44887,289.04627 196.64019,290.33898 197.78163,291.67541 L 187.28665,300.37018 C 186.02904,298.86941 184.72132,297.41159 183.61989,295.7701 C 181.6029,292.81673 179.58142,289.87341 176.72496,287.75264 C 172.9691,284.92857 169.00966,282.47218 164.92985,280.20869 C 160.32879,277.31508 155.71292,274.2655 152.4405,269.6667 C 149.79992,264.80304 149.22662,260.4757 152.10868,255.46079 C 155.38863,250.3421 159.49287,246.02858 163.94087,242.02302 C 170.97718,235.50881 178.52625,229.64672 186.36071,224.2587 C 188.18865,223.1565 189.86265,221.68272 191.92572,222.33667 L 188.63711,230.22701 z "
       sodipodi:nodetypes="cccccccccccccccccc" />
    <path
       style="fill:#000000;fill-opacity:1;fill-rule:nonzero;stroke:none;stroke-width:1px;stroke-linecap:butt;stroke-linejoin:miter;stroke-opacity:1"
       id="path1558"
       d="M 597.24282,269.36087 C 594.47348,264.93746 598.78327,270.12838 599.63539,271.06478 C 603.02767,274.59664 606.1293,278.40726 609.17269,282.27469 C 612.61715,286.62406 615.60113,291.32727 618.34746,296.19337 C 621.37852,301.60299 621.77996,306.4482 618.8753,311.86239 C 611.09286,319.91417 602.46896,322.47705 592.53445,325.44308 C 586.36786,327.23884 580.18498,328.98303 574.19043,331.35394 C 569.57004,333.15313 565.32115,335.68152 561.39965,338.80712 C 575.28954,328.17403 568.2409,333.5798 565.15854,336.19751 L 551.87285,335.44992 C 555.65464,331.32438 559.27561,327.93358 564.3464,325.03336 C 568.90486,322.21202 573.67365,319.81231 578.70425,318.07772 C 584.89151,315.97019 591.18542,314.2453 597.42708,312.33224 C 603.88015,310.29084 620.51979,301.65113 605.60385,310.90948 C 609.03889,309.03076 609.09712,307.5631 607.12627,303.77423 C 604.58122,299.22429 601.79297,294.841 598.56964,290.79209 C 595.61571,287.05518 592.5867,283.39526 589.30313,279.97689 C 587.5406,278.06694 585.5807,276.38127 584.59436,273.86848 L 597.24282,269.36087 z " />
    <path
       style="fill:#000000;fill-opacity:1;fill-rule:nonzero;stroke:none;stroke-width:1px;stroke-linecap:butt;stroke-linejoin:miter;stroke-opacity:1"
       id="path1562"
       d="M 577.42184,277.8735 C 579.09412,279.01709 580.53929,280.52845 582.06285,281.90009 C 584.75361,284.36218 587.06179,287.21547 589.1868,290.21916 C 591.80028,294.55765 592.04273,298.67446 589.57669,303.021 C 584.02793,308.51472 579.83691,310.19173 573.34326,312.0375 L 578.19209,298.88357 C 582.48139,297.23895 579.31867,301.26982 578.22576,298.24011 C 576.38153,295.76244 574.46351,293.33827 572.13842,291.33426 C 571.26021,290.53528 568.15031,287.78935 570.92317,290.24797 L 577.42184,277.8735 z "
       sodipodi:nodetypes="cccccccccc" />
    <path
       style="fill:#000000;fill-opacity:1;fill-rule:nonzero;stroke:none;stroke-width:1px;stroke-linecap:butt;stroke-linejoin:miter;stroke-opacity:1"
       id="path1570"
       d="M 211.01538,221.31374 C 211.49087,224.12744 209.7234,226.05466 208.29743,228.34544 C 205.57106,232.67482 202.72526,236.91048 200.20739,241.38079 C 198.10089,245.04721 196.73801,249.03422 195.7059,253.14369 C 196.14565,256.44237 198.67644,257.48404 201.36177,258.83383 C 201.91982,259.10176 202.5056,259.29157 203.07751,259.52044 L 194.64574,270.44321 C 194.64085,270.44086 192.59533,269.51912 192.60587,269.46692 C 188.04796,266.72943 184.11422,263.58085 183.12946,257.77098 C 183.08064,252.38155 184.59774,247.46178 186.9668,242.67347 C 189.31665,237.90474 192.015,233.38451 195.00532,229.03478 C 195.65457,227.99024 197.84461,222.91651 198.36691,225.82136 L 211.01538,221.31374 z " />
  </g>
  <g
     inkscape:groupmode="layer"
     id="layer4"
     inkscape:label="Right Pant Leg"
     style="display:inline">
    <path
       style="fill:url(#linearGradient2111);fill-opacity:1.0;fill-rule:evenodd;stroke:none;stroke-width:1px;stroke-linecap:butt;stroke-linejoin:miter;stroke-opacity:1"
       d="M 396.25000 325.71875 C 371.15330 325.51914 340.89862 331.98721 340.37500 330.87500 C 285.91777 377.14263 232.28404 429.63882 259.09375 443.87500 C 285.90346 458.11118 325.28264 486.60160 338.68750 478.59375 C 352.09235 470.58588 354.61008 472.34988 361.31250 462.56250 C 368.01492 452.77511 384.93750 419.28125 384.93750 419.28125 C 384.93750 419.28124 398.75819 422.25580 412.87500 420.00000 C 413.42271 422.89686 413.81047 425.69770 414.00000 428.31250 C 414.59309 425.78565 415.28337 423.28806 415.78125 420.75000 C 416.61906 422.52952 415.65385 452.14119 414.03125 428.56250 C 414.02584 428.48394 414.00572 428.39141 414.00000 428.31250 C 404.61306 468.30567 385.59924 505.54263 425.00000 495.50000 C 466.89018 484.82285 507.92244 478.58935 532.21875 490.15625 C 556.51508 501.72315 528.87361 460.80826 515.46875 440.34375 C 503.81182 422.54770 456.11417 369.14584 433.93750 349.65625 C 432.25096 345.39810 430.58176 341.14724 428.31250 336.37500 C 424.49912 328.35550 411.30802 325.83852 396.25000 325.71875 z "
       id="path1666" />
    <path
       style="fill:#000000;fill-opacity:1;fill-rule:nonzero;stroke:none;stroke-width:1px;stroke-linecap:butt;stroke-linejoin:miter;stroke-opacity:1"
       d="M 348.01636,328.34936 C 341.22459,335.32737 332.82998,340.27339 325.60329,346.73054 C 305.19102,364.15418 285.6346,383.0663 269.48702,405.05417 C 264.51206,412.52462 257.57948,420.47837 259.03691,430.37375 C 259.98861,435.21699 266.84352,436.75827 268.59753,439.15805 C 265.88965,442.60693 263.18176,446.05581 260.47387,449.5047 C 253.6883,446.31597 246.60048,440.63713 246.16485,432.09557 C 244.95621,420.44742 252.57704,410.86421 258.57117,402.02993 C 274.36478,380.59278 293.33001,362.01368 313.09278,344.78285 C 320.16714,338.81974 327.49957,332.8823 334.9953,327.7214 C 339.33565,327.93072 343.67601,328.14004 348.01636,328.34936 z "
       id="path1588" />
    <path
       style="fill:#000000;fill-opacity:1;fill-rule:nonzero;stroke:none;stroke-width:1px;stroke-linecap:butt;stroke-linejoin:miter;stroke-opacity:1;display:inline"
       id="path1389"
       d="M 266.0769,434.76522 C 268.12555,435.93784 270.42066,436.83339 272.58591,437.81856 C 282.74515,442.9932 292.54237,448.93311 302.36972,454.77613 C 316.58803,462.32277 330.78356,474.43528 347.38338,472.62001 C 346.36382,475.16676 356.48568,467.2568 354.32849,468.80916 C 331.01951,485.58279 354.06743,462.80103 362.22512,445.83566 C 365.4112,439.20604 368.36964,432.45923 371.30839,425.70364 L 386.30105,417.11298 C 383.08708,423.97827 379.87047,430.84231 376.58361,437.66872 C 366.86614,457.8472 356.78622,478.85936 334.0069,485.3176 C 317.46706,484.99728 304.16067,472.13039 289.3518,465.5872 C 278.81711,460.1768 268.15227,454.83931 256.93193,451.22603 C 254.73095,450.62775 251.61492,449.46402 249.6737,449.93533 L 266.0769,434.76522 z " />
    <path
       style="fill:#000000;fill-opacity:1;fill-rule:nonzero;stroke:none;stroke-width:1px;stroke-linecap:butt;stroke-linejoin:miter;stroke-opacity:1;display:inline"
       id="path1391"
       d="M 389.64657,411.22583 C 391.89646,411.79997 394.22327,411.99592 396.52007,412.27672 C 402.82664,413.02618 409.14223,413.63277 415.43197,414.53249 C 417.70428,414.81401 415.72508,417.42815 417.94955,417.96436 L 406.77559,429.41803 C 404.64042,428.90832 402.51903,428.32544 400.34072,428.04253 C 393.97204,427.14971 387.57436,426.53771 381.15332,426.25811 C 378.52137,426.18769 375.8528,425.93903 373.24337,426.39594 L 389.64657,411.22583 z "
       sodipodi:nodetypes="ccccccccc" />
  </g>
  <g
     inkscape:groupmode="layer"
     id="layer15"
     inkscape:label="Steed"
     style="display:none">
    <path
       style="fill:#df9152;fill-opacity:1.0000000;fill-rule:evenodd;stroke:none;stroke-width:1.0000000px;stroke-linecap:butt;stroke-linejoin:miter;stroke-opacity:1.0000000;display:inline"
       d="M 84.603147,390.07277 C 82.396511,385.75219 81.746052,372.67939 78.678981,366.16482 C 73.859864,355.92886 83.595731,345.65498 86.972813,338.48194 C 90.970215,329.99133 100.93339,326.91089 109.48464,324.64050 C 115.99053,322.91316 121.67130,320.86556 128.44197,320.86556 C 134.80295,320.86556 142.55820,326.47393 146.21447,328.41544 C 153.29143,332.17336 158.11548,332.30226 161.61730,339.74025 C 165.49357,347.97358 166.47670,352.01299 169.91113,361.13158 C 172.52826,368.08017 173.71813,374.38510 175.83530,380.00627 C 177.41488,384.20012 187.98598,386.86538 191.23813,387.55615 C 202.07422,389.85778 205.17420,386.89667 209.01063,378.74796 C 212.12408,372.13489 218.31429,367.60899 222.04380,363.64820 C 225.88552,359.56823 234.71727,358.61495 239.81630,358.61495 C 248.93955,358.61495 258.34644,358.02089 267.06746,359.87327 C 276.90870,361.96357 278.92075,364.91178 284.83995,371.19808 C 288.64045,375.23428 289.28175,385.03387 290.76412,391.33109 C 292.69081,399.51582 305.29779,397.05664 310.90628,392.58940 C 315.13523,389.22100 327.89915,391.33109 333.41812,391.33109 C 343.68667,391.33109 353.95523,391.33109 364.22378,391.33109 C 372.12267,391.33109 380.02156,391.33109 387.92045,391.33109 C 395.16703,391.33109 402.64743,390.83707 409.24744,392.58940 C 416.49679,394.51414 427.63359,396.36434 434.12893,396.36434 C 441.36693,396.36434 448.91072,395.88487 455.45593,397.62265 C 462.75490,399.56056 474.31200,398.88097 481.52226,398.88097 C 489.80585,398.88097 501.70971,401.42164 508.77342,405.17253 C 515.36950,408.67510 523.50189,407.33106 531.28526,411.46410 C 542.76370,417.55925 557.44254,417.85225 565.64542,426.56385 C 569.66748,430.83535 582.26961,434.13313 586.97242,436.63035 C 592.61332,439.62573 594.34285,441.66361 602.37525,441.66361 C 610.67131,441.66361 613.82861,440.82476 617.77807,436.63035 C 622.41328,431.70769 626.72337,425.62117 627.25675,422.78892 C 628.85352,414.30990 642.48616,416.58944 649.76857,412.72241 C 659.25760,407.68365 667.04049,404.80919 675.83490,400.13928 C 687.31840,394.04145 687.68324,394.87353 687.68324,408.94747 C 687.68324,416.91059 690.05290,421.46862 690.05290,430.33879 C 690.05290,439.88467 694.19632,444.18765 690.05290,452.98842 C 687.12995,459.19689 681.01256,463.45134 677.01974,465.57156 C 673.51458,467.43283 666.27468,479.94792 663.98657,483.18794 C 657.22605,492.76100 651.20357,498.02201 642.65957,507.09588 C 641.47474,508.35420 640.28991,509.61251 639.10508,510.87083 C 637.39748,512.68432 652.82744,521.93245 655.69274,523.45395 C 664.77742,528.27800 673.80953,532.83205 675.83490,543.58697 C 677.91625,554.63911 687.21428,566.76108 690.05290,578.81973 C 692.86916,590.78341 694.79224,599.80973 694.79224,612.79418 C 694.79224,624.39647 695.10731,635.41710 688.86807,644.25201 C 682.15100,653.76352 676.99818,663.14388 667.54107,670.67658 C 654.42143,681.12655 646.75275,691.72456 636.73541,705.90934 C 629.68598,715.89149 622.90942,722.60421 611.85391,727.30066 C 603.53280,730.83553 599.25013,732.33392 589.34208,732.33392 C 576.00066,732.33392 578.73113,711.05421 573.93925,700.87609 C 573.14936,699.19834 572.35947,697.52059 571.56959,695.84284 C 568.19925,688.68411 564.65498,679.07188 558.53642,692.06790 C 553.39683,702.98457 550.09897,710.42783 543.13358,715.97585 C 536.20124,721.49755 518.61931,718.49247 509.95826,718.49247 C 502.46740,718.49247 499.23883,699.32075 498.10993,693.32622 C 495.46290,679.27025 491.05813,674.45151 479.15260,674.45151 C 463.36203,674.45151 463.40323,685.62212 459.01043,699.61778 C 455.12870,711.98516 463.22382,717.02392 451.90143,726.04235 C 439.46216,735.95039 415.06948,739.88380 399.76877,739.88380 C 391.08000,739.88380 382.39122,739.88380 373.70245,739.88380 C 360.77835,739.88380 349.23993,731.96552 344.08161,721.00910 C 342.89678,718.49247 341.71195,715.97585 340.52712,713.45922 C 337.90184,707.88306 339.34228,697.52259 339.34228,690.80958 C 339.34228,684.52505 313.77893,695.30867 312.09112,697.10115 C 304.00684,705.68679 300.31720,716.86031 291.94896,723.52573 C 286.39763,727.94743 265.74683,724.75519 259.95846,723.52573 C 250.42718,721.50125 242.99973,716.40797 235.07696,712.20091 C 233.49719,711.36204 231.91741,710.52315 230.33763,709.68428 C 221.70316,705.09931 214.60118,695.68393 212.56513,687.03465 C 210.03025,676.26629 222.00916,663.59517 226.78313,656.83513 C 235.90114,643.92382 241.50494,626.34166 249.29496,615.31081 C 256.21662,605.50958 212.54020,605.24431 207.82580,605.24431 C 196.27639,605.24431 183.08563,621.57235 171.09597,624.11900 C 157.62882,626.97947 139.91746,624.29146 127.25714,621.60237 C 116.99542,619.42274 108.11107,612.74407 98.821146,610.27755 C 88.018043,607.40928 79.587225,597.40068 71.569983,588.88623 C 64.635464,581.52165 57.429501,570.50548 56.167151,562.46166 C 55.172396,556.12297 46.154134,541.99143 41.949153,536.03709 C 36.366237,528.13155 34.840154,512.93841 34.840154,502.06264 C 34.840154,492.83501 34.840154,483.60738 34.840154,474.37975 C 34.840154,465.69733 36.495694,457.28040 38.394654,449.21349 C 38.789598,447.53574 39.184543,445.85798 39.579487,444.18023 C 42.450384,431.98446 52.073427,425.84055 57.351985,416.49735 C 61.179053,409.72333 75.912854,400.97896 82.233481,397.62265 C 84.467624,396.43630 83.813258,392.58940 84.603147,390.07277 z "
       id="path10774" />
    <path
       style="fill:#000000;fill-opacity:1.0000000;fill-rule:nonzero;stroke:none;stroke-width:1.0000000px;stroke-linecap:butt;stroke-linejoin:miter;stroke-opacity:1.0000000;display:inline"
       id="path9806"
       d="M 135.80300,381.46204 C 133.97381,380.16368 131.55691,380.61020 129.20631,380.54408 C 119.25789,381.32337 109.89415,385.09301 100.76805,389.12913 C 59.686981,416.47608 104.66498,379.16729 77.463315,405.43566 C 65.045891,417.92919 57.008309,433.60791 51.414589,450.56901 C 45.603038,469.63420 46.099815,489.39321 49.297107,508.88621 C 53.440742,530.58493 63.184670,549.97772 75.067842,567.91438 C 86.715135,585.39756 102.41009,597.82059 120.60522,606.55318 C 138.35288,614.70841 157.29076,615.98211 176.32696,614.81712 C 194.85494,613.53016 212.53260,607.80102 229.67525,600.56326 C 244.72210,595.44722 280.38578,568.60178 258.66226,584.55682 C 266.54228,578.57325 273.55456,571.48199 280.31200,564.14834 L 304.81587,564.82267 C 298.01888,572.85514 290.95152,580.63573 283.00982,587.41875 C 263.63811,602.14412 244.33291,616.69435 221.62770,625.11927 C 203.32503,632.05251 184.46137,637.14726 164.93041,637.81336 C 144.21132,638.24891 123.73078,635.69713 104.71764,626.31242 C 85.034129,616.10707 67.909847,602.12904 55.139968,582.96981 C 42.334198,563.61363 31.782025,542.72639 26.939648,519.42768 C 23.031146,498.15332 21.941756,476.50246 27.350596,455.34858 C 32.624173,436.58760 40.361238,418.90343 52.992411,404.35154 C 68.567625,386.94287 87.574764,373.05471 108.75530,364.51642 C 119.35239,360.56381 130.27878,357.07800 141.63950,358.01629 C 142.86474,358.20462 149.93036,359.90756 147.80072,358.61650 L 135.80300,381.46204 z " />
    <path
       style="fill:#000000;fill-opacity:1.0000000;fill-rule:nonzero;stroke:none;stroke-width:1.0000000px;stroke-linecap:butt;stroke-linejoin:miter;stroke-opacity:1.0000000;display:inline"
       id="path9812"
       d="M 266.37030,600.20181 C 266.39680,597.34737 262.85376,604.84362 261.82536,606.83822 C 256.67116,617.49350 251.56715,628.17578 246.68159,638.97320 C 241.23187,650.63915 236.49321,662.62243 233.26282,675.18273 C 230.83471,684.31727 233.29603,689.44882 239.14231,695.79521 C 247.68180,702.58769 257.91649,705.76769 268.23414,707.96854 C 279.22778,710.50066 289.47845,709.30184 299.63276,704.54033 C 313.61732,688.18314 282.64048,726.17919 309.06859,692.92262 L 333.59909,692.74011 C 322.40544,708.06550 309.51743,722.78101 291.61058,729.17283 C 279.25393,732.72762 266.71620,732.55174 254.24747,729.36855 C 242.15607,726.17792 230.32309,721.65872 220.68662,712.99223 C 212.42213,703.89038 207.29980,694.31073 209.38015,681.19213 C 211.96789,667.51172 216.48759,654.50247 222.32679,641.97928 C 227.18020,631.05764 232.20209,620.22743 237.38015,609.47503 C 238.92782,606.21930 241.87013,600.47093 241.76478,599.01519 L 266.37030,600.20181 z " />
    <path
       style="fill:#000000;fill-opacity:1.0000000;fill-rule:nonzero;stroke:none;stroke-width:1.0000000px;stroke-linecap:butt;stroke-linejoin:miter;stroke-opacity:1.0000000;display:inline"
       id="path9814"
       d="M 354.56031,627.48976 C 355.32740,630.49369 353.95393,632.73975 352.90295,635.57533 C 350.77592,642.54433 350.35403,649.84496 349.96479,657.10384 C 349.40552,667.83386 349.73776,678.54276 350.90287,689.20406 C 352.01971,699.09994 356.47333,706.53848 362.92876,713.41485 C 371.51102,720.95681 381.60102,726.00667 392.28274,729.13943 C 404.96486,732.58871 417.28996,730.06215 429.33495,725.43892 C 460.26836,701.34417 417.38546,746.02281 446.58459,710.88215 C 455.38410,699.35632 461.59349,686.02405 466.14309,672.06967 C 468.65088,663.84004 470.03100,655.31421 471.18220,646.77417 L 494.84029,639.89401 C 493.82786,649.11226 492.55414,658.30878 490.24164,667.27797 C 485.98112,682.68523 479.84679,697.38553 471.09207,710.55655 C 458.40668,728.61464 441.24863,743.18762 420.71287,749.81168 C 406.39443,753.77320 391.92519,754.88211 377.60541,750.00739 C 365.48437,745.63180 353.87576,739.53788 344.28896,730.37175 C 336.13226,721.65924 330.32044,711.64905 328.30151,699.37237 C 326.69085,687.96960 326.04516,676.49753 326.55028,664.95739 C 326.82685,656.84858 327.05846,648.68948 328.79636,640.75042 C 329.12320,639.39875 330.31164,630.85287 331.20931,635.81151 L 354.56031,627.48976 z " />
    <path
       style="fill:#000000;fill-opacity:1.0000000;fill-rule:nonzero;stroke:none;stroke-width:1.0000000px;stroke-linecap:butt;stroke-linejoin:miter;stroke-opacity:1.0000000;display:inline"
       id="path9818"
       d="M 595.95506,452.48852 C 595.18189,449.29784 596.56249,446.78066 597.45745,443.86004 C 602.42055,433.85711 609.36672,425.25433 616.59365,417.03653 C 630.46334,402.57061 645.27505,387.28190 663.94759,380.40393 C 676.75877,377.10418 687.65544,382.23442 696.16268,392.29396 C 703.95020,403.51983 705.04332,417.02769 703.72274,430.46876 C 702.09922,441.97494 697.00584,452.10465 690.76697,461.47863 L 666.22928,461.61708 C 672.14457,454.14009 677.52867,446.32997 679.89841,436.70390 C 681.53265,426.82220 682.18027,416.80023 676.62642,408.08490 C 670.10461,402.21760 664.17432,400.61494 656.06586,405.08414 C 634.69029,418.80568 679.54212,385.41174 641.09077,418.14651 C 634.11189,425.43770 627.32472,432.96209 621.96536,441.71419 C 621.15437,442.46220 620.13686,445.04278 619.30643,444.16664 L 595.95506,452.48852 z " />
    <path
       style="fill:#000000;fill-opacity:1.0000000;fill-rule:nonzero;stroke:none;stroke-width:1.0000000px;stroke-linecap:butt;stroke-linejoin:miter;stroke-opacity:1.0000000;display:inline"
       id="path9820"
       d="M 635.42259,481.40361 C 637.24356,481.22980 638.95254,482.04927 640.70595,482.39968 C 647.91625,484.97243 653.37713,490.33782 658.72134,495.85235 C 666.46524,504.33526 672.70285,514.15519 678.50840,524.18632 C 684.88705,535.26678 690.03727,547.04669 694.34354,559.18297 C 699.05727,572.02239 700.50233,585.45639 700.00199,599.12361 C 698.79102,616.35497 694.00349,632.96546 688.70572,649.20527 C 683.04595,666.00026 675.55374,681.99601 666.83551,697.21663 C 656.31952,716.76007 640.96594,727.89444 623.55431,740.15966 C 612.37086,746.68889 601.52431,747.33219 589.61565,743.42719 C 578.13429,737.94438 570.90479,727.72957 565.16210,716.21973 C 559.08458,702.34071 556.53183,687.16002 554.47618,672.11835 L 577.17258,662.26774 C 578.92225,676.04096 580.98395,689.95979 586.19363,702.80687 C 590.59680,711.47445 595.36240,719.47800 604.58175,722.75519 C 613.93163,723.49744 621.92082,720.76815 629.77309,714.95493 C 605.72063,732.76766 635.56176,712.21836 642.35996,698.54449 C 651.33978,684.40745 658.70663,669.19505 664.51788,653.29147 C 669.85469,638.15096 674.59645,622.63160 676.49195,606.52969 C 677.44452,594.51625 676.73155,582.74590 672.65125,571.35621 C 668.63982,559.96253 664.00767,548.83139 657.97615,538.45237 C 652.60903,529.28294 647.02483,520.17154 639.80786,512.48864 C 635.93195,508.75779 632.31910,504.69613 626.89854,504.02877 C 625.72357,504.10332 624.59948,504.21223 623.42486,504.24915 L 635.42259,481.40361 z " />
    <path
       style="fill:#000000;fill-opacity:1.0000000;fill-rule:nonzero;stroke:none;stroke-width:1.0000000px;stroke-linecap:butt;stroke-linejoin:miter;stroke-opacity:1.0000000;display:inline"
       id="path9824"
       d="M 488.09458,642.86010 C 489.65073,644.88420 490.23463,647.36315 491.19020,649.72884 C 493.28805,655.10429 495.95149,660.18783 498.58183,665.28131 C 502.11881,672.30746 506.69906,678.56520 511.46873,684.66754 C 516.54451,691.03739 522.89659,695.65338 529.61108,699.79530 C 535.25147,702.97337 540.04891,702.36102 545.77534,700.43088 C 560.00182,688.72624 526.33973,715.80550 542.60030,701.80472 C 545.09606,699.11788 547.57697,696.41417 550.07598,693.72989 L 574.62073,695.11915 C 572.08296,697.66548 569.49303,700.16579 567.16023,702.92912 C 558.79874,712.59153 548.89860,722.43159 536.34846,724.54319 C 528.00011,724.88391 520.26732,723.78286 512.96110,718.97636 C 505.23708,713.87805 497.98703,708.08305 492.06589,700.66412 C 486.77173,693.93701 481.80579,686.93535 477.81341,679.23222 C 474.99999,673.82969 472.13852,668.44038 469.86143,662.75025 C 469.14902,660.99425 466.17080,654.25335 469.14359,659.56925 L 488.09458,642.86010 z " />
    <path
       style="fill:#000000;fill-opacity:1.0000000;fill-rule:nonzero;stroke:none;stroke-width:1.0000000px;stroke-linecap:butt;stroke-linejoin:miter;stroke-opacity:1.0000000;display:inline"
       id="path9830"
       d="M 184.68426,388.86840 C 182.84293,387.05214 189.45579,387.22448 191.23772,387.00643 C 203.36415,385.25583 215.56499,384.23257 227.76985,383.34077 C 249.37323,381.93460 271.00476,380.97003 292.64756,380.67258 C 317.73728,380.39050 342.82583,381.22134 367.87523,382.68851 C 390.81236,384.12137 413.74125,385.75513 436.63419,387.84441 C 455.54210,389.61522 474.42526,391.67507 493.25490,394.22003 C 507.96538,396.22788 522.66923,398.29893 537.26467,401.11324 C 548.89468,403.26678 560.30701,406.37855 571.47116,410.41975 C 580.96532,413.93201 589.83696,418.85807 598.37994,424.42334 C 604.64434,428.65758 610.30221,433.77572 615.98191,438.82804 L 597.74640,456.30998 C 592.46196,451.62483 587.16636,446.91524 581.25895,443.12135 C 573.32701,438.23116 565.09523,433.94406 556.34068,430.94467 C 545.60748,427.42158 534.66970,424.69625 523.58268,422.72831 C 509.13432,420.15537 494.61291,418.10545 480.08023,416.14821 C 461.38276,413.72567 442.64067,411.71063 423.87336,410.00193 C 401.08652,408.03559 378.27700,406.35111 355.44891,405.02457 C 330.62468,403.68402 305.76295,402.97076 280.90600,403.42790 C 259.43989,403.85761 237.98184,404.89219 216.56370,406.46935 C 204.59436,407.47402 192.62940,408.63700 180.76302,410.62057 C 178.03151,411.35592 175.33654,412.59502 172.68654,411.71394 L 184.68426,388.86840 z " />
    <path
       style="fill:#000000;fill-opacity:1.0000000;fill-rule:nonzero;stroke:none;stroke-width:1.0000000px;stroke-linecap:butt;stroke-linejoin:miter;stroke-opacity:1.0000000;display:inline"
       id="path9832"
       d="M 147.71708,357.93817 C 150.18726,358.33436 157.02126,360.94779 160.70927,362.28924 C 170.28718,365.84537 179.72552,369.78508 189.06942,373.97831 C 199.53891,378.61111 209.66851,384.03302 219.68921,389.65768 C 228.67924,394.62279 236.84008,400.90030 244.58553,407.78244 L 226.25360,425.12634 C 219.06002,418.93798 211.45325,413.37211 203.16571,408.92709 C 193.38622,403.54614 183.49844,398.38251 173.29809,393.94973 C 164.15634,389.96707 154.92876,386.20582 145.57033,382.83129 C 141.29290,381.39073 136.80983,379.97861 132.61616,378.60277 L 147.71708,357.93817 z " />
    <path
       style="fill:#000000;fill-opacity:1.0000000;fill-rule:nonzero;stroke:none;stroke-width:1.0000000px;stroke-linecap:butt;stroke-linejoin:miter;stroke-opacity:1.0000000;display:inline"
       id="path9834"
       d="M 83.859179,386.80061 C 79.089253,383.59244 77.992746,379.43030 76.294364,374.11175 C 73.800105,365.80258 74.215862,357.60983 75.744176,349.19946 C 81.129925,330.53336 94.072210,321.83312 108.74761,310.95910 C 118.41423,305.04836 128.70620,304.11033 139.53571,305.30540 C 150.04337,307.28641 157.87191,313.77157 164.98539,321.78090 C 171.29026,329.60031 174.78276,338.96601 177.33992,348.74573 C 177.41350,348.74443 178.09121,352.70169 178.09690,352.73167 L 155.46966,362.88747 C 155.44984,362.74930 155.08360,359.68408 154.99510,359.57889 C 153.12463,351.67539 150.78559,344.08051 145.61243,337.81270 C 140.09848,332.14941 134.66752,327.76631 126.62316,327.48857 C 117.88311,327.88523 110.05710,330.38982 103.11920,336.33622 C 130.55059,315.79292 103.77429,333.71962 99.947466,344.76757 C 97.915055,350.87195 96.664715,356.46290 98.510305,362.91094 C 96.326838,363.77015 105.00044,373.36668 95.856901,363.95508 L 83.859179,386.80061 z " />
    <path
       style="fill:#000000;fill-opacity:1.0000000;fill-rule:nonzero;stroke:none;stroke-width:1.0000000px;stroke-linecap:butt;stroke-linejoin:miter;stroke-opacity:1.0000000;display:inline"
       id="path9836"
       d="M 183.75570,391.98472 C 182.82093,387.38696 183.93981,386.76521 186.33331,383.23755 C 195.21144,374.94903 205.22220,368.06982 215.57098,362.02909 C 222.91794,357.19307 230.90403,354.10625 239.21544,351.80969 C 248.84790,349.33181 258.63937,349.98602 268.36842,351.21065 C 278.54034,352.45680 287.80985,356.48832 296.65901,361.72868 C 305.75216,367.53467 310.53547,376.30287 313.73432,386.68432 C 316.11284,396.83499 314.20709,406.57741 311.24212,416.27890 C 309.30147,421.96545 306.24678,427.03354 303.11924,432.03509 L 278.55282,432.15380 C 281.66572,428.26389 284.79949,424.42000 286.89939,419.75831 C 289.84584,412.61931 292.49319,405.53566 291.40539,397.55596 C 289.42527,390.08576 286.64471,384.48552 279.83059,380.72372 C 272.07280,376.67842 263.98177,373.88563 255.28186,373.27386 C 246.75483,372.75846 238.28372,372.92883 230.13305,376.04409 C 222.78463,379.02750 215.84223,382.84529 209.12600,387.20965 C 190.86851,400.03195 226.33183,374.78186 210.83863,385.58912 C 209.40551,384.84933 206.01083,390.74884 207.10706,383.66284 L 183.75570,391.98472 z " />
    <path
       style="fill:#a77474;fill-opacity:1.0000000;fill-rule:evenodd;stroke:none;stroke-width:1.0000000px;stroke-linecap:butt;stroke-linejoin:miter;stroke-opacity:1.0000000;display:none"
       d="M -22.857143,452.36218 C -28.651194,444.71752 -32.868671,423.83687 -30.000000,412.36218 C -27.911874,404.00968 -20.934015,397.82919 -12.857143,393.79075 C -3.2561502,388.99026 3.9033003,381.86724 15.714286,379.50504 C 23.929933,377.86191 32.423836,378.57410 40.000000,382.36218 C 49.897889,387.31113 54.241735,389.46106 60.000000,395.21933 C 66.091142,401.31047 68.364443,417.24853 70.000000,423.79075 C 71.992745,431.76173 72.857143,439.29051 72.857143,448.07647 C 72.857143,454.40236 89.125243,452.36218 94.285714,452.36218 C 106.69814,452.36218 106.88724,452.48999 118.57143,446.64790 C 126.08197,442.89263 133.33783,437.12184 140.00000,433.79075 C 148.27886,429.65132 158.07893,426.64790 167.14286,426.64790 C 178.03129,426.64790 188.26733,424.91522 195.71429,432.36218 C 200.86954,437.51744 216.71373,433.36163 224.28571,440.93361 C 230.71094,447.35884 230.00000,460.61065 230.00000,469.50504 C 230.00000,476.84955 248.62334,473.79075 255.71429,473.79075 C 264.45773,473.79075 274.37022,469.50504 284.28571,469.50504 C 298.12719,469.50504 310.17871,470.93361 324.28571,470.93361 C 343.34568,470.93361 362.90441,473.56054 381.42857,476.64790 C 394.57092,478.83829 408.12608,477.60468 421.42857,479.50504 C 434.91855,481.43218 446.98612,483.79075 461.42857,483.79075 C 475.42062,483.79075 487.99437,486.64790 501.42857,486.64790 C 514.84540,486.64790 531.22968,492.91760 544.28571,496.64790 C 551.02420,498.57318 561.75404,506.09635 568.57143,509.50504 C 580.22421,515.33143 581.84626,522.36218 595.71429,522.36218 C 607.18953,522.36218 609.10823,521.82538 615.71429,515.21933 C 621.96172,508.97189 625.17603,498.61473 631.42857,492.36218 C 639.63753,484.15322 653.15411,480.63665 660.00000,473.79075 C 667.05637,466.73439 675.02835,465.21933 684.28571,465.21933 C 693.05971,465.21933 695.71429,481.61547 695.71429,488.07647 C 695.71429,500.56574 700.00000,509.04580 700.00000,520.93361 C 700.00000,531.84858 695.51753,541.72065 692.85714,552.36218 C 689.74442,564.81308 682.30944,575.49317 671.42857,580.93361 C 657.18222,588.05679 652.86623,595.93816 665.71429,602.36218 C 674.39062,606.70035 681.42705,618.07342 685.71429,626.64790 C 690.76185,636.74302 693.46615,646.83580 695.71429,658.07647 C 698.08166,669.91334 700.00000,681.23099 700.00000,693.79075 C 700.00000,708.08961 699.13981,720.08866 695.71429,733.79075 C 692.70663,745.82137 685.93724,757.18466 682.85714,769.50504 C 680.61980,778.45441 675.47600,785.69590 671.42857,793.79075 C 666.20339,804.24112 649.62201,805.97531 644.28571,816.64790 C 641.07664,823.06605 631.11901,831.24317 625.71429,836.64790 C 620.07023,842.29196 608.23744,848.87425 600.00000,850.93361 C 585.87286,854.46540 579.70581,856.89972 575.71429,840.93361 C 575.45604,839.90061 574.76191,839.02885 574.28571,838.07647 C 570.56575,830.63654 571.93686,815.82392 570.00000,808.07647 C 568.51471,802.13531 548.60063,802.36218 542.85714,802.36218 C 537.08833,802.36218 522.95771,814.78676 518.57143,818.07647 C 514.84452,820.87165 497.93106,818.07647 492.85714,818.07647 C 484.72520,818.07647 478.17670,805.85843 474.28571,798.07647 C 469.75777,789.02058 469.90614,788.05300 458.57143,785.21933 C 447.69754,782.50085 442.44742,786.03877 438.57143,793.79075 C 434.24604,802.44154 429.33560,809.40527 425.71429,816.64790 C 422.73604,822.60439 415.14353,828.64723 411.42857,832.36218 C 403.97971,839.81105 397.13833,840.93587 388.57143,845.21933 C 377.60098,850.70455 367.17116,854.91663 357.14286,860.93361 C 350.50829,864.91435 335.28039,862.36218 327.14286,862.36218 C 315.96533,862.36218 313.78577,859.79083 307.14286,850.93361 C 300.47826,842.04748 295.16710,829.72784 288.57143,820.93361 C 277.62754,806.34176 281.14600,800.70441 258.57143,805.21933 C 244.98828,807.93595 242.00493,813.71563 234.28571,819.50504 C 227.40505,824.66554 228.52392,826.65977 217.14286,829.50504 C 207.01425,832.03719 198.33195,832.36218 187.14286,832.36218 C 173.98532,832.36218 156.56836,833.64713 145.71429,830.93361 C 137.95006,828.99255 134.28571,818.00498 134.28571,809.50504 C 134.28571,799.02843 134.74727,790.51596 137.14286,780.93361 C 139.69060,770.74263 144.36360,758.44881 150.00000,750.93361 C 157.69354,740.67556 164.07087,731.79297 167.14286,719.50504 C 172.00171,700.06963 164.51887,703.12606 148.57143,709.50504 C 136.77146,714.22503 119.77620,715.21933 107.14286,715.21933 C 90.387909,715.21933 71.450987,722.35845 54.285714,725.21933 C 40.570885,727.50513 31.107010,722.28179 20.000000,719.50504 C 7.9059159,716.48152 -10.818334,707.25813 -18.571429,699.50504 C -24.060413,694.01606 -44.380572,688.02904 -50.000000,685.21933 C -58.016693,681.21098 -62.700861,672.57056 -67.142857,666.64790 C -73.498748,658.17337 -72.396520,645.17262 -75.714286,635.21933 C -78.555952,626.69433 -84.285714,618.59161 -84.285714,610.93361 C -84.285714,601.63137 -88.571429,594.10572 -88.571429,583.79075 C -88.571429,573.70399 -87.627130,564.78355 -85.714286,555.21933 C -83.666302,544.97941 -80.977344,539.70537 -75.714286,530.93361 C -71.140404,523.31047 -66.297839,512.10072 -62.857143,505.21933 C -58.877417,497.25987 -54.138556,489.21072 -50.000000,480.93361 C -46.385549,473.70471 -40.245332,467.06637 -32.857143,465.21933 C -29.310733,464.33272 -24.308203,455.98983 -22.857143,452.36218 z "
       id="path9839" />
  </g>
  <g
     inkscape:groupmode="layer"
     id="layer3"
     inkscape:label="Left Foot"
     style="display:inline">
    <path
       style="fill:#000000;fill-opacity:1;fill-rule:nonzero;stroke:none;stroke-width:1px;stroke-linecap:butt;stroke-linejoin:miter;stroke-opacity:1"
       id="path1578"
       d="M 417.62698,493.33877 C 415.11563,489.26593 419.29386,494.35012 420.13943,495.27889 C 423.93708,499.47954 427.02399,504.28281 429.87684,509.23329 C 432.92172,514.69927 435.45512,520.46082 438.75285,525.75887 C 442.57756,530.80206 448.31956,528.14451 453.29593,526.4427 C 465.1668,521.53511 476.03001,514.29146 486.74478,507.05916 C 495.60581,501.1576 504.33595,495.03417 513.34268,489.38351 C 516.15412,487.46909 519.1028,485.81646 522.07853,484.21653 L 518.37058,497.78116 C 515.55067,499.48701 512.75472,501.2357 509.97925,503.02324 C 501.10138,508.80479 492.36607,514.82733 483.52951,520.67954 C 472.38154,527.99675 461.06175,535.47141 448.43656,539.53991 C 440.59139,541.35818 433.07433,541.53884 427.92709,533.95344 C 424.42294,528.55623 421.88225,522.5706 418.74434,516.93481 C 416.13538,512.38466 413.30408,507.97763 409.78145,504.15671 C 407.97548,502.20751 405.98328,500.4144 404.97852,497.84639 L 417.62698,493.33877 z " />
  </g>
  <g
     inkscape:groupmode="layer"
     id="layer9"
     inkscape:label="Left Ear"
     style="display:inline" />
  <g
     inkscape:groupmode="layer"
     id="layer7"
     inkscape:label="Left Pant Leg"
     style="display:inline">
    <path
       style="fill:#000000;fill-opacity:1;fill-rule:nonzero;stroke:none;stroke-width:1px;stroke-linecap:butt;stroke-linejoin:miter;stroke-opacity:1;display:inline"
       d="M 426.75705,334.25429 C 418.70897,335.53963 410.64935,336.82254 402.60127,338.10787 C 400.83177,338.32302 399.87508,338.47238 399.59475,338.63086 C 399.5894,338.63426 399.57358,338.65496 399.56883,338.65839 C 399.56056,338.66529 399.54878,338.67888 399.54292,338.68591 C 399.53942,338.69124 399.51916,338.70803 399.517,338.71344 C 399.51687,338.71528 399.51698,338.7391 399.517,338.74096 C 399.52061,338.75238 399.53411,338.78413 399.54292,338.79601 C 399.54642,338.80003 399.56475,338.81947 399.56883,338.82354 C 399.57348,338.82767 399.58954,338.84687 399.59475,338.85106 C 399.94696,339.11095 401.36465,339.48689 403.5084,340.22734 C 417.71461,347.58954 432.00526,355.40087 443.68165,366.92717 C 468.25486,391.29967 491.80703,417.04463 511.79475,445.84306 C 519.52611,457.81849 529.29607,469.07659 533.46239,483.08519 C 530.41929,482.30686 527.38631,481.47363 524.33917,480.77304 C 496.9689,474.96282 469.0618,481.1643 442.1784,486.91125 C 433.3865,488.97034 423.63704,494.85926 414.83467,489.96659 C 409.20589,484.4522 411.9397,474.44282 412.3206,467.09282 C 415.87848,447.48467 422.02635,428.25464 422.42871,408.10547 C 419.68651,401.30309 411.33057,376.90679 387.8538,383.00212 C 386.51266,383.7537 383.17118,383.56972 381.42608,384.43345 C 382.52862,384.21273 383.66724,384.10315 384.82136,384.10315 C 396.17031,384.10314 405.37646,395.21018 405.40043,408.90371 C 405.40018,408.91999 405.4007,408.94247 405.40043,408.95876 C 405.40043,409.2267 405.3815,409.49111 405.37452,409.757 C 405.37212,409.86005 405.3772,409.95594 405.37452,410.05978 C 405.3693,410.20162 405.35578,410.35898 405.3486,410.50019 C 405.34474,410.63164 405.35289,410.78043 405.3486,410.91308 C 405.34289,411.00112 405.32914,411.07303 405.32268,411.16081 C 405.32205,411.17917 405.32332,411.19748 405.32268,411.21586 C 404.65406,430.5029 399.45273,462.12904 396.8215,480.00233 C 396.71098,487.67038 393.06137,498.8181 400.70924,503.53671 C 410.45857,507.31244 420.3154,500.96147 429.55622,498.1417 C 448.40042,493.06526 467.72114,488.75208 487.27611,488.97567 C 502.43672,488.58192 516.90662,493.77363 531.02607,498.99499 C 538.46098,503.09518 544.43983,493.41787 549.6872,488.83804 C 556.12559,481.76611 548.89488,473.18563 544.24437,467.72591 C 519.4472,435.47139 496.25303,401.61889 468.43356,372.12951 C 455.35774,358.5859 442.28228,344.63598 426.75705,334.25429 z "
       id="path1385" />
  </g>
  <g
     inkscape:groupmode="layer"
     id="layer8"
     inkscape:label="Shirt"
     style="display:inline">
    <path
       style="fill:url(#linearGradient2094);fill-opacity:1.0;fill-rule:nonzero;stroke:none;stroke-width:1.0000000px;stroke-linecap:butt;stroke-linejoin:miter;stroke-opacity:1.0000000"
       d="M 324.22455,159.19149 C 320.02099,159.34477 315.69168,160.78089 311.62829,161.88900 C 291.28781,167.85541 271.65640,176.15916 252.19780,184.76277 C 236.77317,191.59540 221.53021,198.93609 206.47805,206.64562 C 201.57167,209.08623 196.83863,211.85145 191.98976,214.40784 C 175.69724,221.05476 175.90345,230.28789 188.56855,232.16185 C 195.31858,233.17080 201.89762,235.00110 207.48886,239.23593 C 214.25812,246.07705 211.99737,256.16864 209.89925,264.72463 C 207.33538,273.90388 203.77483,282.70042 197.84728,289.96560 C 180.69964,297.15428 183.13369,307.89645 195.82566,304.47159 C 206.60830,301.49465 217.46404,298.88109 228.43079,296.79195 C 239.47654,294.64325 250.65975,293.37799 261.86530,292.71816 C 269.40510,292.20639 276.93247,292.72288 284.44008,293.46135 C 289.10451,293.89088 293.74975,294.52452 298.38408,295.22299 C 302.02239,295.84140 305.62926,296.67302 309.24382,297.42504 C 309.90073,297.55390 310.55695,297.68222 311.21360,297.81040 C 315.63618,308.27658 318.32718,319.68653 324.40598,329.27216 C 328.88575,337.22217 338.33226,337.89371 346.12545,338.32808 C 370.39183,339.39685 394.72515,338.71158 418.95567,340.69528 C 423.72185,341.26901 427.01766,346.26017 431.83703,342.78722 C 437.33899,341.47987 441.73797,336.17888 440.83065,329.98782 C 439.86551,319.59603 439.35526,309.10297 439.56066,298.63617 C 452.70418,302.12424 458.04262,305.81291 473.17659,311.27042 C 496.68824,319.79417 519.86852,329.57902 541.85989,341.90641 C 545.16091,344.63942 549.21844,346.34640 553.03065,348.29234 C 553.55424,347.99333 554.05869,347.72104 554.55982,347.43905 C 560.78101,348.65445 565.60883,346.58680 567.77812,339.97961 C 570.04243,338.41126 570.42705,337.34595 568.68526,336.15356 C 568.74593,335.74331 568.76865,335.32167 568.81485,334.88738 C 563.44919,332.83188 558.02689,330.69425 554.61166,325.58373 C 552.48312,317.90641 554.47402,311.52626 558.99184,304.96705 C 564.49751,296.77306 570.85266,289.29827 578.04174,282.75390 C 579.39832,281.88468 581.14618,280.72334 583.35497,279.25815 C 585.28977,278.17639 587.25954,276.99830 589.16065,275.78992 C 589.28050,275.93651 589.40229,276.08505 589.52351,276.23033 L 596.98796,270.47748 C 597.12672,270.37715 597.24111,270.27347 597.37673,270.17470 L 597.55816,270.06460 C 599.69353,268.50438 601.43197,267.14130 602.48262,266.23854 L 604.01180,265.08246 C 602.64638,263.70654 601.34482,262.25939 599.91672,260.95362 C 585.74870,247.77513 570.29423,236.26309 553.91187,226.38147 C 535.12514,214.69943 516.15722,203.34354 496.91769,192.52499 C 486.35175,186.70853 475.52773,181.46695 464.39032,177.00055 C 405.85257,142.11283 324.65941,159.17564 324.22455,159.19149 z M 588.35719,274.79900 C 588.45313,274.91866 588.54619,275.03732 588.64229,275.15683 C 588.06854,275.57423 587.46588,276.00286 586.85393,276.45054 L 588.35719,274.79900 z "
       id="path8870"
       sodipodi:nodetypes="ccccccccccccccccccccccccccccccccccccccccccccccccc" />
    <path
       style="fill:#000000;fill-opacity:1.0000000;fill-rule:nonzero;stroke:none;stroke-width:1.0000000px;stroke-linecap:butt;stroke-linejoin:miter;stroke-opacity:1.0000000"
       id="path1371"
       d="M 457.56346,174.45732 C 459.87829,175.17855 462.13666,176.08638 464.39483,176.99965 C 475.53223,181.46603 486.34766,186.71434 496.91359,192.53080 C 516.15312,203.34934 535.13171,214.71008 553.91844,226.39213 C 570.30081,236.27373 585.73978,247.77436 599.90780,260.95285 C 601.33592,262.25865 602.63862,263.70470 604.00403,265.08063 L 589.51279,276.22610 C 588.30052,274.77323 587.16934,273.24410 585.87597,271.86747 C 572.90430,257.85277 558.10138,246.04656 542.19502,236.00569 C 523.41764,224.00117 504.20857,212.63265 484.13858,203.23911 C 472.72453,198.09918 461.08532,193.34171 448.98706,190.35316 C 446.41681,189.89948 438.93936,187.98971 436.34289,188.51522 L 457.56346,174.45732 z "
       sodipodi:nodetypes="ccccccccccccc" />
    <path
       style="fill:#000000;fill-opacity:1.0000000;fill-rule:nonzero;stroke:none;stroke-width:1.0000000px;stroke-linecap:butt;stroke-linejoin:miter;stroke-opacity:1.0000000"
       id="path1375"
       d="M 586.86650,276.45102 C 617.65645,253.92626 599.59312,270.19258 583.36730,279.26453 C 557.66503,296.31403 594.44750,269.57642 582.27794,279.07087 C 573.32003,286.43014 565.55323,295.20070 558.98764,304.97215 C 554.46981,311.53137 552.47045,317.90297 554.59899,325.58028 C 558.01423,330.69080 563.46141,332.83942 568.82706,334.89492 C 567.21235,350.07401 556.65810,350.46621 543.86835,343.04480 C 521.27945,330.17818 497.39648,320.05155 473.16465,311.26670 C 455.93543,305.05363 451.41366,301.15151 433.60276,297.20444 L 432.43341,285.54217 C 449.51985,290.61264 466.40935,296.40683 483.12249,302.72458 C 507.91143,312.15991 532.39419,322.47406 557.24087,331.73316 C 576.49707,338.07435 572.36657,337.25203 553.02391,348.29829 C 547.51021,345.48384 541.48811,343.14821 537.97484,337.52498 C 535.01593,328.95293 537.59381,321.39457 542.49323,314.02721 C 549.06217,304.21655 556.71041,295.31251 565.42481,287.58623 C 575.77390,278.84152 586.80162,271.00594 598.19853,263.89108 L 586.86650,276.45102 z "
       sodipodi:nodetypes="cccccccccccccccccc" />
    <path
       style="fill:#000000;fill-opacity:1.0000000;fill-rule:nonzero;stroke:none;stroke-width:1.0000000px;stroke-linecap:butt;stroke-linejoin:miter;stroke-opacity:1.0000000"
       id="path1494"
       d="M 319.21338,174.96935 C 315.74553,176.16625 306.44132,176.30782 302.49712,177.47576 C 282.43595,183.71388 263.01002,192.04275 243.77052,200.66862 C 228.41809,207.60696 186.78558,215.76227 199.68735,217.99053 C 207.43799,219.31625 214.57163,222.15796 220.73331,227.33199 C 228.91964,235.87012 228.66816,247.66455 226.29556,258.79534 C 223.92225,268.82640 220.19488,278.43603 214.63135,286.93394 C 208.44969,295.57649 226.94897,283.46128 238.01086,281.49059 C 249.26705,279.42325 260.64437,278.33928 272.04860,277.82604 C 279.82210,277.51148 287.58241,278.25221 295.30935,279.06890 C 300.09070,279.52431 304.84887,280.20150 309.57931,281.05959 C 313.23291,281.80284 310.35093,284.99441 314.00965,285.70912 C 317.24526,286.21586 313.30684,286.49027 316.44959,287.44086 L 318.46294,299.31825 C 315.40398,298.60838 312.32414,298.02806 309.24364,297.42375 C 305.62908,296.67174 302.02944,295.83327 298.39113,295.21486 C 293.75679,294.51640 289.11228,293.90318 284.44785,293.47366 C 276.94025,292.73520 269.39776,292.20709 261.85796,292.71886 C 250.65241,293.37869 239.48486,294.64111 228.43911,296.78981 C 217.47236,298.87894 206.60815,301.49832 195.82551,304.47526 C 182.98304,307.94072 180.65587,296.88456 198.47776,289.69884 C 212.74351,281.12530 182.87545,302.09501 197.55733,290.30567 C 203.65536,282.97508 207.29767,274.03852 209.90224,264.71356 C 212.00036,256.15756 214.25210,246.08046 207.48284,239.23935 C 201.89160,235.00452 195.30913,233.18271 188.55910,232.17376 C 175.89399,230.29980 175.68938,221.06605 191.98190,214.41912 C 196.83077,211.86274 201.58295,209.09148 206.48933,206.65087 C 221.54149,198.94133 236.76175,191.60291 252.18639,184.77028 C 271.64499,176.16668 291.30038,167.84469 311.64086,161.87828 C 316.12460,160.65554 320.92259,159.06192 325.52964,159.19878 L 319.21338,174.96935 z "
       sodipodi:nodetypes="ccccccccccccccccccccccccccccccc" />
    <path
       style="fill:#000000;fill-opacity:1.0000000;fill-rule:nonzero;stroke:none;stroke-width:1.0000000px;stroke-linecap:butt;stroke-linejoin:miter;stroke-opacity:1.0000000"
       d="M 320.55146,274.17933 C 320.96305,279.67838 323.95485,284.67268 325.68521,289.84637 C 329.84085,299.56261 332.33604,310.17625 337.76087,319.22434 C 342.18148,324.86687 350.34448,322.31088 356.47920,323.46477 C 379.53343,324.11042 402.64983,323.71813 425.64574,325.79252 C 429.81543,326.20903 437.37299,329.68741 437.59157,332.84365 C 433.68325,333.83569 425.75284,341.87919 424.40942,335.03112 C 424.85164,319.92244 423.37451,304.79813 424.69322,289.70333 C 425.14458,281.36995 426.28390,273.09745 427.89398,264.93132 C 433.21124,263.65610 438.52850,262.38087 443.84576,261.10564 C 438.81994,283.63001 438.70212,307.06718 440.83208,330.00078 C 441.73939,336.19184 437.33530,341.47820 431.83333,342.78556 C 427.01396,346.25851 423.72262,341.25955 418.95644,340.68582 C 394.72592,338.70212 370.38448,339.38560 346.11810,338.31683 C 338.32492,337.88247 328.87373,337.22291 324.39395,329.27291 C 318.24533,319.57717 315.57105,308.00477 311.05656,297.44090 C 308.91458,291.59818 306.07630,285.92980 304.98414,279.72716 C 310.17325,277.87789 315.36235,276.02861 320.55146,274.17933 z "
       id="path1612" />
  </g>
  <g
     inkscape:groupmode="layer"
     id="layer10"
     inkscape:label="Right Ear"
     style="display:inline">
    <path
       style="fill:url(#linearGradient2141);fill-opacity:1.0;fill-rule:evenodd;stroke:none;stroke-width:1px;stroke-linecap:butt;stroke-linejoin:miter;stroke-opacity:1;display:inline"
       d="M 254.37500 56.843750 C 251.65263 56.934512 250.93415 58.739674 251.56250 62.187500 C 256.13330 87.267858 304.77119 113.79577 306.65625 116.68750 C 308.54131 119.57922 303.30397 122.68899 301.00000 128.25000 C 298.69604 133.81100 302.46723 135.59006 306.65625 135.81250 C 310.84527 136.03494 320.25000 126.50000 320.25000 126.50000 C 320.25000 126.50000 324.49396 129.51482 324.62500 129.90625 C 328.90052 142.69496 331.69744 146.74562 333.93750 145.93750 C 333.92333 148.06395 333.74396 150.17525 332.84375 152.06250 C 314.11030 185.92432 295.21158 219.94007 281.34375 256.43750 C 276.05047 265.02355 277.66287 282.38694 290.71875 275.81250 C 315.61446 266.79700 337.90542 251.50414 360.56250 237.59375 C 389.80925 219.15696 418.22249 199.13475 447.06250 180.12500 C 458.43756 175.64915 471.34199 170.87752 479.75000 161.21875 C 489.97298 162.79861 496.03522 161.56206 500.62500 157.90625 C 506.54917 153.18758 504.62543 144.05938 494.40625 144.53125 C 490.88665 144.69376 488.50497 145.02744 485.96875 145.31250 C 485.88482 144.09266 485.66225 142.90403 485.37500 141.71875 C 496.13530 135.52961 547.01977 108.20157 549.21875 103.96875 C 551.58841 99.407368 542.54618 97.214670 511.00000 102.56250 C 483.09057 107.29381 465.71557 112.11416 461.46875 113.34375 C 439.70286 97.552288 414.79860 86.921483 389.68750 78.750000 C 374.54967 74.330559 355.14453 71.262825 343.12500 84.750000 C 340.51299 88.098695 338.67780 91.773043 337.25000 95.593750 C 286.36700 69.997462 261.78476 56.596715 254.37500 56.843750 z "
       id="path5179" />
  </g>
  <g
     inkscape:groupmode="layer"
     id="layer6"
     inkscape:label="Face"
     style="display:inline">
    <path
       style="fill:#000000;fill-opacity:1;fill-rule:nonzero;stroke:none;stroke-width:1px;stroke-linecap:butt;stroke-linejoin:miter;stroke-opacity:1"
       d="M 459.09397,115.75383 C 448.06152,109.47348 436.58295,104.1016 425.32839,98.28172 C 410.90505,90.9279 395.78569,85.13321 380.15197,81.45958 C 370.4426,78.975779 360.09687,78.018734 350.29583,80.40281 C 348.36246,80.1746 344.37382,84.76406 347.47305,81.31195 C 343.29082,85.20565 340.21149,90.35421 338.21814,95.85659 C 336.19487,96.18499 334.17159,96.51339 332.14832,96.84179 C 335.55658,86.46571 342.00504,75.75546 351.17794,72.614318 C 361.91336,69.138189 372.8484,69.289264 384.80475,72.916483 C 419.16315,80.85435 442.5308,94.91458 459.66225,105.05016 C 474.93554,112.29104 463.89103,109.15653 460.76574,112.57055 C 460.20848,113.63164 459.65123,114.69274 459.09397,115.75383 z "
       id="path7915"
       sodipodi:nodetypes="cccccccccccc" />
    <path
       style="fill:#000000;fill-opacity:1;fill-rule:nonzero;stroke:none;stroke-width:1px;stroke-linecap:butt;stroke-linejoin:miter;stroke-opacity:1"
       id="path1359"
       d="M 365.02398,137.71534 C 359.0496,144.06204 353.34046,150.87279 349.65754,159.01253 C 347.77177,164.07429 349.2644,166.01151 353.8436,167.31456 C 358.31435,168.05359 362.8538,167.75379 367.34973,167.49246 L 357.45107,176.76592 C 352.70806,177.03612 347.92562,177.37315 343.19562,176.75309 C 337.57592,175.16003 335.14514,171.95957 337.86829,165.78022 C 341.85105,157.63728 347.4918,150.62701 353.28171,143.86572 C 358.14861,138.28343 365.50576,130.4184 371.63137,129.24218 C 371.63137,129.24218 374.78744,127.97077 365.02398,137.71534 z "
       sodipodi:nodetypes="cccccccccc" />
    <path
       style="fill:#000000;fill-opacity:1;fill-rule:nonzero;stroke:none;stroke-width:1px;stroke-linecap:butt;stroke-linejoin:miter;stroke-opacity:1"
       id="path1361"
       d="M 333.3041,207.32631 C 333.33829,205.77204 334.41173,204.49301 335.15246,203.19202 C 340.49766,196.18618 347.88054,190.66112 355.98628,187.97644 C 361.0911,186.69001 366.32415,186.78876 371.52463,187.0296 C 376.76078,187.36339 381.98463,187.84471 387.1996,188.43814 C 390.25959,188.8539 393.32377,189.23263 396.3887,189.60361 L 385.73117,199.20007 C 382.69571,198.79813 379.6637,198.36864 376.62897,197.96057 C 371.46207,197.34212 366.28261,196.82757 361.0867,196.57832 C 355.92996,196.40575 350.72001,196.36821 345.75482,198.08916 C 331.71618,204.23928 358.83403,186.96017 348.12043,196.10538 C 347.66339,196.90875 346.82491,198.38779 346.46678,198.877 L 333.3041,207.32631 z " />
    <g
       id="g2115"
       transform="translate(302.8571,177.1429)">
      <path
         sodipodi:nodetypes="cccsccccccccccccccccsccccccccccccc"
         d="M 28.816370,-17.583689 C 32.020060,-23.094909 27.084250,-19.734909 26.470940,-21.054699 C 25.305840,-24.173759 24.753910,-27.500059 24.023430,-30.753809 C 23.162440,-34.704199 21.777220,-38.468239 20.184320,-42.139789 C 18.948200,-44.991369 18.061410,-47.045739 15.392550,-46.876719 C 12.321560,-44.185919 26.055120,-55.038189 16.121680,-46.730209 C 11.064750,-42.831809 5.4792100,-36.463429 -0.57976000,-40.940729 C -3.4534300,-44.379349 -3.0405700,-48.158579 -1.6231600,-52.167299 C -0.056700000,-55.135049 2.0756900,-56.909919 1.3481900,-60.195479 C -3.7277500,-66.737129 -10.969600,-71.051029 -17.498400,-75.793159 C -26.179900,-81.958199 -34.366720,-88.862299 -41.663680,-96.805239 C -46.218230,-101.87656 -50.623050,-107.22329 -53.625820,-113.50480 C -56.608500,-124.21815 -43.779950,-124.53179 -37.193610,-121.86907 C -25.928230,-116.61878 -14.976790,-110.64098 -3.8785000,-105.00719 C 7.3458900,-99.317258 18.643130,-93.786999 30.055450,-88.534449 C 31.651800,-87.788849 33.269920,-87.098389 34.881240,-86.390839 L 28.352000,-80.433439 C 26.877720,-81.278839 25.401210,-82.119869 23.931460,-82.974169 C 13.184990,-89.164119 2.2507000,-94.973419 -8.7992100,-100.52734 C -20.084550,-106.23318 -31.408760,-112.13767 -43.438210,-115.86928 C -46.151330,-116.48432 -54.010640,-114.40392 -51.757510,-116.12289 C -39.051410,-125.81676 -45.685150,-123.47934 -45.516390,-118.95260 C -43.474700,-112.48806 -39.222300,-107.08724 -35.175370,-101.91097 C -28.287610,-93.747329 -20.301540,-86.775799 -11.603820,-80.875629 C -4.5853800,-76.077759 2.9656600,-71.931159 9.2550800,-66.068489 C 12.078800,-62.017719 9.7958700,-59.735009 7.2946500,-56.230409 C 5.8642000,-53.191169 4.9344300,-50.291799 7.3085500,-47.518399 C 12.212060,-45.634139 20.402390,-53.577009 6.7601400,-43.507049 C 11.861960,-47.321809 16.249780,-52.967849 22.275760,-54.932599 C 25.601990,-53.827079 26.893610,-51.211169 28.287170,-47.779499 C 29.929080,-44.001069 31.385410,-40.147569 32.380230,-36.112019 C 38.182760,-11.702699 38.612230,-28.052899 35.432690,-27.692789 C 35.753870,-27.275539 36.082090,-24.886529 36.438730,-25.806939 L 28.816370,-17.583689 z "
         id="path1452"
         style="fill:#000000;fill-opacity:1.0000000;fill-rule:nonzero;stroke:none;stroke-width:1.0000000px;stroke-linecap:butt;stroke-linejoin:miter;stroke-opacity:1.0000000;display:inline" />
      <path
         sodipodi:nodetypes="cccccccccccccccccccccccccc"
         d="M 151.34951,-61.271699 C 158.17337,-67.813329 161.46188,-67.850509 169.43075,-69.935399 C 183.92469,-73.780079 198.73012,-76.035989 213.52614,-78.091599 C 226.25291,-79.488049 238.96277,-81.871469 251.77325,-82.217619 C 262.40697,-78.652159 239.42127,-65.975739 236.84072,-64.305259 C 226.15011,-57.500519 215.04874,-51.474159 203.89585,-45.581299 C 195.99157,-41.211969 187.73357,-37.572339 179.95558,-32.947889 C 174.33220,-30.702629 184.95662,-37.817739 188.28783,-37.812359 C 193.64747,-38.069519 199.01537,-38.506169 204.25485,-37.076849 C 209.19185,-35.052609 209.27161,-30.422649 207.18734,-25.982379 C 202.56627,-19.251989 195.65764,-13.766039 187.98561,-11.788319 C 181.61330,-10.862259 175.30248,-12.933449 169.21721,-14.728879 C 167.13145,-15.362509 165.05601,-16.033349 162.97837,-16.696079 L 169.35516,-22.825979 C 171.39783,-22.144039 173.43505,-21.441409 175.50725,-20.863999 C 181.59414,-19.230249 187.98250,-17.580429 194.22632,-19.200319 C 209.57151,-24.778599 185.11709,-11.224669 198.35909,-22.123429 C 200.11619,-25.366059 201.16037,-28.515419 197.20927,-30.265559 C 192.12958,-31.663989 186.89974,-31.084549 181.72521,-30.617089 C 170.82276,-29.851039 177.35499,-37.173769 185.86894,-40.607659 C 193.42693,-44.214089 201.07793,-47.605809 208.50936,-51.506739 C 219.77012,-57.284149 230.94759,-63.320529 241.47477,-70.516989 C 244.89252,-72.911029 243.25042,-70.185359 245.31053,-75.445779 C 233.54453,-77.124039 221.52367,-74.748729 209.78958,-73.862539 C 194.31771,-71.848769 178.87806,-68.928319 164.10659,-63.515939 L 151.34951,-61.271699 z "
         id="path1446"
         style="fill:#000000;fill-opacity:1.0000000;fill-rule:nonzero;stroke:none;stroke-width:1.0000000px;stroke-linecap:butt;stroke-linejoin:miter;stroke-opacity:1.0000000;display:inline" />
      <path
         sodipodi:nodetypes="ccccccccccccccccccccccc"
         d="M 36.934504,-26.544046 C 34.822224,-21.320466 29.697930,-15.452289 26.737240,-10.503109 C 14.513130,9.8656314 3.6890100,31.142111 -6.1368000,52.915921 C -10.479300,65.193431 -19.851180,78.937041 -16.942760,92.522051 C -6.7457600,98.745451 8.5066700,89.293441 18.093350,84.550481 C 41.143850,72.296751 62.455700,56.738511 84.025650,41.832911 C 101.26780,29.858321 118.83083,18.410891 136.69839,7.5203014 C 145.54404,2.1305414 154.42366,-3.2137286 163.69717,-7.7352086 C 167.58922,-9.6712386 171.52575,-11.496639 175.48695,-13.265239 C 180.32344,-15.456519 181.48350,-14.329670 186.25984,-16.663940 C 187.37698,-17.193690 189.22165,-16.976645 193.20252,-21.775849 L 183.30421,-11.771869 C 182.20018,-11.260569 181.08556,-10.774569 179.99194,-10.237879 C 175.06806,-7.8035986 170.18790,-5.2704086 165.24039,-2.8911586 C 161.47833,-1.1502986 157.68775,0.51865143 153.90155,2.1996914 C 145.37070,6.0893214 137.16855,10.713491 129.03516,15.456881 C 111.87545,25.494421 95.088090,36.234591 78.621990,47.505531 C 56.720920,62.451081 35.144580,78.101291 11.977970,90.791271 C 1.9901200,95.974101 -17.919700,109.32620 -28.183560,100.41224 C -31.040280,85.432991 -17.860070,70.380431 -13.434530,57.080661 C -3.4525200,36.326571 6.9046900,15.780171 16.895340,-4.9687086 C 18.586250,-8.6329486 24.251773,-21.127189 25.601543,-24.097659 L 36.934504,-26.544046 z "
         id="path1369"
         style="fill:#000000;fill-opacity:1.0000000;fill-rule:nonzero;stroke:none;stroke-width:1.0000000px;stroke-linecap:butt;stroke-linejoin:miter;stroke-opacity:1.0000000" />
    </g>
    <path
       style="opacity:0.041450743;fill:#000000;fill-opacity:1.0000000;fill-rule:evenodd;stroke:none;stroke-width:1.0000000px;stroke-linecap:butt;stroke-linejoin:miter;stroke-opacity:1.0000000"
       d="M 448.57143,116.64789 C 458.57142,145.21933 314.28571,270.93361 294.28571,272.36218 C 274.28571,273.79075 309.31983,293.75279 447.14285,180.93361 C 503.21930,135.03054 452.85714,113.79075 448.57143,116.64789 z "
       id="path2162"
       sodipodi:nodetypes="cssc" />
    <path
       style="fill:#000000;fill-opacity:1.0000000;fill-rule:evenodd;stroke:none;stroke-width:1.0000000px;stroke-linecap:butt;stroke-linejoin:miter;stroke-opacity:1.0000000;opacity:0.12953368"
       d="M 438.57143,189.50504 L 308.57143,268.07647 C 308.57143,268.07647 373.20378,270.02498 438.57143,189.50504 z "
       id="path2890"
       sodipodi:nodetypes="ccc" />
  </g>
  <g
     inkscape:groupmode="layer"
     id="layer11"
     inkscape:label="Eyes"
     style="display:inline">
    <path
       style="fill:#ffffff;fill-opacity:1;fill-rule:evenodd;stroke:none;stroke-width:1px;stroke-linecap:butt;stroke-linejoin:miter;stroke-opacity:1"
       d="M 355.87077,100.88637 C 345.81713,105.11273 330.73666,117.79184 343.72262,122.68553 C 356.70857,127.57922 370.32288,123.35285 374.5119,124.24261 C 378.70091,125.13237 382.68049,136.92171 385.82225,138.70123 C 388.96401,140.48076 397.76094,148.71106 410.328,140.48076 C 422.89505,132.25047 429.94757,132.70527 430.22584,114.67767 C 430.43528,101.10881 389.59237,122.01821 377.86311,122.90796 C 367.61758,123.68516 369.69453,102.66588 360.47869,100.88637 C 351.26285,99.10684 355.03296,101.33125 355.87077,100.88637 z "
       id="path6055"
       sodipodi:nodetypes="csssssssc" />
    <path
       style="fill:#000000;fill-opacity:1;fill-rule:nonzero;stroke:none;stroke-width:1px;stroke-linecap:butt;stroke-linejoin:miter;stroke-opacity:1"
       d="M 359.014,101.52946 C 355.21002,102.96001 351.37948,104.53718 347.81851,106.58121 C 345.60295,109.0544 343.45805,112.36472 343.68415,115.90429 C 344.79178,120.77417 350.2625,122.03294 354.30516,122.50838 C 362.21992,123.48042 370.11086,121.95053 377.96105,121.13123 C 381.41009,120.52637 383.98603,123.17006 384.31744,126.68395 C 385.49604,133.45893 391.52539,138.15871 397.73735,138.98117 C 401.96384,139.84444 406.47449,139.64271 410.58542,138.56172 C 412.9649,137.56384 418.35706,134.21537 418.79861,134.34342 C 416.59922,135.95312 413.01198,138.63424 411.67113,139.60693 C 416.34206,136.02438 420.71256,131.44099 422.88444,125.69102 C 423.04308,123.05859 421.69982,120.65856 424.69244,119.61054 C 426.72977,118.13302 428.76711,116.65552 430.80444,115.17801 C 433.16926,119.48936 430.49264,124.06346 427.87801,127.38935 C 422.71476,134.04136 416.0674,139.40321 408.8503,143.30931 C 401.10241,147.34595 391.49471,147.38974 383.75252,143.33079 C 379.70092,140.78685 376.49503,136.59962 375.52976,131.63925 C 374.88513,126.991 369.80918,128.06931 366.6446,128.40814 C 358.01294,129.28313 348.96533,130.46191 340.56791,127.51836 C 337.05736,126.12208 333.77012,122.04124 335.36157,117.88783 C 337.10112,111.77858 342.00455,107.54376 346.34983,103.48264 C 349.12418,101.4629 352.27023,97.39172 355.11422,101.3192 C 356.29508,101.99102 357.80197,102.30685 359.014,101.52946 z "
       id="path1427" />
    <path
       style="fill:#000000;fill-opacity:1;fill-rule:nonzero;stroke:none;stroke-width:1px;stroke-linecap:butt;stroke-linejoin:miter;stroke-opacity:1"
       id="path1439"
       d="M 346.2282,91.42625 C 347.96214,92.57646 350.22258,93.21332 352.19172,93.98086 C 357.94887,96.15503 363.26933,99.3517 368.26451,103.05339 C 372.75808,106.39056 376.38651,110.66796 379.29457,115.56777 C 381.08585,119.18305 382.39388,121.06001 386.27865,120.37488 C 394.03807,117.61623 401.68536,114.51584 409.52426,112.00059 C 418.29491,109.10181 427.39814,107.68592 436.51213,106.71209 C 442.21085,106.1235 447.937,106.0391 453.65498,106.23958 C 453.94225,106.25174 454.22953,106.26391 454.51682,106.27607 L 447.1827,112.97237 C 446.90899,112.95011 446.63528,112.92784 446.36157,112.90558 C 440.96517,112.532 435.55447,112.30782 430.15086,112.70032 C 421.212,113.38064 412.33684,114.82121 403.76513,117.68544 C 395.43643,120.37954 387.38993,123.84826 379.2865,127.19388 C 374.73481,128.12756 373.17662,125.44759 371.40513,121.31802 C 368.83102,116.39513 365.50255,112.06842 361.16079,108.76347 C 356.16918,105.05408 350.81006,101.95587 344.88108,100.29404 C 342.89684,99.75819 339.58575,98.79226 338.0266,99.0113 L 346.2282,91.42625 z " />
  </g>
  <g
     inkscape:groupmode="layer"
     id="layer13"
     inkscape:label="Bangs"
     style="display:inline">
    <path
       d="M 463.82714,95.20299 L 461.70584,99.20394 C 459.19583,99.18326 456.6856,99.16367 454.17559,99.19713 C 450.54201,99.26561 446.90838,99.40521 443.29066,99.79246 C 440.32019,100.11779 437.36159,100.54674 434.41019,101.0293 C 431.76808,101.46408 429.12986,101.96156 426.46164,102.17963 C 424.48068,102.28912 422.45418,102.36782 420.86982,100.91178 C 419.70421,99.25276 419.51069,97.56654 419.8771,95.52139 C 420.02714,94.00187 420.24756,92.3653 419.52074,90.98596 C 417.72189,89.89511 415.61365,90.44675 413.62462,90.76322 C 409.76487,91.44482 405.9194,92.22909 402.11525,93.20492 C 398.68518,94.11613 395.2933,95.1697 391.88288,96.15827 C 389.40695,96.80735 386.85426,97.53637 384.29932,97.01096 C 382.452,96.29331 381.17134,95.1884 380.60441,93.09985 C 380.17966,91.14009 380.03927,89.14415 379.73179,87.1613 C 379.35181,85.47587 378.93797,83.89832 377.32339,83.1448 C 374.81441,82.36514 372.21278,82.46798 369.61957,82.67377 C 366.01585,82.92247 362.41451,83.20855 358.81027,83.44912 C 355.87875,83.63413 352.91996,83.85316 349.99764,83.43071 C 347.86864,83.01832 345.9005,82.31819 344.62556,80.33853 C 343.78848,78.678309 343.41421,77.006902 343.69247,75.10908 C 343.86324,73.694793 344.10065,72.293982 344.32331,70.888158 C 344.39613,70.290479 344.49187,71.159135 344.45238,70.561636 C 344.45238,70.561636 390.08305,59.757461 463.82714,95.20299 z "
       id="path7934"
       style="fill:url(#linearGradient2151);fill-opacity:1.0;fill-rule:nonzero;stroke:none;stroke-width:1px;stroke-linecap:butt;stroke-linejoin:miter;stroke-opacity:1;display:inline"
       sodipodi:nodetypes="cccccccccccccccccccccccc" />
    <path
       sodipodi:nodetypes="cccccscccccccccccccccccccccccccccccccccccc"
       style="fill:#000000;fill-opacity:1.0000000;fill-rule:nonzero;stroke:none;stroke-width:1.0000000px;stroke-linecap:butt;stroke-linejoin:miter;stroke-opacity:1.0000000;display:inline"
       id="path7936"
       d="M 348.08777,70.024018 C 348.02597,68.986850 347.94636,70.255790 347.82143,70.460555 C 347.62136,71.851222 347.37289,73.233008 347.17004,74.623081 C 346.90791,76.011860 346.99520,77.241167 347.53282,78.508190 C 348.53389,79.886073 350.09773,80.079668 351.63433,80.276725 C 354.45073,80.511621 357.27826,80.276513 360.09098,80.086362 C 363.69642,79.842675 367.29845,79.545257 370.90464,79.314606 C 373.79703,79.109701 376.71601,79.095810 379.40755,80.339465 C 381.49168,81.518705 382.40111,83.643795 382.96396,85.962445 C 383.36588,87.905315 383.46273,89.895935 383.81574,91.846755 C 384.13973,93.257795 384.78517,93.672975 386.03973,93.923155 C 388.34544,93.947615 390.59755,93.245785 392.80809,92.617555 C 396.21293,91.569385 399.62679,90.562035 403.07520,89.687605 C 406.93387,88.748425 410.82511,87.962295 414.73606,87.313405 C 417.41666,86.831405 420.10340,86.690095 422.16887,88.783865 C 423.49442,90.587465 423.44749,92.818075 423.33960,94.988055 C 423.04680,96.327245 423.10079,97.502295 423.49637,98.676428 C 424.84240,99.154418 426.31999,98.928708 427.71480,98.790828 C 430.33332,98.485412 460.59026,95.894305 463.11285,95.917275 L 460.99155,99.918214 C 458.48154,99.897534 455.97131,99.877944 453.46130,99.911404 C 449.82772,99.979884 446.19409,100.11948 442.57637,100.50673 C 439.60590,100.83206 436.64730,101.26101 433.69590,101.74357 C 431.05379,102.17835 428.41557,102.67583 425.74735,102.89390 C 423.76639,103.00339 421.73989,103.08209 420.15553,101.62605 C 418.98992,99.967034 418.79640,98.280822 419.16281,96.235675 C 419.31285,94.716155 419.53327,93.079585 418.80645,91.700245 C 417.00760,90.609395 414.89936,91.161035 412.91033,91.477505 C 409.05058,92.159105 405.20511,92.943375 401.40096,93.919205 C 397.97089,94.830415 394.57901,95.883985 391.16859,96.872555 C 388.69266,97.521635 386.13997,98.250652 383.58503,97.725245 C 381.73771,97.007595 380.45705,95.902685 379.89012,93.814135 C 379.46537,91.854375 379.32498,89.858435 379.01750,87.875585 C 378.63752,86.190155 378.22368,84.612605 376.60910,83.859085 C 374.10012,83.079425 371.49849,83.182265 368.90528,83.388055 C 365.30156,83.636755 361.70022,83.922835 358.09598,84.163405 C 355.16446,84.348415 352.20567,84.567445 349.28335,84.144995 C 347.15435,83.732605 345.18621,83.032475 343.91127,81.052815 C 343.07419,79.392594 342.69992,77.721187 342.97818,75.823365 C 343.14895,74.409078 343.38636,73.008267 343.60902,71.602443 C 343.68184,71.004764 343.77758,70.411750 343.73809,69.814250 L 348.08777,70.024018 z " />
  </g>
</svg>
