<?xml version="1.0" encoding="UTF-8" standalone="no"?>
<!-- Created with Inkscape (http://www.inkscape.org/) -->
<svg
   xmlns:dc="http://purl.org/dc/elements/1.1/"
   xmlns:cc="http://web.resource.org/cc/"
   xmlns:rdf="http://www.w3.org/1999/02/22-rdf-syntax-ns#"
   xmlns:svg="http://www.w3.org/2000/svg"
   xmlns="http://www.w3.org/2000/svg"
   xmlns:xlink="http://www.w3.org/1999/xlink"
   xmlns:sodipodi="http://inkscape.sourceforge.net/DTD/sodipodi-0.dtd"
   xmlns:inkscape="http://www.inkscape.org/namespaces/inkscape"
   width="744.09448819"
   height="1052.3622047"
   id="svg2"
   sodipodi:version="0.32"
   inkscape:version="0.43"
   sodipodi:docbase="C:\Documents and Settings\Cowbert\Desktop"
   sodipodi:docname="elf-attempt.svg">
  <defs
     id="defs4">
    <linearGradient
       id="linearGradient5058">
      <stop
         style="stop-color:#b49e29;stop-opacity:1;"
         offset="0"
         id="stop5060" />
      <stop
         style="stop-color:#fffbed;stop-opacity:1"
         offset="1"
         id="stop5062" />
    </linearGradient>
    <linearGradient
       inkscape:collect="always"
       xlink:href="#linearGradient5058"
       id="linearGradient5064"
       x1="463.0177"
       y1="451.90503"
       x2="388.0177"
       y2="406.19077"
       gradientUnits="userSpaceOnUse"
       gradientTransform="translate(45.71429,-161.4286)" />
  </defs>
  <sodipodi:namedview
     id="base"
     pagecolor="#ffffff"
     bordercolor="#666666"
     borderopacity="1.0"
     inkscape:pageopacity="0.0"
     inkscape:pageshadow="2"
     inkscape:zoom="0.7"
     inkscape:cx="307.98548"
     inkscape:cy="602.74166"
     inkscape:document-units="px"
     inkscape:current-layer="layer1"
     inkscape:window-width="1280"
     inkscape:window-height="977"
     inkscape:window-x="-4"
     inkscape:window-y="-4" />
  <metadata
     id="metadata7">
    <rdf:RDF>
      <cc:Work
         rdf:about="">
        <dc:format>image/svg+xml</dc:format>
        <dc:type
           rdf:resource="http://purl.org/dc/dcmitype/StillImage" />
      </cc:Work>
    </rdf:RDF>
  </metadata>
  <g
     inkscape:label="Layer 1"
     inkscape:groupmode="layer"
     id="layer1">
    <path
       style="fill:#fffbed;fill-opacity:1;fill-rule:evenodd;stroke:#000000;stroke-width:1px;stroke-linecap:butt;stroke-linejoin:miter;stroke-opacity:1"
       d="M 274.85715,250.3622 C 273.50943,228.80116 283.70022,222.86365 280.04,187.01215 C 282.74832,173.14537 281.99117,150.01895 282.4901,155.42199 C 281.97206,163.77382 288.73301,176.62905 293.61188,184.21102 C 298.08073,191.10364 303.26553,197.64592 306.28573,205.36217"
       id="path4178"
       sodipodi:nodetypes="ccccc" />
    <path
       style="fill:#185f7f;fill-opacity:1;fill-rule:evenodd;stroke:#000000;stroke-width:1px;stroke-linecap:butt;stroke-linejoin:miter;stroke-opacity:1"
       d="M 345.77679,300.63393 C 260.06814,306.52452 188.09545,358.43385 108.18304,383.35268 L 107.55804,383.54018 L 107.93304,384.10268 C 119.53033,402.42961 128.18979,424.6418 147.99554,436.29018 L 148.24554,435.85268 L 148.68304,436.10268 C 157.07242,421.26914 166.96969,405.6829 183.12054,398.79018 C 202.01562,391.03592 223.16675,389.23435 243.05804,389.16518 C 264.79317,389.63797 281.36443,391.79942 320.58929,394.97768 L 320.58929,394.94643 C 371.75682,398.10942 411.40299,393.25545 464.24554,393.69643 C 464.24815,393.69641 464.27418,393.69653 464.27679,393.69643 C 489.03674,395.55712 511.26273,410.23012 526.24554,429.57143 L 526.24554,429.60268 L 526.27679,429.60268 C 536.04565,440.91442 544.28924,454.74525 557.62054,462.54018 L 558.12054,461.69643 C 557.81509,461.51783 557.51454,461.35035 557.21429,461.16518 L 557.83929,461.00893 C 555.72724,450.73642 558.52275,440.91955 564.02679,432.50893 C 569.53083,424.09831 577.74621,417.1275 586.37054,412.57143 L 587.18304,412.13393 L 586.40179,411.69643 C 563.55052,399.09803 541.17804,385.58667 518.80804,372.13393 C 465.83997,339.56141 410.49958,301.90418 345.80804,300.63393 L 345.77679,300.63393 z "
       id="path5341"
       sodipodi:nodetypes="cccccccccccsscccccccscccccc" />
    <path
       style="fill:#fffbed;fill-opacity:1;fill-rule:evenodd;stroke:#000000;stroke-width:1px;stroke-linecap:butt;stroke-linejoin:miter;stroke-opacity:1"
       d="M 277.03923,234.33445 C 305.52336,188.14278 368.70049,161.6176 419.92078,184.48585 C 440.95716,192.10325 446.93365,216.38823 442.31014,236.26281 C 432.21002,278.0698 394.48374,306.49558 357.06728,323.42657 C 342.28824,329.0859 325.2609,336.92527 310.18101,327.70515 C 277.39655,312.01929 257.99249,267.30121 277.03923,234.33445 z "
       id="path1365" />
    <path
       style="fill:#3ea685;fill-opacity:1;fill-rule:evenodd;stroke:#000000;stroke-width:1px;stroke-linecap:butt;stroke-linejoin:miter;stroke-opacity:1"
       d="M 301.28288,207.06035 C 312.87128,190.41955 322.76442,177.18462 340.87418,169.25684 C 327.85591,198.52286 363.17722,158.87517 373.40098,157.04012 C 358.87131,177.48615 363.74002,170.36897 406.07976,158.24095 C 391.04414,178.22894 430.65848,164.42727 445.96541,165.22706 C 431.896,183.10635 462.24941,183.54802 478.51351,184.56036 C 464.69943,190.20427 469.1285,197.75763 481.15147,208.40049 C 493.28854,217.08543 502.65545,210.31272 519.44414,214.43738 C 492.94505,225.54448 481.09679,224.48312 519.95244,248.41831 C 507.75548,247.51193 490.48687,240.87645 477.47855,249.18029 C 463.89346,259.26412 492.94814,264.73788 504.01716,270.13968 C 520.59573,281.04033 528.92597,282.89343 544.87623,307.27003 C 534.32461,302.27597 511.1838,293.99212 497.56693,297.41577 C 487.15084,289.60393 485.92579,285.17163 472.5723,288.56624 C 462.50641,301.00045 499.0208,306.70214 509.77384,309.42699 C 494.77504,313.9338 473.81508,306.47174 475.38427,333.46114 C 472.39983,325.63086 459.36078,310.38486 447.88868,302.55063 C 440.79745,297.49281 422.59805,298.57959 428.76759,310.99763 C 436.54077,315.04228 440.56971,331.90048 427.3313,323.79864 C 415.62645,318.88792 396.04999,318.04307 392.7118,304.09911 C 391.11108,288.92847 408.87698,286.24674 418.49758,280.62434 C 428.84047,268.86804 427.16041,247.51089 419.83127,235.86087 C 412.4279,224.30193 400.84889,210.02441 385.33134,213.43545 C 371.99609,217.21439 358.44084,223.02227 344.32266,219.09669 C 331.89421,217.47213 318.94746,214.61105 309.83623,205.29001 C 308.41234,204.00961 307.04127,202.67111 305.71429,201.29076"
       id="path9859"
       sodipodi:nodetypes="cccccccccccccccccccccccccc" />
    <path
       style="fill:url(#linearGradient5064);fill-opacity:1;fill-rule:evenodd;stroke:#000000;stroke-width:1px;stroke-linecap:butt;stroke-linejoin:miter;stroke-opacity:1"
       d="M 416.72742,234.50777 C 447.30204,234.80353 448.75809,238.85823 469.41948,221.04125 C 471.18124,219.52203 438.08232,272.73268 418.91488,280.0513"
       id="path1534"
       sodipodi:nodetypes="csc" />
    <path
       style="fill:#000000;fill-opacity:1;fill-rule:evenodd;stroke:#000000;stroke-width:1px;stroke-linecap:butt;stroke-linejoin:miter;stroke-opacity:1"
       d="M 331.08239,243.42584 C 353.35546,222.85211 387.1712,218.54265 414.69931,230.34887 C 404.30308,245.34282 378.40591,244.05586 360.90516,246.9141 C 350.7023,247.06245 340.9824,245.90379 331.08239,243.42584 z "
       id="path1411"
       sodipodi:nodetypes="cccc" />
    <path
       style="fill:none;fill-opacity:0.75;fill-rule:evenodd;stroke:#000000;stroke-width:1px;stroke-linecap:butt;stroke-linejoin:miter;stroke-opacity:1"
       d="M 295.48774,223.33483 C 285.45128,245.03564 314.20697,248.52603 322.72741,240.84383 C 316.96809,232.20373 303.90238,216.47189 295.48774,223.33483 z "
       id="path1454"
       sodipodi:nodetypes="ccc" />
    <path
       style="fill:none;fill-opacity:0.75;fill-rule:evenodd;stroke:#000000;stroke-width:1.1510756px;stroke-linecap:butt;stroke-linejoin:miter;stroke-opacity:1"
       d="M 330.64024,245.18286 C 334.84918,258.51832 365.11617,266.4691 364.75528,247.33812 C 360.90558,233.18176 338.17336,234.93304 330.64024,245.18286 z "
       id="path1458" />
    <path
       style="fill:#000000;fill-opacity:1;fill-rule:evenodd;stroke:#000000;stroke-width:0.86331576px;stroke-linecap:butt;stroke-linejoin:miter;stroke-opacity:1"
       d="M 322.93275,240.09562 C 298.66602,233.8425 280.55952,211.95307 276.78262,185.50868 C 291.90497,185.71762 302.37189,205.6593 312.06992,217.26158 C 316.65507,224.7887 320.58224,231.72657 322.93275,240.09562 z "
       id="path1513"
       sodipodi:nodetypes="cccc" />
    <path
       style="fill:#185f7f;fill-opacity:1;fill-rule:evenodd;stroke:#000000;stroke-width:1px;stroke-linecap:butt;stroke-linejoin:miter;stroke-opacity:1"
       d="M 408.375,378.91518 C 391.69597,392.5507 381.55156,412.56849 377.19638,433.40628 C 374.52254,446.60403 371.3077,459.7908 370.05971,473.21204 C 369.44925,482.21772 370.70422,491.64763 367.69505,500.29227 C 361.2698,512.18351 346.33726,514.54863 334.04541,514.21331 C 319.84103,514.39329 305.48919,510.7103 293.46116,503.06592 C 285.82052,484.35085 287.70888,463.5673 281.65687,444.46186 C 275.13234,419.31361 267.25236,393.4354 270.30383,367.26327 C 270.90337,363.10216 269.14838,360.28567 265.91072,358.54018"
       id="path5345"
       sodipodi:nodetypes="ccccccccc" />
    <g
       id="g6173">
      <a
         id="a5353" />
    </g>
    <path
       sodipodi:type="arc"
       style="fill:#185f7f;fill-opacity:1;stroke:#000000;stroke-opacity:1"
       id="path9855"
       sodipodi:cx="262.5134"
       sodipodi:cy="402.96036"
       sodipodi:rx="2.3991122"
       sodipodi:ry="2.6516504"
       d="M 264.91251 402.96036 A 2.3991122 2.6516504 0 1 1  260.11428,402.96036 A 2.3991122 2.6516504 0 1 1  264.91251 402.96036 z"
       transform="translate(45.71429,-161.4286)" />
    <path
       sodipodi:type="arc"
       style="fill:#185f7f;fill-opacity:1;stroke:#000000;stroke-opacity:1"
       id="path9857"
       sodipodi:cx="294.08066"
       sodipodi:cy="412.80936"
       sodipodi:rx="2.6516504"
       sodipodi:ry="2.6516504"
       d="M 296.73231 412.80936 A 2.6516504 2.6516504 0 1 1  291.42901,412.80936 A 2.6516504 2.6516504 0 1 1  296.73231 412.80936 z"
       transform="translate(45.71429,-161.4286)" />
    <path
       style="fill:none;fill-opacity:0.75;fill-rule:evenodd;stroke:#000000;stroke-width:1px;stroke-linecap:butt;stroke-linejoin:miter;stroke-opacity:1"
       d="M 585.71429,413.79075 C 585.32936,413.79075 593.01664,424.66454 595,426.6479 C 598.9554,430.60329 600.68166,435.15406 602.85715,439.50504 C 605.00982,443.81039 604.7875,447.65147 606.42858,450.93361 C 608.19062,454.4577 605.48865,460.75827 604.28572,462.36218 C 601.5802,465.96955 598.03447,466.55924 595,468.07647 C 592.16666,469.49314 584.63913,468.07647 581.42858,468.07647 C 577.22776,468.07647 573.72498,465.21933 569.28572,465.21933 C 566.99881,465.21933 563.04486,461.51625 560.71429,460.93361 C 560.06096,460.77028 559.76191,459.98123 559.28572,459.50504"
       id="path10766" />
    <path
       style="fill:none;fill-opacity:0.75;fill-rule:evenodd;stroke:#000000;stroke-width:1px;stroke-linecap:butt;stroke-linejoin:miter;stroke-opacity:1"
       d="M 580.71429,416.6479 C 579.91423,416.84791 586.17054,427.56039 587.14286,429.50504 C 589.32161,433.86253 589.54886,438.97875 587.85715,442.36218 C 586.04736,445.98175 582.45636,446.3344 580,448.79076 C 577.94287,450.84789 569.00223,452.25448 565.71429,453.07647 C 562.51804,453.87553 560.36308,455.21933 556.42858,455.21933"
       id="path10770" />
    <path
       style="fill:none;fill-opacity:0.75;fill-rule:evenodd;stroke:#000000;stroke-width:1px;stroke-linecap:butt;stroke-linejoin:miter;stroke-opacity:1"
       d="M 567.14286,343.79076 C 555.26949,349.72744 534.84232,343.63119 518.57143,356.6479 C 495.5657,375.05248 474.40316,386.43651 460,412.36218 C 446.70704,436.28953 440,459.20628 440,486.6479 C 440,516.56523 455.46492,540.68424 475.71429,560.93361 C 497.12314,582.34246 524.42334,596.68722 554.28572,605.21933 C 579.80647,612.51097 604.07504,606.75324 627.14286,595.21933 C 653.06322,582.25915 671.10543,571.57991 684.28572,545.21933 C 693.67061,526.44955 692.85715,504.61281 692.85715,483.79076 C 692.85715,455.83136 673.15584,439.27123 667.14286,415.21933 C 662.18275,395.37887 639.68688,373.88859 622.85715,363.79076 C 621.03104,362.69509 619.04762,361.88599 617.14286,360.93361 C 607.57956,356.15196 598.66993,352.38681 587.14286,349.50504 C 581.31744,348.04869 573.20895,349.50504 567.14286,349.50504"
       id="path10774" />
    <path
       style="fill:none;fill-opacity:0.75;fill-rule:evenodd;stroke:#000000;stroke-width:1px;stroke-linecap:butt;stroke-linejoin:miter;stroke-opacity:1"
       d="M 110,388.07647 C 104.67828,386.74604 96.151097,397.42125 90,406.6479 C 83.469711,416.44333 82.892457,423.6495 80,435.21933 C 77.024683,447.12059 85.264908,448.07647 94.285715,448.07647 C 106.91057,448.07647 115.23365,443.50771 124.28571,438.07647 C 129.41405,434.99947 131.62631,432.16445 135.71429,428.07647"
       id="path10776" />
    <path
       style="fill:none;fill-opacity:0.75;fill-rule:evenodd;stroke:#000000;stroke-width:1px;stroke-linecap:butt;stroke-linejoin:miter;stroke-opacity:1"
       d="M 112.85714,395.21933 C 118.9274,391.57717 100.30872,403.17332 97.142857,409.50504 C 92.757052,418.27665 94.693172,426.03548 102.85714,428.07647 C 111.88324,430.33299 118.13301,422.47055 121.42857,418.07647 C 118.09688,414.19129 124.01644,415.4886 124.28571,415.21933"
       id="path10778" />
  </g>
</svg>
