<?xml version="1.0" encoding="UTF-8" standalone="no"?>
<!-- Created with Inkscape (http://www.inkscape.org/) -->
<svg
   xmlns:dc="http://purl.org/dc/elements/1.1/"
   xmlns:cc="http://web.resource.org/cc/"
   xmlns:rdf="http://www.w3.org/1999/02/22-rdf-syntax-ns#"
   xmlns:svg="http://www.w3.org/2000/svg"
   xmlns="http://www.w3.org/2000/svg"
   xmlns:xlink="http://www.w3.org/1999/xlink"
   xmlns:sodipodi="http://sodipodi.sourceforge.net/DTD/sodipodi-0.dtd"
   xmlns:inkscape="http://www.inkscape.org/namespaces/inkscape"
   width="1000"
   height="1000"
   id="svg2"
   sodipodi:version="0.32"
   inkscape:version="0.45.1"
   version="1.0"
   sodipodi:docbase="/home/kris/tale/art/monster"
   sodipodi:docname="aero-penguin.svg"
   inkscape:output_extension="org.inkscape.output.svg.inkscape"
   inkscape:export-filename="/home/kris/tale/art/monster/rocket-penguin.png"
   inkscape:export-xdpi="36"
   inkscape:export-ydpi="36">
  <defs
     id="defs4">
    <linearGradient
       id="linearGradient7545">
      <stop
         style="stop-color:#000000;stop-opacity:0.28627452;"
         offset="0"
         id="stop7547" />
      <stop
         style="stop-color:#000000;stop-opacity:0;"
         offset="1"
         id="stop7549" />
    </linearGradient>
    <radialGradient
       inkscape:collect="always"
       xlink:href="#linearGradient7545"
       id="radialGradient7600"
       gradientUnits="userSpaceOnUse"
       gradientTransform="matrix(-0.3136377,-1.0812239,0.9021556,-0.2616928,-463.2602,981.65835)"
       cx="113.66723"
       cy="679.01569"
       fx="113.66723"
       fy="679.01569"
       r="122.38907" />
  </defs>
  <sodipodi:namedview
     id="base"
     pagecolor="#ffffff"
     bordercolor="#666666"
     borderopacity="1.0"
     inkscape:pageopacity="0.0"
     inkscape:pageshadow="2"
     inkscape:zoom="0.7"
     inkscape:cx="570.74778"
     inkscape:cy="504.67017"
     inkscape:document-units="px"
     inkscape:current-layer="layer2"
     inkscape:window-width="1680"
     inkscape:window-height="975"
     inkscape:window-x="0"
     inkscape:window-y="49"
     showguides="true"
     inkscape:guide-bbox="true" />
  <metadata
     id="metadata7">
    <rdf:RDF>
      <cc:Work
         rdf:about="">
        <dc:format>image/svg+xml</dc:format>
        <dc:type
           rdf:resource="http://purl.org/dc/dcmitype/StillImage" />
      </cc:Work>
    </rdf:RDF>
  </metadata>
  <g
     inkscape:groupmode="layer"
     id="layer2"
     inkscape:label="penguin"
     style="display:inline">
    <path
       style="opacity:1;color:#000000;fill:#303030;fill-opacity:1;fill-rule:nonzero;stroke:none;stroke-width:80;stroke-linecap:butt;stroke-linejoin:miter;marker:none;marker-start:none;marker-mid:none;marker-end:none;stroke-miterlimit:4;stroke-dasharray:none;stroke-dashoffset:0;stroke-opacity:0.25465836;visibility:visible;display:inline;overflow:visible"
       d="M 366.76613,454.81189 C 349.34322,491.1591 319.24275,518.22208 292.12067,546.67035 C 272.73255,577.4374 272.73468,619.86144 292.12442,650.62715 C 303.6396,662.56458 322.11244,659.99733 335.77004,653.82674 C 367.05713,643.4489 393.56872,617.86529 404.46694,585.74462 C 414.93383,565.10447 429.51849,544.7188 429.20459,520.38248 C 430.49632,497.26471 434.46534,472.02194 422.88543,450.86081 C 411.85059,432.69054 382.65199,429.55196 370.00236,447.43884 C 368.48886,449.6582 367.35916,452.16497 366.76613,454.81189 z "
       id="path6032" />
    <path
       style="opacity:1;color:#000000;fill:#000000;fill-opacity:1;fill-rule:nonzero;stroke:none;stroke-width:80;stroke-linecap:butt;stroke-linejoin:miter;marker:none;marker-start:none;marker-mid:none;marker-end:none;stroke-miterlimit:4;stroke-dasharray:none;stroke-dashoffset:0;stroke-opacity:0.25465836;visibility:visible;display:inline;overflow:visible"
       id="path4138"
       d="M 358.97507,480.76817 C 358.28569,487.55048 352.41805,491.68557 348.00874,496.29129 C 334.33693,509.85356 321.84671,524.55528 311.10515,540.68622 C 298.71468,558.75846 290.65198,579.09409 288.78924,601.17725 C 288.06585,616.11175 289.07089,632.07725 297.46727,644.73354 C 301.87384,650.87149 322.49218,650.29748 304.43707,649.31086 C 300.93292,649.11938 311.46405,649.1432 314.94837,648.71424 C 327.11607,646.34733 338.34824,640.76942 349.00278,634.45614 L 365.28188,648.10361 C 353.47865,655.28875 341.1276,661.61488 327.856,665.38248 C 310.08299,670.17619 288.57512,669.88813 277.7771,652.35197 C 268.99398,636.48374 267.92312,617.57833 269.09615,599.71503 C 271.44336,575.5212 279.7309,552.92367 293.23109,532.94534 C 304.04124,516.2378 316.32305,500.68063 329.46963,485.8695 C 331.29639,483.69547 339.13547,470.95882 336.16662,480.55806 L 358.97507,480.76817 z " />
    <path
       style="opacity:1;color:#000000;fill:#ff6600;fill-opacity:1;fill-rule:nonzero;stroke:none;stroke-width:80;stroke-linecap:butt;stroke-linejoin:miter;marker:none;marker-start:none;marker-mid:none;marker-end:none;stroke-miterlimit:4;stroke-dasharray:none;stroke-dashoffset:0;stroke-opacity:0.25465836;visibility:visible;display:inline;overflow:visible"
       d="M 693.16071,663.08889 C 704.73666,671.68321 714.38021,685.26172 713.91782,700.46959 C 707.54342,719.16333 684.67561,726.47828 667.39818,720.20459 C 644.80541,717.5977 622.68843,711.13769 601.737,701.99962 C 589.51371,700.83596 578.5116,711.45674 576.64959,723.50326 C 558.53953,755.52272 510.77076,764.95979 483.17772,739.86088 C 468.30576,724.42905 471.89514,698.61402 484.09912,682.91207 C 499.01427,660.74933 530.05637,654.52267 553.42691,665.76896 C 567.4556,671.43124 578.33188,683.47566 592.63389,688.33306 C 607.29219,690.24301 619.26082,679.3338 628.55352,669.21428 C 642.44516,657.2259 662.55262,651.8397 679.87403,659.19271 C 684.31883,660.43203 688.71712,661.84501 693.16071,663.08889 z "
       id="path6070" />
    <path
       style="opacity:1;color:#000000;fill:#303030;fill-opacity:1;fill-rule:nonzero;stroke:none;stroke-width:80;stroke-linecap:butt;stroke-linejoin:miter;marker:none;marker-start:none;marker-mid:none;marker-end:none;stroke-miterlimit:4;stroke-dasharray:none;stroke-dashoffset:0;stroke-opacity:0.25465836;visibility:visible;display:inline;overflow:visible"
       d="M 310.99489,647.22581 C 319.11067,681.86075 355.96143,693.30864 384.00689,705.68997 C 442.86102,726.48421 505.92566,716.86141 566.65554,714.55321 C 617.5886,708.0608 675.47603,696.09449 707.10681,650.13892 C 732.84776,606.90761 723.40306,549.38656 694.13095,510.63321 C 639.91678,405.04547 590.13054,294.3537 510.82485,205.66013 C 484.13802,181.26092 436.47355,179.30568 414.32334,211.15885 C 384.2904,248.32743 379.92534,298.59852 360.29591,341.20537 C 333.91032,414.83224 302.63102,488.31338 295.17632,567.21014 C 294.68268,594.82635 305.94277,620.54452 310.99489,647.22581 z "
       id="path5080" />
    <path
       style="opacity:1;color:#000000;fill:#e2e2e2;fill-opacity:1;fill-rule:nonzero;stroke:none;stroke-width:80;stroke-linecap:butt;stroke-linejoin:miter;marker:none;marker-start:none;marker-mid:none;marker-end:none;stroke-miterlimit:4;stroke-dasharray:none;stroke-dashoffset:0;stroke-opacity:0.25465836;visibility:visible;display:inline;overflow:visible"
       d="M 360.65104,337.16282 C 328.9278,416.05123 294.9761,499.48919 304.25143,586.80124 C 308.83202,624.27321 318.03786,668.08486 353.09592,687.67757 C 409.08576,722.65964 477.00229,719.57939 540.01628,718.87853 C 565.89471,718.77532 591.81945,718.66488 617.60903,716.19752 C 637.8608,706.08304 622.75654,680.40991 606.48244,675.63692 C 589.58113,673.65897 575.06972,664.14951 562.05711,652.90112 C 528.12608,624.44599 506.43231,581.54021 502.67287,536.67784 C 495.89871,506.47098 488.25589,476.28582 486.1152,445.28224 C 475.6385,395.20913 448.18002,351.54466 424.88709,307.073 C 417.47809,291.71492 403.26265,269.6666 383.88579,279.42939 C 364.31082,290.56726 366.75098,316.61445 361.41361,335.66655 L 360.91293,336.64891 L 360.65104,337.16282 z "
       id="path7877" />
    <path
       style="opacity:1;color:#000000;fill:#000000;fill-opacity:1;fill-rule:nonzero;stroke:none;stroke-width:80;stroke-linecap:butt;stroke-linejoin:miter;marker:none;marker-start:none;marker-mid:none;marker-end:none;stroke-miterlimit:4;stroke-dasharray:none;stroke-dashoffset:0;stroke-opacity:0.25465836;visibility:visible;display:inline;overflow:visible"
       d="M 467.59209,176.45859 C 559.43449,186.81259 584.88596,290.26731 621.32931,361.16254 C 664.1775,444.43668 725.5835,525.40379 731.51589,622.32825 C 713.37114,715.73099 603.15754,725.35699 528.00866,729.09068 C 443.24529,730.54388 307.07395,736.46373 291.45047,622.69926 C 281.81057,505.42741 328.02941,392.88635 365.99521,284.61752 C 384.0425,236.15113 404.54046,170.78385 467.59209,176.45859 z M 463.07506,201.81059 L 459.35416,201.927 L 463.07506,201.81059 z M 468.1021,202.28143 C 395.00331,215.76342 394.59792,309.57235 363.70144,364.37654 C 331.23921,454.74142 294.67489,558.09643 327.98259,653.06584 C 377.38715,721.17412 472.15719,706.73668 544.88088,707.66572 C 616.25547,707.14299 728.1983,670.36611 698.56124,574.88083 C 657.16065,459.65098 588.39978,356.89093 532.15,248.9131 C 521.00015,223.37066 494.37264,206.37766 468.1021,202.28143 z "
       id="path3946" />
    <path
       style="opacity:1;color:#000000;fill:#000000;fill-opacity:1;fill-rule:nonzero;stroke:none;stroke-width:80;stroke-linecap:butt;stroke-linejoin:miter;marker:none;marker-start:none;marker-mid:none;marker-end:none;stroke-miterlimit:4;stroke-dasharray:none;stroke-dashoffset:0;stroke-opacity:0.25465836;visibility:visible;display:inline;overflow:visible"
       id="path3988"
       d="M 698.49714,685.64093 C 692.98803,682.75314 690.94673,676.22715 696.22867,683.70852 C 699.22899,688.05441 699.30727,692.77622 698.39542,697.73598 C 695.68738,702.16826 690.35228,703.08819 685.68928,704.36278 C 655.21695,705.0371 714.99361,708.28498 659.75447,705.54916 C 647.93315,704.95307 636.20928,702.91804 625.03493,698.79643 L 603.78935,721.53938 C 616.7219,727.2396 630.51141,730.17798 644.49235,731.28854 C 665.60848,733.01371 687.68872,733.33932 707.85167,726.16909 C 718.75789,721.40391 727.12087,713.53754 729.55154,701.17345 C 730.8789,691.17373 730.02163,681.01528 725.44425,671.86524 C 722.22482,665.61738 719.21357,659.05848 712.98664,655.45649 L 698.49714,685.64093 z " />
    <path
       style="opacity:1;color:#000000;fill:#000000;fill-opacity:1;fill-rule:nonzero;stroke:none;stroke-width:80;stroke-linecap:butt;stroke-linejoin:miter;marker:none;marker-start:none;marker-mid:none;marker-end:none;stroke-miterlimit:4;stroke-dasharray:none;stroke-dashoffset:0;stroke-opacity:0.25465836;visibility:visible;display:inline;overflow:visible"
       id="path3990"
       d="M 559.48091,717.42274 C 559.83599,713.80745 559.03524,718.10246 558.79672,719.24144 C 557.94978,723.16667 556.30732,726.63335 554.12443,729.89977 C 550.91469,733.01712 546.46479,734.3111 542.33815,735.74081 C 534.40783,739.36262 500.52981,742.68934 530.80311,739.13052 C 522.87211,740.39806 514.88165,740.38265 506.96661,739.01302 C 502.2845,738.07047 498.31887,735.64802 494.55376,732.75526 C 491.74434,730.52493 490.14224,727.37462 488.4991,724.23113 C 486.92576,720.90291 485.52554,717.49227 484.0673,714.1103 L 453.65826,724.20979 C 455.26298,727.77526 456.83085,731.35731 458.4295,734.92565 C 461.04286,740.30722 463.77263,745.69918 467.81944,750.12311 C 473.30846,755.80868 479.60075,760.49368 486.89587,763.41608 C 496.89811,767.07642 507.31627,768.38358 517.88826,767.51984 C 534.08968,765.65631 550.42339,763.97099 565.48473,757.16835 C 573.22872,753.32676 580.185,748.53902 584.25031,740.45642 C 586.88449,735.21082 588.95087,729.71174 590.50312,724.01494 C 591.31127,720.92119 592.33496,717.84195 592.14962,714.59075 L 559.48091,717.42274 z " />
    <path
       style="opacity:1;color:#000000;fill:#ff6600;fill-opacity:1;fill-rule:nonzero;stroke:none;stroke-width:80;stroke-linecap:butt;stroke-linejoin:miter;marker:none;marker-start:none;marker-mid:none;marker-end:none;stroke-miterlimit:4;stroke-dasharray:none;stroke-dashoffset:0;stroke-opacity:0.25465836;visibility:visible;display:inline;overflow:visible"
       d="M 420.61314,300.45752 C 406.86028,296.20264 401.32314,279.37073 387.3314,275.56927 C 368.18249,266.61217 346.72434,269.86032 326.37786,268.80452 C 303.48691,269.81616 280.78678,279.2865 264.25663,295.73626 C 259.69234,301.50217 259.69709,312.0961 266.94745,315.59184 C 275.28758,319.94769 284.93153,318.05627 293.9024,318.81844 C 325.01357,318.49439 355.9086,314.35215 386.79501,310.92764 C 396.06661,309.94074 405.4149,309.55149 414.67302,308.64165 C 418.0169,307.69828 422.50649,304.63928 420.61314,300.45752 z "
       id="path5971" />
    <path
       style="opacity:1;color:#000000;fill:#000000;fill-opacity:1;fill-rule:nonzero;stroke:none;stroke-width:80;stroke-linecap:butt;stroke-linejoin:miter;marker:none;marker-start:none;marker-mid:none;marker-end:none;stroke-miterlimit:4;stroke-dasharray:none;stroke-dashoffset:0;stroke-opacity:0.25465836;visibility:visible;display:inline;overflow:visible"
       id="path4006"
       d="M 661.36289,703.23618 C 655.68534,708.1853 641.71391,708.2635 632.78312,707.65811 C 610.41274,701.36939 592.28638,686.41327 576.00434,669.97117 C 545.02634,637.67235 521.10988,599.1682 502.92475,557.96015 C 482.68822,509.93113 474.32294,457.95214 460.9483,407.71649 C 448.47368,364.24104 427.82144,321.21539 392.33087,293.03822 C 357.62571,271.89939 345.09079,272.27285 314.81836,279.90162 C 299.34913,284.80989 282.09343,291.32375 272.21716,305.29109 C 278.56474,309.09651 296.28476,305.3438 304.62195,305.68098 C 275.82816,308.32167 349.35617,302.34581 355.70135,301.45082 C 367.53266,299.74888 379.31016,297.67046 391.00217,295.14739 C 395.49365,294.16489 399.9387,292.98356 404.38118,291.79294 L 424.64841,316.62996 C 419.85754,317.79716 415.07259,319.00174 410.2466,320.00889 C 397.77619,322.64229 385.18307,324.57982 372.51583,325.89025 C 344.85716,328.91182 316.99611,330.88093 289.18557,329.21037 C 270.12952,327.95577 235.01704,324.56755 243.09891,295.77834 C 252.99839,274.91656 277.82467,265.98502 297.62645,258.96982 C 337.53249,247.89034 380.46781,251.61935 413.07918,279.63734 C 448.64033,312.13339 469.69001,357.64152 482.88192,404.01909 C 495.90255,453.5049 503.55777,504.88979 524.67214,551.74266 C 542.58876,591.01262 566.42818,627.70432 598.26188,656.46927 C 613.25795,669.31873 630.65463,681.92577 650.93027,682.04746 C 647.30451,681.84374 661.11682,693.29936 664.07728,695.46706 L 661.36289,703.23618 z "
       sodipodi:nodetypes="ccccccccccccccccccccccccc" />
    <path
       style="opacity:1;color:#000000;fill:#46a1a6;fill-opacity:1;fill-rule:nonzero;stroke:none;stroke-width:80;stroke-linecap:butt;stroke-linejoin:miter;marker:none;marker-start:none;marker-mid:none;marker-end:none;stroke-miterlimit:4;stroke-dasharray:none;stroke-dashoffset:0;stroke-opacity:0.25465836;visibility:visible;display:inline;overflow:visible"
       d="M 469.42581,250.42411 C 460.14566,249.40868 450.81113,256.27319 448.49102,265.5478 C 445.94116,271.3876 447.98489,279.14786 453.49928,282.35352 C 459.62317,286.48742 467.68011,286.0869 474.20683,283.201 C 480.54809,280.62241 486.21018,275.53402 488.45731,268.7657 C 489.38712,262.96673 486.33358,257.27354 482.28519,253.46332 C 479.3927,251.05802 475.47139,250.19035 471.8336,250.76704 C 471.33786,250.68637 470.84748,250.52906 470.41957,250.25334"
       id="path9641" />
    <path
       style="opacity:1;color:#000000;fill:#000000;fill-opacity:1;fill-rule:nonzero;stroke:none;stroke-width:80;stroke-linecap:butt;stroke-linejoin:miter;marker:none;marker-start:none;marker-mid:none;marker-end:none;stroke-miterlimit:4;stroke-dasharray:none;stroke-dashoffset:0;stroke-opacity:0.25465836;visibility:visible;display:inline;overflow:visible"
       d="M 473.06184,238.78834 C 472.88858,238.79662 472.70158,238.82183 472.52911,238.83241 C 453.81489,238.92453 439.33585,259.10122 441.91015,277.60361 C 438.44683,287.75739 426.34475,285.93013 418.20943,287.7839 C 407.14817,291.95122 412.57273,304.89535 406.31719,311.91213 C 411.17523,319.51715 422.8485,317.38318 430.51366,315.8026 C 450.50205,309.10425 471.34594,301.3412 486.49198,285.69328 C 496.21885,275.82427 501.47992,258.92399 492.47545,246.75197 C 488.16769,240.16847 480.28161,238.4447 473.06184,238.78834 z M 467.12759,254.57128 C 467.36401,254.5543 467.15493,254.5667 467.39693,254.57035 C 472.4596,255.32855 479.64297,257.49553 479.08608,264.12372 C 478.05364,271.07259 470.77882,273.74202 464.9402,275.62395 C 458.28411,278.14562 455.07793,272.61396 457.24458,267.88635 C 458.78027,261.29826 461.31175,254.98915 467.12759,254.57128 z "
       id="path4016"
       sodipodi:nodetypes="ccccccccccccccc" />
  </g>
  <g
     inkscape:groupmode="layer"
     id="layer6"
     inkscape:label="beanie"
     style="display:inline">
    <path
       style="opacity:1;color:#000000;fill:#ff6600;fill-opacity:1;fill-rule:nonzero;stroke:none;stroke-width:3.05800009;stroke-linecap:butt;stroke-linejoin:miter;marker:none;marker-start:none;marker-mid:none;marker-end:none;stroke-miterlimit:4;stroke-dasharray:none;stroke-dashoffset:0;stroke-opacity:1;visibility:visible;display:inline;overflow:visible;enable-background:accumulate"
       d="M 454.28571,75.000013 C 360.61384,57.451623 263.84994,62.225723 170.19311,76.692783 C 146.69125,78.436523 60.463562,101.30607 117.69969,124.3224 C 170.70669,129.0637 223.72781,116.20768 276.24776,108.28225 C 337.02485,108.32543 397.15329,95.097953 454.28571,75.000013 z "
       id="path3381" />
    <path
       style="opacity:1;color:#000000;fill:#007900;fill-opacity:1;fill-rule:nonzero;stroke:none;stroke-width:3.05800009;stroke-linecap:butt;stroke-linejoin:miter;marker:none;marker-start:none;marker-mid:none;marker-end:none;stroke-miterlimit:4;stroke-dasharray:none;stroke-dashoffset:0;stroke-opacity:1;visibility:visible;display:inline;overflow:visible;enable-background:accumulate"
       d="M 395,170.00001 C 402.64322,100.92917 482.23007,121.24766 526.96967,167.90673 C 553.21874,224.79318 448.62532,244.18014 403.63346,225.77785 C 377.9492,216.70425 370.20551,185.55573 395,170.00001 z "
       id="path3403"
       sodipodi:nodetypes="cccc" />
    <path
       style="opacity:1;color:#000000;fill:#ff6600;fill-opacity:1;fill-rule:nonzero;stroke:none;stroke-width:3.05800009;stroke-linecap:butt;stroke-linejoin:miter;marker:none;marker-start:none;marker-mid:none;marker-end:none;stroke-miterlimit:4;stroke-dasharray:none;stroke-dashoffset:0;stroke-opacity:1;visibility:visible;display:inline;overflow:visible;enable-background:accumulate"
       d="M 534.28571,70.714283 C 616.05891,49.889603 702.22732,47.111313 785.32015,61.516253 C 806.43349,66.454033 820.06209,95.528313 805.42014,113.25438 C 796.81293,123.54779 782.19015,120.5028 770.84235,117.79461 C 754.23687,115.12558 737.33266,114.39727 720.80109,111.05672 C 665.50292,101.47476 611.03024,84.200033 554.42956,84.454953 C 546.40207,82.481883 538.57342,77.990323 534.28571,70.714283 z "
       id="path3383" />
    <path
       style="opacity:1;color:#000000;fill:#000000;fill-opacity:1;fill-rule:nonzero;stroke:none;stroke-width:3.05800009;stroke-linecap:butt;stroke-linejoin:miter;marker:none;marker-start:none;marker-mid:none;marker-end:none;stroke-miterlimit:4;stroke-dasharray:none;stroke-dashoffset:0;stroke-opacity:1;visibility:visible;display:inline;overflow:visible;enable-background:accumulate"
       id="path2384"
       d="M 393.34013,208.68866 C 394.12632,209.09563 394.97843,209.33981 395.79698,209.66515 C 397.08699,210.09376 398.44212,210.24564 399.7675,210.51529 C 402.09163,210.92744 404.44556,211.0965 406.79109,211.31726 C 409.86954,211.53712 412.95682,211.55671 416.04136,211.61789 C 419.58376,211.62276 423.12514,211.56349 426.66589,211.47536 C 430.19911,211.39653 433.72552,211.18922 437.25308,210.98689 C 440.6804,210.83179 444.10239,210.59768 447.52587,210.37733 C 451.02822,210.14748 454.52781,209.87064 458.02877,209.61696 C 461.59213,209.386 465.15044,209.06852 468.70867,208.76878 C 472.33254,208.45203 475.94159,207.99149 479.5549,207.57496 C 483.13192,207.0705 486.70329,206.52769 490.26971,205.95289 C 493.79971,205.45281 497.32004,204.89698 500.84089,204.33703 C 503.99257,203.76255 507.15213,203.23986 510.29924,202.64096 C 513.19052,202.16477 516.0566,201.55419 518.92854,200.97883 C 521.33339,200.5683 523.63628,199.80072 525.94856,199.06215 C 527.50059,199.37311 527.57014,196.93822 527.68131,196.79261 C 523.74099,192.66234 520.89908,206.05187 518.39804,211.18315 C 519.30125,210.73446 519.46792,209.77224 520.0187,209.04589 C 520.49239,207.68087 520.2101,206.22134 520.18617,204.81285 C 520.12156,203.02 519.7095,201.26927 519.42166,199.5069 C 519.04957,197.39632 518.54003,195.31332 518.04924,193.22812 C 517.61068,191.05761 516.91811,188.95987 516.27306,186.84859 C 515.66955,185.11088 515.25523,183.31774 514.77558,181.54448 C 514.56489,181.25469 514.86885,180.834 514.91548,180.47877 C 515.68348,180.96656 514.27292,180.7393 514.02275,180.84073 C 512.46589,180.93374 510.94454,181.28525 509.41259,181.54684 C 506.9613,182.12602 504.48564,182.58696 502.0179,183.08698 C 499.16803,183.62736 496.31857,184.16456 493.46625,184.69156 C 490.3954,185.21941 487.30079,185.5846 484.20805,185.95412 C 481.0307,186.33906 477.84376,186.63814 474.65759,186.93886 C 471.39591,187.23759 468.127,187.44395 464.8587,187.65312 C 461.32582,187.85223 457.79063,188.00324 454.2559,188.16422 C 450.62813,188.35944 446.99481,188.38454 443.36321,188.45177 C 439.94626,188.5048 436.52923,188.55146 433.11214,188.59422 C 429.82909,188.63912 426.54524,188.55758 423.26224,188.51742 C 420.15021,188.50231 417.04126,188.36026 413.93166,188.24743 C 411.12379,188.15077 408.31553,188.06554 405.50735,187.9784 C 402.85601,187.83597 400.20555,187.86216 397.55309,187.87181 C 395.65608,187.80897 393.89746,188.45431 392.0997,188.90478 C 390.70368,189.06598 389.99723,190.33757 388.99579,191.02003 C 388.19168,191.80033 388.13311,193.07827 387.74073,194.01444 C 387.38872,195.3508 386.8932,196.64803 386.44443,197.95527 C 401.15008,171.30712 396.48926,180.10038 392.6037,185.49297 C 391.8591,186.7977 391.59113,188.26052 391.11296,189.6563 C 390.67675,191.15298 390.46679,192.6916 390.20715,194.2255 C 389.98537,195.98318 390,197.75885 389.94378,199.52663 C 389.81176,200.63529 389.66035,201.74195 389.51864,202.84949 C 389.45139,203.44396 389.52294,204.07304 389.52495,204.64387 C 389.62601,205.33684 390.32121,205.68099 390.70409,206.17968 C 391.39847,206.85236 392.32139,207.18689 393.12475,207.6872 C 394.05981,208.26019 395.15189,208.42455 396.16212,208.79201 C 397.20359,209.02453 398.26853,209.05961 399.32004,209.19319 L 391.31132,236.79896 C 389.34396,236.40961 387.34619,236.12695 385.44232,235.4651 C 383.57114,234.78003 381.67659,234.14755 379.90788,233.21086 C 378.12547,232.20947 376.26654,231.3278 374.65257,230.04843 C 372.88568,228.60756 371.06475,227.22344 369.63014,225.42373 C 368.1983,223.41535 366.65105,221.49039 365.8537,219.10131 C 365.14209,216.8167 364.28399,214.56534 364.25049,212.12996 C 364.26355,210.18871 364.30475,208.24681 364.246,206.30589 C 364.26919,204.23044 364.21145,202.1378 364.42299,200.06803 C 364.63758,197.98743 364.76607,195.89504 365.18818,193.84405 C 366.88333,185.18455 368.815,180.6063 375.33856,171.54955 C 376.75191,169.74168 378.08869,167.85809 379.94396,166.457 C 382.19345,164.92323 384.37721,163.32093 387.00549,162.46329 C 389.60522,161.67829 392.1836,160.78837 394.91331,160.5365 C 397.77164,160.28767 400.62615,159.97219 403.50372,160.16173 C 406.3152,160.24682 409.12724,160.32511 411.93843,160.42473 C 414.77062,160.5356 417.60299,160.64268 420.43423,160.77726 C 423.41432,160.89297 426.39373,161.01634 429.37681,161.0253 C 432.51627,161.08123 435.65604,161.14042 438.7961,161.09128 C 442.18328,161.05678 445.57055,161.02702 448.95752,160.97487 C 452.41712,160.91803 455.87559,160.83787 459.32989,160.62313 C 462.76075,160.43479 466.1916,160.23868 469.61603,159.9518 C 472.74289,159.69781 475.86948,159.4393 478.98919,159.10618 C 482.00416,158.78579 485.01909,158.46384 488.02095,158.03325 C 490.83616,157.58973 493.65664,157.17476 496.44752,156.5897 C 499.20406,156.04377 501.96468,155.51793 504.71593,154.94593 C 507.47978,154.35248 510.2336,153.68295 513.04607,153.35356 C 515.8778,153.14326 518.71244,152.79874 521.54694,153.26051 C 524.78024,153.97171 528.00117,154.50301 530.7576,156.53767 C 533.21881,158.52885 535.56024,160.49714 536.92283,163.45119 C 537.83259,165.6081 538.84755,167.72632 539.27591,170.05456 C 539.99168,172.34992 540.69958,174.65451 541.3996,176.95877 C 541.99918,179.21131 542.61697,181.45766 543.19784,183.71488 C 543.70102,185.81545 544.2308,187.90881 544.68015,190.02207 C 545.07102,192.17417 545.48308,194.32064 545.81838,196.48254 C 546.03386,198.78594 546.41133,201.09601 546.09592,203.41776 C 542.29162,211.44633 541.0996,221.59696 532.29837,225.15815 C 529.68137,226.072 527.09166,227.06549 524.33348,227.48952 C 521.59487,228.03431 518.85991,228.59817 516.11155,229.0931 C 513.13919,229.61953 510.16539,230.13566 507.18803,230.63326 C 503.91761,231.15745 500.64999,231.70284 497.37083,232.17062 C 493.85689,232.68458 490.33884,233.16995 486.82942,233.7146 C 483.06719,234.25559 479.30711,234.82318 475.52633,235.22167 C 471.76605,235.66058 468.00405,236.08596 464.22948,236.38559 C 460.59096,236.67816 456.95307,236.97715 453.31177,237.2328 C 449.76676,237.49473 446.22348,237.78042 442.6752,237.99555 C 439.18702,238.21454 435.69722,238.39491 432.20547,238.54884 C 428.53848,238.70689 424.87053,238.83397 421.20063,238.90737 C 417.45669,238.94837 413.71261,239.01578 409.96836,238.99784 C 406.55762,238.95649 403.1454,238.92048 399.74242,238.6583 C 396.89797,238.41406 394.04967,238.18222 391.22635,237.74615 C 389.0877,237.34407 386.92995,237.01285 384.85987,236.31218 C 383.62978,235.88715 382.37802,235.52285 381.175,235.02042 L 393.34013,208.68866 z " />
    <path
       style="opacity:1;color:#000000;fill:#000000;fill-opacity:1;fill-rule:nonzero;stroke:none;stroke-width:3.05800009;stroke-linecap:butt;stroke-linejoin:miter;marker:none;marker-start:none;marker-mid:none;marker-end:none;stroke-miterlimit:4;stroke-dasharray:none;stroke-dashoffset:0;stroke-opacity:1;visibility:visible;display:inline;overflow:visible;enable-background:accumulate"
       id="path2392"
       d="M 383.5479,163.51167 C 384.07757,162.36207 384.78869,161.3178 385.42383,160.22524 C 386.66143,158.50526 387.5531,156.57055 388.56179,154.70706 C 389.81879,152.22576 391.42204,149.94975 392.95423,147.6355 C 394.74948,144.70319 397.02406,142.11102 399.25843,139.51304 C 401.68881,136.62578 404.42559,134.02769 407.15545,131.43113 C 409.91852,128.85794 412.73545,126.3474 415.59607,123.88403 C 418.21871,121.4674 421.15625,119.45861 424.08752,117.4461 C 426.76986,115.59198 429.62148,114.02463 432.50124,112.51088 C 435.52073,110.95858 438.80688,110.21809 442.09683,109.51622 C 445.40311,108.76438 448.77436,108.80802 452.13828,108.85954 C 455.59561,109.02086 458.96391,109.75865 462.32385,110.52585 C 465.53686,111.28786 468.61205,112.49611 471.67962,113.69505 C 474.63375,114.87557 477.43285,116.39157 480.23072,117.89416 C 482.97397,119.35955 485.53451,121.12434 488.09687,122.8777 C 490.51628,124.56555 492.78212,126.45704 495.07502,128.30904 C 497.19827,129.97976 499.18135,131.81147 501.18193,133.62342 C 503.11276,135.382 504.88965,137.29438 506.69227,139.18031 C 508.44234,140.99735 510.04841,142.94313 511.68058,144.86435 C 513.2482,146.68853 514.67796,148.62298 516.1271,150.54034 C 517.54124,152.41527 518.85883,154.35943 520.18852,156.29407 C 521.50961,158.19769 522.76342,160.14373 524.01629,162.09213 C 524.35112,162.68159 524.74128,163.23606 525.10377,163.80802 L 504.97298,184.03415 C 504.57843,183.41914 504.22489,182.77789 503.78935,182.18912 C 502.6891,180.36724 501.62259,178.5208 500.39706,176.77881 C 499.21032,175.00436 498.04037,173.21928 496.8117,171.4732 C 495.57561,169.77315 494.35783,168.06037 493.06792,166.40009 C 491.67987,164.68634 490.29971,162.96481 488.85294,161.29979 C 487.31552,159.62589 485.79213,157.93627 484.15831,156.35489 C 482.43596,154.72713 480.74707,153.05765 478.89949,151.56837 C 476.96694,149.95953 475.07298,148.29728 473.03119,146.82524 C 470.98858,145.41109 468.97537,143.94762 466.78653,142.75869 C 464.55928,141.57984 462.35999,140.33317 459.99807,139.43328 C 457.7062,138.58961 455.43706,137.65717 453.02324,137.20384 C 450.81599,136.84715 448.61514,136.35916 446.35892,136.56628 C 444.31408,136.88694 442.22628,136.98138 440.27679,137.79775 C 438.41878,138.69631 436.47151,139.42706 434.80592,140.69873 C 432.58436,142.17678 430.33855,143.62351 428.24687,145.28586 C 425.88663,147.26437 423.50909,149.22222 421.25882,151.33009 C 418.75371,153.69665 416.22079,156.04174 413.9058,158.5985 C 411.76986,161.06692 409.65668,163.55546 407.82655,166.26612 C 406.25108,168.77653 404.6812,171.28256 403.28889,173.90233 C 402.08383,176.23107 400.90029,178.56678 399.6788,180.88704 C 398.64033,182.80098 397.49679,184.66127 396.58614,186.6331 C 395.9543,187.86478 395.39928,189.1318 394.66041,190.30513 L 383.5479,163.51167 z " />
    <path
       style="opacity:1;color:#000000;fill:#000000;fill-opacity:1;fill-rule:nonzero;stroke:none;stroke-width:3.05800009;stroke-linecap:butt;stroke-linejoin:miter;marker:none;marker-start:none;marker-mid:none;marker-end:none;stroke-miterlimit:4;stroke-dasharray:none;stroke-dashoffset:0;stroke-opacity:1;visibility:visible;display:inline;overflow:visible;enable-background:accumulate"
       id="path2394"
       d="M 437.01986,128.28905 C 437.59472,127.22268 437.68496,125.93337 437.96686,124.74264 C 438.45511,122.67716 438.62091,120.55887 438.86057,118.45633 C 439.11695,115.80299 439.23982,113.13997 439.39162,110.47949 C 439.52217,107.86342 439.62095,105.24595 439.72526,102.62876 C 439.87046,100.14083 439.93593,97.655423 439.98431,95.164513 C 440.00676,92.606663 439.94656,90.050333 439.89745,87.493863 C 439.93167,85.469323 439.96063,83.445323 439.99069,81.421163 L 465.82285,69.473733 C 465.67723,71.342543 465.47995,73.202693 465.47068,75.081333 C 465.3597,77.529023 465.22905,79.971163 465.32038,82.425433 C 465.35756,85.099933 465.46179,87.775753 465.33995,90.448633 C 465.23788,93.118443 465.13891,95.788393 465.01862,98.457473 C 464.90603,101.20268 464.78525,103.94753 464.68577,106.69326 C 464.60525,109.04289 464.5183,111.39231 464.44793,113.74225 C 464.31047,115.25425 464.19344,116.76624 464.20992,118.27786 L 437.01986,128.28905 z " />
    <path
       style="opacity:1;color:#000000;fill:#000000;fill-opacity:1;fill-rule:nonzero;stroke:none;stroke-width:3.05800009;stroke-linecap:butt;stroke-linejoin:miter;marker:none;marker-start:none;marker-mid:none;marker-end:none;stroke-miterlimit:4;stroke-dasharray:none;stroke-dashoffset:0;stroke-opacity:1;visibility:visible;display:inline;overflow:visible;enable-background:accumulate"
       id="path2410"
       d="M 473.05746,99.465923 C 471.43489,97.167103 468.74118,95.949913 466.33376,94.614643 C 455.04992,88.804943 442.71427,85.662253 430.44884,82.710643 C 407.15315,77.369313 383.27621,75.794823 359.47532,74.683703 C 330.67914,73.506363 301.88378,74.683833 273.16305,76.760833 C 248.03526,78.619183 223.07509,82.077613 198.22571,86.166773 C 178.76499,89.359783 159.53973,93.756063 140.53811,99.002373 C 126.95827,102.79188 113.70663,107.612 100.83986,113.35819 C 87.740573,121.87941 91.137283,127.84216 96.756163,105.42083 C 99.915523,109.13252 112.39044,110.13807 119.09706,110.80141 C 141.32513,112.23558 163.58843,110.48763 185.75073,108.82542 C 214.54116,106.34526 243.22691,102.79088 271.92175,99.406613 C 304.37755,95.572073 336.72593,90.903823 368.98576,85.685273 C 400.70576,80.384323 432.3505,74.647073 464.0205,69.058123 C 491.38216,64.161113 518.8303,59.785023 546.32888,55.735823 C 569.77873,52.296803 593.31649,49.518393 616.89617,47.148293 C 636.99798,45.105143 657.17397,44.016573 677.36699,43.486573 C 694.57263,43.024253 711.749,44.010643 728.8345,45.972653 C 743.15477,47.648833 757.21496,50.841403 771.08478,54.705193 C 782.40387,57.879253 793.28028,62.308923 803.7717,67.574203 C 811.68364,71.556513 818.96406,76.577393 825.63893,82.374573 C 839.02022,94.508483 835.72605,99.441333 830.22679,118.61592 C 820.96781,124.48663 809.91595,125.06281 799.26296,125.52161 C 783.09668,125.98612 767.03382,123.84572 751.01522,121.99072 C 730.67323,119.34192 710.55614,115.29686 690.42783,111.39894 C 666.51081,106.59424 642.48386,102.39413 618.42448,98.375913 C 595.82336,94.609913 573.19916,90.984543 550.57691,87.348173 C 530.63305,84.193353 510.71034,80.907773 490.79925,77.552943 C 474.07765,74.714463 457.36447,71.826163 440.65042,68.943453 C 429.6964,67.034353 418.71165,65.313053 407.70933,63.708543 L 412.67191,39.296363 C 423.69835,41.319583 434.7027,43.458503 445.67948,45.737013 C 462.24912,49.111903 478.82628,52.453953 495.44228,55.593953 C 515.22727,59.339703 535.04999,62.879183 554.88349,66.358323 C 577.45488,70.314723 600.01942,74.310153 622.57503,78.355513 C 646.63587,82.600313 670.71059,86.754753 694.8284,90.665563 C 714.77445,93.994353 734.73774,97.303543 754.85196,99.461653 C 770.05225,100.97546 785.3936,102.20618 800.63729,100.48247 C 806.19287,99.649633 815.53984,98.885953 816.70052,94.284423 C 810.29993,121.32846 817.49257,114.11458 811.74147,105.32518 C 806.46118,99.926303 800.84064,94.972823 794.12524,91.358723 C 784.7109,86.065643 774.85853,81.635893 764.51953,78.449893 C 751.46266,74.433113 738.19074,71.113483 724.63955,69.242283 C 708.23631,67.016523 691.72243,65.799463 675.15693,65.956693 C 655.32,66.089313 635.48852,66.794263 615.71501,68.448843 C 592.34446,70.381083 569.00925,72.722153 545.7434,75.671753 C 518.369,79.191033 491.03618,83.023293 463.78455,87.401483 C 432.08641,92.429493 400.40402,97.555423 368.71543,102.64319 C 336.26,107.90888 303.84417,113.45693 271.25181,117.83252 C 242.43588,121.66407 213.56402,125.03754 184.69215,128.41701 C 161.83024,131.00292 138.92122,133.76511 115.89073,134.12065 C 102.32208,134.00958 87.774173,134.41748 77.098473,124.75842 C 66.671343,107.05734 83.084853,93.361813 98.071823,88.546133 C 111.71841,83.586643 125.61101,79.328353 139.7656,76.058413 C 159.24523,71.573383 178.89267,67.842083 198.71245,65.195513 C 223.89089,61.832973 249.15699,59.125323 274.52502,57.673793 C 303.6169,56.069473 332.72598,55.290583 361.86577,55.639313 C 386.44398,55.998863 411.06046,56.759533 435.40565,60.468913 C 448.86551,62.611803 462.33976,64.947873 475.29929,69.290413 C 479.18547,70.596623 483.12143,71.857323 486.75941,73.775953 L 473.05746,99.465923 z " />
  </g>
  <g
     inkscape:groupmode="layer"
     id="layer7"
     inkscape:label="bomb">
    <g
       id="g6550"
       transform="translate(208.57143,-157.85714)">
      <path
         style="opacity:1;color:#000000;fill:#ff0000;fill-opacity:1;fill-rule:nonzero;stroke:none;stroke-width:3.05800009;stroke-linecap:butt;stroke-linejoin:miter;marker:none;marker-start:none;marker-mid:none;marker-end:none;stroke-miterlimit:4;stroke-dasharray:none;stroke-dashoffset:0;stroke-opacity:1;visibility:visible;display:inline;overflow:visible;enable-background:accumulate"
         d="M 148.74496,487.09505 C 146.18483,488.85221 141.69845,491.61618 138.89597,494.41865 C 136.47888,496.83575 134.56004,498.79737 133.0876,501.74226 C 131.94754,504.02237 130.72634,506.50897 129.8046,508.81333 C 128.4521,512.19459 127.13144,515.57011 126.01653,518.91485 C 125.84817,519.41993 125.67981,519.92501 125.51145,520.43008 C 125.34309,520.93516 125.17474,521.44023 125.00638,521.94531 C 124.1766,524.43464 124.31146,527.6579 125.25891,530.02653 C 126.02604,531.94434 126.87972,533.77323 127.7843,535.58237 C 128.79419,537.60216 129.85753,539.37448 131.06729,541.39075 C 132.54161,543.84795 133.83045,546.41199 135.1079,548.96689 C 136.32674,551.40456 136.62313,553.88723 136.62313,556.79557 C 136.62313,559.85337 136.40909,563.76809 137.12821,566.64456 C 137.81875,569.40673 137.88582,572.06855 137.88582,574.97832 C 137.88582,578.53554 137.54195,582.44167 138.3909,585.83746 C 138.9277,587.98466 139.42775,590.25039 140.66374,591.89837 C 142.16704,593.90277 145.04739,594.84781 147.22973,595.93898 C 149.307,596.97762 151.70955,597.54205 153.79572,597.95929 C 155.09039,598.21822 160.22908,595.37396 161.62441,594.67629 C 163.8303,593.57335 166.39915,592.67947 168.1904,590.88822 C 170.17205,588.90657 171.72593,585.68234 171.72593,582.807 C 171.72593,580.25029 173.00729,577.15783 173.4937,574.72578 C 174.05788,571.90489 174.75639,568.48124 174.75639,565.63441 C 174.75639,560.96029 173.88067,557.72027 172.98862,553.26004 C 172.31959,549.91487 172.48355,545.8257 172.48355,542.4009 C 172.48355,537.89868 171.47339,533.44899 171.47339,529.01638 C 171.47339,526.27543 168.3574,521.29767 166.92771,518.91485 C 165.26728,516.14747 163.60962,512.89248 162.38202,509.82348 C 161.06292,506.52572 161.03278,503.07727 160.36172,499.72195 C 159.89134,497.37005 159.65659,494.88114 159.09903,492.65089 C 158.65366,490.86943 157.77036,489.48848 157.07872,488.1052 C 156.50974,486.96724 154.29438,485.95541 153.03811,485.32728 C 151.44409,484.53027 150.88693,485.45816 150.26019,486.0849 C 149.41591,486.92917 151.00238,486.19208 148.74496,487.09505 z "
         id="path7604"
         transform="translate(-208.57143,157.85714)" />
      <path
         style="opacity:1;color:#000000;fill:#008000;fill-opacity:1;fill-rule:nonzero;stroke:none;stroke-width:3.05800009;stroke-linecap:butt;stroke-linejoin:miter;marker:none;marker-start:none;marker-mid:none;marker-end:none;stroke-miterlimit:4;stroke-dasharray:none;stroke-dashoffset:0;stroke-opacity:1;visibility:visible;display:inline;overflow:visible;enable-background:accumulate"
         d="M 91.418808,621.69788 C 74.893893,627.04816 56.043501,622.87013 43.735921,610.46667 C 35.231191,601.65545 18.7379,591.22595 13.00951,608.22763 C 7.6151498,620.54293 -1.3106174,631.16141 -5.7484061,643.81265 C -5.5552052,659.77403 15.821177,660.45931 24.598063,670.36283 C 31.318842,682.83387 26.278047,698.61166 27.773343,712.44497 C 28.348808,726.41541 26.293581,740.73772 29.225873,754.46958 C 33.896085,770.12484 42.358473,784.29796 48.990872,799.13463 C 57.276995,813.71768 74.152008,819.35186 88.812287,825.26159 C 100.6992,828.80576 113.40114,827.40133 125.67932,827.88634 C 137.12837,829.58725 146.14568,822.16286 157.34041,822.51863 C 170.62043,822.77014 176.16172,808.40724 187.10631,803.01641 C 203.23683,792.25772 216.40798,777.56549 225.31217,760.33416 C 236.7596,741.57333 236.13194,718.99107 238.10602,697.84907 C 240.24384,678.7208 235.8306,658.6251 223.17201,643.71693 C 215.3902,632.85679 203.76004,626.56689 191.69469,621.65148 C 170.88535,611.19352 147.37992,607.33247 124.24289,609.04322 C 111.65427,607.87285 102.54343,617.88516 91.418808,621.69788 z "
         id="path5579" />
      <path
         style="opacity:1;color:#000000;fill:url(#radialGradient7600);fill-opacity:1;fill-rule:nonzero;stroke:none;stroke-width:3.05800009;stroke-linecap:butt;stroke-linejoin:miter;marker:none;marker-start:none;marker-mid:none;marker-end:none;stroke-miterlimit:4;stroke-dasharray:none;stroke-dashoffset:0;stroke-opacity:1;visibility:visible;display:inline;overflow:visible;enable-background:accumulate"
         d="M 91.418808,621.69788 C 46.291752,620.8946 4.5175362,573.01106 -6.0609152,647.96184 C 64.367092,678.45565 -4.9627015,791.45302 77.276669,820.69792 C 156.51149,854.8292 245.99932,778.61888 238.396,694.93393 C 246.86615,623.2659 142.74404,587.87469 91.418808,621.69788 z "
         id="path7543" />
      <path
         d="M -54.316566,655.38961 C -55.144756,655.16844 -56.152786,655.80688 -56.992896,655.99778 C -59.118196,656.78019 -60.666466,658.36516 -62.351266,659.78748 C -64.713446,662.03756 -66.501506,664.73985 -68.269986,667.45224 C -70.007216,670.16594 -71.078166,673.16734 -72.047746,676.21233 C -72.999726,678.92611 -73.149066,681.76331 -73.393096,684.58964 C -73.746606,686.74694 -72.937896,688.6532 -72.430336,690.6537 C -72.094716,691.94429 -70.618266,691.93624 -69.806226,692.51099 C -65.083576,690.72587 -77.601096,686.08108 -81.696326,683.12827 C -82.902016,683.95323 -81.485486,683.97142 -81.443706,684.13852 C -80.394426,683.99368 -79.495616,683.37066 -78.527816,682.98919 C -68.389486,676.03846 -62.358896,692.24194 -57.788116,697.43277 C -58.343176,700.32598 -59.115306,703.17357 -59.837636,706.02868 C -60.684186,709.22723 -61.167146,712.49787 -61.628446,715.76741 C -62.090626,719.19054 -62.123726,722.6396 -62.121876,726.08602 C -62.113866,729.4253 -61.625796,732.7143 -61.043536,735.98994 C -60.594856,738.86966 -59.241116,741.37861 -57.986606,743.94707 C -56.853426,746.19924 -55.059256,747.17573 -53.013416,748.33242 C -71.917846,730.5226 -65.377136,737.63685 -61.063566,741.63244 C -59.389826,742.66626 -57.891536,742.12049 -56.133436,742.0391 C -53.675016,741.38196 -51.991316,739.62737 -50.122236,738.05255 C -47.827976,735.75191 -46.293926,732.93083 -44.787446,730.09572 C -43.203506,726.97648 -42.557416,723.57979 -41.950126,720.17558 C -41.328696,716.39518 -41.235616,712.57714 -41.194786,708.7581 C -41.226956,705.03307 -41.874296,701.37658 -42.556136,697.72954 C -43.251796,694.16884 -44.493666,690.7603 -45.697696,687.35002 C -46.829426,684.33236 -48.186016,681.41102 -49.570846,678.50416 C -50.880946,675.88993 -52.248896,673.30558 -53.600366,670.71254 C -54.936716,667.95653 -56.278496,665.20319 -57.593756,662.43699 C -58.788476,659.85846 -60.042386,657.30776 -61.295526,654.75738 C -61.703876,653.69212 -62.299426,652.71584 -62.800696,651.69643 L -38.015996,653.0861 C -37.570226,654.09171 -37.194326,655.12974 -36.678226,656.10397 C -35.506036,658.64576 -34.338206,661.19029 -33.105356,663.70355 C -31.785916,666.38143 -30.481366,669.06702 -29.090956,671.70922 C -27.706566,674.53778 -26.324866,677.37053 -25.171636,680.30381 C -23.875526,683.67812 -22.586036,687.05963 -21.622166,690.54814 C -20.512646,694.64118 -19.455646,698.75131 -18.953746,702.97396 C -18.456006,707.44994 -18.000266,711.93772 -18.286256,716.45094 C -18.590176,720.99152 -18.921386,725.5379 -19.872726,730.00103 C -21.032996,734.6102 -22.259236,739.2028 -24.568076,743.40531 C -26.846966,747.39704 -29.164606,751.37802 -32.399066,754.70064 C -35.563446,757.75595 -38.756776,760.75838 -42.816746,762.62026 C -46.666126,764.17537 -50.498996,765.66659 -54.749636,765.42943 C -65.264066,764.47012 -68.645926,761.31534 -77.334636,751.97031 C -79.357966,748.76807 -81.267816,745.51258 -82.355916,741.84541 C -83.433006,738.1109 -84.456946,734.35869 -84.764376,730.46225 C -85.086466,726.4831 -85.377016,722.49774 -85.192806,718.50099 C -85.001426,714.49774 -84.784486,710.49219 -84.128566,706.5307 C -83.532986,702.97423 -82.900776,699.42588 -82.182296,695.89172 C -82.017896,694.67707 -81.099956,691.70815 -82.154256,691.42384 C -79.479956,694.1645 -71.206846,710.71413 -64.689926,703.98697 C -65.958836,704.50087 -67.279036,704.91215 -68.494616,705.56579 C -71.004616,706.48455 -73.483546,707.48449 -76.203376,707.57964 C -84.398336,707.23086 -91.426616,701.52955 -94.742766,693.72673 C -95.617136,691.05314 -96.600006,688.41917 -96.640166,685.55265 C -96.757246,682.27007 -96.780106,678.98957 -96.238186,675.73349 C -95.561996,671.97749 -94.814116,668.23501 -93.457306,664.65011 C -91.872476,660.66339 -90.231426,656.6949 -87.837706,653.10386 C -85.476616,649.58522 -83.070126,646.09595 -80.095236,643.05185 C -77.547476,640.52898 -75.003456,637.98477 -71.894836,636.136 C -70.192886,635.17404 -68.530866,634.149 -66.721786,633.38747 L -54.316566,655.38961 z "
         id="path4596"
         style="color:#000000;fill:#ffff00;fill-opacity:0.68770766;fill-rule:nonzero;stroke:none;stroke-width:3.05800009;stroke-linecap:butt;stroke-linejoin:miter;marker:none;marker-start:none;marker-mid:none;marker-end:none;stroke-miterlimit:4;stroke-dasharray:none;stroke-dashoffset:0;stroke-opacity:1;visibility:visible;display:inline;overflow:visible;enable-background:accumulate" />
      <path
         d="M 86.178744,616.82435 C 82.437024,618.0576 79.589834,620.37548 76.671674,622.46973 C 68.132494,628.79301 61.674414,636.55147 55.573814,644.43148 C 46.518964,656.14197 40.625804,669.20933 35.919884,682.63582 C 30.961804,697.58215 30.013924,713.31997 30.862564,729.20067 C 31.823914,744.42587 34.994084,759.582 41.166474,774.52416 C 46.870314,787.41282 56.529944,798.71076 69.086324,808.49762 C 70.371264,809.66723 81.256874,815.54912 98.329274,819.18145 C 115.48728,821.99309 131.05298,818.66381 145.88084,813.90652 C 164.27919,807.46437 178.55181,796.78284 191.31514,785.04697 C 205.30213,771.7565 214.82351,756.11736 222.10759,739.59522 C 228.89314,723.43678 230.43412,706.1826 228.84092,688.57781 C 227.15061,673.28261 220.27183,658.95658 209.55718,645.4109 C 195.08043,631.05268 197.10943,633.07058 181.65525,625.70422 C 166.73865,619.20578 151.10905,617.98541 135.42399,618.69836 C 118.0642,620.00135 103.02584,625.5718 89.143354,632.62375 C 74.737334,640.3465 63.987534,650.95418 54.932364,662.55814 C 47.883124,672.05947 43.569904,682.69231 39.918684,693.48547 L 22.089654,685.35725 C 26.310864,673.99163 31.206664,662.80107 38.862534,652.79676 C 48.792334,640.41492 60.335984,628.96162 75.740754,620.55949 C 90.797034,612.68801 107.08385,606.31556 125.89479,604.32333 C 143.50567,602.93018 161.27541,603.55295 178.62916,609.98263 C 199.21721,618.41832 217.02314,631.00487 228.98792,646.821 C 239.1914,661.83965 245.51494,677.50256 246.56735,693.85296 C 247.41131,712.32839 245.26985,730.42174 237.88042,747.32431 C 230.02214,764.53168 220.00881,780.92009 205.59752,794.96383 C 192.13396,807.60513 177.0964,819.18374 157.89653,826.62751 C 141.50572,832.47937 124.21734,836.74973 104.86996,834.72219 C 82.941364,831.46603 65.087684,823.2516 49.301164,809.27842 C 36.895464,797.79941 27.223764,785.12797 21.960724,770.98325 C 16.458414,755.31211 13.589274,739.50828 12.905304,723.6926 C 12.354174,707.03967 13.566214,690.55298 18.785264,674.86793 C 23.667394,660.76054 29.757914,647.03794 38.541114,634.40669 C 44.603484,625.70198 51.068834,617.18502 59.150194,609.62275 C 62.197054,606.77099 65.241274,603.90896 68.622724,601.29992 L 86.178744,616.82435 z "
         id="path4582"
         style="color:#000000;fill:#000000;fill-opacity:1;fill-rule:nonzero;stroke:none;stroke-width:3.05800009;stroke-linecap:butt;stroke-linejoin:miter;marker:none;marker-start:none;marker-mid:none;marker-end:none;stroke-miterlimit:4;stroke-dasharray:none;stroke-dashoffset:0;stroke-opacity:1;visibility:visible;display:inline;overflow:visible;enable-background:accumulate" />
      <path
         d="M 32.517854,686.56983 C 31.567664,686.0568 30.745684,685.34647 29.857584,684.73339 C 28.574574,683.68907 27.230494,682.72802 25.910514,681.73475 C 24.267114,680.49488 22.589414,679.30012 20.932334,678.07865 C 19.016484,676.70959 17.111604,675.3278 15.220774,673.9243 C 13.345314,672.50128 11.451344,671.10246 9.5710737,669.6855 C 3.2415837,665.40059 -2.1185563,660.22542 -7.9374163,655.1396 C -9.7771663,653.34027 -10.850616,651.07574 -12.031846,648.84456 C -13.232156,646.54227 -13.424336,644.01709 -13.791106,641.51234 C -14.102436,639.06271 -13.692706,636.65713 -13.397116,634.24124 C -12.949586,631.74135 -11.981656,629.38805 -11.116626,627.01518 C -10.188146,624.67403 -9.0819963,622.41065 -8.0184863,620.12995 C -6.8799563,617.84879 -5.7144763,615.58118 -4.5589863,613.30869 C -3.4221963,611.03935 -2.2417363,608.79267 -1.0707763,606.5409 C 0.071063734,604.27181 1.3197637,602.05955 2.5529037,599.83967 C 3.7036237,597.63177 5.0488337,595.54128 6.3697037,593.4355 C 7.7983337,591.04151 9.9890237,589.45411 12.086924,587.72989 C 14.216714,586.14293 16.695304,585.67069 19.193374,585.06563 C 21.346694,584.60218 23.374354,585.22557 25.462884,585.56014 C 27.167854,585.98975 28.669504,586.89018 30.229504,587.65992 C 31.777094,588.50264 33.167254,589.57738 34.606284,590.58462 C 40.508514,594.47194 45.277194,599.79844 50.516064,604.46291 C 51.925614,605.65743 53.032394,607.13893 54.232164,608.52981 C 55.477294,609.90719 56.705384,611.29715 57.942694,612.68124 C 59.229124,614.02992 60.382384,615.49624 61.591644,616.91169 C 62.677184,618.34905 63.910654,619.66306 65.076704,621.03245 C 66.142064,622.49644 67.365824,623.82441 68.548404,625.18697 C 69.485754,626.55636 70.815834,627.54344 72.034424,628.63502 C 72.658774,629.08504 73.244414,629.57422 73.850754,630.0449 L 49.222024,634.05388 C 48.596444,633.35782 47.909274,632.71223 47.341564,631.96143 C 46.161014,630.48232 44.992984,628.98793 43.756874,627.55608 C 42.626664,626.16482 41.544444,624.73357 40.293054,623.44436 C 39.138444,622.07556 38.042174,620.65686 36.807554,619.35768 C 35.611504,618.04969 34.393344,616.76326 33.207834,615.4454 C 31.975604,614.15683 30.745474,612.86629 29.507264,611.58423 C 28.292824,610.53683 27.068944,609.4972 25.892964,608.40586 C 28.617824,610.81183 36.399394,618.38224 34.157164,615.52109 C 33.072614,614.56431 31.977034,613.62837 30.900384,612.66192 C 30.082884,611.91638 29.210314,611.25743 28.461124,610.43741 C 28.165464,609.8672 27.433534,609.47013 27.568424,608.716 C 27.555164,608.29695 27.656504,607.79917 27.527974,607.43847 C 27.418314,607.51517 26.098904,607.60139 26.182864,608.3787 C 25.073344,610.16305 23.893564,611.90655 22.941574,613.78752 C 21.789724,615.88316 20.624664,617.97193 19.537214,620.10223 C 18.391244,622.33033 17.241744,624.55668 16.116634,626.79558 C 15.041044,628.9284 13.947484,631.05317 12.945994,633.22229 C 12.120644,635.11553 11.242904,636.9916 10.621254,638.96578 C 10.304984,640.30628 9.7480137,641.60849 9.9140037,643.02115 C 10.185534,644.02074 10.147014,645.13286 10.734474,646.04159 C 11.438484,646.76729 12.042254,647.5894 12.846554,648.21877 C 14.052434,649.12842 15.245884,650.05691 16.483504,650.92766 C -3.9917263,633.09768 4.8468037,641.01058 9.5538137,644.96486 C 11.442284,646.37348 13.308494,647.81254 15.218804,649.19131 C 17.034354,650.56613 18.814114,651.98976 20.673634,653.30457 C 22.328794,654.49922 23.962104,655.73133 25.671094,656.8496 C 27.023824,657.7906 28.368624,658.74167 29.732954,659.66872 C 30.444864,660.21311 31.213974,660.68929 31.864964,661.29905 L 32.517854,686.56983 z "
         id="path4584"
         style="color:#000000;fill:#000000;fill-opacity:1;fill-rule:nonzero;stroke:none;stroke-width:3.05800009;stroke-linecap:butt;stroke-linejoin:miter;marker:none;marker-start:none;marker-mid:none;marker-end:none;stroke-miterlimit:4;stroke-dasharray:none;stroke-dashoffset:0;stroke-opacity:1;visibility:visible;display:inline;overflow:visible;enable-background:accumulate" />
      <path
         d="M -8.1506663,618.68854 C -8.7273263,618.20309 -9.0750363,617.58815 -9.5670863,617.00243 C -10.483546,615.64929 -11.733946,614.5919 -12.876946,613.44908 C -11.578136,613.91756 -17.158606,609.96356 -16.127696,610.88203 C -12.504616,614.03093 -8.8815263,617.17972 -5.2584463,620.32862 C -5.4969363,620.06446 -5.7354063,619.8002 -5.9738863,619.53604 C -7.4621563,617.7962 -9.4231263,616.73259 -11.335186,615.56372 C -13.542756,614.40889 -15.966286,614.26923 -18.368836,613.95438 C -20.945836,613.72704 -23.313936,614.52674 -25.745346,615.18474 C -28.453786,616.09259 -30.726466,617.78025 -33.073186,619.33517 C -35.413536,620.94128 -37.030256,623.21353 -38.768726,625.39039 C -40.567696,627.76823 -41.431396,630.5698 -42.449456,633.31169 C -43.412386,636.60616 -43.537656,640.02173 -43.679496,643.42239 C -43.658476,647.37557 -43.000006,651.27577 -42.351366,655.16168 C -41.606376,659.17769 -40.371256,663.06304 -39.106026,666.93606 C -38.287356,669.38585 -37.256466,671.75531 -36.269296,674.13947 L -60.370156,671.74468 C -61.297496,669.02363 -62.257826,666.31242 -62.987656,663.52861 C -64.139416,658.99635 -65.267436,654.45012 -65.817176,649.79551 C -66.331616,644.99588 -66.848496,640.18113 -66.421366,635.34727 C -65.937846,630.72466 -65.429296,626.09219 -63.790356,621.69931 C -62.177486,617.71399 -60.501616,613.75947 -57.893576,610.29139 C -55.359616,607.02215 -52.776856,603.79205 -49.453666,601.2659 C -46.226576,598.87645 -42.970816,596.51347 -39.283576,594.8592 C -35.552726,593.28588 -31.803936,591.76149 -27.725066,591.35949 C -23.857406,591.0252 -20.001386,590.74496 -16.153566,591.52206 C -12.667696,592.28361 -9.1966063,593.09441 -6.0649463,594.89919 C 0.021483734,599.95861 7.0570637,604.47754 11.772154,611.06733 C 13.056374,612.9563 14.393094,614.81044 15.448894,616.84432 C 16.024824,618.09923 16.753644,619.2806 17.059464,620.64713 L -8.1506663,618.68854 z "
         id="path4586"
         style="color:#000000;fill:#000000;fill-opacity:1;fill-rule:nonzero;stroke:none;stroke-width:3.05800009;stroke-linecap:butt;stroke-linejoin:miter;marker:none;marker-start:none;marker-mid:none;marker-end:none;stroke-miterlimit:4;stroke-dasharray:none;stroke-dashoffset:0;stroke-opacity:1;visibility:visible;display:inline;overflow:visible;enable-background:accumulate" />
    </g>
    <path
       style="opacity:1;color:#000000;fill:#46a1a6;fill-opacity:1;fill-rule:nonzero;stroke:none;stroke-width:3.05800009;stroke-linecap:butt;stroke-linejoin:miter;marker:none;marker-start:none;marker-mid:none;marker-end:none;stroke-miterlimit:4;stroke-dasharray:none;stroke-dashoffset:0;stroke-opacity:1;visibility:visible;display:inline;overflow:visible;enable-background:accumulate"
       id="path7573"
       d="M 587.88557,146.47108 C 591.10475,148.45981 594.50894,150.17181 597.85956,151.93316 C 609.79014,157.70425 622.19923,162.42617 634.62148,167.01655 C 659.36288,175.86266 684.57263,183.30545 709.81101,190.57936 C 742.25878,199.67657 774.89743,208.06482 807.39525,216.97797 C 835.90261,224.91651 864.2832,233.30082 892.64676,241.73593 C 916.16855,248.73666 939.64073,255.90204 963.08617,263.15387 L 958.97309,273.25222 C 935.73316,265.5541 912.46521,257.94055 889.14417,250.49127 C 861.03381,241.52073 832.9076,232.59059 804.61472,224.20916 C 772.2599,214.79848 739.76171,205.90043 706.95726,198.17751 C 681.23632,191.80595 655.53359,185.33733 629.99418,178.26804 C 616.93164,174.53525 603.85372,170.81303 591.11201,166.07135 C 587.34909,164.73538 583.57468,163.4401 579.73637,162.33991 L 587.88557,146.47108 z " />
    <path
       style="opacity:1;color:#000000;fill:#46a1a6;fill-opacity:1;fill-rule:nonzero;stroke:none;stroke-width:3.05800009;stroke-linecap:butt;stroke-linejoin:miter;marker:none;marker-start:none;marker-mid:none;marker-end:none;stroke-miterlimit:4;stroke-dasharray:none;stroke-dashoffset:0;stroke-opacity:1;visibility:visible;display:inline;overflow:visible;enable-background:accumulate"
       id="path7575"
       d="M 600.43891,257.49162 C 603.46278,259.85072 606.80345,261.76764 610.08404,263.73996 C 620.05975,269.68778 630.51092,274.76397 641.01378,279.69736 C 658.91243,288.04486 677.33308,295.18132 695.80636,302.1349 C 719.36721,310.78714 743.17884,318.73439 767.00678,326.61358 C 792.72939,335.09978 818.52238,343.36895 844.34654,351.54007 C 869.86925,359.67129 895.51739,367.39762 921.1394,375.20766 L 917.37613,384.52331 C 891.91387,376.25642 866.40968,368.12334 840.81831,360.26401 C 814.95616,352.1299 789.12871,343.88695 763.31009,335.61578 C 739.32924,327.9204 715.35495,320.19799 691.50131,312.11525 C 672.65908,305.62633 653.83473,299.06069 635.34909,291.60139 C 624.37506,287.1883 613.42511,282.71246 602.65909,277.80785 C 599.02786,276.16023 595.38916,274.52867 591.73008,272.94392 L 600.43891,257.49162 z " />
    <path
       style="opacity:1;color:#000000;fill:#46a1a6;fill-opacity:1;fill-rule:nonzero;stroke:none;stroke-width:3.05800009;stroke-linecap:butt;stroke-linejoin:miter;marker:none;marker-start:none;marker-mid:none;marker-end:none;stroke-miterlimit:4;stroke-dasharray:none;stroke-dashoffset:0;stroke-opacity:1;visibility:visible;display:inline;overflow:visible;enable-background:accumulate"
       id="path7579"
       d="M 704.17398,406.11443 C 705.54043,407.31626 706.99386,408.39921 708.44746,409.49298 C 715.4109,414.43488 722.95873,418.44423 730.53203,422.35119 C 746.15835,430.15783 762.46113,436.46944 778.76157,442.6978 C 799.49324,450.50537 820.46112,457.66353 841.45749,464.72065 C 861.42938,471.40142 881.42913,477.99854 901.42859,484.5962 C 918.81808,490.32086 936.2134,496.0278 953.60538,501.74493 C 966.13048,505.86964 978.65276,510.00289 991.18108,514.11782 L 986.05524,526.38695 C 973.60977,522.06979 961.16986,517.73665 948.72923,513.40557 C 931.45902,507.39699 914.18578,501.39721 896.90261,495.42595 C 877.01388,488.54652 857.11464,481.69753 837.21908,474.83789 C 816.20551,467.63038 795.13506,460.5905 774.14342,453.31915 C 757.43473,447.46727 740.71663,441.61952 724.29664,434.98822 C 716.13453,431.57616 708.05181,427.99093 700.10997,424.08983 C 698.33002,423.19286 696.51973,422.34151 694.8112,421.31153 L 704.17398,406.11443 z " />
  </g>
  <g
     inkscape:groupmode="layer"
     id="layer8"
     inkscape:label="penguin-wing-left">
    <path
       style="opacity:1;color:#000000;fill:#303030;fill-opacity:1;fill-rule:nonzero;stroke:none;stroke-width:80;stroke-linecap:butt;stroke-linejoin:miter;marker:none;marker-start:none;marker-mid:none;marker-end:none;stroke-miterlimit:4;stroke-dasharray:none;stroke-dashoffset:0;stroke-opacity:0.25465836;visibility:visible;display:inline;overflow:visible"
       d="M 586.91042,435.13443 C 538.36603,469.05668 476.09146,480.34441 433.42698,523.15672 C 414.38571,541.41219 395.67444,564.85914 396.97382,592.16555 C 401.99936,621.92081 423.45186,645.68008 447.08814,662.92815 C 466.84294,674.501 491.61038,672.32393 513.11196,665.60787 C 541.06764,660.20505 569.00163,644.63495 581.90063,618.33157 C 594.72113,596.57131 606.87318,574.4164 620.1846,552.95116 C 636.55246,521.36664 647.53256,484.10424 637.4733,449.6137 C 629.62288,431.01726 604.37229,424.55392 586.91042,435.13443 z "
       id="path5998" />
    <path
       style="opacity:1;color:#000000;fill:#000000;fill-opacity:1;fill-rule:nonzero;stroke:none;stroke-width:80;stroke-linecap:butt;stroke-linejoin:miter;marker:none;marker-start:none;marker-mid:none;marker-end:none;stroke-miterlimit:4;stroke-dasharray:none;stroke-dashoffset:0;stroke-opacity:0.25465836;visibility:visible;display:inline;overflow:visible"
       id="path4126"
       d="M 566.12552,463.8268 C 557.90235,467.16804 549.43617,469.93865 541.15407,473.15863 C 511.9173,484.97288 483.39069,498.78655 456.7386,515.75441 C 435.67739,529.48105 414.59857,545.92699 407.88038,570.86801 C 401.27578,592.63296 417.04978,622.98558 420.01344,627.44082 C 435.09028,648.75043 459.08346,659.77959 485.32315,660.68907 C 513.40634,660.5994 538.72742,646.68763 560.06768,629.14356 C 565.37163,624.51151 562.78084,626.84412 567.84419,622.15007 L 579.82226,637.23485 C 574.25404,642.07994 577.09569,639.66959 571.29381,644.46173 C 547.22489,663.26977 519.19474,678.34132 488.23214,679.17484 C 458.42892,678.94278 430.44466,668.00093 411.706,645.01462 C 393.60487,621.37698 383.01848,591.02615 391.01625,560.98183 C 400.16912,533.55164 423.09619,515.27651 447.23851,500.35213 C 474.64596,483.44011 503.66686,469.46606 532.60059,455.43635 C 538.87715,452.40893 549.65294,447.65714 553.92224,444.55635 L 566.12552,463.8268 z " />
  </g>
</svg>
