<?xml version="1.0" encoding="UTF-8" standalone="no"?>
<!-- Created with Inkscape (http://www.inkscape.org/) -->
<svg
   xmlns:dc="http://purl.org/dc/elements/1.1/"
   xmlns:cc="http://web.resource.org/cc/"
   xmlns:rdf="http://www.w3.org/1999/02/22-rdf-syntax-ns#"
   xmlns:svg="http://www.w3.org/2000/svg"
   xmlns="http://www.w3.org/2000/svg"
   xmlns:sodipodi="http://inkscape.sourceforge.net/DTD/sodipodi-0.dtd"
   xmlns:inkscape="http://www.inkscape.org/namespaces/inkscape"
   width="744.09448819"
   height="1052.3622047"
   id="svg2"
   sodipodi:version="0.32"
   inkscape:version="0.43"
   sodipodi:docbase="C:\Documents and Settings\Cowbert\Desktop\art\monster"
   sodipodi:docname="blob.svg">
  <defs
     id="defs4" />
  <sodipodi:namedview
     id="base"
     pagecolor="#ffffff"
     bordercolor="#666666"
     borderopacity="1.0"
     inkscape:pageopacity="0.0"
     inkscape:pageshadow="2"
     inkscape:zoom="0.98994949"
     inkscape:cx="504.31722"
     inkscape:cy="724.03627"
     inkscape:document-units="px"
     inkscape:current-layer="layer2"
     inkscape:window-width="1280"
     inkscape:window-height="913"
     inkscape:window-x="-4"
     inkscape:window-y="-4"
     showguides="true"
     inkscape:guide-bbox="true" />
  <metadata
     id="metadata7">
    <rdf:RDF>
      <cc:Work
         rdf:about="">
        <dc:format>image/svg+xml</dc:format>
        <dc:type
           rdf:resource="http://purl.org/dc/dcmitype/StillImage" />
      </cc:Work>
    </rdf:RDF>
  </metadata>
  <g
     inkscape:label="Layer 1"
     inkscape:groupmode="layer"
     id="layer1" />
  <g
     inkscape:groupmode="layer"
     id="layer3"
     inkscape:label="1-crop">
    <rect
       style="opacity:1;color:#000000;fill:#cd777f;fill-opacity:0.16666667;fill-rule:nonzero;stroke:none;stroke-width:1;stroke-linecap:round;stroke-linejoin:miter;marker:none;marker-start:none;marker-mid:none;marker-end:none;stroke-miterlimit:4;stroke-dasharray:none;stroke-dashoffset:0;stroke-opacity:1;visibility:visible;display:inline;overflow:visible"
       id="rect7944"
       width="660"
       height="662.85712"
       x="64.285713"
       y="26.647896" />
  </g>
  <g
     inkscape:groupmode="layer"
     id="layer4"
     inkscape:label="1-path">
    <rect
       style="opacity:1;color:#000000;fill:#cd777f;fill-opacity:0.16666667;fill-rule:nonzero;stroke:none;stroke-width:1;stroke-linecap:round;stroke-linejoin:miter;marker:none;marker-start:none;marker-mid:none;marker-end:none;stroke-miterlimit:4;stroke-dasharray:none;stroke-dashoffset:0;stroke-opacity:1;visibility:visible;display:inline;overflow:visible"
       id="rect7947"
       width="618.57141"
       height="205.71428"
       x="74.285713"
       y="475.21933" />
  </g>
  <g
     inkscape:groupmode="layer"
     id="layer5"
     inkscape:label="unit">
    <rect
       style="opacity:1;color:#000000;fill:#cd777f;fill-opacity:0.16666667;fill-rule:nonzero;stroke:none;stroke-width:1;stroke-linecap:round;stroke-linejoin:miter;marker:none;marker-start:none;marker-mid:none;marker-end:none;stroke-miterlimit:4;stroke-dasharray:none;stroke-dashoffset:0;stroke-opacity:1;visibility:visible;display:inline;overflow:visible"
       id="rect8823"
       width="660"
       height="637.14282"
       x="59.999992"
       y="39.505035" />
  </g>
  <g
     inkscape:groupmode="layer"
     id="layer2"
     inkscape:label="1">
    <path
       style="opacity:1;color:#000000;fill:#6687bf;fill-opacity:1;fill-rule:nonzero;stroke:none;stroke-width:1;stroke-linecap:round;stroke-linejoin:miter;marker:none;marker-start:none;marker-mid:none;marker-end:none;stroke-miterlimit:4;stroke-dasharray:none;stroke-dashoffset:0;stroke-opacity:1;visibility:visible;display:inline;overflow:visible"
       d="M 279.78251,193.56429 C 292.18706,227.06317 266.3437,260.4909 236.25666,272.90172 C 208.661,283.6403 174.22199,294.29982 163.16715,324.96432 C 153.05656,361.11091 200.03956,355.47531 210.3522,381.22237 C 219.88513,403.53585 155.84499,418.27569 195.18118,434.11745 C 206.04751,438.83367 249.71808,446.15244 217.76402,455.08831 C 183.95548,460.54944 158.33882,473.12385 132.48276,495.6904 C 111.73081,517.36951 137.61872,544.56693 161.17676,547.37532 C 180.83046,555.59543 212.26047,543.68526 225.75076,558.42241 C 180.9595,598.23404 249.96009,598.52719 270.04914,585.79876 C 297.27188,575.51265 324.83442,565.33595 353.48673,560.06966 C 376.73246,558.10941 361.24317,593.031 367.07796,617.13981 C 368.57426,640.34177 375.59372,670.24707 403.11176,664.70887 C 431.21549,656.3994 432.97066,618.83006 441.34105,595.86872 C 442.59938,555.95653 470.66174,575.87793 483.76445,593.12394 C 523.47534,610.17952 541.88112,584.94874 514.96632,560.83974 C 513.91195,533.77233 554.53344,562.74863 571.06217,561.32364 C 593.26534,564.41575 625.91146,566.55945 638.19129,542.91484 C 628.24077,522.2623 605.39387,518.03336 587.85901,504.44855 C 568.29917,492.6551 539.21433,488.66325 522.18161,473.49858 C 488.69057,446.25775 558.38079,450.37802 573.17309,436.77525 C 601.11459,416.10434 557.91033,398.16495 542.63044,386.65788 C 496.89898,372.31336 565.68594,353.0877 579.39618,338.21156 C 596.46039,325.95072 621.55086,292.74465 593.59063,278.53453 C 567.58949,266.90199 518.30416,280.36233 487.49811,275.75776 C 491.77841,256.06945 514.06136,222.46101 515.63843,200.49047 C 520.56952,182.74482 525.7538,153.66764 501.54973,156.81328 C 467.04293,159.37321 452.42987,183.35029 415.35839,192.49484 C 413.52372,163.54474 422.00888,119.41239 405.35358,109.59378 C 375.29711,104.94918 349.53581,175.11703 330.39158,166.99494 C 321.25513,156.91535 306.59411,102.66491 288.44899,130.4004 C 280.97436,147.53675 273.36361,176.481 279.78251,193.56429 z "
       id="path2384"
       sodipodi:nodetypes="cccccccccccccccccccccccccccccccc" />
    <path
       style="opacity:1;color:#000000;fill:#779fcd;fill-opacity:1;fill-rule:nonzero;stroke:none;stroke-width:1;stroke-linecap:round;stroke-linejoin:miter;marker:none;marker-start:none;marker-mid:none;marker-end:none;stroke-miterlimit:4;stroke-dasharray:none;stroke-dashoffset:0;stroke-opacity:1;visibility:visible;display:inline;overflow:visible"
       d="M 220.18352,314.78262 C 242.71853,300.35817 290.81641,284.78372 279.10859,249.5903 C 264.25531,215.62059 227.79392,195.09934 210.96072,161.8938 C 174.84176,123.93764 210.52848,114.27987 222.63505,94.391003 C 204.53259,56.605763 183.4957,123.86413 163.36183,71.078053 C 122.00487,15.435593 168.32646,124.38226 105.80235,84.943623 C 133.26457,119.23747 124.19471,125.65199 81.669486,133.44315 C 79.991738,167.53148 153.81908,146.59592 158.77614,186.91966 C 181.90901,217.74789 189.72121,247.33165 204.65497,278.33549 C 210.08633,290.43925 210.09064,305.83136 220.18352,314.78262 z "
       id="path7010"
       sodipodi:nodetypes="cccccccccc" />
    <path
       style="fill:#000000;fill-opacity:1;fill-rule:nonzero;stroke:none;stroke-width:1px;stroke-linecap:butt;stroke-linejoin:miter;stroke-opacity:1"
       id="path1451"
       d="M 209.61374,289.89265 C 209.78765,290.64883 205.88362,291.8861 204.43806,292.53731 C 193.14113,297.83234 183.40275,305.73621 174.93853,314.82052 C 174.24892,315.8243 162.15852,327.95901 172.30624,344.34994 C 182.31514,357.54413 198.5935,363.00812 213.81151,367.7289 C 230.12582,371.25474 229.67628,380.734 215.9849,391.31568 C 206.57377,398.35498 197.74817,406.09338 190.43771,415.31496 C 199.33096,403.97121 183.88314,419.56516 194.54047,429.71549 C 208.15372,438.08878 224.90124,438.58547 240.47498,438.73554 C 259.19832,432.54564 255.69071,450.25833 241.07942,452.69547 C 221.49513,456.15209 202.34011,461.69692 183.99264,469.36269 C 165.15079,477.25584 147.673,488.35702 134.98861,504.56455 C 136.35779,502.81243 137.65721,501.00349 139.09615,499.30819 C 139.7983,498.48095 137.8095,501.0565 137.2027,501.95602 C 131.07901,511.0336 129.29878,519.68252 135.42294,529.00278 C 148.87444,541.9697 168.8295,544.75966 186.70604,546.64865 C 203.39295,548.78977 220.20967,546.81903 236.92986,547.41013 C 251.99188,553.34543 230.73364,564.40926 223.84046,568.6802 C 205.41921,586.97045 219.40417,566.00197 215.88389,577.5166 C 223.38546,587.14628 241.62206,584.70882 252.73031,583.687 C 281.84128,580.0164 309.97366,570.84738 336.96923,559.59357 C 350.29451,553.88337 369.04944,541.56217 373.51828,562.28734 C 373.97666,583.77922 372.7487,605.24688 374.84514,626.7022 C 376.57712,640.44279 379.40663,660.9752 396.69697,661.03245 C 419.93623,650.85356 419.77767,646.73369 429.69851,625.23044 C 438.17019,608.6668 439.59031,590.06739 444.10957,572.37624 C 456.10081,552.38322 470.0876,572.42227 484.07484,581.33102 C 494.46965,586.73388 512.09524,599.62339 523.7909,591.36592 C 524.02966,590.91306 524.26842,590.46019 524.50719,590.00732 C 522.6141,592.31059 520.75932,594.64589 518.82792,596.91714 C 517.66925,598.27969 520.52381,593.64077 520.6045,591.85399 C 521.01175,582.83539 515.58512,573.64864 511.12116,566.22969 C 504.32728,555.32503 495.65662,545.78134 485.7147,537.69709 L 493.76077,527.2501 C 504.12153,535.86031 513.21196,545.89065 520.4817,557.27054 C 530.88991,573.99581 538.37965,589.48578 521.84521,604.5612 C 505.83366,609.01093 490.16145,599.79659 476.69372,591.86746 C 465.02584,584.50127 445.34033,578.83476 456.82372,568.08309 C 447.57832,583.33099 451.96827,605.63239 441.51787,620.95641 C 432.24232,642.49796 417.59342,669.74775 392.03574,673.29362 C 371.7204,672.38461 366.14161,650.37754 364.1768,633.55232 C 361.93159,612.24502 362.69007,590.87061 362.49932,569.49267 C 360.86563,554.39513 343.62871,569.84253 334.45325,571.88206 C 306.85097,582.83593 278.21798,591.87726 248.66759,595.58678 C 234.50567,596.86634 213.136,599.00175 204.64973,584.93285 C 202.59171,571.76481 215.55659,561.9454 225.56286,555.45233 C 241.94073,545.62269 227.76088,553.35406 231.7397,559.8337 C 215.03617,559.22773 198.25964,560.16693 181.60985,558.21798 C 162.35703,556.04413 140.74203,552.76999 126.38053,538.56361 C 113.22517,522.3762 122.93763,505.42637 134.86944,491.61567 C 148.83021,475.75057 167.03195,464.81281 186.52159,456.96086 C 205.36827,449.41524 224.92071,443.87231 244.85268,440.02869 C 262.20028,436.56102 247.95612,457.49681 235.67221,450.8529 C 218.83197,450.29191 200.99807,449.40694 186.39724,440.1367 C 172.62499,427.66508 179.27696,414.61718 190.25698,402.11227 C 198.31062,393.17459 207.49051,385.49921 216.86203,377.98227 C 222.19923,372.58114 221.32295,387.76658 207.50823,379.26104 C 191.13767,373.79936 174.05261,367.46958 163.01076,353.46164 C 150.26582,334.66834 160.4312,316.40159 175.2477,301.82063 C 184.50578,292.63528 194.99268,284.68181 206.92044,279.27985 C 209.35379,278.25779 211.90467,276.78454 214.56939,277.04311 L 209.61374,289.89265 z " />
    <path
       style="fill:#000000;fill-opacity:1;fill-rule:nonzero;stroke:none;stroke-width:1px;stroke-linecap:butt;stroke-linejoin:miter;stroke-opacity:1"
       id="path1391"
       d="M 277.71707,210.17197 C 278.08509,209.21218 276.79444,204.3856 276.37803,202.36007 C 273.72065,191.14281 272.99648,179.67592 273.73027,168.17893 C 274.612,155.09347 277.84076,142.36578 284.12204,130.94858 C 290.87123,119.86778 298.776,111.94518 310.54319,120.00848 C 318.06133,126.57021 322.19477,135.92215 326.13984,144.9999 C 329.21684,151.84956 331.19473,159.30832 335.41919,165.52032 C 339.4075,163.42298 343.864,156.44372 347.17863,152.22943 C 356.55013,140.07065 366.73646,128.59363 377.91886,118.18127 C 386.06444,110.89638 395.02085,101.73204 406.51772,104.74454 C 416.89794,110.99838 418.12487,124.56021 419.07449,135.82142 C 420.0788,150.10645 419.46339,164.44127 418.51627,178.70941 C 418.07664,182.25791 417.7921,186.25509 419.44995,189.39811 C 429.4451,183.57003 439.03258,177.06815 449.15937,171.46318 C 463.22418,163.78319 478.13365,157.85055 493.61656,154.04801 C 503.64358,151.70314 514.48583,149.21481 523.0403,156.33264 C 530.59007,166.61049 527.5271,180.5044 524.59469,192.04557 C 519.86275,208.88859 512.34085,224.72993 504.26258,240.10403 C 499.97905,249.89649 492.27062,258.35389 489.6309,268.85405 C 496.81216,272.75841 507.84328,270.65426 516.1313,270.0694 C 534.39828,268.67847 552.68856,267.34358 571.01532,267.80801 C 583.04037,268.19838 595.50812,268.94367 605.55092,276.35343 C 613.57884,283.74814 613.18233,293.76175 610.66134,303.68113 C 605.29682,319.64526 593.91347,332.49668 581.10328,342.64144 C 568.87406,352.05392 555.50225,359.7415 542.03116,367.07889 C 533.28587,368.82346 518.07007,387.06698 528.46648,372.21432 C 529.27698,375.79138 537.52558,378.89651 541.64996,380.95637 C 552.2132,386.05628 562.63788,391.44183 572.59219,397.71723 C 579.62242,402.27441 586.31459,407.4617 590.99586,414.6096 C 597.0231,426.94552 582.6942,436.03916 573.58889,441.28561 C 560.90191,447.99898 547.23355,452.40882 533.57097,456.46433 C 523.42277,456.15882 503.26447,472.65339 514.73954,458.58084 C 516.21036,464.11683 530.15651,470.43071 536.91338,473.99108 C 558.21593,484.85238 579.78928,495.13601 601.18729,505.79455 C 616.43816,514.06612 633.47789,520.44574 646.05366,532.97463 C 655.75126,545.17271 641.15317,555.66226 630.6609,560.07185 C 617.43789,564.78834 603.42315,566.47108 589.513,567.23454 C 573.56846,568.10588 557.63259,566.64469 541.98799,563.48541 C 528.696,560.77273 515.74096,556.65302 502.89703,552.2618 C 497.92937,550.52507 492.98623,548.71557 488.04545,546.89975 L 493.8367,536.43868 C 498.71803,538.28254 503.60376,540.11496 508.52306,541.84928 C 521.14113,546.1961 533.87129,550.28863 546.95042,552.90743 C 562.22797,555.91534 577.79206,557.22696 593.3385,556.17775 C 606.76365,555.26264 620.37503,553.572 632.92813,548.32451 C 636.16902,546.66692 643.98055,538.96236 641.87886,541.99722 C 633.15962,554.58792 641.42124,546.82944 638.28454,541.96525 C 626.73294,529.36848 609.73395,523.6037 595.33708,515.35422 C 573.95397,504.58594 552.3172,494.36763 530.87441,483.72788 C 521.31087,478.84054 505.65956,473.63766 503.19861,461.69513 C 512.35242,450.20098 522.53058,448.3018 536.37874,445.00774 C 549.73332,441.03555 563.09658,436.57015 575.24906,429.50134 C 595.99003,415.86858 576.7694,434.90508 582.2945,422.91652 C 578.30236,416.32755 572.27473,411.68048 565.93795,407.55394 C 556.17896,401.32729 545.92283,396.02843 535.49636,391.09247 C 528.58631,387.7204 519.66385,384.98319 517.35602,376.7814 C 524.39392,365.64417 531.8187,360.70532 543.85351,355.37907 C 557.10247,348.17426 570.2404,340.5428 582.00138,330.91852 C 599.83559,315.72294 590.25409,324.55909 599.91273,308.23457 C 602.44678,300.69574 604.52241,292.20468 598.36605,285.93588 C 589.38092,279.15257 577.51162,279.30014 566.82518,278.65632 C 548.63978,278.18387 530.49098,279.57857 512.37644,281.09719 C 502.10792,281.88298 486.96432,285.40694 479.85904,275.81989 C 477.67919,263.99846 489.23502,253.85443 493.45812,243.67794 C 501.62358,228.68756 509.10368,213.17381 514.15242,196.75029 C 516.88913,186.93132 520.10791,175.25228 515.4449,165.64963 C 508.28543,160.34365 498.63259,163.84934 490.60964,165.44474 C 475.52521,169.30674 461.03033,175.31278 447.42801,183.06254 C 437.10526,189.00432 427.50482,196.41328 416.66942,201.27989 C 406.29979,202.34958 407.44113,192.14623 408.30872,184.37604 C 409.44291,170.32468 410.23956,156.20225 409.38689,142.10709 C 408.73705,133.11737 408.47454,121.26817 400.91931,115.45831 C 391.40976,115.28133 384.23789,124.12188 377.35629,129.95127 C 366.41445,140.42337 356.52209,151.96662 347.35658,164.10777 C 342.60612,170.20251 335.91521,181.24937 327.53302,174.7019 C 322.41822,168.39098 320.49891,160.15658 317.24638,152.77515 C 313.75829,144.51993 310.22275,135.84165 303.52472,129.7723 C 295.49667,125.12673 287.67659,138.10761 295.36928,127.72447 C 288.28065,137.94554 285.00322,150.14529 283.82588,162.57405 C 282.87824,173.5526 283.32795,184.56607 285.99038,195.28131 C 286.64152,198.1549 287.14051,201.15476 288.19922,203.88282 L 277.71707,210.17197 z " />
    <path
       style="opacity:1;color:#000000;fill:#779fcd;fill-opacity:1;fill-rule:nonzero;stroke:none;stroke-width:1;stroke-linecap:round;stroke-linejoin:miter;marker:none;marker-start:none;marker-mid:none;marker-end:none;stroke-miterlimit:4;stroke-dasharray:none;stroke-dashoffset:0;stroke-opacity:1;visibility:visible;display:inline;overflow:visible"
       d="M 416.42856,260.93362 C 429.67152,232.83809 449.59657,208.4756 462.99447,180.49223 C 475.30621,164.79342 489.47609,150.04749 497.87988,131.77671 C 503.05125,118.33406 497.12028,104.26588 498.28159,90.656427 C 499.67127,79.536378 513.84114,67.168869 523.24996,78.005583 C 533.3187,86.104526 524.01259,113.16232 544.01156,108.13706 C 558.16665,103.90457 577.95532,87.050394 593.81175,90.038267 C 610.20393,91.485345 571.51951,112.73918 586.63006,120.93246 C 597.64885,128.98643 614.06554,115.88339 623.7118,127.24007 C 631.35365,140.81337 610.95719,143.68609 603.46037,150.19382 C 595.50591,157.24651 619.42476,172.0436 604.60259,178.96647 C 582.61965,182.70706 558.52307,182.38752 539.43653,195.59566 C 526.04487,200.92608 510.13947,208.17923 506.79977,223.76326 C 497.93704,242.05935 489.81588,260.86095 485.44235,280.76765 C 480.32703,297.5675 480.07622,318.57401 463.82767,329.2704 C 452.31879,336.94591 437.43966,345.80076 423.28216,341.54757 C 408.85845,334.8458 406.1968,317.47148 405.66483,303.31738 C 404.125,288.64693 405.27194,271.87733 416.42856,260.93362 z "
       id="path10817"
       sodipodi:nodetypes="cccccccccccccccccc" />
    <path
       style="fill:#000000;fill-opacity:1;fill-rule:nonzero;stroke:none;stroke-width:1px;stroke-linecap:butt;stroke-linejoin:miter;stroke-opacity:1"
       id="path10815"
       d="M 496.2053,126.8244 C 496.58214,125.76653 494.84138,120.79265 494.29319,118.72925 C 491.84541,109.886 491.12201,100.82481 492.17259,91.73263 C 494.08505,81.213165 499.85104,70.02367 510.57451,66.655632 C 517.74419,65.425511 523.27329,69.120062 527.81505,74.268341 C 531.96131,79.501426 534.09512,85.786033 535.41992,92.242852 C 536.19053,96.78835 536.5378,101.38903 537.38067,105.92131 C 540.05549,104.37873 544.41292,102.42288 547.60752,100.81993 C 556.92496,95.888505 566.60688,91.683663 576.62851,88.410932 C 584.76619,86.05171 593.39717,83.241893 601.91656,84.891826 C 612.58424,89.68757 602.99413,99.844301 597.01217,104.95153 C 591.46464,109.38962 585.4445,113.18206 579.8472,117.55482 C 574.34723,123.41309 579.06659,113.69441 583.4797,114.92409 C 593.07929,116.35239 602.83079,116.22788 612.50574,116.80461 C 620.38055,117.41161 628.7275,117.73011 635.56554,122.06381 C 644.2349,130.09332 631.35112,138.84831 624.18618,142.78793 C 616.42334,146.72829 608.24175,149.76011 600.03957,152.64282 C 590.16377,154.95544 586.28792,163.0078 594.03889,149.65995 C 595.83737,150.87332 601.67134,153.0845 604.8264,154.45504 C 609.70502,156.48865 613.58635,159.41947 616.03855,164.07317 C 618.10548,173.2145 608.3545,178.31708 601.26576,181.12474 C 592.30984,184.31956 582.9994,186.36237 573.72453,188.38731 C 563.98322,190.32756 554.32027,192.62076 544.81961,195.5212 C 537.43621,197.65403 530.70362,201.14103 525.11482,206.41495 C 514.25748,222.70012 531.52272,192.77169 517.31486,218.61418 C 512.11089,228.35737 507.22455,238.26757 502.68309,248.33645 C 497.16214,260.45216 492.27442,272.83872 487.6249,285.31047 C 485.31668,291.45024 483.17906,297.65086 481.09909,303.87085 L 470.3513,308.28231 C 472.46496,301.98782 474.63719,295.7131 476.96292,289.49318 C 481.63354,276.95921 486.42307,264.46316 491.86577,252.23978 C 496.37056,242.09736 501.12823,232.07551 506.25195,222.22925 C 511.51431,212.27098 517.13638,202.15707 525.77782,194.69388 C 532.29467,189.71226 539.68554,186.31903 547.6175,184.20077 C 557.26692,181.47114 567.03449,179.23548 576.86209,177.24382 C 585.88822,175.21986 594.99643,173.18366 603.54859,169.58459 C 614.53729,164.12008 604.81078,167.50196 606.28513,170.9896 C 604.93674,167.8359 602.26171,165.88847 598.68751,164.5476 C 593.70892,162.41842 587.92508,161.01811 584.35193,156.73457 C 580.74993,146.662 596.04567,143.53251 602.62338,141.22798 C 610.56978,138.38761 618.53958,135.42801 625.86,131.18011 C 639.85787,122.06886 621.58534,135.37809 628.48676,131.61141 C 622.35454,128.11183 614.95002,128.1177 608.06402,127.50427 C 598.07606,126.91888 587.97603,127.16509 578.10156,125.41586 C 565.52139,121.44326 572.08196,111.89412 580.88105,105.82669 C 586.53199,101.74658 592.46741,97.974586 597.53597,93.161612 C 603.2949,86.714949 593.34263,100.20056 596.65465,95.537418 C 588.90326,95.020403 581.32306,97.312966 574.00386,99.674809 C 564.19665,103.05448 554.80213,107.44648 545.66479,112.34334 C 540.26517,115.03161 533.4318,119.4265 528.44627,113.84733 C 526.43383,109.12944 526.34039,103.98241 525.67559,98.907386 C 524.77596,93.218382 523.23833,87.611206 519.77316,82.902382 C 516.64122,79.147744 513.03333,76.36401 508.00805,78.189216 C 493.30642,88.198835 514.13974,66.093203 502.67008,86.636698 C 501.0669,95.033929 501.48468,103.46682 503.74758,111.73511 C 504.56265,114.77421 505.36286,117.87242 506.65185,120.74192 L 496.2053,126.8244 z " />
    <path
       style="fill:#000000;fill-opacity:1;fill-rule:nonzero;stroke:none;stroke-width:1px;stroke-linecap:butt;stroke-linejoin:miter;stroke-opacity:1"
       id="path10809"
       d="M 411.92032,263.24495 C 411.90287,258.30951 414.59361,253.65169 416.76906,249.32373 C 427.37932,230.33378 440.09648,212.60655 452.06899,194.46344 C 463.89674,176.46477 475.47656,158.30395 486.94462,140.07433 C 490.42824,134.53704 493.93987,129.01734 497.48011,123.51607 L 508.86573,120.28783 C 505.1526,125.79145 501.4763,131.31969 497.86892,136.89344 C 486.11007,155.12186 474.36083,173.35691 462.4787,191.50532 C 450.69853,209.43402 438.34013,227.03595 427.6848,245.66702 C 425.75043,249.34966 423.91807,253.4721 422.3654,257.16333 L 411.92032,263.24495 z " />
    <path
       style="opacity:1;color:#000000;fill:#779fcd;fill-opacity:1;fill-rule:nonzero;stroke:none;stroke-width:1;stroke-linecap:round;stroke-linejoin:miter;marker:none;marker-start:none;marker-mid:none;marker-end:none;stroke-miterlimit:4;stroke-dasharray:none;stroke-dashoffset:0;stroke-opacity:1;visibility:visible;display:inline;overflow:visible"
       d="M 248.4678,300.64047 C 215.15635,308.17313 191.4974,336.31281 162.12298,351.72064 C 131.22027,386.00368 188.69541,378.24024 209.63363,382.3267 C 228.691,386.50997 273.08731,369.74995 271.32403,400.53597 C 248.18077,430.77927 217.37454,447.84775 187.34344,476.42439 C 163.61993,505.81856 203.03579,525.60345 227.75928,507.60912 C 258.73639,497.31066 290.98673,466.63409 320.21256,454.10059 C 335.63805,464.35257 267.54193,541.9779 319.36214,545.48606 C 347.57034,538.66346 373.71135,521.88545 385.99147,494.64607 C 400.32291,482.01414 413.47152,399.66584 427.44919,445.69417 C 438.08728,469.75612 445.48027,501.08802 474.68476,508.97657 C 509.15555,520.74256 515.50136,477.32056 499.5491,455.94084 C 485.17959,429.81011 471.058,403.54617 450.08074,381.92882 C 423.85755,349.13123 483.62071,361.90588 501.59394,360.22239 C 541.59671,366.9449 539.22625,330.25864 499.49094,313.26844 C 450.13136,298.75571 411.77945,289.01795 360.99569,283.7547 C 327.31253,284.23741 279.71554,285.87375 248.4678,300.64047 L 248.4678,300.64047 z "
       id="path2353"
       sodipodi:nodetypes="cccccccccccccccccc" />
    <path
       style="fill:#000000;fill-opacity:1;fill-rule:nonzero;stroke:none;stroke-width:1px;stroke-linecap:butt;stroke-linejoin:miter;stroke-opacity:1"
       id="path1473"
       d="M 236.88786,307.06524 C 239.67496,307.97303 232.90723,310.47749 231.43945,311.29353 C 220.23419,317.49545 209.31387,324.20338 198.57329,331.17592 C 185.92617,339.24956 173.87208,348.18925 162.8046,358.32163 C 148.20964,377.99443 161.24067,351.46602 156.45952,367.90221 C 159.21648,373.51608 167.58104,373.30867 173.28538,373.98875 C 188.8145,375.34335 204.41893,375.6121 219.99405,376.10484 C 235.01757,376.69057 250.13532,376.76136 264.96708,379.43728 C 274.23257,381.37167 281.73827,386.01721 280.591,396.25234 C 274.04854,412.20625 259.93511,424.07316 246.83889,434.73852 C 231.65882,446.63788 216.17758,458.15568 201.93962,471.19567 C 184.56676,490.74893 191.41136,477.41664 183.43349,494.49185 C 180.28176,502.20764 182.33155,505.60775 190.26931,506.94157 C 207.84747,507.44614 225.09665,502.00805 241.42306,495.97765 C 262.62864,487.97651 282.3668,476.67772 300.62865,463.32649 C 308.36153,458.6333 322.19173,439.97719 329.44782,452.81386 C 327.21158,466.14599 320.31214,478.66396 315.32464,491.25578 C 310.56448,503.78644 305.41137,516.48809 304.53696,529.98748 C 304.53764,540.52649 313.32893,541.26898 321.94836,540.5774 C 341.18486,536.80911 357.67219,524.83693 371.02368,510.95906 C 381.14318,500.2076 390.74369,483.77392 399.13875,459.40534 C 404.17536,440.77817 405.35815,426.29735 419.44695,416.12463 C 427.97156,427.68289 432.50152,442.43037 439.48933,455.24636 C 448.52502,471.42868 459.52623,486.90594 474.76002,497.77711 C 483.24619,503.50136 492.85522,506.56873 500.39354,498.25956 C 494.54937,509.30389 502.86,487.30401 499.79396,470.93459 C 495.5491,451.97766 486.99843,434.27984 477.02884,417.71506 C 467.62388,402.13516 455.93275,388.05824 441.80077,376.57255 C 432.45966,374.47314 412.83668,351.08993 436.34942,352.35317 C 452.96713,353.94464 469.56519,355.66621 486.26829,356.01582 C 501.45635,355.95144 517.58158,356.07748 531.23947,348.62242 C 534.67512,345.91568 540.35886,336.65272 529.38056,351.76348 C 527.24093,354.7085 528.46272,344.17227 526.2092,341.31346 C 517.32365,331.96208 506.24576,325.00743 495.07362,318.70813 C 483.27505,311.8746 470.36417,307.64819 457.04073,305.07395 C 449.03386,303.64249 440.91918,303.32533 432.81858,303.83008 L 437.33224,291.25069 C 445.85229,291.0308 454.36779,291.57512 462.74782,293.21586 C 476.60865,296.13394 490.0442,300.67612 502.34349,307.82868 C 514.07371,314.45844 525.62237,321.80042 535.11325,331.45605 C 544.64655,342.65834 544.07116,354.16423 529.0668,361.74793 C 514.01772,367.85664 497.59907,368.17534 481.5436,367.88891 C 464.89188,367.41483 448.32549,365.51945 431.6945,364.99503 C 439.71336,354.17293 434.20315,354.03369 449.82783,366.3082 C 464.32547,378.32779 476.51123,392.78652 486.29225,408.88272 C 496.67937,425.90115 505.4801,444.07886 510.37006,463.48216 C 514.47144,482.11085 513.73189,497.2141 499.78065,511.56774 C 488.85018,518.64774 477.18686,515.65851 466.98805,508.27045 C 451.24347,496.72485 439.64203,480.74829 430.09047,463.89799 C 424.04541,453.06309 416.41165,438.0691 413.04881,428.17805 C 432.11263,411.48263 411.15884,439.82082 410.91086,454.5982 C 402.48711,480.2231 389.80829,504.27994 370.65135,523.63169 C 356.08589,537.7917 338.22257,549.98973 317.7221,552.9757 C 305.8921,553.77607 294.57124,549.83426 293.06926,536.72672 C 292.98736,522.49031 298.2484,509.06238 303.22248,495.90404 C 307.91481,483.79373 313.02806,471.84217 317.82603,459.77988 C 317.46827,460.49252 307.29449,472.99229 299.33798,476.06347 C 280.5142,489.25167 260.29653,500.43342 238.67935,508.36176 C 221.44923,514.53918 203.19071,520.22718 184.69504,518.9822 C 174.32729,516.66839 167.89369,510.56181 171.04254,499.35357 C 176.98164,482.81239 189.85034,469.9409 202.62318,458.31507 C 217.12498,445.49238 232.74249,434.05869 247.74235,421.84221 C 263.74432,408.27059 266.42471,404.26385 268.19401,401.37984 C 271.46244,394.4161 265.51833,392.82331 259.19108,391.36493 C 244.67169,388.80911 229.87729,388.68091 215.17937,388.10639 C 199.43385,387.62093 183.65616,387.43951 167.95623,386.07615 C 159.21898,384.99643 149.55266,384.18824 145.24201,375.47523 C 143.60171,362.59307 154.7927,353.41836 163.49127,345.16235 C 175.00468,335.27019 187.32581,326.40241 200.1536,318.28687 C 211.09207,311.29337 222.12955,304.45518 233.37796,297.96934 C 236.08331,296.36515 238.73125,293.83742 241.8435,294.21571 L 236.88786,307.06524 z " />
    <path
       style="opacity:1;color:#000000;fill:#71a1bd;fill-opacity:1;fill-rule:nonzero;stroke:none;stroke-width:1;stroke-linecap:round;stroke-linejoin:miter;marker:none;marker-start:none;marker-mid:none;marker-end:none;stroke-miterlimit:4;stroke-dasharray:none;stroke-dashoffset:0;stroke-opacity:1;visibility:visible;display:inline;overflow:visible"
       d="M 276.75206,214.7775 C 187.42325,267.52413 264.01834,374.75349 352.38879,357.18455 C 454.02342,337.87024 450.92114,188.99957 338.35736,187.93485 C 311.58207,192.96634 293.62576,200.86304 276.75206,214.7775 z "
       id="path2358"
       sodipodi:nodetypes="cccc" />
    <path
       style="fill:#000000;fill-opacity:1;fill-rule:nonzero;stroke:none;stroke-width:1px;stroke-linecap:butt;stroke-linejoin:miter;stroke-opacity:1"
       id="path1337"
       d="M 282.50943,213.78076 C 278.79353,215.52834 273.99318,218.7871 270.33722,221.61685 C 253.50946,238.47684 251.50665,238.14804 243.58134,262.59111 C 235.13961,290.39336 250.16903,313.11628 270.87508,329.60141 C 296.42696,348.55671 327.50459,357.08037 358.39601,349.73594 C 387.2921,341.5684 405.55456,320.69571 414.94693,299.21402 C 419.12714,289.15526 420.9387,278.46176 420.72734,267.57093 L 430.36217,261.59545 C 430.88403,273.14249 429.31681,284.54076 425.17639,295.3457 C 412.52145,326.7285 387.85282,351.82764 355.4957,360.28321 C 323.22651,367.07774 291.03214,357.99738 264.42751,338.33931 C 242.4004,320.94185 225.77371,296.77075 233.41452,266.98888 C 239.77408,244.39748 253.47799,224.32853 271.38644,209.78312 C 275.96309,206.36219 281.08948,202.48721 286.87099,202.12708 L 282.50943,213.78076 z " />
    <path
       style="fill:#000000;fill-opacity:1;fill-rule:nonzero;stroke:none;stroke-width:1px;stroke-linecap:butt;stroke-linejoin:miter;stroke-opacity:1"
       id="path6974"
       d="M 212.21241,319.24687 C 212.58929,315.79123 211.55267,312.42329 210.71011,309.10149 C 205.27748,291.01666 197.85312,273.59611 190.20357,256.35629 C 179.37766,232.49104 168.08728,208.83224 156.49651,185.32887 C 153.08077,178.43314 149.57817,171.58104 146.07107,164.73149 L 155.64755,156.19084 C 159.09368,163.11518 162.55273,170.03316 165.95258,176.98041 C 177.46171,200.59452 188.70711,224.34117 199.74913,248.17652 C 207.59893,265.5067 215.17489,283.00414 221.28937,301.03275 C 222.45154,304.72168 223.70931,308.45712 224.11402,312.31718 L 212.21241,319.24687 z " />
    <path
       style="fill:#000000;fill-opacity:1;fill-rule:nonzero;stroke:none;stroke-width:1px;stroke-linecap:butt;stroke-linejoin:miter;stroke-opacity:1"
       id="path6976"
       d="M 260.12137,229.28349 C 257.38573,228.11331 255.27826,226.03957 253.11759,224.0481 C 243.09794,214.18128 233.44583,203.92843 224.32749,193.22153 C 213.05202,179.78958 202.55266,165.67002 193.59905,150.57758 C 191.20684,146.61581 189.17718,142.46095 187.15314,138.30574 L 197.16796,129.66465 C 199.01716,133.71989 200.8776,137.77234 203.12425,141.62982 C 211.68434,156.59302 221.95544,170.50483 233.01635,183.70751 C 241.98105,194.22453 251.53327,204.24842 261.67966,213.63362 C 262.28935,214.16093 268.01642,218.44 265.07701,216.43396 L 260.12137,229.28349 z " />
    <path
       style="fill:#000000;fill-opacity:1;fill-rule:nonzero;stroke:none;stroke-width:1px;stroke-linecap:butt;stroke-linejoin:miter;stroke-opacity:1"
       id="path6978"
       d="M 187.96979,136.39791 C 187.53654,129.89335 194.05813,125.03308 197.89488,120.09153 C 202.98386,114.65467 208.57709,109.7346 213.66334,104.29568 C 221.47869,90.165133 209.61376,117.50939 217.62361,96.749833 C 217.45736,91.685903 212.19991,91.826493 207.89546,91.215833 C 200.0322,90.608433 192.59268,92.822453 185.81494,96.659643 C 179.93561,101.00944 176.01313,103.52626 169.87317,98.672333 C 165.10909,90.804983 161.78646,82.102083 157.75231,73.825163 C 154.56904,67.604173 151.49584,60.445503 145.2111,57.661013 C 148.53691,60.164203 149.93301,46.983513 146.79561,61.648513 C 145.68961,69.163953 146.139,76.770873 146.61523,84.316163 C 148.10372,95.994483 140.76622,104.12595 129.48901,100.0192 C 122.10488,96.648313 115.05773,92.657093 107.35393,90.061863 C 99.04856,93.605393 108.09563,77.632133 111.18335,86.010873 C 115.60347,92.575603 121.02151,98.373693 125.5133,104.89294 C 132.08001,114.58434 128.61954,123.73364 117.89656,129.80363 C 111.08872,132.67991 103.79058,134.11804 96.683649,136.06341 C 87.387997,137.36294 79.453921,150.1095 89.747575,135.92433 C 87.940724,140.03947 92.199232,141.75402 95.645783,143.86375 C 102.92621,147.82221 110.84697,150.35466 118.68295,152.9515 C 125.46771,155.25561 132.3492,157.23764 139.32707,158.85739 C 142.86413,159.75077 146.4776,160.17444 150.09234,160.57944 L 144.66686,172.98898 C 140.83217,172.47646 137.01212,171.869 133.26053,170.89946 C 126.15121,169.12459 119.13236,167.02612 112.19993,164.64783 C 104.01832,161.91048 95.78444,159.15489 88.17886,155.02127 C 82.438777,151.65406 76.918788,147.7795 76.969194,140.51694 C 83.925147,130.13861 87.943488,125.50585 100.05525,123.07785 C 106.67154,121.34396 113.70486,120.13398 119.52748,116.39336 C 118.94112,117.23719 118.41576,126.33321 115.90029,114.25329 C 111.59079,107.54654 106.07159,101.77985 101.42339,95.317743 C 95.79764,85.807463 102.35946,73.911243 113.75812,78.233173 C 121.48608,81.021603 128.56436,85.189933 136.14234,88.325183 C 145.33631,90.535403 131.74522,101.65429 135.15472,91.336893 C 134.77685,83.477893 134.09373,75.599603 134.83099,67.736573 C 135.85521,58.444753 139.23873,44.725953 150.78333,45.283663 C 159.41264,48.871333 163.60528,56.873173 167.64834,65.033353 C 171.54096,72.870153 175.00832,80.921093 179.0563,88.673273 C 180.02594,88.075343 185.50866,84.645753 187.92625,83.424543 C 195.95862,79.829593 204.5249,77.883053 213.36154,78.968153 C 220.65126,80.144383 227.79221,82.192143 229.49849,90.258353 C 228.78256,101.39065 220.96286,109.83439 213.39419,117.67856 C 208.1746,122.892 202.62297,127.81935 198.02522,133.61389 C 198.93834,132.40866 201.23841,128.82759 199.86932,129.46944 L 187.96979,136.39791 z " />
    <path
       style="opacity:1;color:#000000;fill:#ffffff;fill-opacity:1;fill-rule:nonzero;stroke:none;stroke-width:1;stroke-linecap:round;stroke-linejoin:miter;marker:none;marker-start:none;marker-mid:none;marker-end:none;stroke-miterlimit:4;stroke-dasharray:none;stroke-dashoffset:0;stroke-opacity:1;visibility:visible;display:inline;overflow:visible"
       d="M 275.71429,246.64787 C 274.66695,252.60695 280.40621,258.24068 286.26042,257.9401 C 292.12082,259.80662 299.54929,260.10038 304.15802,255.34748 C 309.03381,252.46587 313.50885,248.32725 319.35028,247.61148 C 324.85513,253.40738 324.13041,262.87393 330.61217,267.99593 C 337.92853,277.42142 348.28858,286.1809 360.80277,286.39981 C 372.65316,286.01344 381.56753,274.63501 382.18331,263.34151 C 383.8223,249.89676 381.70126,236.19075 377.58841,223.3711 C 375.40016,218.00388 370.80019,213.64351 365.158,212.15132 C 358.59266,209.08967 349.8891,207.25037 343.86391,212.45196 C 337.3509,217.37489 334.23984,226.822 325.55414,228.66525 C 316.61315,229.66457 312.05005,218.1179 303.04245,219.45005 C 293.83067,220.68413 287.35868,228.33723 278.69298,231.0351 C 273.20551,234.14713 273.20386,241.597 275.71429,246.64787 z "
       id="path8930" />
    <path
       sodipodi:type="arc"
       style="opacity:1;color:#000000;fill:#6687bf;fill-opacity:1;fill-rule:nonzero;stroke:none;stroke-width:1;stroke-linecap:round;stroke-linejoin:miter;marker:none;marker-start:none;marker-mid:none;marker-end:none;stroke-miterlimit:4;stroke-dasharray:none;stroke-dashoffset:0;stroke-opacity:1;visibility:visible;display:inline;overflow:visible"
       id="path9930"
       sodipodi:cx="304.28571"
       sodipodi:cy="242.36218"
       sodipodi:rx="14.285714"
       sodipodi:ry="13.571428"
       d="M 318.57142 242.36218 A 14.285714 13.571428 0 1 1  289.99999,242.36218 A 14.285714 13.571428 0 1 1  318.57142 242.36218 z" />
    <path
       d="M 318.57142 242.36218 A 14.285714 13.571428 0 1 1  289.99999,242.36218 A 14.285714 13.571428 0 1 1  318.57142 242.36218 z"
       sodipodi:ry="13.571428"
       sodipodi:rx="14.285714"
       sodipodi:cy="242.36218"
       sodipodi:cx="304.28571"
       id="path10805"
       style="opacity:1;color:#000000;fill:#6687bf;fill-opacity:1;fill-rule:nonzero;stroke:none;stroke-width:1;stroke-linecap:round;stroke-linejoin:miter;marker:none;marker-start:none;marker-mid:none;marker-end:none;stroke-miterlimit:4;stroke-dasharray:none;stroke-dashoffset:0;stroke-opacity:1;visibility:visible;display:inline;overflow:visible"
       sodipodi:type="arc"
       transform="translate(36.42857,1.428571)" />
    <path
       style="fill:#000000;fill-opacity:1;fill-rule:nonzero;stroke:none;stroke-width:1px;stroke-linecap:butt;stroke-linejoin:miter;stroke-opacity:1"
       id="path8879"
       d="M 302.10323,223.71576 C 301.07174,223.66557 300.07043,224.0318 299.07673,224.26738 C 294.13513,225.44321 290.0764,228.05603 286.27705,231.32999 C 284.80888,234.99122 282.61394,228.78298 281.5233,243.80261 C 281.75715,250.3379 285.40958,255.17507 291.89959,256.17095 C 299.24312,256.12962 305.06568,251.60554 310.26536,246.89691 C 314.57089,242.5682 318.72786,238.63589 324.99144,241.00566 C 330.17171,244.37723 332.4446,250.48595 334.93138,255.89686 C 337.71773,262.42873 341.0793,268.64011 345.63559,274.09915 C 350.07995,279.26191 355.65561,281.11732 362.29189,280.76561 C 363.6139,286.04374 381.15288,266.90706 378.81673,269.79028 C 375.1393,274.32888 373.15412,277.70815 375.87143,273.28267 C 381.8332,261.70687 381.15589,248.05676 377.6163,235.85956 C 374.81189,227.07134 370.05369,218.84417 362.34787,213.58278 C 356.70553,210.69398 351.01966,213.10745 345.91301,215.98708 C 340.64857,219.17771 336.46401,223.66226 332.63137,228.40892 C 330.09145,231.81841 328.16832,235.4143 323.86095,236.28127 C 319.99973,235.64979 318.20014,232.57805 315.9961,229.69945 C 313.83306,227.02484 311.05362,225.16495 307.96599,223.74197 C 305.45702,222.7378 302.97967,222.93462 300.39938,223.42888 L 303.89906,212.05637 C 307.42576,211.89446 310.85913,212.01049 314.12823,213.55413 C 317.88129,215.42526 321.35476,217.72018 324.09678,220.95336 C 324.55555,221.51936 328.33988,225.9338 326.76692,224.6371 C 328.12421,221.88188 330.30507,218.98215 332.57167,216.57584 C 336.96913,211.72066 341.86418,207.31297 347.78218,204.37714 C 354.81921,201.2613 362.1189,199.83935 369.11491,203.97277 C 377.68539,210.06545 383.39849,218.94262 386.72029,228.8832 C 390.8847,242.09149 391.87101,256.53434 386.83596,269.66717 C 381.32086,281.78963 371.7284,290.90409 358.26906,291.78057 C 350.21224,291.59562 343.22255,288.98333 337.77032,282.82424 C 332.83683,277.05069 329.02527,270.54495 326.01872,263.56933 C 324.07977,259.32282 322.37034,254.48267 318.9193,251.27115 C 315.4578,252.93191 312.5379,255.98565 309.54293,258.60927 C 302.9909,263.78935 295.56626,267.89798 286.92889,266.82054 C 278.43414,264.60668 272.77607,258.69825 271.47195,249.83641 C 270.93934,237.51027 277.56086,227.34626 287.14173,219.6326 C 291.74175,216.35557 296.72598,213.84374 302.31382,212.75169 C 303.6927,212.56947 305.05743,212.35833 306.45301,212.43718 L 302.10323,223.71576 z " />
    <path
       style="opacity:1;color:#000000;fill:#6687bf;fill-opacity:1;fill-rule:nonzero;stroke:none;stroke-width:1;stroke-linecap:round;stroke-linejoin:miter;marker:none;marker-start:none;marker-mid:none;marker-end:none;stroke-miterlimit:4;stroke-dasharray:none;stroke-dashoffset:0;stroke-opacity:1;visibility:visible;display:inline;overflow:visible"
       d="M 279.28571,310.93362 C 281.53374,317.63809 289.06782,322.03271 296.01104,320.72734 C 298.28533,321.18595 300.90387,319.92972 301.68014,317.68139 C 303.39814,314.70439 306.33505,312.46941 307.3494,309.08893 C 307.91339,305.51848 305.59963,302.24038 302.89842,300.15939 C 298.04547,295.99306 291.27254,293.60786 284.91704,295.11649 C 281.41796,296.27155 279.22225,299.59043 277.96866,302.88237 C 277.03342,304.84191 276.13767,307.33671 277.44296,309.34336 C 277.89152,310.03236 278.53718,310.59258 279.28571,310.93362 z "
       id="path9821" />
    <path
       style="fill:#000000;fill-opacity:1;fill-rule:nonzero;stroke:none;stroke-width:1px;stroke-linecap:butt;stroke-linejoin:miter;stroke-opacity:1"
       id="path8899"
       d="M 287.09594,299.42925 C 286.02855,299.39162 285.08897,300.01282 284.12593,300.40743 C 279.20222,302.29501 272.46555,312.73378 282.7612,299.15729 C 279.93829,301.94284 281.3682,304.74306 283.13442,307.74042 C 285.94038,311.4648 289.48299,313.71269 294.06934,314.24239 C 301.69642,314.03288 307.05784,304.24264 298.43085,315.53729 C 300.76996,312.32848 300.52675,308.96821 298.94069,305.53421 C 296.81323,302.34763 293.64212,301.48707 290.04441,300.94906 C 288.31032,300.75174 286.57214,300.88181 284.83758,300.95296 L 288.92137,289.79834 C 290.95057,289.82596 292.98726,289.78709 294.99563,290.14846 C 299.92136,291.2246 304.45669,292.98085 307.48883,297.27304 C 310.33569,301.81647 311.46133,306.78102 309.77459,312.0158 C 303.76551,320.30476 300.01481,326.13235 289.32317,325.0957 C 283.46286,323.96654 278.59271,320.88992 274.84443,316.21352 C 271.85296,312.03817 269.62808,307.45974 271.262,302.29055 C 276.01531,295.94106 279.17277,291.05389 286.67644,288.72086 C 288.25856,288.39468 289.81245,287.99499 291.44511,288.15226 L 287.09594,299.42925 z " />
  </g>
</svg>
