<?xml version="1.0" encoding="UTF-8" standalone="no"?>
<!-- Created with Inkscape (http://www.inkscape.org/) -->
<svg
   xmlns:dc="http://purl.org/dc/elements/1.1/"
   xmlns:cc="http://web.resource.org/cc/"
   xmlns:rdf="http://www.w3.org/1999/02/22-rdf-syntax-ns#"
   xmlns:svg="http://www.w3.org/2000/svg"
   xmlns="http://www.w3.org/2000/svg"
   xmlns:sodipodi="http://inkscape.sourceforge.net/DTD/sodipodi-0.dtd"
   xmlns:inkscape="http://www.inkscape.org/namespaces/inkscape"
   width="1000"
   height="1000"
   id="svg2"
   sodipodi:version="0.32"
   inkscape:version="0.43"
   version="1.0"
   sodipodi:docbase="/home/kkowal/tale/art/monster"
   sodipodi:docname="bug.svg"
   inkscape:export-filename="/home/kkowal/tale/art/monster/bug.png"
   inkscape:export-xdpi="90"
   inkscape:export-ydpi="90">
  <defs
     id="defs4" />
  <sodipodi:namedview
     id="base"
     pagecolor="#ffffff"
     bordercolor="#666666"
     borderopacity="1.0"
     inkscape:pageopacity="0.0"
     inkscape:pageshadow="2"
     inkscape:zoom="0.49497475"
     inkscape:cx="793.16079"
     inkscape:cy="716.47335"
     inkscape:document-units="px"
     inkscape:current-layer="layer1"
     inkscape:window-width="1600"
     inkscape:window-height="1125"
     inkscape:window-x="0"
     inkscape:window-y="25" />
  <metadata
     id="metadata7">
    <rdf:RDF>
      <cc:Work
         rdf:about="">
        <dc:format>image/svg+xml</dc:format>
        <dc:type
           rdf:resource="http://purl.org/dc/dcmitype/StillImage" />
      </cc:Work>
    </rdf:RDF>
  </metadata>
  <g
     inkscape:label="Layer 1"
     inkscape:groupmode="layer"
     id="layer1">
    <path
       style="opacity:1;color:#000000;fill:#8b351a;fill-opacity:1;fill-rule:nonzero;stroke:none;stroke-width:3.9000001;stroke-linecap:butt;stroke-linejoin:miter;marker:none;marker-start:none;marker-mid:none;marker-end:none;stroke-miterlimit:4;stroke-dasharray:none;stroke-dashoffset:0;stroke-opacity:1;visibility:visible;display:inline;overflow:visible"
       d="M 757.49022,712.83374 C 777.71746,719.21129 813.72136,758.37687 829.10227,728.70093 C 813.56138,697.64542 778.2667,664.99861 743.08527,666.9071 C 725.06802,675.83462 742.53747,705.85856 754.36264,712.53759"
       id="path15383"
       sodipodi:nodetypes="cccc" />
    <path
       style="opacity:1;color:#000000;fill:#8b351a;fill-opacity:1;fill-rule:nonzero;stroke:none;stroke-width:3.9000001;stroke-linecap:butt;stroke-linejoin:miter;marker:none;marker-start:none;marker-mid:none;marker-end:none;stroke-miterlimit:4;stroke-dasharray:none;stroke-dashoffset:0;stroke-opacity:1;visibility:visible;display:inline;overflow:visible"
       d="M 757.49022,652.71071 C 781.94713,674.45012 815.16903,696.47492 848.76344,694.33644 C 879.53204,664.84155 823.60528,639.36623 800.47703,632.18556 C 784.6732,623.59453 731.76917,619.31374 758.91181,652.4145"
       id="path15385"
       sodipodi:nodetypes="cccc" />
    <path
       style="opacity:1;color:#000000;fill:#8b351a;fill-opacity:1;fill-rule:nonzero;stroke:none;stroke-width:3.9000001;stroke-linecap:butt;stroke-linejoin:miter;marker:none;marker-start:none;marker-mid:none;marker-end:none;stroke-miterlimit:4;stroke-dasharray:none;stroke-dashoffset:0;stroke-opacity:1;visibility:visible;display:inline;overflow:visible"
       d="M 778.53009,611.54264 C 807.9718,621.81994 844.99868,646.3642 875.7205,633.85801 C 886.92863,603.08506 833.74331,587.50778 811.02869,581.05492 C 788.15888,571.63027 760.4737,582.7608 778.53009,611.54264 z "
       id="path15387"
       sodipodi:nodetypes="cccc" />
    <path
       style="opacity:1;color:#000000;fill:#8b351a;fill-opacity:1;fill-rule:nonzero;stroke:none;stroke-width:3.9000001;stroke-linecap:butt;stroke-linejoin:miter;marker:none;marker-start:none;marker-mid:none;marker-end:none;stroke-miterlimit:4;stroke-dasharray:none;stroke-dashoffset:0;stroke-opacity:1;visibility:visible;display:inline;overflow:visible"
       d="M 783.07923,557.04688 C 809.61832,583.3743 850.24573,583.38262 882.35562,570.22345 C 902.18702,545.19034 852.6588,536.29815 836.83516,527.05512 C 814.89476,516.92864 766.3874,519.55638 783.07923,557.04688 z "
       id="path15389" />
    <path
       style="opacity:1;color:#000000;fill:#8b351a;fill-opacity:1;fill-rule:nonzero;stroke:none;stroke-width:3.9000001;stroke-linecap:butt;stroke-linejoin:miter;marker:none;marker-start:none;marker-mid:none;marker-end:none;stroke-miterlimit:4;stroke-dasharray:none;stroke-dashoffset:0;stroke-opacity:1;visibility:visible;display:inline;overflow:visible"
       d="M 788.76571,517.0635 C 816.78617,512.57415 854.86824,530.26147 876.24366,503.73486 C 879.46747,468.39662 822.1915,474.0753 798.43433,478.75156 C 781.24007,481.21999 764.9597,509.61559 788.76571,517.0635 z "
       id="path15391"
       sodipodi:nodetypes="cccc" />
    <path
       style="opacity:1;color:#000000;fill:#8b351a;fill-opacity:1;fill-rule:nonzero;stroke:none;stroke-width:3.9000001;stroke-linecap:butt;stroke-linejoin:miter;marker:none;marker-start:none;marker-mid:none;marker-end:none;stroke-miterlimit:4;stroke-dasharray:none;stroke-dashoffset:0;stroke-opacity:1;visibility:visible;display:inline;overflow:visible"
       d="M 356.31066,426.43463 C 336.55382,412.74221 284.27759,395.41216 282.11383,430.14982 C 298.17937,452.59128 341.24877,461.6835 355.73741,433.58528 C 355.83372,431.8928 355.93002,430.20032 356.02633,428.50784"
       id="path15397" />
    <path
       style="opacity:1;color:#000000;fill:#8b351a;fill-opacity:1;fill-rule:nonzero;stroke:none;stroke-width:3.9000001;stroke-linecap:butt;stroke-linejoin:miter;marker:none;marker-start:none;marker-mid:none;marker-end:none;stroke-miterlimit:4;stroke-dasharray:none;stroke-dashoffset:0;stroke-opacity:1;visibility:visible;display:inline;overflow:visible"
       d="M 325.60376,474.11845 C 302.5125,461.74783 271.84247,445.78622 245.44499,455.02606 C 217.40028,474.76908 272.44352,494.56909 289.28588,500.0868 C 307.42396,512.78093 345.34075,500.85321 325.60376,474.11845 z "
       id="path15399"
       sodipodi:nodetypes="cccc" />
    <path
       style="opacity:1;color:#000000;fill:#8b351a;fill-opacity:1;fill-rule:nonzero;stroke:none;stroke-width:3.9000001;stroke-linecap:butt;stroke-linejoin:miter;marker:none;marker-start:none;marker-mid:none;marker-end:none;stroke-miterlimit:4;stroke-dasharray:none;stroke-dashoffset:0;stroke-opacity:1;visibility:visible;display:inline;overflow:visible"
       d="M 310.819,521.20994 C 290.44323,503.51727 227.29733,487.92954 221.40703,520.57624 C 237.44041,549.98223 285.05774,554.5097 313.43281,562.13762 C 341.92461,558.08013 333.65688,527.58462 312.52492,519.13673"
       id="path15401"
       sodipodi:nodetypes="cccc" />
    <path
       style="opacity:1;color:#000000;fill:#a98848;fill-opacity:1;fill-rule:nonzero;stroke:none;stroke-width:3.9000001;stroke-linecap:butt;stroke-linejoin:miter;marker:none;marker-start:none;marker-mid:none;marker-end:none;stroke-miterlimit:4;stroke-dasharray:none;stroke-dashoffset:0;stroke-opacity:1;visibility:visible;display:inline;overflow:visible"
       d="M 679.47411,68.759319 C 673.76364,68.809419 668.06555,69.128259 662.41028,69.748859 C 658.46034,92.031319 662.36428,114.23514 670.64313,134.94835 C 704.94257,133.81479 739.5574,143.60364 764.15997,168.99575 C 789.27538,201.0949 781.8955,249.29914 758.2492,279.93385 C 735.52828,320.35371 706.59197,356.5784 676.80019,391.27509 C 660.85779,425.44885 688.23749,460.74716 715.11466,478.0245 C 727.19228,486.74523 742.2214,493.22479 757.12334,489.78899 C 822.3182,450.13174 875.47701,385.00612 894.97095,308.33723 C 913.53955,216.60946 861.85823,108.79059 771.75954,84.481959 C 742.13739,76.030019 710.52387,68.486899 679.47411,68.759319 z "
       id="path4747" />
    <path
       style="opacity:1;color:#000000;fill:#000000;fill-opacity:1;fill-rule:nonzero;stroke:none;stroke-width:3.9000001;stroke-linecap:butt;stroke-linejoin:miter;marker:none;marker-start:none;marker-mid:none;marker-end:none;stroke-miterlimit:4;stroke-dasharray:none;stroke-dashoffset:0;stroke-opacity:1;visibility:visible;display:inline;overflow:visible"
       d="M 695.20098,59.743539 C 684.81042,59.902449 674.45009,60.788959 664.16943,62.418949 C 664.07698,62.557539 663.97978,62.682589 663.88797,62.822099 C 662.59106,67.972469 661.74544,73.147849 661.28441,78.288189 C 699.69786,72.777779 739.38579,78.236529 776.2278,92.764759 C 829.67125,115.82253 867.84619,160.25654 883.78272,216.56683 C 897.08982,270.88613 884.01109,326.28831 860.13963,375.47915 C 840.84139,404.58754 822.67208,436.03866 795.57853,457.83061 C 783.69321,466.80711 771.16797,476.1504 756.31413,478.83078 L 740.34097,502.10322 C 757.53149,502.17801 771.97245,490.3029 785.26987,480.58996 C 824.03624,449.49048 857.79905,412.14158 879.59592,366.7932 C 902.74037,316.1396 915.19906,259.45524 900.9521,204.32589 C 883.80878,146.55442 844.14549,101.34603 789.1752,77.555199 C 759.26753,65.639259 727.515,59.359159 695.90465,59.743539 C 695.669,59.746399 695.43661,59.739929 695.20098,59.743539 z M 681.30363,121.38803 C 676.85414,121.45217 672.38065,121.71319 667.93404,122.12102 C 667.37285,122.19902 666.80475,122.2574 666.24524,122.34091 C 666.24856,122.35194 666.24192,122.36654 666.24524,122.37757 C 668.04372,128.34991 670.23406,134.21961 672.75413,139.96934 C 706.72179,139.85886 739.97135,151.13624 759.48062,181.93303 C 778.02623,215.94769 768.98738,252.65762 749.98116,284.55169 C 736.8092,306.34051 721.21228,326.70555 703.5394,344.95009 C 701.25992,344.96872 674.20464,363.47717 678.876,372.36393 L 703.89122,357.30098 C 704.03417,357.33397 704.17442,357.38517 704.27824,357.44757 C 704.30561,357.4653 704.35921,357.50107 704.38379,357.52087 C 704.44687,357.57551 704.51582,357.67194 704.55971,357.74077 C 704.57008,357.75841 704.58567,357.79558 704.59489,357.81407 C 704.61652,357.86136 704.6507,357.94487 704.66525,357.99733 C 704.90742,358.98101 703.99207,360.82539 702.51908,362.94501 C 705.9633,359.36761 710.35536,354.95476 715.81832,349.42133 C 737.03342,327.08917 756.10758,302.46869 771.44289,275.6092 C 791.04433,241.22608 798.38665,202.4249 778.05732,166.87009 C 756.03016,133.18095 719.0419,120.84401 681.30363,121.38803 z M 693.12517,355.17531 C 692.19977,356.05709 691.28421,356.94933 690.3457,357.81407 C 689.80862,358.29416 689.23938,358.79585 688.65691,359.3167 C 689.92427,358.14659 691.39457,356.77252 693.12517,355.17531 z M 702.13207,363.42145 C 694.24369,371.62862 691.34402,374.96503 691.15493,375.44249 C 691.15487,375.44584 691.1548,375.47524 691.15493,375.47915 C 691.16298,375.4788 691.18833,375.47884 691.19011,375.47915 C 691.87719,375.17835 698.42013,368.58834 702.13207,363.42145 z "
       id="path5668" />
    <path
       style="opacity:1;color:#000000;fill:#8b351a;fill-opacity:1;fill-rule:nonzero;stroke:none;stroke-width:3.9000001;stroke-linecap:butt;stroke-linejoin:miter;marker:none;marker-start:none;marker-mid:none;marker-end:none;stroke-miterlimit:4;stroke-dasharray:none;stroke-dashoffset:0;stroke-opacity:1;visibility:visible;display:inline;overflow:visible"
       d="M 767.44149,437.6892 C 792.25343,431.2454 825.24878,416.71725 850.00787,429.7788 C 874.80495,460.0981 807.66034,476.46084 785.32183,470.35325 C 769.37351,471.04434 765.27133,450.46152 767.44149,437.6892 z "
       id="path15393"
       sodipodi:nodetypes="cccc" />
    <path
       style="opacity:1;color:#000000;fill:#a98848;fill-opacity:1;fill-rule:nonzero;stroke:none;stroke-width:3.9000001;stroke-linecap:butt;stroke-linejoin:miter;marker:none;marker-start:none;marker-mid:none;marker-end:none;stroke-miterlimit:4;stroke-dasharray:none;stroke-dashoffset:0;stroke-opacity:1;visibility:visible;display:inline;overflow:visible"
       d="M 333.5648,599.39961 C 308.26988,598.29438 293.50817,573.88994 279.13727,555.49713 C 245.32734,511.32795 177.30298,505.54887 134.81856,539.21077 C 102.57243,559.93241 66.498183,579.44448 47.703786,615.51115 C 41.135671,627.2611 28.810086,641.24882 35.679593,655.39142 C 51.947974,668.46303 72.949807,652.04996 90.995531,651.81197 C 122.56594,648.71531 154.29536,646.79855 185.68568,641.96539 C 206.9079,639.0739 215.26787,673.64609 193.47583,678.99446 C 178.96787,679.27865 160.49776,694.07959 175.99071,707.80247 C 188.81804,719.59943 207.49956,718.0252 221.97492,726.52601 C 267.1555,742.92521 320.61924,736.15182 358.65606,705.10682 C 369.42644,685.67393 390.80579,679.93637 409.54894,673.89818 C 424.22224,660.87844 413.48743,639.42086 403.34739,627.27849 C 392.61657,612.59826 379.60866,591.21592 359.16752,603.25002 C 350.24279,606.74363 341.28736,605.0009 333.5648,599.39961 z "
       id="path3484" />
    <path
       style="opacity:1;color:#000000;fill:#8b351a;fill-opacity:1;fill-rule:nonzero;stroke:none;stroke-width:3.9000001;stroke-linecap:butt;stroke-linejoin:miter;marker:none;marker-start:none;marker-mid:none;marker-end:none;stroke-miterlimit:4;stroke-dasharray:none;stroke-dashoffset:0;stroke-opacity:1;visibility:visible;display:inline;overflow:visible"
       d="M 462.64739,703.65238 C 460.95845,711.04239 456.3734,717.18915 453.77232,724.20014 C 448.53083,733.96338 445.30581,744.82715 439.18205,754.08844 C 436.03735,760.04977 434.22195,766.63767 431.30611,772.71103 C 432.77121,777.35959 436.61164,770.51475 438.63395,769.18836 C 447.48246,760.69702 455.62465,751.1249 461.28687,740.01298 C 461.70008,737.01787 466.92141,731.88238 466.33705,737.76203 C 465.3823,744.33321 463.19909,750.61251 460.76611,756.73707 C 458.69098,762.33615 456.47134,768.09569 456.25522,774.15425 C 457.40242,779.54775 463.89494,775.89814 463.3394,771.62586 C 465.17288,766.22471 464.67131,760.17084 467.43742,755.06547 C 470.79433,746.95629 474.94112,739.24167 479.72058,731.95518 C 483.02584,727.0222 486.22933,721.94541 488.77332,716.57067 C 490.64617,714.28824 493.9992,711.72967 492.93945,708.3627 C 489.83981,705.40342 485.58733,703.91236 481.58847,702.67498 C 477.47186,701.6838 473.17388,700.72981 468.951,701.09754 C 466.74131,701.62972 464.73541,702.77147 462.64739,703.65238 z "
       id="path4532" />
    <path
       style="opacity:1;color:#000000;fill:#000000;fill-opacity:1;fill-rule:nonzero;stroke:none;stroke-width:3.9000001;stroke-linecap:butt;stroke-linejoin:miter;marker:none;marker-start:none;marker-mid:none;marker-end:none;stroke-miterlimit:4;stroke-dasharray:none;stroke-dashoffset:0;stroke-opacity:1;visibility:visible;display:inline;overflow:visible"
       id="path2369"
       d="M 313.20251,616.38074 C 307.81718,611.39458 305.4314,603.85073 301.47226,597.65381 C 286.42567,575.16197 265.72267,557.06972 242.75668,543.31169 C 214.01765,526.13695 182.08133,527.3035 151.36076,537.76021 C 101.81982,560.64533 95.289914,568.8067 73.095588,594.54814 C 61.162545,611.43759 42.763319,628.72054 39.737493,650.37479 C 48.403155,655.5638 65.984451,648.69005 76.395838,646.22839 C 102.30419,640.17277 128.36806,634.79658 154.56418,630.1871 C 167.77067,627.96837 181.01872,625.67185 194.41533,625.12841 C 199.70974,625.03298 205.01947,625.2807 210.2945,625.568 C 217.5777,627.68111 220.11983,634.86434 222.80395,641.35599 C 226.1093,650.00237 230.35573,658.45845 229.3266,667.87669 C 218.96318,688.00695 198.2528,694.70366 178.48343,699.48352 C 169.51111,701.79867 160.26509,702.19996 151.111,703.1594 C 157.48223,695.95789 161.348,681.00814 173.07273,690.85111 C 190.92534,703.62324 210.88271,713.32686 231.46737,720.6459 C 253.32808,727.83659 276.71459,729.94613 299.49678,727.00319 C 314.51096,725.51182 327.051,718.08314 338.74573,708.95598 C 361.91229,688.17996 321.37313,725.62773 335.43939,711.94768 L 361.75574,702.99322 C 350.98547,714.09798 339.62951,724.72118 327.17529,733.85335 C 314.3323,742.52709 300.63705,748.77163 284.92806,749.278 C 261.37287,750.80321 237.49455,747.83681 215.11037,740.18332 C 193.85278,732.32344 173.33151,722.29183 153.9403,710.47059 C 137.45137,699.07562 138.38789,682.89795 166.82971,679.34575 C 175.54566,679.11433 184.21408,678.03944 192.6774,675.84619 C 210.08364,671.10258 231.23101,651.73275 200.84722,680.46838 C 200.10086,681.17425 204.10571,678.57109 203.56575,679.04128 C 208.73508,673.25656 202.64429,664.791 200.52245,658.22825 C 198.86415,654.32369 197.93135,649.24486 193.43448,648.91302 C 188.47485,648.74993 183.51471,648.31032 178.54482,648.50958 C 165.85021,648.96756 153.21836,650.40751 140.65474,652.28239 C 114.5724,656.20205 88.674182,661.39942 63.183118,668.26544 C 49.059271,671.95549 24.232707,682.7411 16.163542,664.99247 C 15.770513,640.75665 38.170927,620.85552 50.929665,602.55102 C 81.717897,566.43156 118.21765,533.3015 163.17893,517.14376 C 195.91113,506.71734 229.51183,506.65894 259.57046,525.26139 C 283.18426,539.81452 304.62,558.21286 321.7259,580.30135 C 322.56002,581.40618 336.26933,598.75314 329.89987,592.21781 L 313.20251,616.38074 z " />
    <path
       style="color:#000000;fill:#a98848;fill-opacity:1;fill-rule:nonzero;stroke:none;stroke-width:3.9000001;stroke-linecap:butt;stroke-linejoin:miter;marker:none;marker-start:none;marker-mid:none;marker-end:none;stroke-miterlimit:4;stroke-dasharray:none;stroke-dashoffset:0;stroke-opacity:1;visibility:visible;display:inline;overflow:visible"
       d="M 616.75037,656.85711 C 589.21227,676.7578 558.8385,698.45978 547.7463,733.17079 C 539.18342,760.05026 541.19017,790.4874 553.59875,815.73072 C 552.37061,834.18736 583.81171,832.50082 581.7934,814.27468 C 583.40212,800.22023 586.43943,780.8515 602.56128,777.91658 C 618.34737,775.12569 630.95909,788.32407 645.86064,790.98676 C 661.34225,796.84509 666.42627,821.1517 654.0765,832.79368 C 640.56296,852.82687 623.84245,870.3398 611.22763,891.05644 C 607.18454,908.43169 630.81647,921.30975 643.38674,910.49855 C 677.17997,897.46301 716.00551,891.78165 742.19592,863.6345 C 776.26441,826.17511 778.70067,766.16983 756.3146,721.7171 C 746.30354,697.04364 736.31833,669.64738 712.9258,655.46197 C 691.57033,640.56324 664.58715,638.82266 639.93916,643.68237 C 632.55483,647.35656 621.80811,650.36279 616.75037,656.85711 z "
       id="path4391" />
    <path
       style="color:#000000;fill:#000000;fill-opacity:1;fill-rule:nonzero;stroke:none;stroke-width:3.9000001;stroke-linecap:butt;stroke-linejoin:miter;marker:none;marker-start:none;marker-mid:none;marker-end:none;stroke-miterlimit:4;stroke-dasharray:none;stroke-dashoffset:0;stroke-opacity:1;visibility:visible;display:inline;overflow:visible"
       id="path2341"
       d="M 746.52474,664.16407 C 745.71829,664.82939 756.317,685.03571 759.13896,690.95317 C 774.95004,723.95948 785.19451,759.7637 781.52278,796.65814 C 774.49403,845.99948 737.7551,882.19967 694.7515,902.92673 C 666.4302,914.65475 635.45052,924.14177 604.48311,922.53831 C 585.68276,921.44059 587.707,907.77564 597.04643,896.06397 C 610.92302,879.57887 624.07967,862.47368 636.03815,844.50244 C 643.30061,832.83359 651.25192,821.30904 656.47667,808.51478 C 654.03634,803.83264 645.67826,804.36936 640.25911,803.86257 C 629.61725,802.90718 620.72618,797.33624 612.75369,790.50536 C 607.16182,785.26129 603.41117,778.01265 598.67705,779.48999 C 632.1552,743.23683 601.32479,785.82342 594.06443,800.9453 C 587.50401,814.37125 582.09925,828.32147 576.20984,842.05042 C 549.71974,872.41194 547.75918,860.59449 541.25895,834.37943 C 536.71181,814.86195 531.73264,795.25481 530.87067,775.13743 C 529.96387,750.33332 537.11513,727.23363 551.61791,707.37068 C 574.62619,679.51953 603.2951,656.80366 633.5776,637.618 L 622.34029,660.54981 C 576.92357,689.03682 600.42516,674.44929 574.95617,698.50885 C 560.61737,716.68089 552.659,737.94292 553.16625,761.42727 C 553.70242,780.9998 558.1439,800.23587 562.97527,819.11338 C 570.17473,844.73522 572.80077,835.63245 550.32706,852.75026 C 559.20604,840.43196 562.78014,824.86715 570.09415,811.62801 C 581.22708,787.9525 589.02732,768.92149 612.49252,754.53762 C 622.11248,756.03016 625.90267,764.7641 632.6285,771.09576 C 639.71254,777.01466 647.43613,780.98182 656.79759,781.24385 C 666.48194,782.33884 677.57695,783.5301 680.76907,794.46685 C 680.23533,809.61617 666.77718,821.9665 660.19208,834.85005 C 648.34642,852.7621 635.44147,869.90436 622.13712,886.72225 C 616.53437,893.77268 606.36258,899.74545 620.15732,900.68674 C 649.45222,903.1248 679.04291,894.20263 705.52063,882.32495 C 735.82332,866.53637 746.34292,861.4204 761.2021,808.03026 C 765.79444,772.57285 756.05816,737.8623 739.13404,706.87985 C 733.80875,697.31107 728.1816,687.87417 721.50821,679.21344 L 746.52474,664.16407 z " />
    <path
       style="opacity:1;color:#000000;fill:#000000;fill-opacity:1;fill-rule:nonzero;stroke:none;stroke-width:3.9000001;stroke-linecap:butt;stroke-linejoin:miter;marker:none;marker-start:none;marker-mid:none;marker-end:none;stroke-miterlimit:4;stroke-dasharray:none;stroke-dashoffset:0;stroke-opacity:1;visibility:visible;display:inline;overflow:visible"
       id="path2459"
       d="M 762.87302,704.72914 C 765.36205,707.49338 767.91129,710.1921 770.74421,712.62468 C 780.45478,720.44676 790.93504,727.51922 802.28915,732.46902 C 808.42733,734.75091 815.62873,736.9236 822.04796,734.4622 C 823.7336,733.81583 829.68316,732.04178 828.32388,733.26495 C 821.87356,739.06942 818.98424,738.61316 821.91878,735.50715 C 828.90884,725.23886 818.14699,713.85118 811.22133,707.23488 C 797.29855,694.99551 780.97962,686.08056 764.56956,678.031 C 755.65951,673.71963 746.56465,669.79943 737.22041,666.62691 L 743.96905,658.38186 C 753.02086,662.20117 761.86899,666.52456 770.61523,671.04564 C 787.04026,679.61627 803.5013,688.60713 817.92022,700.5661 C 826.15961,708.00095 837.16274,719.39953 831.66741,731.76024 C 822.7874,745.84056 809.17307,746.10926 795.8546,740.0706 C 784.42579,734.66777 773.78429,727.53414 763.40429,720.2361 C 762.35367,719.46072 754.0549,712.82007 756.19904,714.64307 L 762.87302,704.72914 z "
       sodipodi:nodetypes="cccsscccccccccccc" />
    <path
       style="opacity:1;color:#000000;fill:#000000;fill-opacity:1;fill-rule:nonzero;stroke:none;stroke-width:3.9000001;stroke-linecap:butt;stroke-linejoin:miter;marker:none;marker-start:none;marker-mid:none;marker-end:none;stroke-miterlimit:4;stroke-dasharray:none;stroke-dashoffset:0;stroke-opacity:1;visibility:visible;display:inline;overflow:visible"
       id="path2461"
       d="M 758.09698,646.70835 C 757.99528,647.20944 763.2559,651.81057 765.19824,653.30913 C 778.70143,663.10595 793.19777,671.35831 807.87761,679.06658 C 819.8717,684.39058 833.28881,694.74233 846.98489,690.89339 C 848.63022,690.22152 854.6759,690.577 852.96216,676.93482 C 849.94672,664.20707 838.78795,655.82024 828.65364,649.26496 C 814.62382,640.51066 799.00437,635.07747 783.24863,630.81907 C 775.59458,628.8012 767.84045,627.2112 760.03174,626.00365 L 766.31962,617.5517 C 773.97102,619.22221 781.57277,621.14022 789.10443,623.32403 C 804.97748,628.01195 820.8095,633.44736 835.09407,642.21458 C 845.97458,649.13628 857.5426,657.83495 861.50177,671.08564 C 864.27472,684.68543 854.15922,696.50927 841.61497,699.87626 C 827.27375,702.06971 814.3757,691.63563 801.96901,685.82356 C 787.16457,677.88179 772.39104,669.8217 758.12856,660.85848 C 754.61974,658.56835 750.61934,656.39031 748.09779,652.88303 L 758.09698,646.70835 z " />
    <path
       style="opacity:1;color:#000000;fill:#000000;fill-opacity:1;fill-rule:nonzero;stroke:none;stroke-width:3.9000001;stroke-linecap:butt;stroke-linejoin:miter;marker:none;marker-start:none;marker-mid:none;marker-end:none;stroke-miterlimit:4;stroke-dasharray:none;stroke-dashoffset:0;stroke-opacity:1;visibility:visible;display:inline;overflow:visible"
       id="path2467"
       d="M 775.78907,605.66088 C 773.50282,603.32931 783.84392,609.59398 785.3337,610.30632 C 799.95,617.07194 815.27578,622.03256 830.74129,626.20052 C 843.18855,629.15415 856.0116,633.15611 868.90031,631.42517 C 867.74135,634.93795 881.67734,623.92304 879.52229,625.85719 C 868.02479,636.17613 875.18182,632.00557 874.8852,626.35288 C 871.01704,613.07656 856.60687,604.91924 845.64521,598.80715 C 829.6697,590.33175 812.43983,584.60012 794.88866,580.93019 C 787.52509,579.50628 780.02192,578.42154 772.51995,578.96359 L 778.61451,569.79019 C 786.11153,569.9699 793.51911,571.38173 800.80379,573.1635 C 818.29166,577.61839 835.42614,583.80838 851.61028,592.04536 C 863.63673,598.6244 878.10883,606.70015 883.75255,620.32997 C 886.44798,631.9999 872.76238,639.4542 863.21644,640.32299 C 850.19169,641.05348 837.54172,636.76663 825.06198,633.48808 C 809.43262,629.02093 793.88881,624.15511 778.72572,618.17116 C 774.47667,616.47313 769.01368,615.2402 765.7899,611.83557 L 775.78907,605.66088 z " />
    <path
       style="opacity:1;color:#000000;fill:#000000;fill-opacity:1;fill-rule:nonzero;stroke:none;stroke-width:3.9000001;stroke-linecap:butt;stroke-linejoin:miter;marker:none;marker-start:none;marker-mid:none;marker-end:none;stroke-miterlimit:4;stroke-dasharray:none;stroke-dashoffset:0;stroke-opacity:1;visibility:visible;display:inline;overflow:visible"
       id="path2471"
       d="M 786.59652,554.3614 C 789.50627,556.41378 792.76911,557.84353 796.00475,559.23702 C 811.81054,565.55236 828.5361,569.18132 845.37216,570.73812 C 856.5579,571.25224 868.25249,571.67134 879.10531,568.22788 C 881.50897,567.46523 883.93136,566.46754 885.96441,564.89378 C 886.5167,564.46627 888.03753,563.00806 887.51109,563.46965 C 885.58369,565.15968 883.67779,566.87613 881.76115,568.57938 C 889.50631,556.75128 867.5579,545.91038 859.93592,542.00583 C 840.90325,532.839 819.88212,529.53169 799.04576,529.94296 C 792.56716,530.10448 786.1358,530.94656 779.76934,532.16396 L 785.01515,523.63533 C 791.36718,522.78912 797.758,522.26499 804.16728,522.32706 C 825.22862,522.66283 846.3352,526.41926 865.67855,535.35132 C 875.53386,540.14726 897.39943,550.35213 891.52872,565.13435 C 875.75006,580.04522 861.0469,579.71949 840.26349,577.93624 C 823.02489,576.18857 805.96729,572.64849 789.42645,567.27488 C 786.96517,566.45542 781.53382,564.13887 779.92255,564.27533 L 786.59652,554.3614 z " />
    <path
       style="opacity:1;color:#000000;fill:#000000;fill-opacity:1;fill-rule:nonzero;stroke:none;stroke-width:3.9000001;stroke-linecap:butt;stroke-linejoin:miter;marker:none;marker-start:none;marker-mid:none;marker-end:none;stroke-miterlimit:4;stroke-dasharray:none;stroke-dashoffset:0;stroke-opacity:1;visibility:visible;display:inline;overflow:visible"
       id="path2473"
       d="M 791.82373,513.73278 C 794.15987,513.99646 796.5115,514.10751 798.85931,514.19024 C 812.46048,514.57276 826.07144,514.42016 839.64947,513.49103 C 851.63142,512.74754 863.76276,511.30443 874.03514,504.37686 C 873.0676,505.81241 879.21397,499.89218 877.94722,501.04778 C 866.2859,511.68591 877.0657,504.03986 874.99702,497.33461 C 869.1217,488.04591 856.90264,484.52853 847.04404,482.37362 C 831.17288,479.33153 814.92377,480.80396 799.1618,483.81361 C 792.93579,485.02956 786.79081,486.64754 780.73273,488.56808 L 785.89559,479.56158 C 791.93649,477.97735 798.02986,476.61139 804.1822,475.58235 C 820.25594,472.94625 836.74252,471.64871 852.85782,474.68271 C 863.7544,477.03206 876.45091,480.85601 883.49595,490.49374 C 889.01795,500.95613 877.01052,509.12324 869.39106,513.95931 C 858.62135,519.98233 846.47676,520.94498 834.45488,521.47359 C 820.58914,522.22222 806.70823,522.53064 792.83813,523.16779 C 790.2737,523.28553 787.70555,523.39125 785.14976,523.64672 L 791.82373,513.73278 z " />
    <path
       style="opacity:1;color:#000000;fill:#000000;fill-opacity:1;fill-rule:nonzero;stroke:none;stroke-width:3.9000001;stroke-linecap:butt;stroke-linejoin:miter;marker:none;marker-start:none;marker-mid:none;marker-end:none;stroke-miterlimit:4;stroke-dasharray:none;stroke-dashoffset:0;stroke-opacity:1;visibility:visible;display:inline;overflow:visible"
       id="path2479"
       d="M 305.79893,523.64759 C 304.7729,522.49256 297.88817,518.92721 295.00939,517.68113 C 280.298,511.79176 264.54127,508.86055 248.79337,508.89052 C 242.00984,509.14664 235.04327,509.77961 228.65994,512.37662 C 226.78585,513.13909 222.0462,517.12697 223.57597,515.76566 C 225.59616,513.96794 227.58302,512.12994 229.58654,510.31208 C 227.56014,517.01841 239.99119,522.14999 244.47711,524.39469 C 247.99946,526.11425 251.63452,527.5599 255.29041,528.93611 L 248.74175,536.89126 C 245.06665,535.39025 241.40749,533.84225 237.83095,532.09865 C 231.13034,528.77114 219.31647,523.95148 219.50744,514.66265 C 224.20958,501.14495 243.35267,501.15476 254.19181,500.94126 C 270.25744,501.48113 286.16356,504.74513 301.4551,509.84454 C 306.05608,511.46264 311.11869,513.07643 314.97622,516.22354 L 305.79893,523.64759 z " />
    <path
       style="opacity:1;color:#000000;fill:#000000;fill-opacity:1;fill-rule:nonzero;stroke:none;stroke-width:3.9000001;stroke-linecap:butt;stroke-linejoin:miter;marker:none;marker-start:none;marker-mid:none;marker-end:none;stroke-miterlimit:4;stroke-dasharray:none;stroke-dashoffset:0;stroke-opacity:1;visibility:visible;display:inline;overflow:visible"
       id="path2483"
       d="M 321.35634,476.67429 C 317.77287,474.32868 313.73222,472.54946 309.80612,470.83629 C 295.52697,464.73093 280.26834,461.57023 264.93408,460.21995 C 255.95113,460.39222 243.58423,457.59603 235.94841,464.01246 C 238.24941,461.95146 240.56475,459.9077 242.85143,457.82945 C 243.92755,456.85144 241.28363,460.74991 241.77114,462.14821 C 243.18217,466.1955 246.71388,469.31046 249.71651,472.05831 C 260.5726,481.35468 273.52076,487.44896 286.695,492.24968 C 296.15407,495.57327 305.90515,498.10446 315.84835,499.16984 L 309.4594,507.95256 C 299.6067,506.18218 289.96921,503.27571 280.57184,499.7439 C 267.18004,494.54826 253.94871,488.43992 242.57688,479.27446 C 232.12525,470.47672 227.20136,463.42637 240.72208,453.8218 C 250.12175,450.11422 260.69361,451.804 270.46022,452.45819 C 286.04783,454.29231 301.50827,457.58204 316.35899,462.90302 C 320.63669,464.46594 324.90067,466.12979 329.1634,467.70941 L 321.35634,476.67429 z " />
    <path
       style="opacity:1;color:#000000;fill:#000000;fill-opacity:1;fill-rule:nonzero;stroke:none;stroke-width:3.9000001;stroke-linecap:butt;stroke-linejoin:miter;marker:none;marker-start:none;marker-mid:none;marker-end:none;stroke-miterlimit:4;stroke-dasharray:none;stroke-dashoffset:0;stroke-opacity:1;visibility:visible;display:inline;overflow:visible"
       id="path2485"
       d="M 354.7776,429.8131 C 354.3157,429.48057 349.72312,427.24622 348.15167,426.59088 C 336.69042,421.96556 324.70688,418.93008 312.64219,416.59191 C 303.40801,415.34878 292.99694,412.24113 283.9988,416.23862 C 280.56941,418.20287 274.00326,424.9344 287.17786,412.79118 C 287.59982,412.40225 286.35316,413.59949 286.01507,414.06895 C 284.70527,415.88766 284.85144,417.76326 285.19029,419.87195 C 287.51392,426.66476 292.86954,431.53563 298.70122,435.08785 C 308.60538,440.44984 319.54459,443.43399 330.48381,445.47639 C 332.88122,445.91262 335.29361,446.24828 337.70805,446.56207 L 331.35475,455.23445 C 328.96858,454.79633 326.58461,454.34323 324.21619,453.80895 C 313.10322,451.27326 302.05285,447.98009 291.76418,442.85847 C 285.12635,439.15894 279.35366,433.69091 276.31191,426.38082 C 273.08019,416.96024 280.79774,409.49488 289.34682,406.60353 C 298.96316,404.05413 309.01067,407.12808 318.52349,408.75741 C 330.79576,411.3744 343.01889,414.33088 354.98278,418.22112 C 357.77641,419.15493 360.79516,420.02432 363.30409,421.58552 L 354.7776,429.8131 z " />
    <path
       style="opacity:1;color:#000000;fill:#000000;fill-opacity:1;fill-rule:nonzero;stroke:none;stroke-width:3.9000001;stroke-linecap:butt;stroke-linejoin:miter;marker:none;marker-start:none;marker-mid:none;marker-end:none;stroke-miterlimit:4;stroke-dasharray:none;stroke-dashoffset:0;stroke-opacity:1;visibility:visible;display:inline;overflow:visible"
       id="path2493"
       d="M 392.17228,390.44105 C 392.02204,390.07279 388.30225,387.54716 387.06211,386.82652 C 376.40341,381.21104 364.42468,378.92763 352.70313,377.13677 C 345.25255,376.40819 337.45035,374.86053 329.99356,376.43718 C 328.08538,376.84064 323.214,380.32295 324.70275,379.01576 C 326.91922,377.06961 329.12473,375.10997 331.33571,373.15707 C 325.92226,379.32188 333.27881,388.46453 337.22131,393.43603 C 344.26694,401.76168 353.07085,408.32868 362.54869,413.32642 C 364.62782,414.41562 366.79266,415.30294 368.96902,416.15345 L 362.11498,424.38942 C 359.90635,423.41414 357.71195,422.40135 355.59899,421.21355 C 346.00999,415.73727 337.1825,408.69546 329.74789,400.33632 C 324.68788,394.29211 317.38517,385.09406 321.07649,376.60359 C 334.36198,364.65438 341.61717,366.45472 358.44445,369.31515 C 370.57283,371.35087 382.89712,373.52614 394.24829,378.60051 C 396.4405,379.65694 398.73322,380.79903 400.69877,382.21346 L 392.17228,390.44105 z " />
    <path
       style="opacity:1;color:#000000;fill:#000000;fill-opacity:1;fill-rule:nonzero;stroke:none;stroke-width:3.9000001;stroke-linecap:butt;stroke-linejoin:miter;marker:none;marker-start:none;marker-mid:none;marker-end:none;stroke-miterlimit:4;stroke-dasharray:none;stroke-dashoffset:0;stroke-opacity:1;visibility:visible;display:inline;overflow:visible"
       id="path2557"
       d="M 468.58983,700.32136 C 468.15061,704.08728 465.63064,707.84795 463.96435,711.27766 C 457.05873,725.34614 450.15719,739.41571 443.54844,753.63895 C 440.9162,760.0306 437.50247,766.2543 435.92003,773.06724 C 435.74793,773.80823 436.24557,775.72305 435.61706,775.33247 C 435.11557,775.0208 435.03238,773.9318 434.82692,773.43237 C 420.15383,790.94284 441.41826,761.02315 444.27757,755.95281 C 448.90623,747.67177 453.11338,739.14118 457.96749,730.99743 C 462.01575,722.42865 473.72697,714.18646 471.56295,728.18898 C 468.78772,741.50404 465.3402,754.65781 462.31582,767.91415 C 461.24483,774.44259 458.69453,781.06435 459.14579,787.77826 C 459.19984,788.58222 458.35472,785.41019 457.71974,785.87064 C 454.99375,787.84738 452.73321,790.44251 450.23995,792.72844 C 454.16155,786.93619 455.47801,779.29333 457.34063,772.51267 C 459.30227,764.68417 462.18004,757.17519 465.66812,749.95949 C 469.05965,743.14229 472.84851,736.54919 476.64752,729.97236 C 478.52593,726.74231 480.38476,723.50002 482.25075,720.26221 C 483.0253,718.95959 483.76843,717.63834 484.51248,716.31694 L 494.96209,711.80589 C 494.2208,713.15899 493.49125,714.51982 492.6924,715.8375 C 490.68201,719.15673 488.64458,722.45803 486.61508,725.76471 C 482.61939,732.26167 478.73172,738.84016 475.24333,745.64989 C 471.7455,752.71129 468.72571,760.01898 466.69914,767.69693 C 464.72132,774.69377 462.88937,781.73617 460.78771,788.694 C 458.06022,791.28253 455.58565,794.19377 452.60524,796.45961 C 445.93849,801.52798 453.70883,770.55694 453.98457,772.3315 C 457.04777,759.4541 460.11523,746.53973 462.23264,733.45336 C 462.96564,727.36942 474.64006,718.81653 467.8446,726.92562 C 462.42037,734.90735 458.20701,743.69872 453.35021,752.0485 C 446.68956,763.87005 440.58337,775.75106 429.51146,783.68126 C 420.33685,783.21321 433.86218,760.80203 435.17547,757.44954 C 441.8017,743.58207 448.38848,729.68763 454.5656,715.59581 C 455.67938,712.97507 457.29389,708.19813 458.59066,706.49604 L 468.58983,700.32136 z " />
    <path
       style="color:#000000;fill:#8b351a;fill-opacity:1;fill-rule:nonzero;stroke:none;stroke-width:3.9000001;stroke-linecap:butt;stroke-linejoin:miter;marker:none;marker-start:none;marker-mid:none;marker-end:none;stroke-miterlimit:4;stroke-dasharray:none;stroke-dashoffset:0;stroke-opacity:1;visibility:visible;display:inline;overflow:visible"
       d="M 333.5648,612.43117 C 351.37382,648.09835 381.79087,679.28519 420.69743,687.29868 C 499.27749,715.30021 586.99753,734.43125 667.99244,705.73544 C 717.67058,686.61616 765.21724,644.52185 771.94074,586.94745 C 777.35405,543.42655 775.6058,498.49541 765.59786,455.86926 C 745.29883,393.69094 689.83365,351.46629 632.67241,329.42451 C 587.76402,313.0227 537.22418,315.42243 493.98455,336.15726 C 449.47074,353.93137 404.28721,374.4939 368.84414,408.43304 C 335.53569,449.06257 325.89435,503.38729 312.5451,553.33758 C 311.74647,562.79845 312.9844,572.72974 317.64274,581.03684"
       id="path2561" />
    <path
       style="color:#000000;fill:#000000;fill-opacity:1;fill-rule:nonzero;stroke:none;stroke-width:3.9000001;stroke-linecap:butt;stroke-linejoin:miter;marker:none;marker-start:none;marker-mid:none;marker-end:none;stroke-miterlimit:4;stroke-dasharray:none;stroke-dashoffset:0;stroke-opacity:1;visibility:visible;display:inline;overflow:visible"
       id="path2243"
       d="M 305.07639,598.65326 C 305.06628,591.35822 295.24578,586.47766 295.41205,576.95803 C 296.04186,520.02446 316.94365,477.7961 348.76922,431.62286 C 405.42533,355.46634 494.81954,320.7059 586.46383,318.20929 C 663.67417,318.7327 728.15522,359.36224 766.87071,425.95613 C 795.44017,478.8009 797.10717,539.59014 780.41073,596.43852 C 772.16769,622.53828 759.0902,646.61866 743.31213,668.7519 L 720.79081,677.33311 C 737.79194,655.83541 751.92516,632.0848 761.02285,606.00922 C 779.16348,550.56324 778.98464,490.88695 751.68001,438.34123 C 715.02336,372.8438 652.30345,332.6763 577.12692,331.91849 C 498.52324,333.79864 415.35074,360.00189 365.73271,424.94854 C 335.16866,468.97716 314.57886,520.03372 316.72417,574.69733 C 317.17731,584.74274 317.49585,595.46251 320.9946,604.92832 L 305.07639,598.65326 z "
       sodipodi:nodetypes="ccccccccccccccc" />
    <path
       style="opacity:1;color:#000000;fill:#000000;fill-opacity:1;fill-rule:nonzero;stroke:none;stroke-width:3.9000001;stroke-linecap:butt;stroke-linejoin:miter;marker:none;marker-start:none;marker-mid:none;marker-end:none;stroke-miterlimit:4;stroke-dasharray:none;stroke-dashoffset:0;stroke-opacity:1;visibility:visible;display:inline;overflow:visible"
       id="path2475"
       d="M 782.17349,469.75336 C 784.57678,470.03398 787.01193,469.96658 789.42624,469.91775 C 801.20199,469.69885 812.85005,467.65334 824.13927,464.21304 C 832.41634,461.3721 840.63908,457.93248 847.99515,452.99741 C 849.95066,451.68549 855.30469,447.00703 853.54591,448.59261 C 847.83609,453.74016 846.45899,455.38135 849.43303,452.0544 C 853.73407,446.53486 855.07565,438.55069 848.99706,434.01185 C 838.71946,428.39021 826.22463,428.38633 814.89742,428.98482 C 801.11513,430.05843 787.62405,433.62014 774.69003,438.60025 C 769.99156,440.42899 765.41125,442.56518 760.97983,445.01025 L 765.96578,435.22432 C 770.42038,433.1087 774.98168,431.24739 779.62636,429.63334 C 792.77545,425.11008 806.36413,421.82626 820.21086,420.86526 C 832.24323,420.26993 845.43895,420.29277 856.35882,426.23195 C 863.69316,431.60967 863.74865,440.95344 859.04774,448.42452 C 849.56313,461.58549 833.76275,467.78778 819.30937,472.67815 C 807.60305,476.09729 795.60017,478.1678 783.46981,479.02806 C 780.81371,479.24926 778.15398,479.43491 775.49953,479.6673 L 782.17349,469.75336 z " />
    <path
       style="opacity:1;color:#000000;fill:#2c00ce;fill-opacity:0.6956522;fill-rule:nonzero;stroke:none;stroke-width:3.9000001;stroke-linecap:butt;stroke-linejoin:miter;marker:none;marker-start:none;marker-mid:none;marker-end:none;stroke-miterlimit:4;stroke-dasharray:none;stroke-dashoffset:0;stroke-opacity:1;visibility:visible;display:inline;overflow:visible"
       d="M 539.9832,441.24328 C 580.39791,358.84348 656.83997,301.21157 739.05372,270.27121 C 784.71011,249.07331 837.4992,235.3822 886.51936,252.21509 C 918.87662,260.05018 950.47642,283.7838 957.27379,319.38577 C 972.84861,374.10155 947.17785,437.41229 899.11286,464.58669 C 858.38637,492.79128 815.16252,517.80274 769.1249,535.21461 C 729.48434,548.53404 685.42249,544.99499 648.15266,525.6492 C 611.65019,509.1195 576.67005,487.35117 547.71476,458.82789 C 544.04864,453.58827 541.20173,447.63326 539.9832,441.24328 z "
       id="path4544" />
    <path
       style="opacity:1;color:#000000;fill:#000000;fill-opacity:1;fill-rule:nonzero;stroke:none;stroke-width:3.9000001;stroke-linecap:butt;stroke-linejoin:miter;marker:none;marker-start:none;marker-mid:none;marker-end:none;stroke-miterlimit:4;stroke-dasharray:none;stroke-dashoffset:0;stroke-opacity:1;visibility:visible;display:inline;overflow:visible"
       id="path2333"
       d="M 524.33584,454.59929 C 525.87077,443.54746 534.22253,432.62881 540.40057,423.39257 C 577.7507,372.21171 624.83224,328.32781 676.69924,292.6727 C 736.81346,252.86953 807.30156,227.67646 879.64756,235.65185 C 937.75409,243.51683 972.29137,288.13578 974.58003,345.85248 C 971.6765,415.28931 917.09232,465.71506 862.73683,500.43015 C 807.73757,532.97886 745.81087,551.66585 682.9296,560.12306 L 694.94168,541.50475 C 756.88899,534.95591 817.79514,516.31695 871.09437,483.17687 C 911.451,456.10644 951.85024,418.43472 956.13283,357.15461 C 955.10463,302.17661 922.77646,259.91723 867.68649,251.88427 C 796.43684,243.31862 727.36801,269.27611 668.81092,309.29695 C 625.31144,340.18395 596.3814,367.13769 563.3736,414.15929 C 558.78025,421.3835 552.72522,433.89569 549.35238,439.54993 L 524.33584,454.59929 z " />
    <path
       style="opacity:1;color:#000000;fill:#2c00ce;fill-opacity:0.6956522;fill-rule:nonzero;stroke:none;stroke-width:3.9000001;stroke-linecap:butt;stroke-linejoin:miter;marker:none;marker-start:none;marker-mid:none;marker-end:none;stroke-miterlimit:4;stroke-dasharray:none;stroke-dashoffset:0;stroke-opacity:1;visibility:visible;display:inline;overflow:visible"
       d="M 537.13999,443.61264 C 482.28979,439.3145 427.77432,458.64977 382.08561,489.38478 C 364.55291,496.04318 349.72752,510.64899 330.4105,511.7911 C 319.39289,494.08069 321.56819,470.17014 331.98611,452.73198 C 349.25917,395.60998 360.25031,333.07121 399.60391,286.87807 C 431.54248,250.42941 470.65167,221.52146 512.05169,197.88608 C 549.12326,187.51974 592.71608,218.76973 592.0491,259.91407 C 596.45004,315.69755 587.54745,374.17847 558.14147,421.84859 C 553.77192,432.42154 547.86856,447.54238 534.29674,445.98204"
       id="path4615" />
    <path
       style="opacity:1;color:#000000;fill:#000000;fill-opacity:1;fill-rule:nonzero;stroke:none;stroke-width:3.9000001;stroke-linecap:butt;stroke-linejoin:miter;marker:none;marker-start:none;marker-mid:none;marker-end:none;stroke-miterlimit:4;stroke-dasharray:none;stroke-dashoffset:0;stroke-opacity:1;visibility:visible;display:inline;overflow:visible"
       id="path2299"
       d="M 317.11142,607.6966 C 316.94196,594.99746 315.01614,576.19038 314.34119,561.81701 C 310.81505,502.26868 320.11243,443.17934 339.19209,386.92955 C 364.4879,316.70703 411.54438,257.37936 470.63759,213.27676 C 503.65873,188.97374 546.31033,176.05165 579.22721,206.76256 C 605.06562,235.827 607.88421,276.89854 603.8784,314.07416 C 599.15595,352.28479 583.99338,387.98063 563.50549,420.10719 C 557.53759,429.43565 550.6415,438.07516 543.22797,446.24709 L 518.79106,454.61946 C 526.83589,446.80385 534.29117,438.39156 540.76494,429.17527 C 562.3496,398.2173 578.38831,363.23021 583.60786,325.41881 C 587.81718,290.51533 586.13753,251.13042 561.57413,223.7929 C 531.02853,196.00672 491.61757,210.61851 461.76553,232.39059 C 423.79188,260.79605 376.66756,318.24271 356.11349,378.73922 C 337.33269,433.36993 328.04926,491.25269 334.52037,549.07522 C 336.15194,563.64989 337.68252,578.6783 342.11244,592.65656 L 317.11142,607.6966 z " />
    <path
       style="color:#000000;fill:#a98848;fill-opacity:1;fill-rule:nonzero;stroke:none;stroke-width:3.9000001;stroke-linecap:butt;stroke-linejoin:miter;marker:none;marker-start:none;marker-mid:none;marker-end:none;stroke-miterlimit:4;stroke-dasharray:none;stroke-dashoffset:0;stroke-opacity:1;visibility:visible;display:inline;overflow:visible"
       id="path2429"
       d="M 401.72888,520.42042 C 391.56805,519.77301 381.33595,519.69374 371.14615,519.56362 C 342.20974,520.14316 311.3491,518.86851 295.13185,490.94081 C 279.41002,472.3755 300.59953,433.92791 280.50922,419.80701 C 248.57843,409.78992 214.88647,422.76697 182.18563,419.31354 C 151.1408,414.71468 160.41554,388.05517 164.41574,366.11771 C 163.97914,345.56252 129.4469,345.56089 114.7101,340.2742 C 95.944724,333.29593 89.05925,315.94819 90.1813,296.90375 L 113.83975,283.69537 C 111.47382,299.69656 114.70839,314.37369 131.25009,320.49638 C 150.18034,327.35496 186.21553,327.03277 187.57473,353.56161 C 185.01635,370.90537 171.12703,394.71555 197.09874,399.08234 C 230.89254,403.38209 266.27826,388.87814 298.91775,401.03576 C 321.25693,418.40924 302.08948,452.17266 314.73963,474.95351 C 329.16555,500.75511 359.70189,499.5065 385.49897,498.66359 C 396.50101,498.28745 407.50748,497.66782 418.42622,496.25751 L 401.72888,520.42042 z " />
    <path
       style="color:#000000;fill:#a98848;fill-opacity:1;fill-rule:nonzero;stroke:none;stroke-width:3.9000001;stroke-linecap:butt;stroke-linejoin:miter;marker:none;marker-start:none;marker-mid:none;marker-end:none;stroke-miterlimit:4;stroke-dasharray:none;stroke-dashoffset:0;stroke-opacity:1;visibility:visible;display:inline;overflow:visible"
       d="M 376.7819,628.42453 C 374.90002,594.0647 372.55794,557.18799 388.89441,525.86857 C 407.72357,505.77159 432.1798,491.94711 457.08949,481.95723 C 490.95462,473.60559 524.22645,490.39402 553.85056,505.61217 C 577.38059,518.87255 596.12575,540.56753 605.98593,566.46937 C 617.90385,588.66261 622.65691,615.46252 615.31671,640.09328 C 611.66825,659.22865 601.84497,676.45944 597.60262,695.28173 C 596.36314,724.7408 630.17636,743.71404 623.28675,774.09556 C 616.20025,796.42708 591.35533,801.67074 572.0985,806.67166 C 552.70725,810.96878 531.74226,814.82193 512.67311,806.99564 C 508.66412,788.59192 529.28151,782.41074 541.12133,775.16011 C 551.49452,766.03321 567.37761,760.8559 570.09734,744.8255 C 574.00447,721.85852 546.6925,721.25901 532.04286,717.32183 C 490.58604,705.53749 448.97122,693.99628 406.72879,685.44593 C 362.14318,680.22299 368.65859,695.0731 377.99087,723.64233 C 391.72983,743.56747 399.85099,768.23975 400.51899,792.85933 C 391.33273,815.71358 361.51115,806.37117 349.62297,791.14758 C 328.96287,776.25568 302.4927,760.82529 299.71346,731.84168 C 296.71021,707.91552 309.97062,685.14557 327.50879,670.85468 C 340.10721,655.30793 354.5711,640.28085 373.11574,632.80147 L 375.12799,630.7823 L 376.7819,628.42453 L 376.7819,628.42453 z "
       id="path4366"
       sodipodi:nodetypes="ccccccccccccccccccccccc" />
    <path
       style="color:#000000;fill:#a98848;fill-opacity:1;fill-rule:nonzero;stroke:none;stroke-width:3.9000001;stroke-linecap:butt;stroke-linejoin:miter;marker:none;marker-start:none;marker-mid:none;marker-end:none;stroke-miterlimit:4;stroke-dasharray:none;stroke-dashoffset:0;stroke-opacity:1;visibility:visible;display:inline;overflow:visible"
       id="path2435"
       d="M 562.05805,532.67862 C 562.63588,523.14841 563.93881,513.76838 566.0564,504.45678 C 573.63251,474.50093 591.5968,438.5993 625.4681,434.26503 C 650.52338,430.17105 673.67843,451.99062 698.2157,448.38812 C 697.59654,451.01887 703.631,444.41226 702.32615,445.47262 C 696.49481,450.21134 690.86095,455.19517 685.10467,460.0275 C 681.84739,462.76195 689.86809,452.59082 690.40493,448.33564 C 691.74848,437.68629 689.91679,426.76502 689.28444,416.12489 C 689.12833,371.17559 727.79416,383.87193 752.09417,395.55601 C 770.64491,402.76858 802.28424,428.09834 821.90403,411.50327 C 828.60494,402.39444 822.09265,411.65262 808.76748,422.38329 C 807.74811,423.20416 810.34298,420.27072 810.97972,419.11905 C 814.04438,413.57611 815.06302,406.9889 815.51295,400.74254 C 816.37132,388.82563 814.85879,376.81634 813.54283,364.9925 C 813.0905,361.07424 812.67299,357.15207 812.2641,353.22894 L 834.86572,339.02687 C 835.01583,343.02877 835.19292,347.02937 835.49286,351.02329 C 837.86669,383.87216 844.7096,416.21244 809.82302,435.37067 C 784.36444,444.84209 758.32396,423.04965 735.69077,414.30674 C 700.28868,398.90437 691.0678,417.36631 716.12743,391.87207 C 718.79403,389.15921 707.92567,402.62141 711.69787,402.45196 C 711.31316,427.02708 723.18614,468.75799 682.96126,470.64828 C 658.88312,468.30831 636.86934,451.54713 611.89254,456.28655 C 607.52874,457.52737 596.31342,465.1917 599.4693,461.89119 C 629.84016,430.12839 589.87273,472.05478 589.09963,492.43602 C 587.28791,500.67967 585.79621,509.1896 587.07459,517.62923 L 562.05805,532.67862 z " />
    <path
       style="opacity:1;color:#000000;fill:#2c00ce;fill-opacity:0.69565219;fill-rule:nonzero;stroke:none;stroke-width:3.9000001;stroke-linecap:butt;stroke-linejoin:miter;marker:none;marker-start:none;marker-mid:none;marker-end:none;stroke-miterlimit:4;stroke-dasharray:none;stroke-dashoffset:0;stroke-opacity:1;visibility:visible;display:inline;overflow:visible"
       d="M 380.76239,607.39621 C 394.5442,606.88596 402.54183,621.78123 404.49044,634.95328 C 411.26784,653.15766 442.68287,655.33279 451.43741,638.09265 C 465.58038,614.77673 478.56729,633.50843 480.92739,646.91942 C 489.14053,657.98317 514.85382,656.17651 519.85264,636.15591 C 516.3242,617.18962 538.82358,622.34837 526.16485,640.29439 C 518.18299,668.82766 552.83176,669.31739 563.64925,664.49788 C 576.84108,663.68567 592.35731,669.89407 603.42783,659.49558 C 614.37109,647.20865 609.34158,629.51775 609.65602,614.55603 C 608.31422,592.07615 599.45378,571.01535 590.44348,550.88084 C 582.16339,537.37411 568.01529,529.54603 558.65248,516.97653 C 544.37943,500.90217 526.18055,487.04327 504.66849,484.82864 C 475.48805,480.25407 446.58977,489.98321 419.25766,499.541 C 399.39268,507.52668 382.67361,524.67715 377.43362,546.53516 C 371.42854,566.44368 372.50035,589.17193 382.75267,607.39622"
       id="path14467"
       sodipodi:nodetypes="ccccccccccccccc" />
    <path
       style="color:#000000;fill:#000000;fill-opacity:1;fill-rule:nonzero;stroke:none;stroke-width:3.9000001;stroke-linecap:butt;stroke-linejoin:miter;marker:none;marker-start:none;marker-mid:none;marker-end:none;stroke-miterlimit:4;stroke-dasharray:none;stroke-dashoffset:0;stroke-opacity:1;visibility:visible;display:inline;overflow:visible"
       id="path1311"
       d="M 366.39676,648.56163 C 366.80655,647.56485 362.17508,627.77534 361.28816,621.74456 C 356.04036,584.56744 365.30471,548.29732 389.33106,519.66262 C 425.8315,478.63172 474.75743,461.3988 527.2553,476.90081 C 568.72188,491.49216 598.94285,525.50045 617.60062,564.83399 C 629.50011,591.88525 633.75491,622.1301 627.30258,651.16157 C 622.39174,670.83409 607.39692,691.36916 586.63631,694.89877 C 586.07896,694.91347 585.52161,694.92818 584.96427,694.94288 L 600.24893,670.97273 C 600.59455,670.86023 600.94018,670.74773 601.2858,670.63524 C 610.55577,665.8471 619.97274,654.66308 590.6497,682.10946 C 588.22457,684.3794 607.80664,663.66324 603.86667,663.02837 C 612.69124,635.53692 609.74837,605.7827 599.00165,579.26271 C 582.04116,540.91963 553.22579,507.94903 512.95286,494.64885 C 466.41039,481.8855 417.15905,503.47742 410.93343,511.93858 C 386.98501,538.02545 376.40532,572.0937 382.71159,607.45722 C 384.4661,616.39846 386.40969,625.78741 391.4133,633.51226 L 366.39676,648.56163 z " />
    <path
       style="color:#000000;fill:#000000;fill-opacity:1;fill-rule:nonzero;stroke:none;stroke-width:3.9000001;stroke-linecap:butt;stroke-linejoin:miter;marker:none;marker-start:none;marker-mid:none;marker-end:none;stroke-miterlimit:4;stroke-dasharray:none;stroke-dashoffset:0;stroke-opacity:1;visibility:visible;display:inline;overflow:visible"
       id="path1317"
       d="M 367.5255,648.02722 C 367.69387,651.33854 353.64232,657.69493 348.77098,660.96485 C 340.41907,666.31745 309.96103,693.46499 341.00479,666.15489 C 342.2509,665.05864 338.62749,668.47551 337.46691,669.66451 C 330.88779,676.40487 325.05535,683.70564 319.93479,691.6362 C 306.54886,712.10077 312.76544,733.27438 326.46823,751.59124 C 344.20128,771.23913 368.15312,789.63701 394.67868,794.34128 C 394.27219,797.74281 407.01748,789.25003 404.38272,791.39289 C 376.93521,813.71609 395.09464,806.67981 384.65026,776.39446 C 377.18616,756.17855 366.42143,737.468 358.15856,717.60435 C 347.68463,692.97456 353.64807,690.53536 375.33125,671.68316 C 396.48785,672.14054 417.5462,675.95027 438.37533,679.56164 C 472.98134,685.67727 506.92966,695.15861 540.0819,706.87679 C 555.47178,713.08639 579.66888,718.09502 579.65242,738.50564 C 567.56377,763.08808 542.49176,779.4772 521.5371,796.37659 C 526.02775,790.73588 499.79123,815.19884 505.13838,810.38838 C 542.80652,776.50093 520.2171,796.78934 516.68175,798.96489 C 535.40401,803.37892 555.49783,801.26464 574.32037,798.31206 C 592.35964,795.2623 610.54987,790.43972 624.91028,778.50043 C 598.34794,801.52123 617.36706,792.18416 616.86836,773.70677 C 615.40333,761.48864 610.66795,749.99775 605.69031,738.87581 C 601.56305,729.86353 596.52918,721.31746 590.40785,713.55986 C 586.78571,709.18953 582.71245,705.24377 578.93767,701.01298 C 578.04073,700.01381 577.23913,698.93322 576.39028,697.89386 L 597.93311,679.0238 C 598.65968,679.95496 599.33947,680.92538 600.11382,681.81855 C 603.92159,686.1895 607.96597,690.35275 611.51954,694.94609 C 617.75365,703.38753 622.96312,712.5438 627.32107,722.12042 C 632.58217,733.90546 637.4986,745.98122 640.11813,758.68847 C 643.32624,780.98593 632.13669,789.33526 613.29204,803.57303 C 597.21289,813.20038 578.95091,817.43906 560.56281,819.91795 C 539.97678,822.59633 516.7483,825.95929 496.86914,819.01294 C 480.03705,800.30162 520.07555,784.82935 532.45436,772.27237 C 540.48568,765.8516 569.91827,739.46348 538.71459,768.1263 C 538.68485,768.15361 556.0079,750.26049 555.0442,750.86967 C 562.17428,737.63418 531.40076,729.98605 524.06428,725.92551 C 491.70503,713.26923 458.05417,704.06659 423.71785,698.99661 C 404.51759,696.25959 380.81658,690.65 362.14704,696.84323 C 389.49942,671.46489 371.69213,679.92671 379.65291,701.52868 C 386.79617,721.98112 397.43758,740.91947 405.32992,761.06142 C 414.48074,784.79273 417.7849,822.59101 378.26146,815.10256 C 351.22984,806.58904 326.98033,788.78302 307.77324,768.06078 C 292.3053,748.70445 282.8481,724.98819 295.87707,701.52817 C 311.37638,674.8999 335.75174,654.82229 360.25966,637.03633 C 367.02615,632.46567 376.54331,623.86359 384.22286,623.86429 L 367.5255,648.02722 z " />
    <path
       style="color:#000000;fill:#000000;fill-opacity:1;fill-rule:nonzero;stroke:none;stroke-width:3.9000001;stroke-linecap:butt;stroke-linejoin:miter;marker:none;marker-start:none;marker-mid:none;marker-end:none;stroke-miterlimit:4;stroke-dasharray:none;stroke-dashoffset:0;stroke-opacity:1;visibility:visible;display:inline;overflow:visible"
       id="path1339"
       d="M 498.30716,473.04245 C 495.69479,471.84554 494.52835,479.48762 493.57698,482.74625 C 489.10782,500.90795 487.14172,519.63791 485.30641,538.23429 C 482.83457,565.28259 482.45814,592.50171 483.83188,619.62311 C 484.22391,627.25471 484.93025,634.8627 485.82877,642.44846 L 463.10162,656.97313 C 462.47172,649.05715 461.99862,641.12904 461.80765,633.18837 C 461.10178,605.69532 461.7028,578.17276 463.41571,550.72706 C 464.67115,532.31777 466.23886,513.89051 468.83633,495.62466 C 469.64519,491.31825 471.50068,486.69325 470.7332,482.4104 L 498.30716,473.04245 z " />
    <path
       style="color:#000000;fill:#000000;fill-opacity:1;fill-rule:nonzero;stroke:none;stroke-width:3.9000001;stroke-linecap:butt;stroke-linejoin:miter;marker:none;marker-start:none;marker-mid:none;marker-end:none;stroke-miterlimit:4;stroke-dasharray:none;stroke-dashoffset:0;stroke-opacity:1;visibility:visible;display:inline;overflow:visible"
       id="path2499"
       d="M 447.7483,495.59061 C 445.74995,498.74325 442.99204,499.89918 440.52799,502.09098 C 440.31446,502.28092 439.68817,502.86781 439.89596,502.67108 C 441.32621,501.317 442.76114,499.96829 444.19542,498.61883 C 444.87442,497.97997 442.84062,499.90199 442.20229,500.58481 C 440.52892,502.37484 439.11567,504.32611 437.77048,506.38893 C 431.58721,516.0689 432.63414,527.30834 442.71311,533.29567 C 457.75839,538.20132 464.17944,531.11099 468.0623,521.71795 C 472.32819,508.11381 462.65962,498.5977 450.01344,499.03765 C 438.56326,500.47535 428.38213,506.71901 419.73561,514.3871 L 422.36146,508.3685 C 431.40963,500.98438 441.88617,495.05655 453.48218,493.80815 C 467.32333,493.5402 477.81106,504.03449 473.8566,518.94242 C 468.50888,533.49033 453.1546,544.99767 438.31864,538.18262 C 427.69388,531.74306 425.25669,520.01666 431.40255,509.05846 C 434.24023,504.04792 454.13136,484.2112 439.97211,498.30249 L 447.7483,495.59061 z " />
    <path
       style="color:#000000;fill:#000000;fill-opacity:1;fill-rule:nonzero;stroke:none;stroke-width:3.9000001;stroke-linecap:butt;stroke-linejoin:miter;marker:none;marker-start:none;marker-mid:none;marker-end:none;stroke-miterlimit:4;stroke-dasharray:none;stroke-dashoffset:0;stroke-opacity:1;visibility:visible;display:inline;overflow:visible"
       id="path2501"
       d="M 415.41976,515.65271 C 414.81766,516.53744 412.76798,517.41072 411.65893,518.15576 C 407.56205,522.7952 406.97101,517.85552 404.68157,529.14227 C 403.80062,539.0911 412.56562,545.75933 420.76074,548.34337 C 425.68695,549.60294 430.90435,549.00838 435.19977,546.07088 C 436.39553,545.25314 439.64582,542.333 438.45413,543.15715 C 432.08392,547.56271 437.78883,543.44181 439.13742,537.58188 C 440.62651,524.29872 429.09079,516.91016 417.6346,518.23454 C 409.27778,519.85347 401.98586,524.5468 395.60741,530.2199 L 398.27696,524.10104 C 404.99068,518.63601 412.56783,514.16866 421.09728,512.79808 C 433.71404,511.72741 445.75926,520.11377 445.00042,534.38712 C 442.86616,548.01756 429.25356,557.40305 416.51184,553.65626 C 407.49512,550.54184 398.38612,543.45242 398.41041,532.63552 C 399.56802,522.85438 407.75223,516.44811 415.01504,511.0765 C 416.63597,510.01738 418.58487,508.40269 420.56848,508.9892 L 415.41976,515.65271 z " />
    <path
       style="color:#000000;fill:#000000;fill-opacity:1;fill-rule:nonzero;stroke:none;stroke-width:3.9000001;stroke-linecap:butt;stroke-linejoin:miter;marker:none;marker-start:none;marker-mid:none;marker-end:none;stroke-miterlimit:4;stroke-dasharray:none;stroke-dashoffset:0;stroke-opacity:1;visibility:visible;display:inline;overflow:visible"
       id="path2503"
       d="M 443.82133,532.20729 C 443.89193,531.91665 442.95199,532.99326 443.16569,532.79244 C 453.51411,523.06758 443.56712,533.0414 441.2715,536.93962 C 436.67437,544.73554 435.43357,553.08733 441.24367,560.48789 C 450.27461,569.83321 464.19395,568.30157 473.92206,561.06645 C 478.52808,556.76119 473.41219,561.5928 472.84875,561.83979 C 471.54714,562.41034 474.60384,559.50784 475.22755,558.18808 C 476.12131,556.29686 476.61757,554.21473 476.66957,552.10708 C 476.80374,546.66919 474.12312,542.11815 470.69741,538.27668 C 460.01593,528.15879 445.56819,533.30176 434.24116,539.31172 L 437.03293,533.82579 C 449.23667,527.71048 464.34186,522.89687 475.57148,533.65947 C 485.84816,545.0602 483.89715,558.43886 471.08613,567.13323 C 460.27867,574.09766 445.88097,574.63172 436.27664,565.07254 C 429.79875,557.37914 429.95754,548.50721 434.68172,539.79232 C 437.85708,533.68403 441.7852,528.60683 447.29637,524.47445 L 443.82133,532.20729 z " />
    <path
       style="color:#000000;fill:#000000;fill-opacity:1;fill-rule:nonzero;stroke:none;stroke-width:3.9000001;stroke-linecap:butt;stroke-linejoin:miter;marker:none;marker-start:none;marker-mid:none;marker-end:none;stroke-miterlimit:4;stroke-dasharray:none;stroke-dashoffset:0;stroke-opacity:1;visibility:visible;display:inline;overflow:visible"
       id="path2505"
       d="M 402.8247,534.47895 C 399.24318,533.89769 395.5381,535.16578 392.29357,536.68555 C 388.29198,539.45811 383.85529,540.47069 381.89622,554.41254 C 381.0777,565.28967 387.3694,574.79808 396.91449,578.79044 C 410.74669,582.24434 417.88218,574.33699 421.04793,569.42086 C 427.00503,559.05092 424.01293,546.64599 413.43824,541.38376 C 405.65839,538.28577 397.53461,540.06865 389.97791,542.94242 L 393.12478,537.23974 C 401.14594,534.50953 409.67763,532.99789 417.76255,536.38694 C 429.01953,542.16753 432.99856,555.30873 427.07806,566.89446 C 420.10132,578.97888 406.35464,588.70138 392.55513,583.99169 C 382.42234,579.48193 375.6451,569.44568 375.98811,557.78799 C 377.21478,545.50659 385.10876,535.49095 395.74472,530.1361 C 399.50612,528.52427 403.49678,527.58293 407.53073,527.48831 L 402.8247,534.47895 z " />
    <path
       style="color:#000000;fill:#000000;fill-opacity:1;fill-rule:nonzero;stroke:none;stroke-width:3.9000001;stroke-linecap:butt;stroke-linejoin:miter;marker:none;marker-start:none;marker-mid:none;marker-end:none;stroke-miterlimit:4;stroke-dasharray:none;stroke-dashoffset:0;stroke-opacity:1;visibility:visible;display:inline;overflow:visible"
       id="path2507"
       d="M 429.57145,559.36509 C 426.69695,560.02657 424.34742,562.28933 422.1619,564.24741 C 423.32809,563.15879 424.48445,562.05861 425.66046,560.9815 C 427.06808,559.69228 422.92381,563.65459 421.64701,565.08398 C 418.1036,569.05093 414.38007,573.7424 414.39714,579.42389 C 416.85887,589.79847 430.71164,592.4667 439.35577,593.0647 C 454.73398,592.37192 458.3652,589.16096 461.06013,581.62962 C 464.31121,569.03695 453.24191,563.25274 443.01088,562.28519 C 432.63458,561.97506 422.6107,565.19378 413.13617,569.31345 L 416.04857,563.87811 C 425.8046,560.01283 436.03256,556.98945 446.56521,557.25702 C 458.02167,558.22778 469.92718,564.58294 467.22448,578.54268 C 463.20517,592.53595 448.69988,599.19803 435.63102,598.3617 C 425.84191,597.48021 411.76516,594.42619 408.2353,583.35928 C 407.20229,572.36424 418.4935,564.13259 425.05927,557.50768 C 427.71871,555.16781 430.64379,552.50982 434.28772,552.35923 L 429.57145,559.36509 z " />
    <path
       style="color:#000000;fill:#000000;fill-opacity:1;fill-rule:nonzero;stroke:none;stroke-width:3.9000001;stroke-linecap:butt;stroke-linejoin:miter;marker:none;marker-start:none;marker-mid:none;marker-end:none;stroke-miterlimit:4;stroke-dasharray:none;stroke-dashoffset:0;stroke-opacity:1;visibility:visible;display:inline;overflow:visible"
       id="path2509"
       d="M 454.59938,586.52051 C 451.70617,587.84469 449.14661,589.84362 446.76814,591.99191 C 448.0259,590.82013 449.27629,589.63971 450.54142,588.47657 C 450.93721,588.1127 449.75811,589.21421 449.37633,589.594 C 448.17019,590.79387 447.01978,592.05917 445.98886,593.42663 C 442.60747,597.9118 441.02381,602.94888 441.13202,608.62782 C 441.78615,618.21771 448.13882,624.84954 457.31583,625.18325 C 471.36789,622.32134 471.8619,622.42495 475.46678,611.77373 C 478.0993,597.92745 463.50749,592.2544 452.80479,592.09416 C 446.49566,592.2252 440.44215,594.03971 434.5737,596.30814 L 437.61784,590.77263 C 443.66065,588.67753 449.86833,587.02834 456.28258,586.98749 C 468.19442,587.307 483.3522,593.69687 481.5263,608.69987 C 478.1716,621.27621 465.76192,630.73908 453.34908,630.89443 C 443.32338,630.13299 436.31793,622.82149 435.21121,612.37882 C 434.49701,600.44336 441.19115,592.26087 449.72912,585.12326 C 452.462,582.77331 455.39293,580.48614 458.7101,579.12246 L 454.59938,586.52051 z " />
    <path
       style="color:#000000;fill:#000000;fill-opacity:1;fill-rule:nonzero;stroke:none;stroke-width:3.9000001;stroke-linecap:butt;stroke-linejoin:miter;marker:none;marker-start:none;marker-mid:none;marker-end:none;stroke-miterlimit:4;stroke-dasharray:none;stroke-dashoffset:0;stroke-opacity:1;visibility:visible;display:inline;overflow:visible"
       id="path2511"
       d="M 405.95807,579.4994 C 402.23341,580.29021 398.96184,582.54358 396.03638,585.00735 C 392.61016,588.35428 397.02404,584.0157 398.06163,583.2311 C 398.60486,582.82033 397.13834,584.24747 396.7065,584.78281 C 394.89378,587.02997 393.42051,589.57571 392.53006,592.37032 C 390.91468,597.44008 391.56564,602.41529 393.53708,607.23513 C 398.92134,618.36168 410.66196,619.95222 420.95299,615.78608 C 427.68988,612.39763 435.98045,606.81653 431.26369,593.18072 C 424.80798,580.18344 409.35742,581.18632 397.58659,583.83719 L 400.70333,578.62719 C 413.4489,576.08248 429.36041,575.5989 436.60316,589.0909 C 442.27051,603.66872 430.053,616.18111 417.79287,621.57235 C 406.49664,625.58898 394.07204,623.22437 388.19004,611.44029 C 382.46679,598.18917 388.44469,586.65299 398.98634,578.34784 C 402.39903,575.65158 406.31738,572.98843 410.66705,572.50442 L 405.95807,579.4994 z " />
    <path
       style="color:#000000;fill:#000000;fill-opacity:1;fill-rule:nonzero;stroke:none;stroke-width:3.9000001;stroke-linecap:butt;stroke-linejoin:miter;marker:none;marker-start:none;marker-mid:none;marker-end:none;stroke-miterlimit:4;stroke-dasharray:none;stroke-dashoffset:0;stroke-opacity:1;visibility:visible;display:inline;overflow:visible"
       id="path2513"
       d="M 384.29244,561.00229 C 380.61476,562.59617 377.32353,564.94497 374.20418,567.49834 C 370.24012,571.12942 375.15529,566.52153 375.6776,566.09018 C 376.28348,565.58983 374.55208,567.19528 374.00928,567.76885 C 371.72591,570.18166 369.65715,572.832 367.96639,575.73111 C 364.97688,580.85712 363.60893,586.06859 364.1927,592.03913 C 366.3571,604.38643 377.24231,608.73639 387.47211,603.40995 C 392.34982,600.21872 401.6222,591.31945 398.9786,577.92606 C 396.23767,568.92876 387.04175,570.03661 380.35315,573.20964 L 383.67557,566.93396 C 391.69035,563.68792 401.5932,563.96128 404.64585,573.96254 C 407.73905,588.8959 395.9664,602.34833 384.43572,609.28832 C 372.93813,614.51854 361.25389,608.90632 358.6282,595.72564 C 356.78258,580.97034 366.78829,569.60469 377.09899,560.9667 C 380.59854,558.135 384.33779,555.24769 388.54695,553.69894 L 384.29244,561.00229 z " />
    <path
       style="color:#000000;fill:#000000;fill-opacity:1;fill-rule:nonzero;stroke:none;stroke-width:3.9000001;stroke-linecap:butt;stroke-linejoin:miter;marker:none;marker-start:none;marker-mid:none;marker-end:none;stroke-miterlimit:4;stroke-dasharray:none;stroke-dashoffset:0;stroke-opacity:1;visibility:visible;display:inline;overflow:visible"
       id="path2515"
       d="M 425.28621,602.59871 C 420.60365,603.29622 416.32843,605.58315 412.42322,608.26756 C 413.23894,607.26353 408.35718,611.73407 409.31995,610.8019 C 410.33123,609.82278 411.3474,608.84507 412.42863,607.95072 C 414.0347,606.62222 409.5169,610.99021 408.33964,612.73949 C 405.25875,617.3174 404.17119,622.49974 405.11473,627.97014 C 408.73916,639.69799 421.33971,644.24169 432.13169,644.58757 C 437.76845,644.41739 443.5663,643.31659 448.40335,640.12961 C 449.57564,639.35722 452.73912,636.52338 451.66499,637.43764 C 445.13984,642.99148 450.8455,637.34895 451.97218,633.8337 C 454.39416,621.80093 443.5085,613.58415 433.90869,610.06128 C 424.2419,607.1187 414.29905,608.85282 404.86486,611.82961 L 407.90641,606.49769 C 417.691,603.73757 427.93301,602.22017 437.85939,605.19855 C 448.36346,608.99418 459.78621,617.62472 458.16994,630.63451 C 455.01336,644.1953 440.59201,650.15758 428.42737,649.94754 C 416.81852,649.21398 403.81683,644.17438 399.43673,631.93035 C 396.53515,618.7957 405.531,608.64613 415.46196,601.83683 C 419.87287,598.96136 424.77667,596.33501 429.99224,595.60806 L 425.28621,602.59871 z " />
    <path
       style="color:#000000;fill:#000000;fill-opacity:1;fill-rule:nonzero;stroke:none;stroke-width:3.9000001;stroke-linecap:butt;stroke-linejoin:miter;marker:none;marker-start:none;marker-mid:none;marker-end:none;stroke-miterlimit:4;stroke-dasharray:none;stroke-dashoffset:0;stroke-opacity:1;visibility:visible;display:inline;overflow:visible"
       id="path2517"
       d="M 482.95248,611.64784 C 480.69809,613.04951 475.17009,618.25342 483.72311,610.45047 C 484.05978,610.14332 483.07171,611.09031 482.75999,611.42481 C 481.68447,612.57899 480.76359,613.83048 479.85207,615.12488 C 473.94532,623.74852 475.47282,634.13517 481.32105,642.29727 C 488.85367,650.98336 501.31935,653.59597 511.26021,648.0063 C 510.34807,649.21811 515.72945,644.32393 514.60476,645.23476 C 513.55627,646.08389 512.71431,647.22828 511.55867,647.91 C 509.72862,648.98954 514.20845,644.45734 515.11169,642.47891 C 517.57105,637.09194 517.50554,631.35966 515.7605,625.78547 C 511.22535,613.88657 499.69897,610.27224 488.37006,611.4581 C 485.53059,611.81016 482.78432,612.61414 480.04474,613.42889 L 483.24417,607.87068 C 486.06971,607.1154 488.90177,606.37099 491.81378,606.06624 C 503.97448,605.02833 516.1492,609.15194 521.22842,621.68789 C 525.68939,634.84903 519.98151,647.54151 508.12043,654.14264 C 497.18741,659.09026 484.38385,655.83926 476.36004,646.74177 C 470.1519,638.33823 467.73648,627.31321 473.24894,617.8239 C 476.60363,612.26643 481.30773,606.79895 487.20697,604.3445 L 482.95248,611.64784 z " />
    <path
       style="color:#000000;fill:#000000;fill-opacity:1;fill-rule:nonzero;stroke:none;stroke-width:3.9000001;stroke-linecap:butt;stroke-linejoin:miter;marker:none;marker-start:none;marker-mid:none;marker-end:none;stroke-miterlimit:4;stroke-dasharray:none;stroke-dashoffset:0;stroke-opacity:1;visibility:visible;display:inline;overflow:visible"
       id="path2519"
       d="M 499.23637,586.91133 C 497.61497,586.93302 496.02192,587.61083 494.51425,588.19517 C 482.85518,595.56642 486.65927,590.28055 481.93173,600.19187 C 478.4596,608.58093 483.6364,616.36712 490.56577,620.53791 C 494.4467,622.41588 498.75207,622.24275 502.55397,620.21578 C 504.26712,619.30242 508.69228,615.37716 507.17417,616.60925 C 500.52283,622.00741 505.95521,616.91271 507.39332,613.97095 C 511.68172,603.93233 508.20722,593.47576 498.46121,589.16923 C 491.76486,586.86494 484.74415,588.28368 478.20406,590.44706 L 481.5716,584.51174 C 488.52699,582.5157 495.91775,581.33927 502.88741,583.94119 C 513.30665,588.8057 517.54834,599.97229 513.5185,611.14088 C 509.04556,622.10018 497.23441,631.63596 485.8251,625.77067 C 478.33352,621.0056 472.38934,612.58141 475.55008,603.15327 C 479.60043,593.19246 488.9813,585.93295 498.17007,581.44037 C 500.03243,580.6869 501.9344,579.92695 503.95558,579.90112 L 499.23637,586.91133 z " />
    <path
       style="color:#000000;fill:#000000;fill-opacity:1;fill-rule:nonzero;stroke:none;stroke-width:3.9000001;stroke-linecap:butt;stroke-linejoin:miter;marker:none;marker-start:none;marker-mid:none;marker-end:none;stroke-miterlimit:4;stroke-dasharray:none;stroke-dashoffset:0;stroke-opacity:1;visibility:visible;display:inline;overflow:visible"
       id="path2521"
       d="M 511.34232,555.17767 C 509.47022,554.57504 506.80465,554.48582 504.66684,554.56614 C 499.02983,554.97103 493.3875,556.78946 488.70519,560.13857 C 487.68596,560.86758 484.88499,563.41013 485.83577,562.58686 C 489.37147,559.52527 490.36457,558.17619 488.10774,560.91839 C 482.09309,569.41444 486.52318,578.76924 493.65924,584.53151 C 503.90788,591.61856 516.64227,590.13469 526.36323,582.92205 C 531.4674,578.35513 525.75888,583.47107 525.65505,583.5218 C 523.61307,584.51963 528.65693,579.96573 529.75,577.91058 C 532.29157,573.132 533.13227,567.44029 531.05178,562.34589 C 526.41854,554.31236 516.38824,555.15761 508.84276,557.22234 C 505.51166,558.19824 502.35467,559.6704 499.27554,561.29286 L 502.50038,555.00787 C 505.68345,553.5039 508.9299,552.13213 512.32931,551.2461 C 520.93633,549.15909 531.56108,549.01008 536.7428,557.86613 C 542.1134,570.21461 532.81969,582.16254 523.56317,588.9338 C 512.95536,595.95016 499.69809,596.73227 488.98069,589.38024 C 481.15123,583.21169 475.95055,573.17272 481.5977,563.44312 C 487.87406,554.24877 498.23196,549.14348 508.81515,548.2388 C 511.4756,548.08677 514.30901,547.94232 516.86276,548.83854 L 511.34232,555.17767 z " />
    <path
       style="color:#000000;fill:#000000;fill-opacity:1;fill-rule:nonzero;stroke:none;stroke-width:3.9000001;stroke-linecap:butt;stroke-linejoin:miter;marker:none;marker-start:none;marker-mid:none;marker-end:none;stroke-miterlimit:4;stroke-dasharray:none;stroke-dashoffset:0;stroke-opacity:1;visibility:visible;display:inline;overflow:visible"
       id="path2523"
       d="M 535.76318,582.45791 C 531.25096,584.17232 526.98278,586.75102 522.88058,589.36493 C 515.77776,595.52243 513.32846,592.56912 511.25607,604.93409 C 510.42905,615.64607 520.09113,621.25638 528.98284,622.55764 C 543.87415,622.37038 546.34139,619.46563 549.73361,611.65919 C 553.24114,600.56107 545.84321,590.57348 535.6964,587.84552 C 529.11346,586.43782 522.6712,588.00796 516.64536,590.79103 L 519.82006,584.81887 C 526.22468,582.25314 532.99909,580.97396 539.8022,582.58472 C 550.79959,585.79046 558.74955,596.56749 555.83568,608.74596 C 551.1332,621.84145 538.11158,629.65988 525.00051,627.98192 C 515.21529,626.27656 504.8976,620.05307 505.10281,608.41132 C 506.40187,596.39611 516.96622,589.07041 525.97931,582.90826 C 530.42825,580.08518 535.03825,577.49505 539.59573,574.90741 L 535.76318,582.45791 z " />
    <path
       style="color:#000000;fill:#000000;fill-opacity:1;fill-rule:nonzero;stroke:none;stroke-width:3.9000001;stroke-linecap:butt;stroke-linejoin:miter;marker:none;marker-start:none;marker-mid:none;marker-end:none;stroke-miterlimit:4;stroke-dasharray:none;stroke-dashoffset:0;stroke-opacity:1;visibility:visible;display:inline;overflow:visible"
       id="path2525"
       d="M 539.04158,626.30233 C 537.61284,626.75864 528.89201,635.00021 537.94925,626.52159 C 531.72794,632.52821 526.96218,640.81803 527.16271,649.8696 C 529.53908,662.84506 545.27556,666.59925 556.02548,665.82607 C 569.27657,663.19678 577.731,657.95409 573.92508,642.48384 C 567.46941,626.41182 548.54426,625.20493 534.23176,627.61443 C 533.19439,627.84463 532.15699,628.07485 531.11962,628.30506 L 534.30653,623.00937 C 535.34909,622.82026 536.39167,622.63114 537.43424,622.44202 C 552.65293,620.42071 571.79725,622.35686 579.11488,638.70745 C 584.13847,655.64672 567.65008,669.48206 552.65637,670.99594 C 540.89511,671.53474 524.53079,667.2715 521.26984,653.61664 C 520.64252,644.33409 525.07235,635.47893 531.0624,628.85565 C 533.65981,626.38678 539.86881,619.32782 543.76078,619.29211 L 539.04158,626.30233 z " />
    <path
       style="color:#000000;fill:#000000;fill-opacity:1;fill-rule:nonzero;stroke:none;stroke-width:3.9000001;stroke-linecap:butt;stroke-linejoin:miter;marker:none;marker-start:none;marker-mid:none;marker-end:none;stroke-miterlimit:4;stroke-dasharray:none;stroke-dashoffset:0;stroke-opacity:1;visibility:visible;display:inline;overflow:visible"
       id="path2527"
       d="M 581.11552,626.00397 C 578.71158,627.43675 574.90525,630.0215 572.40572,632.3468 C 573.5237,631.31047 574.60554,630.23023 575.75965,629.2378 C 580.25235,625.37452 571.80031,633.55158 570.53066,635.42532 C 567.25947,640.25292 565.28623,645.57445 566.41293,651.48512 C 569.38686,661.15945 580.06481,664.06788 588.80052,663.014 C 603.41003,658.2531 603.1833,658.78552 607.54623,646.67944 C 610.40201,636.74572 609.20012,622.98088 599.24156,617.89322 C 591.93,615.32685 584.70822,619.36598 578.73687,623.51606 L 581.61989,617.41763 C 588.2497,613.16031 596.09697,609.38213 603.85595,612.6406 C 614.25613,618.56383 616.00229,632.78033 613.39366,643.77816 C 609.34633,656.8137 598.21026,666.90244 585.11344,668.80154 C 575.42674,669.56925 564.18579,665.90686 560.63267,655.55114 C 557.7448,643.10378 566.94698,633.17255 575.23941,625.69334 C 578.18097,623.06647 581.96581,619.59807 585.83181,618.99812 L 581.11552,626.00397 z " />
    <path
       style="color:#000000;fill:#000000;fill-opacity:1;fill-rule:nonzero;stroke:none;stroke-width:3.9000001;stroke-linecap:butt;stroke-linejoin:miter;marker:none;marker-start:none;marker-mid:none;marker-end:none;stroke-miterlimit:4;stroke-dasharray:none;stroke-dashoffset:0;stroke-opacity:1;visibility:visible;display:inline;overflow:visible"
       id="path2531"
       d="M 548.29127,598.74389 C 555.88432,592.3328 552.67946,593.95352 549.43016,599.37181 C 545.98735,605.18033 544.73654,612.05409 548.61586,617.92544 C 554.72264,625.66546 564.78316,627.66165 573.93903,627.04726 C 583.57128,625.61127 585.10086,625.26843 581.92635,616.29141 C 576.48162,605.04477 563.81826,601.37729 552.5738,602.90921 C 545.05856,604.26695 538.24584,607.89475 532.19461,612.62487 L 535.10764,606.26521 C 541.43025,601.87444 548.42514,598.56973 556.00631,597.46015 C 568.11582,596.2053 581.12117,600.45307 587.44691,612.00229 C 592.68202,624.03227 580.98184,632.56899 570.13005,632.84927 C 560.36462,633.08652 549.87252,630.6959 543.21109,622.70563 C 538.72793,616.49783 539.23125,609.02598 542.58843,602.33177 C 544.96185,597.68542 547.50209,593.88995 552.13182,591.17765 L 548.29127,598.74389 z " />
    <path
       style="color:#000000;fill:#000000;fill-opacity:1;fill-rule:nonzero;stroke:none;stroke-width:3.9000001;stroke-linecap:butt;stroke-linejoin:miter;marker:none;marker-start:none;marker-mid:none;marker-end:none;stroke-miterlimit:4;stroke-dasharray:none;stroke-dashoffset:0;stroke-opacity:1;visibility:visible;display:inline;overflow:visible"
       id="path2533"
       d="M 568.08896,580.04064 C 555.43181,589.01389 572.1556,572.60428 564.19457,582.99944 C 559.4458,590.08988 559.75336,598.98858 564.06678,606.16641 C 571.0181,615.45933 582.94685,619.29036 593.90271,618.09532 C 605.4832,614.82093 608.87699,613.86691 609.24577,600.55637 C 608.41182,588.36214 597.7188,580.74863 587.12124,578.25226 C 575.35022,576.26896 564.55797,582.53501 556.11891,590.5338 L 558.81616,584.20526 C 567.83131,576.34959 579.14341,570.50145 591.16836,572.99128 C 602.40359,575.99096 613.56344,584.20306 614.99529,597.01246 C 615.28315,611.34226 603.44992,621.89372 590.33628,623.65237 C 578.74624,624.3945 566.34031,620.2444 558.75038,610.73238 C 553.94182,603.13947 553.18476,593.76353 557.51055,585.6941 C 560.91943,579.99579 566.29735,575.46787 572.08098,572.58592 L 568.08896,580.04064 z " />
    <path
       style="color:#000000;fill:#000000;fill-opacity:1;fill-rule:nonzero;stroke:none;stroke-width:3.9000001;stroke-linecap:butt;stroke-linejoin:miter;marker:none;marker-start:none;marker-mid:none;marker-end:none;stroke-miterlimit:4;stroke-dasharray:none;stroke-dashoffset:0;stroke-opacity:1;visibility:visible;display:inline;overflow:visible"
       id="path2535"
       d="M 552.68615,546.33456 C 552.25826,547.83122 547.8891,549.81555 546.01513,551.00739 C 537.22729,558.39602 537.97117,553.27834 534.39392,565.4906 C 532.23324,574.24467 537.86592,580.59531 545.60294,582.84564 C 559.12355,585.25697 562.52016,577.99974 563.81493,575.74597 C 567.35225,568.48926 567.84221,557.49772 560.41331,552.65944 C 550.78443,548.7973 540.62789,556.92555 533.83194,563.2369 C 536.98749,560.36578 537.18884,560.08889 534.67232,562.67159 L 528.49153,564.82544 C 532.19937,560.92008 529.6202,563.57133 536.4485,557.11018 C 544.05495,550.41671 555.08821,542.42355 565.34395,547.34601 C 573.28278,552.99424 573.59352,564.51374 570.06052,573.00647 C 564.59402,584.10347 553.15117,591.43597 541.20965,588.40061 C 532.70078,585.65069 526.25463,578.54043 528.13005,568.74669 C 530.79519,557.46687 540.33314,550.41711 549.20234,544.30341 C 551.58712,542.69344 554.71917,539.5896 557.4039,539.32654 L 552.68615,546.33456 z " />
    <path
       style="color:#000000;fill:#000000;fill-opacity:1;fill-rule:nonzero;stroke:none;stroke-width:3.9000001;stroke-linecap:butt;stroke-linejoin:miter;marker:none;marker-start:none;marker-mid:none;marker-end:none;stroke-miterlimit:4;stroke-dasharray:none;stroke-dashoffset:0;stroke-opacity:1;visibility:visible;display:inline;overflow:visible"
       id="path2537"
       d="M 574.86624,541.00454 C 574.06789,540.50797 573.47984,541.15648 572.54862,541.63602 C 568.7965,545.17738 568.33249,541.28966 563.36801,554.73987 C 560.08609,565.12684 563.89912,575.62602 572.65592,581.42568 C 578.66503,584.64581 585.68996,585.34969 591.96681,582.48726 C 594.17113,581.48203 594.43607,581.14862 596.408,579.73576 C 597.04395,579.12815 599.10708,577.55412 598.31586,577.91291 C 593.38488,580.14905 596.01444,580.21061 598.58938,575.65907 C 604.15038,563.14199 596.64106,550.47349 586.32438,543.8615 C 580.64042,540.58783 574.3896,540.32077 568.09766,541.14421 L 571.56453,535.66113 C 578.21001,535.02648 584.77459,535.5528 590.68267,539.10915 C 601.54464,546.30406 609.57698,559.5313 604.49422,573.06256 C 597.45288,587.35889 582.01461,593.97678 568.13302,586.33745 C 558.73574,580.10316 554.31483,569.12098 557.25117,557.76045 C 560.37534,547.89383 567.38558,539.4895 576.21053,534.57487 C 577.05671,534.25418 579.92692,534.05378 579.58547,533.99434 L 574.86624,541.00454 z " />
    <path
       style="color:#000000;fill:#000000;fill-opacity:1;fill-rule:nonzero;stroke:none;stroke-width:3.9000001;stroke-linecap:butt;stroke-linejoin:miter;marker:none;marker-start:none;marker-mid:none;marker-end:none;stroke-miterlimit:4;stroke-dasharray:none;stroke-dashoffset:0;stroke-opacity:1;visibility:visible;display:inline;overflow:visible"
       id="path2539"
       d="M 536.07841,527.33743 C 533.33013,526.27782 528.11547,525.81246 524.5528,525.99602 C 518.33539,526.62021 512.33773,528.97037 507.2007,532.67091 C 505.88106,533.62153 502.1626,536.8031 503.49094,535.86569 C 509.32989,531.7451 504.6415,535.47952 503.44631,538.96452 C 500.90984,552.77265 515.01337,558.22799 525.77373,556.95591 C 531.52885,555.93296 537.07897,553.74166 541.86376,550.22168 C 543.26195,549.19309 547.26944,545.90427 545.74988,546.72507 C 539.49982,550.10109 545.99283,548.15678 545.15554,539.917 C 542.46771,529.06027 531.29131,526.86489 521.99054,527.6172 L 525.6239,522.0265 C 535.9701,521.54234 547.49311,524.50374 550.91652,536.04715 C 553.46119,551.60156 534.40425,560.1603 522.39655,562.27242 C 510.3834,563.37265 495.68325,556.96001 497.37896,542.05128 C 500.77321,528.77182 516.38745,521.67595 528.39633,520.10235 C 532.75713,519.82896 537.38108,519.94605 541.59884,520.9983 L 536.07841,527.33743 z " />
    <path
       style="color:#000000;fill:#000000;fill-opacity:1;fill-rule:nonzero;stroke:none;stroke-width:3.9000001;stroke-linecap:butt;stroke-linejoin:miter;marker:none;marker-start:none;marker-mid:none;marker-end:none;stroke-miterlimit:4;stroke-dasharray:none;stroke-dashoffset:0;stroke-opacity:1;visibility:visible;display:inline;overflow:visible"
       id="path2541"
       d="M 548.42591,510.99643 C 537.41763,518.3823 552.62996,504.7339 546.74312,511.7915 C 541.77211,518.41835 540.2689,527.11899 541.22462,535.33578 C 542.18375,543.18173 547.89896,547.018 555.16459,546.15085 C 568.73263,541.849 568.91064,541.5995 572.64905,533.25791 C 576.36324,522.77594 570.824,512.10719 560.77449,508.85859 C 552.96773,507.26239 545.60021,511.09354 539.67993,516.10378 L 542.5768,509.62351 C 549.11988,504.76093 556.97373,501.33427 565.0873,503.51091 C 575.80072,507.49151 582.0009,518.76968 578.7117,530.38209 C 574.47534,541.95522 562.81059,550.27546 551.28517,552.22837 C 543.10549,552.83939 536.43017,548.03638 535.25906,539.30925 C 534.19671,530.80078 535.56142,521.81372 539.90382,514.45084 C 543.01358,509.74156 547.39684,505.68439 552.53665,503.59838 L 548.42591,510.99643 z " />
    <path
       style="color:#000000;fill:#000000;fill-opacity:1;fill-rule:nonzero;stroke:none;stroke-width:3.9000001;stroke-linecap:butt;stroke-linejoin:miter;marker:none;marker-start:none;marker-mid:none;marker-end:none;stroke-miterlimit:4;stroke-dasharray:none;stroke-dashoffset:0;stroke-opacity:1;visibility:visible;display:inline;overflow:visible"
       id="path2543"
       d="M 513.4525,489.17429 C 511.34913,489.54328 509.33226,490.51504 507.46118,491.59432 C 508.14603,490.29262 502.95065,495.21467 504.00848,494.22011 C 505.21509,493.08568 506.4208,491.94892 507.66849,490.86376 C 508.96264,489.7382 505.29303,493.3856 504.3575,494.84661 C 501.85144,498.76024 501.06628,502.86804 501.66421,507.48779 C 504.48607,519.74647 515.11299,527.78747 526.87132,528.57361 C 540.82287,526.22872 543.3455,526.78128 545.30093,514.2657 C 546.11183,504.16132 540.12686,497.97035 530.76213,497.72533 C 527.82324,497.77327 524.99341,498.54181 522.19413,499.3938 L 525.60498,493.46112 C 528.58037,492.67181 531.58575,491.97537 534.67928,492.03212 C 545.11905,492.57865 551.71183,499.70091 551.32404,510.84395 C 549.88107,524.86983 536.05056,534.33029 523.12152,533.88876 C 510.68523,532.59626 499.65268,524.06478 496.01188,511.35211 C 493.70582,499.58991 501.29408,490.39011 510.83544,484.81994 C 513.1197,483.57995 515.56606,482.31675 518.17173,482.1641 L 513.4525,489.17429 z " />
    <path
       style="color:#000000;fill:#000000;fill-opacity:1;fill-rule:nonzero;stroke:none;stroke-width:3.9000001;stroke-linecap:butt;stroke-linejoin:miter;marker:none;marker-start:none;marker-mid:none;marker-end:none;stroke-miterlimit:4;stroke-dasharray:none;stroke-dashoffset:0;stroke-opacity:1;visibility:visible;display:inline;overflow:visible"
       id="path2545"
       d="M 496.10591,493.6158 C 494.03691,494.57217 491.5891,495.69146 489.47439,496.83341 C 478.21502,505.55325 478.7334,499.31678 473.89733,512.78755 C 471.0491,524.07429 479.53194,533.61852 488.56029,538.36298 C 502.08435,543.51269 506.45064,537.80673 508.94236,533.20512 C 513.46148,523.13742 511.0921,510.86401 501.47632,505.32016 C 496.66456,502.97573 491.4735,503.31388 486.43606,504.53528 L 489.92511,498.69018 C 495.39367,497.64313 500.95336,497.55627 506.04765,500.22145 C 516.22192,506.40442 519.21142,519.31799 515.00239,530.49253 C 509.11141,543.34623 496.66381,549.98469 484.12716,543.40234 C 474.60026,538.02487 465.54502,527.99507 467.77954,515.85055 C 471.25727,503.70615 482.96124,496.47241 492.78335,490.19613 C 495.26643,488.77356 497.96467,486.85393 500.82366,486.60777 L 496.10591,493.6158 z " />
    <path
       style="opacity:1;color:#000000;fill:#a4bb27;fill-opacity:1;fill-rule:nonzero;stroke:none;stroke-width:3.9000001;stroke-linecap:butt;stroke-linejoin:miter;marker:none;marker-start:none;marker-mid:none;marker-end:none;stroke-miterlimit:4;stroke-dasharray:none;stroke-dashoffset:0;stroke-opacity:1;visibility:visible;display:inline;overflow:visible"
       d="M 800.71429,104.28571 C 799.76191,104.28571 799.76191,104.28571 800.71429,104.28571 z "
       id="path4713" />
    <path
       style="opacity:1;color:#000000;fill:#a98848;fill-opacity:1;fill-rule:nonzero;stroke:none;stroke-width:3.9000001;stroke-linecap:butt;stroke-linejoin:miter;marker:none;marker-start:none;marker-mid:none;marker-end:none;stroke-miterlimit:4;stroke-dasharray:none;stroke-dashoffset:0;stroke-opacity:1;visibility:visible;display:inline;overflow:visible"
       d="M 679.47411,68.759319 C 657.53228,68.951829 635.85772,73.045179 615.40558,83.455769 C 581.80097,95.219089 552.2691,118.24283 532.68997,148.98511 C 512.93156,171.33073 495.79813,197.14174 482.90581,227.59833 C 453.60367,210.67441 423.85261,169.81623 388.12237,176.98535 C 353.86105,172.16935 309.3111,176.45658 283.69876,206.12172 C 245.10982,242.17547 236.65804,313.75272 277.47134,351.58366 C 314.83766,390.71513 367.94738,410.35324 419.71685,416.27005 C 434.68291,419.17432 476.22542,408.12432 471.15463,404.79876 C 441.34446,410.10153 390.78411,397.04868 389.07232,358.95022 C 389.8219,320.52251 445.09968,300.26116 474.25075,321.97084 C 517.55921,331.42845 516.08516,279.02597 522.38131,250.32103 C 537.04563,200.97597 573.07446,157.47033 622.05519,143.81753 C 662.21365,130.27507 710.96274,130.69886 747.09615,154.77575 C 760.56707,134.0705 765.91619,107.7158 763.56185,82.173039 C 736.34352,74.703289 707.67443,68.511899 679.47411,68.759319 z "
       id="path4715" />
    <path
       style="opacity:1;color:#000000;fill:#000000;fill-opacity:1;fill-rule:nonzero;stroke:none;stroke-width:3.9000001;stroke-linecap:butt;stroke-linejoin:miter;marker:none;marker-start:none;marker-mid:none;marker-end:none;stroke-miterlimit:4;stroke-dasharray:none;stroke-dashoffset:0;stroke-opacity:1;visibility:visible;display:inline;overflow:visible"
       d="M 695.20098,59.743539 C 665.27655,60.201189 635.51367,66.624629 607.59492,79.827479 C 558.90511,105.88396 517.7464,147.12313 492.12379,196.62949 C 489.12649,202.80756 486.20243,209.09777 483.5391,215.50399 C 462.63901,194.15262 435.20262,180.98913 406.31207,173.54029 C 352.26627,161.14136 303.83487,169.82658 267.02195,215.61394 C 236.68356,253.87289 227.23933,304.31493 255.76333,346.85587 C 290.10498,392.92093 344.95679,415.19099 400.57722,419.93501 C 419.52338,420.91249 438.54016,419.94763 457.11655,416.63656 C 476.43282,415.58111 495.53594,409.44419 513.12814,400.80395 C 517.65837,398.53923 522.01642,395.9385 526.357,393.32746 L 528.81983,388.26983 C 536.60129,383.07838 543.10365,378.30269 543.7023,377.53151 C 543.70633,377.52586 543.73422,377.50001 543.73748,377.49487 C 543.73755,377.4915 543.73763,377.46217 543.73748,377.45821 C 543.72599,377.45761 543.68037,377.45764 543.66712,377.45821 C 543.04489,377.61737 538.99397,380.12071 529.76977,386.32741 L 537.75635,369.83512 C 536.95846,370.38818 536.16466,370.97214 535.36389,371.521 L 537.75635,368.07594 C 535.54963,369.46876 533.52118,370.71826 531.66967,371.88749 C 532.99678,370.9536 533.93784,370.19087 534.20284,369.87177 C 534.20784,369.86537 534.23364,369.84113 534.23803,369.83512 C 534.24559,369.8238 534.26815,369.80827 534.27322,369.79847 C 534.27511,369.79394 534.27196,369.76596 534.27322,369.76181 C 534.26861,369.75645 534.24356,369.72936 534.23803,369.72518 C 534.234,369.72482 534.20732,369.72526 534.20284,369.72518 C 534.19793,369.72534 534.17304,369.72474 534.16766,369.72518 C 533.4522,369.81111 529.31383,371.91003 519.35556,377.49487 C 503.23368,386.49291 486.09795,392.72298 468.41035,396.69921 C 457.48019,397.42324 446.42886,396.26544 435.54927,392.66776 C 416.34875,384.98357 389.73237,364.73721 399.52172,340.6621 C 400.18084,339.60092 400.92064,338.54914 401.66789,337.58354 C 414.5867,329.87443 429.90971,326.33517 444.66172,325.23265 C 462.24896,325.18268 480.42594,329.7316 493.46075,342.34799 C 495.44421,344.90412 496.99581,347.58615 498.59749,350.33757 L 501.62324,347.47891 C 501.67026,347.71112 501.71696,347.94304 501.76398,348.17526 L 521.92392,334.39502 C 521.43228,332.20465 520.93791,330.02518 520.44623,327.83477 C 513.07273,284.55493 522.96361,240.0501 548.69831,204.54578 C 569.72703,177.68016 601.48861,150.14628 655.65511,140.95887 C 686.46503,137.59296 718.50622,142.5392 741.92422,161.92239 C 746.82374,155.79552 750.86899,149.01844 754.13277,141.80181 C 729.87517,124.35791 698.60015,119.30848 667.93404,122.12102 C 610.96186,130.03977 562.58846,166.45277 528.46799,212.20554 C 508.2088,242.04541 498.04883,277.32781 498.14012,313.06501 C 486.06923,307.34236 472.61295,304.73419 459.19236,304.34242 C 428.10517,305.56585 388.49325,319.38009 375.59717,351.18052 C 370.94443,372.07609 384.60491,389.77819 401.28088,401.46365 C 351.03575,396.48762 302.41767,374.94594 272.26423,332.56256 C 245.73031,290.96442 257.57428,243.16765 288.09666,207.91754 C 293.6901,196.22343 346.96743,181.15558 392.30917,191.42526 C 424.05734,199.74037 454.26636,215.77491 473.68782,243.21103 C 473.81203,243.40898 473.92856,243.58415 474.03965,243.76077 C 472.33497,250.77184 471.16203,257.88656 470.66207,265.12744 C 470.77372,269.28821 470.83234,273.47136 473.47673,276.85529 L 494.79772,256.808 C 494.80087,256.80796 494.82914,256.80833 494.8329,256.808 C 494.83606,256.81144 494.86429,256.84023 494.86808,256.84465 C 494.87424,256.83821 494.89729,256.81506 494.90326,256.808 C 494.90646,256.80811 494.93451,256.80768 494.93845,256.808 C 494.94093,256.80502 494.96407,256.78136 494.97363,256.77135 C 494.97327,256.76745 494.97373,256.738 494.97363,256.73471 C 494.98008,256.7283 495.0024,256.70459 495.00881,256.69805 C 495.00861,256.68553 495.00915,256.63778 495.00881,256.62476 C 495.01626,256.60053 495.03726,256.54149 495.04399,256.51481 C 495.1838,255.4049 494.5972,251.8176 494.55143,250.72418 C 494.81799,245.95873 495.4136,241.24302 496.27541,236.57746 L 498.52713,234.70834 C 497.89321,233.69064 497.46674,232.99755 497.1198,232.43607 C 500.57774,216.64892 506.90701,201.47364 513.79662,186.99067 C 542.21028,136.53156 558.25493,121.41515 598.06028,98.518729 C 649.96248,71.521629 709.48186,70.083299 763.94888,88.293509 C 763.65419,81.567309 762.87675,74.851889 761.52124,68.282879 C 740.02973,62.427329 717.93032,59.475709 695.90465,59.743539 C 695.669,59.746399 695.43661,59.739929 695.20098,59.743539 z M 396.67189,340.91864 C 394.778,342.58212 392.58648,344.55522 389.9519,346.81922 C 389.89362,346.86929 389.82399,346.92301 389.77598,346.96582 C 390.83417,345.94234 394.4856,342.61575 396.67189,340.91864 z "
       id="path6545" />
  </g>
</svg>
