<?xml version="1.0" encoding="UTF-8" standalone="no"?>
<!-- Created with Inkscape (http://www.inkscape.org/) -->
<svg
   xmlns:dc="http://purl.org/dc/elements/1.1/"
   xmlns:cc="http://web.resource.org/cc/"
   xmlns:rdf="http://www.w3.org/1999/02/22-rdf-syntax-ns#"
   xmlns:svg="http://www.w3.org/2000/svg"
   xmlns="http://www.w3.org/2000/svg"
   xmlns:sodipodi="http://inkscape.sourceforge.net/DTD/sodipodi-0.dtd"
   xmlns:inkscape="http://www.inkscape.org/namespaces/inkscape"
   width="1000"
   height="1000"
   id="svg2"
   sodipodi:version="0.32"
   inkscape:version="0.43"
   version="1.0"
   sodipodi:docbase="/home/kkowal/tale/art/monster"
   sodipodi:docname="dancing-hamster.svg">
  <defs
     id="defs4" />
  <sodipodi:namedview
     id="base"
     pagecolor="#ffffff"
     bordercolor="#666666"
     borderopacity="1.0"
     inkscape:pageopacity="0.0"
     inkscape:pageshadow="2"
     inkscape:zoom="0.49497475"
     inkscape:cx="671.81598"
     inkscape:cy="648.60726"
     inkscape:document-units="px"
     inkscape:current-layer="layer1"
     showguides="true"
     inkscape:guide-bbox="true"
     inkscape:window-width="1600"
     inkscape:window-height="1125"
     inkscape:window-x="0"
     inkscape:window-y="25" />
  <metadata
     id="metadata7">
    <rdf:RDF>
      <cc:Work
         rdf:about="">
        <dc:format>image/svg+xml</dc:format>
        <dc:type
           rdf:resource="http://purl.org/dc/dcmitype/StillImage" />
      </cc:Work>
    </rdf:RDF>
  </metadata>
  <g
     inkscape:label="Layer 1"
     inkscape:groupmode="layer"
     id="layer1">
    <path
       style="opacity:1;color:#000000;fill:#e2a563;fill-opacity:1;fill-rule:nonzero;stroke:none;stroke-width:1px;stroke-linecap:butt;stroke-linejoin:miter;marker:none;marker-start:none;marker-mid:none;marker-end:none;stroke-miterlimit:4;stroke-dasharray:none;stroke-dashoffset:0;stroke-opacity:1;visibility:visible;display:inline;overflow:visible"
       d="M 334.74277,512.72904 C 318.46081,513.7202 302.98774,511.88689 285.82481,515.89391 C 261.94947,515.03913 239.34198,533.78148 236.70974,556.44929 C 225.00712,577.49736 198.49887,589.20136 174.07338,585.745 C 152.53003,586.71839 142.16235,617.3149 158.87084,630.26573 C 177.57842,651.28986 207.04114,657.57077 233.63844,664.527 C 268.70013,673.21037 305.09153,675.79874 341.2108,675.58191 C 365.85999,668.91569 384.21087,646.27893 386.12401,622.04674 C 398.54136,583.35215 379.1775,537.56474 341.66898,518.53094 C 339.2068,516.77469 336.84816,514.87219 334.74277,512.72904 z "
       id="path8862"
       sodipodi:nodetypes="cccccccccc" />
    <path
       style="opacity:1;color:#000000;fill:#e2a563;fill-opacity:1;fill-rule:nonzero;stroke:none;stroke-width:1px;stroke-linecap:butt;stroke-linejoin:miter;marker:none;marker-start:none;marker-mid:none;marker-end:none;stroke-miterlimit:4;stroke-dasharray:none;stroke-dashoffset:0;stroke-opacity:1;visibility:visible;display:inline;overflow:visible"
       d="M 356.31434,357.32198 C 328.15923,352.08153 298.23528,366.08876 283.1436,388.97485 C 264.97035,403.7315 238.96485,402.97535 217.06931,397.88211 C 188.78972,395.6935 158.7053,404.28383 138.94816,424.33137 C 130.20954,438.9547 148.36093,458.94488 164.75718,453.0164 C 200.40563,450.48003 235.43256,458.84082 270.60733,462.80341 C 297.99078,470.43705 315.53785,498.51701 345.53805,499.43663 C 375.6931,498.33669 399.72019,478.54507 421.85087,461.09417 C 449.51444,438.83667 443.29552,391.47538 412.3914,374.6441 C 396.07322,363.65049 376.19511,357.91348 356.31434,357.32198 z "
       id="path8803" />
    <path
       style="opacity:1;color:#000000;fill:#000000;fill-opacity:1;fill-rule:nonzero;stroke:none;stroke-width:1px;stroke-linecap:butt;stroke-linejoin:miter;marker:none;marker-start:none;marker-mid:none;marker-end:none;stroke-miterlimit:4;stroke-dasharray:none;stroke-dashoffset:0;stroke-opacity:1;visibility:visible;display:inline;overflow:visible"
       id="path7841"
       d="M 332.60862,521.03042 C 334.53881,523.65034 330.77461,520.89982 329.97911,520.51049 C 319.72303,516.34688 308.40979,516.34752 297.4788,517.09691 C 283.89735,517.97712 270.88855,521.48221 258.88828,527.5409 C 275.02364,517.01738 253.29376,532.62609 249.25783,539.08036 C 245.97192,544.9173 244.76338,551.45477 243.61355,557.91309 C 242.98095,563.26754 241.43396,568.21621 238.61865,572.85467 C 232.04006,580.72926 221.29069,583.18768 211.41834,584.82518 C 203.91533,585.89666 196.35128,586.49252 188.83645,587.48114 C 182.57665,588.22731 176.52322,589.84643 170.62379,591.92752 C 154.68839,599.41791 178.57902,587.15182 168.52701,592.75543 C 165.43311,594.47286 163.32525,596.94688 161.51711,599.80932 C 159.89917,602.80815 160.08558,605.8047 160.57355,609.0137 C 162.12812,614.04687 165.28998,618.38754 168.66597,622.45584 C 172.31461,626.84205 176.84559,630.35035 181.60719,633.55763 C 186.22602,636.56168 191.22529,638.95154 196.24559,641.26723 C 201.57297,643.72257 207.05584,645.84133 212.59716,647.80911 C 218.54167,649.91807 224.64535,651.57387 230.78407,653.07469 C 238.25187,654.80467 245.80336,656.19067 253.3764,657.42525 C 263.71967,659.1151 274.09533,660.6176 284.48193,662.04192 C 294.40954,663.42471 304.36761,664.59405 314.34799,665.56632 C 320.89914,666.21201 327.47072,666.61965 334.04795,666.91668 C 336.48037,667.02061 338.9146,667.07165 341.3486,667.1266 L 332.59314,679.97725 C 330.11829,679.87593 327.6431,679.77874 325.17133,679.61932 C 318.52331,679.17818 311.88421,678.62262 305.26762,677.8558 C 295.26794,676.71324 285.29055,675.40524 275.32667,674.00636 C 264.85919,672.55506 254.39498,671.07607 243.96006,669.42267 C 236.17896,668.115 228.39525,666.75866 220.75237,664.82655 C 214.39061,663.182 208.0685,661.38289 201.92348,659.09221 C 196.20734,656.97033 190.54178,654.72178 185.04117,652.12415 C 179.69549,649.58901 174.42953,646.8726 169.5734,643.53877 C 164.3075,639.83891 159.39675,635.69319 155.34332,630.76368 C 151.36602,625.85158 147.72868,620.6125 145.67121,614.67018 C 144.49573,610.10415 143.96674,605.5663 145.45571,600.97623 C 147.01564,596.73618 149.14713,592.88019 152.7529,589.87004 C 159.7988,584.313 168.23523,580.56182 176.89735,577.89363 C 183.28982,576.13296 189.80794,574.88057 196.43005,574.21488 C 203.82988,573.38473 211.28274,572.80145 218.58009,571.31368 C 241.61167,565.92994 211.50279,570.35041 222.62521,571.34418 C 225.97734,568.40042 227.36104,564.89457 227.92394,560.50699 C 229.26,553.39588 230.42263,546.18234 233.51022,539.52392 C 239.94841,526.77193 250.44576,519.29577 264.05192,513.5998 C 277.01535,508.00537 291.0585,505.31344 305.23264,504.60777 C 317.4687,504.11117 330.0988,504.64262 341.32371,509.79446 C 344.55284,511.60502 347.36346,513.5665 348.4924,517.08774 L 332.60862,521.03042 z " />
    <path
       style="opacity:1;color:#000000;fill:#000000;fill-opacity:1;fill-rule:nonzero;stroke:none;stroke-width:1px;stroke-linecap:butt;stroke-linejoin:miter;marker:none;marker-start:none;marker-mid:none;marker-end:none;stroke-miterlimit:4;stroke-dasharray:none;stroke-dashoffset:0;stroke-opacity:1;visibility:visible;display:inline;overflow:visible"
       id="path7831"
       d="M 366.27557,357.18538 C 368.4314,360.4368 360.19183,359.3299 356.76818,359.84232 C 342.00318,362.41144 327.7673,367.23248 314.13622,373.16451 C 299.79833,381.32434 312.396,371.19402 292.35928,386.40637 C 283.54414,393.92135 275.86889,402.19611 263.64077,404.75935 C 251.95953,405.83671 240.27123,403.75034 228.65671,402.71196 C 214.49447,401.37319 200.30404,402.53949 186.76247,406.72857 C 160.04771,418.13296 178.05102,407.8593 160.24096,420.07833 C 154.58605,424.26257 149.04753,428.95024 146.40201,435.42115 C 148.2488,442.07837 157.7177,444.55982 163.93503,446.54604 C 178.36097,450.85321 193.36454,453.06143 208.42672,453.88596 C 221.92986,454.61978 235.44313,453.95514 248.90629,452.93246 C 257.61163,452.0603 266.26191,451.76683 274.61487,454.48695 C 283.86502,458.54077 291.67045,464.98129 300.04014,470.42483 C 315.78497,480.65654 333.14162,488.29283 350.66663,495.27067 C 352.02296,495.79677 353.3793,496.32285 354.73563,496.84894 L 344.66989,507.16989 C 343.30514,506.62487 341.94038,506.07987 340.57562,505.53487 C 322.66804,498.2331 304.88266,490.42164 288.63347,480.08284 C 280.73748,475.11498 273.22251,469.09024 264.26204,465.99222 C 256.58806,464.61668 248.84205,465.1417 241.08176,465.73539 C 227.37926,466.51714 213.63051,466.86141 199.92548,465.88625 C 184.29668,464.72442 168.73892,462.1882 153.80947,457.54164 C 143.99015,454.23136 132.63322,449.57413 130.80246,438.6565 C 131.50532,429.61407 138.01514,423.02995 145.01344,417.38665 C 159.07679,406.46547 175.78864,398.7188 193.00934,393.52354 C 207.50071,389.78219 222.52968,389.13799 237.43216,390.68079 C 248.15915,391.69449 259.55521,393.96108 270.08051,390.95558 C 273.68319,389.03478 279.80284,385.56674 263.38047,394.46016 C 258.32409,397.19842 282.55795,382.61562 276.91934,383.96131 C 289.59188,373.62074 304.22408,365.87423 319.54382,359.64892 C 333.87396,353.92512 348.72056,349.1833 364.06266,346.68787 C 369.11546,346.00892 375.51405,344.23924 379.52642,347.93074 L 366.27557,357.18538 z " />
    <path
       style="opacity:1;color:#000000;fill:#e2a563;fill-opacity:1;fill-rule:nonzero;stroke:none;stroke-width:1px;stroke-linecap:butt;stroke-linejoin:miter;marker:none;marker-start:none;marker-mid:none;marker-end:none;stroke-miterlimit:4;stroke-dasharray:none;stroke-dashoffset:0;stroke-opacity:1;visibility:visible;display:inline;overflow:visible"
       d="M 318.97896,674.47927 C 359.50945,758.1692 479.58474,790.37877 561.9485,744.57835 C 689.85959,698.89863 758.07535,545.23366 707.25858,424.82226 C 668.63109,305.63763 559.73367,208.4696 430.89777,184.67041 C 352.31649,181.33879 309.92258,249.70949 323.36322,311.09955 C 326.84239,353.88275 375.2146,386.62676 362.47554,431.49848 C 338.16257,487.09831 303.25732,543.4211 309.54926,604.88734 C 309.35858,628.34598 312.32221,651.87876 318.97896,674.47927 z "
       id="path3141"
       sodipodi:nodetypes="cccccccc" />
    <path
       style="opacity:1;color:#000000;fill:#a9464a;fill-opacity:1;fill-rule:nonzero;stroke:none;stroke-width:1px;stroke-linecap:butt;stroke-linejoin:miter;marker:none;marker-start:none;marker-mid:none;marker-end:none;stroke-miterlimit:4;stroke-dasharray:none;stroke-dashoffset:0;stroke-opacity:1;visibility:visible;display:inline;overflow:visible"
       d="M 503.99635,286.0003 C 514.39533,280.63773 526.71,279.99604 538.21083,281.54982 C 544.92969,282.28118 552.0225,283.27746 557.58203,287.25915 C 562.33412,291.94367 562.96444,299.82721 559.15327,305.21174 C 556.33201,307.8635 552.07351,307.09446 548.52941,306.79108 C 538.465,306.00362 529.17527,301.77175 520.47476,297.14698 C 515.02254,294.6966 509.79959,291.56265 505.76817,287.23185 C 505.20693,286.78463 504.61938,286.36597 503.99635,286.0003 z "
       id="path9009" />
    <path
       style="opacity:1;color:#000000;fill:#ffffff;fill-opacity:1;fill-rule:nonzero;stroke:none;stroke-width:1px;stroke-linecap:butt;stroke-linejoin:miter;marker:none;marker-start:none;marker-mid:none;marker-end:none;stroke-miterlimit:4;stroke-dasharray:none;stroke-dashoffset:0;stroke-opacity:1;visibility:visible;display:inline;overflow:visible"
       d="M 327.04817,535.78609 C 317.93947,573.21485 298.03659,610.95849 307.96584,650.17666 C 329.15277,725.98637 425.40957,773.54824 501.96855,743.78503 C 558.49402,716.48501 590.92909,656.69391 595.89684,597.94124 C 606.52133,540.75743 603.68359,513.28301 578.21094,453.97577 C 560.1115,417.21794 512.34488,459.49996 464.8243,459.55991 C 407.63584,458.63737 376.82646,392.7465 359.69112,437.79121 C 352.7064,447.56204 343.589,497.62443 327.04817,535.78609 z "
       id="path4996"
       sodipodi:nodetypes="cccccccc" />
    <path
       style="opacity:1;color:#000000;fill:#000000;fill-opacity:1;fill-rule:nonzero;stroke:none;stroke-width:1px;stroke-linecap:butt;stroke-linejoin:miter;marker:none;marker-start:none;marker-mid:none;marker-end:none;stroke-miterlimit:4;stroke-dasharray:none;stroke-dashoffset:0;stroke-opacity:1;visibility:visible;display:inline;overflow:visible"
       id="path2216"
       d="M 359.15698,414.78959 C 360.26056,417.3808 353.92533,404.85314 353.09224,403.26595 C 341.86419,382.47012 332.7269,360.72415 325.86942,338.26478 C 318.31019,312.15954 315.2864,284.64776 319.67089,257.78731 C 323.74214,234.49855 336.07561,214.20111 355.88616,200.10408 C 382.32771,181.97222 413.13704,179.77153 444.20382,185.06528 C 483.47746,192.58674 519.18442,210.57433 552.24132,231.61707 C 592.09051,257.62292 627.72904,289.35733 656.82854,326.16118 C 688.89229,367.5978 709.60307,415.5139 719.83606,465.93441 C 728.66283,515.12333 724.60212,565.56031 708.99582,613.08176 C 694.7408,655.94704 665.93335,691.20559 629.15171,718.59107 C 590.44965,746.32991 545.00534,763.06103 497.27674,769.22285 C 457.19353,774.00692 417.14267,767.88207 381.21267,750.28237 C 349.41077,734.32605 327.84119,707.64544 314.61143,676.2905 C 302.03875,645.27073 301.67541,611.87846 305.44183,579.25601 C 309.16402,548.93577 318.04277,519.51916 329.28363,491.02895 C 338.60085,467.84509 349.4231,445.2468 360.7891,422.92367 C 363.49575,417.61742 366.251,412.33413 369.02103,407.05791 L 384.18729,406.68064 C 381.29052,411.93006 378.3987,417.18209 375.57786,422.46931 C 363.79973,444.51676 352.65623,466.90184 343.22507,489.97052 C 331.93722,517.94999 322.8592,546.83345 318.89636,576.66225 C 314.92409,608.23658 315.00613,640.61858 327.05167,670.7327 C 339.59333,700.75022 360.28258,726.1281 390.80275,741.17058 C 425.75149,757.97949 464.69007,763.36907 503.44559,758.31397 C 544.07141,752.6049 583.27629,739.62246 616.55511,716.32042 C 653.05969,690.13143 681.90891,656.11242 696.51152,614.33679 C 712.53919,567.829 716.93706,518.23943 708.41487,469.85796 C 698.56619,420.22613 678.22528,373.07025 646.37247,332.51835 C 617.36528,296.43049 582.29676,265.06259 542.69712,239.75048 C 510.05455,219.37827 474.68183,202.10947 435.91062,195.70438 C 412.58107,192.42029 374.45581,197.59096 370.13011,202.9614 C 350.69265,215.09314 338.27232,233.62059 333.84041,255.40797 C 328.91805,281.26008 331.63052,307.91722 338.89745,333.1408 C 345.61913,355.14643 354.6865,376.46599 366.59441,396.3957 C 369.43007,401.18287 372.73938,405.81464 375.04326,410.8463 L 359.15698,414.78959 z " />
    <path
       style="opacity:1;color:#000000;fill:#000000;fill-opacity:1;fill-rule:nonzero;stroke:none;stroke-width:1px;stroke-linecap:butt;stroke-linejoin:miter;marker:none;marker-start:none;marker-mid:none;marker-end:none;stroke-miterlimit:4;stroke-dasharray:none;stroke-dashoffset:0;stroke-opacity:1;visibility:visible;display:inline;overflow:visible"
       id="path2226"
       d="M 472.46733,307.56871 C 469.79003,308.09829 471.17353,306.65859 471.81315,303.81651 C 472.96596,298.615 475.08763,293.7854 478.13011,289.35371 C 484.02269,281.92205 493.01028,278.4644 502.04157,275.80197 C 512.75666,272.89571 523.85371,272.06947 534.90231,273.16218 C 543.88121,274.35224 552.16439,277.68012 559.49257,282.70438 C 569.29184,289.94656 568.93641,296.21017 568.01535,307.93842 C 565.68405,312.82097 561.35838,314.8891 556.21999,316.28247 C 550.51463,317.40247 544.78271,316.53347 539.1758,315.35001 C 533.38337,314.06853 527.87828,311.92546 522.46637,309.61833 C 517.83874,307.60463 513.50738,305.07166 509.32502,302.32605 C 505.8246,299.95487 502.69024,297.15071 499.54082,294.37932 C 498.94234,293.84719 498.35388,293.3049 497.76042,292.7677 L 504.10281,278.6119 C 504.68932,279.14897 505.28107,279.68085 505.86235,280.22313 C 508.75871,282.84191 511.61867,285.50989 514.74648,287.87985 C 518.43642,290.51877 522.30894,292.91027 526.46735,294.83018 C 531.33814,297.02866 536.31231,299.04814 541.5643,300.26983 C 545.9345,301.17701 550.3881,302.0856 554.81449,300.97692 C 557.4009,299.6213 558.70316,298.81982 558.1582,295.75257 C 556.77486,314.93288 560.06846,302.47372 553.76838,296.86396 C 547.94466,292.07727 540.91949,289.17066 533.32537,288.02064 C 523.33878,286.94533 513.28015,287.79956 503.64123,290.59055 C 496.23287,293.01374 488.97259,296.06395 485.16661,303.00512 C 483.28704,307.23916 481.831,311.60991 481.39462,316.22171 C 481.20436,318.7166 481.73527,320.31998 479.51213,321.73614 L 472.46733,307.56871 z " />
    <path
       style="opacity:1;color:#000000;fill:#e2a563;fill-opacity:1;fill-rule:nonzero;stroke:none;stroke-width:1px;stroke-linecap:butt;stroke-linejoin:miter;marker:none;marker-start:none;marker-mid:none;marker-end:none;stroke-miterlimit:4;stroke-dasharray:none;stroke-dashoffset:0;stroke-opacity:1;visibility:visible;display:inline;overflow:visible"
       d="M 684.86572,598.36147 C 726.57979,578.81954 756.64541,540.47235 802.25413,527.88422 C 830.11446,523.4388 860.77725,518.07138 880.65872,497.08625 C 897.24628,472.25587 872.62874,434.53354 841.9697,438.00465 C 810.1508,441.29622 779.73719,428.05612 753.00157,412.97533 C 721.1015,400.77842 678.96063,408.4029 659.59417,437.10929 C 643.38044,463.63373 637.09866,494.4533 621.05698,521.05796 C 610.83355,546.98246 615.70373,580.36345 639.5502,598.06524 C 651.29976,606.19963 667.13895,609.33657 681.05298,604.88504 C 683.26727,603.42508 684.8608,600.97848 684.86572,598.36147 z "
       id="path7843" />
    <path
       style="opacity:1;color:#000000;fill:#000000;fill-opacity:1;fill-rule:nonzero;stroke:none;stroke-width:1px;stroke-linecap:butt;stroke-linejoin:miter;marker:none;marker-start:none;marker-mid:none;marker-end:none;stroke-miterlimit:4;stroke-dasharray:none;stroke-dashoffset:0;stroke-opacity:1;visibility:visible;display:inline;overflow:visible"
       d="M 635.17093,404.9365 C 503.81843,342.88979 467.42597,294.20031 444.34588,208.89538 C 439.627,186.71245 418.40138,169.95092 395.53723,180.15854 C 367.72961,188.66316 339.59826,201.91087 321.28278,224.28409 C 291.0727,263.36854 293.51591,319.06763 319.36492,359.59436 C 329.90788,381.46012 341.91239,409.14424 369.77988,413.89073 C 403.83011,418.63145 438.46975,416.41221 472.5341,421.30054 C 507.60988,424.42545 543.10571,420.12452 578.1594,415.72151 C 606.60654,416.20627 614.08701,406.25588 627.89752,419.14479 C 643.7073,438.62223 604.99934,467.48578 612.62994,487.92808 C 633.58679,521.53983 647.26692,437.96217 668.29667,480.47088 C 686.27369,501.23996 703.38015,473.55907 706.14832,450.06911 C 701.23624,423.32208 694.10009,404.54452 669.64516,408.5513 C 658.22086,409.2836 644.8093,413.04961 635.17093,404.9365 z "
       id="path10839"
       sodipodi:nodetypes="cccccccccccccc" />
    <path
       style="opacity:1;color:#000000;fill:#5a5a5a;fill-opacity:1;fill-rule:nonzero;stroke:none;stroke-width:1px;stroke-linecap:butt;stroke-linejoin:miter;marker:none;marker-start:none;marker-mid:none;marker-end:none;stroke-miterlimit:4;stroke-dasharray:none;stroke-dashoffset:0;stroke-opacity:1;visibility:visible;display:inline;overflow:visible"
       id="path10827"
       d="M 446.58896,184.80186 C 446.40617,186.68381 446.53621,188.57658 446.58497,190.46222 C 447.391,202.59415 451.77861,214.16618 456.48255,225.35311 C 467.20485,249.71437 481.67899,272.41275 498.17315,293.57135 C 516.50273,316.80334 538.82421,336.7739 562.89024,354.47347 C 580.30266,367.0681 598.71314,378.38719 617.95075,388.25995 C 627.7721,393.39648 638.05805,397.6295 648.774,400.7159 C 651.71135,401.55007 654.71342,402.12563 657.71919,402.67554 L 646.77528,416.08329 C 643.57338,415.33144 640.37708,414.55265 637.25732,413.52247 C 626.27034,409.85468 615.7292,405.13581 605.66232,399.54534 C 586.41743,389.06786 567.99588,377.23037 550.49536,364.25758 C 526.13923,345.90024 503.50755,325.33832 484.7742,301.62608 C 467.89363,279.97875 452.97661,256.86231 441.44564,232.17949 C 436.13026,220.37857 431.20672,208.21881 429.4146,195.4098 C 429.18731,193.34511 428.98473,191.27915 428.83861,189.20786 L 446.58896,184.80186 z " />
    <path
       style="opacity:1;color:#000000;fill:#000000;fill-opacity:1;fill-rule:nonzero;stroke:none;stroke-width:1px;stroke-linecap:butt;stroke-linejoin:miter;marker:none;marker-start:none;marker-mid:none;marker-end:none;stroke-miterlimit:4;stroke-dasharray:none;stroke-dashoffset:0;stroke-opacity:1;visibility:visible;display:inline;overflow:visible"
       id="path7839"
       d="M 654.32708,408.68519 C 658.51261,403.20267 667.23331,400.8573 674.1244,398.76059 C 687.39885,394.70588 701.11653,393.88162 714.92599,395.05107 C 732.77897,396.96838 750.36813,401.42236 766.49504,409.04596 C 776.9304,413.61902 785.08341,421.20288 793.52382,428.37874 C 799.89032,433.29266 807.92716,433.32382 815.71566,433.0718 C 825.60357,432.41395 835.37386,430.91276 845.30211,431.25823 C 858.46703,432.41451 869.84983,438.77997 879.88131,446.65124 C 889.41393,454.2721 897.18054,463.50841 899.18336,475.39997 C 899.54029,486.26212 893.49454,495.00808 885.8609,502.48982 C 875.03984,511.9313 861.40973,517.78709 847.57059,522.01837 C 836.50557,525.30431 825.24699,527.93952 814.00909,530.61837 C 805.54364,532.6167 797.07346,534.60249 788.71658,536.98759 C 782.76129,538.65529 777.04189,540.94895 771.47302,543.54267 C 772.47742,542.96854 767.36246,545.68341 768.39775,545.16176 C 787.91,535.33026 770.62053,544.3368 765.828,547.87339 C 757.29898,554.56927 749.21493,561.75917 740.72751,568.50433 C 729.71972,577.15357 718.11676,585.0941 706.14447,592.47453 C 698.93929,597.02187 691.25804,600.77805 683.65217,604.66266 L 688.69706,590.55553 C 670.75406,599.76778 687.20655,591.48747 691.14863,589.09995 C 703.13969,582.13472 714.69338,574.47085 725.62168,566.05489 C 734.08004,559.40123 742.12398,552.29936 750.30648,545.34251 C 758.3833,538.71724 766.87628,532.91181 776.99683,529.23777 C 782.95633,526.85408 789.04275,524.77876 795.30144,523.22524 C 803.7448,521.08072 812.24816,519.1661 820.73607,517.19072 C 831.81006,514.60939 842.89757,511.98464 853.6751,508.4094 C 881.82376,498.37191 843.17819,514.6702 870.42006,500.2962 C 877.11503,494.84746 883.22636,488.3863 884.18056,479.66831 C 883.43593,469.65724 875.59239,462.14075 867.95581,455.90272 C 858.91473,449.04148 848.64917,443.76596 836.83004,443.78736 C 827.02338,444.07274 817.31734,445.64941 807.4994,445.78585 C 797.81686,445.6193 788.42433,444.11079 781.05143,437.5841 C 773.31515,430.64254 765.59358,423.62975 755.77607,419.37896 C 740.38243,412.26955 723.56463,408.13284 706.52561,406.90022 C 693.41561,406.30851 680.31499,407.93745 668.10714,412.70885 C 655.54926,418.31782 670.48491,410.73381 670.61566,410.60754 L 654.32708,408.68519 z " />
    <path
       style="opacity:1;color:#000000;fill:#5a5a5a;fill-opacity:1;fill-rule:nonzero;stroke:none;stroke-width:1px;stroke-linecap:butt;stroke-linejoin:miter;marker:none;marker-start:none;marker-mid:none;marker-end:none;stroke-miterlimit:4;stroke-dasharray:none;stroke-dashoffset:0;stroke-opacity:1;visibility:visible;display:inline;overflow:visible"
       id="path10829"
       d="M 371.23194,404.61191 C 374.29709,406.62111 378.45704,406.63508 382.09055,407.20873 C 394.65773,409.1968 407.29574,410.70598 419.96302,411.96971 C 439.59709,413.863 459.30723,414.97466 479.02301,415.71715 C 496.32745,416.36487 513.6653,416.28696 530.94965,415.22625 C 543.61719,414.39095 556.23761,413.01058 568.8326,411.49028 C 577.35731,410.46848 585.86625,409.33323 594.39143,408.31528 C 600.87042,407.60614 607.29495,406.53078 613.73705,405.57776 C 620.60018,404.65054 627.47141,403.7718 634.35915,403.02751 C 640.27104,402.33583 646.04899,401.33398 650.8582,405.11943 C 655.87621,413.76702 647.38677,422.45213 642.71822,429.79708 C 636.46325,439.3627 631.16389,449.43664 626.69065,459.86511 C 623.5298,467.18859 621.45414,474.82728 620.29712,482.6523 C 619.60751,487.56172 619.73796,488.27838 623.16767,489.54916 C 637.25286,481.47128 612.53099,499.26545 626.11837,486.73842 C 630.98252,481.59823 633.61969,475.1311 636.1974,468.76429 C 638.93964,458.88179 649.51685,447.24572 659.86246,456.02558 C 664.74777,461.67249 668.11713,468.32044 672.49044,474.32986 C 677.25435,480.72126 683.741,483.42567 691.67106,482.38034 C 691.08139,483.45808 695.95902,479.77723 694.81589,480.3117 C 677.89,488.2254 689.47436,484.54759 691.96834,474.03482 C 693.42603,465.84073 692.68601,457.53919 691.3613,449.38465 C 690.07777,442.35984 688.14026,435.46365 685.87657,428.67457 C 684.33247,423.84732 682.24441,419.23537 679.78058,414.78212 L 695.55748,406.66645 C 698.23704,411.59684 700.56936,416.67333 702.23625,422.00993 C 704.59993,429.17924 706.66771,436.44502 708.04385,443.85256 C 709.57614,452.85329 710.46104,461.98491 709.29362,471.08446 C 707.08235,485.04739 700.2455,496.4147 682.82336,497.05374 C 672.30947,496.09377 663.61589,491.53176 657.4936,483.13644 C 653.56024,477.73476 650.37378,471.72776 645.82248,466.81623 C 652.73073,464.4051 661.51596,456.47153 653.95726,467.53834 C 650.97781,474.54842 648.39813,481.7971 643.77592,488.02743 C 636.56152,497.2643 624.6833,505.74229 612.17102,503.07639 C 604.67852,499.87575 602.10261,493.78628 602.87829,486.14535 C 603.76686,477.55025 605.99373,469.16983 609.26556,461.11477 C 613.72464,450.24881 619.0385,439.72745 625.33758,429.71786 C 628.34783,424.87182 632.3312,413.42246 636.72195,416.00598 C 635.51396,416.5015 629.21198,418.15551 625.70624,417.9054 C 618.92199,418.70116 612.14174,419.54907 605.3969,420.61126 C 598.88881,421.62587 592.36123,422.50858 585.80528,423.19323 C 577.32449,424.1572 568.85512,425.21274 560.36614,426.11131 C 547.66707,427.46101 534.9469,428.70651 522.1813,429.30735 C 504.72803,430.04043 487.24519,429.87088 469.79717,429.07081 C 449.91212,428.16747 430.03331,427.00611 410.20627,425.2855 C 397.29992,424.08742 384.43187,422.59373 371.60512,420.76957 C 369.64815,420.49398 358.98197,417.71555 361.44852,419.43601 L 371.23194,404.61191 z " />
    <path
       style="opacity:1;color:#000000;fill:#e2a563;fill-opacity:1;fill-rule:nonzero;stroke:none;stroke-width:1px;stroke-linecap:butt;stroke-linejoin:miter;marker:none;marker-start:none;marker-mid:none;marker-end:none;stroke-miterlimit:4;stroke-dasharray:none;stroke-dashoffset:0;stroke-opacity:1;visibility:visible;display:inline;overflow:visible"
       d="M 650.01936,407.27424 C 674.35273,426.14729 707.87524,434.90939 738.59543,427.61883 C 755.32331,419.80915 761.57835,396.9269 750.80341,382.36937 C 742.35198,360.9596 730.10873,339.07202 708.70271,327.2357 C 682.2327,309.78304 648.34417,299.08941 616.3513,307.09018 C 603.06953,310.62232 593.32344,323.91237 595.74842,337.12553 C 597.2534,354.59699 608.56685,369.3663 619.67594,382.59185 C 627.26667,390.55683 636.44512,397.05109 646.33103,402.18382 C 647.90011,403.6181 649.23803,405.32486 650.01936,407.27424 z "
       id="path5996" />
    <path
       style="opacity:1;color:#000000;fill:#000000;fill-opacity:1;fill-rule:nonzero;stroke:none;stroke-width:1px;stroke-linecap:butt;stroke-linejoin:miter;marker:none;marker-start:none;marker-mid:none;marker-end:none;stroke-miterlimit:4;stroke-dasharray:none;stroke-dashoffset:0;stroke-opacity:1;visibility:visible;display:inline;overflow:visible"
       id="path2220"
       d="M 621.2234,301.52998 C 620.54453,299.87968 629.72644,299.8641 632.33342,299.60721 C 649.46632,297.8722 666.40636,300.27198 682.44429,306.14813 C 704.80996,314.9337 723.56301,329.99113 739.64544,346.97883 C 752.31521,360.93193 764.95027,377.21209 763.83414,396.57299 C 761.02623,416.51687 742.58852,428.89781 723.12216,433.23372 C 705.48945,436.52831 687.42508,433.45116 670.76472,427.58802 C 659.80713,423.62565 649.70746,417.89394 640.41452,411.12264 L 652.25352,401.67489 C 660.96135,408.00146 670.47061,413.28636 680.8043,416.804 C 696.37406,421.92456 713.29891,424.49851 729.42275,420.12026 C 731.90616,419.31441 741.78365,419.96738 748.94035,399.60298 C 751.47598,382.28961 738.57765,367.34431 727.69547,354.90626 C 712.35853,338.66008 694.29156,324.37037 672.61468,316.64717 C 657.17295,311.60241 640.97576,310.13318 624.83053,312.67552 C 620.7908,313.30931 616.23732,315.10325 612.46877,314.79523 L 621.2234,301.52998 z " />
    <path
       style="opacity:1;color:#000000;fill:#e2a563;fill-opacity:1;fill-rule:nonzero;stroke:none;stroke-width:1px;stroke-linecap:butt;stroke-linejoin:miter;marker:none;marker-start:none;marker-mid:none;marker-end:none;stroke-miterlimit:4;stroke-dasharray:none;stroke-dashoffset:0;stroke-opacity:1;visibility:visible;display:inline;overflow:visible"
       d="M 417.71032,682.40815 C 438.48251,648.74613 478.72304,631.97791 517.26907,624.5406 C 560.98582,615.29882 609.58611,618.84901 647.83159,642.5722 C 668.60854,659.19311 667.15758,690.28726 653.0781,710.45258 C 643.83333,729.08913 631.40314,746.18066 617.13856,761.61722 C 604.63468,768.46122 590.09637,780.39841 594.05161,795.79957 C 601.08605,814.40075 612.5059,835.67215 601.88291,855.12397 C 593.4592,873.57469 566.87831,881.34644 549.37798,869.8226 C 531.59093,862.70563 513.034,857.32686 494.98226,851.07668 C 481.19436,842.56233 478.17553,825.06403 481.06868,810.74035 C 478.87704,795.74285 465.85698,785.04581 453.00337,777.68284 C 434.06448,759.62605 426.41557,734.23973 417.31379,710.96737 C 415.72847,701.47934 417.8117,691.92493 417.71032,682.40815 z "
       id="path8860" />
    <path
       style="opacity:1;color:#000000;fill:#000000;fill-opacity:1;fill-rule:nonzero;stroke:none;stroke-width:1px;stroke-linecap:butt;stroke-linejoin:miter;marker:none;marker-start:none;marker-mid:none;marker-end:none;stroke-miterlimit:4;stroke-dasharray:none;stroke-dashoffset:0;stroke-opacity:1;visibility:visible;display:inline;overflow:visible"
       id="path6956"
       d="M 429.22319,675.03772 C 427.96516,676.36312 426.90851,680.55274 426.23379,682.85685 C 423.54166,692.45617 422.67808,702.33894 423.52054,712.22956 C 424.57081,724.07986 428.8605,735.21913 435.7863,745.04645 C 442.53381,754.37908 451.3419,762.01863 460.42521,769.21162 C 466.78112,773.97081 472.97646,778.91477 478.0592,784.93697 C 482.03763,789.76734 483.83995,795.52899 484.86644,801.49518 C 485.74547,807.48103 485.40314,813.53691 485.78212,819.55476 C 486.39085,828.83814 492.10852,835.986 498.92917,842.18981 C 511.81404,852.98713 527.56002,860.40163 544.00458,864.77054 C 558.54822,868.21009 574.6552,869.70625 588.58716,863.39498 C 594.02755,860.44966 589.31172,863.04353 582.99557,866.00265 C 580.28481,867.27262 588.19848,862.9066 590.17374,860.72471 C 594.40406,856.0519 595.87094,850.05642 596.65263,844.08209 C 597.74779,833.20724 595.60747,822.40236 592.94609,811.87762 C 590.98239,804.33938 588.05557,797.05173 586.64583,789.38938 C 585.26699,781.72677 588.90319,775.97613 593.83023,770.30854 C 601.20106,762.67126 609.20416,755.628 616.71777,748.12067 C 625.58246,739.39379 633.12642,729.58172 639.80869,719.25495 C 645.69861,710.20022 650.44835,700.54747 653.95825,690.43695 C 656.23973,683.7619 657.22034,676.83352 657.09285,669.83347 C 657.06853,668.03032 656.75982,666.25313 656.52057,664.47068 L 671.63312,659.49367 C 671.97492,661.56326 672.32268,663.63367 672.41964,665.73127 C 672.72306,673.52897 671.87978,681.29153 669.50464,688.7857 C 666.03766,699.50216 661.23425,709.75082 655.17314,719.36928 C 648.46991,730.11158 640.9841,740.45462 632.10752,749.67426 C 624.83557,757.29465 617.01326,764.3839 609.4646,771.74739 C 605.79633,775.55631 601.54178,779.1634 601.80474,784.70148 C 602.88339,792.13787 605.62378,799.20425 607.47526,806.48934 C 610.27842,817.81622 612.52124,829.39057 611.74563,841.08689 C 610.17553,858.93107 601.75675,871.30977 582.79161,876.99333 C 566.94001,881.67172 550.1169,880.05744 534.37113,875.69579 C 517.01061,870.54567 500.4152,862.46026 486.71376,850.94071 C 478.60674,843.58334 471.88615,834.92773 470.64034,824.01749 C 470.04888,818.11974 470.26441,812.20561 469.72376,806.30688 C 468.979,801.57438 467.91093,797.01146 464.6741,793.19334 C 459.81515,787.67782 454.09349,783.03139 448.23289,778.5031 C 438.77678,770.72953 429.675,762.44797 422.60213,752.55468 C 415.05142,741.72706 410.1688,729.55412 408.79053,716.55302 C 407.67323,705.99584 408.15923,695.3991 410.56966,685.02103 C 411.26062,681.84907 412.1523,678.69293 412.82115,675.53273 L 429.22319,675.03772 z " />
    <g
       id="g10813"
       transform="matrix(0.881953,0.242433,-0.253679,0.842853,186.3903,-66.42478)">
      <path
         d="M 885.47022,211.61524 C 885.04626,219.38882 884.2463,227.13604 883.50926,234.88516 C 880.7075,263.57918 878.14455,292.29566 875.54152,321.00821 C 873.04426,348.52003 870.69303,376.04543 868.6183,403.59251 C 867.90379,413.2352 867.18599,422.87765 866.48103,432.52105 L 848.05366,436.53896 C 848.94713,426.85073 849.86074,417.16435 850.74345,407.47513 C 853.30276,379.85285 856.04253,352.24767 858.60405,324.6256 C 861.23005,296.07112 863.55867,267.48883 865.41842,238.87358 C 865.85974,231.48044 866.51171,224.04344 866.13429,216.63746 L 885.47022,211.61524 z "
         id="path9922"
         style="opacity:1;color:#000000;fill:#5a5a5a;fill-opacity:1;fill-rule:nonzero;stroke:none;stroke-width:1px;stroke-linecap:butt;stroke-linejoin:miter;marker:none;marker-start:none;marker-mid:none;marker-end:none;stroke-miterlimit:4;stroke-dasharray:none;stroke-dashoffset:0;stroke-opacity:1;visibility:visible;display:inline;overflow:visible" />
      <path
         sodipodi:nodetypes="cccccccccccccccccccccccccccccccccccccc"
         d="M 797.44088,302.46784 C 795.07938,292.46162 808.20378,289.93382 815.97308,291.58443 C 820.88368,292.57241 825.31508,294.64553 829.58188,297.18873 C 834.73698,300.45127 837.86048,305.08644 840.00248,310.66057 C 841.63078,315.88674 840.87088,321.00739 839.42568,326.14641 C 837.81328,330.90132 835.50398,335.37345 833.37138,339.90675 C 831.35108,343.99905 830.17258,348.29082 829.56308,352.77616 C 829.20238,356.86523 830.70228,359.80454 833.09408,362.91599 C 836.74148,366.49893 841.50378,368.26747 846.22008,369.97139 C 851.63838,371.81124 857.27558,372.76054 862.94028,373.41379 C 868.22078,373.87403 873.48338,373.26534 878.70948,372.55975 C 883.90518,371.78085 889.03588,370.69501 894.07618,369.22178 C 911.18138,361.2131 881.72208,376.26298 893.80698,369.70918 C 897.31338,367.61665 899.65618,364.65641 901.57718,361.15537 C 903.07068,357.72798 902.89758,354.21006 902.50648,350.59736 C 901.73198,346.41793 900.21828,342.43063 898.78588,338.44373 C 896.91908,333.96646 895.97108,329.3037 895.42948,324.51984 C 895.04908,319.37332 897.05458,315.44566 900.06838,311.52762 C 907.15208,305.16325 915.63778,301.86023 924.78308,300.87693 L 915.64818,318.26191 C 907.41988,321.03249 888.97778,331.40728 919.39858,315.30754 C 917.02898,316.37228 915.22788,316.89921 914.50498,319.62119 C 914.56008,323.36978 915.17058,326.93527 916.69468,330.43302 C 918.31828,334.90366 919.98118,339.37675 921.01438,344.03007 C 921.90678,349.06053 922.35918,354.11571 921.10298,359.14506 C 919.53438,364.49036 917.25458,369.34789 913.08558,373.20743 C 905.37798,380.04751 895.81328,384.72888 885.76028,386.93493 C 880.28598,388.07981 874.77918,389.1257 869.20458,389.64517 C 863.30998,390.10289 857.38598,390.26083 851.52918,389.2532 C 845.29018,388.15653 839.08008,386.82455 833.17798,384.4577 C 827.13058,381.89943 821.24198,378.97491 816.88558,373.89178 C 813.22748,368.99413 810.61318,363.83861 810.55798,357.56014 C 810.65298,351.86843 811.53438,346.38239 813.84088,341.1176 C 815.68918,336.6159 817.85578,332.27061 819.87948,327.84622 C 821.13378,324.70153 822.43888,321.62737 821.84758,318.17334 C 820.49898,314.74676 818.76668,312.27285 815.28218,310.5737 C 811.91148,309.10112 808.47808,307.72319 804.72208,307.85254 L 797.44088,302.46784 z "
         id="path10811"
         style="opacity:1;color:#000000;fill:#5a5a5a;fill-opacity:1;fill-rule:nonzero;stroke:none;stroke-width:1px;stroke-linecap:butt;stroke-linejoin:miter;marker:none;marker-start:none;marker-mid:none;marker-end:none;stroke-miterlimit:4;stroke-dasharray:none;stroke-dashoffset:0;stroke-opacity:1;visibility:visible;display:inline;overflow:visible" />
    </g>
    <g
       id="g10817"
       transform="matrix(0.673275,-0.595969,0.623615,0.643426,-648.753,681.9508)">
      <path
         style="opacity:1;color:#000000;fill:#5a5a5a;fill-opacity:1;fill-rule:nonzero;stroke:none;stroke-width:1px;stroke-linecap:butt;stroke-linejoin:miter;marker:none;marker-start:none;marker-mid:none;marker-end:none;stroke-miterlimit:4;stroke-dasharray:none;stroke-dashoffset:0;stroke-opacity:1;visibility:visible;display:inline;overflow:visible"
         id="path10819"
         d="M 885.47022,211.61524 C 885.04626,219.38882 884.2463,227.13604 883.50926,234.88516 C 880.7075,263.57918 878.14455,292.29566 875.54152,321.00821 C 873.04426,348.52003 870.69303,376.04543 868.6183,403.59251 C 867.90379,413.2352 867.18599,422.87765 866.48103,432.52105 L 848.05366,436.53896 C 848.94713,426.85073 849.86074,417.16435 850.74345,407.47513 C 853.30276,379.85285 856.04253,352.24767 858.60405,324.6256 C 861.23005,296.07112 863.55867,267.48883 865.41842,238.87358 C 865.85974,231.48044 866.51171,224.04344 866.13429,216.63746 L 885.47022,211.61524 z " />
      <path
         style="opacity:1;color:#000000;fill:#5a5a5a;fill-opacity:1;fill-rule:nonzero;stroke:none;stroke-width:1px;stroke-linecap:butt;stroke-linejoin:miter;marker:none;marker-start:none;marker-mid:none;marker-end:none;stroke-miterlimit:4;stroke-dasharray:none;stroke-dashoffset:0;stroke-opacity:1;visibility:visible;display:inline;overflow:visible"
         id="path10821"
         d="M 797.44088,302.46784 C 795.07938,292.46162 808.20378,289.93382 815.97308,291.58443 C 820.88368,292.57241 825.31508,294.64553 829.58188,297.18873 C 834.73698,300.45127 837.86048,305.08644 840.00248,310.66057 C 841.63078,315.88674 840.87088,321.00739 839.42568,326.14641 C 837.81328,330.90132 835.50398,335.37345 833.37138,339.90675 C 831.35108,343.99905 830.17258,348.29082 829.56308,352.77616 C 829.20238,356.86523 830.70228,359.80454 833.09408,362.91599 C 836.74148,366.49893 841.50378,368.26747 846.22008,369.97139 C 851.63838,371.81124 857.27558,372.76054 862.94028,373.41379 C 868.22078,373.87403 873.48338,373.26534 878.70948,372.55975 C 883.90518,371.78085 889.03588,370.69501 894.07618,369.22178 C 911.18138,361.2131 881.72208,376.26298 893.80698,369.70918 C 897.31338,367.61665 899.65618,364.65641 901.57718,361.15537 C 903.07068,357.72798 902.89758,354.21006 902.50648,350.59736 C 901.73198,346.41793 900.21828,342.43063 898.78588,338.44373 C 896.91908,333.96646 895.97108,329.3037 895.42948,324.51984 C 895.04908,319.37332 897.05458,315.44566 900.06838,311.52762 C 907.15208,305.16325 915.63778,301.86023 924.78308,300.87693 L 915.64818,318.26191 C 907.41988,321.03249 888.97778,331.40728 919.39858,315.30754 C 917.02898,316.37228 915.22788,316.89921 914.50498,319.62119 C 914.56008,323.36978 915.17058,326.93527 916.69468,330.43302 C 918.31828,334.90366 919.98118,339.37675 921.01438,344.03007 C 921.90678,349.06053 922.35918,354.11571 921.10298,359.14506 C 919.53438,364.49036 917.25458,369.34789 913.08558,373.20743 C 905.37798,380.04751 895.81328,384.72888 885.76028,386.93493 C 880.28598,388.07981 874.77918,389.1257 869.20458,389.64517 C 863.30998,390.10289 857.38598,390.26083 851.52918,389.2532 C 845.29018,388.15653 839.08008,386.82455 833.17798,384.4577 C 827.13058,381.89943 821.24198,378.97491 816.88558,373.89178 C 813.22748,368.99413 810.61318,363.83861 810.55798,357.56014 C 810.65298,351.86843 811.53438,346.38239 813.84088,341.1176 C 815.68918,336.6159 817.85578,332.27061 819.87948,327.84622 C 821.13378,324.70153 822.43888,321.62737 821.84758,318.17334 C 820.49898,314.74676 818.76668,312.27285 815.28218,310.5737 C 811.91148,309.10112 808.47808,307.72319 804.72208,307.85254 L 797.44088,302.46784 z "
         sodipodi:nodetypes="cccccccccccccccccccccccccccccccccccccc" />
    </g>
    <path
       style="opacity:1;color:#000000;fill:#5a5a5a;fill-opacity:1;fill-rule:nonzero;stroke:none;stroke-width:1px;stroke-linecap:butt;stroke-linejoin:miter;marker:none;marker-start:none;marker-mid:none;marker-end:none;stroke-miterlimit:4;stroke-dasharray:none;stroke-dashoffset:0;stroke-opacity:1;visibility:visible;display:inline;overflow:visible"
       id="path10837"
       d="M 430.69266,193.62288 C 432.39738,196.30665 430.49235,193.60057 429.71036,193.51347 C 424.29006,189.75113 417.66806,188.59097 411.15357,187.85026 C 395.69928,186.94275 380.27636,190.04156 365.85271,195.20157 C 351.28473,202.32863 343.78472,202.9569 325.2497,226.17393 C 310.67194,245.59627 305.72056,269.36752 306.2998,292.89171 C 307.79499,316.56954 316.3229,339.30101 327.58859,360.25841 C 334.82077,373.57428 343.83581,385.88448 354.23508,397.09633 C 359.72286,403.05795 366.0365,408.16882 372.86693,412.64887 C 373.54452,413.08923 374.26478,413.46263 374.96371,413.86952 L 361.75199,425.35426 C 360.9822,424.85442 360.19166,424.38377 359.44262,423.85475 C 352.2417,418.80521 345.68488,412.99894 339.88667,406.49513 C 329.32656,394.56404 320.18969,381.55593 312.8505,367.56979 C 301.35407,345.49954 292.71081,321.72241 290.65741,297.01746 C 289.63111,272.02084 294.4167,246.70877 308.83407,225.43654 C 324.28597,204.05528 346.73257,188.99426 372.40194,180.43577 C 388.12204,175.50623 404.78004,172.55676 421.34208,174.31658 C 429.46162,175.66782 437.61025,177.68181 443.988,182.95078 C 445.89464,184.83483 447.80831,186.56159 448.44303,189.21689 L 430.69266,193.62288 z " />
  </g>
</svg>
