<?xml version="1.0" encoding="UTF-8" standalone="no"?>
<!-- Created with Inkscape (http://www.inkscape.org/) -->
<svg
   xmlns:dc="http://purl.org/dc/elements/1.1/"
   xmlns:cc="http://web.resource.org/cc/"
   xmlns:rdf="http://www.w3.org/1999/02/22-rdf-syntax-ns#"
   xmlns:svg="http://www.w3.org/2000/svg"
   xmlns="http://www.w3.org/2000/svg"
   xmlns:xlink="http://www.w3.org/1999/xlink"
   xmlns:sodipodi="http://sodipodi.sourceforge.net/DTD/sodipodi-0.dtd"
   xmlns:inkscape="http://www.inkscape.org/namespaces/inkscape"
   width="400"
   height="400"
   id="svg40943"
   sodipodi:version="0.32"
   inkscape:version="0.45.1"
   version="1.0"
   sodipodi:docbase="/home/kris/tale/art/monster"
   sodipodi:docname="fire-drake-cobalt.svg"
   inkscape:output_extension="org.inkscape.output.svg.inkscape">
  <defs
     id="defs40945">
    <linearGradient
       id="linearGradient41232">
      <stop
         style="stop-color:#8587e0;stop-opacity:0.72448981;"
         offset="0"
         id="stop41234" />
      <stop
         id="stop41240"
         offset="0.13636364"
         style="stop-color:#f2ff00;stop-opacity:1;" />
      <stop
         style="stop-color:#ffa400;stop-opacity:0.49803922;"
         offset="0.56818181"
         id="stop41242" />
      <stop
         style="stop-color:#ff0004;stop-opacity:0.23469388;"
         offset="1"
         id="stop41236" />
    </linearGradient>
    <radialGradient
       inkscape:collect="always"
       xlink:href="#linearGradient41232"
       id="radialGradient41244"
       cx="178.1976"
       cy="195.88472"
       fx="178.1976"
       fy="195.88472"
       r="37.019323"
       gradientTransform="matrix(-1.6030107,1.5874584,-1.5201628,-1.5351438,761.81138,223.344)"
       gradientUnits="userSpaceOnUse" />
    <radialGradient
       inkscape:collect="always"
       xlink:href="#linearGradient41232"
       id="radialGradient41311"
       gradientUnits="userSpaceOnUse"
       gradientTransform="matrix(-1.6030107,1.5874584,-1.5201628,-1.5351438,761.81138,223.344)"
       cx="178.1976"
       cy="195.88472"
       fx="178.1976"
       fy="195.88472"
       r="37.019323" />
    <radialGradient
       inkscape:collect="always"
       xlink:href="#linearGradient41232"
       id="radialGradient41317"
       gradientUnits="userSpaceOnUse"
       gradientTransform="matrix(-2.3163105,2.2938379,-2.1965974,-2.2182446,1007.3633,197.79996)"
       cx="178.1976"
       cy="195.88472"
       fx="178.1976"
       fy="195.88472"
       r="37.019323" />
  </defs>
  <sodipodi:namedview
     id="base"
     pagecolor="#ffffff"
     bordercolor="#666666"
     borderopacity="1.0"
     gridtolerance="10000"
     guidetolerance="10"
     objecttolerance="10"
     inkscape:pageopacity="0.0"
     inkscape:pageshadow="2"
     inkscape:zoom="1.4"
     inkscape:cx="81.40961"
     inkscape:cy="172.90878"
     inkscape:document-units="px"
     inkscape:current-layer="layer1"
     width="400px"
     height="400px"
     inkscape:window-width="1680"
     inkscape:window-height="979"
     inkscape:window-x="0"
     inkscape:window-y="45" />
  <metadata
     id="metadata40948">
    <rdf:RDF>
      <cc:Work
         rdf:about="">
        <dc:format>image/svg+xml</dc:format>
        <dc:type
           rdf:resource="http://purl.org/dc/dcmitype/StillImage" />
      </cc:Work>
    </rdf:RDF>
  </metadata>
  <g
     inkscape:label="Layer 1"
     inkscape:groupmode="layer"
     id="layer1">
    <path
       style="color:#000000;fill:#666666;fill-opacity:1;fill-rule:nonzero;stroke:none;stroke-width:1px;stroke-linecap:butt;stroke-linejoin:miter;marker:none;marker-start:none;marker-mid:none;marker-end:none;stroke-miterlimit:4;stroke-dasharray:none;stroke-dashoffset:0;stroke-opacity:1;visibility:visible;display:inline;overflow:visible;enable-background:accumulate"
       d="M 152.33256,170.98703 C 167.39423,175.73345 162.6162,196.13262 153.03566,204.15814 C 138.04535,224.72297 113.80224,239.57926 88.153716,240.73712 C 70.546218,241.50888 54.408938,224.70829 58.734182,206.19022 C 60.796508,190.95757 61.711308,188.83416 42.316441,195.57786 C 24.893567,201.24361 10.370841,179.83886 18.002257,165.36839 C 26.240455,143.15775 52.331729,137.21692 73.512101,138.81154 C 89.445654,137.17705 106.652,146.72522 121.25269,140.50918 C 126.63293,127.47114 137.32285,111.03113 153.36122,121.64523 C 166.07968,129.33295 172.65404,145.73518 188.88729,147.78019 C 207.74894,152.90824 226.1506,140.89388 239.5603,131.10151 C 252.97002,121.30915 274.82872,127.84145 274.51122,144.3954 C 274.19371,160.94935 268.74561,175.80385 249.43691,187.14507 C 233.11399,196.73256 212.81247,193.67812 196.47203,187.09771 C 181.8336,182.53305 168.69893,162.92283 152.33256,170.98703 L 152.33256,170.98703 z "
       id="path41198"
       sodipodi:nodetypes="cccccccccczzsccc" />
    <g
       id="g41261"
       transform="matrix(1.4449751,0,0,1.4449751,-93.435221,-124.92656)">
      <path
         id="path41255"
         d="M 198.49498,300.49997 C 198.3977,304.98787 197.80005,309.99137 194.43189,313.29551 C 193.01008,314.86247 190.7138,314.82109 188.762,314.99499 C 185.59242,315.12875 182.25425,314.82485 179.29728,316.20936 C 177.06932,316.13751 174.69763,318.5708 175.69094,320.79816 C 176.82976,322.67351 179.33315,322.10023 181.13955,322.70354 C 183.40427,323.24833 185.73678,323.85867 187.74353,325.05249 C 190.50472,327.4496 191.03691,331.46371 193.79214,333.86601 C 195.64979,334.85009 197.60567,333.40912 198.56235,331.84849 C 199.74197,330.24387 200.48531,328.40976 201.27928,326.632 C 202.98248,324.61148 205.90867,325.19784 208.22212,324.6713 C 210.39283,323.4971 213.35062,323.26636 214.71228,320.96267 C 215.72227,319.20632 213.97649,317.45082 212.46313,316.75765 C 210.32759,315.70026 207.48662,314.94573 206.73498,312.36847 C 206.12364,309.61296 207.69797,307.02934 208.25829,304.40429 C 209.1859,302.33054 207.94438,299.82051 205.80065,299.14357 C 203.38357,298.17863 200.32656,298.5471 198.49498,300.49997 z "
         style="opacity:1;color:#000000;fill:#ff6600;fill-opacity:1;fill-rule:nonzero;stroke:none;stroke-width:1px;stroke-linecap:butt;stroke-linejoin:miter;marker:none;marker-start:none;marker-mid:none;marker-end:none;stroke-miterlimit:4;stroke-dasharray:none;stroke-dashoffset:0;stroke-opacity:1;visibility:visible;display:inline;overflow:visible;enable-background:accumulate" />
      <path
         d="M 201.77738,298.01117 C 201.75785,298.46172 201.69354,298.90965 201.6432,299.35765 C 201.53585,300.19887 201.42806,301.03995 201.32627,301.88186 C 201.18771,303.02195 201.0614,304.16342 200.93424,305.30482 C 200.79672,306.5209 200.66305,307.73739 200.52406,308.9533 C 200.43363,309.81235 200.304,310.66595 200.1755,311.51965 C 200.15351,311.95867 199.94726,312.34651 199.81847,312.75154 C 199.98754,317.97387 195.01261,315.28332 193.10624,316.25167 C 192.45541,316.19501 191.80205,316.17118 191.1497,316.13797 C 189.99226,316.05582 188.83261,316.05798 187.67336,316.06361 C 186.1781,316.0911 184.68853,316.22494 183.2062,316.41622 C 181.72323,316.59262 180.2637,316.90408 178.80703,317.22459 C 177.61547,317.49434 176.46645,317.8947 175.33248,318.34045 C 170.74808,320.83937 182.05745,314.05821 178.74308,316.40976 C 178.21013,316.78929 177.96017,317.32187 177.68108,317.87785 C 177.49632,318.36719 177.72563,318.73534 177.84839,319.18172 C 178.14424,319.68366 178.64114,319.93778 179.1066,320.24825 C 179.84765,320.6469 180.66556,320.81807 181.47818,320.99924 C 182.51416,321.20374 183.56622,321.29302 184.61661,321.38338 C 185.69841,321.46026 186.7802,321.53105 187.86053,321.62559 C 188.69297,321.64238 189.46341,321.90515 190.24232,322.15146 C 190.88649,322.39363 191.24819,322.89007 191.66871,323.38874 C 192.01469,323.94124 192.16381,324.57366 192.34943,325.18929 C 192.51785,325.86699 192.65625,326.55168 192.80093,327.23472 C 192.9341,327.84575 193.09658,328.44941 193.25617,329.05377 C 193.38148,329.59528 193.59804,330.10428 193.80293,330.61745 C 193.96368,331.10991 194.36637,331.34479 194.71639,331.66894 C 195.19288,331.99127 195.72613,332.00179 196.27107,332.07048 C 196.95899,332.12243 197.58659,331.89508 198.23132,331.70589 C 199.58817,331.02568 195.61195,333.24031 194.29152,333.98878 C 194.85633,333.62458 195.26198,333.10055 195.69215,332.59928 C 196.07036,332.10808 196.28283,331.5293 196.52139,330.96551 C 196.72382,330.49143 196.81003,329.98456 196.93005,329.48771 C 196.96168,329.05648 197.06804,328.6389 197.14994,328.21739 C 197.1987,327.85784 197.46645,327.62025 197.64158,327.33325 C 199.59786,325.17419 201.96437,324.07257 204.57751,323.67671 C 205.1233,323.61512 205.67095,323.57303 206.21821,323.52729 C 206.81468,323.46921 207.41413,323.46309 208.01271,323.44539 C 208.65061,323.42862 209.28863,323.4173 209.92663,323.40511 C 210.59844,323.4027 211.26922,323.37324 211.94023,323.34393 C 212.59627,323.3295 213.24717,323.24657 213.89816,323.17319 C 214.51486,323.13822 215.08989,322.92777 215.67142,322.74601 C 216.04367,322.61664 216.36289,322.38717 216.70198,322.19551 C 214.8612,323.25707 213.02042,324.31863 211.17964,325.38019 C 211.2592,325.33081 211.33877,325.28143 211.41834,325.23205 C 211.93106,324.95234 212.19373,324.48898 212.50512,324.02812 C 212.7839,323.49626 212.8164,322.91356 212.8879,322.33319 C 212.93427,321.75282 212.76964,321.20728 212.63525,320.65373 C 212.47811,320.0671 212.07961,319.65499 211.70706,319.20438 C 211.20535,318.70152 210.57516,318.38892 209.9521,318.06839 C 209.2093,317.69682 208.41423,317.46403 207.61901,317.23859 C 206.86264,317.03437 206.08747,316.91956 205.31583,316.79194 C 204.66845,316.75356 204.16009,316.46257 203.61507,316.16867 C 203.12069,315.76687 203.0352,315.23707 202.87438,314.66597 C 202.77323,313.96743 202.88285,313.2723 202.95204,312.57809 C 203.059,311.76458 203.24317,310.96499 203.42497,310.16589 C 203.61933,309.29617 203.85327,308.43622 204.08375,307.57561 C 204.30177,306.77384 204.49485,305.9658 204.68531,305.15718 C 204.84223,304.43406 205.01793,303.7153 205.19043,302.99584 C 205.34798,302.35878 205.53739,301.73033 205.72119,301.10054 L 211.80963,298.22312 C 211.62169,298.84505 211.42848,299.46561 211.25588,300.09215 C 211.07598,300.80894 210.88889,301.52411 210.73254,302.24659 C 210.54253,303.06412 210.35013,303.88116 210.1303,304.69134 C 209.90024,305.54441 209.66088,306.39536 209.46511,307.25719 C 209.28528,308.03744 209.09827,308.8171 208.97867,309.60952 C 208.90122,310.24382 208.7866,310.87849 208.84164,311.52051 C 208.94992,311.90945 208.90356,312.27112 209.29735,312.51461 C 209.79431,312.68172 210.27875,312.90263 210.81864,312.93319 C 211.60056,313.08241 212.38666,313.21654 213.14993,313.44873 C 213.97135,313.71204 214.79327,313.9799 215.55983,314.38333 C 216.23963,314.75855 216.92125,315.1314 217.45779,315.70758 C 217.88108,316.23925 218.33887,316.73628 218.54045,317.4072 C 218.70975,318.02773 218.91012,318.63953 218.89818,319.29443 C 218.86093,319.94402 218.86234,320.59713 218.62943,321.21818 C 218.37886,321.77829 218.18304,322.34495 217.68719,322.75162 C 215.30439,324.15832 213.01577,325.98515 210.34421,326.87111 C 209.73305,327.00746 209.12542,327.15558 208.49662,327.19189 C 207.83679,327.24641 207.17746,327.30791 206.51486,327.32006 C 205.84001,327.34138 205.16528,327.36454 204.49003,327.37174 C 203.85163,327.38682 203.21317,327.39997 202.57498,327.42269 C 201.98266,327.44945 201.39025,327.4719 200.80032,327.53585 C 200.25889,327.59183 199.71459,327.63336 199.18004,327.74078 C 197.44919,328.42144 202.22499,325.54986 203.93914,324.82815 C 203.72995,325.00058 203.38741,325.05847 203.29068,325.36266 C 203.17744,325.74111 202.96243,326.09519 202.99322,326.51451 C 202.89974,327.05451 202.82494,327.59966 202.62784,328.11619 C 202.40173,328.72676 202.19618,329.34837 201.86221,329.91215 C 201.46046,330.47446 201.08923,331.06289 200.54042,331.5028 C 198.05372,332.97901 195.71298,334.94042 192.90736,335.81212 C 192.20076,335.93299 191.50552,336.09838 190.7813,335.96665 C 190.15798,335.80885 189.53723,335.70682 189.01909,335.2815 C 188.5936,334.87356 188.15051,334.50928 187.9307,333.93487 C 187.70874,333.39079 187.4707,332.85215 187.33837,332.27568 C 187.17463,331.65773 187.0095,331.04024 186.87335,330.4153 C 186.73245,329.74214 186.59761,329.06741 186.43496,328.39909 C 186.27498,327.85826 186.15169,327.29878 185.8566,326.81005 C 185.48449,326.45438 185.21428,326.03939 184.66222,325.91344 C 183.92234,325.72604 183.18608,325.5317 182.41543,325.50435 C 181.34013,325.41572 180.26377,325.34179 179.18817,325.25643 C 178.11409,325.14984 177.03701,325.04831 175.98168,324.81115 C 175.11194,324.58921 174.23777,324.37126 173.46172,323.89847 C 172.91303,323.49569 172.33218,323.15144 171.99036,322.53214 C 171.76019,321.95841 171.50157,321.43946 171.60179,320.79172 C 171.80591,320.10245 171.96254,319.45461 172.52495,318.93722 C 174.84584,316.85378 177.72211,315.44556 180.58058,314.22032 C 181.73173,313.82587 182.89113,313.4548 184.08614,313.212 C 185.55124,312.91629 187.01903,312.6311 188.50625,312.46724 C 190.01125,312.29746 191.52179,312.17564 193.03705,312.15624 C 194.22126,312.15726 195.40531,312.16349 196.58848,312.223 C 197.2486,312.2428 197.91,312.2804 198.57017,312.26253 C 196.89043,313.28049 195.31595,314.48464 193.55793,315.3605 C 193.77648,315.07611 194.14165,314.93542 194.11746,314.45503 C 194.28561,313.60952 194.45523,312.76442 194.54768,311.90543 C 194.70378,310.69221 194.84269,309.47715 194.97604,308.26118 C 195.09524,307.12369 195.21109,305.98586 195.33501,304.84888 C 195.4232,304.01575 195.51351,303.1829 195.61068,302.35076 C 195.64861,301.93356 195.68732,301.51654 195.71764,301.09876 L 201.77738,298.01117 z "
         id="path41037"
         style="opacity:1;color:#000000;fill:#000000;fill-opacity:1;fill-rule:nonzero;stroke:none;stroke-width:1px;stroke-linecap:butt;stroke-linejoin:miter;marker:none;marker-start:none;marker-mid:none;marker-end:none;stroke-miterlimit:4;stroke-dasharray:none;stroke-dashoffset:0;stroke-opacity:1;visibility:visible;display:inline;overflow:visible;enable-background:accumulate" />
    </g>
    <path
       style="color:#000000;fill:#1a1dc4;fill-opacity:1;fill-rule:nonzero;stroke:none;stroke-width:1px;stroke-linecap:butt;stroke-linejoin:miter;marker:none;marker-start:none;marker-mid:none;marker-end:none;stroke-miterlimit:4;stroke-dasharray:none;stroke-dashoffset:0;stroke-opacity:1;visibility:visible;display:inline;overflow:visible;enable-background:accumulate"
       d="M 195.19856,101.75391 C 183.614,105.35399 174.93376,114.48775 166.35383,122.58324 C 160.77494,131.65476 164.73263,142.84631 163.68691,152.88466 C 164.49285,172.12706 162.1428,191.32914 158.70187,210.20769 C 157.17389,220.64546 160.20454,231.34702 156.7256,241.50119 C 153.35986,252.98849 152.04578,264.88046 152.88117,276.82001 C 153.32646,286.14299 147.96891,303.09814 162.99675,302.6103 C 176.20196,301.84922 188.54177,307.93046 201.69216,307.71365 C 219.16825,310.44694 236.9637,308.86752 254.51053,307.75411 C 264.67789,307.66603 274.89893,306.81894 285.10534,306.45307 C 292.91529,300.84597 308.43068,303.90062 310.6411,292.70192 C 314.06143,279.73427 313.84352,266.17403 310.72106,253.18396 C 307.47412,239.28988 305.5195,224.80724 298.32643,212.22819 C 294.36158,203.72791 289.91469,195.53583 287.34465,186.4778 C 284.79853,176.70474 276.62475,182.59963 276.49878,190.09008 C 274.63132,196.2799 272.74326,206.41127 264.62324,203.16165 C 261.14557,206.03246 258.41401,218.92078 255.24445,208.60108 C 253.68632,201.1473 245.15334,200.1819 244.7055,208.85604 C 242.9645,218.73146 225.44912,224.2568 228.03569,210.07887 C 225.84125,189.53541 227.20019,168.71895 223.50715,148.3454 C 220.63096,136.30504 220.22486,122.88842 211.66763,112.96127 C 208.13118,107.2322 202.57362,101.17229 195.19856,101.75391 z M 157.99045,215.41023 L 157.90014,215.41023 L 157.99045,215.41023 z "
       id="path41269" />
    <path
       style="color:#000000;fill:#000000;fill-opacity:1;fill-rule:nonzero;stroke:none;stroke-width:1px;stroke-linecap:butt;stroke-linejoin:miter;marker:none;marker-start:none;marker-mid:none;marker-end:none;stroke-miterlimit:4;stroke-dasharray:none;stroke-dashoffset:0;stroke-opacity:1;visibility:visible;display:inline;overflow:visible;enable-background:accumulate"
       id="path41007"
       d="M 170.39742,167.20377 C 170.0797,168.39318 169.77686,169.58636 169.48134,170.78148 C 168.30849,175.75958 167.3904,180.79481 166.46576,185.82376 C 164.99019,193.95612 163.68886,202.11814 162.42704,210.28589 C 161.3024,217.46449 160.32047,224.66391 159.3647,231.86655 C 158.62444,237.55514 157.92575,243.24905 157.23996,248.94443 C 156.67946,253.60347 156.1897,258.27014 155.75993,262.94292 C 155.39596,266.8134 155.1747,270.69436 155.00458,274.57748 C 154.85209,277.78804 154.83556,281.0019 155.01196,284.21107 C 155.13814,286.95034 155.7661,289.59153 156.78856,292.12486 C 157.92025,294.97757 159.92514,296.83467 162.48263,298.40491 C 167.60236,301.07364 173.30684,302.23633 178.92221,303.34632 C 188.14124,304.97739 197.47753,305.77694 206.80462,306.47831 C 217.4131,307.23302 228.05355,307.29329 238.68271,307.16335 C 248.2205,307.01407 257.74852,306.54704 267.2636,305.88985 C 274.95852,305.36386 282.6217,304.49419 290.22854,303.22562 C 296.23695,302.15086 302.18429,300.74585 307.4639,297.61212 C 296.99051,304.78956 306.43161,295.07497 308.04446,288.21027 C 309.32542,281.0947 308.56577,273.88975 307.61103,266.79151 C 306.46012,259.21337 304.77149,251.73214 302.9565,244.28976 C 301.37281,237.86251 299.42721,231.53436 297.40968,225.23264 C 295.77863,220.19132 294.07109,215.17521 292.32394,210.17308 C 290.93119,206.21346 289.50562,202.26555 288.06742,198.32226 C 286.92875,195.2026 285.79234,192.08198 284.62188,188.97408 C 283.78233,186.69683 282.85528,184.45534 281.88533,182.23142 C 281.29428,180.83261 280.54113,179.52257 279.71831,178.252 C 279.3858,177.35131 278.64876,177.52166 278.09905,177.27462 C 274.61625,180.20291 289.1235,170.07152 284.9512,173.75669 C 284.26264,174.66742 283.86051,175.73574 283.43505,176.78311 C 282.89905,178.23674 282.50269,179.73541 282.09554,181.22852 C 281.69122,182.79037 281.34231,184.36582 280.98561,185.93903 C 280.67122,187.37704 280.35608,188.8149 280.04072,190.25269 C 279.83504,191.28324 279.49051,192.27371 279.1608,193.26814 C 278.82247,194.13206 278.61473,195.03358 278.3881,195.93002 C 278.16979,196.8675 278.04337,197.82205 277.9,198.77277 C 277.74351,199.75767 277.61676,200.74667 277.48587,201.73513 C 277.33832,202.81067 277.27918,203.8942 277.20695,204.97634 C 277.22317,205.77596 277.06849,206.55716 276.96247,207.34191 C 274.14143,212.27435 270.49624,213.94581 267.10185,211.72816 C 266.35611,211.12253 265.77797,210.35224 265.1663,209.6198 C 264.46319,208.74955 263.77324,207.86875 263.08284,206.98851 C 262.65035,206.25936 261.93808,205.91547 261.2868,205.4587 C 260.58431,205.14134 260.24092,205.51394 259.63775,205.74956 C 273.28475,197.69384 268.76137,199.67906 266.24343,202.54073 C 265.59435,203.38709 265.17003,204.36045 264.74242,205.32829 C 264.29378,206.42142 263.95673,207.55426 263.61745,208.68449 C 263.28731,209.78218 263.05068,210.90325 262.81589,212.02402 C 262.65121,212.96256 262.448,213.89234 262.24043,214.82162 C 261.56841,218.67926 254.22683,219.64576 253.01123,220.27733 C 252.48523,219.80194 252.23639,219.1559 251.92938,218.53886 C 251.53364,217.62638 251.28711,216.66431 251.03787,215.70505 C 250.74337,214.45984 250.52856,213.19828 250.31216,211.93787 C 250.10303,210.54085 249.88696,209.14496 249.66462,207.75001 C 249.553,206.60241 249.20389,205.52033 248.86323,204.43203 C 248.66164,203.68591 248.10022,203.39255 247.58588,202.94734 C 246.94116,202.7478 246.49763,203.13865 245.93922,203.36545 C 245.83136,203.44266 245.72351,203.51988 245.61566,203.59708 C 248.2693,202.07129 250.91969,200.53983 253.57658,199.01972 C 254.16497,198.68308 252.49166,199.83352 251.96721,200.26303 C 251.06636,201.10061 250.3181,202.07596 249.57014,203.04645 C 248.70715,204.20657 247.96103,205.44443 247.21598,206.68131 C 246.43175,208.00567 245.71627,209.36813 245.00112,210.73038 C 244.35581,211.96527 243.77687,213.23248 243.20031,214.50032 C 242.68769,215.59299 242.21741,216.70409 241.75565,217.81887 C 241.34272,218.81169 241.00003,219.83061 240.64663,220.8453 C 240.59427,221.00619 240.5419,221.16708 240.48955,221.32798 L 231.70114,225.46844 C 231.75274,225.30429 231.80434,225.14013 231.85594,224.97598 C 232.20486,223.94067 232.54271,222.9011 232.95288,221.88759 C 233.41043,220.75407 233.87422,219.62285 234.39813,218.51781 C 234.98388,217.23667 235.56406,215.95236 236.20428,214.69706 C 236.91895,213.3227 237.6271,211.94439 238.40317,210.60307 C 239.12934,209.34382 239.85438,208.08207 240.69357,206.893 C 241.41082,205.8776 242.14169,204.87167 242.99728,203.96528 C 246.00057,201.04154 249.42272,198.6005 253.61004,197.34611 C 254.41937,197.27766 255.07176,197.13855 255.79674,197.66131 C 256.43419,198.26971 257.05834,198.8176 257.35004,199.6973 C 257.75365,200.84415 258.06967,202.00644 258.20862,203.22116 C 258.42572,204.61599 258.63783,206.01162 258.85107,207.40706 C 259.06671,208.63957 259.28637,209.87174 259.57539,211.08976 C 259.82309,211.98966 260.03379,212.90363 260.42673,213.75615 C 260.62112,214.09877 260.74748,214.67231 261.14326,214.78488 C 258.58987,216.22546 251.40339,221.11421 253.41267,218.97931 C 253.69006,218.08502 253.96883,217.19355 254.08443,216.25608 C 254.31647,215.11231 254.5438,213.96672 254.86201,212.84286 C 255.19297,211.68621 255.52469,210.5289 255.94223,209.39957 C 256.34224,208.3784 256.73286,207.34795 257.32321,206.41666 C 259.88246,202.67512 261.04542,202.53631 267.31355,199.7151 C 268.07548,199.76576 268.7843,199.61113 269.46392,200.13851 C 270.18375,200.69721 270.91011,201.22691 271.41997,202.01002 C 272.0998,202.88894 272.77404,203.77263 273.48871,204.62384 C 274.0634,205.27705 274.59491,205.98423 275.33039,206.46969 C 272.87009,208.05324 270.8223,210.47998 268.0238,211.33386 C 268.27025,210.72465 268.65597,210.1148 268.52827,209.33134 C 268.59883,208.23421 268.65482,207.13551 268.78192,206.04299 C 268.90067,205.04639 269.01069,204.04859 269.17445,203.05792 C 269.31426,202.08908 269.43864,201.11668 269.63409,200.15702 C 269.839,199.22706 270.01308,198.28712 270.34983,197.3923 C 270.70235,196.41853 271.06759,195.44703 271.32045,194.44109 C 271.6649,193.00659 271.99297,191.56801 272.30166,190.12513 C 272.65951,188.54154 273.01731,186.95773 273.40486,185.38109 C 273.79968,183.87025 274.18942,182.35699 274.67057,180.87059 C 275.062,179.76915 275.44123,178.65769 276.02247,177.63731 C 278.17236,174.36956 282.0375,171.13664 286.06227,171.60591 C 286.87652,172.06946 287.60656,172.47465 288.08355,173.35573 C 288.89365,174.70057 289.64801,176.07536 290.23315,177.5371 C 291.17237,179.79938 292.06814,182.07844 292.88543,184.38831 C 294.01968,187.51886 295.13235,190.65719 296.239,193.79758 C 297.63946,197.76651 299.02825,201.73954 300.38575,205.72341 C 302.08797,210.76034 303.74244,215.81338 305.33016,220.88768 C 307.29708,227.2386 309.20005,233.61264 310.76084,240.07778 C 312.54521,247.56309 314.1839,255.0867 315.40122,262.68775 C 316.39762,269.83932 317.28988,277.08542 316.17686,284.28579 C 314.14002,294.22718 310.05744,298.58491 300.37561,303.34104 C 295.00629,306.22284 289.08382,307.58596 283.0984,308.58233 C 275.53436,309.7619 267.92083,310.56606 260.27869,311.0349 C 250.81286,311.62251 241.33593,312.02903 231.85145,312.13738 C 221.20854,312.2282 210.55763,312.12477 199.9351,311.39176 C 190.4844,310.69575 181.01789,309.9753 171.6625,308.41303 C 165.84938,307.32693 159.93785,306.20237 154.62941,303.47644 C 151.8845,301.80232 149.7209,299.80933 148.49846,296.75954 C 147.42743,294.13181 146.75614,291.39205 146.61771,288.54639 C 146.43898,285.29647 146.45856,282.04224 146.63599,278.79178 C 146.83462,274.87974 147.07065,270.96913 147.46471,267.07105 C 147.92505,262.37241 148.43944,257.67958 149.03844,252.99637 C 149.77208,247.26984 150.52455,241.54567 151.32148,235.82754 C 152.34782,228.58814 153.39726,221.35188 154.57299,214.13494 C 155.86889,206.00178 157.19617,197.87362 158.4559,189.73474 C 159.24492,184.79398 160.02501,179.85062 160.901,174.92463 C 161.11685,173.76614 161.32002,172.60469 161.5576,171.45064 L 170.39742,167.20377 z " />
    <path
       style="color:#000000;fill:#ff6600;fill-opacity:1;fill-rule:nonzero;stroke:none;stroke-width:1px;stroke-linecap:butt;stroke-linejoin:miter;marker:none;marker-start:none;marker-mid:none;marker-end:none;stroke-miterlimit:4;stroke-dasharray:none;stroke-dashoffset:0;stroke-opacity:1;visibility:visible;display:inline;overflow:visible;enable-background:accumulate"
       d="M 160.3606,133.21869 C 156.23863,135.74 151.44561,136.99139 147.51088,139.84501 C 143.70587,142.05276 140.26073,144.83519 136.32949,146.83689 C 130.58502,150.23037 126.41323,155.67448 120.58755,158.94008 C 118.03976,160.68177 115.04372,161.86937 112.84708,164.06226 C 110.82042,166.43797 111.26543,171.31712 114.83473,171.87367 C 118.48097,171.66331 122.15629,171.61731 125.81163,171.94433 C 133.96839,172.11089 142.13573,172.18817 150.29494,171.80182 C 153.83841,171.30815 156.27234,174.66888 159.10743,176.27691 C 162.68141,178.85898 167.11299,180.67439 171.57561,180.2943 C 175.36305,179.71709 178.88935,177.72332 181.70356,175.20199 C 185.33968,170.43378 188.06818,164.72494 188.12864,158.6272 C 188.84642,151.9187 187.4924,144.50171 182.3873,139.71725 C 178.33632,136.0587 172.93442,134.50311 167.8073,133.04291 C 165.32111,132.67824 162.844,133.64421 160.3606,133.21869 z "
       id="path41221" />
    <path
       style="color:#000000;fill:#000000;fill-opacity:1;fill-rule:nonzero;stroke:none;stroke-width:1px;stroke-linecap:butt;stroke-linejoin:miter;marker:none;marker-start:none;marker-mid:none;marker-end:none;stroke-miterlimit:4;stroke-dasharray:none;stroke-dashoffset:0;stroke-opacity:1;visibility:visible;display:inline;overflow:visible;enable-background:accumulate"
       id="path40951"
       d="M 170.9025,127.64844 C 167.39453,129.9942 163.67044,131.97023 159.90894,133.85936 C 156.0117,135.88714 152.16231,138.00342 148.34648,140.17993 C 160.42451,133.03538 142.81984,143.60127 139.86887,145.43948 C 135.43282,148.21312 131.06253,151.08945 126.80202,154.12592 C 123.76919,156.26931 120.93604,158.66737 118.35157,161.33178 C 116.8632,162.85159 115.69444,164.48474 115.30149,166.53823 C 116.63608,168.11393 119.01744,168.28367 120.97806,168.63516 C 123.96361,169.12833 126.9832,169.34824 129.99967,169.54591 C 132.86824,169.71577 135.74137,169.79143 138.61443,169.82511 C 141.13835,169.86163 143.66254,169.81371 146.1848,169.72331 C 148.60343,169.60779 151.01454,169.37681 153.42243,169.12752 C 155.73061,168.88092 158.02898,168.55402 160.32274,168.19966 C 162.56439,167.87296 164.78015,167.40592 166.99479,166.93653 C 168.96996,166.50597 170.92831,166.00437 172.88457,165.49617 L 165.26211,171.33213 C 163.30863,171.82033 161.35409,172.30574 159.38259,172.71717 C 157.16262,173.17754 154.93362,173.59278 152.6901,173.92257 C 150.38848,174.26513 148.08257,174.58255 145.76604,174.80759 C 143.34844,175.04049 140.92809,175.26228 138.49977,175.34497 C 135.97645,175.41823 133.45169,175.44738 130.92762,175.39043 C 128.05754,175.32872 125.18749,175.23612 122.32277,175.04404 C 119.27745,174.82826 116.22981,174.5796 113.2186,174.05863 C 110.74446,173.58689 108.14769,173.26957 106.74008,170.98678 C 106.86396,168.56634 107.87341,166.76078 109.63814,164.96385 C 112.24502,162.19954 115.12488,159.71943 118.22249,157.51547 C 122.52502,154.42673 126.95085,151.5177 131.44013,148.70764 C 139.32017,143.79407 147.30951,139.05965 155.39008,134.48228 C 159.35004,132.22382 163.33934,130.01782 167.36302,127.87467 C 170.93696,125.98682 177.87342,121.93864 161.73527,131.20428 L 170.9025,127.64844 z " />
    <path
       style="color:#000000;fill:#000000;fill-opacity:1;fill-rule:nonzero;stroke:none;stroke-width:1px;stroke-linecap:butt;stroke-linejoin:miter;marker:none;marker-start:none;marker-mid:none;marker-end:none;stroke-miterlimit:4;stroke-dasharray:none;stroke-dashoffset:0;stroke-opacity:1;visibility:visible;display:inline;overflow:visible;enable-background:accumulate"
       id="path40953"
       d="M 159.35991,131.63472 C 159.76267,131.13882 160.11911,130.60148 160.48884,130.07935 C 161.30632,128.91668 162.11465,127.74774 162.93199,126.58497 C 164.26769,124.69373 165.69446,122.86807 167.13636,121.05711 C 168.78336,118.9836 170.54971,117.01228 172.37682,115.09729 C 174.08428,113.31784 175.9102,111.66011 177.80744,110.08665 C 182.13308,106.85734 186.77873,103.88016 191.86465,102.02317 C 194.0651,101.259 196.37055,100.96388 198.68427,100.83885 C 200.99595,100.73594 203.26764,101.10428 205.49806,101.67311 C 207.74353,102.27316 209.76694,103.37 211.6599,104.69118 C 213.66753,106.14788 215.23709,108.05302 216.65746,110.06237 C 218.23198,112.37357 219.36569,114.93162 220.40696,117.51499 C 221.53915,120.35067 222.43304,123.27113 223.25506,126.20904 C 224.13277,129.36591 224.77493,132.57939 225.37901,135.79751 C 225.9791,139.06013 226.51406,142.33403 227.01353,145.6134 C 227.49284,148.78837 227.90025,151.9734 228.28577,155.16091 C 228.6438,158.22754 228.97164,161.29758 229.302,164.36727 C 229.61762,167.30354 229.93948,170.23915 230.26999,173.17378 C 230.5702,175.81585 230.87097,178.45794 231.18346,181.09859 C 231.45275,183.34397 231.72432,185.58899 232.01003,187.83233 C 232.25474,189.71732 232.48482,191.60411 232.71186,193.49127 C 232.90532,195.12833 233.07836,196.76764 233.24864,198.40722 C 233.38546,199.85653 233.54318,201.30368 233.69879,202.75105 C 233.83752,204.10249 233.96893,205.45461 234.10973,206.80587 C 234.24053,208.09705 234.39287,209.38591 234.53741,210.6756 C 234.66347,211.88875 234.81356,213.09918 234.96674,214.30913 C 235.11151,215.4677 235.285,216.62242 235.45374,217.77766 C 235.61623,218.83802 235.78392,219.89753 235.95045,220.95723 C 236.00646,221.29245 236.05939,221.62818 236.11386,221.96366 L 227.52681,226.51044 C 227.52562,226.50299 227.37108,225.50765 227.36831,225.50552 C 227.20244,224.44088 227.03589,223.37642 226.87754,222.31058 C 226.70919,221.14774 226.53823,219.98505 226.38976,218.81943 C 226.23253,217.60266 226.08127,216.38495 225.95791,215.1642 C 225.8185,213.87103 225.66958,212.57886 225.53779,211.28491 C 225.39853,209.93304 225.26168,208.58103 225.13305,207.2281 C 224.98348,205.77574 224.8281,204.32396 224.70087,202.86944 C 224.54081,201.23013 224.38002,199.59085 224.19639,197.95396 C 223.98379,196.06301 223.76899,194.17231 223.53543,192.2838 C 223.26559,190.02874 223.01217,187.77187 222.7569,185.51511 C 222.45737,182.86592 222.17085,180.21522 221.88128,177.56493 C 221.56298,174.62487 221.24802,171.68446 220.93501,168.74382 C 220.60629,165.67581 220.28662,162.60678 219.9354,159.54122 C 219.56146,156.3595 219.16292,153.18047 218.69291,150.01132 C 218.20282,146.74033 217.67572,143.47509 217.07981,140.22153 C 216.48404,137.03152 215.84466,133.84691 214.97125,130.71917 C 214.15593,127.8171 213.27229,124.93132 212.14582,122.13232 C 211.12678,119.62077 210.01922,117.13292 208.46441,114.89821 C 207.08889,112.9886 205.56781,111.18218 203.6164,109.83042 C 201.77419,108.60936 199.80736,107.61243 197.6409,107.10348 C 195.46106,106.61343 193.24449,106.32812 191.0053,106.50067 C 188.73595,106.69779 186.48085,107.07084 184.35377,107.92179 C 176.99106,111.02342 195.1158,101.36866 186.65706,106.5292 C 184.72422,108.0567 182.88139,109.69345 181.1482,111.4455 C 179.30998,113.33063 177.52298,115.26432 175.87807,117.32274 C 174.45351,119.09209 173.05716,120.8869 171.75525,122.74898 C 170.9597,123.89033 170.17644,125.03941 169.40451,126.19685 C 169.05819,126.70623 168.69056,127.20739 168.38873,127.74387 L 159.35991,131.63472 z " />
    <path
       style="color:#000000;fill:#000000;fill-opacity:1;fill-rule:nonzero;stroke:none;stroke-width:1px;stroke-linecap:butt;stroke-linejoin:miter;marker:none;marker-start:none;marker-mid:none;marker-end:none;stroke-miterlimit:4;stroke-dasharray:none;stroke-dashoffset:0;stroke-opacity:1;visibility:visible;display:inline;overflow:visible;enable-background:accumulate"
       id="path41033"
       d="M 199.13525,229.43095 C 199.46437,228.89061 199.99531,228.52305 200.46183,228.11058 C 204.25921,225.24743 208.60339,223.20581 212.72438,220.85851 C 215.34909,219.60291 218.08826,218.62172 220.85094,217.72119 C 224.47144,216.45827 228.25071,215.93895 232.04957,215.59516 C 236.38715,215.23156 240.74066,215.23205 245.08622,215.40811 C 249.06109,215.57864 252.97305,216.27069 256.81682,217.26491 C 260.32212,218.17924 263.60853,219.6597 266.73294,221.46839 C 269.63573,223.1808 272.03329,225.51559 274.19571,228.0696 C 276.20841,230.5231 277.68039,233.32593 278.91229,236.23316 C 280.04547,238.97754 280.56961,241.88625 280.8243,244.82784 C 281.04284,247.58288 280.62362,250.2882 279.89282,252.93456 C 279.15541,255.48247 277.82066,257.75686 276.28796,259.89701 C 274.75508,261.9458 272.90341,263.71172 270.96074,265.36364 C 266.57127,268.70286 261.72248,271.54056 256.71955,273.8349 C 254.73465,274.78533 252.6049,275.24437 250.46043,275.64561 C 248.54964,275.99954 246.64002,275.81713 244.73191,275.59365 C 243.05711,275.35205 241.47195,274.78481 239.89791,274.19261 C 238.49661,273.64073 237.28123,272.78665 236.08992,271.88744 C 235.21645,271.09709 234.32904,270.32408 233.43261,269.56157 C 232.76821,268.91685 232.32706,269.16559 231.58751,269.20713 C 227.37712,271.73259 242.90415,262.20396 237.79496,265.88775 C 236.79072,266.83814 235.85816,267.86192 234.90185,268.86014 C 233.80868,270.01976 232.60124,271.05466 231.37881,272.07231 C 227.63473,274.90795 223.52577,277.29512 219.21742,279.16288 C 217.77937,279.78858 216.27888,279.80698 214.7472,279.77332 C 213.22128,279.6492 211.8033,279.10978 210.39497,278.55596 C 209.05246,278.01287 207.96544,277.1097 206.89957,276.16159 C 205.87014,275.19059 205.2305,273.96568 204.61606,272.71685 C 204.03164,271.49026 203.92568,270.20071 203.88442,268.87159 C 203.9181,267.45049 204.4769,266.19942 205.06876,264.94222 C 205.73816,263.69045 206.70845,262.66642 207.67918,261.64968 C 208.39213,260.92604 209.16743,260.2706 209.94204,259.61543 L 218.95361,256.00692 C 218.15096,256.62806 217.35057,257.25259 216.618,257.95783 C 215.6368,258.90479 214.63921,259.84577 213.89577,261.00126 C 213.26426,262.10911 212.65485,263.21311 212.53344,264.51317 C 212.49609,265.70763 212.53194,266.84996 213.04893,267.96337 C 213.59619,269.10383 214.16593,270.2149 215.12561,271.07755 C 216.13554,271.92506 217.16635,272.72241 218.42378,273.18247 C 219.76906,273.65611 221.11917,274.11773 222.56753,274.11354 C 224.03273,274.02192 225.4518,273.85706 226.78512,273.17119 C 232.65055,270.18045 215.73808,279.87618 222.42664,275.65559 C 223.6687,274.68518 224.90265,273.70207 225.99251,272.55703 C 226.95227,271.57875 227.89863,270.58833 228.81407,269.5678 C 231.77612,266.7597 235.31046,263.94553 239.40855,263.36544 C 240.2547,263.57476 241.01733,263.72815 241.66893,264.39948 C 242.53275,265.17915 243.38267,265.97579 244.26802,266.73102 C 245.40632,267.55492 246.5692,268.33255 247.90318,268.81541 C 249.42677,269.35043 250.96051,269.86435 252.57727,270.03835 C 254.42706,270.18795 256.27213,270.28092 258.10501,269.87756 C 260.19299,269.40613 262.2632,268.87419 264.18281,267.8884 C 265.9763,267.00165 253.43453,274.5259 262.13327,268.92302 C 264.10053,267.34014 265.97318,265.63762 267.55943,263.66328 C 269.12535,261.6311 270.51171,259.46417 271.30957,257.00426 C 272.09673,254.46703 272.57797,251.866 272.41615,249.19482 C 272.21865,246.34169 271.74938,243.5205 270.67299,240.8525 C 269.49793,238.02558 268.07972,235.30218 266.1238,232.92615 C 264.02213,230.45856 261.68445,228.2171 258.85529,226.58775 C 255.78614,224.8468 252.55791,223.43262 249.12514,222.56721 C 245.32714,221.6287 241.46661,220.98122 237.54891,220.84049 C 233.23319,220.68615 228.90844,220.69961 224.60563,221.11733 C 220.79824,221.53197 217.03161,222.1988 213.41417,223.49984 C 210.63489,224.45225 207.8722,225.47993 205.26775,226.85191 C 214.96012,221.19272 212.69235,222.32723 209.49372,224.49382 C 209.04866,224.84093 208.60555,225.19 208.16407,225.5401 L 199.13525,229.43095 z " />
    <path
       style="color:#000000;fill:#000000;fill-opacity:1;fill-rule:nonzero;stroke:none;stroke-width:1px;stroke-linecap:butt;stroke-linejoin:miter;marker:none;marker-start:none;marker-mid:none;marker-end:none;stroke-miterlimit:4;stroke-dasharray:none;stroke-dashoffset:0;stroke-opacity:1;visibility:visible;display:inline;overflow:visible;enable-background:accumulate"
       id="path41057"
       d="M 156.43837,167.48198 C 156.66114,167.92451 156.92499,168.34488 157.17438,168.77255 C 157.64507,169.60169 158.22523,170.35675 158.79979,171.11442 C 159.58206,172.14791 160.52227,173.03735 161.45995,173.92472 C 162.5465,174.95615 163.82936,175.7099 165.11768,176.45126 C 166.63237,177.32544 168.31592,177.68351 170.00513,178.02946 C 171.93077,178.39296 173.8059,178.09798 175.69661,177.73954 C 179.45909,176.72818 187.52588,171.65102 173.2242,179.83307 C 175.208,178.63877 176.85191,177.02403 178.34408,175.27372 C 179.88948,173.39404 180.97187,171.21971 181.88294,168.9795 C 182.76174,166.69967 183.19591,164.29794 183.46807,161.88057 C 183.73813,159.59918 183.50629,157.32579 183.24436,155.06008 C 183.00243,153.0473 182.34153,151.15152 181.62481,149.27165 C 180.91074,147.52309 179.7904,146.01665 178.66134,144.52354 C 177.58016,143.1422 176.27216,141.98274 174.95224,140.84053 C 173.73861,139.79455 172.37986,138.96083 171.00144,138.15748 C 169.75159,137.43998 168.38998,136.98872 167.02492,136.55463 C 165.77704,136.15843 164.48455,135.96377 163.1933,135.77716 C 162.03971,135.61395 160.87522,135.62189 159.71367,135.62259 C 158.69643,135.61574 157.69712,135.77641 156.69485,135.91831 C 155.79809,136.06632 154.94535,136.37769 154.08659,136.6614 C 153.35449,136.90192 152.69555,137.30352 152.01995,137.66268 L 159.59684,131.57308 C 160.31251,131.25488 161.01148,130.89544 161.77413,130.6944 C 162.66591,130.45226 163.55255,130.18248 164.4773,130.08983 C 165.50424,129.99811 166.53061,129.88616 167.56458,129.92191 C 168.75144,129.95596 169.9391,129.99966 171.11215,130.20313 C 172.42927,130.43421 173.74445,130.68215 175.01361,131.11666 C 176.41553,131.61345 177.81234,132.1294 179.09136,132.90462 C 180.49325,133.76555 181.87432,134.6578 183.11447,135.74793 C 184.46581,136.94881 185.8043,138.16753 186.91044,139.6083 C 188.0795,141.17971 189.23864,142.76509 189.9914,144.59067 C 190.74318,146.54348 191.44048,148.51245 191.69794,150.60529 C 192.0288,152.93709 192.20598,155.29206 191.99786,157.64566 C 191.75756,160.13401 191.35475,162.60854 190.52022,164.97534 C 189.65553,167.29379 188.60547,169.5473 187.11402,171.53741 C 185.67818,173.37131 184.08109,175.07534 182.13576,176.38215 C 177.50226,179.07596 173.2721,182.27477 168.05568,183.5191 C 166.07468,183.77649 164.10677,183.97257 162.12664,183.52291 C 160.36681,183.0987 158.619,182.6483 157.04423,181.71123 C 155.70643,180.91021 154.37703,180.09417 153.24292,179.00804 C 152.26941,178.07944 151.29417,177.14861 150.46938,176.07995 C 149.86248,175.30102 149.25252,174.52346 148.73895,173.67778 C 148.47354,173.26068 148.21218,172.84102 147.94027,172.42812 L 156.43837,167.48198 z " />
    <path
       style="color:#000000;fill:#000000;fill-opacity:1;fill-rule:nonzero;stroke:none;stroke-width:1px;stroke-linecap:butt;stroke-linejoin:miter;marker:none;marker-start:none;marker-mid:none;marker-end:none;stroke-miterlimit:4;stroke-dasharray:none;stroke-dashoffset:0;stroke-opacity:1;visibility:visible;display:inline;overflow:visible;enable-background:accumulate"
       id="path41059"
       d="M 164.6963,191.09572 C 165.69446,191.11977 166.69287,191.13033 167.69121,191.14289 C 170.23457,191.12721 172.77769,191.08201 175.32081,191.04596 C 178.65069,191.00141 181.98066,190.96364 185.31062,190.92581 C 188.6447,190.87203 191.97843,190.79858 195.31223,190.72983 C 198.13349,190.65457 200.95432,190.56481 203.77529,190.47937 C 206.10897,190.40709 208.44285,190.34262 210.77677,190.27902 C 212.77883,190.21777 214.78099,190.17441 216.7838,190.15221 C 218.57918,190.13799 220.3746,190.12996 222.17001,190.12117 C 223.81536,190.11333 225.46073,190.10591 227.10608,190.09894 C 228.5739,190.09203 230.04173,190.08538 231.50955,190.07888 C 231.95748,190.0769 232.40539,190.07509 232.85332,190.07321 L 225.02817,195.76155 C 224.58237,195.76195 224.13655,195.76234 223.69075,195.76278 C 222.23008,195.76419 220.76943,195.76553 219.30876,195.7677 C 217.669,195.77103 216.02923,195.77399 214.38947,195.77863 C 212.60091,195.78397 210.81232,195.78815 209.0238,195.80179 C 207.03466,195.82823 205.04581,195.86732 203.05711,195.91749 C 200.73843,195.97273 198.41978,196.02893 196.10117,196.08755 C 193.29872,196.15822 190.49633,196.23336 187.69348,196.28688 C 184.3702,196.34212 181.04697,196.40124 177.72363,196.45206 C 174.3781,196.49467 171.03259,196.5417 167.6875,196.61269 C 165.08844,196.66838 162.48972,196.73662 159.89109,196.81001 C 158.84947,196.82265 157.80779,196.8335 156.76634,196.85717 L 164.6963,191.09572 z " />
    <path
       style="color:#000000;fill:#000000;fill-opacity:1;fill-rule:nonzero;stroke:none;stroke-width:1px;stroke-linecap:butt;stroke-linejoin:miter;marker:none;marker-start:none;marker-mid:none;marker-end:none;stroke-miterlimit:4;stroke-dasharray:none;stroke-dashoffset:0;stroke-opacity:1;visibility:visible;display:inline;overflow:visible;enable-background:accumulate"
       id="path41061"
       d="M 162.54372,207.9838 C 163.19361,208.11205 163.8578,208.15612 164.51616,208.22323 C 165.84792,208.36069 167.18507,208.43175 168.52127,208.50912 C 170.4457,208.63945 172.37246,208.72797 174.29911,208.817 C 176.54505,208.90956 178.79138,208.99658 181.03878,209.04396 C 183.31216,209.08718 185.58584,209.11138 187.85948,209.13577 C 189.89362,209.15629 191.9278,209.17451 193.96196,209.19314 C 195.8569,209.2101 197.75184,209.22678 199.64678,209.24285 C 201.56548,209.25844 203.48422,209.27037 205.40294,209.28189 C 207.32285,209.29377 209.24279,209.30196 211.16273,209.31053 C 213.04069,209.31929 214.91868,209.32439 216.79666,209.32985 C 218.52742,209.33505 220.25819,209.33645 221.98897,209.3384 C 223.4888,209.33999 224.98861,209.34132 226.48844,209.34267 C 227.7987,209.34795 229.10888,209.34547 230.41897,209.33238 C 231.38145,209.30963 232.34392,209.28644 233.30641,209.26378 L 225.46915,214.98431 C 224.50878,215.00411 223.5484,215.02663 222.58783,215.03448 C 221.28169,215.0316 219.97556,215.02694 218.66944,215.02025 C 217.17738,215.01335 215.68531,215.00639 214.19324,214.99863 C 212.47002,214.98971 210.74681,214.98021 209.02357,214.97301 C 207.14801,214.9646 205.27244,214.95573 203.39688,214.94728 C 201.47716,214.93777 199.55744,214.92775 197.63773,214.91648 C 195.71807,214.90424 193.7984,214.89234 191.87877,214.87711 C 189.98433,214.86192 188.08991,214.84681 186.19557,214.82335 C 184.17056,214.79888 182.14556,214.7734 180.12062,214.74384 C 177.84867,214.71222 175.57667,214.68186 173.30499,214.6351 C 171.04814,214.57637 168.7919,214.49662 166.5361,214.40642 C 164.58959,214.32331 162.64335,214.23544 160.69785,214.131 C 159.32917,214.05922 157.96002,213.99047 156.59512,213.86229 C 155.89753,213.79229 155.19701,213.74509 154.50861,213.60368 L 162.54372,207.9838 z " />
    <path
       style="color:#000000;fill:#000000;fill-opacity:1;fill-rule:nonzero;stroke:none;stroke-width:1px;stroke-linecap:butt;stroke-linejoin:miter;marker:none;marker-start:none;marker-mid:none;marker-end:none;stroke-miterlimit:4;stroke-dasharray:none;stroke-dashoffset:0;stroke-opacity:1;visibility:visible;display:inline;overflow:visible;enable-background:accumulate"
       id="path41063"
       d="M 165.09543,178.53312 C 165.20142,179.09139 165.22255,179.66023 165.25765,180.2258 C 165.25168,182.33286 164.55972,184.34773 163.91402,186.32889 C 162.3745,191.01486 160.00971,195.33233 157.45705,199.52828 C 153.34474,206.12543 148.03958,211.80249 142.43636,217.13956 C 134.32167,224.85518 124.65371,230.3299 114.94305,235.72806 C 107.04356,239.81939 98.482976,241.89999 89.692528,242.8095 C 82.222064,243.44363 75.028213,242.02585 68.205257,239.05788 C 62.663604,236.40451 58.773312,232.11988 56.022137,226.73046 C 53.867939,221.98968 53.969275,216.92121 54.408519,211.85883 C 54.817245,207.91123 55.489779,203.99812 56.20523,200.09659 C 56.610228,197.69609 57.23226,195.33554 57.609861,192.93083 C 57.750891,191.43879 57.159506,192.03292 56.071223,192.43046 C 53.289256,193.69302 50.476386,194.85253 47.592843,195.86363 C 42.647511,197.60461 37.480876,198.42475 32.277853,198.86743 C 25.169272,198.99117 20.890482,194.95355 17.114235,189.42894 C 13.791626,184.01991 12.991763,178.01436 13.409869,171.80343 C 14.029732,164.93838 17.763459,159.62558 22.235413,154.66235 C 29.426583,148.23471 38.159981,143.71557 47.172835,140.40548 C 54.343669,137.92987 61.881294,137.16966 69.401985,136.70014 C 75.635117,136.349 81.87673,136.54613 88.099472,136.96953 C 92.808646,137.32514 97.491203,137.94861 102.15454,138.68268 C 105.59569,139.23906 109.01913,139.8967 112.43899,140.56973 C 114.81294,141.05256 117.19302,141.50806 119.61303,141.66617 C 121.22037,141.83035 122.59822,141.38449 123.99816,140.68642 C 115.29033,146.33772 119.38805,143.57496 120.84103,140.3272 C 121.57501,138.50197 122.13976,136.61473 122.7634,134.75022 C 123.40005,132.78674 124.20232,130.88816 125.13735,129.04989 C 126.03614,127.29457 127.25419,125.75347 128.62004,124.34348 C 131.55601,121.64422 135.1427,119.67003 138.74257,118.00739 C 140.21861,117.31311 141.80723,117.02897 143.40251,116.78431 C 144.75459,116.61739 146.10372,116.74343 147.44798,116.89512 C 148.54622,117.02257 149.5678,117.41017 150.58096,117.82556 C 151.38581,118.17751 152.10399,118.67819 152.81223,119.18938 C 153.38223,119.59257 153.85949,120.09647 154.34722,120.58974 C 154.55713,120.80669 154.73269,121.05288 154.92525,121.28424 L 149.00685,124.81419 C 148.82663,124.59852 148.66413,124.36731 148.46584,124.16676 C 148.00415,123.70752 147.55222,123.2375 147.01431,122.86304 C 146.33376,122.40415 145.66714,121.91984 144.89455,121.61898 C 143.92135,121.25375 142.94,120.92286 141.89529,120.82848 C 140.59322,120.71546 139.2876,120.62722 137.98754,120.83965 C 136.43552,121.13644 134.89269,121.47385 133.47565,122.21116 C 130.10353,123.9387 141.88371,116.87234 134.82307,121.77663 C 133.42327,123.11326 132.17306,124.59291 131.24244,126.30058 C 130.27866,128.09959 129.45529,129.96583 128.81952,131.90753 C 128.19084,133.77464 127.62776,135.66383 126.95406,137.51548 C 125.26849,141.70669 123.69486,142.52969 118.69763,144.92729 C 117.21754,145.46191 115.75654,145.78559 114.15905,145.55911 C 111.76433,145.31193 109.40891,144.82139 107.05633,144.319 C 103.68304,143.62114 100.30528,142.94194 96.9083,142.36791 C 92.308525,141.61183 87.688954,140.96358 83.040383,140.59108 C 76.892057,140.14305 70.723299,139.92384 64.561839,140.26293 C 57.091433,140.72716 49.611366,141.5254 42.510739,144.05317 C 34.601008,147.03216 35.666036,145.93313 27.792342,152.33012 C 23.35137,157.15451 19.595946,162.3126 18.915835,169.04805 C 18.442384,175.12506 19.16552,181.01127 22.39923,186.32361 C 26.098593,191.72715 30.297711,195.5358 37.255997,195.18083 C 42.494951,194.66917 47.687729,193.76198 52.642297,191.92111 C 55.615651,190.82076 58.490184,189.51109 61.414784,188.29603 C 62.982784,187.88113 63.862933,188.24286 63.66042,189.97631 C 63.207941,192.41747 62.530637,194.81159 62.064286,197.25056 C 61.273899,201.1558 60.536904,205.07581 60.078558,209.03614 C 59.580475,213.99275 59.382456,218.96499 61.447527,223.63847 C 64.08452,228.91951 67.859575,233.0979 73.263262,235.69102 C 79.976024,238.60954 87.054437,239.96435 94.399419,239.31357 C 103.11632,238.3759 111.59016,236.2534 119.40023,232.14456 C 117.58566,233.60924 117.45554,233.65374 122.58098,230.39842 C 126.45262,227.93942 130.17059,225.17949 133.70738,222.26074 C 134.85138,221.31664 135.94914,220.31784 137.07004,219.3464 C 142.59375,214.10816 147.81668,208.5252 151.83604,202.01709 C 154.299,197.92392 156.57732,193.7113 157.98912,189.12307 C 158.55929,187.25296 159.18267,185.34713 159.16687,183.37146 C 159.11714,182.85019 159.10058,182.3228 158.98041,181.81044 L 165.09543,178.53312 z " />
    <path
       style="color:#000000;fill:#333333;fill-opacity:1;fill-rule:nonzero;stroke:none;stroke-width:1px;stroke-linecap:butt;stroke-linejoin:miter;marker:none;marker-start:none;marker-mid:none;marker-end:none;stroke-miterlimit:4;stroke-dasharray:none;stroke-dashoffset:0;stroke-opacity:1;visibility:visible;display:inline;overflow:visible;enable-background:accumulate"
       d="M 90.480083,202.91679 C 97.086205,206.2173 104.33172,201.36967 110.59707,198.96136 C 115.0906,196.06407 125.601,193.20689 124.74086,189.3762 C 124.59016,180.49244 107.58336,196.05082 110.25272,186.68301 C 111.85282,179.85409 105.57815,174.81055 96.637757,182.3325 C 95.231508,188.92576 92.062764,195.04995 85.789708,197.65105 C 84.122134,200.29049 88.208177,206.54959 90.480083,202.91679 z "
       id="path41213"
       sodipodi:nodetypes="ccccccc" />
    <path
       style="color:#000000;fill:#000000;fill-opacity:1;fill-rule:nonzero;stroke:none;stroke-width:1px;stroke-linecap:butt;stroke-linejoin:miter;marker:none;marker-start:none;marker-mid:none;marker-end:none;stroke-miterlimit:4;stroke-dasharray:none;stroke-dashoffset:0;stroke-opacity:1;visibility:visible;display:inline;overflow:visible;enable-background:accumulate"
       id="path41069"
       d="M 152.73535,170.45025 C 152.53565,171.06691 152.19685,171.61244 151.87843,172.1708 C 150.35397,174.42896 148.3121,176.25768 146.28388,178.04874 C 142.5169,181.30789 138.37086,184.07729 134.20172,186.78621 C 128.02756,190.68295 121.71647,194.36934 115.25671,197.77271 C 111.44901,199.78207 107.4873,201.46563 103.43884,202.9205 C 100.34267,204.04173 97.131072,204.75171 93.872104,205.1775 C 91.512806,205.47334 89.147064,205.39719 86.824267,204.90601 C 84.986244,204.42689 84.212691,203.27233 83.562828,201.63284 C 83.211482,200.21136 83.510072,198.86186 83.865247,197.4855 C 84.165368,196.47117 84.724718,195.60753 85.354409,194.7761 C 87.403557,192.67777 90.0475,190.43775 92.951872,190.92417 C 93.543343,191.18859 93.896379,191.69027 94.293589,192.1698 C 94.399751,192.49008 94.765402,192.76997 94.925072,192.97309 C 93.409871,190.75894 87.989451,198.75477 89.276563,195.32164 C 89.383361,194.43542 89.53517,193.55744 89.698467,192.68046 C 89.939662,191.41875 90.387387,190.21826 90.839145,189.02146 C 91.351446,187.68846 92.058703,186.45084 92.770599,185.21843 C 93.442758,184.07317 94.257797,183.02869 95.089423,181.9983 C 97.381674,179.41025 100.29901,178.29933 103.41901,176.4965 C 104.31614,176.0669 105.22691,176.07067 106.18831,176.13858 C 107.22581,176.30423 108.03939,176.87588 108.86098,177.48186 C 109.77858,178.22397 110.37438,179.21109 110.95506,180.2145 C 111.52339,181.27745 111.72142,182.44013 111.89,183.61485 C 111.99398,184.70094 111.87405,185.78392 111.75457,186.86231 C 111.63121,187.57261 111.60855,188.28769 111.59341,189.00438 C 111.54344,189.57129 111.85307,189.02374 111.98638,189.03368 C 113.40013,188.16469 109.09521,190.66365 107.65741,191.49225 C 110.36839,189.92444 113.047,188.29766 115.8161,186.83426 C 116.61211,186.41331 117.43881,186.05926 118.26945,185.71461 C 119.02614,185.39875 119.82198,185.20651 120.61868,185.02631 C 121.3454,184.85165 122.08394,184.87785 122.82283,184.87987 C 123.48079,184.8719 124.09117,185.06823 124.71264,185.24515 C 125.28911,185.43632 125.73171,185.83058 126.19711,186.19713 C 126.63926,186.56635 126.91822,187.0578 127.22313,187.53276 C 127.49614,188.01291 127.62854,188.54773 127.78418,189.07199 C 127.90039,189.47203 127.94658,189.88626 128.02088,190.29438 L 121.90708,193.50369 C 121.84861,193.12039 121.8233,192.73054 121.71663,192.35508 C 121.58089,191.88679 121.4904,191.40011 121.24415,190.97115 C 120.96865,190.57608 120.74971,190.13892 120.34649,189.84536 C 119.92068,189.57126 119.54079,189.22808 119.02132,189.12772 C 118.43808,189.01406 117.85894,188.88169 117.25697,188.91502 C 116.55219,188.96157 115.8452,188.98392 115.1605,189.18687 C 114.39313,189.41173 113.61871,189.6175 112.89036,189.95701 C 112.07639,190.32149 111.26495,190.69246 110.48332,191.12361 C 107.9802,192.49989 106.058,193.65409 114.06523,189.0301 C 111.57221,190.47024 109.23873,192.42313 106.46408,193.19683 C 105.99309,192.89486 105.55145,192.89045 105.46852,192.17421 C 105.47002,191.40931 105.46669,190.64534 105.62825,189.88888 C 105.76522,188.8547 105.91025,187.8167 105.84832,186.77016 C 105.72262,185.67472 105.56877,184.59294 105.04376,183.60111 C 104.50763,182.67938 103.95901,181.77849 103.08456,181.12863 C 102.3192,180.62311 101.57571,180.16034 100.62418,180.12881 C 99.726608,180.17853 98.882931,180.29474 98.098598,180.78671 C 108.31236,174.83982 103.28742,177.35847 101.35469,179.3518 C 100.49375,180.34225 99.659981,181.35432 98.968271,182.47468 C 98.245119,183.67225 97.519597,184.87243 96.996256,186.17531 C 96.538415,187.3282 96.081875,188.48438 95.839553,189.70683 C 95.674811,190.55813 95.516991,191.41003 95.454222,192.27676 C 95.168709,195.00132 92.474784,198.06342 89.076101,196.70842 C 88.838186,196.37021 88.554856,196.05725 88.363382,195.68323 C 88.027974,195.34532 87.815404,194.93524 87.291528,194.86727 C 88.756805,193.95823 93.116237,191.17413 91.680655,192.12937 C 90.97688,192.85551 90.364225,193.62528 90.016332,194.59552 C 89.614571,195.84125 89.250857,197.06318 89.516645,198.38842 C 90.031476,199.83233 90.718316,200.7169 92.327541,201.07232 C 94.580358,201.5018 96.867147,201.54577 99.143402,201.23815 C 102.34034,200.78925 105.4879,200.06387 108.52369,198.94912 C 112.51431,197.49302 116.41984,195.81573 120.17412,193.82103 C 121.52329,193.1057 128.88401,189.03441 121.43467,193.26866 C 119.07475,194.61006 130.84506,187.87088 128.39899,189.04787 C 132.50328,186.39689 136.58885,183.68933 140.29138,180.48661 C 142.22798,178.78521 144.16371,177.05182 145.64968,174.92602 C 145.94999,174.42653 146.26507,173.93752 146.44747,173.37933 L 152.73535,170.45025 z " />
    <path
       style="color:#000000;fill:#00ff00;fill-opacity:1;fill-rule:nonzero;stroke:none;stroke-width:1px;stroke-linecap:butt;stroke-linejoin:miter;marker:none;marker-start:none;marker-mid:none;marker-end:none;stroke-miterlimit:4;stroke-dasharray:none;stroke-dashoffset:0;stroke-opacity:1;visibility:visible;display:inline;overflow:visible;enable-background:accumulate"
       d="M 194.20513,117.13902 C 190.84669,116.57934 192.49794,121.84795 191.97495,123.86649 C 192.56064,127.11874 191.70458,130.80604 192.95275,133.78236 C 194.01032,137.33145 194.85825,132.9745 194.95307,128.51608 C 195.02707,124.71244 194.83394,120.89455 194.20513,117.13902 z "
       id="path41276"
       sodipodi:nodetypes="ccccc" />
    <path
       style="color:#000000;fill:#000000;fill-opacity:1;fill-rule:nonzero;stroke:none;stroke-width:1px;stroke-linecap:butt;stroke-linejoin:miter;marker:none;marker-start:none;marker-mid:none;marker-end:none;stroke-miterlimit:4;stroke-dasharray:none;stroke-dashoffset:0;stroke-opacity:1;visibility:visible;display:inline;overflow:visible;enable-background:accumulate"
       id="path41125"
       d="M 191.30325,123.33577 C 191.32268,123.20841 191.32384,123.07876 191.32949,122.95022 C 191.35534,122.51622 191.38816,122.08276 191.42638,121.6497 C 191.49121,121.00525 191.57347,120.36286 191.66883,119.72228 C 191.75189,119.13819 191.87878,118.56238 192.0329,117.99333 C 192.15687,117.54663 192.3059,117.10768 192.48898,116.68183 C 192.77241,116.03607 193.8435,115.02281 194.33732,115.79688 C 194.60875,116.45663 194.70846,117.17546 194.82354,117.87554 C 195.0097,119.05189 195.13142,120.23646 195.22559,121.42326 C 195.33037,122.9155 195.36986,124.41138 195.41,125.90645 C 195.44617,127.25823 195.46511,128.61033 195.47238,129.96254 C 195.48207,130.97889 195.45507,131.99485 195.37887,133.00834 C 195.33434,133.55424 195.25796,134.10706 194.88174,134.52638 C 194.03039,135.08743 193.38452,135.84892 192.74273,134.96416 C 192.40983,134.42282 192.22735,133.80659 192.07052,133.19558 C 191.86113,132.25372 191.7672,131.29083 191.66696,130.33257 C 191.57021,129.39466 191.49948,128.45439 191.44012,127.51345 C 191.39295,126.73974 191.36004,125.96528 191.33474,125.19057 C 191.31098,124.56638 191.30978,123.94175 191.32388,123.31734 C 191.33763,122.77291 191.38056,122.22996 191.44039,121.68883 C 191.48001,121.35776 191.45971,121.52205 191.5013,121.19593 L 192.82592,120.5428 C 192.78133,120.86852 192.80303,120.70441 192.76084,121.03511 C 192.69568,121.57343 192.64854,122.11384 192.63047,122.65595 C 192.61143,123.28035 192.60608,123.90509 192.62318,124.52964 C 192.64036,125.30651 192.66514,126.08321 192.70567,126.85927 C 192.75685,127.80113 192.81981,128.74249 192.91321,129.68126 C 193.01086,130.62906 193.10771,131.5815 193.33604,132.50864 C 193.4988,133.09555 193.6796,133.69195 194.01882,134.20431 C 194.55771,134.85199 195.53901,133.88385 193.49899,135.09603 C 193.93764,134.73289 194.04325,134.19198 194.10222,133.64519 C 194.19951,132.62891 194.24318,131.60905 194.24471,130.58803 C 194.25246,129.23131 194.24733,127.87455 194.21691,126.51811 C 194.18293,125.02818 194.14263,123.53734 194.01758,122.05171 C 193.91126,120.87617 193.77799,119.70257 193.57505,118.5393 C 193.4497,117.87063 193.33916,117.17767 193.04268,116.55975 C 194.03831,115.80311 194.36713,115.27268 193.84331,116.0625 C 193.64578,116.48138 193.49036,116.91741 193.3604,117.36187 C 193.19787,117.92679 193.06225,118.49894 192.97594,119.08097 C 192.87707,119.71589 192.7914,120.35311 192.73984,120.99382 C 192.7083,121.41697 192.68215,121.84084 192.68019,122.26527 C 192.68038,122.39372 192.67963,122.52219 192.68178,122.6506 L 191.30325,123.33577 z " />
    <path
       style="color:#000000;fill:url(#radialGradient41317);fill-opacity:1;fill-rule:nonzero;stroke:none;stroke-width:1px;stroke-linecap:butt;stroke-linejoin:miter;marker:none;marker-start:none;marker-mid:none;marker-end:none;stroke-miterlimit:4;stroke-dasharray:none;stroke-dashoffset:0;stroke-opacity:1;visibility:visible;display:inline;overflow:visible;enable-background:accumulate"
       d="M 152.97819,172.19644 C 150.74101,174.38651 148.45894,176.13049 146.29518,178.06666 C 142.52819,181.32583 138.36266,184.07274 134.19351,186.78166 C 128.01935,190.67841 121.73313,194.35108 115.27337,197.75444 C 111.46569,199.76382 107.4911,201.44729 103.44264,202.90217 C 100.34646,204.02338 97.128644,204.73415 93.869676,205.15994 C 91.510379,205.45578 89.14822,205.38018 86.825423,204.88901 C 84.9874,204.4099 84.224092,203.2773 83.574229,201.63781 C 83.463471,201.18973 83.443227,200.76612 83.438762,200.3283 C 81.015134,199.4022 78.566653,198.7528 74.497979,199.60582 C 67.882045,201.64244 62.279602,206.77106 59.822451,212.97184 C 59.6708,216.59872 59.930708,220.19462 61.448048,223.62853 C 64.08504,228.90956 67.875094,233.09191 73.278781,235.68504 C 79.991543,238.60356 87.06656,239.94825 94.411542,239.29748 C 100.86825,238.60293 107.18567,237.27315 113.19622,234.96255 C 113.27049,234.93073 113.34781,234.90425 113.422,234.87224 C 116.97111,233.341 120.42911,231.58968 123.7626,229.63421 C 127.21021,227.3727 130.51883,224.89651 133.6968,222.27386 C 134.8408,221.32976 135.96257,220.3102 137.08346,219.33876 C 142.60717,214.10052 147.82995,208.50717 151.8493,201.99906 L 165.67978,181.94358 C 169.27216,174.1507 163.7046,166.86686 152.97819,172.19644 z "
       id="path41205"
       sodipodi:nodetypes="ccccccccccccccsscscccc" />
    <g
       id="g41265"
       transform="matrix(1.4449751,0,0,1.4449751,-93.435221,-124.92656)">
      <path
         id="path41246"
         d="M 227.66313,289.64084 C 231.94839,284.09786 241.67401,288.43633 237.35554,295.38045 C 236.26024,303.04522 237.4682,316.48904 247.96204,315.38425 C 256.18092,315.24794 253.04867,323.78835 246.41369,322.68247 C 240.40443,321.26262 237.40585,325.63368 235.57629,329.8286 C 229.58803,328.73089 225.32992,321.18201 218.12429,325.18736 C 212.90975,327.79643 203.74859,320.19589 212.69442,318.38485 C 220.98191,319.47239 229.36677,314.8096 228.60159,305.45331 C 228.55363,300.22076 228.91707,294.75067 227.66313,289.64084 z "
         style="opacity:1;color:#000000;fill:#ff6600;fill-opacity:1;fill-rule:nonzero;stroke:none;stroke-width:1px;stroke-linecap:butt;stroke-linejoin:miter;marker:none;marker-start:none;marker-mid:none;marker-end:none;stroke-miterlimit:4;stroke-dasharray:none;stroke-dashoffset:0;stroke-opacity:1;visibility:visible;display:inline;overflow:visible;enable-background:accumulate" />
      <path
         d="M 230.30703,286.20523 C 230.29044,286.7612 230.28395,287.31738 230.27468,287.8735 C 230.26847,288.9257 230.25017,289.9776 230.22704,291.02954 C 230.19147,292.19656 230.12442,293.36213 230.05482,294.52749 C 229.99002,295.55648 229.92885,296.58568 229.86977,297.61501 C 229.81014,298.55027 229.77342,299.48641 229.74459,300.42302 C 229.71749,301.33025 229.70366,302.23764 229.69748,303.14518 C 229.71404,304.01922 229.69735,304.89327 229.68377,305.7672 C 229.66955,306.60263 229.65722,307.43808 229.64478,308.27353 C 229.63172,309.09136 229.62358,309.90924 229.61534,310.72713 C 229.6219,311.47135 229.59338,312.2145 229.5678,312.95782 C 229.59682,313.62379 229.29744,314.08759 228.98851,314.62319 C 225.06088,317.46965 224.4431,318.00518 221.15284,318.31209 C 220.20715,318.39221 219.2596,318.44663 218.31228,318.50283 C 217.23877,318.56002 216.17301,318.69938 215.10798,318.83891 C 213.95921,318.99022 212.82976,319.25032 211.70222,319.51053 C 210.62403,319.76157 209.5795,320.12257 208.5385,320.49344 C 207.64928,320.81182 206.81811,321.25822 205.99425,321.71352 C 215.67454,315.98732 211.98053,318.00971 210.01629,319.60516 C 209.61303,319.90182 209.55257,320.32271 209.39218,320.73494 C 209.49024,321.26629 209.88807,321.42808 210.29102,321.71843 C 211.10923,322.1458 212.00654,322.37021 212.89059,322.61365 C 214.0745,322.89937 215.27883,323.08258 216.48089,323.27102 C 217.81663,323.48004 219.16371,323.59301 220.51055,323.69804 C 221.82031,323.78511 223.13209,323.77843 224.44339,323.75495 C 225.46273,323.73931 226.46973,323.60045 227.47316,323.43576 C 228.19573,323.32847 228.86675,323.05594 229.54391,322.8013 C 229.89829,322.6658 230.21218,322.45327 230.54088,322.27055 C 228.68643,323.34012 226.83198,324.40969 224.97753,325.47927 C 225.04193,325.44032 225.10632,325.40138 225.17072,325.36244 C 227.2231,323.84651 229.81167,322.71481 231.84257,321.58921 C 232.25884,321.67883 232.27507,322.09776 232.46066,322.38222 C 232.53652,322.70885 232.46919,323.04038 232.46119,323.36859 C 232.42035,323.76889 232.39482,324.17046 232.36445,324.57161 C 232.30846,324.99625 232.34962,325.42155 232.35999,325.84634 C 232.37687,326.29191 232.50834,326.71674 232.60367,327.14767 C 232.68597,327.58164 232.93839,327.93636 233.13763,328.31381 C 233.47272,328.66708 233.93418,328.66969 234.38756,328.75417 C 235.08944,328.83531 235.78493,328.7229 236.48003,328.64916 C 237.25278,328.54282 237.93661,328.20312 238.62219,327.85671 C 241.00699,326.47175 235.24773,329.79772 233.55894,330.76551 C 233.12856,331.01215 234.38438,330.21492 234.78901,329.92799 C 235.30027,329.55505 235.70595,329.07565 236.12409,328.60825 C 236.42994,328.27198 236.61468,327.86031 236.83362,327.47041 C 237.04254,327.22306 236.87848,326.90334 236.89891,326.64512 C 236.83174,326.33955 236.4961,326.26192 236.30338,326.07857 C 235.9966,325.88883 235.64561,325.80346 235.31401,325.67378 C 235.00257,325.68046 234.76636,325.44065 234.51723,325.33459 C 232.90711,322.6131 238.79205,322.3527 240.8,321.304 C 241.5441,321.25628 242.28913,321.22648 243.03406,321.19564 C 244.00243,321.1688 244.96928,321.11612 245.93603,321.05682 C 246.88377,321.00826 247.82294,320.87127 248.7618,320.74089 C 249.63904,320.62147 250.46867,320.33506 251.29328,320.02864 C 253.72577,318.90599 255.42034,317.76185 247.68809,322.19669 C 248.24817,321.88734 248.68557,321.432 249.13824,320.99352 C 249.48859,320.68467 249.53992,320.2754 249.67783,319.8719 C 249.76463,319.48979 249.4714,319.30388 249.32454,319.01844 C 248.96861,318.66436 248.51083,318.48551 248.07048,318.26949 C 247.41547,317.99471 246.72777,317.82127 246.04105,317.64983 C 245.24245,317.46203 244.43017,317.35535 243.61759,317.25298 C 242.80607,317.15196 241.9892,317.13753 241.17279,317.12998 C 240.38804,317.14786 239.60316,317.16271 238.81845,317.17736 C 238.13666,317.23226 237.60782,316.95991 237.02179,316.68755 C 236.45348,316.28838 236.26994,315.6845 236.00333,315.08417 C 235.745,314.28663 235.5885,313.4622 235.4251,312.64158 C 235.25185,311.74475 235.14419,310.83756 235.03319,309.93154 C 234.92573,309.01573 234.84158,308.09748 234.75804,307.17926 C 234.67198,306.25559 234.61137,305.32997 234.55214,304.4043 C 234.49646,303.40929 234.43988,302.41442 234.37721,301.41982 C 234.31165,300.41304 234.25725,299.40559 234.2026,298.39817 C 234.1523,297.43331 234.10902,296.46812 234.06545,295.50294 C 234.02638,294.63445 233.99229,293.76575 233.95857,292.89703 C 233.92819,292.11603 233.90315,291.33483 233.87728,290.55367 C 233.84801,289.85091 233.85286,289.14753 233.85177,288.44437 C 233.85197,288.3337 233.85218,288.22304 233.85238,288.11238 L 239.84922,285.0595 C 239.84865,285.17021 239.84807,285.28093 239.84749,285.39164 C 239.84441,286.08975 239.83353,286.7882 239.85352,287.48611 C 239.87581,288.26771 239.89737,289.04934 239.92365,289.83083 C 239.95284,290.70034 239.9823,291.56985 240.01654,292.43919 C 240.05512,293.40386 240.09399,294.36853 240.14283,295.33275 C 240.19428,296.33816 240.24657,297.34355 240.312,298.34818 C 240.37607,299.34192 240.43807,300.33572 240.49286,301.33003 C 240.55426,302.24972 240.61693,303.16936 240.69671,304.08769 C 240.77747,304.99996 240.85784,305.91235 240.96314,306.82221 C 241.0696,307.71271 241.1698,308.60511 241.3363,309.48693 C 241.49238,310.27356 241.64073,311.06413 241.88886,311.82842 C 242.0941,312.28684 242.2021,312.73489 242.67385,312.9946 C 243.19465,313.11244 243.69478,313.30708 244.25214,313.22173 C 245.03674,313.2073 245.8215,313.18579 246.60626,313.19522 C 247.43704,313.22404 248.26808,313.26018 249.09213,313.37906 C 249.92145,313.50275 250.75096,313.63055 251.56498,313.83628 C 252.28327,314.03623 253.00478,314.23372 253.68359,314.54908 C 254.19006,314.83207 254.71959,315.07395 255.1113,315.52179 C 255.36713,315.94354 255.71306,316.28558 255.71441,316.82381 C 255.6468,317.3581 255.69637,317.87825 255.33644,318.34171 C 254.91726,318.8588 254.51663,319.38452 253.94857,319.75842 C 251.34472,321.27611 248.85285,323.09201 246.0112,324.15297 C 245.1554,324.41438 244.2946,324.65553 243.40043,324.74978 C 242.45326,324.86627 241.50542,324.97778 240.55133,325.02097 C 239.57939,325.07175 238.60713,325.11342 237.63487,325.1576 C 236.88329,325.20167 236.12954,325.23499 235.38315,325.33866 C 237.11676,324.28228 241.26671,323.45341 240.25995,321.69051 C 240.43323,321.74168 240.72937,321.77928 240.92254,321.88619 C 241.29016,322.05241 241.67578,322.18602 242.00483,322.42824 C 242.31148,322.71742 242.67168,322.94012 242.82463,323.36261 C 242.91473,323.78022 243.09338,324.16267 242.9618,324.60704 C 242.77422,325.06649 242.64611,325.55204 242.31697,325.94573 C 241.91629,326.46237 241.53435,326.99764 241.02352,327.41695 C 238.70484,329.29766 236.12857,330.81603 233.37676,332.04185 C 232.63773,332.33525 231.89633,332.60837 231.09248,332.65985 C 230.34995,332.70933 229.6038,332.76537 228.8678,332.61187 C 228.26996,332.41032 227.70575,332.3004 227.31571,331.74441 C 227.08053,331.30172 226.78594,330.88638 226.6749,330.38328 C 226.55734,329.91696 226.39982,329.45806 226.36905,328.97333 C 226.33776,328.51741 226.26991,328.06062 226.31955,327.60225 C 226.34611,327.19807 226.3697,326.79368 226.40237,326.38991 C 226.42252,326.11474 226.46399,325.84077 226.46279,325.56455 C 226.46318,325.62073 226.49075,325.68371 226.46396,325.7331 C 228.12681,324.78184 233.08749,321.88168 231.45827,322.88945 C 229.09973,324.27292 226.8302,325.97389 224.24348,326.95321 C 223.5426,327.15833 222.84516,327.37915 222.11417,327.45782 C 221.10165,327.5798 220.08672,327.67995 219.06502,327.67604 C 217.74807,327.67214 216.43045,327.65888 215.11658,327.55586 C 213.75643,327.43537 212.3956,327.31254 211.04676,327.09358 C 209.82261,326.89563 208.5949,326.70573 207.3936,326.39177 C 206.45067,326.11891 205.49146,325.86673 204.63973,325.36046 C 204.10279,324.91121 203.56507,324.58085 203.39305,323.84405 C 203.40179,323.22651 203.36465,322.72773 203.80436,322.21022 C 205.86187,320.02909 208.32466,318.98237 211.21406,317.50796 C 212.05692,317.08843 212.90554,316.67863 213.80377,316.3876 C 214.85747,316.04147 215.91548,315.70799 217.00089,315.47272 C 218.14363,315.22983 219.28769,314.98808 220.4492,314.85034 C 221.52853,314.72073 222.60857,314.59476 223.69513,314.54172 C 224.64316,314.47849 225.59203,314.41972 226.53626,314.31112 C 229.27272,313.91287 232.29917,311.83189 222.712,317.10526 C 223.13798,316.74569 223.53272,316.67043 223.54946,315.96568 C 223.59713,315.23356 223.6476,314.50232 223.63178,313.76723 C 223.64268,312.94811 223.65359,312.12898 223.66415,311.30985 C 223.67652,310.47337 223.6898,309.6369 223.70532,308.80047 C 223.72106,307.92891 223.74828,307.05686 223.73032,306.18523 C 223.7311,305.27193 223.74335,304.35896 223.7711,303.44602 C 223.79825,302.50188 223.82851,301.55801 223.89498,300.6156 C 223.95772,299.58248 224.02102,298.5494 224.09346,297.51691 C 224.17101,296.35816 224.24837,295.19936 224.28551,294.03841 C 224.3031,292.99925 224.31852,291.96012 224.29395,290.92083 C 224.28471,290.3757 224.27832,289.83051 224.2616,289.28553 L 230.30703,286.20523 z "
         id="path41035"
         style="opacity:1;color:#000000;fill:#000000;fill-opacity:1;fill-rule:nonzero;stroke:none;stroke-width:1px;stroke-linecap:butt;stroke-linejoin:miter;marker:none;marker-start:none;marker-mid:none;marker-end:none;stroke-miterlimit:4;stroke-dasharray:none;stroke-dashoffset:0;stroke-opacity:1;visibility:visible;display:inline;overflow:visible;enable-background:accumulate" />
    </g>
  </g>
</svg>
