<?xml version="1.0" encoding="UTF-8" standalone="no"?>
<!-- Created with Inkscape (http://www.inkscape.org/) -->
<svg
   xmlns:dc="http://purl.org/dc/elements/1.1/"
   xmlns:cc="http://web.resource.org/cc/"
   xmlns:rdf="http://www.w3.org/1999/02/22-rdf-syntax-ns#"
   xmlns:svg="http://www.w3.org/2000/svg"
   xmlns="http://www.w3.org/2000/svg"
   xmlns:xlink="http://www.w3.org/1999/xlink"
   xmlns:sodipodi="http://sodipodi.sourceforge.net/DTD/sodipodi-0.dtd"
   xmlns:inkscape="http://www.inkscape.org/namespaces/inkscape"
   width="400"
   height="400"
   id="svg40943"
   sodipodi:version="0.32"
   inkscape:version="0.45.1"
   version="1.0"
   sodipodi:docbase="/home/kris/tale/art/monster"
   sodipodi:docname="fancis-drake.svg"
   inkscape:output_extension="org.inkscape.output.svg.inkscape">
  <defs
     id="defs40945">
    <linearGradient
       id="linearGradient41232">
      <stop
         style="stop-color:#8587e0;stop-opacity:0.71428573;"
         offset="0"
         id="stop41234" />
      <stop
         id="stop41240"
         offset="0.13636364"
         style="stop-color:#f2ff00;stop-opacity:1;" />
      <stop
         style="stop-color:#ffa400;stop-opacity:0.49803922;"
         offset="0.56818181"
         id="stop41242" />
      <stop
         style="stop-color:#ff0004;stop-opacity:0.23469388;"
         offset="1"
         id="stop41236" />
    </linearGradient>
    <radialGradient
       inkscape:collect="always"
       xlink:href="#linearGradient41232"
       id="radialGradient41244"
       cx="178.1976"
       cy="195.88472"
       fx="178.1976"
       fy="195.88472"
       r="37.019323"
       gradientTransform="matrix(-1.6030107,1.5874584,-1.5201628,-1.5351438,761.81138,223.344)"
       gradientUnits="userSpaceOnUse" />
    <radialGradient
       inkscape:collect="always"
       xlink:href="#linearGradient41232"
       id="radialGradient41311"
       gradientUnits="userSpaceOnUse"
       gradientTransform="matrix(-1.6030107,1.5874584,-1.5201628,-1.5351438,761.81138,223.344)"
       cx="178.1976"
       cy="195.88472"
       fx="178.1976"
       fy="195.88472"
       r="37.019323" />
    <radialGradient
       inkscape:collect="always"
       xlink:href="#linearGradient41232"
       id="radialGradient5422"
       gradientUnits="userSpaceOnUse"
       gradientTransform="matrix(-2.3163105,2.2938379,-2.1965974,-2.2182446,1011.4535,201.45369)"
       cx="178.1976"
       cy="195.88472"
       fx="178.1976"
       fy="195.88472"
       r="37.019321" />
  </defs>
  <sodipodi:namedview
     id="base"
     pagecolor="#ffffff"
     bordercolor="#666666"
     borderopacity="1.0"
     gridtolerance="10000"
     guidetolerance="10"
     objecttolerance="10"
     inkscape:pageopacity="0.0"
     inkscape:pageshadow="2"
     inkscape:zoom="1.4"
     inkscape:cx="322.3114"
     inkscape:cy="192.91265"
     inkscape:document-units="px"
     inkscape:current-layer="layer1"
     width="400px"
     height="400px"
     inkscape:window-width="1680"
     inkscape:window-height="979"
     inkscape:window-x="0"
     inkscape:window-y="45" />
  <metadata
     id="metadata40948">
    <rdf:RDF>
      <cc:Work
         rdf:about="">
        <dc:format>image/svg+xml</dc:format>
        <dc:type
           rdf:resource="http://purl.org/dc/dcmitype/StillImage" />
      </cc:Work>
    </rdf:RDF>
  </metadata>
  <g
     inkscape:label="Layer 1"
     inkscape:groupmode="layer"
     id="layer1">
    <path
       sodipodi:nodetypes="cccccccccczzsccc"
       id="path5407"
       d="M 156.42275,174.64076 C 171.48442,179.38718 166.70639,199.78635 157.12585,207.81187 C 142.13554,228.3767 117.89242,243.23299 92.243905,244.39085 C 74.636405,245.16261 58.499125,228.36202 62.824375,209.84395 C 64.886695,194.6113 65.801495,192.48789 46.406625,199.23159 C 28.983754,204.89734 14.461025,183.49259 22.092445,169.02212 C 30.330644,146.81148 56.421915,140.87065 77.602285,142.46527 C 93.535845,140.83078 110.74218,150.37895 125.34287,144.16291 C 130.72311,131.12487 141.41304,114.68486 157.45141,125.29896 C 170.16987,132.98668 176.74423,149.38891 192.97748,151.43392 C 211.83913,156.56197 230.24079,144.54761 243.65049,134.75524 C 257.06021,124.96288 278.91891,131.49518 278.60141,148.04913 C 278.2839,164.60308 272.8358,179.45758 253.5271,190.7988 C 237.20418,200.38629 216.90266,197.33185 200.56222,190.75144 C 185.92379,186.18678 172.78912,166.57656 156.42275,174.64076 L 156.42275,174.64076 z "
       style="color:#000000;fill:#666666;fill-opacity:1;fill-rule:nonzero;stroke:none;stroke-width:1px;stroke-linecap:butt;stroke-linejoin:miter;marker:none;marker-start:none;marker-mid:none;marker-end:none;stroke-miterlimit:4;stroke-dasharray:none;stroke-dashoffset:0;stroke-opacity:1;visibility:visible;display:inline;overflow:visible;enable-background:accumulate" />
    <path
       d="M 169.18562,182.18685 C 169.29161,182.74512 169.31274,183.31396 169.34784,183.87953 C 169.34187,185.98659 168.64991,188.00146 168.00421,189.98262 C 166.46469,194.66859 164.0999,198.98606 161.54724,203.18201 C 157.43493,209.77916 152.12977,215.45622 146.52655,220.79329 C 138.41186,228.50891 128.74389,233.98363 119.03323,239.38179 C 111.13374,243.47312 102.57316,245.55372 93.782715,246.46323 C 86.312255,247.09736 79.118405,245.67958 72.295445,242.71161 C 66.753795,240.05824 62.863505,235.77361 60.112325,230.38419 C 57.958125,225.64341 58.059465,220.57494 58.498705,215.51256 C 58.907435,211.56496 59.579965,207.65185 60.295415,203.75032 C 60.700415,201.34982 61.322445,198.98927 61.700045,196.58456 C 61.841075,195.09252 61.249695,195.68665 60.161415,196.08419 C 57.379445,197.34675 54.566575,198.50626 51.683035,199.51736 C 46.737695,201.25834 41.571064,202.07848 36.368044,202.52116 C 29.259464,202.6449 24.980675,198.60728 21.204425,193.08267 C 17.881815,187.67364 17.081955,181.66809 17.500055,175.45716 C 18.119925,168.59211 21.853645,163.27931 26.325605,158.31608 C 33.516774,151.88844 42.250164,147.3693 51.263025,144.05921 C 58.433855,141.5836 65.971485,140.82339 73.492175,140.35387 C 79.725305,140.00273 85.966915,140.19986 92.189665,140.62326 C 96.898835,140.97887 101.58139,141.60234 106.24472,142.33641 C 109.68587,142.89279 113.10931,143.55043 116.52917,144.22346 C 118.90312,144.70629 121.2832,145.16179 123.70321,145.3199 C 125.31055,145.48408 126.6884,145.03822 128.08834,144.34015 C 119.38051,149.99145 123.47823,147.22869 124.93121,143.98093 C 125.66519,142.1557 126.22994,140.26846 126.85358,138.40395 C 127.49023,136.44047 128.2925,134.54189 129.22753,132.70362 C 130.12632,130.9483 131.34437,129.4072 132.71022,127.99721 C 135.64619,125.29795 139.23289,123.32376 142.83276,121.66112 C 144.3088,120.96684 145.89742,120.6827 147.4927,120.43804 C 148.84478,120.27112 150.19391,120.39716 151.53817,120.54885 C 152.63641,120.6763 153.65799,121.0639 154.67115,121.47929 C 155.476,121.83124 156.19418,122.33192 156.90242,122.84311 C 157.47242,123.2463 157.94968,123.7502 158.43741,124.24347 C 158.64732,124.46042 158.82288,124.70661 159.01544,124.93797 L 153.09704,128.46792 C 152.91682,128.25225 152.75432,128.02104 152.55603,127.82049 C 152.09434,127.36125 151.64241,126.89123 151.1045,126.51677 C 150.42395,126.05788 149.75733,125.57357 148.98474,125.27271 C 148.01154,124.90748 147.03019,124.57659 145.98548,124.48221 C 144.68341,124.36919 143.37779,124.28095 142.07773,124.49338 C 140.52571,124.79017 138.98288,125.12758 137.56584,125.86489 C 134.19371,127.59243 145.9739,120.52607 138.91326,125.43036 C 137.51346,126.76699 136.26325,128.24664 135.33262,129.95431 C 134.36884,131.75332 133.54547,133.61956 132.9097,135.56126 C 132.28102,137.42837 131.71794,139.31756 131.04424,141.16921 C 129.35867,145.36042 127.78504,146.18342 122.78781,148.58102 C 121.30772,149.11564 119.84672,149.43932 118.24923,149.21284 C 115.85451,148.96566 113.49909,148.47512 111.14651,147.97273 C 107.77322,147.27487 104.39546,146.59567 100.99848,146.02164 C 96.398715,145.26556 91.779145,144.61731 87.130575,144.24481 C 80.982245,143.79678 74.813485,143.57757 68.652025,143.91666 C 61.181625,144.38089 53.701555,145.17913 46.600925,147.7069 C 38.691194,150.68589 39.756224,149.58686 31.882534,155.98385 C 27.441555,160.80824 23.686135,165.96633 23.006025,172.70178 C 22.532575,178.77879 23.255705,184.665 26.489415,189.97734 C 30.188784,195.38088 34.387894,199.18953 41.346184,198.83456 C 46.585135,198.3229 51.777915,197.41571 56.732485,195.57484 C 59.705835,194.47449 62.580375,193.16482 65.504975,191.94976 C 67.072975,191.53486 67.953125,191.89659 67.750605,193.63004 C 67.298125,196.0712 66.620825,198.46532 66.154475,200.90429 C 65.364085,204.80953 64.627095,208.72954 64.168745,212.68987 C 63.670665,217.64648 63.472645,222.61872 65.537715,227.2922 C 68.174705,232.57324 71.949765,236.75163 77.353455,239.34475 C 84.066215,242.26327 91.144625,243.61808 98.489605,242.9673 C 107.2065,242.02963 115.68034,239.90713 123.49041,235.79829 C 121.67584,237.26297 121.54572,237.30747 126.67116,234.05215 C 130.5428,231.59315 134.26077,228.83322 137.79757,225.91447 C 138.94157,224.97037 140.03933,223.97157 141.16023,223.00013 C 146.68394,217.76189 151.90687,212.17893 155.92623,205.67082 C 158.38919,201.57765 160.66751,197.36503 162.07931,192.7768 C 162.64948,190.90669 163.27286,189.00086 163.25706,187.02519 C 163.20733,186.50392 163.19077,185.97653 163.0706,185.46417 L 169.18562,182.18685 z "
       id="path5409"
       style="color:#000000;fill:#000000;fill-opacity:1;fill-rule:nonzero;stroke:none;stroke-width:1px;stroke-linecap:butt;stroke-linejoin:miter;marker:none;marker-start:none;marker-mid:none;marker-end:none;stroke-miterlimit:4;stroke-dasharray:none;stroke-dashoffset:0;stroke-opacity:1;visibility:visible;display:inline;overflow:visible;enable-background:accumulate" />
    <path
       sodipodi:nodetypes="ccccccc"
       id="path5411"
       d="M 94.570275,206.57052 C 101.17639,209.87103 108.4219,205.0234 114.68725,202.61509 C 119.18078,199.7178 129.69118,196.86062 128.83104,193.02993 C 128.68034,184.14617 111.67354,199.70455 114.3429,190.33674 C 115.943,183.50782 109.66833,178.46428 100.72794,185.98623 C 99.321695,192.57949 96.152955,198.70368 89.879895,201.30478 C 88.212325,203.94422 92.298365,210.20332 94.570275,206.57052 z "
       style="color:#000000;fill:#333333;fill-opacity:1;fill-rule:nonzero;stroke:none;stroke-width:1px;stroke-linecap:butt;stroke-linejoin:miter;marker:none;marker-start:none;marker-mid:none;marker-end:none;stroke-miterlimit:4;stroke-dasharray:none;stroke-dashoffset:0;stroke-opacity:1;visibility:visible;display:inline;overflow:visible;enable-background:accumulate" />
    <path
       d="M 156.82554,174.10398 C 156.62584,174.72064 156.28704,175.26617 155.96862,175.82453 C 154.44416,178.08269 152.40229,179.91141 150.37407,181.70247 C 146.60709,184.96162 142.46105,187.73102 138.29191,190.43994 C 132.11774,194.33668 125.80665,198.02307 119.34689,201.42644 C 115.53919,203.4358 111.57748,205.11936 107.52902,206.57423 C 104.43285,207.69546 101.22126,208.40544 97.962295,208.83123 C 95.602995,209.12707 93.237255,209.05092 90.914455,208.55974 C 89.076435,208.08062 88.302875,206.92606 87.653015,205.28657 C 87.301675,203.86509 87.600265,202.51559 87.955435,201.13923 C 88.255555,200.1249 88.814905,199.26126 89.444595,198.42983 C 91.493745,196.3315 94.137685,194.09148 97.042065,194.5779 C 97.633535,194.84232 97.986565,195.344 98.383775,195.82353 C 98.489935,196.14381 98.855595,196.4237 99.015265,196.62682 C 97.500055,194.41267 92.079635,202.4085 93.366755,198.97537 C 93.473545,198.08915 93.625355,197.21117 93.788655,196.33419 C 94.029855,195.07248 94.477575,193.87199 94.929335,192.67519 C 95.441635,191.34219 96.148895,190.10457 96.860785,188.87216 C 97.532945,187.7269 98.347985,186.68242 99.179615,185.65203 C 101.47186,183.06398 104.38919,181.95306 107.50919,180.15023 C 108.40632,179.72063 109.31709,179.7244 110.27849,179.79231 C 111.31599,179.95796 112.12957,180.52961 112.95116,181.13559 C 113.86876,181.8777 114.46456,182.86482 115.04524,183.86823 C 115.61357,184.93118 115.8116,186.09386 115.98018,187.26858 C 116.08416,188.35467 115.96423,189.43765 115.84475,190.51604 C 115.72139,191.22634 115.69873,191.94142 115.68359,192.65811 C 115.63362,193.22502 115.94325,192.67747 116.07656,192.68741 C 117.49031,191.81842 113.18539,194.31738 111.74759,195.14598 C 114.45857,193.57817 117.13718,191.95139 119.90628,190.48799 C 120.70229,190.06704 121.52899,189.71299 122.35963,189.36834 C 123.11632,189.05248 123.91216,188.86024 124.70886,188.68004 C 125.43558,188.50538 126.17412,188.53158 126.91301,188.5336 C 127.57097,188.52563 128.18135,188.72196 128.80282,188.89888 C 129.37929,189.09005 129.82189,189.48431 130.28729,189.85086 C 130.72944,190.22008 131.0084,190.71153 131.31331,191.18649 C 131.58632,191.66664 131.71872,192.20146 131.87436,192.72572 C 131.99057,193.12576 132.03676,193.53999 132.11106,193.94811 L 125.99726,197.15742 C 125.93879,196.77412 125.91348,196.38427 125.80681,196.00881 C 125.67107,195.54052 125.58058,195.05384 125.33433,194.62488 C 125.05883,194.22981 124.83989,193.79265 124.43667,193.49909 C 124.01086,193.22499 123.63097,192.88181 123.1115,192.78145 C 122.52826,192.66779 121.94912,192.53542 121.34715,192.56875 C 120.64237,192.6153 119.93538,192.63765 119.25068,192.8406 C 118.48331,193.06546 117.70889,193.27123 116.98054,193.61074 C 116.16657,193.97522 115.35513,194.34619 114.5735,194.77734 C 112.07038,196.15362 110.14818,197.30782 118.15541,192.68383 C 115.66239,194.12397 113.32891,196.07686 110.55426,196.85056 C 110.08327,196.54859 109.64163,196.54418 109.5587,195.82794 C 109.5602,195.06304 109.55687,194.29907 109.71843,193.54261 C 109.8554,192.50843 110.00043,191.47043 109.9385,190.42389 C 109.8128,189.32845 109.65895,188.24667 109.13394,187.25484 C 108.59781,186.33311 108.04919,185.43222 107.17474,184.78236 C 106.40938,184.27684 105.66589,183.81407 104.71436,183.78254 C 103.81679,183.83226 102.97311,183.94847 102.18878,184.44044 C 112.40254,178.49355 107.3776,181.0122 105.44487,183.00553 C 104.58393,183.99598 103.75016,185.00805 103.05845,186.12841 C 102.3353,187.32598 101.60978,188.52616 101.08644,189.82904 C 100.6286,190.98193 100.17206,192.13811 99.929745,193.36056 C 99.764995,194.21186 99.607175,195.06376 99.544415,195.93049 C 99.258895,198.65505 96.564975,201.71715 93.166285,200.36215 C 92.928375,200.02394 92.645045,199.71098 92.453575,199.33696 C 92.118165,198.99905 91.905595,198.58897 91.381715,198.521 C 92.846995,197.61196 97.206425,194.82786 95.770845,195.7831 C 95.067065,196.50924 94.454415,197.27901 94.106525,198.24925 C 93.704755,199.49498 93.341045,200.71691 93.606835,202.04215 C 94.121665,203.48606 94.808505,204.37063 96.417725,204.72605 C 98.670545,205.15553 100.95733,205.1995 103.23359,204.89188 C 106.43052,204.44298 109.57808,203.7176 112.61387,202.60285 C 116.60449,201.14675 120.51002,199.46946 124.2643,197.47476 C 125.61347,196.75943 132.97419,192.68814 125.52485,196.92239 C 123.16493,198.26379 134.93524,191.52461 132.48917,192.7016 C 136.59347,190.05062 140.67904,187.34306 144.38157,184.14034 C 146.31817,182.43894 148.2539,180.70555 149.73987,178.57975 C 150.04018,178.08026 150.35526,177.59125 150.53766,177.03306 L 156.82554,174.10398 z "
       id="path5413"
       style="color:#000000;fill:#000000;fill-opacity:1;fill-rule:nonzero;stroke:none;stroke-width:1px;stroke-linecap:butt;stroke-linejoin:miter;marker:none;marker-start:none;marker-mid:none;marker-end:none;stroke-miterlimit:4;stroke-dasharray:none;stroke-dashoffset:0;stroke-opacity:1;visibility:visible;display:inline;overflow:visible;enable-background:accumulate" />
    <g
       id="g3356"
       transform="matrix(1.4449751,0,0,1.4449751,-91.994651,-96.248436)">
      <path
         id="path3358"
         d="M 198.49498,300.49997 C 198.3977,304.98787 197.80005,309.99137 194.43189,313.29551 C 193.01008,314.86247 190.7138,314.82109 188.762,314.99499 C 185.59242,315.12875 182.25425,314.82485 179.29728,316.20936 C 177.06932,316.13751 174.69763,318.5708 175.69094,320.79816 C 176.82976,322.67351 179.33315,322.10023 181.13955,322.70354 C 183.40427,323.24833 185.73678,323.85867 187.74353,325.05249 C 190.50472,327.4496 191.03691,331.46371 193.79214,333.86601 C 195.64979,334.85009 197.60567,333.40912 198.56235,331.84849 C 199.74197,330.24387 200.48531,328.40976 201.27928,326.632 C 202.98248,324.61148 205.90867,325.19784 208.22212,324.6713 C 210.39283,323.4971 213.35062,323.26636 214.71228,320.96267 C 215.72227,319.20632 213.97649,317.45082 212.46313,316.75765 C 210.32759,315.70026 207.48662,314.94573 206.73498,312.36847 C 206.12364,309.61296 207.69797,307.02934 208.25829,304.40429 C 209.1859,302.33054 207.94438,299.82051 205.80065,299.14357 C 203.38357,298.17863 200.32656,298.5471 198.49498,300.49997 z "
         style="opacity:1;color:#000000;fill:#ff6600;fill-opacity:1;fill-rule:nonzero;stroke:none;stroke-width:1px;stroke-linecap:butt;stroke-linejoin:miter;marker:none;marker-start:none;marker-mid:none;marker-end:none;stroke-miterlimit:4;stroke-dasharray:none;stroke-dashoffset:0;stroke-opacity:1;visibility:visible;display:inline;overflow:visible;enable-background:accumulate" />
      <path
         d="M 201.77738,298.01117 C 201.75785,298.46172 201.69354,298.90965 201.6432,299.35765 C 201.53585,300.19887 201.42806,301.03995 201.32627,301.88186 C 201.18771,303.02195 201.0614,304.16342 200.93424,305.30482 C 200.79672,306.5209 200.66305,307.73739 200.52406,308.9533 C 200.43363,309.81235 200.304,310.66595 200.1755,311.51965 C 200.15351,311.95867 199.94726,312.34651 199.81847,312.75154 C 199.98754,317.97387 195.01261,315.28332 193.10624,316.25167 C 192.45541,316.19501 191.80205,316.17118 191.1497,316.13797 C 189.99226,316.05582 188.83261,316.05798 187.67336,316.06361 C 186.1781,316.0911 184.68853,316.22494 183.2062,316.41622 C 181.72323,316.59262 180.2637,316.90408 178.80703,317.22459 C 177.61547,317.49434 176.46645,317.8947 175.33248,318.34045 C 170.74808,320.83937 182.05745,314.05821 178.74308,316.40976 C 178.21013,316.78929 177.96017,317.32187 177.68108,317.87785 C 177.49632,318.36719 177.72563,318.73534 177.84839,319.18172 C 178.14424,319.68366 178.64114,319.93778 179.1066,320.24825 C 179.84765,320.6469 180.66556,320.81807 181.47818,320.99924 C 182.51416,321.20374 183.56622,321.29302 184.61661,321.38338 C 185.69841,321.46026 186.7802,321.53105 187.86053,321.62559 C 188.69297,321.64238 189.46341,321.90515 190.24232,322.15146 C 190.88649,322.39363 191.24819,322.89007 191.66871,323.38874 C 192.01469,323.94124 192.16381,324.57366 192.34943,325.18929 C 192.51785,325.86699 192.65625,326.55168 192.80093,327.23472 C 192.9341,327.84575 193.09658,328.44941 193.25617,329.05377 C 193.38148,329.59528 193.59804,330.10428 193.80293,330.61745 C 193.96368,331.10991 194.36637,331.34479 194.71639,331.66894 C 195.19288,331.99127 195.72613,332.00179 196.27107,332.07048 C 196.95899,332.12243 197.58659,331.89508 198.23132,331.70589 C 199.58817,331.02568 195.61195,333.24031 194.29152,333.98878 C 194.85633,333.62458 195.26198,333.10055 195.69215,332.59928 C 196.07036,332.10808 196.28283,331.5293 196.52139,330.96551 C 196.72382,330.49143 196.81003,329.98456 196.93005,329.48771 C 196.96168,329.05648 197.06804,328.6389 197.14994,328.21739 C 197.1987,327.85784 197.46645,327.62025 197.64158,327.33325 C 199.59786,325.17419 201.96437,324.07257 204.57751,323.67671 C 205.1233,323.61512 205.67095,323.57303 206.21821,323.52729 C 206.81468,323.46921 207.41413,323.46309 208.01271,323.44539 C 208.65061,323.42862 209.28863,323.4173 209.92663,323.40511 C 210.59844,323.4027 211.26922,323.37324 211.94023,323.34393 C 212.59627,323.3295 213.24717,323.24657 213.89816,323.17319 C 214.51486,323.13822 215.08989,322.92777 215.67142,322.74601 C 216.04367,322.61664 216.36289,322.38717 216.70198,322.19551 C 214.8612,323.25707 213.02042,324.31863 211.17964,325.38019 C 211.2592,325.33081 211.33877,325.28143 211.41834,325.23205 C 211.93106,324.95234 212.19373,324.48898 212.50512,324.02812 C 212.7839,323.49626 212.8164,322.91356 212.8879,322.33319 C 212.93427,321.75282 212.76964,321.20728 212.63525,320.65373 C 212.47811,320.0671 212.07961,319.65499 211.70706,319.20438 C 211.20535,318.70152 210.57516,318.38892 209.9521,318.06839 C 209.2093,317.69682 208.41423,317.46403 207.61901,317.23859 C 206.86264,317.03437 206.08747,316.91956 205.31583,316.79194 C 204.66845,316.75356 204.16009,316.46257 203.61507,316.16867 C 203.12069,315.76687 203.0352,315.23707 202.87438,314.66597 C 202.77323,313.96743 202.88285,313.2723 202.95204,312.57809 C 203.059,311.76458 203.24317,310.96499 203.42497,310.16589 C 203.61933,309.29617 203.85327,308.43622 204.08375,307.57561 C 204.30177,306.77384 204.49485,305.9658 204.68531,305.15718 C 204.84223,304.43406 205.01793,303.7153 205.19043,302.99584 C 205.34798,302.35878 205.53739,301.73033 205.72119,301.10054 L 211.80963,298.22312 C 211.62169,298.84505 211.42848,299.46561 211.25588,300.09215 C 211.07598,300.80894 210.88889,301.52411 210.73254,302.24659 C 210.54253,303.06412 210.35013,303.88116 210.1303,304.69134 C 209.90024,305.54441 209.66088,306.39536 209.46511,307.25719 C 209.28528,308.03744 209.09827,308.8171 208.97867,309.60952 C 208.90122,310.24382 208.7866,310.87849 208.84164,311.52051 C 208.94992,311.90945 208.90356,312.27112 209.29735,312.51461 C 209.79431,312.68172 210.27875,312.90263 210.81864,312.93319 C 211.60056,313.08241 212.38666,313.21654 213.14993,313.44873 C 213.97135,313.71204 214.79327,313.9799 215.55983,314.38333 C 216.23963,314.75855 216.92125,315.1314 217.45779,315.70758 C 217.88108,316.23925 218.33887,316.73628 218.54045,317.4072 C 218.70975,318.02773 218.91012,318.63953 218.89818,319.29443 C 218.86093,319.94402 218.86234,320.59713 218.62943,321.21818 C 218.37886,321.77829 218.18304,322.34495 217.68719,322.75162 C 215.30439,324.15832 213.01577,325.98515 210.34421,326.87111 C 209.73305,327.00746 209.12542,327.15558 208.49662,327.19189 C 207.83679,327.24641 207.17746,327.30791 206.51486,327.32006 C 205.84001,327.34138 205.16528,327.36454 204.49003,327.37174 C 203.85163,327.38682 203.21317,327.39997 202.57498,327.42269 C 201.98266,327.44945 201.39025,327.4719 200.80032,327.53585 C 200.25889,327.59183 199.71459,327.63336 199.18004,327.74078 C 197.44919,328.42144 202.22499,325.54986 203.93914,324.82815 C 203.72995,325.00058 203.38741,325.05847 203.29068,325.36266 C 203.17744,325.74111 202.96243,326.09519 202.99322,326.51451 C 202.89974,327.05451 202.82494,327.59966 202.62784,328.11619 C 202.40173,328.72676 202.19618,329.34837 201.86221,329.91215 C 201.46046,330.47446 201.08923,331.06289 200.54042,331.5028 C 198.05372,332.97901 195.71298,334.94042 192.90736,335.81212 C 192.20076,335.93299 191.50552,336.09838 190.7813,335.96665 C 190.15798,335.80885 189.53723,335.70682 189.01909,335.2815 C 188.5936,334.87356 188.15051,334.50928 187.9307,333.93487 C 187.70874,333.39079 187.4707,332.85215 187.33837,332.27568 C 187.17463,331.65773 187.0095,331.04024 186.87335,330.4153 C 186.73245,329.74214 186.59761,329.06741 186.43496,328.39909 C 186.27498,327.85826 186.15169,327.29878 185.8566,326.81005 C 185.48449,326.45438 185.21428,326.03939 184.66222,325.91344 C 183.92234,325.72604 183.18608,325.5317 182.41543,325.50435 C 181.34013,325.41572 180.26377,325.34179 179.18817,325.25643 C 178.11409,325.14984 177.03701,325.04831 175.98168,324.81115 C 175.11194,324.58921 174.23777,324.37126 173.46172,323.89847 C 172.91303,323.49569 172.33218,323.15144 171.99036,322.53214 C 171.76019,321.95841 171.50157,321.43946 171.60179,320.79172 C 171.80591,320.10245 171.96254,319.45461 172.52495,318.93722 C 174.84584,316.85378 177.72211,315.44556 180.58058,314.22032 C 181.73173,313.82587 182.89113,313.4548 184.08614,313.212 C 185.55124,312.91629 187.01903,312.6311 188.50625,312.46724 C 190.01125,312.29746 191.52179,312.17564 193.03705,312.15624 C 194.22126,312.15726 195.40531,312.16349 196.58848,312.223 C 197.2486,312.2428 197.91,312.2804 198.57017,312.26253 C 196.89043,313.28049 195.31595,314.48464 193.55793,315.3605 C 193.77648,315.07611 194.14165,314.93542 194.11746,314.45503 C 194.28561,313.60952 194.45523,312.76442 194.54768,311.90543 C 194.70378,310.69221 194.84269,309.47715 194.97604,308.26118 C 195.09524,307.12369 195.21109,305.98586 195.33501,304.84888 C 195.4232,304.01575 195.51351,303.1829 195.61068,302.35076 C 195.64861,301.93356 195.68732,301.51654 195.71764,301.09876 L 201.77738,298.01117 z "
         id="path3360"
         style="opacity:1;color:#000000;fill:#000000;fill-opacity:1;fill-rule:nonzero;stroke:none;stroke-width:1px;stroke-linecap:butt;stroke-linejoin:miter;marker:none;marker-start:none;marker-mid:none;marker-end:none;stroke-miterlimit:4;stroke-dasharray:none;stroke-dashoffset:0;stroke-opacity:1;visibility:visible;display:inline;overflow:visible;enable-background:accumulate" />
    </g>
    <path
       style="fill:#ffc147;fill-opacity:1;fill-rule:evenodd;stroke:none;stroke-width:1px;stroke-linecap:butt;stroke-linejoin:miter;stroke-opacity:1"
       d="M 145.64762,195.18413 C 158.46246,161.59792 171.36849,127.49032 190.48591,96.946021 C 199.48373,84.814949 219.88758,66.246544 233.45616,82.396968 C 249.70485,110.29704 241.59581,143.94808 240.14868,174.40205 C 240.26586,197.20452 234.02165,221.00148 241.37828,243.12188 C 253.68315,261.02609 276.31926,243.91557 278.46708,227.14504 C 282.95719,210.5498 286.85063,185.71646 307.69602,190.5076 C 307.17729,169.6501 326.25396,170.00482 329.52984,188.61957 C 342.48789,211.1122 353.84331,234.79567 359.8306,260.13431 C 367.61616,275.01701 377.71976,297.95491 359.01352,309.3427 C 335.47563,325.50023 305.56205,326.38484 278.59569,333.19678 C 233.28184,341.24817 183.9147,345.81729 140.72901,326.63021 C 117.89133,318.40781 114.61103,291.82314 122.43376,271.80088 C 129.92478,248.83347 135.15362,225.15403 142.86749,202.2873 C 143.77148,199.91076 144.70299,197.54477 145.64762,195.18413 z "
       id="path4379" />
    <path
       style="fill:#ff6600;fill-opacity:1;fill-rule:evenodd;stroke:none;stroke-width:1px;stroke-linecap:butt;stroke-linejoin:miter;stroke-opacity:1"
       d="M 174.43693,137.10036 C 152.8741,137.77417 131.18641,135.57943 109.72599,138.55083 C 88.383972,148.75116 130.64167,162.17272 143.15049,160.44592 C 167.61866,157.2899 167.95785,167.85599 187.2782,159.21825 C 206.43395,173.47706 220.04098,137.94161 174.43693,137.10036 z "
       id="path3384"
       sodipodi:nodetypes="ccccc" />
    <path
       style="fill:#cdc457;fill-opacity:1;fill-rule:evenodd;stroke:none;stroke-width:1px;stroke-linecap:butt;stroke-linejoin:miter;stroke-opacity:1"
       d="M 151.18424,162.64883 C 145.84449,172.7437 160.05538,171.80805 165.91161,172.38399 C 173.68057,176.54996 167.76536,186.03071 168.67581,192.7384 C 166.83487,198.38761 169.86207,211.40177 176.68039,202.80027 C 181.24417,196.61508 188.61523,192.69226 191.19181,185.04859 C 192.21486,178.16022 197.12702,172.58248 204.28124,171.87137 C 210.02149,169.59217 218.68568,169.62368 220.07979,162.00542 C 223.53846,158.57115 223.29492,144.19872 217.26098,151.55577 C 216.07147,157.90654 212.77774,165.08297 205.01619,164.0832 C 195.40695,165.01132 185.54528,159.6048 176.31744,163.99794 C 169.61313,158.62507 160.29698,162.10992 152.58803,162.40396 L 151.18424,162.64883 L 151.18424,162.64883 z "
       id="path4366" />
    <path
       style="fill:#000000;fill-opacity:1;stroke:none;stroke-opacity:1"
       id="path2213"
       d="M 172.61919,140.19588 C 171.26266,140.05122 169.89176,140.01326 168.52875,139.93874 C 163.68408,139.73681 158.83564,139.63566 153.98751,139.5629 C 147.2394,139.46422 140.49066,139.5227 133.74262,139.58984 C 128.23376,139.65024 122.72687,139.84211 117.22711,140.16087 C 113.5986,140.3703 109.98253,140.73414 106.40247,141.36228 C 102.08164,141.97602 93.943402,147.24771 108.72583,138.81556 C 107.42879,139.56162 106.79962,140.6601 106.25127,141.98281 C 105.87269,143.39904 106.25975,144.69801 106.6801,146.04343 C 107.25994,147.5897 108.33601,148.77874 109.43998,149.96223 C 110.82737,151.31408 112.54862,152.1557 114.26059,153.00487 C 116.51891,154.00482 118.90292,154.65477 121.29888,155.22567 C 124.33893,155.91642 127.42141,156.3792 130.5109,156.77933 C 134.15226,157.23025 137.8109,157.51626 141.47022,157.77231 C 145.2677,158.04219 149.07257,158.18839 152.8784,158.26709 C 156.094,158.3201 159.31001,158.33859 162.52595,158.35625 C 164.8455,158.36857 167.16506,158.37816 169.48464,158.38768 C 171.18598,158.39459 172.88735,158.40024 174.58871,158.40576 C 175.88466,158.43462 177.17917,158.37042 178.47376,158.32134 C 179.36536,158.28602 180.2573,158.26035 181.14914,158.23228 L 173.18627,164.05309 C 172.30064,164.07948 171.41496,164.10504 170.5294,164.13402 C 169.2392,164.16861 167.94924,164.19121 166.65855,164.15909 C 164.97484,164.14108 163.29111,164.12263 161.60743,164.10062 C 159.31647,164.07052 157.02554,164.03983 154.73465,164.00465 C 151.5485,163.956 148.36223,163.91014 145.17658,163.83386 C 141.36659,163.72491 137.55768,163.56744 133.75548,163.29465 C 130.07118,163.03169 126.3872,162.74383 122.7209,162.28715 C 119.58604,161.88084 116.4574,161.40973 113.37449,160.70063 C 110.91585,160.09756 108.46515,159.41831 106.15863,158.35594 C 104.35841,157.43314 102.55363,156.51319 101.11077,155.05484 C 99.926032,153.76228 98.774502,152.45815 98.120982,150.79743 C 97.612002,149.29939 97.133522,147.82293 97.393992,146.21306 C 97.808582,144.68698 98.314012,143.3662 99.615332,142.34765 C 104.80598,139.34371 108.43029,136.38717 114.08354,135.59112 C 117.62933,135.06597 121.20178,134.7713 124.78255,134.61275 C 130.22706,134.37614 135.67572,134.24403 141.12543,134.21723 C 147.86922,134.18043 154.61315,134.15511 161.35692,134.21928 C 166.35714,134.2386 171.35764,134.21443 176.3575,134.28858 C 177.79787,134.30316 179.24052,134.35426 180.67993,134.33941 L 172.61919,140.19588 z " />
    <path
       style="fill:#000000;fill-opacity:1;stroke:none;stroke-opacity:1"
       id="path2217"
       d="M 169.30294,162.24851 C 169.83896,161.92434 170.40375,161.64812 170.9589,161.35798 C 171.8377,160.89921 172.75083,160.51169 173.6585,160.11508 C 174.59726,159.65653 175.60024,159.36612 176.5898,159.04727 C 177.37778,158.74847 178.13141,158.95406 178.91651,159.02395 C 179.57093,159.15481 179.92673,159.64155 180.39097,160.04477 C 180.77098,160.47864 180.94197,161.02465 181.17626,161.53684 C 181.03108,161.93575 181.68081,162.10112 181.70302,162.12595 C 182.01566,161.89626 182.35613,161.70752 182.68264,161.49834 C 180.4129,162.90288 173.46589,166.87954 175.70418,165.42541 C 176.20299,165.05364 176.6786,164.65394 177.16008,164.26052 C 177.63465,163.91583 178.0882,163.54382 178.55099,163.18415 C 181.19026,160.3819 185.8123,159.29914 188.40051,157.96145 C 188.92279,158.07948 189.39703,158.33049 189.89195,158.51983 C 190.41834,158.80293 190.95171,159.0716 191.4797,159.35173 C 192.04657,159.66643 192.60804,159.99048 193.16839,160.31675 C 193.82806,160.69361 194.53305,160.97758 195.23028,161.27532 C 196.11524,161.65406 197.04525,161.89004 197.96869,162.14872 C 199.09274,162.42765 200.24205,162.57398 201.3881,162.7262 C 202.75571,162.87737 204.12553,162.80252 205.49269,162.71098 C 207.02564,162.58877 208.51908,162.24239 210.00564,161.86992 C 211.58936,161.45294 213.07146,160.77054 214.54923,160.08215 C 220.47971,156.51769 203.64169,167.06914 210.21593,162.3557 C 211.41628,161.50361 212.37551,160.41258 213.29912,159.28376 C 214.11527,158.2075 214.46476,156.95481 214.77814,155.67014 C 215.04301,154.45612 214.91434,153.26058 214.72596,152.05403 C 214.52948,150.96539 213.97234,150.03472 213.46318,149.07772 C 212.9459,148.2034 212.16189,147.57558 211.41933,146.9081 C 210.92125,146.48635 210.34263,146.18393 209.79402,145.83856 L 218.08153,140.48085 C 218.65783,140.87339 219.26711,141.22216 219.78713,141.69345 C 220.58809,142.44816 221.43296,143.16196 221.98783,144.1339 C 222.57199,145.17416 223.13183,146.22487 223.39221,147.40332 C 223.64288,148.71824 223.83606,150.02678 223.60559,151.36773 C 223.34947,152.76605 223.06157,154.14442 222.29272,155.37152 C 221.42677,156.60624 220.51505,157.79174 219.30931,158.72788 C 215.47749,161.67321 211.23673,164.04468 206.89557,166.16777 C 205.37621,166.81372 203.84905,167.44697 202.23106,167.81039 C 200.70118,168.136 199.16664,168.45142 197.59847,168.52557 C 196.18462,168.56869 194.76703,168.60598 193.36159,168.39814 C 192.18014,168.22468 190.99485,168.05682 189.84267,167.73254 C 188.88567,167.43716 187.91906,167.16673 187.00123,166.75786 C 186.27763,166.43267 185.543,166.12802 184.85947,165.72076 C 184.30519,165.40575 183.75845,165.07669 183.18718,164.79254 C 182.67478,164.53029 182.17124,164.24681 181.63557,164.03364 C 181.21177,163.93342 180.79616,163.70785 180.34636,163.79333 C 182.82227,162.36712 190.28877,158.15998 187.76089,159.49191 C 187.30248,159.86401 186.84042,160.22986 186.37553,160.59407 C 185.88476,160.97321 185.39153,161.34918 184.91001,161.74144 C 181.87863,164.15841 178.56137,166.22902 174.92274,167.69285 C 174.40563,167.73996 173.95411,168.07088 173.44679,167.68941 C 173.11018,167.26129 172.59484,166.96192 172.49468,166.3536 C 172.30842,165.96357 172.2153,165.5158 171.89478,165.19879 C 171.55468,165.05387 171.26145,164.62682 170.80537,164.73457 C 170.12238,164.80424 169.43102,164.7921 168.78338,165.08699 C 167.82128,165.4443 166.85507,165.79035 165.92768,166.23439 C 165.02852,166.65735 164.12096,167.06395 163.2529,167.54972 C 162.6769,167.86109 162.10528,168.18333 161.5193,168.47469 L 169.30294,162.24851 z " />
    <path
       style="fill:#000000;fill-opacity:1;stroke:none;stroke-opacity:1"
       id="path2219"
       d="M 222.96711,144.00339 C 223.38274,144.41127 223.70081,144.89994 224.05162,145.36052 C 224.58423,146.0853 224.89977,146.92626 225.25989,147.74061 C 225.68875,148.82244 225.89765,149.96596 226.11383,151.1032 C 226.34301,152.39884 226.25536,153.70151 226.15382,155.00197 C 226.02991,156.37401 225.65353,157.69079 225.25743,159.0022 C 224.81802,160.45038 223.99727,161.69304 223.15445,162.92731 C 222.22635,164.23662 220.99878,165.24468 219.75918,166.2376 C 215.77923,168.96856 211.57021,171.37971 207.12852,173.26426 C 205.67245,173.85352 204.15551,174.25998 202.63963,174.65879 C 201.24956,175.01436 199.83723,175.26726 198.42598,175.52042 C 197.21035,175.65131 196.02826,175.92177 194.84246,176.19703 C 193.27926,176.61855 177.88301,185.73841 200.98413,172.50954 C 200.28782,172.94706 199.80342,173.60115 199.27958,174.21617 C 198.61144,175.04964 198.04363,175.95446 197.47207,176.85464 C 196.64927,178.16347 195.88224,179.50587 195.10854,180.84396 C 194.04082,182.68869 192.99178,184.54399 191.9136,186.38266 C 190.65559,188.5229 189.359,190.64006 188.05051,192.74973 C 186.76318,194.82396 185.42452,196.86514 184.04383,198.87822 C 183.00802,200.44153 181.84521,201.90369 180.61414,203.31363 C 177.39156,206.41098 172.77931,207.90217 169.04148,209.87818 C 167.85713,210.05031 167.05959,209.51168 166.08429,208.991 C 165.08357,208.25847 164.50169,207.20842 163.91705,206.14957 C 163.28425,204.84001 162.94386,203.42803 162.59757,202.02454 C 162.21145,200.40459 162.05364,198.74956 161.90552,197.09558 C 161.7482,195.44598 161.80253,193.79147 161.86325,192.13959 C 161.93689,190.57066 162.16316,189.01644 162.38486,187.46353 C 162.56654,186.09167 162.81162,184.73147 163.0789,183.37434 C 163.33883,182.18976 163.64489,181.0161 163.95169,179.84301 C 164.19968,178.96788 164.39067,178.08132 164.57443,177.19174 C 164.8652,176.80418 164.45342,176.40722 164.40812,176.11357 C 163.96907,175.95553 163.48579,176.02362 163.02895,176.00015 C 162.23474,176.01748 161.44032,176.02326 160.64597,176.03235 C 159.71209,176.05635 158.77862,176.12091 157.84532,176.17019 C 156.80531,176.22158 155.76436,176.24874 154.72367,176.28137 C 153.73954,176.35016 152.76141,176.24152 151.78431,176.16364 C 150.92796,176.05209 150.14977,175.69303 149.36209,175.36721 C 148.6116,175.06898 148.09012,174.49172 147.52662,173.94754 C 146.98348,173.39225 146.63694,172.70162 146.25717,172.03579 C 145.8721,171.37066 145.7232,170.63067 145.53986,169.89783 C 145.38071,169.17751 145.49623,168.4534 145.53188,167.73079 C 145.59167,167.05489 145.83748,166.42427 146.02642,165.7806 C 146.18605,165.12916 146.5851,164.59989 146.90863,164.03234 C 147.08089,163.7673 147.33678,163.5766 147.54986,163.34978 L 156.7754,159.7093 C 156.53506,159.86436 156.25075,159.96236 156.04869,160.17817 C 155.66141,160.62536 155.20042,160.99896 155.01156,161.59338 C 154.79798,162.17827 154.53835,162.75148 154.43499,163.37052 C 154.35664,163.99376 154.19777,164.61466 154.28879,165.25045 C 154.4382,165.88964 154.50199,166.54825 154.85661,167.12536 C 155.20359,167.70266 155.48024,168.32807 155.98801,168.7945 C 156.50005,169.20283 156.93487,169.6918 157.59929,169.87655 C 158.33542,170.10824 159.04495,170.42954 159.83639,170.43764 C 160.78375,170.47171 161.7317,170.52128 162.68005,170.4627 C 163.71936,170.42451 164.75888,170.39034 165.79722,170.32974 C 166.74219,170.2767 167.68695,170.2106 168.63396,170.21344 C 169.44733,170.20275 170.26222,170.17296 171.07489,170.21863 C 171.75893,170.39829 172.42878,170.38502 172.92465,170.98862 C 173.21496,171.61026 173.63049,172.06696 173.46479,172.83045 C 173.29726,173.76309 173.12061,174.69013 172.83766,175.5978 C 172.52725,176.7637 172.21213,177.92808 171.92406,179.0998 C 171.6376,180.44265 171.35846,181.78597 171.18178,183.14891 C 170.94176,184.67595 170.70113,186.20564 170.6071,187.75026 C 170.51796,189.36282 170.44376,190.97934 170.58297,192.5926 C 170.70857,194.19957 170.84418,195.8082 171.22184,197.38064 C 171.5464,198.70459 171.85922,200.03964 172.45793,201.2739 C 172.97246,202.18625 173.4651,203.07457 174.38182,203.64801 C 175.24511,203.93488 175.94396,204.23013 176.88189,203.89506 C 176.80867,203.9393 167.08511,210.0532 171.56885,207.06458 C 172.893,205.73253 174.106,204.31481 175.15452,202.74736 C 176.56026,200.74901 177.92612,198.72345 179.2152,196.64736 C 180.52727,194.5561 181.80688,192.44458 183.05967,190.31729 C 184.12835,188.49656 185.159,186.65471 186.19797,184.81695 C 186.95099,183.48378 187.68898,182.14211 188.47352,180.82702 C 189.02594,179.90892 189.57814,178.98939 190.20242,178.11739 C 190.70495,177.4456 191.18298,176.74779 191.79131,176.16464 C 195.28346,174.10559 198.62944,171.21005 202.67429,170.21246 C 203.87024,170.00466 205.06718,169.80186 206.26606,169.60861 C 207.65632,169.34421 209.04648,169.07461 210.41199,168.69836 C 211.90004,168.26771 213.38978,167.83208 214.80795,167.19872 C 222.22285,163.83039 204.67399,173.122 210.65917,169.83969 C 211.91889,168.93495 213.17664,168.0218 214.15782,166.80043 C 215.02329,165.6653 215.88637,164.52937 216.37126,163.16657 C 216.7914,161.92362 217.204,160.67808 217.34886,159.36498 C 217.48091,158.14924 217.60978,156.92978 217.42426,155.70958 C 217.23196,154.64156 217.04284,153.56866 216.64176,152.55335 C 216.30999,151.81466 216.0257,151.04708 215.52207,150.40008 C 215.18454,149.99207 214.89044,149.54265 214.46704,149.21225 L 222.96711,144.00339 z " />
    <path
       style="fill:#000000;fill-opacity:1;stroke:none;stroke-opacity:1"
       id="path2225"
       d="M 165.64914,140.42443 C 165.9093,139.51527 166.23,138.62452 166.53299,137.72887 C 167.28688,135.2038 168.23925,132.74815 169.17742,130.28775 C 171.16144,125.12106 173.58991,120.14737 176.0917,115.21657 C 178.85037,109.71372 181.99589,104.42584 185.41659,99.312581 C 188.41899,94.906291 191.85831,90.832991 195.57578,87.019338 C 200.87571,81.50862 207.61176,78.316914 214.22508,74.604144 C 217.63244,73.042017 221.2521,72.316435 224.97991,72.273788 C 228.31481,72.308417 231.30583,73.434874 234.09798,75.172718 C 237.03648,77.168797 238.93969,80.101528 240.57674,83.179827 C 242.86996,87.626171 243.68031,92.543081 244.27939,97.451531 C 245.04278,104.67769 245.30406,111.95538 245.30172,119.21905 C 245.24369,126.69325 244.92827,134.1619 244.55696,141.62601 C 244.21695,148.35197 243.81154,155.07443 243.41511,161.79725 C 243.07305,167.59343 242.71367,173.38855 242.35835,179.18392 C 242.05792,183.95233 241.80833,188.72366 241.57977,193.49598 C 241.42317,196.99505 241.25475,200.49394 241.14751,203.99495 C 241.08223,206.36877 241.05051,208.7433 241.00957,211.11763 C 240.97555,213.02389 240.94526,214.93021 240.91669,216.83658 C 240.86893,218.71827 240.89978,220.60013 240.92476,222.48184 C 240.94424,224.43257 240.97578,226.38286 241.02543,228.33301 C 241.10394,230.25284 241.22144,232.17066 241.34836,234.08777 C 241.4769,235.88468 241.66937,237.67538 241.87154,239.46507 C 242.07149,241.06347 242.3142,242.6561 242.56214,244.24761 C 242.7855,245.69991 243.03203,247.14857 243.26701,248.59902 C 243.47541,249.8419 243.69715,251.08222 243.92872,252.32098 C 244.10199,253.35929 244.33573,254.38544 244.55882,255.41352 C 244.73886,256.25593 244.98763,257.08074 245.22242,257.90866 C 245.41933,258.61638 245.6749,259.30538 245.9122,259.99985 C 246.00649,260.30046 246.12961,260.5907 246.23828,260.88596 L 237.565,265.708 C 237.45892,265.40482 237.34555,265.10411 237.24676,264.79836 C 237.0047,264.08572 236.74109,263.37948 236.54272,262.65263 C 236.30382,261.80271 236.04841,260.95635 235.86889,260.09091 C 235.64618,259.04565 235.40919,258.00285 235.24079,256.94675 C 235.01683,255.69844 234.7983,254.44958 234.60016,253.19685 C 234.36903,251.74024 234.13009,250.28471 233.90811,248.82665 C 233.66106,247.22153 233.42007,245.61504 233.22215,244.00301 C 233.01921,242.19505 232.83199,240.38583 232.69654,238.57118 C 232.56554,236.6416 232.45379,234.71098 232.3656,232.77889 C 232.30596,230.82582 232.27368,228.87259 232.24919,226.91871 C 232.21939,225.0291 232.17963,223.13925 232.22461,221.24949 C 232.2541,219.33709 232.28341,217.42465 232.33597,215.5127 C 232.40472,213.11499 232.48034,210.71744 232.57762,208.32069 C 232.73696,204.78839 232.96348,201.2595 233.16041,197.72917 C 233.44523,192.93142 233.74037,188.13426 234.0695,183.3393 C 234.47371,177.52606 234.85904,171.71149 235.244,165.89693 C 235.68445,159.16124 236.11725,152.42478 236.48714,145.68482 C 236.89614,138.22797 237.25354,130.76551 237.30421,123.29617 C 237.27059,116.09304 237.07295,108.87337 236.17197,101.71909 C 235.47973,96.964771 234.59438,92.204251 232.33848,87.903831 C 230.74577,84.985698 228.90143,82.213076 226.05044,80.376588 C 223.34045,78.793628 220.45268,77.830784 217.27225,77.90764 C 213.64003,78.077196 210.12248,78.891839 206.84486,80.510956 C 220.94169,72.124009 206.66045,80.238021 204.20248,83.441117 C 200.41614,87.204771 196.91715,91.240771 193.85955,95.625291 C 190.38823,100.7006 187.19067,105.95527 184.4246,111.45216 C 181.97551,116.28553 179.63039,121.18293 177.78176,126.28294 C 176.91298,128.67864 176.07293,131.08679 175.403,133.54702 C 175.14885,134.40318 174.87311,135.25659 174.64068,136.11711 L 165.64914,140.42443 z " />
    <path
       style="fill:#51320e;fill-opacity:1;fill-rule:evenodd;stroke:none;stroke-width:1px;stroke-linecap:butt;stroke-linejoin:miter;stroke-opacity:1"
       d="M 192.97373,72.876454 C 205.57678,64.478905 227.60382,53.318751 238.47789,69.817737 C 242.66294,83.644587 248.44372,99.404171 247.89735,113.13076 C 233.08621,116.63337 215.77184,105.68178 199.88086,103.81614 C 189.30038,103.96629 163.51852,95.621311 179.77108,83.084921 C 184.36024,79.92944 187.74003,75.091945 192.97373,72.876454 z "
       id="path4394" />
    <path
       style="fill:#5e588e;fill-opacity:0.82738097;fill-rule:evenodd;stroke:none;stroke-width:1px;stroke-linecap:butt;stroke-linejoin:miter;stroke-opacity:1"
       d="M 220.64853,87.827411 C 251.58878,54.842617 289.93358,32.337757 335.23452,39.14138 C 315.13704,59.898875 359.38136,74.970503 372.56662,43.289518 C 381.28901,31.994875 366.42899,20.722727 355.33383,22.618268 C 332.77394,23.254766 311.10478,30.774686 289.8633,37.752379 C 264.43368,47.361545 239.70774,60.508284 220.61221,80.193382 C 219.93645,81.935 215.27663,88.888371 220.64853,87.827411 z "
       id="path4411"
       sodipodi:nodetypes="ccccccc" />
    <path
       style="fill:#5e588e;fill-opacity:0.82738097;fill-rule:evenodd;stroke:none;stroke-width:1px;stroke-linecap:butt;stroke-linejoin:miter;stroke-opacity:1"
       d="M 290.64853,43.541691 C 285.65765,52.011843 294.71381,62.201553 303.79363,58.138157 C 312.03966,57.674286 319.89578,47.873514 327.82131,51.666233 C 332.00984,59.319151 340.55213,62.72866 349.04348,62.288329 C 360.26996,62.03945 367.16697,51.918528 373.33362,43.946969 C 377.23442,36.206923 372.4181,24.71574 363.06194,24.532586 C 354.00358,23.159231 344.68209,22.343273 335.76676,25.087103 C 325.9032,26.589648 316.34591,29.674985 306.50045,31.251494 C 301.12503,33.104639 289.52775,36.282112 290.64853,43.541691 z "
       id="path4432" />
    <path
       style="fill:#000000;fill-opacity:1;stroke:none;stroke-opacity:1"
       id="path2363"
       d="M 204.18142,101.58909 C 204.52575,100.40377 204.94516,99.244481 205.36312,98.083961 C 206.50086,94.831481 208.45161,91.981901 210.38208,89.160341 C 215.22919,82.348985 221.40671,76.688907 227.73848,71.297574 C 239.47611,61.683514 252.76499,54.240592 266.13846,47.178192 C 278.25443,41.083459 290.8771,36.079243 303.57287,31.342236 C 313.71905,27.500303 324.29453,25.003763 334.89566,22.799922 C 342.14617,21.337075 349.45767,20.205591 356.85958,20.064147 C 361.60814,20.004447 366.14391,21.107742 370.43539,23.067435 C 373.37728,24.511854 375.71477,26.620041 377.42535,29.392494 C 379.01618,32.173868 378.67791,35.151907 378.08956,38.159687 C 377.48962,40.850778 376.42772,43.396354 375.21474,45.860874 C 374.387,47.629859 373.28704,49.219858 372.091,50.749557 C 368.78348,53.937954 364.6597,56.595176 360.16469,57.639699 C 358.88708,57.810121 357.80732,57.317334 356.69085,56.78241 C 355.64242,56.221688 354.83095,55.383819 354.03637,54.522788 C 353.2869,53.734442 352.96045,52.742633 352.57437,51.760546 C 352.27467,50.851472 352.33212,49.915443 352.34249,48.978167 C 352.33264,48.176798 352.67548,47.473933 352.91701,46.738717 C 355.21776,43.175102 356.9162,43.725591 362.6014,40.467109 C 363.37815,40.414969 364.01394,40.78824 364.69652,41.090204 C 365.64851,41.589291 366.25133,42.427707 366.87086,43.270539 C 367.6064,44.404657 367.99316,45.689905 368.37317,46.97127 C 368.75548,48.354245 368.66538,49.754655 368.54651,51.161008 C 368.4195,52.594966 367.81804,53.833392 367.15449,55.076777 C 364.18205,59.08282 359.29899,60.785881 355.04592,63.235689 C 353.03367,64.18181 350.88287,64.700967 348.70531,65.089994 C 346.29754,65.498441 343.85233,65.463023 341.42749,65.26669 C 339.0568,65.044738 336.74873,64.475401 334.50779,63.688413 C 332.37086,62.991695 330.5509,61.737933 328.76621,60.420233 C 327.17743,59.167006 326.00815,57.544453 324.87374,55.896651 C 323.93786,54.514987 323.42797,52.977044 323.00887,51.385277 C 322.6894,49.952808 322.97753,48.606779 323.33834,47.225459 C 323.76452,45.858545 324.55942,44.689008 325.36679,43.528125 C 326.16521,42.464525 327.11017,41.52987 328.06079,40.605728 C 331.07144,37.84436 335.19973,36.205899 338.56534,34.309342 C 339.4539,34.481507 339.34342,35.120866 339.61845,35.778501 C 339.54054,36.667518 339.05338,37.408168 338.65947,38.182633 C 337.83762,39.546747 336.72605,40.695348 335.65869,41.864949 C 334.09432,43.545828 332.35396,45.042362 330.54945,46.456657 C 325.74782,50.042454 320.45533,52.91644 315.19368,55.76269 C 312.55154,57.207389 309.7805,58.390556 306.97488,59.47513 C 304.52982,60.414748 301.9571,60.917742 299.37307,61.284026 C 297.29066,61.614752 295.23604,61.429784 293.17496,61.119 C 291.37024,60.776566 289.81913,59.872251 288.28452,58.919512 C 286.86949,58.008809 285.84838,56.726743 284.86331,55.396088 C 284.11046,54.31349 283.60626,53.111412 283.15658,51.882811 C 282.77304,50.919903 282.82132,49.933591 282.82379,48.929144 C 282.90562,48.090664 283.2432,47.330071 283.54516,46.557986 C 283.88682,45.727728 284.54575,45.159447 285.15751,44.53905 C 285.60672,44.136622 286.09804,43.786437 286.5748,43.418587 L 295.8022,39.760999 C 295.30779,40.119928 294.8084,40.470215 294.31748,40.833992 C 293.69408,41.342967 293.03524,41.820113 292.56729,42.487903 C 292.23948,43.167873 291.83601,43.810172 291.69403,44.569072 C 291.60018,45.446954 291.46955,46.280164 291.79923,47.145014 C 292.20933,48.281716 292.58856,49.428319 293.30514,50.426187 C 294.22006,51.654712 295.17488,52.822568 296.50534,53.63562 C 297.97129,54.487234 299.44756,55.278469 301.15835,55.517601 C 303.14714,55.729576 305.13209,55.834036 307.11975,55.476851 C 309.65065,55.072578 312.15652,54.507071 314.53756,53.535157 C 317.31564,52.423208 320.05449,51.209649 322.66436,49.738721 C 328.46211,46.497459 310.71201,56.997247 321.57914,50.035697 C 323.37592,48.685187 325.10586,47.249219 326.66521,45.625241 C 327.70348,44.513521 328.77061,43.414617 329.64976,42.169127 C 330.02202,41.520287 330.45511,40.897931 330.71057,40.187073 C 330.72331,40.269567 330.80644,40.374193 330.74879,40.434555 C 330.68344,40.479492 330.6181,40.52443 330.55275,40.569355 C 333.28423,38.986458 336.01571,37.403561 338.74719,35.820664 C 338.2129,36.16147 337.63864,36.450746 337.16959,36.890463 C 336.18659,37.757272 335.22564,38.648567 334.38353,39.657583 C 333.55265,40.7193 332.72509,41.787253 332.22705,43.056732 C 331.80854,44.272695 331.43982,45.450988 331.65879,46.759143 C 331.99499,48.25093 332.43126,49.683017 333.29538,50.974398 C 334.36165,52.538778 335.46439,54.071621 336.98921,55.234893 C 338.71391,56.466064 340.47433,57.624593 342.52793,58.25134 C 344.72665,58.963024 346.98508,59.47317 349.29694,59.631273 C 351.68148,59.765157 354.07858,59.733302 356.42765,59.247871 C 358.57691,58.789115 360.69524,58.184143 362.63355,57.121052 C 348.26728,65.491289 355.63858,61.886313 358.16987,59.015522 C 358.89226,57.91999 359.56062,56.8324 359.73693,55.495419 C 359.90844,54.209756 360.05955,52.930325 359.73858,51.647827 C 359.41088,50.472308 359.07312,49.296052 358.38121,48.270058 C 357.80846,47.597623 357.34035,46.884195 356.46074,46.57518 C 355.84443,46.496428 355.40546,46.187489 354.83852,46.654887 C 369.48141,38.1808 364.61895,40.352608 361.97089,42.703569 C 361.65055,43.306746 361.22796,43.842625 361.19396,44.568258 C 361.13007,45.389964 361.0162,46.209774 361.23833,47.023029 C 361.55017,47.887166 361.8058,48.746517 362.47386,49.426563 C 363.22092,50.15973 363.91895,50.933749 364.90973,51.3557 C 365.96253,51.680839 366.85707,52.046322 367.97852,51.662106 C 373.53865,49.42417 356.62563,58.737509 363.07273,54.536406 C 364.37338,53.108103 365.53444,51.590582 366.39434,49.842596 C 367.66214,47.44736 368.79277,44.971615 369.46117,42.334141 C 370.07892,39.571513 370.53746,36.829999 369.09503,34.230437 C 367.5084,31.614929 365.29344,29.657144 362.52933,28.311942 C 358.38173,26.441347 354.00308,25.421297 349.42595,25.486661 C 342.18872,25.623688 335.02974,26.68468 327.93243,28.077976 C 317.46124,30.206259 307.03236,32.674762 297.02018,36.469339 C 284.36935,41.164527 271.79256,46.137372 259.77047,52.297685 C 252.85914,55.989135 244.46733,60.750158 235.73104,68.062051 C 229.5786,73.291603 223.57492,78.787677 218.91095,85.434698 C 217.10943,88.139701 215.28666,90.873541 214.20565,93.962951 C 213.82093,95.063671 213.40632,96.160121 213.17176,97.305831 L 204.18142,101.58909 z " />
    <path
       style="fill:#51320e;fill-opacity:1;fill-rule:evenodd;stroke:none;stroke-width:1px;stroke-linecap:butt;stroke-linejoin:miter;stroke-opacity:1"
       d="M 161.28025,92.953241 C 173.36503,97.069961 185.76996,100.15924 197.82356,104.2671 C 206.61347,105.97736 214.7507,109.85319 223.66264,111.05262 C 232.91984,114.18471 242.70728,116.23942 252.47117,116.58236 C 261.62226,114.47975 257.77767,103.88417 257.70606,97.413201 C 259.03332,89.292221 254.96893,77.966258 244.92772,83.245984 C 236.38652,87.623771 226.85775,89.597611 217.27506,88.509471 C 209.65378,87.687691 199.66831,88.530451 195.4358,80.58293 C 192.32687,73.922729 189.24125,67.186442 186.45274,60.332439 C 177.90546,56.104701 176.58235,70.957047 172.29848,75.689768 C 169.24357,81.824981 165.57486,87.646091 161.28025,92.953241 z "
       id="path4387" />
    <path
       style="fill:#000000;fill-opacity:1;stroke:none;stroke-opacity:1"
       id="path2241"
       d="M 160.52294,172.31026 C 160.22062,173.07478 159.85113,173.81056 159.49676,174.55175 C 158.53946,176.53407 157.60487,178.52716 156.67994,180.52474 C 154.28958,185.68511 152.15809,190.95594 150.10396,196.25713 C 146.60601,205.21468 143.49654,214.31613 140.48502,223.44646 C 136.90868,233.97168 133.77872,244.63698 130.85473,255.35914 C 128.52468,263.89938 126.58181,272.534 125.08338,281.25728 C 124.032,287.39917 123.46153,293.5997 123.57121,299.82882 C 123.66214,304.29193 124.71268,308.56989 126.38815,312.67985 C 128.15006,317.20202 131.60623,320.0678 135.54692,322.65966 C 142.69979,326.91716 150.67643,329.43628 158.64648,331.65613 C 170.48682,334.79355 182.66134,336.21631 194.82785,337.34085 C 210.1539,338.69415 225.53076,338.50469 240.87604,337.712 C 256.81331,336.79447 272.5723,334.20318 288.23604,331.23955 C 301.33973,328.65057 314.32586,325.4993 327.21574,322.00653 C 336.4384,319.5439 345.45833,316.4423 354.16987,312.5456 C 356.02148,310.85233 367.95178,306.5564 355.71452,311.9331 C 353.07828,313.09141 360.42792,308.5908 362.51899,306.6111 C 366.97324,302.22705 367.81791,296.69841 367.76667,290.72197 C 367.16633,282.0687 364.3593,273.7907 361.42026,265.69637 C 357.39627,255.36857 352.70564,245.31659 347.91837,235.3253 C 343.3636,225.91566 338.58342,216.61777 333.87807,207.28313 C 330.51912,200.63682 327.27079,193.93574 324.0221,187.23515 C 322.04821,183.13854 320.02109,179.06856 317.86551,175.06443 C 316.82899,173.03752 315.59019,171.1491 314.15278,169.39331 C 313.13578,168.40222 313.15167,168.82769 312.24724,169.22671 C 324.64382,161.4281 320.64979,162.89591 318.77733,167.15795 C 318.0968,169.06077 317.60236,171.02392 317.08608,172.9759 C 316.44202,175.31498 315.82966,177.66256 315.21978,180.01072 C 314.59311,182.41797 313.96011,184.82367 313.31292,187.2255 C 312.74214,189.22717 312.19608,191.23548 311.66016,193.24671 C 311.33199,194.596 310.92389,195.92117 310.50962,197.24423 C 309.18588,201.14239 302.21903,201.87889 300.48765,202.68975 C 299.59902,201.92738 299.02667,200.90243 298.41908,199.91967 C 297.5517,198.49208 296.75253,197.02567 295.96479,195.55335 C 295.27061,194.19094 294.58622,192.82355 293.89405,191.46007 C 293.51701,190.51983 292.89696,189.80434 292.22096,189.09377 C 288.84394,189.48015 287.0903,191.68605 299.36654,184.71999 C 298.36947,185.27888 297.78705,186.26154 297.14669,187.17275 C 296.14834,188.73826 295.35761,190.42027 294.5514,192.08869 C 293.64122,194.03674 292.81792,196.02335 291.98662,198.0058 C 291.19498,199.86481 290.42488,201.73281 289.65025,203.59894 C 288.96768,205.2144 288.27156,206.82399 287.57077,208.43161 C 286.9612,209.77548 286.35552,211.12106 285.75466,212.46884 C 285.25034,213.63691 284.72304,214.79452 284.19051,215.94989 C 283.76247,216.89136 283.32201,217.82705 282.88511,218.76441 C 282.52848,219.53854 282.19579,220.323 281.86083,221.10642 C 281.59306,221.82029 281.35337,222.54449 281.10751,223.26619 C 281.07133,223.38098 281.03515,223.49579 280.99897,223.6106 L 272.0518,227.85005 C 272.08529,227.72913 272.1188,227.60821 272.15231,227.4873 C 272.39423,226.7469 272.64324,226.00999 272.89045,225.2713 C 273.20829,224.4596 273.52897,223.65169 273.90419,222.864 C 274.35126,221.92349 274.77991,220.97431 275.24069,220.0402 C 275.77281,218.87953 276.32296,217.72741 276.83504,216.55755 C 277.43722,215.20087 278.04258,213.84541 278.67644,212.50319 C 279.39412,210.89626 280.10855,209.28808 280.80038,207.66976 C 281.59089,205.80307 282.3636,203.92893 283.16504,202.06683 C 284.00086,200.0801 284.82079,198.08623 285.70669,196.12105 C 286.48561,194.43432 287.26081,192.74381 288.17603,191.12497 C 288.77683,190.14993 289.35925,189.15487 290.13026,188.29978 C 294.91697,185.56619 296.87382,181.50848 300.63837,183.88192 C 301.32885,184.72868 302.00689,185.56287 302.41726,186.60155 C 303.09504,187.96691 303.76606,189.33558 304.4464,190.69962 C 305.22162,192.15235 306.00498,193.60208 306.89692,194.98786 C 307.42897,195.79038 307.90136,196.69742 308.74874,197.19729 C 306.34998,198.59298 299.3243,203.03127 301.5334,201.35141 C 302.05869,200.07856 302.56575,198.79893 302.85736,197.43802 C 303.41689,195.41768 303.97516,193.39681 304.57453,191.38776 C 305.24082,188.99046 305.87781,186.58497 306.50591,184.17743 C 307.10438,181.83407 307.69531,179.48839 308.33778,177.15662 C 308.83901,175.19482 309.32675,173.22844 309.90499,171.28751 C 311.7269,166.17668 312.63579,166.65257 319.95602,163.01081 C 321.04807,163.18367 321.8231,163.3235 322.55034,164.35332 C 323.92755,166.23661 325.13567,168.22277 326.13965,170.3361 C 328.18692,174.41837 330.10605,178.56208 331.9978,182.71842 C 335.09941,189.49253 338.23773,196.25009 341.49206,202.95248 C 346.05436,212.36879 350.6888,221.7497 355.27492,231.15441 C 360.04059,241.17658 364.85335,251.19028 368.99575,261.49095 C 372.06951,269.59993 375.0124,277.89069 375.84565,286.57939 C 376.10429,292.68136 375.51535,298.46333 371.07045,303.07999 C 364.40254,309.81426 355.57109,313.89769 347.1743,318.08515 C 338.54572,321.81675 329.62869,324.77984 320.5263,327.1384 C 307.73975,330.49657 294.86502,333.5269 281.88314,336.03647 C 266.2232,338.90941 250.47657,341.43506 234.56099,342.35009 C 219.11495,343.14658 203.63713,343.32935 188.20523,342.06262 C 175.8705,340.99166 163.52944,339.61288 151.50062,336.56172 C 143.33993,334.36698 135.19652,331.8422 127.81944,327.62357 C 123.64721,324.97835 119.96394,322.05005 118.13808,317.29189 C 116.43014,313.05493 115.35662,308.65098 115.3056,304.05435 C 115.24644,297.718 115.89699,291.42023 117.02957,285.18475 C 118.63374,276.37781 120.6792,267.66427 123.10795,259.04676 C 126.10829,248.32804 129.26233,237.6527 132.75651,227.08322 C 135.65763,218.01681 138.63649,208.97279 141.95191,200.0478 C 143.8577,194.82465 145.79392,189.60965 148.00029,184.50417 C 148.81716,182.53208 149.65424,180.56944 150.54397,178.62897 C 150.86256,177.92653 151.19238,177.22834 151.48395,176.51454 L 160.52294,172.31026 z " />
    <path
       style="color:#000000;fill:url(#radialGradient5422);fill-opacity:1.0;fill-rule:nonzero;stroke:none;stroke-width:1px;stroke-linecap:butt;stroke-linejoin:miter;marker:none;marker-start:none;marker-mid:none;marker-end:none;stroke-miterlimit:4;stroke-dasharray:none;stroke-dashoffset:0;stroke-opacity:1;visibility:visible;display:inline;overflow:visible;enable-background:accumulate"
       d="M 163.03125 176 C 162.23704 176.01733 161.4506 176.02216 160.65625 176.03125 C 159.72237 176.05525 158.77705 176.10697 157.84375 176.15625 C 157.45915 176.17525 157.0723 176.17362 156.6875 176.1875 C 154.56982 178.21169 152.41911 179.88965 150.375 181.71875 C 146.608 184.97793 142.4504 187.72858 138.28125 190.4375 C 132.10707 194.33425 125.83476 198.00289 119.375 201.40625 C 115.56732 203.41563 111.57971 205.10762 107.53125 206.5625 C 104.43507 207.68372 101.22772 208.38671 97.96875 208.8125 C 95.609453 209.10834 93.22904 209.02242 90.90625 208.53125 C 89.068224 208.05214 88.30612 206.92074 87.65625 205.28125 C 87.545492 204.83318 87.53571 204.40657 87.53125 203.96875 C 85.107621 203.04265 82.66243 202.39698 78.59375 203.25 C 71.97782 205.28662 66.36341 210.42422 63.90625 216.625 C 63.754599 220.25189 64.01391 223.84734 65.53125 227.28125 C 68.168236 232.56228 71.97132 236.75062 77.375 239.34375 C 84.08777 242.26226 91.15501 243.58827 98.5 242.9375 C 104.9567 242.24296 111.2707 240.9356 117.28125 238.625 C 117.35552 238.59317 117.42581 238.56326 117.5 238.53125 C 121.04911 237.00001 124.51026 235.23672 127.84375 233.28125 C 131.29136 231.01975 134.60327 228.56015 137.78125 225.9375 C 138.92525 224.99339 140.06661 223.97144 141.1875 223 C 146.71121 217.76176 151.91815 212.16436 155.9375 205.65625 L 161.90625 197 C 161.75954 195.38098 161.81541 193.74608 161.875 192.125 C 161.94864 190.55607 162.1533 189.02166 162.375 187.46875 C 162.55668 186.09689 162.82647 184.73213 163.09375 183.375 C 163.35368 182.19042 163.6307 181.01684 163.9375 179.84375 C 164.18549 178.96861 164.37874 178.07708 164.5625 177.1875 C 164.85327 176.79994 164.45155 176.41865 164.40625 176.125 C 163.96719 175.96696 163.48809 176.02347 163.03125 176 z "
       id="path5415" />
    <path
       style="fill:#ffc147;fill-opacity:1;fill-rule:evenodd;stroke:none;stroke-width:1px;stroke-linecap:butt;stroke-linejoin:miter;stroke-opacity:1"
       d="M 210.13907,205.8789 C 229.4911,207.50647 248.44925,212.53435 267.2893,217.14275 C 281.44013,221.11218 296.03103,228.65197 303.43585,241.79282 C 311.46424,256.9824 292.68571,268.93897 280.51737,267.46185 C 249.00123,266.12409 255.67051,282.12343 235.15496,277.88684 C 222.08239,275.3337 215.37042,261.89457 208.96974,251.47966 C 203.41437,239.95623 197.68632,227.82463 196.22603,215.06829 C 196.28792,208.04051 203.40265,201.95883 210.13907,205.8789 z "
       id="path4372"
       sodipodi:nodetypes="cccccccc" />
    <path
       style="fill:#000000;fill-opacity:1;stroke:none;stroke-opacity:1"
       id="path2277"
       d="M 211.89842,203.87496 C 212.58946,203.62738 213.31898,203.55505 214.03874,203.43719 C 215.82345,203.18935 217.62397,203.18188 219.4217,203.17637 C 223.97918,203.23008 228.49494,204.0464 232.97126,204.83503 C 240.33136,206.11445 247.60179,207.84487 254.83521,209.69845 C 261.19076,211.35947 267.45641,213.33816 273.61344,215.62433 C 278.59144,217.49244 283.36966,219.83549 287.99316,222.45024 C 291.80643,224.6311 295.3553,227.21106 298.66579,230.09011 C 301.26285,232.36297 303.45872,235.02002 305.43745,237.83433 C 306.96088,240.01711 308.06076,242.41633 308.78454,244.96894 C 309.41186,247.21585 309.09076,249.40748 308.63844,251.63067 C 307.95136,253.95097 306.5056,255.85365 304.90047,257.61429 C 300.7048,261.70511 295.14757,264.20382 290.14833,267.05368 C 287.63132,268.31999 284.95042,269.15714 282.21302,269.78341 C 279.40704,270.37151 276.54019,270.48704 273.68303,270.51413 C 271.27905,270.52168 268.8823,270.33902 266.48831,270.14664 C 264.86423,269.90172 263.24682,269.92145 261.61922,270.05716 C 260.4692,270.19194 259.44733,270.69118 258.40575,271.15089 C 253.34121,273.99964 269.6677,264.20662 263.9691,268.08034 C 262.94352,268.80669 261.94294,269.56713 260.93641,270.31934 C 259.81415,271.15369 258.63695,271.90831 257.46062,272.66273 C 253.48528,275.11618 249.48894,277.55632 245.27947,279.58494 C 243.97638,280.22082 242.58696,280.62277 241.19947,281.02206 C 239.78343,281.44493 238.32229,281.57253 236.85719,281.66499 C 235.27903,281.7101 233.72678,281.41325 232.18305,281.13242 C 230.42538,280.79515 228.74406,280.1922 227.069,279.58156 C 225.30734,278.94134 223.68938,278.0047 222.08432,277.05364 C 220.69441,276.21603 219.41044,275.23082 218.14749,274.21726 C 217.16128,273.43408 216.32069,272.50425 215.50305,271.5538 C 214.86936,270.84241 214.44807,270.00086 214.0056,269.17012 C 213.66478,268.53012 213.58743,267.81745 213.43116,267.12672 C 213.42536,267.01864 213.41957,266.91057 213.41375,266.8025 L 222.26525,262.31551 C 222.25555,262.39604 222.24584,262.47659 222.23613,262.55712 C 222.32518,263.14979 222.33257,263.75714 222.62787,264.30787 C 223.00979,265.07021 223.3751,265.8394 223.95199,266.48444 C 224.74215,267.37147 225.51213,268.27877 226.45932,269.01012 C 227.68337,269.9945 228.92722,270.95312 230.28058,271.75782 C 231.85229,272.66129 233.43728,273.54344 235.16078,274.13397 C 236.81247,274.69502 238.4699,275.24913 240.19842,275.52993 C 241.70675,275.75245 243.22184,275.99027 244.75239,275.84902 C 246.17641,275.68543 247.59545,275.48958 248.96361,275.03591 C 250.32158,274.59253 251.67503,274.1331 252.94333,273.46374 C 259.75454,269.92934 242.60153,279.46594 248.31844,276.20948 C 249.49542,275.47562 250.67382,274.74258 251.8034,273.93636 C 252.81643,273.20004 253.80941,272.43868 254.81746,271.69574 C 258.34191,269.09826 262.15679,266.87285 266.13066,265.03523 C 267.22991,264.62866 268.33547,264.26162 269.52231,264.22591 C 271.15702,264.20127 272.78111,264.28201 274.40439,264.50339 C 276.75344,264.69419 279.10608,264.87686 281.46543,264.84208 C 284.28226,264.78428 287.10657,264.61553 289.855,263.94689 C 292.55276,263.24756 295.19221,262.34263 297.65502,261.01882 C 283.21408,269.44473 293.14484,264.06143 295.98334,261.33532 C 297.59044,259.70962 299.05993,257.9719 299.86133,255.79658 C 300.40683,253.73398 300.78827,251.72903 300.27519,249.59327 C 299.63448,247.12713 298.60721,244.81331 297.16735,242.70128 C 295.26991,239.93181 293.14985,237.32199 290.6254,235.09217 C 287.38366,232.24807 283.90731,229.69399 280.1611,227.54577 C 275.59812,224.95866 270.89138,222.62638 265.98238,220.76231 C 259.89215,218.475 253.70034,216.47164 247.40766,214.81324 C 240.18326,212.93371 232.91395,211.2005 225.53022,210.06189 C 220.92009,209.38818 216.27537,208.73622 211.60314,208.87771 C 209.78626,208.93493 207.96324,209.01288 206.1756,209.37025 C 205.47798,209.57647 204.73853,209.68573 204.14696,210.14625 L 211.89842,203.87496 z " />
    <path
       style="fill:#000000;fill-opacity:1;stroke:none;stroke-opacity:1"
       id="path2291"
       d="M 151.05565,84.670468 C 151.76421,84.958688 152.45685,85.281858 153.14994,85.605478 C 156.54698,87.261791 160.06936,88.633651 163.58698,90.007751 C 172.84233,93.507121 182.29204,96.463241 191.75297,99.348591 C 206.49232,103.87079 221.46577,107.5436 236.52193,110.83274 C 253.06988,114.39157 269.80858,116.93653 286.55323,119.35726 C 299.83723,121.29256 313.17912,122.77303 326.55122,123.93446 C 335.77956,124.71342 345.02842,125.2038 354.2808,125.58175 C 360.31994,125.82333 366.36167,125.99947 372.40496,126.09252 C 375.82244,126.15401 379.24017,126.14699 382.6579,126.12262 L 374.94825,131.72386 C 371.58041,131.69852 368.21282,131.66227 364.84626,131.55859 C 358.89423,131.38418 352.94428,131.14166 346.99826,130.8199 C 337.87789,130.32065 328.76225,129.7164 319.66956,128.83744 C 306.44778,127.5256 293.25859,125.9136 280.12637,123.88321 C 263.41973,121.32845 246.712,118.71219 230.16508,115.24722 C 214.96622,111.98311 199.84992,108.34484 184.9132,104.02304 C 175.21868,101.23324 165.52411,98.421371 155.98528,95.129741 C 152.29472,93.840461 148.60641,92.539731 144.99111,91.049151 C 144.24473,90.765111 143.49722,90.484161 142.75665,90.185111 L 151.05565,84.670468 z " />
    <path
       style="fill:#000000;fill-opacity:1;stroke:none;stroke-opacity:1"
       id="path2385"
       d="M 155.96414,95.126211 C 156.58676,94.587091 157.04841,93.892741 157.53636,93.236021 C 158.72249,91.535821 159.87664,89.813191 161.01884,88.083261 C 162.88034,85.226898 164.71172,82.351165 166.5345,79.470014 C 168.33618,76.631981 170.11212,73.777836 171.83064,70.88863 C 173.18618,68.582352 174.54506,66.278048 175.90496,63.974354 C 176.96029,62.172101 178.00708,60.366667 179.1167,58.597643 C 181.24756,54.907233 187.52985,53.513865 189.80156,52.368611 C 190.83963,53.371454 191.0295,54.747196 191.35324,56.097451 C 191.80157,58.426012 192.34893,60.730966 193.02045,63.004956 C 193.76358,65.388254 194.70198,67.702524 195.70214,69.987573 C 196.67199,72.281429 198.04192,74.349884 199.5548,76.31449 C 201.25352,78.484644 203.3833,80.216276 205.64835,81.756505 C 208.17538,83.424325 210.99654,84.501228 213.87799,85.371508 C 217.06288,86.247948 220.35311,86.463198 223.63831,86.532528 C 226.76279,86.576448 229.86302,86.187348 232.93359,85.649488 C 235.82896,85.103598 238.66483,84.284818 241.4666,83.381935 C 243.84654,82.600425 246.2103,81.771785 248.56541,80.918683 C 250.38583,80.223505 252.20885,79.534983 254.02627,78.83222 C 255.27562,78.274871 256.5258,78.149845 257.86253,78.220987 C 259.15722,78.548264 259.74393,79.402436 260.42805,80.464687 C 261.14884,82.031545 261.4289,83.743085 261.75819,85.422418 C 262.09846,87.268901 262.31339,89.134131 262.52916,90.998061 C 262.77087,93.036811 262.82952,95.087571 262.8809,97.137551 C 262.90628,99.144151 262.92422,101.15086 262.94107,103.15755 C 262.96238,104.79732 262.96828,106.43675 262.949,108.07646 C 262.94826,109.37706 262.84193,110.67194 262.71824,111.96524 C 262.7051,112.98527 262.34511,113.89675 262.00705,114.83207 C 260.00514,118.48933 254.82726,119.31746 251.62766,121.03702 C 250.28821,120.86205 249.40065,119.99503 248.43498,119.13614 C 247.06856,117.72039 246.19298,115.98306 245.315,114.24945 C 244.28601,112.04243 243.65033,109.69039 243.05391,107.33869 C 242.38714,104.66303 241.96075,101.93791 241.53605,99.216111 C 241.13916,96.441911 240.71938,93.671931 240.16766,90.923951 C 239.61278,88.296391 238.87227,85.714728 238.05639,83.157945 C 237.34744,81.012453 236.54056,78.902954 235.69549,76.808397 C 235.05948,75.210241 234.16129,73.757448 233.20865,72.336306 C 232.30582,71.038383 231.10825,70.034229 229.89152,69.051544 C 228.59639,68.067867 227.08722,67.526286 225.57449,66.98944 C 223.81812,66.407516 221.98353,66.182306 220.15646,65.963293 C 218.06066,65.743403 215.96699,65.91707 213.87736,66.091018 C 211.71513,66.330838 209.58941,66.792024 207.46602,67.250271 C 205.3838,67.712807 203.37643,68.427406 201.3713,69.140821 C 199.32908,69.892276 197.37255,70.844023 195.42235,71.802489 C 191.8904,73.538703 183.84173,78.302984 198.64742,69.773639 C 197.15207,70.634696 195.73218,71.614237 194.31797,72.599912 C 192.99675,73.523826 191.74146,74.533606 190.49653,75.556099 C 189.39115,76.48397 188.30895,77.438899 187.22129,78.387349 C 186.06102,79.397994 184.94654,80.4584 183.8375,81.524185 C 182.68005,82.660205 181.56631,83.838955 180.45179,85.016708 C 179.47762,86.037408 178.54196,87.092638 177.61689,88.157521 C 177.10691,88.756431 176.61341,89.369041 176.11573,89.978081 L 167.06207,93.856721 C 167.55707,93.227171 168.05676,92.602871 168.57101,91.988671 C 169.49517,90.900201 170.43205,89.823011 171.42027,88.791611 C 172.53951,87.609081 173.64218,86.410048 174.80314,85.267758 C 175.88628,84.178455 176.98603,83.107135 178.13485,82.086175 C 179.2271,81.129703 180.31269,80.165166 181.41856,79.224098 C 182.66104,78.17848 183.90521,77.134262 185.22983,76.192226 C 186.63807,75.177546 188.0534,74.172259 189.54198,73.276573 C 193.99489,70.702834 198.3816,67.98984 203.01277,65.739572 C 204.98577,64.80997 206.96306,63.883015 209.02651,63.166227 C 211.0578,62.480009 213.09386,61.800943 215.20001,61.374894 C 217.34579,60.941337 219.49519,60.505107 221.68032,60.319031 C 223.81746,60.183557 225.95871,60.06049 228.09355,60.33186 C 229.97589,60.600188 231.86765,60.863883 233.66648,61.514149 C 235.25229,62.127686 236.8275,62.760287 238.17177,63.836067 C 239.4392,64.905547 240.69053,65.994054 241.6379,67.375107 C 242.61525,68.866448 243.54402,70.386425 244.19362,72.057326 C 245.01898,74.191413 245.7941,76.343367 246.51608,78.515124 C 247.33266,81.108628 248.08505,83.723285 248.65484,86.383628 C 249.21878,89.143831 249.64502,91.927021 250.04006,94.716071 C 250.45925,97.405641 250.87757,100.0994 251.54569,102.74121 C 252.13189,105.02512 252.74637,107.31232 253.76032,109.45147 C 254.6013,111.0708 255.42981,112.70276 256.7717,113.98035 C 257.65666,114.66217 258.35183,115.30109 259.52934,115.08713 C 257.3626,116.37456 250.98311,120.40345 252.98023,118.86598 C 253.42312,118.05612 253.86888,117.308 253.89802,116.34122 C 254.04349,115.06558 254.1955,113.7891 254.21018,112.50333 C 254.25298,110.86504 254.2622,109.22697 254.2542,107.58803 C 254.25434,105.57968 254.26064,103.57123 254.23382,101.56301 C 254.18916,99.544321 254.13651,97.524591 253.89176,95.517581 C 253.68573,93.675771 253.48025,91.832731 253.15149,90.007651 C 252.84528,88.442061 252.59107,86.843038 251.91312,85.384568 C 251.27824,84.621088 250.97154,84.001135 249.85796,83.983935 C 248.64839,84.152085 247.45766,84.320368 246.33129,84.859238 C 244.53025,85.541808 242.73104,86.229828 240.91974,86.884758 C 238.57617,87.709941 236.22827,88.523141 233.85856,89.270831 C 231.03496,90.131961 228.18378,90.925291 225.26857,91.413421 C 222.16585,91.900171 219.03634,92.233291 215.88973,92.127851 C 212.54627,92.004061 209.1989,91.711291 205.97396,90.759991 C 203.01703,89.827121 200.12757,88.677391 197.54612,86.927438 C 195.21681,85.305838 193.02492,83.496695 191.26559,81.24848 C 189.70293,79.222761 188.27782,77.095649 187.27095,74.73111 C 186.25564,72.409141 185.32247,70.051066 184.55578,67.634029 C 183.86018,65.35878 183.27813,63.053228 182.76267,60.730546 C 182.51391,59.797508 182.40384,58.59394 181.63861,58.007205 C 200.92755,46.786505 189.40435,52.907582 188.08267,54.691187 C 186.87646,56.422145 185.78885,58.2217 184.74111,60.054229 C 183.35298,62.368142 181.98091,64.691676 180.58881,67.003261 C 178.85685,69.910259 177.05729,72.775972 175.24456,75.633159 C 173.44132,78.49639 171.63132,81.355346 169.8227,84.215155 C 168.74758,85.924328 167.66448,87.628231 166.55127,89.312921 C 166.09814,89.983191 165.65206,90.658001 165.1744,91.311201 L 155.96414,95.126211 z " />
    <g
       id="g3362"
       transform="matrix(1.4449751,0,0,1.4449751,-91.994651,-96.248436)">
      <path
         id="path3364"
         d="M 227.66313,289.64084 C 231.94839,284.09786 241.67401,288.43633 237.35554,295.38045 C 236.26024,303.04522 237.4682,316.48904 247.96204,315.38425 C 256.18092,315.24794 253.04867,323.78835 246.41369,322.68247 C 240.40443,321.26262 237.40585,325.63368 235.57629,329.8286 C 229.58803,328.73089 225.32992,321.18201 218.12429,325.18736 C 212.90975,327.79643 203.74859,320.19589 212.69442,318.38485 C 220.98191,319.47239 229.36677,314.8096 228.60159,305.45331 C 228.55363,300.22076 228.91707,294.75067 227.66313,289.64084 z "
         style="opacity:1;color:#000000;fill:#ff6600;fill-opacity:1;fill-rule:nonzero;stroke:none;stroke-width:1px;stroke-linecap:butt;stroke-linejoin:miter;marker:none;marker-start:none;marker-mid:none;marker-end:none;stroke-miterlimit:4;stroke-dasharray:none;stroke-dashoffset:0;stroke-opacity:1;visibility:visible;display:inline;overflow:visible;enable-background:accumulate" />
      <path
         d="M 230.30703,286.20523 C 230.29044,286.7612 230.28395,287.31738 230.27468,287.8735 C 230.26847,288.9257 230.25017,289.9776 230.22704,291.02954 C 230.19147,292.19656 230.12442,293.36213 230.05482,294.52749 C 229.99002,295.55648 229.92885,296.58568 229.86977,297.61501 C 229.81014,298.55027 229.77342,299.48641 229.74459,300.42302 C 229.71749,301.33025 229.70366,302.23764 229.69748,303.14518 C 229.71404,304.01922 229.69735,304.89327 229.68377,305.7672 C 229.66955,306.60263 229.65722,307.43808 229.64478,308.27353 C 229.63172,309.09136 229.62358,309.90924 229.61534,310.72713 C 229.6219,311.47135 229.59338,312.2145 229.5678,312.95782 C 229.59682,313.62379 229.29744,314.08759 228.98851,314.62319 C 225.06088,317.46965 224.4431,318.00518 221.15284,318.31209 C 220.20715,318.39221 219.2596,318.44663 218.31228,318.50283 C 217.23877,318.56002 216.17301,318.69938 215.10798,318.83891 C 213.95921,318.99022 212.82976,319.25032 211.70222,319.51053 C 210.62403,319.76157 209.5795,320.12257 208.5385,320.49344 C 207.64928,320.81182 206.81811,321.25822 205.99425,321.71352 C 215.67454,315.98732 211.98053,318.00971 210.01629,319.60516 C 209.61303,319.90182 209.55257,320.32271 209.39218,320.73494 C 209.49024,321.26629 209.88807,321.42808 210.29102,321.71843 C 211.10923,322.1458 212.00654,322.37021 212.89059,322.61365 C 214.0745,322.89937 215.27883,323.08258 216.48089,323.27102 C 217.81663,323.48004 219.16371,323.59301 220.51055,323.69804 C 221.82031,323.78511 223.13209,323.77843 224.44339,323.75495 C 225.46273,323.73931 226.46973,323.60045 227.47316,323.43576 C 228.19573,323.32847 228.86675,323.05594 229.54391,322.8013 C 229.89829,322.6658 230.21218,322.45327 230.54088,322.27055 C 228.68643,323.34012 226.83198,324.40969 224.97753,325.47927 C 225.04193,325.44032 225.10632,325.40138 225.17072,325.36244 C 227.2231,323.84651 229.81167,322.71481 231.84257,321.58921 C 232.25884,321.67883 232.27507,322.09776 232.46066,322.38222 C 232.53652,322.70885 232.46919,323.04038 232.46119,323.36859 C 232.42035,323.76889 232.39482,324.17046 232.36445,324.57161 C 232.30846,324.99625 232.34962,325.42155 232.35999,325.84634 C 232.37687,326.29191 232.50834,326.71674 232.60367,327.14767 C 232.68597,327.58164 232.93839,327.93636 233.13763,328.31381 C 233.47272,328.66708 233.93418,328.66969 234.38756,328.75417 C 235.08944,328.83531 235.78493,328.7229 236.48003,328.64916 C 237.25278,328.54282 237.93661,328.20312 238.62219,327.85671 C 241.00699,326.47175 235.24773,329.79772 233.55894,330.76551 C 233.12856,331.01215 234.38438,330.21492 234.78901,329.92799 C 235.30027,329.55505 235.70595,329.07565 236.12409,328.60825 C 236.42994,328.27198 236.61468,327.86031 236.83362,327.47041 C 237.04254,327.22306 236.87848,326.90334 236.89891,326.64512 C 236.83174,326.33955 236.4961,326.26192 236.30338,326.07857 C 235.9966,325.88883 235.64561,325.80346 235.31401,325.67378 C 235.00257,325.68046 234.76636,325.44065 234.51723,325.33459 C 232.90711,322.6131 238.79205,322.3527 240.8,321.304 C 241.5441,321.25628 242.28913,321.22648 243.03406,321.19564 C 244.00243,321.1688 244.96928,321.11612 245.93603,321.05682 C 246.88377,321.00826 247.82294,320.87127 248.7618,320.74089 C 249.63904,320.62147 250.46867,320.33506 251.29328,320.02864 C 253.72577,318.90599 255.42034,317.76185 247.68809,322.19669 C 248.24817,321.88734 248.68557,321.432 249.13824,320.99352 C 249.48859,320.68467 249.53992,320.2754 249.67783,319.8719 C 249.76463,319.48979 249.4714,319.30388 249.32454,319.01844 C 248.96861,318.66436 248.51083,318.48551 248.07048,318.26949 C 247.41547,317.99471 246.72777,317.82127 246.04105,317.64983 C 245.24245,317.46203 244.43017,317.35535 243.61759,317.25298 C 242.80607,317.15196 241.9892,317.13753 241.17279,317.12998 C 240.38804,317.14786 239.60316,317.16271 238.81845,317.17736 C 238.13666,317.23226 237.60782,316.95991 237.02179,316.68755 C 236.45348,316.28838 236.26994,315.6845 236.00333,315.08417 C 235.745,314.28663 235.5885,313.4622 235.4251,312.64158 C 235.25185,311.74475 235.14419,310.83756 235.03319,309.93154 C 234.92573,309.01573 234.84158,308.09748 234.75804,307.17926 C 234.67198,306.25559 234.61137,305.32997 234.55214,304.4043 C 234.49646,303.40929 234.43988,302.41442 234.37721,301.41982 C 234.31165,300.41304 234.25725,299.40559 234.2026,298.39817 C 234.1523,297.43331 234.10902,296.46812 234.06545,295.50294 C 234.02638,294.63445 233.99229,293.76575 233.95857,292.89703 C 233.92819,292.11603 233.90315,291.33483 233.87728,290.55367 C 233.84801,289.85091 233.85286,289.14753 233.85177,288.44437 C 233.85197,288.3337 233.85218,288.22304 233.85238,288.11238 L 239.84922,285.0595 C 239.84865,285.17021 239.84807,285.28093 239.84749,285.39164 C 239.84441,286.08975 239.83353,286.7882 239.85352,287.48611 C 239.87581,288.26771 239.89737,289.04934 239.92365,289.83083 C 239.95284,290.70034 239.9823,291.56985 240.01654,292.43919 C 240.05512,293.40386 240.09399,294.36853 240.14283,295.33275 C 240.19428,296.33816 240.24657,297.34355 240.312,298.34818 C 240.37607,299.34192 240.43807,300.33572 240.49286,301.33003 C 240.55426,302.24972 240.61693,303.16936 240.69671,304.08769 C 240.77747,304.99996 240.85784,305.91235 240.96314,306.82221 C 241.0696,307.71271 241.1698,308.60511 241.3363,309.48693 C 241.49238,310.27356 241.64073,311.06413 241.88886,311.82842 C 242.0941,312.28684 242.2021,312.73489 242.67385,312.9946 C 243.19465,313.11244 243.69478,313.30708 244.25214,313.22173 C 245.03674,313.2073 245.8215,313.18579 246.60626,313.19522 C 247.43704,313.22404 248.26808,313.26018 249.09213,313.37906 C 249.92145,313.50275 250.75096,313.63055 251.56498,313.83628 C 252.28327,314.03623 253.00478,314.23372 253.68359,314.54908 C 254.19006,314.83207 254.71959,315.07395 255.1113,315.52179 C 255.36713,315.94354 255.71306,316.28558 255.71441,316.82381 C 255.6468,317.3581 255.69637,317.87825 255.33644,318.34171 C 254.91726,318.8588 254.51663,319.38452 253.94857,319.75842 C 251.34472,321.27611 248.85285,323.09201 246.0112,324.15297 C 245.1554,324.41438 244.2946,324.65553 243.40043,324.74978 C 242.45326,324.86627 241.50542,324.97778 240.55133,325.02097 C 239.57939,325.07175 238.60713,325.11342 237.63487,325.1576 C 236.88329,325.20167 236.12954,325.23499 235.38315,325.33866 C 237.11676,324.28228 241.26671,323.45341 240.25995,321.69051 C 240.43323,321.74168 240.72937,321.77928 240.92254,321.88619 C 241.29016,322.05241 241.67578,322.18602 242.00483,322.42824 C 242.31148,322.71742 242.67168,322.94012 242.82463,323.36261 C 242.91473,323.78022 243.09338,324.16267 242.9618,324.60704 C 242.77422,325.06649 242.64611,325.55204 242.31697,325.94573 C 241.91629,326.46237 241.53435,326.99764 241.02352,327.41695 C 238.70484,329.29766 236.12857,330.81603 233.37676,332.04185 C 232.63773,332.33525 231.89633,332.60837 231.09248,332.65985 C 230.34995,332.70933 229.6038,332.76537 228.8678,332.61187 C 228.26996,332.41032 227.70575,332.3004 227.31571,331.74441 C 227.08053,331.30172 226.78594,330.88638 226.6749,330.38328 C 226.55734,329.91696 226.39982,329.45806 226.36905,328.97333 C 226.33776,328.51741 226.26991,328.06062 226.31955,327.60225 C 226.34611,327.19807 226.3697,326.79368 226.40237,326.38991 C 226.42252,326.11474 226.46399,325.84077 226.46279,325.56455 C 226.46318,325.62073 226.49075,325.68371 226.46396,325.7331 C 228.12681,324.78184 233.08749,321.88168 231.45827,322.88945 C 229.09973,324.27292 226.8302,325.97389 224.24348,326.95321 C 223.5426,327.15833 222.84516,327.37915 222.11417,327.45782 C 221.10165,327.5798 220.08672,327.67995 219.06502,327.67604 C 217.74807,327.67214 216.43045,327.65888 215.11658,327.55586 C 213.75643,327.43537 212.3956,327.31254 211.04676,327.09358 C 209.82261,326.89563 208.5949,326.70573 207.3936,326.39177 C 206.45067,326.11891 205.49146,325.86673 204.63973,325.36046 C 204.10279,324.91121 203.56507,324.58085 203.39305,323.84405 C 203.40179,323.22651 203.36465,322.72773 203.80436,322.21022 C 205.86187,320.02909 208.32466,318.98237 211.21406,317.50796 C 212.05692,317.08843 212.90554,316.67863 213.80377,316.3876 C 214.85747,316.04147 215.91548,315.70799 217.00089,315.47272 C 218.14363,315.22983 219.28769,314.98808 220.4492,314.85034 C 221.52853,314.72073 222.60857,314.59476 223.69513,314.54172 C 224.64316,314.47849 225.59203,314.41972 226.53626,314.31112 C 229.27272,313.91287 232.29917,311.83189 222.712,317.10526 C 223.13798,316.74569 223.53272,316.67043 223.54946,315.96568 C 223.59713,315.23356 223.6476,314.50232 223.63178,313.76723 C 223.64268,312.94811 223.65359,312.12898 223.66415,311.30985 C 223.67652,310.47337 223.6898,309.6369 223.70532,308.80047 C 223.72106,307.92891 223.74828,307.05686 223.73032,306.18523 C 223.7311,305.27193 223.74335,304.35896 223.7711,303.44602 C 223.79825,302.50188 223.82851,301.55801 223.89498,300.6156 C 223.95772,299.58248 224.02102,298.5494 224.09346,297.51691 C 224.17101,296.35816 224.24837,295.19936 224.28551,294.03841 C 224.3031,292.99925 224.31852,291.96012 224.29395,290.92083 C 224.28471,290.3757 224.27832,289.83051 224.2616,289.28553 L 230.30703,286.20523 z "
         id="path3366"
         style="opacity:1;color:#000000;fill:#000000;fill-opacity:1;fill-rule:nonzero;stroke:none;stroke-width:1px;stroke-linecap:butt;stroke-linejoin:miter;marker:none;marker-start:none;marker-mid:none;marker-end:none;stroke-miterlimit:4;stroke-dasharray:none;stroke-dashoffset:0;stroke-opacity:1;visibility:visible;display:inline;overflow:visible;enable-background:accumulate" />
    </g>
    <path
       sodipodi:nodetypes="ccccc"
       id="path3380"
       d="M 209.84117,117.85118 C 206.68376,116.57715 207.1543,122.07838 206.2064,123.93567 C 206.07355,127.23756 204.43894,130.6518 205.01263,133.82785 C 205.27613,137.52178 207.04789,133.45202 208.10641,129.12005 C 209.00274,125.42279 209.64138,121.65374 209.84117,117.85118 z "
       style="color:#000000;fill:#00ff00;fill-opacity:1;fill-rule:nonzero;stroke:none;stroke-width:1px;stroke-linecap:butt;stroke-linejoin:miter;marker:none;marker-start:none;marker-mid:none;marker-end:none;stroke-miterlimit:4;stroke-dasharray:none;stroke-dashoffset:0;stroke-opacity:1;visibility:visible;display:inline;overflow:visible;enable-background:accumulate" />
    <path
       d="M 205.66564,123.27202 C 205.71221,123.15189 205.74142,123.02558 205.77479,122.90131 C 205.89405,122.48322 206.02,122.06717 206.15115,121.65267 C 206.35406,121.03758 206.57355,120.42827 206.80543,119.82356 C 207.01306,119.27134 207.26169,118.7367 207.53544,118.21456 C 207.75325,117.80533 207.99384,117.40909 208.26484,117.03303 C 208.68144,116.46401 209.94662,115.70688 210.26101,116.56956 C 210.38305,117.27244 210.32465,117.99579 210.28531,118.70418 C 210.21219,119.89293 210.07438,121.07573 209.90917,122.25474 C 209.68817,123.73424 209.40262,125.20314 209.11789,126.6714 C 208.86033,127.99891 208.58587,129.32299 208.3,130.64467 C 208.08925,131.63897 207.84278,132.62495 207.54881,133.59785 C 207.38707,134.12115 207.19273,134.64428 206.7346,134.97213 C 205.78191,135.3354 204.9864,135.93888 204.55154,134.93609 C 204.34384,134.33547 204.2992,133.69434 204.27848,133.06387 C 204.27812,132.09902 204.39504,131.13864 204.50479,130.18143 C 204.61355,129.24484 204.74822,128.31158 204.89413,127.38012 C 205.01571,126.61457 205.15138,125.85138 205.29453,125.08959 C 205.40657,124.47507 205.54073,123.86502 205.68977,123.2585 C 205.82115,122.72998 205.9807,122.20923 206.15635,121.69391 C 206.26675,121.37929 206.21134,121.53528 206.3226,121.22591 L 207.75726,120.87528 C 207.64316,121.18361 207.6999,121.0281 207.58707,121.3418 C 207.40682,121.85322 207.24372,122.37058 207.10862,122.8959 C 206.95475,123.50135 206.81418,124.11008 206.69556,124.7235 C 206.54401,125.48564 206.39992,126.24926 206.27135,127.01568 C 206.11726,127.94625 205.97477,128.8789 205.86255,129.8156 C 205.75254,130.76205 205.64073,131.71285 205.66277,132.66743 C 205.6945,133.27567 205.7418,133.89707 205.96195,134.47075 C 206.34772,135.21981 207.51547,134.48726 205.26127,135.22867 C 205.76817,134.96919 205.98847,134.46401 206.16451,133.94298 C 206.47968,132.97192 206.74327,131.98574 206.96597,130.98931 C 207.26748,129.6665 207.55643,128.34085 207.82061,127.01004 C 208.11024,125.54814 208.39391,124.08397 208.5937,122.60654 C 208.7446,121.43588 208.86876,120.26129 208.92268,119.08168 C 208.94517,118.40174 208.98739,117.70129 208.83183,117.03381 C 209.96775,116.51085 210.40367,116.06427 209.72118,116.72183 C 209.43759,117.08797 209.19139,117.47997 208.96822,117.88571 C 208.68715,118.402 208.4308,118.93118 208.22043,119.48068 C 207.98635,120.07911 207.76466,120.68262 207.57551,121.29694 C 207.45304,121.70321 207.33567,122.11135 207.2418,122.52527 C 207.21416,122.65071 207.1856,122.77597 207.15987,122.90179 L 205.66564,123.27202 z "
       id="path3382"
       style="color:#000000;fill:#000000;fill-opacity:1;fill-rule:nonzero;stroke:none;stroke-width:1px;stroke-linecap:butt;stroke-linejoin:miter;marker:none;marker-start:none;marker-mid:none;marker-end:none;stroke-miterlimit:4;stroke-dasharray:none;stroke-dashoffset:0;stroke-opacity:1;visibility:visible;display:inline;overflow:visible;enable-background:accumulate" />
  </g>
</svg>
