<?xml version="1.0" encoding="UTF-8" standalone="no"?>
<!-- Created with Inkscape (http://www.inkscape.org/) -->
<svg
   xmlns:dc="http://purl.org/dc/elements/1.1/"
   xmlns:cc="http://web.resource.org/cc/"
   xmlns:rdf="http://www.w3.org/1999/02/22-rdf-syntax-ns#"
   xmlns:svg="http://www.w3.org/2000/svg"
   xmlns="http://www.w3.org/2000/svg"
   xmlns:sodipodi="http://inkscape.sourceforge.net/DTD/sodipodi-0.dtd"
   xmlns:inkscape="http://www.inkscape.org/namespaces/inkscape"
   width="1000"
   height="1000"
   id="svg2"
   sodipodi:version="0.32"
   inkscape:version="0.43"
   version="1.0"
   sodipodi:docbase="/home/kkowal/tale/art/monster"
   sodipodi:docname="gnome.svg"
   inkscape:export-filename="/home/kkowal/tale/art/monster/gnome.png"
   inkscape:export-xdpi="90"
   inkscape:export-ydpi="90">
  <defs
     id="defs4" />
  <sodipodi:namedview
     id="base"
     pagecolor="#ffffff"
     bordercolor="#666666"
     borderopacity="1.0"
     inkscape:pageopacity="0.0"
     inkscape:pageshadow="2"
     inkscape:zoom="0.7"
     inkscape:cx="687.74619"
     inkscape:cy="569.84497"
     inkscape:document-units="px"
     inkscape:current-layer="layer1"
     inkscape:window-width="1600"
     inkscape:window-height="1125"
     inkscape:window-x="0"
     inkscape:window-y="25" />
  <metadata
     id="metadata7">
    <rdf:RDF>
      <cc:Work
         rdf:about="">
        <dc:format>image/svg+xml</dc:format>
        <dc:type
           rdf:resource="http://purl.org/dc/dcmitype/StillImage" />
      </cc:Work>
    </rdf:RDF>
  </metadata>
  <g
     inkscape:label="Layer 1"
     inkscape:groupmode="layer"
     id="layer1">
    <path
       style="opacity:1;color:#000000;fill:#b96767;fill-opacity:1;fill-rule:nonzero;stroke:none;stroke-width:3.9000001;stroke-linecap:butt;stroke-linejoin:miter;marker:none;marker-start:none;marker-mid:none;marker-end:none;stroke-miterlimit:4;stroke-dasharray:none;stroke-dashoffset:0;stroke-opacity:1;visibility:visible;display:inline;overflow:visible"
       d="M 331.83511,866.15477 C 312.35598,869.35371 254.13179,888.40321 295.3414,905.81757 C 330.85728,909.32852 366.69395,902.07981 402.42335,902.26251 C 422.41549,908.2059 492.02827,881.83465 441.69003,872.66119 C 404.956,869.84947 369.02197,861.55776 331.83511,866.15477 z "
       id="path5159" />
    <path
       style="opacity:1;color:#000000;fill:#b96767;fill-opacity:1;fill-rule:nonzero;stroke:none;stroke-width:3.9000001;stroke-linecap:butt;stroke-linejoin:miter;marker:none;marker-start:none;marker-mid:none;marker-end:none;stroke-miterlimit:4;stroke-dasharray:none;stroke-dashoffset:0;stroke-opacity:1;visibility:visible;display:inline;overflow:visible"
       d="M 545.48239,869.69036 C 583.64593,892.91348 628.36553,923.2082 674.43245,903.49214 C 707.92316,864.68653 642.72168,849.67055 613.63766,852.34398 C 595.80786,851.76225 544.81899,841.00389 545.48239,869.69036 z "
       id="path5161" />
    <path
       style="color:#000000;fill:#2d5a3f;fill-opacity:1;fill-rule:nonzero;stroke:none;stroke-width:3.9000001;stroke-linecap:butt;stroke-linejoin:miter;marker:none;marker-start:none;marker-mid:none;marker-end:none;stroke-miterlimit:4;stroke-dasharray:none;stroke-dashoffset:0;stroke-opacity:1;visibility:visible;display:inline;overflow:visible"
       d="M 321.73358,858.0736 C 363.94876,875.03277 413.47373,873.94793 457.33012,870.87582 C 461.34321,843.89083 442.75071,805.54934 486.62543,800.34563 C 522.72004,786.11114 532.77862,819.99004 527.50318,847.61845 C 550.34628,888.26958 608.92416,860.18494 647.99266,868.6665 C 697.7671,867.8698 671.58421,809.75633 670.96853,780.81102 C 666.79973,735.75874 609.76298,715.29668 572.20852,703.3926 C 507.68338,682.97165 434.86618,687.30493 374.54284,718.26983 C 329.3825,739.65933 329.86713,790.56762 325.73061,832.91975 C 322.91825,840.9773 321.69581,849.55391 321.73358,858.0736 z "
       id="path4216"
       sodipodi:nodetypes="cccccccccc" />
    <path
       style="color:#000000;fill:#000000;fill-opacity:1;fill-rule:nonzero;stroke:none;stroke-width:3.9000001;stroke-linecap:butt;stroke-linejoin:miter;marker:none;marker-start:none;marker-mid:none;marker-end:none;stroke-miterlimit:4;stroke-dasharray:none;stroke-dashoffset:0;stroke-opacity:1;visibility:visible;display:inline;overflow:visible"
       id="path1427"
       d="M 675.86153,783.34173 C 682.75691,786.23368 680.49042,791.74443 680.41202,796.51632 C 680.32786,807.79654 680.76699,819.08396 681.75309,830.34579 C 682.53405,837.97227 683.74816,845.6158 686.6445,853.02776 C 692.51698,861.54339 686.24953,870.01851 670.22744,871.7396 C 652.37381,873.17058 634.34717,873.47012 616.38054,873.67403 C 597.01556,873.84137 577.64632,873.93449 558.27944,873.87705 C 550.62326,873.85203 542.96617,873.70256 535.31351,873.91213 C 527.65095,874.30981 523.78769,870.61743 522.29144,866.01545 C 519.87621,853.77501 520.44177,841.34718 520.90147,829.03268 C 518.9696,822.32377 526.97559,809.24573 518.54287,804.07131 C 504.28666,803.58337 490.16092,806.95607 476.90544,810.09913 C 479.26493,806.46425 450.19692,821.08791 453.60836,818.96282 C 474.51042,805.94236 463.5639,810.88925 461.10807,815.98478 C 459.11706,825.81437 464.03271,835.86734 467.95133,845.26831 C 470.48665,851.97043 474.61027,858.46153 475.72365,865.36969 C 475.562,880.26361 452.0257,877.94163 438.10327,877.23811 C 421.62757,876.36477 405.14184,875.58525 388.64884,874.8722 C 377.91353,874.37231 367.19619,873.71713 356.49581,872.95764 C 351.11887,872.52414 345.70883,872.31177 340.32644,871.92234 C 337.02572,871.61585 333.87678,870.87548 330.7124,870.2116 C 327.29231,869.81768 324.44371,868.93729 321.72884,867.53531 C 318.40606,865.24958 317.41295,862.14323 316.46675,859.13344 C 314.75807,853.05284 314.99907,846.82039 315.39212,840.66834 C 316.2524,831.07106 317.19686,821.47427 318.39423,811.89248 C 318.94595,807.05057 319.88829,802.23446 321.81671,797.54716 L 342.27602,792.10944 C 339.36124,796.39119 337.99425,800.99121 337.08547,805.63668 C 335.15964,815.11479 333.99836,824.66272 333.44047,834.2183 C 333.26078,839.89218 333.42941,845.59523 335.05248,851.18503 C 335.61871,853.06836 336.08454,855.03607 337.31499,856.77841 C 339.42695,857.26792 341.62572,857.67383 343.79349,858.10359 C 346.53304,858.6697 349.27827,859.22883 352.15941,859.36835 C 357.42882,859.78916 362.67947,860.29983 367.92892,860.81834 C 378.35018,861.76332 388.79698,862.58397 399.27197,863.21902 C 415.60374,864.27424 431.96397,865.31507 448.37464,865.58488 C 468.75972,865.59937 473.09909,859.98303 456.04464,871.99797 C 457.99554,865.60115 452.91196,859.04635 451.23251,852.8013 C 447.32955,842.67896 442.62824,832.45482 442.13637,821.95485 C 443.79383,807.71316 467.03107,801.74665 484.61953,798.01103 C 499.20673,794.8345 517.47626,789.63678 532.64681,793.2407 C 545.74138,799.59323 536.97516,814.1112 537.75923,823.00933 C 537.05953,834.73296 536.89118,846.60257 540.12028,858.18089 C 541.40111,861.34418 541.4272,861.31705 546.14014,861.12376 C 553.67497,861.25256 561.18841,861.64919 568.70817,861.97351 C 587.62066,862.71016 606.57837,863.04397 625.52104,862.77109 C 643.24067,862.42547 661.72883,862.17809 678.68165,858.49311 C 685.13531,855.16321 666.33272,873.79434 668.72872,861.04283 C 665.99168,853.1714 665.06275,845.0964 664.31654,837.0481 C 663.3851,825.79371 663.58098,814.50726 662.43984,803.25819 C 662.0973,799.81121 657.70614,791.54073 665.0907,796.78908 L 675.86153,783.34173 z " />
    <path
       style="opacity:1;color:#000000;fill:#000000;fill-opacity:1;fill-rule:nonzero;stroke:none;stroke-width:3.9000001;stroke-linecap:butt;stroke-linejoin:miter;marker:none;marker-start:none;marker-mid:none;marker-end:none;stroke-miterlimit:4;stroke-dasharray:none;stroke-dashoffset:0;stroke-opacity:1;visibility:visible;display:inline;overflow:visible"
       id="path1429"
       d="M 327.1061,871.85878 C 326.18011,872.46659 322.63943,873.08554 320.86444,873.53554 C 309.0376,876.52022 297.92774,880.67067 287.7538,885.65537 C 281.74215,888.65323 265.85403,899.29583 289.193,884.26378 C 291.87397,882.53703 284.1615,888.13429 283.11405,890.51618 C 289.80642,898.0273 310.0522,898.07805 321.77698,898.81249 C 351.24992,900.26884 380.93702,898.71444 410.02179,895.40788 C 428.05721,892.5288 449.42882,891.13003 464.17416,882.83375 C 468.46812,879.4401 476.1549,874.62891 454.91433,888.572 C 452.71267,890.01726 458.58667,884.62158 457.61637,882.66839 C 456.08828,880.78154 453.60115,879.42073 451.2157,878.03192 L 466.56749,867.45912 C 469.6164,869.28473 472.62977,871.1661 474.76777,873.52385 C 482.58255,883.18067 471.88437,890.83774 457.81686,896.12812 C 440.74904,902.27455 420.77369,903.87812 401.97263,906.15141 C 372.28179,908.97073 342.1866,910.25343 312.20745,909.30128 C 296.79259,908.58062 273.0903,908.70025 264.78795,898.20081 C 259.8273,886.64423 282.20684,878.7457 293.89485,872.65492 C 305.00022,867.83429 316.72437,863.67665 328.91665,860.20288 C 331.77101,859.41997 334.7547,858.31261 337.87695,858.41144 L 327.1061,871.85878 z " />
    <path
       style="opacity:1;color:#000000;fill:#000000;fill-opacity:1;fill-rule:nonzero;stroke:none;stroke-width:3.9000001;stroke-linecap:butt;stroke-linejoin:miter;marker:none;marker-start:none;marker-mid:none;marker-end:none;stroke-miterlimit:4;stroke-dasharray:none;stroke-dashoffset:0;stroke-opacity:1;visibility:visible;display:inline;overflow:visible"
       id="path1437"
       d="M 553.77304,860.34574 C 552.73027,861.09547 560.86642,868.13457 563.60459,870.44671 C 573.72555,878.86937 585.25294,886.54284 598.89444,892.42011 C 614.14497,898.76986 632.17988,901.16044 649.99276,900.33921 C 659.94663,899.54465 670.28924,898.0372 678.73491,894.24463 C 681.21567,893.13063 687.47143,888.80034 685.27743,890.15441 C 666.28963,901.87296 673.89111,898.20123 677.55796,894.45127 C 682.71844,887.79166 679.36244,880.4554 674.57473,874.20186 C 672.09866,871.16614 668.75759,868.56519 664.93589,866.25568 L 680.30064,855.90492 C 684.52916,858.73539 688.2725,861.84698 691.10845,865.38327 C 697.06562,872.8253 700.59116,881.44631 697.02855,889.77985 C 688.52942,905.07857 662.69004,910.73675 640.67238,911.67931 C 621.4771,912.01633 601.98154,909.44118 585.66295,902.45033 C 571.52985,896.2036 559.64784,888.18041 548.6727,879.62068 C 543.72589,875.81606 538.659,872.02798 534.02036,868.07019 L 553.77304,860.34574 z " />
    <path
       style="opacity:1;color:#000000;fill:#000000;fill-opacity:1;fill-rule:nonzero;stroke:none;stroke-width:3.9000001;stroke-linecap:butt;stroke-linejoin:miter;marker:none;marker-start:none;marker-mid:none;marker-end:none;stroke-miterlimit:4;stroke-dasharray:none;stroke-dashoffset:0;stroke-opacity:1;visibility:visible;display:inline;overflow:visible"
       id="path1457"
       d="M 660.95813,802.29673 C 663.44113,802.6376 665.01874,796.882 665.4654,794.22772 C 665.89644,780.60733 655.40272,767.70254 645.40967,756.23914 C 627.62154,736.1826 603.02796,719.44746 572.55842,707.95353 C 534.09151,694.43787 489.90462,692.53398 447.83566,698.25615 C 407.03311,704.5577 378.99372,720.72662 364.13465,734.01601 C 351.5761,746.00162 343.15112,759.83799 341.06754,774.41757 C 340.32726,779.33133 341.07912,784.23627 342.07675,789.10278 C 342.33615,790.10485 342.46741,791.11599 342.60493,792.12732 L 322.87975,799.22983 C 322.98938,798.38535 323.18192,797.54127 323.03982,796.68836 C 322.47215,791.32106 321.77663,785.93609 322.76265,780.56472 C 325.44655,764.97852 334.45407,750.18753 347.63329,737.21627 C 373.55282,713.17013 410.78943,695.24889 454.55933,689.00111 C 497.972,683.77309 543.14473,686.23063 582.8236,699.77655 C 614.40703,711.41951 639.89184,728.36097 659.06156,748.68322 C 670.23817,760.55747 681.43349,773.4089 684.02249,787.54679 C 684.32566,791.24865 682.84783,794.88467 683.1203,798.42719 L 660.95813,802.29673 z " />
    <g
       id="g4208"
       transform="translate(-22.22336,14.14214)">
      <path
         id="path4182"
         d="M 309.61176,724.22833 C 320.29345,740.15464 339.46586,748.18524 357.71523,751.43345 C 371.48106,751.786 383.83809,743.91898 395.2034,737.12282 C 409.66586,728.59306 399.97139,710.14953 388.88413,703.68227 C 378.91377,699.11683 367.53288,703.01941 357.04255,703.61646 C 346.17967,705.63131 334.95726,705.76725 324.1876,707.69417 C 317.12366,710.82199 314.14582,718.53446 309.61176,724.22833 z "
         style="opacity:1;color:#000000;fill:#efccb2;fill-opacity:1;fill-rule:nonzero;stroke:none;stroke-width:3.9000001;stroke-linecap:butt;stroke-linejoin:miter;marker:none;marker-start:none;marker-mid:none;marker-end:none;stroke-miterlimit:4;stroke-dasharray:none;stroke-dashoffset:0;stroke-opacity:1;visibility:visible;display:inline;overflow:visible" />
      <path
         d="M 325.84768,722.28398 C 324.10465,721.21414 324.56769,721.66171 324.10185,723.72923 C 324.37582,728.77511 329.55562,732.87803 334.86686,736.18768 C 343.01315,740.94673 353.05645,744.18014 363.77595,745.22259 C 374.71319,745.53014 384.10032,742.05341 392.17973,737.44868 C 391.06402,738.27879 396.83189,734.44331 395.6598,735.18842 C 373.61082,749.20531 392.68759,737.86231 395.51609,730.94339 C 396.23185,728.45746 395.45202,726.0589 394.51897,723.66068 L 412.19611,715.47051 C 413.55951,718.43694 414.80236,721.44397 414.69085,724.58097 C 414.04732,735.97055 398.55495,744.33249 386.28463,750.74804 C 376.29844,755.37645 364.68339,758.42881 352.33758,757.00055 C 340.46637,755.30752 329.35066,751.34618 320.1362,746.14032 C 313.45847,742.10436 307.34289,737.23576 305.04724,731.31316 C 304.57335,729.5865 304.45542,727.82901 303.6855,726.15354 L 325.84768,722.28398 z "
         id="path1485"
         style="opacity:1;color:#000000;fill:#000000;fill-opacity:1;fill-rule:nonzero;stroke:none;stroke-width:3.9000001;stroke-linecap:butt;stroke-linejoin:miter;marker:none;marker-start:none;marker-mid:none;marker-end:none;stroke-miterlimit:4;stroke-dasharray:none;stroke-dashoffset:0;stroke-opacity:1;visibility:visible;display:inline;overflow:visible" />
    </g>
    <g
       id="g4212"
       transform="translate(-22.22336,14.14214)">
      <path
         id="path4190"
         d="M 714.68292,739.38062 C 701.636,771.29561 643.70719,766.42602 641.31989,730.14193 C 643.14474,690.15414 700.18985,699.64944 707.85131,732.05957 L 711.10459,735.86831 L 714.68292,739.38062 L 714.68292,739.38062 z "
         style="opacity:1;color:#000000;fill:#efccb2;fill-opacity:1;fill-rule:nonzero;stroke:none;stroke-width:3.9000001;stroke-linecap:butt;stroke-linejoin:miter;marker:none;marker-start:none;marker-mid:none;marker-end:none;stroke-miterlimit:4;stroke-dasharray:none;stroke-dashoffset:0;stroke-opacity:1;visibility:visible;display:inline;overflow:visible" />
      <path
         d="M 651.46082,719.82242 C 651.27927,722.50878 651.00403,725.35035 650.96637,728.10086 C 650.65446,734.38706 653.1983,740.38151 657.11947,746.03722 C 661.02329,751.30986 668.60931,753.769 676.92435,754.88723 C 684.37388,755.54057 691.34846,754.0953 697.63075,751.51827 C 715.53823,738.68627 680.71308,766.96752 698.78871,749.87057 C 701.11235,747.61133 702.81626,745.12899 704.33031,742.59641 L 724.39705,737.09071 C 723.04844,739.98081 721.50487,742.82715 719.27557,745.4792 C 712.3975,753.48479 702.78823,761.00486 690.20143,765.11051 C 682.1287,767.21355 673.52474,768.0934 664.98388,766.64053 C 654.88863,764.81669 645.27498,761.11058 640.31933,754.76217 C 635.79666,748.61349 632.93222,741.9343 632.2214,735.09737 C 632.08186,732.86182 631.73938,729.18959 631.70814,727.54687 L 651.46082,719.82242 z "
         id="path1481"
         style="opacity:1;color:#000000;fill:#000000;fill-opacity:1;fill-rule:nonzero;stroke:none;stroke-width:3.9000001;stroke-linecap:butt;stroke-linejoin:miter;marker:none;marker-start:none;marker-mid:none;marker-end:none;stroke-miterlimit:4;stroke-dasharray:none;stroke-dashoffset:0;stroke-opacity:1;visibility:visible;display:inline;overflow:visible" />
    </g>
    <path
       style="color:#000000;fill:#2d5a3f;fill-opacity:1;fill-rule:nonzero;stroke:none;stroke-width:3.9000001;stroke-linecap:butt;stroke-linejoin:miter;marker:none;marker-start:none;marker-mid:none;marker-end:none;stroke-miterlimit:4;stroke-dasharray:none;stroke-dashoffset:0;stroke-opacity:1;visibility:visible;display:inline;overflow:visible"
       d="M 276.7818,737.36034 C 314.85788,746.41233 349.55668,723.4437 384.49452,712.4884 C 406.99636,706.2674 430.40842,703.44593 453.68805,701.95911 C 532.51181,699.06692 607.57205,727.59853 681.50382,750.92944 C 705.71605,757.85199 723.22358,733.49222 726.20476,712.26495 C 733.84937,681.07294 726.9024,647.21897 706.88335,622.00387 C 693.64928,605.45113 678.49535,588.36319 659.15798,579.33072 C 614.38212,564.43148 566.95285,562.39745 520.36034,558.1408 C 461.382,556.26877 402.24243,565.45222 345.79416,582.08641 C 300.88189,586.71938 261.15588,626.43104 261.31897,672.45805 C 260.57352,694.9975 267.18796,717.17346 276.7818,737.36034 z "
       id="path5100" />
    <path
       style="color:#000000;fill:#000000;fill-opacity:1;fill-rule:nonzero;stroke:none;stroke-width:3.9000001;stroke-linecap:butt;stroke-linejoin:miter;marker:none;marker-start:none;marker-mid:none;marker-end:none;stroke-miterlimit:4;stroke-dasharray:none;stroke-dashoffset:0;stroke-opacity:1;visibility:visible;display:inline;overflow:visible"
       id="path1469"
       d="M 311.81561,592.78636 C 314.04154,594.80298 316.7102,595.23732 313.44671,597.31762 C 314.55606,596.36058 308.22415,600.67942 309.51703,599.83027 C 313.12081,597.46336 316.72512,595.09678 320.31972,592.7237 C 321.05203,592.24026 318.8299,593.67368 318.10399,594.16138 C 315.39279,595.98296 312.82562,597.89634 310.38047,599.877 C 303.50616,605.44546 297.68314,611.42557 292.36316,617.69133 C 274.91064,638.55873 272.27641,662.57512 273.77125,685.96653 C 275.18734,701.9266 278.79599,717.80607 284.73037,733.30096 L 268.85283,740.24157 C 264.10694,724.11385 261.07982,707.7614 259.60167,691.35939 C 257.96081,667.71784 259.54742,643.26395 275.37211,621.60364 C 286.30774,607.05282 300.2157,593.61744 319.60574,583.40613 C 324.42239,581.46967 328.44159,581.87388 331.56827,585.06191 L 311.81561,592.78636 z " />
    <path
       style="color:#000000;fill:#000000;fill-opacity:1;fill-rule:nonzero;stroke:none;stroke-width:3.9000001;stroke-linecap:butt;stroke-linejoin:miter;marker:none;marker-start:none;marker-mid:none;marker-end:none;stroke-miterlimit:4;stroke-dasharray:none;stroke-dashoffset:0;stroke-opacity:1;visibility:visible;display:inline;overflow:visible"
       id="path1471"
       d="M 672.05802,578.44659 C 677.42702,580.34009 681.97029,583.03181 686.32826,585.82245 C 703.5961,597.20758 714.14073,612.11533 722.27612,627.13933 C 733.83865,649.46542 737.86466,673.11964 736.76591,696.63736 C 735.87415,713.18749 730.92532,729.45755 723.6362,745.25126 L 706.64838,749.91564 C 715.04798,734.44675 720.66098,718.35092 721.98635,701.88651 C 723.64128,678.90213 719.89852,655.72707 708.06444,633.99556 C 700.06941,619.84689 689.65666,605.6142 671.98299,595.67901 C 669.83401,594.54462 660.81455,590.08993 661.28719,591.89394 L 672.05802,578.44659 z " />
    <path
       style="color:#000000;fill:#000000;fill-opacity:1;fill-rule:nonzero;stroke:none;stroke-width:3.9000001;stroke-linecap:butt;stroke-linejoin:miter;marker:none;marker-start:none;marker-mid:none;marker-end:none;stroke-miterlimit:4;stroke-dasharray:none;stroke-dashoffset:0;stroke-opacity:1;visibility:visible;display:inline;overflow:visible"
       id="path1473"
       d="M 286.93262,731.19411 C 283.57367,729.4422 287.25847,730.73442 287.30417,730.66997 C 293.02751,731.50003 298.90802,731.54276 304.72771,731.2953 C 311.98029,730.89363 318.76196,729.07948 325.25952,727.00625 C 329.75303,725.54879 334.05945,723.91236 337.67211,721.61302 L 331.51157,735.76299 C 326.97454,737.50686 322.27149,739.06195 317.4369,740.40861 C 310.02122,742.34207 302.36008,743.91711 294.31117,743.92676 C 287.494,743.95035 280.47529,743.88687 273.90933,742.55853 C 271.15306,741.6853 268.70941,740.76017 267.17996,738.91857 L 286.93262,731.19411 z " />
    <path
       style="color:#000000;fill:#000000;fill-opacity:1;fill-rule:nonzero;stroke:none;stroke-width:3.9000001;stroke-linecap:butt;stroke-linejoin:miter;marker:none;marker-start:none;marker-mid:none;marker-end:none;stroke-miterlimit:4;stroke-dasharray:none;stroke-dashoffset:0;stroke-opacity:1;visibility:visible;display:inline;overflow:visible"
       id="path1475"
       d="M 658.04969,733.93329 C 661.19736,735.27222 664.09717,736.83763 667.22262,738.20831 C 674.19203,741.31745 681.70637,743.63786 689.88069,744.88146 C 698.72332,746.01274 707.23435,744.62892 715.42046,742.44677 C 716.47224,742.16638 717.44856,741.78403 718.46258,741.45266 L 710.61661,754.78557 C 710.52726,754.80633 707.22739,755.61867 707.17262,755.58571 C 697.60496,757.44087 687.70044,758.31631 677.89766,756.58154 C 669.04687,755.03295 660.91572,752.30378 653.09548,749.18224 C 652.3034,748.8821 643.65933,745.42243 647.27886,747.38064 L 658.04969,733.93329 z " />
    <path
       style="color:#000000;fill:#efccb2;fill-opacity:1;fill-rule:nonzero;stroke:none;stroke-width:3.9000001;stroke-linecap:butt;stroke-linejoin:miter;marker:none;marker-start:none;marker-mid:none;marker-end:none;stroke-miterlimit:4;stroke-dasharray:none;stroke-dashoffset:0;stroke-opacity:1;visibility:visible;display:inline;overflow:visible"
       d="M 373.25137,483.81206 C 357.60126,501.93674 346.64357,526.3847 351.14539,550.48708 C 358.79473,572.18201 385.49232,562.35996 402.74968,563.90332 C 433.16458,561.66804 418.49805,596.28848 412.16915,612.47556 C 398.49974,634.94557 428.5762,648.78498 447.17999,647.57106 C 483.0888,644.49983 523.26288,632.44772 543.07859,600.02269 C 545.12816,578.55206 562.14903,560.34054 584.93834,563.2591 C 606.81349,559.09192 632.75044,567.46062 651.65816,554.48056 C 671.30052,531.45617 657.81142,489.58905 628.22736,482.19514 C 585.52475,469.14851 540.23445,476.29685 496.34851,475.26679 C 457.12341,477.29809 417.60876,481.22839 378.54625,481.42383 C 377.47313,481.81138 376.70099,482.681 375.77673,483.30697"
       id="path3302" />
    <path
       style="color:#000000;fill:#000000;fill-opacity:1;fill-rule:nonzero;stroke:none;stroke-width:3.9000001;stroke-linecap:butt;stroke-linejoin:miter;marker:none;marker-start:none;marker-mid:none;marker-end:none;stroke-miterlimit:4;stroke-dasharray:none;stroke-dashoffset:0;stroke-opacity:1;visibility:visible;display:inline;overflow:visible"
       id="path1347"
       d="M 339.34999,565.83106 C 339.51967,563.51874 336.99562,553.06482 336.60631,548.39427 C 335.65097,527.12539 345.11029,506.13084 361.42496,487.95756 C 393.2792,455.96906 445.55429,444.67636 500.18476,442.08043 C 541.3989,440.93806 583.43422,443.89747 621.55503,454.85505 C 639.06698,460.02127 654.92849,467.62292 661.66059,479.91743 C 666.31242,490.75377 666.1642,502.22877 666.49371,513.41625 C 666.68396,522.96466 667.11765,532.51367 666.99621,542.06343 C 667.02061,545.28279 666.55146,548.47852 665.89439,551.66179 L 637.06026,560.12248 C 638.48604,557.34799 639.58988,554.52514 639.90796,551.5811 C 641.12244,542.06145 640.91453,532.49618 640.84454,522.95073 C 640.66665,512.4456 640.72147,501.77847 637.10891,491.49736 C 631.95505,480.83687 619.40813,474.10956 604.49679,469.27517 C 568.7552,457.80781 528.41232,454.5147 489.08248,455.96752 C 440.39577,458.8625 390.43293,474.89609 386.22811,482.7266 C 369.66069,499.15773 360.22418,518.72737 361.78102,538.61496 C 362.48656,544.08022 363.39763,550.00442 367.2758,554.91042 L 339.34999,565.83106 z " />
    <path
       style="color:#000000;fill:#ff0000;fill-opacity:1;fill-rule:nonzero;stroke:none;stroke-width:3.9000001;stroke-linecap:butt;stroke-linejoin:miter;marker:none;marker-start:none;marker-mid:none;marker-end:none;stroke-miterlimit:4;stroke-dasharray:none;stroke-dashoffset:0;stroke-opacity:1;visibility:visible;display:inline;overflow:visible"
       d="M 433.20005,518.89126 C 428.23015,519.43577 423.8755,524.68721 417.89491,528.7535 C 417.80098,528.97027 417.72819,529.15337 417.66627,529.36455 C 417.65945,529.37493 417.67743,529.39382 417.67093,529.40424 C 417.66808,529.41417 417.67837,529.43404 417.67559,529.44395 C 417.66809,529.45648 417.62761,529.47418 417.62054,529.48676 C 417.61785,529.49666 417.62782,529.51656 417.62521,529.52645 C 417.44443,529.88511 417.42788,530.27461 417.46185,530.69335 C 417.46248,530.90607 417.50623,531.12062 417.5365,531.3286 C 417.54027,531.35127 417.53989,531.38539 417.54581,531.40801 C 417.54794,531.42104 417.54825,531.43468 417.55049,531.4477 C 417.55745,531.47031 417.55085,531.50457 417.55981,531.52711 C 417.56228,531.54011 417.56192,531.55383 417.56448,531.56682 C 417.88068,533.16289 419.01448,534.62903 420.49911,536.08805 C 423.86187,538.6612 428.25737,539.70594 433.29169,539.6181 C 440.8335,538.85024 448.21835,535.41858 451.67714,530.91413 C 451.71454,530.87755 451.74502,530.82529 451.78259,530.7888 C 451.86358,530.71021 451.9145,530.6551 451.99817,530.5779 C 452.86668,529.77645 453.34156,528.66665 453.44467,527.54684 C 453.45675,527.50398 453.47904,527.46758 453.49041,527.42463 C 453.49133,527.41077 453.48491,527.39878 453.48573,527.38492 C 453.4926,527.35846 453.46982,527.332 453.47642,527.30551 C 453.49079,527.24755 453.49977,527.16204 453.5128,527.10391 C 453.51535,527.09261 453.50567,527.0755 453.50814,527.0642 C 453.71063,526.14293 453.81602,525.21671 453.65943,524.26018 C 452.19774,520.72738 447.92175,519.29306 442.90773,518.66684 C 441.25325,518.51979 439.6348,518.74724 438.00583,518.8814 L 437.56162,519.70337 C 436.0052,518.98513 434.59962,518.73792 433.20005,518.89126 z "
       id="path1463" />
    <path
       style="color:#000000;fill:#ff0000;fill-opacity:1;fill-rule:nonzero;stroke:none;stroke-width:3.9000001;stroke-linecap:butt;stroke-linejoin:miter;marker:none;marker-start:none;marker-mid:none;marker-end:none;stroke-miterlimit:4;stroke-dasharray:none;stroke-dashoffset:0;stroke-opacity:1;visibility:visible;display:inline;overflow:visible"
       d="M 559.69665,517.47636 C 559.09341,517.50789 558.51518,517.60198 557.85924,517.69159 C 546.78945,520.18066 538.43311,525.70628 540.83132,532.83617 C 542.29095,535.9005 545.52187,537.71067 549.73252,539.04486 C 560.41569,541.18415 571.06417,535.24059 573.65451,527.85643 C 574.25479,524.76517 572.23682,522.4232 569.15695,520.26068 C 567.82211,519.43076 566.29814,518.88411 564.67877,518.45598 C 563.11838,517.615 561.50637,517.38179 559.69665,517.47636 z "
       id="path1465" />
    <path
       style="color:#000000;fill:#b96767;fill-opacity:1;fill-rule:nonzero;stroke:none;stroke-width:3.9000001;stroke-linecap:butt;stroke-linejoin:miter;marker:none;marker-start:none;marker-mid:none;marker-end:none;stroke-miterlimit:4;stroke-dasharray:none;stroke-dashoffset:0;stroke-opacity:1;visibility:visible;display:inline;overflow:visible"
       d="M 498.33914,95.610886 C 469.67623,131.17195 475.61212,182.04619 447.95718,218.90213 C 412.46652,294.43766 392.67095,376.055 370.59582,455.97482 C 357.157,500.97213 426.14614,476.15675 452.02842,479.72203 C 510.70907,472.94769 571.16696,468.45453 628.647,484.63708 C 669.59561,492.49098 650.58884,440.22457 638.91886,421.01989 C 616.3344,373.64266 607.38379,321.07178 584.22676,273.99311 C 557.75619,225.37484 538.80025,173.20357 521.09094,120.99049 C 516.20669,110.57042 508.69718,101.01077 498.33914,95.610886 z "
       id="path2395" />
    <path
       style="color:#000000;fill:#000000;fill-opacity:1;fill-rule:nonzero;stroke:none;stroke-width:3.9000001;stroke-linecap:butt;stroke-linejoin:miter;marker:none;marker-start:none;marker-mid:none;marker-end:none;stroke-miterlimit:4;stroke-dasharray:none;stroke-dashoffset:0;stroke-opacity:1;visibility:visible;display:inline;overflow:visible"
       d="M 502.46414,81.704636 C 482.33181,85.320181 483.92753,111.42212 476.03025,126.1891 C 436.69316,240.91269 396.76883,355.5037 354.66697,469.20178 C 346.17343,495.49085 377.74579,491.29853 393.85176,490.10644 C 410.4221,488.89287 421.94459,489.25755 439.58345,489.04165 C 458.08064,488.70557 474.66199,483.72214 493.88234,484.05969 C 543.27207,481.56427 593.50788,483.63872 641.33914,497.14214 C 662.54873,514.79308 685.53656,480.72661 666.07369,464.34414 C 615.18349,341.9116 568.73071,217.67878 517.02664,95.579636 C 515.88319,88.443676 510.29153,81.313659 502.46414,81.704636 z M 498.99539,106.32964 C 527.11507,159.69614 550.20697,215.55544 573.73649,271.06295 C 598.91453,331.71558 621.82965,393.34635 642.98856,455.46936 C 646.68536,464.53327 658.91487,484.89659 640.1424,476.32443 C 583.66102,465.71367 525.73109,465.08528 468.58914,469.76714 C 459.13026,470.84746 437.31845,473.10667 424.06054,471.35391 C 408.15911,470.71074 391.51886,472.65963 376.24098,471.08989 C 372.14828,451.42399 386.43527,430.93352 390.56791,411.43112 C 424.07702,313.78665 456.97717,215.88319 493.34213,119.26416 C 495.14146,114.91616 497.01812,110.5998 498.99539,106.32964 z "
       id="path1514"
       sodipodi:nodetypes="cccccccccccccccccccc" />
    <path
       style="color:#000000;fill:#bdafab;fill-opacity:1;fill-rule:nonzero;stroke:none;stroke-width:3.9000001;stroke-linecap:butt;stroke-linejoin:miter;marker:none;marker-start:none;marker-mid:none;marker-end:none;stroke-miterlimit:4;stroke-dasharray:none;stroke-dashoffset:0;stroke-opacity:1;visibility:visible;display:inline;overflow:visible"
       d="M 335.87573,568.66485 C 378.62386,555.26321 454.12349,553.80404 406.92148,615.51896 C 424.14725,671.38966 505.30908,649.8195 534.94092,616.00581 C 550.05575,569.12655 608.35338,540.77142 650.50116,569.69416 C 674.77225,611.99984 669.31844,668.95088 665.75473,717.24012 C 650.54093,781.1939 588.1227,814.14936 523.11065,829.07884 C 459.18639,844.32666 391.37564,817.50373 353.42432,764.40336 C 312.9268,711.74197 294.51705,630.31721 333.12319,572.09592 L 335.09743,569.63501 L 335.87573,568.66485 z M 389.64286,564.64286 C 391.75506,564.64286 396.41595,564.64286 399.64286,564.64286 C 405.71429,564.64286 411.78571,564.64286 417.85714,564.64286 C 420.83333,564.64286 423.80952,564.64286 426.78571,564.64286 C 428.63468,564.64286 430.82821,564.67134 432.14286,565 C 433.98347,565.46015 435.88585,574.44326 436.42857,576.07143 C 438.18463,581.33962 438.25742,586.64422 439.28571,591.78571 C 440.23083,596.51128 442.83851,601.16562 445.71429,605 C 448.11639,608.2028 450.34606,611.06589 453.92857,612.85714 C 458.38463,615.08517 462.67192,617.36441 467.5,618.57143 C 472.73016,619.87897 476.03586,622.14286 481.78572,622.14286 C 485.11905,622.14286 488.45238,622.14286 491.78572,622.14286 C 496.03085,622.14286 500.62776,621.33836 504.64286,620 C 507.84828,618.93153 510.41036,618.54482 513.21429,617.14286 C 515.86371,615.81815 519.00162,614.5276 521.78572,612.85714 C 524.07161,611.48561 526.29488,609.22588 527.85714,607.14286 C 529.7809,604.57784 532.08298,601.31093 532.85714,598.21429 C 533.62766,595.13222 534.95807,592.31057 535.71429,589.28571 C 536.73972,585.18396 537.54328,580.81177 538.21429,576.78571 C 538.33333,576.07143 538.45238,575.35714 538.57143,574.64286 C 539.08371,571.56919 541.02537,570.55874 543.57143,569.28571 C 548.90424,566.61931 554.74261,565.44294 560.35714,563.57143 C 564.68464,562.12893 570.84365,562.10489 575.35714,562.85714 C 578.96847,563.45903 582.43808,563.89761 585.35714,565.35714 C 596.29943,570.82828 591.81838,619.15505 589.64286,627.85714 C 585.86987,642.9491 576.22101,658.07616 562.85714,666.42857 C 552.67027,672.79537 537.21316,678.55385 525.71429,681.42857 C 514.21658,684.303 509.20288,683.57143 498.57143,683.57143 C 495.17925,683.57143 469.46042,677.60637 463.57143,676.42857 C 439.39285,671.59285 417.89154,670.20418 393.57143,663.57143 C 381.29781,660.22408 360.75836,649.41794 356.42857,636.42857 C 352.10367,623.45386 359.75532,609.96292 366.42857,599.28571 C 370.79407,592.30091 373.39584,584.10415 379.28571,578.21429 C 383.26016,574.23984 387.17904,570.66605 390.35714,566.42857 C 390.7418,565.9157 389.88095,565.23809 389.64286,564.64286 z "
       id="path3293"
       sodipodi:nodetypes="cccccccccc" />
    <path
       style="color:#000000;fill:#000000;fill-opacity:1;fill-rule:nonzero;stroke:none;stroke-width:3.9000001;stroke-linecap:butt;stroke-linejoin:miter;marker:none;marker-start:none;marker-mid:none;marker-end:none;stroke-miterlimit:4;stroke-dasharray:none;stroke-dashoffset:0;stroke-opacity:1;visibility:visible;display:inline;overflow:visible"
       d="M 654.84375,547.71875 C 653.28244,547.76136 651.6113,547.93338 649.84375,548.21875 C 622.4005,555.00826 572.77337,552.88767 544.68304,556.33482 C 547.63623,561.22184 545.94273,569.61771 547.27232,575.33482 C 571.39085,572.79328 619.84866,571.8178 643.03125,566.0625 C 656.82888,571.96431 652.80347,588.6745 656.03125,599.03125 C 658.91645,647.19717 654.76999,695.7555 641.625,743.1875 C 634.83197,766.82855 618.37655,791.23935 585.28125,803.3125 C 544.13209,819.13499 494.39514,829.62158 446.84375,822.6875 C 406.63258,814.69065 385.93108,787.77822 369.625,764.25 C 341.36248,722.31263 325.87364,676.54286 324.0625,630.625 C 324.02315,609.49411 330.66646,588.19717 344.34375,569.09375 C 364.97375,571.26995 426.49958,575.37893 447.43304,575.16964 C 446.81274,568.955 450.11948,560.37563 453.35714,554.83929 C 434.63618,555.0613 373.17436,552.95976 354.78125,550.65625 L 352.46875,550.71875 C 352.36726,550.72896 352.25725,550.73929 352.15625,550.75 C 326.39942,553.48068 317.07123,572.71514 310.09375,587 C 295.25087,617.34621 298.06686,649.78921 306.96875,680.6875 C 318.32483,726.77744 340.07448,772.57739 378.96875,811.78125 C 398.25588,829.98575 431.04293,841.86692 464.96875,839.96875 C 515.79717,838.62634 566.86708,826.73129 606.34375,805.1875 C 641.35718,786.46926 661.3669,758.01473 666.78125,728.75 C 678.28711,678.50809 681.95618,627.42297 679.25,576.65625 C 678.40881,566.09994 675.09039,547.60481 655.5,547.71875 C 655.28117,547.72002 655.06679,547.71266 654.84375,547.71875 z "
       id="path1325"
       sodipodi:nodetypes="ccccccccccccccccscccccccsc" />
    <path
       style="opacity:1;color:#000000;fill:#000000;fill-opacity:1;fill-rule:nonzero;stroke:none;stroke-width:3.9000001;stroke-linecap:butt;stroke-linejoin:miter;marker:none;marker-start:none;marker-mid:none;marker-end:none;stroke-miterlimit:4;stroke-dasharray:none;stroke-dashoffset:0;stroke-opacity:1;visibility:visible;display:inline;overflow:visible"
       id="path6962"
       d="M 447.16087,572.9506 C 449.22192,569.12978 447.34159,572.2005 446.98719,573.67149 C 445.74876,577.8782 445.44034,582.26632 445.33061,586.62588 C 445.25846,591.56735 446.69739,595.80866 449.4597,599.80716 C 455.36426,606.3244 463.84337,609.12816 472.1397,611.23332 C 483.27871,613.64214 494.61008,612.89185 505.59464,610.17974 C 514.32678,607.91236 521.20523,603.26116 526.53782,597.11645 C 531.25639,591.3846 532.76454,584.81369 532.7838,577.59582 C 532.67607,573.06594 530.88808,569.1557 528.80954,565.25539 L 545.45413,555.29889 C 548.98558,561.70254 551.5542,568.49531 551.87094,575.89078 C 552.1089,587.36576 549.52791,598.15557 542.42068,607.42536 C 533.57714,618.20086 522.35533,625.38287 508.7255,628.64066 C 494.95818,631.6303 480.7817,632.4928 466.9546,629.17964 C 454.78991,626.18306 442.69086,621.3345 434.3289,611.64408 C 429.12195,604.55912 426.11898,596.7 426.01086,587.813 C 425.9723,581.72983 426.40973,575.62951 427.77472,569.68579 C 428.71727,566.42695 429.60229,563.13766 431.64594,560.36442 L 447.16087,572.9506 z " />
  </g>
</svg>
