<?xml version="1.0" encoding="UTF-8" standalone="no"?>
<!-- Created with Inkscape (http://www.inkscape.org/) -->
<svg
   xmlns:dc="http://purl.org/dc/elements/1.1/"
   xmlns:cc="http://web.resource.org/cc/"
   xmlns:rdf="http://www.w3.org/1999/02/22-rdf-syntax-ns#"
   xmlns:svg="http://www.w3.org/2000/svg"
   xmlns="http://www.w3.org/2000/svg"
   xmlns:sodipodi="http://inkscape.sourceforge.net/DTD/sodipodi-0.dtd"
   xmlns:inkscape="http://www.inkscape.org/namespaces/inkscape"
   width="792pt"
   height="612pt"
   id="svg2"
   sodipodi:version="0.32"
   inkscape:version="0.43"
   version="1.0"
   sodipodi:docbase="/home/kkowal/tale/art"
   sodipodi:docname="kitten.svg">
  <defs
     id="defs4" />
  <sodipodi:namedview
     id="base"
     pagecolor="#ffffff"
     bordercolor="#666666"
     borderopacity="1.0"
     inkscape:pageopacity="0.0"
     inkscape:pageshadow="2"
     inkscape:zoom="0.98994949"
     inkscape:cx="596.53646"
     inkscape:cy="394.34401"
     inkscape:document-units="px"
     inkscape:current-layer="layer1"
     inkscape:window-width="1600"
     inkscape:window-height="1125"
     inkscape:window-x="0"
     inkscape:window-y="25" />
  <metadata
     id="metadata7">
    <rdf:RDF>
      <cc:Work
         rdf:about="">
        <dc:format>image/svg+xml</dc:format>
        <dc:type
           rdf:resource="http://purl.org/dc/dcmitype/StillImage" />
      </cc:Work>
    </rdf:RDF>
  </metadata>
  <g
     inkscape:label="Layer 1"
     inkscape:groupmode="layer"
     id="layer1">
    <path
       style="opacity:1;color:#000000;fill:#93b8c2;fill-opacity:1;fill-rule:nonzero;stroke:none;stroke-width:3.9000001;stroke-linecap:butt;stroke-linejoin:miter;marker:none;marker-start:none;marker-mid:none;marker-end:none;stroke-miterlimit:4;stroke-dasharray:none;stroke-dashoffset:0;stroke-opacity:1;visibility:visible;display:inline;overflow:visible"
       d="M 475,297.85715 C 427.70089,305.86667 367.45857,293.15294 333.89423,335.99479 C 311.45272,382.35599 359.67814,409.75085 396.70444,383.83487 C 442.32464,374.26067 486.10382,409.61302 479.27293,452.82063 C 475.98601,506.41061 413.01888,511.77817 371.50519,508.36321 C 321.34961,503.15586 319.76471,569.33803 348.57948,594.90271 C 382.28513,619.27722 416.51523,578.32712 444.37644,562.17161 C 492.34991,542.9151 497.4714,604.1716 509.83465,632.4211 C 540.52795,657.51697 597.40853,623.5265 585.82741,583.72305 C 576.57054,543.12779 531.45516,542.249 533.71918,474.1745 C 532.99295,437.3291 522.31034,381.74583 586.40747,381.95877 C 622.7063,392.83786 680.47562,383.92095 667.87841,331.748 C 660.93766,279.95095 604.58349,304.1863 570.34695,300.79054 C 526.67688,298.38823 482.85035,303.70409 439.28571,298.57144"
       id="path9682"
       sodipodi:nodetypes="cccccccccccccc" />
    <path
       style="opacity:1;color:#000000;fill:#000000;fill-opacity:1;fill-rule:nonzero;stroke:none;stroke-width:3.9000001;stroke-linecap:butt;stroke-linejoin:miter;marker:none;marker-start:none;marker-mid:none;marker-end:none;stroke-miterlimit:4;stroke-dasharray:none;stroke-dashoffset:0;stroke-opacity:1;visibility:visible;display:inline;overflow:visible"
       d="M 566.0625,287.46875 C 574.31508,307.66506 598.98841,302.50398 615.86602,299.88864 C 636.04149,294.8553 656.74333,306.78055 664.71628,325.41768 C 675.2118,350.17141 653.99149,384.14236 625.74736,379.09409 C 600.1963,373.89008 569.46843,366.02999 546.86425,383.5253 C 530.21476,400.03048 532.59664,425.97958 527.06082,447.24078 C 523.34791,474.29795 521.0088,504.61632 535.5335,528.977 C 551.65002,552.16172 580.65178,567.76999 586.43621,597.14862 C 589.65609,617.94239 570.90986,633.47157 552.18862,636.75117 C 535.73429,641.56941 513.61209,634.52534 510.86769,615.51372 C 507.69157,593.21685 503.77429,565.30096 481.67061,553.78933 C 459.23446,545.08176 439.47966,564.10344 422.89909,576.5163 C 405.81522,590.50813 380.28415,605.65987 359.0113,591.22366 C 336.34812,575.37323 328.26729,538.66358 347.0058,516.90853 C 384.08125,502.92796 427.62405,521.5871 461.89067,497.95452 C 487.82023,478.4729 490.88658,439.52299 478.12298,411.56554 C 466.33628,383.73862 431.9336,369.06854 403.58679,379.01549 C 385.21717,383.98418 358.32693,396.17455 345.44288,375.01256 C 332.60097,356.4363 341.34314,329.02522 361.49331,319.59183 C 390.23347,304.25989 424.12108,304.23923 455.76925,305.67134 C 466.24126,307.944 496.49958,298.56162 474.96507,291.07522 C 431.99809,295.62241 384.32891,291.96562 347.59584,318.79498 C 329.6481,329.78993 321.48695,352.73309 328.66351,372.59815 C 333.21837,392.63704 356.54484,408.1236 375.79803,396.54831 C 407.23986,380.00383 455.61727,387.86748 469.37138,423.98283 C 475.69219,442.2261 479.25462,464.86754 464.78491,480.46983 C 444.79889,503.09183 411.51384,505.44007 383.79115,499.20838 C 361.26302,497.28993 331.01651,503.55459 324.09273,528.48112 C 321.56447,546.87212 327.27483,565.58374 332.73986,583.03513 C 337.86134,600.0019 354.57854,612.7759 372.69553,609.23938 C 407.72303,608.09023 427.41633,571.9122 459.93064,564.61943 C 482.98843,563.15543 492.75486,587.58646 495.52055,606.46078 C 499.51829,623.53883 502.42979,651.41682 525.84947,649.91038 C 549.53511,650.85783 571.1829,638.7179 590.47433,626.29137 C 608.31265,608.87362 600.97041,580.68239 586.85517,563.47278 C 574.52896,545.15269 551.34036,536.05781 544.20622,513.93166 C 532.4443,483.48999 539.65684,450.47517 540.20463,418.92376 C 542.59151,393.7722 570.37705,381.29438 593.03164,384.87802 C 613.91416,390.68091 638.16795,397.40219 656.48566,380.59922 C 681.55109,362.96862 689.77862,320.77285 663.98785,300.19619 C 635.77344,278.24688 598.01665,294.60264 566.0625,287.46875 z M 655.46875,372.75 L 653.34526,374.81624 L 655.46875,372.75 z "
       id="path1583" />
    <path
       style="opacity:1;color:#000000;fill:#000000;fill-opacity:1;fill-rule:nonzero;stroke:none;stroke-width:3.9000001;stroke-linecap:butt;stroke-linejoin:miter;marker:none;marker-start:none;marker-mid:none;marker-end:none;stroke-miterlimit:4;stroke-dasharray:none;stroke-dashoffset:0;stroke-opacity:1;visibility:visible;display:inline;overflow:visible"
       id="path1621"
       d="M 395.5823,334.41577 C 393.95663,335.23162 391.99056,336.21712 390.32508,337.23573 C 387.3741,339.45252 381.22167,345.12193 393.33196,334.34983 C 395.92098,332.0469 388.59889,339.50183 386.92494,342.5357 C 384.86385,346.73537 385.30855,350.02481 388.19712,353.51858 C 392.10187,356.90066 396.23178,357.64374 400.88488,355.70403 C 400.46775,356.25877 403.15472,353.74641 402.58742,354.236 C 391.88309,363.47408 401.01346,354.75292 400.97449,345.87066 C 400.53112,338.53018 394.85452,338.07953 388.70234,338.41525 C 388.20631,338.48238 387.71027,338.54952 387.21424,338.61666 L 392.88852,330.02221 C 393.42457,329.9818 393.96062,329.9414 394.49667,329.90099 C 402.09958,329.92409 408.76253,331.86806 409.78074,340.43363 C 410.4003,351.24341 406.69779,359.9565 395.83916,364.85069 C 390.16222,366.16985 384.79826,364.59258 380.47266,360.6426 C 376.81163,356.62237 375.41019,352.0687 377.37505,346.79169 C 380.90661,338.70597 387.6013,332.47494 395.04691,327.83547 C 397.18418,326.78084 399.3933,325.42812 401.82218,325.51753 L 395.5823,334.41577 z " />
    <path
       style="opacity:1;color:#000000;fill:#000000;fill-opacity:1;fill-rule:nonzero;stroke:none;stroke-width:3.9000001;stroke-linecap:butt;stroke-linejoin:miter;marker:none;marker-start:none;marker-mid:none;marker-end:none;stroke-miterlimit:4;stroke-dasharray:none;stroke-dashoffset:0;stroke-opacity:1;visibility:visible;display:inline;overflow:visible"
       id="path1623"
       d="M 354.15373,327.27291 C 360.40955,327.13742 363.84099,316.73727 359.32767,325.27231 C 357.42611,329.26272 357.15425,333.24035 358.1852,337.46076 C 359.97868,341.96386 363.77247,343.32983 368.24794,343.88636 C 383.83223,337.14858 365.64679,351.43267 371.75617,343.16759 C 374.28754,337.95023 372.15676,332.88671 368.90204,328.52992 C 365.46727,324.61462 361.26147,324.14607 356.51517,325.38633 C 348.07564,332.64479 362.7455,315.7248 356.29479,326.35936 L 346.71068,330.53133 C 349.68581,324.11637 354.94944,318.20685 361.96097,316.39055 C 367.75261,315.76867 372.80198,317.06089 376.74264,321.68298 C 380.51764,326.70869 383.19897,332.67799 381.38841,339.02442 C 377.82366,346.58097 370.60494,353.0569 362.00082,352.29559 C 356.55739,351.30414 352.05626,348.85056 349.66827,343.64135 C 348.20372,338.92999 347.9309,334.38693 349.72596,329.66859 C 351.62758,324.77981 354.64096,318.49227 360.3936,318.37467 L 354.15373,327.27291 z " />
    <path
       style="opacity:1;color:#000000;fill:#000000;fill-opacity:1;fill-rule:nonzero;stroke:none;stroke-width:3.9000001;stroke-linecap:butt;stroke-linejoin:miter;marker:none;marker-start:none;marker-mid:none;marker-end:none;stroke-miterlimit:4;stroke-dasharray:none;stroke-dashoffset:0;stroke-opacity:1;visibility:visible;display:inline;overflow:visible"
       id="path1627"
       d="M 359.86801,363.70148 C 358.78278,363.64596 357.80081,364.19318 356.80104,364.55135 C 346.8536,372.77318 361.46409,355.80809 355.31773,366.28515 C 353.15492,371.26846 353.71599,376.47837 356.42496,381.01809 C 360.83207,384.17053 366.29284,383.6657 371.28064,382.24521 C 385.89028,372.48157 368.45261,388.00148 374.35683,380.73325 C 377.12493,376.30334 377.6697,371.44858 376.97943,366.36909 C 375.90817,360.79876 373.63223,356.57529 367.6521,356.18802 C 363.8192,356.31128 360.32979,357.78219 356.91551,359.38253 L 361.83677,350.3036 C 365.68675,348.81827 369.59965,347.50059 373.79722,347.81416 C 380.74222,349.15439 384.17244,353.84803 385.64107,360.63449 C 386.65906,366.18612 386.57837,371.52275 384.09942,376.71474 C 380.20535,383.59228 373.52104,389.10253 365.88096,391.19014 C 359.85359,392.28432 353.41954,392.2482 348.59393,387.96919 C 344.89871,382.93434 344.19279,376.60177 345.80939,370.5997 C 348.57471,363.43736 355.0067,358.00101 362.11021,355.29958 C 363.43742,355.04663 364.7379,354.67566 366.10789,354.80325 L 359.86801,363.70148 z " />
    <path
       style="opacity:1;color:#000000;fill:#000000;fill-opacity:1;fill-rule:nonzero;stroke:none;stroke-width:3.9000001;stroke-linecap:butt;stroke-linejoin:miter;marker:none;marker-start:none;marker-mid:none;marker-end:none;stroke-miterlimit:4;stroke-dasharray:none;stroke-dashoffset:0;stroke-opacity:1;visibility:visible;display:inline;overflow:visible"
       id="path1629"
       d="M 649.15373,337.9872 C 648.02186,338.27257 646.94197,339.19659 645.91275,339.83341 C 646.354,338.89743 642.7467,342.49879 643.52035,341.8116 C 656.15083,330.59263 645.81031,339.81049 643.44154,345.1609 C 642.17863,349.61313 641.64942,354.95717 646.35327,356.5814 C 646.2243,360.37732 659.22612,348.6505 656.37536,351.16025 C 645.00663,361.16907 650.42267,356.62769 652.87001,353.7799 C 657.07889,348.10412 654.2646,341.83594 650.851,336.52717 C 648.25922,332.77115 644.78417,330.88818 640.48481,329.89026 L 646.97066,321.64317 C 651.81743,323.069 655.80244,325.71831 658.76125,329.89654 C 662.65174,335.89272 666.05046,343.09617 662.57288,350.04985 C 657.57362,357.351 649.42641,365.23974 639.9597,364.92326 C 633.53284,362.52961 632.96726,355.7661 634.09811,349.66292 C 636.74069,341.28028 643.1612,334.83144 650.70646,330.34655 C 652.26168,329.59814 653.61372,328.83925 655.3936,329.08896 L 649.15373,337.9872 z " />
    <path
       style="opacity:1;color:#000000;fill:#000000;fill-opacity:1;fill-rule:nonzero;stroke:none;stroke-width:3.9000001;stroke-linecap:butt;stroke-linejoin:miter;marker:none;marker-start:none;marker-mid:none;marker-end:none;stroke-miterlimit:4;stroke-dasharray:none;stroke-dashoffset:0;stroke-opacity:1;visibility:visible;display:inline;overflow:visible"
       id="path1631"
       d="M 629.86801,311.55863 C 628.16298,312.09874 626.45841,313.00339 624.85833,313.88679 C 625.39976,312.99975 621.64042,316.51684 622.42075,315.83049 C 633.76998,305.84811 624.70065,313.17383 624.12306,320.26198 C 624.30223,324.91657 625.95365,328.43462 630.39724,329.98691 C 637.44779,329.91842 645.48447,320.79103 634.7039,330.36132 C 638.14805,327.13826 640.58436,323.34624 640.83688,318.6398 C 639.5772,313.38977 635.62786,310.15418 630.56592,308.77148 C 627.47866,308.16791 624.75693,308.85395 621.95795,310.07497 L 627.01703,301.03616 C 630.38841,300.1889 633.67832,299.73806 637.11143,300.712 C 643.00383,302.7776 647.77355,306.75631 649.63406,312.907 C 650.55133,318.39574 648.23485,322.9564 644.62754,327.05555 C 638.29368,332.81087 632.85327,339.94508 623.68343,338.10404 C 618.49215,335.57088 615.64215,331.51425 615.15764,325.60031 C 615.0521,315.81405 620.79568,309.20272 629.67749,304.54538 C 631.73701,303.65503 633.81384,302.52036 636.10789,302.66039 L 629.86801,311.55863 z " />
    <path
       style="opacity:1;color:#000000;fill:#000000;fill-opacity:1;fill-rule:nonzero;stroke:none;stroke-width:3.9000001;stroke-linecap:butt;stroke-linejoin:miter;marker:none;marker-start:none;marker-mid:none;marker-end:none;stroke-miterlimit:4;stroke-dasharray:none;stroke-dashoffset:0;stroke-opacity:1;visibility:visible;display:inline;overflow:visible"
       id="path1633"
       d="M 616.29659,351.55863 C 615.1051,352.29115 613.54266,353.45644 612.32361,354.4585 C 622.84009,344.26051 614.21825,351.72038 613.81907,359.19129 C 614.36751,365.17006 618.33443,366.97764 623.72943,368.01082 C 632.70726,369.92659 643.32178,358.9413 633.19171,367.79197 C 637.31671,363.65194 637.586,359.28751 634.56487,354.56639 C 630.17414,350.45829 624.28139,349.83911 618.51524,350.311 C 618.07528,350.38379 617.63533,350.45658 617.19537,350.52937 L 622.84991,341.84905 C 623.32971,341.80475 623.80952,341.76045 624.28932,341.71615 C 630.88521,341.61153 637.61891,342.75986 642.42051,347.66483 C 646.35675,352.89184 647.12406,358.95237 642.98628,364.39142 C 634.75652,372.07573 629.03695,378.55263 617.36325,376.18233 C 611.00091,374.64404 605.9636,371.72238 604.93458,364.74049 C 604.04637,355.28489 609.25126,350.64232 616.74854,344.85714 C 618.55606,343.73655 620.34739,342.47435 622.53646,342.66039 L 616.29659,351.55863 z " />
    <path
       style="opacity:1;color:#000000;fill:#000000;fill-opacity:1;fill-rule:nonzero;stroke:none;stroke-width:3.9000001;stroke-linecap:butt;stroke-linejoin:miter;marker:none;marker-start:none;marker-mid:none;marker-end:none;stroke-miterlimit:4;stroke-dasharray:none;stroke-dashoffset:0;stroke-opacity:1;visibility:visible;display:inline;overflow:visible"
       id="path1635"
       d="M 349.62963,523.64982 C 350.17189,523.79726 347.80392,524.12744 347.15724,524.26782 C 347.54956,523.46325 344.51184,526.68033 345.18556,526.09096 C 356.52878,516.16801 348.37984,522.68521 347.53628,530.06907 C 347.61238,537.0398 350.52527,543.09574 356.05632,547.27558 C 363.79108,551.82734 372.04551,541.97606 361.2142,551.46927 C 364.92308,547.1852 364.45867,541.72837 362.55774,536.70792 C 359.99794,531.81612 355.86363,531.09245 350.81298,531.76608 L 356.50374,522.97623 C 362.61626,522.67223 367.88374,524.77116 370.875,530.40574 C 373.21816,535.99581 374.1659,542.43044 371.09987,547.9491 C 363.47619,555.02209 358.48001,560.85383 348.75487,554.65528 C 342.69554,549.75403 339.21454,543.13021 338.63881,535.29182 C 338.76696,526.27179 343.20531,518.02981 352.70362,515.16096 C 354.48153,515.16357 356.2267,515.07502 357.60153,516.26517 L 349.62963,523.64982 z " />
    <path
       style="opacity:1;color:#000000;fill:#000000;fill-opacity:1;fill-rule:nonzero;stroke:none;stroke-width:3.9000001;stroke-linecap:butt;stroke-linejoin:miter;marker:none;marker-start:none;marker-mid:none;marker-end:none;stroke-miterlimit:4;stroke-dasharray:none;stroke-dashoffset:0;stroke-opacity:1;visibility:visible;display:inline;overflow:visible"
       id="path1637"
       d="M 359.85982,568.7001 C 358.69934,568.92962 357.86452,570.0738 357.01676,570.89015 C 369.14276,558.56493 359.73731,568.48447 358.72978,575.02976 C 358.32738,580.77408 360.57465,586.23036 364.53368,590.32214 C 369.32538,593.74788 374.05639,591.76962 378.0808,588.16485 C 367.84961,597.9248 378.04982,589.84626 374.61283,578.17123 C 372.23731,571.89127 368.83424,565.67161 363.03065,562.02392 C 360.50551,561.06508 358.30236,561.68781 355.86513,562.53889 L 361.15357,553.55424 C 364.32414,552.98306 367.25472,552.78894 370.18766,554.43482 C 376.32311,558.7818 380.24019,565.23504 382.91864,572.1887 C 386.84742,583.96742 384.17907,589.94232 373.76675,597.65176 C 368.28195,601.12234 362.15514,601.94284 356.91554,597.44459 C 352.48764,592.7289 349.74747,586.69898 349.63239,580.16313 C 350.22815,571.21418 353.94379,566.73701 361.39106,561.16743 C 362.93901,560.29415 364.2531,559.54353 366.09776,559.80463 L 359.85982,568.7001 z " />
    <path
       style="opacity:1;color:#000000;fill:#000000;fill-opacity:1;fill-rule:nonzero;stroke:none;stroke-width:3.9000001;stroke-linecap:butt;stroke-linejoin:miter;marker:none;marker-start:none;marker-mid:none;marker-end:none;stroke-miterlimit:4;stroke-dasharray:none;stroke-dashoffset:0;stroke-opacity:1;visibility:visible;display:inline;overflow:visible"
       id="path1639"
       d="M 380.15573,541.07368 C 380.33256,541.24653 377.82846,540.99587 377.00172,540.97542 C 369.41298,547.27979 383.76219,530.64274 377.13346,541.7504 C 375.25416,546.09371 375.19906,550.17262 377.96126,553.99936 C 382.44285,557.5287 387.60671,557.44933 392.75721,555.57116 C 396.41,553.95754 404.72941,546.13106 392.27483,557.06271 C 389.95098,559.1024 396.31681,552.21599 397.36191,549.30594 C 396.65098,541.93186 390.02921,536.98571 383.92243,533.77524 C 379.13654,531.50184 374.70429,532.20187 370.07211,534.31829 L 375.05691,525.25567 C 380.49357,523.56343 385.63734,523.47041 390.82485,526.19069 C 397.91456,530.20534 404.57383,535.83238 406.39924,544.13121 C 405.98444,553.94262 395.99951,561.00361 387.58147,564.54747 C 381.39492,566.02925 375.14253,565.44319 370.19716,561.07322 C 366.52425,556.71802 365.89139,551.51139 367.60155,546.09009 C 370.12441,539.52335 375.65608,532.53731 383.07813,532.19173 C 384.85043,532.4139 386.69641,532.51857 388.12764,533.68903 L 380.15573,541.07368 z " />
    <path
       style="opacity:1;color:#000000;fill:#000000;fill-opacity:1;fill-rule:nonzero;stroke:none;stroke-width:3.9000001;stroke-linecap:butt;stroke-linejoin:miter;marker:none;marker-start:none;marker-mid:none;marker-end:none;stroke-miterlimit:4;stroke-dasharray:none;stroke-dashoffset:0;stroke-opacity:1;visibility:visible;display:inline;overflow:visible"
       id="path1641"
       d="M 539.14554,606.55725 C 537.60415,607.35727 535.84285,608.52922 534.36011,609.66842 C 542.31121,603.54753 536.22679,605.337 534.18654,614.38774 C 533.98379,619.31269 536.96989,621.53406 541.26254,622.94802 C 550.78538,622.94243 553.81161,617.38356 546.38612,623.65488 C 549.55574,618.57512 546.87492,614.38184 543.33331,610.35894 C 540.84071,607.57167 537.705,606.21021 534.23643,605.17337 L 540.82828,597.03906 C 544.70103,598.39033 548.17769,600.3459 550.99427,603.40434 C 555.14034,608.09121 558.64729,613.30835 556.11358,619.70644 C 551.67903,627.8275 543.63225,633.04898 534.65,631.05217 C 529.36917,629.09943 525.40414,625.54176 525.06863,619.60465 C 525.45369,610.54544 531.95773,605.57898 538.85744,600.11197 C 540.88984,598.90894 542.95934,597.54324 545.38348,597.66177 L 539.14554,606.55725 z " />
    <path
       style="opacity:1;color:#000000;fill:#000000;fill-opacity:1;fill-rule:nonzero;stroke:none;stroke-width:3.9000001;stroke-linecap:butt;stroke-linejoin:miter;marker:none;marker-start:none;marker-mid:none;marker-end:none;stroke-miterlimit:4;stroke-dasharray:none;stroke-dashoffset:0;stroke-opacity:1;visibility:visible;display:inline;overflow:visible"
       id="path1643"
       d="M 564.85982,595.12868 C 570.38534,591.3857 572.38773,587.30789 567.04792,594.0753 C 563.01228,599.84354 560.12071,606.33488 559.23239,613.3331 C 558.72918,619.6942 562.30612,622.29907 568.14089,623.15121 C 568.00256,626.92573 583.14413,616.70784 581.03007,618.54897 C 570.0126,628.14402 573.8393,625.05314 576.26696,622.53494 C 580.50296,615.89789 573.95811,609.1399 569.5908,604.26151 C 565.16888,599.65758 559.94025,596.42884 553.48373,596.31081 L 559.54762,587.84463 C 566.52723,588.79902 572.29582,592.29481 577.09755,597.44251 C 582.12978,603.09222 589.15314,610.7124 586.01561,618.7679 C 580.39691,627.4225 571.96095,632.42276 561.86695,631.39302 C 554.92073,629.87007 550.14514,626.0686 550.21431,618.46238 C 550.73636,611.03658 553.49483,604.16676 557.38144,597.84485 C 560.59323,592.92125 564.76322,586.14891 571.09776,586.2332 L 564.85982,595.12868 z " />
    <path
       style="opacity:1;color:#000000;fill:#000000;fill-opacity:1;fill-rule:nonzero;stroke:none;stroke-width:3.9000001;stroke-linecap:butt;stroke-linejoin:miter;marker:none;marker-start:none;marker-mid:none;marker-end:none;stroke-miterlimit:4;stroke-dasharray:none;stroke-dashoffset:0;stroke-opacity:1;visibility:visible;display:inline;overflow:visible"
       id="path1645"
       d="M 537.72516,566.55863 C 534.65916,571.98009 547.07987,558.90777 541.21657,564.29433 C 537.79892,567.57302 535.50419,571.51514 534.14255,576.00218 C 533.20673,580.69859 535.71153,583.49665 538.99867,586.44156 C 543.02258,589.70902 546.66284,590.35446 551.368,588.47109 C 560.44947,579.13359 545.48256,600.42863 553.15557,585.49109 C 554.67132,581.41836 553.51698,578.26038 551.05064,574.9564 C 548.20692,571.71549 545.33322,570.96903 541.35068,572.20081 C 538.5673,573.36674 536.17722,575.20677 533.77863,576.99617 L 538.23904,567.51813 C 540.88739,565.71169 543.59037,563.94564 546.74083,563.15711 C 551.73179,562.64323 555.57328,564.10288 558.93465,567.98477 C 561.93971,571.91665 563.79648,575.85549 562.64487,580.9203 C 560.09371,588.58732 553.75037,594.57535 546.22178,597.61164 C 540.66848,598.99426 535.90184,597.37819 531.51591,593.75282 C 527.52126,590.30131 524.43163,586.51287 524.86567,580.94651 C 525.79321,575.94894 527.80627,571.52766 531.25127,567.70328 C 534.81426,563.84974 538.98137,557.70291 543.96503,557.66039 L 537.72516,566.55863 z " />
    <path
       style="opacity:1;color:#000000;fill:#93b8c2;fill-opacity:1;fill-rule:nonzero;stroke:none;stroke-width:3.9000001;stroke-linecap:butt;stroke-linejoin:miter;marker:none;marker-start:none;marker-mid:none;marker-end:none;stroke-miterlimit:4;stroke-dasharray:none;stroke-dashoffset:0;stroke-opacity:1;visibility:visible;display:inline;overflow:visible"
       d="M 508.61182,181.13184 C 448.8507,160.60426 390.63784,129.30781 340.28904,91.630673 C 314.8989,77.448427 319.84125,109.96731 325.38034,124.28966 C 330.57023,141.8076 344.33947,154.95786 352.06013,171.34123 C 386.24453,231.46847 415.29671,297.61545 470.30504,342.24691 C 486.3827,356.2529 509.54447,362.34949 529.80096,354.20164 C 568.50664,341.61657 590.04392,304.50315 613.71203,274.21971 C 656.20387,217.91641 698.21997,160.83048 731.84601,98.657675 C 732.39057,79.309542 731.80232,64.989577 698.89189,84.747501 C 682.30685,91.924002 664.9999,102.64168 649.11329,111.25236 C 604.75357,139.1658 556.69933,160.5723 508.61182,181.13184 z "
       id="path2576"
       sodipodi:nodetypes="ccccccccccc" />
    <path
       style="opacity:1;color:#000000;fill:#f8ff00;fill-opacity:1;fill-rule:nonzero;stroke:none;stroke-width:3.9000001;stroke-linecap:butt;stroke-linejoin:miter;marker:none;marker-start:none;marker-mid:none;marker-end:none;stroke-miterlimit:4;stroke-dasharray:none;stroke-dashoffset:0;stroke-opacity:1;visibility:visible;display:inline;overflow:visible"
       d="M 466.69049,186.18259 C 352.93032,163.74882 403.87582,345.72068 484.15083,277.50978 C 516.16386,254.68026 514.95238,186.9506 466.69049,186.18259 z "
       id="path3490"
       sodipodi:nodetypes="ccc" />
    <path
       style="opacity:1;color:#000000;fill:#000000;fill-opacity:1;fill-rule:nonzero;stroke:none;stroke-width:3.9000001;stroke-linecap:butt;stroke-linejoin:miter;marker:none;marker-start:none;marker-mid:none;marker-end:none;stroke-miterlimit:4;stroke-dasharray:none;stroke-dashoffset:0;stroke-opacity:1;visibility:visible;display:inline;overflow:visible"
       id="path1335"
       d="M 447.72867,202.45468 C 443.28707,197.8385 437.08142,198.91811 431.17655,199.41246 C 404.4972,208.20657 410.00204,200.859 404.27413,221.44627 C 400.98746,244.70132 418.29675,265.6149 438.0067,275.55363 C 452.48389,281.7603 468.85423,281.63169 483.23794,275.13093 C 488.0266,272.96668 500.31089,262.97764 496.47735,266.57198 C 483.42164,278.81306 488.24896,273.79455 492.06848,269.58374 C 508.25925,249.29084 503.15805,224.43396 487.54169,205.69542 C 469.66472,185.88059 443.17838,186.21251 420.28991,196.46352 C 422.55863,193.54588 399.41965,211.2284 400.64171,210.1557 C 410.11489,201.84039 412.14984,199.61732 406.54067,205.35329 L 391.77261,213.022 C 402.74252,201.23241 415.09397,190.23197 429.77749,183.36533 C 453.98223,173.56765 481.16656,174.48965 499.56736,195.00676 C 515.79581,214.44718 522.14059,240.10032 506.35197,262.0115 C 486.44272,286.28664 457.02029,300.69755 426.67098,287.09899 C 406.14592,276.301 388.40663,254.68477 390.28908,230.37474 C 395.08999,207.16277 419.28752,189.59678 441.95481,186.05231 C 448.9374,185.51618 455.81249,184.98733 461.30499,190.00992 L 447.72867,202.45468 z " />
    <path
       style="opacity:1;color:#000000;fill:#f8ff00;fill-opacity:1;fill-rule:nonzero;stroke:none;stroke-width:3.9000001;stroke-linecap:butt;stroke-linejoin:miter;marker:none;marker-start:none;marker-mid:none;marker-end:none;stroke-miterlimit:4;stroke-dasharray:none;stroke-dashoffset:0;stroke-opacity:1;visibility:visible;display:inline;overflow:visible"
       d="M 562.65497,176.08107 C 536.8335,188.9717 533.16549,238.4968 565.03331,245.5573 C 598.26743,252.20772 635.98769,213.08452 600.38349,184.0139 C 590.3008,176.30844 574.74918,166.74854 562.65497,176.08107 z "
       id="path8773"
       sodipodi:nodetypes="cccc" />
    <path
       style="opacity:1;color:#000000;fill:#000000;fill-opacity:1;fill-rule:nonzero;stroke:none;stroke-width:3.9000001;stroke-linecap:butt;stroke-linejoin:miter;marker:none;marker-start:none;marker-mid:none;marker-end:none;stroke-miterlimit:4;stroke-dasharray:none;stroke-dashoffset:0;stroke-opacity:1;visibility:visible;display:inline;overflow:visible"
       id="path1345"
       d="M 561.75092,183.99967 C 553.32974,190.96974 530.80675,210.54917 554.22302,189.64703 C 547.30386,197.36461 544.85094,207.10562 544.79477,217.23188 C 545.33427,227.00162 549.71228,234.85116 558.66978,238.9094 C 572.92001,242.17717 587.88989,238.25766 600.736,231.86403 C 606.67097,226.88038 609.55455,236.73868 607.32319,211.24587 C 604.83086,198.58195 597.30111,188.35561 586.52321,181.5238 C 575.78685,176.25763 564.83409,179.43192 554.6965,184.44781 C 548.0054,187.7529 531.4321,203.45099 554.40208,182.90192 L 538.7834,190.84423 C 547.13095,183.27863 554.59955,175.29416 564.72888,170.3214 C 575.89722,165.50983 587.65139,163.08821 598.86589,169.24717 C 609.99461,176.80148 618.26941,187.74457 621.13818,201.09336 C 624.76947,222.54628 609.70012,236.67015 590.87016,245.6769 C 577.16863,251.83039 561.42661,255.49525 546.62861,251.55915 C 536.83683,246.72605 531.47748,238.24948 530.55391,227.30138 C 530.25166,216.80475 532.18574,206.63215 538.49261,197.97391 C 539.96579,196.58684 579.74143,161.54215 545.35036,192.43202 L 561.75092,183.99967 z " />
    <path
       style="opacity:1;color:#000000;fill:#000000;fill-opacity:1;fill-rule:nonzero;stroke:none;stroke-width:3.9000001;stroke-linecap:butt;stroke-linejoin:miter;marker:none;marker-start:none;marker-mid:none;marker-end:none;stroke-miterlimit:4;stroke-dasharray:none;stroke-dashoffset:0;stroke-opacity:1;visibility:visible;display:inline;overflow:visible"
       id="path1410"
       d="M 425.07545,282.7677 C 414.09389,288.44286 400.21029,292.89551 387.97224,296.95808 C 375.16836,301.13635 362.22767,304.87275 349.27072,308.54159 L 352.41252,303.26266 C 365.4056,299.56178 378.37913,295.77488 391.16975,291.41511 C 404.05951,286.94623 417.08193,281.6243 429.4877,276.47569 L 425.07545,282.7677 z " />
    <path
       style="opacity:1;color:#000000;fill:#000000;fill-opacity:1;fill-rule:nonzero;stroke:none;stroke-width:3.9000001;stroke-linecap:butt;stroke-linejoin:miter;marker:none;marker-start:none;marker-mid:none;marker-end:none;stroke-miterlimit:4;stroke-dasharray:none;stroke-dashoffset:0;stroke-opacity:1;visibility:visible;display:inline;overflow:visible"
       id="path1412"
       d="M 455.59971,321.85853 C 443.70452,325.6391 432.31805,330.90981 420.99314,336.11798 C 414.29159,339.21475 407.67718,342.49304 401.08401,345.81252 L 404.19909,339.9166 C 410.82279,336.60856 417.46404,333.33498 424.17867,330.21431 C 435.76618,324.84718 447.3875,319.46346 459.44306,315.21842 L 455.59971,321.85853 z " />
    <path
       style="opacity:1;color:#000000;fill:#000000;fill-opacity:1;fill-rule:nonzero;stroke:none;stroke-width:3.9000001;stroke-linecap:butt;stroke-linejoin:miter;marker:none;marker-start:none;marker-mid:none;marker-end:none;stroke-miterlimit:4;stroke-dasharray:none;stroke-dashoffset:0;stroke-opacity:1;visibility:visible;display:inline;overflow:visible"
       id="path1414"
       d="M 517.79788,348.62055 C 513.90346,353.4939 510.9359,359.50419 507.82783,365.00378 C 504.29432,371.26928 500.81965,377.56762 497.35943,383.87379 L 490.89895,386.60147 C 494.3555,380.31451 497.80576,374.02409 501.28513,367.7497 C 504.35939,362.20102 507.511,356.61743 510.5115,351.05996 L 517.79788,348.62055 z " />
    <path
       style="opacity:1;color:#000000;fill:#000000;fill-opacity:1;fill-rule:nonzero;stroke:none;stroke-width:3.9000001;stroke-linecap:butt;stroke-linejoin:miter;marker:none;marker-start:none;marker-mid:none;marker-end:none;stroke-miterlimit:4;stroke-dasharray:none;stroke-dashoffset:0;stroke-opacity:1;visibility:visible;display:inline;overflow:visible"
       id="path1420"
       d="M 581.03649,316.37672 C 586.30337,319.25429 591.88665,321.742 597.44524,324.06565 C 605.35375,327.27379 613.40943,330.10006 621.46415,332.91428 L 617.193,337.97004 C 609.05061,335.18219 600.90076,332.40682 592.85573,329.34624 C 588.15253,327.49984 580.38446,323.94465 576.62423,322.66872 L 581.03649,316.37672 z " />
    <path
       style="opacity:1;color:#000000;fill:#000000;fill-opacity:1;fill-rule:nonzero;stroke:none;stroke-width:3.9000001;stroke-linecap:butt;stroke-linejoin:miter;marker:none;marker-start:none;marker-mid:none;marker-end:none;stroke-miterlimit:4;stroke-dasharray:none;stroke-dashoffset:0;stroke-opacity:1;visibility:visible;display:inline;overflow:visible"
       id="path1422"
       d="M 603.25984,274.96047 C 613.02827,277.92641 623.24764,279.34849 633.33043,280.86422 C 640.35148,281.8652 636.82062,281.37262 643.92311,282.34127 L 639.88524,287.67685 C 632.75404,286.72219 636.30218,287.20231 629.24077,286.23678 C 619.13543,284.80994 608.73354,283.16351 598.84759,281.25247 L 603.25984,274.96047 z " />
    <path
       style="opacity:1;color:#000000;fill:#000000;fill-opacity:1;fill-rule:nonzero;stroke:none;stroke-width:3.9000001;stroke-linecap:butt;stroke-linejoin:miter;marker:none;marker-start:none;marker-mid:none;marker-end:none;stroke-miterlimit:4;stroke-dasharray:none;stroke-dashoffset:0;stroke-opacity:1;visibility:visible;display:inline;overflow:visible"
       id="path1424"
       d="M 587.309,258.10002 C 593.90618,251.07667 603.32633,250.85771 612.40078,248.61957 C 635.86387,242.85044 659.50682,237.85036 683.13249,232.80047 L 679.82072,238.14429 C 656.06138,243.20433 632.3091,248.35905 608.81413,254.5504 C 605.21665,255.50442 579.76522,265.21339 594.59539,255.66061 L 587.309,258.10002 z " />
    <path
       style="opacity:1;color:#000000;fill:#000000;fill-opacity:1;fill-rule:nonzero;stroke:none;stroke-width:3.9000001;stroke-linecap:butt;stroke-linejoin:miter;marker:none;marker-start:none;marker-mid:none;marker-end:none;stroke-miterlimit:4;stroke-dasharray:none;stroke-dashoffset:0;stroke-opacity:1;visibility:visible;display:inline;overflow:visible"
       id="path1543"
       d="M 567.66717,338.71036 C 559.46229,349.12688 549.1291,353.85536 536.97366,359.08038 C 519.78511,367.17764 502.2575,369.18281 484.54593,361.7379 C 452.67767,344.41993 431.20839,312.21438 411.1408,282.98881 C 383.57857,241.79666 359.69671,198.24323 337.2565,154.0873 C 328.3376,134.24394 316.14137,115.16085 311.22525,93.742457 C 310.15086,74.621331 326.15458,77.025317 336.98373,82.976699 C 355.64446,94.037671 374.04484,105.53291 392.62614,116.72856 C 412.8984,129.01828 433.31395,141.07786 454.0504,152.56984 C 468.47005,160.84028 483.27711,168.41619 498.96654,173.95543 C 512.53249,179.30772 524.33644,175.95228 536.83195,169.60242 C 562.16949,155.61857 586.82677,140.44862 612.15298,126.43419 C 643.43506,109.5903 674.71741,92.683467 706.60756,77.006434 C 721.18075,68.956631 743.88439,60.042713 738.43235,85.760735 C 728.80358,116.60999 711.62347,144.71871 694.20859,171.73429 C 671.59245,206.15652 646.0187,238.52298 620.10852,270.50036 C 602.95613,291.64456 585.38455,312.45822 566.99842,332.54311 C 564.80526,334.93744 562.57938,337.30137 560.36344,339.67451 L 546.86375,344.28178 C 549.1916,341.90203 551.50638,339.50985 553.80344,337.10029 C 572.83951,317.03416 590.90451,296.0734 608.50128,274.73987 C 634.62964,243.00501 660.17183,210.68348 682.76965,176.30788 C 699.85361,149.87621 716.64835,122.40515 726.02025,92.168814 C 731.00716,70.431276 712.64137,83.93541 700.39676,88.660907 C 668.56738,103.88669 637.43184,120.54974 606.48434,137.47816 C 580.85063,151.88291 556.05389,167.70956 530.31516,181.91289 C 516.8152,188.49838 503.9539,190.82447 489.71094,184.87011 C 474.00984,178.90958 459.12968,171.10314 444.61308,162.6845 C 424.09978,150.79979 403.73344,138.6596 383.39586,126.47774 C 364.82305,115.27065 346.46038,103.65643 327.227,93.597533 C 316.24834,88.406642 310.81606,94.407581 325.17314,82.166344 C 324.7142,83.190474 322.65399,83.837062 323.5519,85.784142 C 326.24738,107.40068 339.09115,126.68997 346.94142,146.58799 C 368.29422,191.17002 391.88018,234.82922 419.97423,275.56146 C 439.97169,303.97148 461.60328,335.50662 493.51424,351.38099 C 510.76459,357.82025 527.48853,354.63545 543.73214,346.66523 C 551.44325,343.11529 577.01258,325.50067 553.57624,344.8336 L 567.66717,338.71036 z " />
    <path
       style="opacity:1;color:#000000;fill:#f5ff00;fill-opacity:1;fill-rule:nonzero;stroke:none;stroke-width:3.9000001;stroke-linecap:butt;stroke-linejoin:miter;marker:none;marker-start:none;marker-mid:none;marker-end:none;stroke-miterlimit:4;stroke-dasharray:none;stroke-dashoffset:0;stroke-opacity:1;visibility:visible;display:inline;overflow:visible"
       d="M 458.60925,199.81966 C 468.84832,214.58938 478.7052,263.96697 455.26552,263.17505 C 443.3497,247.55045 441.47373,211.9501 458.60925,199.81966 z "
       id="path5261"
       sodipodi:nodetypes="ccc" />
    <path
       style="opacity:1;color:#000000;fill:#000000;fill-opacity:1;fill-rule:nonzero;stroke:none;stroke-width:3.9000001;stroke-linecap:butt;stroke-linejoin:miter;marker:none;marker-start:none;marker-mid:none;marker-end:none;stroke-miterlimit:4;stroke-dasharray:none;stroke-dashoffset:0;stroke-opacity:1;visibility:visible;display:inline;overflow:visible"
       id="path1551"
       d="M 457.13863,194.39852 C 456.02011,200.06703 454.51973,206.17911 453.68546,212.09229 C 452.26506,227.50767 455.33954,242.89002 460.23357,257.45148 C 465.05204,268.79604 469.10094,260.51665 454.92595,271.62413 C 451.39301,274.39254 458.52307,263.29463 459.21278,258.85953 C 461.1762,244.48855 460.9132,229.87796 458.34677,215.61392 C 457.0418,208.49534 453.93286,202.60856 448.39441,198.04581 C 448.1244,197.85886 447.85439,197.67192 447.58438,197.48497 L 458.1277,186.83375 C 458.42703,187.05755 458.72636,187.28135 459.02569,187.50515 C 465.11597,192.88464 468.92517,199.48357 470.39036,207.59294 C 472.98949,222.25383 473.26079,237.23125 471.71839,252.03868 C 470.17262,265.87515 455.8378,288.0547 448.62162,265.83046 C 443.78866,250.77816 440.55293,235.01872 441.05847,219.14169 C 441.49049,214.07244 442.27562,205.79511 443.91744,202.23622 L 457.13863,194.39852 z " />
    <path
       style="opacity:1;color:#000000;fill:#f5ff00;fill-opacity:1;fill-rule:nonzero;stroke:none;stroke-width:3.9000001;stroke-linecap:butt;stroke-linejoin:miter;marker:none;marker-start:none;marker-mid:none;marker-end:none;stroke-miterlimit:4;stroke-dasharray:none;stroke-dashoffset:0;stroke-opacity:1;visibility:visible;display:inline;overflow:visible"
       d="M 577.30219,180.12167 C 568.75575,194.76125 559.77922,228.57836 575.50541,237.36237 C 592.74571,229.7425 594.86515,197.33521 586.74877,183.10983 C 584.85767,181.29592 582.43403,180.0007 579.82756,179.6166"
       id="path8791"
       sodipodi:nodetypes="cccc" />
    <path
       style="opacity:1;color:#000000;fill:#000000;fill-opacity:1;fill-rule:nonzero;stroke:none;stroke-width:3.9000001;stroke-linecap:butt;stroke-linejoin:miter;marker:none;marker-start:none;marker-mid:none;marker-end:none;stroke-miterlimit:4;stroke-dasharray:none;stroke-dashoffset:0;stroke-opacity:1;visibility:visible;display:inline;overflow:visible"
       id="path1571"
       d="M 576.33458,188.35178 C 575.2953,195.07494 575.07849,202.24722 575.03824,209.16291 C 575.52664,218.02766 574.94322,227.91099 579.47431,235.80914 C 585.61133,223.70521 568.73976,255.80886 578.60304,231.64762 C 581.55187,223.01321 582.72701,213.89562 583.05188,204.81067 C 583.33851,198.92684 581.98067,193.41924 579.65121,188.08704 C 577.60762,183.94272 576.78831,183.61909 573.68467,186.6406 C 589.33956,171.15356 579.16067,181.38357 575.96441,189.92353 C 575.07571,192.48951 574.84504,195.17278 574.58229,197.84873 L 561.69565,205.42279 C 561.77568,202.44284 561.82319,199.46402 562.59998,196.55341 C 565.64435,185.71055 570.0493,180.11315 580.18085,173.05655 C 585.75525,171.66285 589.05686,173.52116 591.54087,178.97067 C 594.19172,184.80942 595.95235,190.8433 595.76142,197.34301 C 595.59991,206.78649 594.36769,216.2226 591.82442,225.33077 C 588.68577,234.93825 579.73547,253.04558 568.21495,245.67518 C 563.18204,236.89758 562.97809,226.54387 562.63256,216.56811 C 562.55283,210.22927 562.42306,201.49176 563.11749,196.18704 L 576.33458,188.35178 z " />
    <path
       style="opacity:1;color:#000000;fill:#e784a8;fill-opacity:1;fill-rule:nonzero;stroke:none;stroke-width:3.9000001;stroke-linecap:butt;stroke-linejoin:miter;marker:none;marker-start:none;marker-mid:none;marker-end:none;stroke-miterlimit:4;stroke-dasharray:none;stroke-dashoffset:0;stroke-opacity:1;visibility:visible;display:inline;overflow:visible"
       d="M 504.57117,243.25621 C 479.4296,249.6203 506.4591,302.41007 529.82233,282.7659 C 542.84257,274.85984 548.53052,244.67462 526.79454,244.77144"
       id="path1647"
       sodipodi:nodetypes="ccc" />
    <path
       style="opacity:1;color:#000000;fill:#000000;fill-opacity:1;fill-rule:nonzero;stroke:none;stroke-width:3.9000001;stroke-linecap:butt;stroke-linejoin:miter;marker:none;marker-start:none;marker-mid:none;marker-end:none;stroke-miterlimit:4;stroke-dasharray:none;stroke-dashoffset:0;stroke-opacity:1;visibility:visible;display:inline;overflow:visible"
       id="path1319"
       d="M 512.66156,252.04975 C 514.86835,253.78984 511.32404,251.87121 510.64497,251.51674 C 506.45233,249.96128 502.10995,249.66207 497.706,249.72268 C 487.53999,252.19802 479.77407,262.51952 500.79679,244.14818 C 498.36897,247.72502 498.98301,250.89407 500.44511,254.65244 C 502.89734,258.86612 506.60492,262.10109 510.09828,265.42973 C 513.78493,268.58527 516.29501,272.58553 518.58467,276.78858 C 520.08351,280.62053 522.18693,282.55854 525.72789,284.14121 C 536.7914,281.61766 544.56975,271.30851 526.42929,287.47802 C 530.80886,282.88784 533.27088,277.11353 535.46401,271.26494 C 537.13571,266.72722 538.14077,262.00743 538.83705,257.24204 C 539.04471,253.36508 537.38662,251.78558 534.41125,249.84199 C 530.68895,248.61637 527.22721,249.6794 523.63952,250.80469 C 519.75393,252.51206 515.85776,254.08629 511.80195,255.32787 C 511.49989,255.39416 511.19782,255.46046 510.89576,255.52676 L 521.84778,241.17398 C 522.12312,241.08909 522.39847,241.00421 522.67381,240.91933 C 526.62675,239.43613 530.45437,237.63077 534.48506,236.3624 C 538.79915,235.44024 542.89846,234.86682 547.038,236.88643 C 550.81689,239.47999 553.42793,242.15864 553.71819,247.01694 C 553.34687,252.08011 552.35657,257.04187 550.72618,261.87648 C 548.56464,267.96453 546.26889,274.06671 542.2045,279.18511 C 534.48084,286.4065 525.73934,299.0652 513.49701,297.43747 C 509.38245,295.28546 506.45862,292.72405 504.65096,288.25588 C 502.58502,284.31106 500.34312,280.55643 496.89554,277.62545 C 493.18621,274.06314 489.30184,270.57423 486.56175,266.17304 C 484.53839,261.81601 483.2519,257.80031 485.09364,253.06771 C 492.35028,245.8853 498.03299,235.86509 509.13191,235.81597 C 513.87877,236.04574 518.59276,236.69743 523.1,238.28837 C 524.88427,239.17839 526.64575,239.77715 527.79556,241.50782 L 512.66156,252.04975 z " />
  </g>
</svg>
