<?xml version="1.0" encoding="UTF-8" standalone="no"?>
<!-- Created with Inkscape (http://www.inkscape.org/) -->
<svg
   xmlns:dc="http://purl.org/dc/elements/1.1/"
   xmlns:cc="http://web.resource.org/cc/"
   xmlns:rdf="http://www.w3.org/1999/02/22-rdf-syntax-ns#"
   xmlns:svg="http://www.w3.org/2000/svg"
   xmlns="http://www.w3.org/2000/svg"
   xmlns:sodipodi="http://inkscape.sourceforge.net/DTD/sodipodi-0.dtd"
   xmlns:inkscape="http://www.inkscape.org/namespaces/inkscape"
   width="1000"
   height="1000"
   id="svg2"
   sodipodi:version="0.32"
   inkscape:version="0.43"
   version="1.0"
   sodipodi:docbase="/home/kkowal/tale/art/monster"
   sodipodi:docname="lighthouse.svg"
   inkscape:export-filename="/home/kkowal/tale/art/monster/lighthouse.png"
   inkscape:export-xdpi="90"
   inkscape:export-ydpi="90">
  <defs
     id="defs4" />
  <sodipodi:namedview
     id="base"
     pagecolor="#ffffff"
     bordercolor="#666666"
     borderopacity="1.0"
     inkscape:pageopacity="0.0"
     inkscape:pageshadow="2"
     inkscape:zoom="0.49497475"
     inkscape:cx="799.18215"
     inkscape:cy="530.15282"
     inkscape:document-units="px"
     inkscape:current-layer="layer1"
     inkscape:window-width="1600"
     inkscape:window-height="1125"
     inkscape:window-x="0"
     inkscape:window-y="25" />
  <metadata
     id="metadata7">
    <rdf:RDF>
      <cc:Work
         rdf:about="">
        <dc:format>image/svg+xml</dc:format>
        <dc:type
           rdf:resource="http://purl.org/dc/dcmitype/StillImage" />
      </cc:Work>
    </rdf:RDF>
  </metadata>
  <g
     inkscape:label="Layer 1"
     inkscape:groupmode="layer"
     id="layer1">
    <path
       style="opacity:1;color:#000000;fill:#bfd7db;fill-opacity:1;fill-rule:nonzero;stroke:none;stroke-width:3.9000001;stroke-linecap:butt;stroke-linejoin:miter;marker:none;marker-start:none;marker-mid:none;marker-end:none;stroke-miterlimit:4;stroke-dasharray:none;stroke-dashoffset:0;stroke-opacity:1;visibility:visible;display:inline;overflow:visible"
       d="M 460.91411,327.203 C 446.35296,354.64371 425.55014,379.28046 405.44436,403.77236 C 394.79161,413.57575 383.65198,401.55281 392.91844,392.46861 C 396.65244,376.05118 396.59572,359.06005 406.08117,344.04431 C 406.29492,324.42083 427.27378,322.45522 445.02087,323.45604 C 450.46157,323.23815 457.40266,322.76586 460.91411,327.203 z "
       id="path7712" />
    <path
       style="opacity:1;color:#000000;fill:#bfd7db;fill-opacity:1;fill-rule:nonzero;stroke:none;stroke-width:3.9000001;stroke-linecap:butt;stroke-linejoin:miter;marker:none;marker-start:none;marker-mid:none;marker-end:none;stroke-miterlimit:4;stroke-dasharray:none;stroke-dashoffset:0;stroke-opacity:1;visibility:visible;display:inline;overflow:visible"
       d="M 352.55093,880.68866 C 427.51666,806.41686 538.91254,767.73752 616.03184,694.90178 C 671.00591,665.02934 673.64513,565.13967 693.61228,668.46195 C 724.82286,734.11155 685.42111,798.21157 640.1405,849.61115 C 602.5844,905.32302 530.68285,942.63089 455.14569,918.69233 C 423.4064,907.53929 359.38129,918.84364 352.55093,880.68866 z "
       id="path7724"
       sodipodi:nodetypes="cccccc" />
    <path
       style="opacity:1;color:#000000;fill:#bfd7db;fill-opacity:1;fill-rule:nonzero;stroke:none;stroke-width:3.9000001;stroke-linecap:butt;stroke-linejoin:miter;marker:none;marker-start:none;marker-mid:none;marker-end:none;stroke-miterlimit:4;stroke-dasharray:none;stroke-dashoffset:0;stroke-opacity:1;visibility:visible;display:inline;overflow:visible"
       d="M 590.18195,358.67006 C 565.06718,403.45338 529.42706,444.38085 481.12655,472.7607 C 441.06791,502.24741 397.25505,528.2899 359.93454,560.29407 C 322.28419,592.52098 325.34499,638.8273 313.83088,679.58883 C 310.5321,697.83927 291.58872,731.17686 299.30615,740.31486 C 327.07625,724.95202 350.58775,704.60596 380.0608,691.15669 C 446.21765,653.00573 519.12197,619.34666 567.24515,563.33393 C 595.95158,535.27732 616.75138,500.69016 626.21595,464.50763 C 623.70006,437.7898 603.21899,414.29492 606.84653,385.85902 C 605.03272,375.85019 606.04233,360.17487 590.18195,358.67006 z "
       id="path7714" />
    <path
       style="opacity:1;color:#000000;fill:#000000;fill-opacity:1;fill-rule:nonzero;stroke:none;stroke-width:3.9000001;stroke-linecap:butt;stroke-linejoin:miter;marker:none;marker-start:none;marker-mid:none;marker-end:none;stroke-miterlimit:4;stroke-dasharray:none;stroke-dashoffset:0;stroke-opacity:1;visibility:visible;display:inline;overflow:visible"
       id="path2188"
       d="M 446.36092,283.9835 C 434.01374,307.85862 424.90203,333.27681 415.82724,358.26287 C 385.18143,446.90558 358.79407,536.59096 333.21559,626.38225 C 310.03464,707.69314 288.31459,789.30034 266.56477,870.89646 C 265.6349,874.38838 264.70503,877.88029 263.77514,881.37221 L 237.18791,890.0135 C 238.43348,886.42504 239.67902,882.83659 240.92459,879.24814 C 268.90125,797.39582 293.01694,714.6406 316.7459,631.8316 C 342.10725,543.46256 366.99822,454.99499 390.80483,366.31081 C 397.3184,342.63216 404.81514,318.96849 409.79927,295.05537 L 446.36092,283.9835 z " />
    <path
       style="opacity:1;color:#000000;fill:#000000;fill-opacity:1;fill-rule:nonzero;stroke:none;stroke-width:3.9000001;stroke-linecap:butt;stroke-linejoin:miter;marker:none;marker-start:none;marker-mid:none;marker-end:none;stroke-miterlimit:4;stroke-dasharray:none;stroke-dashoffset:0;stroke-opacity:1;visibility:visible;display:inline;overflow:visible"
       id="path2192"
       d="M 596.50108,280.21059 C 595.65524,296.55265 602.02501,319.23399 606.17249,336.79605 C 629.59819,427.04883 655.27994,516.90203 681.8634,606.51735 C 710.07326,701.92365 740.78544,796.78339 773.59705,891.11095 C 779.43869,907.8939 785.43325,924.63751 791.62893,941.32777 L 765.16989,954.96501 C 760.82004,937.38869 756.43624,919.81827 751.86808,902.28208 C 726.5949,805.45388 698.73977,709.12884 668.66558,613.30376 C 641.17322,524.95207 613.63478,436.56372 581.9049,349.23622 C 575.26258,331.05474 569.02562,312.67313 561.57212,294.74053 L 596.50108,280.21059 z " />
    <path
       style="opacity:1;color:#000000;fill:#000000;fill-opacity:1;fill-rule:nonzero;stroke:none;stroke-width:3.9000001;stroke-linecap:butt;stroke-linejoin:miter;marker:none;marker-start:none;marker-mid:none;marker-end:none;stroke-miterlimit:4;stroke-dasharray:none;stroke-dashoffset:0;stroke-opacity:1;visibility:visible;display:inline;overflow:visible"
       d="M 629.54626,447.73784 L 612.12438,454.97243 C 613.00402,458.73285 613.15505,462.58378 613.14023,466.40915 C 612.58174,487.68031 603.73587,507.93006 592.62,526.71185 C 572.51578,559.39068 542.39631,586.2242 510.18353,610.40784 C 474.0244,636.98118 433.4862,658.71219 393.56362,680.84763 C 354.00011,703.00764 313.72323,725.45234 280.80394,754.70978 C 280.79882,754.72666 280.75827,754.73622 280.75315,754.7531 C 279.25441,759.70218 277.79796,764.66663 276.28339,769.61217 C 279.30777,766.08104 282.50244,762.61153 285.8832,759.3018 C 315.49298,730.97236 352.33907,709.57365 389.95734,688.862 C 435.15502,664.02758 480.99582,639.73621 521.10395,608.93493 C 553.94352,584.19466 584.52824,556.72277 605.31816,523.50611 C 617.2846,503.71488 626.60717,482.48936 628.73357,460.12762 C 629.08021,455.99252 628.99573,451.85036 629.54626,447.73784 z "
       id="path3193" />
    <path
       style="opacity:1;color:#000000;fill:#000000;fill-opacity:1;fill-rule:nonzero;stroke:none;stroke-width:3.9000001;stroke-linecap:butt;stroke-linejoin:miter;marker:none;marker-start:none;marker-mid:none;marker-end:none;stroke-miterlimit:4;stroke-dasharray:none;stroke-dashoffset:0;stroke-opacity:1;visibility:visible;display:inline;overflow:visible"
       id="path3195"
       d="M 681.22731,608.61975 C 680.88212,613.12015 679.43998,617.46799 677.84403,621.74844 C 668.85294,644.27685 653.19968,664.22681 635.46448,682.38847 C 602.83282,714.19865 563.54182,740.41915 523.77885,765.39612 C 484.07182,790.33293 442.80789,813.49439 404.47906,839.99927 C 384.69452,854.05296 360.48749,874.36898 343.17552,895.03186 C 340.31979,898.43874 337.82121,902.0388 335.48382,905.71638 L 319.36508,909.6208 C 321.99985,905.64214 324.80565,901.74806 328.02754,898.08964 C 350.7034,872.31962 379.06338,850.64978 408.31991,830.46386 C 446.73726,804.55438 488.11459,782.07189 527.29157,757.02942 C 561.43218,735.27713 595.0742,712.48475 622.82575,684.70048 C 639.53651,667.47488 654.37749,648.49738 661.75255,626.81776 C 662.85942,623.27626 664.09602,619.57628 663.76283,615.88473 L 681.22731,608.61975 z " />
    <path
       style="opacity:1;color:#000000;fill:#000000;fill-opacity:1;fill-rule:nonzero;stroke:none;stroke-width:3.9000001;stroke-linecap:butt;stroke-linejoin:miter;marker:none;marker-start:none;marker-mid:none;marker-end:none;stroke-miterlimit:4;stroke-dasharray:none;stroke-dashoffset:0;stroke-opacity:1;visibility:visible;display:inline;overflow:visible"
       id="path3199"
       d="M 717.21753,715.5605 C 716.65925,719.90346 716.25953,724.2617 715.65159,728.60251 C 712.53453,751.51566 701.46533,772.79603 688.7109,792.88951 C 668.67065,822.55708 643.88966,849.62084 619.63325,876.81988 C 609.44025,888.20682 599.46649,899.73539 589.9514,911.54221 L 575.09959,914.59955 C 585.44089,902.67056 596.08952,890.93946 606.8677,879.29569 C 631.5049,852.49805 656.63255,825.73462 676.24011,795.96828 C 688.09342,776.86189 698.27939,756.43333 700.03197,734.61639 C 700.25362,730.69493 700.46794,726.71947 699.75306,722.82547 L 717.21753,715.5605 z " />
    <path
       style="opacity:1;color:#000000;fill:#bfd7db;fill-opacity:1;fill-rule:nonzero;stroke:none;stroke-width:3.9000001;stroke-linecap:butt;stroke-linejoin:miter;marker:none;marker-start:none;marker-mid:none;marker-end:none;stroke-miterlimit:4;stroke-dasharray:none;stroke-dashoffset:0;stroke-opacity:1;visibility:visible;display:inline;overflow:visible"
       d="M 201.26265,880.77361 C 191.76506,880.90365 182.76303,881.46405 175.66316,882.8097 C 172.23847,885.14642 172.76799,885.76045 172.76798,889.4378 C 172.76798,891.27223 173.19176,893.56567 172.76798,895.37276 C 172.28029,897.45252 171.95529,900.17617 171.95529,902.39075 C 171.95529,905.54226 172.76799,908.35766 172.76798,911.48814 C 172.76798,914.29751 172.33106,916.53095 171.54895,919.19926 C 170.76504,921.87366 169.13603,926.06495 170.27914,928.98978 C 172.31509,934.19916 173.90845,940.26471 175.20602,945.79829 C 176.20801,950.07127 176.45838,954.53283 177.69486,958.75124 C 178.50933,961.5299 178.85835,963.59912 181.40273,965.76923 C 182.08684,966.3527 182.75032,966.91856 183.43443,967.50207 C 185.00753,968.84375 186.91333,969.97133 189.174,969.97136 C 191.86036,969.97136 194.2985,970.31795 196.99607,970.31793 C 199.18522,970.31793 201.35917,970.31795 203.54832,970.31793 C 204.09561,970.31793 204.62638,970.31795 205.17369,970.31793 C 216.36071,970.31793 227.54839,972.39732 238.84921,972.39733 C 256.08458,972.39733 272.88207,973.82693 290.14979,973.82692 C 304.30318,973.82692 318.6159,972.39732 332.8664,972.39733 C 347.70912,972.39733 365.50911,970.14199 380.05277,972.39733 C 394.09971,974.57562 410.97755,974.52008 425.20743,974.52005 C 433.15248,974.52005 441.01284,973.69184 448.82602,973.30707 C 449.64369,973.63025 450.53325,973.82692 451.46723,973.82692 C 454.88778,973.82692 458.30678,973.82693 461.72735,973.82692 C 472.38737,973.82692 483.1072,971.70417 493.72672,971.7042 C 500.70465,971.7042 507.72613,971.70417 514.70408,971.7042 C 518.47029,971.7042 522.92062,972.27312 526.58956,971.7042 C 528.0946,971.4708 529.61683,971.29404 531.1101,971.01106 C 536.80478,969.93173 542.83911,970.31795 548.73515,970.31793 C 551.16693,970.31793 554.1831,969.91297 556.55722,970.31793 C 566.11311,971.94797 578.70067,968.78665 587.74391,971.35763 C 596.7772,973.92577 608.83531,972.05078 618.52425,972.05076 C 624.74569,972.05076 630.73129,971.35764 637.01277,971.35763 C 641.75422,971.35763 647.61584,972.33503 652.19978,971.35763 C 656.51271,970.438 663.04163,972.34418 666.98044,970.66449 C 668.3992,970.05946 669.36189,969.72412 669.9772,969.0183 C 672.20777,969.04547 674.45001,968.96351 676.42787,968.54177 C 680.48801,967.67604 684.8579,967.15551 689.12603,967.1555 C 693.6051,967.1555 697.82861,967.50204 702.28133,967.50207 C 717.26457,967.50207 732.00344,968.93166 747.02965,968.93166 C 759.72776,968.93166 772.21915,968.19519 784.76859,968.1952 C 788.73643,968.1952 792.68618,968.19519 796.65407,968.1952 C 800.44594,968.1952 804.53996,967.92021 808.184,968.54177 C 813.42828,969.43634 818.76655,969.2782 824.18368,969.27822 C 829.59099,969.27822 835.37788,969.43084 840.58971,968.54177 C 842.67315,968.18637 850.56541,967.43271 851.25616,965.0761 C 851.66777,963.67189 852.4752,961.75539 852.47519,959.79095 C 852.47519,956.52217 852.9323,953.23213 852.93232,950.00042 C 852.93232,946.26617 852.9323,942.55785 852.93232,938.82363 C 852.93232,935.65657 851.6625,932.69678 851.6625,929.33635 C 851.6625,926.71852 852.0688,924.09929 852.06884,921.66855 C 852.06884,918.32078 853.73626,916.40568 854.96402,913.26429 C 856.30729,909.82729 856.87467,905.17645 859.07823,902.04418 C 860.84399,899.53417 861.14573,896.88106 860.29725,893.98649 C 859.60462,891.6235 858.03517,888.44647 854.55768,887.70496 C 852.5133,887.26905 849.38732,887.35836 846.73562,887.35839 C 842.9046,887.35839 839.08746,887.35836 835.25648,887.35839 C 831.99184,887.35839 829.02876,888.05153 825.80905,888.05153 C 821.89377,888.05153 818.18298,888.74467 814.32991,888.74466 C 808.69259,888.74466 803.25056,889.43781 797.51754,889.4378 C 794.29716,889.4378 791.61163,889.78435 788.47645,889.78436 C 784.50861,889.78436 780.508,889.78435 776.54018,889.78436 C 775.85608,889.78436 775.19259,889.78435 774.50847,889.78436 C 763.33227,889.78436 751.69931,889.43781 740.4266,889.4378 C 724.7122,889.4378 709.07416,888.05153 693.24024,888.05153 C 687.35689,888.05153 681.44774,888.05153 675.56439,888.05153 C 671.08412,888.05153 664.72625,888.78129 661.64721,889.4378 C 661.59642,889.4378 661.54562,889.4378 661.49483,889.4378 C 660.11207,889.21502 659.36445,889.29226 658.70124,889.4378 C 658.66736,889.4378 658.63352,889.4378 658.59965,889.4378 C 656.33058,889.4378 654.06253,889.43781 651.79344,889.4378 C 651.10932,889.4378 650.39507,889.43781 649.71094,889.4378 C 646.1948,889.4378 642.91904,889.0912 639.45082,889.09123 C 630.15365,889.09123 621.36908,886.62191 611.972,886.62194 C 600.21642,886.62194 588.33268,887.35836 576.67111,887.35839 C 561.17847,887.35839 545.62955,885.92883 530.29742,885.9288 C 517.65299,885.9288 505.18004,884.54255 492.50769,884.54253 C 485.66658,884.54253 478.82856,884.54255 471.98746,884.54253 C 462.10731,884.54253 450.17564,883.71418 448.72443,883.80608 C 448.7138,883.80696 448.68279,883.80505 448.67364,883.80608 C 448.66597,883.80723 448.62901,883.80479 448.62285,883.80608 C 448.6182,883.80751 448.62595,883.84783 448.62285,883.8494 C 445.98517,884.97423 446.04609,884.98364 443.23882,885.58223 C 441.20319,886.01628 438.95308,885.92883 436.68657,885.9288 C 433.70292,885.9288 430.72456,885.58222 427.64548,885.58223 C 425.21949,885.58223 422.88492,885.71997 420.5853,886.14541 C 420.06112,886.17997 419.57613,886.2205 419.06152,886.27537 C 413.65844,886.85141 408.07115,886.62191 402.60471,886.62194 C 398.475,886.62194 393.07653,887.47111 389.09386,886.62194 C 381.07139,884.91135 370.77121,884.19601 362.37693,884.19597 C 343.01172,884.19597 323.64597,881.38008 304.11776,881.38011 C 284.41537,881.38011 264.69753,881.38008 244.99512,881.38011 C 233.12429,881.38011 216.5751,880.56397 201.26265,880.77361 z "
       id="path7703" />
    <path
       style="opacity:1;color:#000000;fill:#113f52;fill-opacity:0.37888202;fill-rule:nonzero;stroke:none;stroke-width:3.9000001;stroke-linecap:butt;stroke-linejoin:miter;marker:none;marker-start:none;marker-mid:none;marker-end:none;stroke-miterlimit:4;stroke-dasharray:none;stroke-dashoffset:0;stroke-opacity:1;visibility:visible;display:inline;overflow:visible"
       d="M 338.13431,93.880304 C 351.02732,158.67219 330.3001,229.33377 347.34348,290.42931 C 397.8342,315.61547 463.32802,293.50804 519.49112,300.56137 C 575.60315,291.64404 701.46265,329.19622 689.92051,247.6637 C 673.41748,196.60085 693.79746,137.28634 661.03129,91.011115 C 586.81454,74.350949 501.45719,90.872516 423.2719,90.929506 C 395.15285,95.165168 366.21583,88.13336 338.13431,93.880304 z "
       id="path6800" />
    <path
       style="opacity:1;color:#000000;fill:#000000;fill-opacity:1;fill-rule:nonzero;stroke:none;stroke-width:3.9000001;stroke-linecap:butt;stroke-linejoin:miter;marker:none;marker-start:none;marker-mid:none;marker-end:none;stroke-miterlimit:4;stroke-dasharray:none;stroke-dashoffset:0;stroke-opacity:1;visibility:visible;display:inline;overflow:visible"
       d="M 599.93414,304.64889 L 582.51226,311.88348 C 583.1804,314.52206 583.50426,317.21395 583.83287,319.89785 C 585.96849,339.24243 581.14179,358.52902 573.47117,376.64824 C 557.93735,409.8403 527.32487,435.15923 496.31714,458.17818 C 453.58942,488.77599 409.08736,517.62846 369.08156,550.88492 C 354.71132,562.97935 341.22492,575.83215 328.90458,589.44052 C 327.14014,595.63241 325.34117,601.79136 323.57135,607.98187 C 339.22419,586.62516 358.35812,567.17645 379.29088,549.36869 C 419.25871,515.93669 463.69877,487.01427 506.9328,456.79191 C 539.14979,433.2681 570.45544,406.99882 586.57568,372.836 C 594.78699,353.67493 599.63,333.55254 599.62939,313.09647 C 599.67745,310.2838 599.46952,307.43137 599.93414,304.64889 z "
       id="path3189" />
    <path
       style="opacity:1;color:#000000;fill:#ffff71;fill-opacity:1;fill-rule:nonzero;stroke:none;stroke-width:3.9000001;stroke-linecap:butt;stroke-linejoin:miter;marker:none;marker-start:none;marker-mid:none;marker-end:none;stroke-miterlimit:4;stroke-dasharray:none;stroke-dashoffset:0;stroke-opacity:1;visibility:visible;display:inline;overflow:visible"
       d="M 504.01306,115.40112 C 448.0199,101.43336 389.35389,135.09186 383.29073,184.50795 C 367.2774,228.67033 402.51551,272.66381 450.83895,287.62158 C 513.70962,310.11166 598.94078,297.22234 638.19047,247.22866 C 654.36179,203.76706 620.29596,151.58116 577.70258,127.88478 C 556.70115,119.87733 533.38154,118.89585 510.99102,115.75119"
       id="path3201" />
    <path
       style="opacity:1;color:#000000;fill:#000000;fill-opacity:1;fill-rule:nonzero;stroke:none;stroke-width:3.9000001;stroke-linecap:butt;stroke-linejoin:miter;marker:none;marker-start:none;marker-mid:none;marker-end:none;stroke-miterlimit:4;stroke-dasharray:none;stroke-dashoffset:0;stroke-opacity:1;visibility:visible;display:inline;overflow:visible"
       d="M 168.3125 874.0625 C 168.43651 879.15931 167.24305 884.85429 167.46875 890.125 C 280.36723 887.11645 393.34888 887.62752 506.28125 889 C 627.55734 890.8339 748.85232 892.30045 870.125 894.375 C 871.28112 891.35527 872.25214 887.87066 873.40625 884.5 C 752.70959 885.58803 631.97942 884.51977 511.3125 882.34375 C 396.96202 880.09618 282.63529 877.16817 168.3125 874.0625 z "
       id="path1307" />
    <path
       style="opacity:1;color:#000000;fill:#000000;fill-opacity:1;fill-rule:nonzero;stroke:none;stroke-width:3.9000001;stroke-linecap:butt;stroke-linejoin:miter;marker:none;marker-start:none;marker-mid:none;marker-end:none;stroke-miterlimit:4;stroke-dasharray:none;stroke-dashoffset:0;stroke-opacity:1;visibility:visible;display:inline;overflow:visible"
       id="path2226"
       d="M 480.94306,320.68196 C 468.44501,319.76101 457.06528,315.40668 446.22433,310.21383 C 412.18228,293.49153 391.94888,264.73234 379.74137,233.72167 C 361.63102,185.9224 380.78111,142.31564 430.85821,115.91639 C 485.06169,93.018308 549.58099,105.26114 598.31424,132.38084 C 642.11715,159.84549 660.96465,206.1613 641.05159,249.76071 C 613.30517,295.59797 551.46949,308.09331 495.81586,307.02526 C 465.91403,305.655 436.47407,299.50274 409.69944,288.02357 L 424.76464,273.94915 C 449.49734,286.11506 477.45222,292.46704 505.92656,293.69687 C 556.36322,294.45291 604.97648,283.01719 622.41264,254.92741 C 644.10588,214.30495 627.64817,169.5271 586.19432,143.02206 C 538.88882,116.2491 475.37175,105.55055 424.15805,131.00862 C 403.46539,143.61435 378.81712,186.17403 396.11399,224.82101 C 407.7772,254.27631 428.13545,281.41412 461.80545,295.42394 C 471.45714,299.1728 483.64391,303.54191 494.03524,300.15172 L 480.94306,320.68196 z " />
    <path
       style="opacity:1;color:#000000;fill:#d01919;fill-opacity:1;fill-rule:nonzero;stroke:none;stroke-width:3.9000001;stroke-linecap:butt;stroke-linejoin:miter;marker:none;marker-start:none;marker-mid:none;marker-end:none;stroke-miterlimit:4;stroke-dasharray:none;stroke-dashoffset:0;stroke-opacity:1;visibility:visible;display:inline;overflow:visible"
       d="M 502.37123,145.50848 C 483.12316,174.15957 485.83333,221.04258 490.72897,251.68298 C 522.18165,265.83208 536.41164,208.21036 539.22796,188.58952 C 539.79878,174.26006 525.56491,135.4716 502.37123,145.50848 z "
       id="path4083"
       sodipodi:nodetypes="cccc" />
    <path
       style="opacity:1;color:#000000;fill:#000000;fill-opacity:1;fill-rule:nonzero;stroke:none;stroke-width:3.9000001;stroke-linecap:butt;stroke-linejoin:miter;marker:none;marker-start:none;marker-mid:none;marker-end:none;stroke-miterlimit:4;stroke-dasharray:none;stroke-dashoffset:0;stroke-opacity:1;visibility:visible;display:inline;overflow:visible"
       id="path2238"
       d="M 516.33671,139.70922 C 510.61539,145.9222 507.54703,157.80128 505.65956,166.61084 C 501.80234,189.86043 500.17059,213.8402 503.75582,237.21127 C 504.54737,240.26898 504.77915,243.80337 506.94278,246.47702 C 507.91329,247.67627 511.77974,242.38247 510.42189,243.26685 C 481.9619,261.80332 496.39815,253.80626 502.41523,247.59127 C 516.73587,230.98703 522.74154,210.51062 523.76464,190.18602 C 522.36192,179.06043 524.90919,152.02102 509.30192,146.87361 C 502.94406,149.95964 490.259,159.6081 518.09924,140.82012 C 519.01243,140.20384 516.26287,142.04734 515.42355,142.73581 C 510.34848,146.89874 506.95275,152.32566 503.72497,157.58237 L 480.93295,163.46728 C 488.74926,149.00361 504.05241,123.92727 526.2647,130.56176 C 544.32039,140.50107 542.68176,165.91458 544.51761,181.77991 C 544.08794,203.0238 538.5238,224.08495 526.12653,242.66234 C 513.07784,261.26581 485.12176,276.15348 482.73819,246.76824 C 480.53114,222.69204 482.27375,198.37919 484.36492,174.35215 C 485.41647,166.21141 487.55685,151.96658 490.02652,146.44247 L 516.33671,139.70922 z " />
    <path
       style="color:#000000;fill:#bfd7db;fill-opacity:1;fill-rule:nonzero;stroke:none;stroke-width:3.9000001;stroke-linecap:butt;stroke-linejoin:miter;marker:none;marker-start:none;marker-mid:none;marker-end:none;stroke-miterlimit:4;stroke-dasharray:none;stroke-dashoffset:0;stroke-opacity:1;visibility:visible;display:inline;overflow:visible"
       d="M 312.59289,296.3746 C 310.15287,347.81105 378.21546,317.52873 414.12108,326.37846 C 496.19763,332.22735 578.3599,327.96907 660.30643,323.20594 C 709.30883,334.94447 752.94841,334.51621 722.36287,296.42985 C 683.99001,291.1852 643.17617,294.62345 604.04167,296.60296 C 559.35597,304.68757 514.21714,306.35393 469.36154,297.90354 C 417.44471,293.27961 364.54062,293.69092 312.59289,296.3746 z "
       id="path6758"
       sodipodi:nodetypes="ccccccc" />
    <path
       style="color:#000000;fill:#000000;fill-opacity:1;fill-rule:nonzero;stroke:none;stroke-width:3.9000001;stroke-linecap:butt;stroke-linejoin:miter;marker:none;marker-start:none;marker-mid:none;marker-end:none;stroke-miterlimit:4;stroke-dasharray:none;stroke-dashoffset:0;stroke-opacity:1;visibility:visible;display:inline;overflow:visible"
       id="path2218"
       d="M 296.33799,285.81802 C 311.89634,287.75431 327.67713,288.39351 343.36961,289.13528 C 398.14332,291.42634 452.9999,292.06252 507.83371,292.1084 C 562.05944,292.23611 616.27902,291.2472 670.44149,289.0291 C 700.3443,287.79178 730.23069,286.2743 760.09565,284.49291 C 764.95008,284.20056 769.80415,283.90399 774.65841,283.60951 L 761.13726,302.19694 C 756.51229,302.18326 751.88728,302.17253 747.26232,302.2017 C 718.13702,302.36645 689.02063,303.04263 659.90074,303.50353 C 606.19524,304.28631 552.47869,304.32776 498.76689,304.22712 C 443.17236,304.07333 387.57574,303.66241 331.98181,304.13022 C 315.19654,304.28547 298.28381,304.04182 281.58236,305.57256 L 296.33799,285.81802 z " />
    <path
       style="color:#000000;fill:#000000;fill-opacity:1;fill-rule:nonzero;stroke:none;stroke-width:3.9000001;stroke-linecap:butt;stroke-linejoin:miter;marker:none;marker-start:none;marker-mid:none;marker-end:none;stroke-miterlimit:4;stroke-dasharray:none;stroke-dashoffset:0;stroke-opacity:1;visibility:visible;display:inline;overflow:visible"
       id="path2272"
       d="M 327.5477,294.06801 C 327.45181,296.39032 326.93679,298.99668 326.69715,301.43458 C 326.26999,305.81094 325.95247,310.1977 325.9106,314.58666 C 336.26413,316.7166 347.64097,316.9117 358.42687,317.22654 C 392.86594,317.86852 427.32007,317.97103 461.76684,317.95501 C 512.14884,317.83501 562.52376,317.09451 612.90639,317.07453 C 649.21613,316.64317 685.54322,318.15751 721.84903,317.63865 C 721.2052,321.11662 740.60195,313.18323 739.15355,314.14163 C 717.69616,328.33998 717.46579,322.88498 723.26656,328.3246 C 720.66674,323.09445 717.84946,317.9287 715.67139,312.52916 C 714.09794,308.43182 712.79685,304.2648 711.60947,300.07588 L 734.38282,288.87607 C 735.20244,292.84963 736.3244,296.76724 737.74157,300.61894 C 739.79179,306.02332 742.41308,311.19269 745.91595,316.03907 C 755.21021,334.23062 722.51855,337.07336 708.77999,334.74888 C 673.48339,332.43405 638.1209,330.88507 602.7123,330.67475 C 552.23872,330.2646 501.76956,331.02165 451.31191,332.08579 C 416.10442,332.80286 380.89762,333.61376 345.68482,334.09851 C 332.18622,334.154 312.97329,336.72975 303.4801,326.86746 C 301.33696,321.6945 302.27761,316.31394 302.583,310.90516 C 302.66145,309.28132 302.57409,304.54986 302.8492,304.34223 L 327.5477,294.06801 z " />
    <path
       style="opacity:1;color:#000000;fill:#000000;fill-opacity:1;fill-rule:nonzero;stroke:none;stroke-width:3.9000001;stroke-linecap:butt;stroke-linejoin:miter;marker:none;marker-start:none;marker-mid:none;marker-end:none;stroke-miterlimit:4;stroke-dasharray:none;stroke-dashoffset:0;stroke-opacity:1;visibility:visible;display:inline;overflow:visible"
       id="path3167"
       d="M 192.09374,875.21042 C 191.26707,882.36376 191.39259,891.01337 191.16441,898.60759 C 190.41728,920.57858 189.18211,942.53479 188.04506,964.49293 L 167.20192,972.70246 C 169.15144,951.02385 170.53084,929.27668 169.76963,907.52784 C 169.49344,900.19822 169.39143,892.62967 167.39524,885.48464 L 192.09374,875.21042 z " />
    <path
       style="opacity:1;color:#000000;fill:#000000;fill-opacity:1;fill-rule:nonzero;stroke:none;stroke-width:3.9000001;stroke-linecap:butt;stroke-linejoin:miter;marker:none;marker-start:none;marker-mid:none;marker-end:none;stroke-miterlimit:4;stroke-dasharray:none;stroke-dashoffset:0;stroke-opacity:1;visibility:visible;display:inline;overflow:visible"
       id="path3169"
       d="M 871.82639,882.21213 C 870.87571,888.38362 868.43939,894.66605 866.90371,900.86564 C 863.14346,916.5927 860.50523,932.50863 858.47567,948.46193 C 857.58927,955.34059 856.93613,962.2373 856.60507,969.15105 L 833.17216,978.45352 C 833.81532,971.21642 834.85807,964.01496 836.01227,956.82457 C 838.51979,940.82658 841.22686,924.85142 844.02816,908.8891 C 844.9306,903.95248 845.91056,896.32201 847.12788,892.48635 L 871.82639,882.21213 z " />
    <path
       style="opacity:1;color:#000000;fill:#000000;fill-opacity:1;fill-rule:nonzero;stroke:none;stroke-width:3.9000001;stroke-linecap:butt;stroke-linejoin:miter;marker:none;marker-start:none;marker-mid:none;marker-end:none;stroke-miterlimit:4;stroke-dasharray:none;stroke-dashoffset:0;stroke-opacity:1;visibility:visible;display:inline;overflow:visible"
       id="path3181"
       d="M 123.16227,953.09685 C 144.35347,956.84298 166.3518,957.88356 187.94045,959.30381 C 262.76876,963.78125 337.77476,965.65891 412.76746,966.56959 C 506.29569,967.43896 599.83769,967.2195 693.36471,966.32148 C 768.66975,965.46661 843.96905,964.26171 919.26797,963.08185 C 933.9686,962.85582 948.66794,962.5755 963.3669,962.28182 L 952.82928,976.36511 C 938.55408,976.0148 924.27764,975.69773 909.99806,975.50687 C 835.66082,974.51181 761.31259,974.90929 686.96946,974.9253 C 593.47699,975.03472 499.98405,975.03432 406.4916,974.91574 C 330.17841,974.71442 253.8765,973.81368 177.57452,972.70523 C 154.7297,972.40708 130.89158,971.58169 108.42956,972.82074 L 123.16227,953.09685 z " />
    <path
       style="opacity:1;color:#000000;fill:#000000;fill-opacity:1;fill-rule:nonzero;stroke:none;stroke-width:3.9000001;stroke-linecap:butt;stroke-linejoin:miter;marker:none;marker-start:none;marker-mid:none;marker-end:none;stroke-miterlimit:4;stroke-dasharray:none;stroke-dashoffset:0;stroke-opacity:1;visibility:visible;display:inline;overflow:visible"
       d="M 470.51448,323.92669 L 453.04181,331.20461 C 452.99436,331.17803 452.93851,331.17268 452.88943,331.16128 C 452.85232,331.1555 452.775,331.1157 452.73705,331.11796 C 451.22054,331.31104 449.04429,337.63746 447.91175,339.73882 C 439.38198,354.59832 428.83631,368.57248 417.79171,382.14999 C 403.7581,399.15794 388.30927,415.25896 373.14497,431.53582 C 371.63748,437.03213 370.08816,442.50275 368.57363,447.99777 C 369.95223,446.46964 371.38085,444.95797 372.78942,443.44907 C 392.55836,421.89651 413.6231,401.23557 432.47078,379.07421 C 444.02683,365.01569 455.04349,350.56148 464.62253,335.45005 C 466.7724,332.03382 470.77047,327.71114 470.51448,323.92669 z "
       id="path3191" />
    <path
       style="opacity:1;color:#000000;fill:#000000;fill-opacity:1;fill-rule:nonzero;stroke:none;stroke-width:3.9000001;stroke-linecap:butt;stroke-linejoin:miter;marker:none;marker-start:none;marker-mid:none;marker-end:none;stroke-miterlimit:4;stroke-dasharray:none;stroke-dashoffset:0;stroke-opacity:1;visibility:visible;display:inline;overflow:visible"
       id="path3197"
       d="M 475.46293,884.53139 C 478.10441,885.21098 479.59271,873.79274 480.71777,869.93288 C 486.19847,851.24444 495.43068,833.58909 507.40497,817.29727 C 517.72339,804.80535 535.65329,778.934 556.56993,789.44384 C 571.8461,800.25551 572.5046,819.36359 572.58946,834.9764 C 572.29873,852.48626 570.01648,869.91692 567.43457,887.27283 C 566.95348,890.50479 567.18826,888.91923 566.72997,892.02948 L 550.87758,897.75108 C 551.55542,894.56587 551.21164,896.18887 551.90853,892.88204 C 555.51442,875.65888 558.52685,858.26787 558.79964,840.74274 C 558.68868,827.51542 558.60885,809.26231 544.8642,800.48573 C 536.44029,797.48551 523.26959,809.46208 539.28323,797.30022 C 540.94215,796.04034 522.18098,814.04808 522.27218,814.03458 C 510.08723,829.4187 500.82477,846.41424 496.36616,864.65951 C 495.08668,870.11192 493.44485,876.037 494.58138,881.58278 L 475.46293,884.53139 z " />
    <path
       style="color:#000000;fill:#bfd7db;fill-opacity:0.6459627;fill-rule:nonzero;stroke:none;stroke-width:3.9000001;stroke-linecap:butt;stroke-linejoin:miter;marker:none;marker-start:none;marker-mid:none;marker-end:none;stroke-miterlimit:4;stroke-dasharray:none;stroke-dashoffset:0;stroke-opacity:1;visibility:visible;display:inline;overflow:visible"
       d="M 341.61727,91.899922 C 340.56562,115.33908 348.08427,152.2361 379.72443,125.69187 C 403.05124,113.83097 429.2387,98.499477 457.67661,102.68932 C 488.88536,122.57819 521.33989,143.85593 552.64715,164.87018 C 565.16345,183.47809 590.12838,210.33476 617.76634,192.97482 C 637.27413,180.3058 653.45391,164.01911 671.71984,150.85609 C 685.64003,134.03533 686.08202,98.899305 665.1218,87.119013 C 631.44657,85.601353 597.64709,91.661206 563.59729,88.287125 C 489.73258,87.4977 415.4925,84.878664 342.07539,92.513845 L 341.08436,93.817714 L 341.03677,93.880304"
       id="path5879" />
    <path
       style="color:#000000;fill:#000000;fill-opacity:1;fill-rule:nonzero;stroke:none;stroke-width:3.9000001;stroke-linecap:butt;stroke-linejoin:miter;marker:none;marker-start:none;marker-mid:none;marker-end:none;stroke-miterlimit:4;stroke-dasharray:none;stroke-dashoffset:0;stroke-opacity:1;visibility:visible;display:inline;overflow:visible"
       id="path5877"
       d="M 289.94024,163.47361 C 297.2893,147.13182 327.96807,135.82344 346.58243,127.61071 C 379.69693,114.67211 412.45871,99.394702 448.07112,92.002922 C 480.49602,85.78728 505.34542,103.69301 527.10052,121.65179 C 547.86596,139.43674 567.6433,158.04727 588.72008,175.57042 C 597.84951,182.96695 604.94842,191.73361 616.86584,184.63586 C 614.57645,186.85778 627.61968,177.16123 624.93843,179.03744 C 581.83676,209.19784 629.1636,173.12499 639.99555,161.66787 C 648.15558,152.94487 656.0182,144.02299 663.81806,135.06465 L 699.74173,128.27807 C 690.9953,137.1421 682.68645,146.31135 674.11771,155.29999 C 653.56292,176.82699 631.68722,200.45481 601.99936,212.91935 C 584.50103,217.26436 572.90044,205.58378 562.30274,195.4205 C 542.67206,176.9441 523.60284,157.98147 502.46409,140.72422 C 482.7432,124.94144 461.02664,110.64796 432.54415,117.38838 C 397.7342,125.15159 365.08092,139.46115 333.81019,154.30022 C 309.67121,166.86469 291.07693,182.49729 327.14847,153.95137 L 289.94024,163.47361 z " />
    <path
       style="color:#000000;fill:#bfd7db;fill-opacity:1;fill-rule:nonzero;stroke:none;stroke-width:3.9000001;stroke-linecap:butt;stroke-linejoin:miter;marker:none;marker-start:none;marker-mid:none;marker-end:none;stroke-miterlimit:4;stroke-dasharray:none;stroke-dashoffset:0;stroke-opacity:1;visibility:visible;display:inline;overflow:visible"
       d="M 318.97823,51.797143 C 284.56139,50.717239 293.79718,107.01634 329.61299,88.885272 C 400.22759,82.863888 470.61483,95.160357 541.33344,92.135934 C 591.05019,92.062711 640.75521,91.049973 690.46327,90.366001 C 722.70483,76.425667 705.11375,30.290871 669.19235,53.167414 C 610.01314,64.183678 549.34904,55.292398 489.50113,57.685098 C 432.6316,57.140724 375.77938,49.540921 318.97823,51.797143 z "
       id="path6785" />
    <path
       style="color:#000000;fill:#000000;fill-opacity:1;fill-rule:nonzero;stroke:none;stroke-width:3.9000001;stroke-linecap:butt;stroke-linejoin:miter;marker:none;marker-start:none;marker-mid:none;marker-end:none;stroke-miterlimit:4;stroke-dasharray:none;stroke-dashoffset:0;stroke-opacity:1;visibility:visible;display:inline;overflow:visible"
       id="path2270"
       d="M 284.78867,97.773668 C 283.94929,94.13718 287.53713,90.518228 289.27693,87.111014 C 292.08706,81.720452 294.03706,76.08567 295.41631,70.318126 C 296.28289,66.196734 297.04952,62.059498 297.53557,57.89272 C 298.84389,41.125644 316.71034,40.106002 330.72035,41.751323 C 355.63076,44.883681 380.73793,46.574166 405.8652,47.782508 C 440.04731,49.389665 474.28501,49.885325 508.51425,49.743815 C 528.28912,49.636227 548.06253,49.323207 567.82799,48.791254 C 576.56359,48.540256 585.29993,48.307127 594.03972,48.199081 C 600.93047,48.128479 607.78805,47.582372 614.63822,46.989992 C 622.52648,46.233643 630.45522,45.93371 638.37294,45.516249 C 646.74344,45.082458 655.11033,44.573572 663.42615,43.639033 C 669.46344,43.047748 675.28139,41.581172 681.098,40.154646 C 685.49053,39.026888 689.91402,38.013234 694.3954,37.179047 C 699.01927,36.256152 703.728,35.673393 708.42443,35.113492 C 715.65852,34.777946 719.87661,38.70429 721.42903,44.427418 C 722.1014,51.064292 720.0308,57.659092 718.20489,64.065498 C 716.75014,68.859022 715.41689,73.674921 714.38834,78.548086 C 714.07309,79.704872 714.07593,80.889896 713.98511,82.064302 L 690.31045,92.891201 C 690.04111,91.143518 689.69187,89.40461 689.91975,87.630158 C 690.66208,82.34559 692.05296,77.165033 693.76872,72.04611 C 695.51947,66.484995 697.36401,60.900937 697.93466,55.141364 C 697.03488,55.059865 696.00566,54.492022 695.23532,54.896854 C 690.77327,55.58436 686.3207,56.322493 681.93223,57.305857 C 677.58341,58.338197 673.25753,59.441432 668.87428,60.36477 C 662.75524,61.581817 656.56183,62.455569 650.29389,62.895723 C 641.83297,63.541031 633.35804,64.018074 624.88352,64.512695 C 617.02726,64.942508 609.17912,65.463273 601.35541,66.219871 C 594.24455,66.803088 587.11346,67.246445 579.964,67.165223 C 571.40828,67.185269 562.85244,67.145996 554.29805,67.007813 C 534.98294,66.718263 515.66946,66.353951 496.3596,65.869741 C 462.23518,65.036774 428.10678,64.264137 393.99634,63.0753 C 368.17817,62.112231 342.38156,60.783673 316.57116,59.741351 C 298.59266,59.767565 302.18956,69.003208 322.57077,49.615349 C 321.21452,53.557635 320.75761,57.695911 319.85402,61.750734 C 318.54889,67.981112 316.86799,74.151215 314.13157,80.053144 C 313.31047,81.945845 311.44483,90.105632 309.48717,87.499447 L 284.78867,97.773668 z " />
    <path
       style="color:#000000;fill:#000000;fill-opacity:1;fill-rule:nonzero;stroke:none;stroke-width:3.9000001;stroke-linecap:butt;stroke-linejoin:miter;marker:none;marker-start:none;marker-mid:none;marker-end:none;stroke-miterlimit:4;stroke-dasharray:none;stroke-dashoffset:0;stroke-opacity:1;visibility:visible;display:inline;overflow:visible"
       id="path2262"
       d="M 270.88083,83.465362 C 283.43609,84.444054 296.1199,84.497273 308.72788,84.718258 C 368.37249,85.549895 428.02203,84.391986 487.64826,83.193487 C 555.71458,81.533541 623.79493,80.604769 691.88619,80.233775 C 727.75147,80.065233 763.61612,79.789351 799.48199,79.729395 C 800.67007,79.726983 801.85813,79.724571 803.04619,79.722159 L 789.52463,97.328565 C 788.39962,97.254746 787.27459,97.180941 786.14958,97.107122 C 751.63211,94.938956 717.05243,93.513747 682.45201,92.785235 C 614.87523,91.464315 547.27455,92.234692 479.71841,94.032558 C 418.94186,95.585942 358.1521,97.210399 297.44013,100.09823 C 283.64093,100.84913 269.83512,101.71253 256.12061,103.22603 L 270.88083,83.465362 z " />
    <path
       style="opacity:1;color:#000000;fill:#000000;fill-opacity:1;fill-rule:nonzero;stroke:none;stroke-width:3.9000001;stroke-linecap:butt;stroke-linejoin:miter;marker:none;marker-start:none;marker-mid:none;marker-end:none;stroke-miterlimit:4;stroke-dasharray:none;stroke-dashoffset:0;stroke-opacity:1;visibility:visible;display:inline;overflow:visible"
       id="path2258"
       d="M 352.24348,84.321092 C 353.39778,96.557217 352.97775,109.13162 353.23928,121.47112 C 354.15853,155.91357 354.34311,190.36554 355.05871,224.81087 C 355.41824,247.39081 356.25254,269.9644 356.55847,292.54492 C 356.58907,294.59787 356.59466,296.65096 356.60771,298.70401 L 333.28835,308.00068 C 333.51952,305.89214 333.77119,303.78508 333.95385,301.67282 C 336.02197,278.65065 336.41834,255.54125 336.77121,232.46349 C 336.94056,198.32141 336.27187,164.15017 333.35647,130.08822 C 332.42196,119.65498 331.13092,105.93276 329.09339,96.876683 L 352.24348,84.321092 z " />
    <path
       style="opacity:1;color:#000000;fill:#000000;fill-opacity:1;fill-rule:nonzero;stroke:none;stroke-width:3.9000001;stroke-linecap:butt;stroke-linejoin:miter;marker:none;marker-start:none;marker-mid:none;marker-end:none;stroke-miterlimit:4;stroke-dasharray:none;stroke-dashoffset:0;stroke-opacity:1;visibility:visible;display:inline;overflow:visible"
       id="path2260"
       d="M 688.75829,82.616189 C 687.70572,89.704709 687.13793,96.845603 686.614,103.97592 C 684.11625,134.52275 685.61466,165.13768 688.58542,195.61203 C 691.0549,220.55123 694.85798,245.41656 695.98374,270.44223 C 696.26504,278.04098 695.96259,285.64177 695.45063,293.22795 L 672.77525,301.94791 C 673.7887,294.47326 674.51116,286.96718 674.63428,279.43958 C 674.90367,254.16476 672.18772,228.96361 670.22926,203.76757 C 667.79712,173.456 665.72923,143.12169 665.19536,112.73549 C 664.99148,106.12587 664.97867,99.457015 664.05979,92.890425 L 688.75829,82.616189 z " />
  </g>
</svg>
