<?xml version="1.0" encoding="UTF-8" standalone="no"?>
<!-- Created with Inkscape (http://www.inkscape.org/) -->
<svg
   xmlns:dc="http://purl.org/dc/elements/1.1/"
   xmlns:cc="http://web.resource.org/cc/"
   xmlns:rdf="http://www.w3.org/1999/02/22-rdf-syntax-ns#"
   xmlns:svg="http://www.w3.org/2000/svg"
   xmlns="http://www.w3.org/2000/svg"
   xmlns:sodipodi="http://inkscape.sourceforge.net/DTD/sodipodi-0.dtd"
   xmlns:inkscape="http://www.inkscape.org/namespaces/inkscape"
   width="1000"
   height="1000"
   id="svg2"
   sodipodi:version="0.32"
   inkscape:version="0.43"
   version="1.0"
   sodipodi:docbase="/home/kkowal/tale/art/monster"
   sodipodi:docname="little-bunny.svg"
   inkscape:export-filename="/home/kkowal/tale/art/monster/little-bunny.png"
   inkscape:export-xdpi="90"
   inkscape:export-ydpi="90">
  <defs
     id="defs4" />
  <sodipodi:namedview
     id="base"
     pagecolor="#ffffff"
     bordercolor="#666666"
     borderopacity="1.0"
     inkscape:pageopacity="0.0"
     inkscape:pageshadow="2"
     inkscape:zoom="0.35"
     inkscape:cx="474.02661"
     inkscape:cy="526.14559"
     inkscape:document-units="px"
     inkscape:current-layer="layer1"
     inkscape:window-width="1590"
     inkscape:window-height="1121"
     inkscape:window-x="0"
     inkscape:window-y="25" />
  <metadata
     id="metadata7">
    <rdf:RDF>
      <cc:Work
         rdf:about="">
        <dc:format>image/svg+xml</dc:format>
        <dc:type
           rdf:resource="http://purl.org/dc/dcmitype/StillImage" />
      </cc:Work>
    </rdf:RDF>
  </metadata>
  <g
     inkscape:label="Layer 1"
     inkscape:groupmode="layer"
     id="layer1">
    <path
       style="opacity:1;color:#000000;fill:#ededed;fill-opacity:1;fill-rule:nonzero;stroke:none;stroke-width:3.9000001;stroke-linecap:butt;stroke-linejoin:miter;marker:none;marker-start:none;marker-mid:none;marker-end:none;stroke-miterlimit:4;stroke-dasharray:none;stroke-dashoffset:0;stroke-opacity:1;visibility:visible;display:inline;overflow:visible"
       d="M 512.52022,492.74599 C 527.8593,470.44544 558.83776,460.0491 585.17492,467.7961 C 611.69238,468.56295 636.195,489.01832 640.2919,514.60131 C 643.82438,527.99053 640.98746,544.36167 628.74579,552.78169 C 609.81903,568.10822 585.6022,576.183 561.4163,579.22451 C 544.50009,580.59574 526.30656,578.87274 511.79163,569.70281 C 497.76023,557.25216 495.72337,535.92553 503.12403,519.58692 C 505.98351,510.55042 509.81362,501.83073 512.52022,492.74599 z "
       id="path3308" />
    <path
       style="opacity:1;color:#000000;fill:#000000;fill-opacity:1;fill-rule:nonzero;stroke:none;stroke-width:3.9000001;stroke-linecap:butt;stroke-linejoin:miter;marker:none;marker-start:none;marker-mid:none;marker-end:none;stroke-miterlimit:4;stroke-dasharray:none;stroke-dashoffset:0;stroke-opacity:1;visibility:visible;display:inline;overflow:visible"
       id="path2433"
       d="M 504.04569,493.49729 C 504.10886,489.62377 507.00391,486.70883 509.52904,483.97098 C 518.57693,474.24356 530.4987,468.16788 543.16237,464.10734 C 563.2928,457.73175 584.04919,459.66188 603.50369,467.10268 C 622.16751,474.6404 637.72074,487.76624 646.34126,505.6309 C 653.69517,522.18951 650.14634,539.51574 639.61939,553.83254 C 626.59022,569.72269 606.81702,578.24322 587.05575,583.32373 C 566.87375,588.14544 546.09539,586.55484 526.07788,581.90606 C 522.72638,581.11942 519.43309,580.13191 516.14605,579.12765 L 520.66778,567.79713 C 523.60628,568.87831 526.55355,569.93996 529.58037,570.77122 C 547.66325,575.69414 566.65328,577.02286 584.995,572.43768 C 601.53219,568.09657 618.09233,561.04056 629.11474,547.81559 C 637.40285,536.81736 640.71556,523.73246 635.39181,510.67668 C 628.48456,495.05966 614.93311,483.7837 598.96859,477.22792 C 581.94596,470.69795 563.6321,469.20338 546.21073,475.4303 C 536.72384,478.95928 527.61332,483.91048 521.22954,491.77691 C 519.61994,493.88833 518.47838,497.11677 519.38032,492.76877 L 504.04569,493.49729 z " />
    <path
       id="path5372"
       d="M 416.62516,548.23064 C 406.87994,550.69529 397.62928,554.80471 388.53072,558.87918 C 370.5709,569.18401 351.13561,578.29267 337.38169,594.01207 C 332.35461,600.36646 327.79778,607.4883 325.79379,615.30114 C 325.05989,624.7165 332.49083,633.26798 340.98643,636.85933 C 349.58073,639.43672 358.67701,637.46971 367.482,637.5791 C 388.22078,636.28882 408.44974,630.0844 426.56256,620.27296 C 440.51126,613.70637 454.57263,605.17448 462.06287,591.48098 C 469.17211,580.75482 476.47253,569.9335 480.75058,557.78087 C 481.25042,548.9031 471.13044,545.00362 463.86712,542.87404 C 452.65158,539.84646 440.62504,539.94825 429.24481,541.73875 C 424.82469,543.50519 421.14802,546.67454 416.62516,548.23064 z "
       style="color:#000000;fill:#ededed;fill-opacity:1;fill-rule:nonzero;stroke:none;stroke-width:3.9000001;stroke-linecap:butt;stroke-linejoin:miter;marker:none;marker-start:none;marker-mid:none;marker-end:none;stroke-miterlimit:4;stroke-dasharray:none;stroke-dashoffset:0;stroke-opacity:1;visibility:visible;display:inline;overflow:visible" />
    <path
       d="M 490.88729,551.01306 C 490.67597,553.89521 489.40623,556.65925 488.41899,559.36625 C 484.39125,570.52978 479.15997,581.21325 472.10077,590.87115 C 457.88815,608.20922 438.18278,620.44671 417.96431,630.22021 C 396.88631,640.02293 373.80287,646.39753 350.28915,645.23701 C 334.84447,644.31019 319.14275,637.9361 317.73495,621.28078 C 318.03266,606.56472 327.96509,594.58539 338.42332,584.87023 C 351.5717,573.282 366.86888,564.27232 382.57747,556.36608 C 393.10671,551.24623 403.75116,546.21956 414.949,542.61702 L 417.81098,555.89818 C 407.14827,558.55038 396.96963,562.79666 387.05379,567.37582 C 373.00387,574.16838 359.40924,582.17287 347.87938,592.60001 C 340.07256,599.94401 331.94665,608.8703 331.00636,619.86981 C 331.31564,630.1287 343.1252,632.74098 351.78554,633.86901 C 373.41173,635.86049 394.82039,629.85731 414.14071,620.7346 C 431.96211,611.88696 449.33076,600.78254 461.36103,584.94859 C 467.4432,576.2497 472.0088,566.58726 474.64685,556.37341 C 474.78112,555.81292 475.85117,549.33928 475.55742,551.74135 L 490.88729,551.01306 z "
       id="path5374"
       style="color:#000000;fill:#000000;fill-opacity:1;fill-rule:nonzero;stroke:none;stroke-width:3.9000001;stroke-linecap:butt;stroke-linejoin:miter;marker:none;marker-start:none;marker-mid:none;marker-end:none;stroke-miterlimit:4;stroke-dasharray:none;stroke-dashoffset:0;stroke-opacity:1;visibility:visible;display:inline;overflow:visible" />
    <path
       style="opacity:1;color:#000000;fill:#ededed;fill-opacity:1;fill-rule:nonzero;stroke:none;stroke-width:3.9000001;stroke-linecap:butt;stroke-linejoin:miter;marker:none;marker-start:none;marker-mid:none;marker-end:none;stroke-miterlimit:4;stroke-dasharray:none;stroke-dashoffset:0;stroke-opacity:1;visibility:visible;display:inline;overflow:visible"
       d="M 368.2263,544.49829 C 363.16491,554.62699 365.3464,566.29322 368.02221,576.74939 C 370.90621,584.69418 379.99183,587.89265 387.83288,589.16858 C 412.24478,596.13877 440.3702,593.60648 461.35016,578.94705 C 472.00495,570.95598 476.28932,554.68204 468.27957,543.57018 C 461.8976,534.11523 450.44911,529.83729 439.72048,526.8726 C 423.71365,521.66268 405.21121,522.54702 390.67274,531.30115 C 382.93506,534.80187 374.88746,538.45208 369.23535,544.89036"
       id="path5472" />
    <path
       style="opacity:1;color:#000000;fill:#000000;fill-opacity:1;fill-rule:nonzero;stroke:none;stroke-width:3.9000001;stroke-linecap:butt;stroke-linejoin:miter;marker:none;marker-start:none;marker-mid:none;marker-end:none;stroke-miterlimit:4;stroke-dasharray:none;stroke-dashoffset:0;stroke-opacity:1;visibility:visible;display:inline;overflow:visible"
       d="M 363.90001,539.31571 C 361.41304,540.54154 361.96144,544.30638 360.61973,546.44224 C 357.35564,555.33324 355.63969,565.38073 359.59137,574.34163 C 360.22042,577.2734 361.51071,578.72696 364.28849,576.41712 C 366.42563,574.98996 370.80645,574.26409 371.58809,572.4046 C 366.16023,563.97063 369.43756,553.30592 373.70039,545.09619 C 374.74902,543.40801 375.41886,539.51935 372.30538,539.76168 C 369.40156,540.1607 366.6294,540.01092 363.90001,539.31571 z "
       id="path5466" />
    <path
       style="color:#000000;fill:#ededed;fill-opacity:1;fill-rule:nonzero;stroke:none;stroke-width:3.9000001;stroke-linecap:butt;stroke-linejoin:miter;marker:none;marker-start:none;marker-mid:none;marker-end:none;stroke-miterlimit:4;stroke-dasharray:none;stroke-dashoffset:0;stroke-opacity:1;visibility:visible;display:inline;overflow:visible"
       d="M 372.4643,511.95708 C 365.11239,522.40847 353.44632,528.73386 342.85477,535.60289 C 334.19861,539.87128 323.37537,540.7216 316.44006,547.7823 C 312.99862,555.6615 324.89738,559.14908 330.60942,555.70508 C 341.74105,552.49094 352.99782,549.74332 364.18242,546.71707 C 373.46874,544.24177 382.45244,540.68854 391.21874,536.96902 C 400.04368,535.96487 406.43636,543.22177 414.21935,545.83998 C 422.02823,549.59497 432.35773,549.97129 439.07324,543.89163 C 450.41461,536.3773 460.8232,527.27087 468.5701,516.19172 C 471.37285,508.28218 462.75418,502.20135 455.42863,502.05831 C 439.37314,497.7505 422.20702,493.01927 405.65939,497.79624 C 395.14552,500.2835 385.90167,505.94831 376.56351,510.97334 C 375.24526,511.46057 373.86952,511.81615 372.4643,511.95708 z "
       id="path3412" />
    <path
       style="color:#000000;fill:#000000;fill-opacity:1;fill-rule:nonzero;stroke:none;stroke-width:3.9000001;stroke-linecap:butt;stroke-linejoin:miter;marker:none;marker-start:none;marker-mid:none;marker-end:none;stroke-miterlimit:4;stroke-dasharray:none;stroke-dashoffset:0;stroke-opacity:1;visibility:visible;display:inline;overflow:visible"
       d="M 378.91717,511.59441 L 363.62504,512.33198 C 363.63435,512.23221 363.60845,511.93811 363.60738,511.78309 C 360.49278,515.93339 356.32715,518.52905 351.67034,521.38863 C 343.17775,526.50979 334.00395,530.40281 324.90028,534.35611 C 318.431,537.28505 311.17961,539.94079 306.87111,545.77985 C 302.77557,552.07378 305.97416,559.04087 312.53944,561.95489 C 320.68473,564.54676 329.55258,563.46762 337.79088,561.86913 C 349.20216,559.4147 360.17449,555.37926 370.98857,551.13151 C 376.75413,548.94735 382.37338,546.3563 388.20546,544.33902 C 387.56618,539.52077 387.84139,534.5443 387.8523,529.65626 C 387.0003,529.80054 386.14698,530.0104 385.27418,530.34237 C 378.98998,532.83664 373.08907,536.16715 366.87418,538.81583 C 357.04505,543.13004 346.88815,546.94279 336.27226,548.97026 C 332.19474,549.67498 327.96398,550.20548 323.80546,549.91366 C 325.70143,548.66165 327.8832,547.38812 329.56209,546.86047 C 338.89188,542.38648 348.31836,538.05825 357.37399,533.06966 C 364.73898,528.96549 372.49613,524.52439 377.23963,517.47781 C 378.178,515.60216 378.93416,513.71563 378.91717,511.59441 z "
       id="path1353" />
    <g
       id="g4297"
       transform="translate(-135.3604,-22.72843)" />
    <path
       style="opacity:1;color:#000000;fill:#ededed;fill-opacity:1;fill-rule:nonzero;stroke:none;stroke-width:3.9000001;stroke-linecap:butt;stroke-linejoin:miter;marker:none;marker-start:none;marker-mid:none;marker-end:none;stroke-miterlimit:4;stroke-dasharray:none;stroke-dashoffset:0;stroke-opacity:1;visibility:visible;display:inline;overflow:visible"
       d="M 435.02531,391.59376 C 446.09514,380.62855 452.00617,364.72511 466.44987,357.11669 C 478.78521,345.84583 489.01778,331.39923 505.23815,325.028 C 526.59447,312.86442 549.8168,303.26369 574.34534,299.30633 C 585.42642,299.47774 592.40144,313.92788 585.75402,322.43151 C 577.84347,336.10722 565.26484,346.33705 555.14436,358.36062 C 529.51295,384.31416 498.9211,406.84548 463.33555,417.97788 C 450.3202,421.12559 433.52717,414.54801 430.73666,400.80314 C 430.38775,398.06975 430.77428,395.18345 432.19998,392.76995"
       id="path2386" />
    <path
       style="color:#000000;fill:#ffffff;fill-opacity:1;fill-rule:nonzero;stroke:none;stroke-width:3.9000001;stroke-linecap:butt;stroke-linejoin:miter;marker:none;marker-start:none;marker-mid:none;marker-end:none;stroke-miterlimit:4;stroke-dasharray:none;stroke-dashoffset:0;stroke-opacity:1;visibility:visible;display:inline;overflow:visible"
       d="M 373.21679,513.21276 C 375.05572,518.34335 376.12527,523.85511 379.35401,528.40334 C 381.48566,531.80131 384.31897,534.91832 385.27316,538.88566 C 385.9264,540.72641 386.65736,542.58633 387.90812,544.13211 C 389.8131,545.08918 391.64721,543.42949 392.84334,542.13656 C 396.08476,538.97359 399.10989,535.56945 401.51345,531.75619 C 403.34734,529.63692 405.56975,527.67977 406.41602,524.94352 C 407.19046,523.04188 408.28755,520.99565 407.76642,518.90199 C 407.08152,516.69162 404.56755,516.10584 402.47381,516.14114 C 399.43676,515.96795 396.45733,515.36478 393.54562,514.52931 C 388.65086,513.23193 383.69257,511.93345 378.58654,511.84055 C 376.98133,511.72461 375.03303,511.10333 373.68674,512.27056 C 373.43936,512.53182 373.29032,512.86804 373.21679,513.21276 z "
       id="path4311" />
    <path
       style="opacity:1;color:#000000;fill:#ff0000;fill-opacity:1;fill-rule:nonzero;stroke:none;stroke-width:3.9000001;stroke-linecap:butt;stroke-linejoin:miter;marker:none;marker-start:none;marker-mid:none;marker-end:none;stroke-miterlimit:4;stroke-dasharray:none;stroke-dashoffset:0;stroke-opacity:1;visibility:visible;display:inline;overflow:visible"
       d="M 380.90839,534.68074 C 381.77003,532.61605 383.34126,530.73015 385.50118,529.86684 C 387.15603,529.52593 388.87421,530.12625 390.18971,531.09581 C 391.5277,531.80807 392.99922,532.72476 393.40301,534.25294 C 393.93054,536.40825 393.26632,538.89677 391.4443,540.3054 C 390.70651,541.00628 389.95075,541.68956 389.23163,542.40881 C 388.44402,542.77714 387.53777,542.39054 386.92179,541.88044 C 385.45577,541.21247 383.7287,540.805 382.71076,539.48278 C 381.63861,538.08155 381.45996,536.29383 380.90839,534.68074 z "
       id="path4453" />
    <path
       style="color:#000000;fill:#000000;fill-opacity:1;fill-rule:nonzero;stroke:none;stroke-width:3.9000001;stroke-linecap:butt;stroke-linejoin:miter;marker:none;marker-start:none;marker-mid:none;marker-end:none;stroke-miterlimit:4;stroke-dasharray:none;stroke-dashoffset:0;stroke-opacity:1;visibility:visible;display:inline;overflow:visible"
       id="path4309"
       d="M 375.51867,506.8571 C 377.218,508.76956 377.82029,511.33758 378.70041,513.69162 C 380.92939,519.7411 382.74052,525.92626 384.70841,532.0587 C 385.64452,535.04687 387.12491,539.62244 388.4991,541.62958 C 385.40684,539.4595 385.44633,540.60746 388.42129,538.18437 C 392.43392,534.55835 395.83194,530.34725 398.87239,525.93216 C 401.01155,522.79498 402.96045,519.53886 404.74045,516.1976 C 404.80957,516.06409 404.87869,515.93058 404.9478,515.79707 L 414.48749,519.81934 C 414.39747,519.97028 414.30744,520.12122 414.21742,520.27216 C 412.07203,523.75346 409.76552,527.13838 407.40604,530.4857 C 403.94146,535.35227 400.25619,540.08519 396.00397,544.33543 C 391.93553,548.18829 386.09616,553.47821 380.65596,548.35249 C 377.62569,544.54707 377.18528,539.4253 375.64182,534.98734 C 373.94603,529.11094 372.175,523.222 369.57817,517.65099 C 369.08334,516.64428 365.49593,510.654 368.30969,514.73998 L 375.51867,506.8571 z " />
    <path
       id="path4327"
       d="M 337.19281,504.25783 C 339.03175,509.3884 340.1013,514.90017 343.33004,519.44839 C 345.46169,522.84637 348.295,525.96337 349.24918,529.93072 C 349.90242,531.77147 350.63338,533.63139 351.88414,535.17717 C 353.78912,536.13424 355.62323,534.47454 356.81937,533.18161 C 360.06078,530.01865 363.08591,526.61451 365.48947,522.80125 C 367.32337,520.68197 369.54577,518.72482 370.39204,515.98858 C 371.16648,514.08695 372.26357,512.0407 371.74244,509.94705 C 371.05755,507.73667 368.54358,507.15091 366.44983,507.1862 C 363.41279,507.01301 360.43336,506.40985 357.52164,505.57436 C 352.62688,504.27698 347.6686,502.97851 342.56256,502.88561 C 340.95735,502.76967 339.00905,502.14838 337.66276,503.31562 C 337.41538,503.57689 337.26634,503.9131 337.19281,504.25783 z "
       style="color:#000000;fill:#ffffff;fill-opacity:1;fill-rule:nonzero;stroke:none;stroke-width:3.9000001;stroke-linecap:butt;stroke-linejoin:miter;marker:none;marker-start:none;marker-mid:none;marker-end:none;stroke-miterlimit:4;stroke-dasharray:none;stroke-dashoffset:0;stroke-opacity:1;visibility:visible;display:inline;overflow:visible" />
    <path
       d="M 339.4947,497.90216 C 341.19403,499.81462 341.79632,502.38264 342.67644,504.73668 C 344.90542,510.78616 346.71654,516.97132 348.68443,523.10376 C 349.62054,526.09192 351.10094,530.6675 352.47512,532.67464 C 349.38286,530.50456 349.42235,531.65252 352.39732,529.22943 C 356.40995,525.6034 359.80796,521.39231 362.84842,516.97721 C 364.98758,513.84003 366.93648,510.58391 368.71648,507.24265 C 368.7856,507.10915 368.85471,506.97564 368.92383,506.84212 L 378.46352,510.8644 C 378.37349,511.01534 378.28347,511.16628 378.19345,511.31722 C 376.04805,514.79852 373.74154,518.18344 371.38207,521.53076 C 367.91748,526.39733 364.23222,531.13024 359.97999,535.38049 C 355.91156,539.23335 350.07219,544.52327 344.63198,539.39754 C 341.60171,535.59213 341.1613,530.47037 339.61785,526.03239 C 337.92205,520.156 336.15102,514.26706 333.5542,508.69605 C 333.05937,507.68933 329.47196,501.69906 332.28572,505.78504 L 339.4947,497.90216 z "
       id="path4329"
       style="color:#000000;fill:#000000;fill-opacity:1;fill-rule:nonzero;stroke:none;stroke-width:3.9000001;stroke-linecap:butt;stroke-linejoin:miter;marker:none;marker-start:none;marker-mid:none;marker-end:none;stroke-miterlimit:4;stroke-dasharray:none;stroke-dashoffset:0;stroke-opacity:1;visibility:visible;display:inline;overflow:visible" />
    <path
       style="opacity:1;color:#000000;fill:#ededed;fill-opacity:1;fill-rule:nonzero;stroke:none;stroke-width:3.9000001;stroke-linecap:butt;stroke-linejoin:miter;marker:none;marker-start:none;marker-mid:none;marker-end:none;stroke-miterlimit:4;stroke-dasharray:none;stroke-dashoffset:0;stroke-opacity:1;visibility:visible;display:inline;overflow:visible"
       d="M 459.24248,395.12232 C 431.32828,404.12289 404.10461,380.61571 376.19403,390.50688 C 354.77758,396.07892 335.52136,407.90733 318.48904,421.36096 C 296.69535,443.24345 298.92247,486.20264 328.76391,500.41531 C 354.10047,513.61351 383.67108,513.48449 411.55728,515.80366 C 426.04184,515.02609 442.30958,506.31398 455.4988,516.17079 C 469.64953,526.95212 460.95987,545.8595 458.02842,559.82821 C 453.25371,576.7995 451.71803,598.95523 468.10804,610.65941 C 483.99913,622.63997 504.55121,625.63637 522.46121,633.70197 C 548.98872,642.29618 581.63308,626.59286 587.5839,599.31908 C 591.52474,571.53265 583.68555,543.49523 574.44732,517.34181 C 569.46354,501.48512 562.60146,485.87579 550.30139,474.00541 C 531.34977,453.78364 505.72352,441.035 485.87563,421.858 C 477.7177,412.42886 472.46683,398.95218 459.24248,395.12232 z "
       id="path3399" />
    <path
       style="opacity:1;color:#000000;fill:#000000;fill-opacity:1;fill-rule:nonzero;stroke:none;stroke-width:3.9000001;stroke-linecap:butt;stroke-linejoin:miter;marker:none;marker-start:none;marker-mid:none;marker-end:none;stroke-miterlimit:4;stroke-dasharray:none;stroke-dashoffset:0;stroke-opacity:1;visibility:visible;display:inline;overflow:visible"
       id="path1307"
       d="M 443.68637,405.84587 C 442.18709,403.79816 436.08217,401.43428 432.80602,400.2286 C 412.3796,393.19415 390.45096,393.53394 369.61971,398.56422 C 347.22022,404.50675 327.59209,417.58199 315.82938,437.18727 C 307.70828,451.84855 308.77326,468.11042 318.11807,481.84316 C 329.07283,496.38726 346.5072,503.51561 364.00895,507.6094 C 385.05031,512.17403 406.75488,511.32679 427.78196,507.25432 C 431.497,506.52343 435.15812,505.57342 438.81457,504.61126 L 440.68612,516.10585 C 436.78855,516.89554 432.88829,517.67619 428.95588,518.28881 C 406.44832,521.75032 383.3931,522.65852 360.97744,517.98508 C 340.72826,513.43335 320.84292,505.07931 308.19458,488.32761 C 296.49415,471.14204 295.35102,450.62889 305.82073,432.46084 C 319.74548,410.34781 342.30622,395.43282 367.95658,388.76063 C 390.72133,383.36987 414.31664,382.9237 437.08638,388.69984 C 443.10372,390.24245 449.4765,391.80904 454.60726,395.36649 L 443.68637,405.84587 z " />
    <path
       style="opacity:1;color:#000000;fill:#000000;fill-opacity:1;fill-rule:nonzero;stroke:none;stroke-width:3.9000001;stroke-linecap:butt;stroke-linejoin:miter;marker:none;marker-start:none;marker-mid:none;marker-end:none;stroke-miterlimit:4;stroke-dasharray:none;stroke-dashoffset:0;stroke-opacity:1;visibility:visible;display:inline;overflow:visible"
       id="path1315"
       d="M 427.10374,388.80285 C 430.17484,384.60378 435.1565,378.63282 439.04673,374.11816 C 454.50029,356.7855 472.92544,342.1629 492.35439,329.24009 C 514.41582,315.8034 537.70136,302.70167 563.41876,297.3291 C 578.2253,294.07519 597.70666,297.10007 594.98588,315.82175 C 589.13371,334.38827 571.97054,347.57681 556.94674,359.27556 C 536.9512,373.95653 515.19757,386.19135 493.04296,397.50261 C 485.33704,401.40255 477.54138,405.13105 469.6865,408.73862 L 465.76996,397.01217 C 473.63983,394.10956 481.40626,390.94651 489.0183,387.4514 C 510.96048,377.29583 532.20816,365.43081 551.13859,350.54432 C 563.16385,340.82444 576.69619,329.54846 581.7102,314.65365 C 583.26627,305.98802 570.35264,308.2861 564.69335,308.61516 C 540.09352,312.23825 517.60115,324.41638 497.14037,337.59899 C 479.51633,349.89523 462.67538,363.63919 449.69165,380.67505 C 447.12744,384.16227 441.86981,392.02966 441.34276,394.36455 L 427.10374,388.80285 z " />
    <path
       style="opacity:1;color:#000000;fill:#000000;fill-opacity:1;fill-rule:nonzero;stroke:none;stroke-width:3.9000001;stroke-linecap:butt;stroke-linejoin:miter;marker:none;marker-start:none;marker-mid:none;marker-end:none;stroke-miterlimit:4;stroke-dasharray:none;stroke-dashoffset:0;stroke-opacity:1;visibility:visible;display:inline;overflow:visible"
       id="path1325"
       d="M 476.66831,414.73189 C 480.86387,415.65038 484.69221,418.01282 488.52365,419.89103 C 501.87698,426.339 514.98256,433.28223 527.19706,441.61684 C 544.88601,453.99119 558.73075,470.62598 569.48814,488.90278 C 580.24854,508.27475 586.21215,529.67472 589.95513,551.27087 C 591.93301,563.43781 593.22237,575.75959 592.8077,588.08923 C 592.72842,592.11574 592.11607,596.08577 591.05364,599.96982 C 591.00495,600.13537 590.95626,600.30092 590.90756,600.46647 L 576.39113,596.88643 C 576.4292,596.79757 576.46727,596.70872 576.50533,596.61988 C 577.56658,593.73287 578.44806,590.78891 578.81374,587.73073 C 580.42343,576.33173 579.80004,564.75045 578.51873,553.35199 C 575.8555,532.83394 570.43889,512.50409 560.06243,494.31342 C 549.99395,477.36952 537.06436,462.03788 520.33633,450.90428 C 508.54821,443.16893 495.86919,436.82442 482.58663,431.86988 C 481.45892,431.45422 471.06079,428.16528 475.73103,429.61744 L 476.66831,414.73189 z " />
    <path
       style="color:#000000;fill:#ededed;fill-opacity:1;fill-rule:nonzero;stroke:none;stroke-width:3.9000001;stroke-linecap:butt;stroke-linejoin:miter;marker:none;marker-start:none;marker-mid:none;marker-end:none;stroke-miterlimit:4;stroke-dasharray:none;stroke-dashoffset:0;stroke-opacity:1;visibility:visible;display:inline;overflow:visible"
       d="M 519.78539,588.40934 C 510.04017,590.87398 500.78951,594.98341 491.69095,599.05788 C 473.73113,609.3627 454.29584,618.47136 440.54192,634.19077 C 435.51484,640.54516 430.95801,647.66699 428.95402,655.47984 C 428.22011,664.8952 435.65106,673.44668 444.14666,677.03803 C 452.74095,679.61542 461.83724,677.6484 470.64223,677.75779 C 491.38101,676.46752 511.60997,670.2631 529.72279,660.45166 C 543.67149,653.88506 557.73285,645.35318 565.2231,631.65967 C 572.33234,620.93351 579.63276,610.11219 583.91081,597.95956 C 584.41065,589.0818 574.29067,585.18231 567.02735,583.05273 C 555.81181,580.02516 543.78527,580.12695 532.40503,581.91744 C 527.98492,583.68389 524.30824,586.85324 519.78539,588.40934 z "
       id="path2350" />
    <path
       style="color:#000000;fill:#000000;fill-opacity:1;fill-rule:nonzero;stroke:none;stroke-width:3.9000001;stroke-linecap:butt;stroke-linejoin:miter;marker:none;marker-start:none;marker-mid:none;marker-end:none;stroke-miterlimit:4;stroke-dasharray:none;stroke-dashoffset:0;stroke-opacity:1;visibility:visible;display:inline;overflow:visible"
       id="path1413"
       d="M 594.04752,591.19176 C 593.8362,594.07391 592.56646,596.83794 591.57922,599.54495 C 587.55148,610.70847 582.3202,621.39195 575.26099,631.04984 C 561.04837,648.38792 541.34301,660.62541 521.12454,670.3989 C 500.04654,680.20162 476.9631,686.57622 453.44938,685.41571 C 438.0047,684.48889 422.30298,678.11479 420.89518,661.45947 C 421.19289,646.74342 431.12532,634.76408 441.58355,625.04892 C 454.73193,613.46069 470.02911,604.45101 485.7377,596.54478 C 496.26694,591.42493 506.91138,586.39825 518.10923,582.79571 L 520.97121,596.07687 C 510.3085,598.72908 500.12986,602.97536 490.21402,607.55452 C 476.1641,614.34707 462.56947,622.35156 451.03961,632.77871 C 443.23278,640.12271 435.10688,649.049 434.16659,660.04851 C 434.47586,670.3074 446.28543,672.91968 454.94577,674.04771 C 476.57196,676.03919 497.98062,670.036 517.30094,660.91329 C 535.12234,652.06565 552.49099,640.96123 564.52125,625.12728 C 570.60343,616.42839 575.16903,606.76595 577.80707,596.55211 C 577.94135,595.99162 579.8676,585.08229 579.57386,587.48436 L 594.04752,591.19176 z "
       sodipodi:nodetypes="ccccccccccccccccccc" />
    <path
       style="color:#000000;fill:#ededed;fill-opacity:1;fill-rule:nonzero;stroke:none;stroke-width:3.9000001;stroke-linecap:butt;stroke-linejoin:miter;marker:none;marker-start:none;marker-mid:none;marker-end:none;stroke-miterlimit:4;stroke-dasharray:none;stroke-dashoffset:0;stroke-opacity:1;visibility:visible;display:inline;overflow:visible"
       d="M 435.83255,510.38883 C 442.34468,508.35222 455.77833,512.1491 451.18964,520.65578 C 447.06678,526.9809 441.38412,532.30363 435.60082,537.20514 C 424.48931,545.98694 410.9142,551.79293 401.57806,562.63173 C 395.84425,568.47473 389.93083,574.51603 382.26584,577.95082 C 375.69229,581.80391 378.73673,593.97135 387.10788,591.9485 C 394.7174,591.11398 400.33006,585.33008 407.43552,583.09967 C 415.29005,578.9248 422.49638,573.63632 430.64574,569.99066 C 436.83978,566.29412 444.37141,564.65557 451.54034,566.07638 C 469.87548,566.5358 487.48266,559.52926 502.96066,550.53329 C 508.92983,546.63797 509.89401,539.32879 508.91421,532.962 C 508.14218,522.73389 501.63807,514.16296 494.52853,507.0618 C 485.33404,496.79813 472.64854,487.84071 458.04078,488.1215 C 446.77439,488.04635 435.26249,491.66379 426.67071,498.81597 C 421.4087,504.6594 429.04515,512.78216 435.83255,510.38883 z "
       id="path2325" />
    <path
       style="opacity:1;color:#000000;fill:#000000;fill-opacity:1;fill-rule:nonzero;stroke:none;stroke-width:3.9000001;stroke-linecap:butt;stroke-linejoin:miter;marker:none;marker-start:none;marker-mid:none;marker-end:none;stroke-miterlimit:4;stroke-dasharray:none;stroke-dashoffset:0;stroke-opacity:1;visibility:visible;display:inline;overflow:visible"
       d="M 405.29117,428.56039 C 404.69065,428.57237 404.06882,428.62514 403.45471,428.69761 C 401.19823,429.06048 399.22256,430.06345 397.32726,431.25337 L 398.40442,432.9515 C 395.24524,435.59578 393.28367,438.97563 392.45355,442.98586 C 391.86143,447.85567 393.97493,451.77096 398.03359,454.49535 C 401.99888,456.52761 406.18308,456.21993 410.18254,454.52966 C 414.49443,452.36751 416.86616,448.69246 417.89923,444.23801 C 418.63242,440.15072 417.66021,436.36278 415.42707,432.90004 C 412.79205,429.74525 409.21224,428.48216 405.29117,428.56039 z "
       id="path1445" />
    <path
       style="color:#000000;fill:#ededed;fill-opacity:1;fill-rule:nonzero;stroke:none;stroke-width:3.9000001;stroke-linecap:butt;stroke-linejoin:miter;marker:none;marker-start:none;marker-mid:none;marker-end:none;stroke-miterlimit:4;stroke-dasharray:none;stroke-dashoffset:0;stroke-opacity:1;visibility:visible;display:inline;overflow:visible"
       d="M 445.51941,397.4747 C 478.79652,380.26688 512.36719,362.91968 548.31981,351.58788 C 577.56059,346.06098 607.07451,340.39337 636.96098,340.26206 C 646.43514,341.32464 650.2852,355.78412 641.19928,360.06201 C 615.42168,372.11496 590.70468,386.20526 564.89239,398.21609 C 538.71038,410.49181 511.41713,421.18651 482.78963,426.54956 C 468.29145,428.62396 450.61697,425.21565 442.74997,412.00417 C 439.9984,407.35472 439.62903,400.04301 445.51941,397.4747 z "
       id="path2363" />
    <path
       style="color:#000000;fill:#000000;fill-opacity:1;fill-rule:nonzero;stroke:none;stroke-width:3.9000001;stroke-linecap:butt;stroke-linejoin:miter;marker:none;marker-start:none;marker-mid:none;marker-end:none;stroke-miterlimit:4;stroke-dasharray:none;stroke-dashoffset:0;stroke-opacity:1;visibility:visible;display:inline;overflow:visible"
       id="path1321"
       d="M 443.15776,392.0888 C 443.55363,391.94407 452.61845,387.56639 455.37933,386.25311 C 476.5806,375.97537 498.50551,367.19042 520.77088,359.34562 C 549.78425,349.43108 579.46269,341.07309 609.90227,336.537 C 623.30881,335.39496 648.60625,328.94929 654.99364,345.29537 C 655.229,364.68087 628.00562,374.84439 613.05248,382.06101 C 584.01213,395.46407 553.75764,406.14859 523.34248,416.18099 C 506.11062,421.60294 489.01562,427.59398 471.43826,431.91265 L 469.83688,418.72683 C 487.28675,416.50905 504.27467,411.65964 521.18818,407.1118 C 551.46901,398.28793 581.40859,387.78504 609.25449,373.10885 C 620.92905,366.74187 633.74483,359.23023 641.5328,349.26427 C 637.62899,344.85761 618.81755,346.02148 610.51338,346.71625 C 580.56877,349.7342 551.37603,357.63744 523.2389,367.87762 C 501.56184,376.10967 480.28976,385.59678 460.63432,397.78021 C 456.53625,400.35296 452.5501,403.14182 448.70901,405.98705 L 443.15776,392.0888 z " />
    <path
       style="opacity:1;color:#000000;fill:#ededed;fill-opacity:1;fill-rule:nonzero;stroke:none;stroke-width:3.9000001;stroke-linecap:butt;stroke-linejoin:miter;marker:none;marker-start:none;marker-mid:none;marker-end:none;stroke-miterlimit:4;stroke-dasharray:none;stroke-dashoffset:0;stroke-opacity:1;visibility:visible;display:inline;overflow:visible"
       d="M 501.34806,552.42349 C 494.25345,559.016 484.75077,563.89886 480.9358,573.18295 C 474.14309,586.63737 471.69943,602.328 474.73048,617.04664 C 478.70636,626.49798 490.84325,632.1733 500.76987,628.23178 C 511.39163,625.40651 521.88259,621.77495 531.64496,616.83742 C 539.61022,610.29016 543.15621,600.40721 546.95675,591.29993 C 550.89742,579.32493 550.0837,564.95655 541.33902,555.10036 C 536.14607,548.4068 527.74166,542.242 518.63157,544.22184 C 512.89608,545.60186 507.69511,548.5414 502.33189,550.79106 C 501.47156,551.53364 500.84801,552.66591 501.06263,553.80961"
       id="path5448" />
    <path
       sodipodi:nodetypes="ccccccccccccccccccccccccc"
       style="color:#000000;fill:#000000;fill-opacity:1;fill-rule:nonzero;stroke:none;stroke-width:3.9000001;stroke-linecap:butt;stroke-linejoin:miter;marker:none;marker-start:none;marker-mid:none;marker-end:none;stroke-miterlimit:4;stroke-dasharray:none;stroke-dashoffset:0;stroke-opacity:1;visibility:visible;display:inline;overflow:visible"
       id="path1333"
       d="M 424.38946,507.9434 C 426.76651,507.29976 435.9342,503.86668 438.38554,503.59642 C 443.76611,502.82669 449.00275,502.89979 453.6488,505.94707 C 461.64993,512.42133 458.86109,522.91436 454.70574,530.69406 C 447.81451,542.5852 435.95835,550.34791 424.27134,557.33566 C 413.13534,563.81012 401.65626,569.84093 391.86379,578.20718 C 388.93182,580.70175 385.58038,584.48394 384.86835,587.6242 C 382.48935,583.86642 393.32371,584.45699 397.04574,583.26987 C 407.17728,579.91796 415.89199,573.89361 423.51484,566.73628 C 429.12626,560.28559 434.96049,557.24644 443.61858,558.08562 C 455.09131,559.59942 466.49996,557.49539 477.50268,554.40044 C 485.85237,551.97244 493.79064,548.4613 501.50652,544.5627 L 505.96647,555.86336 C 497.51687,559.7281 488.93218,563.3658 479.99024,566.02956 C 467.68401,569.5935 455.00394,572.14304 442.09564,571.71328 C 437.32228,571.75235 437.42336,572.45681 433.66675,575.55576 C 423.60393,583.81974 412.68398,591.11712 400.18443,595.47071 C 390.70941,598.71297 374.95675,603.32968 370.66483,590.73768 C 369.03534,580.66164 377.28214,573.29066 384.63605,567.50062 C 395.30056,559.42931 407.14138,553.13273 418.73222,546.43712 C 427.68101,540.91169 436.83037,534.78444 442.17696,525.62515 C 443.41576,523.28181 444.56458,519.16356 444.98737,517.43903 C 444.14872,517.40856 440.90949,517.40924 439.40028,517.83014 C 438.42337,518.00059 432.8549,519.29591 436.60043,518.5091 L 424.38946,507.9434 z " />
    <path
       style="opacity:1;color:#000000;fill:#000000;fill-opacity:1;fill-rule:nonzero;stroke:none;stroke-width:3.9000001;stroke-linecap:butt;stroke-linejoin:miter;marker:none;marker-start:none;marker-mid:none;marker-end:none;stroke-miterlimit:4;stroke-dasharray:none;stroke-dashoffset:0;stroke-opacity:1;visibility:visible;display:inline;overflow:visible"
       d="M 500.10642,546.7404 C 499.95372,546.75356 499.78487,546.81289 499.57667,546.89478 C 493.63203,547.47384 491.13214,553.66032 487.37475,557.3408 C 476.31021,571.86475 467.61353,589.00067 466.20239,607.27246 C 465.61881,613.62028 467.11211,620.62116 470.89951,625.91751 C 473.2488,622.54163 476.26853,619.58659 479.58742,617.01523 C 475.77349,609.5721 478.01955,600.46784 480.04654,592.76124 C 484.40226,579.73756 491.81816,566.87022 503.23195,558.49004 C 504.69734,557.45333 505.7002,556.48061 505.79241,555.96858 C 505.79364,555.96063 505.79165,555.94201 505.79241,555.93428 C 505.79295,555.92666 505.79234,555.90736 505.79241,555.89997 C 505.79225,555.8927 505.79304,555.8727 505.79241,555.86567 C 505.79198,555.86221 505.79296,555.85192 505.79241,555.84851 C 505.79174,555.84517 505.7932,555.83464 505.79241,555.83136 C 505.78877,555.81848 505.78034,555.79181 505.77475,555.7799 C 505.7702,555.77116 505.76276,555.75377 505.75709,555.7456 C 505.75508,555.74293 505.74157,555.73104 505.73944,555.72844 C 505.73705,555.72597 505.72429,555.7137 505.72178,555.71129 C 505.71914,555.70895 505.70688,555.69641 505.70412,555.69414 C 505.68677,555.68089 505.65547,555.67066 505.63349,555.65983 C 505.6259,555.65636 505.60628,555.64587 505.59817,555.64268 C 505.58979,555.63962 505.57176,555.6283 505.56285,555.62553 C 505.53534,555.61763 505.48926,555.61368 505.4569,555.60837 C 505.02014,555.54425 504.15438,555.7088 502.75517,556.19157 C 501.78461,556.81198 501.16423,556.94833 500.7951,556.79191 C 500.74851,556.77068 500.69287,556.73712 500.65383,556.70615 C 499.91033,556.08379 500.51897,553.69625 500.54788,552.09206 C 500.5383,552.06677 500.53783,552.03431 500.53022,552.0063 C 500.23844,550.85327 501.47999,547.54285 500.60086,546.86047 C 500.58749,546.85072 500.56222,546.83473 500.54788,546.82617 C 500.43548,546.76352 500.28203,546.72527 500.10642,546.7404 z "
       id="path5444" />
    <path
       style="opacity:1;color:#000000;fill:#000000;fill-opacity:1;fill-rule:nonzero;stroke:none;stroke-width:3.9000001;stroke-linecap:butt;stroke-linejoin:miter;marker:none;marker-start:none;marker-mid:none;marker-end:none;stroke-miterlimit:4;stroke-dasharray:none;stroke-dashoffset:0;stroke-opacity:1;visibility:visible;display:inline;overflow:visible"
       d="M 454.64626,588.40933 C 452.35635,590.08787 450.90001,592.77789 448.16746,593.88523 C 448.27772,595.62966 449.9751,596.60729 451.29435,597.50634 C 455.20058,600.6542 458.50588,604.66395 463.21671,606.74474 C 464.44234,607.21991 465.77569,608.27092 467.13145,607.58897 C 468.99661,606.36385 468.90644,603.89786 470.18377,602.26354 C 470.82642,601.34938 471.23439,599.92453 470.26932,599.07722 C 468.85978,597.99098 466.90849,598.11261 465.34937,597.31058 C 461.45559,595.51647 458.37245,592.37521 456.18197,588.81553 C 455.84738,588.39219 455.14578,587.98026 454.64626,588.40933 z "
       id="path5520" />
  </g>
</svg>
