<?xml version="1.0" encoding="UTF-8" standalone="no"?>
<!-- Created with Inkscape (http://www.inkscape.org/) -->
<svg
   xmlns:dc="http://purl.org/dc/elements/1.1/"
   xmlns:cc="http://web.resource.org/cc/"
   xmlns:rdf="http://www.w3.org/1999/02/22-rdf-syntax-ns#"
   xmlns:svg="http://www.w3.org/2000/svg"
   xmlns="http://www.w3.org/2000/svg"
   xmlns:sodipodi="http://inkscape.sourceforge.net/DTD/sodipodi-0.dtd"
   xmlns:inkscape="http://www.inkscape.org/namespaces/inkscape"
   width="1000"
   height="1000"
   id="svg2"
   sodipodi:version="0.32"
   inkscape:version="0.43"
   version="1.0"
   sodipodi:docbase="/home/kkowal/tale/art/monster"
   sodipodi:docname="little-bunny.svg"
   inkscape:export-filename="/home/kkowal/tale/art/monster/little-bunny.png"
   inkscape:export-xdpi="90"
   inkscape:export-ydpi="90">
  <defs
     id="defs4" />
  <sodipodi:namedview
     id="base"
     pagecolor="#ffffff"
     bordercolor="#666666"
     borderopacity="1.0"
     inkscape:pageopacity="0.0"
     inkscape:pageshadow="2"
     inkscape:zoom="0.35"
     inkscape:cx="474.02661"
     inkscape:cy="526.14559"
     inkscape:document-units="px"
     inkscape:current-layer="layer1"
     inkscape:window-width="1600"
     inkscape:window-height="1125"
     inkscape:window-x="0"
     inkscape:window-y="25" />
  <metadata
     id="metadata7">
    <rdf:RDF>
      <cc:Work
         rdf:about="">
        <dc:format>image/svg+xml</dc:format>
        <dc:type
           rdf:resource="http://purl.org/dc/dcmitype/StillImage" />
      </cc:Work>
    </rdf:RDF>
  </metadata>
  <g
     inkscape:label="Layer 1"
     inkscape:groupmode="layer"
     id="layer1">
    <path
       style="opacity:1;color:#000000;fill:#ededed;fill-opacity:1;fill-rule:nonzero;stroke:none;stroke-width:3.9000001;stroke-linecap:butt;stroke-linejoin:miter;marker:none;marker-start:none;marker-mid:none;marker-end:none;stroke-miterlimit:4;stroke-dasharray:none;stroke-dashoffset:0;stroke-opacity:1;visibility:visible;display:inline;overflow:visible"
       d="M 539.99997,494.28572 C 567.14554,453.65712 621.96817,434.71639 668.57707,448.83038 C 715.50505,450.22748 758.86736,487.49441 766.11764,534.10317 C 772.36907,558.49652 767.34858,588.32253 745.68449,603.66266 C 712.18977,631.58553 669.33322,646.29669 626.53141,651.83792 C 596.59477,654.3361 564.39766,651.19704 538.71057,634.49066 C 513.87919,611.80726 510.27455,572.95302 523.37151,543.18628 C 528.43193,526.72299 535.21009,510.83688 539.99997,494.28572 z "
       id="path3308" />
    <path
       style="opacity:1;color:#000000;fill:#000000;fill-opacity:1;fill-rule:nonzero;stroke:none;stroke-width:3.9000001;stroke-linecap:butt;stroke-linejoin:miter;marker:none;marker-start:none;marker-mid:none;marker-end:none;stroke-miterlimit:4;stroke-dasharray:none;stroke-dashoffset:0;stroke-opacity:1;visibility:visible;display:inline;overflow:visible"
       id="path2433"
       d="M 525.00257,495.65448 C 525.11437,488.59746 530.23774,483.28682 534.70647,478.29884 C 550.71852,460.57679 571.81649,449.50772 594.2274,442.10997 C 629.85226,430.49449 666.58486,434.01093 701.01351,447.56707 C 734.04289,461.29977 761.56746,485.21328 776.8232,517.76028 C 789.83743,547.92784 783.55706,579.49389 764.92751,605.57717 C 741.86977,634.52688 706.87711,650.05013 671.90558,659.30614 C 636.18947,668.09064 599.41798,665.19279 563.99297,656.72334 C 558.06182,655.29018 552.23367,653.49108 546.41659,651.66144 L 554.4187,631.01877 C 559.61898,632.98854 564.83477,634.92271 570.19132,636.43715 C 602.19262,645.40605 635.7993,647.82681 668.25866,639.47322 C 697.52455,631.56431 726.83104,618.70921 746.33742,594.61509 C 761.00489,574.57781 766.86739,550.73889 757.44595,526.95301 C 745.22219,498.50092 721.24017,477.95763 692.98774,466.01389 C 662.86277,454.11717 630.45271,451.39426 599.6221,462.73887 C 582.83313,469.16819 566.71024,478.18861 555.41285,492.52019 C 552.56434,496.36691 550.54413,502.24869 552.14028,494.32722 L 525.00257,495.65448 z " />
    <path
       id="path5372"
       d="M 370.29437,595.37127 C 353.04825,599.86152 336.67734,607.34834 320.57561,614.77147 C 288.79209,633.54547 254.39744,650.14022 230.05712,678.77886 C 221.16068,690.3557 213.09645,703.33072 209.55,717.56467 C 208.2512,734.71818 221.40175,750.29783 236.43642,756.84078 C 251.64576,761.53644 267.74346,757.9528 283.32566,758.1521 C 320.0271,755.80139 355.82632,744.49777 387.88059,726.62265 C 412.56562,714.6592 437.45004,699.11526 450.70553,674.16754 C 463.28676,654.62593 476.20632,634.91094 483.77719,612.77049 C 484.66177,596.5964 466.75242,589.49206 453.89852,585.61226 C 434.05036,580.09642 412.76698,580.28187 392.62737,583.54391 C 384.80509,586.76214 378.29847,592.53626 370.29437,595.37127 z "
       style="color:#000000;fill:#ededed;fill-opacity:1;fill-rule:nonzero;stroke:none;stroke-width:3.9000001;stroke-linecap:butt;stroke-linejoin:miter;marker:none;marker-start:none;marker-mid:none;marker-end:none;stroke-miterlimit:4;stroke-dasharray:none;stroke-dashoffset:0;stroke-opacity:1;visibility:visible;display:inline;overflow:visible" />
    <path
       d="M 501.71615,600.44046 C 501.34217,605.69135 499.09511,610.72705 497.34799,615.65885 C 490.22009,635.99728 480.96229,655.46113 468.46961,673.05651 C 443.31752,704.64415 408.44492,726.9392 372.66426,744.74519 C 335.3625,762.60442 294.51172,774.21809 252.89946,772.10378 C 225.56699,770.41524 197.77964,758.8025 195.28825,728.45876 C 195.81512,701.64809 213.39254,679.82336 231.90048,662.12365 C 255.16919,641.01146 282.24062,624.59704 310.04013,610.19294 C 328.67375,600.86527 347.51123,591.70734 367.32807,585.144 L 372.39292,609.34048 C 353.52311,614.17244 335.50996,621.90859 317.96189,630.2512 C 293.09773,642.62632 269.03929,657.20942 248.63488,676.20627 C 234.81914,689.58605 220.43872,705.84855 218.77469,725.88817 C 219.32201,744.57848 240.22141,749.3377 255.54762,751.39282 C 293.81951,755.02103 331.70644,744.08404 365.89764,727.46369 C 397.43619,711.34448 428.17351,691.11373 449.46348,662.26641 C 460.22711,646.41821 468.30686,628.81454 472.97541,610.2063 C 473.21304,609.18516 475.1067,597.39105 474.58686,601.7673 L 501.71615,600.44046 z "
       id="path5374"
       style="color:#000000;fill:#000000;fill-opacity:1;fill-rule:nonzero;stroke:none;stroke-width:3.9000001;stroke-linecap:butt;stroke-linejoin:miter;marker:none;marker-start:none;marker-mid:none;marker-end:none;stroke-miterlimit:4;stroke-dasharray:none;stroke-dashoffset:0;stroke-opacity:1;visibility:visible;display:inline;overflow:visible" />
    <path
       style="opacity:1;color:#000000;fill:#ededed;fill-opacity:1;fill-rule:nonzero;stroke:none;stroke-width:3.9000001;stroke-linecap:butt;stroke-linejoin:miter;marker:none;marker-start:none;marker-mid:none;marker-end:none;stroke-miterlimit:4;stroke-dasharray:none;stroke-dashoffset:0;stroke-opacity:1;visibility:visible;display:inline;overflow:visible"
       d="M 284.64286,588.57143 C 275.68571,607.02455 279.54629,628.27885 284.28167,647.32858 C 289.3855,661.80292 305.46432,667.6301 319.34064,669.95467 C 362.5424,682.65342 412.31599,678.03992 449.44425,651.33241 C 468.30005,636.77377 475.88209,607.12485 461.70723,586.88054 C 450.41305,569.6549 430.15265,561.86106 411.16618,556.45979 C 382.83888,546.96802 350.09509,548.57917 324.36634,564.52802 C 310.67296,570.90585 296.43111,577.55605 286.42857,589.28572"
       id="path5472" />
    <path
       style="opacity:1;color:#000000;fill:#000000;fill-opacity:1;fill-rule:nonzero;stroke:none;stroke-width:3.9000001;stroke-linecap:butt;stroke-linejoin:miter;marker:none;marker-start:none;marker-mid:none;marker-end:none;stroke-miterlimit:4;stroke-dasharray:none;stroke-dashoffset:0;stroke-opacity:1;visibility:visible;display:inline;overflow:visible"
       d="M 276.98661,579.12947 C 272.58542,581.36277 273.55592,588.22179 271.1815,592.11304 C 265.40504,608.31125 262.36831,626.61641 269.36161,642.94197 C 270.47483,648.28326 272.75827,650.93145 277.67411,646.72322 C 281.4562,644.12314 289.20894,642.80069 290.59221,639.41296 C 280.98653,624.04741 286.78642,604.61774 294.33036,589.66072 C 296.18612,586.58508 297.37153,579.50047 291.86161,579.94197 C 286.72271,580.66893 281.81681,580.39605 276.98661,579.12947 z "
       id="path5466" />
    <path
       style="color:#000000;fill:#ededed;fill-opacity:1;fill-rule:nonzero;stroke:none;stroke-width:3.9000001;stroke-linecap:butt;stroke-linejoin:miter;marker:none;marker-start:none;marker-mid:none;marker-end:none;stroke-miterlimit:4;stroke-dasharray:none;stroke-dashoffset:0;stroke-opacity:1;visibility:visible;display:inline;overflow:visible"
       d="M 292.14284,529.28574 C 279.13216,548.32675 258.4867,559.85076 239.74283,572.3652 C 224.42402,580.14163 205.27012,581.69081 192.99669,594.55444 C 186.90636,608.90929 207.96361,615.26319 218.07221,608.98868 C 237.77188,603.13295 257.693,598.12716 277.4864,592.61374 C 293.92041,588.10408 309.81887,581.63058 325.33259,574.85412 C 340.9501,573.02469 352.26324,586.24578 366.03681,591.01581 C 379.85618,597.85689 398.13631,598.5425 410.02076,587.46618 C 430.09159,573.77607 448.51168,557.1854 462.22138,537.00067 C 467.18142,522.59056 451.92894,511.51211 438.96492,511.25151 C 410.5515,503.40326 380.1726,494.7836 350.88823,503.4866 C 332.28183,508.01804 315.92297,518.33857 299.39723,527.49349 C 297.06432,528.38116 294.62966,529.02897 292.14284,529.28574 z "
       id="path3412" />
    <path
       style="color:#000000;fill:#000000;fill-opacity:1;fill-rule:nonzero;stroke:none;stroke-width:3.9000001;stroke-linecap:butt;stroke-linejoin:miter;marker:none;marker-start:none;marker-mid:none;marker-end:none;stroke-miterlimit:4;stroke-dasharray:none;stroke-dashoffset:0;stroke-opacity:1;visibility:visible;display:inline;overflow:visible"
       d="M 303.5625 528.625 L 276.5 529.96875 C 276.51647 529.78699 276.47063 529.25118 276.46875 528.96875 C 270.95683 536.53003 263.58492 541.25898 255.34375 546.46875 C 240.3144 555.7988 224.07952 562.89137 207.96875 570.09375 C 196.52006 575.42987 183.68727 580.26827 176.0625 590.90625 C 168.81462 602.37294 174.47517 615.06605 186.09375 620.375 C 200.50849 625.09704 216.20193 623.13099 230.78125 620.21875 C 250.97581 615.74711 270.39355 608.39509 289.53125 600.65625 C 299.73457 596.67701 309.67896 591.95647 320 588.28125 C 318.86866 579.50305 319.35569 570.43659 319.375 561.53125 C 317.86722 561.79411 316.3571 562.17645 314.8125 562.78125 C 303.69134 567.32548 293.2485 573.39322 282.25 578.21875 C 264.85539 586.07865 246.88071 593.02498 228.09375 596.71875 C 220.87776 598.00265 213.39058 598.96916 206.03125 598.4375 C 209.38654 596.1565 213.24762 593.8363 216.21875 592.875 C 232.7297 584.72399 249.41175 576.83854 265.4375 567.75 C 278.47134 560.27276 292.19918 552.18167 300.59375 539.34375 C 302.25439 535.92657 303.59257 532.48957 303.5625 528.625 z "
       id="path1353" />
    <g
       id="g4297"
       transform="translate(-135.3604,-22.72843)" />
    <path
       style="opacity:1;color:#000000;fill:#ededed;fill-opacity:1;fill-rule:nonzero;stroke:none;stroke-width:3.9000001;stroke-linecap:butt;stroke-linejoin:miter;marker:none;marker-start:none;marker-mid:none;marker-end:none;stroke-miterlimit:4;stroke-dasharray:none;stroke-dashoffset:0;stroke-opacity:1;visibility:visible;display:inline;overflow:visible"
       d="M 402.85714,310.00001 C 422.44742,290.02287 432.90818,261.04895 458.46922,247.18744 C 480.29908,226.65345 498.40766,200.33369 527.11288,188.72617 C 564.90718,166.56578 606.00376,149.07454 649.41195,141.86477 C 669.02215,142.17704 681.36584,168.50325 669.6019,183.99572 C 655.60259,208.91102 633.34218,227.54838 615.43195,249.45371 C 570.07202,296.73756 515.93359,337.78659 452.9578,358.06832 C 429.92452,363.80302 400.20587,351.81955 395.2675,326.77826 C 394.65004,321.79838 395.33408,316.53993 397.85714,312.14286"
       id="path2386" />
    <path
       style="color:#000000;fill:#ffffff;fill-opacity:1;fill-rule:nonzero;stroke:none;stroke-width:3.9000001;stroke-linecap:butt;stroke-linejoin:miter;marker:none;marker-start:none;marker-mid:none;marker-end:none;stroke-miterlimit:4;stroke-dasharray:none;stroke-dashoffset:0;stroke-opacity:1;visibility:visible;display:inline;overflow:visible"
       d="M 293.47452,531.57342 C 296.72889,540.92065 298.62167,550.96233 304.33558,559.24859 C 308.10796,565.43924 313.12207,571.11801 314.8107,578.34597 C 315.96673,581.69957 317.26032,585.08809 319.47379,587.9043 C 322.84503,589.64794 326.09086,586.62421 328.20766,584.26867 C 333.944,578.50617 339.29757,572.30429 343.55115,565.35703 C 346.7966,561.49601 350.72959,557.93035 352.22724,552.94528 C 353.59777,549.48075 355.53929,545.75278 354.61704,541.93842 C 353.40498,537.91142 348.95601,536.84422 345.2507,536.90853 C 339.87604,536.59299 334.60334,535.49411 329.45048,533.97198 C 320.78821,531.60833 312.01353,529.24269 302.97738,529.07343 C 300.13663,528.86221 296.68873,527.73031 294.3062,529.85685 C 293.86841,530.33284 293.60465,530.94537 293.47452,531.57342 z "
       id="path4311" />
    <path
       style="opacity:1;color:#000000;fill:#ff0000;fill-opacity:1;fill-rule:nonzero;stroke:none;stroke-width:3.9000001;stroke-linecap:butt;stroke-linejoin:miter;marker:none;marker-start:none;marker-mid:none;marker-end:none;stroke-miterlimit:4;stroke-dasharray:none;stroke-dashoffset:0;stroke-opacity:1;visibility:visible;display:inline;overflow:visible"
       d="M 307.08636,570.68518 C 308.6112,566.92358 311.39181,563.48773 315.21423,561.9149 C 318.14281,561.29381 321.18349,562.38751 323.51153,564.15391 C 325.87936,565.45155 328.48352,567.12165 329.1981,569.90578 C 330.13168,573.83246 328.9562,578.36621 325.73177,580.93255 C 324.4261,582.20946 323.08863,583.45429 321.81601,584.76467 C 320.42218,585.43573 318.81839,584.73139 317.72829,583.80206 C 315.13386,582.58511 312.07747,581.84275 310.27601,579.43384 C 308.37864,576.88099 308.06247,573.62401 307.08636,570.68518 z "
       id="path4453" />
    <path
       style="color:#000000;fill:#000000;fill-opacity:1;fill-rule:nonzero;stroke:none;stroke-width:3.9000001;stroke-linecap:butt;stroke-linejoin:miter;marker:none;marker-start:none;marker-mid:none;marker-end:none;stroke-miterlimit:4;stroke-dasharray:none;stroke-dashoffset:0;stroke-opacity:1;visibility:visible;display:inline;overflow:visible"
       id="path4309"
       d="M 297.54817,519.99425 C 300.55548,523.47851 301.62135,528.15709 303.1789,532.44583 C 307.12353,543.46717 310.32868,554.7357 313.81126,565.90817 C 315.46789,571.35221 318.08775,579.68829 320.51964,583.34502 C 315.04727,579.39143 315.11715,581.48286 320.38195,577.06832 C 327.48311,570.46219 333.49658,562.79014 338.87728,554.74644 C 342.66295,549.03092 346.11192,543.09871 349.26199,537.01138 C 349.38431,536.76815 349.50662,536.52491 349.62894,536.28167 L 366.51134,543.60971 C 366.35202,543.88471 366.1927,544.1597 366.03339,544.43469 C 362.23669,550.77715 358.15485,556.94402 353.97929,563.04237 C 347.84801,571.90861 341.32619,580.53135 333.80102,588.27472 C 326.60111,595.29411 316.26717,604.93162 306.63963,595.59325 C 301.27696,588.6603 300.49757,579.32913 297.76611,571.24375 C 294.76506,560.53775 291.63087,549.8089 287.03526,539.65927 C 286.15956,537.82517 279.81092,526.9117 284.79043,534.3558 L 297.54817,519.99425 z " />
    <path
       id="path4327"
       d="M 229.72285,515.25873 C 232.97722,524.60595 234.87,534.64764 240.58391,542.93389 C 244.35629,549.12455 249.3704,554.80331 251.05903,562.03127 C 252.21506,565.38488 253.50865,568.7734 255.72212,571.5896 C 259.09336,573.33325 262.33919,570.30951 264.45599,567.95397 C 270.19233,562.19147 275.5459,555.9896 279.79948,549.04234 C 283.04493,545.18131 286.97792,541.61565 288.47557,536.63058 C 289.8461,533.16606 291.78762,529.43808 290.86537,525.62372 C 289.65331,521.59672 285.20434,520.52953 281.49903,520.59383 C 276.12437,520.2783 270.85167,519.17942 265.69881,517.65728 C 257.03654,515.29363 248.26186,512.92799 239.22571,512.75873 C 236.38496,512.54752 232.93706,511.41561 230.55453,513.54215 C 230.11674,514.01815 229.85298,514.63068 229.72285,515.25873 z "
       style="color:#000000;fill:#ffffff;fill-opacity:1;fill-rule:nonzero;stroke:none;stroke-width:3.9000001;stroke-linecap:butt;stroke-linejoin:miter;marker:none;marker-start:none;marker-mid:none;marker-end:none;stroke-miterlimit:4;stroke-dasharray:none;stroke-dashoffset:0;stroke-opacity:1;visibility:visible;display:inline;overflow:visible" />
    <path
       d="M 233.7965,503.67956 C 236.80381,507.16381 237.86968,511.8424 239.42723,516.13114 C 243.37186,527.15247 246.57701,538.421 250.05959,549.59347 C 251.71622,555.03751 254.33608,563.3736 256.76797,567.03033 C 251.2956,563.07673 251.36548,565.16816 256.63028,560.75363 C 263.73144,554.14749 269.74491,546.47544 275.12561,538.43174 C 278.91128,532.71622 282.36025,526.78401 285.51032,520.69668 C 285.63264,520.45345 285.75495,520.21022 285.87727,519.96697 L 302.75967,527.29501 C 302.60035,527.57001 302.44103,527.84501 302.28172,528.12 C 298.48502,534.46245 294.40318,540.62932 290.22762,546.72768 C 284.09634,555.59391 277.57452,564.21665 270.04935,571.96003 C 262.84944,578.97941 252.5155,588.61693 242.88796,579.27855 C 237.52529,572.3456 236.7459,563.01444 234.01444,554.92905 C 231.01339,544.22305 227.8792,533.4942 223.28359,523.34457 C 222.40789,521.51047 216.05925,510.597 221.03876,518.0411 L 233.7965,503.67956 z "
       id="path4329"
       style="color:#000000;fill:#000000;fill-opacity:1;fill-rule:nonzero;stroke:none;stroke-width:3.9000001;stroke-linecap:butt;stroke-linejoin:miter;marker:none;marker-start:none;marker-mid:none;marker-end:none;stroke-miterlimit:4;stroke-dasharray:none;stroke-dashoffset:0;stroke-opacity:1;visibility:visible;display:inline;overflow:visible" />
    <path
       style="opacity:1;color:#000000;fill:#ededed;fill-opacity:1;fill-rule:nonzero;stroke:none;stroke-width:3.9000001;stroke-linecap:butt;stroke-linejoin:miter;marker:none;marker-start:none;marker-mid:none;marker-end:none;stroke-miterlimit:4;stroke-dasharray:none;stroke-dashoffset:0;stroke-opacity:1;visibility:visible;display:inline;overflow:visible"
       d="M 445.71429,316.42857 C 396.31449,332.82639 348.13673,289.99948 298.74336,308.01986 C 260.84263,318.17136 226.76489,339.72112 196.62276,364.23182 C 158.05445,404.09878 161.99579,482.36461 214.80621,508.25819 C 259.64436,532.30353 311.97549,532.06846 361.32574,536.29368 C 386.95907,534.87706 415.74811,519.00476 439.08909,536.96254 C 464.13165,556.60468 448.75356,591.05137 443.56576,616.50048 C 435.11595,647.41987 432.39826,687.78463 461.40367,709.10806 C 489.52615,730.93503 525.8972,736.39406 557.59254,751.08849 C 604.5383,766.74598 662.30907,738.13666 672.84024,688.44751 C 679.81435,637.82438 665.94133,586.74399 649.59242,539.09599 C 640.77262,510.20723 628.62878,481.76915 606.86134,460.14291 C 573.32263,423.30158 527.97183,400.07527 492.84701,365.13737 C 478.4099,347.95874 469.11744,323.40606 445.71429,316.42857 z "
       id="path3399" />
    <path
       style="opacity:1;color:#000000;fill:#000000;fill-opacity:1;fill-rule:nonzero;stroke:none;stroke-width:3.9000001;stroke-linecap:butt;stroke-linejoin:miter;marker:none;marker-start:none;marker-mid:none;marker-end:none;stroke-miterlimit:4;stroke-dasharray:none;stroke-dashoffset:0;stroke-opacity:1;visibility:visible;display:inline;overflow:visible"
       id="path1307"
       d="M 418.18462,335.96543 C 415.53134,332.23477 404.72746,327.92811 398.92966,325.73152 C 362.781,312.9157 323.97385,313.53476 287.10877,322.69925 C 247.46837,333.52574 212.73245,357.34706 191.91596,393.06522 C 177.54404,419.77611 179.42875,449.40304 195.96626,474.42224 C 215.35292,500.91963 246.20653,513.90651 277.1794,521.36485 C 314.41632,529.68099 352.82693,528.13743 390.03857,520.71793 C 396.61308,519.38636 403.09216,517.65556 409.56299,515.90264 L 412.87508,536.84424 C 405.97754,538.28294 399.07525,539.70518 392.11605,540.82129 C 352.28441,547.12769 311.48355,548.78232 271.81454,540.26793 C 235.97954,531.9753 200.78843,516.75537 178.40465,486.23603 C 157.69839,454.92623 155.67539,417.55405 174.20365,384.45431 C 198.8463,344.16735 238.77206,316.99425 284.16552,304.83842 C 324.45234,295.01719 366.20898,294.20432 406.50461,304.72767 C 417.15351,307.53811 428.43142,310.39221 437.51133,316.87341 L 418.18462,335.96543 z " />
    <path
       style="opacity:1;color:#000000;fill:#000000;fill-opacity:1;fill-rule:nonzero;stroke:none;stroke-width:3.9000001;stroke-linecap:butt;stroke-linejoin:miter;marker:none;marker-start:none;marker-mid:none;marker-end:none;stroke-miterlimit:4;stroke-dasharray:none;stroke-dashoffset:0;stroke-opacity:1;visibility:visible;display:inline;overflow:visible"
       id="path1315"
       d="M 388.83832,304.91535 C 394.27326,297.2652 403.0893,286.38693 409.97385,278.16183 C 437.32202,246.58405 469.92904,219.94365 504.31247,196.40004 C 543.35461,171.9202 584.56305,148.05062 630.07517,138.26251 C 656.27832,132.33434 690.75449,137.84526 685.93953,171.95363 C 675.58294,205.77933 645.20925,229.80706 618.62163,251.1206 C 583.2355,277.86735 544.73807,300.15755 505.53103,320.76513 C 491.89386,327.87029 478.09787,334.66312 464.19708,341.23562 L 457.26598,319.87161 C 471.19329,314.58346 484.93756,308.8208 498.40859,302.45318 C 537.23969,283.9511 574.84173,262.33464 608.34293,235.21346 C 629.62405,217.50515 653.57225,196.96185 662.44555,169.82551 C 665.19932,154.0379 642.34606,158.22469 632.33081,158.82419 C 588.79646,165.42497 548.99169,187.61189 512.78222,211.62883 C 481.59294,234.03091 451.78949,259.07055 428.81218,290.10759 C 424.27428,296.46084 414.96985,310.79416 414.03713,315.04802 L 388.83832,304.91535 z " />
    <path
       style="opacity:1;color:#000000;fill:#000000;fill-opacity:1;fill-rule:nonzero;stroke:none;stroke-width:3.9000001;stroke-linecap:butt;stroke-linejoin:miter;marker:none;marker-start:none;marker-mid:none;marker-end:none;stroke-miterlimit:4;stroke-dasharray:none;stroke-dashoffset:0;stroke-opacity:1;visibility:visible;display:inline;overflow:visible"
       id="path1325"
       d="M 476.55279,352.15456 C 483.97768,353.82793 490.7527,358.13197 497.5332,361.55381 C 521.16461,373.30114 544.35756,385.95078 565.97358,401.1353 C 597.27773,423.67971 621.77878,453.98605 640.81616,487.28391 C 659.85885,522.57702 670.41266,561.56489 677.0366,600.91015 C 680.53687,623.07668 682.81864,645.5253 682.08481,667.98823 C 681.9445,675.324 680.86083,682.55685 678.98065,689.63306 C 678.89447,689.93467 678.8083,690.23628 678.72213,690.53789 L 653.03239,684.01554 C 653.09975,683.85366 653.16712,683.69179 653.23449,683.52992 C 655.11258,678.27019 656.67253,672.90669 657.31968,667.33509 C 660.16834,646.56766 659.06514,625.46813 656.79759,604.70168 C 652.08448,567.32055 642.4987,530.28231 624.13546,497.14137 C 606.31727,466.27186 583.43575,438.33969 553.83214,418.05577 C 532.9707,403.96301 510.53262,392.40416 487.02646,383.37766 C 485.03074,382.62039 466.62917,376.62838 474.89409,379.27402 L 476.55279,352.15456 z " />
    <path
       style="color:#000000;fill:#ededed;fill-opacity:1;fill-rule:nonzero;stroke:none;stroke-width:3.9000001;stroke-linecap:butt;stroke-linejoin:miter;marker:none;marker-start:none;marker-mid:none;marker-end:none;stroke-miterlimit:4;stroke-dasharray:none;stroke-dashoffset:0;stroke-opacity:1;visibility:visible;display:inline;overflow:visible"
       d="M 552.85714,668.57143 C 535.61102,673.06168 519.24011,680.5485 503.13838,687.97163 C 471.35486,706.74563 436.96021,723.34038 412.61989,751.97902 C 403.72345,763.55586 395.65922,776.53088 392.11277,790.76483 C 390.81397,807.91834 403.96452,823.49799 418.99919,830.04094 C 434.20853,834.7366 450.30623,831.15296 465.88843,831.35226 C 502.58987,829.00155 538.38909,817.69793 570.44336,799.82281 C 595.12839,787.85936 620.01281,772.31542 633.2683,747.3677 C 645.84953,727.82609 658.76909,708.1111 666.33996,685.97065 C 667.22454,669.79656 649.31519,662.69222 636.46129,658.81242 C 616.61313,653.29658 595.32975,653.48203 575.19014,656.74407 C 567.36786,659.9623 560.86124,665.73642 552.85714,668.57143 z "
       id="path2350" />
    <path
       style="color:#000000;fill:#000000;fill-opacity:1;fill-rule:nonzero;stroke:none;stroke-width:3.9000001;stroke-linecap:butt;stroke-linejoin:miter;marker:none;marker-start:none;marker-mid:none;marker-end:none;stroke-miterlimit:4;stroke-dasharray:none;stroke-dashoffset:0;stroke-opacity:1;visibility:visible;display:inline;overflow:visible"
       id="path1413"
       d="M 684.27892,673.64062 C 683.90494,678.89151 681.65788,683.92721 679.91076,688.85901 C 672.78286,709.19744 663.52506,728.66129 651.03238,746.25667 C 625.88029,777.84431 591.00769,800.13936 555.22703,817.94535 C 517.92527,835.80458 477.07449,847.41825 435.46223,845.30394 C 408.12976,843.6154 380.34241,832.00266 377.85102,801.65892 C 378.37789,774.84825 395.95531,753.02352 414.46325,735.32381 C 437.73196,714.21162 464.80339,697.7972 492.6029,683.3931 C 511.23652,674.06543 530.074,664.9075 549.89084,658.34416 L 554.95569,682.54064 C 536.08588,687.3726 518.07273,695.10875 500.52466,703.45136 C 475.6605,715.82648 451.60206,730.40958 431.19765,749.40643 C 417.38191,762.78621 403.00149,779.04871 401.33746,799.08833 C 401.88478,817.77864 422.78418,822.53786 438.11039,824.59298 C 476.38228,828.22119 514.26921,817.2842 548.46041,800.66385 C 579.99896,784.54464 610.73628,764.31389 632.02625,735.46657 C 642.78988,719.61837 650.86963,702.0147 655.53818,683.40646 C 655.77581,682.38532 659.1847,662.50999 658.66486,666.88624 L 684.27892,673.64062 z "
       sodipodi:nodetypes="ccccccccccccccccccc" />
    <path
       style="color:#000000;fill:#ededed;fill-opacity:1;fill-rule:nonzero;stroke:none;stroke-width:3.9000001;stroke-linecap:butt;stroke-linejoin:miter;marker:none;marker-start:none;marker-mid:none;marker-end:none;stroke-miterlimit:4;stroke-dasharray:none;stroke-dashoffset:0;stroke-opacity:1;visibility:visible;display:inline;overflow:visible"
       d="M 404.2857,526.4286 C 415.81023,522.71816 439.58377,529.63557 431.46317,545.13359 C 424.16694,556.6571 414.11033,566.3544 403.87561,575.28429 C 384.21156,591.28355 360.18767,601.86127 343.6655,621.60811 C 333.51837,632.25326 323.05338,643.25969 309.48865,649.51743 C 297.85543,656.53723 303.24318,678.70467 318.0576,675.0193 C 331.52418,673.49893 341.45691,662.96144 354.03145,658.89793 C 367.93162,651.29188 380.68467,641.65698 395.1066,635.01508 C 406.0682,628.28048 419.39694,625.29527 432.0838,627.88379 C 464.53152,628.7208 495.69097,615.95582 523.08239,599.56639 C 533.64605,592.46963 535.35236,579.15329 533.6184,567.55387 C 532.25214,548.91963 520.74181,533.30455 508.16005,520.36719 C 491.88855,501.66817 469.439,485.34896 443.58764,485.86053 C 423.6495,485.72361 403.27688,492.31409 388.07199,505.34441 C 378.7598,515.99034 392.27404,530.78892 404.2857,526.4286 z "
       id="path2325" />
    <path
       style="opacity:1;color:#000000;fill:#000000;fill-opacity:1;fill-rule:nonzero;stroke:none;stroke-width:3.9000001;stroke-linecap:butt;stroke-linejoin:miter;marker:none;marker-start:none;marker-mid:none;marker-end:none;stroke-miterlimit:4;stroke-dasharray:none;stroke-dashoffset:0;stroke-opacity:1;visibility:visible;display:inline;overflow:visible"
       d="M 350.2366,377.34822 C 349.17385,377.37005 348.0734,377.46619 346.9866,377.59822 C 342.99331,378.25931 339.49697,380.08659 336.14285,382.25447 L 338.0491,385.34822 C 332.4583,390.16574 328.9869,396.32337 327.51785,403.62947 C 326.46996,412.50162 330.21023,419.63475 337.39285,424.59822 C 344.41022,428.30071 351.815,427.74017 358.89285,424.66072 C 366.52361,420.72157 370.72087,414.02613 372.5491,405.91072 C 373.84662,398.46423 372.1261,391.56312 368.1741,385.25447 C 363.51091,379.50687 357.17571,377.20569 350.2366,377.34822 z "
       id="path1445" />
    <path
       style="color:#000000;fill:#ededed;fill-opacity:1;fill-rule:nonzero;stroke:none;stroke-width:3.9000001;stroke-linecap:butt;stroke-linejoin:miter;marker:none;marker-start:none;marker-mid:none;marker-end:none;stroke-miterlimit:4;stroke-dasharray:none;stroke-dashoffset:0;stroke-opacity:1;visibility:visible;display:inline;overflow:visible"
       d="M 421.42856,320.71428 C 480.31909,289.36395 539.72915,257.7597 603.35454,237.11469 C 655.10198,227.04543 707.3328,216.7198 760.22291,216.48058 C 776.98935,218.41646 783.8028,244.75968 767.72343,252.55342 C 722.10479,274.51226 678.36308,300.18289 632.68304,322.065 C 586.34871,344.42971 538.04782,363.91401 487.38571,373.68476 C 461.72825,377.46404 430.44972,371.25456 416.52747,347.18501 C 411.65802,338.71435 411.00435,325.3934 421.42856,320.71428 z "
       id="path2363" />
    <path
       style="color:#000000;fill:#000000;fill-opacity:1;fill-rule:nonzero;stroke:none;stroke-width:3.9000001;stroke-linecap:butt;stroke-linejoin:miter;marker:none;marker-start:none;marker-mid:none;marker-end:none;stroke-miterlimit:4;stroke-dasharray:none;stroke-dashoffset:0;stroke-opacity:1;visibility:visible;display:inline;overflow:visible"
       id="path1321"
       d="M 417.24914,310.90191 C 417.94971,310.63822 433.99173,302.66268 438.87766,300.27006 C 476.39758,281.5454 515.19812,265.54042 554.60117,251.24824 C 605.94615,233.1853 658.46813,217.95817 712.33709,209.69401 C 736.06266,207.61337 780.83156,195.87024 792.13533,225.65058 C 792.55184,260.96835 744.3746,279.48491 717.91202,292.63262 C 666.51928,317.05119 612.97787,336.51694 559.15212,354.79463 C 528.65689,364.67268 498.40385,375.58754 467.29717,383.45559 L 464.4632,359.4328 C 495.34426,355.39231 525.40781,346.55733 555.33966,338.27178 C 608.92768,322.19588 661.91179,303.06103 711.1907,276.323 C 731.85118,264.72321 754.53128,251.03802 768.31367,232.88138 C 761.40509,224.85305 728.11446,226.97347 713.41856,228.23923 C 660.42555,233.73753 608.76314,248.13618 558.96883,266.7924 C 520.6069,281.79008 482.96168,299.07431 448.17743,321.27089 C 440.92506,325.95808 433.87077,331.03902 427.0732,336.22263 L 417.24914,310.90191 z " />
    <path
       style="opacity:1;color:#000000;fill:#ededed;fill-opacity:1;fill-rule:nonzero;stroke:none;stroke-width:3.9000001;stroke-linecap:butt;stroke-linejoin:miter;marker:none;marker-start:none;marker-mid:none;marker-end:none;stroke-miterlimit:4;stroke-dasharray:none;stroke-dashoffset:0;stroke-opacity:1;visibility:visible;display:inline;overflow:visible"
       d="M 520.22858,603.01007 C 507.67323,615.02074 490.85633,623.91665 484.10498,640.831 C 472.08392,665.34314 467.75937,693.92936 473.12341,720.74472 C 480.15954,737.96379 501.63821,748.30347 519.20535,741.12255 C 538.00269,735.97529 556.56856,729.35907 573.84503,720.36355 C 587.94116,708.43534 594.21651,690.42993 600.94233,673.83769 C 607.91614,652.02086 606.47609,625.84362 591.00063,607.88697 C 581.81066,595.69221 566.93736,584.46077 550.81523,588.06777 C 540.66513,590.58199 531.46096,595.93742 521.96967,600.036 C 520.44713,601.38888 519.34363,603.45173 519.72345,605.5354"
       id="path5448" />
    <path
       sodipodi:nodetypes="ccccccccccccccccccccccccc"
       style="color:#000000;fill:#000000;fill-opacity:1;fill-rule:nonzero;stroke:none;stroke-width:3.9000001;stroke-linecap:butt;stroke-linejoin:miter;marker:none;marker-start:none;marker-mid:none;marker-end:none;stroke-miterlimit:4;stroke-dasharray:none;stroke-dashoffset:0;stroke-opacity:1;visibility:visible;display:inline;overflow:visible"
       id="path1333"
       d="M 384.03486,521.97334 C 388.24152,520.80073 404.4656,514.54612 408.80373,514.05373 C 418.32573,512.65139 427.59302,512.78458 435.81515,518.3363 C 449.97476,530.13153 445.03934,549.24841 437.68561,563.42198 C 425.49019,585.08604 404.50833,599.22864 383.82583,611.95938 C 364.11843,623.75497 343.80389,634.74229 326.47415,649.98448 C 321.28543,654.52925 315.35438,661.41989 314.0943,667.14101 C 309.88419,660.29484 329.05777,661.37078 335.64464,659.20801 C 353.57444,653.10128 368.99688,642.12574 382.48704,629.08605 C 392.41758,617.33375 402.74243,611.79684 418.06466,613.3257 C 438.36795,616.08364 458.55786,612.25038 478.02939,606.6118 C 492.80583,602.18831 506.85421,595.7915 520.50901,588.68877 L 528.40179,609.27705 C 513.44851,616.31808 498.25618,622.94549 482.43162,627.7985 C 460.65328,634.29151 438.21333,638.93643 415.36951,638.15346 C 406.92209,638.22465 407.10097,639.50807 400.45288,645.15395 C 382.64471,660.20981 363.31965,673.50464 341.19919,681.4363 C 324.43123,687.34325 296.55374,695.75427 288.95832,672.81336 C 286.07462,654.45617 300.66899,641.02723 313.68321,630.47857 C 332.5562,615.77372 353.51091,604.30221 374.02324,592.10371 C 389.85991,582.03712 406.05155,570.87411 415.51341,554.18712 C 417.70573,549.91787 419.73879,542.41496 420.48701,539.2731 C 419.00284,539.21759 413.27037,539.21883 410.59952,539.98566 C 408.87068,540.29619 399.01615,542.65609 405.64463,541.22263 L 384.03486,521.97334 z " />
    <path
       style="opacity:1;color:#000000;fill:#000000;fill-opacity:1;fill-rule:nonzero;stroke:none;stroke-width:3.9000001;stroke-linecap:butt;stroke-linejoin:miter;marker:none;marker-start:none;marker-mid:none;marker-end:none;stroke-miterlimit:4;stroke-dasharray:none;stroke-dashoffset:0;stroke-opacity:1;visibility:visible;display:inline;overflow:visible"
       d="M 518.03125 592.65625 C 517.76101 592.68022 517.46219 592.78832 517.09375 592.9375 C 506.57351 593.99247 502.14946 605.26341 495.5 611.96875 C 475.91907 638.42942 460.52855 669.64876 458.03125 702.9375 C 456.99848 714.50236 459.64118 727.25703 466.34375 736.90625 C 470.50129 730.75586 475.84531 725.37217 481.71875 720.6875 C 474.96923 707.12713 478.94408 690.5404 482.53125 676.5 C 490.23957 652.77262 503.3635 629.33006 523.5625 614.0625 C 526.1558 612.17376 527.93056 610.4016 528.09375 609.46875 C 528.09592 609.45426 528.0924 609.42033 528.09375 609.40625 C 528.0947 609.39238 528.09363 609.35721 528.09375 609.34375 C 528.09346 609.3305 528.09487 609.29407 528.09375 609.28125 C 528.09298 609.27495 528.09473 609.2562 528.09375 609.25 C 528.09256 609.24391 528.09515 609.22473 528.09375 609.21875 C 528.0873 609.19528 528.07238 609.14669 528.0625 609.125 C 528.05444 609.10907 528.04127 609.0774 528.03125 609.0625 C 528.02769 609.05765 528.00378 609.03598 528 609.03125 C 527.99578 609.02675 527.97319 609.00438 527.96875 609 C 527.96408 608.99574 527.94239 608.97289 527.9375 608.96875 C 527.9068 608.94462 527.8514 608.92597 527.8125 608.90625 C 527.79907 608.89993 527.76435 608.88082 527.75 608.875 C 527.73518 608.86943 527.70326 608.84881 527.6875 608.84375 C 527.63882 608.82936 527.55726 608.82217 527.5 608.8125 C 526.72707 608.69567 525.19493 608.99547 522.71875 609.875 C 521.00114 611.0053 519.90325 611.25372 519.25 610.96875 C 519.16755 610.93006 519.06909 610.86892 519 610.8125 C 517.68423 609.67865 518.76133 605.32887 518.8125 602.40625 C 518.79554 602.36018 518.79471 602.30104 518.78125 602.25 C 518.26488 600.14934 520.46205 594.11821 518.90625 592.875 C 518.88259 592.85724 518.83787 592.82811 518.8125 592.8125 C 518.61358 592.69837 518.34203 592.62868 518.03125 592.65625 z "
       id="path5444" />
    <path
       style="opacity:1;color:#000000;fill:#000000;fill-opacity:1;fill-rule:nonzero;stroke:none;stroke-width:3.9000001;stroke-linecap:butt;stroke-linejoin:miter;marker:none;marker-start:none;marker-mid:none;marker-end:none;stroke-miterlimit:4;stroke-dasharray:none;stroke-dashoffset:0;stroke-opacity:1;visibility:visible;display:inline;overflow:visible"
       d="M 437.58035,668.57141 C 433.5279,671.62948 430.95061,676.53034 426.11482,678.54777 C 426.30993,681.72589 429.31379,683.507 431.64848,685.14494 C 438.56134,690.87991 444.41073,698.18513 452.74748,701.97605 C 454.91648,702.84176 457.27611,704.75656 459.67541,703.51413 C 462.97618,701.28213 462.81661,696.78943 465.0771,693.81192 C 466.21439,692.14644 466.93638,689.55056 465.22849,688.00687 C 462.73404,686.02789 459.28083,686.24949 456.52165,684.78829 C 449.63083,681.51967 444.1746,675.79671 440.2981,669.31145 C 439.70597,668.54018 438.46435,667.78971 437.58035,668.57141 z "
       id="path5520" />
  </g>
</svg>
