<?xml version="1.0" encoding="UTF-8" standalone="no"?>
<!-- Created with Inkscape (http://www.inkscape.org/) -->
<svg
   xmlns:dc="http://purl.org/dc/elements/1.1/"
   xmlns:cc="http://web.resource.org/cc/"
   xmlns:rdf="http://www.w3.org/1999/02/22-rdf-syntax-ns#"
   xmlns:svg="http://www.w3.org/2000/svg"
   xmlns="http://www.w3.org/2000/svg"
   xmlns:sodipodi="http://inkscape.sourceforge.net/DTD/sodipodi-0.dtd"
   xmlns:inkscape="http://www.inkscape.org/namespaces/inkscape"
   width="1000"
   height="1000"
   id="svg2"
   sodipodi:version="0.32"
   inkscape:version="0.43"
   version="1.0"
   sodipodi:docbase="/home/kkowal/tale/art/monster"
   sodipodi:docname="magus-meridianus.svg"
   inkscape:export-filename="/home/kkowal/tale/art/monster/magus-borealis.png"
   inkscape:export-xdpi="90"
   inkscape:export-ydpi="90">
  <defs
     id="defs4" />
  <sodipodi:namedview
     id="base"
     pagecolor="#ffffff"
     bordercolor="#666666"
     borderopacity="1.0"
     inkscape:pageopacity="0.0"
     inkscape:pageshadow="2"
     inkscape:zoom="0.24748738"
     inkscape:cx="737.56698"
     inkscape:cy="729.77469"
     inkscape:document-units="px"
     inkscape:current-layer="layer1"
     inkscape:window-width="1590"
     inkscape:window-height="1121"
     inkscape:window-x="0"
     inkscape:window-y="25" />
  <metadata
     id="metadata7">
    <rdf:RDF>
      <cc:Work
         rdf:about="">
        <dc:format>image/svg+xml</dc:format>
        <dc:type
           rdf:resource="http://purl.org/dc/dcmitype/StillImage" />
      </cc:Work>
    </rdf:RDF>
  </metadata>
  <g
     inkscape:label="Layer 1"
     inkscape:groupmode="layer"
     id="layer1">
    <path
       style="opacity:1;color:#000000;fill:#303030;fill-opacity:1;fill-rule:nonzero;stroke:none;stroke-width:3.9000001;stroke-linecap:butt;stroke-linejoin:miter;marker:none;marker-start:none;marker-mid:none;marker-end:none;stroke-miterlimit:4;stroke-dasharray:none;stroke-dashoffset:0;stroke-opacity:1;visibility:visible;display:inline;overflow:visible"
       d="M 191.92899,422.19275 C 154.5339,439.91012 117.47309,459.38116 85.061161,485.30522 C 75.058397,496.37903 67.102562,509.80157 63.013875,524.11184 C 61.830765,545.45809 81.106356,561.58058 99.721071,567.79339 C 123.29716,575.1225 148.29885,570.88734 172.48644,573.57991 C 211.41085,575.1162 250.46871,578.50523 289.38904,575.33375 C 305.67993,573.799 318.99226,562.42192 324.96144,547.5048 C 335.97775,525.85219 342.22129,501.62626 343.20107,477.38043 C 342.98193,456.38099 331.48488,435.31716 311.99281,426.4011 C 284.37512,410.85654 250.07009,407.28919 219.85428,416.68732 C 211.02257,420.09688 201.62314,424.60574 191.92899,422.19275 z "
       id="path11589" />
    <path
       style="opacity:1;color:#000000;fill:#b4cacc;fill-opacity:1;fill-rule:nonzero;stroke:none;stroke-width:3.9000001;stroke-linecap:butt;stroke-linejoin:miter;marker:none;marker-start:none;marker-mid:none;marker-end:none;stroke-miterlimit:4;stroke-dasharray:none;stroke-dashoffset:0;stroke-opacity:1;visibility:visible;display:inline;overflow:visible"
       id="path11587"
       d="M 270.30089,381.84446 C 278.44046,388.45048 253.45476,394.04812 248.36002,396.46535 C 209.70473,414.76593 172.54555,436.16424 137.1828,460.20642 C 91.759407,500.53322 110.70331,467.48293 84.352648,508.99242 C 75.20294,523.91374 83.835824,535.98531 96.531175,544.74589 C 118.80975,558.16821 145.36952,561.96976 170.84748,564.3417 C 179.08436,564.97497 174.98856,564.69314 183.13472,565.18955 L 167.10041,588.94154 C 158.89781,588.19442 163.02737,588.59238 154.71191,587.74571 C 127.51337,584.60922 99.163512,580.68761 75.347011,566.25573 C 58.903095,555.02012 46.273696,537.48469 55.395064,517.14124 C 73.880031,480.68054 115.26445,460.21817 146.35301,435.98898 C 183.02961,412.18307 221.20969,390.85415 259.64338,370.04175 C 269.07325,365.00838 285.04626,351.22014 295.35863,359.47957 L 270.30089,381.84446 z " />
    <path
       style="color:#000000;fill:#000000;fill-opacity:1;fill-rule:nonzero;stroke:none;stroke-width:3.9000001;stroke-linecap:butt;stroke-linejoin:miter;marker:none;marker-start:none;marker-mid:none;marker-end:none;stroke-miterlimit:4;stroke-dasharray:none;stroke-dashoffset:0;stroke-opacity:1;visibility:visible;display:inline;overflow:visible"
       d="M 183.57143,848.57141 C 159.35444,865.03492 162.91731,911.35005 193.44119,918.32053 C 236.45541,929.65881 280.91224,933.47744 324.98577,938.37722 C 375.24654,933.95885 424.85292,909.53825 475.72857,922.99863 C 525.46855,931.92898 576.23784,932.58685 626.08081,940.76658 C 668.29391,935.91223 712.62686,918.87459 738.17365,883.39676 C 751.33229,861.22859 752.37701,825.01186 726.8,811.37741 C 697.55878,800.72397 671.9082,823.98106 646.68537,834.78607 C 576.43172,867.14667 500.25636,885.09569 423.9181,895.52499 C 361.55661,895.04855 311.26681,852.7596 253.79605,834.76164 C 231.52465,826.5513 199.50466,822.74985 184.89338,846.05064 C 184.45273,846.8909 184.01208,847.73116 183.57143,848.57141 z "
       id="path7995" />
    <path
       style="color:#000000;fill:#b4cacc;fill-opacity:1;fill-rule:nonzero;stroke:none;stroke-width:3.9000001;stroke-linecap:butt;stroke-linejoin:miter;marker:none;marker-start:none;marker-mid:none;marker-end:none;stroke-miterlimit:4;stroke-dasharray:none;stroke-dashoffset:0;stroke-opacity:1;visibility:visible;display:inline;overflow:visible"
       id="path1539"
       d="M 198.64998,850.07854 C 196.76044,849.28324 192.0903,857.34628 190.13259,860.22411 C 184.55095,868.65033 179.82155,877.6461 178.10712,887.50181 C 178.89318,902.08812 200.67752,907.64949 212.69197,911.58469 C 245.69655,921.77463 280.59712,924.06338 315.11051,923.48851 C 334.22121,922.74255 353.72829,921.98144 372.0435,916.34041 C 372.61788,916.12525 373.19225,915.91009 373.76663,915.69492 L 360.98794,939.62016 C 360.35101,939.7437 359.71408,939.86735 359.07715,939.99089 C 340.23019,943.0577 321.03349,943.15066 301.95683,942.89375 C 266.6412,942.08132 231.08302,939.32173 197.05452,929.86362 C 179.55923,924.7282 156.52649,918.23304 152.6243,898.91276 C 152.67825,887.57532 157.34988,877.18919 162.95635,867.28946 C 165.12918,863.48905 168.83599,858.92449 169.18081,855.09968 L 198.64998,850.07854 z " />
    <path
       style="color:#000000;fill:#b4cacc;fill-opacity:1;fill-rule:nonzero;stroke:none;stroke-width:3.9000001;stroke-linecap:butt;stroke-linejoin:miter;marker:none;marker-start:none;marker-mid:none;marker-end:none;stroke-miterlimit:4;stroke-dasharray:none;stroke-dashoffset:0;stroke-opacity:1;visibility:visible;display:inline;overflow:visible"
       id="path1549"
       d="M 506.74601,913.63371 C 508.47995,914.38573 514.9531,916.35103 517.91892,917.13027 C 542.78758,922.95041 568.51056,924.886 594.06236,925.4951 C 625.47481,926.07275 657.0173,922.92931 687.2035,914.56519 C 681.81392,922.48541 731.09387,889.96541 725.57746,894.1459 C 697.66865,915.29597 717.12073,900.5065 723.16784,892.69047 C 731.83171,880.7092 737.29598,866.87741 738.48025,852.42542 C 738.87117,846.24706 736.89707,840.99923 732.96844,836.19972 L 755.34566,818.74977 C 760.51733,825.39521 763.85738,832.66951 763.80366,841.09113 C 763.16739,857.24273 757.39314,872.74843 748.72684,886.64099 C 732.2511,911.42692 705.50475,928.67357 675.64308,935.70911 C 644.64981,942.77189 612.70513,945.29262 580.85912,944.64723 C 554.22606,944.0136 527.53416,942.28474 501.29236,937.78935 C 495.52306,936.70008 489.12654,935.94769 484.40374,932.42326 L 506.74601,913.63371 z " />
    <path
       style="opacity:1;color:#000000;fill:#ffffff;fill-opacity:1;fill-rule:nonzero;stroke:none;stroke-width:3.9000001;stroke-linecap:butt;stroke-linejoin:miter;marker:none;marker-start:none;marker-mid:none;marker-end:none;stroke-miterlimit:4;stroke-dasharray:none;stroke-dashoffset:0;stroke-opacity:1;visibility:visible;display:inline;overflow:visible"
       d="M 354.15607,235.37584 C 352.85366,184.64948 386.26673,133.44644 432.32468,113.11981 C 479.5768,105.82215 527.47984,120.24033 574.72988,123.93728 C 618.42783,132.07979 618.08256,184.58025 643.78684,212.62598 C 693.69829,304.86834 745.47767,396.39888 797.07842,487.82255 C 834.98004,558.96788 830.48284,642.91916 820.51661,720.38322 C 805.53517,766.5662 791.12175,822.23083 743.34563,844.7266 C 674.31788,889.37502 598.13786,936.47644 511.92084,931.41502 C 422.53884,933.89517 336.58271,917.21508 250.51873,895.55123 C 204.59091,879.05211 154.92133,850.97029 142.81357,799.61071 C 113.9517,731.44056 111.9273,647.8778 155.2278,585.13855 C 182.91503,528.04335 214.54724,472.48524 257.94304,425.80371 C 290.48334,376.44726 321.78556,325.86718 350.37131,273.9401 C 352.95748,261.37248 358.70574,248.21413 354.15607,235.37584 z "
       id="path6046"
       sodipodi:nodetypes="cccccccccccccc" />
    <path
       style="color:#000000;fill:#231d1d;fill-opacity:1;fill-rule:nonzero;stroke:none;stroke-width:3.9000001;stroke-linecap:butt;stroke-linejoin:miter;marker:none;marker-start:none;marker-mid:none;marker-end:none;stroke-miterlimit:4;stroke-dasharray:none;stroke-dashoffset:0;stroke-opacity:1;visibility:visible;display:inline;overflow:visible"
       d="M 187.85715,513.57141 C 141.23941,547.26111 142.0334,609.88144 125.97026,659.80033 C 116.80751,699.49225 120.82672,744.25967 145.37518,777.87953 C 159.3145,840.07518 220.11905,874.91558 275.62587,895.0475 C 340.97554,927.75307 416.98752,950.52943 489.74179,930.75278 C 564.51657,921.42414 643.90539,914.59547 707.64174,870.22869 C 759.06093,842.26845 800.88142,795.64345 818.56644,739.4244 C 839.05779,697.46397 861.60927,647.85767 840.91844,601.5265 C 824.66377,553.53636 771.71067,518.58087 721.0093,531.19979 C 662.04247,539.28041 604.83037,559.66997 544.7245,558.83203 C 478.85966,563.45117 411.93411,571.60597 346.29296,562.79899 C 303.37681,546.42562 266.31973,509.06284 217.32881,513.30969 C 208.69876,512.92928 200.05029,513.05738 191.42857,513.57143"
       id="path7958" />
    <path
       style="color:#000000;fill:#b4cacc;fill-opacity:1;fill-rule:nonzero;stroke:none;stroke-width:3.9000001;stroke-linecap:butt;stroke-linejoin:miter;marker:none;marker-start:none;marker-mid:none;marker-end:none;stroke-miterlimit:4;stroke-dasharray:none;stroke-dashoffset:0;stroke-opacity:1;visibility:visible;display:inline;overflow:visible"
       id="path1383"
       d="M 373.02005,184.44288 C 372.46758,182.128 372.33709,194.12425 371.88837,196.95427 C 367.00455,223.82152 358.66499,250.00631 349.10937,275.69238 C 333.11531,318.34321 311.45532,358.81557 286.98831,397.65529 C 260.87421,438.39187 232.21191,477.59956 204.64775,517.46158 C 177.43616,555.80086 154.55681,596.76285 140.19753,640.94407 C 124.94496,688.15304 127.24581,737.3288 146.69225,782.992 C 173.89819,843.378 231.94199,879.11125 294.3669,902.69117 C 384.28038,934.94811 481.11111,935.19473 574.44277,917.67959 C 655.80373,901.33452 730.74221,865.77085 780.81169,802.31953 C 824.22987,743.473 829.88065,671.7125 819.91279,602.65005 C 808.78492,535.07171 779.72209,471.86237 746.89571,411.3909 C 718.41978,358.9943 685.55345,308.91197 653.97684,258.16818 C 631.55469,222.48986 611.40132,185.60695 592.73606,148.07132 C 585.1403,133.77092 579.40029,118.59753 571.32645,104.52116 C 570.98957,103.86884 570.49592,103.31279 570.08065,102.70863 L 593.15359,86.274134 C 593.65775,87.161497 594.26264,87.997922 594.66607,88.936223 C 601.62842,103.99421 606.15962,119.97874 613.03248,135.08075 C 629.2656,173.55193 648.63207,210.77371 670.37411,246.74652 C 701.18524,298.13322 733.12001,348.96014 761.59104,401.55609 C 794.09794,462.88103 823.18775,526.80816 834.96008,594.87813 C 845.22081,664.97845 840.39102,738.24152 797.37326,798.64225 C 742.26973,869.64498 658.87877,910.87607 568.46978,927.97131 C 473.89001,944.66518 375.6108,945.65755 284.20749,914.0944 C 219.89682,890.72304 158.71728,855.24939 129.75826,793.67565 C 109.07339,747.13298 105.33653,696.64298 120.09046,647.90543 C 133.97073,603.08076 156.53662,561.40785 183.79504,522.50538 C 211.45546,482.70005 240.43055,443.68561 266.48891,402.9085 C 290.74504,364.77967 312.38943,325.04116 327.55512,282.84342 C 336.19786,258.35988 343.71524,233.27235 346.32884,207.50236 C 346.61142,203.92343 347.37377,198.72561 346.10029,196.81427 L 373.02005,184.44288 z " />
    <path
       style="color:#000000;fill:#b4cacc;fill-opacity:1;fill-rule:nonzero;stroke:none;stroke-width:3.9000001;stroke-linecap:butt;stroke-linejoin:miter;marker:none;marker-start:none;marker-mid:none;marker-end:none;stroke-miterlimit:4;stroke-dasharray:none;stroke-dashoffset:0;stroke-opacity:1;visibility:visible;display:inline;overflow:visible"
       id="path1529"
       d="M 247.84525,511.40194 C 257.12616,514.08128 267.06161,515.06201 276.69208,516.29679 C 292.35357,519.27098 311.45129,517.72427 324.70946,527.43093 C 339.46174,542.41399 326.91428,565.06614 319.63271,580.67062 C 303.60365,611.61765 290.69346,643.79642 282.32977,677.33162 C 278.47393,693.25472 275.79073,709.41281 274.35919,725.68672 L 250.88518,735.50682 C 253.07353,718.62934 256.36217,701.89512 260.51438,685.34859 C 269.08933,651.92702 280.81816,619.3844 295.62702,587.9446 C 300.76613,576.50933 311.90785,558.1123 304.70149,545.9559 C 291.95429,538.72102 275.61878,539.35681 261.39039,536.90105 C 252.05121,535.90682 240.16081,534.25193 231.76265,535.18865 L 247.84525,511.40194 z " />
    <path
       style="color:#000000;fill:#b4cacc;fill-opacity:1;fill-rule:nonzero;stroke:none;stroke-width:3.9000001;stroke-linecap:butt;stroke-linejoin:miter;marker:none;marker-start:none;marker-mid:none;marker-end:none;stroke-miterlimit:4;stroke-dasharray:none;stroke-dashoffset:0;stroke-opacity:1;visibility:visible;display:inline;overflow:visible"
       id="path1533"
       d="M 327.99701,541.10158 C 333.92239,544.48901 340.83134,546.24954 347.46009,548.01672 C 365.62707,552.72389 384.26662,555.57336 402.97385,557.52571 C 417.72933,559.10506 432.59916,559.45258 447.391,558.2263 C 451.01012,557.91013 454.59746,557.38445 458.16969,556.76661 L 443.91513,580.24722 C 440.20356,580.51868 436.48944,580.77484 432.76549,580.83729 C 417.69205,581.00824 402.63439,580.05269 387.69652,578.12916 C 368.58225,575.7196 349.58685,572.48928 330.77855,568.47391 C 326.20823,567.47448 313.48993,563.72389 311.90939,564.89571 L 327.99701,541.10158 z " />
    <path
       style="color:#000000;fill:#dab322;fill-opacity:1;fill-rule:nonzero;stroke:none;stroke-width:3.9000001;stroke-linecap:butt;stroke-linejoin:miter;marker:none;marker-start:none;marker-mid:none;marker-end:none;stroke-miterlimit:4;stroke-dasharray:none;stroke-dashoffset:0;stroke-opacity:1;visibility:visible;display:inline;overflow:visible"
       id="path1537"
       d="M 341.59478,609.03014 C 342.04392,610.14858 339.90131,611.45588 338.75364,612.413 C 337.98987,613.06438 337.31862,613.8002 336.60169,614.49326 C 370.78919,587.20631 351.77184,600.23661 346.11183,609.1148 C 343.52015,613.86563 344.71022,617.82009 348.40052,621.5308 C 353.73787,624.38464 359.75893,622.26345 364.90861,619.90836 C 387.35947,601.57964 343.14413,644.48649 361.40544,621.86122 C 364.04245,617.34069 363.33596,613.21992 360.39663,609.11939 C 356.74531,605.59831 352.23306,605.38275 347.39111,606.26835 C 344.64555,607.0936 342.86053,609.02278 340.97404,610.94669 C 346.58519,606.96097 351.74953,602.44551 357.13728,598.19493 L 328.75625,603.17759 C 337.0716,592.86885 348.22961,582.89828 362.2841,582.87905 C 370.12932,583.4643 377.29174,585.98895 382.59104,591.70736 C 387.71721,598.02465 390.30827,605.26606 388.67059,613.26027 C 384.00352,628.58603 368.22775,639.16128 352.64044,644.21803 C 343.57004,646.15623 334.47991,645.99101 327.16274,639.86378 C 321.00193,633.81578 317.52382,626.50775 318.91141,617.97741 C 323.1724,603.60865 335.02742,594.14066 349.09077,586.72406 C 351.92723,585.53871 354.60237,584.38753 357.68742,585.22858 L 341.59478,609.03014 z " />
    <path
       style="color:#000000;fill:#000000;fill-opacity:1;fill-rule:nonzero;stroke:none;stroke-width:3.9000001;stroke-linecap:butt;stroke-linejoin:miter;marker:none;marker-start:none;marker-mid:none;marker-end:none;stroke-miterlimit:4;stroke-dasharray:none;stroke-dashoffset:0;stroke-opacity:1;visibility:visible;display:inline;overflow:visible"
       d="M 266.74646,481.91476 C 268.44838,499.34467 271.17984,516.70373 271.34993,534.27053 C 263.79074,558.30245 240.98457,570.15326 228.88322,590.81771 C 211.89093,609.40052 187.41417,614.93789 165.13522,622.10502 C 149.3565,625.96392 134.70295,634.6684 118.46142,636.37241 C 108.206,637.67369 103.2663,624.77389 107.49131,615.9307 C 110.94486,607.21576 114.92945,598.77247 117.61914,589.71429 C 130.16166,556.11969 144.56438,522.87289 164.44957,493.63293 C 179.36531,476.44077 200.64622,466.11578 211.76545,445.04939 C 218.14004,435.68047 224.62972,425.22968 235.01869,420.80104 C 247.06866,420.16404 254.54948,433.21532 257.24579,444.4121 C 261.36762,456.44446 270.19119,468.35956 266.74646,481.91476 z "
       id="path7873" />
    <path
       style="color:#000000;fill:#b4cacc;fill-opacity:1;fill-rule:nonzero;stroke:none;stroke-width:3.9000001;stroke-linecap:butt;stroke-linejoin:miter;marker:none;marker-start:none;marker-mid:none;marker-end:none;stroke-miterlimit:4;stroke-dasharray:none;stroke-dashoffset:0;stroke-opacity:1;visibility:visible;display:inline;overflow:visible"
       id="path1589"
       d="M 222.06778,446.11293 C 217.54161,449.02191 211.37033,457.24609 207.11772,462.17809 C 189.07308,483.11474 173.09739,505.51533 159.41551,529.19662 C 146.16545,552.66864 135.31979,577.30304 126.68731,602.60397 C 123.56547,611.94239 120.67496,621.38843 119.35458,631.11801 C 118.1864,626.90619 133.25658,625.37864 140.0691,623.35482 C 166.89668,615.20067 192.00109,602.72683 215.57821,588.28753 C 211.1784,592.47727 243.64164,567.89731 240.06225,570.63711 C 210.71958,593.09702 235.72195,573.28203 242.18328,564.58733 C 251.29293,552.13033 254.87462,537.35146 256.56029,522.53359 C 258.00971,506.17153 256.57509,489.72909 254.1511,473.51352 C 253.1523,466.33385 251.44605,459.27548 249.60135,452.25516 L 274.48947,438.37686 C 276.18076,445.90189 277.47711,453.50675 278.36052,461.15397 C 280.25547,478.09339 281.62408,495.13924 280.8221,512.18117 C 279.84852,528.06963 277.14746,544.14586 268.64419,558.14522 C 254.11179,580.94405 229.86511,596.35456 206.44293,610.34889 C 181.67075,624.31051 155.77733,636.61529 128.50095,645.63097 C 117.84922,649.11877 98.285331,658.11789 93.326142,643.24734 C 92.950435,632.06206 98.279168,621.3761 101.69778,610.8918 C 111.58566,585.13535 123.12234,559.93047 136.31528,535.5229 C 149.32269,511.88207 164.30332,489.31075 181.03022,467.84086 C 184.98372,462.56885 190.43833,457.13268 192.59861,451.13408 L 222.06778,446.11293 z " />
    <g
       id="g7834"
       transform="matrix(0.891631,0,0,0.969139,47.0231,6.344402)">
      <path
         id="path7808"
         d="M 251.52798,330.26886 C 241.40524,345.69049 222.67497,350.86765 206.32495,356.87659 C 194.45262,361.35004 182.42134,365.50277 171.03207,371.14146 C 161.78423,368.41161 154.20372,383.29363 162.74428,388.53835 C 170.48478,392.70963 181.02705,391.85375 186.90618,399.1773 C 192.09465,408.58223 181.11523,416.83023 174.83289,422.31436 C 167.04127,429.37394 157.87876,438.56655 159.84239,450.07622 C 163.80048,467.01867 177.98303,478.48261 189.19594,490.76987 C 197.98345,499.27969 207.10786,508.23787 218.58548,512.90243 C 228.87377,514.57738 236.12622,505.54437 243.94731,500.53831 C 253.06433,493.84302 260.03583,484.35338 263.54987,473.60011 C 269.91349,460.41709 279.04712,445.86527 274.12219,430.69482 C 269.84336,418.60791 265.77756,406.32599 264.8719,393.44668 C 262.71144,375.97391 263.10385,358.33324 262.67718,340.77554 C 262.06936,335.15993 257.38794,330.14551 251.52798,330.26886 z "
         style="color:#000000;fill:#434343;fill-opacity:1;fill-rule:nonzero;stroke:none;stroke-width:3.9000001;stroke-linecap:butt;stroke-linejoin:miter;marker:none;marker-start:none;marker-mid:none;marker-end:none;stroke-miterlimit:4;stroke-dasharray:none;stroke-dashoffset:0;stroke-opacity:1;visibility:visible;display:inline;overflow:visible" />
      <path
         d="M 270.13073,307.4339 C 275.04973,314.92937 276.63007,324.00403 278.74735,332.36233 C 284.49375,357.91592 291.20735,383.48902 292.74648,409.56255 C 294.32222,434.29964 286.03609,457.56225 271.63784,478.65712 C 255.4703,500.97435 232.23112,518.68195 207.52078,533.73123 L 218.11761,508.58359 C 225.9645,503.64306 241.40303,491.7751 209.63773,515.37172 C 206.93355,517.38051 247.88181,483.19724 243.51562,485.05287 C 258.48043,465.82714 267.64015,444.18201 267.15519,420.72692 C 266.58855,395.31288 260.76914,370.10271 253.48192,345.56116 C 251.94153,341.12342 246.51698,327.8744 245.07299,326.82182 L 270.13073,307.4339 z "
         id="path1583"
         style="opacity:1;color:#000000;fill:#b4cacc;fill-opacity:1;fill-rule:nonzero;stroke:none;stroke-width:3.9000001;stroke-linecap:butt;stroke-linejoin:miter;marker:none;marker-start:none;marker-mid:none;marker-end:none;stroke-miterlimit:4;stroke-dasharray:none;stroke-dashoffset:0;stroke-opacity:1;visibility:visible;display:inline;overflow:visible" />
      <path
         d="M 286.82684,308.9938 C 289.86386,319.55768 256.72222,336.7557 255.14054,337.90064 C 236.19617,349.96818 216.18239,360.70515 196.08902,371.25929 C 182.53192,380.48167 163.22756,384.32362 151.51885,395.51951 C 179.08525,379.38462 160.5882,377.1816 175.26322,381.91889 C 182.42632,383.75553 189.64476,385.39808 196.76548,387.36371 C 204.5361,389.2207 209.70113,392.82435 211.11005,399.8964 C 209.91738,406.42841 202.75316,409.81631 197.25469,413.78099 C 188.94161,419.69112 181.57046,426.46605 175.60802,434.21815 C 170.59287,440.86007 170.81828,447.0444 174.44131,454.04575 C 183.75216,467.93156 197.52692,479.02637 211.11641,489.73852 C 220.4283,497.02086 230.2007,503.84206 240.31095,510.2701 L 218.33544,528.87689 C 208.40487,521.9043 198.69846,514.69587 189.2491,507.23654 C 174.77998,495.84668 160.14253,484.21399 149.04702,470.16234 C 143.04303,461.18175 140.26208,451.9549 145.06653,441.95938 C 150.0426,432.85269 157.36053,425.06329 165.79684,418.15516 C 169.91547,414.79852 174.30589,410.13154 179.86224,409.24014 C 185.38204,413.31788 180.15641,409.84016 176.45397,409.29718 C 169.21105,407.30471 161.82992,405.69609 154.68891,403.433 C 130.45809,394.75911 138.69401,381.34938 161.83034,369.19059 C 177.05451,362.39926 192.14392,355.36462 206.83595,347.73713 C 227.15002,337.1427 247.22622,325.96363 265.07115,312.36288 C 218.58765,346.08378 253.88613,314.46152 256.63524,321.75913 L 286.82684,308.9938 z "
         id="path1585"
         style="color:#000000;fill:#b4cacc;fill-opacity:1;fill-rule:nonzero;stroke:none;stroke-width:3.9000001;stroke-linecap:butt;stroke-linejoin:miter;marker:none;marker-start:none;marker-mid:none;marker-end:none;stroke-miterlimit:4;stroke-dasharray:none;stroke-dashoffset:0;stroke-opacity:1;visibility:visible;display:inline;overflow:visible" />
    </g>
    <path
       style="color:#000000;fill:#d45969;fill-opacity:1;fill-rule:nonzero;stroke:none;stroke-width:3.9000001;stroke-linecap:butt;stroke-linejoin:miter;marker:none;marker-start:none;marker-mid:none;marker-end:none;stroke-miterlimit:4;stroke-dasharray:none;stroke-dashoffset:0;stroke-opacity:1;visibility:visible;display:inline;overflow:visible"
       d="M 353.70577,329.84726 C 349.97339,329.27003 344.68888,323.96246 341.0962,320.05749 C 338.4611,317.19331 332.77748,316.02604 329.38732,314.18361 C 325.907,312.29218 322.68858,310.0536 319.4798,308.30974 C 316.42508,306.64961 312.08274,307.33076 308.22127,307.33076 C 303.20766,307.33076 300.96386,308.14782 296.96272,310.75719 C 287.9672,316.62368 283.08032,329.58347 274.89598,336.70011 C 272.15183,339.08626 270.46497,341.78072 267.69051,344.04245 C 264.31289,346.79588 261.66528,350.10195 258.68368,353.34274 C 255.95658,356.30691 254.88089,360.1592 252.82924,363.13253 C 251.19261,365.5044 250.12719,369.46994 250.12719,372.43282 C 250.12719,376.91481 250.18862,380.8877 251.92855,384.67004 C 252.22878,385.3227 252.52901,385.97535 252.82924,386.628 C 254.75949,390.82409 257.64939,391.59175 261.83607,392.50187 C 270.61633,394.41057 281.08795,387.06864 288.85657,383.69107 C 293.43799,381.6992 297.52421,378.25836 301.91648,376.34873 C 306.51498,374.34943 312.27243,373.16757 316.77776,371.94333 C 319.73993,371.13841 321.48051,370.47486 324.88391,370.47486 C 327.58596,370.47486 330.288,370.47486 332.99005,370.47486 C 337.94381,370.47486 342.89757,370.47486 347.85133,370.47486 C 350.72701,370.47486 354.04414,374.42186 356.40782,376.34873 C 361.21486,380.26741 366.53816,389.50311 372.16978,391.0334 C 375.85306,392.03427 379.47229,394.08934 383.42832,394.94931 C 387.29822,395.79057 392.05716,394.94931 396.03789,394.94931 C 399.89065,394.94931 405.80987,392.33079 409.09779,390.54392 C 412.65557,388.61039 416.73032,386.72925 417.65429,382.71209 C 418.57427,378.71226 417.07787,375.46769 415.40258,372.43282 C 413.35892,368.73064 412.87371,366.18249 414.5019,362.64303 C 416.7692,357.71425 420.7141,354.0884 424.85975,351.38479 C 433.14119,345.98398 442.72318,341.49124 451.42991,337.1896 C 455.14895,335.35218 457.25777,332.89975 458.18503,328.86829 C 458.91903,325.67707 457.99934,322.10125 456.83401,319.56799 C 454.06534,313.54929 451.56517,312.05442 446.47615,309.28872 C 439.33423,305.40734 433.0031,305.19617 425.76043,307.82026 C 414.00088,312.08085 402.39061,316.28736 390.63378,320.54697 C 383.89407,322.98883 377.1465,325.55799 370.36841,327.39982 C 366.07387,328.56679 362.33644,328.86829 357.75885,328.86829 C 355.92432,328.86829 355.75568,328.95602 353.70577,329.84726 z "
       id="path5165" />
    <path
       style="color:#000000;fill:#b4cacc;fill-opacity:1;fill-rule:nonzero;stroke:none;stroke-width:3.9000001;stroke-linecap:butt;stroke-linejoin:miter;marker:none;marker-start:none;marker-mid:none;marker-end:none;stroke-miterlimit:4;stroke-dasharray:none;stroke-dashoffset:0;stroke-opacity:1;visibility:visible;display:inline;overflow:visible"
       id="path1435"
       d="M 340.69624,335.12532 C 343.04181,337.74058 346.05649,338.85913 343.55785,342.04306 C 336.59549,347.31208 323.64602,357.84066 353.92873,333.84823 C 355.36633,332.70925 351.02332,336.09466 349.63864,337.29044 C 344.81772,341.45371 340.70915,346.06762 336.86565,351.03096 C 334.31231,355.58603 328.69815,362.52465 337.49951,360.76921 C 336.66477,363.7237 364.00018,345.15377 361.46939,347.11957 C 332.81926,369.37367 342.95,362.02331 349.16621,356.5879 C 353.08121,353.43544 356.64253,347.06792 357.67232,343.73173 C 348.63336,344.40971 341.33942,349.48657 334.52939,354.72767 L 343.86504,330.08773 C 353.97365,323.81728 366.32458,318.38078 377.92867,324.30534 C 387.09854,332.71547 383.71755,342.58092 376.44402,351.41137 C 364.39542,365.79795 343.45412,382.20111 322.48384,383.30298 C 307.90117,381.97377 303.53704,369.00639 309.96764,357.68294 C 320.32608,340.724 337.06122,326.85138 354.68198,317.02023 C 360.67518,315.09777 365.01748,317.19588 367.616,322.75393 L 340.69624,335.12532 z " />
    <path
       style="color:#000000;fill:#b4cacc;fill-opacity:1;fill-rule:nonzero;stroke:none;stroke-width:3.9000001;stroke-linecap:butt;stroke-linejoin:miter;marker:none;marker-start:none;marker-mid:none;marker-end:none;stroke-miterlimit:4;stroke-dasharray:none;stroke-dashoffset:0;stroke-opacity:1;visibility:visible;display:inline;overflow:visible"
       id="path1441"
       d="M 338.89277,340.00262 C 335.7701,338.02219 333.02774,335.55245 330.13239,333.28739 C 322.43871,327.22535 314.14076,321.95328 305.13052,317.81165 C 296.10011,314.13497 286.18538,311.8262 276.68518,315.0499 C 269.28248,320.22778 258.29762,329.9961 290.41839,304.7902 C 292.91623,302.83009 285.56434,309.34767 284.8546,312.33667 C 284.6578,317.5084 287.88544,321.3808 290.74146,325.48618 C 299.66845,340.16544 277.30082,346.77012 266.67635,355.24976 C 300.96392,325.76082 270.61883,352.25245 264.37914,363.32459 C 261.82195,368.35134 260.81677,373.29332 263.37931,378.1472 C 270.83959,380.2658 279.16218,377.71506 286.44172,375.70947 C 297.54183,372.43837 307.82763,367.29217 317.67632,361.54567 C 320.48085,359.86562 323.26039,358.14889 326.01205,356.39313 L 315.6231,381.7018 C 312.7899,383.27578 309.97004,384.87305 307.06793,386.33372 C 296.47051,391.57886 285.43446,396.10284 273.81476,398.93184 C 263.09378,401.41497 250.61252,403.59152 241.59379,396.14972 C 235.27604,388.94483 234.70904,380.42723 237.62228,371.60414 C 244.83829,353.47303 259.80442,341.49849 275.90662,329.85573 C 293.99548,317.22125 252.8957,339.77904 266.92656,341.54888 C 263.86223,336.04836 259.89111,330.86678 259.14882,324.48023 C 257.60454,307.59414 271.63722,293.97375 290.04655,291.36362 C 301.77013,290.66748 313.09338,293.23442 323.64369,298.09682 C 333.1564,302.68353 341.91508,308.35467 350.52469,314.30399 C 351.51843,314.91868 358.7764,319.44735 354.98543,316.20105 L 338.89277,340.00262 z " />
    <path
       style="color:#000000;fill:#b4cacc;fill-opacity:1;fill-rule:nonzero;stroke:none;stroke-width:3.9000001;stroke-linecap:butt;stroke-linejoin:miter;marker:none;marker-start:none;marker-mid:none;marker-end:none;stroke-miterlimit:4;stroke-dasharray:none;stroke-dashoffset:0;stroke-opacity:1;visibility:visible;display:inline;overflow:visible"
       id="path1443"
       d="M 352.04265,333.14753 C 364.00447,321.61828 369.90374,318.17642 382.89608,312.04924 C 395.98863,306.18256 409.53533,301.07587 423.55631,297.54438 C 436.00608,294.59172 448.32493,295.84625 459.38314,301.91065 C 467.70066,307.43648 471.80425,315.39023 471.72428,324.84037 C 468.44231,343.26877 447.25328,353.24279 430.04841,359.48431 C 421.63806,363.40721 410.55868,363.50148 403.35987,369.30483 C 425.25668,351.42069 417.09179,348.3545 424.14727,356.17025 C 429.32204,361.44724 432.43362,367.49194 433.24539,374.61286 C 433.55724,389.65154 420.7277,401.3257 405.35998,405.81494 C 397.10063,407.904 388.68138,406.54339 380.48856,404.89069 C 372.76916,403.22576 365.43172,400.55701 358.81313,396.46077 C 353.55599,392.97728 349.9419,388.04541 346.69153,382.93056 C 344.51326,379.33611 342.87885,375.50245 341.34118,371.63734 L 365.90202,356.93049 C 367.07024,360.31587 368.32717,363.67733 370.15247,366.81011 C 372.46303,370.68308 374.96549,374.45549 379.00374,376.93722 C 384.69754,380.06864 390.87251,382.22702 397.394,383.28811 C 404.13548,384.23068 410.94786,384.6466 416.79335,380.7904 C 424.52594,372.93026 392.6084,404.64154 407.14844,386.31041 C 407.78099,381.19934 405.96191,377.55242 402.10107,373.84625 C 388.90912,360.41323 391.20295,357.47843 414.41696,343.80135 C 423.6658,341.90842 432.81263,339.37318 441.47488,335.74657 C 446.11852,333.67188 458.54669,325.02171 454.59684,328.11974 C 421.85492,353.80045 439.32151,341.97002 445.15293,335.11737 C 447.00706,329.41226 445.44685,324.75527 439.87335,321.37927 C 430.73521,317.08637 420.65872,317.86108 411.07258,320.65511 C 397.48755,324.48785 384.26361,329.64749 372.20333,336.72189 C 362.28966,342.67902 342.97714,357.86599 381.51182,328.12639 L 352.04265,333.14753 z " />
    <g
       id="g5158"
       transform="matrix(0.891631,0,0,0.969139,47.0231,6.344402)"
       style="opacity:1">
      <path
         id="path4262"
         d="M 257.5889,169.65462 C 251.31031,199.80331 269.55369,227.17047 284.32117,251.76467 C 279.88072,276.27887 251.87091,281.44208 233.02997,291.07585 C 212.60639,306.71618 245.16154,328.68406 261.06697,315.89905 C 306.1499,312.7175 350.88371,303.32738 392.60636,285.65134 C 445.8115,264.77652 493.71806,232.87138 546.62268,211.37318 C 578.43255,197.04264 605.54559,174.59257 634.67523,155.73457 C 647.17733,144.65351 673.96896,134.98395 664.89072,113.92239 C 653.14579,92.995357 629.1584,105.3197 614.72377,115.58954 C 601.45627,124.81301 576.81977,129.7559 569.88853,110.86139 C 558.8957,87.728641 537.34365,72.338118 521.94904,52.410575 C 500.38669,30.286725 463.71648,22.786891 437.07253,40.328844 C 387.31844,66.657331 334.62096,87.505595 286.7823,117.35324 C 268.22982,127.48163 257.01616,148.71141 257.5889,169.65462 z "
         style="color:#000000;fill:#000000;fill-opacity:1;fill-rule:nonzero;stroke:none;stroke-width:3.9000001;stroke-linecap:butt;stroke-linejoin:miter;marker:none;marker-start:none;marker-mid:none;marker-end:none;stroke-miterlimit:4;stroke-dasharray:none;stroke-dashoffset:0;stroke-opacity:1;visibility:visible;display:inline;overflow:visible" />
      <path
         sodipodi:nodetypes="ccccccssccccccccccccc"
         d="M 453.90708,45.492257 C 448.73078,49.399249 428.49836,54.855929 419.0015,58.43775 C 376.53568,74.641894 337.43925,96.708174 301.33552,121.84344 C 309.33189,113.41602 278.56721,139.77491 272.07684,151.24214 C 275.48089,154.40087 292.17935,150.33853 299.19304,148.80732 C 332.6147,140.90087 364.21135,128.04541 394.59978,113.799 C 418.75358,102.15981 441.84346,88.852464 463.6118,74.094183 C 469.53008,70.081769 486.84971,57.575089 480.96755,61.627215 C 469.69203,69.394741 461.69761,75.768506 471.50421,68.077197 C 478.27116,63.795544 487.80988,52.64964 489.20774,48.746791 C 477.25294,47.027417 464.96681,42.791764 453.49297,45.689382 L 470.22653,21.053335 C 484.12796,18.634812 497.02834,23.583363 510.59451,28.085293 C 529.77562,38.364324 511.11052,55.357053 499.95512,64.079043 C 464.81949,91.424874 425.8405,114.8621 384.57746,134.71483 C 353.01655,149.51404 320.27829,162.94141 285.6347,171.36283 C 270.52458,174.69995 245.78579,180.36464 242.47972,161.5747 C 248.30662,133.92706 290.23334,118.1813 309.97799,100.4346 C 347.70891,76.049378 387.77035,54.386118 430.13441,36.556769 C 442.95299,31.11193 458.18445,22.425083 471.95,20.940411 L 453.90708,45.492257 z "
         id="path1411"
         style="color:#000000;fill:#b4cacc;fill-opacity:1;fill-rule:nonzero;stroke:none;stroke-width:3.9000001;stroke-linecap:butt;stroke-linejoin:miter;marker:none;marker-start:none;marker-mid:none;marker-end:none;stroke-miterlimit:4;stroke-dasharray:none;stroke-dashoffset:0;stroke-opacity:1;visibility:visible;display:inline;overflow:visible" />
      <path
         d="M 513.88207,22.657905 C 517.9677,28.019046 522.73733,33.001995 527.45679,37.958878 C 542.15759,52.959709 558.15742,66.97172 571.618,82.863964 C 583.96501,97.207354 591.81187,113.83541 594.60945,131.53618 L 567.35139,144.05728 C 566.38648,127.61951 559.50366,112.2329 548.40204,98.918544 C 535.36602,83.121664 519.79354,69.137864 504.22456,55.224262 C 499.73583,51.17823 492.88286,44.790145 488.82432,42.045837 L 513.88207,22.657905 z "
         id="path1415"
         style="color:#000000;fill:#b4cacc;fill-opacity:1;fill-rule:nonzero;stroke:none;stroke-width:3.9000001;stroke-linecap:butt;stroke-linejoin:miter;marker:none;marker-start:none;marker-mid:none;marker-end:none;stroke-miterlimit:4;stroke-dasharray:none;stroke-dashoffset:0;stroke-opacity:1;visibility:visible;display:inline;overflow:visible" />
      <path
         d="M 261.87995,152.29041 C 268.3496,156.19899 268.08385,160.93191 269.22173,167.25873 C 271.9962,181.69609 276.26078,195.89261 282.49423,209.50081 C 289.96877,225.29625 301.10037,239.57245 314.18623,252.26664 C 318.18705,256.22958 322.72841,259.70439 327.47185,262.97154 L 304.43562,281.96985 C 299.52288,278.07185 294.78348,274.01222 290.62807,269.48354 C 277.57735,255.53932 266.10503,240.38238 257.58549,223.98484 C 250.7496,210.13978 245.91315,195.69514 241.76787,181.08773 C 239.9625,175.20019 235.90846,169.36843 243.83139,176.84991 L 261.87995,152.29041 z "
         id="path1417"
         style="color:#000000;fill:#b4cacc;fill-opacity:1;fill-rule:nonzero;stroke:none;stroke-width:3.9000001;stroke-linecap:butt;stroke-linejoin:miter;marker:none;marker-start:none;marker-mid:none;marker-end:none;stroke-miterlimit:4;stroke-dasharray:none;stroke-dashoffset:0;stroke-opacity:1;visibility:visible;display:inline;overflow:visible" />
      <path
         d="M 310.77145,254.81424 C 298.52894,266.32481 285.10655,272.46225 270.75114,281.03107 C 273.85266,278.26319 233.38449,306.15704 238.14631,302.75205 C 270.87954,279.34586 252.343,292.39513 245.17897,298.50441 C 231.27473,306.87934 259.2502,303.86859 265.538,303.63358 C 312.20367,300.43656 357.01666,287.25762 400.24744,272.37829 C 457.23022,252.46782 510.87617,226.19552 562.44856,197.41004 C 612.81815,167.1103 625.85718,159.85209 647.68065,138.08961 C 653.10613,131.89482 661.71668,125.25524 651.49646,120.53736 C 643.24924,118.04332 634.56358,118.29967 626.12013,119.73768 C 613.67522,122.48091 601.78567,126.76638 590.2049,131.51629 C 582.52883,134.746 575.1076,138.39875 567.87363,142.31341 L 579.88932,116.34981 C 587.41818,112.85526 595.07558,109.5655 602.95567,106.70259 C 615.51443,102.20929 628.28363,97.633624 641.73991,95.679124 C 652.41015,94.916834 663.20069,95.765314 672.90996,99.972624 C 688.26657,108.46518 688.67966,121.27984 676.47549,132.94367 C 642.39078,166.92534 596.5699,190.80889 554.15941,216.00631 C 501.88659,244.55603 447.71993,270.78444 390.3463,290.86828 C 345.44888,306.40931 299.05871,320.1309 250.75976,324.69901 C 235.53647,325.68166 199.94771,324.7314 214.6254,303.77873 C 233.12197,284.65878 258.78196,271.64393 281.14259,256.25705 C 292.04575,249.1623 324.5854,227.19193 277.72059,259.99528 L 310.77145,254.81424 z "
         id="path1429"
         style="color:#000000;fill:#b4cacc;fill-opacity:1;fill-rule:nonzero;stroke:none;stroke-width:3.9000001;stroke-linecap:butt;stroke-linejoin:miter;marker:none;marker-start:none;marker-mid:none;marker-end:none;stroke-miterlimit:4;stroke-dasharray:none;stroke-dashoffset:0;stroke-opacity:1;visibility:visible;display:inline;overflow:visible" />
    </g>
    <path
       style="color:#000000;fill:#303030;fill-opacity:1;fill-rule:nonzero;stroke:none;stroke-width:3.9000001;stroke-linecap:butt;stroke-linejoin:miter;marker:none;marker-start:none;marker-mid:none;marker-end:none;stroke-miterlimit:4;stroke-dasharray:none;stroke-dashoffset:0;stroke-opacity:1;visibility:visible;display:inline;overflow:visible"
       d="M 716.23069,262.78723 C 756.68707,327.78753 798.25502,379.1803 831.71432,463.57492 C 864.32089,502.60825 869.67654,567.13089 848.88454,612.29212 C 844.75687,645.00815 820.7263,681.88626 787.1496,679.35035 C 752.13308,696.20814 712.9817,700.66481 676.72896,696.74662 C 628.60314,704.44715 581.29697,686.6552 537.28716,667.5649 C 503.88194,658.14452 468.80618,651.13162 439.48968,630.15648 C 422.98992,605.6008 439.96055,576.56865 443.39049,550.65021 C 447.7336,495.09292 441.47498,433.08576 474.44043,385.89553 C 503.61883,337.80477 554.33961,314.06015 602.05541,294.40652 C 633.94426,277.15165 664.66323,246.72208 702.63286,251.85933 C 708.06195,253.80432 713.18901,257.41462 716.23069,262.78723 z "
       id="path7841"
       sodipodi:nodetypes="cccccccccccc" />
    <path
       style="color:#000000;fill:#b4cacc;fill-opacity:1;fill-rule:nonzero;stroke:none;stroke-width:3.9000001;stroke-linecap:butt;stroke-linejoin:miter;marker:none;marker-start:none;marker-mid:none;marker-end:none;stroke-miterlimit:4;stroke-dasharray:none;stroke-dashoffset:0;stroke-opacity:1;visibility:visible;display:inline;overflow:visible"
       id="path1519"
       d="M 468.49246,493.3578 C 468.47574,496.57219 467.55408,499.94665 467.07458,503.1946 C 465.29583,516.3072 463.03997,529.36263 460.57685,542.37563 C 457.47405,558.79313 453.43409,575.0372 448.847,591.1388 C 447.44412,598.39912 443.04289,605.6412 443.80524,613.03625 C 454.03118,628.3024 473.21172,637.39696 489.64309,645.68325 C 534.54791,666.80033 583.90029,678.67437 633.26649,686.1205 C 688.89997,694.1727 740.89329,685.9813 792.96505,666.03568 C 815.42686,660.69395 819.81417,655.37645 837.22956,635.9874 C 838.17137,622.0809 858.45558,609.90386 859.57663,626.30414 C 858.08776,659.33275 815.9225,676.59794 787.7949,687.28187 C 734.4397,704.43577 677.7374,708.90274 621.95045,700.98181 C 571.21039,693.44919 520.71963,682.02435 473.49698,662.65794 C 454.40846,654.10367 433.06882,644.76241 420.37358,628.1634 C 415.50694,618.32988 419.19213,609.91711 422.97759,600.13517 C 428.34173,584.36387 432.90239,568.33157 435.97668,552.01514 C 438.18547,539.46499 439.85994,526.83326 440.89808,514.14802 C 441.04684,511.84266 441.12691,506.9543 441.5727,505.72918 L 468.49246,493.3578 z "
       sodipodi:nodetypes="ccccccccccccccccccc" />
    <path
       style="color:#000000;fill:#b4cacc;fill-opacity:1;fill-rule:nonzero;stroke:none;stroke-width:3.9000001;stroke-linecap:butt;stroke-linejoin:miter;marker:none;marker-start:none;marker-mid:none;marker-end:none;stroke-miterlimit:4;stroke-dasharray:none;stroke-dashoffset:0;stroke-opacity:1;visibility:visible;display:inline;overflow:visible"
       id="path1567"
       d="M 735.99536,273.55295 C 732.90278,272.1416 744.61882,291.09278 747.41988,295.89262 C 765.94448,327.68419 786.96187,358.0942 806.76218,389.17495 C 831.57132,428.47213 853.07588,469.9562 866.24112,514.08397 C 875.70562,547.38122 874.99073,582.00772 865.19794,615.08966 C 861.49392,626.9801 856.2677,638.37401 850.09812,649.29888 L 824.23569,655.97917 C 831.31948,645.68018 837.32679,634.74377 841.66882,623.15107 C 853.14495,591.4574 855.37597,557.72619 847.06037,525.03082 C 835.42275,481.1022 814.68751,439.87606 789.36811,401.51989 C 769.13777,370.79489 747.79525,340.7494 726.67623,310.56489 C 720.88661,302.30627 715.06077,294.0334 709.0756,285.92434 L 735.99536,273.55295 z " />
    <path
       style="color:#000000;fill:#0b708c;fill-opacity:1;fill-rule:nonzero;stroke:none;stroke-width:3.9000001;stroke-linecap:butt;stroke-linejoin:miter;marker:none;marker-start:none;marker-mid:none;marker-end:none;stroke-miterlimit:4;stroke-dasharray:none;stroke-dashoffset:0;stroke-opacity:1;visibility:visible;display:inline;overflow:visible"
       d="M 880.69795,513.75787 C 910.18433,585.26172 926.71797,661.81474 947.40602,736.59075 C 948.55471,766.12403 915.29001,763.83983 896.99225,758.19755 C 860.11207,750.9353 822.30803,749.84567 785.30266,742.91274 C 734.98538,738.3377 685.9473,756.58664 640.97441,779.12953 C 601.55811,789.50429 560.58903,785.21204 520.49913,789.29156 C 482.76045,790.96597 439.28452,790.98195 410.31959,760.44798 C 390.03282,733.75337 404.13651,696.65726 422.00856,673.22763 C 441.28883,644.96259 470.51151,626.10609 502.17459,619.57385 C 540.01416,606.29528 577.55768,587.64115 618.27913,589.82544 C 686.49484,588.23013 757.46272,611.30047 822.73939,584.31591 C 845.47321,577.9755 864.82095,537.60905 879.85988,513.98151 C 882.11266,507.94711 886.05838,517.9999 880.69795,513.75787 z "
       id="path7913"
       sodipodi:nodetypes="ccccccccccccc" />
    <path
       style="opacity:1;color:#000000;fill:#ffffff;fill-opacity:1;fill-rule:nonzero;stroke:none;stroke-width:3.9000001;stroke-linecap:butt;stroke-linejoin:miter;marker:none;marker-start:none;marker-mid:none;marker-end:none;stroke-miterlimit:4;stroke-dasharray:none;stroke-dashoffset:0;stroke-opacity:1;visibility:visible;display:inline;overflow:visible"
       d="M 489.16638,648.71942 C 475.57784,657.24488 461.95017,665.70797 448.38641,674.27291 C 461.98419,666.1149 475.67162,658.08046 488.80208,649.17725 C 475.36531,654.05513 465.12487,664.56451 452.56876,671.06731 C 442.58679,680.08161 439.29448,693.72059 436.39314,706.31608 C 432.41928,717.45742 429.17652,730.58412 435.19537,741.62407 C 441.26293,750.49042 453.0343,751.37678 462.83315,751.48108 C 489.16021,752.12554 515.77374,740.49681 532.57022,720.10785 C 544.42497,703.79807 547.15745,679.74941 535.21605,662.73847 C 526.60613,651.08051 511.08334,646.82295 497.16648,648.29795 C 494.49723,648.38442 491.83132,648.54869 489.16638,648.71942 z "
       id="path9798" />
    <path
       style="color:#000000;fill:#b4cacc;fill-opacity:1;fill-rule:nonzero;stroke:none;stroke-width:3.9000001;stroke-linecap:butt;stroke-linejoin:miter;marker:none;marker-start:none;marker-mid:none;marker-end:none;stroke-miterlimit:4;stroke-dasharray:none;stroke-dashoffset:0;stroke-opacity:1;visibility:visible;display:inline;overflow:visible"
       id="path1635"
       d="M 692.49911,607.17241 C 687.50464,605.46201 681.97251,605.35602 676.74519,605.01733 C 649.01084,603.87892 621.18657,604.50621 593.53073,607.05163 C 553.63228,611.29945 514.0961,620.67513 476.82092,636.85051 C 432.92239,664.45487 438.6836,649.65446 421.10932,689.76322 C 412.62465,712.14183 418.27261,736.05831 433.09491,753.38715 C 450.70252,771.52017 475.07019,778.05407 498.43309,781.63612 C 524.98447,785.43848 551.78606,782.89477 578.10953,778.39284 C 604.63583,773.74935 630.67962,766.44771 656.53921,758.62382 C 677.54119,751.96975 698.58455,745.5002 719.98402,740.52703 C 739.52965,735.76901 759.54171,734.20706 779.51594,733.61885 C 807.29907,732.69031 835.02671,735.55455 862.61513,738.792 C 885.50598,741.31481 908.23367,745.52834 931.16457,747.62541 C 950.91423,750.64762 963.19253,731.02121 934.49818,758.958 C 941.1581,749.98707 934.23925,733.49949 931.4417,723.73579 C 923.30836,697.89039 914.6558,672.25399 907.05337,646.21096 C 899.49439,619.75718 892.4598,593.11734 886.23975,566.25291 C 882.51586,554.03975 881.87903,538.29288 875.1847,528.08575 C 879.48092,539.00262 869.40123,539.24137 893.98926,517.3268 C 896.71397,514.89835 888.57799,522.28745 886.292,525.20197 C 881.9896,530.68731 878.03581,536.50032 874.00067,542.21652 C 859.18792,563.36902 842.63044,582.9913 824.66094,601.00857 C 805.65697,620.13899 785.37463,638.45427 759.94527,645.7248 C 752.39899,647.75264 744.66218,648.71896 736.92934,649.41365 L 750.95449,623.69749 C 758.13757,622.90003 765.29958,621.69112 772.17843,619.22372 C 788.82587,613.03004 825.43036,580.56086 795.30006,608.66533 C 794.11836,609.76758 797.71732,606.53097 798.92597,605.46379 C 817.19209,588.53037 834.00739,569.739 848.25509,548.69142 C 858.28567,534.01704 877.54042,493.49555 896.35796,506.46959 C 905.47616,518.99618 904.60929,536.94415 908.76632,551.70229 C 914.41391,578.60009 920.6791,605.35889 928.30516,631.68273 C 935.87544,657.55723 944.88164,682.87793 953.76023,708.24569 C 958.34312,721.81076 964.27327,736.45208 962.52844,751.15925 C 943.22784,771.26141 939.62494,776.90464 915.61346,771.92122 C 893.21554,768.28502 870.9437,763.67347 848.40504,761.09587 C 821.04946,757.74756 793.486,755.65645 765.96167,757.58231 C 746.29128,758.96048 726.64937,761.31995 707.39324,766.0186 C 686.40164,771.00907 665.67432,777.19925 644.92304,783.23735 C 618.81298,790.8306 592.54326,797.95259 565.75797,802.14756 C 538.59822,806.4845 511.045,808.68543 483.76565,804.01015 C 458.33866,799.66663 432.4253,791.9299 413.34832,772.08162 C 396.18258,752.14736 389.15543,724.63463 396.87987,698.21381 C 411.97673,656.91916 450.19739,630.30604 486.6394,614.13239 C 524.90339,598.84939 565.09029,589.7164 605.58263,585.01067 C 634.18181,582.12597 662.9157,581.01403 691.61643,580.08359 C 696.87635,580.01964 704.11967,580.39829 708.59176,579.71616 L 692.49911,607.17241 z " />
    <path
       style="color:#000000;fill:#b4cacc;fill-opacity:1;fill-rule:nonzero;stroke:none;stroke-width:3.9000001;stroke-linecap:butt;stroke-linejoin:miter;marker:none;marker-start:none;marker-mid:none;marker-end:none;stroke-miterlimit:4;stroke-dasharray:none;stroke-dashoffset:0;stroke-opacity:1;visibility:visible;display:inline;overflow:visible"
       id="path1637"
       d="M 487.14335,660.03722 C 486.60722,661.16387 482.26398,662.13954 480.46471,662.78622 C 478.32495,660.76435 454.82285,679.80194 455.63865,679.07018 C 483.91195,653.7092 470.57046,665.29759 464.59021,671.3552 C 453.69917,683.1084 443.69132,697.25275 443.90716,714.54441 C 447.30096,730.62131 461.57467,736.62539 475.43366,737.37726 C 495.66326,736.96062 515.1093,727.45077 530.12326,712.98878 C 525.25215,717.36439 520.41275,721.78204 515.50993,726.11561 C 512.80094,728.51007 520.70226,721.01296 522.99466,718.15027 C 529.75249,709.71123 532.05075,700.57673 531.98434,689.6041 C 531.29114,677.84807 525.1157,670.67829 515.83737,665.64354 C 507.33289,661.76704 498.13312,660.37727 488.96368,660.66888 C 482.79693,661.05627 477.06652,663.20567 471.75706,666.51121 C 471.668,666.44594 470.18957,667.68721 470.13054,667.73149 L 481.341,638.52921 C 482.06441,638.23041 482.78507,637.92376 483.51122,637.63281 C 490.30098,635.39107 497.27233,634.01043 504.4098,634.60839 C 514.83724,635.52375 525.19816,637.73668 534.59452,642.94169 C 546.22081,650.27051 554.9559,660.59418 556.5422,675.71952 C 559.32587,705.78687 543.03698,723.31673 521.40807,740.37669 C 503.75244,753.94877 482.27806,762.46175 460.47156,761.3272 C 442.46073,759.12101 425.11059,749.18426 419.81267,729.06255 C 416.0057,709.03021 426.65767,691.09371 438.31206,676.5861 C 453.38327,658.61232 471.76695,642.94362 493.0056,634.75759 C 496.29203,633.605 499.78928,631.95064 503.236,632.58098 L 487.14335,660.03722 z " />
    <path
       style="color:#000000;fill:#000000;fill-opacity:1;fill-rule:nonzero;stroke:none;stroke-width:3.9000001;stroke-linecap:butt;stroke-linejoin:miter;marker:none;marker-start:none;marker-mid:none;marker-end:none;stroke-miterlimit:4;stroke-dasharray:none;stroke-dashoffset:0;stroke-opacity:1;visibility:visible;display:inline;overflow:visible"
       id="path1641"
       d="M 481.38081,711.50699 C 487.05307,717.38538 482.65076,718.3184 486.54209,687.7943 C 485.00114,689.79283 485.30476,691.7705 485.22231,693.95104 C 486.95103,695.26034 485.97769,692.17644 486.28858,691.4461 C 484.55794,673.74204 481.17776,728.0691 483.41514,708.18327 C 483.38251,706.79272 482.90526,703.91226 482.78753,703.18727 C 483.69538,704.91659 483.31672,707.50442 483.35232,709.58188 C 483.3853,709.84243 483.41828,710.10299 483.45126,710.36355 L 472.29754,680.95288 C 472.45111,680.60707 472.60468,680.26125 472.75824,679.91544 C 475.88708,674.56594 479.75188,671.19651 485.87951,671.32177 C 491.5558,672.50034 495.80193,675.09297 498.50042,680.92632 C 503.54996,694.05928 502.7946,712.07846 493.35523,722.43276 C 488.33575,725.93609 483.24813,727.21204 477.47542,724.77208 C 472.82357,722.05102 469.14909,718.61056 468.06812,712.69929 C 469.30558,702.95426 466.49045,685.45205 476.14373,679.45395 L 481.38081,711.50699 z " />
    <path
       style="color:#000000;fill:#303030;fill-opacity:1;fill-rule:nonzero;stroke:none;stroke-width:3.9000001;stroke-linecap:butt;stroke-linejoin:miter;marker:none;marker-start:none;marker-mid:none;marker-end:none;stroke-miterlimit:4;stroke-dasharray:none;stroke-dashoffset:0;stroke-opacity:1;visibility:visible;display:inline;overflow:visible"
       d="M 509.23159,552.33364 C 526.17916,613.94726 534.30906,681.71088 573.04081,732.99677 C 600.23681,767.72769 639.67551,791.34407 681.37123,796.82502 C 709.7792,797.22181 738.3497,789.45913 763.72566,775.80186 C 785.94941,760.69371 799.17817,734.91961 812.64997,711.38466 C 825.02221,687.61727 829.26118,659.40494 824.23738,632.62466 C 818.94288,595.40774 807.10396,559.35082 791.81448,525.7078 C 774.92875,497.60745 747.96897,478.5322 720.52592,464.41431 C 678.79092,446.31867 631.04943,449.51357 589.23687,465.5716 C 553.1106,480.5134 519.93421,510.66909 509.23159,552.33364 z "
       id="path7931" />
    <path
       style="color:#000000;fill:#b4cacc;fill-opacity:1;fill-rule:nonzero;stroke:none;stroke-width:3.9000001;stroke-linecap:butt;stroke-linejoin:miter;marker:none;marker-start:none;marker-mid:none;marker-end:none;stroke-miterlimit:4;stroke-dasharray:none;stroke-dashoffset:0;stroke-opacity:1;visibility:visible;display:inline;overflow:visible"
       id="path1571"
       d="M 515.23295,530.57071 C 516.68282,537.96692 518.34528,545.31393 519.9315,552.67473 C 527.79082,588.25685 536.19422,623.73123 548.37726,657.84048 C 564.22039,700.51094 587.56032,740.97056 625.52873,767.38757 C 661.8678,790.56311 708.83439,788.78407 749.86348,768.63007 C 797.42352,736.68577 805.82222,725.31511 817.68105,679.93222 C 828.18498,628.2012 811.66078,578.76189 789.21373,535.06866 L 804.17382,519.05411 C 825.65265,564.49967 843.32909,614.53787 835.48746,667.48306 C 825.3122,717.27518 792.23404,765.10362 744.53211,789.64619 C 700.78787,809.12113 650.90908,810.20624 612.87647,785.74011 C 574.16491,758.14826 550.40614,716.59721 533.23738,673.09415 C 520.44851,639.82707 511.02233,605.28922 500.52949,571.13391 C 498.45688,564.61331 496.50241,557.97436 493.53615,551.8406 L 515.23295,530.57071 z " />
    <g
       id="g7801"
       transform="matrix(0.891631,0,0,0.969139,47.0231,6.344402)">
      <path
         id="path6921"
         d="M 634.37579,162.58356 C 643.80219,195.08118 619.06617,226.71572 591.28528,240.72711 C 554.19992,261.21557 521.05734,287.76463 487.91988,313.87429 C 465.34147,329.68271 445.40082,348.83124 423.82206,365.807 C 395.28141,393.00564 383.96052,436.62365 396.81904,474.06937 C 402.17877,490.45527 401.21543,516.06546 421.84625,521.03548 C 445.23153,522.31976 460.54328,500.79169 480.24613,491.81802 C 507.53417,476.01468 539.65878,461.21198 553.62079,431.10086 C 554.23244,412.85111 512.66345,405.84423 534.47114,385.21844 C 551.993,373.81433 572.20939,367.04955 589.91457,355.58841 C 626.14533,339.11469 663.95267,326.0933 698.8863,306.7908 C 718.19868,295.29907 745.26917,292.87792 755.67743,270.23843 C 763.40902,251.54414 741.83538,240.27083 727.90603,233.90445 C 709.01273,226.63975 690.5954,216.89312 678.14123,200.41189 C 666.48584,186.76514 656.91405,171.25338 643.41254,159.25035 C 640.00476,157.756 636.58349,160.2121 634.37579,162.58356 z "
         style="opacity:1;color:#000000;fill:#434343;fill-opacity:1;fill-rule:nonzero;stroke:none;stroke-width:3.9000001;stroke-linecap:butt;stroke-linejoin:miter;marker:none;marker-start:none;marker-mid:none;marker-end:none;stroke-miterlimit:4;stroke-dasharray:none;stroke-dashoffset:0;stroke-opacity:1;visibility:visible;display:inline;overflow:visible" />
      <path
         d="M 652.50206,150.49351 C 647.30579,145.048 660.77245,162.13085 662.9353,164.52619 C 681.25032,183.9446 703.50143,200.21919 726.41472,215.39552 C 742.45785,228.36094 771.28982,235.95576 777.88905,255.81357 C 778.12748,283.25767 739.78409,301.04309 716.06574,313.77973 C 686.60955,329.14791 655.79144,342.42467 625.16667,355.92667 C 596.45058,368.37507 567.90235,381.10904 539.5841,394.22427 C 521.9273,399.55928 489.27121,427.03655 528.75984,394.63768 C 521.76769,387.31466 539.38773,395.94354 542.85683,397.16966 C 551.75174,400.25623 560.33439,403.9144 567.49136,409.49378 C 573.25028,414.43264 576.02967,420.39716 574.78196,427.34183 C 563.60398,445.97843 540.602,457.53388 521.52572,469.92363 C 502.21856,482.23354 482.66489,494.28145 464.10765,507.44385 C 462.95356,508.27907 459.48959,510.78296 460.6454,509.94954 C 498.19311,482.87447 452.58296,517.88296 443.79614,527.22412 C 438.57466,532.91068 445.08975,525.79674 440.15071,531.24652 L 409.74199,537.29509 C 412.24459,534.41488 410.96169,535.86452 413.59309,532.94774 C 431.15115,514.09814 451.44314,497.49478 473.85395,482.94986 C 492.78348,470.28033 512.4898,458.51218 531.32858,445.73896 C 571.19162,418.51931 505.1753,465.62515 543.88029,435.98371 C 546.96263,433.11678 546.56407,431.46753 543.43932,428.3996 C 537.29117,423.76337 529.9482,420.74891 522.3782,418.19288 C 512.58672,414.90358 501.06564,413.30006 497.44944,403.68924 C 499.37739,387.65984 536.13836,378.0733 551.07095,370.75141 C 579.43443,358.65108 607.77904,346.51523 635.92572,334.03896 C 666.60321,320.56412 697.4273,307.12099 726.22823,290.75657 C 734.52289,285.85556 763.36576,265.19924 730.52881,289.35403 C 726.77591,292.11465 755.5146,268.80271 750.68028,269.15003 C 748.75164,252.03514 717.95929,243.80065 706.34216,232.3407 C 683.15554,216.41837 660.17271,200.12472 639.75311,181.51246 C 633.70145,175.88945 626.08152,168.66015 622.31046,163.25886 L 652.50206,150.49351 z "
         id="path1451"
         style="opacity:1;color:#000000;fill:#b4cacc;fill-opacity:1;fill-rule:nonzero;stroke:none;stroke-width:3.9000001;stroke-linecap:butt;stroke-linejoin:miter;marker:none;marker-start:none;marker-mid:none;marker-end:none;stroke-miterlimit:4;stroke-dasharray:none;stroke-dashoffset:0;stroke-opacity:1;visibility:visible;display:inline;overflow:visible" />
      <path
         d="M 651.49191,159.25044 C 651.32839,162.43284 650.57537,165.87294 650.30859,169.18257 C 650.38882,184.32608 646.5166,198.38763 637.77762,211.54203 C 610.60377,245.64033 569.48263,269.09769 531.0804,292.85998 C 482.9545,325.54604 468.83441,329.28625 430.46877,372.85738 C 408.8708,398.2379 397.64141,428.94256 403.83284,460.31414 C 408.00205,477.93231 417.72414,494.09422 432.2474,506.88511 C 437.04781,510.95434 442.61281,513.58247 449.14137,514.67236 L 429.13509,537.02187 C 421.32785,534.23324 414.43737,530.29423 408.81136,524.72948 C 393.64759,510.02856 383.97373,491.60947 379.08202,472.4466 C 372.11667,438.84843 383.01309,405.50523 405.68282,377.84837 C 441.75152,335.60718 491.52235,304.06744 539.49928,272.71366 C 584.5204,243.94633 571.32182,256.33948 609.5025,218.15761 C 617.83835,206.80784 622.27683,194.63928 621.42985,181.10691 C 621.39175,178.80356 620.87427,172.86256 621.30031,172.01577 L 651.49191,159.25044 z "
         id="path1555"
         style="opacity:1;color:#000000;fill:#b4cacc;fill-opacity:1;fill-rule:nonzero;stroke:none;stroke-width:3.9000001;stroke-linecap:butt;stroke-linejoin:miter;marker:none;marker-start:none;marker-mid:none;marker-end:none;stroke-miterlimit:4;stroke-dasharray:none;stroke-dashoffset:0;stroke-opacity:1;visibility:visible;display:inline;overflow:visible" />
    </g>
    <path
       style="color:#000000;fill:#0b708c;fill-opacity:1;fill-rule:nonzero;stroke:none;stroke-width:3.9000001;stroke-linecap:butt;stroke-linejoin:miter;marker:none;marker-start:none;marker-mid:none;marker-end:none;stroke-miterlimit:4;stroke-dasharray:none;stroke-dashoffset:0;stroke-opacity:1;visibility:visible;display:inline;overflow:visible"
       d="M 227.25993,483.29923 C 202.7225,496.83889 176.46433,506.44867 149.68431,513.16866 C 134.69864,523.02726 111.74651,523.49933 104.9341,544.01205 C 102.61215,567.10453 121.72381,584.42318 128.9786,604.70515 C 158.25639,663.71064 175.30583,728.73826 204.02368,788.05964 C 220.7299,825.7689 240.65097,861.79575 256.40325,899.96687 C 262.20989,917.9192 262.2805,941.82516 279.54134,952.12127 C 300.81993,944.27942 290.50835,914.69402 291.91935,896.43229 C 289.51875,860.14569 270.46868,827.66619 270.97797,790.91052 C 270.78562,762.74695 269.46019,734.59068 264.16053,706.95309 C 256.82171,663.04685 250.05462,619.01644 245.84589,574.61414 C 242.38659,545.14177 239.61154,515.5317 234.29247,486.36165 C 232.85625,483.91988 229.91425,482.22098 227.25993,483.29923 z "
       id="path7897" />
    <path
       style="color:#000000;fill:#b4cacc;fill-opacity:1;fill-rule:nonzero;stroke:none;stroke-width:3.9000001;stroke-linecap:butt;stroke-linejoin:miter;marker:none;marker-start:none;marker-mid:none;marker-end:none;stroke-miterlimit:4;stroke-dasharray:none;stroke-dashoffset:0;stroke-opacity:1;visibility:visible;display:inline;overflow:visible"
       id="path1593"
       d="M 108.2192,528.79924 C 108.16535,535.6214 120.48963,562.16899 125.56928,573.35281 C 152.42335,630.36314 179.86402,687.03091 205.33999,744.79425 C 230.30788,801.21092 253.29465,858.61835 276.15541,916.06815 C 280.28035,925.22503 283.10624,935.34295 288.57001,943.74664 C 289.26112,944.80961 290.5637,947.49433 291.20809,946.39723 C 292.22644,944.66345 289.38791,940.3984 287.77807,941.47981 C 280.95391,946.06396 275.89286,953.19898 269.78777,958.85565 C 269.2148,959.38654 270.82409,957.63321 271.1438,956.89232 C 273.01909,952.5466 273.15008,947.07706 273.63553,942.42709 C 276.45345,883.53711 269.10779,824.57366 262.06263,766.29072 C 253.47178,696.81637 243.70613,627.51278 232.67397,558.44673 C 227.87401,535.45694 226.795,511.12725 219.31961,488.84959 C 227.09,497.07391 207.6118,503.11459 200.45326,506.97213 C 176.59003,519.85776 151.89749,530.80899 128.02543,543.67543 C 115.17755,550.64596 102.59059,558.24842 90.915101,567.36083 L 100.67342,539.5068 C 112.79643,531.63307 125.41987,524.72728 138.21384,518.24021 C 162.45156,506.01658 187.26661,495.01129 210.54066,480.65416 C 219.92048,474.75557 235.54603,455.9307 243.59327,471.79243 C 249.44998,496.16379 247.57313,522.29666 251.84553,546.97077 C 259.12846,617.19354 267.63539,687.2626 277.37946,757.13279 C 285.3936,814.7254 293.57209,872.4177 296.70098,930.62188 C 298.46886,985.81297 257.62532,975.65707 256.84942,929.9287 C 237.87039,870.64226 215.6221,812.60609 190.57862,756.04562 C 164.85163,698.83403 137.09998,642.71524 106.70445,588.26021 C 98.34385,573.12867 89.967004,557.98991 81.299435,543.07022 L 108.2192,528.79924 z " />
    <path
       style="color:#000000;fill:#b4cacc;fill-opacity:1;fill-rule:nonzero;stroke:none;stroke-width:3.9000001;stroke-linecap:butt;stroke-linejoin:miter;marker:none;marker-start:none;marker-mid:none;marker-end:none;stroke-miterlimit:4;stroke-dasharray:none;stroke-dashoffset:0;stroke-opacity:1;visibility:visible;display:inline;overflow:visible"
       id="path1595"
       d="M 149.32652,521.29353 C 146.21778,515.59417 144.59243,508.8135 142.40387,502.59649 C 134.97489,481.58308 126.65043,460.96871 118.48906,440.28537 C 106.6888,412.42079 110.39021,409.94019 135.19643,389.30844 C 147.48666,386.1256 156.9994,391.45758 161.74257,404.17114 C 165.95743,418.27148 165.61195,433.34332 165.94701,448.00221 C 166.15359,458.35508 166.55784,468.75769 168.87086,478.83865 C 169.9817,483.92294 172.65676,488.05908 175.52565,492.12176 C 177.67273,494.89264 179.64001,497.81473 181.59065,500.74907 L 158.54677,520.51886 C 156.7353,517.70343 154.90666,514.9017 152.90746,512.23732 C 149.31285,506.98156 145.95696,501.51243 144.37504,495.09935 C 141.6935,484.09337 141.13969,472.73411 141.11144,461.38003 C 140.97099,447.90398 141.47687,434.11987 138.27838,420.99175 C 135.38569,413.28151 130.17556,413.3661 124.0035,417.97324 C 149.48232,395.26059 131.95852,399.87708 140.83102,424.18485 C 147.82793,445.20853 156.09654,465.72952 165.04716,485.85031 C 166.10064,488.17973 172.87411,501.27597 171.66878,499.61884 L 149.32652,521.29353 z " />
  </g>
</svg>
