<?xml version="1.0" encoding="UTF-8" standalone="no"?>
<!-- Created with Inkscape (http://www.inkscape.org/) -->
<svg
   xmlns:dc="http://purl.org/dc/elements/1.1/"
   xmlns:cc="http://web.resource.org/cc/"
   xmlns:rdf="http://www.w3.org/1999/02/22-rdf-syntax-ns#"
   xmlns:svg="http://www.w3.org/2000/svg"
   xmlns="http://www.w3.org/2000/svg"
   xmlns:sodipodi="http://inkscape.sourceforge.net/DTD/sodipodi-0.dtd"
   xmlns:inkscape="http://www.inkscape.org/namespaces/inkscape"
   width="1000"
   height="1000"
   id="svg2"
   sodipodi:version="0.32"
   inkscape:version="0.43"
   version="1.0"
   sodipodi:docbase="/home/kkowal/tale/art/monster"
   sodipodi:docname="magus-borealis.svg"
   inkscape:export-filename="/home/kkowal/tale/art/monster/magus-borealis.png"
   inkscape:export-xdpi="90"
   inkscape:export-ydpi="90">
  <defs
     id="defs4" />
  <sodipodi:namedview
     id="base"
     pagecolor="#ffffff"
     bordercolor="#666666"
     borderopacity="1.0"
     inkscape:pageopacity="0.0"
     inkscape:pageshadow="2"
     inkscape:zoom="0.49497475"
     inkscape:cx="642.75833"
     inkscape:cy="531.49239"
     inkscape:document-units="px"
     inkscape:current-layer="layer1"
     inkscape:window-width="1590"
     inkscape:window-height="1121"
     inkscape:window-x="0"
     inkscape:window-y="25" />
  <metadata
     id="metadata7">
    <rdf:RDF>
      <cc:Work
         rdf:about="">
        <dc:format>image/svg+xml</dc:format>
        <dc:type
           rdf:resource="http://purl.org/dc/dcmitype/StillImage" />
      </cc:Work>
    </rdf:RDF>
  </metadata>
  <g
     inkscape:label="Layer 1"
     inkscape:groupmode="layer"
     id="layer1">
    <path
       style="color:#000000;fill:#9a0000;fill-opacity:1;fill-rule:nonzero;stroke:none;stroke-width:3.9000001;stroke-linecap:butt;stroke-linejoin:miter;marker:none;marker-start:none;marker-mid:none;marker-end:none;stroke-miterlimit:4;stroke-dasharray:none;stroke-dashoffset:0;stroke-opacity:1;visibility:visible;display:inline;overflow:visible"
       d="M 453.12473,775.93912 C 479.73606,798.60518 492.52737,834.30516 509.66983,865.20462 C 526.04533,881.73916 549.46203,875.91379 569.49432,877.57606 C 611.82354,878.8415 654.61307,878.17144 696.16073,868.05679 C 712.24142,856.7381 715.07808,832.73265 711.96801,813.40439 C 710.61642,782.70659 710.20942,747.54695 689.32623,724.39924 C 667.68144,701.22744 636.44551,698.34035 608.95324,689.62225 C 574.38831,679.5568 537.48249,674.86218 502.44048,684.80308 C 475.03587,687.84058 447.25824,709.71661 442.83986,741.56016 C 441.13799,753.81665 443.44754,768.42248 453.12473,775.93912 z "
       id="path9035" />
    <path
       style="color:#000000;fill:#000000;fill-opacity:1;fill-rule:nonzero;stroke:none;stroke-width:3.9000001;stroke-linecap:butt;stroke-linejoin:miter;marker:none;marker-start:none;marker-mid:none;marker-end:none;stroke-miterlimit:4;stroke-dasharray:none;stroke-dashoffset:0;stroke-opacity:1;visibility:visible;display:inline;overflow:visible"
       id="path3390"
       d="M 455.81352,766.89227 C 460.57142,770.83333 464.77819,775.55836 468.93585,780.25354 C 480.75569,794.85332 491.2253,810.89438 500.05013,827.94152 C 506.49914,840.61761 510.59883,854.45413 511.89786,868.94116 C 511.68311,881.56477 525.01712,882.49035 533.85103,884.54723 C 560.59354,889.89563 587.80826,891.65655 614.9316,892.3727 C 635.40277,893.03533 655.89666,891.82438 676.15649,888.47227 C 685.94393,886.73495 695.66445,884.46584 705.25163,881.65591 C 728.486,867.45651 692.05429,896.30383 703.33635,886.27138 C 712.36137,870.90246 710.71604,850.39385 708.96775,832.97952 C 705.20772,801.84882 696.40741,771.75747 685.31556,742.99149 C 682.42644,735.53965 679.2319,728.24628 675.9297,721.01512 L 693.21177,707.46931 C 696.29708,715.04666 699.30217,722.66515 702.07491,730.39367 C 712.69844,760.08811 721.62839,790.68078 726.49704,822.25947 C 729.12951,841.32157 731.02017,861.38179 725.12983,879.94201 C 719.33509,893.48249 707.38679,901.56153 694.68386,904.02615 C 685.00397,906.22609 675.26702,908.15643 665.43036,909.24384 C 645.02338,911.5573 624.49069,912.32631 603.9981,911.07538 C 576.4667,909.69598 548.89396,907.66985 521.61793,903.1492 C 509.37427,900.67167 492.33483,897.61627 491.97432,880.32029 C 491.74692,866.84427 488.71689,853.89783 482.92104,842.00726 C 474.84191,825.45011 464.92489,809.7769 452.74171,796.67849 C 451.56684,795.53742 440.40228,784.97749 443.19651,789.04852 L 455.81352,766.89227 z " />
    <path
       style="opacity:1;color:#000000;fill:#e2e2e2;fill-opacity:1;fill-rule:nonzero;stroke:none;stroke-width:3.9000001;stroke-linecap:butt;stroke-linejoin:miter;marker:none;marker-start:none;marker-mid:none;marker-end:none;stroke-miterlimit:4;stroke-dasharray:none;stroke-dashoffset:0;stroke-opacity:1;visibility:visible;display:inline;overflow:visible"
       d="M 93.618363,610.39029 C 78.675318,609.46512 67.08577,622.68378 59.511304,635.63228 C 54.664771,644.17966 48.913143,652.41065 45.890496,662.01216 C 42.936459,673.63609 44.884088,688.75961 54.695847,695.56365 C 64.022513,700.71747 72.863627,692.36888 81.684735,689.87515 C 103.69159,681.81535 128.31296,680.99092 149.9726,690.86267 C 165.51608,694.46922 177.52593,670.65407 167.70356,657.1662 C 161.49453,651.01655 153.26603,647.80255 146.89067,641.58279 C 131.08222,630.62623 113.49376,623.46742 97.202379,613.58805 C 95.949026,612.60828 94.746665,611.54527 93.618363,610.39029 z "
       id="path8895" />
    <path
       sodipodi:nodetypes="cccccccccc"
       style="color:#000000;fill:#9a0000;fill-opacity:1;fill-rule:nonzero;stroke:none;stroke-width:3.9000001;stroke-linecap:butt;stroke-linejoin:miter;marker:none;marker-start:none;marker-mid:none;marker-end:none;stroke-miterlimit:4;stroke-dasharray:none;stroke-dashoffset:0;stroke-opacity:1;visibility:visible;display:inline;overflow:visible"
       d="M 372.3266,313.82454 C 320.24974,324.89821 277.26622,371.29043 235.33724,403.93725 C 201.53125,440.15308 169.90177,479.63776 143.63283,522.99616 C 123.90522,550.1414 123.84398,606.00956 163.73399,607.32542 C 200.60467,607.51409 237.45246,593.78452 268.32506,571.3528 C 290.30395,556.65943 316.49986,556.62211 339.01577,543.54726 C 371.53355,531.16955 403.16732,515.84445 433.61123,498.48512 C 470.3991,481.56738 493.03756,424.44955 467.95169,386.14633 C 457.43207,347.81849 426.25686,317.80691 389.76674,317.08721 C 382.45439,316.40132 379.65521,314.17571 372.3266,313.82454 z "
       id="path8853" />
    <path
       style="color:#000000;fill:#000000;fill-opacity:1;fill-rule:nonzero;stroke:none;stroke-width:3.9000001;stroke-linecap:butt;stroke-linejoin:miter;marker:none;marker-start:none;marker-mid:none;marker-end:none;stroke-miterlimit:4;stroke-dasharray:none;stroke-dashoffset:0;stroke-opacity:1;visibility:visible;display:inline;overflow:visible"
       id="path3240"
       d="M 366.9143,320.84013 C 363.92631,323.13558 358.35631,324.92032 354.51411,326.66697 C 330.36504,337.90198 307.04485,351.29232 284.54202,366.1817 C 243.02123,395.69976 229.05601,409.04576 196.97415,451.10396 C 174.52664,481.30219 155.1269,514.2489 139.02236,549.13343 L 120.46412,555.16935 C 137.67688,519.84868 157.65099,486.23981 180.36718,455.03427 C 211.98502,412.64305 248.93868,375.16894 291.44858,346.83462 C 314.74068,331.35638 338.71608,317.15894 363.41909,304.69848 C 368.48736,302.15725 373.90692,298.41088 379.53132,298.68387 L 366.9143,320.84013 z " />
    <path
       style="color:#000000;fill:#000000;fill-opacity:1;fill-rule:nonzero;stroke:none;stroke-width:3.9000001;stroke-linecap:butt;stroke-linejoin:miter;marker:none;marker-start:none;marker-mid:none;marker-end:none;stroke-miterlimit:4;stroke-dasharray:none;stroke-dashoffset:0;stroke-opacity:1;visibility:visible;display:inline;overflow:visible"
       id="path3246"
       d="M 224.31323,595.24971 C 221.53262,591.52133 226.61331,590.43402 230.83889,587.52203 C 248.96658,575.15857 267.64381,563.80425 287.0701,554.20624 C 311.06939,542.69058 336.32348,534.9201 361.72284,528.37567 L 352.36319,548.00415 C 327.28566,554.11537 302.4405,562.0201 279.14415,574.24426 C 259.64217,584.64421 240.78489,596.70829 223.11053,610.62275 C 219.59187,613.6595 216.16737,619.51328 211.69621,617.40597 L 224.31323,595.24971 z " />
    <path
       style="opacity:1;color:#000000;fill:#ffffff;fill-opacity:1;fill-rule:nonzero;stroke:none;stroke-width:3.9000001;stroke-linecap:butt;stroke-linejoin:miter;marker:none;marker-start:none;marker-mid:none;marker-end:none;stroke-miterlimit:4;stroke-dasharray:none;stroke-dashoffset:0;stroke-opacity:1;visibility:visible;display:inline;overflow:visible"
       d="M 634.69341,198.04198 C 593.56389,232.42984 639.18277,302.73057 682.57005,277.04047 C 720.73082,269.929 772.33354,252.05051 775.01495,200.57424 C 765.49032,142.14444 722.39352,155.31776 687.10311,172.16527 C 676.96013,177.55745 645.1068,193.3181 634.69341,198.04198 z "
       id="path3169"
       sodipodi:nodetypes="ccccc" />
    <path
       style="opacity:1;color:#000000;fill:#9a0000;fill-opacity:1;fill-rule:nonzero;stroke:none;stroke-width:3.9000001;stroke-linecap:butt;stroke-linejoin:miter;marker:none;marker-start:none;marker-mid:none;marker-end:none;stroke-miterlimit:4;stroke-dasharray:none;stroke-dashoffset:0;stroke-opacity:1;visibility:visible;display:inline;overflow:visible"
       d="M 624.70715,292.49614 C 721.88674,348.09988 828.15072,438.49696 852.20317,575.17211 C 763.64048,730.53234 689.11528,542.1084 685.94373,502.25025 C 646.21531,403.43336 524.44304,441.92656 579.6657,339.8927 C 589.26308,319.03524 604.94407,301.10155 624.70715,292.49614 z "
       id="path7082"
       sodipodi:nodetypes="ccccc" />
    <path
       style="color:#000000;fill:#9a0000;fill-opacity:1;fill-rule:nonzero;stroke:none;stroke-width:3.9000001;stroke-linecap:butt;stroke-linejoin:miter;marker:none;marker-start:none;marker-mid:none;marker-end:none;stroke-miterlimit:4;stroke-dasharray:none;stroke-dashoffset:0;stroke-opacity:1;visibility:visible;display:inline;overflow:visible"
       d="M 268.83234,595.15581 C 255.76304,509.74252 315.93303,439.89956 353.79208,373.16949 C 402.77138,309.72657 498.86588,258.11209 565.70574,317.9279 C 633.01672,380.27658 672.42532,468.94509 704.76694,557.7701 C 719.81486,612.54147 716.17031,687.91443 646.26977,673.95486 C 535.63521,688.25557 423.37785,676.61257 313.84487,658.20865 C 291.06732,649.72489 269.94053,628.34506 267.92452,600.23402"
       id="path8867" />
    <path
       style="color:#000000;fill:#000000;fill-opacity:1;fill-rule:nonzero;stroke:none;stroke-width:3.9000001;stroke-linecap:butt;stroke-linejoin:miter;marker:none;marker-start:none;marker-mid:none;marker-end:none;stroke-miterlimit:4;stroke-dasharray:none;stroke-dashoffset:0;stroke-opacity:1;visibility:visible;display:inline;overflow:visible"
       id="path3248"
       d="M 312.97547,461.44057 C 313.83458,466.70243 309.32248,471.45446 306.91421,475.83495 C 296.61554,494.88363 288.32105,515.13625 282.13914,536.28645 C 273.40587,564.91931 273.02707,594.94501 277.72762,624.4752 C 279.11488,631.96306 278.38496,628.27054 279.91177,635.55413 L 262.39052,647.07509 C 260.9169,639.46418 261.62626,643.32063 260.2673,635.5046 C 255.64287,605.01702 254.94638,573.76256 263.29649,543.935 C 268.9396,522.65145 276.45855,502.12727 285.72884,482.4934 C 287.21709,479.32372 289.37007,470.75869 291.86973,472.95678 L 312.97547,461.44057 z " />
    <path
       style="opacity:1;color:#000000;fill:#ffdbb0;fill-opacity:1;fill-rule:nonzero;stroke:none;stroke-width:3.9000001;stroke-linecap:butt;stroke-linejoin:miter;marker:none;marker-start:none;marker-mid:none;marker-end:none;stroke-miterlimit:4;stroke-dasharray:none;stroke-dashoffset:0;stroke-opacity:1;visibility:visible;display:inline;overflow:visible"
       d="M 416.54252,206.41191 C 399.00527,224.52205 386.50123,249.18729 383.33077,275.80388 C 386.51231,293.69313 410.91271,343.71557 424.46743,350.07439 C 467.68771,372.32422 508.34631,359.67278 554.80757,359.26151 C 572.92131,359.47852 593.95464,329.00221 607.69173,313.5513 C 615.52721,303.69272 631.16691,304.74366 628.35773,292.72969 C 628.7021,267.86146 608.68508,208.78068 591.15588,191.74061 C 569.14756,173.8783 540.18358,191.04908 514.44453,186.93532 C 485.60341,182.86681 455.17715,181.19842 427.64113,193.46372 C 423.06691,196.65794 419.03741,201.01726 416.54252,206.41191 z "
       id="path10893"
       sodipodi:nodetypes="cccccccccc" />
    <path
       style="opacity:1;color:#000000;fill:#ff0000;fill-opacity:0.1242236;fill-rule:nonzero;stroke:none;stroke-width:3.9000001;stroke-linecap:butt;stroke-linejoin:miter;marker:none;marker-start:none;marker-mid:none;marker-end:none;stroke-miterlimit:4;stroke-dasharray:none;stroke-dashoffset:0;stroke-opacity:1;visibility:visible;display:inline;overflow:visible"
       d="M 546.23362,249.45258 C 537.01289,248.02567 527.59121,252.77477 521.56102,260.50708 C 515.02038,266.69391 507.96152,272.72572 503.73697,281.26234 C 499.36999,297.49416 507.59135,316.49 521.58356,322.8997 C 531.54624,330.87234 546.27214,329.47674 555.27643,320.36343 C 562.23761,314.80599 570.69703,310.27299 574.48315,301.15163 C 577.15745,290.54525 573.14825,279.26737 566.97543,271.18951 C 562.3524,264.24391 557.4681,257.51773 552.37759,250.99473 C 550.62787,249.61673 548.35943,248.75625 546.23362,249.45258 z "
       id="path12803" />
    <path
       style="opacity:1;color:#000000;fill:#ff0000;fill-opacity:0.1242236;fill-rule:nonzero;stroke:none;stroke-width:3.9000001;stroke-linecap:butt;stroke-linejoin:miter;marker:none;marker-start:none;marker-mid:none;marker-end:none;stroke-miterlimit:4;stroke-dasharray:none;stroke-dashoffset:0;stroke-opacity:1;visibility:visible;display:inline;overflow:visible"
       d="M 443.04958,250.11169 C 436.78146,246.46833 416.22338,267.72332 408.7984,276.35491 C 404.22517,281.67134 406.25575,292.02078 409.57686,297.16846 C 415.40113,306.19616 424.92811,315.75964 434.48679,317.98204 C 444.28721,320.26068 449.4238,317.44798 457.06143,309.83762 C 462.89992,304.0199 466.1535,289.27755 467.95951,280.87959 C 470.09823,270.93438 464.01419,263.62401 459.39672,258.25613 C 456.41507,254.78996 450.41156,251.79881 447.7202,251.01663 C 446.18896,250.57162 444.60646,250.41333 443.04958,250.11169 z "
       id="path12801" />
    <g
       id="g7103"
       transform="matrix(1.270982,0,0,1.421891,-76.14847,-183.8373)">
      <path
         sodipodi:nodetypes="cccccccccccccccc"
         id="path7098"
         d="M 365,318.57144 C 343.21882,309.84502 334.8365,337.20594 355.87616,348.85365 C 352.53943,363.10923 316.45885,382.34793 343.62285,390.03385 C 370.48323,402.67997 320.07396,430.23228 346.10372,445.98827 C 364.84334,442.07526 378.82627,441.42579 376.96788,464.88859 C 381.96742,488.3206 403.24925,477.64183 414.15986,465.83764 C 430.76638,442.90375 440.36982,502.11255 465.90528,506.39638 C 482.91344,514.09946 518.60006,513.70382 506.61545,487.42999 C 514.2628,468.35916 553.03055,492.75137 551.82286,465.01596 C 544.29107,446.61416 558.82776,440.63455 574.40546,439.65991 C 590.03015,427.53758 548.62346,398.11307 581.14429,392.22467 C 604.73296,380.94094 567.33494,365.46613 559.05511,359.76954 C 558.78212,337.26928 552.73306,326.57506 530.50238,326.29417 C 494.28383,371.52394 467.03934,350.64046 441.11405,345.75288 C 374.15179,361.64668 400.59808,339.02965 374.08489,319.49964 C 365.81641,319.99363 373.08975,318.19348 365,318.57144 z "
         style="opacity:1;color:#000000;fill:#e2e2e2;fill-opacity:1;fill-rule:nonzero;stroke:none;stroke-width:3.9000001;stroke-linecap:butt;stroke-linejoin:miter;marker:none;marker-start:none;marker-mid:none;marker-end:none;stroke-miterlimit:4;stroke-dasharray:none;stroke-dashoffset:0;stroke-opacity:1;visibility:visible;display:inline;overflow:visible" />
      <path
         d="M 363.66811,325.76224 C 364.65504,326.39442 361.41171,326.16545 360.40848,326.23853 C 353.10624,326.85006 346.13043,328.84033 340.0083,332.88287 C 363.73535,317.677 346.6949,326.12138 345.00805,334.38387 C 345.71697,338.34956 348.65297,339.21663 352.20727,340.00135 C 358.33862,340.49447 364.48877,339.43928 365.13541,347.13423 C 362.09924,354.22871 355.69903,359.49539 350.29454,364.85813 C 345.26228,369.7939 340.33259,374.83598 335.95492,380.36421 C 332.84176,383.23227 334.86983,383.4564 335.24068,384.88431 C 339.73978,385.39432 344.19824,384.39317 348.53868,383.29293 C 353.9286,381.625 357.46423,382.64135 360.12635,387.55741 C 361.16879,393.76757 357.94747,399.58691 355.40584,405.08399 C 352.05985,412.07135 348.88158,419.13512 346.2466,426.42289 C 344.74739,430.63076 343.60826,434.87611 345.46173,438.99615 C 348.43143,441.51113 352.14818,440.89765 355.75279,440.39507 C 360.55564,439.51731 364.93202,437.29523 369.21207,435.03822 C 373.72548,432.30773 377.60278,429.90258 381.85613,434.13106 C 384.71315,438.87931 383.98746,444.71399 383.94956,450.04679 C 383.83157,455.55101 384.30562,461.01617 385.28725,466.4239 C 386.05827,470.55249 388.13478,473.08823 391.85034,474.80327 C 391.34376,478.07338 407.43795,468.33734 404.72035,470.05753 C 383.32817,483.59835 392.28264,478.10504 396.86307,474.93256 C 404.07688,470.13621 409.42868,463.38944 414.99667,456.90248 C 432.30817,442.87304 434.99319,448.15424 442.02722,463.27051 C 445.58196,471.79335 450.20662,479.48357 457.21153,485.57892 C 467.57449,494.16903 480.39049,499.12091 493.62805,501.04182 C 492.97366,505.2112 513.1101,496.3047 511.37015,497.38269 C 490.58204,510.262 497.28187,507.63453 501.55773,502.97286 C 504.59691,497.62683 503.52186,491.53773 501.711,485.96872 C 500.17705,481.95225 497.85527,478.31989 496.12277,474.39917 C 511.36699,459.40448 508.50121,463.16807 519.28562,470.61645 C 523.70775,473.5641 528.57899,475.41717 533.82217,476.14267 C 540.02294,476.40159 545.69044,474.30844 550.73279,470.84797 C 527.33065,486.12394 544.81,477.75089 544.67472,467.86803 C 544.00718,462.22992 541.56747,457.03924 539.27849,451.90893 C 533.60245,443.25179 545.10602,433.46689 554.6009,436.56052 C 559.04237,437.8239 563.61217,438.51348 568.19592,438.99453 C 578.77101,440.83052 592.3221,430.32238 568.82317,444.93582 C 574.19266,442.2537 573.19885,436.61877 571.77396,431.68871 C 569.3116,424.67675 564.52644,419.07258 559.09956,414.158 C 554.50303,410.31335 549.10446,408.85599 547.66666,402.75368 C 558.27421,392.50565 569.20669,391.05235 582.4861,387.19247 C 582.33779,387.40231 595.63175,381.30312 595.07344,381.65148 C 574.55305,394.4552 578.86239,391.20849 584.49014,388.76843 C 582.18599,383.65527 573.31027,379.56179 567.60626,376.63655 C 559.95165,372.38708 551.25346,370.32341 543.77884,365.80006 C 532.81216,354.58148 579.7822,334.10487 545.60693,356.13664 C 548.22973,354.95332 549.67936,353.14972 550.84224,350.68456 C 551.10396,347.12826 549.15256,344.76273 546.82458,342.30808 C 542.48998,338.3332 537.16928,335.79552 531.70429,333.78034 C 529.42518,332.8986 527.02959,332.69912 524.62867,332.48839 L 536.94829,319.54959 C 539.61657,320.08361 542.25773,320.72954 544.76291,321.82517 C 550.66647,324.34511 556.37276,327.39819 561.13794,331.76523 C 564.46088,335.07819 567.01539,338.80603 567.47509,343.5986 C 567.42314,347.48629 566.4551,350.74063 563.41738,353.39513 C 525.28269,378.07586 567.48023,355.07871 557.86843,354.63613 C 564.96101,359.0517 573.14103,361.45839 580.39973,365.60149 C 588.14406,369.64863 599.32015,373.96585 601.62639,383.16734 C 599.35146,394.40189 581.78077,397.60893 571.9609,400.90105 C 562.56688,403.47322 537.1398,413.84707 565.32783,398.34193 C 561.54776,393.22765 571.49275,402.67343 573.16623,403.66742 C 578.98124,409.28443 584.11957,415.58475 587.0612,423.21192 C 589.22801,429.52509 590.73678,436.41932 586.48668,442.22653 C 574.00187,450.059 569.41324,453.98438 556.03428,451.80553 C 551.3892,451.20507 546.78192,450.25585 542.13611,449.77007 C 546.20107,447.24479 555.73459,438.32739 554.808,443.02232 C 556.96304,448.68736 559.55097,454.24345 560.63989,460.24752 C 562.35171,474.17978 553.08041,478.8421 541.01818,485.56905 C 534.85993,488.42542 528.23012,490.04161 521.43193,488.81014 C 515.70945,487.49337 510.3481,485.14934 505.47946,481.84216 C 494.16461,474.15496 497.35643,480.13511 513.1809,467.56142 C 514.15156,470.93934 515.15072,474.42999 517.11734,477.34288 C 519.4462,484.04943 520.63647,491.11562 518.48213,498.05172 C 512.09359,512.36636 495.42157,515.68956 481.82293,513.04031 C 468.03243,510.17984 454.77978,504.68966 443.76341,495.78814 C 436.13033,489.32791 430.92624,481.3253 427.11489,472.11285 C 420.45277,458.28836 414.7269,463.90803 432.5447,453.92033 C 425.10392,458.38587 421.3104,467.57129 413.7373,472.13297 C 404.97398,479.03216 390.95557,491.65572 378.43017,486.63308 C 373.79308,483.85592 370.61719,479.91948 369.43065,474.55039 C 368.24823,468.8374 367.77556,463.03157 367.80465,457.19674 C 367.77688,453.07528 368.09956,448.8044 367.18146,444.78139 C 364.88408,446.76258 362.03204,448.41067 359.10801,449.67875 C 354.38274,451.85808 349.50962,453.75184 344.2474,454.00887 C 338.98213,454.14875 333.93472,453.24817 330.46932,448.90035 C 327.19225,443.62107 327.76325,437.8466 329.63355,432.08237 C 332.18145,424.59426 335.39595,417.37205 338.76723,410.2208 C 340.87089,405.6402 343.15554,401.04224 344.15216,396.06764 C 342.94986,396.1926 339.30592,396.5148 337.49875,397.23422 C 332.26869,398.21012 326.80573,398.99801 321.76972,396.85518 C 317.51884,393.71444 315.93081,389.82222 318.75241,384.89559 C 322.73075,378.66576 328.18979,373.61073 333.33296,368.35695 C 338.38691,363.34157 343.53365,358.39973 348.1233,352.94747 C 345.33392,353.53485 342.38977,352.97377 339.58535,352.46295 C 334.22268,350.75206 330.29451,347.76871 328.80745,342.13201 C 327.14445,329.46155 340.51923,323.76622 349.69017,318.29717 C 356.76251,315.04234 364.42094,313.26207 372.20545,312.89188 C 374.81922,313.06813 377.78848,313.77116 378.97429,315.41889 L 363.66811,325.76224 z "
         id="path2208"
         style="opacity:1;color:#000000;fill:#000000;fill-opacity:1;fill-rule:nonzero;stroke:none;stroke-width:3.9000001;stroke-linecap:butt;stroke-linejoin:miter;marker:none;marker-start:none;marker-mid:none;marker-end:none;stroke-miterlimit:4;stroke-dasharray:none;stroke-dashoffset:0;stroke-opacity:1;visibility:visible;display:inline;overflow:visible" />
    </g>
    <path
       style="opacity:1;color:#000000;fill:#000000;fill-opacity:1;fill-rule:nonzero;stroke:none;stroke-width:3.9000001;stroke-linecap:butt;stroke-linejoin:miter;marker:none;marker-start:none;marker-mid:none;marker-end:none;stroke-miterlimit:4;stroke-dasharray:none;stroke-dashoffset:0;stroke-opacity:1;visibility:visible;display:inline;overflow:visible"
       id="path2260"
       d="M 656.51643,185.76045 C 658.36863,189.39388 648.43129,193.91824 644.67005,197.1461 C 643.7812,197.96196 641.1242,200.42232 642.00352,199.59366 C 645.61898,196.18647 649.24321,192.79089 652.87862,189.41039 C 656.16614,186.35337 646.4117,195.67678 643.36329,199.0296 C 634.57064,208.70026 627.08973,219.1188 624.9471,233.00559 C 623.77586,262.34581 652.20017,270.30655 673.09729,270.25191 C 696.74465,268.71627 719.60473,259.6677 739.93874,246.27029 C 746.17851,242.15912 763.4313,227.31708 757.64112,232.18233 C 750.19027,238.44298 746.34608,242.90473 754.20601,234.40176 C 768.0531,218.32279 775.35124,193.68266 756.85737,178.66286 C 731.96861,163.96247 701.2615,170.62353 675.33104,178.21967 C 669.07305,180.08432 662.95376,182.44617 656.84632,184.83807 L 665.46105,165.17375 C 671.67621,163.01825 677.89963,160.88422 684.2319,159.18962 C 712.40147,151.78938 745.11811,145.563 771.57205,162.32242 C 793.08709,180.19479 789.90387,209.27337 773.45512,230.44879 C 744.90554,264.37248 704.40031,285.45448 662.87229,288.15101 C 636.94158,287.86008 607.311,276.15736 605.6833,242.43033 C 607.73339,212.0492 632.45735,192.13731 651.80345,174.50711 C 656.49243,170.51488 663.24512,162.42578 669.13345,163.6042 L 656.51643,185.76045 z " />
    <path
       style="opacity:1;color:#000000;fill:#000000;fill-opacity:1;fill-rule:nonzero;stroke:none;stroke-width:3.9000001;stroke-linecap:butt;stroke-linejoin:miter;marker:none;marker-start:none;marker-mid:none;marker-end:none;stroke-miterlimit:4;stroke-dasharray:none;stroke-dashoffset:0;stroke-opacity:1;visibility:visible;display:inline;overflow:visible"
       id="path2220"
       d="M 511.48796,244.03833 C 524.99716,229.58342 522.60311,231.70169 532.54518,228.08754 C 537.07641,226.48418 541.70835,225.39067 546.39338,224.54234 C 551.77357,223.35454 556.67825,224.33219 561.6221,226.72013 C 566.45656,229.58988 569.62052,234.13093 572.13954,239.41403 C 574.63061,245.54369 574.63737,252.09196 574.13559,258.65277 C 573.91112,260.93181 573.22477,263.08309 572.6576,265.2647 L 550.81655,272.76539 C 551.634,271.26241 552.5705,269.84057 552.97345,268.10174 C 554.11936,263.37862 554.63994,258.57105 553.17798,253.83655 C 551.7266,250.39083 550.06765,247.64469 546.73925,246.21905 C 542.90372,245.4608 539.16989,245.82557 535.36065,246.90664 C 531.03341,248.04813 526.74034,249.39284 522.6378,251.33442 C 513.17374,255.91181 515.23106,257.84244 534.5925,239.36428 L 511.48796,244.03833 z " />
    <path
       style="opacity:1;color:#000000;fill:#000000;fill-opacity:1;fill-rule:nonzero;stroke:none;stroke-width:3.9000001;stroke-linecap:butt;stroke-linejoin:miter;marker:none;marker-start:none;marker-mid:none;marker-end:none;stroke-miterlimit:4;stroke-dasharray:none;stroke-dashoffset:0;stroke-opacity:1;visibility:visible;display:inline;overflow:visible"
       id="path2222"
       d="M 456.79075,242.63609 C 455.27496,241.18219 453.70311,240.9677 451.80284,240.57264 C 447.00021,239.8759 442.29992,240.92971 437.69463,242.35569 C 438.26473,238.6288 426.58,250.93532 429.19375,248.5382 C 433.33595,244.73931 437.34108,240.75709 441.41476,236.86654 C 438.44601,239.7639 437.39425,243.3154 436.93611,247.51369 C 436.88723,249.89949 437.45701,252.20492 437.89914,254.51593 L 418.1759,267.63203 C 417.56537,264.83155 416.89869,262.03933 416.5247,259.18322 C 416.08963,253.29191 416.40184,247.66604 419.06766,242.38484 C 425.9201,230.591 436.27746,222.53667 448.28957,219.87956 C 453.97269,218.96914 459.70563,218.3911 465.37866,219.80388 C 466.28569,220.05982 471.84598,222.39688 469.40776,220.47983 L 456.79075,242.63609 z " />
    <path
       style="opacity:1;color:#000000;fill:#000000;fill-opacity:1;fill-rule:nonzero;stroke:none;stroke-width:3.9000001;stroke-linecap:butt;stroke-linejoin:miter;marker:none;marker-start:none;marker-mid:none;marker-end:none;stroke-miterlimit:4;stroke-dasharray:none;stroke-dashoffset:0;stroke-opacity:1;visibility:visible;display:inline;overflow:visible"
       id="path2236"
       d="M 450.74234,354.10123 C 449.58919,350.69149 451.19915,349.21813 453.17425,346.20106 C 460.90424,336.66663 469.88656,328.36702 480.48417,323.4877 C 486.06829,320.82482 491.28946,322.15937 496.74153,324.38891 C 501.82397,326.81534 506.21189,330.6318 510.6077,334.30805 C 512.28155,335.68204 513.90632,337.12684 515.53935,338.55972 L 498.99673,356.28632 C 497.46769,354.91621 495.94498,353.53652 494.37177,352.22904 C 490.61506,349.08497 486.84372,345.77705 482.30648,344.18384 C 478.12628,343.46777 474.96964,344.25418 471.31029,346.88411 C 468.55601,348.82361 460.98822,355.75142 463.48577,353.4171 C 487.98155,330.52238 481.37405,336.87983 475.80958,341.64398 C 472.25265,344.76813 474.10016,344.68022 471.84807,342.58502 L 450.74234,354.10123 z " />
    <path
       style="opacity:1;color:#000000;fill:#000000;fill-opacity:1;fill-rule:nonzero;stroke:none;stroke-width:3.9000001;stroke-linecap:butt;stroke-linejoin:miter;marker:none;marker-start:none;marker-mid:none;marker-end:none;stroke-miterlimit:4;stroke-dasharray:none;stroke-dashoffset:0;stroke-opacity:1;visibility:visible;display:inline;overflow:visible"
       id="path2246"
       d="M 630.11943,160.5573 C 632.5336,161.724 634.57763,163.51177 636.60266,165.36812 C 641.50854,170.06695 645.34174,175.84834 648.76662,181.92288 C 651.70219,187.50571 654.41621,193.20215 658.04951,198.25775 C 660.94567,202.01561 664.52364,203.60275 668.73314,204.44771 C 669.33833,204.55895 669.94732,204.47834 670.55442,204.49365 L 657.64074,225.54091 C 657.63513,225.53966 655.18834,225.06423 655.19351,224.99583 C 649.55564,222.91985 644.54952,219.87236 640.6456,214.70934 C 636.79224,209.23435 633.73641,203.24884 630.71988,197.15718 C 627.79322,191.99756 624.66884,186.91728 620.18455,183.27947 C 619.47721,182.95232 616.90098,181.04151 617.50241,182.71354 L 630.11943,160.5573 z " />
    <g
       id="g8891"
       transform="matrix(1.270982,0,0,1.421891,-76.14847,-183.8373)">
      <path
         id="path8885"
         d="M 153.57143,514.28571 C 142.24708,515.34104 132.12462,523.01851 128.448,533.81203 C 120.79796,542.25319 122.84712,555.78115 134.58161,559.02879 C 152.52124,566.36421 166.36163,580.48641 183.26116,589.59652 C 191.15593,595.97042 204.18027,607.1502 213.13283,596.42379 C 221.86074,586.73163 234.40074,579.36148 238.66063,566.43549 C 235.36799,556.26983 223.82803,552.78761 216.53458,546.03574 C 199.2332,535.10592 180.95178,525.74965 162.85948,516.23902 C 159.91534,515.04375 156.76645,514.24706 153.57143,514.28571 z "
         style="opacity:1;color:#000000;fill:#ffffff;fill-opacity:1;fill-rule:nonzero;stroke:none;stroke-width:3.9000001;stroke-linecap:butt;stroke-linejoin:miter;marker:none;marker-start:none;marker-mid:none;marker-end:none;stroke-miterlimit:4;stroke-dasharray:none;stroke-dashoffset:0;stroke-opacity:1;visibility:visible;display:inline;overflow:visible" />
      <path
         d="M 153.54408,503.63745 C 154.95043,504.6822 157.19059,505.74389 159.08494,506.72384 C 166.66606,511.11055 174.27319,515.44969 181.95018,519.66717 C 192.87206,525.68942 203.86744,531.57644 214.83365,537.51711 C 221.20015,540.93157 227.49533,544.47894 233.70532,548.17018 C 236.30625,549.78188 238.94722,551.32445 241.60602,552.83704 C 244.8043,554.79694 246.18507,557.64006 246.7657,561.22203 C 246.82435,565.39415 244.97234,569.09786 242.94425,572.62874 C 240.34204,576.81887 236.71513,580.1651 233.10822,583.46865 C 229.02472,587.09478 225.00338,590.78879 220.97656,594.4772 C 213.92071,601.00181 207.80684,610.25739 197.75797,608.97669 C 192.59956,607.44139 188.63982,603.77554 184.68213,600.29999 C 179.98495,596.02397 175.07889,591.98896 169.95937,588.23054 C 165.42094,584.9198 160.51859,582.16384 155.56003,579.54259 C 151.33382,577.39001 147.0089,575.43693 142.68718,573.48524 C 138.53341,571.65277 134.43057,569.71448 130.35508,567.71501 C 126.74363,565.95828 123.11126,564.25036 119.63821,562.2317 C 115.257,559.53037 114.16794,555.47492 114.30716,550.63003 C 115.1592,545.70342 117.74491,541.36897 120.41076,537.21724 C 123.04842,533.19045 125.85369,529.28265 128.83679,525.50609 C 134.78291,518.36987 142.21136,512.5995 149.76926,507.24437 C 151.08184,506.35384 152.4213,505.5051 153.75199,504.64359 L 147.34305,521.49471 C 146.11715,522.35964 144.88257,523.2158 143.70821,524.15016 C 133.1722,532.63736 159.6176,510.48197 146.39066,521.94323 C 143.20976,525.35812 140.27483,528.98008 137.68779,532.87234 C 135.21362,536.42126 132.74176,540.01161 130.99049,543.98556 C 130.19913,546.40662 129.50254,547.69452 131.99171,549.09452 C 135.36358,550.93106 138.78505,552.6752 142.23291,554.36664 C 146.26815,556.3222 150.35422,558.16509 154.44969,559.99096 C 158.85127,562.04041 163.24634,564.11301 167.52024,566.42006 C 172.68454,569.26177 177.79426,572.23302 182.49771,575.80311 C 187.67936,579.74228 192.6816,583.90382 197.56011,588.21287 C 200.53715,590.70133 203.63209,593.79989 207.65017,593.88934 C 219.21265,584.76076 193.34999,605.54433 203.37971,597.36885 C 207.45514,593.68041 211.51349,589.97275 215.6135,586.31123 C 219.00999,583.26824 222.50288,580.29238 225.50116,576.84526 C 227.45875,574.39481 229.20943,571.84574 230.34892,568.89757 C 230.17966,567.21279 231.26131,567.17297 229.18308,566.08835 C 226.5338,564.49916 223.93943,562.82721 221.3774,561.09946 C 215.4345,557.26264 209.40843,553.55572 203.26084,550.05425 C 192.48348,543.85561 181.58001,537.87963 170.58444,532.07712 C 162.8832,527.93455 155.15118,523.81541 147.17779,520.21774 C 146.35248,519.86579 141.4752,517.62117 143.6171,519.21969 L 153.54408,503.63745 z "
         id="path3244"
         style="opacity:1;color:#000000;fill:#000000;fill-opacity:1;fill-rule:nonzero;stroke:none;stroke-width:3.9000001;stroke-linecap:butt;stroke-linejoin:miter;marker:none;marker-start:none;marker-mid:none;marker-end:none;stroke-miterlimit:4;stroke-dasharray:none;stroke-dashoffset:0;stroke-opacity:1;visibility:visible;display:inline;overflow:visible" />
    </g>
    <path
       style="opacity:1;color:#000000;fill:#000000;fill-opacity:1;fill-rule:nonzero;stroke:none;stroke-width:3.9000001;stroke-linecap:butt;stroke-linejoin:miter;marker:none;marker-start:none;marker-mid:none;marker-end:none;stroke-miterlimit:4;stroke-dasharray:none;stroke-dashoffset:0;stroke-opacity:1;visibility:visible;display:inline;overflow:visible"
       id="path3252"
       d="M 666.4332,450.01364 C 673.32771,457.43018 677.46234,468.01153 682.22333,477.23419 C 696.81313,503.90249 706.6558,533.02751 711.96099,563.6724 C 716.86796,597.16255 716.13811,631.45121 712.45815,665.05241 L 693.99288,673.84603 C 699.0736,641.02244 700.41626,607.20741 695.47517,574.2572 C 690.30722,544.65794 680.44073,516.52829 665.49595,491.34161 C 663.91307,488.60819 649.231,466.2212 653.81618,472.1699 L 666.4332,450.01364 z " />
    <path
       style="opacity:1;color:#000000;fill:#9a0000;fill-opacity:1;fill-rule:nonzero;stroke:none;stroke-width:3.9000001;stroke-linecap:butt;stroke-linejoin:miter;marker:none;marker-start:none;marker-mid:none;marker-end:none;stroke-miterlimit:4;stroke-dasharray:none;stroke-dashoffset:0;stroke-opacity:1;visibility:visible;display:inline;overflow:visible"
       d="M 254.30676,743.4387 C 251.03438,765.74283 233.09139,783.23403 235.16863,806.86576 C 246.39023,838.71375 278.02793,857.88734 307.96072,855.51531 C 349.57436,858.78241 392.10456,859.66677 432.78342,847.7778 C 456.88213,833.21487 477.42502,811.10621 504.0264,801.96507 C 530.86375,783.34295 527.354,730.80991 497.9785,717.36333 C 437.21584,689.91703 367.90804,696.14578 307.46104,721.42225 C 289.71011,728.66189 272.18281,736.58321 254.30676,743.4387 z "
       id="path8961" />
    <path
       style="opacity:1;color:#000000;fill:#000000;fill-opacity:1;fill-rule:nonzero;stroke:none;stroke-width:3.9000001;stroke-linecap:butt;stroke-linejoin:miter;marker:none;marker-start:none;marker-mid:none;marker-end:none;stroke-miterlimit:4;stroke-dasharray:none;stroke-dashoffset:0;stroke-opacity:1;visibility:visible;display:inline;overflow:visible"
       id="path3382"
       d="M 267.95917,716.93826 C 293.64135,695.25355 285.55059,700.82833 277.02634,718.39672 C 267.60559,738.00658 258.9783,758.10501 251.51232,778.74512 C 246.2655,793.65641 241.4277,808.84233 238.96482,824.66672 C 237.24766,834.69451 239.6437,842.02592 246.14179,848.89546 C 260.65549,860.93401 278.95067,865.5154 296.33226,869.58848 C 328.6762,877.10182 361.76312,878.20797 394.66574,876.7661 C 414.78437,873.13435 439.09863,878.58025 457.57971,867.15464 C 440.05994,884.17659 451.17242,876.51057 448.40446,857.68148 C 445.02743,842.36503 448.36622,830.50877 458.72275,819.85625 C 473.39747,804.41113 489.5843,793.68961 509.08467,788.58142 L 499.19239,809.87428 C 489.54264,812.91121 451.40109,837.83756 479.89169,816.30962 C 470.60088,824.21553 464.62899,831.90631 467.72709,845.49195 C 471.44606,868.38798 470.33447,875.65395 448.57976,889.64177 C 427.7682,895.37578 405.76048,893.176 384.5448,894.92768 C 351.1042,895.54723 317.52494,894.40254 284.58037,887.37828 C 265.66817,883.32434 245.71935,878.91074 229.9993,865.73453 C 221.8388,857.14152 217.04,847.28996 218.65713,834.39517 C 220.83867,817.63995 226.17481,801.72884 231.75107,786.05505 C 239.20323,765.40816 247.73372,745.29321 256.3892,725.25052 C 263.47351,708.65328 263.669,704.00826 280.5762,694.782 L 267.95917,716.93826 z " />
    <path
       style="color:#000000;fill:#434343;fill-opacity:1;fill-rule:nonzero;stroke:none;stroke-width:3.9000001;stroke-linecap:butt;stroke-linejoin:miter;marker:none;marker-start:none;marker-mid:none;marker-end:none;stroke-miterlimit:4;stroke-dasharray:none;stroke-dashoffset:0;stroke-opacity:1;visibility:visible;display:inline;overflow:visible"
       d="M 203.46757,783.04858 C 188.93591,794.83131 194.91254,817.78707 205.31183,830.28715 C 218.63769,844.24067 227.69198,868.18874 212.2397,884.94146 C 201.44931,903.1651 174.06756,907.97639 172.61447,932.28156 C 178.21229,957.19147 207.90149,942.83849 224.10125,944.17755 C 275.33865,950.93026 326.43725,938.45787 377.34969,933.50864 C 400.92322,932.35625 425.34637,933.53955 447.70506,923.68623 C 462.74245,904.87738 448.5257,870.06069 472.4655,857.80507 C 489.27927,843.46699 475.17738,819.77615 457.12678,819.43461 C 436.69708,816.04963 416.04688,814.81997 396.04445,808.40939 C 359.09949,798.60518 321.3819,793.59816 283.48922,791.78718 C 256.77264,789.38495 230.12952,786.09143 203.46757,783.04858 z "
       id="path8906" />
    <path
       style="color:#000000;fill:#000000;fill-opacity:1;fill-rule:nonzero;stroke:none;stroke-width:3.9000001;stroke-linecap:butt;stroke-linejoin:miter;marker:none;marker-start:none;marker-mid:none;marker-end:none;stroke-miterlimit:4;stroke-dasharray:none;stroke-dashoffset:0;stroke-opacity:1;visibility:visible;display:inline;overflow:visible"
       id="path3422"
       d="M 201.61712,774.00173 C 209.27187,774.88014 216.96751,775.33087 224.64578,775.89526 C 269.93276,779.24782 314.88863,786.61447 359.79904,793.72489 C 397.6136,801.03736 436.5041,803.73414 473.51731,815.66966 C 485.58757,819.40467 497.24715,826.01215 494.15269,841.76985 C 490.76332,851.10045 484.42728,858.56194 478.81241,866.28759 C 475.01464,871.21394 471.80068,876.54925 469.37704,882.43849 C 468.12912,886.32338 469.2938,889.75598 470.43579,893.45829 C 475.92247,910.61555 464.66411,914.60202 451.84982,925.94747 C 426.7098,935.79053 399.82622,939.00127 373.48965,942.39833 C 331.09681,947.64035 288.46747,949.83587 245.86914,951.74257 C 222.39543,952.57271 198.91962,953.68862 175.43512,954.07474 C 166.18409,954.68885 158.07057,950.36284 160.60347,938.74809 C 164.55332,928.26651 172.26786,920.41167 179.41828,912.61759 C 190.10827,900.5196 200.30548,887.82405 209.88431,874.60704 C 214.8432,867.81881 219.33254,862.70378 214.01635,855.12759 C 207.87793,849.3846 201.21331,844.47827 195.55228,838.10636 C 190.13042,831.48614 187.64274,823.06709 186.40961,814.36392 C 185.4871,807.82368 186.57084,801.63838 188.60724,795.54173 C 189.13379,793.9639 189.98004,792.57219 190.70404,791.11177 L 212.99396,785.44306 C 212.18677,786.44226 211.24604,787.31752 210.56853,788.44548 C 208.16485,792.84993 206.21983,797.20119 206.45736,802.55411 C 206.91219,809.4998 208.20601,816.1658 212.48064,821.51999 C 218.10762,827.93822 225.0396,832.51635 230.93061,838.5965 C 238.71296,848.60478 239.23929,859.10512 231.08832,869.37471 C 221.53336,882.82523 210.96166,895.36037 200.79295,908.22097 C 194.48743,915.71031 187.39781,922.4992 182.2166,931.07885 C 178.16257,935.89753 180.40615,931.4997 187.30297,933.47491 C 210.06451,934.37657 232.84871,934.57824 255.62158,934.23255 C 298.02834,933.42789 340.46091,930.95719 382.54282,924.83962 C 408.55603,920.8341 436.7129,917.45331 459.90095,902.83208 C 432.35627,928.8997 452.88486,917.65452 451.07414,907.24608 C 449.50226,902.27225 447.70838,897.31995 448.14922,891.92704 C 449.35232,884.2724 452.50649,877.69085 456.96451,871.69349 C 462.23611,864.31116 467.90726,857.26857 472.78616,849.54866 C 478.13594,839.49384 468.23628,837.37245 460.5585,833.79655 C 425.10638,819.99578 387.21495,815.87709 350.48746,808.39701 C 305.14722,800.93165 259.44753,794.50312 213.53448,795.03359 C 205.3532,795.1579 197.14621,795.21653 189.00011,796.15797 L 201.61712,774.00173 z " />
    <path
       style="color:#000000;fill:#434343;fill-opacity:1;fill-rule:nonzero;stroke:none;stroke-width:3.9000001;stroke-linecap:butt;stroke-linejoin:miter;marker:none;marker-start:none;marker-mid:none;marker-end:none;stroke-miterlimit:4;stroke-dasharray:none;stroke-dashoffset:0;stroke-opacity:1;visibility:visible;display:inline;overflow:visible"
       d="M 542.09347,819.6115 C 526.11665,820.01787 508.45772,820.43517 495.48201,832.36205 C 488.88024,849.92967 501.39333,870.03808 491.71374,886.80523 C 483.54484,905.28064 498.34003,930.14949 516.76646,928.63717 C 543.80663,933.54647 571.92085,928.24229 598.37831,937.6244 C 643.89879,945.81369 690.20656,943.24596 735.9852,948.23823 C 747.52935,956.75522 769.9658,950.42998 767.81057,931.9674 C 765.64628,913.41633 747.73618,900.92976 750.2437,881.04626 C 728.38908,860.22076 775.44188,851.98288 766.48502,827.44868 C 762.8253,799.9087 733.7264,782.89938 710.97019,792.8936 C 694.18939,798.89233 678.07217,807.27337 660.62824,810.79842 C 625.04342,820.39078 587.92507,823.95077 551.52772,818.76355 C 548.37261,818.85551 545.21893,819.11237 542.09347,819.6115 z "
       id="path8918"
       sodipodi:nodetypes="ccccccccccccc" />
    <path
       style="color:#000000;fill:#000000;fill-opacity:1;fill-rule:nonzero;stroke:none;stroke-width:3.9000001;stroke-linecap:butt;stroke-linejoin:miter;marker:none;marker-start:none;marker-mid:none;marker-end:none;stroke-miterlimit:4;stroke-dasharray:none;stroke-dashoffset:0;stroke-opacity:1;visibility:visible;display:inline;overflow:visible"
       id="path3436"
       d="M 502.74782,845.41077 C 502.82751,844.37608 505.1019,850.10384 505.7158,852.08065 C 507.43202,859.51057 506.10431,867.06572 504.53636,874.3726 C 502.68295,882.17823 500.03116,889.70154 497.89364,897.4063 C 496.40204,902.5356 496.87576,906.76949 499.08407,911.3591 C 509.35543,919.16491 523.67515,920.2289 535.7337,922.16668 C 571.55608,927.42571 607.6181,930.30702 643.63446,933.32987 C 674.92126,936.00757 706.25826,937.87442 737.55317,940.41776 C 747.46715,941.31817 757.47782,941.80902 767.17623,944.42997 C 775.33348,946.24992 775.69835,937.35757 755.12437,957.43804 C 757.66144,955.9468 757.72683,952.15183 758.20677,948.98762 C 759.00241,943.81415 758.80593,938.80293 757.79727,933.71731 C 755.42274,925.21614 751.95103,917.16066 748.55839,909.12281 C 745.56982,902.10749 742.34379,895.22433 739.12464,888.33942 C 737.16701,884.16879 735.11576,880.05432 733.10129,875.91804 C 726.37262,862.01613 732.86408,861.76011 746.04362,849.19937 C 750.97325,847.44413 755.47492,844.50049 759.87371,841.50812 C 777.70189,824.98269 744.70379,859.39979 757.72386,843.33987 C 760.87339,838.98306 761.69564,834.52224 760.70037,829.19007 C 757.69821,820.84492 752.53511,813.81779 746.90753,807.50341 C 742.79254,802.96094 738.02032,799.81215 732.33308,798.76406 C 726.87395,798.78812 721.48364,800.19809 716.18073,801.54673 C 701.34293,805.69401 686.56522,810.10704 671.73403,814.28484 C 652.82047,819.55375 633.81446,824.49857 614.54695,827.86299 C 602.12406,830.12716 589.56083,830.95007 576.99212,831.15404 C 569.44839,831.20516 561.90132,831.05424 554.37003,830.56535 C 548.88959,830.19489 543.43624,829.47665 537.96607,828.96127 C 533.05389,828.53099 528.12893,828.30387 523.20368,828.37056 C 518.92628,828.34384 514.85608,829.65646 510.8253,831.08468 C 507.06365,832.56464 504.01794,834.97957 501.21353,838.05861 C 528.48124,812.57019 513.98121,824.30864 509.09677,832.30515 C 507.12618,835.8996 505.74161,839.80802 504.53612,843.78224 C 503.59061,846.59104 503.62718,849.43486 503.70623,852.3577 L 483.85818,865.10646 C 483.1141,861.16692 482.52438,857.23917 483.19345,853.20991 C 483.99842,848.46718 485.16217,843.86638 487.04496,839.49885 C 491.96303,827.71436 497.68122,822.1017 508.68009,813.77545 C 512.61875,811.31311 516.78554,809.30528 521.21987,808.24297 C 525.92943,807.18204 530.67992,806.49659 535.49991,806.79932 C 540.59696,807.03806 545.69248,807.33876 550.77074,807.90197 C 556.16443,808.47863 561.55493,809.10069 566.96545,809.45243 C 574.25527,809.85351 581.55082,810.2066 588.85131,810.18914 C 600.96017,810.04803 613.05668,809.14389 625.03379,807.07574 C 643.99728,803.86277 662.72642,799.16536 681.27242,793.72003 C 696.48506,789.20136 711.53699,784.0542 726.71393,779.40966 C 733.06705,777.91543 739.55167,776.44499 745.97415,778.30612 C 752.71357,780.9223 758.66804,784.95329 763.60403,790.82851 C 769.86895,798.17274 775.56191,806.22112 779.62562,815.34547 C 782.20526,822.5947 782.72137,829.57086 779.72271,836.82947 C 773.53738,849.48211 762.48934,857.94507 751.46191,865.01717 C 747.09476,867.64089 741.98197,869.72121 738.5566,873.68948 C 759.84921,853.33292 750.122,854.93537 751.8611,860.96377 C 753.79641,865.16398 755.76677,869.34549 757.64958,873.5762 C 760.77915,880.65184 763.93571,887.71368 766.88587,894.88638 C 770.36624,903.29514 774.01561,911.63712 777.04939,920.26214 C 778.80884,926.23074 779.79951,932.27199 779.11834,938.5783 C 778.8224,942.96415 778.40469,947.32579 777.78501,951.67004 C 763.55336,965.83742 765.55555,969.81678 753.1517,964.73402 C 744.13444,962.33093 734.95498,960.89337 725.75055,959.69065 C 695.10451,955.58015 664.33665,952.73525 633.5722,950.00406 C 597.0889,946.85102 560.55695,944.3586 524.11072,940.71218 C 509.97927,938.95162 492.50743,938.53179 481.41934,927.43248 C 477.42904,921.24522 475.63047,914.30465 476.82533,906.65853 C 478.3383,898.58837 481.27317,891.03935 483.50064,883.19826 C 485.03269,877.4286 486.58106,871.44376 485.98597,865.37324 C 485.1426,862.61233 485.78457,863.20852 485.23095,862.90152 L 502.74782,845.41077 z " />
    <path
       style="opacity:1;color:#000000;fill:#000000;fill-opacity:1;fill-rule:nonzero;stroke:none;stroke-width:3.9000001;stroke-linecap:butt;stroke-linejoin:miter;marker:none;marker-start:none;marker-mid:none;marker-end:none;stroke-miterlimit:4;stroke-dasharray:none;stroke-dashoffset:0;stroke-opacity:1;visibility:visible;display:inline;overflow:visible"
       id="path3452"
       d="M 84.574681,617.4059 C 88.000917,617.1613 75.196666,628.58287 77.817888,626.10239 C 87.190386,617.23317 94.634132,610.25238 87.590491,616.86217 C 76.720306,627.30059 66.391483,638.60765 58.584771,652.10632 C 54.063724,660.48141 53.577866,668.91546 57.309722,677.55912 C 61.265691,683.90698 67.171612,685.12887 73.691557,685.44357 C 85.116157,685.21098 96.195241,681.4791 106.97921,677.55558 C 116.00931,674.11699 124.75822,668.93946 134.50046,670.27648 C 140.54249,671.73339 145.6011,675.7892 150.86742,679.16803 C 155.44569,681.36538 159.4129,679.85142 163.53627,677.26971 C 175.22891,663.29085 145.25325,698.75153 160.41596,678.38388 C 161.80516,676.42803 163.12942,674.41672 164.46434,672.41571 L 186.6173,666.31364 C 185.31012,668.48772 184.02109,670.67707 182.56757,672.7354 C 175.05841,684.01162 166.28794,695.65928 154.13822,700.42799 C 147.59902,702.19466 141.30204,701.82572 135.39576,697.89915 C 131.15992,694.99387 126.96567,691.49905 121.82291,691.32986 C 113.35255,692.68125 105.51508,696.84208 97.293941,699.37742 C 85.619034,703.24895 73.536815,706.94155 61.258802,706.19765 C 52.360176,704.86064 44.481689,701.37856 39.324812,692.68255 C 33.859778,681.9687 33.034198,670.27001 37.591038,658.83419 C 44.2454,643.75009 55.529064,632.11843 66.248727,620.64324 C 70.715935,616.00095 87.415731,594.19029 97.191703,595.24964 L 84.574681,617.4059 z " />
    <path
       style="color:#000000;fill:#363030;fill-opacity:1;fill-rule:nonzero;stroke:none;stroke-width:3.9000001;stroke-linecap:butt;stroke-linejoin:miter;marker:none;marker-start:none;marker-mid:none;marker-end:none;stroke-miterlimit:4;stroke-dasharray:none;stroke-dashoffset:0;stroke-opacity:1;visibility:visible;display:inline;overflow:visible"
       d="M 592.02493,619.53111 C 637.93021,618.52776 747.69741,569.60974 734.60056,661.4625 C 758.49323,714.44494 740.02748,789.96725 675.35967,762.18323 C 631.72053,751.39367 547.20144,749.40166 570.71978,674.09243 C 575.06727,654.77122 582.28634,636.2189 592.02493,619.53111 z "
       id="path4364"
       sodipodi:nodetypes="ccccc" />
    <path
       style="color:#000000;fill:#363030;fill-opacity:1;fill-rule:nonzero;stroke:none;stroke-width:3.9000001;stroke-linecap:butt;stroke-linejoin:miter;marker:none;marker-start:none;marker-mid:none;marker-end:none;stroke-miterlimit:4;stroke-dasharray:none;stroke-dashoffset:0;stroke-opacity:1;visibility:visible;display:inline;overflow:visible"
       d="M 375.05014,608.35915 C 330.30232,606.00202 255.87166,574.6761 241.29253,645.32133 C 205.87007,704.70025 243.89321,759.66011 303.58403,741.11602 C 370.67991,766.19402 396.04094,652.24564 375.05014,608.35915 z "
       id="path4362" />
    <path
       style="color:#000000;fill:#000000;fill-opacity:1;fill-rule:nonzero;stroke:none;stroke-width:3.9000001;stroke-linecap:butt;stroke-linejoin:miter;marker:none;marker-start:none;marker-mid:none;marker-end:none;stroke-miterlimit:4;stroke-dasharray:none;stroke-dashoffset:0;stroke-opacity:1;visibility:visible;display:inline;overflow:visible"
       id="path3308"
       d="M 587.16089,601.63047 C 587.5522,600.99401 593.03448,602.19032 595.10358,602.43977 C 611.8649,603.8608 628.70867,603.60345 645.50593,603.39319 C 664.11272,603.51481 682.66614,602.46915 701.13458,599.95451 C 711.82879,598.86043 722.44076,595.3399 733.22353,596.58051 C 740.3728,597.8914 745.01669,602.68454 747.98747,609.82661 C 751.76894,622.75083 750.33001,636.78118 749.9767,650.15333 C 749.42127,671.89973 748.85325,693.64673 748.52144,715.39917 C 748.09253,727.03651 748.6862,738.72303 747.98742,750.34556 C 746.45609,767.72178 729.9049,773.86372 716.613,775.10024 C 708.70692,775.7157 700.774,775.65613 692.90127,774.63454 C 683.93443,773.10171 675.15194,770.46945 666.32787,768.15875 C 649.04483,763.77475 631.45457,761.15717 613.91899,758.40182 C 598.17235,755.87936 582.34729,754.03627 566.47082,752.95023 C 560.2115,752.41728 553.94923,752.47266 547.76997,753.70806 L 559.19825,731.57755 C 565.74255,731.37405 572.26801,731.74456 578.7744,732.61539 C 594.56105,734.45217 610.30152,736.74279 626.00404,739.32788 C 643.80814,742.18909 661.65715,744.82622 679.31712,748.68169 C 688.08281,750.5876 696.82976,752.76465 705.71502,753.8534 C 713.09615,754.47895 720.5372,754.51188 727.888,753.42304 C 731.33446,752.73211 740.36761,746.61564 737.65064,749.0864 C 713.52762,771.02333 721.24412,765.11383 726.95744,759.81976 C 729.41805,748.72969 728.20245,736.98009 729.21225,725.644 C 730.0943,703.85192 730.95273,682.0519 731.21021,660.23768 C 731.25838,648.12293 731.48445,635.72168 729.03864,623.85443 C 727.19169,619.45743 725.10409,617.61519 720.4798,617.5265 C 710.3827,617.68112 700.39961,619.71293 690.33882,620.56689 C 671.74837,622.47497 653.11641,623.18741 634.44711,622.95093 C 617.142,623.08816 599.82455,623.65232 582.52506,623.19436 C 578.86929,622.90997 574.80011,623.08584 571.51588,621.20762 L 587.16089,601.63047 z " />
    <path
       style="opacity:1;color:#000000;fill:#363030;fill-opacity:1;fill-rule:nonzero;stroke:none;stroke-width:3.9000001;stroke-linecap:butt;stroke-linejoin:miter;marker:none;marker-start:none;marker-mid:none;marker-end:none;stroke-miterlimit:4;stroke-dasharray:none;stroke-dashoffset:0;stroke-opacity:1;visibility:visible;display:inline;overflow:visible"
       d="M 428.75001,629.82142 C 421.25512,641.57719 415.46591,655.09068 415.71007,669.26434 C 414.15915,682.64308 412.44778,696.04169 409.29922,709.15419 C 402.4787,714.08296 408.36119,726.92458 416.54989,724.96444 C 449.4746,722.41379 482.58286,722.1529 515.52141,724.57467 C 521.5521,725.13639 530.62064,725.49833 532.91946,718.4205 C 535.15394,712.3824 532.69323,706.03703 530.54288,700.41434 C 529.71616,693.32876 531.51446,685.88371 528.73793,679.08279 C 526.58804,665.64487 532.755,652.96035 536.78606,640.50965 C 536.76904,632.49327 528.33179,625.84664 520.53336,627.51451 C 491.54835,624.15567 462.38238,627.03897 433.33962,627.78529 C 431.67253,628.0463 430.00584,628.6581 428.75001,629.82142 z "
       id="path16392" />
    <path
       style="color:#000000;fill:#000000;fill-opacity:1;fill-rule:nonzero;stroke:none;stroke-width:3.9000001;stroke-linecap:butt;stroke-linejoin:miter;marker:none;marker-start:none;marker-mid:none;marker-end:none;stroke-miterlimit:4;stroke-dasharray:none;stroke-dashoffset:0;stroke-opacity:1;visibility:visible;display:inline;overflow:visible"
       id="path3302"
       d="M 391.42609,615.3747 C 393.81751,617.04015 384.22904,616.11846 382.11238,616.14302 C 367.82945,616.06621 353.54392,615.58922 339.2656,615.13076 C 325.75795,614.63087 312.24709,614.2767 298.73541,613.95797 C 291.33261,613.83371 283.94986,613.25502 276.56847,612.66176 C 272.17859,612.38112 267.79338,612.00563 263.40694,611.71123 C 256.70199,612.82003 239.31562,634.08913 272.07358,602.35737 C 267.99311,607.06926 265.67259,613.31479 263.35792,619.26479 C 259.6581,629.13678 257.1426,639.47376 254.78879,649.82672 C 251.95458,662.53073 249.61046,675.35963 247.19719,688.16889 C 245.49992,697.20569 243.52747,706.17322 241.71387,715.18068 C 240.73047,719.1185 240.2347,722.88844 240.80039,726.79242 C 243.09383,729.8671 246.55087,730.39614 249.91913,731.13338 C 261.57019,732.64159 273.3301,733.00631 285.04746,733.43555 C 299.66091,734.04173 314.28167,734.09803 328.90068,733.80006 C 337.69361,733.60679 346.48196,733.23121 355.27084,732.88651 C 359.90322,732.68632 364.53814,732.60894 369.17341,732.56674 C 372.10637,732.54635 375.03413,732.83817 377.96029,733.04123 L 365.28557,754.39638 C 362.48027,754.27322 359.67742,754.1547 356.86948,754.26306 C 352.32239,754.29529 347.77537,754.33767 343.22833,754.3772 C 334.55326,754.44184 325.87793,754.49368 317.20264,754.46156 C 302.59349,754.36392 287.99049,753.96652 273.38893,753.43343 C 261.07235,753.04214 248.63652,753.37947 236.41886,751.53531 C 230.87017,749.9737 225.77332,747.62861 222.37931,742.20455 C 219.60579,736.44967 219.05517,730.95725 220.66322,724.55823 C 222.472,715.40153 224.81623,706.39164 226.69991,697.25411 C 229.32837,684.42382 231.67215,671.52255 234.36957,658.70925 C 236.56886,648.11987 238.70838,637.47602 242.06227,627.25113 C 244.24429,620.6068 246.68693,614.0683 249.65487,607.81042 C 259.59871,597.70216 263.63925,587.99315 276.18578,590.32597 C 280.56588,590.79886 284.95762,591.10726 289.33741,591.59246 C 296.50078,592.32491 303.67386,592.89718 310.86151,593.24145 C 324.20358,593.93757 337.54482,594.66645 350.89383,595.17877 C 365.18579,595.68475 379.53083,596.05417 393.798,594.76989 C 397.22782,594.37692 401.73474,592.65503 404.04312,593.21844 L 391.42609,615.3747 z " />
    <path
       style="color:#000000;fill:#434343;fill-opacity:1;fill-rule:nonzero;stroke:none;stroke-width:3.9000001;stroke-linecap:butt;stroke-linejoin:miter;marker:none;marker-start:none;marker-mid:none;marker-end:none;stroke-miterlimit:4;stroke-dasharray:none;stroke-dashoffset:0;stroke-opacity:1;visibility:visible;display:inline;overflow:visible"
       d="M 493.6875,634.75 C 494.71711,640.31284 494.5673,645.98066 491.4375,650.9375 C 484.23989,657.57195 473.89848,654.27008 465.15625,655.09375 C 445.41565,655.31434 425.42547,653.58763 405.9375,657.625 C 398.78025,659.91766 392.53492,668.92684 397.0625,676.0625 C 402.53433,683.74189 412.90462,683.19511 421.125,685.375 C 442.77616,689.80682 465.03382,688.56195 486.90625,690.5 C 493.92143,692.71452 494.81642,701.1798 494.46875,707.4375 C 494.36451,707.97042 494.30751,708.47715 494.28125,709 C 503.21211,709.42366 512.12967,709.98999 521.03125,710.84375 C 522.17848,711.04798 523.28339,711.15814 524.34375,711.1875 C 524.94714,705.85622 524.32557,699.80574 524.25,695.21875 C 523.92976,683.30645 523.01169,671.43266 522.5,659.53125 C 522.16042,652.78589 522.41222,646.03884 523.15625,639.34375 C 523.86817,637.47337 524.08731,636.64829 524.0625,636.34375 C 524.06256,636.34099 524.06235,636.31555 524.0625,636.3125 C 524.06258,636.30971 524.06227,636.28446 524.0625,636.28125 C 524.05753,636.26963 524.03694,636.22913 524.03125,636.21875 C 524.02781,636.21903 524.00283,636.21865 524,636.21875 C 523.99664,636.21891 523.97156,636.21868 523.96875,636.21875 C 523.96372,636.21857 523.9428,636.21852 523.9375,636.21875 C 523.92663,636.21845 523.88612,636.21869 523.875,636.21875 C 523.8719,636.21852 523.84649,636.21879 523.84375,636.21875 C 523.50633,636.33294 522.87529,636.80465 522.375,636.5 C 522.36971,636.49658 522.34901,636.47235 522.34375,636.46875 C 522.31759,636.44984 522.27532,636.42995 522.25,636.40625 C 522.24497,636.40131 522.22374,636.38014 522.21875,636.375 C 522.2138,636.36965 522.19241,636.3493 522.1875,636.34375 C 522.08525,636.22267 521.98566,636.03979 521.90625,635.8125 C 516.0769,634.79104 510.1665,634.80815 504.28125,634.78125 C 500.75444,634.78995 497.2201,634.77644 493.6875,634.75 z "
       id="path16457" />
    <path
       style="color:#000000;fill:#000000;fill-opacity:1;fill-rule:nonzero;stroke:none;stroke-width:3.9000001;stroke-linecap:butt;stroke-linejoin:miter;marker:none;marker-start:none;marker-mid:none;marker-end:none;stroke-miterlimit:4;stroke-dasharray:none;stroke-dashoffset:0;stroke-opacity:1;visibility:visible;display:inline;overflow:visible"
       id="path16455"
       d="M 503.30292,621.67384 C 503.1169,623.66364 503.1063,625.66835 503.05914,627.66548 C 502.89963,632.11766 502.73917,636.56816 502.33458,641.00518 C 501.27852,652.15179 489.73406,658.00026 479.51627,659.04241 C 467.45182,659.68061 455.3584,659.64028 443.28029,659.8944 C 431.39464,660.36597 419.39304,659.85947 407.63204,661.89009 C 387.22212,672.36899 416.05454,652.78741 407.98664,658.84417 C 405.71031,661.36547 405.17183,664.64596 404.64308,667.89119 C 404.0386,671.22571 404.89088,673.78638 406.69545,676.49367 C 410.30892,680.02491 415.2543,681.13613 420.06794,682.03651 C 426.90276,683.02621 433.82813,682.85602 440.71058,682.66699 C 448.25547,682.32257 455.80761,682.31602 463.35636,682.15572 C 472.54453,681.80768 481.74046,681.16968 490.88297,682.41218 C 496.46693,683.17401 500.2245,685.89258 502.64918,690.84046 C 503.94157,694.7049 503.32266,698.65243 502.60748,702.55839 C 501.77538,706.46499 500.84932,710.35131 499.92068,714.23592 C 499.68606,715.22295 499.4291,716.20444 499.17958,717.18775 L 482.3897,723.70413 C 482.63404,722.70263 482.85634,721.69544 483.13715,720.70301 C 484.11008,716.88687 485.06097,713.06536 485.94271,709.22662 C 486.58266,706.31573 487.37311,703.38959 487.28904,700.38585 C 485.87499,697.78321 484.04119,697.04721 480.69197,696.78846 C 471.91963,695.76657 463.09857,696.35804 454.29988,696.7401 C 446.66114,697.04366 439.02344,697.39795 431.37994,697.56034 C 424.12371,697.6381 416.81478,697.55674 409.6641,696.18313 C 403.53497,694.79462 397.48286,692.80206 393.0514,688.10466 C 389.98594,684.39034 388.18595,680.19996 388.27875,675.30929 C 388.53258,671.22312 389.01084,667.11383 390.5439,663.28092 C 395.71732,653.34004 405.57326,647.66211 416.26479,646.77044 C 428.15946,645.85344 440.10528,646.34239 452.02153,645.94673 C 464.06961,645.69074 476.21395,645.62244 488.13641,643.71558 C 507.42654,638.59347 474.02711,656.53509 485.69365,647.75606 C 486.64056,643.69839 486.78528,639.54897 486.84272,635.38147 C 486.87584,633.51198 486.91169,631.63397 486.69708,629.77305 L 503.30292,621.67384 z " />
    <path
       style="color:#000000;fill:#434343;fill-opacity:1;fill-rule:nonzero;stroke:none;stroke-width:3.9000001;stroke-linecap:butt;stroke-linejoin:miter;marker:none;marker-start:none;marker-mid:none;marker-end:none;stroke-miterlimit:4;stroke-dasharray:none;stroke-dashoffset:0;stroke-opacity:1;visibility:visible;display:inline;overflow:visible"
       d="M 382.3125 569.75 C 352.46281 629.00316 365.23447 714.98615 349.65625 777.90625 C 392.7617 788.47685 414.85606 752.24551 502.9375 765.375 C 586.00337 811.40542 595.20963 742.64806 590.21875 678.71875 C 619.09993 634.78442 615.25022 554.9814 539.875 572.28125 C 487.34629 574.52961 434.82733 570.5345 382.3125 569.75 z M 509.4375 623.3125 C 516.5078 623.20886 523.46755 624.00014 529.5 628.1875 C 533.89118 633.60464 532.63279 640.92475 532.75 647.375 C 537.09752 664.86692 535.34541 683.08315 533.4375 700.78125 C 534.82743 708.50653 529.73332 717.07016 521.96875 718.90625 C 500.12731 718.54735 478.28073 718.28224 456.4375 718.0625 C 442.89567 716.13544 428.5324 720.11899 415.59375 714.40625 C 410.79739 709.40593 410.20187 701.79572 411.78125 695.34375 C 411.26123 682.83162 412.78556 670.30854 415.4375 658.09375 C 417.29117 646.30126 419.87582 632.66603 430.71875 625.71875 C 451.47474 628.6993 472.32717 625.32958 493.0625 623.96875 C 498.36787 624.01514 503.93838 623.39311 509.4375 623.3125 z "
       id="path4360" />
    <path
       style="color:#000000;fill:#000000;fill-opacity:1;fill-rule:nonzero;stroke:none;stroke-width:3.9000001;stroke-linecap:butt;stroke-linejoin:miter;marker:none;marker-start:none;marker-mid:none;marker-end:none;stroke-miterlimit:4;stroke-dasharray:none;stroke-dashoffset:0;stroke-opacity:1;visibility:visible;display:inline;overflow:visible"
       id="path3264"
       d="M 383.78732,565.03549 C 383.11868,573.98776 382.45048,582.94259 381.6155,591.87996 C 377.70864,628.87201 372.37634,665.65201 367.15089,702.43299 C 364.50065,725.80348 359.31795,748.96528 358.47858,772.5655 C 362.11593,777.03795 379.57137,769.19229 387.48646,766.88037 C 413.43317,758.79507 440.19292,754.86177 467.09286,754.36172 C 491.52485,754.05791 515.82764,757.84468 539.64017,763.72979 C 549.91526,766.36722 560.07108,769.58553 569.99886,773.5506 C 571.74748,774.24409 573.39054,775.19909 575.0661,776.07409 L 559.7253,795.28887 C 558.27418,794.53258 556.83563,793.74227 555.34946,793.0725 C 546.0794,788.89432 536.59629,785.31024 526.90989,782.53381 C 503.94327,776.08709 480.34292,772.43645 456.62424,773.08148 C 430.00012,773.98375 403.64665,778.49251 378.14477,787.2377 C 366.35031,790.96834 341.85539,804.49634 338.54224,783.22524 C 339.80025,758.68584 346.70053,734.87774 349.67656,710.58911 C 355.44594,674.45284 360.66053,638.11684 362.81658,601.45557 C 363.15591,593.17405 363.46713,584.81145 362.68158,576.55169 L 383.78732,565.03549 z " />
    <path
       style="color:#000000;fill:#000000;fill-opacity:1;fill-rule:nonzero;stroke:none;stroke-width:3.9000001;stroke-linecap:butt;stroke-linejoin:miter;marker:none;marker-start:none;marker-mid:none;marker-end:none;stroke-miterlimit:4;stroke-dasharray:none;stroke-dashoffset:0;stroke-opacity:1;visibility:visible;display:inline;overflow:visible"
       id="path3272"
       d="M 362.68158,591.76019 C 362.2253,589.928 363.10023,587.60616 363.47936,585.41708 C 364.37178,569.57352 369.63787,568.67728 382.99158,556.39756 C 392.45074,553.30131 402.38272,554.79758 411.98434,556.18051 C 430.43722,559.00534 448.86647,561.98854 467.41064,563.97337 C 488.81965,566.08808 510.30982,567.19304 531.80215,567.21993 C 545.63171,567.30705 559.4451,566.62773 573.23688,565.55081 C 580.12142,564.92881 587.02159,564.56536 593.90439,563.9271 C 599.50038,562.98241 604.04612,563.18419 608.47385,567.38788 C 613.86501,575.14131 614.00154,585.83318 613.92329,595.26554 C 613.3258,614.96764 610.25273,634.48351 606.7486,653.76742 C 603.49004,671.19055 599.84513,688.51854 596.59715,705.94421 C 594.95377,714.57718 593.63798,723.27845 592.86122,732.06147 C 592.46274,736.76583 592.62966,741.48928 592.69125,746.20374 C 592.82687,751.5922 592.2524,756.93185 591.42076,762.22501 C 589.12503,777.17943 582.00195,780.59411 570.49789,791.2514 C 565.9128,793.41589 560.929,793.62343 556.02434,793.73942 C 551.17439,793.88228 546.43437,792.93769 541.77009,791.56134 L 555.69829,771.20198 C 559.76227,771.95625 563.84704,772.44631 567.97101,771.90896 C 571.84463,771.26854 575.51583,770.65113 578.12818,767.04153 C 550.50586,792.82094 567.11037,781.1105 570.1324,771.58812 C 571.18849,766.94259 572.04443,762.25456 572.08551,757.43567 C 572.10156,752.48799 571.82887,747.53866 572.12519,742.59516 C 572.85628,733.27783 574.36517,724.08593 576.29707,714.9851 C 579.90098,697.47746 583.88345,680.06962 587.30928,662.51629 C 590.80502,643.88814 593.97933,625.01535 594.30494,605.93366 C 594.20008,598.88898 594.21048,591.46218 591.63615,584.92402 C 588.49441,585.27625 585.29583,585.58301 582.12379,585.74915 C 575.30266,586.10522 568.47937,586.42096 561.65687,586.74568 C 547.93486,587.26148 534.20496,587.34233 520.47924,586.89485 C 498.89527,586.25881 477.31522,585.11562 455.80633,582.96631 C 437.07529,581.08529 418.45879,578.12114 399.74364,576.09055 C 391.46426,575.41422 381.71306,574.053 374.85724,580.26555 C 394.48377,561.72014 386.57113,562.71564 384.58603,575.15141 C 384.48577,576.37982 384.49023,582.43681 383.78732,580.244 L 362.68158,591.76019 z " />
    <path
       style="color:#000000;fill:#000000;fill-opacity:1;fill-rule:nonzero;stroke:none;stroke-width:3.9000001;stroke-linecap:butt;stroke-linejoin:miter;marker:none;marker-start:none;marker-mid:none;marker-end:none;stroke-miterlimit:4;stroke-dasharray:none;stroke-dashoffset:0;stroke-opacity:1;visibility:visible;display:inline;overflow:visible"
       id="path3298"
       d="M 435.44522,616.3973 C 435.13783,621.00287 434.23409,625.53734 433.45146,630.07121 C 430.98944,644.66442 427.66694,659.05705 424.28037,673.41015 C 421.90606,684.58091 418.38254,695.39955 415.88264,706.52298 C 416.26833,707.74402 428.17514,707.21037 432.06043,707.32902 C 448.81368,707.80472 465.5736,707.96243 482.32572,708.48924 C 495.24081,708.91717 508.15522,709.6106 521.03,710.84544 C 535.28687,713.38349 543.92154,700.4358 519.94621,721.27809 C 526.19387,716.07871 524.38797,703.35719 524.25389,695.21836 C 523.93367,683.30608 523.00296,671.42954 522.49127,659.52813 C 522.15169,652.78278 522.39797,646.04519 523.142,639.3501 C 525.47859,633.21141 522.81991,638.42817 521.90883,635.82034 C 516.07946,634.79885 510.16039,634.80771 504.27514,634.78081 C 497.85508,634.79665 491.43502,634.74959 485.01554,634.65452 C 478.49734,634.46972 471.97707,634.55844 465.45748,634.55435 C 459.04524,634.55422 452.63377,634.46502 446.22279,634.33148 C 441.23498,634.2228 436.24877,634.04316 431.26306,633.85092 C 427.05152,633.68278 422.84037,633.5028 418.62914,633.32546 C 416.2599,633.27126 413.90412,632.96287 411.54728,632.71001 L 424.9191,611.83081 C 427.16177,611.99603 429.40244,612.16373 431.65091,612.20294 C 435.85326,612.38566 440.05545,612.57218 444.25755,612.76205 C 449.17737,612.97797 454.09749,613.19015 459.0196,613.32964 C 465.35257,613.49173 471.68693,613.60467 478.02184,613.56132 C 484.57893,613.52995 491.1348,613.5175 497.69073,613.6911 C 504.1123,613.75798 510.53401,613.71973 516.95536,613.79558 C 523.46294,613.98294 530.07456,614.11055 536.38655,616.05972 C 541.95504,618.81391 545.89418,622.90095 544.55111,630.21294 C 543.37298,636.36072 542.65565,642.57111 542.74901,648.88266 C 542.83411,660.86005 543.5597,672.81293 543.9812,684.77895 C 544.35081,695.6696 545.3035,707.06044 542.64896,717.65958 C 526.67429,731.7553 525.06346,734.21498 508.01104,731.03837 C 495.46686,729.56178 482.87728,728.60363 470.26924,728.16403 C 453.53009,727.56649 436.77713,727.10967 420.02944,727.43473 C 410.60962,727.74868 396.70131,729.72101 394.86762,715.93436 C 396.35227,704.04394 401.55962,693.11025 403.86129,681.39894 C 407.43396,667.49147 410.64897,653.4344 412.67111,639.12988 C 413.19227,635.13792 413.86409,631.0742 413.98511,627.06237 L 435.44522,616.3973 z " />
    <path
       style="opacity:1;color:#000000;fill:#000000;fill-opacity:1;fill-rule:nonzero;stroke:none;stroke-width:3.9000001;stroke-linecap:butt;stroke-linejoin:miter;marker:none;marker-start:none;marker-mid:none;marker-end:none;stroke-miterlimit:4;stroke-dasharray:none;stroke-dashoffset:0;stroke-opacity:1;visibility:visible;display:inline;overflow:visible"
       id="path3465"
       d="M 616.50177,280.40238 C 626.72073,285.25569 637.29855,289.68664 647.55437,294.61819 C 697.43493,323.33407 742.73408,362.72845 783.10516,406.11893 C 820.49237,448.38846 856.97586,500.30725 859.03412,562.28229 C 858.61763,588.36955 848.35696,611.35993 833.89328,631.18644 L 814.80765,635.58062 C 829.78211,617.56956 841.05203,596.2711 842.76993,571.23096 C 843.85474,510.48265 808.35103,458.53271 772.23994,417.1116 C 732.33623,373.99049 686.89177,334.29567 634.79325,311.66377 C 625.97793,308.20913 611.24953,302.08166 603.88476,302.55864 L 616.50177,280.40238 z " />
    <g
       id="g9079"
       transform="matrix(1.270982,0,0,1.421891,-76.14847,-183.8373)">
      <path
         id="path7066"
         d="M 610,540 C 601.15346,560.34925 616.38739,583.64695 638.89184,573.20966 C 662.4935,573.45474 685.50038,580.77104 709.1661,579.8656 C 730.65746,569.85012 717.10343,533.19309 693.29517,540.89138 C 665.5251,540.81961 637.76394,541.06374 610,540 z "
         style="color:#000000;fill:#ffffff;fill-opacity:1;fill-rule:nonzero;stroke:none;stroke-width:3.9000001;stroke-linecap:butt;stroke-linejoin:miter;marker:none;marker-start:none;marker-mid:none;marker-end:none;stroke-miterlimit:4;stroke-dasharray:none;stroke-dashoffset:0;stroke-opacity:1;visibility:visible;display:inline;overflow:visible" />
      <path
         d="M 621.93724,536.93698 C 620.81686,535.7794 620.27888,538.24888 619.68427,539.81237 C 618.22903,545.37501 617.78944,551.12571 617.97009,556.85542 C 618.03573,562.28493 620.25966,564.32165 625.24115,565.60034 C 633.8444,567.09774 642.64246,566.86708 651.34721,566.98445 C 662.3834,567.07002 673.34905,568.51545 684.26059,570.05208 C 692.26076,571.20536 700.2704,572.29838 708.29514,573.26722 C 712.44514,573.85714 715.86947,574.47334 718.50138,571.41813 C 700.4467,587.74169 710.05338,581.34636 710.62379,571.04823 C 710.69003,565.3593 710.42207,559.61888 709.19676,554.05994 C 704.63831,548.76488 694.7288,549.22712 688.11167,548.6907 C 675.15466,547.75642 662.15161,547.76424 649.17097,548.053 C 642.14927,548.26572 635.13261,548.5436 628.10703,548.54745 C 624.59313,548.51719 621.07974,548.41602 617.56782,548.4575 C 615.19348,548.51328 612.84602,548.85715 610.49797,549.17214 L 619.54621,533.50814 C 622.11159,533.28847 624.68044,533.10379 627.25819,533.18952 C 630.76149,533.31863 634.2656,533.43897 637.7706,533.51853 C 644.61907,533.63968 651.46762,533.57523 658.31683,533.62165 C 671.36922,533.73761 684.42825,534.02453 697.45513,534.8793 C 706.73751,535.59186 718.99831,535.27336 724.16754,544.42659 C 726.22215,550.50151 726.19324,557.00294 726.54335,563.35855 C 726.68984,576.32161 725.25956,579.72914 712.26699,588.37294 C 707.51964,589.0749 702.8159,588.56566 698.08632,587.73133 C 690.18264,586.49534 682.29066,585.18597 674.38651,583.95307 C 663.68409,582.35666 652.90667,581.24984 642.06989,581.41877 C 632.86046,581.31903 623.50436,581.58287 614.48283,579.46414 C 607.44681,577.06451 602.94344,572.66678 602.28325,564.95916 C 601.86537,558.78152 602.11656,552.60329 603.00946,546.47136 C 603.30451,544.41035 603.86896,542.24094 603.75873,540.22419 L 621.93724,536.93698 z "
         id="path3483"
         style="color:#000000;fill:#000000;fill-opacity:1;fill-rule:nonzero;stroke:none;stroke-width:3.9000001;stroke-linecap:butt;stroke-linejoin:miter;marker:none;marker-start:none;marker-mid:none;marker-end:none;stroke-miterlimit:4;stroke-dasharray:none;stroke-dashoffset:0;stroke-opacity:1;visibility:visible;display:inline;overflow:visible" />
    </g>
    <path
       style="opacity:1;color:#000000;fill:#fcff00;fill-opacity:0.75776397;fill-rule:nonzero;stroke:none;stroke-width:3.9000001;stroke-linecap:butt;stroke-linejoin:miter;marker:none;marker-start:none;marker-mid:none;marker-end:none;stroke-miterlimit:4;stroke-dasharray:none;stroke-dashoffset:0;stroke-opacity:1;visibility:visible;display:inline;overflow:visible"
       d="M 615.22381,684.34961 C 623.02009,672.8247 639.81743,671.55473 649.20114,681.32185 C 658.83972,686.9946 672.3517,683.4137 677.90016,672.67132 C 688.61883,663.8475 703.53872,670.89642 710.85602,681.62561 C 719.43063,690.07965 733.49409,696.45211 743.56914,687.39253 C 752.33626,680.2529 762.11571,671.32528 773.72067,673.34779 C 783.93023,677.10107 794.37408,686.7185 805.54306,681.22897 C 816.8833,677.1912 828.7895,691.34384 825.49686,703.8232 C 828.31916,721.93172 828.52436,746.70082 812.59562,755.8451 C 791.10348,771.40326 766.14039,786.08518 742.50811,797.34458 C 711.48799,806.47128 678.31257,803.15286 647.91956,792.688 C 629.85417,785.66097 610.49691,773.89281 603.50758,752.69413 C 597.01686,730.84482 602.86232,706.60795 613.93988,687.94044"
       id="path9110"
       sodipodi:nodetypes="ccccccccccccc" />
    <g
       id="g9071"
       transform="matrix(1.270982,0,0,1.421891,-96.04869,-182.4009)">
      <path
         sodipodi:nodetypes="cccccccc"
         id="path5294"
         d="M 603.57141,537.14288 C 584.76659,527.48063 547.03826,547.81714 564.3212,569.31761 C 586.86966,594.76043 548.78482,618.57504 553.35755,647.05594 C 549.55912,683.25204 590.71632,698.14296 620.31301,692.05577 C 658.41852,690.20423 705.9463,682.46431 724.34305,644.34972 C 735.68482,619.34089 724.67771,586.91059 697.40097,578.43602 C 677.11652,565.68103 659.27736,575.25955 638.50795,572.60408 C 660.69526,555.68854 619.97075,530.90939 603.57141,537.14288 z "
         style="opacity:1;color:#000000;fill:#884000;fill-opacity:0.6956522;fill-rule:nonzero;stroke:none;stroke-width:3.9000001;stroke-linecap:butt;stroke-linejoin:miter;marker:none;marker-start:none;marker-mid:none;marker-end:none;stroke-miterlimit:4;stroke-dasharray:none;stroke-dashoffset:0;stroke-opacity:1;visibility:visible;display:inline;overflow:visible" />
      <path
         d="M 579.08009,535.50841 C 578.2291,534.88111 575.35958,539.69605 574.31322,541.22354 C 570.72705,546.57455 567.81659,552.36441 566.55407,558.70437 C 565.89492,562.712 567.07969,565.15866 570.18097,567.44384 C 574.52393,568.7704 577.98797,570.18778 580.44538,574.17368 C 582.29994,581.45965 577.34467,588.66465 574.10899,594.94952 C 569.64938,603.12645 565.60646,611.50256 562.40614,620.2517 C 558.78295,630.07104 557.95179,640.3941 559.01686,650.7461 C 560.19924,662.606 565.906,672.17961 576.23835,678.1287 C 597.99409,688.4446 623.37054,687.77065 646.7083,684.68681 C 665.62007,681.86364 684.1964,675.87587 700.35932,665.49558 C 704.45205,662.86711 715.85762,653.73859 712.07646,656.79834 C 709.78097,658.65588 707.49546,660.52571 705.20496,662.38939 C 718.15175,651.87645 725.34628,637.48845 720.91224,620.95028 C 716.34262,606.40276 704.16306,597.38406 690.93128,591.12975 C 679.70666,586.01584 667.69298,583.02416 655.46037,581.73328 C 649.39428,581.02393 643.40988,581.96921 637.42172,582.75514 C 632.23871,582.82054 630.43428,578.24001 632.02515,573.9841 C 634.28375,570.49158 635.41167,566.79082 635.73442,562.69283 C 635.69392,556.20373 633.02416,552.30375 627.72125,548.87022 C 617.23586,543.08061 605.56469,541.51076 593.76072,542.36612 C 582.92021,542.99166 573.36384,547.34263 564.90944,553.90895 L 570.81602,537.66603 C 580.47718,531.71477 591.08606,528.17363 602.5405,528.07365 C 615.40047,527.78293 628.16783,530.0411 639.50845,536.37888 C 646.54801,540.59353 650.73148,546.35626 651.5682,554.61721 C 651.98587,559.54384 651.56855,564.33134 649.34082,568.82798 C 647.63004,569.35546 645.03843,569.7432 646.53904,567.24054 C 652.8064,566.61381 659.11075,566.61281 665.35023,567.60421 C 677.9554,569.683 690.27639,573.31029 701.8106,578.86898 C 716.36005,586.14548 729.50869,596.36896 734.90933,612.33546 C 740.41911,630.44388 735.01281,647.61721 720.69371,660.059 C 696.77797,679.88024 671.09959,694.44891 639.42851,697.28381 C 614.77057,700.15088 588.08069,700.82122 565.07759,690.13086 C 553.12859,683.33454 545.93028,672.48025 544.05657,658.81987 C 542.61098,647.85791 542.88346,636.60807 546.23306,626.0006 C 549.06671,616.91009 553.02352,608.23305 557.49683,599.83785 C 560.18009,594.66009 562.77761,589.20643 565.29978,584.07726 C 563.68836,583.19521 559.9041,581.61926 557.7136,580.32207 C 552.9765,576.72744 550.2042,571.9564 550.35707,565.86407 C 550.98866,558.66674 553.6419,552.01686 557.22566,545.77032 C 558.46101,543.59902 560.57749,541.02162 560.90159,538.79562 L 579.08009,535.50841 z "
         id="path3477"
         style="opacity:1;color:#000000;fill:#000000;fill-opacity:1;fill-rule:nonzero;stroke:none;stroke-width:3.9000001;stroke-linecap:butt;stroke-linejoin:miter;marker:none;marker-start:none;marker-mid:none;marker-end:none;stroke-miterlimit:4;stroke-dasharray:none;stroke-dashoffset:0;stroke-opacity:1;visibility:visible;display:inline;overflow:visible" />
    </g>
    <path
       style="opacity:1;color:#000000;fill:#000000;fill-opacity:1;fill-rule:nonzero;stroke:none;stroke-width:3.9000001;stroke-linecap:butt;stroke-linejoin:miter;marker:none;marker-start:none;marker-mid:none;marker-end:none;stroke-miterlimit:4;stroke-dasharray:none;stroke-dashoffset:0;stroke-opacity:1;visibility:visible;display:inline;overflow:visible"
       id="path1307"
       d="M 470.95666,263.33106 C 501.4201,235.46289 481.8237,250.77462 477.59486,264.31017 C 475.65234,274.48334 475.20134,286.84377 484.6625,291.84047 C 495.86156,294.15176 506.0699,287.89451 514.17342,279.77841 C 489.1882,304.24072 509.36414,288.32075 506.98903,273.28244 L 525.55768,259.71709 C 530.62545,280.65226 520.06238,289.01916 504.53847,302.00094 C 494.09542,309.76539 481.90616,314.85784 469.52476,309.88602 C 458.17538,302.15333 455.9794,289.09077 457.79869,274.92116 C 461.06211,257.14966 468.19566,251.09443 482.45388,240.43637 L 470.95666,263.33106 z " />
    <path
       style="color:#000000;fill:#e2e2e2;fill-opacity:1;fill-rule:nonzero;stroke:none;stroke-width:3.9000001;stroke-linecap:butt;stroke-linejoin:miter;marker:none;marker-start:none;marker-mid:none;marker-end:none;stroke-miterlimit:4;stroke-dasharray:none;stroke-dashoffset:0;stroke-opacity:1;visibility:visible;display:inline;overflow:visible"
       d="M 783.11456,626.10729 C 783.19466,626.12267 783.27289,626.13581 783.35287,626.15172 C 783.27252,626.13571 783.19503,626.12277 783.11456,626.10729 z M 714.32268,630.37296 C 714.49109,630.7682 714.66808,631.17761 714.83902,631.57268 C 714.66311,631.16593 714.49593,630.77989 714.32268,630.37296 z M 716.22915,634.77193 C 716.33565,635.008 716.43949,635.24702 716.5469,635.48288 C 716.43734,635.24217 716.33776,635.01284 716.22915,634.77193 z M 719.88323,642.4146 C 736.23918,675.08434 761.7531,703.51673 798.12803,696.31315 C 818.15178,685.01915 821.12612,667.39456 814.92882,652.54557 C 813.65543,652.3475 812.39138,652.08634 811.11588,651.83462 C 801.07047,650.07719 791.01581,648.21115 780.96978,646.4581 C 767.36716,644.18819 753.67454,642.61874 739.90119,642.85894 C 733.2518,642.77837 726.54081,642.87734 719.88323,642.4146 z M 810.5201,644.503 C 810.55292,644.55015 810.56692,644.58905 810.59954,644.6363 C 810.57093,644.5949 810.54885,644.54432 810.5201,644.503 z "
       id="path6174" />
    <path
       style="color:#000000;fill:#000000;fill-opacity:1;fill-rule:nonzero;stroke:none;stroke-width:3.9000001;stroke-linecap:butt;stroke-linejoin:miter;marker:none;marker-start:none;marker-mid:none;marker-end:none;stroke-miterlimit:4;stroke-dasharray:none;stroke-dashoffset:0;stroke-opacity:1;visibility:visible;display:inline;overflow:visible"
       id="path3485"
       d="M 726.95224,623.94233 C 726.35419,625.63931 727.18566,628.97599 727.54602,631.13164 C 729.32401,639.53662 732.06738,647.64314 736.06951,655.03089 C 739.60202,661.43853 745.01535,664.13251 751.35555,665.59469 C 758.33528,666.36729 764.12659,668.51504 768.80555,674.49035 C 771.86599,679.63862 773.60263,685.33641 777.55256,689.72073 C 786.19223,695.25917 796.14314,689.47274 803.37282,683.43119 C 802.01062,685.01558 809.51969,677.42761 807.9365,678.86753 C 785.39572,699.36868 807.03819,679.51362 812.76639,660.82905 C 815.05926,652.64197 815.06552,644.7223 811.96878,636.93787 L 830.38939,622.11156 C 834.71006,631.65394 835.61242,641.80176 833.26988,652.24467 C 827.56267,675.54751 814.51633,693.21824 795.64667,705.92759 C 784.87002,712.68805 771.59267,716.15961 761.08011,707.01037 C 756.65369,702.34221 753.92639,696.79798 751.22496,690.77876 C 747.32184,687.33366 742.67809,686.76566 737.73338,685.69319 C 729.70099,682.9778 722.80402,678.4316 718.24788,670.27577 C 713.8059,662.17333 710.6997,653.36918 708.17217,644.30554 C 707.35165,641.37099 706.58374,638.4124 705.84652,635.45852 L 726.95224,623.94233 z " />
    <path
       style="opacity:1;color:#000000;fill:#9a0000;fill-opacity:1;fill-rule:nonzero;stroke:none;stroke-width:3.9000001;stroke-linecap:butt;stroke-linejoin:miter;marker:none;marker-start:none;marker-mid:none;marker-end:none;stroke-miterlimit:4;stroke-dasharray:none;stroke-dashoffset:0;stroke-opacity:1;visibility:visible;display:inline;overflow:visible"
       d="M 651.03463,209.21395 C 698.23421,237.06512 717.95263,165.62964 691.98161,130.1572 C 666.1277,51.910744 576.61207,22.142236 511.74559,56.599557 C 474.45761,78.85677 421.79706,107.74014 420.14349,161.7931 C 453.86722,197.50513 505.67367,171.97636 546.59746,187.27963 C 578.76144,190.09226 632.45406,165.54624 650.39206,206.28698 L 650.93271,208.74969 L 651.03463,209.21395 z "
       id="path2262" />
    <path
       style="opacity:1;color:#000000;fill:#ffffff;fill-opacity:1;fill-rule:nonzero;stroke:none;stroke-width:3.9000001;stroke-linecap:butt;stroke-linejoin:miter;marker:none;marker-start:none;marker-mid:none;marker-end:none;stroke-miterlimit:4;stroke-dasharray:none;stroke-dashoffset:0;stroke-opacity:1;visibility:visible;display:inline;overflow:visible"
       d="M 400.46965,134.05688 C 464.41115,138.47651 528.61398,140.48151 592.59408,138.77991 C 623.8127,138.19131 624.98705,179.38522 615.5723,202.79071 C 598.52291,228.76591 569.45035,200.5196 546.52791,204.86862 C 509.88888,203.21567 473.1122,207.22212 436.59597,204.46605 C 411.96755,213.49721 385.8218,201.59463 391.04807,169.44817 C 387.58202,156.5013 384.10509,137.62612 400.46965,134.05688 z "
       id="path3143" />
    <path
       style="opacity:1;color:#000000;fill:#000000;fill-opacity:1;fill-rule:nonzero;stroke:none;stroke-width:3.9000001;stroke-linecap:butt;stroke-linejoin:miter;marker:none;marker-start:none;marker-mid:none;marker-end:none;stroke-miterlimit:4;stroke-dasharray:none;stroke-dashoffset:0;stroke-opacity:1;visibility:visible;display:inline;overflow:visible"
       id="path2240"
       d="M 418.06323,143.84968 C 417.56152,142.88301 419.44659,133.06768 420.78369,129.37604 C 437.51354,96.643857 466.93759,73.036075 496.31788,55.907452 C 535.89282,34.841044 581.07532,26.475605 623.28065,42.064178 C 656.49421,56.017819 678.46209,87.322097 692.40505,122.62971 C 699.80826,142.24747 704.13623,163.13271 705.20922,184.36811 C 705.22419,185.19652 705.23917,186.02493 705.25414,186.85333 L 685.23581,197.45435 C 685.29846,196.68409 685.36111,195.91382 685.42377,195.14355 C 685.9977,174.61583 682.51544,154.2012 676.0111,135.00981 C 663.77724,101.06264 643.44305,71.05959 611.79855,58.021064 C 570.85489,43.213336 526.93929,52.369759 489.42904,74.527966 C 459.15835,93.854022 465.03104,87.701244 441.85389,122.12071 C 440.46217,125.26611 438.11719,128.90183 439.16241,132.33706 L 418.06323,143.84968 z " />
    <path
       style="opacity:1;color:#000000;fill:#000000;fill-opacity:1;fill-rule:nonzero;stroke:none;stroke-width:3.9000001;stroke-linecap:butt;stroke-linejoin:miter;marker:none;marker-start:none;marker-mid:none;marker-end:none;stroke-miterlimit:4;stroke-dasharray:none;stroke-dashoffset:0;stroke-opacity:1;visibility:visible;display:inline;overflow:visible"
       d="M 402.13781,120.84725 C 381.82129,118.24461 380.16012,141.68471 383.33585,161.62374 C 386.73823,182.98585 379.68512,205.38971 396.0752,213.3719 C 416.82952,223.47952 440.82649,216.71988 463.02763,215.02224 C 511.54347,211.31243 560.14651,216.17764 607.47673,225.77309 C 625.67798,229.46309 632.55974,204.02407 631.6774,185.93843 C 630.75428,167.01706 633.38344,136.37763 610.95706,133.88011 C 568.56419,129.15902 525.72713,133.04075 483.14586,130.37954 C 455.98365,128.68199 428.96449,124.28388 402.13781,120.84725 z M 413.86557,143.65637 C 474.07835,153.36327 530.3893,148.26792 593.06536,151.68757 C 615.30763,152.90113 614.28257,176.20799 611.34139,192.49053 C 608.23702,209.67654 581.85532,196.35235 568.29312,195.55491 C 520.49757,192.74461 471.62357,190.1527 423.80567,197.05652 C 401.27651,200.30923 406.21142,182.21864 404.8798,166.66834 C 403.71262,153.03818 402.12654,141.76394 413.86557,143.65637 z "
       id="path2188"
       sodipodi:nodetypes="csssssssscssssss" />
    <path
       style="opacity:1;color:#000000;fill:#48efbc;fill-opacity:0.41614906;fill-rule:nonzero;stroke:none;stroke-width:3.9000001;stroke-linecap:butt;stroke-linejoin:miter;marker:none;marker-start:none;marker-mid:none;marker-end:none;stroke-miterlimit:4;stroke-dasharray:none;stroke-dashoffset:0;stroke-opacity:1;visibility:visible;display:inline;overflow:visible"
       id="path1368"
       d="M 301.39682,198.96302 C 296.75597,200.82476 292.28899,203.95381 288.36169,207.24024 C 291.09696,204.96713 293.78853,202.6404 296.56749,200.42091 C 297.48885,199.68504 294.78686,201.96879 293.93764,202.78687 C 291.25048,205.37549 288.78832,208.23729 286.79455,211.39889 C 279.85673,222.40047 280.52777,234.19815 286.40006,245.42668 C 294.3641,257.4408 309.19872,266.30145 324.01839,263.42214 C 327.7256,262.70186 337.19121,256.13601 334.18453,258.4212 C 331.54147,260.43001 328.90372,262.44579 326.26331,264.45808 C 343.44082,244.51523 320.44601,219.612 303.0793,209.73342 C 287.00581,201.61609 269.01041,200.44935 251.55527,203.80505 L 259.15753,190.3004 C 277.66347,188.02072 296.42829,190.16556 313.07573,199.0312 C 333.67338,211.21277 355.80662,236.94486 341.95917,261.82441 C 317.29587,282.35947 293.91345,282.03989 273.8757,254.51138 C 259.71086,229.14023 272.07179,207.52996 293.7285,191.71415 C 298.79324,187.90066 304.66331,183.4593 311.25548,183.48802 L 301.39682,198.96302 z " />
    <path
       style="opacity:1;color:#000000;fill:#48efbc;fill-opacity:0.41614906;fill-rule:nonzero;stroke:none;stroke-width:3.9000001;stroke-linecap:butt;stroke-linejoin:miter;marker:none;marker-start:none;marker-mid:none;marker-end:none;stroke-miterlimit:4;stroke-dasharray:none;stroke-dashoffset:0;stroke-opacity:1;visibility:visible;display:inline;overflow:visible"
       d="M 364.54982,148.0782 L 349.58107,158.67195 C 351.93024,161.85432 354.52567,165.67703 357.11232,169.54695 C 355.29439,170.48008 353.53251,171.38923 351.86232,172.2657 L 343.79982,188.73445 C 350.25056,185.73654 356.66937,182.06524 362.98732,178.42195 C 363.04778,178.51387 363.11468,178.61178 363.17482,178.7032 C 366.17489,183.43441 369.41586,187.98299 372.98732,192.29695 L 385.51857,181.7657 C 382.45283,178.15137 379.66564,174.35019 377.11232,170.35945 C 378.86443,169.36563 380.60797,168.38059 382.36232,167.3907 L 388.36232,152.60945 C 383.85492,155.17277 379.36667,157.75238 374.83107,160.2657 C 373.8404,160.81258 372.82915,161.37007 371.79982,161.92195 C 369.07478,157.43905 366.51345,152.81991 364.54982,148.0782 z "
       id="path1374" />
    <path
       style="opacity:1;color:#000000;fill:#48efbc;fill-opacity:0.41614906;fill-rule:nonzero;stroke:none;stroke-width:3.9000001;stroke-linecap:butt;stroke-linejoin:miter;marker:none;marker-start:none;marker-mid:none;marker-end:none;stroke-miterlimit:4;stroke-dasharray:none;stroke-dashoffset:0;stroke-opacity:1;visibility:visible;display:inline;overflow:visible"
       d="M 280.44067,43.678571 L 270.65942,59.116071 C 271.82124,60.213389 274.37685,62.725242 276.78442,65.084821 C 276.31321,65.413303 275.84918,65.756051 275.37817,66.084821 L 269.84692,81.116071 C 274.33807,77.932068 278.85563,74.788527 283.44067,71.741071 C 286.29852,74.720988 289.12078,77.725284 291.94067,80.741071 L 304.03442,70.241071 C 301.89729,67.927609 299.76105,65.586828 297.65942,63.241071 C 299.30341,62.046464 300.30097,60.901908 299.84692,59.897321 L 309.72192,44.397321 C 304.41096,43.817021 297.87722,50.569926 293.37817,53.647321 C 292.53205,54.224859 291.69199,54.786994 290.84692,55.366071 C 287.50373,51.34584 284.17366,47.250581 280.44067,43.678571 z M 270.65942,59.116071 C 270.35998,58.833257 270.15273,58.656258 270.06567,58.584821 C 270.13934,58.670631 270.31342,58.884607 270.59692,59.178571 L 270.65942,59.116071 z "
       id="path1384" />
    <path
       style="opacity:1;color:#000000;fill:#48efbc;fill-opacity:0.41614906;fill-rule:nonzero;stroke:none;stroke-width:3.9000001;stroke-linecap:butt;stroke-linejoin:miter;marker:none;marker-start:none;marker-mid:none;marker-end:none;stroke-miterlimit:4;stroke-dasharray:none;stroke-dashoffset:0;stroke-opacity:1;visibility:visible;display:inline;overflow:visible"
       d="M 462.98257,21.73128 C 462.0927,22.455657 459.44422,24.662609 456.67007,26.981279 C 456.52634,27.087421 456.40838,27.219927 456.26382,27.325029 C 456.22412,27.358223 456.17854,27.385571 456.13882,27.418779 C 452.34382,30.16574 448.26328,32.555815 444.29507,35.012529 C 442.94608,35.839614 441.58387,36.657972 440.23257,37.481279 C 437.70781,33.846896 435.24973,30.16871 432.79507,26.512529 L 420.57632,40.200029 C 421.12953,40.877135 423.18181,43.356842 425.67007,46.293779 C 422.45835,48.218722 419.23018,50.126675 416.01382,52.043779 L 410.42007,66.106279 C 417.56177,61.875428 424.72922,57.697933 431.95132,53.606279 C 433.35702,55.242665 434.61521,56.684673 435.51382,57.700029 C 439.49218,62.082085 437.47782,59.877024 441.57632,64.325029 L 453.32632,54.231279 C 449.43011,49.756557 451.34583,51.987978 447.63882,47.543779 C 447.14681,46.923813 446.65201,46.296077 446.17007,45.668779 C 454.45716,41.120434 455.74802,40.538356 456.10757,40.137529 C 456.53523,39.616023 455.56747,39.237216 467.10757,30.293779 L 449.35757,33.512529 C 450.95687,32.178987 453.88849,29.574778 456.48257,27.293779 C 456.90367,26.937366 457.26186,26.613063 457.63882,26.293779 C 457.67906,26.258608 457.72388,26.234902 457.76382,26.200029 C 457.89352,26.090166 458.04557,25.961767 458.17007,25.856279 C 458.11121,25.902416 458.0416,25.935354 457.98257,25.981279 C 458.93767,25.148885 459.79934,24.394453 460.45132,23.856279 C 460.43986,23.867137 460.43304,23.906613 460.42007,23.918779 C 461.74572,22.79244 462.58393,22.077359 462.98257,21.73128 z "
       id="path1388" />
    <path
       style="opacity:1;color:#000000;fill:#48efbc;fill-opacity:0.41614906;fill-rule:nonzero;stroke:none;stroke-width:3.9000001;stroke-linecap:butt;stroke-linejoin:miter;marker:none;marker-start:none;marker-mid:none;marker-end:none;stroke-miterlimit:4;stroke-dasharray:none;stroke-dashoffset:0;stroke-opacity:1;visibility:visible;display:inline;overflow:visible"
       id="path1394"
       d="M 212.80435,93.595374 C 212.59024,95.213664 207.24912,97.205184 205.15525,98.397414 C 171.37685,124.46194 211.11958,88.119434 190.71677,109.88682 C 186.58704,114.7373 182.66019,119.98288 185.96667,126.18057 C 189.87475,131.56891 196.05837,133.60569 202.30067,134.93067 C 210.58361,136.39164 218.878,135.6284 226.92117,133.38284 C 226.35284,134.97578 244.26209,122.5681 243.00557,123.60582 C 224.8385,138.60962 231.20168,133.64365 235.11259,130.11777 C 239.37814,126.07821 241.69414,121.21177 242.03809,115.4322 C 241.79024,110.87028 239.63479,107.51477 236.38394,104.51472 C 232.92745,101.8116 228.78448,100.66227 224.56387,99.809974 C 220.66267,99.096504 216.76633,99.182224 212.89022,99.906074 C 209.96618,100.40251 207.52219,101.82054 205.13703,103.47409 L 211.86616,86.817744 C 215.06049,85.606472 218.30606,84.618536 221.74831,84.415511 C 226.26566,84.250753 230.77816,84.473538 235.18202,85.600365 C 240.28036,86.958344 245.22439,88.894614 249.29074,92.358214 C 253.63604,96.396694 256.71503,101.26155 257.61755,107.22619 C 258.42254,114.43138 256.68152,120.99491 252.17372,126.77901 C 243.37781,137.09655 232.16149,145.31253 218.9918,148.62641 C 210.05385,150.37628 200.87436,150.72997 191.91981,148.78872 C 184.16179,146.75164 176.9184,143.46952 172.06107,136.79369 C 167.20512,128.68395 168.037,120.85037 174.07349,113.4377 C 184.0543,100.58905 197.91846,91.097384 211.57063,82.501851 C 214.94747,80.594467 218.72428,77.59821 222.66302,78.120368 L 212.80435,93.595374 z " />
    <path
       style="opacity:1;color:#000000;fill:#48efbc;fill-opacity:0.41614906;fill-rule:nonzero;stroke:none;stroke-width:3.9000001;stroke-linecap:butt;stroke-linejoin:miter;marker:none;marker-start:none;marker-mid:none;marker-end:none;stroke-miterlimit:4;stroke-dasharray:none;stroke-dashoffset:0;stroke-opacity:1;visibility:visible;display:inline;overflow:visible"
       id="path1402"
       d="M 353.7964,84.984279 C 349.88754,86.045849 345.44077,87.912439 341.64906,89.923009 C 325.13006,102.90585 329.65882,92.160989 318.27429,114.28682 C 311.7139,127.85891 315.35672,141.29272 325.55591,151.62353 C 339.1876,163.95321 357.49555,168.7761 375.45402,167.01399 C 399.75843,161.38251 402.74039,158.02258 408.98683,147.20001 C 416.08335,133.6462 412.42361,119.37969 404.84957,107.01155 C 398.61149,97.747169 390.4279,89.251799 380.03582,84.894489 C 373.56178,82.412329 366.72001,82.822509 360.29545,85.124489 C 357.18308,86.345259 354.37555,88.160609 351.62085,90.035159 L 356.22708,77.261345 C 359.3487,75.494115 362.53581,73.820446 366.01982,72.89931 C 373.56087,71.223052 381.27116,71.435423 388.3953,74.775004 C 399.25386,80.133409 407.82889,89.286499 414.46324,99.342119 C 422.70957,112.83953 427.31588,128.30244 420.59803,143.54016 C 411.06128,163.12536 390.67726,175.00868 369.6797,177.21669 C 350.54562,178.36095 331.32213,172.87767 316.73314,159.96162 C 305.20817,148.65508 300.26917,133.64002 306.71574,118.10423 C 314.62607,100.55408 330.06882,87.425689 346.36555,77.987203 C 350.94452,75.633105 355.90591,73.128362 361.049,72.635812 L 353.7964,84.984279 z " />
    <path
       style="opacity:1;color:#000000;fill:#48efbc;fill-opacity:0.41614906;fill-rule:nonzero;stroke:none;stroke-width:3.9000001;stroke-linecap:butt;stroke-linejoin:miter;marker:none;marker-start:none;marker-mid:none;marker-end:none;stroke-miterlimit:4;stroke-dasharray:none;stroke-dashoffset:0;stroke-opacity:1;visibility:visible;display:inline;overflow:visible"
       d="M 347.05876,80.868379 C 322.40116,90.342479 307.20167,119.72957 314.52732,145.25663 C 330.70224,171.86327 369.21676,179.71012 395.77773,164.78704 C 416.08593,152.26002 425.91844,122.5476 412.11732,101.85928 C 399.25643,80.779939 369.88864,69.025719 347.05876,80.868379 z "
       id="path2280" />
    <path
       style="opacity:1;color:#000000;fill:#48efbc;fill-opacity:0.41614906;fill-rule:nonzero;stroke:none;stroke-width:3.9000001;stroke-linecap:butt;stroke-linejoin:miter;marker:none;marker-start:none;marker-mid:none;marker-end:none;stroke-miterlimit:4;stroke-dasharray:none;stroke-dashoffset:0;stroke-opacity:1;visibility:visible;display:inline;overflow:visible"
       d="M 192.752,100.50072 C 176.31014,105.66997 172.6811,131.37232 187.05212,140.88913 C 207.4405,148.3824 232.57365,139.13569 242.99033,120.0124 C 245.2158,102.57509 224.21314,87.638604 208.42809,95.226094 C 202.9809,96.212314 197.73418,98.114004 192.752,100.50072 z "
       id="path2282" />
    <path
       style="opacity:1;color:#000000;fill:#48efbc;fill-opacity:0.41614906;fill-rule:nonzero;stroke:none;stroke-width:3.9000001;stroke-linecap:butt;stroke-linejoin:miter;marker:none;marker-start:none;marker-mid:none;marker-end:none;stroke-miterlimit:4;stroke-dasharray:none;stroke-dashoffset:0;stroke-opacity:1;visibility:visible;display:inline;overflow:visible"
       d="M 285.27303,198.36838 C 278.81079,206.18855 278.146,216.87558 273.02231,225.41636 C 269.5276,237.28311 274.60476,250.03217 282.58783,258.89774 C 292.28939,269.69297 308.49023,274.58203 322.37365,269.87069 C 335.99442,262.88041 341.29401,244.45483 334.96337,230.82904 C 329.20836,214.23326 315.67809,199.62641 298.23405,195.50179 C 293.84152,194.47561 288.3043,194.43789 285.27303,198.36838 z "
       id="path2284" />
    <path
       style="opacity:1;color:#000000;fill:#48efbc;fill-opacity:0.41614906;fill-rule:nonzero;stroke:none;stroke-width:3.9000001;stroke-linecap:butt;stroke-linejoin:miter;marker:none;marker-start:none;marker-mid:none;marker-end:none;stroke-miterlimit:4;stroke-dasharray:none;stroke-dashoffset:0;stroke-opacity:1;visibility:visible;display:inline;overflow:visible"
       d="M 370.8017,231.31623 C 368.23848,239.2646 370.20448,248.58341 376.01806,254.63331 C 379.38767,257.06044 383.87009,256.76106 387.6803,255.70683 C 391.39321,254.96477 395.60212,255.73917 398.84192,253.37031 C 402.49251,249.31418 403.6334,243.49263 402.94148,238.19552 C 402.08066,232.73895 399.21003,227.25203 394.25999,224.49672 C 387.67791,221.53054 379.78103,223.31015 374.1228,227.46208 C 372.73461,228.42857 371.08467,229.50273 370.8017,231.31623 z "
       id="path2506" />
    <path
       style="opacity:1;color:#000000;fill:#48efbc;fill-opacity:0.41614906;fill-rule:nonzero;stroke:none;stroke-width:3.9000001;stroke-linecap:butt;stroke-linejoin:miter;marker:none;marker-start:none;marker-mid:none;marker-end:none;stroke-miterlimit:4;stroke-dasharray:none;stroke-dashoffset:0;stroke-opacity:1;visibility:visible;display:inline;overflow:visible"
       d="M 282.77303,142.29696 C 275.99864,143.60329 269.54213,146.63936 264.3081,151.14771 C 261.40199,154.66257 259.36869,159.51516 260.78952,164.07382 C 262.81208,167.61076 264.82809,171.22045 267.51524,174.29671 C 272.11617,178.03955 278.38935,178.39609 284.06645,178.09224 C 290.15513,177.66734 296.62269,175.25837 300.08368,169.96065 C 303.40413,164.35617 302.30497,157.14465 299.10609,151.74366 C 296.14616,146.53314 290.89299,142.23257 284.75565,141.76185 C 284.06798,141.79974 283.3784,141.96125 282.77303,142.29696 z "
       id="path2555" />
  </g>
</svg>
