<?xml version="1.0" encoding="UTF-8" standalone="no"?>
<!-- Created with Inkscape (http://www.inkscape.org/) -->
<svg
   xmlns:dc="http://purl.org/dc/elements/1.1/"
   xmlns:cc="http://web.resource.org/cc/"
   xmlns:rdf="http://www.w3.org/1999/02/22-rdf-syntax-ns#"
   xmlns:svg="http://www.w3.org/2000/svg"
   xmlns="http://www.w3.org/2000/svg"
   xmlns:sodipodi="http://inkscape.sourceforge.net/DTD/sodipodi-0.dtd"
   xmlns:inkscape="http://www.inkscape.org/namespaces/inkscape"
   width="1000"
   height="1000"
   id="svg2"
   sodipodi:version="0.32"
   inkscape:version="0.43"
   version="1.0"
   sodipodi:docbase="/home/kkowal/tale/art/monster"
   sodipodi:docname="monkey.svg"
   inkscape:export-filename="/home/kkowal/tale/art/monster/monkey.png"
   inkscape:export-xdpi="90"
   inkscape:export-ydpi="90">
  <defs
     id="defs4" />
  <sodipodi:namedview
     id="base"
     pagecolor="#ffffff"
     bordercolor="#666666"
     borderopacity="1.0"
     inkscape:pageopacity="0.0"
     inkscape:pageshadow="2"
     inkscape:zoom="0.49497475"
     inkscape:cx="1012.3289"
     inkscape:cy="586.53852"
     inkscape:document-units="px"
     inkscape:current-layer="layer1"
     inkscape:window-width="1590"
     inkscape:window-height="1121"
     inkscape:window-x="0"
     inkscape:window-y="25" />
  <metadata
     id="metadata7">
    <rdf:RDF>
      <cc:Work
         rdf:about="">
        <dc:format>image/svg+xml</dc:format>
        <dc:type
           rdf:resource="http://purl.org/dc/dcmitype/StillImage" />
      </cc:Work>
    </rdf:RDF>
  </metadata>
  <g
     inkscape:label="Layer 1"
     inkscape:groupmode="layer"
     id="layer1">
    <path
       style="opacity:1;color:#000000;fill:#b400ff;fill-opacity:1;fill-rule:nonzero;stroke:none;stroke-width:3.9000001;stroke-linecap:butt;stroke-linejoin:miter;marker:none;marker-start:none;marker-mid:none;marker-end:none;stroke-miterlimit:4;stroke-dasharray:none;stroke-dashoffset:0;stroke-opacity:1;visibility:visible;display:inline;overflow:visible"
       d="M 248.11764,25.995047 C 230.89754,26.436636 213.50942,32.497781 197.64297,38.856063 C 159.38075,44.590467 146.50667,106.51047 179.20815,128.17262 C 185.06656,154.2954 185.64438,181.27649 186.41882,207.96777 C 183.36374,294.20927 223.86927,377.32476 284.10294,434.56323 C 325.42174,472.08981 373.61407,501.81545 424.915,521.81918 C 427.94339,523.81448 431.18507,525.01098 434.43852,525.51405 C 442.92075,546.57204 452.2039,568.51383 446.68305,591.59552 C 443.54003,614.80664 431.82133,634.81132 419.40496,653.91104 C 417.5692,654.87549 415.79388,655.95312 414.03098,657.10853 C 400.33596,666.32369 385.36936,672.86683 370.15476,678.85147 C 369.2295,678.61447 368.26283,678.43352 367.2977,678.35408 C 331.37017,660.97096 299.45729,628.56434 291.31361,586.90586 C 270.51424,540.5538 234.3771,503.40971 194.44578,474.70949 C 152.11013,451.71357 96.652481,449.56225 56.490781,478.68859 C 21.86167,506.20408 2.0307379,557.55271 17.920521,601.3301 C 28.909315,621.65881 61.287588,621.89963 71.388289,600.47743 C 85.273343,579.55494 100.379,559.28698 112.88363,537.52241 C 122.31444,523.65434 144.41014,517.03846 155.73947,531.98009 C 173.50549,556.26865 187.93422,583.06194 203.22103,609.07513 C 222.95303,643.91182 241.32853,680.31282 267.57283,710.40003 C 273.85687,716.23778 280.74624,721.22105 288.0484,725.46376 C 270.4507,751.68732 251.14477,778.47987 248.86591,811.36966 C 252.46278,833.795 268.89258,855.61613 260.22611,878.94329 C 249.95508,898.92309 225.89927,910.85252 224.44488,935.50333 C 227.19356,959.25798 259.12226,970.22163 275.73585,954.54616 C 300.23045,940.79528 329.80298,933.28859 347.16225,908.85758 C 356.67015,885.46578 342.47152,861.54915 329.27164,843.34456 C 316.39201,821.23467 310.94849,788.67918 330.08794,768.5233 C 355.9951,740.69971 396.13603,741.02857 430.62911,742.65916 C 449.48431,743.55993 468.41457,745.24766 487.29406,744.6487 C 528.19326,751.05683 568.96469,764.32394 601.50829,791.68734 C 618.95024,822.99127 604.19081,865.10687 576.33898,883.98821 C 556.89894,900.90878 560.92433,936.56739 581.91705,950.21179 C 605.67728,972.9758 645.70102,983.18328 673.07075,961.58064 C 692.23272,943.52165 697.6743,910.91348 683.95477,887.75415 C 670.91806,878.84701 657.42466,860.70221 666.60836,844.19723 C 682.36934,821.17309 700.23392,795.31764 698.51215,765.53897 C 696.79677,740.15357 673.29755,726.31452 654.49988,714.87652 C 623.95848,695.44203 595.92598,671.81096 565.72706,651.85044 C 564.70261,646.64378 563.04132,641.60071 560.6932,636.85776 C 554.24557,611.57905 557.08756,584.8496 566.27126,560.7575 C 576.48202,570.02011 590.06722,575.22803 603.61707,573.26324 C 661.12973,584.46827 717.58501,604.3684 776.60502,604.81181 C 796.40298,608.10125 818.49705,603.16194 836.19506,615.328 C 827.65297,634.02487 823.49027,660.14679 839.59631,675.86714 C 877.89175,702.71619 933.62268,691.404 963.47011,656.18481 C 985.26171,625.02317 971.49475,572.99694 935.37572,561.25489 C 869.59993,526.02263 793.77819,530.32747 722.18491,523.80873 C 671.53412,519.30432 618.14106,507.13705 579.19604,471.01461 C 579.05324,470.86457 578.86247,470.73844 578.71986,470.58828 C 578.39104,470.28071 578.09423,469.90451 577.76751,469.59351 C 577.6475,469.46606 577.47902,469.36588 577.35936,469.23823 C 577.20298,469.08821 577.03909,468.89166 576.88319,468.74084 C 571.08744,462.51685 565.84637,455.93856 563.95841,447.06897 C 564.56806,440.17683 563.34424,434.56896 560.89728,430.08674 C 580.24615,426.01424 598.36825,413.49185 612.18824,399.10662 C 628.82305,385.63523 637.60111,362.01068 658.71744,354.83914 C 680.03757,348.91379 691.62315,378.4699 712.52533,375.30308 C 734.79588,367.49932 748.66756,344.70049 757.08181,322.9353 C 761.35442,304.75682 776.95316,281.2883 760.61911,265.30942 C 739.14942,244.39057 723.29294,273.62981 710.34853,288.11818 C 696.07539,303.61468 682.97138,288.7831 689.56198,269.88741 C 694.09718,245.26747 696.72249,216.05066 681.30179,193.47247 C 668.71535,172.49405 641.74864,167.08645 620.69138,175.9218 C 596.21267,187.28033 575.25877,205.62528 554.23081,222.67622 C 536.02652,239.49237 516.92268,255.33473 501.10317,274.68873 C 493.70969,289.35459 447.75883,314.99156 464.43761,275.89667 C 474.46345,233.18841 464.82972,226.63163 443.48587,237.45573 C 423.88875,261.05038 403.20259,283.68526 384.09991,307.72946 C 370.93462,320.33344 356.85859,347.441 376.14097,361.02096 C 396.52892,370.15854 422.47371,335.72148 442.66956,347.02306 C 452.7906,365.65383 426.34416,394.81069 439.94856,412.39396 C 455.93295,426.92161 477.13444,425.82187 497.29376,426.8182 C 495.51544,428.99672 494.13034,431.54723 493.21225,434.35006 C 486.42985,451.11564 467.50406,454.12157 453.41754,461.13792 C 450.30599,461.80216 447.39641,463.00328 444.71032,464.54858 C 431.36087,459.61047 416.06087,457.90328 403.62313,451.4744 C 374.55275,424.57378 340.55957,404.26673 311.38103,377.50579 C 282.01469,332.13647 259.16967,281.8743 246.21293,228.71592 C 234.88449,186.20232 229.66155,133.81482 260.36216,98.471488 C 285.02776,88.97654 294.69347,50.928284 275.73585,31.039976 C 266.75611,27.183979 257.45382,25.755642 248.11764,25.995047 z "
       id="path5541"
       sodipodi:nodetypes="ccccccccccccccccccccccccccccccccccccccccccccccccccssscccccccccccccccccccccccccccccc" />
    <path
       style="opacity:1;color:#000000;fill:#000000;fill-opacity:1;fill-rule:nonzero;stroke:none;stroke-width:3.9000001;stroke-linecap:butt;stroke-linejoin:miter;marker:none;marker-start:none;marker-mid:none;marker-end:none;stroke-miterlimit:4;stroke-dasharray:none;stroke-dashoffset:0;stroke-opacity:1;visibility:visible;display:inline;overflow:visible"
       id="path2206"
       d="M 461.48691,450.69147 C 459.15867,449.40527 464.88244,447.39348 466.17681,446.60634 C 475.82676,440.0999 483.38946,431.09464 490.05255,421.45148 C 501.68009,402.05285 478.77146,441.20884 487.1564,426.39812 L 505.38512,413.0491 C 499.83659,423.83183 493.84017,434.4142 486.80583,444.21511 C 479.29794,453.97348 470.83224,463.04953 460.41586,469.43532 C 456.78223,471.38958 453.55614,473.49903 449.58686,471.75759 L 461.48691,450.69147 z " />
    <path
       style="opacity:1;color:#000000;fill:#000000;fill-opacity:1;fill-rule:nonzero;stroke:none;stroke-width:3.9000001;stroke-linecap:butt;stroke-linejoin:miter;marker:none;marker-start:none;marker-mid:none;marker-end:none;stroke-miterlimit:4;stroke-dasharray:none;stroke-dashoffset:0;stroke-opacity:1;visibility:visible;display:inline;overflow:visible"
       id="path2212"
       d="M 495.28204,419.16746 C 497.00603,409.7781 488.12567,431.19987 485.67271,435.9299 C 493.79918,441.43433 471.91548,439.31827 468.0729,439.31084 C 453.57547,439.28167 440.73632,434.91953 433.65415,420.95332 C 426.69256,404.41039 427.35037,386.11484 430.93376,368.83188 C 431.08703,357.80332 442.26975,352.13583 434.14313,354.13759 C 415.47537,359.47934 397.66691,367.64941 378.71652,371.96079 C 357.6976,377.37567 352.99098,361.4535 359.19017,343.43934 C 374.48229,307.72007 399.05872,277.47653 424.04199,248.78268 C 435.57405,238.3197 453.75838,205.72165 471.66428,217.14041 C 479.97162,233.6046 473.58172,255.05315 470.00283,272.41837 C 469.65241,287.10101 458.39593,297.73273 473.31014,286.38164 C 500.71611,263.69686 525.6577,238.00082 552.11078,214.14115 C 575.69574,193.98011 599.41806,170.55454 629.8819,162.9179 C 648.87282,158.99508 667.51297,164.22166 682.03004,177.41419 C 696.55231,191.07858 700.01415,211.03467 700.40197,230.55104 C 700.78774,250.25369 697.34377,269.62658 694.20619,288.95377 C 688.75484,297.96613 705.96233,280.60778 709.56436,277.55927 C 722.28304,267.09367 733.54521,254.61706 747.47163,245.85745 C 756.86047,240.72894 765.40704,242.89664 771.021,252.10075 C 775.98705,267.54524 773.04292,284.43515 769.87077,299.99591 C 766.52072,315.49657 762.00911,330.75227 755.26498,345.01659 C 746.90529,362.01052 738.08372,375.80301 722.33197,385.07715 C 713.73768,389.94737 705.11564,393.20823 695.41484,390.84232 C 686.67676,387.7698 680.74723,380.84799 675.87221,373.00577 C 672.84257,367.81607 670.73073,361.97076 667.12078,357.32271 C 662.80461,361.32964 658.50207,365.4551 654.38751,369.73541 C 647.33469,377.35643 640.4114,385.10921 633.55179,392.92025 C 628.40088,398.96228 623.27736,405.02633 617.83933,410.78834 C 613.06412,416.05937 607.42217,420.1286 601.41617,423.68383 C 595.7915,426.78518 589.74915,428.86925 583.69077,430.81523 C 578.48368,432.37184 573.12985,433.20012 567.79032,434.06927 C 565.41639,434.5122 563.03052,434.87069 560.6447,435.23481 L 568.71483,412.83864 C 571.07604,412.45153 573.43839,412.07238 575.79846,411.67713 C 580.86896,410.82888 585.94268,409.9193 590.82436,408.20031 C 596.48351,406.23086 602.11677,404.08401 607.19352,400.74716 C 612.62036,396.94378 617.6023,392.58526 621.9942,387.50272 C 627.18921,381.66695 632.28335,375.73428 637.49531,369.91479 C 644.46155,362.14281 651.37963,354.31583 658.59606,346.79556 C 664.38921,341.01155 670.31208,333.84296 678.92274,336.72449 C 684.47396,341.37769 686.78444,348.07929 689.99062,354.62993 C 693.88437,361.20895 698.0958,367.41412 705.50814,369.80435 C 713.69441,370.48491 721.0179,366.84176 727.98979,362.46476 C 737.38114,355.89531 757.99247,326.71928 737.12205,358.2023 C 744.86458,344.6074 749.62207,329.50249 753.29323,314.2052 C 756.58576,299.85773 759.35363,284.65059 756.41466,269.99064 C 753.04405,262.95798 747.82466,264.51308 741.89557,268.30641 C 728.69934,277.45975 717.38644,289.19099 704.98606,299.43488 C 698.29502,305.13006 677.3683,324.43067 677.27285,303.85847 C 680.88872,284.58099 685.20595,265.31824 685.0162,245.53351 C 684.98035,227.60332 682.72313,209.26682 669.84921,196.19179 C 656.57337,184.38437 640.37756,179.31804 623.02738,183.62959 C 593.89272,191.69195 571.03988,214.37862 548.18669,233.65005 C 521.21602,257.99773 495.90002,284.29177 468.4676,308.07366 C 448.83676,323.0928 447.98876,302.34303 453.54181,286.54114 C 457.16854,270.30912 461.47209,253.1794 458.89923,236.49784 C 444.32744,236.05782 431.3157,260.36388 420.58233,269.24534 C 394.62888,298.9706 375.93654,326.13874 376.04721,330.10527 C 370.71735,343.6167 368.0295,355.31511 385.94249,350.76334 C 405.00248,346.50873 422.88241,338.25067 441.47224,332.33495 C 459.22741,329.2328 452.34431,343.93025 447.9673,354.59799 C 443.4858,370.66115 442.02414,387.50638 447.67056,403.52035 C 453.76811,415.57911 463.96653,418.47257 476.63638,418.08619 C 485.29404,417.84369 495.95444,413.93715 503.04303,419.66939 C 500.35076,424.96623 497.16744,440.68672 487.89464,442.37367 L 495.28204,419.16746 z " />
    <path
       style="opacity:1;color:#000000;fill:#000000;fill-opacity:1;fill-rule:nonzero;stroke:none;stroke-width:3.9000001;stroke-linecap:butt;stroke-linejoin:miter;marker:none;marker-start:none;marker-mid:none;marker-end:none;stroke-miterlimit:4;stroke-dasharray:none;stroke-dashoffset:0;stroke-opacity:1;visibility:visible;display:inline;overflow:visible"
       id="path2232"
       d="M 579.66423,444.7562 C 579.18307,448.15412 579.61525,451.41144 580.15947,454.7486 C 586.21214,474.10781 604.40488,484.71363 621.05706,492.81862 C 667.89433,512.65922 718.95742,518.43283 768.88512,523.46029 C 819.74459,528.76764 871.35309,529.72008 921.00751,543.48503 C 948.53664,551.39136 974.43289,566.08329 981.85564,596.63881 C 985.01012,612.76755 982.64865,629.08601 979.20885,644.91955 L 961.03385,654.60084 C 964.64857,639.67644 967.28773,624.25309 964.68118,608.88349 C 958.50216,580.40092 934.03294,566.85002 908.87574,559.02109 C 860.12876,544.43046 809.06976,543.02079 758.92754,537.50024 C 708.06088,532.34142 656.11346,527.25849 607.97188,508.23415 C 589.44106,499.87324 569.99832,488.74545 561.81401,468.35196 C 560.58608,464.72243 559.50238,461.11673 559.51825,457.23099 L 579.66423,444.7562 z " />
    <path
       style="opacity:1;color:#000000;fill:#000000;fill-opacity:1;fill-rule:nonzero;stroke:none;stroke-width:3.9000001;stroke-linecap:butt;stroke-linejoin:miter;marker:none;marker-start:none;marker-mid:none;marker-end:none;stroke-miterlimit:4;stroke-dasharray:none;stroke-dashoffset:0;stroke-opacity:1;visibility:visible;display:inline;overflow:visible"
       id="path2252"
       d="M 571.98688,552.18673 C 578.68379,556.39832 586.06852,559.2537 593.38844,562.03988 C 626.66453,574.14246 661.38244,581.19711 696.05835,587.28588 C 731.18567,593.33581 766.6501,597.1736 802.2093,598.91674 C 818.79218,600.17852 835.46931,598.66378 852.02861,600.15146 C 860.10192,600.86386 867.59061,603.68449 874.69736,607.58074 C 879.73259,610.40351 883.97586,614.25521 887.76615,618.66662 C 890.7162,622.30468 892.82727,626.51902 894.8705,630.74823 C 895.56982,632.13953 896.10588,633.60834 896.70945,635.04411 L 878.18064,649.25507 C 877.67405,647.97061 877.29381,646.6262 876.65883,645.39652 C 874.90435,641.61495 873.15849,637.79951 870.60305,634.51601 C 867.29888,630.73393 863.69139,627.37448 859.26322,625.04209 C 852.80007,621.69824 846.02703,619.37683 838.76649,618.85889 C 822.58863,617.51903 806.30666,617.92724 790.14061,616.271 C 754.78519,613.43192 719.56432,608.84486 684.57658,602.83629 C 649.32984,596.52628 614.08299,589.56045 579.74771,578.9895 C 571.80376,576.42674 563.95011,573.59437 556.25748,570.29856 L 571.98688,552.18673 z " />
    <path
       style="opacity:1;color:#000000;fill:#000000;fill-opacity:1;fill-rule:nonzero;stroke:none;stroke-width:3.9000001;stroke-linecap:butt;stroke-linejoin:miter;marker:none;marker-start:none;marker-mid:none;marker-end:none;stroke-miterlimit:4;stroke-dasharray:none;stroke-dashoffset:0;stroke-opacity:1;visibility:visible;display:inline;overflow:visible"
       id="path2266"
       d="M 438.12046,507.82084 C 441.89321,517.4034 446.17348,526.87761 449.80766,536.56501 C 459.25475,561.08408 462.7628,587.303 454.74299,612.71427 C 440.29918,648.92212 406.30952,672.1988 372.46924,686.1326 C 370.56935,686.84429 368.66946,687.55601 366.76954,688.2677 L 376.84196,669.78226 C 378.6688,669.079 380.49564,668.37575 382.32251,667.67249 C 424.64852,649.63729 414.31152,656.71913 436.29196,621.85999 C 445.01115,598.01298 442.19877,573.04873 432.69305,549.85491 C 429.01873,540.7387 424.54172,530.74623 419.63039,522.8197 L 438.12046,507.82084 z " />
    <path
       style="opacity:1;color:#000000;fill:#000000;fill-opacity:1;fill-rule:nonzero;stroke:none;stroke-width:3.9000001;stroke-linecap:butt;stroke-linejoin:miter;marker:none;marker-start:none;marker-mid:none;marker-end:none;stroke-miterlimit:4;stroke-dasharray:none;stroke-dashoffset:0;stroke-opacity:1;visibility:visible;display:inline;overflow:visible"
       id="path2268"
       d="M 582.87878,555.06314 C 533.45247,603.25171 594.87683,541.88875 577.23119,560.61941 C 570.81269,568.61995 568.3355,578.76149 566.31434,588.7594 C 563.88723,601.20656 564.19718,613.85835 566.72097,626.23196 C 568.2,633.54699 571.47713,639.39504 576.81065,644.17246 C 576.8068,644.27401 578.43361,645.14347 578.48975,645.17706 L 562.80701,662.53496 C 562.76217,662.50296 560.6297,661.09577 560.65032,660.99541 C 554.35933,655.16757 550.25052,647.99792 548.33239,639.34454 C 545.47096,626.25854 544.79734,612.79991 546.86999,599.50519 C 548.61391,588.97888 550.65652,578.36936 555.89126,569.03753 C 564.11699,556.21364 595.35734,531.90362 560.67333,562.82845 L 582.87878,555.06314 z " />
    <path
       style="opacity:1;color:#000000;fill:#000000;fill-opacity:1;fill-rule:nonzero;stroke:none;stroke-width:3.9000001;stroke-linecap:butt;stroke-linejoin:miter;marker:none;marker-start:none;marker-mid:none;marker-end:none;stroke-miterlimit:4;stroke-dasharray:none;stroke-dashoffset:0;stroke-opacity:1;visibility:visible;display:inline;overflow:visible"
       id="path2329"
       d="M 11.997174,601.87009 C 12.638744,589.83694 12.316729,577.76451 12.847086,565.7155 C 14.453415,521.03216 35.407774,484.84021 71.641038,460.81216 C 108.60179,439.24413 151.8603,443.68571 189.81764,459.80213 C 228.60276,477.27305 254.89312,512.14087 277.40028,548.09223 C 295.9108,578.10489 311.85633,609.87452 332.26231,638.58731 C 341.27385,650.68622 351.36394,663.27686 365.85935,667.84864 C 370.38036,669.07973 373.15785,671.20659 377.3427,669.51764 L 367.30042,688.02145 C 361.96884,688.78959 356.67935,687.89034 351.51565,685.79779 C 336.44545,679.28773 325.78102,666.19095 316.51805,652.53528 C 296.86613,623.06173 281.34902,590.89331 262.86083,560.64827 C 241.06864,525.4742 215.27729,491.62127 177.3706,474.7783 C 140.37798,459.36661 98.248166,456.04554 63.24262,478.88657 C 57.378808,483.24022 30.01881,514.52633 30.662404,554.9273 C 30.378788,566.43815 30.71332,577.97449 32.130659,589.40305 L 11.997174,601.87009 z "
       sodipodi:nodetypes="ccccccccccccccccc" />
    <path
       style="opacity:1;color:#000000;fill:#000000;fill-opacity:1;fill-rule:nonzero;stroke:none;stroke-width:3.9000001;stroke-linecap:butt;stroke-linejoin:miter;marker:none;marker-start:none;marker-mid:none;marker-end:none;stroke-miterlimit:4;stroke-dasharray:none;stroke-dashoffset:0;stroke-opacity:1;visibility:visible;display:inline;overflow:visible"
       id="path2351"
       d="M 31.037446,584.86438 C 30.588763,587.47915 31.121449,590.00517 31.549866,592.57428 C 32.614563,598.04923 34.697547,602.32053 38.821765,605.62443 C 49.758707,607.61341 59.794278,601.9105 68.149704,595.02275 C 69.066313,594.17258 71.815987,591.62196 70.899509,592.47226 C 67.044257,596.04913 63.235937,599.68195 59.333449,603.20248 C 58.241476,604.18754 61.44558,601.14772 62.465,600.0812 C 65.80091,596.59117 68.900288,592.85132 71.859066,589.01119 C 79.772535,578.74041 86.587415,567.6405 93.159689,556.40584 C 102.95115,535.4864 115.68631,521.55076 132.39871,506.22191 C 144.99655,498.87863 156.7144,508.96526 165.97864,517.57496 C 187.25547,539.36937 203.1576,566.13454 218.46805,592.63283 C 234.62332,620.64746 249.4523,649.4588 264.33159,678.22413 C 270.30091,689.43762 275.59331,701.25115 283.86811,710.84628 C 286.85597,713.79177 290.01096,713.68074 293.83156,713.56105 L 280.67212,733.20645 C 275.38064,732.55572 270.84224,731.16074 267.1076,726.84372 C 258.87136,716.31329 253.54145,703.8634 247.81517,691.72355 C 233.95465,662.44162 219.73173,633.30966 203.43113,605.40601 C 188.26838,579.60999 172.25076,553.55711 150.63696,533.08216 C 142.16335,525.91085 132.60705,518.50102 122.94023,527.4029 C 149.76267,501.81297 117.95883,532.98032 112.77314,548.07529 C 97.899812,573.16065 82.380326,597.9427 58.926974,615.39969 C 48.630339,622.65415 35.545914,628.31873 23.349668,623.02503 C 17.700925,618.8827 14.60331,613.04215 12.743121,606.14287 C 11.961083,603.25134 11.112303,600.34942 10.891466,597.33915 L 31.037446,584.86438 z " />
    <path
       style="opacity:1;color:#000000;fill:#000000;fill-opacity:1;fill-rule:nonzero;stroke:none;stroke-width:3.9000001;stroke-linecap:butt;stroke-linejoin:miter;marker:none;marker-start:none;marker-mid:none;marker-end:none;stroke-miterlimit:4;stroke-dasharray:none;stroke-dashoffset:0;stroke-opacity:1;visibility:visible;display:inline;overflow:visible"
       id="path2363"
       d="M 322.13131,695.44981 C 332.66053,702.18049 307.44158,716.93055 297.97515,725.49314 C 284.3639,734.96156 273.511,754.40702 268.27087,764.25313 C 258.44832,783.93671 254.21084,806.46739 257.37173,828.4802 C 260.53526,846.69083 269.94526,862.43708 281.26545,876.30599 C 283.03916,878.45936 285.03729,880.38474 286.96516,882.38023 L 270.79267,898.05894 C 268.81346,895.88163 266.7638,893.77054 264.94038,891.44293 C 253.29821,876.47663 243.47575,859.74905 239.59542,840.64908 C 235.51738,817.67249 239.75538,793.85815 249.0903,772.79835 C 262.09166,746.10567 278.03316,723.76774 299.75809,704.54457 C 307.09871,697.02192 312.4812,687.84125 320.838,694.32254 L 322.13131,695.44981 z "
       sodipodi:nodetypes="ccccccccccccc" />
    <path
       style="opacity:1;color:#000000;fill:#000000;fill-opacity:1;fill-rule:nonzero;stroke:none;stroke-width:3.9000001;stroke-linecap:butt;stroke-linejoin:miter;marker:none;marker-start:none;marker-mid:none;marker-end:none;stroke-miterlimit:4;stroke-dasharray:none;stroke-dashoffset:0;stroke-opacity:1;visibility:visible;display:inline;overflow:visible"
       id="path2369"
       d="M 570.83132,633.90011 C 573.93126,636.7544 576.67889,640.01364 579.61114,643.06504 C 585.9186,649.80857 593.06283,655.59561 600.31729,661.17097 C 608.78439,667.69685 617.9076,673.19014 626.88872,678.88691 C 643.13356,689.57507 659.38306,700.31477 674.76526,712.33488 C 692.43166,725.36713 704.69117,742.27548 706.3522,765.21494 C 706.17381,795.41145 690.9175,822.82324 675.78435,847.58635 C 669.41681,857.86832 662.39746,867.67916 655.16437,877.30751 L 635.74947,884.7545 C 643.25355,875.28556 650.512,865.59475 657.07054,855.379 C 672.04802,831.79872 687.17307,805.70265 688.44404,776.71285 C 687.59537,755.36878 676.06618,740.07342 659.85164,727.90761 C 644.62019,715.89612 628.33993,705.46531 611.76285,695.61759 C 602.48119,690.0145 593.13956,684.42673 584.51929,677.746 C 577.11534,671.90853 569.81549,665.90723 563.04467,659.27148 C 562.08215,658.33282 553.36766,650.00284 557.38485,653.92932 L 570.83132,633.90011 z " />
    <path
       style="opacity:1;color:#000000;fill:#000000;fill-opacity:1;fill-rule:nonzero;stroke:none;stroke-width:3.9000001;stroke-linecap:butt;stroke-linejoin:miter;marker:none;marker-start:none;marker-mid:none;marker-end:none;stroke-miterlimit:4;stroke-dasharray:none;stroke-dashoffset:0;stroke-opacity:1;visibility:visible;display:inline;overflow:visible"
       id="path2395"
       d="M 585.1242,876.21833 C 580.84595,876.23293 562.6882,896.84791 573.57993,884.09047 C 579.62467,876.33989 585.05158,868.09165 590.02749,859.55925 C 595.12579,850.83591 598.65696,841.31938 601.19359,831.48398 C 603.56278,823.42383 603.10863,816.47539 599.51714,809.0189 C 586.5679,789.21927 564.73048,778.02745 544.15144,769.01009 C 499.56791,750.15664 451.21857,745.40476 403.67705,750.85376 C 381.00523,754.42856 357.76247,759.56507 337.48893,771.27945 C 332.15848,774.35945 318.04264,786.60348 322.74697,782.56101 C 341.96966,766.0428 331.8433,774.12794 327.6026,781.01928 C 316.68797,803.80187 334.3976,824.42115 349.62677,839.14027 L 334.84304,853.73208 C 317.91381,837.23628 299.12781,815.33723 308.25577,789.48155 C 327.04758,750.02713 376.33233,740.49848 413.65032,735.12433 C 462.07547,730.67463 511.14037,735.6508 556.78209,753.84536 C 578.88162,762.97566 602.04348,774.25454 616.91195,794.37753 C 621.63163,802.8078 623.706,811.14336 621.20741,820.81941 C 618.88446,831.19606 615.51677,841.29747 610.56911,850.65176 C 605.81806,859.36892 600.56652,867.76193 594.8671,875.83804 C 589.18464,884.01648 581.81432,899.11486 571.67773,896.24755 L 585.1242,876.21833 z " />
    <path
       style="opacity:1;color:#000000;fill:#000000;fill-opacity:1;fill-rule:nonzero;stroke:none;stroke-width:3.9000001;stroke-linecap:butt;stroke-linejoin:miter;marker:none;marker-start:none;marker-mid:none;marker-end:none;stroke-miterlimit:4;stroke-dasharray:none;stroke-dashoffset:0;stroke-opacity:1;visibility:visible;display:inline;overflow:visible"
       id="path2405"
       d="M 572.74898,893.9507 C 578.1451,895.33565 595.03175,874.48058 583.14975,887.1167 C 578.06247,892.62702 574.41521,898.86245 572.68365,906.23188 C 572.86996,920.07896 581.8034,931.0055 591.15978,939.85947 C 604.93506,952.02773 621.29466,961.34872 639.06594,965.06262 C 654.81075,968.03963 668.75197,961.26338 680.56599,950.96265 C 661.74858,971.53264 682.04086,947.54281 684.87939,929.27475 C 686.1048,917.16066 683.56038,905.40002 677.57771,895.01609 C 672.75402,887.59976 665.49288,884.60325 657.41956,882.95867 C 651.31223,882.04353 645.65935,883.67926 640.04714,885.97786 C 639.39418,886.28315 638.74114,886.58825 638.08814,886.89343 L 649.2198,866.03345 C 649.9388,865.77677 650.64289,865.47454 651.3768,865.26342 C 657.9406,863.43772 664.60193,862.72259 671.31076,864.37276 C 680.75676,866.93071 689.13807,871.56804 694.78242,880.18836 C 701.45561,891.69818 704.74765,904.63219 704.06838,918.15082 C 701.72031,942.29263 690.36986,956.66595 671.50142,971.65222 C 657.79393,981.44919 642.31957,986.97354 625.6375,982.72459 C 607.16052,977.94544 590.24457,967.96814 575.65427,955.3127 C 564.894,945.34012 555.29723,933.54723 553.346,918.14882 C 553.03581,909.27323 556.50124,901.97918 561.75243,895.10436 C 568.1284,886.93543 576.0806,871.5383 586.19545,873.92148 L 572.74898,893.9507 z " />
    <path
       style="opacity:1;color:#000000;fill:#000000;fill-opacity:1;fill-rule:nonzero;stroke:none;stroke-width:3.9000001;stroke-linecap:butt;stroke-linejoin:miter;marker:none;marker-start:none;marker-mid:none;marker-end:none;stroke-miterlimit:4;stroke-dasharray:none;stroke-dashoffset:0;stroke-opacity:1;visibility:visible;display:inline;overflow:visible"
       d="M 251.38284,103.44536 C 245.36877,111.89819 238.9074,120.00303 231.85963,127.53312 C 229.40593,150.93704 230.894,175.09313 232.67593,198.09107 C 241.50925,270.73557 265.82039,340.93228 315.25846,394.48802 C 348.12277,428.06058 387.8288,455.40115 433.96235,463.26958 C 439.758,464.10437 450.93936,465.6798 455.11817,464.40647 L 468.58715,444.43992 C 461.6641,445.54352 453.80923,446.02208 446.47897,445.64786 C 400.46985,441.42049 360.12863,415.14425 327.16286,382.83494 C 277.15495,330.76857 253.6563,260.75349 246.89318,188.64071 C 245.69237,160.91057 244.63164,130.96051 251.38284,103.44536 z "
       id="path2446" />
    <path
       style="opacity:1;color:#000000;fill:#000000;fill-opacity:1;fill-rule:nonzero;stroke:none;stroke-width:3.9000001;stroke-linecap:butt;stroke-linejoin:miter;marker:none;marker-start:none;marker-mid:none;marker-end:none;stroke-miterlimit:4;stroke-dasharray:none;stroke-dashoffset:0;stroke-opacity:1;visibility:visible;display:inline;overflow:visible"
       d="M 251.24679,17.752629 C 209.54831,18.002766 161.57712,41.795071 151.59399,87.461163 C 144.60997,113.16432 176.47189,125.3028 172.84757,147.65663 C 169.27045,242.92306 193.629,342.96347 256.3645,414.59081 C 301.41246,467.23895 359.76548,507.03858 422.79658,531.98573 C 432.93629,543.76413 450.18342,518.79647 444.0696,515.96817 C 393.41849,503.24004 348.00931,473.78297 307.30052,440.66903 C 247.33436,389.61128 204.69534,315.76903 194.35769,235.21661 C 188.37446,197.49609 187.25282,158.65713 193.76553,120.92497 C 176.31748,110.30619 162.55468,86.599176 174.3032,66.339629 C 182.95968,37.925545 215.9917,39.937082 238.91681,35.557617 C 258.3942,32.167016 293.09578,43.511563 278.23676,69.775229 C 267.56031,90.852628 245.06258,103.19077 238.86622,127.17784 C 263.33705,104.63757 293.19828,82.346384 301.04802,47.330065 C 300.80208,21.451849 270.29109,17.046873 251.24679,17.752629 z M 190.02415,117.51432 L 190.37052,117.32578 L 190.02415,117.51432 z "
       id="path2462" />
    <path
       style="opacity:1;color:#000000;fill:#000000;fill-opacity:1;fill-rule:nonzero;stroke:none;stroke-width:3.9000001;stroke-linecap:butt;stroke-linejoin:miter;marker:none;marker-start:none;marker-mid:none;marker-end:none;stroke-miterlimit:4;stroke-dasharray:none;stroke-dashoffset:0;stroke-opacity:1;visibility:visible;display:inline;overflow:visible"
       id="path2514"
       d="M 856.72624,604.38766 C 857.38475,609.10641 853.23051,612.4575 850.44094,615.95287 C 843.85312,624.03024 837.7861,632.51436 833.07643,641.92884 C 827.44691,652.86916 830.46279,659.96596 838.81064,667.85553 C 851.2479,677.70633 866.53819,681.4889 881.87761,682.49532 C 896.11163,683.05662 910.10872,679.98367 923.57966,675.43167 C 932.58095,672.1779 940.96606,667.36001 948.48163,661.27224 C 964.8725,644.34613 925.94023,685.41648 949.37452,659.49235 C 951.1305,657.50567 952.80716,655.446 954.50581,653.40654 L 975.80552,645.39345 C 974.11911,647.49344 972.44249,649.60225 970.70934,651.66081 C 961.13592,663.02743 950.65152,673.71047 938.84953,682.5427 C 930.63116,688.0732 921.84978,692.61824 912.38936,695.34576 C 898.27749,699.31067 883.70824,702.00634 869.03886,700.74629 C 852.60449,699.01767 836.41496,694.41606 823.11289,683.79587 C 813.39627,674.82548 807.11569,665.00129 812.71284,651.42072 C 816.90456,641.44148 822.67871,632.4413 829.32003,624.04397 C 831.23553,621.49803 833.93061,616.04273 836.58029,616.86243 L 856.72624,604.38766 z " />
    <path
       style="opacity:1;color:#000000;fill:#000000;fill-opacity:1;fill-rule:nonzero;stroke:none;stroke-width:3.9000001;stroke-linecap:butt;stroke-linejoin:miter;marker:none;marker-start:none;marker-mid:none;marker-end:none;stroke-miterlimit:4;stroke-dasharray:none;stroke-dashoffset:0;stroke-opacity:1;visibility:visible;display:inline;overflow:visible"
       id="path2536"
       d="M 352.07757,839.81531 C 350.3577,838.74666 354.37686,844.6945 355.01131,845.77311 C 360.01962,853.89038 363.51524,862.82018 365.79912,872.14412 C 368.66541,890.14161 360.67995,906.00748 348.69011,918.39205 C 326.07814,941.85966 297.75083,956.54472 267.2908,965.46572 C 251.26109,970.06642 234.00289,972.20893 220.78169,960.14487 C 211.55474,945.92098 217.56405,928.26369 223.9753,914.00961 C 233.21549,894.51364 248.34241,879.53147 264.57876,866.23837 C 265.16766,865.79312 265.75655,865.34784 266.34542,864.90259 L 256.91976,886.05466 C 256.38621,886.5036 255.85265,886.95255 255.31909,887.40149 C 249.95501,892.26365 241.28095,900.66575 265.07527,878.00217 C 267.35463,875.83115 242.09527,905.48942 243.81226,905.01327 C 237.99863,916.35439 230.96172,931.9289 237.11833,944.38227 C 248.46797,954.56258 264.80979,950.13505 277.99487,946.65345 C 293.24265,941.99142 308.07705,935.70211 321.89114,927.46196 C 326.55242,924.68148 331.0955,921.65652 335.38028,918.27431 C 336.71464,917.22101 340.49596,913.78155 339.30196,915.00493 C 335.86468,918.52677 332.1928,921.78979 328.63821,925.18223 C 339.95259,914.85354 348.95048,901.42963 347.32776,885.04334 C 345.54106,876.38304 342.21638,868.22657 337.4211,860.88798 C 335.57336,858.03708 333.60723,855.24753 331.93161,852.2901 L 352.07757,839.81531 z " />
    <path
       style="opacity:1;color:#000000;fill:#ffffff;fill-opacity:1;fill-rule:nonzero;stroke:none;stroke-width:3.9000001;stroke-linecap:butt;stroke-linejoin:miter;marker:none;marker-start:none;marker-mid:none;marker-end:none;stroke-miterlimit:4;stroke-dasharray:none;stroke-dashoffset:0;stroke-opacity:1;visibility:visible;display:inline;overflow:visible"
       d="M 594.34442,186.51282 C 549.82785,184.6727 505.67857,216.51105 493.04089,261.42368 C 488.63952,273.91171 485.69627,289.51889 493.95667,301.01537 C 505.11134,314.06377 523.77061,314.41293 538.98157,310.84677 C 558.53792,306.68745 577.02531,298.31027 594.75083,288.94447 C 617.61841,274.07865 634.30904,246.26918 631.37806,217.51617 C 628.62745,199.54378 611.65039,185.61639 594.34442,186.51282 z "
       id="path5561" />
    <path
       style="opacity:1;color:#000000;fill:#000000;fill-opacity:1;fill-rule:nonzero;stroke:none;stroke-width:3.9000001;stroke-linecap:butt;stroke-linejoin:miter;marker:none;marker-start:none;marker-mid:none;marker-end:none;stroke-miterlimit:4;stroke-dasharray:none;stroke-dashoffset:0;stroke-opacity:1;visibility:visible;display:inline;overflow:visible"
       id="path2651"
       d="M 483.95417,283.19192 C 482.94829,278.80079 484.4487,273.50448 485.27027,269.01226 C 490.20837,244.51624 504.27227,222.91403 522.02612,206.47078 C 543.14624,188.35594 569.52036,179.16979 596.75243,180.59347 C 618.56467,181.73865 634.41509,194.7956 637.35243,217.6724 C 638.34945,247.06259 619.50648,273.94116 598.83644,292.19965 C 579.04893,308.19178 554.849,317.2373 530.03771,319.56048 C 515.63323,320.89 501.79857,317.47247 490.82745,307.53541 C 484.61644,301.11271 482.59149,292.95636 483.09037,284.08972 C 483.19834,282.58831 483.57377,281.13621 483.86599,279.66983 L 496.30192,269.37495 C 495.87781,270.68587 495.38368,271.97541 495.11393,273.33654 C 493.75639,280.94203 494.57663,288.2484 499.70198,294.22017 C 509.35398,303.84908 522.21942,306.60792 535.33194,305.56951 C 559.44369,303.52082 582.92859,294.47828 601.62153,278.2263 C 622.10733,258.80994 622.61764,261.45545 627.04197,228.25967 C 625.32543,207.02151 611.21714,195.12393 591.13131,193.97625 C 564.69393,192.49257 539.13996,202.15441 519.31406,220.52394 C 497.53478,242.15793 507.40998,229.30008 497.08788,258.6895 C 496.55101,261.91343 496.15331,268.58156 495.17971,270.48182 L 483.95417,283.19192 z " />
    <path
       style="opacity:1;color:#000000;fill:#ffffff;fill-opacity:1;fill-rule:nonzero;stroke:none;stroke-width:3.9000001;stroke-linecap:butt;stroke-linejoin:miter;marker:none;marker-start:none;marker-mid:none;marker-end:none;stroke-miterlimit:4;stroke-dasharray:none;stroke-dashoffset:0;stroke-opacity:1;visibility:visible;display:inline;overflow:visible"
       d="M 623.90554,221.63072 C 613.19007,224.98755 604.71285,233.08609 596.79953,240.98117 C 592.36499,245.94426 589.9436,253.7694 593.17761,260.08541 C 596.33146,267.02071 602.55089,272.19595 609.44853,274.6134 C 616.0902,276.52825 623.33759,274.26703 628.52346,269.70769 C 633.81812,265.48987 638.75971,260.7519 643.26141,255.63446 C 648.74783,248.67827 652.27196,239.00767 649.53679,230.07698 C 647.27761,222.91333 640.49047,216.8937 633.01521,217.57577 C 629.65407,218.05994 627.21298,220.97569 623.90554,221.63072 z "
       id="path6482" />
    <path
       style="opacity:1;color:#000000;fill:#000000;fill-opacity:1;fill-rule:nonzero;stroke:none;stroke-width:3.9000001;stroke-linecap:butt;stroke-linejoin:miter;marker:none;marker-start:none;marker-mid:none;marker-end:none;stroke-miterlimit:4;stroke-dasharray:none;stroke-dashoffset:0;stroke-opacity:1;visibility:visible;display:inline;overflow:visible"
       id="path2655"
       d="M 595.69796,251.10204 C 601.25156,253.69298 607.25225,232.58295 602.469,242.46235 C 600.67882,246.90454 601.25578,251.23405 602.7165,255.63319 C 605.19482,260.76954 609.62618,263.39839 614.56537,265.38759 C 621.23382,267.28933 627.29653,265.34748 632.93325,261.57291 C 632.69548,262.87023 645.0047,247.00427 644.84677,247.2693 C 632.55266,267.90116 639.56173,256.43928 641.81139,250.69308 C 644.12538,243.94778 644.31463,237.20216 641.1648,230.8464 C 638.19984,226.87203 634.10309,226.48422 629.60228,226.61096 C 624.77568,227.05919 620.16577,228.58616 615.69823,230.46443 C 611.97195,232.11271 608.90438,234.75813 606.03001,237.66535 C 601.21292,242.74081 592.3225,259.41551 606.66882,234.74374 C 605.65843,236.32587 604.89009,238.04646 604.08156,239.7431 L 591.19291,249.79921 C 591.88046,247.94213 592.52738,246.06373 593.43665,244.30617 C 598.21981,236.03656 602.16188,227.47708 609.22576,221.15987 C 612.63239,218.33264 616.26019,215.88454 620.42601,214.43619 C 625.37571,212.73577 630.44157,211.27951 635.68961,211.15916 C 641.56359,211.26953 646.98235,212.77752 650.92505,217.64828 C 655.51031,224.56582 656.08438,232.62767 654.09643,240.71177 C 649.75776,255.17905 641.18245,268.83788 629.06651,277.36145 C 622.11418,281.06192 614.75678,282.5798 607.13115,280.07017 C 601.20532,277.74238 595.85304,274.19341 592.46948,268.44013 C 589.99423,263.62126 588.83271,258.37144 589.76099,252.91364 C 591.3388,246.15372 593.81653,234.43382 600.92325,234.68766 L 595.69796,251.10204 z " />
    <path
       style="opacity:1;color:#000000;fill:#49aa26;fill-opacity:1;fill-rule:nonzero;stroke:none;stroke-width:3.9000001;stroke-linecap:butt;stroke-linejoin:miter;marker:none;marker-start:none;marker-mid:none;marker-end:none;stroke-miterlimit:4;stroke-dasharray:none;stroke-dashoffset:0;stroke-opacity:1;visibility:visible;display:inline;overflow:visible"
       d="M 515.49268,339.9972 C 512.39456,330.77133 506.54542,321.88889 497.71007,317.91201 C 478.60482,319.15054 462.68722,337.63254 462.28247,357.3917 C 460.71338,364.66597 457.38167,372.38256 460.18721,379.80151 C 464.89043,385.77177 474.34447,385.83948 479.67026,380.75287 C 494.05981,373.8832 510.35672,368.60662 526.21385,372.54229 C 536.4821,376.75879 542.17621,387.364 547.26109,396.92255 C 556.1819,406.54287 572.78774,402.48658 578.79921,391.3554 C 589.48014,378.63076 593.2242,359.48703 586.84864,343.73118 C 580.94671,335.24995 568.4664,335.61091 560.96241,341.47294 C 548.15062,347.72199 532.76995,347.37097 519.98033,341.24461 C 518.4939,340.79308 516.99992,340.3668 515.49268,339.9972 z "
       id="path7382" />
    <path
       style="opacity:1;color:#000000;fill:#000000;fill-opacity:1;fill-rule:nonzero;stroke:none;stroke-width:3.9000001;stroke-linecap:butt;stroke-linejoin:miter;marker:none;marker-start:none;marker-mid:none;marker-end:none;stroke-miterlimit:4;stroke-dasharray:none;stroke-dashoffset:0;stroke-opacity:1;visibility:visible;display:inline;overflow:visible"
       id="path2681"
       d="M 476.89266,336.94777 C 478.43329,338.15178 475.03724,339.94779 473.95343,341.03697 C 470.15342,345.31477 462.69223,358.67661 475.25644,337.51863 C 476.11959,336.06516 473.57081,340.45331 472.80399,341.96455 C 470.37533,346.75079 468.46653,351.76275 466.79592,356.88342 C 464.97661,363.60446 462.00046,371.83396 466.26739,377.73472 C 473.68982,379.34643 481.19198,375.33593 487.96151,372.48365 C 497.68992,368.15648 507.25042,363.34327 517.67904,361.21261 C 527.80018,359.97068 536.84478,363.95126 544.66835,370.34676 C 550.51914,375.55294 554.25452,382.49097 557.63357,389.56524 C 559.55625,394.17742 561.36239,395.3388 565.9447,394.39675 C 573.23887,391.91218 578.28028,386.19233 582.66269,379.87509 C 574.08499,398.60466 584.18282,374.47092 583.8979,361.54995 C 583.39146,355.03034 582.23919,348.37586 577.05184,344.30838 C 571.66656,341.9098 565.81139,343.01892 560.21761,343.95483 C 552.77792,345.29485 545.54571,347.58422 538.24329,349.536 C 532.6863,351.14286 527.0814,352.37572 521.31905,352.58918 C 516.31697,352.56596 512.63893,350.1577 509.18621,346.63806 C 506.16424,343.05046 504.5388,338.60069 502.91083,334.21059 C 501.65083,330.34402 499.43541,328.37614 495.93994,327.00755 C 490.43702,326.93891 485.4775,329.51841 480.96613,332.5827 C 476.76751,335.63324 473.43872,339.66372 470.36163,343.87627 L 472.87682,327.30455 C 476.43956,323.19044 480.23279,319.27919 484.90186,316.52806 C 490.51885,313.38005 496.77605,310.80332 503.24401,312.03245 C 507.86737,313.8833 511.43267,316.61849 513.47105,321.52176 C 515.0266,325.43624 516.19245,329.59554 518.66308,333.02404 C 521.22766,335.74315 523.62844,337.39587 527.48741,337.08513 C 532.8855,336.61069 538.1587,335.36257 543.39738,333.93239 C 550.78131,331.9405 558.155,329.85854 565.68805,328.55672 C 572.30693,327.50574 579.12889,326.72438 585.32431,330.00636 C 592.03298,334.63651 594.23841,342.26235 595.05554,350.36038 C 596.17218,368.18411 591.0763,381.31165 580.378,395.80499 C 575.02598,402.40583 568.89714,408.42655 560.46992,410.08834 C 554.35019,410.62006 549.90384,408.33308 547.36358,402.27789 C 544.36444,395.63659 541.34672,388.91405 535.99583,383.92563 C 529.19076,378.1425 521.28189,374.70505 512.37795,376.46206 C 502.32244,379.00757 493.01194,383.71426 483.48812,387.84547 C 475.4862,391.21486 466.49012,395.59571 457.94211,391.98924 C 449.98511,385.90631 452.45254,375.44412 454.78068,366.69426 C 459.18638,351.40948 466.32688,336.12496 477.1271,324.73055 C 479.68731,322.67079 482.10428,320.69709 485.30725,322.05178 L 476.89266,336.94777 z " />
    <path
       style="opacity:1;color:#000000;fill:#000000;fill-opacity:1;fill-rule:nonzero;stroke:none;stroke-width:3.9000001;stroke-linecap:butt;stroke-linejoin:miter;marker:none;marker-start:none;marker-mid:none;marker-end:none;stroke-miterlimit:4;stroke-dasharray:none;stroke-dashoffset:0;stroke-opacity:1;visibility:visible;display:inline;overflow:visible"
       id="path2689"
       d="M 549.16933,242.86799 C 547.23528,248.08445 550.89011,240.60881 550.99129,240.43539 C 549.24105,243.77299 548.10199,247.38317 548.31471,251.18946 C 550.17268,254.90417 556.39989,252.22123 559.24606,251.03637 C 559.38231,253.40548 569.12893,242.27301 568.1867,243.81197 C 562.33495,253.36956 564.86685,249.81208 565.86241,246.95675 C 566.56794,243.38406 564.96061,241.07532 561.83345,239.91379 C 558.79004,239.09314 555.71019,239.41893 552.76493,240.42036 C 550.61161,241.44815 549.12655,243.3418 547.72465,245.26384 L 548.96954,237.02683 C 550.73358,235.04146 552.67318,233.22488 555.24128,232.50444 C 558.63,231.67772 562.15403,231.59725 565.52113,232.61264 C 569.44598,234.18437 571.99865,237.08711 571.87521,241.69884 C 570.62289,250.23639 564.23887,255.78096 556.98197,258.61098 C 552.63502,260.21274 545.76944,262.30952 542.86926,257.24927 C 541.75957,253.13167 542.99597,249.03652 544.57329,245.20488 C 546.16827,242.35355 548.15589,236.02057 551.78195,234.66081 L 549.16933,242.86799 z " />
    <path
       style="opacity:1;color:#000000;fill:#49aa26;fill-opacity:1;fill-rule:nonzero;stroke:none;stroke-width:3.9000001;stroke-linecap:butt;stroke-linejoin:miter;marker:none;marker-start:none;marker-mid:none;marker-end:none;stroke-miterlimit:4;stroke-dasharray:none;stroke-dashoffset:0;stroke-opacity:1;visibility:visible;display:inline;overflow:visible"
       id="path2695"
       d="M 610.63197,246.09504 C 609.65777,247.12394 609.80355,249.21297 609.8103,250.72848 C 609.82956,253.32188 610.46987,255.6237 612.00626,257.60764 C 613.64128,258.77042 615.07912,258.46765 616.74969,257.66253 C 622.23983,250.71502 614.98872,261.85768 616.38562,259.17777 C 617.24245,257.12801 617.15538,255.17279 616.45943,253.11846 C 615.62043,251.09963 614.26254,250.13605 612.34336,249.52393 C 610.17295,249.29839 608.43349,250.29098 606.84111,251.71157 C 606.26668,252.25659 605.94046,252.97826 605.55072,253.65755 L 606.6671,245.34335 C 607.28007,244.70024 607.84434,244.00114 608.6028,243.52799 C 610.89987,242.20359 613.25039,241.39499 615.90254,241.99236 C 618.39233,242.85648 620.34906,244.23154 621.64084,246.70495 C 622.74768,249.06817 623.34094,251.40133 622.74235,254.03959 C 621.44031,258.71201 618.81896,263.64234 614.47136,265.73559 C 611.9787,266.33614 609.67904,266.22386 607.53183,264.5903 C 605.36071,262.36384 604.30666,259.65899 604.06218,256.46002 C 603.93212,254.6692 603.97034,252.84513 603.86318,251.07468 L 610.63197,246.09504 z " />
    <path
       style="opacity:1;color:#000000;fill:#000000;fill-opacity:1;fill-rule:nonzero;stroke:none;stroke-width:3.9000001;stroke-linecap:butt;stroke-linejoin:miter;marker:none;marker-start:none;marker-mid:none;marker-end:none;stroke-miterlimit:4;stroke-dasharray:none;stroke-dashoffset:0;stroke-opacity:1;visibility:visible;display:inline;overflow:visible"
       id="path8321"
       d="M 579.34543,408.71016 C 577.90935,405.51278 577.62103,411.48336 577.46298,412.60226 C 576.79888,418.86439 576.53514,425.17133 576.58126,431.46953 C 576.65342,436.92083 577.76255,442.23088 579.29648,447.41392 L 561.67265,460.52696 C 559.95626,454.85956 558.58993,449.0763 558.24281,443.11843 C 557.92457,436.67426 558.18434,430.22981 558.42479,423.78544 C 558.52811,421.2058 558.97407,418.61359 558.03608,416.1621 L 579.34543,408.71016 z " />
  </g>
</svg>
