<?xml version="1.0" encoding="UTF-8" standalone="no"?>
<!-- Created with Inkscape (http://www.inkscape.org/) -->
<svg
   xmlns:dc="http://purl.org/dc/elements/1.1/"
   xmlns:cc="http://web.resource.org/cc/"
   xmlns:rdf="http://www.w3.org/1999/02/22-rdf-syntax-ns#"
   xmlns:svg="http://www.w3.org/2000/svg"
   xmlns="http://www.w3.org/2000/svg"
   xmlns:sodipodi="http://sodipodi.sourceforge.net/DTD/sodipodi-0.dtd"
   xmlns:inkscape="http://www.inkscape.org/namespaces/inkscape"
   width="400"
   height="400"
   id="svg42639"
   sodipodi:version="0.32"
   inkscape:version="0.45.1"
   version="1.0"
   sodipodi:docbase="/home/kris/tale/art/monster"
   sodipodi:docname="narwahl.svg"
   inkscape:output_extension="org.inkscape.output.svg.inkscape">
  <defs
     id="defs42641" />
  <sodipodi:namedview
     id="base"
     pagecolor="#ffffff"
     bordercolor="#666666"
     borderopacity="1.0"
     gridtolerance="10000"
     guidetolerance="10"
     objecttolerance="10"
     inkscape:pageopacity="0.0"
     inkscape:pageshadow="2"
     inkscape:zoom="1.4"
     inkscape:cx="299.52605"
     inkscape:cy="179.47468"
     inkscape:document-units="px"
     inkscape:current-layer="layer1"
     width="400px"
     height="400px"
     inkscape:window-width="1680"
     inkscape:window-height="979"
     inkscape:window-x="0"
     inkscape:window-y="45" />
  <metadata
     id="metadata42644">
    <rdf:RDF>
      <cc:Work
         rdf:about="">
        <dc:format>image/svg+xml</dc:format>
        <dc:type
           rdf:resource="http://purl.org/dc/dcmitype/StillImage" />
      </cc:Work>
    </rdf:RDF>
  </metadata>
  <g
     inkscape:label="Layer 1"
     inkscape:groupmode="layer"
     id="layer1">
    <path
       style="opacity:1;color:#000000;fill:#b3b3b3;fill-opacity:1;fill-rule:nonzero;stroke:none;stroke-width:1px;stroke-linecap:butt;stroke-linejoin:miter;marker:none;marker-start:none;marker-mid:none;marker-end:none;stroke-miterlimit:4;stroke-dasharray:none;stroke-dashoffset:0;stroke-opacity:1;visibility:visible;display:inline;overflow:visible;enable-background:accumulate"
       d="M 179.46875,109.71875 C 153.29852,110.30073 128.25668,121.36608 107.76776,137.21045 C 93.312178,157.0215 68.666786,168.10841 59.195925,191.68455 C 42.246875,223.09167 31.556723,258.22367 31.95978,294.1116 C 31.234692,318.75584 33.787958,344.29318 44.204819,366.86159 C 53.501546,383.55043 75.397878,383.53163 92.049667,382.21646 C 122.827,377.32666 152.30266,366.35323 181.04724,354.63378 C 207.93686,347.75802 232.81547,334.91491 258.40394,324.43831 C 279.76471,318.01732 303.65486,309.66148 325.34375,319.46875 C 336.4914,328.41701 349.82303,341.88003 365.3877,336.83434 C 378.66664,326.33502 379.75632,303.44746 374.35804,288.41341 C 364.84952,282.70008 361.61709,272.97127 374.53814,268.02827 C 396.91475,258.51189 384.00328,230.33331 364.24275,227.55 C 349.96867,221.62441 335.40981,215.74717 320.30768,222.61071 C 304.04814,220.00803 309.4165,192.5734 296.75199,182.30687 C 286.531,166.11353 273.45014,152.23258 259.85458,138.70015 C 239.9684,122.05767 214.61762,112.01686 188.68655,111.0431 C 185.60402,110.67552 182.52734,110.25192 179.46875,109.71875 z "
       id="path45030" />
    <path
       style="opacity:1;color:#000000;fill:#999999;fill-opacity:1;fill-rule:nonzero;stroke:none;stroke-width:1px;stroke-linecap:butt;stroke-linejoin:miter;marker:none;marker-start:none;marker-mid:none;marker-end:none;stroke-miterlimit:4;stroke-dasharray:none;stroke-dashoffset:0;stroke-opacity:1;visibility:visible;display:inline;overflow:visible;enable-background:accumulate"
       d="M 42.931484,228.77914 C 38.104462,242.2765 40.157368,259.06293 50.940035,269.18058 C 79.185028,278.61633 108.90926,267.55128 134.01203,254.45394 C 158.16832,241.78578 182.03841,228.56868 205.34208,214.39605 C 225.59477,202.80989 250.8616,200.17125 272.59631,209.17969 C 286.16204,213.56836 297.3199,223.10172 310.7049,227.72509 C 325.02216,229.70456 316.55054,210.72108 312.80152,203.85872 C 307.69264,193.37827 300.65219,183.95038 292.04705,176.16552 C 269.75965,151.02411 247.01977,122.87515 213.58901,112.6882 C 186.21637,103.55646 155.33908,107.81484 130.76774,122.66871 C 101.36876,138.13865 81.92701,165.87277 60.410002,190.15475 C 51.534236,201.29007 44.061204,214.30268 42.931484,228.77914 z "
       id="path45039" />
    <path
       style="opacity:1;color:#000000;fill:#00264e;fill-opacity:1;fill-rule:nonzero;stroke:none;stroke-width:1px;stroke-linecap:butt;stroke-linejoin:miter;marker:none;marker-start:none;marker-mid:none;marker-end:none;stroke-miterlimit:4;stroke-dasharray:none;stroke-dashoffset:0;stroke-opacity:1;visibility:visible;display:inline;overflow:visible;enable-background:accumulate"
       id="path42723"
       d="M 310.84774,227.89851 C 310.8998,225.39827 310.32903,222.95798 309.80139,220.53492 C 307.65192,211.64476 303.68107,203.4187 299.54395,195.3582 C 292.86605,182.5435 284.06783,171.17162 274.66228,160.38117 C 263.58382,147.98472 250.79327,137.56956 237.00707,128.55309 C 222.83495,119.48417 207.12198,114.32333 190.73351,111.66669 C 173.10452,109.29738 156.16039,113.37555 139.68507,119.43603 C 123.23236,125.77679 109.72836,137.00369 96.664331,148.75005 C 81.697152,162.53713 70.015183,179.19042 59.890525,196.87923 C 50.910052,212.915 45.13599,230.3428 41.067765,248.27021 C 37.775321,263.48049 36.745517,279.05639 36.118476,294.58229 C 35.600598,306.88854 36.020323,319.18723 37.224128,331.43467 C 38.289163,341.04666 40.167482,350.56331 43.64244,359.5697 C 47.136143,367.75109 53.538351,372.74257 61.180472,376.47466 C 71.156745,380.54286 81.88801,380.64246 92.446786,380.15738 C 106.30736,379.11236 119.74359,375.33295 133.00655,371.29101 C 147.37389,366.70838 161.53965,361.49936 175.69477,356.27813 C 188.6382,351.47983 201.4861,346.41854 214.31547,341.31046 C 225.39328,336.8975 236.44273,332.41046 247.50397,327.95413 C 256.39877,324.35503 265.32066,320.82666 274.30962,317.48184 C 281.0757,314.88901 288.04033,312.98404 295.17599,311.86813 C 300.72892,311.06097 306.31445,311.33219 311.85196,312.0672 C 316.5908,312.7231 321.1003,314.29473 325.50231,316.14686 C 329.50581,317.90176 333.34574,320.01318 337.14373,322.1876 C 340.63038,324.18618 343.98491,326.41287 347.32878,328.64955 C 350.29525,330.72987 353.34649,332.65588 356.47508,334.46304 C 358.91982,335.92066 361.42698,336.30142 364.1766,336.30057 C 363.55596,337.76 369.8645,333.76382 368.50571,334.53488 C 366.33013,335.79108 364.15455,337.04731 361.979,338.30348 C 362.30791,338.03063 362.63682,337.75777 362.96573,337.48491 C 365.1283,335.54301 366.55848,333.01428 368.0004,330.51209 C 369.53178,327.68749 370.56059,324.63966 371.57454,321.59486 C 372.52713,318.57922 373.08033,315.46393 373.61358,312.34994 C 374.09756,309.53344 374.07358,306.68267 374.0283,303.83708 C 373.96454,301.42854 373.59148,299.05735 373.15646,296.6973 C 372.81764,294.73175 371.90557,293.06506 370.86945,291.41958 C 369.77725,289.89824 368.29675,288.83445 366.78692,287.8031 C 365.28596,286.9536 363.69511,286.28575 362.12888,285.57481 C 360.97723,285.19106 360.06624,284.40832 359.08489,283.74299 C 358.1327,282.8628 358.50368,282.06594 358.46339,280.97901 C 358.98316,279.60221 360.02892,278.59691 360.95934,277.51458 C 362.20754,276.19936 363.55445,274.99104 364.9004,273.78385 C 366.43459,272.39678 368.03781,271.09416 369.63615,269.78669 C 371.31999,268.45495 372.95157,267.05845 374.57077,265.64595 C 376.0831,264.35528 377.46721,262.9278 378.82643,261.4736 C 380.09156,260.14897 381.00498,258.5764 381.8638,256.96517 C 382.66488,255.36336 382.73772,253.70766 382.7262,251.95813 C 382.53861,249.8058 381.55907,247.94534 380.5994,246.07301 C 379.30724,243.84598 377.57737,241.95632 375.87345,240.06339 C 374.15153,238.20622 372.23928,236.55812 370.31837,234.92613 C 368.60716,233.4834 366.75365,232.24816 364.87637,231.05079 C 363.17448,230.00485 361.39532,229.10545 359.61337,228.21524 C 357.994,227.42523 356.32814,226.74535 354.66068,226.07179 C 353.19552,225.49891 351.6911,225.0463 350.19348,224.57456 C 348.81067,224.14562 347.40374,223.81029 346.00098,223.45999 C 344.63245,223.12909 343.2477,222.8802 341.86585,222.61776 C 340.46947,222.36593 339.05559,222.2396 337.64675,222.08646 C 336.22039,221.9161 334.78724,221.85167 333.35416,221.77848 C 331.98607,221.68608 330.61574,221.71776 329.24642,221.7274 C 327.97005,221.7474 326.7018,221.89846 325.43351,222.03218 C 324.22509,222.14027 323.06702,222.50301 321.90232,222.82213 C 320.66562,223.20823 319.56232,223.89003 318.4376,224.51993 C 337.19218,213.0387 324.80251,220.74115 322.78765,222.06245 C 319.2784,224.33653 315.68644,226.47993 311.96856,228.37077 C 311.96822,228.38903 310.9273,228.8151 310.91354,228.82095 L 317.92277,223.14579 C 318.2633,222.98402 318.61256,222.84156 318.94433,222.66046 C 324.84171,219.4433 309.52517,228.45013 314.47254,225.37723 C 318.01206,223.01791 321.64588,220.81912 325.37491,218.77755 C 326.54575,218.19477 327.69541,217.55245 328.97722,217.24887 C 330.17468,216.97043 331.36586,216.65449 332.59907,216.58204 C 333.88098,216.46996 335.16232,216.33553 336.45107,216.34363 C 337.82951,216.35443 339.20822,216.3544 340.58473,216.44691 C 342.02729,216.53961 343.4705,216.62034 344.90683,216.79535 C 346.33003,216.96134 347.75766,217.10247 349.16557,217.38184 C 350.55633,217.65761 351.95023,217.91939 353.32673,218.26559 C 354.7381,218.63214 356.15388,218.9836 357.54444,219.42921 C 359.05248,219.92125 360.56896,220.39091 362.03855,220.99786 C 363.71466,221.69283 365.38918,222.39393 367.0154,223.20667 C 368.81035,224.125 370.6034,225.05117 372.31417,226.12931 C 374.20525,227.3693 376.07638,228.64149 377.80268,230.11974 C 379.73723,231.78985 381.66201,233.47669 383.39934,235.36702 C 385.14759,237.31796 386.91905,239.26706 388.25711,241.55083 C 389.28623,243.52804 390.32904,245.49984 390.60311,247.76559 C 390.69512,249.63321 390.72076,251.43687 389.94895,253.19155 C 389.1448,254.89425 388.26933,256.55027 387.00425,257.95534 C 385.66337,259.45095 384.30196,260.92616 382.77632,262.23007 C 381.1637,263.65961 379.54284,265.07843 377.85423,266.41408 C 376.25667,267.70548 374.65254,268.9912 373.12089,270.36501 C 371.77719,271.55106 370.43377,272.73803 369.17138,274.01619 C 368.25335,275.00104 367.27247,275.9372 366.57462,277.11154 C 366.602,277.60354 365.7491,278.48474 366.67296,278.87854 C 367.60432,279.47109 368.49181,280.14908 369.5447,280.53118 C 371.13464,281.26918 372.75388,281.95966 374.25212,282.88439 C 375.82808,284.01672 377.37535,285.18128 378.51655,286.80548 C 379.60539,288.55728 380.58403,290.32987 380.95569,292.41081 C 381.40783,294.82407 381.79033,297.24891 381.86519,299.71272 C 381.92293,302.61144 381.96965,305.51717 381.50345,308.39053 C 380.97871,311.5453 380.43402,314.70096 379.50351,317.76382 C 378.5146,320.85457 377.50632,323.94622 376.01285,326.83092 C 374.60919,329.40343 373.2079,331.99517 371.13616,334.08646 C 366.70375,336.9493 362.46758,341.0317 357.049,341.63842 C 354.22986,341.43609 351.61232,340.91149 349.13729,339.37185 C 346.0232,337.51417 342.97875,335.55029 339.99761,333.4723 C 336.67055,331.24847 333.33261,329.03531 329.86245,327.05031 C 326.09548,324.89508 322.28716,322.80013 318.30716,321.08202 C 313.95609,319.28255 309.49363,317.78212 304.81781,317.16957 C 299.34926,316.48415 293.83655,316.26507 288.36456,317.10889 C 281.3129,318.26917 274.42949,320.18528 267.73429,322.74695 C 258.80425,326.06366 249.93646,329.55106 241.09653,333.1121 C 230.07618,337.53209 219.0683,341.98482 208.03246,346.36421 C 195.23333,351.43966 182.41372,356.46267 169.50285,361.23344 C 155.35092,366.44714 141.17611,371.61184 126.81346,376.18962 C 113.45199,380.24769 99.914108,384.03345 85.950048,385.04068 C 75.230225,385.50582 64.336572,385.3769 54.232546,381.17705 C 46.427347,377.29824 39.907247,372.12592 36.362114,363.73184 C 32.887615,354.62611 31.021935,345.01381 29.992224,335.30434 C 28.834635,322.98086 28.46832,310.60956 29.049315,298.235 C 29.748601,282.62709 30.835463,266.96826 34.155779,251.67889 C 38.24761,233.65298 44.045754,216.12698 53.057471,199.99273 C 63.186908,182.23441 74.85285,165.49309 89.814838,151.60649 C 106.50474,136.47929 124.80925,123.19239 145.6386,114.67433 C 162.24342,108.65286 179.31126,104.64538 197.03739,107.12719 C 213.49185,109.88696 229.26461,115.13734 243.48456,124.28325 C 257.3182,133.3633 270.15059,143.83347 281.30491,156.25845 C 290.80607,167.05873 299.72436,178.43 306.57616,191.22747 C 310.83892,199.2767 314.93237,207.48293 317.39453,216.33062 C 318.02459,218.75889 318.69145,221.19323 318.86338,223.71162 L 310.84774,227.89851 z " />
    <path
       style="opacity:1;color:#000000;fill:#dee3e8;fill-opacity:1;fill-rule:nonzero;stroke:none;stroke-width:1px;stroke-linecap:butt;stroke-linejoin:miter;marker:none;marker-start:none;marker-mid:none;marker-end:none;stroke-miterlimit:4;stroke-dasharray:none;stroke-dashoffset:0;stroke-opacity:1;visibility:visible;display:inline;overflow:visible;enable-background:accumulate"
       d="M 18.71875,39.375 C 13.746552,58.265258 27.833349,84.357507 34.383576,104.23518 C 50.542301,130.67901 57.849875,161.74153 76.25,186.78125 C 93.135643,183.67595 102.24091,166.8629 113.40625,155.34375 C 98.951974,137.29646 80.624611,114.12605 65,93.5625 C 48.056747,78.132679 38.199802,56.871644 22.6875,40.34375 L 20.34375,39.46875 L 18.71875,39.375 z "
       id="path43844" />
    <path
       style="opacity:1;color:#000000;fill:#999999;fill-opacity:1;fill-rule:nonzero;stroke:none;stroke-width:1px;stroke-linecap:butt;stroke-linejoin:miter;marker:none;marker-start:none;marker-mid:none;marker-end:none;stroke-miterlimit:4;stroke-dasharray:none;stroke-dashoffset:0;stroke-opacity:1;visibility:visible;display:inline;overflow:visible;enable-background:accumulate"
       d="M 168.1904,333.58246 C 160.53491,341.47159 158.9554,354.81572 165.22796,363.98564 C 173.50757,372.68926 185.5135,375.77196 196.47159,379.62832 C 201.45303,381.08639 207.45773,382.10165 211.93601,378.76846 C 214.87715,375.48538 214.09947,370.50476 212.23678,366.88702 C 209.2316,355.64577 211.64691,343.01867 218.85339,333.84175 C 222.09532,331.85194 225.23672,329.22804 226.59406,325.56056 C 225.28351,320.69182 219.67917,317.59887 214.84216,318.87582 C 199.28672,317.62458 183.23919,321.35936 170.16941,329.98186 C 169.09696,330.87263 168.23581,332.15073 168.1904,333.58246 z "
       id="path44919" />
    <path
       style="opacity:1;color:#000000;fill:#00264e;fill-opacity:1;fill-rule:nonzero;stroke:none;stroke-width:1px;stroke-linecap:butt;stroke-linejoin:miter;marker:none;marker-start:none;marker-mid:none;marker-end:none;stroke-miterlimit:4;stroke-dasharray:none;stroke-dashoffset:0;stroke-opacity:1;visibility:visible;display:inline;overflow:visible;enable-background:accumulate"
       id="path42741"
       d="M 174.02313,330.09198 C 173.30837,330.6767 172.71565,331.39648 172.09158,332.07677 C 170.895,333.43328 169.86552,334.92951 168.81636,336.40496 C 167.57357,338.09096 166.52695,339.90483 165.51406,341.73979 C 164.59143,343.4114 164.05182,345.22793 163.56358,347.06654 C 163.06843,348.93835 163.20592,350.79866 163.42645,352.68795 C 163.81435,355.05994 165.08316,356.99788 166.34293,358.95942 C 168.03179,361.44153 170.26515,363.36795 172.51715,365.27643 C 175.35686,367.47412 178.51701,369.14941 181.72172,370.70433 C 185.03027,372.28397 188.44879,373.59487 191.88389,374.85044 C 194.82561,375.95677 197.84157,376.80571 200.87539,377.5912 C 203.30208,378.22537 205.78179,378.42868 208.27097,378.54054 C 210.21711,378.69125 211.99042,378.07256 213.80643,377.51647 C 219.55764,374.80583 204.45003,384.34407 209.63088,379.45641 C 210.53492,378.47078 210.77394,377.26105 211.11053,376.01742 C 211.36752,374.72145 211.12893,373.44332 210.97517,372.15765 C 210.72568,370.70429 210.30144,369.29357 209.9096,367.87658 C 209.45628,366.36229 209.01304,364.8449 208.56577,363.32872 C 208.12063,361.86965 207.77647,360.38278 207.41661,358.90071 C 207.04213,357.3671 207.05087,355.79467 206.99545,354.22946 C 206.97528,352.51575 207.30158,350.84171 207.63108,349.17243 C 208.02598,347.28773 208.81513,345.54734 209.60467,343.81283 C 210.46136,341.96136 211.65621,340.33232 212.86699,338.71769 C 214.17303,337.00442 215.78183,335.60094 217.39633,334.21096 C 219.0359,332.87459 220.81473,331.73963 222.58261,330.59462 C 226.15169,328.35078 229.81788,326.27472 233.44533,324.13223 L 226.54291,329.85515 C 227.97495,329.00412 232.27145,326.45201 230.84498,327.31277 C 229.07197,328.44253 227.28194,329.55068 225.61119,330.83825 C 223.98038,332.16381 222.353,333.50386 221.02068,335.15952 C 219.79044,336.71015 218.56541,338.26924 217.68518,340.06783 C 216.878,341.73319 216.06739,343.40383 215.63879,345.22436 C 215.31342,346.83327 214.91725,348.43511 214.92554,350.09358 C 214.95525,351.59512 214.92107,353.10337 215.26098,354.57895 C 215.60773,356.04342 215.93825,357.51292 216.37448,358.95383 C 216.8209,360.47066 217.25877,361.99019 217.72184,363.50182 C 218.12905,364.94844 218.56589,366.38914 218.84453,367.86969 C 219.04269,369.2416 219.32014,370.60846 219.12499,372.0038 C 218.85393,373.3682 218.68613,374.71836 217.83003,375.86962 C 214.92739,379.29706 210.93549,381.46374 206.79404,383.11628 C 204.92399,383.61623 203.05065,383.99006 201.09876,383.84166 C 198.58683,383.65317 196.08372,383.38639 193.64081,382.71278 C 190.60488,381.88097 187.58487,380.99349 184.6376,379.86476 C 181.19138,378.58071 177.76415,377.23576 174.44426,375.63343 C 171.18993,374.03372 167.97899,372.31049 165.09893,370.05919 C 162.78634,368.08763 160.49394,366.09581 158.74991,363.54631 C 157.4139,361.48382 156.06464,359.43901 155.60309,356.95326 C 155.3127,354.96455 155.10166,353.00331 155.56369,351.00929 C 156.01913,349.10074 156.51312,347.20851 157.43357,345.46556 C 158.4195,343.5886 159.43975,341.73117 160.68787,340.01814 C 161.72225,338.53328 162.73563,337.02863 163.87623,335.62601 C 164.47126,334.93177 165.04932,334.22025 165.68475,333.5662 L 174.02313,330.09198 z " />
    <path
       style="opacity:1;color:#000000;fill:#00264e;fill-opacity:1;fill-rule:nonzero;stroke:none;stroke-width:1px;stroke-linecap:butt;stroke-linejoin:miter;marker:none;marker-start:none;marker-mid:none;marker-end:none;stroke-miterlimit:4;stroke-dasharray:none;stroke-dashoffset:0;stroke-opacity:1;visibility:visible;display:inline;overflow:visible;enable-background:accumulate"
       id="path42751"
       d="M 76.434317,179.58642 C 76.554532,180.28082 76.868481,180.91274 77.098205,181.56957 C 77.327136,182.42627 78.002327,182.98352 78.479478,183.65786 C 79.461622,184.36616 80.365139,184.04837 81.466545,183.91858 C 84.065971,183.01353 86.386529,181.52424 88.666687,179.99052 C 91.657583,178.23581 102.81771,168.11733 91.674647,177.99855 C 94.598474,175.2945 97.32503,172.37996 99.992702,169.41408 C 102.16686,167.02143 104.14198,164.45636 106.09309,161.87394 C 107.47275,160.09173 108.62613,158.16713 109.66348,156.16467 C 110.43138,154.96656 110.01419,154.18519 109.81113,153.06626 C 109.02223,152.28954 108.00576,152.366 107.01972,152.16398 C 106.09074,152.0759 105.18324,152.30253 104.26892,152.40642 L 110.3884,145.73233 C 111.35541,145.6545 112.32187,145.50398 113.29373,145.65325 C 114.51431,145.94926 115.68348,146.09661 116.59707,147.09534 C 117.23758,148.5144 117.67303,149.39464 116.98063,151.00868 C 115.99999,153.10441 114.86877,155.0999 113.44754,156.92726 C 111.49503,159.54849 109.51678,162.15136 107.33455,164.57962 C 104.66716,167.57085 101.94287,170.51236 99.032019,173.25799 C 93.829351,177.93216 88.762995,182.85306 82.968045,186.7726 C 80.586307,188.33056 78.147394,189.87788 75.375885,190.57867 C 74.023514,190.55845 72.906663,190.74844 71.79179,189.75323 C 71.205935,188.99816 70.494358,188.34159 70.174042,187.39012 C 69.904511,186.69856 69.565106,186.02988 69.391113,185.30159 L 76.434317,179.58642 z " />
    <path
       style="opacity:1;color:#000000;fill:#00264e;fill-opacity:1;fill-rule:nonzero;stroke:none;stroke-width:1px;stroke-linecap:butt;stroke-linejoin:miter;marker:none;marker-start:none;marker-mid:none;marker-end:none;stroke-miterlimit:4;stroke-dasharray:none;stroke-dashoffset:0;stroke-opacity:1;visibility:visible;display:inline;overflow:visible;enable-background:accumulate"
       id="path42755"
       d="M 107.54174,156.30022 C 106.6222,155.30718 105.79863,154.22723 104.95156,153.16971 C 101.7766,149.28648 98.646061,145.36522 95.537691,141.42584 C 89.624539,133.88803 83.75918,126.31093 77.899163,118.72969 C 70.770664,109.50493 63.603754,100.31155 56.4912,91.073802 C 50.0302,82.675651 43.640324,74.219895 37.313045,65.715489 C 32.479454,59.110346 27.474946,52.639028 22.111406,46.477643 C 19.370966,43.38614 16.750965,40.156184 12.922359,38.772337 C 20.091805,32.023511 17.651125,34.649748 19.216966,42.713577 C 21.02505,50.610196 23.422887,58.352766 25.941499,66.036997 C 28.880421,74.766907 32.133462,83.380539 35.454697,91.963563 C 38.403972,99.629026 41.557894,107.20849 44.796594,114.74937 C 47.587819,121.22704 50.500665,127.64804 53.430122,134.06085 C 55.860155,139.34824 58.339486,144.61177 60.840823,149.86404 C 62.869583,154.13991 64.94268,158.39335 67.048345,162.6299 C 68.763739,166.09833 70.531582,169.53929 72.343086,172.95593 C 73.881659,175.86238 75.506507,178.71868 77.135848,181.57215 C 78.079522,183.21437 79.054124,184.83728 80.026688,186.46157 L 73.289693,192.28032 C 72.320831,190.64468 71.350128,189.01024 70.409702,187.35706 C 68.785098,184.48703 67.163371,181.61506 65.628789,178.69295 C 63.824433,175.25869 62.06632,171.79881 60.363067,168.31067 C 58.272871,164.05353 56.220519,159.777 54.207543,155.48093 C 51.726863,150.20475 49.269006,144.91711 46.859988,139.60609 C 43.95478,133.16566 41.062488,126.71885 38.28749,120.21801 C 35.064989,112.64972 31.926682,105.04327 28.99293,97.35167 C 25.690575,88.744412 22.458258,80.107397 19.473551,71.37806 C 16.887878,63.717776 14.495118,55.983965 12.482559,48.142928 C 10.550809,39.573584 10.302129,38.207208 19.217917,32.385485 C 22.998176,34.291234 25.77753,37.440884 28.520287,40.746675 C 33.801443,47.0126 38.736068,53.568521 43.560318,60.208731 C 49.850799,68.738416 56.206178,77.217754 62.646414,85.629272 C 69.731206,94.886488 76.862196,104.10671 84.065423,113.26748 C 89.976247,120.79661 95.901458,128.31487 101.93545,135.74082 C 105.10879,139.61485 108.32116,143.45424 111.60197,147.23329 C 112.47513,148.2402 113.32673,149.27212 114.28826,150.19297 L 107.54174,156.30022 z " />
    <path
       style="opacity:1;color:#000000;fill:#000000;fill-opacity:1;fill-rule:nonzero;stroke:none;stroke-width:1px;stroke-linecap:butt;stroke-linejoin:miter;marker:none;marker-start:none;marker-mid:none;marker-end:none;stroke-miterlimit:4;stroke-dasharray:none;stroke-dashoffset:0;stroke-opacity:1;visibility:visible;display:inline;overflow:visible;enable-background:accumulate"
       d="M 235.49181,241.84799 C 229.39663,239.13296 221.27827,241.0864 217.7155,246.90627 C 213.71473,254.00756 216.76219,264.17197 224.16724,267.69715 C 231.36206,271.1849 241.13547,267.99028 244.56671,260.68557 C 247.73153,253.84909 244.03558,244.68651 236.87573,242.18061 C 236.42631,242.02699 235.9643,241.90376 235.49181,241.84799 z "
       id="path44817" />
    <path
       style="opacity:1;color:#000000;fill:#00264e;fill-opacity:1;fill-rule:nonzero;stroke:none;stroke-width:1px;stroke-linecap:butt;stroke-linejoin:miter;marker:none;marker-start:none;marker-mid:none;marker-end:none;stroke-miterlimit:4;stroke-dasharray:none;stroke-dashoffset:0;stroke-opacity:1;visibility:visible;display:inline;overflow:visible;enable-background:accumulate"
       id="path42757"
       d="M 222.47187,244.65159 C 221.97874,244.47845 221.45337,244.5507 220.95188,244.50105 C 220.24278,244.55087 219.57626,244.82152 218.89792,244.99939 C 217.09264,245.89777 222.33029,242.86618 224.07261,241.8455 C 223.0307,242.51666 222.28125,243.50608 221.47686,244.43276 C 220.65362,245.47786 220.04826,246.66744 219.40651,247.83005 C 218.79893,248.91896 218.47728,250.11837 218.11405,251.30225 C 217.75577,252.51026 217.88643,253.72529 217.94677,254.95448 C 218.07051,256.28521 218.59711,257.48903 219.06031,258.71601 C 219.55265,259.95126 220.34762,260.99506 221.09367,262.06849 C 221.90719,263.13941 223.00596,263.8695 224.05751,264.65815 C 225.20592,265.4526 226.51602,265.87395 227.80165,266.35274 C 229.19918,266.82482 230.65772,266.83864 232.10501,266.93285 C 233.69922,266.96441 235.27219,266.73269 236.84856,266.53915 C 238.40493,266.36905 239.82648,265.73472 241.27003,265.17566 C 243.48012,264.11501 254.89408,257.54049 237.52024,267.38969 C 238.68876,266.55119 239.59677,265.43523 240.54543,264.36373 C 241.4287,263.35109 241.96869,262.12911 242.55782,260.93458 C 243.08565,259.83098 243.2461,258.63671 243.45478,257.44833 C 243.63326,256.29337 243.35089,255.17616 243.21008,254.04501 C 243.02202,252.95413 242.5231,251.97647 242.11876,250.96548 C 241.68716,249.95519 240.95395,249.15624 240.31763,248.29033 C 239.58364,247.40338 238.68923,246.69262 237.82269,245.95329 C 236.94959,245.22198 235.93715,244.71201 234.96909,244.13517 C 234.01357,243.56589 232.96533,243.21444 231.94767,242.79343 C 230.9568,242.38557 229.89582,242.27339 228.85902,242.06842 C 227.81353,241.91143 226.76282,242.00454 225.71525,242.02077 C 224.63362,242.10335 223.58614,242.39843 222.53045,242.6308 C 221.69988,242.82777 220.9015,243.13513 220.09004,243.3952 L 227.15273,237.77308 C 227.98005,237.53532 228.79666,237.25365 229.64183,237.08424 C 230.72926,236.88673 231.80809,236.60644 232.92138,236.60408 C 234.00551,236.63548 235.09739,236.58347 236.17017,236.80089 C 237.2404,237.05636 238.33474,237.22702 239.35488,237.67331 C 240.39587,238.13462 241.46653,238.53408 242.44724,239.1304 C 243.4529,239.73762 244.48218,240.31244 245.38357,241.08269 C 246.2807,241.87127 247.20676,242.63148 247.9689,243.5666 C 248.66783,244.4858 249.40462,245.37739 249.89093,246.44519 C 250.32694,247.51905 250.8579,248.55863 251.07769,249.71438 C 251.29384,250.92411 251.55978,252.12279 251.44535,253.36649 C 251.28456,254.6383 251.18419,255.9132 250.65749,257.10484 C 250.10558,258.37846 249.60754,259.67882 248.73893,260.77808 C 247.81797,261.91331 246.93625,263.08967 245.79117,264.00819 C 242.02748,266.33386 238.40218,269.11336 234.27693,270.81661 C 232.78313,271.31092 231.30646,271.86768 229.72303,271.99664 C 228.11542,272.15009 226.50818,272.35025 224.88846,272.26885 C 223.38425,272.10902 221.86621,272.02969 220.42931,271.4809 C 219.09476,270.93316 217.73253,270.44417 216.54885,269.57635 C 215.44347,268.71221 214.28926,267.90636 213.43657,266.75308 C 212.65408,265.61244 211.82,264.50227 211.2938,263.1994 C 210.78837,261.89871 210.22028,260.62062 210.05271,259.21125 C 209.93931,257.891 209.74773,256.5825 210.07133,255.267 C 210.39516,254.01472 210.67192,252.74934 211.27927,251.59437 C 211.90286,250.38545 212.49074,249.15108 213.28556,248.04423 C 214.05415,247.04463 214.77899,246.00712 215.75631,245.1985 C 219.09159,243.18665 222.24511,240.57397 225.9906,239.39369 C 226.732,239.2803 227.46236,239.01647 228.22516,239.11571 C 228.76967,239.21343 229.33008,239.24184 229.86306,239.40969 L 222.47187,244.65159 z " />
    <path
       style="opacity:1;color:#000000;fill:#00264e;fill-opacity:1;fill-rule:nonzero;stroke:none;stroke-width:1px;stroke-linecap:butt;stroke-linejoin:miter;marker:none;marker-start:none;marker-mid:none;marker-end:none;stroke-miterlimit:4;stroke-dasharray:none;stroke-dashoffset:0;stroke-opacity:1;visibility:visible;display:inline;overflow:visible;enable-background:accumulate"
       id="path42765"
       d="M 54.181237,204.7582 C 55.361343,204.76821 56.539962,204.82821 57.718948,204.87599 C 61.601158,205.0393 65.440504,205.63412 69.265671,206.29813 C 74.557281,207.22472 79.786757,208.47098 84.976309,209.86992 C 89.764473,211.18962 94.447332,212.8688 99.097285,214.62371 C 101.82355,215.65734 104.52034,216.7689 107.20995,217.89805 L 99.984585,222.85033 C 97.313216,221.72135 94.635035,220.60892 91.925601,219.57858 C 87.30526,217.83328 82.651873,216.16378 77.888862,214.86924 C 72.714501,213.48247 67.499272,212.24762 62.216648,211.37263 C 58.345422,210.75576 54.454326,210.24233 50.530315,210.193 C 49.319777,210.17251 48.109071,210.14242 46.898472,210.18249 L 54.181237,204.7582 z " />
    <path
       style="opacity:1;color:#000000;fill:#00264e;fill-opacity:1;fill-rule:nonzero;stroke:none;stroke-width:1px;stroke-linecap:butt;stroke-linejoin:miter;marker:none;marker-start:none;marker-mid:none;marker-end:none;stroke-miterlimit:4;stroke-dasharray:none;stroke-dashoffset:0;stroke-opacity:1;visibility:visible;display:inline;overflow:visible;enable-background:accumulate"
       id="path42809"
       d="M 72.289345,103.56522 C 72.383336,103.7536 72.492843,103.93306 72.59673,104.11572 C 72.788856,104.44535 72.976757,104.7775 73.164868,105.10949 C 73.425682,105.57327 73.673901,106.04425 73.925099,106.51347 C 74.228933,107.07053 74.484753,107.6524 74.741772,108.23298 C 75.020161,108.86639 75.255937,109.51756 75.492015,110.16829 C 75.729596,110.82466 75.920536,111.49663 76.109775,112.16877 C 76.299667,112.83996 76.413051,113.52837 76.523687,114.21659 C 76.633881,114.90827 76.645207,115.60821 76.654076,116.30685 C 76.65673,117.04012 76.566277,117.76663 76.474893,118.49208 C 76.367831,119.30882 76.160129,120.10441 75.954361,120.89911 C 75.713824,121.7794 75.424354,122.64446 75.1147,123.50138 C 74.778751,124.42052 74.400726,125.32228 73.99765,126.21233 C 73.569736,127.13565 73.099988,128.03758 72.62378,128.93542 C 72.143207,129.82611 71.657734,130.71404 71.164789,131.5976 C 70.67637,132.47279 70.175357,133.34035 69.672343,134.20674 C 69.162135,135.08146 68.654174,135.95754 68.147493,136.8344 C 67.627775,137.72592 67.124411,138.62722 66.624552,139.53053 C 66.119081,140.44125 65.634213,141.36359 65.160916,142.29222 C 64.696231,143.19606 64.274439,144.12183 63.868885,145.05483 C 63.480324,145.94995 63.142444,146.86627 62.840159,147.79534 C 62.553307,148.68184 62.346863,149.59149 62.173872,150.50752 C 62.013463,151.34076 61.93855,152.18596 61.869235,153.03087 C 61.810105,153.81319 61.823106,154.59729 61.840031,155.38066 C 61.861984,156.12138 61.939749,156.85809 62.015746,157.59444 C 62.091812,158.27844 62.199655,158.958 62.308918,159.63708 C 62.408367,160.26668 62.534904,160.8909 62.666341,161.5141 C 62.787895,162.07237 62.924687,162.62692 63.060768,163.18159 C 63.100831,163.34745 63.146018,163.5119 63.188642,163.67708 L 59.537676,165.70912 C 59.535057,165.69869 59.408346,165.21621 59.410429,165.20701 C 59.276642,164.64664 59.142528,164.08635 59.021811,163.52282 C 58.887453,162.89182 58.758949,162.25973 58.659848,161.62166 C 58.549515,160.93454 58.440997,160.24693 58.362905,159.55497 C 58.285908,158.80767 58.205104,158.06018 58.178705,157.30872 C 58.157521,156.51128 58.139176,155.71306 58.194873,154.91633 C 58.260579,154.05505 58.332036,153.19347 58.489848,152.34343 C 58.659231,151.41034 58.859587,150.48282 59.142261,149.57799 C 59.4384,148.6353 59.768494,147.7046 60.158148,146.79772 C 60.560979,145.85589 60.980605,144.92114 61.443893,144.00874 C 61.915771,143.07579 62.398207,142.14859 62.902012,141.23329 C 63.401546,140.32878 63.899416,139.42324 64.419949,138.53119 C 64.924103,137.65374 65.430657,136.77774 65.941504,135.90437 C 66.440945,135.03701 66.949547,134.17523 67.436592,133.3004 C 67.931738,132.41937 68.417421,131.53291 68.90074,130.64504 C 69.379206,129.75574 69.847371,128.8604 70.281198,127.94718 C 70.688638,127.06968 71.069143,126.17942 71.40451,125.27008 C 71.718192,124.42731 72.004414,123.57386 72.249013,122.70715 C 72.454887,121.93034 72.666382,121.15334 72.77866,120.35488 C 72.873279,119.64796 72.969366,118.94025 72.974488,118.22494 C 72.974639,117.54672 72.973277,116.86672 72.873791,116.194 C 72.770605,115.52132 72.665998,114.84826 72.48401,114.19187 C 72.300263,113.52915 72.114864,112.86656 71.882941,112.21931 C 71.650622,111.57781 71.419001,110.93572 71.141683,110.31266 C 70.887772,109.74401 70.635177,109.17397 70.332041,108.63036 C 70.078864,108.1668 69.828386,107.70147 69.561439,107.24597 C 69.368416,106.91971 69.175149,106.59355 68.975945,106.27116 C 68.861421,106.08463 68.743777,105.90001 68.634526,105.71009 L 72.289345,103.56522 z " />
    <path
       style="opacity:1;color:#000000;fill:#00264e;fill-opacity:1;fill-rule:nonzero;stroke:none;stroke-width:1px;stroke-linecap:butt;stroke-linejoin:miter;marker:none;marker-start:none;marker-mid:none;marker-end:none;stroke-miterlimit:4;stroke-dasharray:none;stroke-dashoffset:0;stroke-opacity:1;visibility:visible;display:inline;overflow:visible;enable-background:accumulate"
       id="path42811"
       d="M 86.947103,120.60818 C 87.056552,120.80463 87.148181,121.01053 87.246409,121.21288 C 87.418609,121.55901 87.562686,121.91824 87.71213,122.27488 C 87.896807,122.72471 88.066457,123.18037 88.231405,123.63808 C 88.405793,124.12146 88.552198,124.61433 88.696054,125.10789 C 88.840109,125.60694 88.947707,126.11523 89.051046,126.62425 C 89.152905,127.13325 89.208381,127.6493 89.260702,128.1654 C 89.3096,128.70363 89.296855,129.24378 89.282305,129.783 C 89.260073,130.39981 89.150007,131.00571 89.038917,131.61036 C 88.906723,132.30792 88.676068,132.97664 88.443052,133.64338 C 88.166198,134.40033 87.791513,135.11108 87.417689,135.82042 C 86.971477,136.62175 86.46873,137.38728 85.951527,138.14164 C 85.373866,138.9801 84.760971,139.79187 84.140698,140.5974 C 83.470629,141.46618 82.779235,142.31731 82.092987,143.1726 C 81.380607,144.05978 80.684035,144.96013 79.993795,145.8654 C 79.295999,146.78945 78.604606,147.71859 77.921489,148.65408 C 77.230852,149.60529 76.560469,150.57161 75.899037,151.54428 C 75.229026,152.53547 74.591816,153.54922 73.973277,154.57479 C 73.344378,155.60844 72.77696,156.67857 72.245428,157.76754 C 71.72223,158.85067 71.284481,159.97327 70.884338,161.10917 C 70.484697,162.24933 70.17438,163.41787 69.918351,164.59972 C 69.663485,165.80007 69.531094,167.02108 69.43914,168.24425 C 69.350956,169.46266 69.363586,170.68427 69.400658,171.90431 C 69.436335,173.03542 69.526415,174.16339 69.626098,175.29012 C 69.692306,175.97834 69.658294,175.63785 69.727946,176.31154 L 66.110084,178.24844 C 66.04667,177.56842 66.078377,177.91203 66.01501,177.21762 C 65.919493,176.08085 65.831148,174.94312 65.794959,173.8024 C 65.756536,172.56883 65.739449,171.33375 65.81839,170.10119 C 65.903699,168.86175 66.025904,167.62398 66.271808,166.40548 C 66.516325,165.20777 66.817156,164.02318 67.213294,162.86771 C 67.605008,161.71673 68.038812,160.58025 68.555375,159.48132 C 69.078748,158.37993 69.641288,157.2984 70.267184,156.2541 C 70.881091,155.22125 71.516241,154.20195 72.181537,153.20298 C 72.841014,152.22697 73.507812,151.25617 74.196098,150.30124 C 74.875676,149.36213 75.568047,148.43293 76.262501,147.50535 C 76.9506,146.598 77.644322,145.69504 78.353117,144.80449 C 79.036664,143.95214 79.72474,143.10343 80.395542,142.24043 C 81.011788,141.44179 81.625719,140.64084 82.201203,139.81049 C 82.717732,139.07129 83.2178,138.31973 83.667958,137.53566 C 84.043925,136.8471 84.420006,136.15697 84.704833,135.42175 C 84.943158,134.77812 85.178806,134.13231 85.316784,133.45617 C 85.432822,132.87381 85.546881,132.28975 85.577691,131.69437 C 85.598433,131.17374 85.614031,130.65261 85.575282,130.13202 C 85.530002,129.62915 85.48385,129.12572 85.387078,128.62971 C 85.290711,128.13173 85.187967,127.63509 85.048941,127.14733 C 84.909845,126.66171 84.769189,126.17637 84.596315,125.70192 C 84.434627,125.25161 84.267374,124.80377 84.079124,124.36419 C 83.930215,124.01862 83.787383,123.66999 83.610749,123.33782 C 83.509715,123.1474 83.417388,122.95182 83.302073,122.76959 L 86.947103,120.60818 z " />
    <path
       style="opacity:1;color:#000000;fill:#00264e;fill-opacity:1;fill-rule:nonzero;stroke:none;stroke-width:1px;stroke-linecap:butt;stroke-linejoin:miter;marker:none;marker-start:none;marker-mid:none;marker-end:none;stroke-miterlimit:4;stroke-dasharray:none;stroke-dashoffset:0;stroke-opacity:1;visibility:visible;display:inline;overflow:visible;enable-background:accumulate"
       id="path42837"
       d="M 97.510057,136.33648 C 97.62401,136.56416 97.729094,136.79628 97.836914,137.02699 C 98.079443,137.55545 98.254678,138.11107 98.434464,138.66397 C 98.678219,139.42828 98.845433,140.21399 99.015165,140.99795 C 99.206343,141.85608 99.312775,142.72844 99.381742,143.60469 C 99.450795,144.51205 99.414171,145.42079 99.332516,146.32541 C 99.255142,147.25889 99.038054,148.16716 98.782075,149.06341 C 98.508729,150.00552 98.129105,150.90824 97.718363,151.79449 C 97.258567,152.763 96.713882,153.68494 96.147209,154.59067 C 95.53747,155.5472 94.843528,156.44229 94.14671,157.33258 C 93.450521,158.22112 92.719879,159.08022 91.972044,159.92318 C 91.200546,160.77977 90.394698,161.60282 89.590085,162.42644 C 88.760911,163.27158 87.924591,164.10934 87.083568,164.9421 C 86.220825,165.79896 85.355021,166.65265 84.494269,167.51166 C 83.626532,168.37524 82.779608,169.26029 81.947117,170.15948 C 81.156111,171.00934 80.406379,171.89734 79.680916,172.80612 C 79.021509,173.62679 78.430416,174.50026 77.865409,175.39079 C 77.370727,176.15966 76.955885,176.97525 76.552228,177.79633 C 76.226791,178.48513 75.942302,179.1928 75.658989,179.90047 C 75.618785,180.00569 75.578593,180.11091 75.5384,180.21614 L 71.792115,181.99608 C 71.832773,181.88908 71.873455,181.78205 71.914113,181.67506 C 72.201069,180.95547 72.490866,180.23684 72.815651,179.53404 C 73.213092,178.69136 73.637096,177.86238 74.129785,177.07316 C 74.695142,176.16769 75.282301,175.27555 75.943058,174.43938 C 76.669219,173.52021 77.414994,172.61745 78.209854,171.75935 C 79.039737,170.8536 79.886149,169.96383 80.752687,169.09476 C 81.611355,168.23517 82.476181,167.38211 83.336992,166.52477 C 84.177923,165.69537 85.012508,164.85922 85.841775,164.01756 C 86.644154,163.19754 87.448383,162.37901 88.225689,161.53377 C 88.977063,160.69873 89.711395,159.84753 90.411553,158.9667 C 91.107206,158.08716 91.801695,157.20476 92.422388,156.26707 C 92.990911,155.37914 93.535678,154.4737 94.002004,153.52424 C 94.417114,152.65995 94.799436,151.7777 95.083144,150.85778 C 95.346157,149.9873 95.578768,149.10529 95.664273,148.19495 C 95.755111,147.31353 95.803579,146.42739 95.743029,145.54145 C 95.682048,144.68317 95.585682,143.82786 95.397594,142.98778 C 95.230191,142.22052 95.065871,141.45114 94.818828,140.70548 C 94.637014,140.17511 94.461311,139.64065 94.209472,139.13946 C 94.094866,138.92169 93.989305,138.69773 93.852467,138.49307 L 97.510057,136.33648 z " />
    <path
       style="opacity:1;color:#000000;fill:#00264e;fill-opacity:1;fill-rule:nonzero;stroke:none;stroke-width:1px;stroke-linecap:butt;stroke-linejoin:miter;marker:none;marker-start:none;marker-mid:none;marker-end:none;stroke-miterlimit:4;stroke-dasharray:none;stroke-dashoffset:0;stroke-opacity:1;visibility:visible;display:inline;overflow:visible;enable-background:accumulate"
       id="path42841"
       d="M 108.37666,149.52252 C 108.45364,149.79099 108.49839,150.06745 108.5525,150.34121 C 108.66744,150.94435 108.72546,151.55562 108.78416,152.16631 C 108.86427,152.95841 108.82127,153.75152 108.77416,154.5434 C 108.70798,155.40513 108.54752,156.25338 108.34686,157.09156 C 108.1381,157.97478 107.79149,158.8089 107.38927,159.61524 C 106.94625,160.48817 106.37613,161.27956 105.7707,162.03931 C 105.10832,162.86444 104.32902,163.57354 103.52026,164.24253 C 102.71086,164.89589 101.84819,165.47464 100.98024,166.04177 C 98.794067,167.46074 91.180525,171.89651 98.589774,167.5134 C 97.299167,168.27733 96.008568,169.04124 94.717945,169.80519 L 97.906881,167.15838 C 96.859066,167.77888 95.811215,168.39942 94.763422,169.01992 C 106.17242,162.26475 91.613677,170.93519 97.177496,167.55541 C 98.05084,166.99838 98.917499,166.42769 99.740656,165.79441 C 100.55334,165.15186 101.34163,164.47292 102.01512,163.67464 C 102.62394,162.94358 103.19998,162.18144 103.65465,161.33752 C 104.06523,160.56266 104.42823,159.763 104.6473,158.90645 C 104.84415,158.08887 105.03406,157.26858 105.09763,156.42581 C 105.15177,155.65802 105.20389,154.8884 105.12613,154.11945 C 105.06623,153.52856 105.00687,152.93678 104.87725,152.35641 C 104.81904,152.10934 104.77288,151.85828 104.68734,151.61883 L 108.37666,149.52252 z " />
    <path
       style="opacity:1;color:#000000;fill:#00264e;fill-opacity:1;fill-rule:nonzero;stroke:none;stroke-width:1px;stroke-linecap:butt;stroke-linejoin:miter;marker:none;marker-start:none;marker-mid:none;marker-end:none;stroke-miterlimit:4;stroke-dasharray:none;stroke-dashoffset:0;stroke-opacity:1;visibility:visible;display:inline;overflow:visible;enable-background:accumulate"
       id="path42851"
       d="M 63.827563,92.568973 C 63.914187,92.782836 64.016175,92.990083 64.113146,93.199229 C 64.327261,93.662639 64.545472,94.124015 64.764358,94.585091 C 65.025148,95.121554 65.274555,95.663162 65.514964,96.209438 C 65.761145,96.771502 65.94587,97.357153 66.127823,97.94321 C 66.327876,98.594466 66.429771,99.267264 66.525695,99.940469 C 66.618743,100.69285 66.585302,101.44868 66.548486,102.20293 C 66.502613,103.01652 66.350749,103.81573 66.197848,104.61329 C 66.022716,105.48684 65.755407,106.33552 65.467951,107.17579 C 65.141849,108.11584 64.742488,109.02607 64.333383,109.93045 C 63.864078,110.95472 63.361203,111.96218 62.861901,112.97124 C 62.312944,114.08522 61.766048,115.20027 61.225518,116.31856 C 60.656867,117.49593 60.107853,118.68295 59.581313,119.88072 C 59.051248,121.08867 58.574935,122.32005 58.122159,123.56029 C 57.693118,124.73979 57.321908,125.93976 56.981054,127.14872 C 56.663851,128.28295 56.417637,129.43533 56.207636,130.59482 C 56.002206,131.68341 55.905726,132.78644 55.861736,133.89278 C 55.828051,134.95907 55.898547,136.02429 56.005181,137.08423 C 56.109055,138.08816 56.298195,139.07919 56.511478,140.06381 C 56.676459,140.80145 56.8658,141.53288 57.053299,142.26471 L 53.445845,144.27032 C 53.262578,143.53036 53.077779,142.79076 52.912828,142.04619 C 52.696262,141.0458 52.504254,140.03892 52.393463,139.01967 C 52.281814,137.94138 52.204998,136.85786 52.230353,135.77265 C 52.265324,134.64767 52.351022,133.52502 52.555685,132.41744 C 52.763829,131.2441 53.008188,130.07791 53.323198,128.92928 C 53.661996,127.70882 54.032653,126.49779 54.461,125.3069 C 54.912981,124.05913 55.386514,122.81934 55.91223,121.60196 C 56.433175,120.3998 56.978401,119.2092 57.544379,118.02859 C 58.078556,116.9104 58.623695,115.79773 59.165796,114.68353 C 59.658753,113.68047 60.155878,112.67931 60.623915,111.66366 C 61.030423,110.77283 61.427702,109.87626 61.758715,108.95251 C 62.047196,108.13063 62.31951,107.30116 62.499822,106.44608 C 62.657029,105.66794 62.813573,104.88829 62.868408,104.09365 C 62.911801,103.36525 62.954042,102.63544 62.871737,101.90737 C 62.784846,101.25777 62.691367,100.60878 62.498704,99.980744 C 62.322233,99.409981 62.14298,98.839703 61.905481,98.291557 C 61.668774,97.751045 61.423314,97.214988 61.163164,96.685682 C 60.939807,96.229401 60.718151,95.772093 60.485681,95.320559 C 60.375766,95.11026 60.268284,94.898499 60.151082,94.692327 L 63.827563,92.568973 z " />
    <path
       style="opacity:1;color:#000000;fill:#00264e;fill-opacity:1;fill-rule:nonzero;stroke:none;stroke-width:1px;stroke-linecap:butt;stroke-linejoin:miter;marker:none;marker-start:none;marker-mid:none;marker-end:none;stroke-miterlimit:4;stroke-dasharray:none;stroke-dashoffset:0;stroke-opacity:1;visibility:visible;display:inline;overflow:visible;enable-background:accumulate"
       id="path42853"
       d="M 55.65902,80.882434 C 55.710343,81.062704 55.782143,81.236486 55.847087,81.411991 C 55.991974,81.773579 56.107981,82.145609 56.224339,82.517426 C 56.391117,83.058568 56.515451,83.611169 56.63888,84.163819 C 56.775884,84.784921 56.873009,85.413307 56.964167,86.04272 C 57.061566,86.703653 57.066152,87.370668 57.065385,88.037005 C 57.049219,88.810191 56.919546,89.571764 56.792235,90.331573 C 56.634739,91.197341 56.401731,92.04515 56.156573,92.88829 C 55.875663,93.837428 55.537907,94.767154 55.192451,95.693141 C 54.801654,96.730432 54.366298,97.749262 53.930927,98.767433 C 53.473316,99.830752 53.005243,100.8893 52.537155,101.9478 C 52.070739,102.98693 51.613848,104.0305 51.167679,105.07889 C 50.737937,106.0834 50.348306,107.10478 49.982266,108.13519 C 49.636427,109.11615 49.340362,110.11414 49.071337,111.11974 C 48.812437,112.09427 48.631135,113.08735 48.486799,114.08568 C 48.344841,115.07493 48.296155,116.07376 48.282489,117.0724 C 48.274176,118.04584 48.338491,119.01754 48.419018,119.98681 C 48.488885,120.86474 48.614998,121.73571 48.746435,122.60554 C 48.865723,123.35673 49.021196,124.10094 49.176423,124.84493 C 49.268301,125.2751 49.373739,125.70198 49.477641,126.12921 L 45.838958,128.14541 C 45.736634,127.71242 45.633437,127.27969 45.541466,126.8442 C 45.389122,126.09047 45.237531,125.33635 45.116878,124.57638 C 44.986486,123.69453 44.861231,122.81161 44.790565,121.92205 C 44.70904,120.93974 44.642287,119.95506 44.643131,118.9686 C 44.649359,117.95385 44.689269,116.93835 44.824003,115.93184 C 44.961729,114.91836 45.135131,113.90941 45.389491,112.919 C 45.653898,111.90162 45.94912,110.893 46.29206,109.90023 C 46.656276,108.86041 47.043851,107.82941 47.474053,106.81622 C 47.919884,105.76503 48.374781,104.71791 48.844633,103.67774 C 49.312538,102.62054 49.782175,101.56415 50.239786,100.50221 C 50.672871,99.492595 51.100512,98.479916 51.494652,97.45356 C 51.835184,96.538063 52.171712,95.620416 52.455277,94.684288 C 52.699192,93.856432 52.934364,93.024625 53.095295,92.174849 C 53.225736,91.438161 53.357249,90.699961 53.382343,89.94946 C 53.391147,89.30453 53.391469,88.65925 53.304162,88.018398 C 53.218665,87.399959 53.128995,86.782073 52.99262,86.172642 C 52.87103,85.633679 52.74849,85.094726 52.576283,84.569673 C 52.458192,84.210235 52.342402,83.849461 52.188662,83.503797 C 52.114117,83.325327 52.04336,83.145124 51.962434,82.969532 L 55.65902,80.882434 z " />
    <path
       style="opacity:1;color:#000000;fill:#00264e;fill-opacity:1;fill-rule:nonzero;stroke:none;stroke-width:1px;stroke-linecap:butt;stroke-linejoin:miter;marker:none;marker-start:none;marker-mid:none;marker-end:none;stroke-miterlimit:4;stroke-dasharray:none;stroke-dashoffset:0;stroke-opacity:1;visibility:visible;display:inline;overflow:visible;enable-background:accumulate"
       id="path42863"
       d="M 39.255356,115.99552 C 39.201733,115.76369 39.137678,115.53463 39.076646,115.30478 C 38.954061,114.83193 38.829404,114.3597 38.704348,113.88753 C 38.536559,113.2636 38.382789,112.63597 38.231612,112.00767 C 38.055265,111.28928 37.91665,110.56246 37.780919,109.83516 C 37.632457,109.05486 37.548677,108.26518 37.471586,107.47503 C 37.393742,106.67296 37.404739,105.86827 37.422885,105.06409 C 37.444298,104.23319 37.571991,103.41348 37.702707,102.59537 C 37.854697,101.70903 38.087215,100.84138 38.343293,99.981684 C 38.613727,99.06391 38.963356,98.174383 39.315913,97.287431 C 39.672489,96.39707 40.051598,95.516512 40.441321,94.640961 C 40.822363,93.786846 41.218053,92.939754 41.611411,92.091567 C 41.991854,91.267857 42.376086,90.446036 42.752418,89.620331 C 43.122385,88.807837 43.486278,87.992468 43.825982,87.166142 C 44.159643,86.349184 44.440616,85.511545 44.703028,84.668231 C 44.961759,83.850236 45.161406,83.015658 45.354228,82.179579 C 45.536726,81.385131 45.653025,80.578721 45.759873,79.770935 C 45.8562,79.007387 45.87209,78.238414 45.882352,77.469993 C 45.87982,76.742187 45.813266,76.017423 45.749979,75.293278 C 45.684883,74.604449 45.564199,73.923418 45.446934,73.242522 C 45.362097,72.732027 45.236764,72.231064 45.109117,71.730701 L 48.750224,69.702429 C 48.878163,70.216039 49.00529,70.729935 49.092782,71.25296 C 49.211317,71.945639 49.33395,72.638235 49.406501,73.33799 C 49.472059,74.074611 49.541987,74.811609 49.551052,75.551911 C 49.547141,76.336556 49.536971,77.12183 49.445631,77.902311 C 49.344902,78.723792 49.234049,79.543783 49.051766,80.351539 C 48.863117,81.199232 48.668792,82.045637 48.41121,82.874984 C 48.152879,83.729535 47.876277,84.578691 47.547372,85.407873 C 47.214279,86.241696 46.853545,87.062993 46.47999,87.878557 C 46.10542,88.706674 45.720176,89.529551 45.338414,90.3542 C 44.943798,91.201448 44.545516,92.046903 44.162035,92.899556 C 43.771055,93.771009 43.385274,94.644874 43.027885,95.531525 C 42.675281,96.407328 42.320806,97.284031 42.044926,98.189173 C 41.788142,99.032256 41.548201,99.881634 41.393387,100.75162 C 41.25755,101.55126 41.123582,102.35254 41.09453,103.16569 C 41.068485,103.95361 41.048761,104.74208 41.119104,105.5289 C 41.190366,106.30602 41.267887,107.08294 41.41477,107.84991 C 41.549151,108.5688 41.684914,109.28772 41.86373,109.99683 C 42.016917,110.61795 42.17173,111.23866 42.345149,111.85433 C 42.476277,112.32114 42.607898,112.78788 42.742986,113.25355 C 42.813052,113.47622 42.878118,113.70086 42.957341,113.92036 L 39.255356,115.99552 z " />
    <path
       style="opacity:1;color:#000000;fill:#00264e;fill-opacity:1;fill-rule:nonzero;stroke:none;stroke-width:1px;stroke-linecap:butt;stroke-linejoin:miter;marker:none;marker-start:none;marker-mid:none;marker-end:none;stroke-miterlimit:4;stroke-dasharray:none;stroke-dashoffset:0;stroke-opacity:1;visibility:visible;display:inline;overflow:visible;enable-background:accumulate"
       id="path42867"
       d="M 31.37144,96.659442 C 31.298903,96.476149 31.203529,96.303714 31.116942,96.127337 C 30.922602,95.765071 30.742435,95.395162 30.56196,95.025554 C 30.320578,94.541454 30.128355,94.035337 29.939336,93.528291 C 29.729659,92.968202 29.592178,92.38599 29.458993,91.803429 C 29.322035,91.201254 29.293796,90.586215 29.272431,89.97138 C 29.257076,89.358869 29.329443,88.751347 29.404556,88.145443 C 29.486848,87.529493 29.651631,86.931812 29.818499,86.335943 C 30.002623,85.708322 30.232917,85.096886 30.462367,84.485732 C 30.719826,83.817835 31.003682,83.161223 31.285651,82.503942 C 31.598053,81.784834 31.918521,81.069427 32.237304,80.353283 C 32.571333,79.60622 32.907248,78.860059 33.24232,78.113519 C 33.581809,77.357962 33.911681,76.598056 34.238561,75.836754 C 34.551883,75.106614 34.839835,74.365663 35.126728,73.624393 C 35.397821,72.933134 35.639404,72.230667 35.877566,71.527049 C 36.091234,70.885571 36.273671,70.234116 36.454651,69.582412 C 36.625278,68.993174 36.747727,68.392397 36.862919,67.789951 C 36.967651,67.243311 37.015707,66.688881 37.060357,66.134629 C 37.10171,65.606401 37.071846,65.078724 37.034804,64.551773 C 36.994586,64.003917 36.874622,63.469724 36.74972,62.937392 C 36.609909,62.374274 36.384308,61.841465 36.162711,61.308776 C 35.931467,60.78136 35.660342,60.274289 35.388865,59.768017 C 35.266816,59.536467 35.132402,59.312292 35.001918,59.085814 L 38.597775,56.952441 C 38.727524,57.183681 38.860127,57.413273 38.983464,57.64826 C 39.258546,58.167586 39.532801,58.68777 39.771346,59.226187 C 40.003819,59.778291 40.239526,60.330646 40.395121,60.912235 C 40.530929,61.463408 40.662504,62.016383 40.714854,62.584131 C 40.763446,63.130722 40.80276,63.67828 40.769291,64.227699 C 40.731298,64.797416 40.68884,65.367526 40.586915,65.929963 C 40.475113,66.545441 40.360579,67.160571 40.187498,67.761945 C 40.006472,68.421906 39.823022,69.08126 39.610905,69.731604 C 39.374138,70.442971 39.133629,71.153156 38.860096,71.85082 C 38.572897,72.59734 38.287215,73.344625 37.972544,74.079599 C 37.647412,74.844068 37.318414,75.606677 36.978479,76.364384 C 36.645847,77.11073 36.312477,77.856737 35.976179,78.601368 C 35.660879,79.315449 35.343354,80.028464 35.031337,80.744065 C 34.7515,81.395805 34.46953,82.046809 34.211259,82.707925 C 33.979307,83.307224 33.751177,83.908237 33.559107,84.522607 C 33.387253,85.099337 33.216689,85.677568 33.121589,86.274174 C 33.037242,86.859611 32.957084,87.446928 32.958969,88.040415 C 32.96848,88.629252 32.98417,89.218574 33.108951,89.796737 C 33.232258,90.361029 33.36104,90.924566 33.564292,91.465834 C 33.748401,91.957441 33.935884,92.448118 34.17595,92.914802 C 34.359047,93.276438 34.541207,93.638956 34.744996,93.988979 C 34.845678,94.171536 34.947159,94.353608 35.047918,94.536069 L 31.37144,96.659442 z " />
    <path
       style="opacity:1;color:#000000;fill:#00264e;fill-opacity:1;fill-rule:nonzero;stroke:none;stroke-width:1px;stroke-linecap:butt;stroke-linejoin:miter;marker:none;marker-start:none;marker-mid:none;marker-end:none;stroke-miterlimit:4;stroke-dasharray:none;stroke-dashoffset:0;stroke-opacity:1;visibility:visible;display:inline;overflow:visible;enable-background:accumulate"
       id="path42871"
       d="M 24.739399,77.133512 C 24.686373,76.960254 24.660237,76.780477 24.621936,76.603819 C 24.561747,76.30431 24.559384,75.998854 24.545212,75.695006 C 24.532926,75.278322 24.60172,74.867799 24.666356,74.458429 C 24.752405,73.948815 24.894426,73.452656 25.035617,72.957088 C 25.194786,72.396195 25.405109,71.853881 25.61827,71.313028 C 25.856309,70.715282 26.146914,70.143107 26.441354,69.573356 C 26.759154,68.971147 27.12153,68.396168 27.48553,67.822801 C 27.865405,67.244206 28.27921,66.690265 28.689333,66.13414 C 29.090652,65.60219 29.489809,65.068569 29.885913,64.53255 C 30.265312,64.013821 30.633346,63.486572 31.000368,62.95862 C 31.341101,62.474149 31.65157,61.969131 31.95851,61.461905 C 32.224956,61.016096 32.458272,60.551611 32.685605,60.084216 C 32.890989,59.679216 33.002516,59.243251 33.100898,58.801904 C 33.192055,58.374841 33.162344,57.942037 33.151837,57.510332 C 33.127296,57.08803 33.009403,56.683841 32.906557,56.277456 C 32.886955,56.21703 32.867382,56.156592 32.847764,56.096154 L 36.501297,54.033696 C 36.522448,54.098932 36.5436,54.164118 36.564752,54.229341 C 36.677675,54.66156 36.805384,55.091678 36.845172,55.539946 C 36.880942,56.004047 36.909456,56.468281 36.84261,56.932108 C 36.761377,57.405947 36.672613,57.877912 36.467597,58.31599 C 36.248025,58.801128 36.01609,59.279692 35.748078,59.739391 C 35.444298,60.258204 35.137204,60.775489 34.793205,61.267823 C 34.427058,61.800608 34.059729,62.332535 33.680297,62.855535 C 33.286249,63.395778 32.888566,63.933121 32.481786,64.463401 C 32.070819,65.013131 31.658855,65.562347 31.268379,66.127661 C 30.900084,66.688582 30.53544,67.252273 30.213053,67.842836 C 29.914933,68.397087 29.621766,68.95369 29.379017,69.536591 C 29.163771,70.063386 28.950304,70.591125 28.786809,71.137883 C 28.645266,71.61771 28.500008,72.097287 28.408728,72.590569 C 28.346408,72.972847 28.265726,73.354282 28.266831,73.744183 C 28.275022,74.024339 28.272138,74.306287 28.324612,74.582888 C 28.360766,74.737422 28.375428,74.898311 28.435985,75.046443 L 24.739399,77.133512 z " />
    <path
       style="opacity:1;color:#000000;fill:#00264e;fill-opacity:1;fill-rule:nonzero;stroke:none;stroke-width:1px;stroke-linecap:butt;stroke-linejoin:miter;marker:none;marker-start:none;marker-mid:none;marker-end:none;stroke-miterlimit:4;stroke-dasharray:none;stroke-dashoffset:0;stroke-opacity:1;visibility:visible;display:inline;overflow:visible;enable-background:accumulate"
       id="path42873"
       d="M 20.351639,65.616676 C 20.359585,65.382286 20.348755,65.147836 20.343709,64.913531 C 20.331146,64.511632 20.331146,64.109722 20.333954,63.707693 C 20.335841,63.230597 20.397288,62.758357 20.462277,62.287179 C 20.535749,61.793461 20.664592,61.312796 20.79879,60.833803 C 20.945105,60.338116 21.155244,59.868047 21.368052,59.399912 C 21.59132,58.926981 21.86065,58.480192 22.131239,58.034931 C 22.396427,57.609682 22.687233,57.202736 22.981856,56.798751 C 23.261203,56.416732 23.567974,56.05729 23.872032,55.696082 C 24.168297,55.347701 24.468289,55.002721 24.766855,54.656441 C 25.052552,54.331758 25.319918,53.991169 25.589724,53.652764 C 25.834712,53.351218 26.05677,53.031797 26.28194,52.714954 C 26.488551,52.424243 26.653655,52.107555 26.825172,51.795067 C 26.995047,51.495276 27.089165,51.164543 27.194694,50.838416 C 27.298229,50.501181 27.320041,50.149161 27.355841,49.800338 C 27.376625,49.507658 27.374155,49.214132 27.377821,48.920974 L 31.099304,46.974058 C 31.097968,47.276892 31.100714,47.579858 31.089164,47.882597 C 31.061753,48.254879 31.048241,48.629916 30.964661,48.995147 C 30.870574,49.346725 30.791503,49.703971 30.631645,50.032927 C 30.468028,50.362787 30.31053,50.696288 30.10665,51.00318 C 29.886648,51.333101 29.670175,51.665433 29.422687,51.975141 C 29.152696,52.319536 28.884272,52.665363 28.601719,52.999186 C 28.302232,53.344739 28.005277,53.692642 27.704932,54.037455 C 27.399986,54.393711 27.092202,54.747879 26.801627,55.116665 C 26.502832,55.511904 26.205369,55.907907 25.934367,56.324101 C 25.657889,56.754206 25.38569,57.187105 25.151945,57.643785 C 24.934106,58.092518 24.714166,58.54075 24.559094,59.017715 C 24.41597,59.477426 24.276572,59.938461 24.198682,60.415867 C 24.123278,60.866307 24.056494,61.317999 24.048533,61.776242 C 24.046232,62.168809 24.039069,62.561447 24.06401,62.953668 C 24.076771,63.188249 24.087938,63.423091 24.10254,63.657421 L 20.351639,65.616676 z " />
  </g>
</svg>
