<?xml version="1.0" encoding="UTF-8" standalone="no"?>
<!-- Created with Inkscape (http://www.inkscape.org/) -->
<svg
   xmlns:dc="http://purl.org/dc/elements/1.1/"
   xmlns:cc="http://web.resource.org/cc/"
   xmlns:rdf="http://www.w3.org/1999/02/22-rdf-syntax-ns#"
   xmlns:svg="http://www.w3.org/2000/svg"
   xmlns="http://www.w3.org/2000/svg"
   xmlns:xlink="http://www.w3.org/1999/xlink"
   xmlns:sodipodi="http://inkscape.sourceforge.net/DTD/sodipodi-0.dtd"
   xmlns:inkscape="http://www.inkscape.org/namespaces/inkscape"
   width="1000"
   height="1000"
   id="svg2"
   sodipodi:version="0.32"
   inkscape:version="0.43"
   version="1.0"
   sodipodi:docbase="/home/kkowal/tale/art/monster"
   sodipodi:docname="panda-assassin.svg"
   inkscape:export-filename="/home/kkowal/tale/art/monster/panda-assassin.png"
   inkscape:export-xdpi="90"
   inkscape:export-ydpi="90">
  <defs
     id="defs4">
    <linearGradient
       id="linearGradient13874">
      <stop
         style="stop-color:#404040;stop-opacity:0.65306121;"
         offset="0"
         id="stop13876" />
      <stop
         id="stop13882"
         offset="0.5"
         style="stop-color:#ffffff;stop-opacity:0.49803922;" />
      <stop
         style="stop-color:#000000;stop-opacity:0.54081631;"
         offset="1"
         id="stop13878" />
    </linearGradient>
    <linearGradient
       inkscape:collect="always"
       xlink:href="#linearGradient13874"
       id="linearGradient13880"
       x1="472.48978"
       y1="585.47766"
       x2="492.64841"
       y2="760.17639"
       gradientUnits="userSpaceOnUse"
       gradientTransform="matrix(0.949887,0.312593,-0.312593,0.949887,228.2856,-191.4116)" />
    <radialGradient
       inkscape:collect="always"
       xlink:href="#linearGradient13874"
       id="radialGradient13894"
       cx="617.67206"
       cy="729.5213"
       fx="617.67206"
       fy="729.5213"
       r="87.678223"
       gradientTransform="matrix(1.702972,-0.100644,0.162758,2.753986,-552.9418,-1217.406)"
       gradientUnits="userSpaceOnUse" />
    <linearGradient
       inkscape:collect="always"
       xlink:href="#linearGradient13874"
       id="linearGradient15704"
       x1="347.07318"
       y1="619.19672"
       x2="368.16257"
       y2="753.02252"
       gradientUnits="userSpaceOnUse"
       gradientTransform="matrix(0.949887,0.312593,-0.312593,0.949887,228.2856,-191.4116)" />
  </defs>
  <sodipodi:namedview
     id="base"
     pagecolor="#ffffff"
     bordercolor="#666666"
     borderopacity="1.0"
     inkscape:pageopacity="0.0"
     inkscape:pageshadow="2"
     inkscape:zoom="0.7"
     inkscape:cx="584.3388"
     inkscape:cy="506.92414"
     inkscape:document-units="px"
     inkscape:current-layer="layer1"
     showguides="true"
     inkscape:guide-bbox="true"
     inkscape:window-width="1600"
     inkscape:window-height="1125"
     inkscape:window-x="0"
     inkscape:window-y="25" />
  <metadata
     id="metadata7">
    <rdf:RDF>
      <cc:Work
         rdf:about="">
        <dc:format>image/svg+xml</dc:format>
        <dc:type
           rdf:resource="http://purl.org/dc/dcmitype/StillImage" />
      </cc:Work>
    </rdf:RDF>
  </metadata>
  <g
     inkscape:label="Layer 1"
     inkscape:groupmode="layer"
     id="layer1">
    <g
       id="g9294">
      <path
         id="path3673"
         d="M 240,368.57144 C 185.55626,420.27507 166.602,494.46733 153.23053,564.85833 C 151.63092,634.36784 238.84467,639.67785 289.37307,629.16352 C 361.14795,618.72667 388.91846,544.00087 418.50419,487.89082 C 450.53887,429.87171 413.31939,353.16304 463.55228,302.42229 C 516.50978,298.74843 503.21156,215.41853 450.55946,250.12758 C 370.93573,267.2864 292.20112,304.23413 240,368.57144 z "
         style="opacity:1;color:#000000;fill:#545454;fill-opacity:1;fill-rule:nonzero;stroke:none;stroke-width:80;stroke-linecap:butt;stroke-linejoin:miter;marker:none;marker-start:none;marker-mid:none;marker-end:none;stroke-miterlimit:4;stroke-dasharray:none;stroke-dashoffset:0;stroke-opacity:0.25465836;visibility:visible;display:inline;overflow:visible" />
      <path
         d="M 292.80542,302.46882 C 290.60735,302.14833 280.23478,318.17019 276.68005,323.30138 C 258.41477,350.12536 241.06064,377.48641 224.71147,405.33733 C 206.02736,437.85216 189.5094,471.46023 175.9211,506.05748 C 168.05102,528.54933 158.80152,551.71575 158.98012,575.67165 C 159.08712,593.63227 169.52251,606.05121 186.09735,614.41279 C 210.64172,625.54709 238.39951,628.19749 265.42183,627.25767 C 281.42497,626.53359 297.14179,623.51954 312.57255,619.70036 L 303.30914,636.16803 C 287.28773,639.54738 271.02378,642.13772 254.54631,642.42113 C 225.86317,642.69329 196.58012,639.26992 170.79349,627.01346 C 151.39148,616.73985 139.03765,601.14846 138.62831,580.01414 C 138.17932,554.80074 148.30624,530.55167 156.87233,506.99936 C 170.95228,472.09961 187.98214,438.25554 206.40494,405.12996 C 222.25839,377.26281 239.21371,349.94092 256.03826,322.56414 C 260.85169,314.8278 267.04566,306.99493 269.88781,298.54057 L 292.80542,302.46882 z "
         id="path2519"
         style="opacity:1;color:#000000;fill:#000000;fill-opacity:1;fill-rule:nonzero;stroke:none;stroke-width:80;stroke-linecap:butt;stroke-linejoin:miter;marker:none;marker-start:none;marker-mid:none;marker-end:none;stroke-miterlimit:4;stroke-dasharray:none;stroke-dashoffset:0;stroke-opacity:0.25465836;visibility:visible;display:inline;overflow:visible" />
    </g>
    <g
       id="g9271"
       transform="matrix(0.984631,-0.174645,0.174645,0.984631,-372.1385,95.1498)">
      <path
         id="path8391"
         d="M 411.13208,607.05066 C 411.09784,613.09709 405.94227,618.45088 400.02041,619.17249 C 394.30284,622.38706 387.17355,618.40917 381.59354,622.06907 C 379.19256,626.24489 374.59552,630.30322 375.93441,635.58283 C 378.3994,639.75932 383.31011,641.90847 387.4806,644.09132 C 395.5007,647.93247 404.53125,646.02168 413.06792,646.42526 C 419.82893,645.97275 427.22313,647.80515 433.33645,644.02912 C 440.85458,639.82292 442.14636,630.03784 448.8349,625.08647 C 454.37666,623.05039 457.35459,634.98826 462.8905,628.58729 C 466.40883,625.52687 468.31946,619.39134 473.83393,619.65026 C 479.59956,620.49584 481.20013,626.85606 484.01719,630.97119 C 487.30156,636.21405 494.7395,634.75177 494.49738,628.21662 C 496.44852,621.87771 499.19741,615.82385 502.05741,609.85231 C 502.92951,603.6474 495.69775,600.1348 490.41332,600.21035 C 482.94469,599.95424 475.53071,598.96377 468.19759,597.61769 C 454.82912,596.264 441.38083,597.40061 427.98313,596.78682 C 423.91054,594.47026 416.21136,595.71111 415.95171,601.32247 C 417.29079,604.87666 414.60211,607.14341 411.13208,607.05066 z "
         style="opacity:1;color:#000000;fill:#c1c1c1;fill-opacity:1;fill-rule:nonzero;stroke:none;stroke-width:80;stroke-linecap:butt;stroke-linejoin:miter;marker:none;marker-start:none;marker-mid:none;marker-end:none;stroke-miterlimit:4;stroke-dasharray:none;stroke-dashoffset:0;stroke-opacity:0.25465836;visibility:visible;display:inline;overflow:visible" />
      <path
         sodipodi:nodetypes="cccccccccccccccccc"
         id="path7513"
         d="M 352.54324,629.27405 C 348.10101,607.68986 346.15499,576.39357 360.87414,560.14982 C 388.0273,550.16538 398.66491,583.98301 404.7385,602.0685 C 425.22832,615.33574 451.39809,603.90198 474.15701,603.90143 C 520.20379,597.33655 563.30147,622.14009 609.12858,621.62396 C 638.17134,623.66038 667.90462,629.34893 697.34337,627.85966 C 736.52654,630.19695 773.93368,637.92019 812.90482,632.11731 C 834.49687,628.88892 859.18002,637.44991 877.21183,621.14469 C 893.3365,609.4582 886.9127,588.69263 866.22886,591.73685 C 839.11551,592.29419 812.11706,591.6262 785.00692,590.33665 C 745.57325,589.25328 710.36332,580.20704 668.98788,580.17185 C 623.7176,574.7163 576.99333,574.40219 531.53027,572.73601 C 498.12005,572.43127 464.68879,571.15844 431.43921,567.75528 C 415.52239,555.29151 430.0768,513.31249 397.41416,524.14829 C 375.88217,523.33066 348.64453,512.54148 332.42782,532.51807 C 313.9639,556.91746 329.62713,589.84062 315.99476,615.92614 C 304.93046,640.00997 357.30126,657.53455 352.54324,629.27405 L 352.54324,629.27405 z "
         style="opacity:1;color:#000000;fill:#ca2300;fill-opacity:1;fill-rule:nonzero;stroke:none;stroke-width:80;stroke-linecap:butt;stroke-linejoin:miter;marker:none;marker-start:none;marker-mid:none;marker-end:none;stroke-miterlimit:4;stroke-dasharray:none;stroke-dashoffset:0;stroke-opacity:0.25465836;visibility:visible;display:inline;overflow:visible" />
      <path
         d="M 439.50065,558.12716 C 453.50237,561.28474 467.82553,562.89329 482.06277,564.61666 C 538.55542,571.02042 595.36639,574.10715 652.14933,576.53884 C 705.41008,578.81023 758.70975,579.84012 812.00858,580.67087 C 834.42564,581.42984 857.12212,580.74066 879.2754,584.77773 C 887.48707,586.32132 893.39222,589.87819 896.3104,597.71476 C 897.46419,603.28823 895.64172,608.43987 893.54279,613.52826 C 891.37222,618.67399 888.25645,623.22328 884.66532,627.45767 C 875.88449,637.07701 863.56838,639.52033 851.30311,640.5554 C 827.14154,641.87759 802.91087,640.80958 778.75327,639.84575 C 741.33025,638.34295 704.04267,634.66618 666.83118,630.54394 C 632.45635,626.67824 598.13491,622.35611 563.75797,618.50813 C 545.61362,616.43821 527.43386,614.70906 509.24436,613.09264 C 501.03275,612.34126 492.80704,611.76063 484.56714,611.46021 C 479.43317,611.33114 474.3112,611.6154 469.19585,612.0086 C 464.62689,612.34548 460.07461,612.8783 455.53701,613.49912 C 451.10613,614.08923 446.80314,615.27478 442.51548,616.49643 C 440.71501,617.02181 438.95713,617.67382 437.18717,618.29016 L 443.10658,604.55769 C 445.00369,603.99616 446.88708,603.38324 448.81356,602.92446 C 453.39312,601.83174 458.00134,600.86456 462.69253,600.37703 C 467.36749,599.86469 472.04649,599.37833 476.74396,599.12286 C 482.06558,598.85363 487.39877,598.77618 492.72111,599.10367 C 500.97479,599.66434 509.21067,600.43859 517.42694,601.40813 C 535.38718,603.46117 553.33468,605.62167 571.2514,608.02893 C 605.33435,612.50607 639.39206,617.20564 673.5563,621.03186 C 710.77865,625.118 748.11323,628.47235 785.56324,629.4211 C 809.71747,630.06575 834.03883,630.91912 858.10036,628.27504 C 863.51968,627.4289 878.69971,620.96323 873.86144,623.54707 C 857.31105,632.38568 866.35856,628.0247 869.8946,625.56476 C 873.47975,622.26729 876.55847,618.62025 878.65675,614.16806 C 880.38359,610.61436 882.23928,607.00665 882.27701,602.97391 C 879.97114,598.3653 875.7999,597.06917 870.52167,596.08934 C 849.13103,592.01214 827.22108,591.82223 805.54362,590.62841 C 752.70918,588.54477 699.86647,586.66073 647.0443,584.27163 C 589.71465,581.75424 532.37836,579.05008 475.1708,574.45702 C 460.59763,573.27046 445.86076,571.43773 431.30511,571.12134 L 439.50065,558.12716 z "
         id="path7485"
         style="opacity:1;color:#000000;fill:#8d220b;fill-opacity:1;fill-rule:nonzero;stroke:none;stroke-width:80;stroke-linecap:butt;stroke-linejoin:miter;marker:none;marker-start:none;marker-mid:none;marker-end:none;stroke-miterlimit:4;stroke-dasharray:none;stroke-dashoffset:0;stroke-opacity:0.25465836;visibility:visible;display:inline;overflow:visible" />
      <path
         d="M 452.48005,614.56121 C 452.56594,615.31832 448.8884,615.18327 447.48536,615.27181 C 441.41923,615.49674 435.35353,615.23576 429.29565,614.93301 C 422.8664,614.60172 416.44828,614.06386 410.04362,613.41723 C 404.0801,613.14848 398.92685,611.59619 394.17891,608.04816 C 389.89804,603.66412 388.57353,597.90039 387.58028,592.05702 C 386.85408,586.72188 387.02212,581.3309 386.99983,575.96421 C 386.8265,572.15728 384.86659,570.96825 381.83383,569.25338 C 377.67047,567.64009 373.23598,567.04546 368.83106,566.5173 C 364.39772,565.79576 360.78397,566.78492 357.13812,569.15376 C 372.66561,559.72722 362.62115,565.13941 360.06392,571.5903 C 358.5692,577.31611 358.68118,583.27591 358.67774,589.1477 C 358.77062,596.07777 358.99509,603.00538 359.19229,609.93309 C 359.35967,616.03758 359.56119,622.14212 359.52397,628.24859 C 359.51941,633.60694 357.91387,637.95816 354.28537,641.80462 C 344.83705,648.21126 337.59559,648.40641 327.07851,647.28445 C 319.61941,646.13808 314.57987,642.16866 311.26007,635.51746 C 307.85492,626.83097 308.89804,617.56406 310.25546,608.57443 C 312.06903,597.87453 314.42262,587.27618 316.82327,576.69558 C 318.89621,567.52189 321.08014,558.37414 323.40914,549.26215 C 325.00799,543.02488 326.64286,536.79692 328.3898,530.59961 C 330.71006,521.67017 336.88973,515.71039 346.97662,515.10469 C 354.54111,515.35819 362.08815,515.86983 369.6574,516.05894 C 380.41391,516.25511 391.17374,516.28604 401.93076,516.12544 C 409.20838,515.83249 416.29735,516.2045 423.05345,518.97593 C 427.90323,521.61046 430.09327,526.02995 431.6356,531.08598 C 432.85678,536.17872 432.81716,541.42631 432.73511,546.62712 C 432.33396,550.908 432.73774,555.03268 433.75522,559.15478 C 435.24343,561.50281 436.45462,561.03753 439.01352,560.92057 C 442.05542,560.38425 444.761,558.98475 447.47505,557.6075 L 442.24803,571.69431 C 438.52062,572.88548 434.78929,574.03005 430.81774,573.54753 C 425.96814,572.31191 422.19502,570.38705 420.13101,565.47286 C 418.47008,560.50206 417.8919,555.42417 418.27605,550.17026 C 418.40254,545.6055 418.56283,541.00261 417.65972,536.4979 C 416.69189,533.42483 416.04436,531.11758 412.80354,529.86194 C 406.71595,528.40466 400.49298,528.30068 394.23462,528.41719 C 383.44814,528.40924 372.66182,528.28114 361.87628,528.14831 C 354.64318,528.02599 347.22552,527.21512 340.08567,528.42404 C 345.65603,525.5382 347.74811,521.59145 343.20161,529.05578 C 341.19816,535.08236 339.62021,541.23737 337.93432,547.35964 C 335.48011,556.4012 333.13203,565.47167 331.05584,574.60854 C 328.64984,585.03789 326.26383,595.47883 324.46482,606.03374 C 323.24847,613.65056 321.95355,621.51872 324.5358,628.99528 C 327.23948,633.22715 330.32716,635.00243 335.579,635.16033 C 342.42961,635.37668 358.63411,630.46146 339.75227,637.95403 C 343.21388,636.79232 344.65538,635.69505 345.01303,631.6085 C 345.34269,625.68403 345.05553,619.74932 344.96052,613.81752 C 344.79281,606.8539 344.57902,599.89139 344.44481,592.927 C 344.36466,586.50684 344.17866,580.03324 345.30454,573.68358 C 347.60383,563.42363 351.47156,559.44137 362.08739,555.0023 C 367.20302,553.63997 372.30321,553.41643 377.54238,554.42514 C 382.69578,555.2706 387.89998,556.23266 392.52898,558.77874 C 397.30076,561.99054 400.73376,565.80717 401.3426,571.7895 C 401.54844,577.00391 401.14999,582.23403 401.71696,587.43839 C 402.2756,591.45444 402.78969,595.60806 405.78062,598.56914 C 409.84495,600.31278 414.07241,601.06645 418.54959,601.26977 C 424.83708,601.84567 431.12846,602.40491 437.44023,602.63689 C 443.2599,602.82673 449.11399,602.99469 454.90227,602.22555 C 456.77268,601.91374 458.89007,601.20333 460.67977,601.56042 L 452.48005,614.56121 z "
         id="path7507"
         style="opacity:1;color:#000000;fill:#8d220b;fill-opacity:1;fill-rule:nonzero;stroke:none;stroke-width:80;stroke-linecap:butt;stroke-linejoin:miter;marker:none;marker-start:none;marker-mid:none;marker-end:none;stroke-miterlimit:4;stroke-dasharray:none;stroke-dashoffset:0;stroke-opacity:0.25465836;visibility:visible;display:inline;overflow:visible" />
      <path
         d="M 419.58074,602.09721 C 419.79925,603.99465 418.92361,605.88587 418.36523,607.71259 C 417.39858,611.95777 415.35295,615.43761 412.66183,618.75683 C 403.99641,625.25239 398.4373,625.55009 388.90484,625.55326 C 375.97953,628.29592 386.99559,624.5987 388.43893,623.77749 C 385.54322,626.48306 384.96495,629.93858 384.73476,633.65862 C 387.88331,637.51359 394.10344,637.5081 398.96584,638.09169 C 408.31821,638.83947 417.81696,639.51776 427.12601,638.07038 C 441.46828,628.98664 419.05453,650.27269 431.76894,633.78398 C 434.60841,629.12827 435.41196,623.72695 436.34115,618.44916 C 437.08479,608.80273 447.86336,604.63336 453.508,612.75469 C 455.58937,616.80837 457.88139,620.65979 460.71322,624.21296 C 465.70371,627.57798 473.83699,619.79691 457.17534,628.59923 C 460.71585,627.34013 462.18194,624.19657 463.81463,621.04177 C 465.85088,613.06927 473.46013,604.92888 481.4743,610.70089 C 484.28307,614.20492 486.03891,618.41725 488.05566,622.40468 C 489.2527,625.88795 491.55417,627.07214 493.92113,627.90995 C 487.998,624.37827 482.85396,637.43368 487.98998,627.72596 C 489.79513,623.01091 491.09691,618.12146 492.6324,613.31399 C 492.75767,612.9437 492.88294,612.57341 493.00821,612.20312 L 507.82291,610.82779 C 507.69534,611.18017 507.56777,611.53254 507.4402,611.88492 C 505.78396,616.71943 504.37079,621.62324 502.91523,626.52112 C 500.20236,634.13677 494.76292,642.95835 484.93372,640.08206 C 480.32823,637.64975 477.12399,634.11671 474.86718,629.35965 C 473.35549,626.42268 471.7998,622.78671 469.81783,620.46183 C 472.47198,619.61776 485.3841,611.41147 478.75174,620.05464 C 477.03961,624.44914 475.1115,628.78282 471.78563,632.22095 C 461.90989,637.51597 456.4597,641.1901 448.39368,632.6441 C 445.41357,628.78756 442.95128,624.63733 440.50907,620.42212 C 444.06975,619.02371 453.85537,613.44701 451.16868,616.17018 C 449.83556,622.03331 449.03165,628.07762 446.5772,633.61658 C 441.23407,643.63369 431.73824,650.09481 420.07386,650.87656 C 410.22622,651.4029 400.33755,650.95626 390.53977,649.86062 C 382.45966,648.66408 373.86319,647.36584 370.67876,638.83168 C 369.80279,633.06347 370.57688,627.71455 373.50244,622.54554 C 379.04838,614.61477 387.84199,612.57105 396.76287,612.88513 C 403.93016,612.55975 414.35525,607.74961 397.97157,615.43009 C 400.80456,614.00337 402.58169,612.74417 403.36825,609.31659 C 403.59521,608.53518 404.37713,604.5484 404.70375,605.96128 L 419.58074,602.09721 z "
         id="path7511"
         style="opacity:1;color:#000000;fill:#8d220b;fill-opacity:1;fill-rule:nonzero;stroke:none;stroke-width:80;stroke-linecap:butt;stroke-linejoin:miter;marker:none;marker-start:none;marker-mid:none;marker-end:none;stroke-miterlimit:4;stroke-dasharray:none;stroke-dashoffset:0;stroke-opacity:0.25465836;visibility:visible;display:inline;overflow:visible" />
    </g>
    <g
       id="g3709">
      <path
         id="path3694"
         d="M 287.14285,571.42859 C 260.32156,632.97307 230.15111,695.52357 229.68656,764.23144 C 221.13092,808.82694 248.2353,855.12841 289.42385,872.52413 C 333.26525,898.04868 385.51584,906.44187 435.1944,896.37997 C 470.49356,887.60994 516.77205,889.43871 533.84293,850.09796 C 568.29917,794.602 564.78629,726.91406 560.79764,664.43633 C 557.16931,628.42686 538.54014,593.96634 505.30005,577.45671 C 473.21218,553.12596 434.00735,539.63021 393.56631,541.48468 C 361.09544,537.73052 329.46832,544.70083 303.21226,564.5167 C 298.06046,567.25751 292.72625,569.70055 287.14285,571.42859 z "
         style="opacity:1;color:#000000;fill:#545454;fill-opacity:1;fill-rule:nonzero;stroke:none;stroke-width:80;stroke-linecap:butt;stroke-linejoin:miter;marker:none;marker-start:none;marker-mid:none;marker-end:none;stroke-miterlimit:4;stroke-dasharray:none;stroke-dashoffset:0;stroke-opacity:0.25465836;visibility:visible;display:inline;overflow:visible" />
      <path
         d="M 302.80468,570.0485 C 296.78952,576.7419 292.52805,585.78984 288.29592,593.88339 C 272.91135,623.79461 260.76791,655.23639 250.63247,687.27534 C 239.73731,721.3072 235.43583,757.21913 240.9978,792.6269 C 246.62561,828.43919 269.47981,853.69768 300.23716,870.90638 C 339.04363,891.29306 383.04745,895.62267 426.0667,890.84354 C 462.84232,888.55448 501.07659,866.47656 513.90863,855.14139 C 540.55487,830.43112 550.18441,795.11656 553.43103,760.04619 C 555.73121,724.02784 551.88714,687.87441 545.19935,652.49302 C 543.23399,642.10997 540.71532,631.8485 537.85064,621.68055 L 555.58592,613.17854 C 558.39046,623.68235 560.86451,634.27235 562.72115,644.98897 C 569.02872,681.28696 572.46983,718.24483 570.71285,755.09613 C 568.02373,791.89353 559.0626,829.38771 532.53385,856.59423 C 501.19207,886.69826 461.30604,902.77706 418.35069,906.77013 C 373.63037,910.62624 328.14439,905.49435 287.99313,884.20912 C 255.00702,865.60193 230.30037,838.12802 223.86282,799.7768 C 217.8148,763.18075 221.71999,725.77309 232.58916,690.41303 C 242.68385,658.18154 254.58989,626.5174 268.71032,595.82443 C 272.70999,587.18877 277.01377,578.65749 281.06965,570.07086 L 302.80468,570.0485 z "
         id="path2673"
         style="opacity:1;color:#000000;fill:#000000;fill-opacity:1;fill-rule:nonzero;stroke:none;stroke-width:80;stroke-linecap:butt;stroke-linejoin:miter;marker:none;marker-start:none;marker-mid:none;marker-end:none;stroke-miterlimit:4;stroke-dasharray:none;stroke-dashoffset:0;stroke-opacity:0.25465836;visibility:visible;display:inline;overflow:visible" />
    </g>
    <g
       id="g4706">
      <path
         id="path4618"
         d="M 301.42856,444.28571 C 268.57101,498.71718 249.10632,564.26253 260.66347,627.9009 C 287.78155,686.6061 348.52656,726.55451 412.33498,732.80116 C 517.94428,767.87989 647.88208,745.09276 721.76227,657.75585 C 800.46508,556.81731 793.30315,402.71793 711.3304,305.84495 C 687.49469,270.89705 655.4316,240.06309 615.62495,224.30824 C 522.66877,224.30442 440.91999,279.05112 374.91214,339.7151 C 343.97406,369.29785 316.82508,404.00105 301.42856,444.28571 z "
         style="opacity:1;color:#000000;fill:#f5f5f5;fill-opacity:1;fill-rule:nonzero;stroke:none;stroke-width:80;stroke-linecap:butt;stroke-linejoin:miter;marker:none;marker-start:none;marker-mid:none;marker-end:none;stroke-miterlimit:4;stroke-dasharray:none;stroke-dashoffset:0;stroke-opacity:0.25465836;visibility:visible;display:inline;overflow:visible" />
      <path
         d="M 310.51962,440.13761 C 310.87708,445.06483 306.92263,449.39403 304.41119,453.8761 C 292.36987,476.22927 284.26802,500.43506 277.68431,524.88166 C 268.73568,558.71356 264.91328,594.20305 274.48294,628.26544 C 289.17384,673.18193 330.62071,698.3641 371.93836,715.71517 C 424.49144,736.60882 481.28274,742.0137 537.13517,735.13413 C 571.25439,732.8864 611.40575,712.35055 617.5397,708.31229 C 629.40149,700.7195 638.10223,690.32019 644.17397,677.79984 C 644.97661,676.07979 645.49318,674.24944 646.15212,672.47603 L 666.91956,670.19015 C 666.28677,672.27503 665.73085,674.38586 664.92609,676.41552 C 659.05606,690.98196 649.75584,703.35971 636.77831,712.45934 C 604.9451,734.92978 567.06916,746.07347 528.67253,750.23011 C 471.68742,755.55961 414.12784,748.93533 360.73233,727.6678 C 316.8916,709.3337 273.45948,682.60099 257.48924,635.22098 C 247.08145,599.77793 250.4216,562.82613 259.20978,527.33984 C 265.42506,502.45238 273.22238,477.9163 283.82627,454.52403 C 284.69481,452.62481 288.98875,439.73322 289.48038,445.60224 L 310.51962,440.13761 z "
         id="path2571"
         style="opacity:1;color:#000000;fill:#000000;fill-opacity:1;fill-rule:nonzero;stroke:none;stroke-width:80;stroke-linecap:butt;stroke-linejoin:miter;marker:none;marker-start:none;marker-mid:none;marker-end:none;stroke-miterlimit:4;stroke-dasharray:none;stroke-dashoffset:0;stroke-opacity:0.25465836;visibility:visible;display:inline;overflow:visible" />
    </g>
    <g
       id="g3705">
      <path
         id="path3700"
         d="M 570,614.28571 C 525.57876,636.66278 508.33671,688.3888 499.92231,734.04835 C 498.4249,789.89828 510.13,851.84434 553.64374,890.674 C 603.06317,929.94383 670.48184,934.15848 730.75634,926.33278 C 761.03405,921.8095 793.80981,902.13814 797.78138,869.25686 C 794.59625,848.0781 785.46978,826.47067 797.31817,805.95747 C 815.14595,756.38416 852.75944,714.78664 861.45259,661.87737 C 865.46053,601.46269 863.44803,535.09053 825.8262,484.50955 C 817.6588,445.48958 777.89025,408.1662 736.18411,420.16741 C 706.777,430.69281 693.37149,461.50487 674.8559,484.20302 C 647.02192,523.79517 624.06363,567.8526 588.79838,601.48847 C 582.38015,605.4704 574.55155,607.85577 570,614.28571 z "
         style="opacity:1;color:#000000;fill:#545454;fill-opacity:1;fill-rule:nonzero;stroke:none;stroke-width:80;stroke-linecap:butt;stroke-linejoin:miter;marker:none;marker-start:none;marker-mid:none;marker-end:none;stroke-miterlimit:4;stroke-dasharray:none;stroke-dashoffset:0;stroke-opacity:0.25465836;visibility:visible;display:inline;overflow:visible" />
      <path
         d="M 594.1891,586.3358 C 607.9629,582.57362 608.6415,579.07865 594.017,589.70903 C 571.29109,606.61663 554.16215,629.22592 539.64187,653.28234 C 519.85681,686.47176 508.66651,723.76913 507.37521,762.34917 C 506.53658,800.21701 519.23231,835.87411 541.55131,866.12353 C 565.19666,896.85272 600.7063,911.45189 637.6559,918.90381 C 666.9041,924.29494 696.9003,924.57127 726.3279,920.54677 C 741.4698,918.4703 756.2343,914.38325 770.1992,908.19936 C 784.6,898.3971 756.8402,918.85326 776.3848,903.37598 C 781.4635,899.21996 784.3458,893.70667 786.9292,887.83951 C 789.4862,880.97967 789.1539,873.7324 788.8134,866.5524 C 788.362,858.72496 787.114,850.98446 785.6716,843.28896 C 784.1862,835.75643 782.2897,828.31627 780.522,820.84815 C 778.6132,813.3627 779.3271,806.20054 781.6953,798.98318 C 787.0506,788.64466 795.4004,780.17498 802.425,770.93785 C 818.3824,749.0587 829.7537,724.24225 839.4018,699.04874 C 853.1831,663.94871 856.6475,626.46152 853.403,589.13753 C 849.3059,548.16591 836.3688,508.76385 814.5516,473.86089 C 793.691,441.91074 764.4674,416.6533 732.0254,397.00511 C 714.853,386.53832 696.2385,379.06975 676.8386,374.00624 L 689.5131,358.65274 C 709.3866,364.55763 728.2351,373.38121 745.7879,384.41162 C 778.8021,405.46734 808.6313,431.9124 830.1067,464.92022 C 852.5375,501.00584 865.9456,541.61911 870.5582,583.8662 C 874.2749,622.27812 871.4332,661.05577 857.9938,697.50292 C 848.637,723.32646 837.4829,748.72213 822.4766,771.79983 C 816.2469,780.83708 809.5416,789.47901 802.8365,798.15416 C 800.3673,803.21909 798.9055,807.77164 800.2909,813.53966 C 801.9579,821.06183 803.8911,828.52606 805.389,836.08757 C 806.9892,844.21021 808.3697,852.38021 808.9683,860.64775 C 809.4871,868.99539 809.9997,877.45361 807.8937,885.64313 C 805.5712,893.0499 802.6095,900.19035 797.3097,906.02379 C 787.697,916.01193 775.7258,922.85097 762.5818,927.49184 C 747.7901,932.7914 732.434,936.27455 716.7718,937.75151 C 686.6331,940.66727 656.0961,939.45596 626.4137,933.28439 C 587.6571,924.58548 550.69446,908.23181 525.99687,875.81407 C 502.83415,843.86013 489.28058,806.4565 489.74331,766.67792 C 490.6422,726.74863 501.6826,688.07697 521.30601,653.26408 C 535.55408,628.38616 552.06015,604.70069 574.18489,586.13699 C 582.9497,578.79031 594.0521,567.05271 605.7853,567.94991 L 594.1891,586.3358 z "
         id="path2621"
         style="opacity:1;color:#000000;fill:#000000;fill-opacity:1;fill-rule:nonzero;stroke:none;stroke-width:80;stroke-linecap:butt;stroke-linejoin:miter;marker:none;marker-start:none;marker-mid:none;marker-end:none;stroke-miterlimit:4;stroke-dasharray:none;stroke-dashoffset:0;stroke-opacity:0.25465836;visibility:visible;display:inline;overflow:visible" />
    </g>
    <path
       id="path11197"
       d="M 697.73585,605.34434 C 701.73977,605.16527 708.99135,606.8944 714.35146,606.5585 C 720.52433,606.17166 726.91881,607.96813 732.88605,608.40416 C 738.30532,608.80019 744.3418,611.11064 749.51384,612.81268 C 756.87689,615.23575 765.82833,617.93525 773.17415,618.47204 C 778.03224,618.82703 783.84907,621.98499 788.52661,623.52429 C 794.37259,625.44812 797.16897,627.23942 801.32856,629.86411 C 805.61307,632.56762 805.74315,638.51957 807.45041,643.57662 C 808.91447,647.91329 807.91534,651.85819 806.22398,656.99779 C 804.52782,662.15198 802.1024,666.29081 800.52799,671.07501 C 798.93072,675.9287 794.3997,679.81571 791.30957,682.92959 C 786.91209,687.36092 784.74422,690.82817 781.13166,694.46843 C 776.77137,698.86227 772.85549,701.52561 769.0347,705.37572 C 766.983,707.44321 756.2666,706.65358 752.74712,706.39641 C 746.0249,705.90521 738.85595,702.88848 732.28121,700.72483 C 725.56447,698.51445 718.84781,696.30411 712.13107,694.09372 C 707.02447,692.41323 700.36114,692.0054 694.87174,691.60428 C 689.6415,691.22209 684.38306,689.21606 679.20352,687.51155 C 669.14089,684.2001 661.15887,661.00546 659.90276,652.44696 C 657.95746,639.19208 658.32438,629.32098 665.84123,618.2441 C 670.48389,611.40264 681.45741,609.20488 688.48078,607.61586 C 692.36754,606.73652 691.82397,605.71483 697.73585,605.34434 z "
       style="color:#000000;fill:#a46200;fill-opacity:1;fill-rule:nonzero;stroke:none;stroke-width:80;stroke-linecap:butt;stroke-linejoin:miter;marker:none;marker-start:none;marker-mid:none;marker-end:none;stroke-miterlimit:4;stroke-dasharray:none;stroke-dashoffset:0;stroke-opacity:0.25465836;visibility:visible;display:inline;overflow:visible" />
    <path
       sodipodi:nodetypes="ccccccccccc"
       id="path11182"
       d="M 610.10286,577.56908 C 636.76986,585.88551 660.8955,603.48143 689.62248,604.23005 C 703.73203,607.58336 708.97557,624.38069 706.4057,637.2507 C 703.77659,679.31513 698.03195,723.12207 685.44514,763.09558 C 681.27306,776.15923 671.82887,786.4253 667.87469,799.51267 C 657.80429,821.64571 629.90899,832.09057 607.28343,824.35249 C 584.28241,819.43289 561.85929,811.46034 540.75447,801.19236 C 514.45657,782.24868 506.43553,745.16912 516.72733,715.37594 C 526.72356,679.15002 550.17433,648.90149 573.41028,620.17238 C 582.69444,607.21589 587.68339,590.69049 600.58539,580.65654 C 603.4495,578.89104 606.73002,577.74601 610.10286,577.56908 z "
       style="color:#000000;fill:#3b3b3b;fill-opacity:1;fill-rule:nonzero;stroke:none;stroke-width:80;stroke-linecap:butt;stroke-linejoin:miter;marker:none;marker-start:none;marker-mid:none;marker-end:none;stroke-miterlimit:4;stroke-dasharray:none;stroke-dashoffset:0;stroke-opacity:0.25465836;visibility:visible;display:inline;overflow:visible" />
    <path
       sodipodi:nodetypes="ccccccccccccc"
       id="path10301"
       d="M 597.02186,581.7719 C 568.60778,575.71249 540.62623,566.71936 514.33575,554.38348 C 482.06531,537.55227 447.32589,525.09014 415.17333,508.03956 C 399.71357,501.25511 387.52516,486.99605 370.81964,483.92834 C 354.20998,481.09465 347.56669,497.58403 344.53787,510.61575 C 333.79068,542.85741 320.98597,574.64065 313.92184,607.94374 C 311.80065,624.55956 310.23442,641.39532 305.1742,657.44693 C 306.10727,672.67404 325.08448,671.45071 335.3728,666.79694 C 355.81214,658.72395 378.21177,657.14544 399.88036,654.44351 C 433.45435,653.45023 467.10124,652.28913 500.59941,655.51864 C 525.01686,656.66639 549.88682,658.91836 572.67791,668.25873 C 588.46077,669.58044 596.70156,653.30173 602.5804,641.29208 C 610.43682,621.28203 595.39354,601.92499 597.02186,581.7719 z "
       style="color:#000000;fill:#aeaeae;fill-opacity:1;fill-rule:nonzero;stroke:none;stroke-width:80;stroke-linecap:butt;stroke-linejoin:miter;marker:none;marker-start:none;marker-mid:none;marker-end:none;stroke-miterlimit:4;stroke-dasharray:none;stroke-dashoffset:0;stroke-opacity:0.25465836;visibility:visible;display:inline;overflow:visible" />
    <path
       style="color:#000000;fill:url(#linearGradient13880);fill-opacity:1;fill-rule:nonzero;stroke:none;stroke-width:80;stroke-linecap:butt;stroke-linejoin:miter;marker:none;marker-start:none;marker-mid:none;marker-end:none;stroke-miterlimit:4;stroke-dasharray:none;stroke-dashoffset:0;stroke-opacity:0.25465836;visibility:visible;display:inline;overflow:visible"
       d="M 597.02186,581.7719 C 568.60778,575.71249 540.62623,566.71936 514.33575,554.38348 C 482.06531,537.55227 447.32589,525.09014 415.17333,508.03956 C 399.71357,501.25511 387.52516,486.99605 370.81964,483.92834 C 354.20998,481.09465 347.56669,497.58403 344.53787,510.61575 C 333.79068,542.85741 320.98597,574.64065 313.92184,607.94374 C 311.80065,624.55956 310.23442,641.39532 305.1742,657.44693 C 306.10727,672.67404 325.08448,671.45071 335.3728,666.79694 C 355.81214,658.72395 378.21177,657.14544 399.88036,654.44351 C 433.45435,653.45023 467.10124,652.28913 500.59941,655.51864 C 525.01686,656.66639 549.88682,658.91836 572.67791,668.25873 C 588.46077,669.58044 596.70156,653.30173 602.5804,641.29208 C 610.43682,621.28203 595.39354,601.92499 597.02186,581.7719 z "
       id="path12999"
       sodipodi:nodetypes="ccccccccccccc" />
    <path
       style="opacity:1;color:#000000;fill:#494949;fill-opacity:1;fill-rule:nonzero;stroke:none;stroke-width:80;stroke-linecap:butt;stroke-linejoin:miter;marker:none;marker-start:none;marker-mid:none;marker-end:none;stroke-miterlimit:4;stroke-dasharray:none;stroke-dashoffset:0;stroke-opacity:0.25465836;visibility:visible;display:inline;overflow:visible"
       d="M 374.34915,492.5421 C 372.07578,483.78942 358.42075,482.00427 353.69716,489.57381 C 340.88774,500.66439 337.81363,518.28615 335.22868,534.15611 C 329.71387,565.51735 312.37921,595.79113 311.78067,628.30581 C 311.73006,641.06148 311.39885,649.26668 314.99165,661.30676 C 321.56305,668.7809 335.46921,663.93124 336.99243,654.41477 C 344.04312,639.64394 344.17348,622.49183 352.18526,608.0917 C 359.83519,585.26159 364.39916,561.5126 372.08656,538.70378 C 375.08923,523.47447 372.23787,507.84981 374.34915,492.5421 z "
       id="path13896"
       sodipodi:nodetypes="ccccccccc" />
    <path
       sodipodi:nodetypes="ccccccccc"
       id="path14823"
       d="M 374.34915,492.5421 C 372.07578,483.78942 358.42075,482.00427 353.69716,489.57381 C 340.88774,500.66439 337.81363,518.28615 335.22868,534.15611 C 329.71387,565.51735 312.37921,595.79113 311.78067,628.30581 C 311.73006,641.06148 311.39885,649.26668 314.99165,661.30676 C 321.56305,668.7809 335.46921,663.93124 336.99243,654.41477 C 344.04312,639.64394 344.17348,622.49183 352.18526,608.0917 C 359.83519,585.26159 364.39916,561.5126 372.08656,538.70378 C 375.08923,523.47447 372.23787,507.84981 374.34915,492.5421 z "
       style="opacity:1;color:#000000;fill:url(#linearGradient15704);fill-opacity:1;fill-rule:nonzero;stroke:none;stroke-width:80;stroke-linecap:butt;stroke-linejoin:miter;marker:none;marker-start:none;marker-mid:none;marker-end:none;stroke-miterlimit:4;stroke-dasharray:none;stroke-dashoffset:0;stroke-opacity:0.25465836;visibility:visible;display:inline;overflow:visible" />
    <path
       style="color:#000000;fill:#030000;fill-opacity:1;fill-rule:nonzero;stroke:none;stroke-width:80;stroke-linecap:butt;stroke-linejoin:miter;marker:none;marker-start:none;marker-mid:none;marker-end:none;stroke-miterlimit:4;stroke-dasharray:none;stroke-dashoffset:0;stroke-opacity:0.25465836;visibility:visible;display:inline;overflow:visible"
       id="path10201"
       d="M 357.14652,616.91334 C 359.19155,611.11172 364.30834,595.05038 366.69855,586.31174 C 373.24251,558.95986 380.26224,530.47411 380.53286,503.41096 C 380.24434,478.70846 366.32493,467.0565 350.53668,489.04851 C 334.97794,514.08982 326.74242,544.74723 319.40247,573.67085 C 313.66335,597.72675 307.968,622.13687 305.83931,646.22541 C 304.45863,660.87156 306.75699,678.3336 319.07511,678.08976 C 325.84925,676.61637 331.6002,670.19157 336.75214,663.12821 C 342.11033,655.38563 346.21607,646.49743 349.71452,637.34713 C 352.71344,629.09412 355.08398,620.63216 357.54977,612.217 L 347.51619,604.52034 C 345.1735,612.6692 342.9745,620.87543 340.14129,628.88368 C 337.11186,637.02177 333.58692,644.98739 328.85045,651.87626 C 325.28846,656.75093 321.35939,661.74196 316.73055,661.51477 C 314.08487,658.36817 312.16943,654.11262 320.06548,667.18152 C 320.87999,668.52963 313.24784,652.18532 316.52995,651.14744 C 317.41746,627.71531 322.93867,603.51252 328.21435,579.89109 C 334.91487,552.50654 342.69919,523.10977 357.80863,499.74854 C 366.64063,488.21568 371.32996,497.95569 365.13801,486.82956 C 363.05849,483.09281 373.70911,499.55802 369.9121,499.56706 C 371.42762,525.03318 364.12186,553.26904 357.55169,579.38995 C 354.64211,589.24036 351.46975,599.33808 346.77033,608.36426 L 357.14652,616.91334 z " />
    <path
       style="color:#000000;fill:#030000;fill-opacity:1;fill-rule:nonzero;stroke:none;stroke-width:80;stroke-linecap:butt;stroke-linejoin:miter;marker:none;marker-start:none;marker-mid:none;marker-end:none;stroke-miterlimit:4;stroke-dasharray:none;stroke-dashoffset:0;stroke-opacity:0.25465836;visibility:visible;display:inline;overflow:visible"
       id="path10235"
       d="M 375.03566,496.87092 C 375.99411,499.56954 385.81013,504.54212 389.62891,506.71169 C 417.3071,521.60817 446.32623,533.16664 475.30084,544.67874 C 515.91547,560.52963 556.95657,575.17068 598.11901,589.43593 L 597.11578,577.05485 C 555.69332,564.31165 514.67377,550.24655 474.60543,533.53952 C 445.46855,521.19551 416.31342,508.52117 389.33595,490.8965 C 384.14224,487.259 378.80501,481.92032 373.60543,479.12088 L 375.03566,496.87092 z " />
    <path
       style="color:#000000;fill:#030000;fill-opacity:1;fill-rule:nonzero;stroke:none;stroke-width:80;stroke-linecap:butt;stroke-linejoin:miter;marker:none;marker-start:none;marker-mid:none;marker-end:none;stroke-miterlimit:4;stroke-dasharray:none;stroke-dashoffset:0;stroke-opacity:0.25465836;visibility:visible;display:inline;overflow:visible"
       id="path10239"
       d="M 321.62258,677.32644 C 326.90238,674.60942 332.32101,673.5695 337.61553,672.36344 C 364.76458,666.59293 391.63741,664.10294 418.23521,663.1451 C 451.13762,662.30386 483.57995,664.16168 515.68226,667.42867 C 533.83299,669.4097 551.92861,671.71812 569.62713,675.51734 C 571.84679,675.98494 574.03667,676.55617 576.23551,677.0957 L 574.52281,661.04343 C 572.29071,660.63217 570.06598,660.19212 567.81684,659.84609 C 550.0092,657.04227 531.92854,655.37265 513.77897,654.06949 C 481.47069,651.85227 448.95424,650.57222 416.12102,651.14466 C 389.07305,651.86514 361.81325,653.93537 334.34349,657.82946 C 330.6549,658.36895 320.56083,660.57893 320.19226,659.57637 L 321.62258,677.32644 z " />
    <path
       style="color:#000000;fill:#030000;fill-opacity:1;fill-rule:nonzero;stroke:none;stroke-width:80;stroke-linecap:butt;stroke-linejoin:miter;marker:none;marker-start:none;marker-mid:none;marker-end:none;stroke-miterlimit:4;stroke-dasharray:none;stroke-dashoffset:0;stroke-opacity:0.25465836;visibility:visible;display:inline;overflow:visible"
       id="path10245"
       d="M 573.53751,678.55319 C 575.63358,677.96767 577.72521,676.89785 579.81673,675.7913 C 585.80359,672.58667 591.27261,667.72425 596.24797,661.54107 C 602.81569,652.52264 606.35766,641.70486 608.42465,630.48356 C 610.1164,619.73421 609.37918,609.62356 607.76724,600.05542 C 606.90766,594.99582 605.37351,590.46903 603.67526,586.0878 L 590.89492,585.94092 C 592.80954,589.57669 594.57805,593.35769 595.63107,597.81893 C 597.59522,606.03592 598.77122,614.84876 597.74953,624.42985 C 596.4608,633.55338 594.02892,642.50948 588.65595,649.93256 C 584.51334,654.998 579.87928,658.74733 574.88743,660.91214 C 574.20227,661.06769 571.06902,662.13786 572.10728,660.80315 L 573.53751,678.55319 z " />
    <path
       style="color:#000000;fill:#030000;fill-opacity:1;fill-rule:nonzero;stroke:none;stroke-width:80;stroke-linecap:butt;stroke-linejoin:miter;marker:none;marker-start:none;marker-mid:none;marker-end:none;stroke-miterlimit:4;stroke-dasharray:none;stroke-dashoffset:0;stroke-opacity:0.25465836;visibility:visible;display:inline;overflow:visible"
       id="path10253"
       d="M 601.55928,593.30531 C 601.06648,593.33442 602.70851,590.84735 603.18584,589.9999 C 608.9676,583.59342 615.97956,586.94035 621.0918,589.40572 C 636.16351,598.64417 641.21841,613.75808 640.96916,648.18864 C 639.30516,690.43496 623.98122,733.49444 599.46316,767.13588 C 581.9766,790.28561 560.08832,804.87388 541.40862,793.23834 C 531.31161,783.54113 527.70133,780.10235 524.51603,752.01146 C 523.00436,737.23002 523.95409,721.51267 526.86351,705.69494 C 528.70052,696.00806 532.0743,686.73847 536.39709,677.95849 C 537.89476,674.89309 539.74328,672.18358 541.57832,669.46635 L 533.56082,658.11205 C 531.38838,661.31325 529.27845,664.59288 527.48431,668.17783 C 522.65587,677.99849 518.71628,688.34218 516.551,699.17599 C 513.32597,716.13348 512.2024,732.97638 513.57923,748.93919 C 516.03319,775.15188 524.64292,798.51397 541.97783,808.68305 C 563.32503,818.50821 586.99637,801.76728 605.79628,776.26486 C 631.04144,740.77832 647.23504,696.26874 650.13859,651.97175 C 651.46404,617.00225 643.60067,584.77992 620.20962,573.57354 C 612.49706,570.4326 603.03323,568.26515 595.06298,578.45453 C 593.69518,580.47716 592.29419,582.46752 591.18044,584.75404 L 601.55928,593.30531 z " />
    <path
       style="color:#000000;fill:#030000;fill-opacity:1;fill-rule:nonzero;stroke:none;stroke-width:80;stroke-linecap:butt;stroke-linejoin:miter;marker:none;marker-start:none;marker-mid:none;marker-end:none;stroke-miterlimit:4;stroke-dasharray:none;stroke-dashoffset:0;stroke-opacity:0.25465836;visibility:visible;display:inline;overflow:visible"
       id="path10261"
       d="M 612.18961,588.33843 C 616.09928,588.43424 619.88188,589.34424 623.64545,590.10379 C 637.59615,593.16083 651.15398,597.56335 664.67681,602.00888 C 675.85112,605.62527 686.8897,609.64551 697.87721,613.81003 C 699.48369,614.39554 701.06538,615.0503 702.65557,615.68148 L 701.47869,598.98757 C 699.87579,598.44016 698.27146,597.89642 696.67112,597.34117 C 685.63799,593.57151 674.54778,589.97626 663.40267,586.54849 C 649.64327,582.23419 635.90194,577.85568 622.00799,573.96652 C 618.27937,572.94819 614.18901,572.20051 610.75978,570.59292 L 612.18961,588.33843 z " />
    <path
       style="color:#000000;fill:#030000;fill-opacity:1;fill-rule:nonzero;stroke:none;stroke-width:80;stroke-linecap:butt;stroke-linejoin:miter;marker:none;marker-start:none;marker-mid:none;marker-end:none;stroke-miterlimit:4;stroke-dasharray:none;stroke-dashoffset:0;stroke-opacity:0.25465836;visibility:visible;display:inline;overflow:visible"
       id="path10265"
       d="M 552.22695,813.63165 C 555.05574,813.86731 557.78026,814.56378 560.51267,815.18895 C 573.03703,818.26251 585.35337,822.02896 597.63386,825.89057 C 608.19438,829.07364 618.53466,832.94704 629.1635,835.91225 C 636.98536,838.53904 644.34747,835.70381 652.2616,828.79025 C 666.50919,814.10215 677.08236,793.6058 685.85687,773.0731 C 698.16808,742.70214 706.21254,710.36962 709.79835,678.57075 C 712.37753,652.61264 711.63363,627.32425 708.44664,603.4382 C 707.73225,598.64569 708.10053,600.99435 707.34495,596.39035 L 695.92643,594.02402 C 696.84678,598.45397 696.39531,596.19525 697.27788,600.80205 C 701.20833,623.73192 702.43629,648.33856 700.29417,673.70529 C 697.26413,704.40173 689.7831,735.76399 677.71874,765.0918 C 669.51969,784.00257 659.55013,803.11159 646.03131,815.98378 C 639.45033,821.067 633.78455,821.63593 627.58941,819.50371 C 617.08379,816.68266 606.7374,813.34382 596.30043,810.30102 C 583.83346,806.54794 571.39074,802.71927 558.98811,798.76524 C 556.2349,797.88626 553.38515,797.19827 550.79673,795.88157 L 552.22695,813.63165 z " />
    <path
       style="color:#000000;fill:#030000;fill-opacity:1;fill-rule:nonzero;stroke:none;stroke-width:80;stroke-linecap:butt;stroke-linejoin:miter;marker:none;marker-start:none;marker-mid:none;marker-end:none;stroke-miterlimit:4;stroke-dasharray:none;stroke-dashoffset:0;stroke-opacity:0.25465836;visibility:visible;display:inline;overflow:visible"
       id="path10267"
       d="M 540.50184,666.0659 C 537.61289,667.5716 535.51704,670.73647 533.38133,674.08775 C 529.76182,680.1241 527.71711,686.74307 526.97052,693.69387 C 526.53006,708.54094 536.77749,714.18085 546.02311,715.32258 C 553.13864,715.79491 560.17698,712.57054 566.77111,706.03877 C 571.97249,700.43591 574.52848,693.59697 575.37467,685.70273 C 575.12866,674.4062 568.53182,667.87586 561.33098,665.34918 C 556.50514,663.917 551.60073,665.56335 546.49353,668.54697 C 542.54501,671.15275 539.20297,675.08905 536.00761,679.36688 L 544.18184,690.61956 C 546.54816,687.49461 548.91971,684.51661 551.91787,682.87128 C 555.71289,681.144 559.17145,680.75967 562.40823,682.60717 C 572.52852,689.90826 556.44122,674.0686 563.39767,681.91249 C 563.89409,686.45179 563.16742,689.74285 559.80845,693.47946 C 554.60653,698.202 549.34439,700.087 544.01497,698.89615 C 540.98984,698.01334 533.92672,690.79233 535.90896,693.72425 C 545.45275,707.8406 540.63819,701.74924 538.60208,698.26734 C 538.55653,693.51024 539.26879,689.36631 541.93388,684.97197 C 545.60599,679.7147 543.1417,684.42881 541.93206,683.81595 L 540.50184,666.0659 z " />
    <path
       style="color:#000000;fill:#030000;fill-opacity:1;fill-rule:nonzero;stroke:none;stroke-width:80;stroke-linecap:butt;stroke-linejoin:miter;marker:none;marker-start:none;marker-mid:none;marker-end:none;stroke-miterlimit:4;stroke-dasharray:none;stroke-dashoffset:0;stroke-opacity:0.25465836;visibility:visible;display:inline;overflow:visible"
       id="path10269"
       d="M 534.86616,715.04633 C 537.17652,711.26674 532.85984,718.56681 532.35807,719.43574 C 528.3112,726.38685 527.30973,733.71452 527.34168,741.2401 C 528.07074,753.42841 531.53588,766.15648 540.48093,769.0926 C 547.87694,769.47816 555.19456,764.09158 561.97511,757.78768 C 568.11411,751.81262 573.06674,744.48733 575.71984,735.16646 C 578.44309,722.49064 572.02512,713.5763 564.25758,710.94632 C 558.91825,709.61764 553.17101,711.86155 547.57931,715.12867 C 542.35517,718.23446 538.13884,723.14096 534.5414,729.41224 L 543.7308,739.25733 C 546.16796,734.65605 549.08868,731.51635 552.87177,729.47723 C 557.21029,727.36232 561.43362,725.89337 565.13221,728.26565 C 572.68089,735.40816 559.39357,715.94088 564.96841,728.46013 C 563.49861,735.52148 560.13703,740.59941 555.38965,745.06427 C 550.48308,749.51216 544.60873,754.34967 539.74054,751.80043 C 537.79142,748.58266 534.47119,742.65691 543.30975,757.38515 C 545.37138,760.8206 535.5115,744.86144 539.07598,745.04394 C 538.70276,739.95044 538.35662,735.05429 541.14629,729.97335 C 542.46865,727.78141 543.85382,725.70247 545.245,723.5976 L 534.86616,715.04633 z " />
    <path
       style="color:#000000;fill:#030000;fill-opacity:1;fill-rule:nonzero;stroke:none;stroke-width:80;stroke-linecap:butt;stroke-linejoin:miter;marker:none;marker-start:none;marker-mid:none;marker-end:none;stroke-miterlimit:4;stroke-dasharray:none;stroke-dashoffset:0;stroke-opacity:0.25465836;visibility:visible;display:inline;overflow:visible"
       id="path10271"
       d="M 560.60604,759.33016 C 559.55043,762.2208 559.42287,765.49015 559.19671,768.48325 C 558.72556,779.50856 562.86149,787.6381 569.5379,791.90869 C 574.99973,793.89714 580.35926,790.99739 585.70812,785.78898 C 591.79574,779.24007 595.53794,770.70892 597.72254,761.33662 C 600.79223,746.14769 597.09908,739.28565 590.83175,729.67526 C 586.50013,726.1891 581.34526,726.82395 575.90305,729.91673 C 570.83531,733.17615 566.82463,738.58251 563.1958,744.54867 C 559.94062,750.19579 558.55272,756.03901 558.20047,762.30628 C 558.13988,762.33778 558.30887,764.63817 558.30936,764.64912 L 570.60712,767.47427 C 570.60689,767.47338 570.16721,766.12671 570.20895,766.08689 C 569.69476,762.19116 569.88479,758.9243 571.99024,754.91766 C 574.53387,750.47049 577.31717,746.58135 581.08119,744.48824 C 584.66445,743.49463 587.48901,743.78219 589.32403,747.71138 C 579.65668,732.59523 589.00614,744.25273 587.06218,754.80204 C 585.9092,761.88315 583.51246,768.13323 578.87416,773.04683 C 575.3452,775.98455 572.43073,777.19576 569.69476,774.13545 C 571.03396,776.1659 572.4343,778.11905 573.71237,780.22681 C 574.94014,782.25166 568.72198,773.65026 570.90728,773.19541 C 570.9284,771.88358 571.36613,766.88157 570.98222,767.87925 L 560.60604,759.33016 z " />
    <path
       style="color:#000000;fill:#030000;fill-opacity:1;fill-rule:nonzero;stroke:none;stroke-width:80;stroke-linecap:butt;stroke-linejoin:miter;marker:none;marker-start:none;marker-mid:none;marker-end:none;stroke-miterlimit:4;stroke-dasharray:none;stroke-dashoffset:0;stroke-opacity:0.25465836;visibility:visible;display:inline;overflow:visible"
       id="path10277"
       d="M 583.3534,728.76508 C 581.56577,732.48604 582.40777,733.65048 583.30593,736.62927 C 587.85849,746.21292 592.40762,748.48406 600.59762,749.84725 C 606.43484,750.77435 612.24583,748.17966 617.89951,743.21678 C 623.82316,737.42171 626.93795,729.50153 628.33565,720.71549 C 629.95039,706.72632 625.20171,700.0269 619.30769,691.47252 C 614.45824,687.88198 608.72397,691.00974 603.428,695.88981 C 598.42034,700.96414 594.83773,707.69231 592.19171,715.06971 C 590.27838,720.67135 589.78752,726.14227 589.81194,731.62508 L 601.94541,734.90882 C 601.3614,731.11845 601.10517,727.4219 602.28539,723.13112 C 604.01361,717.6066 606.29579,712.61735 610.08815,708.91408 C 613.61428,706.15675 616.01886,705.5039 618.02335,709.47382 C 607.57812,693.89824 617.71821,706.31811 617.1726,715.16655 C 616.72148,721.04834 615.54825,726.09753 611.37477,730.09545 C 606.99356,733.39705 602.97052,734.42822 598.76147,733.07381 C 593.35159,731.249 584.96583,721.23382 596.51281,736.02167 C 595.04797,734.30866 595.12992,733.18502 593.73225,737.31635 L 583.3534,728.76508 z " />
    <path
       style="color:#000000;fill:#030000;fill-opacity:1;fill-rule:nonzero;stroke:none;stroke-width:80;stroke-linecap:butt;stroke-linejoin:miter;marker:none;marker-start:none;marker-mid:none;marker-end:none;stroke-miterlimit:4;stroke-dasharray:none;stroke-dashoffset:0;stroke-opacity:0.25465836;visibility:visible;display:inline;overflow:visible"
       id="path10279"
       d="M 604.56016,650.7128 C 603.2107,653.59011 603.79258,655.40711 604.11036,658.8744 C 604.49443,665.22985 605.24786,671.3715 606.40391,677.29956 C 608.86656,687.48777 614.26042,694.58528 622.33061,695.16538 C 627.9111,694.38952 632.34396,689.86697 635.85681,683.08112 C 639.39705,674.64224 639.67939,665.95271 639.07157,657.77261 C 637.7728,646.56025 633.51056,636.56022 625.9469,632.47252 C 621.14828,630.60156 616.19514,632.79682 611.19987,636.53793 C 606.5827,640.51079 603.6294,645.98885 601.42746,652.47039 C 601.32259,652.8716 601.21772,653.2728 601.11275,653.67399 L 611.90905,660.60646 C 611.93615,660.36092 611.96327,660.11536 611.99039,659.86982 C 613.08433,655.72474 614.30035,652.59553 617.39742,650.18162 C 620.74244,648.26512 623.48173,647.55133 626.04632,650.11644 C 631.55907,657.64669 618.93329,635.64193 627.09266,654.76333 C 628.10607,660.65175 628.46525,666.99937 626.52877,673.62117 C 624.63227,677.24267 623.03922,679.06013 620.1113,678.37293 C 609.64825,671.37157 625.42604,684.25307 618.91085,678.80897 C 617.24899,673.87882 616.3333,668.45933 616.11922,662.5995 C 616.03803,661.13665 616.17174,654.01136 614.93901,659.26406 L 604.56016,650.7128 z " />
    <path
       style="color:#000000;fill:#030000;fill-opacity:1;fill-rule:nonzero;stroke:none;stroke-width:80;stroke-linecap:butt;stroke-linejoin:miter;marker:none;marker-start:none;marker-mid:none;marker-end:none;stroke-miterlimit:4;stroke-dasharray:none;stroke-dashoffset:0;stroke-opacity:0.25465836;visibility:visible;display:inline;overflow:visible"
       id="path10281"
       d="M 606.00879,641.1293 C 607.21518,641.59021 608.56012,641.2692 609.87926,641.14464 C 613.76592,640.48727 617.20783,637.78687 620.60815,634.34943 C 625.17358,628.72602 626.77813,621.92473 627.64076,614.70928 C 628.40272,602.09744 624.15072,597.20838 618.60604,589.06146 C 614.78424,586.23149 610.67034,587.48246 606.12347,590.43364 C 604.90516,591.29084 603.83164,592.53884 602.7074,593.64187 L 609.81096,606.37287 C 610.48967,605.79513 611.11285,604.98528 611.86198,604.62702 C 614.47208,603.9546 616.03768,604.29453 617.40714,607.17068 C 608.04312,592.93479 615.57648,601.46938 616.13106,609.81541 C 616.10722,614.00888 615.88557,618.09739 613.36645,621.78262 C 611.1813,623.53841 609.28332,624.97147 606.98513,624.51439 C 606.18425,624.13386 605.38927,623.74306 604.57857,623.37925 L 606.00879,641.1293 z " />
    <path
       style="color:#000000;fill:#030000;fill-opacity:1;fill-rule:nonzero;stroke:none;stroke-width:80;stroke-linecap:butt;stroke-linejoin:miter;marker:none;marker-start:none;marker-mid:none;marker-end:none;stroke-miterlimit:4;stroke-dasharray:none;stroke-dashoffset:0;stroke-opacity:0.25465836;visibility:visible;display:inline;overflow:visible"
       id="path10283"
       d="M 694.9132,690.97925 C 698.78125,700.95414 700.12568,700.76937 706.63818,702.22066 C 711.24897,703.2305 715.95879,703.86743 720.67003,704.48313 C 725.6805,705.09161 730.63345,705.93157 735.55143,706.90496 C 739.88019,707.89592 744.09006,709.27534 748.22282,710.87339 C 751.82397,712.24197 755.26894,714.02826 758.93182,715.20829 C 764.54566,716.51535 770.38229,712.72055 776.01868,708.79649 C 785.46242,701.95667 794.08495,692.80408 801.98663,682.45262 C 810.84929,670.49226 814.22686,657.30673 813.16304,643.15514 C 809.45066,624.21851 796.44813,615.52524 783.45553,610.48995 C 771.00836,606.04776 757.84962,603.86447 744.69556,601.89346 C 734.19256,600.35011 723.55283,599.39343 712.95199,598.27314 C 708.1965,597.80693 703.49747,597.10202 698.79411,596.41635 L 700.9317,612.93407 C 705.66561,613.49876 710.42199,613.96255 715.20646,614.29905 C 725.73129,615.09756 736.27176,615.84499 746.63272,617.37561 C 759.52574,619.28889 772.44583,621.46004 784.40242,626.52633 C 800.74298,634.16758 798.36018,635.29105 801.43215,640.53325 C 803.56302,651.31314 801.62329,661.55303 794.44313,671.41389 C 787.21445,680.97529 779.22158,689.27882 770.43548,695.12094 C 765.8943,697.91564 761.67997,700.17204 757.5961,697.97371 C 754.11502,696.4005 750.58899,694.94664 746.99389,693.6873 C 742.62314,692.25163 738.20419,690.94355 733.64457,690.13941 C 728.64053,689.27876 723.59923,688.57069 718.54671,687.90539 C 713.99078,687.22436 709.42832,686.51582 705.08122,685.0873 C 698.48266,682.26702 701.81228,680.31028 707.86138,692.73673 L 694.9132,690.97925 z " />
    <g
       id="g3669">
      <path
         id="path3658"
         d="M 617.14286,211.42857 C 684.94174,327.1031 618.58229,459.41703 565.06378,560.63538 C 540.48692,676.10136 711.85657,737.86436 762.69962,629.93041 C 831.68237,513.21471 769.68449,369.80279 698.52902,269.55704 C 681.19309,246.88626 645.29303,218.6955 617.14286,211.42857 z "
         style="opacity:1;color:#000000;fill:#545454;fill-opacity:1;fill-rule:nonzero;stroke:none;stroke-width:80;stroke-linecap:butt;stroke-linejoin:miter;marker:none;marker-start:none;marker-mid:none;marker-end:none;stroke-miterlimit:4;stroke-dasharray:none;stroke-dashoffset:0;stroke-opacity:0.25465836;visibility:visible;display:inline;overflow:visible"
         sodipodi:nodetypes="ccccc" />
      <path
         d="M 629.98505,203.98163 C 638.09057,209.57641 646.20033,215.1127 653.77532,221.34383 C 683.00816,246.30073 705.78583,276.88053 725.65806,308.48721 C 754.4799,355.86634 772.49798,408.1303 784.01773,461.19774 C 792.13286,505.6232 798.40353,551.6956 789.84767,596.47581 C 783.21594,628.60918 763.15273,655.40164 733.06487,672.55381 C 700.23964,691.26652 664.27136,693.47429 627.25625,686.40317 C 599.28295,681.4868 578.03146,666.23521 565.7253,642.78957 C 554.98413,618.96977 556.66262,592.46599 560.66453,567.47044 C 564.07413,547.93278 570.49287,528.93235 579.18292,510.8534 C 584.89565,499.21632 591.98557,488.22014 598.61192,477.01649 C 601.80362,472.11204 603.89273,466.96117 605.01156,461.39042 L 626.78416,456.97637 C 626.2506,463.9856 624.47365,470.53067 620.57019,476.66286 C 613.96608,487.81526 606.64194,498.60272 600.45928,509.96584 C 591.33127,527.16261 584.3595,545.31617 580.58455,564.17036 C 576.24981,587.32369 573.98258,612.08567 583.83584,634.33552 C 594.86024,655.43545 614.40463,667.83843 639.37529,671.98477 C 656.13817,674.99184 673.16651,676.34923 690.12684,673.77123 C 700.74986,672.15651 727.44761,656.78954 720.85869,664.62249 C 719.2769,666.50293 716.36149,666.96774 714.11288,668.14037 C 743.55415,653.59108 763.9749,629.43454 771.40913,599.25246 C 781.51481,555.51673 776.34298,509.97374 768.77938,466.26286 C 757.8942,413.88355 739.9808,362.42954 710.73792,316.14989 C 690.85468,285.5513 667.80817,255.96545 637.62867,233.21501 C 633.65136,230.37788 616.55121,218.50619 617.54749,222.12065 L 629.98505,203.98163 z "
         id="path2509"
         style="opacity:1;color:#000000;fill:#000000;fill-opacity:1;fill-rule:nonzero;stroke:none;stroke-width:80;stroke-linecap:butt;stroke-linejoin:miter;marker:none;marker-start:none;marker-mid:none;marker-end:none;stroke-miterlimit:4;stroke-dasharray:none;stroke-dashoffset:0;stroke-opacity:0.25465836;visibility:visible;display:inline;overflow:visible" />
    </g>
    <g
       id="g4596">
      <g
         id="g3570">
        <path
           style="opacity:1;color:#000000;fill:#545454;fill-opacity:1;fill-rule:nonzero;stroke:none;stroke-width:80;stroke-linecap:butt;stroke-linejoin:miter;marker:none;marker-start:none;marker-mid:none;marker-end:none;stroke-miterlimit:4;stroke-dasharray:none;stroke-dashoffset:0;stroke-opacity:0.25465836;visibility:visible;display:inline;overflow:visible"
           d="M 328.57144,144.28571 C 312.64917,138.10031 299.47887,127.11541 285.52143,117.88511 C 274.27231,112.6462 254.80867,109.83847 249.65947,124.59218 C 245.0848,144.3755 237.40199,165.20229 244.7226,185.39409 C 250.08688,195.65202 251.13505,218.45574 267.95148,213.27267 C 284.16303,205.49234 286.98461,184.52813 301.54714,174.5958 C 310.8876,165.36593 333.24254,164.33212 330.52613,147.1854 L 329.72172,145.72034 L 328.57144,144.28571 L 328.57144,144.28571 z "
           id="path2687" />
        <path
           style="opacity:1;color:#000000;fill:#000000;fill-opacity:1;fill-rule:nonzero;stroke:none;stroke-width:80;stroke-linecap:butt;stroke-linejoin:miter;marker:none;marker-start:none;marker-mid:none;marker-end:none;stroke-miterlimit:4;stroke-dasharray:none;stroke-dashoffset:0;stroke-opacity:0.25465836;visibility:visible;display:inline;overflow:visible"
           id="path2379"
           d="M 320.85373,152.15057 C 318.87033,150.00704 316.46604,148.21361 314.15838,146.37475 C 305.65602,140.02294 296.50469,134.41565 287.02278,129.38451 C 279.32724,125.14929 272.10214,124.13675 263.94612,127.31922 C 278.23816,122.52935 271.87805,119.92507 263.3004,132.58726 C 259.38623,139.65372 258.07143,147.47779 257.30025,155.28804 C 256.67615,162.71391 257.03349,170.15204 257.7218,177.55841 C 258.22221,183.20805 259.70064,188.68826 261.48981,194.0902 C 263.02472,198.64783 265.16713,202.97021 267.60204,207.16706 C 269.18364,209.88425 271.36334,212.20284 273.48639,214.55341 L 254.71485,226.42989 C 252.16095,223.48189 249.61764,220.51847 247.66576,217.18299 C 244.89174,212.38825 242.50594,207.42452 240.71021,202.24054 C 238.66429,196.18051 236.9076,190.03884 236.30512,183.69184 C 235.53722,175.73952 235.11224,167.75951 235.64433,159.77715 C 236.26484,150.84531 237.47352,141.89086 241.02854,133.49193 C 247.07981,120.40899 256.72506,111.7912 273.09645,108.53425 C 283.97746,107.2472 293.79681,110.1763 303.00922,115.5714 C 312.7932,121.12425 322.36577,127.01203 331.52741,133.40529 C 334.28137,135.39327 337.05269,137.36525 339.67529,139.49817 L 320.85373,152.15057 z " />
      </g>
      <g
         id="g4592">
        <path
           style="opacity:1;color:#000000;fill:#f5f5f5;fill-opacity:1;fill-rule:nonzero;stroke:none;stroke-width:80;stroke-linecap:butt;stroke-linejoin:miter;marker:none;marker-start:none;marker-mid:none;marker-end:none;stroke-miterlimit:4;stroke-dasharray:none;stroke-dashoffset:0;stroke-opacity:0.25465836;visibility:visible;display:inline;overflow:visible"
           d="M 354.28571,125.71429 C 308.69666,159.02528 270.16209,203.24612 247.13279,255.02627 C 236.08611,289.9088 247.80494,326.16257 251.66689,361.19018 C 256.91209,391.93428 273.90774,421.07311 301.49197,436.73296 C 348.60771,467.43723 407.5383,470.78718 462.08006,467.11079 C 492.65423,463.4658 520.04407,448.00107 544.83367,430.69148 C 585.23866,409.18088 627.69915,381.90294 644.37259,337.0001 C 659.21243,302.7777 682.61964,255.17907 614.41135,217.01272 C 597.89836,199.94101 595.35178,195.54715 589.54722,172.28946 C 568.37469,129.56586 518.83896,111.34496 474.30012,105.55111 C 436.10662,101.093 397.76292,110.64982 363.01079,125.81721 C 360.12697,126.27561 357.15428,126.31008 354.28571,125.71429 z "
           id="path3713"
           sodipodi:nodetypes="cccccccccccc" />
        <path
           style="opacity:1;color:#000000;fill:#000000;fill-opacity:1;fill-rule:nonzero;stroke:none;stroke-width:80;stroke-linecap:butt;stroke-linejoin:miter;marker:none;marker-start:none;marker-mid:none;marker-end:none;stroke-miterlimit:4;stroke-dasharray:none;stroke-dashoffset:0;stroke-opacity:0.25465836;visibility:visible;display:inline;overflow:visible"
           id="path2210"
           d="M 663.5295,277.38173 C 664.83644,300.85962 658.16901,323.98796 647.7855,346.19698 C 621.59879,399.94062 565.73047,441.49382 491.59001,463.75513 C 407.3352,485.99879 319.07548,474.81569 265.18614,422.71135 C 213.41017,356.62901 230.42802,274.03714 266.0927,205.99674 C 296.69037,151.75943 353.56003,105.45195 439.01572,96.779313 C 499.27927,92.899273 548.43807,116.19586 585.86699,147.01336 C 609.17069,167.10863 627.6363,189.88061 639.83368,214.3281 C 640.38239,215.51207 640.93109,216.69602 641.47978,217.87998 L 627.17663,230.93882 C 626.73888,229.75651 626.30113,228.57421 625.86336,227.39192 C 615.82087,202.88284 598.94001,179.93103 576.94618,159.63169 C 542.74324,129.62303 496.91725,106.39868 439.53162,109.41776 C 357.2743,116.94402 302.45339,161.85491 272.76203,213.6669 C 239.40048,276.88877 223.8347,352.01535 272.21103,413.52104 C 323.51561,463.90625 408.17223,474.9641 489.17805,453.19972 C 561.78015,430.97063 615.79595,389.05501 637.60613,335.29601 C 648.14859,307.04121 646.49367,307.80816 645.52105,291.31192 L 663.5295,277.38173 z " />
      </g>
      <g
         id="g3638">
        <path
           style="opacity:1;color:#000000;fill:#545454;fill-opacity:1;fill-rule:nonzero;stroke:none;stroke-width:80;stroke-linecap:butt;stroke-linejoin:miter;marker:none;marker-start:none;marker-mid:none;marker-end:none;stroke-miterlimit:4;stroke-dasharray:none;stroke-dashoffset:0;stroke-opacity:0.25465836;visibility:visible;display:inline;overflow:visible"
           d="M 465.71429,277.14285 C 436.26427,215.74732 356.79226,287.96306 397.58801,332.36982 C 401.14992,390.94974 479.40746,413.23604 509.6504,361.53538 C 531.58555,325.57108 501.48711,285.9146 465.71429,277.14285 z "
           id="path3623" />
        <path
           style="opacity:1;color:#000000;fill:#000000;fill-opacity:1;fill-rule:nonzero;stroke:none;stroke-width:80;stroke-linecap:butt;stroke-linejoin:miter;marker:none;marker-start:none;marker-mid:none;marker-end:none;stroke-miterlimit:4;stroke-dasharray:none;stroke-dashoffset:0;stroke-opacity:0.25465836;visibility:visible;display:inline;overflow:visible"
           d="M 433.39108,279.02142 L 417.76676,294.2469 C 418.8074,294.64711 419.87593,294.95316 420.86069,295.38525 C 419.33397,296.95557 418.02113,298.67464 416.99329,300.31811 C 414.03941,305.01847 413.49247,309.5805 414.62128,314.78469 C 417.45605,321.00099 422.84027,323.19791 429.72994,323.70179 C 445.42346,319.08288 452.19935,316.11816 451.33583,302.49996 C 450.25169,295.98035 446.55216,290.55145 442.20875,285.47209 C 439.79283,282.69554 436.63528,280.83779 433.39108,279.02142 z "
           id="path2238" />
        <path
           style="opacity:1;color:#000000;fill:#000000;fill-opacity:1;fill-rule:nonzero;stroke:none;stroke-width:80;stroke-linecap:butt;stroke-linejoin:miter;marker:none;marker-start:none;marker-mid:none;marker-end:none;stroke-miterlimit:4;stroke-dasharray:none;stroke-dashoffset:0;stroke-opacity:0.25465836;visibility:visible;display:inline;overflow:visible"
           id="path2362"
           d="M 462.78586,290.54313 C 465.552,296.04545 463.08272,290.76057 462.13332,290.06514 C 459.87826,286.34763 457.23758,282.86954 454.41338,279.50581 C 450.83905,275.1292 446.0502,272.18327 440.89996,269.61137 C 435.21487,266.76612 429.01883,265.52741 422.66543,264.80978 C 416.40531,264.18387 410.58777,265.06355 404.93643,267.48596 C 414.83137,265.90228 418.46838,257.76735 407.11897,268.57497 C 403.47228,272.42111 401.0935,276.99013 398.94018,281.63689 C 396.99495,285.97304 397.224,290.32485 397.88282,294.84696 C 398.931,299.67045 401.05609,304.18551 403.19298,308.66457 C 405.40556,313.10108 408.25524,317.22005 411.1125,321.31905 C 413.91006,324.99257 416.74333,328.63591 419.4113,332.39084 C 422.3126,336.38951 423.86153,340.90569 425.22479,345.48904 C 426.35777,350.21704 426.86861,355.04504 427.40849,359.85373 C 427.76596,364.46276 428.82023,368.94942 430.17863,373.37941 C 431.41917,377.43501 433.88901,380.33758 437.29617,382.97846 C 442.66389,386.04629 448.63879,385.82216 454.70301,385.39644 C 453.8888,386.77271 479.02003,376.77598 477.067,377.71166 C 454.69638,388.42927 465.12456,383.57208 470.05302,381.0138 C 480.70374,375.22067 489.63596,367.41131 497.20542,358.48022 C 503.3729,350.84429 507.26472,342.09626 509.15284,332.79215 C 510.39423,325.87797 509.2571,319.22612 506.3474,312.84508 C 503.99925,308.36392 499.99184,305.81917 495.36614,303.61635 C 490.59376,301.84455 485.48828,301.14403 480.46469,300.2529 C 475.02909,299.42236 470.36479,297.1614 465.87378,294.37485 C 464.08127,293.12571 462.46136,291.68859 460.80023,290.29989 L 478.98091,277.5729 C 480.3129,278.60076 481.56649,279.72819 483.06454,280.55949 C 486.68536,282.05038 490.32741,283.3305 494.33385,283.75802 C 500.26733,284.90511 506.20121,286.23508 511.51529,289.02942 C 517.795,292.7536 523.15085,297.21491 526.40761,303.55426 C 530.27934,311.60595 531.90665,320.17766 530.88667,328.98515 C 529.31454,339.78671 525.52631,350.07535 519.05729,359.27624 C 511.51272,369.4698 502.34135,378.4923 491.24369,385.50785 C 476.76688,394.49435 461.01907,402.34729 443.28734,402.95902 C 434.72643,402.76307 426.55178,401.26592 419.75716,396.15282 C 415.08136,392.02563 411.32913,387.4525 409.37245,381.66569 C 407.61337,376.58977 406.32432,371.41165 405.76317,366.09556 C 405.27081,361.6748 404.80657,357.24346 403.93389,352.86936 C 402.95947,349.36934 401.97203,345.90644 399.69469,342.88212 C 397.06264,339.17565 394.24824,335.58791 391.57229,331.9085 C 388.45411,327.38474 385.38691,322.81431 382.92731,317.9495 C 380.40631,312.80963 378.05993,307.57663 376.66394,302.06691 C 375.34372,296.01309 374.68193,289.93655 376.46531,283.87414 C 378.36495,278.06802 380.86764,272.48741 384.53382,267.40686 C 392.01413,257.55936 400.09839,252.15156 413.69584,248.36247 C 421.07669,247.09203 428.50784,246.81507 435.93405,248.14638 C 443.34836,249.59894 450.56136,251.61915 457.10818,255.25229 C 463.24534,258.78517 468.96489,262.76297 473.34375,268.15857 C 476.42533,271.83588 479.35514,275.6081 482.04731,279.53875 C 483.75852,281.93973 484.64374,282.91402 485.35172,285.15188 L 462.78586,290.54313 z " />
      </g>
      <g
         id="g3618">
        <path
           style="opacity:1;color:#000000;fill:#545454;fill-opacity:1;fill-rule:nonzero;stroke:none;stroke-width:80;stroke-linecap:butt;stroke-linejoin:miter;marker:none;marker-start:none;marker-mid:none;marker-end:none;stroke-miterlimit:4;stroke-dasharray:none;stroke-dashoffset:0;stroke-opacity:0.25465836;visibility:visible;display:inline;overflow:visible"
           d="M 345.71429,271.42856 C 333.45199,255.92734 316.62421,237.37375 294.95838,249.07176 C 274.71255,257.46253 258.70503,273.56341 242.3437,287.41014 C 227.6567,308.06046 230.61822,337.3306 241.15928,359.13728 C 252.06452,387.05543 288.65654,393.10195 309.78503,373.04886 C 326.99982,356.23274 337.42633,333.22958 347.31441,311.51233 C 351.15018,298.61678 349.20611,284.22614 345.71429,271.42856 z "
           id="path3609" />
        <path
           style="opacity:1;color:#000000;fill:#000000;fill-opacity:1;fill-rule:nonzero;stroke:none;stroke-width:80;stroke-linecap:butt;stroke-linejoin:miter;marker:none;marker-start:none;marker-mid:none;marker-end:none;stroke-miterlimit:4;stroke-dasharray:none;stroke-dashoffset:0;stroke-opacity:0.25465836;visibility:visible;display:inline;overflow:visible"
           d="M 318.45185,279.35344 C 312.72561,279.79548 307.66632,282.62624 303.08537,285.61439 C 300.97723,284.89236 298.17107,283.45974 296.18866,283.93381 C 293.46854,288.32013 290.74841,292.70646 288.02828,297.09278 C 282.92374,301.44354 277.87959,306.75795 277.21851,313.41112 C 277.06934,315.60119 278.63407,317.59866 279.90645,319.36373 C 282.18026,322.30788 286.37933,323.47004 290.13995,322.77906 C 297.42825,321.53341 303.57223,317.43986 309.90026,314.14269 C 311.68641,313.18967 312.68203,311.34376 313.62811,309.71199 C 315.56868,305.96621 315.31498,301.59264 314.01723,297.70938 C 314.01314,297.80263 313.30577,295.68001 312.88903,294.84534 C 312.12781,293.80809 312.04631,292.90029 313.01232,291.98462 C 315.874,287.82165 318.73567,283.6587 321.59734,279.49574 C 320.55654,279.34489 319.5028,279.32536 318.45185,279.35344 z "
           id="path2234" />
        <path
           style="opacity:1;color:#000000;fill:#000000;fill-opacity:1;fill-rule:nonzero;stroke:none;stroke-width:80;stroke-linecap:butt;stroke-linejoin:miter;marker:none;marker-start:none;marker-mid:none;marker-end:none;stroke-miterlimit:4;stroke-dasharray:none;stroke-dashoffset:0;stroke-opacity:0.25465836;visibility:visible;display:inline;overflow:visible"
           id="path2366"
           d="M 242.38073,290.54313 C 242.04522,288.32853 242.95104,286.30122 243.62309,284.21415 C 245.45878,279.58131 248.42555,275.48134 251.48817,271.47658 C 255.44497,266.49487 260.47989,262.43836 265.66889,258.5892 C 275.24628,252.04503 285.7692,246.52989 297.09879,243.03106 C 302.8452,241.30286 308.80258,240.90005 314.79755,240.98692 C 320.81044,241.19082 326.36535,242.96094 331.75156,245.27533 C 337.2077,247.8595 341.8741,251.47527 346.28241,255.3469 C 350.51687,259.05337 353.62571,263.54496 356.38323,268.23648 C 359.00105,272.89374 360.30066,277.94053 361.07625,283.09187 C 361.75265,288.29173 360.6273,293.29561 358.9406,298.222 C 357.10275,303.00921 354.2138,307.3512 351.43223,311.70793 C 348.80955,315.43464 346.9348,319.46164 345.42302,323.65158 C 344.23344,327.85297 344.22838,332.21764 344.0238,336.52682 C 343.9858,343.9167 340.66092,350.18324 336.4784,356.29655 C 331.21096,363.62065 324.88497,370.18005 317.62668,375.86442 C 306.28378,384.11188 293.01992,389.70584 279.07175,392.86625 C 270.1649,395.05532 262.09156,393.32678 253.96132,389.77753 C 245.69882,385.92348 239.24812,379.94856 233.64225,373.28872 C 228.39067,366.79601 224.98925,359.38862 222.63386,351.64576 C 220.48515,344.31163 219.90352,336.75349 219.73096,329.19706 C 219.63414,322.52678 220.77667,315.95733 222.36625,309.47605 C 223.78424,303.93113 226.28075,298.74392 229.12724,293.71616 C 231.65115,289.33577 235.10049,285.58753 238.79647,282.02913 C 239.52397,281.339 240.33356,280.72974 241.10151,280.08056 L 263.48173,284.01248 C 262.75003,284.45364 261.9891,284.8539 261.28693,285.33576 C 257.7528,287.86899 254.32563,290.49652 251.8,293.96207 C 248.90349,298.01928 246.30079,302.22566 244.77744,306.91464 C 242.96727,312.53294 241.61465,318.26216 241.47004,324.1501 C 241.36275,330.85567 241.68492,337.56549 243.4583,344.10817 C 245.39012,350.60366 247.94743,356.87926 252.4686,362.27724 C 257.2015,367.5399 262.38437,372.32221 269.41463,374.92523 C 276.00068,376.76455 281.94584,376.39175 288.47595,374.18756 C 318.69003,364.5938 277.10749,378.65324 295.80396,371.86812 C 303.02612,367.50193 309.15599,361.98794 314.24926,355.55039 C 317.75245,351.12701 321.38207,346.70305 321.87279,341.07624 C 322.19523,336.30568 322.16066,331.50364 322.95604,326.76947 C 324.12954,321.54731 325.85224,316.48578 328.76361,311.83161 C 331.25851,307.78125 333.9516,303.83056 336.27527,299.6953 C 337.89152,296.275 339.42169,292.88817 339.27672,289.07076 C 338.85338,285.18502 338.27601,281.38133 336.22271,277.86824 C 333.99021,274.1555 331.5617,270.60345 328.06594,267.75353 C 324.41075,264.81475 320.64603,261.96432 316.05215,260.3418 C 311.74154,259.11991 307.43225,258.23066 302.87309,258.74058 C 297.92682,259.36582 293.06202,260.26628 288.52252,262.287 C 273.97135,269.03001 307.91027,252.43608 287.73818,262.79576 C 282.82935,265.79325 278.04668,268.99614 274.04627,273.01453 C 271.2035,276.08908 268.40903,279.21742 266.48725,282.88204 C 266.01477,283.57813 265.29557,285.70704 264.94656,285.15188 L 242.38073,290.54313 z " />
      </g>
      <g
         id="g3605">
        <path
           style="opacity:1;color:#000000;fill:#545454;fill-opacity:1;fill-rule:nonzero;stroke:none;stroke-width:80;stroke-linecap:butt;stroke-linejoin:miter;marker:none;marker-start:none;marker-mid:none;marker-end:none;stroke-miterlimit:4;stroke-dasharray:none;stroke-dashoffset:0;stroke-opacity:0.25465836;visibility:visible;display:inline;overflow:visible"
           d="M 575.71429,101.42857 C 514.75303,117.35554 492.60006,227.95167 567.83049,238.33853 C 651.38985,240.8812 655.65018,114.9127 575.71429,101.42857 L 575.71429,101.42857 z "
           id="path3574" />
        <path
           style="opacity:1;color:#000000;fill:#000000;fill-opacity:1;fill-rule:nonzero;stroke:none;stroke-width:80;stroke-linecap:butt;stroke-linejoin:miter;marker:none;marker-start:none;marker-mid:none;marker-end:none;stroke-miterlimit:4;stroke-dasharray:none;stroke-dashoffset:0;stroke-opacity:0.25465836;visibility:visible;display:inline;overflow:visible"
           id="path2381"
           d="M 502.85954,201.64316 C 503.10118,199.61137 503.06173,197.56598 503.07283,195.52591 C 502.85852,186.85493 504.64486,178.31764 507.02196,169.9701 C 510.0754,159.60869 515.56491,150.16262 521.86664,141.20338 C 527.52604,133.4596 534.19848,126.41279 541.2951,119.76705 C 547.05112,114.41576 553.18142,109.43049 559.57898,104.7433 C 573.8548,95.751893 581.36101,92.029583 595.37015,99.401243 C 602.61919,103.99507 608.06973,110.38204 613.1568,116.89207 C 618.61594,124.1316 623.36467,131.79506 628.0312,139.48098 C 632.27662,146.49393 636.25308,153.63721 640.03387,160.86996 C 643.06186,166.32512 644.96976,172.0883 645.90366,178.12454 C 646.53347,183.36671 645.03029,188.22926 642.90356,193.01631 C 640.29978,198.14079 636.45474,202.55076 632.54186,206.86308 C 627.35289,212.3506 621.64711,217.38828 615.8533,222.32642 C 610.83312,226.59522 605.56885,230.59794 600.00228,234.2439 C 590.7002,240.63422 580.4697,244.8658 569.26931,246.81771 C 563.24956,247.99286 557.38171,247.27952 551.50322,245.93221 C 544.59687,244.17246 538.84618,240.42186 533.40064,236.29201 C 528.48656,232.38391 524.46506,227.70409 520.71372,222.85984 C 517.34404,218.35017 514.5185,213.53099 511.74604,208.69825 C 509.91418,205.48028 508.20578,202.20478 506.47476,198.94041 L 526.65882,189.43795 C 528.35036,192.6466 530.02385,195.86405 531.79738,199.03535 C 534.33511,203.49062 536.94407,207.92307 540.06989,212.05941 C 543.33172,216.14033 546.6977,220.17874 551.03203,223.36757 C 555.3876,226.35085 559.93098,228.87461 565.43525,229.515 C 570.12517,229.73632 574.67995,229.45339 579.18657,228.03719 C 586.09349,225.76423 601.81901,218.08894 574.90638,230.81944 C 575.93418,230.36381 577.00461,229.98458 577.99189,229.4516 C 583.59483,226.51146 588.87516,223.15177 593.70805,219.2014 C 599.41494,214.6418 605.05341,209.99924 610.17412,204.87229 C 613.76636,201.25425 617.30801,197.5742 620.17315,193.42522 C 622.03957,190.42857 623.93417,187.53251 624.06679,183.96465 C 623.5954,179.09557 622.47708,174.46878 619.96191,170.06696 C 616.41599,162.99984 612.66008,156.0243 608.53662,149.22437 C 604.08143,141.85662 599.52898,134.51474 594.2254,127.62838 C 589.97071,122.33291 585.46307,116.95991 579.0812,113.7358 C 568.96299,111.28979 562.31678,121.11624 581.52684,109.3392 C 574.84261,112.93116 568.95865,117.51354 563.33376,122.40414 C 556.33945,128.48908 549.62559,134.85547 543.8749,141.98183 C 537.66683,149.88111 532.08381,158.24294 528.89794,167.61165 C 526.50749,174.85352 524.67882,182.31988 524.95803,189.93767 C 525.1087,192.04245 525.23549,194.15056 525.42538,196.2519 L 502.85954,201.64316 z " />
      </g>
      <g
         id="g3654">
        <path
           style="opacity:1;color:#000000;fill:#545454;fill-opacity:1;fill-rule:nonzero;stroke:none;stroke-width:80;stroke-linecap:butt;stroke-linejoin:miter;marker:none;marker-start:none;marker-mid:none;marker-end:none;stroke-miterlimit:4;stroke-dasharray:none;stroke-dashoffset:0;stroke-opacity:0.25465836;visibility:visible;display:inline;overflow:visible"
           d="M 302.85715,402.85715 C 328.75143,394.32431 356.39415,399.86031 382.88803,396.07904 C 408.07222,396.01193 406.38365,426.60108 387.69211,436.05821 C 373.81428,452.39882 341.17875,467.81607 327.08614,443.86465 C 320.62463,429.0806 312.62382,415.49649 302.85715,402.85715 z "
           id="path3643" />
        <path
           style="opacity:1;color:#000000;fill:#000000;fill-opacity:1;fill-rule:nonzero;stroke:none;stroke-width:80;stroke-linecap:butt;stroke-linejoin:miter;marker:none;marker-start:none;marker-mid:none;marker-end:none;stroke-miterlimit:4;stroke-dasharray:none;stroke-dashoffset:0;stroke-opacity:0.25465836;visibility:visible;display:inline;overflow:visible"
           id="path2401"
           d="M 324.15313,393.25901 C 323.40984,395.07386 321.47229,395.5881 319.65994,396.4446 C 316.66266,397.90245 315.45544,400.06474 314.12026,402.70449 C 313.49996,406.91472 315.24833,410.73528 317.04979,414.5195 C 320.1422,420.26541 324.31618,425.4197 328.54772,430.48384 C 333.05876,435.44018 337.4511,440.61946 343.13904,444.43262 C 350.43347,445.65321 357.95164,443.16541 364.83561,440.94013 C 395.14387,426.58557 351.76535,450.54106 377.42321,434.73999 C 383.7225,430.77267 389.18464,425.91086 393.8356,420.37236 C 396.32529,418.02233 396.3493,415.57208 396.67945,412.81157 C 395.02198,410.40576 392.16201,409.53211 389.45292,408.40053 C 384.46678,406.60627 379.17524,405.81121 373.90267,405.11977 C 367.54516,404.39011 361.13825,404.18094 354.74024,404.00523 C 348.46329,403.80047 342.19108,403.89438 335.91791,404.11884 C 330.23145,404.35404 324.57551,404.9697 318.94848,405.73984 C 313.54784,406.43422 308.16946,407.26657 302.80002,408.14097 C 300.28642,408.60385 297.78767,409.12788 295.28872,409.65293 L 305.39382,390.96216 C 308.02852,390.50215 310.65413,389.99018 313.31431,389.66115 C 318.7968,388.86529 324.27823,388.06413 329.7915,387.4635 C 335.74195,386.89527 341.70457,386.40977 347.69312,386.38648 C 354.15543,386.31254 360.61745,386.42422 367.07496,386.67584 C 373.84539,386.98843 380.62834,387.36004 387.31732,388.42938 C 393.45456,389.53135 399.59178,390.81142 405.24404,393.3607 C 410.24223,395.90372 414.78136,398.80597 417.29803,403.71842 C 419.55791,409.5564 419.65282,414.97672 416.36531,420.59762 C 411.84954,427.57598 406.17325,433.66214 399.14477,438.65478 C 386.23915,447.86008 371.58649,455.08658 355.95482,459.49228 C 345.94206,461.90491 335.12144,463.91534 326.09688,457.95436 C 319.97956,453.13571 314.85639,447.38526 309.77721,441.6547 C 305.03522,436.04286 300.47321,430.25989 296.94995,423.91296 C 294.2499,418.53774 291.86789,413.04806 291.82642,407.0239 C 292.21227,402.00079 293.36414,397.34399 296.99281,393.388 C 297.88676,392.49388 300.34173,389.09667 301.01677,390.63086 L 324.15313,393.25901 z " />
      </g>
    </g>
  </g>
</svg>
