<?xml version="1.0" encoding="UTF-8" standalone="no"?>
<!-- Created with Inkscape (http://www.inkscape.org/) -->
<svg
   xmlns:dc="http://purl.org/dc/elements/1.1/"
   xmlns:cc="http://web.resource.org/cc/"
   xmlns:rdf="http://www.w3.org/1999/02/22-rdf-syntax-ns#"
   xmlns:svg="http://www.w3.org/2000/svg"
   xmlns="http://www.w3.org/2000/svg"
   xmlns:sodipodi="http://sodipodi.sourceforge.net/DTD/sodipodi-0.dtd"
   xmlns:inkscape="http://www.inkscape.org/namespaces/inkscape"
   width="1000"
   height="1000"
   id="svg2"
   sodipodi:version="0.32"
   inkscape:version="0.45.1"
   version="1.0"
   sodipodi:docbase="/home/kris/tale/art/monster"
   sodipodi:docname="penguin.svg"
   inkscape:output_extension="org.inkscape.output.svg.inkscape"
   inkscape:export-filename="/home/kris/tale/art/monster/rocket-penguin.png"
   inkscape:export-xdpi="36"
   inkscape:export-ydpi="36">
  <defs
     id="defs4" />
  <sodipodi:namedview
     id="base"
     pagecolor="#ffffff"
     bordercolor="#666666"
     borderopacity="1.0"
     inkscape:pageopacity="0.0"
     inkscape:pageshadow="2"
     inkscape:zoom="0.7"
     inkscape:cx="500.39005"
     inkscape:cy="490.70034"
     inkscape:document-units="px"
     inkscape:current-layer="layer2"
     inkscape:window-width="1680"
     inkscape:window-height="975"
     inkscape:window-x="0"
     inkscape:window-y="49" />
  <metadata
     id="metadata7">
    <rdf:RDF>
      <cc:Work
         rdf:about="">
        <dc:format>image/svg+xml</dc:format>
        <dc:type
           rdf:resource="http://purl.org/dc/dcmitype/StillImage" />
      </cc:Work>
    </rdf:RDF>
  </metadata>
  <g
     inkscape:groupmode="layer"
     id="layer2"
     inkscape:label="penguin"
     style="display:inline">
    <path
       style="opacity:1;color:#000000;fill:#303030;fill-opacity:1;fill-rule:nonzero;stroke:none;stroke-width:80;stroke-linecap:butt;stroke-linejoin:miter;marker:none;marker-start:none;marker-mid:none;marker-end:none;stroke-miterlimit:4;stroke-dasharray:none;stroke-dashoffset:0;stroke-opacity:0.25465836;visibility:visible;display:inline;overflow:visible"
       d="M 366.76613,663.38332 C 349.34322,699.73053 319.24275,726.79351 292.12067,755.24178 C 272.73255,786.00883 272.73468,828.43287 292.12442,859.19858 C 303.6396,871.13601 322.11244,868.56876 335.77004,862.39817 C 367.05713,852.02033 393.56872,826.43672 404.46694,794.31605 C 414.93383,773.6759 429.51849,753.29023 429.20459,728.95391 C 430.49632,705.83614 434.46534,680.59337 422.88543,659.43224 C 411.85059,641.26197 382.65199,638.12339 370.00236,656.01027 C 368.48886,658.22963 367.35916,660.7364 366.76613,663.38332 z "
       id="path6032" />
    <path
       style="opacity:1;color:#000000;fill:#000000;fill-opacity:1;fill-rule:nonzero;stroke:none;stroke-width:80;stroke-linecap:butt;stroke-linejoin:miter;marker:none;marker-start:none;marker-mid:none;marker-end:none;stroke-miterlimit:4;stroke-dasharray:none;stroke-dashoffset:0;stroke-opacity:0.25465836;visibility:visible;display:inline;overflow:visible"
       id="path4138"
       d="M 358.97507,689.3396 C 358.28569,696.12191 352.41805,700.257 348.00874,704.86272 C 334.33693,718.42499 321.84671,733.12671 311.10515,749.25765 C 298.71468,767.32989 290.65198,787.66552 288.78924,809.74868 C 288.06585,824.68318 289.07089,840.64868 297.46727,853.30497 C 301.87384,859.44292 322.49218,858.86891 304.43707,857.88229 C 300.93292,857.69081 311.46405,857.71463 314.94837,857.28567 C 327.11607,854.91876 338.34824,849.34085 349.00278,843.02757 L 365.28188,856.67504 C 353.47865,863.86018 341.1276,870.18631 327.856,873.95391 C 310.08299,878.74762 288.57512,878.45956 277.7771,860.9234 C 268.99398,845.05517 267.92312,826.14976 269.09615,808.28646 C 271.44336,784.09263 279.7309,761.4951 293.23109,741.51677 C 304.04124,724.80923 316.32305,709.25206 329.46963,694.44093 C 331.29639,692.2669 339.13547,679.53025 336.16662,689.12949 L 358.97507,689.3396 z " />
    <path
       style="opacity:1;color:#000000;fill:#ff6600;fill-opacity:1;fill-rule:nonzero;stroke:none;stroke-width:80;stroke-linecap:butt;stroke-linejoin:miter;marker:none;marker-start:none;marker-mid:none;marker-end:none;stroke-miterlimit:4;stroke-dasharray:none;stroke-dashoffset:0;stroke-opacity:0.25465836;visibility:visible;display:inline;overflow:visible"
       d="M 356.7314,894.13299 C 346.46828,904.25887 338.81431,919.05044 341.39479,934.04492 C 350.31592,951.66599 373.98087,955.71762 390.21354,947.09389 C 412.22132,941.35918 433.22018,931.87548 452.69111,919.90261 C 464.63234,917.04431 477.00913,926.02554 480.53428,937.69426 C 502.93611,966.87264 551.55447,969.55013 575.37431,940.84566 C 587.94684,923.48917 580.78952,898.42779 566.51343,884.58287 C 548.65096,864.71881 517.04364,862.88573 495.47153,877.28382 C 482.37045,884.8487 473.28171,898.29325 459.79764,905.09927 C 445.5494,909.03643 432.17529,899.9045 421.56114,891.18104 C 406.13222,881.24889 385.46982,878.72186 369.34423,888.42049 C 365.11591,890.26805 360.95788,892.28108 356.7314,894.13299 z "
       id="path6070" />
    <path
       style="opacity:1;color:#000000;fill:#303030;fill-opacity:1;fill-rule:nonzero;stroke:none;stroke-width:80;stroke-linecap:butt;stroke-linejoin:miter;marker:none;marker-start:none;marker-mid:none;marker-end:none;stroke-miterlimit:4;stroke-dasharray:none;stroke-dashoffset:0;stroke-opacity:0.25465836;visibility:visible;display:inline;overflow:visible"
       d="M 310.99489,855.79724 C 319.11067,890.43218 355.96143,901.88007 384.00689,914.2614 C 442.86102,935.05564 505.92566,925.43284 566.65554,923.12464 C 617.5886,916.63223 675.47603,904.66592 707.10681,858.71035 C 732.84776,815.47904 723.40306,757.95799 694.13095,719.20464 C 639.91678,613.6169 590.13054,502.92513 510.82485,414.23156 C 484.13802,389.83235 436.47355,387.87711 414.32334,419.73028 C 384.2904,456.89886 379.92534,507.16995 360.29591,549.7768 C 333.91032,623.40367 302.63102,696.88481 295.17632,775.78157 C 294.68268,803.39778 305.94277,829.11595 310.99489,855.79724 z "
       id="path5080" />
    <path
       style="opacity:1;color:#000000;fill:#e2e2e2;fill-opacity:1;fill-rule:nonzero;stroke:none;stroke-width:80;stroke-linecap:butt;stroke-linejoin:miter;marker:none;marker-start:none;marker-mid:none;marker-end:none;stroke-miterlimit:4;stroke-dasharray:none;stroke-dashoffset:0;stroke-opacity:0.25465836;visibility:visible;display:inline;overflow:visible"
       d="M 360.65104,545.73425 C 328.9278,624.62266 294.9761,708.06062 304.25143,795.37267 C 308.83202,832.84464 318.03786,876.65629 353.09592,896.249 C 409.08576,931.23107 477.00229,928.15082 540.01628,927.44996 C 565.89471,927.34675 591.81945,927.23631 617.60903,924.76895 C 637.8608,914.65447 622.75654,888.98134 606.48244,884.20835 C 589.58113,882.2304 575.06972,872.72094 562.05711,861.47255 C 528.12608,833.01742 506.43231,790.11164 502.67287,745.24927 C 495.89871,715.04241 488.25589,684.85725 486.1152,653.85367 C 475.6385,603.78056 448.18002,560.11609 424.88709,515.64443 C 417.47809,500.28635 403.26265,478.23803 383.88579,488.00082 C 364.31082,499.13869 366.75098,525.18588 361.41361,544.23798 L 360.91293,545.22034 L 360.65104,545.73425 z "
       id="path7877" />
    <path
       style="opacity:1;color:#000000;fill:#000000;fill-opacity:1;fill-rule:nonzero;stroke:none;stroke-width:80;stroke-linecap:butt;stroke-linejoin:miter;marker:none;marker-start:none;marker-mid:none;marker-end:none;stroke-miterlimit:4;stroke-dasharray:none;stroke-dashoffset:0;stroke-opacity:0.25465836;visibility:visible;display:inline;overflow:visible"
       d="M 467.59209,385.03002 C 559.43449,395.38402 584.88596,498.83874 621.32931,569.73397 C 664.1775,653.00811 725.5835,733.97522 731.51589,830.89968 C 713.37114,924.30242 603.15754,933.92842 528.00866,937.66211 C 443.24529,939.11531 307.07395,945.03516 291.45047,831.27069 C 281.81057,713.99884 328.02941,601.45778 365.99521,493.18895 C 384.0425,444.72256 404.54046,379.35528 467.59209,385.03002 z M 463.07506,410.38202 L 459.35416,410.49843 L 463.07506,410.38202 z M 468.1021,410.85286 C 395.00331,424.33485 394.59792,518.14378 363.70144,572.94797 C 331.23921,663.31285 294.67489,766.66786 327.98259,861.63727 C 377.38715,929.74555 472.15719,915.30811 544.88088,916.23715 C 616.25547,915.71442 728.1983,878.93754 698.56124,783.45226 C 657.16065,668.22241 588.39978,565.46236 532.15,457.48453 C 521.00015,431.94209 494.37264,414.94909 468.1021,410.85286 z "
       id="path3946" />
    <path
       style="opacity:1;color:#000000;fill:#000000;fill-opacity:1;fill-rule:nonzero;stroke:none;stroke-width:80;stroke-linecap:butt;stroke-linejoin:miter;marker:none;marker-start:none;marker-mid:none;marker-end:none;stroke-miterlimit:4;stroke-dasharray:none;stroke-dashoffset:0;stroke-opacity:0.25465836;visibility:visible;display:inline;overflow:visible"
       id="path3988"
       d="M 354.59485,917.20911 C 359.64697,913.58066 360.75745,906.83363 356.57141,914.979 C 354.20702,919.70111 354.78854,924.38763 356.38371,929.17157 C 359.68386,933.1825 365.09514,933.34879 369.8904,933.96007 C 400.15857,930.37469 341.42034,941.93397 395.73694,931.51506 C 407.35936,929.27487 418.68444,925.62342 429.17415,919.98253 L 453.38606,939.53756 C 441.37569,946.98702 428.13127,951.82128 414.44219,954.87232 C 393.77353,959.52784 371.95486,962.93205 350.9885,958.64621 C 339.52395,955.44988 330.1449,948.82775 326.01233,936.92393 C 323.30228,927.20735 322.73331,917.02868 325.98879,907.32933 C 328.30468,900.69328 330.37101,893.77829 336.03426,889.34245 L 354.59485,917.20911 z " />
    <path
       style="opacity:1;color:#000000;fill:#000000;fill-opacity:1;fill-rule:nonzero;stroke:none;stroke-width:80;stroke-linecap:butt;stroke-linejoin:miter;marker:none;marker-start:none;marker-mid:none;marker-end:none;stroke-miterlimit:4;stroke-dasharray:none;stroke-dashoffset:0;stroke-opacity:0.25465836;visibility:visible;display:inline;overflow:visible"
       id="path3990"
       d="M 496.68623,929.27698 C 495.83004,925.74663 497.22242,929.88784 497.61757,930.98238 C 499.00407,934.75098 501.11431,937.95449 503.73174,940.88426 C 507.34516,943.52311 511.9321,944.18334 516.2179,945.02309 C 524.5761,947.50259 558.58684,946.06831 528.11314,946.76964 C 536.14342,946.91783 544.05352,945.78732 551.69993,943.32637 C 556.20465,941.73956 559.79336,938.78733 563.11787,935.39738 C 565.58849,932.79676 566.73522,929.45368 567.92353,926.11161 C 569.01694,922.59638 569.92743,919.02369 570.89936,915.47129 L 602.42036,921.22766 C 601.32899,924.98221 600.27642,928.74802 599.19146,932.50456 C 597.3548,938.19822 595.40432,943.9184 592.01459,948.86384 C 587.37284,955.25988 581.79604,960.77726 574.98021,964.68925 C 565.58675,969.7098 555.45301,972.45825 544.86395,973.07853 C 528.56101,973.49451 512.15196,974.10543 496.28858,969.47152 C 488.08421,966.74838 480.52778,962.97841 475.37415,955.54234 C 472.03361,950.71574 469.21994,945.55889 466.88776,940.1345 C 465.65572,937.18383 464.21228,934.27761 463.94202,931.03237 L 496.68623,929.27698 z " />
    <path
       style="opacity:1;color:#000000;fill:#ff6600;fill-opacity:1;fill-rule:nonzero;stroke:none;stroke-width:80;stroke-linecap:butt;stroke-linejoin:miter;marker:none;marker-start:none;marker-mid:none;marker-end:none;stroke-miterlimit:4;stroke-dasharray:none;stroke-dashoffset:0;stroke-opacity:0.25465836;visibility:visible;display:inline;overflow:visible"
       d="M 420.61314,509.02895 C 406.86028,504.77407 401.32314,487.94216 387.3314,484.1407 C 368.18249,475.1836 346.72434,478.43175 326.37786,477.37595 C 303.48691,478.38759 280.78678,487.85793 264.25663,504.30769 C 259.69234,510.0736 259.69709,520.66753 266.94745,524.16327 C 275.28758,528.51912 284.93153,526.6277 293.9024,527.38987 C 325.01357,527.06582 355.9086,522.92358 386.79501,519.49907 C 396.06661,518.51217 405.4149,518.12292 414.67302,517.21308 C 418.0169,516.26971 422.50649,513.21071 420.61314,509.02895 z "
       id="path5971" />
    <path
       style="opacity:1;color:#000000;fill:#000000;fill-opacity:1;fill-rule:nonzero;stroke:none;stroke-width:80;stroke-linecap:butt;stroke-linejoin:miter;marker:none;marker-start:none;marker-mid:none;marker-end:none;stroke-miterlimit:4;stroke-dasharray:none;stroke-dashoffset:0;stroke-opacity:0.25465836;visibility:visible;display:inline;overflow:visible"
       id="path4006"
       d="M 661.36289,911.80761 C 655.68534,916.75673 641.71391,916.83493 632.78312,916.22954 C 610.41274,909.94082 592.28638,894.9847 576.00434,878.5426 C 545.02634,846.24378 521.10988,807.73963 502.92475,766.53158 C 482.68822,718.50256 474.32294,666.52357 460.9483,616.28792 C 448.47368,572.81247 427.82144,529.78682 392.33087,501.60965 C 357.62571,480.47082 345.09079,480.84428 314.81836,488.47305 C 299.34913,493.38132 282.09343,499.89518 272.21716,513.86252 C 278.56474,517.66794 296.28476,513.91523 304.62195,514.25241 C 275.82816,516.8931 349.35617,510.91724 355.70135,510.02225 C 367.53266,508.32031 379.31016,506.24189 391.00217,503.71882 C 395.49365,502.73632 399.9387,501.55499 404.38118,500.36437 L 424.64841,525.20139 C 419.85754,526.36859 415.07259,527.57317 410.2466,528.58032 C 397.77619,531.21372 385.18307,533.15125 372.51583,534.46168 C 344.85716,537.48325 316.99611,539.45236 289.18557,537.7818 C 270.12952,536.5272 235.01704,533.13898 243.09891,504.34977 C 252.99839,483.48799 277.82467,474.55645 297.62645,467.54125 C 337.53249,456.46177 380.46781,460.19078 413.07918,488.20877 C 448.64033,520.70482 469.69001,566.21295 482.88192,612.59052 C 495.90255,662.07633 503.55777,713.46122 524.67214,760.31409 C 542.58876,799.58405 566.42818,836.27575 598.26188,865.0407 C 613.25795,877.89016 630.65463,890.4972 650.93027,890.61889 C 647.30451,890.41517 661.11682,901.87079 664.07728,904.03849 L 661.36289,911.80761 z "
       sodipodi:nodetypes="ccccccccccccccccccccccccc" />
    <path
       style="opacity:1;color:#000000;fill:#46a1a6;fill-opacity:1;fill-rule:nonzero;stroke:none;stroke-width:80;stroke-linecap:butt;stroke-linejoin:miter;marker:none;marker-start:none;marker-mid:none;marker-end:none;stroke-miterlimit:4;stroke-dasharray:none;stroke-dashoffset:0;stroke-opacity:0.25465836;visibility:visible;display:inline;overflow:visible"
       d="M 469.42581,458.99554 C 460.14566,457.98011 450.81113,464.84462 448.49102,474.11923 C 445.94116,479.95903 447.98489,487.71929 453.49928,490.92495 C 459.62317,495.05885 467.68011,494.65833 474.20683,491.77243 C 480.54809,489.19384 486.21018,484.10545 488.45731,477.33713 C 489.38712,471.53816 486.33358,465.84497 482.28519,462.03475 C 479.3927,459.62945 475.47139,458.76178 471.8336,459.33847 C 471.33786,459.2578 470.84748,459.10049 470.41957,458.82477"
       id="path9641" />
    <path
       style="opacity:1;color:#000000;fill:#000000;fill-opacity:1;fill-rule:nonzero;stroke:none;stroke-width:80;stroke-linecap:butt;stroke-linejoin:miter;marker:none;marker-start:none;marker-mid:none;marker-end:none;stroke-miterlimit:4;stroke-dasharray:none;stroke-dashoffset:0;stroke-opacity:0.25465836;visibility:visible;display:inline;overflow:visible"
       d="M 473.06184,447.35977 C 472.88858,447.36805 472.70158,447.39326 472.52911,447.40384 C 453.81489,447.49596 439.33585,467.67265 441.91015,486.17504 C 438.44683,496.32882 426.34475,494.50156 418.20943,496.35533 C 407.14817,500.52265 412.57273,513.46678 406.31719,520.48356 C 411.17523,528.08858 422.8485,525.95461 430.51366,524.37403 C 450.50205,517.67568 471.34594,509.91263 486.49198,494.26471 C 496.21885,484.3957 501.47992,467.49542 492.47545,455.3234 C 488.16769,448.7399 480.28161,447.01613 473.06184,447.35977 z M 467.12759,463.14271 C 467.36401,463.12573 467.15493,463.13813 467.39693,463.14178 C 472.4596,463.89998 479.64297,466.06696 479.08608,472.69515 C 478.05364,479.64402 470.77882,482.31345 464.9402,484.19538 C 458.28411,486.71705 455.07793,481.18539 457.24458,476.45778 C 458.78027,469.86969 461.31175,463.56058 467.12759,463.14271 z "
       id="path4016"
       sodipodi:nodetypes="ccccccccccccccc" />
    <path
       style="opacity:1;color:#000000;fill:#303030;fill-opacity:1;fill-rule:nonzero;stroke:none;stroke-width:80;stroke-linecap:butt;stroke-linejoin:miter;marker:none;marker-start:none;marker-mid:none;marker-end:none;stroke-miterlimit:4;stroke-dasharray:none;stroke-dashoffset:0;stroke-opacity:0.25465836;visibility:visible;display:inline;overflow:visible"
       d="M 508.68245,635.5656 C 510.8247,694.74911 486.50429,753.17901 499.30457,812.24934 C 504.30198,838.15027 513.83872,866.59182 537.47814,880.32159 C 565.19674,892.25099 596.79548,887.12924 624.11088,876.6393 C 644.55301,866.329 656.16754,844.34564 662.19726,822.64159 C 672.83303,796.22964 674.91772,764.31742 659.82718,739.2071 C 648.50972,716.62859 636.49799,694.39729 625.69477,671.5666 C 608.05149,640.67641 582.71516,611.22952 548.28733,600.95769 C 528.40755,597.45752 509.27385,615.15692 508.68245,635.5656 z "
       id="path5998" />
    <path
       style="opacity:1;color:#000000;fill:#000000;fill-opacity:1;fill-rule:nonzero;stroke:none;stroke-width:80;stroke-linecap:butt;stroke-linejoin:miter;marker:none;marker-start:none;marker-mid:none;marker-end:none;stroke-miterlimit:4;stroke-dasharray:none;stroke-dashoffset:0;stroke-opacity:0.25465836;visibility:visible;display:inline;overflow:visible"
       id="path4126"
       d="M 521.49923,668.59581 C 519.84219,677.31582 517.57398,685.93021 515.78311,694.6339 C 509.83685,725.60174 505.95531,757.05836 505.74035,788.6526 C 505.83772,813.79192 508.20941,840.42199 525.51048,859.60171 C 540.20568,876.96215 574.25994,880.18834 579.6104,880.11739 C 605.6912,879.02084 627.97716,864.85571 642.98312,843.31112 C 658.15052,819.67589 660.2098,790.8583 657.05771,763.41262 C 656.04616,756.44379 656.59907,759.88582 655.40486,753.08542 L 674.57562,751.21282 C 675.62266,758.51923 675.14061,754.82432 676.01636,762.29824 C 678.749,792.72171 676.1934,824.4441 660.08789,850.90143 C 643.7167,875.80665 619.33783,893.3712 589.86128,896.63318 C 560.18371,899.00619 528.94664,891.42399 508.05392,868.39966 C 489.98371,845.82405 487.07889,816.64884 487.6479,788.27165 C 488.31974,756.07331 492.33487,724.1145 496.25593,692.19869 C 497.11998,685.28393 498.97781,673.65442 498.69076,668.3857 L 521.49923,668.59581 z " />
  </g>
</svg>
