<?xml version="1.0" encoding="UTF-8" standalone="no"?>
<!-- Created with Inkscape (http://www.inkscape.org/) -->
<svg
   xmlns:dc="http://purl.org/dc/elements/1.1/"
   xmlns:cc="http://web.resource.org/cc/"
   xmlns:rdf="http://www.w3.org/1999/02/22-rdf-syntax-ns#"
   xmlns:svg="http://www.w3.org/2000/svg"
   xmlns="http://www.w3.org/2000/svg"
   xmlns:sodipodi="http://inkscape.sourceforge.net/DTD/sodipodi-0.dtd"
   xmlns:inkscape="http://www.inkscape.org/namespaces/inkscape"
   width="1000"
   height="1000"
   id="svg2"
   sodipodi:version="0.32"
   inkscape:version="0.43"
   version="1.0"
   sodipodi:docbase="/home/kkowal/tale/art/monster"
   sodipodi:docname="penguin.svg"
   inkscape:export-filename="/home/kkowal/tale/art/monster/penguin.png"
   inkscape:export-xdpi="90"
   inkscape:export-ydpi="90">
  <defs
     id="defs4" />
  <sodipodi:namedview
     id="base"
     pagecolor="#ffffff"
     bordercolor="#666666"
     borderopacity="1.0"
     inkscape:pageopacity="0.0"
     inkscape:pageshadow="2"
     inkscape:zoom="0.7"
     inkscape:cx="700.01562"
     inkscape:cy="524.18599"
     inkscape:document-units="px"
     inkscape:current-layer="layer1"
     inkscape:window-width="1600"
     inkscape:window-height="1125"
     inkscape:window-x="0"
     inkscape:window-y="25" />
  <metadata
     id="metadata7">
    <rdf:RDF>
      <cc:Work
         rdf:about="">
        <dc:format>image/svg+xml</dc:format>
        <dc:type
           rdf:resource="http://purl.org/dc/dcmitype/StillImage" />
      </cc:Work>
    </rdf:RDF>
  </metadata>
  <g
     inkscape:groupmode="layer"
     id="layer2"
     inkscape:label="penguin"
     style="display:inline">
    <path
       style="opacity:1;color:#000000;fill:#303030;fill-opacity:1;fill-rule:nonzero;stroke:none;stroke-width:80;stroke-linecap:butt;stroke-linejoin:miter;marker:none;marker-start:none;marker-mid:none;marker-end:none;stroke-miterlimit:4;stroke-dasharray:none;stroke-dashoffset:0;stroke-opacity:0.25465836;visibility:visible;display:inline;overflow:visible"
       d="M 401.39704,541.67708 C 387.85266,569.93302 364.45287,590.97151 343.36844,613.08689 C 328.29631,637.00488 328.29797,669.98487 343.37135,693.90182 C 352.32315,703.18186 366.68372,701.18612 377.30101,696.38915 C 401.62327,688.32151 422.2331,668.43309 430.70527,643.46281 C 438.84212,627.41739 450.18009,611.56977 449.93606,592.65096 C 450.94024,574.67945 454.02571,555.056 445.02361,538.60555 C 436.44524,524.48016 413.74655,522.04028 403.91286,535.94534 C 402.73627,537.67065 401.85805,539.61939 401.39704,541.67708 z "
       id="path6032" />
    <path
       style="opacity:1;color:#000000;fill:#000000;fill-opacity:1;fill-rule:nonzero;stroke:none;stroke-width:80;stroke-linecap:butt;stroke-linejoin:miter;marker:none;marker-start:none;marker-mid:none;marker-end:none;stroke-miterlimit:4;stroke-dasharray:none;stroke-dashoffset:0;stroke-opacity:0.25465836;visibility:visible;display:inline;overflow:visible"
       id="path4138"
       d="M 395.34035,561.85521 C 394.80445,567.12772 390.24299,570.3423 386.81524,573.92272 C 376.18692,584.4659 366.47716,595.89487 358.12678,608.43489 C 348.49456,622.48405 342.22669,638.29277 340.77863,655.45999 C 340.21627,667.0699 340.99757,679.48133 347.52483,689.32018 C 350.95044,694.09177 366.97894,693.64554 352.94308,692.87855 C 350.21898,692.72969 358.40578,692.74821 361.11446,692.41475 C 370.5735,690.57474 379.30528,686.23853 387.58801,681.33066 L 400.24321,691.94005 C 391.0675,697.52569 381.46592,702.44357 371.14872,705.37247 C 357.33216,709.09904 340.61216,708.8751 332.2179,695.24268 C 325.38998,682.90687 324.55751,668.21001 325.46944,654.32326 C 327.29411,635.51524 333.73676,617.94815 344.23166,602.41721 C 352.63537,589.42894 362.18312,577.33496 372.40313,565.82093 C 373.82324,564.13088 379.91725,554.22952 377.6093,561.69189 L 395.34035,561.85521 z " />
    <path
       style="opacity:1;color:#000000;fill:#ff7000;fill-opacity:1;fill-rule:nonzero;stroke:none;stroke-width:80;stroke-linecap:butt;stroke-linejoin:miter;marker:none;marker-start:none;marker-mid:none;marker-end:none;stroke-miterlimit:4;stroke-dasharray:none;stroke-dashoffset:0;stroke-opacity:0.25465836;visibility:visible;display:inline;overflow:visible"
       d="M 393.59616,721.05948 C 385.61771,728.93122 379.66759,740.43004 381.67362,752.0866 C 388.60884,765.78503 407.0057,768.93471 419.62483,762.23072 C 436.73344,757.77263 453.05773,750.40009 468.19422,741.09251 C 477.47723,738.8705 487.09881,745.85241 489.83922,754.92354 C 507.25418,777.60653 545.04958,779.68798 563.56688,757.37341 C 573.34063,743.88067 567.7766,724.39821 556.67852,713.63531 C 542.79242,698.19319 518.22121,696.76817 501.45128,707.96109 C 491.26664,713.84195 484.20114,724.2936 473.71877,729.58454 C 462.64233,732.64524 452.24545,725.54618 443.99412,718.76466 C 431.99983,711.04349 415.93709,709.07901 403.40123,716.61862 C 400.11418,718.05491 396.88178,719.61982 393.59616,721.05948 z "
       id="path6070" />
    <path
       style="opacity:1;color:#000000;fill:#303030;fill-opacity:1;fill-rule:nonzero;stroke:none;stroke-width:80;stroke-linecap:butt;stroke-linejoin:miter;marker:none;marker-start:none;marker-mid:none;marker-end:none;stroke-miterlimit:4;stroke-dasharray:none;stroke-dashoffset:0;stroke-opacity:0.25465836;visibility:visible;display:inline;overflow:visible"
       d="M 358.04107,691.25766 C 364.35019,718.1825 392.99759,727.08197 414.79984,736.70709 C 460.55242,752.87231 509.57821,745.39166 556.789,743.59729 C 596.38382,738.55014 641.3849,729.24766 665.97435,693.52229 C 685.9851,659.91469 678.64288,615.19843 655.88706,585.07199 C 613.74153,502.98917 575.03822,416.93855 513.3868,347.98908 C 492.64072,329.0214 455.58687,327.50141 438.36752,352.26373 C 415.02022,381.15819 411.62688,420.23842 396.36717,453.36054 C 375.85527,510.59732 351.53908,567.72079 345.74386,629.05431 C 345.36011,650.52285 354.1136,670.5159 358.04107,691.25766 z "
       id="path5080" />
    <path
       style="opacity:1;color:#000000;fill:#e2e2e2;fill-opacity:1;fill-rule:nonzero;stroke:none;stroke-width:80;stroke-linecap:butt;stroke-linejoin:miter;marker:none;marker-start:none;marker-mid:none;marker-end:none;stroke-miterlimit:4;stroke-dasharray:none;stroke-dashoffset:0;stroke-opacity:0.25465836;visibility:visible;display:inline;overflow:visible"
       d="M 396.64323,450.2179 C 371.98193,511.54494 345.58823,576.40874 352.79877,644.28423 C 356.35966,673.41454 363.51619,707.47327 390.76997,722.70443 C 434.29588,749.89913 487.09348,747.50459 536.07991,746.95974 C 556.19753,746.87949 576.35115,746.79366 596.39969,744.87556 C 612.14321,737.01266 600.40133,717.05464 587.75001,713.34416 C 574.61111,711.80652 563.33008,704.41395 553.21422,695.66959 C 526.83658,673.54886 509.97208,640.19435 507.04953,605.31881 C 501.78337,581.83632 495.84192,558.37068 494.17777,534.26883 C 486.03329,495.3425 464.68735,461.3982 446.57967,426.82639 C 440.82001,414.88717 429.76906,397.74707 414.70569,405.33655 C 399.48832,413.99501 401.38527,434.24381 397.23604,449.05472 L 396.84683,449.81842 L 396.64323,450.2179 z "
       id="path7877" />
    <path
       style="opacity:1;color:#000000;fill:#000000;fill-opacity:1;fill-rule:nonzero;stroke:none;stroke-width:80;stroke-linecap:butt;stroke-linejoin:miter;marker:none;marker-start:none;marker-mid:none;marker-end:none;stroke-miterlimit:4;stroke-dasharray:none;stroke-dashoffset:0;stroke-opacity:0.25465836;visibility:visible;display:inline;overflow:visible"
       d="M 479.7781,325.28812 C 551.17543,333.3372 570.96112,413.76183 599.29181,468.87505 C 632.60155,533.6115 680.33792,596.55448 684.94972,671.90255 C 670.84418,744.51286 585.16528,751.99601 526.74532,754.89856 C 460.85115,756.02827 354.99297,760.63029 342.84743,672.19097 C 335.35347,581.02506 371.28351,493.53679 400.79774,409.36974 C 414.82751,371.69249 430.76242,320.87663 479.7781,325.28812 z M 476.26661,344.9965 L 473.37401,345.087 L 476.26661,344.9965 z M 480.17457,345.36252 C 423.34833,355.84329 423.03319,428.76937 399.0146,471.37357 C 373.77879,541.62229 345.35406,621.96941 371.24712,695.79763 C 409.65372,748.74429 483.32696,737.52078 539.86159,738.24301 C 595.34745,737.83666 682.37065,709.24668 659.33112,635.01741 C 627.14673,545.43894 573.69275,465.55433 529.96474,381.6135 C 521.29697,361.75707 500.59702,348.54689 480.17457,345.36252 z "
       id="path3946" />
    <path
       style="opacity:1;color:#000000;fill:#000000;fill-opacity:1;fill-rule:nonzero;stroke:none;stroke-width:80;stroke-linecap:butt;stroke-linejoin:miter;marker:none;marker-start:none;marker-mid:none;marker-end:none;stroke-miterlimit:4;stroke-dasharray:none;stroke-dashoffset:0;stroke-opacity:0.25465836;visibility:visible;display:inline;overflow:visible"
       id="path3988"
       d="M 391.93522,738.9986 C 395.86268,736.17788 396.72595,730.93282 393.47177,737.26496 C 391.63372,740.93587 392.08579,744.57911 393.32585,748.29809 C 395.89136,751.41615 400.09804,751.54542 403.82581,752.02063 C 427.35598,749.23338 381.69348,758.21946 423.91866,750.11989 C 432.9538,748.3784 441.75781,745.53981 449.91239,741.15464 L 468.73447,756.35652 C 459.39773,762.14765 449.10166,765.90574 438.45991,768.27758 C 422.39232,771.89675 405.43072,774.54315 389.13168,771.21137 C 380.21927,768.72659 372.92808,763.5786 369.71547,754.32469 C 367.60869,746.77114 367.16639,738.85835 369.69717,731.31817 C 371.49752,726.15936 373.10386,720.78372 377.50642,717.33537 L 391.93522,738.9986 z " />
    <path
       style="opacity:1;color:#000000;fill:#000000;fill-opacity:1;fill-rule:nonzero;stroke:none;stroke-width:80;stroke-linecap:butt;stroke-linejoin:miter;marker:none;marker-start:none;marker-mid:none;marker-end:none;stroke-miterlimit:4;stroke-dasharray:none;stroke-dashoffset:0;stroke-opacity:0.25465836;visibility:visible;display:inline;overflow:visible"
       id="path3990"
       d="M 502.39559,748.38003 C 501.72997,745.63558 502.8124,748.85493 503.11959,749.7058 C 504.19744,752.63548 505.83791,755.12586 507.8727,757.40342 C 510.68172,759.45483 514.24755,759.9681 517.5793,760.62092 C 524.07686,762.54845 550.51647,761.43345 526.82653,761.97865 C 533.0692,762.09385 539.21841,761.21501 545.16267,759.30189 C 548.66458,758.06833 551.4544,755.77328 554.03884,753.13796 C 555.95948,751.11629 556.85092,748.5174 557.77472,745.91932 C 558.62472,743.18661 559.33254,740.40924 560.0881,737.64764 L 584.59219,742.12259 C 583.74379,745.04133 582.92551,747.96883 582.08207,750.88914 C 580.65428,755.31532 579.138,759.76213 576.50284,763.60667 C 572.89441,768.57887 568.55905,772.86802 563.2605,775.90917 C 555.95813,779.8121 548.08027,781.9487 539.84844,782.43091 C 527.17471,782.75429 514.41848,783.22923 502.08644,779.62686 C 495.70847,777.50992 489.83416,774.57918 485.82779,768.79845 C 483.23089,765.04631 481.04357,761.03743 479.23057,756.82057 C 478.27278,754.52674 477.15067,752.26748 476.94057,749.74467 L 502.39559,748.38003 z " />
    <path
       style="opacity:1;color:#000000;fill:#ff7000;fill-opacity:1;fill-rule:nonzero;stroke:none;stroke-width:80;stroke-linecap:butt;stroke-linejoin:miter;marker:none;marker-start:none;marker-mid:none;marker-end:none;stroke-miterlimit:4;stroke-dasharray:none;stroke-dashoffset:0;stroke-opacity:0.25465836;visibility:visible;display:inline;overflow:visible"
       d="M 443.25715,421.68358 C 432.56582,418.3759 428.2613,405.29094 417.38427,402.33572 C 402.49812,395.37257 385.81676,397.89766 369.99963,397.07688 C 352.20445,397.86331 334.55759,405.22546 321.70722,418.01333 C 318.159,422.49569 318.1627,430.73131 323.79904,433.44885 C 330.28256,436.83506 337.77968,435.36468 344.75353,435.95718 C 368.93903,435.70527 392.95652,432.48514 416.9673,429.82295 C 424.17493,429.05574 431.44219,428.75315 438.63936,428.04586 C 441.23887,427.31248 444.72902,424.93444 443.25715,421.68358 z "
       id="path5971" />
    <path
       style="opacity:1;color:#000000;fill:#000000;fill-opacity:1;fill-rule:nonzero;stroke:none;stroke-width:80;stroke-linecap:butt;stroke-linejoin:miter;marker:none;marker-start:none;marker-mid:none;marker-end:none;stroke-miterlimit:4;stroke-dasharray:none;stroke-dashoffset:0;stroke-opacity:0.25465836;visibility:visible;display:inline;overflow:visible"
       id="path4006"
       d="M 630.4135,734.79954 C 625.99983,738.64694 615.13859,738.70773 608.1959,738.2371 C 590.80538,733.3483 576.71415,721.72157 564.05665,708.93968 C 539.97468,683.83091 521.38226,653.89817 507.24534,621.86346 C 491.51368,584.5262 485.0106,544.11829 474.61329,505.0656 C 464.91564,471.26825 448.86081,437.82054 421.27082,415.9159 C 394.29138,399.48281 384.54685,399.77313 361.01339,405.70366 C 348.98777,409.51929 335.57337,414.58309 327.89567,425.44115 C 332.8302,428.39947 346.60555,425.48214 353.08681,425.74427 C 330.70281,427.79709 387.86272,423.15152 392.7954,422.45579 C 401.99294,421.13271 411.14864,419.51697 420.2379,417.55557 C 423.72951,416.79177 427.18507,415.87342 430.63859,414.94783 L 446.39414,434.25589 C 442.66977,435.16324 438.94999,436.09967 435.19829,436.88263 C 425.50393,438.9298 415.71419,440.43602 405.86681,441.45474 C 384.36525,443.80368 362.70636,445.33443 341.08672,444.03576 C 326.27274,443.06044 298.97669,440.42647 305.25944,418.04604 C 312.95519,401.82831 332.25488,394.88503 347.64857,389.43148 C 378.67111,380.81841 412.04859,383.7173 437.40033,405.4982 C 465.04518,430.76029 481.40899,466.13784 491.66425,502.19128 C 501.78636,540.66104 507.73743,580.60711 524.15154,617.03005 C 538.07973,647.55811 556.61225,676.08186 581.35943,698.44344 C 593.01723,708.43247 606.54122,718.23305 622.30328,718.32765 C 619.48466,718.16928 630.22222,727.07474 632.52365,728.75989 L 630.4135,734.79954 z "
       sodipodi:nodetypes="ccccccccccccccccccccccccc" />
    <path
       style="opacity:1;color:#000000;fill:#adcbca;fill-opacity:1;fill-rule:nonzero;stroke:none;stroke-width:80;stroke-linecap:butt;stroke-linejoin:miter;marker:none;marker-start:none;marker-mid:none;marker-end:none;stroke-miterlimit:4;stroke-dasharray:none;stroke-dashoffset:0;stroke-opacity:0.25465836;visibility:visible;display:inline;overflow:visible"
       d="M 481.20361,382.78814 C 473.98931,381.99876 466.73276,387.33516 464.92912,394.54514 C 462.94687,399.08495 464.53566,405.11768 468.82249,407.60974 C 473.58314,410.82338 479.84652,410.51201 484.92032,408.26857 C 489.84995,406.264 494.2516,402.30832 495.99851,397.0467 C 496.72134,392.53865 494.34754,388.11283 491.20036,385.1508 C 488.95177,383.28094 485.9034,382.60643 483.07541,383.05474 C 482.69003,382.99201 482.3088,382.86973 481.97615,382.65538"
       id="path9641" />
    <path
       style="opacity:1;color:#000000;fill:#000000;fill-opacity:1;fill-rule:nonzero;stroke:none;stroke-width:80;stroke-linecap:butt;stroke-linejoin:miter;marker:none;marker-start:none;marker-mid:none;marker-end:none;stroke-miterlimit:4;stroke-dasharray:none;stroke-dashoffset:0;stroke-opacity:0.25465836;visibility:visible;display:inline;overflow:visible"
       d="M 484.03023,373.74263 C 483.89553,373.74905 483.75015,373.76866 483.61609,373.77688 C 469.06783,373.84849 457.81199,389.53364 459.81323,403.91721 C 457.12086,411.81064 447.71285,410.39016 441.38852,411.83125 C 432.78963,415.07089 437.00663,425.13351 432.14364,430.58829 C 435.92022,436.50036 444.99489,434.84143 450.95372,433.61271 C 466.49248,428.40548 482.6963,422.37057 494.47068,410.20604 C 502.03224,402.53397 506.12214,389.39586 499.12216,379.93345 C 495.77336,374.81551 489.64281,373.47546 484.03023,373.74263 z M 479.417,386.01211 C 479.60079,385.99891 479.43826,386.00855 479.62639,386.01139 C 483.56204,386.60081 489.14634,388.28539 488.71341,393.43808 C 487.91081,398.84005 482.25544,400.91524 477.71654,402.37824 C 472.54217,404.33855 470.04972,400.0383 471.73406,396.3631 C 472.92787,391.2416 474.89582,386.33696 479.417,386.01211 z "
       id="path4016"
       sodipodi:nodetypes="ccccccccccccccc" />
    <path
       style="opacity:1;color:#000000;fill:#303030;fill-opacity:1;fill-rule:nonzero;stroke:none;stroke-width:80;stroke-linecap:butt;stroke-linejoin:miter;marker:none;marker-start:none;marker-mid:none;marker-end:none;stroke-miterlimit:4;stroke-dasharray:none;stroke-dashoffset:0;stroke-opacity:0.25465836;visibility:visible;display:inline;overflow:visible"
       d="M 511.72133,520.05188 C 513.38669,566.06053 494.48025,611.48332 504.43105,657.40398 C 508.31599,677.53908 515.72975,699.64926 534.10678,710.32262 C 555.65493,719.59641 580.21946,715.61481 601.45417,707.46006 C 617.34568,699.44493 626.3747,682.35531 631.06213,665.4828 C 639.33027,644.95043 640.95088,620.14221 629.21965,600.62169 C 620.42158,583.0694 611.08378,565.78702 602.68548,548.03867 C 588.96977,524.02496 569.27358,501.13325 542.50974,493.14803 C 527.0554,490.42703 512.18107,504.18639 511.72133,520.05188 z "
       id="path5998" />
    <path
       style="opacity:1;color:#000000;fill:#000000;fill-opacity:1;fill-rule:nonzero;stroke:none;stroke-width:80;stroke-linecap:butt;stroke-linejoin:miter;marker:none;marker-start:none;marker-mid:none;marker-end:none;stroke-miterlimit:4;stroke-dasharray:none;stroke-dashoffset:0;stroke-opacity:0.25465836;visibility:visible;display:inline;overflow:visible"
       id="path4126"
       d="M 521.68495,545.7292 C 520.39679,552.50805 518.63349,559.20478 517.24129,565.97095 C 512.61872,590.04503 509.60127,614.49909 509.43417,639.06012 C 509.50986,658.60315 511.35358,679.30509 524.80325,694.21522 C 536.22715,707.71103 562.70057,710.21904 566.85996,710.16389 C 587.13491,709.31143 604.45979,698.29961 616.12527,681.55108 C 627.91624,663.1773 629.5171,640.77481 627.0667,619.43882 C 626.28032,614.0213 626.71017,616.69712 625.78178,611.41056 L 640.68495,609.95481 C 641.4989,615.63474 641.12415,612.76236 641.80495,618.57252 C 643.92929,642.2234 641.94259,666.88406 629.42234,687.45171 C 616.69554,706.81276 597.74366,720.46727 574.8289,723.00309 C 551.75785,724.84785 527.47448,718.95353 511.2327,701.05464 C 497.1851,683.5046 494.92694,660.8241 495.36928,638.76398 C 495.89156,613.73332 499.01287,588.88886 502.06107,564.07784 C 502.73276,558.70238 504.17702,549.66172 503.95389,545.56588 L 521.68495,545.7292 z " />
  </g>
</svg>
