<?xml version="1.0" encoding="UTF-8" standalone="no"?>
<!-- Created with Inkscape (http://www.inkscape.org/) -->
<svg
   xmlns:dc="http://purl.org/dc/elements/1.1/"
   xmlns:cc="http://web.resource.org/cc/"
   xmlns:rdf="http://www.w3.org/1999/02/22-rdf-syntax-ns#"
   xmlns:svg="http://www.w3.org/2000/svg"
   xmlns="http://www.w3.org/2000/svg"
   xmlns:sodipodi="http://sodipodi.sourceforge.net/DTD/sodipodi-0.dtd"
   xmlns:inkscape="http://www.inkscape.org/namespaces/inkscape"
   width="400"
   height="400"
   id="svg2"
   sodipodi:version="0.32"
   inkscape:version="0.45.1"
   version="1.0"
   sodipodi:docbase="/home/kris/tale/art"
   sodipodi:docname="poler-bear.svg"
   inkscape:output_extension="org.inkscape.output.svg.inkscape">
  <defs
     id="defs4" />
  <sodipodi:namedview
     id="base"
     pagecolor="#ffffff"
     bordercolor="#666666"
     borderopacity="1.0"
     gridtolerance="10000"
     guidetolerance="10"
     objecttolerance="10"
     inkscape:pageopacity="0.0"
     inkscape:pageshadow="2"
     inkscape:zoom="1.4142136"
     inkscape:cx="385.11626"
     inkscape:cy="146.16595"
     inkscape:document-units="px"
     inkscape:current-layer="g26227"
     width="400px"
     height="400px"
     inkscape:window-width="1680"
     inkscape:window-height="979"
     inkscape:window-x="0"
     inkscape:window-y="45"
     showguides="true"
     inkscape:guide-bbox="true" />
  <metadata
     id="metadata7">
    <rdf:RDF>
      <cc:Work
         rdf:about="">
        <dc:format>image/svg+xml</dc:format>
        <dc:type
           rdf:resource="http://purl.org/dc/dcmitype/StillImage" />
      </cc:Work>
    </rdf:RDF>
  </metadata>
  <g
     inkscape:label="Layer 1"
     inkscape:groupmode="layer"
     id="layer1">
    <g
       id="g26227"
       transform="matrix(3.0833294,0,0,3.0833294,-277.04984,-466.75802)">
      <path
         style="opacity:1;color:#000000;fill:#ffffff;fill-opacity:1;fill-rule:evenodd;stroke:none;stroke-width:1px;stroke-linecap:butt;stroke-linejoin:miter;marker:none;marker-start:none;marker-mid:none;marker-end:none;stroke-miterlimit:4;stroke-dasharray:none;stroke-dashoffset:0;stroke-opacity:1;visibility:visible;display:inline;overflow:visible;enable-background:accumulate"
         d="M 136.78121,193.60648 C 138.54123,194.83669 141.5353,191.54315 138.28179,191.49568 C 137.30374,191.59837 136.50359,192.61327 136.72389,193.59215"
         id="path27278" />
      <path
         style="opacity:1;color:#000000;fill:#ffffff;fill-opacity:1;fill-rule:evenodd;stroke:none;stroke-width:1px;stroke-linecap:butt;stroke-linejoin:miter;marker:none;marker-start:none;marker-mid:none;marker-end:none;stroke-miterlimit:4;stroke-dasharray:none;stroke-dashoffset:0;stroke-opacity:1;visibility:visible;display:inline;overflow:visible;enable-background:accumulate"
         d="M 192.7481,258.20563 C 196.26619,263.09398 203.73688,259.20507 199.73081,252.91314 C 198.39024,248.33716 189.74679,244.79125 188.20634,250.84669 C 188.22614,253.57774 190.05288,255.90768 191.65351,257.96237"
         id="path27271"
         sodipodi:nodetypes="cccc" />
      <path
         d="M 193.69281,256.61181 C 193.74054,256.81872 193.85196,256.99989 193.94531,257.18757 C 194.16645,257.58451 194.48755,257.90005 194.80494,258.21801 C 195.2749,258.6672 195.8475,258.95681 196.42261,259.24164 C 197.11132,259.55798 197.85054,259.64419 198.59394,259.71514 C 199.89493,259.80505 201.99047,258.45796 198.35866,260.49154 C 199.14415,259.82636 199.21927,258.8565 199.2981,257.88564 C 199.33497,256.5932 198.93358,255.35537 198.49398,254.15724 C 198.06514,253.02991 197.46009,251.99002 196.74252,251.02488 C 196.14836,250.23823 195.39306,249.6192 194.5601,249.1042 C 193.93962,248.72056 193.2496,248.51002 192.55318,248.31932 C 192.05889,248.19548 191.55262,248.1623 191.04608,248.14084 C 190.74878,248.1343 190.45255,248.16212 190.15637,248.18121 L 192.26448,246.62723 C 192.56338,246.61722 192.86255,246.59839 193.16163,246.6184 C 193.6747,246.65953 194.18716,246.71295 194.68454,246.85448 C 195.39022,247.07202 196.08773,247.31214 196.71208,247.71958 C 197.55515,248.26909 198.32018,248.91978 198.92231,249.7339 C 199.6447,250.72468 200.25744,251.78759 200.69331,252.93738 C 201.14377,254.16482 201.55698,255.43184 201.55991,256.75341 C 201.49811,257.75438 201.44901,258.77068 200.76561,259.56067 C 199.08365,260.52236 198.27276,261.30288 196.50065,261.21035 C 195.73375,261.13576 194.97879,260.98586 194.27351,260.66363 C 193.67846,260.35763 193.08565,260.04708 192.59689,259.57854 C 192.26008,259.24287 191.9198,258.90864 191.67692,258.49435 C 191.56668,258.29072 191.4416,258.09362 191.37173,257.8707 L 193.69281,256.61181 z "
         id="path3400"
         style="fill:#000000;fill-opacity:1;stroke:none;stroke-opacity:1" />
      <path
         style="opacity:1;color:#000000;fill:#ffffff;fill-opacity:1;fill-rule:evenodd;stroke:none;stroke-width:1px;stroke-linecap:butt;stroke-linejoin:miter;marker:none;marker-start:none;marker-mid:none;marker-end:none;stroke-miterlimit:4;stroke-dasharray:none;stroke-dashoffset:0;stroke-opacity:1;visibility:visible;display:inline;overflow:visible;enable-background:accumulate"
         d="M 162.30212,271.17862 C 167.9593,273.72509 174.6024,275.69321 180.68707,273.74533 C 185.37642,273.14467 190.4928,260.88362 182.42568,265.52548 C 175.73354,268.06032 168.11765,264.50148 161.73706,268.16396 C 160.12107,268.99945 161.17283,270.6211 162.30212,271.17862 z "
         id="path27264" />
      <path
         d="M 162.55666,269.09204 C 162.64169,269.2884 162.76732,269.46131 162.8819,269.64026 C 163.13128,269.98345 163.43894,270.27738 163.73842,270.5757 C 164.15374,270.99881 164.63432,271.34237 165.1158,271.6837 C 165.72679,272.09206 166.38905,272.40931 167.06147,272.70108 C 167.82788,273.02319 168.62629,273.25713 169.43071,273.46186 C 170.28686,273.67731 171.15836,273.81878 172.03343,273.9294 C 172.91159,274.04222 173.7971,274.05241 174.68083,274.03678 C 175.57442,274.01995 176.46453,273.94144 177.35228,273.84315 C 178.18388,273.75623 179.00045,273.58429 179.80368,273.35611 C 180.49728,273.16326 181.15389,272.87142 181.80637,272.57268 C 181.51481,272.88407 183.27853,271.71126 182.921,271.94394 C 182.29309,272.35146 181.66516,272.75898 181.03724,273.1665 C 181.12053,273.10945 181.20382,273.05241 181.2871,272.99536 C 181.74142,272.67799 182.16778,272.32397 182.59415,271.97077 C 182.97846,271.65892 183.32219,271.30425 183.66182,270.9458 C 183.97498,270.60316 184.2572,270.23449 184.53844,269.8658 C 184.79331,269.53161 185.01104,269.17232 185.22797,268.81312 C 185.30105,268.69186 185.36885,268.56756 185.4393,268.44479 L 187.76558,267.26776 C 187.69602,267.39208 187.6259,267.51608 187.55691,267.64072 C 187.34276,268.00747 187.12835,268.37495 186.87752,268.71836 C 186.59814,269.09509 186.31504,269.46921 186.00791,269.82413 C 185.67292,270.19307 185.33628,270.56156 184.95155,270.88046 C 184.52448,271.24045 184.09825,271.60207 183.64599,271.93069 C 182.40859,272.74454 181.21697,273.6535 179.86524,274.27451 C 179.20608,274.56063 178.5426,274.83888 177.84429,275.018 C 177.03307,275.22966 176.20961,275.3854 175.37445,275.46713 C 174.48169,275.559 173.58664,275.63043 172.68871,275.6417 C 171.7966,275.64984 170.90337,275.62765 170.01813,275.50584 C 169.13595,275.38648 168.25741,275.23739 167.39472,275.01455 C 166.57921,274.80044 165.76922,274.55962 164.99282,274.22733 C 164.30712,273.9259 163.63468,273.59392 163.01063,273.17667 C 162.51582,272.82683 162.02217,272.47453 161.59337,272.04258 C 161.27994,271.73489 160.95926,271.4314 160.6934,271.08002 C 160.56788,270.89547 160.43109,270.71724 160.3334,270.51512 L 162.55666,269.09204 z "
         id="path3392"
         style="fill:#000000;fill-opacity:1;stroke:none;stroke-opacity:1" />
      <path
         style="opacity:1;color:#000000;fill:#ffffff;fill-opacity:1;fill-rule:evenodd;stroke:none;stroke-width:1px;stroke-linecap:butt;stroke-linejoin:miter;marker:none;marker-start:none;marker-mid:none;marker-end:none;stroke-miterlimit:4;stroke-dasharray:none;stroke-dashoffset:0;stroke-opacity:1;visibility:visible;display:inline;overflow:visible;enable-background:accumulate"
         d="M 137.93724,263.96237 C 137.0197,273.2073 151.61579,274.76202 156.38591,268.90871 C 159.91729,258.88099 145.64098,258.80293 139.97085,262.98848 L 138.83036,263.47385 L 137.69398,263.96238"
         id="path27247" />
      <path
         d="M 139.84787,260.57889 C 139.72543,260.73314 139.62523,260.90289 139.51672,261.06675 C 139.34016,261.32576 139.22925,261.61751 139.10607,261.903 C 138.95603,262.26786 138.87371,262.65251 138.791,263.0364 C 138.69901,263.47717 138.67205,263.92562 138.64838,264.37383 C 138.62431,264.82256 138.66108,265.2694 138.70391,265.71537 C 138.74587,266.13784 138.87266,266.54102 139.00288,266.94228 C 139.13895,267.34259 139.35669,267.70146 139.58071,268.0564 C 139.82788,268.4358 140.15888,268.73974 140.49073,269.04183 C 140.85462,269.35968 141.26859,269.60817 141.68097,269.85594 C 142.10765,270.1042 142.56459,270.28891 143.02178,270.4711 C 143.49455,270.64764 143.98681,270.75719 144.47814,270.86616 C 144.96756,270.97257 145.46397,271.03283 145.96097,271.08835 C 146.48859,271.14433 147.01883,271.1542 147.54878,271.16234 C 148.11439,271.16509 148.67919,271.13983 149.24387,271.11207 C 149.77031,271.08592 150.29415,271.02798 150.81773,270.96982 C 151.29309,270.91695 151.76462,270.83725 152.23586,270.75688 C 152.66803,270.67696 153.09299,270.56467 153.51713,270.45085 C 153.92069,270.34062 154.31106,270.19054 154.70102,270.04076 C 155.08041,269.88988 155.4534,269.72395 155.82549,269.55614 C 156.10976,269.42502 156.39035,269.28633 156.67164,269.14912 L 154.71093,270.87764 C 154.42847,271.01167 154.14725,271.14845 153.8612,271.27476 C 153.48664,271.4393 153.11155,271.60298 152.72872,271.74766 C 152.33334,271.89126 151.93703,272.03325 151.52849,272.13593 C 151.09986,272.24343 150.67085,272.35136 150.23415,272.42191 C 149.76081,272.4971 149.2871,272.57067 148.81019,272.62019 C 148.28472,272.67321 147.75891,272.72417 147.231,272.74641 C 146.66247,272.76944 146.09374,272.79123 145.52458,272.78394 C 144.98834,272.77085 144.45178,272.75627 143.91835,272.69416 C 143.41537,272.63103 142.91291,272.56296 142.418,272.4501 C 141.91756,272.33136 141.41629,272.21168 140.93653,272.02224 C 140.47019,271.82963 140.00422,271.63419 139.5701,271.37405 C 139.14713,271.11356 138.72272,270.8524 138.35035,270.52039 C 138.00356,270.20083 137.6585,269.87842 137.39811,269.48053 C 137.16202,269.10821 136.93241,268.7318 136.78548,268.31294 C 136.64508,267.89589 136.50849,267.47653 136.45806,267.03673 C 136.40851,266.57886 136.36569,266.11996 136.38419,265.65839 C 136.40143,265.19968 136.4214,264.74072 136.50455,264.28799 C 136.57955,263.89362 136.65039,263.49693 136.79157,263.11935 C 136.90495,262.82215 137.00561,262.51891 137.17044,262.24441 C 137.27144,262.07638 137.37025,261.90689 137.47872,261.74356 L 139.84787,260.57889 z "
         id="path3384"
         style="fill:#000000;fill-opacity:1;stroke:none;stroke-opacity:1" />
      <path
         style="opacity:1;color:#000000;fill:#ffffff;fill-opacity:1;fill-rule:evenodd;stroke:none;stroke-width:1px;stroke-linecap:butt;stroke-linejoin:miter;marker:none;marker-start:none;marker-mid:none;marker-end:none;stroke-miterlimit:4;stroke-dasharray:none;stroke-dashoffset:0;stroke-opacity:1;visibility:visible;display:inline;overflow:visible;enable-background:accumulate"
         d="M 140.45074,231.00288 C 136.34051,237.24787 129.43038,245.11295 132.67364,252.90328 C 137.86877,259.78622 148.79176,257.1242 146.08801,247.60796 C 146.65875,242.39709 152.54419,222.51519 140.45074,231.00288 z "
         id="path27241" />
      <path
         id="path23288"
         d="M 143.71313,192.21875 C 136.13015,193.15421 128.86856,196.92438 123.74946,202.5327 C 120.39685,210.07272 130.14814,213.94464 136.19079,213.19846 C 146.11935,213.02551 141.82227,225.31042 141.31367,231.39383 C 139.68525,239.86516 136.55879,247.96014 134.24569,256.22475 C 134.46182,262.43058 140.97054,266.85409 146.63394,267.63898 C 152.55842,269.7526 158.63806,271.2164 164.96671,271.0485 C 174.36103,271.78419 186.25338,271.33657 191.66831,262.26826 C 194.87525,256.14937 189.90873,249.89437 189.17813,243.69564 C 185.9483,236.17311 186.40647,227.469 181.82968,220.46378 C 180.29731,212.83411 175.32354,207.50151 169.44853,202.87415 C 163.31173,194.91435 153.31116,192.38126 143.71313,192.21875 z "
         style="opacity:1;color:#000000;fill:#ffffff;fill-opacity:1;fill-rule:evenodd;stroke:none;stroke-width:1px;stroke-linecap:butt;stroke-linejoin:miter;marker:none;marker-start:none;marker-mid:none;marker-end:none;stroke-miterlimit:4;stroke-dasharray:none;stroke-dashoffset:0;stroke-opacity:1;visibility:visible;display:inline;overflow:visible;enable-background:accumulate" />
      <path
         id="path8470"
         d="M 124.27027,208.5761 C 126.74355,206.88445 131.9146,204.88271 132.50622,209.39312 C 135.32253,211.16547 138.70747,206.57801 141.50018,209.17757 C 142.88869,213.01983 147.52689,207.22953 149.50419,211.04 C 149.52159,213.19117 155.99081,211.61928 152.73321,214.41282 C 150.12299,214.50431 148.28424,216.39947 150.02771,218.77669 C 150.54004,220.80158 147.8892,221.85388 146.86988,220.02343 C 146.4656,224.33658 141.33858,220.90082 142.75791,217.81936 C 142.93021,213.59409 138.40929,213.49762 135.34677,213.35084 C 131.8441,212.61562 127.53309,213.19894 124.87622,210.34477 C 124.49083,209.84033 124.27565,209.21097 124.27027,208.5761 z "
         style="fill:#a10000;fill-opacity:0.90196078;fill-rule:evenodd;stroke:none;stroke-width:1px;stroke-linecap:butt;stroke-linejoin:miter;stroke-opacity:1" />
      <path
         d="M 130.71241,196.30448 C 131.77929,195.39839 133.06652,194.76849 134.33414,194.17889 C 135.95368,193.42807 137.67516,192.95909 139.40357,192.53859 C 142.21668,191.86764 145.09588,191.71042 147.97598,191.74716 C 151.51657,191.831 154.94012,192.69788 158.27806,193.81467 C 161.96033,195.10501 165.24946,197.1674 168.32573,199.52905 C 171.95441,202.40963 174.82006,206.03974 177.44586,209.81993 C 180.82903,214.61113 182.84156,220.0802 184.81499,225.54931 C 186.67271,230.7699 188.30817,236.06496 189.84421,241.38783 C 190.99068,245.41656 192.05187,249.46868 193.11118,253.52095 C 193.70522,255.78243 193.4103,254.66477 193.99579,256.87396 L 191.97659,257.96835 C 191.41042,255.74798 191.69551,256.87126 191.12148,254.59846 C 190.09918,250.52818 189.07651,246.45767 187.96862,242.40961 C 186.48574,237.06674 184.90592,231.74901 183.07223,226.51454 C 181.11388,221.06061 178.99287,215.66127 175.61215,210.90009 C 172.96688,207.15338 170.08303,203.55928 166.44586,200.71613 C 163.36348,198.38807 160.07376,196.35454 156.39928,195.08982 C 153.06142,193.99233 149.63879,193.15311 146.10315,193.10566 C 143.20537,193.09814 140.31023,193.2894 137.48919,194.0026 C 135.7316,194.45572 133.98198,194.9625 132.34623,195.7648 C 130.46625,196.70884 135.01983,194.11404 133.15554,195.2925 L 130.71241,196.30448 z "
         id="path3184"
         style="fill:#000000;fill-opacity:1;stroke:none;stroke-opacity:1" />
      <path
         d="M 147.88345,196.57732 C 147.97322,196.44711 148.0846,196.33443 148.18642,196.21421 C 149.00109,195.47127 150.09098,195.06869 151.03223,194.54526 C 151.34214,194.43717 151.65947,194.47547 151.97849,194.48585 C 152.39331,194.5157 152.77567,194.65583 153.15687,194.80855 C 153.57251,194.98679 153.89829,195.28251 154.21851,195.59097 C 154.54476,195.93033 154.71555,196.34815 154.87095,196.78155 C 155.00745,197.22494 154.9444,197.64991 154.85432,198.09084 C 154.75292,198.44059 154.56977,198.75469 154.39475,199.07081 L 152.01178,200.13225 C 152.18812,199.83179 152.37335,199.53418 152.49855,199.20753 C 152.61045,198.81463 152.69507,198.44025 152.58311,198.032 C 152.45001,197.63422 152.30015,197.25579 151.99562,196.9515 C 151.69138,196.67231 151.3824,196.40677 150.98858,196.25844 C 150.62017,196.13159 150.25124,196.01674 149.85634,196.01226 C 149.55205,196.032 149.25061,196.02336 148.9692,196.16749 C 149.51823,195.84761 151.15849,194.8769 150.61979,195.2139 C 150.51754,195.31786 150.39702,195.40725 150.3134,195.53016 L 147.88345,196.57732 z "
         id="path3194"
         style="fill:#000000;fill-opacity:1;stroke:none;stroke-opacity:1" />
      <path
         d="M 135.02694,195.09959 C 135.02425,194.8761 135.03973,194.65343 135.05077,194.43049 C 135.06874,194.07096 135.16564,193.72742 135.26607,193.38467 C 135.39241,192.95762 135.65349,192.6232 135.93494,192.29082 C 136.93912,191.41233 138.13118,190.7199 139.39754,190.29692 C 139.87739,190.16744 140.30551,190.27855 140.75911,190.42952 C 141.19439,190.60513 141.52589,190.91678 141.85229,191.24103 C 142.13707,191.55615 142.34709,191.92301 142.55121,192.29222 C 142.57835,192.34734 142.6055,192.40246 142.63265,192.45758 L 140.35944,193.74804 C 140.33426,193.69504 140.30907,193.64204 140.28388,193.58904 C 140.08761,193.24373 139.90547,192.88847 139.62699,192.59829 C 139.32122,192.30547 139.01241,192.02741 138.60108,191.8897 C 138.17094,191.78636 137.77246,191.72995 137.34237,191.89363 C 135.5925,192.64154 140.27525,190.06774 138.34084,191.29412 C 138.04633,191.58527 137.77177,191.87544 137.63131,192.27674 C 137.53056,192.59886 137.41042,192.91633 137.3961,193.25877 C 137.38391,193.4729 137.3644,193.68659 137.37845,193.90144 L 135.02694,195.09959 z "
         id="path3198"
         style="fill:#000000;fill-opacity:1;stroke:none;stroke-opacity:1" />
      <path
         d="M 134.48618,194.74119 C 134.31566,194.84855 134.14411,194.95422 133.97304,195.06067 C 133.59913,195.2777 133.23527,195.51114 132.87066,195.74326 C 132.34506,196.07853 131.82023,196.41482 131.29842,196.75593 C 130.72606,197.12946 130.17935,197.53918 129.63438,197.95091 C 129.10877,198.36062 128.58951,198.77834 128.07116,199.19716 C 127.60944,199.57232 127.15119,199.95173 126.6927,200.33083 C 126.30672,200.64696 125.93442,200.97824 125.56912,201.31769 C 125.24408,201.63196 124.94573,201.97181 124.64741,202.31101 C 124.3726,202.62185 124.11893,202.94906 123.87463,203.28378 C 123.6449,203.5839 123.59479,203.93256 123.51966,204.28724 C 123.48108,204.67972 123.60314,205.04146 123.72195,205.40808 C 123.89308,205.85606 124.13955,206.26763 124.38032,206.68024 C 124.63864,207.11331 124.9053,207.54125 125.17418,207.96778 C 125.43634,208.37924 125.71149,208.78213 125.98612,209.1853 C 126.2082,209.55172 126.49084,209.86168 126.7983,210.15512 C 127.15401,210.45816 127.59097,210.61288 128.02019,210.77733 C 128.65426,210.99909 129.30656,211.15978 129.95698,211.32438 C 130.78333,211.52666 131.61701,211.69646 132.45348,211.85081 C 133.45031,212.03682 134.45444,212.17954 135.4588,212.31769 C 136.57439,212.46876 137.69087,212.61324 138.80739,212.75728 C 140.01768,212.91398 141.23179,213.03839 142.44593,213.1608 C 143.66291,213.27941 144.88068,213.38983 146.09769,213.50803 C 147.15049,213.60854 148.20277,213.71402 149.25494,213.82084 C 149.84876,213.88106 150.44273,213.93971 151.03665,213.99897 L 148.94635,215.48502 C 148.35667,215.422 147.76689,215.36007 147.17712,215.29788 C 146.13048,215.18696 145.08351,215.07936 144.03618,214.97511 C 142.82206,214.85398 141.60723,214.74003 140.39288,214.62115 C 139.17448,214.4984 137.95589,214.37569 136.74133,214.21848 C 135.62203,214.07597 134.50296,213.9315 133.38458,213.78191 C 132.37361,213.64353 131.36294,213.50058 130.3594,213.31461 C 129.51535,213.15877 128.67389,212.98835 127.83958,212.78614 C 127.1777,212.61858 126.51346,212.45558 125.86909,212.22727 C 125.4122,212.04351 124.95084,211.86684 124.58097,211.52817 C 124.26613,211.21423 123.97294,210.8861 123.7419,210.50237 C 123.46736,210.09652 123.19252,209.69082 122.92904,209.27764 C 122.65924,208.84818 122.39136,208.4175 122.13149,207.98189 C 121.88152,207.55637 121.62657,207.13171 121.44319,206.67181 C 121.30573,206.27553 121.16328,205.87977 121.18097,205.45248 C 121.21981,205.0596 121.27382,204.67798 121.48442,204.33245 C 121.7168,203.98007 121.96697,203.64253 122.24802,203.32608 C 122.54425,202.9798 122.84343,202.63553 123.164,202.31133 C 123.52451,201.95891 123.89618,201.61994 124.28746,201.30131 C 124.74898,200.92032 125.21036,200.53917 125.67373,200.16043 C 126.19334,199.7403 126.7144,199.32206 127.23832,198.90731 C 127.78043,198.49056 128.32383,198.07504 128.89399,197.69678 C 129.40947,197.35395 129.92904,197.01781 130.45107,196.68502 C 130.80744,196.45433 131.1621,196.22028 131.52775,196.00448 C 131.69388,195.90283 131.86366,195.80716 132.02398,195.69624 L 134.48618,194.74119 z "
         id="path3320"
         style="fill:#000000;fill-opacity:1;stroke:none;stroke-opacity:1" />
      <path
         d="M 143.31537,213.0619 C 143.30187,213.36443 143.30215,213.66737 143.29973,213.97012 C 143.29909,214.58917 143.32447,215.20778 143.34693,215.8263 C 143.38773,216.68593 143.41378,217.54593 143.42143,218.40647 C 143.42688,219.41088 143.38793,220.41467 143.33702,221.41755 C 143.28217,222.45689 143.20037,223.49448 143.10928,224.53119 C 143.0126,225.58034 142.8772,226.62533 142.73433,227.66902 C 142.58368,228.76496 142.4067,229.85701 142.22042,230.94738 C 142.02088,232.09394 141.76689,233.22982 141.49972,234.36219 C 141.23009,235.50903 140.92866,236.64798 140.62119,237.78514 C 140.29912,238.95874 139.95309,240.12561 139.59768,241.28949 C 139.25672,242.39309 138.89931,243.49151 138.53376,244.58719 C 138.20182,245.57189 137.88506,246.56157 137.56594,247.55047 C 137.23746,248.55048 136.9385,249.55958 136.66387,250.57559 C 136.4012,251.56641 136.19194,252.56998 135.99477,253.5755 C 135.83524,254.39707 135.69416,255.22188 135.60221,256.05384 C 135.50146,256.77442 135.57203,257.48778 135.66669,258.20226 C 135.78093,258.93363 136.09922,259.58902 136.43009,260.24045 C 136.8203,260.93386 137.34759,261.5279 137.89986,262.09455 C 138.52234,262.71532 139.2133,263.25954 139.92057,263.77916 C 140.67829,264.33245 141.4913,264.80149 142.3187,265.24103 C 143.24534,265.73661 144.21589,266.13691 145.20029,266.50062 C 146.41205,266.9372 147.64284,267.31728 148.87927,267.67692 C 150.13537,268.04415 151.40584,268.35878 152.67949,268.65835 C 153.99321,268.95986 155.31763,269.21116 156.64427,269.44815 C 157.92459,269.67639 159.21187,269.86244 160.50031,270.03798 C 161.74484,270.2067 162.99306,270.3458 164.24203,270.47697 C 165.44955,270.6092 166.6606,270.70261 167.87292,270.77675 C 169.03901,270.85126 170.20715,270.86481 171.37517,270.8681 C 172.49898,270.8685 173.62252,270.84741 174.74496,270.79196 C 175.80357,270.74302 176.85235,270.59176 177.89646,270.4182 C 178.91615,270.24918 179.91943,269.99964 180.91739,269.73373 C 181.84452,269.49211 182.75284,269.18748 183.65235,268.85927 C 184.46225,268.57024 185.2284,268.17872 185.9778,267.76061 C 187.25741,266.71868 182.8685,269.76843 185.84026,267.73189 C 186.45631,267.31577 187.02966,266.84311 187.60062,266.3686 C 188.13118,265.92575 188.612,265.4311 189.0856,264.92952 C 189.52526,264.46133 189.90011,263.94072 190.27111,263.41841 C 190.60479,262.94186 190.88509,262.43295 191.15924,261.92107 C 191.40368,261.46052 191.57264,260.96962 191.73217,260.47545 C 191.87183,260.00244 191.9441,259.51482 192.01428,259.02799 C 192.07421,258.60529 192.09353,258.17958 192.1048,257.75346 C 192.10518,257.69405 192.10556,257.63464 192.10595,257.57523 L 194.43632,256.39091 C 194.43545,256.4513 194.43458,256.5117 194.43371,256.57209 C 194.42336,257.00841 194.40565,257.44428 194.34765,257.87746 C 194.28011,258.37597 194.21003,258.875 194.07944,259.36189 C 193.92799,259.87177 193.76566,260.37772 193.52308,260.85366 C 193.25209,261.37677 192.97496,261.89685 192.64206,262.38437 C 192.2741,262.91781 191.90291,263.4504 191.4656,263.93077 C 190.99618,264.44364 190.51914,264.94928 189.98842,265.40052 C 189.41953,265.88493 188.84716,266.36651 188.23137,266.79151 C 186.8717,267.74188 185.43865,268.57456 183.98175,269.36969 C 183.22546,269.77701 182.45164,270.1528 181.63759,270.43209 C 180.73575,270.75143 179.82532,271.04663 178.8975,271.28208 C 177.89506,271.54168 176.88725,271.78416 175.86359,271.94574 C 174.81447,272.11196 173.7604,272.25209 172.69781,272.29353 C 171.57517,272.33996 170.45171,272.35787 169.3281,272.35413 C 168.1578,272.34805 166.98744,272.32908 165.81943,272.24899 C 164.60637,272.16993 163.39467,272.07184 162.18633,271.93754 C 160.93676,271.80342 159.68781,271.66231 158.4428,271.49032 C 157.15447,271.31155 155.86762,271.12068 154.58794,270.88693 C 153.25757,270.64577 151.92887,270.39302 150.61121,270.08893 C 149.33507,269.78603 148.06257,269.46677 146.8041,269.09632 C 145.56199,268.73201 144.32547,268.34801 143.10628,267.91226 C 142.10631,267.54785 141.12091,267.1466 140.18435,266.63714 C 139.34832,266.18825 138.52655,265.7106 137.76103,265.14755 C 137.04412,264.6173 136.34367,264.06248 135.7116,263.43145 C 135.14379,262.84735 134.60194,262.23322 134.19873,261.52043 C 133.837,260.8535 133.53125,260.16037 133.39154,259.40949 C 133.28363,258.67462 133.19789,257.93986 133.29891,257.19624 C 133.38868,256.35383 133.53314,255.51964 133.69946,254.68906 C 133.90159,253.67749 134.11324,252.66747 134.37242,251.6687 C 134.64211,250.64929 134.93596,249.63657 135.26402,248.63426 C 135.58372,247.64305 135.90099,246.65101 136.23675,245.66507 C 136.60891,244.57039 136.97114,243.47227 137.31495,242.36832 C 137.67206,241.20778 138.01922,240.04403 138.33983,238.87282 C 138.64536,237.73749 138.95038,236.60179 139.22077,235.45745 C 139.48816,234.33051 139.74354,233.20027 139.94408,232.05919 C 140.12932,230.97216 140.306,229.88355 140.45605,228.79102 C 140.59887,227.75137 140.7327,226.71027 140.83337,225.66557 C 140.92594,224.63185 141.00904,223.5972 141.0648,222.56076 C 141.11585,221.56403 141.15482,220.56638 141.14708,219.56811 C 141.13801,218.71339 141.10796,217.85941 141.0573,217.00609 C 141.02718,216.38941 140.99504,215.77273 140.98038,215.15542 C 140.97414,214.85774 140.97062,214.55991 140.95931,214.26238 L 143.31537,213.0619 z "
         id="path3372"
         style="fill:#000000;fill-opacity:1;stroke:none;stroke-opacity:1" />
      <path
         d="M 142.69353,227.60898 C 142.62983,227.8174 142.53327,228.01364 142.44565,228.21259 C 142.26126,228.60262 142.07193,228.99031 141.88336,229.37833 C 141.60925,229.93362 141.32202,230.48222 141.03393,231.03032 C 140.66287,231.71462 140.26209,232.38211 139.85877,233.0477 C 139.41789,233.77219 138.95978,234.48595 138.50923,235.20441 C 138.05698,235.92693 137.61865,236.658 137.17455,237.38553 C 136.73482,238.09639 136.28931,238.80366 135.84684,239.51282 C 135.41909,240.1987 135.00278,240.89158 134.59254,241.58803 C 134.19859,242.2406 133.8622,242.92419 133.52882,243.60876 C 133.23729,244.20974 132.99883,244.83301 132.76802,245.45893 C 132.55598,246.0216 132.46443,246.60789 132.39727,247.20065 C 132.3589,247.82919 132.51151,248.4347 132.6614,249.03808 C 132.83378,249.64936 133.08211,250.2339 133.3292,250.8175 C 133.55263,251.34145 133.81804,251.84552 134.08085,252.3503 C 134.30467,252.78353 134.56077,253.19808 134.82122,253.60979 C 135.0472,253.97877 135.33482,254.29666 135.63326,254.60636 C 135.78572,254.75788 135.9598,254.88386 136.127,255.01778 L 133.92182,256.40598 C 133.7487,256.26311 133.56832,256.12835 133.41083,255.96734 C 133.10332,255.64103 132.80558,255.30748 132.57232,254.92149 C 132.31045,254.502 132.05285,254.07974 131.82775,253.6389 C 131.56478,253.1266 131.29874,252.61521 131.07343,252.08478 C 130.82317,251.4897 130.57248,250.89362 130.39243,250.27244 C 130.22948,249.64551 130.06475,249.01575 130.08314,248.36115 C 130.13458,247.74637 130.21459,247.14011 130.42582,246.55465 C 130.65434,245.91815 130.89243,245.28517 131.18486,244.67437 C 131.51798,243.98283 131.85174,243.29077 132.2455,242.63091 C 132.65496,241.93165 133.07245,241.23712 133.49933,240.54834 C 133.9423,239.8389 134.38791,239.13112 134.83098,238.42174 C 135.27702,237.69511 135.71356,236.96269 136.16386,236.23866 C 136.61238,235.52037 137.07191,234.80895 137.51305,234.08606 C 137.9132,233.42651 138.30995,232.76472 138.68047,232.08791 C 138.96575,231.54561 139.24828,231.00186 139.51713,230.45114 C 139.70115,230.06877 139.88312,229.68545 140.06243,229.30082 C 140.14441,229.11516 140.23155,228.93139 140.30217,228.7409 L 142.69353,227.60898 z "
         id="path3374"
         style="fill:#000000;fill-opacity:1;stroke:none;stroke-opacity:1" />
      <path
         d="M 181.33573,226.93614 C 181.35085,227.08326 181.35893,227.23102 181.36964,227.3785 C 181.38903,227.64941 181.44893,227.91396 181.49948,228.17986 C 181.60027,228.61304 181.73984,229.03552 181.87536,229.45866 C 182.06826,230.03177 182.27106,230.6015 182.47004,231.17252 C 182.70412,231.85768 182.93124,232.54519 183.16196,233.23148 C 183.42169,233.9954 183.70476,234.75106 183.98972,235.50583 C 184.31389,236.34636 184.63206,237.18917 184.94799,238.03283 C 185.28136,238.92138 185.58897,239.81935 185.88523,240.72087 C 186.18992,241.65405 186.47103,242.59434 186.72573,243.54232 C 186.98538,244.52795 187.19547,245.52554 187.39664,246.52443 C 187.58673,247.47503 187.73922,248.43232 187.87059,249.3926 C 187.99482,250.30223 188.03865,251.21909 188.04798,252.13622 C 188.05321,252.97362 187.97895,253.80777 187.85779,254.63549 C 187.75716,255.39573 187.519,256.12117 187.27007,256.84217 C 187.03288,257.51628 186.67765,258.13196 186.31116,258.74093 C 185.96468,259.29741 185.52761,259.78267 185.08341,260.26042 C 184.64689,260.71785 184.13243,261.08014 183.61374,261.43515 C 182.36734,262.26138 181.06724,262.96504 179.69363,263.53441 C 179.16422,263.75546 178.6123,263.90726 178.05787,264.04873 C 177.57582,264.16455 177.08243,264.2101 176.58985,264.25131 C 176.16068,264.29133 175.73104,264.27472 175.30189,264.25076 C 174.9421,264.24196 174.59304,264.16182 174.24261,264.09312 C 173.92658,264.01086 173.63573,263.86496 173.34145,263.72864 C 173.08443,263.60819 172.86857,263.42739 172.64705,263.25466 C 172.44814,263.101 172.30605,262.89513 172.14726,262.70472 C 172.01059,262.53639 171.92685,262.33728 171.82743,262.14756 C 171.73809,261.97022 171.70717,261.77465 171.65841,261.585 C 171.61886,261.39094 171.63406,261.19363 171.63252,260.99767 C 171.62734,260.79884 171.69175,260.612 171.7344,260.42164 C 171.76139,260.3301 171.80485,260.2449 171.84006,260.15657 L 174.23608,259.06626 C 174.19713,259.14664 174.15588,259.22587 174.11922,259.30743 C 174.06968,259.47509 173.98418,259.6346 173.98395,259.81532 C 173.98116,259.99341 173.95585,260.17213 173.98337,260.35013 C 174.02477,260.51929 174.03828,260.69766 174.12037,260.85571 C 174.21219,261.02656 174.27884,261.2128 174.40675,261.36337 C 174.55439,261.53654 174.6859,261.72486 174.87216,261.86174 C 175.08496,262.01297 175.28458,262.18467 175.52925,262.28658 C 175.81131,262.40827 176.08986,262.54186 176.39383,262.60261 C 176.73515,262.65769 177.07583,262.72019 177.423,262.7286 C 177.84339,262.74213 178.2639,262.74751 178.68324,262.70425 C 179.16603,262.65296 179.64946,262.59811 180.11978,262.47132 C 180.66399,262.31922 181.20585,262.1583 181.72577,261.93361 C 182.10885,261.76631 183.2213,261.18906 182.86152,261.4019 C 182.31052,261.72787 180.0691,263.00915 181.20323,262.37081 C 181.7291,262.03605 182.24918,261.69186 182.69502,261.25064 C 183.14817,260.79035 183.59226,260.32096 183.94877,259.77849 C 184.32518,259.18709 184.69112,258.58911 184.93558,257.92756 C 185.194,257.22278 185.44227,256.51355 185.5516,255.76655 C 185.68336,254.9505 185.76581,254.12696 185.76814,253.29948 C 185.7672,252.39131 185.73032,251.48319 185.61178,250.58187 C 185.48507,249.62538 185.3353,248.67215 185.15132,247.72486 C 184.95402,246.73072 184.74656,245.73809 184.48732,244.75791 C 184.23362,243.81469 183.95356,242.87915 183.64952,241.95086 C 183.35487,241.05267 183.04788,240.15831 182.71527,239.27339 C 182.39817,238.43099 182.07707,237.59011 181.75019,236.75145 C 181.46051,235.99564 181.17274,235.2389 180.90957,234.47335 C 180.67636,233.78942 180.44739,233.10404 180.20993,232.42156 C 180.00714,231.85127 179.80024,231.28244 179.59957,230.71141 C 179.45695,230.28387 179.31075,229.85715 179.19716,229.42067 C 179.1367,229.1485 179.06558,228.87808 179.03893,228.59946 C 179.02462,228.45404 179.00437,228.30913 178.99596,228.16303 L 181.33573,226.93614 z "
         id="path3378"
         style="fill:#000000;fill-opacity:1;stroke:none;stroke-opacity:1" />
      <path
         id="path3430"
         d="M 167.86141,161.06035 C 166.71519,161.86587 165.23365,162.31786 163.96834,161.87122 C 164.1299,163.3574 170.61845,223.20895 168.76473,253.43012 C 169.17663,254.37293 169.64386,255.28286 170.19811,256.16054 C 171.3982,258.749 174.34961,259.53487 176.96596,259.32557 C 178.39459,259.13415 179.61259,258.43756 180.76131,257.61318 C 179.57575,246.00492 168.04846,162.41609 167.86141,161.06035 z "
         style="color:#000000;fill:#eefafa;fill-opacity:1;fill-rule:evenodd;stroke:none;stroke-width:1px;stroke-linecap:butt;stroke-linejoin:miter;marker:none;marker-start:none;marker-mid:none;marker-end:none;stroke-miterlimit:4;stroke-dasharray:none;stroke-dashoffset:0;stroke-opacity:1;visibility:visible;display:inline;overflow:visible;enable-background:accumulate" />
      <path
         id="path11422"
         d="M 165.8917,172.63676 C 166.91141,171.65061 167.80064,170.51271 168.59807,169.35339 C 168.82517,168.37524 168.64213,167.35143 168.6235,166.35899 C 168.48851,165.43287 168.48392,163.50922 167.34849,164.91796 C 166.54873,165.89593 165.3879,166.66932 164.99003,167.91237 C 165.07323,169.23027 165.45023,170.54953 165.68191,171.86179 C 165.83339,172.03405 165.67782,172.60536 165.8917,172.63676 z "
         style="color:#000000;fill:#e30000;fill-opacity:1;fill-rule:evenodd;stroke:none;stroke-width:1px;stroke-linecap:butt;stroke-linejoin:miter;marker:none;marker-start:none;marker-mid:none;marker-end:none;stroke-miterlimit:4;stroke-dasharray:none;stroke-dashoffset:0;stroke-opacity:1;visibility:visible;display:inline;overflow:visible;enable-background:accumulate" />
      <path
         id="path11420"
         d="M 166.77558,184.97955 C 167.76894,183.23493 169.60265,182.04269 170.23431,180.08123 C 170.45113,179.04643 169.975,178.04086 169.80058,177.03528 C 169.61014,176.33626 169.78012,175.59853 169.60204,174.90241 C 169.48331,174.27942 168.56027,174.24123 168.49283,174.90074 C 167.82445,176.26301 166.85214,177.44092 165.95585,178.65149 C 165.44655,179.75571 166.08147,180.91975 166.18948,182.03621 C 166.2869,183.03978 166.41795,184.02987 166.77558,184.97955 z "
         style="color:#000000;fill:#e30000;fill-opacity:1;fill-rule:evenodd;stroke:none;stroke-width:1px;stroke-linecap:butt;stroke-linejoin:miter;marker:none;marker-start:none;marker-mid:none;marker-end:none;stroke-miterlimit:4;stroke-dasharray:none;stroke-dashoffset:0;stroke-opacity:1;visibility:visible;display:inline;overflow:visible;enable-background:accumulate" />
      <path
         sodipodi:nodetypes="ccccc"
         id="path11416"
         d="M 171.24438,186.0625 C 169.59991,188.66751 165.75306,192.06227 167.43332,194.49353 C 167.25204,198.56465 167.83232,199.15334 169.90222,195.78517 C 172.49693,193.35887 172.24374,190.19026 171.87587,187.30533 C 171.7366,186.85965 171.52081,186.43855 171.24438,186.0625 z "
         style="color:#000000;fill:#e30000;fill-opacity:1;fill-rule:evenodd;stroke:none;stroke-width:1px;stroke-linecap:butt;stroke-linejoin:miter;marker:none;marker-start:none;marker-mid:none;marker-end:none;stroke-miterlimit:4;stroke-dasharray:none;stroke-dashoffset:0;stroke-opacity:1;visibility:visible;display:inline;overflow:visible;enable-background:accumulate" />
      <path
         sodipodi:nodetypes="ccccc"
         id="path11412"
         d="M 172.61938,199.90625 C 171.77749,202.6315 168.12795,204.84993 168.33599,207.03871 C 168.82393,208.76244 167.95434,213.7619 169.16118,213.15778 C 170.86253,211.18428 172.95952,208.70155 173.64988,206.19629 C 173.63404,204.09037 173.29448,201.90087 172.61938,199.90625 z "
         style="color:#000000;fill:#e30000;fill-opacity:1;fill-rule:evenodd;stroke:none;stroke-width:1px;stroke-linecap:butt;stroke-linejoin:miter;marker:none;marker-start:none;marker-mid:none;marker-end:none;stroke-miterlimit:4;stroke-dasharray:none;stroke-dashoffset:0;stroke-opacity:1;visibility:visible;display:inline;overflow:visible;enable-background:accumulate" />
      <path
         sodipodi:nodetypes="cccccc"
         id="path11408"
         d="M 174.30688,214.625 C 172.63798,217.203 171.20747,219.61105 169.03122,221.71998 C 168.34901,224.06549 168.87023,226.73977 168.82945,229.05503 C 170.96382,230.05162 171.49426,226.55187 172.86708,225.58807 C 174.73391,223.66834 176.26618,221.22152 175.28683,218.45925 C 174.71091,217.31114 175.69483,215.16794 174.30688,214.625 z "
         style="color:#000000;fill:#e30000;fill-opacity:1;fill-rule:evenodd;stroke:none;stroke-width:1px;stroke-linecap:butt;stroke-linejoin:miter;marker:none;marker-start:none;marker-mid:none;marker-end:none;stroke-miterlimit:4;stroke-dasharray:none;stroke-dashoffset:0;stroke-opacity:1;visibility:visible;display:inline;overflow:visible;enable-background:accumulate" />
      <path
         id="path11386"
         d="M 177.55688,228.1875 C 175.36825,232.53738 172.36508,236.43823 168.96313,239.90625 C 169.10166,242.84126 167.72462,248.40418 169.62228,249.8107 C 173.11028,246.28362 176.28062,242.34335 178.34452,237.8015 C 178.6021,234.55394 176.99851,231.44767 177.55688,228.1875 z "
         style="fill:#e30000;fill-opacity:1;fill-rule:evenodd;stroke:none;stroke-width:1px;stroke-linecap:butt;stroke-linejoin:miter;stroke-opacity:1" />
      <path
         id="path10415"
         d="M 179.59706,248.52679 C 179.59706,248.52679 173.12384,258.125 172.67742,258.39286 C 172.23099,258.66071 176.91849,259.55357 176.91849,259.55357 L 180.71313,257.58929 L 179.59706,248.52679 z "
         style="fill:#e30000;fill-opacity:1;fill-rule:evenodd;stroke:none;stroke-width:1px;stroke-linecap:butt;stroke-linejoin:miter;stroke-opacity:1" />
      <path
         style="fill:#000000;fill-opacity:1;stroke:none;stroke-opacity:1"
         d="M 168.70754,157.09739 L 166.60956,159.14469 C 166.64176,159.48673 166.67993,159.82678 166.72105,160.16834 C 166.96261,161.84015 167.21431,163.51418 167.46091,165.18524 C 168.0612,169.25062 168.65737,173.31051 169.2447,177.37782 C 170.19985,183.90619 171.0573,190.44786 171.91024,196.98933 C 172.99613,205.52763 174.14199,214.06676 175.26498,222.60085 C 176.27434,230.17421 177.26139,237.74517 178.22444,245.32385 C 178.77873,249.68167 179.30777,254.04692 179.82579,258.40832 C 180.336,257.51052 180.84526,256.30573 181.45755,255.47926 C 180.96221,251.52801 180.46354,247.57908 179.93728,243.63128 C 178.93315,236.08911 177.89394,228.54754 176.8562,221.00963 C 175.70147,212.45927 174.60159,203.91172 173.57241,195.34744 C 172.75075,188.76244 171.94285,182.17094 171.04876,175.59404 C 170.49806,171.48113 169.92864,167.37473 169.39673,163.25956 C 169.17807,161.55543 168.96171,159.84952 168.78862,158.14131 C 168.75877,157.79614 168.72112,157.44251 168.70754,157.09739 z "
         id="path3284" />
      <path
         d="M 164.83888,160.42834 C 164.90819,160.82349 164.96436,161.22109 165.02354,161.61801 C 165.24817,163.28827 165.44543,164.96173 165.64571,166.63457 C 166.13104,170.60544 166.4827,174.58554 166.82197,178.56387 C 167.33469,184.60928 167.77026,190.65538 168.20383,196.70098 C 168.71265,203.72674 169.05927,210.74691 169.31642,217.76055 C 169.59353,224.79159 169.65326,231.80018 169.7235,238.80774 C 169.76457,243.05339 169.79484,247.29755 169.82222,251.54128 L 168.0495,253.22372 C 168.04102,248.96539 168.02922,244.7065 168.00084,240.44519 C 167.9486,233.43897 167.8712,226.42794 167.61103,219.39732 C 167.35489,212.39723 167.00648,205.3902 166.47914,198.37766 C 166.02399,192.36604 165.56433,186.35353 165.00144,180.3435 C 164.63165,176.4138 164.24824,172.48158 163.69623,168.56609 C 163.47045,166.93147 163.24841,165.29529 162.97442,163.66826 C 162.91,163.28898 162.84953,162.9083 162.77055,162.53235 L 164.83888,160.42834 z "
         id="path3290"
         style="fill:#000000;fill-opacity:1;stroke:none;stroke-opacity:1" />
      <path
         d="M 169.8255,251.21385 C 169.85843,251.45585 169.88358,251.69854 169.91229,251.94093 C 169.94884,252.38961 170.02526,252.83257 170.09393,253.27673 C 170.19685,253.84979 170.40225,254.36755 170.61207,254.88389 C 170.86418,255.48472 171.22309,255.93895 171.59167,256.38631 C 172.05193,256.89911 172.58248,257.16844 173.11035,257.44394 C 173.75491,257.74752 174.4131,257.90957 175.06944,258.07572 C 175.6897,258.22506 176.31065,258.29563 176.93082,258.35952 C 177.43414,258.428 177.92021,258.36066 178.40483,258.26054 C 178.83367,258.15761 179.23606,257.94967 179.63608,257.73915 C 179.98288,257.55972 180.28626,257.27323 180.59578,257.00479 C 180.69052,256.91482 180.78024,256.81538 180.87247,256.72065 L 179.19354,259.38038 C 179.19266,259.38123 178.91124,259.65796 178.90712,259.65042 C 178.58488,259.89988 178.26824,260.16552 177.91215,260.32618 C 177.50047,260.51951 177.08645,260.7088 176.64707,260.78789 C 176.14903,260.8566 175.6493,260.89594 175.13829,260.81786 C 174.51417,260.73828 173.88947,260.65407 173.26609,260.49323 C 172.59702,260.31576 171.92594,260.1408 171.2703,259.81938 C 170.71371,259.51505 170.15618,259.2132 169.67392,258.66076 C 169.28216,258.1774 168.89902,257.68679 168.62416,257.04943 C 168.39574,256.5043 168.17059,255.95658 168.04799,255.35126 C 167.96705,254.89869 167.87634,254.44869 167.83639,253.98874 C 167.80552,253.75536 167.78501,253.52056 167.7414,253.289 L 169.8255,251.21385 z "
         id="path3292"
         style="fill:#000000;fill-opacity:1;stroke:none;stroke-opacity:1" />
      <path
         id="path3404"
         d="M 179.48281,247.15754 C 179.24967,247.59801 179.02697,248.04988 178.78969,248.48816 C 178.10593,249.74608 177.42723,250.98573 176.6704,252.20163 C 175.81649,253.55595 174.92368,254.88319 173.95461,256.15849 C 173.38776,256.90422 172.78366,257.61898 172.18361,258.33823 C 172.35118,258.44012 172.51871,258.5268 172.69642,258.61195 C 173.65184,257.54993 174.54657,256.4257 175.40812,255.28707 C 176.3794,254.00514 177.26377,252.66024 178.11947,251.29928 C 178.66657,250.41692 179.19206,249.54992 179.69576,248.64235 C 179.64064,248.20922 179.54116,247.61288 179.48281,247.15754 z "
         style="fill:#000000;fill-opacity:1;stroke:none;stroke-opacity:1" />
      <path
         id="path3406"
         d="M 178.18694,237.24107 C 178.01116,237.57155 177.8442,237.90211 177.66599,238.2313 C 176.98223,239.48922 176.30353,240.72888 175.54669,241.94477 C 174.69278,243.29909 173.79997,244.62633 172.83091,245.90163 C 171.87463,247.15969 170.87739,248.41103 169.78792,249.55815 C 169.49716,249.8634 169.20715,250.17565 168.90895,250.47345 C 168.9003,250.68011 168.87884,250.87454 168.86951,251.07893 C 169.03473,250.93738 169.21839,250.80712 169.37751,250.65881 C 170.05778,250.03549 170.67834,249.3828 171.30774,248.70879 C 172.37586,247.55846 173.34266,246.31165 174.28885,245.06115 C 175.26013,243.77922 176.14451,242.43431 177.0002,241.07335 C 177.4848,240.29179 177.94663,239.49734 178.39544,238.69494 C 178.33,238.19728 178.25415,237.75071 178.18694,237.24107 z "
         style="fill:#000000;fill-opacity:1;stroke:none;stroke-opacity:1" />
      <path
         id="path3408"
         d="M 176.95329,227.97864 C 176.8018,228.26284 176.66072,228.54861 176.50739,228.83183 C 175.82363,230.08975 175.114,231.33384 174.35716,232.54973 C 173.50325,233.90405 172.61489,235.26223 171.64581,236.53753 C 170.82821,237.61315 169.99797,238.64641 169.09309,239.65019 C 169.09402,239.88751 169.10193,240.13915 169.10232,240.37497 C 169.45325,240.02121 169.80892,239.67367 170.14914,239.30932 C 171.21727,238.15899 172.18405,236.91219 173.13026,235.66167 C 174.10153,234.37975 174.98591,233.03484 175.84161,231.67388 C 176.2988,230.93652 176.73712,230.18884 177.16179,229.43252 C 177.09935,228.9638 177.01659,228.45306 176.95329,227.97864 z "
         style="fill:#000000;fill-opacity:1;stroke:none;stroke-opacity:1" />
      <path
         id="path3410"
         d="M 175.90153,219.98449 C 175.36873,220.95058 174.81129,221.90791 174.22813,222.84476 C 173.37422,224.19908 172.48141,225.52633 171.51234,226.80162 C 170.68,227.89663 169.83052,228.96548 168.90662,229.98503 C 168.91322,230.21559 168.93612,230.44459 168.94235,230.67444 C 169.30395,230.31085 169.66555,229.94836 170.01567,229.57341 C 171.0838,228.42308 172.05058,227.17627 172.99679,225.92577 C 173.96806,224.64384 174.85243,223.29893 175.70814,221.93797 C 175.83053,221.74057 175.94632,221.54912 176.06579,221.35 C 176.00359,220.8866 175.96418,220.45075 175.90153,219.98449 z "
         style="fill:#000000;fill-opacity:1;stroke:none;stroke-opacity:1" />
      <path
         id="path3412"
         d="M 174.91199,212.64437 C 174.36419,213.63958 173.7905,214.64166 173.19003,215.60632 C 172.33613,216.96064 171.44332,218.28789 170.47425,219.56318 C 169.87218,220.35526 169.2691,221.11904 168.6282,221.87996 C 168.63958,222.14094 168.66621,222.40158 168.67724,222.66217 C 168.77902,222.55448 168.87644,222.44329 168.97758,222.33497 C 170.0457,221.18464 171.01249,219.93785 171.9587,218.68733 C 172.92997,217.4054 173.81434,216.06049 174.67005,214.69953 C 174.8151,214.4656 174.93083,214.21526 175.07182,213.97895 C 175.00921,213.51507 174.97477,213.10914 174.91199,212.64437 z "
         style="fill:#000000;fill-opacity:1;stroke:none;stroke-opacity:1" />
      <path
         id="path3414"
         d="M 173.9269,205.33519 C 173.40569,206.27882 172.88072,207.24025 172.31093,208.15566 C 171.45702,209.50998 170.5642,210.83723 169.59514,212.11252 C 169.14838,212.70027 168.69968,213.28084 168.23491,213.85451 C 168.25003,214.12713 168.24264,214.39936 168.25745,214.67209 C 169.25394,213.57697 170.15583,212.42106 171.04866,211.2411 C 172.01993,209.95918 172.93522,208.60984 173.79094,207.24887 C 173.90422,207.06617 174.01133,206.88045 174.12209,206.69627 C 174.05435,206.19635 173.99454,205.83399 173.9269,205.33519 z "
         style="fill:#000000;fill-opacity:1;stroke:none;stroke-opacity:1" />
      <path
         id="path3416"
         d="M 172.9641,198.40165 C 172.43623,199.35817 171.8991,200.32977 171.32163,201.25749 C 170.46773,202.61181 169.57491,203.93905 168.60585,205.21435 C 168.33335,205.57283 168.05778,205.92533 167.78,206.27988 C 167.79889,206.57166 167.79277,206.86678 167.81142,207.15933 C 168.59766,206.24526 169.33191,205.30433 170.05936,204.34293 C 171.03064,203.06101 171.94593,201.71166 172.80165,200.3507 C 172.92695,200.14862 173.03262,199.93568 173.15486,199.73179 C 173.06571,199.07673 173.05233,199.0494 172.9641,198.40165 z "
         style="fill:#000000;fill-opacity:1;stroke:none;stroke-opacity:1" />
      <path
         id="path3418"
         d="M 172.03668,191.4946 C 171.53795,192.39468 171.03524,193.27329 170.49133,194.1471 C 169.63742,195.50142 168.74459,196.82867 167.77554,198.10396 C 167.60737,198.3252 167.44197,198.55594 167.27209,198.77598 C 167.29315,199.06561 167.28261,199.36437 167.30351,199.65543 C 167.96214,198.86553 168.60849,198.05267 169.22905,197.23254 C 170.20033,195.95061 171.08914,194.63665 171.94484,193.27568 C 172.03756,193.12614 172.13643,192.97529 172.22744,192.82474 C 172.14467,192.21884 172.11775,192.08782 172.03668,191.4946 z "
         style="fill:#000000;fill-opacity:1;stroke:none;stroke-opacity:1" />
      <path
         id="path3420"
         d="M 171.11824,184.8704 C 170.60897,185.7909 170.11131,186.72681 169.55527,187.62013 C 168.70136,188.97445 167.80855,190.30169 166.83948,191.57699 C 166.79483,191.63573 166.75174,191.69516 166.707,191.75384 C 166.7306,192.05066 166.74579,192.32958 166.76935,192.62885 C 167.28549,191.99024 167.7976,191.3603 168.293,190.70557 C 169.26427,189.42364 170.14865,188.07873 171.00435,186.71778 C 171.10896,186.54907 171.20656,186.37051 171.309,186.20054 C 171.23607,185.66803 171.18877,185.38506 171.11824,184.8704 z "
         style="fill:#000000;fill-opacity:1;stroke:none;stroke-opacity:1" />
      <path
         id="path3422"
         d="M 170.29297,178.89579 C 169.82494,179.73652 169.36222,180.58971 168.85361,181.40681 C 168.02299,182.72421 167.12504,184.01864 166.18639,185.26199 C 166.21151,185.5573 166.2324,185.89995 166.25761,186.19887 C 166.70992,185.63221 167.15393,185.07033 167.59134,184.49225 C 168.56261,183.21032 169.44699,181.86542 170.30269,180.50446 C 170.36534,180.40341 170.41744,180.29651 170.4793,180.195 C 170.4198,179.76156 170.34954,179.30776 170.29297,178.89579 z "
         style="fill:#000000;fill-opacity:1;stroke:none;stroke-opacity:1" />
      <path
         id="path3424"
         d="M 169.43209,172.45275 C 168.94913,173.32233 168.4655,174.18984 167.93974,175.0345 C 167.20333,176.20246 166.40886,177.35313 165.59048,178.46525 C 165.62022,178.79212 165.63601,179.09893 165.66614,179.43307 C 166.00499,179.00017 166.34584,178.55822 166.67747,178.11995 C 167.64874,176.83802 168.53755,175.52404 169.39325,174.16309 C 169.46792,174.04266 169.51836,173.90842 169.59192,173.78733 C 169.54711,173.46149 169.47313,172.75107 169.43209,172.45275 z "
         style="fill:#000000;fill-opacity:1;stroke:none;stroke-opacity:1" />
      <path
         id="path3426"
         d="M 168.80202,167.83922 C 168.49021,168.38295 168.16637,168.92939 167.83505,169.46167 C 166.98898,170.80356 166.10458,172.11859 165.14576,173.38317 C 165.13689,173.39487 165.12816,173.40684 165.11927,173.41854 C 165.14545,173.69399 165.19469,174.06759 165.22142,174.35098 C 165.69341,173.76187 166.1483,173.14456 166.60371,172.54268 C 167.44602,171.43097 168.1969,170.25512 168.94854,169.081 C 168.91986,168.87272 168.82699,168.02053 168.80202,167.83922 z "
         style="fill:#000000;fill-opacity:1;stroke:none;stroke-opacity:1" />
      <path
         id="path3428"
         d="M 168.07878,162.57609 C 167.53219,163.56895 166.98239,164.54024 166.38332,165.50267 C 165.81927,166.39727 165.22599,167.2909 164.617,168.15528 C 164.65684,168.54663 164.65291,168.71431 164.6971,169.15403 C 164.83633,168.97167 164.98709,168.80195 165.12549,168.61904 C 166.09676,167.33712 166.98114,165.99221 167.83684,164.63125 C 167.97631,164.4063 168.10733,164.16876 168.24305,163.9416 C 168.22926,163.84158 168.0875,162.63924 168.07878,162.57609 z "
         style="fill:#000000;fill-opacity:1;stroke:none;stroke-opacity:1" />
      <path
         id="path12486"
         d="M 166.25769,159.34314 C 165.46445,159.21231 164.46677,159.01254 163.76722,159.43627 C 163.15736,160.24816 164.12322,160.9953 164.91427,160.98622 C 165.7878,161.1408 166.7675,160.99383 167.44741,160.39377 C 167.98631,159.72944 167.02481,159.24181 166.44215,159.35676 L 166.34881,159.35102 L 166.25769,159.34314 L 166.25769,159.34314 z "
         style="color:#000000;fill:#e30000;fill-opacity:1;fill-rule:evenodd;stroke:none;stroke-width:1px;stroke-linecap:butt;stroke-linejoin:miter;marker:none;marker-start:none;marker-mid:none;marker-end:none;stroke-miterlimit:4;stroke-dasharray:none;stroke-dashoffset:0;stroke-opacity:1;visibility:visible;display:inline;overflow:visible;enable-background:accumulate" />
      <path
         sodipodi:nodetypes="cssccsccscccsssccsscsscc"
         d="M 166.84784,159.47225 C 166.63277,159.41144 166.41683,159.39906 166.20153,159.37125 C 165.85127,159.31883 165.50686,159.34892 165.16188,159.3646 C 164.82229,159.38952 164.52384,159.5773 164.21843,159.73768 C 163.32943,160.35934 161.95502,162.09028 165.34631,158.30073 C 165.12252,158.51912 164.96411,158.82712 164.79845,159.12624 C 164.66241,159.32067 164.6866,159.60038 164.64514,159.84305 C 164.66154,160.15081 164.87419,160.19158 165.00817,160.35015 C 165.30747,160.55009 165.62384,160.61971 165.93609,160.71631 C 166.3157,160.8166 166.68898,160.7965 167.06154,160.76503 C 167.85534,160.6738 168.43725,160.2274 169.06961,159.80164 C 164.66705,164.23282 171.21115,156.27235 167.37055,162.4459 C 167.07125,162.64533 166.77549,162.85565 166.44808,162.97188 C 166.06748,163.11388 165.68534,163.25472 165.28135,163.27596 C 164.89091,163.28283 164.49962,163.28141 164.10576,163.15884 C 163.76959,163.03998 163.42771,162.95129 163.1108,162.70911 C 162.87972,162.47056 162.66601,162.30688 162.56558,161.89569 C 162.55409,161.56161 162.48577,161.25116 162.61669,160.95097 C 162.76444,160.61165 162.90142,160.26165 163.12297,160.00726 C 164.09092,158.92411 164.8387,157.78812 165.9439,157.13965 C 166.27049,157.00452 166.59059,156.84467 166.94619,156.84913 C 167.30058,156.84986 167.65463,156.84201 168.01181,156.89023 C 168.24334,156.92109 168.47577,156.93675 168.70674,157.0087 L 166.84784,159.47225 z "
         id="path11515"
         style="fill:#000000;fill-opacity:1;stroke:none;stroke-opacity:1" />
      <g
         id="g30242">
        <path
           transform="translate(6.6506344,0)"
           sodipodi:type="arc"
           style="opacity:1;color:#000000;fill:#00a19e;fill-opacity:0.58333333;fill-rule:evenodd;stroke:#000000;stroke-width:1px;stroke-linecap:butt;stroke-linejoin:miter;marker:none;marker-start:none;marker-mid:none;marker-end:none;stroke-miterlimit:4;stroke-dasharray:none;stroke-dashoffset:0;stroke-opacity:1;visibility:visible;display:inline;overflow:visible;enable-background:accumulate"
           id="path19340"
           sodipodi:cx="131.9375"
           sodipodi:cy="200.5625"
           sodipodi:rx="2.9375"
           sodipodi:ry="2.0625"
           d="M 134.875 200.5625 A 2.9375 2.0625 0 1 1  129,200.5625 A 2.9375 2.0625 0 1 1  134.875 200.5625 z" />
        <path
           sodipodi:type="arc"
           style="opacity:1;color:#000000;fill:#00a19e;fill-opacity:0.58333333;fill-rule:evenodd;stroke:#000000;stroke-width:1px;stroke-linecap:butt;stroke-linejoin:miter;marker:none;marker-start:none;marker-mid:none;marker-end:none;stroke-miterlimit:4;stroke-dasharray:none;stroke-dashoffset:0;stroke-opacity:1;visibility:visible;display:inline;overflow:visible;enable-background:accumulate"
           id="path19342"
           sodipodi:cx="131.9375"
           sodipodi:cy="200.5625"
           sodipodi:rx="2.9375"
           sodipodi:ry="2.0625"
           d="M 134.875 200.5625 A 2.9375 2.0625 0 1 1  129,200.5625 A 2.9375 2.0625 0 1 1  134.875 200.5625 z"
           transform="translate(-1.7868656,-2.4374995)" />
        <path
           style="opacity:1;color:#000000;fill:none;fill-opacity:0.90196078;fill-rule:evenodd;stroke:#000000;stroke-width:1px;stroke-linecap:butt;stroke-linejoin:miter;marker:none;marker-start:none;marker-mid:none;marker-end:none;stroke-miterlimit:4;stroke-dasharray:none;stroke-dashoffset:0;stroke-opacity:1;visibility:visible;display:inline;overflow:visible;enable-background:accumulate"
           d="M 132.77563,198.8125 C 135.71313,199.9375 135.71313,199.9375 135.71313,199.9375"
           id="path22286" />
      </g>
    </g>
  </g>
</svg>
