<?xml version="1.0" encoding="UTF-8" standalone="no"?>
<!-- Created with Inkscape (http://www.inkscape.org/) -->
<svg
   xmlns:dc="http://purl.org/dc/elements/1.1/"
   xmlns:cc="http://web.resource.org/cc/"
   xmlns:rdf="http://www.w3.org/1999/02/22-rdf-syntax-ns#"
   xmlns:svg="http://www.w3.org/2000/svg"
   xmlns="http://www.w3.org/2000/svg"
   xmlns:sodipodi="http://inkscape.sourceforge.net/DTD/sodipodi-0.dtd"
   xmlns:inkscape="http://www.inkscape.org/namespaces/inkscape"
   width="792pt"
   height="612pt"
   id="svg2"
   sodipodi:version="0.32"
   inkscape:version="0.43"
   version="1.0"
   sodipodi:docbase="/home/kkowal/tale/art/monster"
   sodipodi:docname="puppy.svg"
   inkscape:export-filename="/home/kkowal/tale/art/puppy.png"
   inkscape:export-xdpi="90.909088"
   inkscape:export-ydpi="90.909088">
  <defs
     id="defs4" />
  <sodipodi:namedview
     id="base"
     pagecolor="#ffffff"
     bordercolor="#666666"
     borderopacity="1.0"
     inkscape:pageopacity="0.0"
     inkscape:pageshadow="2"
     inkscape:zoom="0.7"
     inkscape:cx="631.88343"
     inkscape:cy="488.75768"
     inkscape:document-units="px"
     inkscape:current-layer="layer1"
     inkscape:window-width="1590"
     inkscape:window-height="1121"
     inkscape:window-x="0"
     inkscape:window-y="25" />
  <metadata
     id="metadata7">
    <rdf:RDF>
      <cc:Work
         rdf:about="">
        <dc:format>image/svg+xml</dc:format>
        <dc:type
           rdf:resource="http://purl.org/dc/dcmitype/StillImage" />
      </cc:Work>
    </rdf:RDF>
  </metadata>
  <g
     inkscape:label="Layer 1"
     inkscape:groupmode="layer"
     id="layer1">
    <path
       style="opacity:1;color:#000000;fill:#c2c293;fill-opacity:1;fill-rule:nonzero;stroke:none;stroke-width:3.9000001;stroke-linecap:butt;stroke-linejoin:miter;marker:none;marker-start:none;marker-mid:none;marker-end:none;stroke-miterlimit:4;stroke-dasharray:none;stroke-dashoffset:0;stroke-opacity:1;visibility:visible;display:inline;overflow:visible"
       d="M 341.42856,253.57143 C 261.43329,246.40915 230.32996,167.91056 345.22435,159.16971 C 398.17547,123.84143 460.98275,131.33805 493.3743,187.94905 C 532.01729,224.39964 626.47476,257.82655 613.19916,162.16775 C 642.27635,118.90651 754.32924,164.59481 748.29893,221.53432 C 708.10758,320.62714 823.19421,276.01398 848.22444,296.02823 C 842.93086,349.01962 787.82945,465.03388 719.8928,425.03279 C 667.33004,417.03947 579.36817,417.85935 570.92919,484.79922 C 609.69365,528.47119 588.64318,606.08123 519.35247,603.72248 C 399.88736,607.18058 444.15296,557.7939 447.84283,506.17994 C 412.65132,452.38597 326.88259,518.93085 275.15123,502.54734 C 239.77848,479.66443 203.32936,384.50874 208.56682,334.55267 C 233.09453,279.84588 318.06705,311.41962 341.42856,253.57143 z "
       id="path11588"
       sodipodi:nodetypes="ccccccccccccc" />
    <path
       style="opacity:1;color:#000000;fill:#e784a8;fill-opacity:1;fill-rule:nonzero;stroke:none;stroke-width:3.9000001;stroke-linecap:butt;stroke-linejoin:miter;marker:none;marker-start:none;marker-mid:none;marker-end:none;stroke-miterlimit:4;stroke-dasharray:none;stroke-dashoffset:0;stroke-opacity:1;visibility:visible;display:inline;overflow:visible"
       d="M 284.86301,332.65472 C 256.58411,304.21638 219.40341,351.28977 240.51944,379.38722 C 257.86232,405.39157 291.03357,376.34203 320.60066,392.89837 C 359.29318,370.55633 313.62241,333.52688 284.86301,332.65472 L 284.86301,332.65472 z "
       id="path9813"
       sodipodi:nodetypes="ccccc" />
    <path
       style="opacity:1;color:#000000;fill:#000000;fill-opacity:1;fill-rule:nonzero;stroke:none;stroke-width:3.9000001;stroke-linecap:butt;stroke-linejoin:miter;marker:none;marker-start:none;marker-mid:none;marker-end:none;stroke-miterlimit:4;stroke-dasharray:none;stroke-dashoffset:0;stroke-opacity:1;visibility:visible;display:inline;overflow:visible"
       d="M 410.59375,204.125 C 376.83723,211.8145 350.58623,236.74732 323.92553,257.38238 C 305.15293,280.97134 278.07282,290.81387 250.80774,301.6462 C 230.89892,311.27433 200.98649,319.44955 199.80902,346.27013 C 208.17293,386.64635 224.6609,425.19639 237.51399,464.40857 C 242.8103,489.79022 257.29517,525.96913 289.86174,510.05106 C 335.46729,500.70014 380.97586,488.35553 427.83133,487.82471 C 450.30583,476.47695 427.70577,462.89171 412.61595,471.45919 C 366.94432,476.18235 322.6418,489.00893 277.26905,495.61084 C 254.15234,483.90149 255.09731,450.05203 243.3077,428.25586 C 233.32641,399.55482 222.96072,370.71735 216.76159,340.96835 C 229.30486,320.09323 259.30201,315.50759 280.8995,305.20207 C 311.21493,297.3295 325.59857,266.88474 351.44179,251.6718 C 369.10299,242.03852 405.37888,203.57118 418.18522,234.46145 C 416.90879,253.81015 399.31889,292.51026 436.10611,276.92263 C 471.84127,255.64742 519.17002,239.6196 558.87872,259.59091 C 584.79794,275.02174 569.84004,309.07072 550.62545,323.29198 C 539.02657,342.99387 494.52509,335.56097 499.35616,361.92034 C 536.26123,358.15144 568.81684,330.40414 585.74364,298.15058 C 597.03024,275.26616 583.66452,247.384 559.57474,240.34461 C 515.68856,223.88042 469.67656,244.21195 429.46875,261.625 C 438.32679,242.01737 440.51376,204.98063 410.59375,204.125 z "
       id="path9747" />
    <path
       style="opacity:1;color:#000000;fill:#000000;fill-opacity:1;fill-rule:nonzero;stroke:none;stroke-width:3.9000001;stroke-linecap:butt;stroke-linejoin:miter;marker:none;marker-start:none;marker-mid:none;marker-end:none;stroke-miterlimit:4;stroke-dasharray:none;stroke-dashoffset:0;stroke-opacity:1;visibility:visible;display:inline;overflow:visible"
       d="M 440.09375,128.21875 C 379.66256,137.14573 322.27488,159.01993 265.78125,181.625 C 257.77545,188.8779 254.22264,201.47092 260.625,210.875 C 272.33053,228.40234 292.67141,237.28396 311.30348,245.46514 C 317.56577,247.43495 324.20014,252.59029 330.65625,248.3125 C 333.80109,247.377 339.1348,243.83765 335.0625,240.5625 C 319.9932,228.05389 299.42155,224.67315 283.09375,214.25 C 276.32456,207.78471 272.34556,195.37426 280.125,188.0625 C 292.5249,176.89064 310.40025,175.45314 325.83762,170.70107 C 337.52042,168.10181 347.70811,161.89688 359.40855,158.98882 C 387.01219,149.86707 416.11915,139.71894 445.5625,144.8125 C 467.29182,164.44364 477.58058,195.93793 504.90213,209.49396 C 512.81065,213.68173 521.93543,213.8539 530.40213,215.05646 C 551.29763,224.00165 574.09629,231.40971 597.0625,228.15625 C 608.71223,226.7272 619.10124,217.22697 619.78125,205.03125 C 621.73987,191.96745 614.29747,177.93978 621.40625,165.6875 C 628.16244,154.52566 643.44803,155.68891 654.5625,157.90625 C 672.95097,161.94442 690.75316,168.42776 708.6875,173.875 C 725.51261,179.84088 741.06454,194.03876 742.40625,212.71875 C 743.86851,224.7336 738.82035,235.93678 735.28125,247.0625 C 730.84309,265.05014 739.78596,286.01217 757.125,293.46875 C 770.6998,300.11931 786.79445,297.7587 799.97752,291.25791 C 813.83221,287.76546 831.76051,292.08541 837.40625,306.53125 C 843.21891,321.10909 834.68551,336.63904 824.40625,346.78125 C 806.20719,369.76763 799.26236,401.40292 776.34375,420.65625 C 764.30555,431.03846 745.60804,429.0121 733.75,419.3125 C 713.67972,405.45118 687.4009,407.50797 664.70946,412.80218 C 646.92205,416.94117 628.92697,420.79597 610.8125,423.03125 C 588.69691,427.02786 565.38288,441.92296 561.71875,465.53125 C 559.30694,480.08493 565.77147,494.07003 573.65625,505.90625 C 583.41292,527.75215 586.48368,555.40444 573.25,576.46875 C 564.592,590.20436 547.92401,595.93832 532.25,596.09375 C 504.01046,598.67384 472.74993,600.04354 448.21875,583.6875 C 441.17702,571.24146 447.95112,556.46676 451.43548,543.93329 C 457.65272,525.70874 461.50544,503.82394 449.9375,486.84375 C 445.77349,480.95821 440.85559,474.40622 434.43776,471.19603 C 430.54845,471.6562 423.84985,470.3751 422.0625,474.71875 C 423.9699,484.14184 431.9737,491.49805 435.76728,500.35936 C 442.96544,512.95588 444.16038,529.78744 435.0625,541.78125 C 422.00546,560.42181 425.64695,589.25499 445.03393,602.20421 C 455.61664,609.97089 469.18606,611.22662 481.77675,609.43856 C 511.46163,612.06268 543.61384,611.1644 569.21875,594.3125 C 581.64247,586.18193 589.36452,572.86591 593,558.875 C 599.97792,536.89044 588.25046,514.90115 581.65625,494.25 C 576.0633,478.69042 573.28869,459.24639 584.75,445.625 C 589.61411,440.74808 597.81479,440.7308 604.05349,437.85541 C 634.468,427.96149 666.45207,418.345 698.75,423 C 720.5679,430.43254 742.57557,442.22688 766.21875,439.25 C 780.56679,437.30153 791.14337,425.37802 796.28125,412.40625 C 819.82747,376.41199 844.11174,340.10499 858.0625,299.21875 C 853.76044,287.19776 841.54745,279.24975 828.78291,279.5049 C 806.70155,278.36453 783.31449,288.48089 762.1875,278.875 C 748.97424,273.1366 746.54042,256.49271 748.375,243.65625 C 750.2314,225.08155 760.81065,206.85675 756.15625,187.96875 C 752.7717,176.31217 740.64546,170.73457 729.71199,168.10831 C 697.13643,157.03745 665.93059,139.8151 631.3125,136.84375 C 619.25305,137.55371 612.02859,149.20013 610.65742,160.20124 C 607.00428,175.91342 610.1484,194.04356 600.65625,207.96875 C 593.10081,217.77994 579.02635,215.23929 568.70983,212.10414 C 539.87175,204.91165 507.54656,198.6918 487.28125,175.15625 C 477.26971,163.00902 473.55397,146.73432 461.21875,136.3125 C 455.54622,131.05595 447.94652,127.67735 440.09375,128.21875 z "
       id="path9753" />
    <path
       style="opacity:1;color:#000000;fill:#ffe8ba;fill-opacity:1;fill-rule:nonzero;stroke:none;stroke-width:3.9000001;stroke-linecap:butt;stroke-linejoin:miter;marker:none;marker-start:none;marker-mid:none;marker-end:none;stroke-miterlimit:4;stroke-dasharray:none;stroke-dashoffset:0;stroke-opacity:1;visibility:visible;display:inline;overflow:visible"
       d="M 397.85715,264.28571 C 368.00403,253.9194 324.2904,254.64633 308.69764,287.3263 C 305.04744,326.67583 355.72533,334.35802 383.22061,320.73247 C 405.31333,312.30781 419.8656,281.50019 397.85715,264.28571 z "
       id="path12467" />
    <path
       style="opacity:1;color:#000000;fill:#000000;fill-opacity:1;fill-rule:nonzero;stroke:none;stroke-width:3.9000001;stroke-linecap:butt;stroke-linejoin:miter;marker:none;marker-start:none;marker-mid:none;marker-end:none;stroke-miterlimit:4;stroke-dasharray:none;stroke-dashoffset:0;stroke-opacity:1;visibility:visible;display:inline;overflow:visible"
       d="M 337.56384,261.79202 C 330.30195,266.21931 322.06566,273.65497 325.44665,270.51454 C 312.53502,280.34395 306.38803,303.05041 323.27864,312.28534 C 344.59979,326.29444 373.80213,321.73023 394.53465,308.85334 C 412.27672,296.09415 398.87923,265.00248 378.20055,264.87352 C 350.28896,261.39779 322.95882,274.59892 302.69999,292.98214 C 308.60279,272.06004 331.28941,263.18265 349.83994,256.28673 C 369.43333,250.13062 395.60747,248.624 409.92523,266.00837 C 422.66146,285.19049 408.74207,309.13324 391.36321,319.76974 C 367.97562,334.93276 334.4833,338.06733 310.79353,322.10133 C 291.89374,309.44996 299.03704,283.60134 314.62549,271.60556 C 322.60191,265.53251 338.94689,245.30144 345.27143,251.50543 C 342.42069,254.72995 340.00492,258.24772 337.56384,261.79202 z "
       id="path9790" />
    <path
       style="opacity:1;color:#000000;fill:#ffe8ba;fill-opacity:1;fill-rule:nonzero;stroke:none;stroke-width:3.9000001;stroke-linecap:butt;stroke-linejoin:miter;marker:none;marker-start:none;marker-mid:none;marker-end:none;stroke-miterlimit:4;stroke-dasharray:none;stroke-dashoffset:0;stroke-opacity:1;visibility:visible;display:inline;overflow:visible"
       d="M 439.28571,288.57144 C 407.14078,293.9168 395.17931,344.5708 424.95116,360.92145 C 448.07201,371.53808 476.89156,357.06502 490.75965,337.8596 C 503.36225,312.8663 479.28916,285.21291 453.21006,287.39651 C 449.72897,287.376 446.24421,287.76466 442.85715,288.57144"
       id="path13354" />
    <path
       style="opacity:1;color:#000000;fill:#000000;fill-opacity:1;fill-rule:nonzero;stroke:none;stroke-width:3.9000001;stroke-linecap:butt;stroke-linejoin:miter;marker:none;marker-start:none;marker-mid:none;marker-end:none;stroke-miterlimit:4;stroke-dasharray:none;stroke-dashoffset:0;stroke-opacity:1;visibility:visible;display:inline;overflow:visible"
       d="M 427.21539,295.63913 C 423.65792,303.55108 410.64042,308.27815 422.10793,298.31272 C 419.75772,308.42377 411.12681,323.48659 418.43764,335.67982 C 425.43901,353.39772 447.57888,361.34124 464.54731,353.15279 C 478.36536,350.1279 491.22089,340.22726 487.61857,324.31016 C 483.62877,308.01678 466.52576,298.31162 451.27842,294.34231 C 437.92155,287.37077 420.4265,303.96053 413.96405,304.09039 C 421.4882,282.10005 450.20457,275.00812 469.66797,285.13649 C 487.14503,292.40624 508.98803,311.3767 499.44097,332.28924 C 487.19359,356.19681 458.03759,373.48568 431.01102,367.07721 C 403.69725,360.7218 392.19652,322.17045 412.2809,302.28142 C 418.40243,295.27428 425.15248,295.74711 427.21539,295.63913 z "
       id="path9800"
       sodipodi:nodetypes="cccccccccccc" />
    <path
       style="opacity:1;color:#000000;fill:#000000;fill-opacity:1;fill-rule:nonzero;stroke:none;stroke-width:3.9000001;stroke-linecap:butt;stroke-linejoin:miter;marker:none;marker-start:none;marker-mid:none;marker-end:none;stroke-miterlimit:4;stroke-dasharray:none;stroke-dashoffset:0;stroke-opacity:1;visibility:visible;display:inline;overflow:visible"
       d="M 255.77869,327.29135 C 253.5963,328.876 247.71874,330.34499 253.12473,328.34616 C 256.05772,327.29356 259.55792,325.24758 262.25828,324.92121 C 254.38553,330.33281 244.00984,334.10498 240.44221,343.81443 C 237.47788,349.88244 243.02017,354.58559 247.28739,357.96949 C 253.09181,361.80521 255.51717,369.64216 252.9298,376.07872 C 251.20849,380.5738 247.47678,387.98545 255.14568,388.79871 C 263.07204,390.24665 271.2718,389.81873 279.13424,388.1725 C 276.83178,388.62482 269.35473,391.75922 274.65969,388.76396 C 284.05953,382.61087 296.227,378.81146 307.10877,383.25236 C 313.76833,385.74035 320.63157,389.3735 327.96773,388.11334 C 324.78321,388.9329 320.40654,392.66032 317.68204,391.15074 C 320.72814,385.33095 324.35142,379.42547 324.45586,372.62089 C 324.82001,365.03519 323.8789,356.1724 317.45594,351.14969 C 309.12046,344.21698 298.24149,341.85942 287.70227,340.92225 C 279.4293,339.74753 270.5606,337.82116 264.79849,331.22227 C 263.94782,328.63502 255.5852,325.46628 260.26866,323.93235 C 264.44971,321.71939 268.63075,319.50644 272.8118,317.29349 C 278.02745,321.93507 282.62031,328.29198 290.04879,329.30572 C 300.11081,331.60979 310.79221,331.52047 320.26676,336.07572 C 328.26524,339.93687 336.75833,345.68447 338.73394,354.95895 C 341.62519,365.24772 340.41961,376.505 336.27681,386.27185 C 332.56599,394.24792 323.50761,397.07183 315.58184,398.83536 C 305.64774,397.71847 296.82917,392.48223 287.09977,390.50837 C 283.82847,390.39008 281.13643,386.69785 286.01329,386.59913 C 289.4993,385.0432 298.31913,387.48508 290.99618,390.12164 C 284.10068,393.30772 277.25779,396.89213 269.70768,398.33519 C 259.70073,400.40182 248.88269,400.50279 239.28208,396.68937 C 234.83689,394.88623 232.5746,389.46469 234.53191,385.05395 C 235.45535,380.03033 239.61837,375.00917 236.93119,369.86987 C 232.90628,364.6568 226.05382,361.39308 224.12489,354.66065 C 222.11298,346.12566 227.23633,337.93495 233.56377,332.65064 C 242.61135,324.44478 254.35202,319.74592 266.20739,317.39722 C 270.96841,316.95708 269.72036,319.06156 266.66924,320.36236 C 263.03906,322.67202 259.40887,324.98169 255.77869,327.29135 z "
       id="path9802" />
    <path
       style="opacity:1;color:#000000;fill:#000000;fill-opacity:1;fill-rule:nonzero;stroke:none;stroke-width:3.9000001;stroke-linecap:butt;stroke-linejoin:miter;marker:none;marker-start:none;marker-mid:none;marker-end:none;stroke-miterlimit:4;stroke-dasharray:none;stroke-dashoffset:0;stroke-opacity:1;visibility:visible;display:inline;overflow:visible"
       d="M 356.59375 273.78125 C 353.41042 273.92231 350.5066 274.99711 347.5625 276.46875 L 347.53125 276.53125 C 341.81426 278.47184 338.76677 285.99397 338.125 291.8125 C 337.95531 297.03281 340.23112 301.2181 343.40625 305.15625 C 347.88537 309.42443 353.10699 309.99374 358.84375 308.5 C 370.43535 300.49395 376.23602 295.94643 372.65625 283.5625 C 370.11678 277.69308 365.43896 275.18731 359.46875 273.9375 C 358.48446 273.80511 357.52624 273.73993 356.59375 273.78125 z M 352.5625 287.625 C 355.61235 288.2422 357.90988 289.55087 359.25 293.125 C 359.36424 294.14743 359.42086 295.06411 359.4375 295.875 C 358.2053 295.67302 356.96074 295.10553 355.65625 294.0625 C 354.11493 291.94268 352.90612 289.93503 352.5625 287.625 z M 358.90625 300.625 C 358.88814 300.68018 358.86066 300.7037 358.84375 300.75 C 358.86375 300.71442 358.88233 300.6651 358.90625 300.625 z M 358.8125 300.78125 C 358.81703 300.77293 358.83899 300.78986 358.84375 300.78125 C 358.83378 300.80798 358.8219 300.82017 358.8125 300.84375 C 358.82065 300.82826 358.80344 300.79789 358.8125 300.78125 z M 358.78125 300.875 C 358.78488 300.86784 358.80865 300.88245 358.8125 300.875 C 358.77574 300.96518 358.74239 301.0524 358.71875 301.09375 C 358.71178 301.10489 358.6925 301.1191 358.6875 301.125 C 358.68857 301.12032 358.68575 301.09967 358.6875 301.09375 C 358.70226 301.05086 358.73771 300.96096 358.78125 300.875 z "
       id="path10705" />
    <path
       style="opacity:1;color:#000000;fill:#000000;fill-opacity:1;fill-rule:nonzero;stroke:none;stroke-width:3.9000001;stroke-linecap:butt;stroke-linejoin:miter;marker:none;marker-start:none;marker-mid:none;marker-end:none;stroke-miterlimit:4;stroke-dasharray:none;stroke-dashoffset:0;stroke-opacity:1;visibility:visible;display:inline;overflow:visible"
       d="M 442.28125 301.25 C 439.86075 301.37888 437.45823 301.95225 435.03125 302.59375 L 431.90625 308.3125 C 429.0852 310.88687 426.52184 314.3092 423.625 317.0625 C 422.61832 322.12504 424.71905 326.09631 427.9375 329.84375 C 432.03828 333.57352 436.70918 333.97083 441.9375 333.53125 C 451.79581 330.72806 460.44913 323.06618 458.78125 312.8125 C 457.1626 307.31579 453.41436 304.16819 448.34375 302 C 446.29476 301.3287 444.28681 301.14322 442.28125 301.25 z M 435.53125 314.65625 C 435.58952 314.65447 435.66029 314.65726 435.71875 314.65625 C 435.66037 314.71344 435.58875 314.75601 435.53125 314.8125 C 435.52918 314.76159 435.53402 314.70878 435.53125 314.65625 z M 438 314.84375 C 441.17719 315.901 443.50474 317.25021 444.53125 320.28125 C 443.04795 320.15884 441.5854 319.64644 440.0625 318.5625 C 439.11558 317.1576 438.27006 315.99627 438 314.84375 z "
       id="path10707" />
    <path
       style="opacity:1;color:#000000;fill:#000000;fill-opacity:1;fill-rule:nonzero;stroke:none;stroke-width:3.9000001;stroke-linecap:butt;stroke-linejoin:miter;marker:none;marker-start:none;marker-mid:none;marker-end:none;stroke-miterlimit:4;stroke-dasharray:none;stroke-dashoffset:0;stroke-opacity:1;visibility:visible;display:inline;overflow:visible"
       id="path13367"
       d="M 461.72615,555.31734 C 459.3692,555.92324 448.98073,565.91214 463.44093,553.09678 C 458.19261,558.59099 460.61353,566.07723 464.13216,571.85124 C 471.83469,582.50012 484.59552,589.08063 497.72504,588.90233 C 512.7594,585.83058 514.60472,586.58442 513.15853,572.66481 C 509.3347,557.78703 491.73462,551.2116 478.00998,549.31442 C 470.64529,548.56743 463.26009,549.46015 456.39602,552.22824 L 460.14904,545.6399 C 467.30558,543.33424 474.83473,542.69533 482.29817,543.70187 C 496.84804,546.12391 514.78665,553.2125 519.45182,568.62607 C 521.86003,583.89572 507.86016,594.70471 493.52325,594.86937 C 479.78991,594.4968 466.65335,587.54549 458.31898,576.62484 C 454.28184,570.46843 451.2953,562.47574 455.77258,555.76613 C 459.16319,552.61118 461.75588,548.40228 466.57813,548.39828 L 461.72615,555.31734 z " />
    <path
       style="opacity:1;color:#000000;fill:#000000;fill-opacity:1;fill-rule:nonzero;stroke:none;stroke-width:3.9000001;stroke-linecap:butt;stroke-linejoin:miter;marker:none;marker-start:none;marker-mid:none;marker-end:none;stroke-miterlimit:4;stroke-dasharray:none;stroke-dashoffset:0;stroke-opacity:1;visibility:visible;display:inline;overflow:visible"
       id="path14252"
       d="M 537.48759,551.78181 C 534.75507,552.99544 530.99416,555.38061 528.25409,557.47553 C 528.95951,556.74587 525.13476,560.23226 525.91616,559.54485 C 533.70005,552.69725 524.05102,559.93405 524.85709,569.74951 C 526.32411,576.54743 531.25575,581.63367 537.47823,584.46541 C 547.3653,587.76744 557.59839,582.97599 565.22485,576.8003 C 565.82828,576.25559 567.65771,574.64346 567.03513,575.16617 C 565.91168,576.1094 564.9046,577.19478 563.72171,578.0623 C 561.87709,579.41514 566.90103,574.76206 568.31749,572.96583 C 571.69659,568.68077 574.25265,564.19672 575.07375,558.79475 C 574.81729,551.35328 569.99799,547.17735 563.35149,545.00602 C 557.69077,543.56666 551.94144,544.01957 546.38487,545.61006 L 550.50043,538.73865 C 556.40407,537.4478 562.5,537.23434 568.35606,538.9732 C 575.73784,541.38811 581.23345,546.82057 581.84754,554.88236 C 581.81385,566.90153 570.15352,576.49095 562.09268,583.56599 C 553.66444,589.81857 542.67378,594.15558 532.30126,590.25553 C 525.50123,587.00431 520.13904,581.4468 518.24165,574.04158 C 516.79257,563.14893 522.67404,556.6225 531.55995,550.37204 C 534.73146,548.03799 538.42553,545.37373 542.33957,544.86275 L 537.48759,551.78181 z " />
    <path
       style="opacity:1;color:#000000;fill:#000000;fill-opacity:1;fill-rule:nonzero;stroke:none;stroke-width:3.9000001;stroke-linecap:butt;stroke-linejoin:miter;marker:none;marker-start:none;marker-mid:none;marker-end:none;stroke-miterlimit:4;stroke-dasharray:none;stroke-dashoffset:0;stroke-opacity:1;visibility:visible;display:inline;overflow:visible"
       id="path14260"
       d="M 753.35452,376.67908 C 741.00766,386.00913 755.01171,371.58095 748.1834,381.0216 C 743.7634,387.88151 744.04552,396.35876 748.16786,403.26512 C 754.58729,411.32119 765.63348,406.75836 773.0974,402.53107 C 781.77246,395.38815 785.54324,395.73431 792.35969,380.66817 C 795.44163,373.06485 791.07235,368.76656 783.6298,368.52165 C 775.85544,368.64486 768.32552,370.94274 761.46504,374.48768 L 765.12613,367.53884 C 772.36994,364.30296 780.16354,362.13306 788.15903,362.24871 C 796.78402,362.83338 802.33133,368.61977 799.35353,377.49097 C 793.92706,390.99325 781.4801,401.25522 769.73013,409.0507 C 761.21988,413.52351 748.84087,417.56971 742.10327,408.1792 C 737.62835,400.75004 736.85448,391.66651 740.96915,383.88847 C 744.73003,377.5847 750.85133,372.09691 757.73007,369.46845 L 753.35452,376.67908 z " />
    <path
       style="opacity:1;color:#000000;fill:#000000;fill-opacity:1;fill-rule:nonzero;stroke:none;stroke-width:3.9000001;stroke-linecap:butt;stroke-linejoin:miter;marker:none;marker-start:none;marker-mid:none;marker-end:none;stroke-miterlimit:4;stroke-dasharray:none;stroke-dashoffset:0;stroke-opacity:1;visibility:visible;display:inline;overflow:visible"
       id="path14262"
       d="M 809.21863,312.88073 C 807.96657,314.54388 804.93181,316.61255 803.05676,318.24277 C 812.66783,307.25939 796.68489,326.75599 794.83091,330.83602 C 792.78779,336.49721 792.1314,343.49446 797.36085,347.44941 C 805.39522,350.33839 814.5717,347.9581 821.42899,343.20247 C 821.84933,342.43806 827.75717,338.15597 826.95748,325.28368 C 826.27805,318.34888 821.961,313.32712 814.74937,314.19113 C 809.20795,315.26423 804.4306,318.43995 799.89814,321.64489 L 803.14915,314.88957 C 808.00441,311.62258 813.15727,308.43267 819.08743,307.72438 C 827.32938,307.39799 832.53425,313.2682 833.56001,321.18399 C 834.66376,333.54506 828.5204,343.36196 818.05599,350.04963 C 810.46927,354.54348 800.19027,357.00795 791.8656,353.12774 C 785.6709,348.90905 785.7149,340.62508 787.72457,334.0775 C 791.36127,324.67118 798.81268,317.49429 806.26388,311.01425 C 808.50948,309.09459 811.08314,306.17728 814.07061,305.96167 L 809.21863,312.88073 z " />
  </g>
</svg>
