<?xml version="1.0" encoding="UTF-8" standalone="no"?>
<!-- Created with Inkscape (http://www.inkscape.org/) -->
<svg
   xmlns:dc="http://purl.org/dc/elements/1.1/"
   xmlns:cc="http://web.resource.org/cc/"
   xmlns:rdf="http://www.w3.org/1999/02/22-rdf-syntax-ns#"
   xmlns:svg="http://www.w3.org/2000/svg"
   xmlns="http://www.w3.org/2000/svg"
   xmlns:sodipodi="http://sodipodi.sourceforge.net/DTD/sodipodi-0.dtd"
   xmlns:inkscape="http://www.inkscape.org/namespaces/inkscape"
   width="1000"
   height="1000"
   id="svg2"
   sodipodi:version="0.32"
   inkscape:version="0.45.1"
   version="1.0"
   sodipodi:docbase="/home/kris/tale/art/monster"
   sodipodi:docname="rocket-penguin.svg"
   inkscape:output_extension="org.inkscape.output.svg.inkscape">
  <defs
     id="defs4" />
  <sodipodi:namedview
     id="base"
     pagecolor="#ffffff"
     bordercolor="#666666"
     borderopacity="1.0"
     inkscape:pageopacity="0.0"
     inkscape:pageshadow="2"
     inkscape:zoom="0.49497475"
     inkscape:cx="293.26548"
     inkscape:cy="365.13483"
     inkscape:document-units="px"
     inkscape:current-layer="layer2"
     inkscape:window-width="1680"
     inkscape:window-height="979"
     inkscape:window-x="0"
     inkscape:window-y="45" />
  <metadata
     id="metadata7">
    <rdf:RDF>
      <cc:Work
         rdf:about="">
        <dc:format>image/svg+xml</dc:format>
        <dc:type
           rdf:resource="http://purl.org/dc/dcmitype/StillImage" />
      </cc:Work>
    </rdf:RDF>
  </metadata>
  <g
     inkscape:groupmode="layer"
     id="layer4"
     inkscape:label="rocket-fin"
     style="display:inline">
    <path
       style="opacity:1;color:#000000;fill:#dd1717;fill-opacity:1;fill-rule:nonzero;stroke:none;stroke-width:1px;stroke-linecap:butt;stroke-linejoin:miter;marker:none;marker-start:none;marker-mid:none;marker-end:none;stroke-miterlimit:4;stroke-dasharray:none;stroke-dashoffset:0;stroke-opacity:1;visibility:visible;display:inline;overflow:visible;enable-background:accumulate"
       d="M 786.04155,411.83863 L 864.92924,527.3623 L 974.30231,531.37352 L 786.04155,411.83863 z "
       id="path32637" />
    <path
       style="opacity:1;color:#000000;fill:#000000;fill-opacity:0.9402984;fill-rule:nonzero;stroke:none;stroke-width:1px;stroke-linecap:butt;stroke-linejoin:miter;marker:none;marker-start:none;marker-mid:none;marker-end:none;stroke-miterlimit:4;stroke-dasharray:none;stroke-dashoffset:0;stroke-opacity:1;visibility:visible;display:inline;overflow:visible;enable-background:accumulate"
       id="path30518"
       d="M 762.52813,368.43121 C 764.28006,370.48516 766.05439,372.51979 767.83854,374.54588 C 773.85295,381.21189 780.42557,387.33593 787.09293,393.33676 C 797.3785,402.43626 808.27425,410.8081 819.24551,419.05535 C 830.09775,427.18553 841.16924,435.0158 852.32302,442.72494 C 861.95817,449.33186 871.69652,455.78659 881.44635,462.22246 C 889.31317,467.40448 897.17278,472.59755 905.07709,477.72234 C 911.55297,481.95398 918.06854,486.12263 924.62353,490.23047 C 930.68236,494.01282 936.83738,497.63669 943.02379,501.20533 C 948.63015,504.42508 954.29459,507.54172 959.92748,510.71451 C 964.25508,513.05653 968.41107,515.67661 972.50365,518.40029 C 975.02679,520.04658 977.10929,522.12511 978.96911,524.45835 C 980.28394,526.47709 979.73059,527.60368 979.0479,529.56523 C 968.08921,537.50324 964.97413,539.80712 954.83782,540.75726 C 950.71724,541.02788 946.59309,540.86821 942.47363,540.69762 C 937.79915,540.42897 933.13889,539.95644 928.48745,539.42862 C 923.81714,538.86728 919.15108,538.27147 914.49409,537.60864 C 910.06452,536.97221 905.63654,536.32552 901.2052,535.70136 C 897.3535,535.15763 893.49456,534.66958 889.63401,534.19409 C 885.7048,533.68199 881.76365,533.26999 877.82617,532.82822 C 873.99064,532.3943 870.14867,532.03052 866.30242,531.70891 C 863.00853,531.43409 859.71093,531.21278 856.41205,531.01191 C 854.91981,530.93619 853.42688,530.87557 851.93413,530.81039 L 867.58977,519.54526 C 869.08063,519.62121 870.57195,519.68875 872.06173,519.78432 C 875.3539,520.01926 878.64592,520.25868 881.93311,520.55747 C 885.76891,520.92463 889.60193,521.31761 893.43087,521.75171 C 897.38491,522.18863 901.34094,522.60914 905.28747,523.11076 C 909.13882,523.60417 912.98767,524.1159 916.82874,524.68505 C 921.24267,525.33211 925.65371,525.99944 930.0715,526.61995 C 934.7147,527.26391 939.3638,527.86697 944.02105,528.40111 C 948.65656,528.8962 953.30023,529.35045 957.95982,529.54262 C 962.0671,529.63649 966.18582,529.75257 970.27923,529.29471 C 978.59545,527.9585 989.09783,521.61455 960.99172,536.83918 C 962.05184,535.58868 963.03252,536.44898 962.25268,534.30691 C 960.49158,532.22221 958.73499,530.16474 956.36566,528.69275 C 952.37379,525.97238 948.31306,523.36252 944.0855,521.01601 C 938.4959,517.79953 932.86378,514.65736 927.28493,511.42185 C 921.10469,507.81839 914.94649,504.17538 908.89387,500.36009 C 902.36381,496.23057 895.87684,492.03467 889.45067,487.74482 C 881.62723,482.55933 873.84805,477.3077 866.0535,472.07898 C 856.38102,465.57471 846.72406,459.04621 837.14984,452.39783 C 826.04437,444.62182 815.01478,436.73605 804.18794,428.57479 C 793.16718,420.25736 782.19099,411.86195 771.66126,402.92547 C 764.78421,396.96597 758.01731,390.87557 751.60195,384.41676 C 749.6964,382.48129 747.78265,380.55431 745.8367,378.65971 L 762.52813,368.43121 z " />
  </g>
  <g
     inkscape:label="rocket"
     inkscape:groupmode="layer"
     id="layer1"
     style="display:inline">
    <path
       style="opacity:1;color:#000000;fill:#ffffff;fill-opacity:1;fill-rule:nonzero;stroke:none;stroke-width:1px;stroke-linecap:butt;stroke-linejoin:miter;marker:none;marker-start:none;marker-mid:none;marker-end:none;stroke-miterlimit:4;stroke-dasharray:none;stroke-dashoffset:0;stroke-opacity:1;visibility:visible;display:inline;overflow:visible;enable-background:accumulate"
       d="M 595.06651,143.87457 C 591.76237,145.59604 588.44953,147.30086 585.14538,149.02232 C 583.67688,157.93052 576.55104,165.88477 571.48043,172.98279 C 547.30274,192.82097 536.06423,201.86283 495.29364,215.28797 C 488.23226,215.1208 476.2089,217.25229 466.09184,216.87911 C 534.47996,338.64634 602.86517,460.41531 671.25329,582.18255 C 671.86416,611.15621 706.06994,634.87029 732.65198,620.36954 C 784.53347,607.98923 829.32094,573.75958 860.50351,531.17298 C 869.82577,502.4528 837.33532,486.90348 824.6564,466.03047 C 747.88795,358.82815 671.64654,251.21117 595.06651,143.87457 z M 697.74084,624.95573 L 698.67679,625.70449 L 697.74084,624.95573 z "
       id="path32506" />
    <path
       style="opacity:1;color:#000000;fill:#46a1a6;fill-opacity:1;fill-rule:nonzero;stroke:none;stroke-width:1px;stroke-linecap:butt;stroke-linejoin:miter;marker:none;marker-start:none;marker-mid:none;marker-end:none;stroke-miterlimit:4;stroke-dasharray:none;stroke-dashoffset:0;stroke-opacity:1;visibility:visible;display:inline;overflow:visible;enable-background:accumulate"
       d="M 772.40341,604.37806 C 796.6307,573.92212 808.36698,536.1472 828.18072,503.04601 C 827.62355,496.90697 833.12724,490.9562 839.30991,491.1295 C 847.37483,495.04078 849.72298,504.483 855.53392,510.63898 C 861.99819,519.76651 859.68993,533.81375 850.62976,540.37861 C 830.97308,568.19183 804.1745,591.55361 772.40341,604.37806 z "
       id="path35623" />
    <path
       style="opacity:1;color:#000000;fill:#dd1717;fill-opacity:1;fill-rule:nonzero;stroke:none;stroke-width:1px;stroke-linecap:butt;stroke-linejoin:miter;marker:none;marker-start:none;marker-mid:none;marker-end:none;stroke-miterlimit:4;stroke-dasharray:none;stroke-dashoffset:0;stroke-opacity:1;visibility:visible;display:inline;overflow:visible;enable-background:accumulate"
       d="M 445.71927,36.340394 C 482.35766,71.685376 555.2518,103.36481 584.89982,141.27411 C 587.99727,153.44046 577.95026,163.88 571.4473,172.98305 C 547.26965,192.82125 536.02032,201.85217 495.24974,215.27731 C 483.0834,214.98925 456.21818,221.71893 449.67595,210.2304 C 450.97737,173.42297 450.70183,92.550803 441.36395,55.510329 C 442.17612,47.430637 433.93455,33.164579 445.71927,36.340394 z "
       id="path31524"
       sodipodi:nodetypes="ccccccc" />
    <path
       style="opacity:1;color:#000000;fill:#46a1a6;fill-opacity:1;fill-rule:nonzero;stroke:none;stroke-width:1px;stroke-linecap:butt;stroke-linejoin:miter;marker:none;marker-start:none;marker-mid:none;marker-end:none;stroke-miterlimit:4;stroke-dasharray:none;stroke-dashoffset:0;stroke-opacity:1;visibility:visible;display:inline;overflow:visible;enable-background:accumulate"
       d="M 774.86357,404.81897 C 757.24568,456.74436 728.15257,503.25769 700.32674,550.11377 C 684.53371,567.58901 666.64708,595.31681 690.77573,614.91838 C 713.23211,635.35615 726.13684,595.94389 736.14398,581.2669 C 756.46023,550.93996 774.10637,518.79237 786.62157,484.47344 C 803.02631,461.93203 807.64775,429.49618 782.4325,411.3471 C 780.03996,409.02565 777.51018,406.84588 774.86357,404.81897 z "
       id="path36708" />
    <path
       style="opacity:1;color:#000000;fill:#46a1a6;fill-opacity:1;fill-rule:nonzero;stroke:none;stroke-width:1px;stroke-linecap:butt;stroke-linejoin:miter;marker:none;marker-start:none;marker-mid:none;marker-end:none;stroke-miterlimit:4;stroke-dasharray:none;stroke-dashoffset:0;stroke-opacity:1;visibility:visible;display:inline;overflow:visible;enable-background:accumulate"
       d="M 656.4652,241.77551 C 636.98141,294.27345 614.50644,346.59133 580.01808,391.17852 C 561.18896,421.41432 599.53828,476.0947 626.25507,412.21093 C 648.29111,378.35029 662.32761,340.22673 680.5463,305.00109 C 687.18757,281.84909 678.24556,253.65215 656.4652,241.77551 z "
       id="path36716"
       sodipodi:nodetypes="ccccc" />
    <path
       style="opacity:1;color:#000000;fill:#46a1a6;fill-opacity:1;fill-rule:nonzero;stroke:none;stroke-width:1px;stroke-linecap:butt;stroke-linejoin:miter;marker:none;marker-start:none;marker-mid:none;marker-end:none;stroke-miterlimit:4;stroke-dasharray:none;stroke-dashoffset:0;stroke-opacity:1;visibility:visible;display:inline;overflow:visible;enable-background:accumulate"
       d="M 527.18296,305.94194 C 542.99455,281.35901 557.7282,255.97928 567.80508,228.41753 C 574.36704,208.66159 584.15503,190.41414 590.68728,170.70336 C 599.04859,149.4702 610.92502,180.53437 622.0556,186.32229 C 635.10993,208.80331 608.94401,231.455 604.77822,253.73461 C 593.89877,289.04903 571.54913,319.18368 554.10955,351.34669 C 539.77648,363.26962 537.77552,329.81231 528.91874,322.2166 C 526.66925,317.17445 523.36902,311.21773 527.18296,305.94194 z "
       id="path36720" />
    <path
       style="opacity:1;color:#000000;fill:#000000;fill-opacity:1;fill-rule:evenodd;stroke:none;stroke-width:1px;stroke-linecap:butt;stroke-linejoin:miter;marker:none;marker-start:none;marker-mid:none;marker-end:none;stroke-miterlimit:4;stroke-dasharray:none;stroke-dashoffset:0;stroke-opacity:1;visibility:visible;display:inline;overflow:visible;enable-background:accumulate"
       id="path30470"
       d="M 605.2199,142.45706 C 605.85647,143.78739 606.66714,145.03066 607.42957,146.29143 C 610.75609,151.81552 614.27905,157.21605 617.7905,162.62325 C 625.09972,173.81706 632.57083,184.90403 640.10616,195.94655 C 650.85311,211.51055 661.63502,227.05059 672.43149,242.58035 C 686.05942,262.23641 699.78772,281.82199 713.59553,301.35201 C 728.72,322.72762 744.2138,343.83779 759.77192,364.8987 C 773.22747,383.04772 786.70447,401.18099 800.22483,419.28184 C 810.83691,433.49533 821.47495,447.68956 832.15193,461.8544 C 840.6842,473.19863 849.35548,484.43692 858.05565,495.65251 C 862.91042,501.8725 867.80608,508.06035 872.69528,514.25327 L 857.04092,523.58458 C 852.22139,517.34422 847.39719,511.10746 842.60369,504.84708 C 834.00821,493.55882 825.43959,482.24981 817.02024,470.82921 C 806.49268,456.57411 796.03117,442.27035 785.58762,427.95361 C 772.27666,409.72221 758.98908,391.47372 745.67464,373.24486 C 730.24641,352.08062 714.81541,330.91788 699.51934,309.65787 C 685.58329,290.19592 671.70447,270.69331 657.84355,251.17778 C 646.8599,235.75312 635.90883,220.3052 624.93577,204.873 C 617.22293,193.91995 609.54792,182.94036 601.87973,171.95601 C 598.17485,166.6432 594.46758,161.33162 590.74153,156.03384 C 589.86527,154.75756 588.96675,153.49355 588.17135,152.16422 L 605.2199,142.45706 z " />
    <path
       style="opacity:1;color:#000000;fill:#000000;fill-opacity:1;fill-rule:evenodd;stroke:none;stroke-width:1px;stroke-linecap:butt;stroke-linejoin:miter;marker:none;marker-start:none;marker-mid:none;marker-end:none;stroke-miterlimit:4;stroke-dasharray:none;stroke-dashoffset:0;stroke-opacity:1;visibility:visible;display:inline;overflow:visible;enable-background:accumulate"
       id="path30476"
       d="M 702.52466,618.76563 C 704.32607,618.9734 706.13811,619.08579 707.9468,619.21374 C 712.72223,619.59358 717.46194,618.96178 722.18015,618.30002 C 730.81993,617.02203 739.2765,614.84533 747.64404,612.38585 C 756.97595,609.63956 765.99979,606.00781 774.85536,602.00963 C 781.63656,599.38248 811.01205,582.28322 783.70157,597.86875 C 791.24273,593.34373 798.40386,588.24189 805.34945,582.85812 C 811.41481,578.11568 817.08774,572.90794 822.59259,567.53358 C 827.25453,562.97345 831.55901,558.0759 835.70658,553.04962 C 839.24711,548.78185 842.33189,544.17794 845.19442,539.43732 C 847.53515,535.60836 849.36468,531.51444 851.16015,527.41325 C 851.40416,526.81816 851.64814,526.22304 851.89215,525.62795 L 869.2898,517.59752 C 869.04315,518.20306 868.79652,518.80857 868.54988,519.41411 C 866.73703,523.60785 864.90322,527.80162 862.56243,531.73686 C 859.69552,536.57384 856.62874,541.293 853.06962,545.65696 C 848.9053,550.75999 844.59561,555.74604 839.90802,560.38051 C 834.37638,565.83538 828.68075,571.12954 822.59048,575.96221 C 815.64889,581.4281 808.491,586.61366 800.94075,591.21594 C 787.63507,598.97198 774.48748,607.12911 760.41215,613.45859 C 751.50724,617.38037 742.43413,620.92043 733.07383,623.6149 C 724.54184,626.0677 715.92435,628.24394 707.13274,629.55397 C 702.20328,630.23574 697.24908,630.84604 692.26311,630.46948 C 690.37291,630.36684 688.48206,630.27336 686.59442,630.12983 L 702.52466,618.76563 z " />
    <path
       style="opacity:1;color:#000000;fill:#46a1a6;fill-opacity:1;fill-rule:nonzero;stroke:none;stroke-width:1px;stroke-linecap:butt;stroke-linejoin:miter;marker:none;marker-start:none;marker-mid:none;marker-end:none;stroke-miterlimit:4;stroke-dasharray:none;stroke-dashoffset:0;stroke-opacity:1;visibility:visible;display:inline;overflow:visible;enable-background:accumulate"
       d="M 467.01443,211.81159 C 483.52786,211.74992 501.69528,214.90077 516.18289,204.84706 C 527.16166,201.00463 528.25354,212.94608 522.18248,219.28845 C 518.03165,233.55815 510.47704,246.29508 504.08894,259.42282 C 496.30499,273.07666 485.90881,259.45648 480.13878,251.88944 C 471.91857,241.37956 462.47908,228.23825 465.88674,214.27332 L 467.01443,211.81159 L 467.01443,211.81159 z "
       id="path37691" />
    <path
       style="opacity:1;color:#000000;fill:#000000;fill-opacity:1;fill-rule:evenodd;stroke:none;stroke-width:1px;stroke-linecap:butt;stroke-linejoin:miter;marker:none;marker-start:none;marker-mid:none;marker-end:none;stroke-miterlimit:4;stroke-dasharray:none;stroke-dashoffset:0;stroke-opacity:1;visibility:visible;display:inline;overflow:visible;enable-background:accumulate"
       id="path30496"
       d="M 460.46109,203.01863 C 461.58766,203.68809 462.80375,204.182 463.9911,204.72695 C 466.74773,205.89689 469.67537,206.52866 472.57889,207.20425 C 476.81477,208.13793 481.12583,208.59861 485.44805,208.87434 C 490.70055,209.18362 495.94806,208.85728 501.16575,208.25818 C 506.69239,207.62242 512.06705,206.20918 517.35136,204.51681 C 522.49877,202.84105 527.49636,200.75155 532.42238,198.51708 C 537.05087,196.43121 541.56357,194.11065 546.00874,191.6621 C 550.54226,187.93084 524.42204,205.16268 541.55415,193.69744 C 545.18418,191.22601 548.48096,188.32919 551.76244,185.42521 C 554.81228,182.66835 557.61089,179.65721 560.40276,176.64533 C 562.82609,173.98145 565.09662,171.18647 567.3627,168.38968 C 569.39099,165.85676 571.29398,163.22899 573.18956,160.59669 C 574.86242,158.29181 576.44752,155.92797 578.00436,153.54426 C 579.41709,151.31666 580.73938,149.03472 582.04777,146.74515 C 582.25611,146.36558 582.46445,145.98602 582.67278,145.60646 L 600.3075,137.69722 C 600.10117,138.08344 599.89485,138.46963 599.68852,138.85584 C 598.40205,141.18779 597.08212,143.49935 595.67361,145.76059 C 594.14022,148.19608 592.57733,150.61219 590.85816,152.92294 C 588.96471,155.59277 587.05967,158.25476 585.03675,160.82919 C 582.7653,163.67213 580.48438,166.50813 578.06578,169.22914 C 575.27298,172.29186 572.47722,175.35754 569.4449,178.18859 C 566.18454,181.16669 562.91067,184.13934 559.308,186.70823 C 550.30552,192.93499 540.87609,198.47617 531.18585,203.60229 C 526.72005,205.99653 522.18358,208.25501 517.54882,210.30621 C 512.58182,212.47855 507.54912,214.51423 502.36246,216.10847 C 496.99475,217.70624 491.53878,219.00236 485.95314,219.55788 C 480.63973,220.07363 475.29978,220.33181 469.96516,219.95867 C 465.54653,219.62198 461.1404,219.10964 456.81051,218.13777 C 453.77952,217.41278 450.72935,216.71911 447.84969,215.49325 C 446.6272,214.96172 445.41177,214.39694 444.16082,213.93888 L 460.46109,203.01863 z " />
    <path
       style="opacity:1;color:#000000;fill:#000000;fill-opacity:1;fill-rule:evenodd;stroke:none;stroke-width:1px;stroke-linecap:butt;stroke-linejoin:miter;marker:none;marker-start:none;marker-mid:none;marker-end:none;stroke-miterlimit:4;stroke-dasharray:none;stroke-dashoffset:0;stroke-opacity:1;visibility:visible;display:inline;overflow:visible;enable-background:accumulate"
       d="M 434.36294,19.018086 C 434.77317,22.199856 435.18757,25.380848 435.57968,28.564834 C 435.54956,28.539824 435.51663,28.496306 435.48608,28.471238 C 437.28262,42.577208 439.04239,56.634875 440.54025,70.776434 C 443.01468,95.022688 445.06899,119.29127 445.03283,143.68737 C 445.33498,158.32494 445.56284,173.042 445.96879,187.67728 C 446.1344,194.65541 446.32036,201.56936 446.15599,208.5491 C 446.0422,210.351 445.98002,212.19277 445.688,213.97763 L 463.19038,205.27326 C 463.37516,203.47861 463.2976,201.64411 463.28396,199.84471 C 463.04825,192.96754 462.63796,186.12461 462.25442,179.25368 C 461.43324,164.77621 460.97876,150.31631 460.4761,135.82534 C 459.7873,111.5959 457.23449,87.398169 454.86037,63.288784 C 453.8351,52.990464 452.7446,42.685778 451.58453,32.40225 C 445.82813,27.962018 440.11298,23.4824 434.36294,19.018086 z "
       id="path30504" />
    <path
       style="opacity:1;color:#000000;fill:#000000;fill-opacity:1;fill-rule:evenodd;stroke:none;stroke-width:1px;stroke-linecap:butt;stroke-linejoin:miter;marker:none;marker-start:none;marker-mid:none;marker-end:none;stroke-miterlimit:4;stroke-dasharray:none;stroke-dashoffset:0;stroke-opacity:1;visibility:visible;display:inline;overflow:visible;enable-background:accumulate"
       d="M 434.36294,19.018086 C 435.37589,26.874692 436.31908,34.74022 437.26441,42.604163 C 439.55263,44.318149 441.80048,46.048874 444.09688,47.751919 C 456.26254,56.727312 468.57587,65.586061 480.97353,74.23947 C 495.12557,84.164523 509.30243,94.054861 523.37231,104.09645 C 535.62138,112.84492 547.88177,121.61139 559.96818,130.58399 C 567.50068,136.18571 574.97278,141.79681 582.33752,147.61839 C 584.5083,149.33863 586.6858,151.06485 588.79561,152.85974 L 605.36202,142.47063 C 603.0729,140.74029 600.68162,139.17253 598.34235,137.51006 C 590.6121,131.98661 582.96142,126.36386 575.22425,120.85005 C 562.90636,112.0519 550.45917,103.33609 538.06682,94.643297 C 523.89692,84.751941 509.75909,74.789718 495.66803,64.786319 C 483.37131,56.082461 471.22653,47.23216 459.16576,38.205181 C 450.80453,31.9139 442.62795,25.435028 434.36294,19.018086 z "
       id="path30508" />
    <path
       style="opacity:1;color:#000000;fill:#46a1a6;fill-opacity:1;fill-rule:nonzero;stroke:none;stroke-width:1px;stroke-linecap:butt;stroke-linejoin:miter;marker:none;marker-start:none;marker-mid:none;marker-end:none;stroke-miterlimit:4;stroke-dasharray:none;stroke-dashoffset:0;stroke-opacity:1;visibility:visible;display:inline;overflow:visible;enable-background:accumulate"
       d="M 716.74073,323.85882 C 699.73677,358.86985 688.06941,396.6749 665.03996,428.49364 C 657.40187,453.54386 633.6077,470.11576 628.1681,493.88657 C 628.26322,513.93327 654.08652,546.66613 665.569,513.90249 C 686.14766,486.81555 700.83206,455.70001 718.36331,426.72054 C 722.56534,402.38921 749.02707,377.64973 736.31406,353.45427 C 729.71948,343.68916 719.2594,335.93749 716.74073,323.85882 z "
       id="path36712" />
    <path
       style="opacity:1;color:#000000;fill:#000000;fill-opacity:1;fill-rule:evenodd;stroke:none;stroke-width:1px;stroke-linecap:butt;stroke-linejoin:miter;marker:none;marker-start:none;marker-mid:none;marker-end:none;stroke-miterlimit:4;stroke-dasharray:none;stroke-dashoffset:0;stroke-opacity:1;visibility:visible;display:inline;overflow:visible;enable-background:accumulate"
       id="path30528"
       d="M 686.46857,632.09615 C 683.86048,628.2099 681.38666,624.23326 678.92225,620.25408 C 670.69715,606.78057 663.46423,592.7307 656.15227,578.7497 C 643.8029,554.58711 631.13332,530.59008 618.34758,506.65615 C 602.63594,477.00478 586.37778,447.65159 569.96999,418.38153 C 555.67926,392.99326 541.18048,367.72262 526.57244,342.51575 C 515.01524,322.5362 503.46226,302.55416 491.90273,282.57589 C 482.65028,266.56743 473.3989,250.55831 464.15406,234.54544 C 457.91191,223.73814 451.69148,212.91835 445.4525,202.10921 L 464.5205,191.11104 C 470.67068,201.9715 476.79971,212.84395 482.9429,223.70837 C 492.05125,239.79902 501.17241,255.88244 510.29667,271.96408 C 521.68912,292.03869 533.06996,312.11988 544.46399,332.19356 C 558.8361,357.54706 573.09399,382.96527 587.23785,408.44685 C 603.50227,437.80397 619.71677,467.18862 635.77682,496.65814 C 648.79877,520.45331 661.79134,544.26497 674.6145,568.16798 C 682.17741,581.9365 689.65032,595.80123 698.39369,608.86899 C 701.01554,612.67835 703.61851,616.52552 706.61286,620.05632 L 686.46857,632.09615 z " />
    <path
       style="opacity:1;color:#000000;fill:#000000;fill-opacity:1;fill-rule:nonzero;stroke:none;stroke-width:1px;stroke-linecap:butt;stroke-linejoin:miter;marker:none;marker-start:none;marker-mid:none;marker-end:none;stroke-miterlimit:4;stroke-dasharray:none;stroke-dashoffset:0;stroke-opacity:1;visibility:visible;display:inline;overflow:visible;enable-background:accumulate"
       d="M 598.34235,148.46075 L 589.82517,152.67255 C 589.21422,156.15778 588.29247,159.5493 587.39168,162.96806 C 584.25671,174.65211 580.32097,186.11947 576.2538,197.50482 C 569.4351,216.30342 561.82421,234.74001 553.69727,253.00698 C 544.74762,273.11059 533.5258,292.10728 522.06197,310.84903 C 521.50121,311.75702 520.94054,312.65711 520.37725,313.56331 C 521.60143,315.74302 522.80331,317.93529 524.02747,320.11499 C 526.95485,315.48889 529.8812,310.84286 532.73188,306.16926 C 544.09991,287.36356 555.20032,268.32541 564.17998,248.23362 C 572.43753,229.79712 580.16459,211.12901 587.39168,192.26347 C 591.73987,180.65134 596.00923,169.02157 599.65269,157.16514 C 600.1385,155.56892 600.67662,153.99343 601.15022,152.39176 C 600.2155,151.08116 599.27717,149.77127 598.34235,148.46075 z M 625.01709,185.89897 C 624.96695,186.08937 624.87997,186.27056 624.8299,186.46055 C 621.69494,198.14459 617.75904,209.51836 613.69203,220.90371 C 606.87333,239.7023 599.26232,258.23253 591.13551,276.49946 C 582.18585,296.60307 570.96408,315.59971 559.5002,334.34152 C 554.73121,342.06349 549.92767,349.75813 544.99289,357.36602 C 546.16962,359.46129 547.37279,361.54168 548.54952,363.63693 C 555.92338,352.3742 563.17256,341.04056 570.17009,329.56815 C 581.53813,310.76246 592.63842,291.81791 601.6182,271.7261 C 609.87575,253.2896 617.60288,234.62153 624.8299,215.75595 C 627.30708,209.1405 629.71191,202.48567 632.03676,195.8201 C 629.68734,192.52113 627.36689,189.19758 625.01709,185.89897 z M 536.2885,198.44078 C 532.97082,200.26869 529.41514,202.00487 525.52501,203.77572 C 523.76887,207.87119 522.00049,211.96743 520.19007,216.03673 C 512.53326,233.23625 503.22711,249.54955 493.51533,265.64238 C 494.76031,267.85915 496.01416,270.0709 497.25915,272.28767 C 497.91189,271.22733 498.57626,270.16846 499.22465,269.10542 C 510.5927,250.29973 521.69308,231.2616 530.67277,211.16976 C 532.57115,206.93125 534.44581,202.70334 536.2885,198.44078 z M 654.2189,226.98742 C 654.19383,227.08236 654.15035,227.1732 654.1253,227.2682 C 650.99035,238.95226 647.05454,250.41961 642.98744,261.80497 C 636.16874,280.60356 628.55782,299.04018 620.43091,317.30713 C 611.48126,337.41073 600.2594,356.40737 588.79561,375.14918 C 582.92601,384.65323 576.93905,394.07726 570.82525,403.41505 C 572.00199,405.51029 573.20516,407.59069 574.38189,409.68595 C 582.9078,396.7425 591.29478,383.71169 599.37191,370.4694 C 610.73995,351.66371 621.84032,332.62559 630.82002,312.53375 C 639.07757,294.09726 646.8982,275.42909 654.1253,256.56362 C 656.57901,250.01085 658.95937,243.41651 661.23857,236.81495 C 658.905,233.53572 656.55265,230.26647 654.2189,226.98742 z M 685.66701,271.16452 C 682.91503,280.4932 679.76423,289.71607 676.49464,298.8688 C 669.67594,317.66741 662.06506,336.10397 653.93812,354.37097 C 644.98846,374.47458 633.76665,393.47124 622.30281,412.21301 C 614.26741,425.22401 605.96756,438.05083 597.49999,450.7744 C 598.69005,452.89337 599.86657,455.01991 601.05663,457.13889 C 601.47118,456.52083 601.86017,455.88582 602.27337,455.26699 C 612.75325,439.51863 623.0277,423.68443 632.87912,407.53324 C 644.24715,388.72754 655.34756,369.68937 664.32722,349.5976 C 672.58477,331.1611 680.40544,312.49296 687.63251,293.62745 C 689.2605,289.27978 690.8451,284.88769 692.40589,280.52408 C 690.17769,277.39232 687.89518,274.29627 685.66701,271.16452 z M 714.12005,311.12982 C 712.44842,316.14883 710.74994,321.12868 708.97231,326.10512 C 702.1536,344.90371 694.54274,363.34027 686.41577,381.60728 C 677.46612,401.71089 666.33792,420.70759 654.87408,439.44933 C 644.86393,455.65778 634.35151,471.5736 623.70675,487.37025 C 622.66443,488.91244 621.5757,490.4206 620.52451,491.95644 C 621.6879,494.02797 622.91773,496.06221 624.08113,498.13375 C 627.66646,492.9364 631.24758,487.75051 634.75103,482.50328 C 645.23091,466.75495 655.59899,450.92074 665.45037,434.76955 C 676.81841,415.96385 687.91884,396.92568 696.89847,376.8339 C 705.15604,358.3974 712.88314,339.72927 720.11017,320.86376 C 720.22779,320.54963 720.36706,320.24196 720.48455,319.92781 C 718.38454,316.97735 716.21989,314.08044 714.12005,311.12982 z M 743.22827,351.93749 C 741.67072,356.57761 740.0997,361.18527 738.45491,365.78963 C 731.63621,384.58822 724.0253,403.02484 715.89838,421.2918 C 706.94872,441.3954 695.8205,460.39215 684.35667,479.13385 C 674.34653,495.34229 663.83409,511.25817 653.18936,527.05477 C 650.85269,530.51202 648.44416,533.92257 646.07609,537.35028 C 647.25281,539.44553 648.456,541.52594 649.63272,543.62118 C 654.58469,536.5057 659.51719,529.39193 664.32722,522.1878 C 674.8071,506.43946 685.08155,490.6053 694.93297,474.45407 C 706.301,455.64838 717.40141,436.61025 726.38107,416.51841 C 734.61026,398.14524 742.29349,379.53482 749.49917,360.73547 C 747.40836,357.80076 745.31877,354.87247 743.22827,351.93749 z M 772.43008,392.93234 C 770.89275,397.48825 769.37177,402.0581 767.75032,406.59728 C 760.93161,425.3959 753.3206,443.92612 745.19377,462.19305 C 736.24414,482.29665 725.11596,501.29331 713.65209,520.0351 C 703.64193,536.24355 693.1294,552.15934 682.48476,567.95602 C 678.82944,573.36432 675.09505,578.7123 671.34689,584.05447 C 671.55984,587.0568 672.05782,590.01807 672.93801,592.85245 C 679.87531,582.97939 686.83221,573.11924 693.52904,563.08905 C 704.00892,547.34072 714.37706,531.50648 724.22838,515.35532 C 735.59642,496.54963 746.6967,477.51151 755.67648,457.41967 C 763.89382,439.07297 771.59794,420.50199 778.79458,401.73033 C 776.69229,398.78408 774.53187,395.879 772.43008,392.93234 z M 803.69101,436.64145 C 802.87378,438.97806 802.09156,441.32636 801.25752,443.66114 C 794.43882,462.45973 786.82787,480.98991 778.70099,499.25689 C 769.75133,519.3605 758.62323,538.3571 747.15929,557.09893 C 737.14914,573.30739 726.63665,589.12956 715.99197,604.92627 C 711.90997,610.96584 707.73821,616.91509 703.54376,622.89662 C 705.76737,623.58498 708.08163,624.08981 710.37623,624.39415 C 715.9982,616.37305 721.58865,608.312 727.03624,600.15291 C 737.51613,584.40455 747.88412,568.47687 757.73558,552.32557 C 769.10363,533.51987 780.20394,514.57532 789.1837,494.48352 C 796.46938,478.21691 803.29407,461.76236 809.77471,445.15866 C 807.74533,442.32099 805.71977,439.47964 803.69101,436.64145 z M 832.05045,475.76441 C 825.68443,492.89568 818.60303,509.80524 811.17865,526.4932 C 802.229,546.59681 791.10072,565.49981 779.63695,584.24165 C 774.21781,593.0163 768.63179,601.72417 762.97693,610.35482 C 766.74475,608.76192 770.45032,607.02221 774.1148,605.20706 C 779.57687,596.71301 784.95883,588.17642 790.21325,579.56187 C 801.58128,560.75618 812.68163,541.81164 821.66135,521.71982 C 827.48284,508.72232 833.01651,495.62545 838.32135,482.40969 C 836.17166,480.2109 834.03484,477.9967 832.05045,475.76441 z "
       id="path32645" />
  </g>
  <g
     inkscape:groupmode="layer"
     id="layer3"
     inkscape:label="rocket-left-fin"
     style="display:inline">
    <path
       style="color:#000000;fill:#dd1717;fill-opacity:1;fill-rule:nonzero;stroke:none;stroke-width:1px;stroke-linecap:butt;stroke-linejoin:miter;marker:none;marker-start:none;marker-mid:none;marker-end:none;stroke-miterlimit:4;stroke-dasharray:none;stroke-dashoffset:0;stroke-opacity:1;visibility:visible;display:inline;overflow:visible;enable-background:accumulate"
       d="M 720.25727,464.25215 L 797.27302,596.35558 L 878.30004,623.09717 L 720.25727,464.25215 z "
       id="path32635" />
    <path
       style="color:#000000;fill:#000000;fill-opacity:0.9402984;fill-rule:nonzero;stroke:none;stroke-width:1px;stroke-linecap:butt;stroke-linejoin:miter;marker:none;marker-start:none;marker-mid:none;marker-end:none;stroke-miterlimit:4;stroke-dasharray:none;stroke-dashoffset:0;stroke-opacity:1;visibility:visible;display:inline;overflow:visible;enable-background:accumulate"
       id="path30514"
       d="M 796.39905,587.20682 C 797.82146,587.74528 799.25976,588.24485 800.69106,588.76102 C 803.49638,589.78332 806.2551,590.92395 809.01655,592.05741 C 813.07811,593.72569 817.12926,595.41897 821.19155,597.08558 C 826.08067,599.09684 830.95852,601.13546 835.84972,603.1417 C 841.2068,605.36152 846.60182,607.48701 851.99895,609.60704 C 857.31955,611.70361 862.67187,613.71875 868.03347,615.70782 C 872.59318,617.45047 877.18445,619.10128 881.8051,620.6727 C 884.83577,621.80393 887.91514,622.31636 891.11377,622.35512 C 877.24816,630.43243 879.45572,635.49764 873.9452,625.9088 C 869.29325,618.8724 863.45648,612.7231 857.71556,606.57975 C 848.48979,596.77702 838.87405,587.35484 829.36949,577.8254 C 818.4531,566.87787 807.52522,555.94187 796.65984,544.94366 C 786.90811,535.04582 777.24398,525.06198 767.64639,515.01476 C 759.31284,506.26967 751.14451,497.37025 743.03434,488.41835 C 736.15716,480.87325 729.50498,473.12899 722.89866,465.34711 C 717.78966,459.28108 712.71946,453.18265 707.51272,447.19991 C 704.37606,443.51985 701.01441,440.06098 697.45852,436.79454 C 689.39462,436.11472 710.97693,420.11369 712.46622,430.63748 C 714.69835,438.30741 718.18593,445.54443 721.57931,452.7523 C 726.48321,463.1249 732.05788,473.16167 737.65127,483.17332 C 742.87022,492.4516 748.22199,501.65381 753.66168,510.80416 C 758.27901,518.56376 763.06832,526.21891 767.88191,533.85771 C 771.8411,540.09855 775.78441,546.34941 779.73494,552.59573 C 782.91247,557.62916 786.12361,562.64109 789.33904,567.65033 C 792.0104,571.75445 794.70951,575.84046 797.39341,579.93639 C 799.64732,583.36809 801.91238,586.79237 804.16297,590.2262 C 805.43982,592.17248 806.6999,594.12969 807.96769,596.08186 L 791.34867,605.7754 C 790.10458,603.81681 788.86852,601.85307 787.60878,599.90443 C 785.38781,596.452 783.15449,593.00759 780.92339,589.56165 C 778.26698,585.44205 775.59892,581.32993 772.95623,577.20146 C 769.78796,572.15981 766.62849,567.11265 763.49208,562.05103 C 759.60037,555.76962 755.72764,549.4764 751.82092,543.20428 C 747.06641,535.51225 742.32804,527.80922 737.75508,520.00737 C 732.3726,510.80551 727.08608,501.54837 721.90774,492.22995 C 716.32891,482.16992 710.74897,472.10145 705.61035,461.80768 C 702.09044,454.56075 698.42688,447.34907 695.65922,439.77112 C 693.00052,430.66657 706.82583,419.67137 713.79973,426.68008 C 717.23073,430.14187 720.51483,433.73931 723.61062,437.50928 C 728.69075,443.58286 733.66827,449.74086 738.71787,455.83972 C 745.22844,463.6567 751.79713,471.4263 758.599,478.99284 C 766.62727,487.97768 774.73527,496.89112 782.99608,505.66326 C 792.51124,515.74957 802.09492,525.77169 811.78047,535.69461 C 822.59509,546.73185 833.44056,557.74046 844.47069,568.56304 C 854.11673,578.03042 863.85168,587.40917 873.28722,597.08835 C 879.27305,603.24242 885.36236,609.3756 890.40844,616.34699 C 897.36466,627.07832 890.99253,627.12438 875.43375,633.70353 C 872.19903,633.27728 869.03945,632.57613 865.98027,631.39171 C 861.40591,629.74042 856.85449,628.02916 852.31199,626.29151 C 846.96273,624.27261 841.61808,622.24087 836.30153,620.13694 C 830.89116,618.00829 825.4808,615.8797 820.10059,613.67553 C 815.19157,611.67579 810.29091,609.6555 805.3766,607.6688 C 801.27411,606.02018 797.17806,604.35541 793.06299,602.73839 C 790.27069,601.65563 787.47971,600.56687 784.6354,599.62562 C 783.18486,599.16256 781.74328,598.65621 780.2664,598.28392 L 796.39905,587.20682 z " />
  </g>
  <g
     inkscape:groupmode="layer"
     id="layer2"
     inkscape:label="penguin"
     style="display:inline">
    <path
       style="opacity:1;color:#000000;fill:#303030;fill-opacity:1;fill-rule:nonzero;stroke:none;stroke-width:80;stroke-linecap:butt;stroke-linejoin:miter;marker:none;marker-start:none;marker-mid:none;marker-end:none;stroke-miterlimit:4;stroke-dasharray:none;stroke-dashoffset:0;stroke-opacity:0.25465836;visibility:visible;display:inline;overflow:visible"
       d="M 360.70521,546.20562 C 343.2823,582.55283 313.18183,609.61581 286.05975,638.06408 C 266.67163,668.83113 266.67376,711.25517 286.0635,742.02088 C 297.57868,753.95831 316.05152,751.39106 329.70912,745.22047 C 360.99621,734.84263 387.5078,709.25902 398.40602,677.13835 C 408.87291,656.4982 423.45757,636.11253 423.14367,611.77621 C 424.4354,588.65844 428.40442,563.41567 416.82451,542.25454 C 405.78967,524.08427 376.59107,520.94569 363.94144,538.83257 C 362.42794,541.05193 361.29824,543.5587 360.70521,546.20562 z "
       id="path6032" />
    <path
       style="opacity:1;color:#000000;fill:#000000;fill-opacity:1;fill-rule:nonzero;stroke:none;stroke-width:80;stroke-linecap:butt;stroke-linejoin:miter;marker:none;marker-start:none;marker-mid:none;marker-end:none;stroke-miterlimit:4;stroke-dasharray:none;stroke-dashoffset:0;stroke-opacity:0.25465836;visibility:visible;display:inline;overflow:visible"
       id="path4138"
       d="M 352.91415,572.1619 C 352.22477,578.94421 346.35713,583.0793 341.94782,587.68502 C 328.27601,601.24729 315.78579,615.94901 305.04423,632.07995 C 292.65376,650.15219 284.59106,670.48782 282.72832,692.57098 C 282.00493,707.50548 283.00997,723.47098 291.40635,736.12727 C 295.81292,742.26522 316.43126,741.69121 298.37615,740.70459 C 294.872,740.51311 305.40313,740.53693 308.88745,740.10797 C 321.05515,737.74106 332.28732,732.16315 342.94186,725.84987 L 359.22096,739.49734 C 347.41773,746.68248 335.06668,753.00861 321.79508,756.77621 C 304.02207,761.56992 282.5142,761.28186 271.71618,743.7457 C 262.93306,727.87747 261.8622,708.97206 263.03523,691.10876 C 265.38244,666.91493 273.66998,644.3174 287.17017,624.33907 C 297.98032,607.63153 310.26213,592.07436 323.40871,577.26323 C 325.23547,575.0892 333.07455,562.35255 330.1057,571.95179 L 352.91415,572.1619 z " />
    <path
       style="opacity:1;color:#000000;fill:#ff6600;fill-opacity:1;fill-rule:nonzero;stroke:none;stroke-width:80;stroke-linecap:butt;stroke-linejoin:miter;marker:none;marker-start:none;marker-mid:none;marker-end:none;stroke-miterlimit:4;stroke-dasharray:none;stroke-dashoffset:0;stroke-opacity:0.25465836;visibility:visible;display:inline;overflow:visible"
       d="M 350.67048,776.95529 C 340.40736,787.08117 332.75339,801.87274 335.33387,816.86722 C 344.255,834.48829 367.91995,838.53992 384.15262,829.91619 C 406.1604,824.18148 427.15926,814.69778 446.63019,802.72491 C 458.57142,799.86661 470.94821,808.84784 474.47336,820.51656 C 496.87519,849.69494 545.49355,852.37243 569.31339,823.66796 C 581.88592,806.31147 574.7286,781.25009 560.45251,767.40517 C 542.59004,747.54111 510.98272,745.70803 489.41061,760.10612 C 476.30953,767.671 467.22079,781.11555 453.73672,787.92157 C 439.48848,791.85873 426.11437,782.7268 415.50022,774.00334 C 400.0713,764.07119 379.4089,761.54416 363.28331,771.24279 C 359.05499,773.09035 354.89696,775.10338 350.67048,776.95529 z "
       id="path6070" />
    <path
       style="opacity:1;color:#000000;fill:#303030;fill-opacity:1;fill-rule:nonzero;stroke:none;stroke-width:80;stroke-linecap:butt;stroke-linejoin:miter;marker:none;marker-start:none;marker-mid:none;marker-end:none;stroke-miterlimit:4;stroke-dasharray:none;stroke-dashoffset:0;stroke-opacity:0.25465836;visibility:visible;display:inline;overflow:visible"
       d="M 304.93397,738.61954 C 313.04975,773.25448 349.90051,784.70237 377.94597,797.0837 C 436.8001,817.87794 499.86474,808.25514 560.59462,805.94694 C 611.52768,799.45453 669.41511,787.48822 701.04589,741.53265 C 726.78684,698.30134 717.34214,640.78029 688.07003,602.02694 C 633.85586,496.4392 584.06962,385.74743 504.76393,297.05386 C 478.0771,272.65465 430.41263,270.69941 408.26242,302.55258 C 378.22948,339.72116 373.86442,389.99225 354.23499,432.5991 C 327.8494,506.22597 296.5701,579.70711 289.1154,658.60387 C 288.62176,686.22008 299.88185,711.93825 304.93397,738.61954 z "
       id="path5080" />
    <path
       style="opacity:1;color:#000000;fill:#e2e2e2;fill-opacity:1;fill-rule:nonzero;stroke:none;stroke-width:80;stroke-linecap:butt;stroke-linejoin:miter;marker:none;marker-start:none;marker-mid:none;marker-end:none;stroke-miterlimit:4;stroke-dasharray:none;stroke-dashoffset:0;stroke-opacity:0.25465836;visibility:visible;display:inline;overflow:visible"
       d="M 354.59012,428.55655 C 322.86688,507.44496 288.91518,590.88292 298.19051,678.19497 C 302.7711,715.66694 311.97694,759.47859 347.035,779.0713 C 403.02484,814.05337 470.94137,810.97312 533.95536,810.27226 C 559.83379,810.16905 585.75853,810.05861 611.54811,807.59125 C 631.79988,797.47677 616.69562,771.80364 600.42152,767.03065 C 583.52021,765.0527 569.0088,755.54324 555.99619,744.29485 C 522.06516,715.83972 500.37139,672.93394 496.61195,628.07157 C 489.83779,597.86471 482.19497,567.67955 480.05428,536.67597 C 469.57758,486.60286 442.1191,442.93839 418.82617,398.46673 C 411.41717,383.10865 397.20173,361.06033 377.82487,370.82312 C 358.2499,381.96099 360.69006,408.00818 355.35269,427.06028 L 354.85201,428.04264 L 354.59012,428.55655 z "
       id="path7877" />
    <path
       style="opacity:1;color:#000000;fill:#000000;fill-opacity:1;fill-rule:nonzero;stroke:none;stroke-width:80;stroke-linecap:butt;stroke-linejoin:miter;marker:none;marker-start:none;marker-mid:none;marker-end:none;stroke-miterlimit:4;stroke-dasharray:none;stroke-dashoffset:0;stroke-opacity:0.25465836;visibility:visible;display:inline;overflow:visible"
       d="M 461.53117,267.85232 C 553.37357,278.20632 578.82504,381.66104 615.26839,452.55627 C 658.11658,535.83041 719.52258,616.79752 725.45497,713.72198 C 707.31022,807.12472 597.09662,816.75072 521.94774,820.48441 C 437.18437,821.93761 301.01303,827.85746 285.38955,714.09299 C 275.74965,596.82114 321.96849,484.28008 359.93429,376.01125 C 377.98158,327.54486 398.47954,262.17758 461.53117,267.85232 z M 457.01414,293.20432 L 453.29324,293.32073 L 457.01414,293.20432 z M 462.04118,293.67516 C 388.94239,307.15715 388.537,400.96608 357.64052,455.77027 C 325.17829,546.13515 288.61397,649.49016 321.92167,744.45957 C 371.32623,812.56785 466.09627,798.13041 538.81996,799.05945 C 610.19455,798.53672 722.13738,761.75984 692.50032,666.27456 C 651.09973,551.04471 582.33886,448.28466 526.08908,340.30683 C 514.93923,314.76439 488.31172,297.77139 462.04118,293.67516 z "
       id="path3946" />
    <path
       style="opacity:1;color:#000000;fill:#000000;fill-opacity:1;fill-rule:nonzero;stroke:none;stroke-width:80;stroke-linecap:butt;stroke-linejoin:miter;marker:none;marker-start:none;marker-mid:none;marker-end:none;stroke-miterlimit:4;stroke-dasharray:none;stroke-dashoffset:0;stroke-opacity:0.25465836;visibility:visible;display:inline;overflow:visible"
       id="path3988"
       d="M 348.53393,800.03141 C 353.58605,796.40296 354.69653,789.65593 350.51049,797.8013 C 348.1461,802.52341 348.72762,807.20993 350.32279,811.99387 C 353.62294,816.0048 359.03422,816.17109 363.82948,816.78237 C 394.09765,813.19699 335.35942,824.75627 389.67602,814.33736 C 401.29844,812.09717 412.62352,808.44572 423.11323,802.80483 L 447.32514,822.35986 C 435.31477,829.80932 422.07035,834.64358 408.38127,837.69462 C 387.71261,842.35014 365.89394,845.75435 344.92758,841.46851 C 333.46303,838.27218 324.08398,831.65005 319.95141,819.74623 C 317.24136,810.02965 316.67239,799.85098 319.92787,790.15163 C 322.24376,783.51558 324.31009,776.60059 329.97334,772.16475 L 348.53393,800.03141 z " />
    <path
       style="opacity:1;color:#000000;fill:#000000;fill-opacity:1;fill-rule:nonzero;stroke:none;stroke-width:80;stroke-linecap:butt;stroke-linejoin:miter;marker:none;marker-start:none;marker-mid:none;marker-end:none;stroke-miterlimit:4;stroke-dasharray:none;stroke-dashoffset:0;stroke-opacity:0.25465836;visibility:visible;display:inline;overflow:visible"
       id="path3990"
       d="M 490.62531,812.09928 C 489.76912,808.56893 491.1615,812.71014 491.55665,813.80468 C 492.94315,817.57328 495.05339,820.77679 497.67082,823.70656 C 501.28424,826.34541 505.87118,827.00564 510.15698,827.84539 C 518.51518,830.32489 552.52592,828.89061 522.05222,829.59194 C 530.0825,829.74013 537.9926,828.60962 545.63901,826.14867 C 550.14373,824.56186 553.73244,821.60963 557.05695,818.21968 C 559.52757,815.61906 560.6743,812.27598 561.86261,808.93391 C 562.95602,805.41868 563.86651,801.84599 564.83844,798.29359 L 596.35944,804.04996 C 595.26807,807.80451 594.2155,811.57032 593.13054,815.32686 C 591.29388,821.02052 589.3434,826.7407 585.95367,831.68614 C 581.31192,838.08218 575.73512,843.59956 568.91929,847.51155 C 559.52583,852.5321 549.39209,855.28055 538.80303,855.90083 C 522.50009,856.31681 506.09104,856.92773 490.22766,852.29382 C 482.02329,849.57068 474.46686,845.80071 469.31323,838.36464 C 465.97269,833.53804 463.15902,828.38119 460.82684,822.9568 C 459.5948,820.00613 458.15136,817.09991 457.8811,813.85467 L 490.62531,812.09928 z " />
    <path
       style="opacity:1;color:#000000;fill:#ff6600;fill-opacity:1;fill-rule:nonzero;stroke:none;stroke-width:80;stroke-linecap:butt;stroke-linejoin:miter;marker:none;marker-start:none;marker-mid:none;marker-end:none;stroke-miterlimit:4;stroke-dasharray:none;stroke-dashoffset:0;stroke-opacity:0.25465836;visibility:visible;display:inline;overflow:visible"
       d="M 414.55222,391.85125 C 400.79936,387.59637 395.26222,370.76446 381.27048,366.963 C 362.12157,358.0059 340.66342,361.25405 320.31694,360.19825 C 297.42599,361.20989 274.72586,370.68023 258.19571,387.12999 C 253.63142,392.8959 253.63617,403.48983 260.88653,406.98557 C 269.22666,411.34142 278.87061,409.45 287.84148,410.21217 C 318.95265,409.88812 349.84768,405.74588 380.73409,402.32137 C 390.00569,401.33447 399.35398,400.94522 408.6121,400.03538 C 411.95598,399.09201 416.44557,396.03301 414.55222,391.85125 z "
       id="path5971" />
    <path
       style="opacity:1;color:#000000;fill:#000000;fill-opacity:1;fill-rule:nonzero;stroke:none;stroke-width:80;stroke-linecap:butt;stroke-linejoin:miter;marker:none;marker-start:none;marker-mid:none;marker-end:none;stroke-miterlimit:4;stroke-dasharray:none;stroke-dashoffset:0;stroke-opacity:0.25465836;visibility:visible;display:inline;overflow:visible"
       id="path4006"
       d="M 655.30197,794.62991 C 649.62442,799.57903 635.65299,799.65723 626.7222,799.05184 C 604.35182,792.76312 586.22546,777.807 569.94342,761.3649 C 538.96542,729.06608 515.04896,690.56193 496.86383,649.35388 C 476.6273,601.32486 468.26202,549.34587 454.88738,499.11022 C 442.41276,455.63477 421.76052,412.60912 386.26995,384.43195 C 351.56479,363.29312 339.02987,363.66658 308.75744,371.29535 C 293.28821,376.20362 276.03251,382.71748 266.15624,396.68482 C 272.50382,400.49024 290.22384,396.73753 298.56103,397.07471 C 269.76724,399.7154 343.29525,393.73954 349.64043,392.84455 C 361.47174,391.14261 373.24924,389.06419 384.94125,386.54112 C 389.43273,385.55862 393.87778,384.37729 398.32026,383.18667 L 418.58749,408.02369 C 413.79662,409.19089 409.01167,410.39547 404.18568,411.40262 C 391.71527,414.03602 379.12215,415.97355 366.45491,417.28398 C 338.79624,420.30555 310.93519,422.27466 283.12465,420.6041 C 264.0686,419.3495 228.95612,415.96128 237.03799,387.17207 C 246.93747,366.31029 271.76375,357.37875 291.56553,350.36355 C 331.47157,339.28407 374.40689,343.01308 407.01826,371.03107 C 442.57941,403.52712 463.62909,449.03525 476.821,495.41282 C 489.84163,544.89863 497.49685,596.28352 518.61122,643.13639 C 536.52784,682.40635 560.36726,719.09805 592.20096,747.863 C 607.19703,760.71246 624.59371,773.3195 644.86935,773.44119 C 641.24359,773.23747 655.0559,784.69309 658.01636,786.86079 L 655.30197,794.62991 z "
       sodipodi:nodetypes="ccccccccccccccccccccccccc" />
    <path
       style="opacity:1;color:#000000;fill:#46a1a6;fill-opacity:1;fill-rule:nonzero;stroke:none;stroke-width:80;stroke-linecap:butt;stroke-linejoin:miter;marker:none;marker-start:none;marker-mid:none;marker-end:none;stroke-miterlimit:4;stroke-dasharray:none;stroke-dashoffset:0;stroke-opacity:0.25465836;visibility:visible;display:inline;overflow:visible"
       d="M 463.36489,341.81784 C 454.08474,340.80241 444.75021,347.66692 442.4301,356.94153 C 439.88024,362.78133 441.92397,370.54159 447.43836,373.74725 C 453.56225,377.88115 461.61919,377.48063 468.14591,374.59473 C 474.48717,372.01614 480.14926,366.92775 482.39639,360.15943 C 483.3262,354.36046 480.27266,348.66727 476.22427,344.85705 C 473.33178,342.45175 469.41047,341.58408 465.77268,342.16077 C 465.27694,342.0801 464.78656,341.92279 464.35865,341.64707"
       id="path9641" />
    <path
       style="opacity:1;color:#000000;fill:#000000;fill-opacity:1;fill-rule:nonzero;stroke:none;stroke-width:80;stroke-linecap:butt;stroke-linejoin:miter;marker:none;marker-start:none;marker-mid:none;marker-end:none;stroke-miterlimit:4;stroke-dasharray:none;stroke-dashoffset:0;stroke-opacity:0.25465836;visibility:visible;display:inline;overflow:visible"
       d="M 467.00092,330.18207 C 466.82766,330.19035 466.64066,330.21556 466.46819,330.22614 C 447.75397,330.31826 433.27493,350.49495 435.84923,368.99734 C 432.38591,379.15112 420.28383,377.32386 412.14851,379.17763 C 401.08725,383.34495 406.51181,396.28908 400.25627,403.30586 C 405.11431,410.91088 416.78758,408.77691 424.45274,407.19633 C 444.44113,400.49798 465.28502,392.73493 480.43106,377.08701 C 490.15793,367.218 495.419,350.31772 486.41453,338.1457 C 482.10677,331.5622 474.22069,329.83843 467.00092,330.18207 z M 461.06667,345.96501 C 461.30309,345.94803 461.09401,345.96043 461.33601,345.96408 C 466.39868,346.72228 473.58205,348.88926 473.02516,355.51745 C 471.99272,362.46632 464.7179,365.13575 458.87928,367.01768 C 452.22319,369.53935 449.01701,364.00769 451.18366,359.28008 C 452.71935,352.69199 455.25083,346.38288 461.06667,345.96501 z "
       id="path4016"
       sodipodi:nodetypes="ccccccccccccccc" />
    <path
       style="opacity:1;color:#000000;fill:#303030;fill-opacity:1;fill-rule:nonzero;stroke:none;stroke-width:80;stroke-linecap:butt;stroke-linejoin:miter;marker:none;marker-start:none;marker-mid:none;marker-end:none;stroke-miterlimit:4;stroke-dasharray:none;stroke-dashoffset:0;stroke-opacity:0.25465836;visibility:visible;display:inline;overflow:visible"
       d="M 502.62153,518.3879 C 504.76378,577.57141 480.44337,636.00131 493.24365,695.07164 C 498.24106,720.97257 507.7778,749.41412 531.41722,763.14389 C 559.13582,775.07329 590.73456,769.95154 618.04996,759.4616 C 638.49209,749.1513 650.10662,727.16794 656.13634,705.46389 C 666.77211,679.05194 668.8568,647.13972 653.76626,622.0294 C 642.4488,599.45089 630.43707,577.21959 619.63385,554.3889 C 601.99057,523.49871 576.65424,494.05182 542.22641,483.77999 C 522.34663,480.27982 503.21293,497.97922 502.62153,518.3879 z "
       id="path5998" />
    <path
       style="opacity:1;color:#000000;fill:#000000;fill-opacity:1;fill-rule:nonzero;stroke:none;stroke-width:80;stroke-linecap:butt;stroke-linejoin:miter;marker:none;marker-start:none;marker-mid:none;marker-end:none;stroke-miterlimit:4;stroke-dasharray:none;stroke-dashoffset:0;stroke-opacity:0.25465836;visibility:visible;display:inline;overflow:visible"
       id="path4126"
       d="M 515.43831,551.41811 C 513.78127,560.13812 511.51306,568.75251 509.72219,577.4562 C 503.77593,608.42404 499.89439,639.88066 499.67943,671.4749 C 499.7768,696.61422 502.14849,723.24429 519.44956,742.42401 C 534.14476,759.78445 568.19902,763.01064 573.54948,762.93969 C 599.63028,761.84314 621.91624,747.67801 636.9222,726.13342 C 652.0896,702.49819 654.14888,673.6806 650.99679,646.23492 C 649.98524,639.26609 650.53815,642.70812 649.34394,635.90772 L 668.5147,634.03512 C 669.56174,641.34153 669.07969,637.64662 669.95544,645.12054 C 672.68808,675.54401 670.13248,707.2664 654.02697,733.72373 C 637.65578,758.62895 613.27691,776.1935 583.80036,779.45548 C 554.12279,781.82849 522.88572,774.24629 501.993,751.22196 C 483.92279,728.64635 481.01797,699.47114 481.58698,671.09395 C 482.25882,638.89561 486.27395,606.9368 490.19501,575.02099 C 491.05906,568.10623 492.91689,556.47672 492.62984,551.208 L 515.43831,551.41811 z " />
    <path
       style="opacity:1;color:#000000;fill:#dd1717;fill-opacity:1;fill-rule:evenodd;stroke:none;stroke-width:1px;stroke-linecap:butt;stroke-linejoin:miter;marker:none;marker-start:none;marker-mid:none;marker-end:none;stroke-miterlimit:4;stroke-dasharray:none;stroke-dashoffset:0;stroke-opacity:1;visibility:visible;display:inline;overflow:visible;enable-background:accumulate"
       id="path30452"
       d="M 481.24691,582.36211 C 481.18969,580.75364 481.51361,579.18201 481.73508,577.6011 C 482.47342,573.73738 484.59467,570.43642 486.73207,567.20852 C 491.71381,560.18157 497.92885,554.17053 504.11395,548.22302 C 512.32694,540.57362 521.15073,533.62916 530.12351,526.90276 C 538.60565,520.65245 547.31759,514.72379 555.99808,508.75476 C 563.32776,503.74046 570.60654,498.65183 577.70329,493.31196 C 583.8649,488.70482 589.54533,483.52517 594.87159,477.98506 C 599.6234,473.05711 603.44261,467.40781 606.67445,461.40065 C 609.26805,456.50223 610.82271,451.21926 611.65461,445.76438 C 612.32056,441.55252 611.54502,437.47705 610.58265,433.40402 C 609.69677,430.21346 607.94939,427.48067 606.09047,424.79568 C 604.51004,422.67584 602.63263,420.81537 600.75358,418.96663 C 599.29542,417.50852 597.62854,416.30433 595.98815,415.06956 C 594.81882,414.04836 593.36086,413.7711 591.96333,413.27288 C 590.59615,412.96254 589.19815,413.07682 587.81487,413.06183 C 586.52439,413.07081 585.2653,413.35873 583.99888,413.55499 C 582.82352,413.7257 581.73239,414.20406 580.62243,414.59236 C 579.49143,414.97931 578.45592,415.5836 577.39807,416.1282 C 572.7515,418.5503 586.47662,410.8928 591.02199,408.2857 C 590.01516,408.84922 589.10584,409.56027 588.17111,410.2311 L 570.07986,417.53234 C 570.9857,416.79112 571.8437,415.98596 572.82875,415.34268 C 579.40634,411.52305 585.75327,407.23141 592.62907,403.93855 C 593.7489,403.46811 594.83933,402.927 596.01685,402.60237 C 597.20188,402.31477 598.36889,401.95012 599.59126,401.83868 C 600.91715,401.72442 602.23983,401.53444 603.57601,401.60477 C 605.07854,401.75671 606.60836,401.74979 608.04793,402.28791 C 609.57059,402.95504 611.10894,403.56021 612.39453,404.66641 C 614.06018,405.99848 615.75182,407.30272 617.24117,408.83939 C 619.16052,410.79321 621.07069,412.76486 622.67926,414.99154 C 624.62546,417.89126 626.4625,420.8407 627.4182,424.24544 C 628.46523,428.56307 629.33605,432.89321 628.72084,437.37235 C 627.95898,443.03978 626.44735,448.54985 623.85072,453.67301 C 620.66716,459.84903 616.90362,465.68952 612.13409,470.78032 C 606.83957,476.44734 601.17128,481.74476 594.98028,486.43193 C 587.85332,491.86258 580.50346,496.98732 573.10187,502.03562 C 564.37469,508.01797 555.60782,513.94678 547.05319,520.17564 C 538.09033,526.82163 529.2688,533.67742 521.05758,541.24679 C 515.03596,546.99931 509.01239,552.83611 504.12014,559.61075 C 502.09048,562.56906 500.03755,565.60488 499.16967,569.13441 C 498.93617,570.57281 498.58123,572.00367 498.68647,573.47622 L 481.24691,582.36211 z " />
    <path
       style="opacity:1;color:#000000;fill:#dd1717;fill-opacity:1;fill-rule:evenodd;stroke:none;stroke-width:1px;stroke-linecap:butt;stroke-linejoin:miter;marker:none;marker-start:none;marker-mid:none;marker-end:none;stroke-miterlimit:4;stroke-dasharray:none;stroke-dashoffset:0;stroke-opacity:1;visibility:visible;display:inline;overflow:visible;enable-background:accumulate"
       id="path30454"
       d="M 654.39909,654.75975 C 654.63374,653.64472 655.41943,652.81105 656.02037,651.88839 C 657.15987,650.43138 658.45259,649.10617 659.71038,647.75324 C 661.32291,646.08607 662.88244,644.37023 664.43028,642.64339 C 666.26395,640.66656 667.87337,638.50896 669.47291,636.3441 C 671.36636,633.83481 672.92541,631.11318 674.45528,628.37644 C 676.05585,625.38575 677.24003,622.21145 678.39711,619.03281 C 679.52606,615.93481 680.02211,612.69827 680.45647,609.45033 C 680.82549,606.29939 680.55723,603.15886 680.23271,600.02372 C 679.88112,596.90909 678.6353,594.13077 677.25212,591.37231 C 675.65773,588.54042 673.23201,586.50734 670.75741,584.49557 C 668.06847,582.49656 665.01085,581.16579 661.95424,579.85545 C 659.12163,578.69586 656.14741,578.01184 653.16791,577.36698 C 651.86958,577.08921 650.55011,576.95399 649.23809,576.7697 L 665.03486,565.62507 C 666.36429,565.85697 667.70112,566.0515 669.01515,566.36598 C 672.05132,567.12146 675.08124,567.91607 677.95611,569.1805 C 681.1106,570.62873 684.26669,572.10002 687.02556,574.24733 C 689.65523,576.47254 692.22909,578.73099 693.94708,581.78388 C 695.44606,584.74014 696.82097,587.71712 697.26226,591.05158 C 697.66311,594.31829 698.00227,597.58992 697.69,600.88753 C 697.31668,604.26077 696.89806,607.62853 695.79513,610.86176 C 694.68942,614.12781 693.53622,617.37927 691.99269,620.47239 C 690.53023,623.28891 689.03647,626.09112 687.17163,628.67089 C 685.60477,630.87632 684.07017,633.11189 682.25569,635.12616 C 680.73774,636.87036 679.21533,638.6113 677.61012,640.27659 C 676.37758,641.58775 675.12487,642.88231 673.94217,644.23877 C 673.34226,644.97979 672.69862,645.68464 672.14519,646.46348 L 654.39909,654.75975 z " />
    <path
       style="opacity:1;color:#000000;fill:#dd1717;fill-opacity:1;fill-rule:evenodd;stroke:none;stroke-width:1px;stroke-linecap:butt;stroke-linejoin:miter;marker:none;marker-start:none;marker-mid:none;marker-end:none;stroke-miterlimit:4;stroke-dasharray:none;stroke-dashoffset:0;stroke-opacity:1;visibility:visible;display:inline;overflow:visible;enable-background:accumulate"
       id="path30456"
       d="M 305.76025,541.7115 C 307.1189,540.95406 308.50873,540.25045 309.89062,539.53425 C 314.20105,537.43187 318.78097,535.94644 323.32443,534.44067 C 330.4259,532.06898 337.71132,530.3372 345.03914,528.83781 C 353.79137,527.35664 362.65578,526.77324 371.5128,526.38389 C 380.09315,526.04468 388.67376,526.39143 397.22402,527.11189 C 404.51251,527.76334 411.73965,528.92192 418.93399,530.23468 C 424.79478,531.32926 430.62844,532.55981 436.44388,533.87242 C 441.19381,534.92186 445.87607,536.2192 450.48467,537.77108 C 454.70865,539.19545 458.73831,541.10336 462.75986,543.00746 C 466.41507,544.73136 469.94111,546.70205 473.45333,548.69532 C 476.67454,550.56263 479.80064,552.58587 482.93413,554.59478 C 485.69287,556.33406 488.3756,558.18833 491.04653,560.05797 C 493.28312,561.66841 495.50427,563.29991 497.71842,564.94097 C 499.61792,566.3402 501.43627,567.84222 503.26373,569.3325 C 504.08767,570.01223 504.88472,570.72346 505.69519,571.41891 L 489.23139,581.66789 C 488.43278,580.98396 487.6461,580.28595 486.83555,579.61602 C 485.03832,578.14672 483.2534,576.66128 481.38398,575.28296 C 479.19339,573.64173 477.00007,572.00403 474.7799,570.40287 C 472.14214,568.54811 469.49615,566.7041 466.77665,564.96974 C 463.67656,562.97813 460.58102,560.97637 457.38406,559.14155 C 453.91015,557.1808 450.42331,555.24143 446.81334,553.53776 C 442.8492,551.68392 438.87368,549.83743 434.70332,548.48172 C 430.14893,546.9932 425.52575,545.74121 420.85403,544.67412 C 415.10003,543.35155 409.32907,542.10262 403.52691,541.00767 C 396.41981,539.70116 389.27818,538.55504 382.07439,537.92991 C 373.59951,537.25033 365.09543,536.93957 356.59537,537.32865 C 347.75372,537.76527 338.89362,538.39035 330.19229,540.10285 C 322.85937,541.69143 315.57245,543.51342 308.48103,545.98793 C 303.82053,547.61758 299.14508,549.27785 294.80115,551.65455 C 293.36847,552.42638 291.9377,553.20141 290.52437,554.00771 L 305.76025,541.7115 z " />
    <path
       style="opacity:1;color:#000000;fill:#dd1717;fill-opacity:1;fill-rule:evenodd;stroke:none;stroke-width:1px;stroke-linecap:butt;stroke-linejoin:miter;marker:none;marker-start:none;marker-mid:none;marker-end:none;stroke-miterlimit:4;stroke-dasharray:none;stroke-dashoffset:0;stroke-opacity:1;visibility:visible;display:inline;overflow:visible;enable-background:accumulate"
       id="path30458"
       d="M 290.06578,606.59853 C 288.85353,604.93816 287.30237,603.56748 285.83922,602.1359 C 282.87085,599.47116 280.35842,596.40219 277.90103,593.28032 C 275.25407,589.84331 273.51846,585.91328 271.85317,581.94903 C 270.15395,577.88684 269.66279,573.60093 269.31766,569.26726 C 269.09646,565.05822 270.09246,561.04101 271.18852,557.02919 C 272.4258,553.06664 274.56771,549.53627 276.72386,546.02963 C 278.99746,542.4354 282.02504,539.49169 285.07671,536.57935 C 288.08809,533.88054 291.37555,531.52712 294.67107,529.19614 C 302.11167,524.29755 309.72766,519.69139 318.00142,516.44789 L 302.93804,528.276 C 289.7812,534.24863 321.42833,516.07465 312.52953,522.2129 C 309.1746,524.45344 305.85861,526.75608 302.7773,529.37117 C 299.69026,532.12969 296.60894,534.90631 294.2595,538.35705 C 292.05433,541.7024 289.86069,545.07269 288.50779,548.87811 C 287.31939,552.67758 286.22946,556.48147 286.32997,560.51816 C 286.55349,564.66302 286.9317,568.75247 288.54244,572.64333 C 290.13052,576.4492 291.78639,580.22168 294.35223,583.50062 C 296.77447,586.52697 299.25432,589.49801 302.18927,592.05619 C 303.79386,593.52417 305.46342,594.93758 306.91862,596.55721 L 290.06578,606.59853 z " />
  </g>
</svg>
