<?xml version="1.0" encoding="UTF-8" standalone="no"?>
<!-- Created with Inkscape (http://www.inkscape.org/) -->
<svg
   xmlns:dc="http://purl.org/dc/elements/1.1/"
   xmlns:cc="http://web.resource.org/cc/"
   xmlns:rdf="http://www.w3.org/1999/02/22-rdf-syntax-ns#"
   xmlns:svg="http://www.w3.org/2000/svg"
   xmlns="http://www.w3.org/2000/svg"
   xmlns:sodipodi="http://sodipodi.sourceforge.net/DTD/sodipodi-0.dtd"
   xmlns:inkscape="http://www.inkscape.org/namespaces/inkscape"
   width="1000"
   height="1000"
   id="svg2"
   sodipodi:version="0.32"
   inkscape:version="0.45.1"
   version="1.0"
   sodipodi:docbase="/home/kris/tale/art/monster"
   sodipodi:docname="rocket-penguin.svg"
   inkscape:output_extension="org.inkscape.output.svg.inkscape"
   inkscape:export-filename="/home/kris/tale/art/monster/rocket-penguin.png"
   inkscape:export-xdpi="36"
   inkscape:export-ydpi="36">
  <defs
     id="defs4" />
  <sodipodi:namedview
     id="base"
     pagecolor="#ffffff"
     bordercolor="#666666"
     borderopacity="1.0"
     inkscape:pageopacity="0.0"
     inkscape:pageshadow="2"
     inkscape:zoom="0.49497475"
     inkscape:cx="293.26548"
     inkscape:cy="365.13483"
     inkscape:document-units="px"
     inkscape:current-layer="layer2"
     inkscape:window-width="1680"
     inkscape:window-height="979"
     inkscape:window-x="0"
     inkscape:window-y="45" />
  <metadata
     id="metadata7">
    <rdf:RDF>
      <cc:Work
         rdf:about="">
        <dc:format>image/svg+xml</dc:format>
        <dc:type
           rdf:resource="http://purl.org/dc/dcmitype/StillImage" />
      </cc:Work>
    </rdf:RDF>
  </metadata>
  <g
     inkscape:groupmode="layer"
     id="layer4"
     inkscape:label="rocket-fin"
     style="display:inline">
    <path
       style="opacity:1;color:#000000;fill:#dd1717;fill-opacity:1;fill-rule:nonzero;stroke:none;stroke-width:1px;stroke-linecap:butt;stroke-linejoin:miter;marker:none;marker-start:none;marker-mid:none;marker-end:none;stroke-miterlimit:4;stroke-dasharray:none;stroke-dashoffset:0;stroke-opacity:1;visibility:visible;display:inline;overflow:visible;enable-background:accumulate"
       d="M 792.10247,529.01633 L 870.99016,644.54 L 980.36323,648.55122 L 792.10247,529.01633 z "
       id="path32637" />
    <path
       style="opacity:1;color:#000000;fill:#000000;fill-opacity:0.9402984;fill-rule:nonzero;stroke:none;stroke-width:1px;stroke-linecap:butt;stroke-linejoin:miter;marker:none;marker-start:none;marker-mid:none;marker-end:none;stroke-miterlimit:4;stroke-dasharray:none;stroke-dashoffset:0;stroke-opacity:1;visibility:visible;display:inline;overflow:visible;enable-background:accumulate"
       id="path30518"
       d="M 768.58905,485.60891 C 770.34098,487.66286 772.11531,489.69749 773.89946,491.72358 C 779.91387,498.38959 786.48649,504.51363 793.15385,510.51446 C 803.43942,519.61396 814.33517,527.9858 825.30643,536.23305 C 836.15867,544.36323 847.23016,552.1935 858.38394,559.90264 C 868.01909,566.50956 877.75744,572.96429 887.50727,579.40016 C 895.37409,584.58218 903.2337,589.77525 911.13801,594.90004 C 917.61389,599.13168 924.12946,603.30033 930.68445,607.40817 C 936.74328,611.19052 942.8983,614.81439 949.08471,618.38303 C 954.69107,621.60278 960.35551,624.71942 965.9884,627.89221 C 970.316,630.23423 974.47199,632.85431 978.56457,635.57799 C 981.08771,637.22428 983.17021,639.30281 985.03003,641.63605 C 986.34486,643.65479 985.79151,644.78138 985.10882,646.74293 C 974.15013,654.68094 971.03505,656.98482 960.89874,657.93496 C 956.77816,658.20558 952.65401,658.04591 948.53455,657.87532 C 943.86007,657.60667 939.19981,657.13414 934.54837,656.60632 C 929.87806,656.04498 925.212,655.44917 920.55501,654.78634 C 916.12544,654.14991 911.69746,653.50322 907.26612,652.87906 C 903.41442,652.33533 899.55548,651.84728 895.69493,651.37179 C 891.76572,650.85969 887.82457,650.44769 883.88709,650.00592 C 880.05156,649.572 876.20959,649.20822 872.36334,648.88661 C 869.06945,648.61179 865.77185,648.39048 862.47297,648.18961 C 860.98073,648.11389 859.4878,648.05327 857.99505,647.98809 L 873.65069,636.72296 C 875.14155,636.79891 876.63287,636.86645 878.12265,636.96202 C 881.41482,637.19696 884.70684,637.43638 887.99403,637.73517 C 891.82983,638.10233 895.66285,638.49531 899.49179,638.92941 C 903.44583,639.36633 907.40186,639.78684 911.34839,640.28846 C 915.19974,640.78187 919.04859,641.2936 922.88966,641.86275 C 927.30359,642.50981 931.71463,643.17714 936.13242,643.79765 C 940.77562,644.44161 945.42472,645.04467 950.08197,645.57881 C 954.71748,646.0739 959.36115,646.52815 964.02074,646.72032 C 968.12802,646.81419 972.24674,646.93027 976.34015,646.47241 C 984.65637,645.1362 995.15875,638.79225 967.05264,654.01688 C 968.11276,652.76638 969.09344,653.62668 968.3136,651.48461 C 966.5525,649.39991 964.79591,647.34244 962.42658,645.87045 C 958.43471,643.15008 954.37398,640.54022 950.14642,638.19371 C 944.55682,634.97723 938.9247,631.83506 933.34585,628.59955 C 927.16561,624.99609 921.00741,621.35308 914.95479,617.53779 C 908.42473,613.40827 901.93776,609.21237 895.51159,604.92252 C 887.68815,599.73703 879.90897,594.4854 872.11442,589.25668 C 862.44194,582.75241 852.78498,576.22391 843.21076,569.57553 C 832.10529,561.79952 821.0757,553.91375 810.24886,545.75249 C 799.2281,537.43506 788.25191,529.03965 777.72218,520.10317 C 770.84513,514.14367 764.07823,508.05327 757.66287,501.59446 C 755.75732,499.65899 753.84357,497.73201 751.89762,495.83741 L 768.58905,485.60891 z " />
  </g>
  <g
     inkscape:label="rocket"
     inkscape:groupmode="layer"
     id="layer1"
     style="display:inline">
    <path
       style="opacity:1;color:#000000;fill:#ffffff;fill-opacity:1;fill-rule:nonzero;stroke:none;stroke-width:1px;stroke-linecap:butt;stroke-linejoin:miter;marker:none;marker-start:none;marker-mid:none;marker-end:none;stroke-miterlimit:4;stroke-dasharray:none;stroke-dashoffset:0;stroke-opacity:1;visibility:visible;display:inline;overflow:visible;enable-background:accumulate"
       d="M 601.12743,261.05227 C 597.82329,262.77374 594.51045,264.47856 591.2063,266.20002 C 589.7378,275.10822 582.61196,283.06247 577.54135,290.16049 C 553.36366,309.99867 542.12515,319.04053 501.35456,332.46567 C 494.29318,332.2985 482.26982,334.42999 472.15276,334.05681 C 540.54088,455.82404 608.92609,577.59301 677.31421,699.36025 C 677.92508,728.33391 712.13086,752.04799 738.7129,737.54724 C 790.59439,725.16693 835.38186,690.93728 866.56443,648.35068 C 875.88669,619.6305 843.39624,604.08118 830.71732,583.20817 C 753.94887,476.00585 677.70746,368.38887 601.12743,261.05227 z M 703.80176,742.13343 L 704.73771,742.88219 L 703.80176,742.13343 z "
       id="path32506" />
    <path
       style="opacity:1;color:#000000;fill:#46a1a6;fill-opacity:1;fill-rule:nonzero;stroke:none;stroke-width:1px;stroke-linecap:butt;stroke-linejoin:miter;marker:none;marker-start:none;marker-mid:none;marker-end:none;stroke-miterlimit:4;stroke-dasharray:none;stroke-dashoffset:0;stroke-opacity:1;visibility:visible;display:inline;overflow:visible;enable-background:accumulate"
       d="M 778.46433,721.55576 C 802.69162,691.09982 814.4279,653.3249 834.24164,620.22371 C 833.68447,614.08467 839.18816,608.1339 845.37083,608.3072 C 853.43575,612.21848 855.7839,621.6607 861.59484,627.81668 C 868.05911,636.94421 865.75085,650.99145 856.69068,657.55631 C 837.034,685.36953 810.23542,708.73131 778.46433,721.55576 z "
       id="path35623" />
    <path
       style="opacity:1;color:#000000;fill:#dd1717;fill-opacity:1;fill-rule:nonzero;stroke:none;stroke-width:1px;stroke-linecap:butt;stroke-linejoin:miter;marker:none;marker-start:none;marker-mid:none;marker-end:none;stroke-miterlimit:4;stroke-dasharray:none;stroke-dashoffset:0;stroke-opacity:1;visibility:visible;display:inline;overflow:visible;enable-background:accumulate"
       d="M 451.78019,153.51809 C 488.41858,188.86307 561.31272,220.54251 590.96074,258.45181 C 594.05819,270.61816 584.01118,281.0577 577.50822,290.16075 C 553.33057,309.99895 542.08124,319.02987 501.31066,332.45501 C 489.14432,332.16695 462.2791,338.89663 455.73687,327.4081 C 457.03829,290.60067 456.76275,209.7285 447.42487,172.68802 C 448.23704,164.60833 439.99547,150.34227 451.78019,153.51809 z "
       id="path31524"
       sodipodi:nodetypes="ccccccc" />
    <path
       style="opacity:1;color:#000000;fill:#46a1a6;fill-opacity:1;fill-rule:nonzero;stroke:none;stroke-width:1px;stroke-linecap:butt;stroke-linejoin:miter;marker:none;marker-start:none;marker-mid:none;marker-end:none;stroke-miterlimit:4;stroke-dasharray:none;stroke-dashoffset:0;stroke-opacity:1;visibility:visible;display:inline;overflow:visible;enable-background:accumulate"
       d="M 780.92449,521.99667 C 763.3066,573.92206 734.21349,620.43539 706.38766,667.29147 C 690.59463,684.76671 672.708,712.49451 696.83665,732.09608 C 719.29303,752.53385 732.19776,713.12159 742.2049,698.4446 C 762.52115,668.11766 780.16729,635.97007 792.68249,601.65114 C 809.08723,579.10973 813.70867,546.67388 788.49342,528.5248 C 786.10088,526.20335 783.5711,524.02358 780.92449,521.99667 z "
       id="path36708" />
    <path
       style="opacity:1;color:#000000;fill:#46a1a6;fill-opacity:1;fill-rule:nonzero;stroke:none;stroke-width:1px;stroke-linecap:butt;stroke-linejoin:miter;marker:none;marker-start:none;marker-mid:none;marker-end:none;stroke-miterlimit:4;stroke-dasharray:none;stroke-dashoffset:0;stroke-opacity:1;visibility:visible;display:inline;overflow:visible;enable-background:accumulate"
       d="M 662.52612,358.95321 C 643.04233,411.45115 620.56736,463.76903 586.079,508.35622 C 567.24988,538.59202 605.5992,593.2724 632.31599,529.38863 C 654.35203,495.52799 668.38853,457.40443 686.60722,422.17879 C 693.24849,399.02679 684.30648,370.82985 662.52612,358.95321 z "
       id="path36716"
       sodipodi:nodetypes="ccccc" />
    <path
       style="opacity:1;color:#000000;fill:#46a1a6;fill-opacity:1;fill-rule:nonzero;stroke:none;stroke-width:1px;stroke-linecap:butt;stroke-linejoin:miter;marker:none;marker-start:none;marker-mid:none;marker-end:none;stroke-miterlimit:4;stroke-dasharray:none;stroke-dashoffset:0;stroke-opacity:1;visibility:visible;display:inline;overflow:visible;enable-background:accumulate"
       d="M 533.24388,423.11964 C 549.05547,398.53671 563.78912,373.15698 573.866,345.59523 C 580.42796,325.83929 590.21595,307.59184 596.7482,287.88106 C 605.10951,266.6479 616.98594,297.71207 628.11652,303.49999 C 641.17085,325.98101 615.00493,348.6327 610.83914,370.91231 C 599.95969,406.22673 577.61005,436.36138 560.17047,468.52439 C 545.8374,480.44732 543.83644,446.99001 534.97966,439.3943 C 532.73017,434.35215 529.42994,428.39543 533.24388,423.11964 z "
       id="path36720" />
    <path
       style="opacity:1;color:#000000;fill:#000000;fill-opacity:1;fill-rule:evenodd;stroke:none;stroke-width:1px;stroke-linecap:butt;stroke-linejoin:miter;marker:none;marker-start:none;marker-mid:none;marker-end:none;stroke-miterlimit:4;stroke-dasharray:none;stroke-dashoffset:0;stroke-opacity:1;visibility:visible;display:inline;overflow:visible;enable-background:accumulate"
       id="path30470"
       d="M 611.28082,259.63476 C 611.91739,260.96509 612.72806,262.20836 613.49049,263.46913 C 616.81701,268.99322 620.33997,274.39375 623.85142,279.80095 C 631.16064,290.99476 638.63175,302.08173 646.16708,313.12425 C 656.91403,328.68825 667.69594,344.22829 678.49241,359.75805 C 692.12034,379.41411 705.84864,398.99969 719.65645,418.52971 C 734.78092,439.90532 750.27472,461.01549 765.83284,482.0764 C 779.28839,500.22542 792.76539,518.35869 806.28575,536.45954 C 816.89783,550.67303 827.53587,564.86726 838.21285,579.0321 C 846.74512,590.37633 855.4164,601.61462 864.11657,612.83021 C 868.97134,619.0502 873.867,625.23805 878.7562,631.43097 L 863.10184,640.76228 C 858.28231,634.52192 853.45811,628.28516 848.66461,622.02478 C 840.06913,610.73652 831.50051,599.42751 823.08116,588.00691 C 812.5536,573.75181 802.09209,559.44805 791.64854,545.13131 C 778.33758,526.89991 765.05,508.65142 751.73556,490.42256 C 736.30733,469.25832 720.87633,448.09558 705.58026,426.83557 C 691.64421,407.37362 677.76539,387.87101 663.90447,368.35548 C 652.92082,352.93082 641.96975,337.4829 630.99669,322.0507 C 623.28385,311.09765 615.60884,300.11806 607.94065,289.13371 C 604.23577,283.8209 600.5285,278.50932 596.80245,273.21154 C 595.92619,271.93526 595.02767,270.67125 594.23227,269.34192 L 611.28082,259.63476 z " />
    <path
       style="opacity:1;color:#000000;fill:#000000;fill-opacity:1;fill-rule:evenodd;stroke:none;stroke-width:1px;stroke-linecap:butt;stroke-linejoin:miter;marker:none;marker-start:none;marker-mid:none;marker-end:none;stroke-miterlimit:4;stroke-dasharray:none;stroke-dashoffset:0;stroke-opacity:1;visibility:visible;display:inline;overflow:visible;enable-background:accumulate"
       id="path30476"
       d="M 708.58558,735.94333 C 710.38699,736.1511 712.19903,736.26349 714.00772,736.39144 C 718.78315,736.77128 723.52286,736.13948 728.24107,735.47772 C 736.88085,734.19973 745.33742,732.02303 753.70496,729.56355 C 763.03687,726.81726 772.06071,723.18551 780.91628,719.18733 C 787.69748,716.56018 817.07297,699.46092 789.76249,715.04645 C 797.30365,710.52143 804.46478,705.41959 811.41037,700.03582 C 817.47573,695.29338 823.14866,690.08564 828.65351,684.71128 C 833.31545,680.15115 837.61993,675.2536 841.7675,670.22732 C 845.30803,665.95955 848.39281,661.35564 851.25534,656.61502 C 853.59607,652.78606 855.4256,648.69214 857.22107,644.59095 C 857.46508,643.99586 857.70906,643.40074 857.95307,642.80565 L 875.35072,634.77522 C 875.10407,635.38076 874.85744,635.98627 874.6108,636.59181 C 872.79795,640.78555 870.96414,644.97932 868.62335,648.91456 C 865.75644,653.75154 862.68966,658.4707 859.13054,662.83466 C 854.96622,667.93769 850.65653,672.92374 845.96894,677.55821 C 840.4373,683.01308 834.74167,688.30724 828.6514,693.13991 C 821.70981,698.6058 814.55192,703.79136 807.00167,708.39364 C 793.69599,716.14968 780.5484,724.30681 766.47307,730.63629 C 757.56816,734.55807 748.49505,738.09813 739.13475,740.7926 C 730.60276,743.2454 721.98527,745.42164 713.19366,746.73167 C 708.2642,747.41344 703.31,748.02374 698.32403,747.64718 C 696.43383,747.54454 694.54298,747.45106 692.65534,747.30753 L 708.58558,735.94333 z " />
    <path
       style="opacity:1;color:#000000;fill:#46a1a6;fill-opacity:1;fill-rule:nonzero;stroke:none;stroke-width:1px;stroke-linecap:butt;stroke-linejoin:miter;marker:none;marker-start:none;marker-mid:none;marker-end:none;stroke-miterlimit:4;stroke-dasharray:none;stroke-dashoffset:0;stroke-opacity:1;visibility:visible;display:inline;overflow:visible;enable-background:accumulate"
       d="M 473.07535,328.98929 C 489.58878,328.92762 507.7562,332.07847 522.24381,322.02476 C 533.22258,318.18233 534.31446,330.12378 528.2434,336.46615 C 524.09257,350.73585 516.53796,363.47278 510.14986,376.60052 C 502.36591,390.25436 491.96973,376.63418 486.1997,369.06714 C 477.97949,358.55726 468.54,345.41595 471.94766,331.45102 L 473.07535,328.98929 L 473.07535,328.98929 z "
       id="path37691" />
    <path
       style="opacity:1;color:#000000;fill:#000000;fill-opacity:1;fill-rule:evenodd;stroke:none;stroke-width:1px;stroke-linecap:butt;stroke-linejoin:miter;marker:none;marker-start:none;marker-mid:none;marker-end:none;stroke-miterlimit:4;stroke-dasharray:none;stroke-dashoffset:0;stroke-opacity:1;visibility:visible;display:inline;overflow:visible;enable-background:accumulate"
       id="path30496"
       d="M 466.52201,320.19633 C 467.64858,320.86579 468.86467,321.3597 470.05202,321.90465 C 472.80865,323.07459 475.73629,323.70636 478.63981,324.38195 C 482.87569,325.31563 487.18675,325.77631 491.50897,326.05204 C 496.76147,326.36132 502.00898,326.03498 507.22667,325.43588 C 512.75331,324.80012 518.12797,323.38688 523.41228,321.69451 C 528.55969,320.01875 533.55728,317.92925 538.4833,315.69478 C 543.11179,313.60891 547.62449,311.28835 552.06966,308.8398 C 556.60318,305.10854 530.48296,322.34038 547.61507,310.87514 C 551.2451,308.40371 554.54188,305.50689 557.82336,302.60291 C 560.8732,299.84605 563.67181,296.83491 566.46368,293.82303 C 568.88701,291.15915 571.15754,288.36417 573.42362,285.56738 C 575.45191,283.03446 577.3549,280.40669 579.25048,277.77439 C 580.92334,275.46951 582.50844,273.10567 584.06528,270.72196 C 585.47801,268.49436 586.8003,266.21242 588.10869,263.92285 C 588.31703,263.54328 588.52537,263.16372 588.7337,262.78416 L 606.36842,254.87492 C 606.16209,255.26114 605.95577,255.64733 605.74944,256.03354 C 604.46297,258.36549 603.14304,260.67705 601.73453,262.93829 C 600.20114,265.37378 598.63825,267.78989 596.91908,270.10064 C 595.02563,272.77047 593.12059,275.43246 591.09767,278.00689 C 588.82622,280.84983 586.5453,283.68583 584.1267,286.40684 C 581.3339,289.46956 578.53814,292.53524 575.50582,295.36629 C 572.24546,298.34439 568.97159,301.31704 565.36892,303.88593 C 556.36644,310.11269 546.93701,315.65387 537.24677,320.77999 C 532.78097,323.17423 528.2445,325.43271 523.60974,327.48391 C 518.64274,329.65625 513.61004,331.69193 508.42338,333.28617 C 503.05567,334.88394 497.5997,336.18006 492.01406,336.73558 C 486.70065,337.25133 481.3607,337.50951 476.02608,337.13637 C 471.60745,336.79968 467.20132,336.28734 462.87143,335.31547 C 459.84044,334.59048 456.79027,333.89681 453.91061,332.67095 C 452.68812,332.13942 451.47269,331.57464 450.22174,331.11658 L 466.52201,320.19633 z " />
    <path
       style="opacity:1;color:#000000;fill:#000000;fill-opacity:1;fill-rule:evenodd;stroke:none;stroke-width:1px;stroke-linecap:butt;stroke-linejoin:miter;marker:none;marker-start:none;marker-mid:none;marker-end:none;stroke-miterlimit:4;stroke-dasharray:none;stroke-dashoffset:0;stroke-opacity:1;visibility:visible;display:inline;overflow:visible;enable-background:accumulate"
       d="M 440.42386,136.19578 C 440.83409,139.37755 441.24849,142.55854 441.6406,145.74253 C 441.61048,145.71752 441.57755,145.674 441.547,145.64893 C 443.34354,159.7549 445.10331,173.81257 446.60117,187.95413 C 449.0756,212.20038 451.12991,236.46897 451.09375,260.86507 C 451.3959,275.50264 451.62376,290.2197 452.02971,304.85498 C 452.19532,311.83311 452.38128,318.74706 452.21691,325.7268 C 452.10312,327.5287 452.04094,329.37047 451.74892,331.15533 L 469.2513,322.45096 C 469.43608,320.65631 469.35852,318.82181 469.34488,317.02241 C 469.10917,310.14524 468.69888,303.30231 468.31534,296.43138 C 467.49416,281.95391 467.03968,267.49401 466.53702,253.00304 C 465.84822,228.7736 463.29541,204.57586 460.92129,180.46648 C 459.89602,170.16816 458.80552,159.86347 457.64545,149.57995 C 451.88905,145.13971 446.1739,140.6601 440.42386,136.19578 z "
       id="path30504" />
    <path
       style="opacity:1;color:#000000;fill:#000000;fill-opacity:1;fill-rule:evenodd;stroke:none;stroke-width:1px;stroke-linecap:butt;stroke-linejoin:miter;marker:none;marker-start:none;marker-mid:none;marker-end:none;stroke-miterlimit:4;stroke-dasharray:none;stroke-dashoffset:0;stroke-opacity:1;visibility:visible;display:inline;overflow:visible;enable-background:accumulate"
       d="M 440.42386,136.19578 C 441.43681,144.05239 442.38,151.91792 443.32533,159.78186 C 445.61355,161.49584 447.8614,163.22657 450.1578,164.92961 C 462.32346,173.90501 474.63679,182.76376 487.03445,191.41717 C 501.18649,201.34222 515.36335,211.23256 529.43323,221.27415 C 541.6823,230.02262 553.94269,238.78909 566.0291,247.76169 C 573.5616,253.36341 581.0337,258.97451 588.39844,264.79609 C 590.56922,266.51633 592.74672,268.24255 594.85653,270.03744 L 611.42294,259.64833 C 609.13382,257.91799 606.74254,256.35023 604.40327,254.68776 C 596.67302,249.16431 589.02234,243.54156 581.28517,238.02775 C 568.96728,229.2296 556.52009,220.51379 544.12774,211.82099 C 529.95784,201.92964 515.82001,191.96741 501.72895,181.96401 C 489.43223,173.26016 477.28745,164.40986 465.22668,155.38288 C 456.86545,149.0916 448.68887,142.61272 440.42386,136.19578 z "
       id="path30508" />
    <path
       style="opacity:1;color:#000000;fill:#46a1a6;fill-opacity:1;fill-rule:nonzero;stroke:none;stroke-width:1px;stroke-linecap:butt;stroke-linejoin:miter;marker:none;marker-start:none;marker-mid:none;marker-end:none;stroke-miterlimit:4;stroke-dasharray:none;stroke-dashoffset:0;stroke-opacity:1;visibility:visible;display:inline;overflow:visible;enable-background:accumulate"
       d="M 722.80165,441.03652 C 705.79769,476.04755 694.13033,513.8526 671.10088,545.67134 C 663.46279,570.72156 639.66862,587.29346 634.22902,611.06427 C 634.32414,631.11097 660.14744,663.84383 671.62992,631.08019 C 692.20858,603.99325 706.89298,572.87771 724.42423,543.89824 C 728.62626,519.56691 755.08799,494.82743 742.37498,470.63197 C 735.7804,460.86686 725.32032,453.11519 722.80165,441.03652 z "
       id="path36712" />
    <path
       style="opacity:1;color:#000000;fill:#000000;fill-opacity:1;fill-rule:evenodd;stroke:none;stroke-width:1px;stroke-linecap:butt;stroke-linejoin:miter;marker:none;marker-start:none;marker-mid:none;marker-end:none;stroke-miterlimit:4;stroke-dasharray:none;stroke-dashoffset:0;stroke-opacity:1;visibility:visible;display:inline;overflow:visible;enable-background:accumulate"
       id="path30528"
       d="M 692.52949,749.27385 C 689.9214,745.3876 687.44758,741.41096 684.98317,737.43178 C 676.75807,723.95827 669.52515,709.9084 662.21319,695.9274 C 649.86382,671.76481 637.19424,647.76778 624.4085,623.83385 C 608.69686,594.18248 592.4387,564.82929 576.03091,535.55923 C 561.74018,510.17096 547.2414,484.90032 532.63336,459.69345 C 521.07616,439.7139 509.52318,419.73186 497.96365,399.75359 C 488.7112,383.74513 479.45982,367.73601 470.21498,351.72314 C 463.97283,340.91584 457.7524,330.09605 451.51342,319.28691 L 470.58142,308.28874 C 476.7316,319.1492 482.86063,330.02165 489.00382,340.88607 C 498.11217,356.97672 507.23333,373.06014 516.35759,389.14178 C 527.75004,409.21639 539.13088,429.29758 550.52491,449.37126 C 564.89702,474.72476 579.15491,500.14297 593.29877,525.62455 C 609.56319,554.98167 625.77769,584.36632 641.83774,613.83584 C 654.85969,637.63101 667.85226,661.44267 680.67542,685.34568 C 688.23833,699.1142 695.71124,712.97893 704.45461,726.04669 C 707.07646,729.85605 709.67943,733.70322 712.67378,737.23402 L 692.52949,749.27385 z " />
    <path
       style="opacity:1;color:#000000;fill:#000000;fill-opacity:1;fill-rule:nonzero;stroke:none;stroke-width:1px;stroke-linecap:butt;stroke-linejoin:miter;marker:none;marker-start:none;marker-mid:none;marker-end:none;stroke-miterlimit:4;stroke-dasharray:none;stroke-dashoffset:0;stroke-opacity:1;visibility:visible;display:inline;overflow:visible;enable-background:accumulate"
       d="M 604.40327,265.63845 L 595.88609,269.85025 C 595.27514,273.33548 594.35339,276.727 593.4526,280.14576 C 590.31763,291.82981 586.38189,303.29717 582.31472,314.68252 C 575.49602,333.48112 567.88513,351.91771 559.75819,370.18468 C 550.80854,390.28829 539.58672,409.28498 528.12289,428.02673 C 527.56213,428.93472 527.00146,429.83481 526.43817,430.74101 C 527.66235,432.92072 528.86423,435.11299 530.08839,437.29269 C 533.01577,432.66659 535.94212,428.02056 538.7928,423.34696 C 550.16083,404.54126 561.26124,385.50311 570.2409,365.41132 C 578.49845,346.97482 586.22551,328.30671 593.4526,309.44117 C 597.80079,297.82904 602.07015,286.19927 605.71361,274.34284 C 606.19942,272.74662 606.73754,271.17113 607.21114,269.56946 C 606.27642,268.25886 605.33809,266.94897 604.40327,265.63845 z M 631.07801,303.07667 C 631.02787,303.26707 630.94089,303.44826 630.89082,303.63825 C 627.75586,315.32229 623.81996,326.69606 619.75295,338.08141 C 612.93425,356.88 605.32324,375.41023 597.19643,393.67716 C 588.24677,413.78077 577.025,432.77741 565.56112,451.51922 C 560.79213,459.24119 555.98859,466.93583 551.05381,474.54372 C 552.23054,476.63899 553.43371,478.71938 554.61044,480.81463 C 561.9843,469.5519 569.23348,458.21826 576.23101,446.74585 C 587.59905,427.94016 598.69934,408.99561 607.67912,388.9038 C 615.93667,370.4673 623.6638,351.79923 630.89082,332.93365 C 633.368,326.3182 635.77283,319.66337 638.09768,312.9978 C 635.74826,309.69883 633.42781,306.37528 631.07801,303.07667 z M 542.34942,315.61848 C 539.03174,317.44639 535.47606,319.18257 531.58593,320.95342 C 529.82979,325.04889 528.06141,329.14513 526.25099,333.21443 C 518.59418,350.41395 509.28803,366.72725 499.57625,382.82008 C 500.82123,385.03685 502.07508,387.2486 503.32007,389.46537 C 503.97281,388.40503 504.63718,387.34616 505.28557,386.28312 C 516.65362,367.47743 527.754,348.4393 536.73369,328.34746 C 538.63207,324.10895 540.50673,319.88104 542.34942,315.61848 z M 660.27982,344.16512 C 660.25475,344.26006 660.21127,344.3509 660.18622,344.4459 C 657.05127,356.12996 653.11546,367.59731 649.04836,378.98267 C 642.22966,397.78126 634.61874,416.21788 626.49183,434.48483 C 617.54218,454.58843 606.32032,473.58507 594.85653,492.32688 C 588.98693,501.83093 582.99997,511.25496 576.88617,520.59275 C 578.06291,522.68799 579.26608,524.76839 580.44281,526.86365 C 588.96872,513.9202 597.3557,500.88939 605.43283,487.6471 C 616.80087,468.84141 627.90124,449.80329 636.88094,429.71145 C 645.13849,411.27496 652.95912,392.60679 660.18622,373.74132 C 662.63993,367.18855 665.02029,360.59421 667.29949,353.99265 C 664.96592,350.71342 662.61357,347.44417 660.27982,344.16512 z M 691.72793,388.34222 C 688.97595,397.6709 685.82515,406.89377 682.55556,416.0465 C 675.73686,434.84511 668.12598,453.28167 659.99904,471.54867 C 651.04938,491.65228 639.82757,510.64894 628.36373,529.39071 C 620.32833,542.40171 612.02848,555.22853 603.56091,567.9521 C 604.75097,570.07107 605.92749,572.19761 607.11755,574.31659 C 607.5321,573.69853 607.92109,573.06352 608.33429,572.44469 C 618.81417,556.69633 629.08862,540.86213 638.94004,524.71094 C 650.30807,505.90524 661.40848,486.86707 670.38814,466.7753 C 678.64569,448.3388 686.46636,429.67066 693.69343,410.80515 C 695.32142,406.45748 696.90602,402.06539 698.46681,397.70178 C 696.23861,394.57002 693.9561,391.47397 691.72793,388.34222 z M 720.18097,428.30752 C 718.50934,433.32653 716.81086,438.30638 715.03323,443.28282 C 708.21452,462.08141 700.60366,480.51797 692.47669,498.78498 C 683.52704,518.88859 672.39884,537.88529 660.935,556.62703 C 650.92485,572.83548 640.41243,588.7513 629.76767,604.54795 C 628.72535,606.09014 627.63662,607.5983 626.58543,609.13414 C 627.74882,611.20567 628.97865,613.23991 630.14205,615.31145 C 633.72738,610.1141 637.3085,604.92821 640.81195,599.68098 C 651.29183,583.93265 661.65991,568.09844 671.51129,551.94725 C 682.87933,533.14155 693.97976,514.10338 702.95939,494.0116 C 711.21696,475.5751 718.94406,456.90697 726.17109,438.04146 C 726.28871,437.72733 726.42798,437.41966 726.54547,437.10551 C 724.44546,434.15505 722.28081,431.25814 720.18097,428.30752 z M 749.28919,469.11519 C 747.73164,473.75531 746.16062,478.36297 744.51583,482.96733 C 737.69713,501.76592 730.08622,520.20254 721.9593,538.4695 C 713.00964,558.5731 701.88142,577.56985 690.41759,596.31155 C 680.40745,612.51999 669.89501,628.43587 659.25028,644.23247 C 656.91361,647.68972 654.50508,651.10027 652.13701,654.52798 C 653.31373,656.62323 654.51692,658.70364 655.69364,660.79888 C 660.64561,653.6834 665.57811,646.56963 670.38814,639.3655 C 680.86802,623.61716 691.14247,607.783 700.99389,591.63177 C 712.36192,572.82608 723.46233,553.78795 732.44199,533.69611 C 740.67118,515.32294 748.35441,496.71252 755.56009,477.91317 C 753.46928,474.97846 751.37969,472.05017 749.28919,469.11519 z M 778.491,510.11004 C 776.95367,514.66595 775.43269,519.2358 773.81124,523.77498 C 766.99253,542.5736 759.38152,561.10382 751.25469,579.37075 C 742.30506,599.47435 731.17688,618.47101 719.71301,637.2128 C 709.70285,653.42125 699.19032,669.33704 688.54568,685.13372 C 684.89036,690.54202 681.15597,695.89 677.40781,701.23217 C 677.62076,704.2345 678.11874,707.19577 678.99893,710.03015 C 685.93623,700.15709 692.89313,690.29694 699.58996,680.26675 C 710.06984,664.51842 720.43798,648.68418 730.2893,632.53302 C 741.65734,613.72733 752.75762,594.68921 761.7374,574.59737 C 769.95474,556.25067 777.65886,537.67969 784.8555,518.90803 C 782.75321,515.96178 780.59279,513.0567 778.491,510.11004 z M 809.75193,553.81915 C 808.9347,556.15576 808.15248,558.50406 807.31844,560.83884 C 800.49974,579.63743 792.88879,598.16761 784.76191,616.43459 C 775.81225,636.5382 764.68415,655.5348 753.22021,674.27663 C 743.21006,690.48509 732.69757,706.30726 722.05289,722.10397 C 717.97089,728.14354 713.79913,734.09279 709.60468,740.07432 C 711.82829,740.76268 714.14255,741.26751 716.43715,741.57185 C 722.05912,733.55075 727.64957,725.4897 733.09716,717.33061 C 743.57705,701.58225 753.94504,685.65457 763.7965,669.50327 C 775.16455,650.69757 786.26486,631.75302 795.24462,611.66122 C 802.5303,595.39461 809.35499,578.94006 815.83563,562.33636 C 813.80625,559.49869 811.78069,556.65734 809.75193,553.81915 z M 838.11137,592.94211 C 831.74535,610.07338 824.66395,626.98294 817.23957,643.6709 C 808.28992,663.77451 797.16164,682.67751 785.69787,701.41935 C 780.27873,710.194 774.69271,718.90187 769.03785,727.53252 C 772.80567,725.93962 776.51124,724.19991 780.17572,722.38476 C 785.63779,713.89071 791.01975,705.35412 796.27417,696.73957 C 807.6422,677.93388 818.74255,658.98934 827.72227,638.89752 C 833.54376,625.90002 839.07743,612.80315 844.38227,599.58739 C 842.23258,597.3886 840.09576,595.1744 838.11137,592.94211 z "
       id="path32645" />
  </g>
  <g
     inkscape:groupmode="layer"
     id="layer3"
     inkscape:label="rocket-left-fin"
     style="display:inline">
    <path
       style="color:#000000;fill:#dd1717;fill-opacity:1;fill-rule:nonzero;stroke:none;stroke-width:1px;stroke-linecap:butt;stroke-linejoin:miter;marker:none;marker-start:none;marker-mid:none;marker-end:none;stroke-miterlimit:4;stroke-dasharray:none;stroke-dashoffset:0;stroke-opacity:1;visibility:visible;display:inline;overflow:visible;enable-background:accumulate"
       d="M 726.31819,581.42985 L 803.33394,713.53328 L 884.36096,740.27487 L 726.31819,581.42985 z "
       id="path32635" />
    <path
       style="color:#000000;fill:#000000;fill-opacity:0.9402984;fill-rule:nonzero;stroke:none;stroke-width:1px;stroke-linecap:butt;stroke-linejoin:miter;marker:none;marker-start:none;marker-mid:none;marker-end:none;stroke-miterlimit:4;stroke-dasharray:none;stroke-dashoffset:0;stroke-opacity:1;visibility:visible;display:inline;overflow:visible;enable-background:accumulate"
       id="path30514"
       d="M 802.45997,704.38452 C 803.88238,704.92298 805.32068,705.42255 806.75198,705.93872 C 809.5573,706.96102 812.31602,708.10165 815.07747,709.23511 C 819.13903,710.90339 823.19018,712.59667 827.25247,714.26328 C 832.14159,716.27454 837.01944,718.31316 841.91064,720.3194 C 847.26772,722.53922 852.66274,724.66471 858.05987,726.78474 C 863.38047,728.88131 868.73279,730.89645 874.09439,732.88552 C 878.6541,734.62817 883.24537,736.27898 887.86602,737.8504 C 890.89669,738.98163 893.97606,739.49406 897.17469,739.53282 C 883.30908,747.61013 885.51664,752.67534 880.00612,743.0865 C 875.35417,736.0501 869.5174,729.9008 863.77648,723.75745 C 854.55071,713.95472 844.93497,704.53254 835.43041,695.0031 C 824.51402,684.05557 813.58614,673.11957 802.72076,662.12136 C 792.96903,652.22352 783.3049,642.23968 773.70731,632.19246 C 765.37376,623.44737 757.20543,614.54795 749.09526,605.59605 C 742.21808,598.05095 735.5659,590.30669 728.95958,582.52481 C 723.85058,576.45878 718.78038,570.36035 713.57364,564.37761 C 710.43698,560.69755 707.07533,557.23868 703.51944,553.97224 C 695.45554,553.29242 717.03785,537.29139 718.52714,547.81518 C 720.75927,555.48511 724.24685,562.72213 727.64023,569.93 C 732.54413,580.3026 738.1188,590.33937 743.71219,600.35102 C 748.93114,609.6293 754.28291,618.83151 759.7226,627.98186 C 764.33993,635.74146 769.12924,643.39661 773.94283,651.03541 C 777.90202,657.27625 781.84533,663.52711 785.79586,669.77343 C 788.97339,674.80686 792.18453,679.81879 795.39996,684.82803 C 798.07132,688.93215 800.77043,693.01816 803.45433,697.11409 C 805.70824,700.54579 807.9733,703.97007 810.22389,707.4039 C 811.50074,709.35018 812.76082,711.30739 814.02861,713.25956 L 797.40959,722.9531 C 796.1655,720.99451 794.92944,719.03077 793.6697,717.08213 C 791.44873,713.6297 789.21541,710.18529 786.98431,706.73935 C 784.3279,702.61975 781.65984,698.50763 779.01715,694.37916 C 775.84888,689.33751 772.68941,684.29035 769.553,679.22873 C 765.66129,672.94732 761.78856,666.6541 757.88184,660.38198 C 753.12733,652.68995 748.38896,644.98692 743.816,637.18507 C 738.43352,627.98321 733.147,618.72607 727.96866,609.40765 C 722.38983,599.34762 716.80989,589.27915 711.67127,578.98538 C 708.15136,571.73845 704.4878,564.52677 701.72014,556.94882 C 699.06144,547.84427 712.88675,536.84907 719.86065,543.85778 C 723.29165,547.31957 726.57575,550.91701 729.67154,554.68698 C 734.75167,560.76056 739.72919,566.91856 744.77879,573.01742 C 751.28936,580.8344 757.85805,588.604 764.65992,596.17054 C 772.68819,605.15538 780.79619,614.06882 789.057,622.84096 C 798.57216,632.92727 808.15584,642.94939 817.84139,652.87231 C 828.65601,663.90955 839.50148,674.91816 850.53161,685.74074 C 860.17765,695.20812 869.9126,704.58687 879.34814,714.26605 C 885.33397,720.42012 891.42328,726.5533 896.46936,733.52469 C 903.42558,744.25602 897.05345,744.30208 881.49467,750.88123 C 878.25995,750.45498 875.10037,749.75383 872.04119,748.56941 C 867.46683,746.91812 862.91541,745.20686 858.37291,743.46921 C 853.02365,741.45031 847.679,739.41857 842.36245,737.31464 C 836.95208,735.18599 831.54172,733.0574 826.16151,730.85323 C 821.25249,728.85349 816.35183,726.8332 811.43752,724.8465 C 807.33503,723.19788 803.23898,721.53311 799.12391,719.91609 C 796.33161,718.83333 793.54063,717.74457 790.69632,716.80332 C 789.24578,716.34026 787.8042,715.83391 786.32732,715.46162 L 802.45997,704.38452 z " />
  </g>
  <g
     inkscape:groupmode="layer"
     id="layer2"
     inkscape:label="penguin"
     style="display:inline">
    <path
       style="opacity:1;color:#000000;fill:#303030;fill-opacity:1;fill-rule:nonzero;stroke:none;stroke-width:80;stroke-linecap:butt;stroke-linejoin:miter;marker:none;marker-start:none;marker-mid:none;marker-end:none;stroke-miterlimit:4;stroke-dasharray:none;stroke-dashoffset:0;stroke-opacity:0.25465836;visibility:visible;display:inline;overflow:visible"
       d="M 366.76613,663.38332 C 349.34322,699.73053 319.24275,726.79351 292.12067,755.24178 C 272.73255,786.00883 272.73468,828.43287 292.12442,859.19858 C 303.6396,871.13601 322.11244,868.56876 335.77004,862.39817 C 367.05713,852.02033 393.56872,826.43672 404.46694,794.31605 C 414.93383,773.6759 429.51849,753.29023 429.20459,728.95391 C 430.49632,705.83614 434.46534,680.59337 422.88543,659.43224 C 411.85059,641.26197 382.65199,638.12339 370.00236,656.01027 C 368.48886,658.22963 367.35916,660.7364 366.76613,663.38332 z "
       id="path6032" />
    <path
       style="opacity:1;color:#000000;fill:#000000;fill-opacity:1;fill-rule:nonzero;stroke:none;stroke-width:80;stroke-linecap:butt;stroke-linejoin:miter;marker:none;marker-start:none;marker-mid:none;marker-end:none;stroke-miterlimit:4;stroke-dasharray:none;stroke-dashoffset:0;stroke-opacity:0.25465836;visibility:visible;display:inline;overflow:visible"
       id="path4138"
       d="M 358.97507,689.3396 C 358.28569,696.12191 352.41805,700.257 348.00874,704.86272 C 334.33693,718.42499 321.84671,733.12671 311.10515,749.25765 C 298.71468,767.32989 290.65198,787.66552 288.78924,809.74868 C 288.06585,824.68318 289.07089,840.64868 297.46727,853.30497 C 301.87384,859.44292 322.49218,858.86891 304.43707,857.88229 C 300.93292,857.69081 311.46405,857.71463 314.94837,857.28567 C 327.11607,854.91876 338.34824,849.34085 349.00278,843.02757 L 365.28188,856.67504 C 353.47865,863.86018 341.1276,870.18631 327.856,873.95391 C 310.08299,878.74762 288.57512,878.45956 277.7771,860.9234 C 268.99398,845.05517 267.92312,826.14976 269.09615,808.28646 C 271.44336,784.09263 279.7309,761.4951 293.23109,741.51677 C 304.04124,724.80923 316.32305,709.25206 329.46963,694.44093 C 331.29639,692.2669 339.13547,679.53025 336.16662,689.12949 L 358.97507,689.3396 z " />
    <path
       style="opacity:1;color:#000000;fill:#ff6600;fill-opacity:1;fill-rule:nonzero;stroke:none;stroke-width:80;stroke-linecap:butt;stroke-linejoin:miter;marker:none;marker-start:none;marker-mid:none;marker-end:none;stroke-miterlimit:4;stroke-dasharray:none;stroke-dashoffset:0;stroke-opacity:0.25465836;visibility:visible;display:inline;overflow:visible"
       d="M 356.7314,894.13299 C 346.46828,904.25887 338.81431,919.05044 341.39479,934.04492 C 350.31592,951.66599 373.98087,955.71762 390.21354,947.09389 C 412.22132,941.35918 433.22018,931.87548 452.69111,919.90261 C 464.63234,917.04431 477.00913,926.02554 480.53428,937.69426 C 502.93611,966.87264 551.55447,969.55013 575.37431,940.84566 C 587.94684,923.48917 580.78952,898.42779 566.51343,884.58287 C 548.65096,864.71881 517.04364,862.88573 495.47153,877.28382 C 482.37045,884.8487 473.28171,898.29325 459.79764,905.09927 C 445.5494,909.03643 432.17529,899.9045 421.56114,891.18104 C 406.13222,881.24889 385.46982,878.72186 369.34423,888.42049 C 365.11591,890.26805 360.95788,892.28108 356.7314,894.13299 z "
       id="path6070" />
    <path
       style="opacity:1;color:#000000;fill:#303030;fill-opacity:1;fill-rule:nonzero;stroke:none;stroke-width:80;stroke-linecap:butt;stroke-linejoin:miter;marker:none;marker-start:none;marker-mid:none;marker-end:none;stroke-miterlimit:4;stroke-dasharray:none;stroke-dashoffset:0;stroke-opacity:0.25465836;visibility:visible;display:inline;overflow:visible"
       d="M 310.99489,855.79724 C 319.11067,890.43218 355.96143,901.88007 384.00689,914.2614 C 442.86102,935.05564 505.92566,925.43284 566.65554,923.12464 C 617.5886,916.63223 675.47603,904.66592 707.10681,858.71035 C 732.84776,815.47904 723.40306,757.95799 694.13095,719.20464 C 639.91678,613.6169 590.13054,502.92513 510.82485,414.23156 C 484.13802,389.83235 436.47355,387.87711 414.32334,419.73028 C 384.2904,456.89886 379.92534,507.16995 360.29591,549.7768 C 333.91032,623.40367 302.63102,696.88481 295.17632,775.78157 C 294.68268,803.39778 305.94277,829.11595 310.99489,855.79724 z "
       id="path5080" />
    <path
       style="opacity:1;color:#000000;fill:#e2e2e2;fill-opacity:1;fill-rule:nonzero;stroke:none;stroke-width:80;stroke-linecap:butt;stroke-linejoin:miter;marker:none;marker-start:none;marker-mid:none;marker-end:none;stroke-miterlimit:4;stroke-dasharray:none;stroke-dashoffset:0;stroke-opacity:0.25465836;visibility:visible;display:inline;overflow:visible"
       d="M 360.65104,545.73425 C 328.9278,624.62266 294.9761,708.06062 304.25143,795.37267 C 308.83202,832.84464 318.03786,876.65629 353.09592,896.249 C 409.08576,931.23107 477.00229,928.15082 540.01628,927.44996 C 565.89471,927.34675 591.81945,927.23631 617.60903,924.76895 C 637.8608,914.65447 622.75654,888.98134 606.48244,884.20835 C 589.58113,882.2304 575.06972,872.72094 562.05711,861.47255 C 528.12608,833.01742 506.43231,790.11164 502.67287,745.24927 C 495.89871,715.04241 488.25589,684.85725 486.1152,653.85367 C 475.6385,603.78056 448.18002,560.11609 424.88709,515.64443 C 417.47809,500.28635 403.26265,478.23803 383.88579,488.00082 C 364.31082,499.13869 366.75098,525.18588 361.41361,544.23798 L 360.91293,545.22034 L 360.65104,545.73425 z "
       id="path7877" />
    <path
       style="opacity:1;color:#000000;fill:#000000;fill-opacity:1;fill-rule:nonzero;stroke:none;stroke-width:80;stroke-linecap:butt;stroke-linejoin:miter;marker:none;marker-start:none;marker-mid:none;marker-end:none;stroke-miterlimit:4;stroke-dasharray:none;stroke-dashoffset:0;stroke-opacity:0.25465836;visibility:visible;display:inline;overflow:visible"
       d="M 467.59209,385.03002 C 559.43449,395.38402 584.88596,498.83874 621.32931,569.73397 C 664.1775,653.00811 725.5835,733.97522 731.51589,830.89968 C 713.37114,924.30242 603.15754,933.92842 528.00866,937.66211 C 443.24529,939.11531 307.07395,945.03516 291.45047,831.27069 C 281.81057,713.99884 328.02941,601.45778 365.99521,493.18895 C 384.0425,444.72256 404.54046,379.35528 467.59209,385.03002 z M 463.07506,410.38202 L 459.35416,410.49843 L 463.07506,410.38202 z M 468.1021,410.85286 C 395.00331,424.33485 394.59792,518.14378 363.70144,572.94797 C 331.23921,663.31285 294.67489,766.66786 327.98259,861.63727 C 377.38715,929.74555 472.15719,915.30811 544.88088,916.23715 C 616.25547,915.71442 728.1983,878.93754 698.56124,783.45226 C 657.16065,668.22241 588.39978,565.46236 532.15,457.48453 C 521.00015,431.94209 494.37264,414.94909 468.1021,410.85286 z "
       id="path3946" />
    <path
       style="opacity:1;color:#000000;fill:#000000;fill-opacity:1;fill-rule:nonzero;stroke:none;stroke-width:80;stroke-linecap:butt;stroke-linejoin:miter;marker:none;marker-start:none;marker-mid:none;marker-end:none;stroke-miterlimit:4;stroke-dasharray:none;stroke-dashoffset:0;stroke-opacity:0.25465836;visibility:visible;display:inline;overflow:visible"
       id="path3988"
       d="M 354.59485,917.20911 C 359.64697,913.58066 360.75745,906.83363 356.57141,914.979 C 354.20702,919.70111 354.78854,924.38763 356.38371,929.17157 C 359.68386,933.1825 365.09514,933.34879 369.8904,933.96007 C 400.15857,930.37469 341.42034,941.93397 395.73694,931.51506 C 407.35936,929.27487 418.68444,925.62342 429.17415,919.98253 L 453.38606,939.53756 C 441.37569,946.98702 428.13127,951.82128 414.44219,954.87232 C 393.77353,959.52784 371.95486,962.93205 350.9885,958.64621 C 339.52395,955.44988 330.1449,948.82775 326.01233,936.92393 C 323.30228,927.20735 322.73331,917.02868 325.98879,907.32933 C 328.30468,900.69328 330.37101,893.77829 336.03426,889.34245 L 354.59485,917.20911 z " />
    <path
       style="opacity:1;color:#000000;fill:#000000;fill-opacity:1;fill-rule:nonzero;stroke:none;stroke-width:80;stroke-linecap:butt;stroke-linejoin:miter;marker:none;marker-start:none;marker-mid:none;marker-end:none;stroke-miterlimit:4;stroke-dasharray:none;stroke-dashoffset:0;stroke-opacity:0.25465836;visibility:visible;display:inline;overflow:visible"
       id="path3990"
       d="M 496.68623,929.27698 C 495.83004,925.74663 497.22242,929.88784 497.61757,930.98238 C 499.00407,934.75098 501.11431,937.95449 503.73174,940.88426 C 507.34516,943.52311 511.9321,944.18334 516.2179,945.02309 C 524.5761,947.50259 558.58684,946.06831 528.11314,946.76964 C 536.14342,946.91783 544.05352,945.78732 551.69993,943.32637 C 556.20465,941.73956 559.79336,938.78733 563.11787,935.39738 C 565.58849,932.79676 566.73522,929.45368 567.92353,926.11161 C 569.01694,922.59638 569.92743,919.02369 570.89936,915.47129 L 602.42036,921.22766 C 601.32899,924.98221 600.27642,928.74802 599.19146,932.50456 C 597.3548,938.19822 595.40432,943.9184 592.01459,948.86384 C 587.37284,955.25988 581.79604,960.77726 574.98021,964.68925 C 565.58675,969.7098 555.45301,972.45825 544.86395,973.07853 C 528.56101,973.49451 512.15196,974.10543 496.28858,969.47152 C 488.08421,966.74838 480.52778,962.97841 475.37415,955.54234 C 472.03361,950.71574 469.21994,945.55889 466.88776,940.1345 C 465.65572,937.18383 464.21228,934.27761 463.94202,931.03237 L 496.68623,929.27698 z " />
    <path
       style="opacity:1;color:#000000;fill:#ff6600;fill-opacity:1;fill-rule:nonzero;stroke:none;stroke-width:80;stroke-linecap:butt;stroke-linejoin:miter;marker:none;marker-start:none;marker-mid:none;marker-end:none;stroke-miterlimit:4;stroke-dasharray:none;stroke-dashoffset:0;stroke-opacity:0.25465836;visibility:visible;display:inline;overflow:visible"
       d="M 420.61314,509.02895 C 406.86028,504.77407 401.32314,487.94216 387.3314,484.1407 C 368.18249,475.1836 346.72434,478.43175 326.37786,477.37595 C 303.48691,478.38759 280.78678,487.85793 264.25663,504.30769 C 259.69234,510.0736 259.69709,520.66753 266.94745,524.16327 C 275.28758,528.51912 284.93153,526.6277 293.9024,527.38987 C 325.01357,527.06582 355.9086,522.92358 386.79501,519.49907 C 396.06661,518.51217 405.4149,518.12292 414.67302,517.21308 C 418.0169,516.26971 422.50649,513.21071 420.61314,509.02895 z "
       id="path5971" />
    <path
       style="opacity:1;color:#000000;fill:#000000;fill-opacity:1;fill-rule:nonzero;stroke:none;stroke-width:80;stroke-linecap:butt;stroke-linejoin:miter;marker:none;marker-start:none;marker-mid:none;marker-end:none;stroke-miterlimit:4;stroke-dasharray:none;stroke-dashoffset:0;stroke-opacity:0.25465836;visibility:visible;display:inline;overflow:visible"
       id="path4006"
       d="M 661.36289,911.80761 C 655.68534,916.75673 641.71391,916.83493 632.78312,916.22954 C 610.41274,909.94082 592.28638,894.9847 576.00434,878.5426 C 545.02634,846.24378 521.10988,807.73963 502.92475,766.53158 C 482.68822,718.50256 474.32294,666.52357 460.9483,616.28792 C 448.47368,572.81247 427.82144,529.78682 392.33087,501.60965 C 357.62571,480.47082 345.09079,480.84428 314.81836,488.47305 C 299.34913,493.38132 282.09343,499.89518 272.21716,513.86252 C 278.56474,517.66794 296.28476,513.91523 304.62195,514.25241 C 275.82816,516.8931 349.35617,510.91724 355.70135,510.02225 C 367.53266,508.32031 379.31016,506.24189 391.00217,503.71882 C 395.49365,502.73632 399.9387,501.55499 404.38118,500.36437 L 424.64841,525.20139 C 419.85754,526.36859 415.07259,527.57317 410.2466,528.58032 C 397.77619,531.21372 385.18307,533.15125 372.51583,534.46168 C 344.85716,537.48325 316.99611,539.45236 289.18557,537.7818 C 270.12952,536.5272 235.01704,533.13898 243.09891,504.34977 C 252.99839,483.48799 277.82467,474.55645 297.62645,467.54125 C 337.53249,456.46177 380.46781,460.19078 413.07918,488.20877 C 448.64033,520.70482 469.69001,566.21295 482.88192,612.59052 C 495.90255,662.07633 503.55777,713.46122 524.67214,760.31409 C 542.58876,799.58405 566.42818,836.27575 598.26188,865.0407 C 613.25795,877.89016 630.65463,890.4972 650.93027,890.61889 C 647.30451,890.41517 661.11682,901.87079 664.07728,904.03849 L 661.36289,911.80761 z "
       sodipodi:nodetypes="ccccccccccccccccccccccccc" />
    <path
       style="opacity:1;color:#000000;fill:#46a1a6;fill-opacity:1;fill-rule:nonzero;stroke:none;stroke-width:80;stroke-linecap:butt;stroke-linejoin:miter;marker:none;marker-start:none;marker-mid:none;marker-end:none;stroke-miterlimit:4;stroke-dasharray:none;stroke-dashoffset:0;stroke-opacity:0.25465836;visibility:visible;display:inline;overflow:visible"
       d="M 469.42581,458.99554 C 460.14566,457.98011 450.81113,464.84462 448.49102,474.11923 C 445.94116,479.95903 447.98489,487.71929 453.49928,490.92495 C 459.62317,495.05885 467.68011,494.65833 474.20683,491.77243 C 480.54809,489.19384 486.21018,484.10545 488.45731,477.33713 C 489.38712,471.53816 486.33358,465.84497 482.28519,462.03475 C 479.3927,459.62945 475.47139,458.76178 471.8336,459.33847 C 471.33786,459.2578 470.84748,459.10049 470.41957,458.82477"
       id="path9641" />
    <path
       style="opacity:1;color:#000000;fill:#000000;fill-opacity:1;fill-rule:nonzero;stroke:none;stroke-width:80;stroke-linecap:butt;stroke-linejoin:miter;marker:none;marker-start:none;marker-mid:none;marker-end:none;stroke-miterlimit:4;stroke-dasharray:none;stroke-dashoffset:0;stroke-opacity:0.25465836;visibility:visible;display:inline;overflow:visible"
       d="M 473.06184,447.35977 C 472.88858,447.36805 472.70158,447.39326 472.52911,447.40384 C 453.81489,447.49596 439.33585,467.67265 441.91015,486.17504 C 438.44683,496.32882 426.34475,494.50156 418.20943,496.35533 C 407.14817,500.52265 412.57273,513.46678 406.31719,520.48356 C 411.17523,528.08858 422.8485,525.95461 430.51366,524.37403 C 450.50205,517.67568 471.34594,509.91263 486.49198,494.26471 C 496.21885,484.3957 501.47992,467.49542 492.47545,455.3234 C 488.16769,448.7399 480.28161,447.01613 473.06184,447.35977 z M 467.12759,463.14271 C 467.36401,463.12573 467.15493,463.13813 467.39693,463.14178 C 472.4596,463.89998 479.64297,466.06696 479.08608,472.69515 C 478.05364,479.64402 470.77882,482.31345 464.9402,484.19538 C 458.28411,486.71705 455.07793,481.18539 457.24458,476.45778 C 458.78027,469.86969 461.31175,463.56058 467.12759,463.14271 z "
       id="path4016"
       sodipodi:nodetypes="ccccccccccccccc" />
    <path
       style="opacity:1;color:#000000;fill:#303030;fill-opacity:1;fill-rule:nonzero;stroke:none;stroke-width:80;stroke-linecap:butt;stroke-linejoin:miter;marker:none;marker-start:none;marker-mid:none;marker-end:none;stroke-miterlimit:4;stroke-dasharray:none;stroke-dashoffset:0;stroke-opacity:0.25465836;visibility:visible;display:inline;overflow:visible"
       d="M 508.68245,635.5656 C 510.8247,694.74911 486.50429,753.17901 499.30457,812.24934 C 504.30198,838.15027 513.83872,866.59182 537.47814,880.32159 C 565.19674,892.25099 596.79548,887.12924 624.11088,876.6393 C 644.55301,866.329 656.16754,844.34564 662.19726,822.64159 C 672.83303,796.22964 674.91772,764.31742 659.82718,739.2071 C 648.50972,716.62859 636.49799,694.39729 625.69477,671.5666 C 608.05149,640.67641 582.71516,611.22952 548.28733,600.95769 C 528.40755,597.45752 509.27385,615.15692 508.68245,635.5656 z "
       id="path5998" />
    <path
       style="opacity:1;color:#000000;fill:#000000;fill-opacity:1;fill-rule:nonzero;stroke:none;stroke-width:80;stroke-linecap:butt;stroke-linejoin:miter;marker:none;marker-start:none;marker-mid:none;marker-end:none;stroke-miterlimit:4;stroke-dasharray:none;stroke-dashoffset:0;stroke-opacity:0.25465836;visibility:visible;display:inline;overflow:visible"
       id="path4126"
       d="M 521.49923,668.59581 C 519.84219,677.31582 517.57398,685.93021 515.78311,694.6339 C 509.83685,725.60174 505.95531,757.05836 505.74035,788.6526 C 505.83772,813.79192 508.20941,840.42199 525.51048,859.60171 C 540.20568,876.96215 574.25994,880.18834 579.6104,880.11739 C 605.6912,879.02084 627.97716,864.85571 642.98312,843.31112 C 658.15052,819.67589 660.2098,790.8583 657.05771,763.41262 C 656.04616,756.44379 656.59907,759.88582 655.40486,753.08542 L 674.57562,751.21282 C 675.62266,758.51923 675.14061,754.82432 676.01636,762.29824 C 678.749,792.72171 676.1934,824.4441 660.08789,850.90143 C 643.7167,875.80665 619.33783,893.3712 589.86128,896.63318 C 560.18371,899.00619 528.94664,891.42399 508.05392,868.39966 C 489.98371,845.82405 487.07889,816.64884 487.6479,788.27165 C 488.31974,756.07331 492.33487,724.1145 496.25593,692.19869 C 497.11998,685.28393 498.97781,673.65442 498.69076,668.3857 L 521.49923,668.59581 z " />
    <path
       style="opacity:1;color:#000000;fill:#dd1717;fill-opacity:1;fill-rule:evenodd;stroke:none;stroke-width:1px;stroke-linecap:butt;stroke-linejoin:miter;marker:none;marker-start:none;marker-mid:none;marker-end:none;stroke-miterlimit:4;stroke-dasharray:none;stroke-dashoffset:0;stroke-opacity:1;visibility:visible;display:inline;overflow:visible;enable-background:accumulate"
       id="path30452"
       d="M 487.30783,699.53981 C 487.25061,697.93134 487.57453,696.35971 487.796,694.7788 C 488.53434,690.91508 490.65559,687.61412 492.79299,684.38622 C 497.77473,677.35927 503.98977,671.34823 510.17487,665.40072 C 518.38786,657.75132 527.21165,650.80686 536.18443,644.08046 C 544.66657,637.83015 553.37851,631.90149 562.059,625.93246 C 569.38868,620.91816 576.66746,615.82953 583.76421,610.48966 C 589.92582,605.88252 595.60625,600.70287 600.93251,595.16276 C 605.68432,590.23481 609.50353,584.58551 612.73537,578.57835 C 615.32897,573.67993 616.88363,568.39696 617.71553,562.94208 C 618.38148,558.73022 617.60594,554.65475 616.64357,550.58172 C 615.75769,547.39116 614.01031,544.65837 612.15139,541.97338 C 610.57096,539.85354 608.69355,537.99307 606.8145,536.14433 C 605.35634,534.68622 603.68946,533.48203 602.04907,532.24726 C 600.87974,531.22606 599.42178,530.9488 598.02425,530.45058 C 596.65707,530.14024 595.25907,530.25452 593.87579,530.23953 C 592.58531,530.24851 591.32622,530.53643 590.0598,530.73269 C 588.88444,530.9034 587.79331,531.38176 586.68335,531.77006 C 585.55235,532.15701 584.51684,532.7613 583.45899,533.3059 C 578.81242,535.728 592.53754,528.0705 597.08291,525.4634 C 596.07608,526.02692 595.16676,526.73797 594.23203,527.4088 L 576.14078,534.71004 C 577.04662,533.96882 577.90462,533.16366 578.88967,532.52038 C 585.46726,528.70075 591.81419,524.40911 598.68999,521.11625 C 599.80982,520.64581 600.90025,520.1047 602.07777,519.78007 C 603.2628,519.49247 604.42981,519.12782 605.65218,519.01638 C 606.97807,518.90212 608.30075,518.71214 609.63693,518.78247 C 611.13946,518.93441 612.66928,518.92749 614.10885,519.46561 C 615.63151,520.13274 617.16986,520.73791 618.45545,521.84411 C 620.1211,523.17618 621.81274,524.48042 623.30209,526.01709 C 625.22144,527.97091 627.13161,529.94256 628.74018,532.16924 C 630.68638,535.06896 632.52342,538.0184 633.47912,541.42314 C 634.52615,545.74077 635.39697,550.07091 634.78176,554.55005 C 634.0199,560.21748 632.50827,565.72755 629.91164,570.85071 C 626.72808,577.02673 622.96454,582.86722 618.19501,587.95802 C 612.90049,593.62504 607.2322,598.92246 601.0412,603.60963 C 593.91424,609.04028 586.56438,614.16502 579.16279,619.21332 C 570.43561,625.19567 561.66874,631.12448 553.11411,637.35334 C 544.15125,643.99933 535.32972,650.85512 527.1185,658.42449 C 521.09688,664.17701 515.07331,670.01381 510.18106,676.78845 C 508.1514,679.74676 506.09847,682.78258 505.23059,686.31211 C 504.99709,687.75051 504.64215,689.18137 504.74739,690.65392 L 487.30783,699.53981 z " />
    <path
       style="opacity:1;color:#000000;fill:#dd1717;fill-opacity:1;fill-rule:evenodd;stroke:none;stroke-width:1px;stroke-linecap:butt;stroke-linejoin:miter;marker:none;marker-start:none;marker-mid:none;marker-end:none;stroke-miterlimit:4;stroke-dasharray:none;stroke-dashoffset:0;stroke-opacity:1;visibility:visible;display:inline;overflow:visible;enable-background:accumulate"
       id="path30454"
       d="M 660.46001,771.93745 C 660.69466,770.82242 661.48035,769.98875 662.08129,769.06609 C 663.22079,767.60908 664.51351,766.28387 665.7713,764.93094 C 667.38383,763.26377 668.94336,761.54793 670.4912,759.82109 C 672.32487,757.84426 673.93429,755.68666 675.53383,753.5218 C 677.42728,751.01251 678.98633,748.29088 680.5162,745.55414 C 682.11677,742.56345 683.30095,739.38915 684.45803,736.21051 C 685.58698,733.11251 686.08303,729.87597 686.51739,726.62803 C 686.88641,723.47709 686.61815,720.33656 686.29363,717.20142 C 685.94204,714.08679 684.69622,711.30847 683.31304,708.55001 C 681.71865,705.71812 679.29293,703.68504 676.81833,701.67327 C 674.12939,699.67426 671.07177,698.34349 668.01516,697.03315 C 665.18255,695.87356 662.20833,695.18954 659.22883,694.54468 C 657.9305,694.26691 656.61103,694.13169 655.29901,693.9474 L 671.09578,682.80277 C 672.42521,683.03467 673.76204,683.2292 675.07607,683.54368 C 678.11224,684.29916 681.14216,685.09377 684.01703,686.3582 C 687.17152,687.80643 690.32761,689.27772 693.08648,691.42503 C 695.71615,693.65024 698.29001,695.90869 700.008,698.96158 C 701.50698,701.91784 702.88189,704.89482 703.32318,708.22928 C 703.72403,711.49599 704.06319,714.76762 703.75092,718.06523 C 703.3776,721.43847 702.95898,724.80623 701.85605,728.03946 C 700.75034,731.30551 699.59714,734.55697 698.05361,737.65009 C 696.59115,740.46661 695.09739,743.26882 693.23255,745.84859 C 691.66569,748.05402 690.13109,750.28959 688.31661,752.30386 C 686.79866,754.04806 685.27625,755.789 683.67104,757.45429 C 682.4385,758.76545 681.18579,760.06001 680.00309,761.41647 C 679.40318,762.15749 678.75954,762.86234 678.20611,763.64118 L 660.46001,771.93745 z " />
    <path
       style="opacity:1;color:#000000;fill:#dd1717;fill-opacity:1;fill-rule:evenodd;stroke:none;stroke-width:1px;stroke-linecap:butt;stroke-linejoin:miter;marker:none;marker-start:none;marker-mid:none;marker-end:none;stroke-miterlimit:4;stroke-dasharray:none;stroke-dashoffset:0;stroke-opacity:1;visibility:visible;display:inline;overflow:visible;enable-background:accumulate"
       id="path30456"
       d="M 311.82117,658.8892 C 313.17982,658.13176 314.56965,657.42815 315.95154,656.71195 C 320.26197,654.60957 324.84189,653.12414 329.38535,651.61837 C 336.48682,649.24668 343.77224,647.5149 351.10006,646.01551 C 359.85229,644.53434 368.7167,643.95094 377.57372,643.56159 C 386.15407,643.22238 394.73468,643.56913 403.28494,644.28959 C 410.57343,644.94104 417.80057,646.09962 424.99491,647.41238 C 430.8557,648.50696 436.68936,649.73751 442.5048,651.05012 C 447.25473,652.09956 451.93699,653.3969 456.54559,654.94878 C 460.76957,656.37315 464.79923,658.28106 468.82078,660.18516 C 472.47599,661.90906 476.00203,663.87975 479.51425,665.87302 C 482.73546,667.74033 485.86156,669.76357 488.99505,671.77248 C 491.75379,673.51176 494.43652,675.36603 497.10745,677.23567 C 499.34404,678.84611 501.56519,680.47761 503.77934,682.11867 C 505.67884,683.5179 507.49719,685.01992 509.32465,686.5102 C 510.14859,687.18993 510.94564,687.90116 511.75611,688.59661 L 495.29231,698.84559 C 494.4937,698.16166 493.70702,697.46365 492.89647,696.79372 C 491.09924,695.32442 489.31432,693.83898 487.4449,692.46066 C 485.25431,690.81943 483.06099,689.18173 480.84082,687.58057 C 478.20306,685.72581 475.55707,683.8818 472.83757,682.14744 C 469.73748,680.15583 466.64194,678.15407 463.44498,676.31925 C 459.97107,674.3585 456.48423,672.41913 452.87426,670.71546 C 448.91012,668.86162 444.9346,667.01513 440.76424,665.65942 C 436.20985,664.1709 431.58667,662.91891 426.91495,661.85182 C 421.16095,660.52925 415.38999,659.28032 409.58783,658.18537 C 402.48073,656.87886 395.3391,655.73274 388.13531,655.10761 C 379.66043,654.42803 371.15635,654.11727 362.65629,654.50635 C 353.81464,654.94297 344.95454,655.56805 336.25321,657.28055 C 328.92029,658.86913 321.63337,660.69112 314.54195,663.16563 C 309.88145,664.79528 305.206,666.45555 300.86207,668.83225 C 299.42939,669.60408 297.99862,670.37911 296.58529,671.18541 L 311.82117,658.8892 z " />
    <path
       style="opacity:1;color:#000000;fill:#dd1717;fill-opacity:1;fill-rule:evenodd;stroke:none;stroke-width:1px;stroke-linecap:butt;stroke-linejoin:miter;marker:none;marker-start:none;marker-mid:none;marker-end:none;stroke-miterlimit:4;stroke-dasharray:none;stroke-dashoffset:0;stroke-opacity:1;visibility:visible;display:inline;overflow:visible;enable-background:accumulate"
       id="path30458"
       d="M 296.1267,723.77623 C 294.91445,722.11586 293.36329,720.74518 291.90014,719.3136 C 288.93177,716.64886 286.41934,713.57989 283.96195,710.45802 C 281.31499,707.02101 279.57938,703.09098 277.91409,699.12673 C 276.21487,695.06454 275.72371,690.77863 275.37858,686.44496 C 275.15738,682.23592 276.15338,678.21871 277.24944,674.20689 C 278.48672,670.24434 280.62863,666.71397 282.78478,663.20733 C 285.05838,659.6131 288.08596,656.66939 291.13763,653.75705 C 294.14901,651.05824 297.43647,648.70482 300.73199,646.37384 C 308.17259,641.47525 315.78858,636.86909 324.06234,633.62559 L 308.99896,645.4537 C 295.84212,651.42633 327.48925,633.25235 318.59045,639.3906 C 315.23552,641.63114 311.91953,643.93378 308.83822,646.54887 C 305.75118,649.30739 302.66986,652.08401 300.32042,655.53475 C 298.11525,658.8801 295.92161,662.25039 294.56871,666.05581 C 293.38031,669.85528 292.29038,673.65917 292.39089,677.69586 C 292.61441,681.84072 292.99262,685.93017 294.60336,689.82103 C 296.19144,693.6269 297.84731,697.39938 300.41315,700.67832 C 302.83539,703.70467 305.31524,706.67571 308.25019,709.23389 C 309.85478,710.70187 311.52434,712.11528 312.97954,713.73491 L 296.1267,723.77623 z " />
  </g>
</svg>
