<?xml version="1.0" encoding="UTF-8" standalone="no"?>
<!-- Created with Inkscape (http://www.inkscape.org/) -->
<svg
   xmlns:dc="http://purl.org/dc/elements/1.1/"
   xmlns:cc="http://web.resource.org/cc/"
   xmlns:rdf="http://www.w3.org/1999/02/22-rdf-syntax-ns#"
   xmlns:svg="http://www.w3.org/2000/svg"
   xmlns="http://www.w3.org/2000/svg"
   xmlns:sodipodi="http://inkscape.sourceforge.net/DTD/sodipodi-0.dtd"
   xmlns:inkscape="http://www.inkscape.org/namespaces/inkscape"
   width="1000"
   height="1000"
   id="svg2"
   sodipodi:version="0.32"
   inkscape:version="0.43"
   version="1.0"
   sodipodi:docbase="/home/kkowal/tale/art/monster"
   sodipodi:docname="rocket-penguin.svg">
  <defs
     id="defs4" />
  <sodipodi:namedview
     id="base"
     pagecolor="#ffffff"
     bordercolor="#666666"
     borderopacity="1.0"
     inkscape:pageopacity="0.0"
     inkscape:pageshadow="2"
     inkscape:zoom="0.7"
     inkscape:cx="700.01562"
     inkscape:cy="524.18599"
     inkscape:document-units="px"
     inkscape:current-layer="layer1"
     inkscape:window-width="1600"
     inkscape:window-height="1125"
     inkscape:window-x="0"
     inkscape:window-y="25" />
  <metadata
     id="metadata7">
    <rdf:RDF>
      <cc:Work
         rdf:about="">
        <dc:format>image/svg+xml</dc:format>
        <dc:type
           rdf:resource="http://purl.org/dc/dcmitype/StillImage" />
      </cc:Work>
    </rdf:RDF>
  </metadata>
  <g
     inkscape:label="rocket"
     inkscape:groupmode="layer"
     id="layer1"
     style="display:inline">
    <path
       style="opacity:1;color:#000000;fill:#adcbca;fill-opacity:1;fill-rule:nonzero;stroke:none;stroke-width:80;stroke-linecap:butt;stroke-linejoin:miter;marker:none;marker-start:none;marker-mid:none;marker-end:none;stroke-miterlimit:4;stroke-dasharray:none;stroke-dashoffset:0;stroke-opacity:0.25465836;visibility:visible;display:inline;overflow:visible"
       d="M 479.52983,422.7435 C 409.65372,454.32293 345.43774,497.25833 277.50291,532.77763 C 259.28036,547.20281 260.85707,573.1132 259.63,594.31446 C 257.12899,636.3483 254.08053,678.71541 243.31421,719.51107 C 249.83879,739.48701 274.55535,733.78395 288.69777,726.97652 C 337.11823,712.67193 387.83875,709.5966 437.9219,708.03752 C 452.64428,706.14316 470.60707,714.00502 482.86103,702.99535 C 496.17892,687.99159 490.68863,666.02186 491.09628,647.69391 C 489.90015,587.09233 493.05934,526.4739 491.77443,465.88881 C 490.42065,450.8984 486.94837,435.84185 479.52983,422.7435 z "
       id="path5038" />
    <path
       style="opacity:1;color:#000000;fill:#000000;fill-opacity:1;fill-rule:nonzero;stroke:none;stroke-width:80;stroke-linecap:butt;stroke-linejoin:miter;marker:none;marker-start:none;marker-mid:none;marker-end:none;stroke-miterlimit:4;stroke-dasharray:none;stroke-dashoffset:0;stroke-opacity:0.25465836;visibility:visible;display:inline;overflow:visible"
       id="path4116"
       d="M 492.52375,425.8029 C 492.61126,428.47495 493.40291,438.06743 493.72387,442.52943 C 495.97649,472.19979 496.91601,501.95507 497.50117,531.70356 C 498.17708,569.19908 498.56865,606.69949 498.87966,644.19992 C 498.83191,663.91662 499.58248,683.66793 498.55275,703.36908 C 498.66963,714.99854 490.15628,722.8463 478.77813,715.66249 C 465.04038,712.3785 450.6837,712.39486 436.64627,712.49051 C 403.57486,712.96665 370.22896,717.67024 337.47448,723.42534 C 313.25923,727.6491 289.2616,733.03193 265.22688,738.19993 C 240.81846,745.1065 234.88797,731.25234 238.41219,710.08366 C 243.31002,685.43487 247.48912,660.66428 250.09265,635.64029 C 252.29896,613.25283 253.66341,590.77861 254.23057,568.28412 C 254.3752,556.14625 253.05212,543.64778 262.3115,534.66608 C 281.52193,521.30283 303.17762,511.84871 323.92711,501.2673 C 350.20289,487.83896 376.33887,474.11838 402.22697,459.91118 C 417.90139,451.31024 433.44978,442.46587 448.82937,433.31658 C 455.97056,429.0905 462.99364,424.6594 470.00341,420.2075 C 473.37457,418.05294 476.78892,415.97216 480.20759,413.8994 L 493.71756,424.9336 C 490.25181,426.91779 486.78612,428.90264 483.32934,430.90369 C 475.99033,435.20414 468.6628,439.52832 461.2114,443.62036 C 445.24665,452.37938 429.1235,460.8249 412.96172,469.18985 C 386.63427,482.8312 360.26146,496.37945 333.95877,510.07149 C 314.36681,520.38962 294.38359,530.3483 276.21401,543.19871 C 268.88345,549.53877 270.43233,559.39198 269.66287,568.57172 C 268.13501,591.23358 266.04775,613.8516 263.71925,636.43972 C 261.07999,661.51147 257.33507,686.40509 253.60073,711.32085 C 251.84919,727.64996 258.74781,724.75452 250.22489,725.86488 C 248.42118,726.09986 258.15657,725.88768 255.67789,725.74889 C 280.48138,722.65104 304.88277,716.44826 329.67579,713.21639 C 367.3725,707.25115 405.24155,701.79235 443.39933,700.40924 C 459.082,699.83147 476.12588,698.13958 491.21545,703.34503 C 488.05246,703.45415 484.8251,703.00877 481.72651,703.67237 C 479.43144,704.1639 481.28372,710.051 482.23337,702.33291 C 485.18151,683.17136 484.73881,663.63986 485.58392,644.31212 C 486.43507,606.9137 486.59449,569.48877 485.40556,532.09575 C 484.36405,502.63939 482.73734,473.12055 478.26953,443.97658 C 477.34066,438.23885 476.32726,432.48866 474.82378,426.89718 L 492.52375,425.8029 z " />
    <path
       style="opacity:1;color:#000000;fill:#adcbca;fill-opacity:1;fill-rule:nonzero;stroke:none;stroke-width:80;stroke-linecap:butt;stroke-linejoin:miter;marker:none;marker-start:none;marker-mid:none;marker-end:none;stroke-miterlimit:4;stroke-dasharray:none;stroke-dashoffset:0;stroke-opacity:0.25465836;visibility:visible;display:inline;overflow:visible"
       d="M 442.9637,277.25818 C 472.17938,290.53075 504.62859,279.99758 535.11104,285.39747 C 560.3449,285.65732 586.44954,283.99749 609.68742,272.91524 C 632.54343,276.86164 611.48353,305.93844 617.6835,321.30563 C 616.89402,399.85845 621.6307,478.35693 619.33954,556.9059 C 618.41818,599.31935 618.23689,641.77663 618.51573,684.17479 C 615.47495,706.22629 592.42028,715.30247 573.39084,716.54347 C 534.93155,721.36475 496.34328,713.69554 459.59977,702.26539 C 437.44181,690.26323 444.77343,661.40287 445.8158,640.73067 C 447.47127,604.43043 446.66718,568.04764 443.69233,531.87071 C 443.63887,485.9246 449.88058,439.71221 442.80977,393.99777 C 440.71828,355.11388 443.56267,315.90757 437.98472,277.27675 C 438.794,274.89567 442.11755,275.12619 442.9637,277.25818 z "
       id="path5030" />
    <g
       id="g12362"
       transform="matrix(1.01968,0,0,1.051264,-6.130071,-143.746)">
      <path
         id="path12322"
         d="M 543.21429,411.07144 C 564.95633,409.95259 586.99049,407.15816 607.23401,398.73 C 621.7967,415.68825 606.80432,439.01198 591.62265,449.70159 C 551.84538,482.81946 501.1287,498.12139 452.33626,512.36035 C 433.21624,516.03055 441.33972,490.75352 438.65051,479.33885 C 436.68941,462.06476 450.10893,449.04794 466.65342,447.50547 C 493.40673,439.03521 523.28271,434.05225 543.99805,413.46875 L 545,411.42856"
         style="opacity:1;color:#000000;fill:#cf7d7d;fill-opacity:1;fill-rule:nonzero;stroke:none;stroke-width:80;stroke-linecap:butt;stroke-linejoin:miter;marker:none;marker-start:none;marker-mid:none;marker-end:none;stroke-miterlimit:4;stroke-dasharray:none;stroke-dashoffset:0;stroke-opacity:0.25465836;visibility:visible;display:inline;overflow:visible" />
      <path
         id="path12324"
         d="M 615,482.14285 C 610.0526,506.02297 620.42683,533.92452 603.46028,554.52948 C 574.7694,584.97823 532.40677,594.26932 494.07286,606.5492 C 470.82803,616.8741 438.02353,636.12657 441.16963,619.25127 C 436.67896,602.38744 436.29832,581.35564 442.26681,564.99447 C 458.16147,543.10703 481.74803,543.47451 500.69522,533.79604 C 529.75896,520.25783 558.80636,512.12894 588.32845,499.68954 C 597.47622,494.62287 609.51337,491.79983 615,482.14285 z "
         style="opacity:1;color:#000000;fill:#cf7d7d;fill-opacity:1;fill-rule:nonzero;stroke:none;stroke-width:80;stroke-linecap:butt;stroke-linejoin:miter;marker:none;marker-start:none;marker-mid:none;marker-end:none;stroke-miterlimit:4;stroke-dasharray:none;stroke-dashoffset:0;stroke-opacity:0.25465836;visibility:visible;display:inline;overflow:visible"
         sodipodi:nodetypes="cccccccc" />
      <path
         id="path12326"
         d="M 442.5,692.14288 C 449.34552,669.94664 474.59942,664.77227 493.21645,656.32771 C 524.39231,642.66301 558.86389,638.32007 589.53427,623.34033 C 599.19357,604.66262 623.36724,624.0553 611.82166,639.34704 C 612.42008,660.20776 609.32924,686.36116 588.01183,696.35546 C 545.56568,719.91313 493.93047,719.88627 452.72704,746.15052 C 430.98987,753.68389 437.19811,720.94701 441.1706,709.10264 C 442.38696,703.55474 443.24552,697.82159 442.5,692.14288 z "
         style="opacity:1;color:#000000;fill:#cf7d7d;fill-opacity:1;fill-rule:nonzero;stroke:none;stroke-width:80;stroke-linecap:butt;stroke-linejoin:miter;marker:none;marker-start:none;marker-mid:none;marker-end:none;stroke-miterlimit:4;stroke-dasharray:none;stroke-dashoffset:0;stroke-opacity:0.25465836;visibility:visible;display:inline;overflow:visible" />
      <path
         id="path12328"
         d="M 485.71429,808.21429 C 486.87987,785.77354 514.13716,784.64027 529.43435,775.68062 C 552.87638,764.66199 576.12223,753.16014 598.52462,740.1346 C 613.42029,755.662 592.8152,774.92082 596.76055,792.70365 C 592.75523,815.12877 566.81991,820.68826 547.48463,819.36787 C 527.86937,819.7641 506.53409,820.68447 488.8104,811.21658 C 487.63019,810.3888 486.76209,809.19447 485.71429,808.21429 z "
         style="opacity:1;color:#000000;fill:#cf7d7d;fill-opacity:1;fill-rule:nonzero;stroke:none;stroke-width:80;stroke-linecap:butt;stroke-linejoin:miter;marker:none;marker-start:none;marker-mid:none;marker-end:none;stroke-miterlimit:4;stroke-dasharray:none;stroke-dashoffset:0;stroke-opacity:0.25465836;visibility:visible;display:inline;overflow:visible" />
    </g>
    <path
       style="opacity:1;color:#000000;fill:#adcbca;fill-opacity:1;fill-rule:nonzero;stroke:none;stroke-width:80;stroke-linecap:butt;stroke-linejoin:miter;marker:none;marker-start:none;marker-mid:none;marker-end:none;stroke-miterlimit:4;stroke-dasharray:none;stroke-dashoffset:0;stroke-opacity:0.25465836;visibility:visible;display:inline;overflow:visible"
       d="M 441.93366,277.78915 C 469.84772,234.82002 484.12725,184.44943 509.91576,140.26835 C 514.80999,118.46762 521.00792,96.316886 533.8521,77.930646 C 547.87115,74.668956 547.38724,94.088766 549.56829,103.44841 C 559.36221,140.23703 579.6404,172.63142 596.42844,206.26101 C 605.67334,224.29141 614.4256,242.65732 621.15918,261.86009 C 605.30628,282.01431 578.22089,285.64902 554.5954,285.42099 C 521.82021,285.41192 488.99836,284.85571 456.28931,282.89045 C 451.27191,282.05705 446.31178,280.49608 441.93366,277.78915 z "
       id="path4148" />
    <path
       style="opacity:1;color:#000000;fill:#000000;fill-opacity:1;fill-rule:nonzero;stroke:none;stroke-width:80;stroke-linecap:butt;stroke-linejoin:miter;marker:none;marker-start:none;marker-mid:none;marker-end:none;stroke-miterlimit:4;stroke-dasharray:none;stroke-dashoffset:0;stroke-opacity:0.25465836;visibility:visible;display:inline;overflow:visible"
       id="path4078"
       d="M 450.67804,266.30172 C 449.49267,275.36571 448.82346,284.51203 448.22933,293.64269 C 445.38166,343.86207 446.04763,394.20824 446.56984,444.48444 C 447.40266,503.31059 448.15381,562.13675 448.56897,620.9677 C 448.7455,644.26295 448.8452,667.55872 448.93429,690.85448 L 435.09953,690.82781 C 436.22292,667.57847 437.14969,644.31855 437.73137,621.04757 C 439.17736,562.27223 439.20708,503.47024 438.02963,444.68831 C 437.03046,394.34238 435.5938,344.00592 434.21005,293.67006 C 433.95883,285.72826 433.7534,273.9722 432.97807,267.39598 L 450.67804,266.30172 z " />
    <path
       style="opacity:1;color:#000000;fill:#000000;fill-opacity:1;fill-rule:nonzero;stroke:none;stroke-width:80;stroke-linecap:butt;stroke-linejoin:miter;marker:none;marker-start:none;marker-mid:none;marker-end:none;stroke-miterlimit:4;stroke-dasharray:none;stroke-dashoffset:0;stroke-opacity:0.25465836;visibility:visible;display:inline;overflow:visible"
       id="path4080"
       d="M 631.31802,270.16453 C 630.43692,277.491 629.84298,284.89305 629.26674,292.2642 C 626.13185,331.38711 625.13702,370.64206 624.354,409.87593 C 623.08012,463.72659 622.73223,517.59259 622.55654,571.45687 C 622.47213,611.24017 622.74451,651.02931 623.82122,690.79877 C 623.8768,692.64647 623.93239,694.49417 623.98796,696.34187 L 609.978,696.59192 C 610.00987,694.73611 610.04175,692.8803 610.07363,691.02448 C 610.80331,651.19634 611.73481,611.37152 612.11042,571.53716 C 612.82945,517.66622 613.83742,463.79739 613.97114,409.9199 C 614.23197,370.65666 614.48191,331.39102 614.4178,292.12709 C 614.34336,286.27987 614.23804,275.14537 613.61805,271.25879 L 631.31802,270.16453 z " />
    <path
       style="opacity:1;color:#000000;fill:#000000;fill-opacity:1;fill-rule:nonzero;stroke:none;stroke-width:80;stroke-linecap:butt;stroke-linejoin:miter;marker:none;marker-start:none;marker-mid:none;marker-end:none;stroke-miterlimit:4;stroke-dasharray:none;stroke-dashoffset:0;stroke-opacity:0.25465836;visibility:visible;display:inline;overflow:visible"
       id="path4082"
       d="M 447.32192,687.39998 C 447.02528,687.15344 447.38923,686.54677 447.40461,686.35171 C 450.73287,688.95199 454.5701,690.68254 458.38548,692.37715 C 473.35275,698.39557 489.24678,701.42966 505.09227,703.77307 C 498.43453,706.00518 572.98194,706.90681 558.50191,707.23945 C 574.41634,706.36765 590.06856,702.70724 605.00359,697.05141 C 609.5909,695.36379 613.96594,693.18237 618.24799,690.81013 L 631.14613,701.40038 C 626.35102,704.14636 621.43631,706.65333 616.24639,708.52813 C 600.35686,714.47599 583.77072,718.52647 566.89913,719.92298 C 543.33564,721.01963 519.86645,719.58579 496.53242,715.8949 C 479.69481,713.409 462.72947,710.45746 446.77274,704.18589 C 441.15069,701.79938 435.27905,699.05479 431.53202,693.9202 C 430.65609,692.17508 429.73208,690.51186 429.62196,688.49426 L 447.32192,687.39998 z " />
    <path
       style="opacity:1;color:#000000;fill:#adcbca;fill-opacity:1;fill-rule:nonzero;stroke:none;stroke-width:80;stroke-linecap:butt;stroke-linejoin:miter;marker:none;marker-start:none;marker-mid:none;marker-end:none;stroke-miterlimit:4;stroke-dasharray:none;stroke-dashoffset:0;stroke-opacity:0.25465836;visibility:visible;display:inline;overflow:visible"
       d="M 587.16817,430.17704 C 615.39387,434.57648 630.99007,462.05869 653.14853,477.39713 C 694.65475,517.86639 746.82389,545.15018 801.24716,561.8444 C 818.16463,571.11392 819.86454,594.08994 815.53476,611.24829 C 808.82259,655.0459 814.47482,699.80907 807.17359,743.49883 C 803.25615,764.33752 777.34682,763.92292 763.48433,754.25014 C 737.85115,735.33195 704.06141,738.66098 676.58181,724.05264 C 655.67604,717.75961 634.15298,713.93439 613.28945,707.47939 C 598.21289,707.86252 577.85498,703.33531 574.06909,685.71342 C 572.7405,659.34725 589.93932,634.31518 582.49447,607.81714 C 577.00282,552.43645 595.57348,496.86696 584.0852,441.78519 C 584.09914,437.73687 584.94082,433.57334 587.16817,430.17704 z "
       id="path5064" />
    <g
       id="g12378"
       transform="matrix(1.01968,0,0,1.051264,-6.130071,-143.746)">
      <path
         style="opacity:1;color:#000000;fill:#cf7d7d;fill-opacity:1;fill-rule:nonzero;stroke:none;stroke-width:80;stroke-linecap:butt;stroke-linejoin:miter;marker:none;marker-start:none;marker-mid:none;marker-end:none;stroke-miterlimit:4;stroke-dasharray:none;stroke-dashoffset:0;stroke-opacity:0.25465836;visibility:visible;display:inline;overflow:visible"
         d="M 512.5,254.64285 C 519.81185,241.4604 523.14613,226.22038 532.36575,214.07839 C 543.60888,219.40031 542.13972,234.08548 549.63167,242.49948 C 553.4039,257.48 542.15003,272.3126 528.67647,277.74427 C 522.6522,282.74648 513.04979,286.34543 505.88818,281.74617 C 499.35103,274.30568 507.11754,265.12934 510.79934,258.29371 C 511.4347,257.11049 512.01925,255.8978 512.5,254.64285 z "
         id="path12370" />
      <path
         style="opacity:1;color:#000000;fill:#cf7d7d;fill-opacity:1;fill-rule:nonzero;stroke:none;stroke-width:80;stroke-linecap:butt;stroke-linejoin:miter;marker:none;marker-start:none;marker-mid:none;marker-end:none;stroke-miterlimit:4;stroke-dasharray:none;stroke-dashoffset:0;stroke-opacity:0.25465836;visibility:visible;display:inline;overflow:visible"
         d="M 557.32141,268.21429 C 552.63497,289.47748 535.11889,305.1167 517.2081,315.91066 C 506.50879,321.44129 494.67456,324.64514 482.69748,325.71906 C 472.56135,333.94001 468.31656,346.70844 462.07169,357.70798 C 474.71265,359.316 485.52441,349.98124 498.05765,350.30323 C 518.99329,345.47616 541.29975,336.38054 552.5337,316.8841 C 559.07767,304.04501 565.18594,289.60354 563.00603,274.92458 C 562.07937,272.08249 560.19429,269.3418 557.32141,268.21429 z "
         id="path12372" />
      <path
         style="opacity:1;color:#000000;fill:#cf7d7d;fill-opacity:1;fill-rule:nonzero;stroke:none;stroke-width:80;stroke-linecap:butt;stroke-linejoin:miter;marker:none;marker-start:none;marker-mid:none;marker-end:none;stroke-miterlimit:4;stroke-dasharray:none;stroke-dashoffset:0;stroke-opacity:0.25465836;visibility:visible;display:inline;overflow:visible"
         d="M 573.39288,308.75 C 576.56826,330.80349 563.67534,351.3474 548.72013,366.34974 C 534.76802,379.14336 515.19037,381.9445 499.21932,391.33975 C 491.99447,396.13732 483.37333,398.27271 476.72965,401.89188 C 473.13321,411.15731 483.00661,413.98048 489.79182,412.10073 C 509.19173,413.92333 529.02496,412.66486 547.94774,408.10965 C 566.43114,401.02896 579.06439,382.88679 581.8336,363.62054 C 587.09206,347.72286 589.52287,328.26073 578.16367,314.3129 C 576.73128,312.33067 575.13546,310.46611 573.39288,308.75 z "
         id="path12374" />
      <path
         style="opacity:1;color:#000000;fill:#cf7d7d;fill-opacity:1;fill-rule:nonzero;stroke:none;stroke-width:80;stroke-linecap:butt;stroke-linejoin:miter;marker:none;marker-start:none;marker-mid:none;marker-end:none;stroke-miterlimit:4;stroke-dasharray:none;stroke-dashoffset:0;stroke-opacity:0.25465836;visibility:visible;display:inline;overflow:visible"
         d="M 602.5,379.46429 C 589.38351,381.66878 602.5729,406.27476 609.41748,392.70371 C 610.79077,387.28394 606.15242,382.72521 602.5,379.46429 z "
         id="path12376" />
    </g>
    <path
       style="opacity:1;color:#000000;fill:#000000;fill-opacity:1;fill-rule:nonzero;stroke:none;stroke-width:80;stroke-linecap:butt;stroke-linejoin:miter;marker:none;marker-start:none;marker-mid:none;marker-end:none;stroke-miterlimit:4;stroke-dasharray:none;stroke-dashoffset:0;stroke-opacity:0.25465836;visibility:visible;display:inline;overflow:visible"
       id="path4100"
       d="M 628.36665,276.35281 C 625.01641,280.60552 618.87635,281.89048 613.96673,283.46029 C 593.13057,289.71361 571.41967,291.91226 549.83833,293.28678 C 521.00859,294.83614 491.99611,294.33744 463.31806,290.74063 C 449.71029,288.96984 436.16447,286.07304 423.83803,279.73233 L 436.07397,268.498 C 447.34941,273.90827 459.56778,276.63832 471.83594,278.45624 C 494.89592,281.74359 521.93818,282.94398 542.10127,281.73228 C 562.58004,280.34074 583.22607,278.08573 602.84461,271.5599 C 605.17844,270.73871 612.69533,266.31125 612.40668,268.39198 L 628.36665,276.35281 z " />
    <path
       style="opacity:1;color:#000000;fill:#000000;fill-opacity:1;fill-rule:nonzero;stroke:none;stroke-width:80;stroke-linecap:butt;stroke-linejoin:miter;marker:none;marker-start:none;marker-mid:none;marker-end:none;stroke-miterlimit:4;stroke-dasharray:none;stroke-dashoffset:0;stroke-opacity:0.25465836;visibility:visible;display:inline;overflow:visible"
       id="path4104"
       d="M 613.15298,275.04327 C 612.6871,271.9623 609.3689,262.68581 607.71806,258.14056 C 597.85139,231.9159 586.47676,206.3298 575.34486,180.65932 C 564.09107,154.70481 552.99921,128.67223 542.44859,102.40435 C 537.91209,91.237156 533.73562,79.922646 529.88378,68.486896 L 545.93859,64.912516 C 549.15206,76.255476 552.70024,87.493576 556.69468,98.572136 C 566.13704,125.04533 576.50587,151.16233 587.73554,176.88347 C 599.02697,202.68683 610.851,228.23774 622.4011,253.91824 C 625.37909,260.48159 628.82392,267.01726 630.85295,273.94902 L 613.15298,275.04327 z " />
    <path
       style="opacity:1;color:#000000;fill:#000000;fill-opacity:1;fill-rule:nonzero;stroke:none;stroke-width:80;stroke-linecap:butt;stroke-linejoin:miter;marker:none;marker-start:none;marker-mid:none;marker-end:none;stroke-miterlimit:4;stroke-dasharray:none;stroke-dashoffset:0;stroke-opacity:0.25465836;visibility:visible;display:inline;overflow:visible"
       id="path4108"
       d="M 435.25785,267.22452 C 435.70787,269.79319 443.53596,257.35343 445.49616,254.38105 C 460.94806,229.94669 473.32496,203.60875 485.31937,177.24205 C 498.24908,148.67169 509.98573,119.54375 521.09304,90.174966 C 526.09768,76.910336 533.70638,58.778971 538.57134,45.459531 L 545.89322,65.249214 C 540.39921,78.436164 540.45556,80.509066 534.91025,93.673206 C 522.66692,122.79164 510.28233,151.84897 497.45609,180.7003 C 485.56747,207.33954 473.52043,233.93491 459.95348,259.72032 C 456.57215,266.06326 453.04938,272.33151 449.26377,278.42557 L 435.25785,267.22452 z "
       sodipodi:nodetypes="ccccccccccc" />
    <path
       style="opacity:1;color:#000000;fill:#000000;fill-opacity:1;fill-rule:nonzero;stroke:none;stroke-width:80;stroke-linecap:butt;stroke-linejoin:miter;marker:none;marker-start:none;marker-mid:none;marker-end:none;stroke-miterlimit:4;stroke-dasharray:none;stroke-dashoffset:0;stroke-opacity:0.25465836;visibility:visible;display:inline;overflow:visible"
       id="path4114"
       d="M 606.47768,426.35783 C 603.80138,418.92134 614.07807,434.02633 615.4108,435.54428 C 629.94094,451.79566 646.41082,466.02474 663.64989,479.10532 C 687.60599,497.32469 713.91345,511.80138 741.01084,524.35008 C 762.24786,535.24791 785.58665,541.02975 807.08917,551.19034 C 826.55654,560.60969 826.14038,582.75319 825.38798,601.95731 C 823.2213,633.54053 820.38033,665.06289 818.7134,696.68396 C 815.01726,717.28834 821.99333,741.91101 812.67147,761.32178 C 799.36947,777.59808 769.69736,761.18809 753.59769,756.14892 C 722.26459,746.40727 690.61902,737.76864 658.85402,729.66269 C 638.99766,724.74138 619.15983,719.64569 599.08745,715.72617 C 591.16581,713.95325 583.11726,713.34802 575.04709,713.00263 C 562.95672,710.92151 565.9957,695.90367 566.9625,686.85887 C 570.05609,661.09019 572.70993,635.27187 574.76229,609.39248 C 577.52013,575.73443 579.01236,541.9836 579.77019,508.21925 C 580.21455,487.8382 580.22996,467.44447 579.57306,447.06834 C 579.39096,439.6799 578.80083,432.31559 578.1529,424.95848 L 595.02704,423.96732 C 595.34785,431.56183 595.5487,439.16195 595.37748,446.7644 C 595.06688,467.3106 594.28527,487.84626 593.34134,508.37085 C 591.69209,542.21078 589.65122,576.02931 587.72017,609.85292 C 586.09944,635.71606 583.9892,661.54379 582.48689,687.41363 C 582.33846,691.72567 580.55009,702.95598 584.3525,698.39042 C 592.68144,699.16079 600.87927,700.94143 608.98961,703.0043 C 628.58327,707.99056 647.98014,713.75963 667.46121,719.18443 C 699.09551,728.14089 730.75936,736.98652 762.48153,745.60705 C 771.00315,747.89801 779.51573,750.26814 788.10267,752.28973 C 792.16594,753.24634 804.63501,753.89847 800.4746,754.15552 C 798.22539,754.29451 795.95573,754.12611 793.71936,754.40986 C 793.52457,754.43457 797.65692,755.81297 797.3727,755.37777 C 808.92034,740.27572 801.03447,713.72894 805.57415,696.30647 C 807.75671,664.87456 810.23977,633.43908 811.24735,601.9406 C 811.28159,586.43478 811.66755,569.10387 795.87714,562.00429 C 774.72841,551.78617 752.32241,544.43386 731.37621,533.70945 C 703.88021,520.56153 677.09949,505.7263 652.49929,487.37213 C 634.60888,473.95205 617.49006,459.44931 601.65967,443.49466 C 597.04221,438.82505 590.46943,434.08764 588.78254,427.4518 L 606.47768,426.35783 z " />
  </g>
  <g
     inkscape:groupmode="layer"
     id="layer2"
     inkscape:label="penguin"
     style="display:inline">
    <path
       style="opacity:1;color:#000000;fill:#303030;fill-opacity:1;fill-rule:nonzero;stroke:none;stroke-width:80;stroke-linecap:butt;stroke-linejoin:miter;marker:none;marker-start:none;marker-mid:none;marker-end:none;stroke-miterlimit:4;stroke-dasharray:none;stroke-dashoffset:0;stroke-opacity:0.25465836;visibility:visible;display:inline;overflow:visible"
       d="M 401.39704,541.67708 C 387.85266,569.93302 364.45287,590.97151 343.36844,613.08689 C 328.29631,637.00488 328.29797,669.98487 343.37135,693.90182 C 352.32315,703.18186 366.68372,701.18612 377.30101,696.38915 C 401.62327,688.32151 422.2331,668.43309 430.70527,643.46281 C 438.84212,627.41739 450.18009,611.56977 449.93606,592.65096 C 450.94024,574.67945 454.02571,555.056 445.02361,538.60555 C 436.44524,524.48016 413.74655,522.04028 403.91286,535.94534 C 402.73627,537.67065 401.85805,539.61939 401.39704,541.67708 z "
       id="path6032" />
    <path
       style="opacity:1;color:#000000;fill:#000000;fill-opacity:1;fill-rule:nonzero;stroke:none;stroke-width:80;stroke-linecap:butt;stroke-linejoin:miter;marker:none;marker-start:none;marker-mid:none;marker-end:none;stroke-miterlimit:4;stroke-dasharray:none;stroke-dashoffset:0;stroke-opacity:0.25465836;visibility:visible;display:inline;overflow:visible"
       id="path4138"
       d="M 395.34035,561.85521 C 394.80445,567.12772 390.24299,570.3423 386.81524,573.92272 C 376.18692,584.4659 366.47716,595.89487 358.12678,608.43489 C 348.49456,622.48405 342.22669,638.29277 340.77863,655.45999 C 340.21627,667.0699 340.99757,679.48133 347.52483,689.32018 C 350.95044,694.09177 366.97894,693.64554 352.94308,692.87855 C 350.21898,692.72969 358.40578,692.74821 361.11446,692.41475 C 370.5735,690.57474 379.30528,686.23853 387.58801,681.33066 L 400.24321,691.94005 C 391.0675,697.52569 381.46592,702.44357 371.14872,705.37247 C 357.33216,709.09904 340.61216,708.8751 332.2179,695.24268 C 325.38998,682.90687 324.55751,668.21001 325.46944,654.32326 C 327.29411,635.51524 333.73676,617.94815 344.23166,602.41721 C 352.63537,589.42894 362.18312,577.33496 372.40313,565.82093 C 373.82324,564.13088 379.91725,554.22952 377.6093,561.69189 L 395.34035,561.85521 z " />
    <path
       style="opacity:1;color:#000000;fill:#ff7000;fill-opacity:1;fill-rule:nonzero;stroke:none;stroke-width:80;stroke-linecap:butt;stroke-linejoin:miter;marker:none;marker-start:none;marker-mid:none;marker-end:none;stroke-miterlimit:4;stroke-dasharray:none;stroke-dashoffset:0;stroke-opacity:0.25465836;visibility:visible;display:inline;overflow:visible"
       d="M 393.59616,721.05948 C 385.61771,728.93122 379.66759,740.43004 381.67362,752.0866 C 388.60884,765.78503 407.0057,768.93471 419.62483,762.23072 C 436.73344,757.77263 453.05773,750.40009 468.19422,741.09251 C 477.47723,738.8705 487.09881,745.85241 489.83922,754.92354 C 507.25418,777.60653 545.04958,779.68798 563.56688,757.37341 C 573.34063,743.88067 567.7766,724.39821 556.67852,713.63531 C 542.79242,698.19319 518.22121,696.76817 501.45128,707.96109 C 491.26664,713.84195 484.20114,724.2936 473.71877,729.58454 C 462.64233,732.64524 452.24545,725.54618 443.99412,718.76466 C 431.99983,711.04349 415.93709,709.07901 403.40123,716.61862 C 400.11418,718.05491 396.88178,719.61982 393.59616,721.05948 z "
       id="path6070" />
    <path
       style="opacity:1;color:#000000;fill:#303030;fill-opacity:1;fill-rule:nonzero;stroke:none;stroke-width:80;stroke-linecap:butt;stroke-linejoin:miter;marker:none;marker-start:none;marker-mid:none;marker-end:none;stroke-miterlimit:4;stroke-dasharray:none;stroke-dashoffset:0;stroke-opacity:0.25465836;visibility:visible;display:inline;overflow:visible"
       d="M 358.04107,691.25766 C 364.35019,718.1825 392.99759,727.08197 414.79984,736.70709 C 460.55242,752.87231 509.57821,745.39166 556.789,743.59729 C 596.38382,738.55014 641.3849,729.24766 665.97435,693.52229 C 685.9851,659.91469 678.64288,615.19843 655.88706,585.07199 C 613.74153,502.98917 575.03822,416.93855 513.3868,347.98908 C 492.64072,329.0214 455.58687,327.50141 438.36752,352.26373 C 415.02022,381.15819 411.62688,420.23842 396.36717,453.36054 C 375.85527,510.59732 351.53908,567.72079 345.74386,629.05431 C 345.36011,650.52285 354.1136,670.5159 358.04107,691.25766 z "
       id="path5080" />
    <path
       style="opacity:1;color:#000000;fill:#e2e2e2;fill-opacity:1;fill-rule:nonzero;stroke:none;stroke-width:80;stroke-linecap:butt;stroke-linejoin:miter;marker:none;marker-start:none;marker-mid:none;marker-end:none;stroke-miterlimit:4;stroke-dasharray:none;stroke-dashoffset:0;stroke-opacity:0.25465836;visibility:visible;display:inline;overflow:visible"
       d="M 396.64323,450.2179 C 371.98193,511.54494 345.58823,576.40874 352.79877,644.28423 C 356.35966,673.41454 363.51619,707.47327 390.76997,722.70443 C 434.29588,749.89913 487.09348,747.50459 536.07991,746.95974 C 556.19753,746.87949 576.35115,746.79366 596.39969,744.87556 C 612.14321,737.01266 600.40133,717.05464 587.75001,713.34416 C 574.61111,711.80652 563.33008,704.41395 553.21422,695.66959 C 526.83658,673.54886 509.97208,640.19435 507.04953,605.31881 C 501.78337,581.83632 495.84192,558.37068 494.17777,534.26883 C 486.03329,495.3425 464.68735,461.3982 446.57967,426.82639 C 440.82001,414.88717 429.76906,397.74707 414.70569,405.33655 C 399.48832,413.99501 401.38527,434.24381 397.23604,449.05472 L 396.84683,449.81842 L 396.64323,450.2179 z "
       id="path7877" />
    <path
       style="opacity:1;color:#000000;fill:#000000;fill-opacity:1;fill-rule:nonzero;stroke:none;stroke-width:80;stroke-linecap:butt;stroke-linejoin:miter;marker:none;marker-start:none;marker-mid:none;marker-end:none;stroke-miterlimit:4;stroke-dasharray:none;stroke-dashoffset:0;stroke-opacity:0.25465836;visibility:visible;display:inline;overflow:visible"
       d="M 479.7781,325.28812 C 551.17543,333.3372 570.96112,413.76183 599.29181,468.87505 C 632.60155,533.6115 680.33792,596.55448 684.94972,671.90255 C 670.84418,744.51286 585.16528,751.99601 526.74532,754.89856 C 460.85115,756.02827 354.99297,760.63029 342.84743,672.19097 C 335.35347,581.02506 371.28351,493.53679 400.79774,409.36974 C 414.82751,371.69249 430.76242,320.87663 479.7781,325.28812 z M 476.26661,344.9965 L 473.37401,345.087 L 476.26661,344.9965 z M 480.17457,345.36252 C 423.34833,355.84329 423.03319,428.76937 399.0146,471.37357 C 373.77879,541.62229 345.35406,621.96941 371.24712,695.79763 C 409.65372,748.74429 483.32696,737.52078 539.86159,738.24301 C 595.34745,737.83666 682.37065,709.24668 659.33112,635.01741 C 627.14673,545.43894 573.69275,465.55433 529.96474,381.6135 C 521.29697,361.75707 500.59702,348.54689 480.17457,345.36252 z "
       id="path3946" />
    <path
       style="opacity:1;color:#000000;fill:#000000;fill-opacity:1;fill-rule:nonzero;stroke:none;stroke-width:80;stroke-linecap:butt;stroke-linejoin:miter;marker:none;marker-start:none;marker-mid:none;marker-end:none;stroke-miterlimit:4;stroke-dasharray:none;stroke-dashoffset:0;stroke-opacity:0.25465836;visibility:visible;display:inline;overflow:visible"
       id="path3988"
       d="M 391.93522,738.9986 C 395.86268,736.17788 396.72595,730.93282 393.47177,737.26496 C 391.63372,740.93587 392.08579,744.57911 393.32585,748.29809 C 395.89136,751.41615 400.09804,751.54542 403.82581,752.02063 C 427.35598,749.23338 381.69348,758.21946 423.91866,750.11989 C 432.9538,748.3784 441.75781,745.53981 449.91239,741.15464 L 468.73447,756.35652 C 459.39773,762.14765 449.10166,765.90574 438.45991,768.27758 C 422.39232,771.89675 405.43072,774.54315 389.13168,771.21137 C 380.21927,768.72659 372.92808,763.5786 369.71547,754.32469 C 367.60869,746.77114 367.16639,738.85835 369.69717,731.31817 C 371.49752,726.15936 373.10386,720.78372 377.50642,717.33537 L 391.93522,738.9986 z " />
    <path
       style="opacity:1;color:#000000;fill:#000000;fill-opacity:1;fill-rule:nonzero;stroke:none;stroke-width:80;stroke-linecap:butt;stroke-linejoin:miter;marker:none;marker-start:none;marker-mid:none;marker-end:none;stroke-miterlimit:4;stroke-dasharray:none;stroke-dashoffset:0;stroke-opacity:0.25465836;visibility:visible;display:inline;overflow:visible"
       id="path3990"
       d="M 502.39559,748.38003 C 501.72997,745.63558 502.8124,748.85493 503.11959,749.7058 C 504.19744,752.63548 505.83791,755.12586 507.8727,757.40342 C 510.68172,759.45483 514.24755,759.9681 517.5793,760.62092 C 524.07686,762.54845 550.51647,761.43345 526.82653,761.97865 C 533.0692,762.09385 539.21841,761.21501 545.16267,759.30189 C 548.66458,758.06833 551.4544,755.77328 554.03884,753.13796 C 555.95948,751.11629 556.85092,748.5174 557.77472,745.91932 C 558.62472,743.18661 559.33254,740.40924 560.0881,737.64764 L 584.59219,742.12259 C 583.74379,745.04133 582.92551,747.96883 582.08207,750.88914 C 580.65428,755.31532 579.138,759.76213 576.50284,763.60667 C 572.89441,768.57887 568.55905,772.86802 563.2605,775.90917 C 555.95813,779.8121 548.08027,781.9487 539.84844,782.43091 C 527.17471,782.75429 514.41848,783.22923 502.08644,779.62686 C 495.70847,777.50992 489.83416,774.57918 485.82779,768.79845 C 483.23089,765.04631 481.04357,761.03743 479.23057,756.82057 C 478.27278,754.52674 477.15067,752.26748 476.94057,749.74467 L 502.39559,748.38003 z " />
    <path
       style="opacity:1;color:#000000;fill:#ff7000;fill-opacity:1;fill-rule:nonzero;stroke:none;stroke-width:80;stroke-linecap:butt;stroke-linejoin:miter;marker:none;marker-start:none;marker-mid:none;marker-end:none;stroke-miterlimit:4;stroke-dasharray:none;stroke-dashoffset:0;stroke-opacity:0.25465836;visibility:visible;display:inline;overflow:visible"
       d="M 443.25715,421.68358 C 432.56582,418.3759 428.2613,405.29094 417.38427,402.33572 C 402.49812,395.37257 385.81676,397.89766 369.99963,397.07688 C 352.20445,397.86331 334.55759,405.22546 321.70722,418.01333 C 318.159,422.49569 318.1627,430.73131 323.79904,433.44885 C 330.28256,436.83506 337.77968,435.36468 344.75353,435.95718 C 368.93903,435.70527 392.95652,432.48514 416.9673,429.82295 C 424.17493,429.05574 431.44219,428.75315 438.63936,428.04586 C 441.23887,427.31248 444.72902,424.93444 443.25715,421.68358 z "
       id="path5971" />
    <path
       style="opacity:1;color:#000000;fill:#000000;fill-opacity:1;fill-rule:nonzero;stroke:none;stroke-width:80;stroke-linecap:butt;stroke-linejoin:miter;marker:none;marker-start:none;marker-mid:none;marker-end:none;stroke-miterlimit:4;stroke-dasharray:none;stroke-dashoffset:0;stroke-opacity:0.25465836;visibility:visible;display:inline;overflow:visible"
       id="path4006"
       d="M 630.4135,734.79954 C 625.99983,738.64694 615.13859,738.70773 608.1959,738.2371 C 590.80538,733.3483 576.71415,721.72157 564.05665,708.93968 C 539.97468,683.83091 521.38226,653.89817 507.24534,621.86346 C 491.51368,584.5262 485.0106,544.11829 474.61329,505.0656 C 464.91564,471.26825 448.86081,437.82054 421.27082,415.9159 C 394.29138,399.48281 384.54685,399.77313 361.01339,405.70366 C 348.98777,409.51929 335.57337,414.58309 327.89567,425.44115 C 332.8302,428.39947 346.60555,425.48214 353.08681,425.74427 C 330.70281,427.79709 387.86272,423.15152 392.7954,422.45579 C 401.99294,421.13271 411.14864,419.51697 420.2379,417.55557 C 423.72951,416.79177 427.18507,415.87342 430.63859,414.94783 L 446.39414,434.25589 C 442.66977,435.16324 438.94999,436.09967 435.19829,436.88263 C 425.50393,438.9298 415.71419,440.43602 405.86681,441.45474 C 384.36525,443.80368 362.70636,445.33443 341.08672,444.03576 C 326.27274,443.06044 298.97669,440.42647 305.25944,418.04604 C 312.95519,401.82831 332.25488,394.88503 347.64857,389.43148 C 378.67111,380.81841 412.04859,383.7173 437.40033,405.4982 C 465.04518,430.76029 481.40899,466.13784 491.66425,502.19128 C 501.78636,540.66104 507.73743,580.60711 524.15154,617.03005 C 538.07973,647.55811 556.61225,676.08186 581.35943,698.44344 C 593.01723,708.43247 606.54122,718.23305 622.30328,718.32765 C 619.48466,718.16928 630.22222,727.07474 632.52365,728.75989 L 630.4135,734.79954 z "
       sodipodi:nodetypes="ccccccccccccccccccccccccc" />
    <path
       style="opacity:1;color:#000000;fill:#adcbca;fill-opacity:1;fill-rule:nonzero;stroke:none;stroke-width:80;stroke-linecap:butt;stroke-linejoin:miter;marker:none;marker-start:none;marker-mid:none;marker-end:none;stroke-miterlimit:4;stroke-dasharray:none;stroke-dashoffset:0;stroke-opacity:0.25465836;visibility:visible;display:inline;overflow:visible"
       d="M 481.20361,382.78814 C 473.98931,381.99876 466.73276,387.33516 464.92912,394.54514 C 462.94687,399.08495 464.53566,405.11768 468.82249,407.60974 C 473.58314,410.82338 479.84652,410.51201 484.92032,408.26857 C 489.84995,406.264 494.2516,402.30832 495.99851,397.0467 C 496.72134,392.53865 494.34754,388.11283 491.20036,385.1508 C 488.95177,383.28094 485.9034,382.60643 483.07541,383.05474 C 482.69003,382.99201 482.3088,382.86973 481.97615,382.65538"
       id="path9641" />
    <path
       style="opacity:1;color:#000000;fill:#000000;fill-opacity:1;fill-rule:nonzero;stroke:none;stroke-width:80;stroke-linecap:butt;stroke-linejoin:miter;marker:none;marker-start:none;marker-mid:none;marker-end:none;stroke-miterlimit:4;stroke-dasharray:none;stroke-dashoffset:0;stroke-opacity:0.25465836;visibility:visible;display:inline;overflow:visible"
       d="M 484.03023,373.74263 C 483.89553,373.74905 483.75015,373.76866 483.61609,373.77688 C 469.06783,373.84849 457.81199,389.53364 459.81323,403.91721 C 457.12086,411.81064 447.71285,410.39016 441.38852,411.83125 C 432.78963,415.07089 437.00663,425.13351 432.14364,430.58829 C 435.92022,436.50036 444.99489,434.84143 450.95372,433.61271 C 466.49248,428.40548 482.6963,422.37057 494.47068,410.20604 C 502.03224,402.53397 506.12214,389.39586 499.12216,379.93345 C 495.77336,374.81551 489.64281,373.47546 484.03023,373.74263 z M 479.417,386.01211 C 479.60079,385.99891 479.43826,386.00855 479.62639,386.01139 C 483.56204,386.60081 489.14634,388.28539 488.71341,393.43808 C 487.91081,398.84005 482.25544,400.91524 477.71654,402.37824 C 472.54217,404.33855 470.04972,400.0383 471.73406,396.3631 C 472.92787,391.2416 474.89582,386.33696 479.417,386.01211 z "
       id="path4016"
       sodipodi:nodetypes="ccccccccccccccc" />
    <path
       style="opacity:1;color:#000000;fill:#303030;fill-opacity:1;fill-rule:nonzero;stroke:none;stroke-width:80;stroke-linecap:butt;stroke-linejoin:miter;marker:none;marker-start:none;marker-mid:none;marker-end:none;stroke-miterlimit:4;stroke-dasharray:none;stroke-dashoffset:0;stroke-opacity:0.25465836;visibility:visible;display:inline;overflow:visible"
       d="M 511.72133,520.05188 C 513.38669,566.06053 494.48025,611.48332 504.43105,657.40398 C 508.31599,677.53908 515.72975,699.64926 534.10678,710.32262 C 555.65493,719.59641 580.21946,715.61481 601.45417,707.46006 C 617.34568,699.44493 626.3747,682.35531 631.06213,665.4828 C 639.33027,644.95043 640.95088,620.14221 629.21965,600.62169 C 620.42158,583.0694 611.08378,565.78702 602.68548,548.03867 C 588.96977,524.02496 569.27358,501.13325 542.50974,493.14803 C 527.0554,490.42703 512.18107,504.18639 511.72133,520.05188 z "
       id="path5998" />
    <path
       style="opacity:1;color:#000000;fill:#000000;fill-opacity:1;fill-rule:nonzero;stroke:none;stroke-width:80;stroke-linecap:butt;stroke-linejoin:miter;marker:none;marker-start:none;marker-mid:none;marker-end:none;stroke-miterlimit:4;stroke-dasharray:none;stroke-dashoffset:0;stroke-opacity:0.25465836;visibility:visible;display:inline;overflow:visible"
       id="path4126"
       d="M 521.68495,545.7292 C 520.39679,552.50805 518.63349,559.20478 517.24129,565.97095 C 512.61872,590.04503 509.60127,614.49909 509.43417,639.06012 C 509.50986,658.60315 511.35358,679.30509 524.80325,694.21522 C 536.22715,707.71103 562.70057,710.21904 566.85996,710.16389 C 587.13491,709.31143 604.45979,698.29961 616.12527,681.55108 C 627.91624,663.1773 629.5171,640.77481 627.0667,619.43882 C 626.28032,614.0213 626.71017,616.69712 625.78178,611.41056 L 640.68495,609.95481 C 641.4989,615.63474 641.12415,612.76236 641.80495,618.57252 C 643.92929,642.2234 641.94259,666.88406 629.42234,687.45171 C 616.69554,706.81276 597.74366,720.46727 574.8289,723.00309 C 551.75785,724.84785 527.47448,718.95353 511.2327,701.05464 C 497.1851,683.5046 494.92694,660.8241 495.36928,638.76398 C 495.89156,613.73332 499.01287,588.88886 502.06107,564.07784 C 502.73276,558.70238 504.17702,549.66172 503.95389,545.56588 L 521.68495,545.7292 z " />
  </g>
</svg>
