<?xml version="1.0" encoding="UTF-8" standalone="no"?>
<!-- Created with Inkscape (http://www.inkscape.org/) -->
<svg
   xmlns:dc="http://purl.org/dc/elements/1.1/"
   xmlns:cc="http://web.resource.org/cc/"
   xmlns:rdf="http://www.w3.org/1999/02/22-rdf-syntax-ns#"
   xmlns:svg="http://www.w3.org/2000/svg"
   xmlns="http://www.w3.org/2000/svg"
   xmlns:sodipodi="http://inkscape.sourceforge.net/DTD/sodipodi-0.dtd"
   xmlns:inkscape="http://www.inkscape.org/namespaces/inkscape"
   width="1000"
   height="1000"
   id="svg2"
   sodipodi:version="0.32"
   inkscape:version="0.43"
   version="1.0"
   sodipodi:docbase="/home/kkowal/tale/art/monster"
   sodipodi:docname="samsoit.svg">
  <defs
     id="defs4" />
  <sodipodi:namedview
     id="base"
     pagecolor="#ffffff"
     bordercolor="#666666"
     borderopacity="1.0"
     inkscape:pageopacity="0.0"
     inkscape:pageshadow="2"
     inkscape:zoom="0.7"
     inkscape:cx="293.70256"
     inkscape:cy="627.4326"
     inkscape:document-units="px"
     inkscape:current-layer="layer1"
     inkscape:window-width="1600"
     inkscape:window-height="1125"
     inkscape:window-x="0"
     inkscape:window-y="25" />
  <metadata
     id="metadata7">
    <rdf:RDF>
      <cc:Work
         rdf:about="">
        <dc:format>image/svg+xml</dc:format>
        <dc:type
           rdf:resource="http://purl.org/dc/dcmitype/StillImage" />
      </cc:Work>
    </rdf:RDF>
  </metadata>
  <g
     inkscape:label="Layer 1"
     inkscape:groupmode="layer"
     id="layer1">
    <path
       style="opacity:1;color:#000000;fill:#ebebeb;fill-opacity:1;fill-rule:nonzero;stroke:none;stroke-width:80;stroke-linecap:butt;stroke-linejoin:miter;marker:none;marker-start:none;marker-mid:none;marker-end:none;stroke-miterlimit:4;stroke-dasharray:none;stroke-dashoffset:0;stroke-opacity:0.25465836;visibility:visible;display:inline;overflow:visible"
       d="M 754.32352,407.34384 C 753.71301,338.47144 763.16238,268.56295 747.78387,200.60548 C 732.20871,175.29954 741.87287,140.81083 764.02844,122.66168 C 777.01959,107.67264 791.46132,93.433946 800.35291,75.449961 C 813.2146,63.945636 836.374,74.600884 837.61473,91.339684 C 850.16971,118.59947 873.47081,144.05017 869.5834,176.12806 C 865.64793,241.2431 826.17091,297.54884 819.3633,362.10282 C 816.50925,377.71382 820.60743,397.13023 806.88943,408.59729 C 790.76362,421.45298 766.63165,415.39191 753.17557,401.60414"
       id="path7023" />
    <path
       style="opacity:1;color:#000000;fill:#f9cc91;fill-opacity:1;fill-rule:nonzero;stroke:none;stroke-width:80;stroke-linecap:butt;stroke-linejoin:miter;marker:none;marker-start:none;marker-mid:none;marker-end:none;stroke-miterlimit:4;stroke-dasharray:none;stroke-dashoffset:0;stroke-opacity:0.25465836;visibility:visible;display:inline;overflow:visible"
       d="M 406.49547,461.29739 C 370.51403,457.34449 333.3036,456.54873 298.28705,466.98813 C 283.68673,472.78842 270.1518,481.91006 260.47961,494.41156 C 253.15868,510.71108 263.33306,531.39676 279.84613,537.18749 C 298.02368,546.56236 318.782,547.88425 338.31644,552.83852 C 349.61582,553.90934 359.81209,539.11646 352.40729,529.57984 C 344.90648,520.61271 332.30026,519.87916 321.46533,519.61469 C 313.4652,519.30753 308.36626,507.14292 315.36611,502.1594 C 325.60561,492.79128 340.38348,494.96603 353.10093,493.62779 C 371.29819,492.73849 389.86449,494.53715 407.71287,490.1178 C 415.97534,486.9725 419.90872,475.90974 414.88804,468.44653 C 413.11485,465.13974 410.15943,462.33712 406.49547,461.29739 z "
       id="path6918" />
    <path
       style="opacity:1;color:#000000;fill:#f9cc91;fill-opacity:1;fill-rule:nonzero;stroke:none;stroke-width:80;stroke-linecap:butt;stroke-linejoin:miter;marker:none;marker-start:none;marker-mid:none;marker-end:none;stroke-miterlimit:4;stroke-dasharray:none;stroke-dashoffset:0;stroke-opacity:0.25465836;visibility:visible;display:inline;overflow:visible"
       d="M 716.44129,488.84813 C 730.09341,492.70186 743.10396,499.14056 753.94286,508.34844 C 763.81833,514.6856 776.23526,515.11668 787.52286,513.5059 C 796.19963,511.61996 804.49767,506.89158 809.97911,499.8413 C 813.95179,494.26619 813.62997,486.9948 811.91334,480.6821 C 810.04718,473.27093 807.09312,466.1701 804.38855,459.05254 C 799.50422,450.49043 791.19642,444.48579 782.74305,439.78387 C 776.97219,437.11491 769.88766,437.18537 764.46939,440.67032 C 757.39011,443.60291 750.31451,446.97656 744.84331,452.47891 C 735.67488,460.10948 725.0847,467.08234 719.68164,478.10263 C 718.23667,481.56735 717.61823,485.29608 716.44129,488.84813 z "
       id="path5870" />
    <path
       style="opacity:1;color:#000000;fill:#f6b156;fill-opacity:1;fill-rule:nonzero;stroke:none;stroke-width:80;stroke-linecap:butt;stroke-linejoin:miter;marker:none;marker-start:none;marker-mid:none;marker-end:none;stroke-miterlimit:4;stroke-dasharray:none;stroke-dashoffset:0;stroke-opacity:0.25465836;visibility:visible;display:inline;overflow:visible"
       id="path4082"
       d="M 546.87224,487.27958 C 548.73729,486.89879 551.7264,487.00183 553.95089,486.94096 C 563.56274,486.73592 573.16089,486.22816 582.7595,485.70622 C 595.57643,484.96823 608.4047,484.46458 621.23637,484.07288 C 634.87996,483.72984 648.51228,483.04752 662.14545,482.42856 C 673.04375,481.88818 683.95559,481.7065 694.8656,481.61136 C 702.52516,481.53447 710.1838,481.78297 717.8278,482.25228 C 724.04357,482.49798 730.10164,483.7601 736.066,485.43927 C 741.67668,487.06818 746.44497,490.30742 751.03132,493.80654 C 754.7627,497.11976 758.69703,500.07492 762.9671,502.63615 C 767.35897,505.28552 772.04418,505.98295 777.047,506.11499 C 782.95618,505.79277 788.4891,503.86827 793.84337,501.49318 C 796.99749,495.87817 777.17643,513.55423 793.75641,500.12539 C 797.97351,496.09629 799.73788,490.85434 801.15266,485.35871 C 802.50794,479.65436 801.82023,474.10315 800.34709,468.53264 C 798.56222,462.76346 795.32251,457.79175 791.50413,453.19313 C 788.26635,449.27141 784.0624,446.93016 779.47285,445.01103 C 775.63817,443.59755 772.00929,444.00558 768.18173,444.87315 C 767.97163,444.97511 767.76154,445.07707 767.55144,445.17904 L 777.69683,425.23465 C 778.07545,425.22222 778.45408,425.20978 778.8327,425.19735 C 784.37246,425.49957 789.78954,426.22117 794.80345,428.82383 C 800.55235,431.91943 805.81707,435.64065 809.9328,440.80274 C 814.47862,446.60409 818.4299,452.79005 820.75122,459.85199 C 822.86335,466.97262 824.19278,474.15919 823.02202,481.6102 C 821.79019,488.77331 820.04807,495.86048 815.89882,501.96539 C 808.25157,511.91194 797.70502,518.26043 785.48795,522.05673 C 778.6784,523.97823 771.72399,525.4311 764.60889,524.53389 C 758.22876,523.36738 752.1328,521.44821 746.65989,517.83335 C 742.21014,514.85938 738.09699,511.48359 733.92917,508.13069 C 730.19755,505.63479 726.41267,503.45134 721.91346,502.63853 C 716.47963,501.56279 711.01323,500.81163 705.46129,500.68076 C 698.04098,500.34356 690.61407,500.1598 683.18526,500.24771 C 672.44064,500.3009 661.69694,500.48836 650.96283,500.99253 C 637.3013,501.54639 623.64206,502.16742 609.97453,502.55776 C 597.1964,503.01997 584.42397,503.6165 571.66179,504.41058 C 561.95411,504.98352 552.2402,505.43173 542.53517,506.04521 C 539.9561,506.22503 537.3081,506.61517 534.75733,506.48795 L 546.87224,487.27958 z " />
    <path
       style="opacity:1;color:#000000;fill:#c1c1c1;fill-opacity:1;fill-rule:nonzero;stroke:none;stroke-width:80;stroke-linecap:butt;stroke-linejoin:miter;marker:none;marker-start:none;marker-mid:none;marker-end:none;stroke-miterlimit:4;stroke-dasharray:none;stroke-dashoffset:0;stroke-opacity:0.25465836;visibility:visible;display:inline;overflow:visible"
       d="M 783.02217,407.34384 C 778.12711,383.77599 793.16018,361.26229 788.75765,337.65259 C 792.15496,295.17428 797.33489,252.8647 802.03788,210.52953 C 805.66358,167.70774 805.07052,124.35671 813.81867,82.10258 C 825.93502,66.052305 839.50728,90.112321 840.69707,101.90183 C 850.41904,121.51303 869.00851,139.03981 867.20726,162.54321 C 863.36588,185.08192 848.57861,203.60944 842.02475,225.2779 C 822.22609,278.16622 817.40573,334.84571 806.9343,389.93037 C 805.85402,401.83177 785.63909,419.74737 779.57837,401.60414"
       id="path7941" />
    <g
       id="g6860"
       transform="matrix(1.607126,0,0,1.607126,-121.5604,-94.30914)">
      <path
         id="path5879"
         d="M 493.57144,332.85715 C 509.5925,340.26822 527.85684,341.19305 545.1282,338.77538 C 552.71479,341.02301 556.02187,351.6281 551.06836,357.79458 C 548.20053,367.62983 547.45492,378.15741 549.4633,388.23327 C 546.51295,395.24229 555.65599,403.1737 562.1782,399.26339 C 569.93933,386.47368 567.09092,370.99549 568.90093,356.85552 C 571.09088,345.06292 585.50446,338.92272 596.19461,342.99359 C 606.02972,344.8601 616.29595,345.07542 626.05737,342.65839 C 637.17465,335.989 633.47504,316.05445 620.74361,313.74536 C 595.59203,306.61474 569.52842,315.18139 544.03118,311.76666 C 533.34184,311.35364 522.90835,308.07083 512.25466,307.83829 C 500.95312,309.72958 491.46006,321.22883 493.57144,332.85715 z "
         style="opacity:1;color:#000000;fill:#6e72f8;fill-opacity:1;fill-rule:nonzero;stroke:none;stroke-width:80;stroke-linecap:butt;stroke-linejoin:miter;marker:none;marker-start:none;marker-mid:none;marker-end:none;stroke-miterlimit:4;stroke-dasharray:none;stroke-dashoffset:0;stroke-opacity:0.25465836;visibility:visible;display:inline;overflow:visible" />
      <path
         d="M 559.69556,346.08686 C 559.79769,347.34698 559.46802,348.609 559.2619,349.85134 C 558.44688,354.0304 557.65125,358.21077 556.95284,362.41111 C 556.06769,367.275 555.76675,372.19446 555.78851,377.12773 C 555.88947,381.53403 556.72209,385.84192 558.09462,390.01334 C 559.10175,393.02516 559.90169,393.1239 562.33248,393.22027 C 568.8794,387.52869 550.83072,400.95331 559.12047,393.88676 C 561.71196,390.59122 562.5058,386.49924 563.28082,382.47877 C 564.1562,377.30852 564.30695,372.06012 564.29902,366.82811 C 564.2845,361.94096 564.02944,357.06133 563.73986,352.18444 C 563.30841,348.09507 563.81521,344.48455 565.99951,341.02003 C 573.19472,335.38999 578.02065,334.60245 586.06842,334.18718 C 591.18364,334.08241 596.29624,334.28409 601.40491,334.51738 C 606.54075,334.75482 611.67581,334.99427 616.80804,335.29967 C 621.00783,335.58289 625.19796,335.92356 629.38105,335.37617 C 635.51209,333.40398 644.52902,326.77399 626.78174,337.34357 C 628.51178,335.74621 628.08334,333.85466 627.78558,331.66288 C 627.1274,328.73956 625.86489,326.00648 624.67421,323.27168 C 623.72557,320.8329 622.34815,320.53852 620.00643,320.00818 C 616.74222,319.55265 613.43812,319.73953 610.16238,319.9436 C 606.43132,320.2692 602.69711,320.56196 598.9687,320.91628 C 594.41482,321.36809 589.85546,321.74347 585.28762,322.02172 C 578.85036,322.42762 572.41039,322.51428 565.96634,322.27633 C 558.46419,321.90745 550.99129,321.12541 543.52191,320.35776 C 537.39615,319.73637 531.27718,319.05065 525.16479,318.30978 C 520.93774,317.76827 516.6964,317.36409 512.44693,317.05205 C 509.21109,316.81071 505.97556,317.01269 502.78814,317.52884 C 492.68946,322.23847 512.89202,312.26854 505.42553,315.99766 C 503.19798,317.58509 502.2603,319.93481 501.33549,322.40096 C 500.16119,324.6919 500.9425,325.52417 501.70229,327.24071 C 504.68062,328.86121 508.09809,329.25148 511.40843,329.72402 C 515.93957,330.28086 520.50422,330.45912 525.0642,330.56133 C 529.03302,330.56059 532.99957,330.40263 536.96547,330.26692 C 540.62683,330.091 544.24222,330.41634 547.83043,331.10463 C 551.32465,331.86634 554.28131,333.6676 557.13167,335.72361 C 559.85322,337.9639 561.40921,340.92184 562.50188,344.19805 C 562.80954,345.11641 562.79203,346.09325 562.93644,347.03648 L 549.47382,350.63009 C 549.48366,350.15385 549.59857,349.67449 549.50345,349.19636 C 548.84969,347.35932 548.25666,345.78341 546.4808,344.67636 C 544.28224,343.45072 542.07621,342.36853 539.50244,342.19382 C 536.25917,341.95895 533.01314,341.89283 529.76186,342.07643 C 525.69453,342.18513 521.62297,342.29402 517.55583,342.1155 C 512.76932,341.87025 507.97426,341.58722 503.24152,340.79038 C 498.70235,339.89473 494.14665,338.88699 490.64392,335.64617 C 487.82325,332.20348 486.46707,328.66522 487.57493,324.17205 C 488.43655,320.69646 489.4821,317.25118 491.62287,314.31941 C 495.99428,309.01528 502.59888,305.66827 509.45699,305.35207 C 513.06574,305.25886 516.67893,305.21337 520.27147,305.64887 C 524.5788,306.06797 528.87581,306.57643 533.16416,307.16 C 539.20674,307.93341 545.25943,308.62742 551.31783,309.26489 C 558.6424,310.03223 565.98246,310.75175 573.35013,310.90723 C 579.6457,310.96029 585.93699,310.69061 592.21313,310.1892 C 596.75571,309.81631 601.28751,309.33566 605.82572,308.91505 C 609.64116,308.5978 613.45483,308.21746 617.28246,308.08382 C 621.18571,308.06514 625.12896,308.09411 628.87584,309.34018 C 632.63329,310.97532 635.5593,313.19471 637.12894,317.13753 C 638.49982,320.28793 639.91534,323.44054 640.77358,326.7787 C 641.56531,330.49722 642.08139,334.24033 640.70066,337.9009 C 637.2059,344.33481 629.54673,347.21424 622.47088,347.363 C 618.02307,347.31582 613.58856,346.99385 609.14952,346.71017 C 604.05525,346.42344 598.95829,346.18285 593.861,345.95634 C 588.95323,345.78014 584.02204,345.65146 579.12617,346.11369 C 573.07229,346.89025 564.3877,351.54801 579.6629,343.74039 C 577.06804,344.45426 576.86529,345.3869 577.01841,348.44337 C 577.21298,353.4036 577.51754,358.36043 577.54528,363.32654 C 577.60111,368.89565 577.51944,374.47976 576.77266,380.00826 C 576.07494,384.9071 575.19371,389.83478 572.95141,394.29719 C 569.23275,400.66596 562.26979,406.05354 554.56033,404.76 C 550.08795,403.11606 547.17437,400.27878 545.52332,395.70845 C 543.89365,390.88607 542.80214,385.92191 542.57226,380.81525 C 542.36225,375.48601 542.60419,370.15265 543.44393,364.87877 C 544.07967,360.65869 544.80804,356.45459 545.54932,352.2522 C 545.64718,351.59321 545.8633,349.68498 546.01872,349.63922 L 559.69556,346.08686 z "
         id="path4100"
         style="opacity:1;color:#000000;fill:#000000;fill-opacity:1;fill-rule:nonzero;stroke:none;stroke-width:80;stroke-linecap:butt;stroke-linejoin:miter;marker:none;marker-start:none;marker-mid:none;marker-end:none;stroke-miterlimit:4;stroke-dasharray:none;stroke-dashoffset:0;stroke-opacity:0.25465836;visibility:visible;display:inline;overflow:visible" />
    </g>
    <path
       style="color:#000000;fill:#f9cc91;fill-opacity:1;fill-rule:nonzero;stroke:none;stroke-width:80;stroke-linecap:butt;stroke-linejoin:miter;marker:none;marker-start:none;marker-mid:none;marker-end:none;stroke-miterlimit:4;stroke-dasharray:none;stroke-dashoffset:0;stroke-opacity:0.25465836;visibility:visible;display:inline;overflow:visible"
       d="M 548.84092,464.74124 C 605.62348,460.82923 663.38977,468.55516 719.38146,455.61498 C 734.24878,450.1254 744.62201,435.36993 761.00388,433.50704 C 773.84109,435.30898 776.72723,456.14453 764.8645,461.36949 C 751.78789,470.67441 744.66011,488.30317 727.85582,492.05657 C 692.07592,494.82542 656.42403,485.85046 620.66083,489.79435 C 590.39155,490.42804 560.12735,492.0949 529.84342,491.40441 C 516.92254,488.28929 518.45967,465.76298 531.71207,464.48832 C 537.36774,463.18212 543.15235,464.38097 548.84092,464.74124 z "
       id="path4977" />
    <path
       style="color:#000000;fill:#f6b156;fill-opacity:1;fill-rule:nonzero;stroke:none;stroke-width:80;stroke-linecap:butt;stroke-linejoin:miter;marker:none;marker-start:none;marker-mid:none;marker-end:none;stroke-miterlimit:4;stroke-dasharray:none;stroke-dashoffset:0;stroke-opacity:0.25465836;visibility:visible;display:inline;overflow:visible"
       id="path4098"
       d="M 552.62905,459.73184 C 555.31029,458.81383 567.61773,459.27656 572.97523,459.19811 C 595.2318,458.76818 617.45474,457.36012 639.6659,455.94251 C 657.84686,454.68194 676.02759,453.39255 694.18895,451.87203 C 704.1604,451.01988 714.14075,450.24139 724.06709,448.95877 C 737.84508,445.1282 737.47105,443.40377 723.52373,450.98282 C 727.62096,448.98616 730.54843,445.53754 733.51411,442.1902 C 740.67526,431.83468 748.35289,428.0112 759.95399,421.7241 C 766.08692,419.74409 771.46772,421.31188 776.81273,424.43843 C 781.76988,428.00808 784.19089,433.06092 785.74762,438.7792 C 786.91312,444.65794 785.76513,450.36183 784.08828,455.99458 C 782.16414,461.61025 778.8998,466.5543 775.45463,471.3303 L 753.27413,469.80848 C 756.46772,465.98154 759.61976,462.0983 761.86797,457.61546 C 763.44446,453.931 764.91484,450.25735 764.64314,446.15691 C 763.89399,443.41751 763.54324,441.27224 760.68882,439.97679 C 757.58073,440.13681 755.18888,440.41397 752.70518,442.82476 C 779.00882,428.50431 760.65656,436.66723 755.74072,443.87807 C 752.48,448.01177 749.23853,452.19829 745.34554,455.76679 C 734.25775,462.0147 725.90393,467.96092 713.32864,468.29697 C 703.33752,469.15118 693.33746,469.88618 683.33177,470.5504 C 665.2388,471.7328 647.14085,472.84281 629.04185,473.92805 C 606.64045,475.22153 584.23807,476.5227 561.81818,477.45722 C 554.83613,477.76547 547.15895,478.51812 540.51793,478.9342 L 552.62905,459.73184 z " />
    <path
       style="opacity:1;color:#000000;fill:#f6b156;fill-opacity:1;fill-rule:nonzero;stroke:none;stroke-width:80;stroke-linecap:butt;stroke-linejoin:miter;marker:none;marker-start:none;marker-mid:none;marker-end:none;stroke-miterlimit:4;stroke-dasharray:none;stroke-dashoffset:0;stroke-opacity:0.25465836;visibility:visible;display:inline;overflow:visible"
       id="path4084"
       d="M 395.8282,472.04802 C 390.69785,471.11173 385.35534,471.08813 380.13297,470.84657 C 366.37291,469.9087 352.63809,470.42609 338.94209,471.88366 C 324.25228,473.4707 309.83233,476.68447 295.84989,481.41537 C 264.63569,498.8799 308.17204,468.31907 279.75457,490.64617 C 273.65199,495.95682 267.84192,501.82084 272.3894,509.73708 C 286.6463,523.51004 306.93672,529.86444 325.32445,536.27051 C 330.55932,538.08002 335.84449,539.7363 341.13018,541.38915 L 327.66587,557.03525 C 322.31491,555.30291 316.96454,553.56756 311.65776,551.7028 C 291.18463,544.4575 268.59446,537.28573 253.65554,520.79366 C 246.7079,508.65672 248.25785,497.60471 258.127,487.50758 C 271.02352,475.0082 287.48183,466.91398 304.54936,461.60283 C 319.23688,457.4292 334.26283,454.58997 349.48102,453.21923 C 363.66873,451.94478 377.88871,451.93104 392.11321,452.58913 C 397.30671,452.75023 402.94049,453.20715 407.94119,452.84265 L 395.8282,472.04802 z " />
    <path
       style="opacity:1;color:#000000;fill:#f6b156;fill-opacity:1;fill-rule:nonzero;stroke:none;stroke-width:80;stroke-linecap:butt;stroke-linejoin:miter;marker:none;marker-start:none;marker-mid:none;marker-end:none;stroke-miterlimit:4;stroke-dasharray:none;stroke-dashoffset:0;stroke-opacity:0.25465836;visibility:visible;display:inline;overflow:visible"
       id="path4090"
       d="M 391.57921,496.68601 C 393.4795,500.79532 391.60883,498.96048 386.34053,498.74789 C 375.87257,498.53176 365.40653,498.60419 354.95351,499.20608 C 343.49444,500.0413 332.02499,501.38088 320.93236,504.44515 C 300.19641,514.17701 334.3065,495.64959 319.58827,504.72812 C 315.78583,505.53101 319.51213,507.7931 319.50114,508.23588 C 324.25886,510.54127 329.55154,511.20574 334.73626,511.8873 C 340.41143,512.53265 346.12355,512.69403 351.82881,512.82553 L 339.69785,531.44635 C 333.64647,531.1557 327.58575,530.80124 321.60538,529.77581 C 314.77641,528.44693 307.9207,526.89211 302.32827,522.49598 C 297.23768,517.20353 294.56966,511.4955 297.26093,504.16725 C 303.89711,492.3197 317.60548,487.4239 330.43686,484.67443 C 342.19174,482.45482 354.10231,481.14121 366.05088,480.55909 C 376.82602,480.13571 387.61381,480.02766 398.39635,480.17497 C 402.87665,480.27495 406.84445,479.61556 409.91325,483.28717 L 391.57921,496.68601 z " />
    <g
       id="g13346">
      <path
         sodipodi:nodetypes="ccccccccc"
         id="path2210"
         d="M 314.65964,789.61035 C 322.05004,727.90481 345.3624,771.81578 379.99857,614.84411 C 413.97656,504.28719 391.73266,371.89142 430.0202,255.28987 C 452.05961,210.6477 524.52235,217.31638 542.69935,263.66431 C 587.135,338.77427 587.82354,429.31408 583.88211,513.89382 C 589.06855,581.39584 612.42492,645.93556 618.33659,713.33592 C 627.97648,740.71012 638.63331,773.70125 621.1896,800.32423 C 540.35079,868.46639 409.77474,875.56699 327.51721,806.07689 C 322.73535,801.00137 318.39702,795.50024 314.65964,789.61035 z "
         style="color:#000000;fill:#ebd584;fill-opacity:1;fill-rule:nonzero;stroke:none;stroke-width:80;stroke-linecap:butt;stroke-linejoin:miter;marker:none;marker-start:none;marker-mid:none;marker-end:none;stroke-miterlimit:4;stroke-dasharray:none;stroke-dashoffset:0;stroke-opacity:0.25465836;visibility:visible;display:inline;overflow:visible" />
      <path
         d="M 331.32735,769.8157 C 332.34384,773.58065 330.90027,774.93377 328.94427,777.93927 C 325.44834,782.69693 325.77173,785.772 328.06161,791.02382 C 340.45085,808.11596 360.52905,817.61475 379.61443,825.29047 C 414.73893,838.7282 452.52199,842.47824 489.85596,840.51557 C 525.5314,837.98343 560.62992,829.52853 593.74879,816.11169 C 601.38711,813.28678 635.88875,795.26813 603.97641,811.54639 C 602.76486,812.16439 606.35252,810.22188 607.52639,809.53499 C 613.46723,806.05874 618.78583,802.18494 623.62011,797.30834 C 628.7061,791.25717 627.56393,785.59032 623.80649,779.36216 L 648.62333,764.68739 C 655.05089,775.25146 657.55491,786.61046 652.04315,798.26212 C 637.405,821.70542 607.94561,830.47347 583.65081,840.75792 C 549.23693,852.9225 513.19326,860.59873 476.688,862.32676 C 437.65636,863.47043 398.32513,858.7853 361.72658,844.60577 C 339.79292,835.70107 317.2869,824.50054 303.1075,804.8474 C 298.58596,796.51397 295.83204,787.91464 299.6763,778.74246 C 302.52479,772.56788 300.2851,774.83737 302.58374,777.28143 L 331.32735,769.8157 z "
         id="path1333"
         style="color:#000000;fill:#e5c65a;fill-opacity:1;fill-rule:nonzero;stroke:none;stroke-width:80;stroke-linecap:butt;stroke-linejoin:miter;marker:none;marker-start:none;marker-mid:none;marker-end:none;stroke-miterlimit:4;stroke-dasharray:none;stroke-dashoffset:0;stroke-opacity:0.25465836;visibility:visible;display:inline;overflow:visible" />
      <path
         d="M 296.844,788.74194 C 296.80048,786.76005 297.02218,784.79725 297.16467,782.82569 C 298.57169,775.0565 302.55,768.30231 306.76146,761.7529 C 317.17781,747.19017 327.40148,732.50672 336.65642,717.17003 C 353.46626,689.43188 363.51184,658.43043 371.16103,627.09744 C 382.04821,580.70462 385.83259,533.05473 388.22924,485.57815 C 390.26412,439.26923 390.90708,392.90643 393.98667,346.64657 C 396.34267,318.22849 397.1835,288.58781 410.26381,262.64209 C 423.51415,239.24092 447.30667,221.69638 473.64221,215.84965 C 494.30435,212.07149 514.03133,218.97072 530.61235,231.08569 C 549.31692,245.21667 561.9412,264.97721 570.50802,286.50962 C 581.56314,317.00568 585.78234,349.43686 589.69068,381.48061 C 595.26821,427.89462 597.91149,474.58709 601.86568,521.15218 C 605.73657,565.90276 610.72798,610.56175 617.36485,654.98897 C 620.86439,678.48076 625.19124,701.84539 630.82748,724.91959 C 633.25151,734.9663 636.26484,744.83722 640.47443,754.27633 C 642.42577,758.67633 645.20409,762.56047 648.12503,766.34485 L 623.69163,782.21437 C 620.19844,777.47404 616.9456,772.55824 614.57956,767.13835 C 610.05574,756.80064 607.06774,745.92472 604.65626,734.91346 C 599.40849,711.22726 595.78204,687.22242 592.67031,663.17172 C 586.97639,618.29934 582.67892,573.26497 578.66316,528.21545 C 574.59176,481.92152 571.37333,435.52386 565.27277,389.43616 C 561.16866,358.57527 556.80741,327.34017 545.97069,297.99885 C 538.18459,278.92432 526.8694,261.22949 509.7733,249.20427 C 495.3672,239.69476 478.86377,235.71317 462.10611,241.22944 C 454.71877,244.26414 438.92466,253.38923 467.3721,237.46651 C 474.00784,233.75231 429.65098,262.67563 437.70282,262.42193 C 422.9006,285.76012 422.10815,314.43316 419.05383,341.12238 C 414.94861,387.32064 413.80058,433.68857 411.92381,480.01365 C 409.64889,528.06147 406.20548,576.25689 396.31418,623.42675 C 389.22087,655.78281 379.84015,687.89103 363.85977,717.0912 C 355.19884,732.78599 345.47984,747.86018 335.2556,762.57826 C 331.8273,767.64448 328.19664,772.70385 326.21438,778.54643 C 326.00535,779.4568 325.25489,780.27891 325.58761,781.27621 L 296.844,788.74194 z "
         id="path1335"
         style="color:#000000;fill:#e5c65a;fill-opacity:1;fill-rule:nonzero;stroke:none;stroke-width:80;stroke-linecap:butt;stroke-linejoin:miter;marker:none;marker-start:none;marker-mid:none;marker-end:none;stroke-miterlimit:4;stroke-dasharray:none;stroke-dashoffset:0;stroke-opacity:0.25465836;visibility:visible;display:inline;overflow:visible" />
      <path
         d="M 405.02032,292.96972 C 400.45466,291.65236 394.71346,292.81588 389.90343,293.49742 C 354.93422,303.75493 361.6279,300.47342 341.11048,314.91535 C 329.86345,323.0013 319.91102,332.6628 310.70299,342.96845 L 289.88493,341.06155 C 299.31312,330.10721 309.48718,319.77638 320.92587,310.89831 C 344.16844,293.22514 371.10802,279.24664 400.15055,274.56973 C 404.44219,274.14046 415.35891,273.86844 417.13521,273.76134 L 405.02032,292.96972 z "
         id="path6963"
         style="color:#000000;fill:#e5c65a;fill-opacity:1;fill-rule:nonzero;stroke:none;stroke-width:80;stroke-linecap:butt;stroke-linejoin:miter;marker:none;marker-start:none;marker-mid:none;marker-end:none;stroke-miterlimit:4;stroke-dasharray:none;stroke-dashoffset:0;stroke-opacity:0.25465836;visibility:visible;display:inline;overflow:visible" />
      <path
         d="M 515.77089,306.07135 C 519.52006,301.92533 524.49798,299.00268 529.15262,295.9399 C 550.04432,282.85977 572.33585,272.02148 595.39228,263.32908 C 612.63154,256.56266 630.61333,252.9578 649.09837,253.104 C 651.15393,253.11358 653.1922,253.3793 655.23912,253.51695 L 643.14856,271.46057 C 641.29014,271.41243 639.43467,271.25141 637.57328,271.31616 C 620.26401,271.95212 603.53103,276.26065 587.50655,282.81372 C 549.6174,298.03455 572.52739,289.25579 550.3077,300.77376 C 546.31032,303.36201 542.0844,306.21278 538.30794,308.85454 L 515.77089,306.07135 z "
         id="path6965"
         style="color:#000000;fill:#e5c65a;fill-opacity:1;fill-rule:nonzero;stroke:none;stroke-width:80;stroke-linecap:butt;stroke-linejoin:miter;marker:none;marker-start:none;marker-mid:none;marker-end:none;stroke-miterlimit:4;stroke-dasharray:none;stroke-dashoffset:0;stroke-opacity:0.25465836;visibility:visible;display:inline;overflow:visible" />
      <path
         d="M 468.97387,255.216 C 469.38956,250.3796 467.61039,245.50049 466.27625,240.8746 C 460.04259,221.77374 449.00134,204.62909 436.19743,189.28056 C 425.99576,176.50395 412.5718,169.76276 396.33714,170.33088 C 393.99882,170.45112 391.77263,171.15053 389.51291,171.67201 L 399.61224,152.35512 C 402.39357,152.1704 405.17036,151.79912 407.96745,152.0345 C 426.6784,153.90209 442.11718,162.69412 453.70458,177.70129 C 467.0728,194.19523 478.67928,212.35605 486.09854,232.32549 C 488.03669,237.95018 490.05553,243.60321 490.9543,249.50693 L 468.97387,255.216 z "
         id="path6969"
         style="color:#000000;fill:#e5c65a;fill-opacity:1;fill-rule:nonzero;stroke:none;stroke-width:80;stroke-linecap:butt;stroke-linejoin:miter;marker:none;marker-start:none;marker-mid:none;marker-end:none;stroke-miterlimit:4;stroke-dasharray:none;stroke-dashoffset:0;stroke-opacity:0.25465836;visibility:visible;display:inline;overflow:visible" />
      <path
         d="M 497.32524,243.52675 C 499.32918,238.98605 504.72249,231.47521 508.63827,226.63058 C 521.81696,211.54265 538.08222,199.45029 555.22087,189.22389 C 575.42739,176.18212 596.88232,169.68676 620.64252,169.78444 L 609.16748,188.02176 C 599.05184,188.49518 589.34332,189.98179 579.78174,193.47274 C 576.19511,194.78223 565.95217,199.91756 569.27797,198.04205 C 572.59499,196.1715 576.02345,194.50436 579.35297,192.65616 C 580.55648,191.98811 576.88981,193.88566 575.65822,194.50042 C 558.90211,203.46327 543.1613,214.61284 530.11553,228.49584 C 526.7285,232.41752 521.11453,239.07288 520.01928,242.81006 L 497.32524,243.52675 z "
         id="path6971"
         style="color:#000000;fill:#e5c65a;fill-opacity:1;fill-rule:nonzero;stroke:none;stroke-width:80;stroke-linecap:butt;stroke-linejoin:miter;marker:none;marker-start:none;marker-mid:none;marker-end:none;stroke-miterlimit:4;stroke-dasharray:none;stroke-dashoffset:0;stroke-opacity:0.25465836;visibility:visible;display:inline;overflow:visible" />
      <path
         d="M 437.00077,587.02244 C 436.81744,592.04363 435.91605,597.02204 435.15328,601.98353 C 431.15766,626.14972 424.4534,649.76991 416.75609,672.99183 C 405.60721,706.36618 390.37422,738.16337 374.15893,769.32697 C 366.63136,783.74747 358.72939,797.96742 350.67114,812.0968 L 329.90175,812.09847 C 338.26655,798.14856 346.40156,784.05982 354.12063,769.74088 C 370.51703,739.22376 385.74049,707.94843 396.70844,675.02164 C 404.13257,652.49081 410.51502,629.52438 413.86835,606.00124 C 414.38937,601.60337 414.99201,597.15134 415.02036,592.73152 L 437.00077,587.02244 z "
         id="path6975"
         style="color:#000000;fill:#e5c65a;fill-opacity:1;fill-rule:nonzero;stroke:none;stroke-width:80;stroke-linecap:butt;stroke-linejoin:miter;marker:none;marker-start:none;marker-mid:none;marker-end:none;stroke-miterlimit:4;stroke-dasharray:none;stroke-dashoffset:0;stroke-opacity:0.25465836;visibility:visible;display:inline;overflow:visible" />
      <path
         d="M 524.24305,424.02382 C 523.73126,432.56978 523.40377,441.12937 523.02441,449.68286 C 521.29231,486.00394 520.42292,522.35669 520.53057,558.71852 C 520.75741,606.76001 522.78307,654.77542 526.09016,702.6988 C 528.75904,739.56874 532.1602,776.38939 536.41835,813.11048 C 537.34436,821.22997 538.43192,829.32915 539.60933,837.41556 L 519.58093,844.01087 C 518.56897,835.77552 517.62504,827.53191 516.84655,819.27075 C 513.267,782.24825 510.38451,745.15965 507.90249,708.04848 C 504.80799,659.94215 502.68377,611.77121 502.12857,563.5642 C 501.72868,527.28049 502.17889,491.00112 502.61114,454.71978 C 502.6631,446.39446 502.79379,438.04391 502.26607,429.73201 L 524.24305,424.02382 z "
         id="path6981"
         style="color:#000000;fill:#e5c65a;fill-opacity:1;fill-rule:nonzero;stroke:none;stroke-width:80;stroke-linecap:butt;stroke-linejoin:miter;marker:none;marker-start:none;marker-mid:none;marker-end:none;stroke-miterlimit:4;stroke-dasharray:none;stroke-dashoffset:0;stroke-opacity:0.25465836;visibility:visible;display:inline;overflow:visible" />
      <path
         d="M 559.83114,539.95659 C 559.57331,544.66886 559.79397,549.43236 559.83511,554.16061 C 559.77795,578.8975 560.46089,603.62129 561.64329,628.3281 C 562.99168,657.32411 565.60424,686.24453 569.12912,715.05307 C 571.39006,733.22938 574.07488,751.35734 577.61898,769.32967 C 579.49488,778.8796 582.07509,788.25508 585.44907,797.37722 C 587.78559,803.37622 590.943,808.98387 594.23607,814.49616 C 595.02854,815.7916 595.86729,817.05768 596.68287,818.33841 L 577.42866,829.55604 C 576.567,828.18392 575.68538,826.82412 574.85891,825.43013 C 571.32034,819.3699 567.94232,813.20152 565.40866,806.63982 C 561.74295,796.93738 559.20955,786.87015 557.28229,776.68378 C 553.90917,758.36222 551.49048,739.88263 549.39183,721.37511 C 546.14744,692.28742 543.72638,663.10871 542.22101,633.87834 C 540.91063,609.23272 539.8959,584.57517 538.9514,559.91358 C 538.68144,555.15762 538.43288,550.39365 537.85073,545.66568 L 559.83114,539.95659 z "
         id="path6983"
         style="color:#000000;fill:#e5c65a;fill-opacity:1;fill-rule:nonzero;stroke:none;stroke-width:80;stroke-linecap:butt;stroke-linejoin:miter;marker:none;marker-start:none;marker-mid:none;marker-end:none;stroke-miterlimit:4;stroke-dasharray:none;stroke-dashoffset:0;stroke-opacity:0.25465836;visibility:visible;display:inline;overflow:visible" />
      <path
         d="M 500.13787,597.35396 C 499.89863,602.11347 499.66562,606.87376 499.38786,611.63193 C 497.52113,638.70444 496.22984,665.8116 494.69468,692.90396 C 492.64892,729.992 488.96474,766.96994 484.45082,803.83284 C 483.13579,814.4711 481.65751,825.08786 480.11224,835.69478 L 459.95134,839.36912 C 461.68673,828.82136 463.32228,818.25725 464.77439,807.66637 C 469.75532,771.06718 473.64217,734.30251 475.38457,697.39569 C 476.72808,670.5152 477.649,643.6151 478.34239,616.71042 C 478.38459,612.16238 478.48804,607.60308 478.15746,603.06304 L 500.13787,597.35396 z "
         id="path6987"
         style="color:#000000;fill:#e5c65a;fill-opacity:1;fill-rule:nonzero;stroke:none;stroke-width:80;stroke-linecap:butt;stroke-linejoin:miter;marker:none;marker-start:none;marker-mid:none;marker-end:none;stroke-miterlimit:4;stroke-dasharray:none;stroke-dashoffset:0;stroke-opacity:0.25465836;visibility:visible;display:inline;overflow:visible" />
      <path
         d="M 582.35184,574.69106 C 592.99742,564.63972 595.37526,566.00291 605.73451,566.04761 C 613.83186,565.77149 621.30365,568.41256 628.47656,571.90488 C 636.91117,576.17545 643.05626,583.11736 648.47472,590.66944 C 652.27572,596.49989 655.56191,602.56044 660.56166,607.37872 C 662.26862,608.57428 664.32656,608.92286 666.27702,609.50953 L 651.72893,626.10769 C 648.70025,624.76617 645.66143,623.48041 643.20261,621.16899 C 637.60565,615.62214 633.96901,608.71018 629.65513,602.17303 C 625.14672,596.11479 620.2599,590.637 613.08716,587.7011 C 606.87464,585.40654 600.76717,584.21142 594.103,585.08632 C 582.14248,586.23998 593.77728,588.56922 604.88889,577.47423 L 582.35184,574.69106 z "
         id="path6999"
         style="color:#000000;fill:#e5c65a;fill-opacity:1;fill-rule:nonzero;stroke:none;stroke-width:80;stroke-linecap:butt;stroke-linejoin:miter;marker:none;marker-start:none;marker-mid:none;marker-end:none;stroke-miterlimit:4;stroke-dasharray:none;stroke-dashoffset:0;stroke-opacity:0.25465836;visibility:visible;display:inline;overflow:visible" />
      <path
         d="M 445.03468,449.27867 C 444.86976,452.65672 444.75962,456.03738 444.58941,459.41564 C 443.83764,471.59488 442.77385,483.75179 441.54884,495.89169 C 440.42706,507.22337 438.78796,518.49277 437.21783,529.76824 C 436.27989,536.53479 435.45513,543.31635 434.61063,550.09501 L 412.85316,554.35494 C 413.7605,547.5091 414.68839,540.66579 415.65467,533.82808 C 417.30357,522.65389 419.10058,511.49717 420.32379,500.26538 C 421.60607,488.37771 422.70122,476.46228 423.14308,464.50991 C 423.20248,461.33514 423.30766,458.15715 423.05769,454.98686 L 445.03468,449.27867 z "
         id="path7009"
         style="color:#000000;fill:#e5c65a;fill-opacity:1;fill-rule:nonzero;stroke:none;stroke-width:80;stroke-linecap:butt;stroke-linejoin:miter;marker:none;marker-start:none;marker-mid:none;marker-end:none;stroke-miterlimit:4;stroke-dasharray:none;stroke-dashoffset:0;stroke-opacity:0.25465836;visibility:visible;display:inline;overflow:visible" />
      <path
         d="M 486.36078,459.6102 C 486.19219,463.31739 485.66174,467.03962 485.29448,470.74649 C 483.95006,485.12658 482.12817,499.45547 480.3809,513.79048 C 478.49028,528.59653 476.8149,543.42727 475.25147,558.27093 C 474.3483,566.55069 473.58748,574.84438 472.84499,583.1397 L 451.29527,587.62725 C 452.22792,579.29073 452.99542,570.9362 454.00114,562.60752 C 455.72797,547.70993 457.47366,532.81492 459.41115,517.94281 C 461.15548,503.83554 462.89379,489.71184 463.79113,475.52088 C 463.95874,472.30216 464.05582,468.09536 464.38381,465.31839 L 486.36078,459.6102 z "
         id="path7011"
         style="color:#000000;fill:#e5c65a;fill-opacity:1;fill-rule:nonzero;stroke:none;stroke-width:80;stroke-linecap:butt;stroke-linejoin:miter;marker:none;marker-start:none;marker-mid:none;marker-end:none;stroke-miterlimit:4;stroke-dasharray:none;stroke-dashoffset:0;stroke-opacity:0.25465836;visibility:visible;display:inline;overflow:visible" />
      <path
         d="M 465.69773,660.501 C 465.47524,665.90941 463.90445,671.25803 462.71739,676.53315 C 458.98807,692.74257 455.63699,709.03512 452.51804,725.37214 C 449.63547,740.72822 446.82536,756.09788 444.47023,771.5445 C 442.53955,784.27006 441.3039,797.08476 440.37218,809.91784 C 439.72432,818.4814 439.61494,827.06938 439.59366,835.65298 L 418.21998,841.19046 C 418.26553,832.34473 418.4334,823.49454 419.09171,814.67008 C 420.08205,801.56224 421.36888,788.47363 423.28672,775.46565 C 425.65124,759.86289 428.4745,744.33778 431.46357,728.84312 C 434.59863,712.48948 437.96506,696.18245 441.2805,679.86488 C 442.09337,675.63565 443.09608,669.90888 443.72076,666.20919 L 465.69773,660.501 z "
         id="path6977"
         style="opacity:1;color:#000000;fill:#e5c65a;fill-opacity:1;fill-rule:nonzero;stroke:none;stroke-width:80;stroke-linecap:butt;stroke-linejoin:miter;marker:none;marker-start:none;marker-mid:none;marker-end:none;stroke-miterlimit:4;stroke-dasharray:none;stroke-dashoffset:0;stroke-opacity:0.25465836;visibility:visible;display:inline;overflow:visible" />
      <path
         d="M 449.4605,400.9954 C 449.58518,398.83686 449.59551,396.67254 449.63882,394.51112 C 449.81546,387.57296 448.45283,380.77785 446.8115,374.07994 C 444.99367,366.97943 441.48002,361.09025 436.01058,356.31003 C 433.51465,354.31534 430.54332,353.70883 427.56388,352.9299 L 441.8217,335.86686 C 445.94936,337.63293 450.02969,339.4505 453.36131,342.57626 C 460.02351,349.01729 464.70756,356.81267 467.21365,365.78118 C 469.30018,373.30675 470.81222,380.97829 471.24018,388.79362 C 471.29299,390.95797 471.31909,393.12534 471.43747,395.28721 L 449.4605,400.9954 z "
         id="path6993"
         style="opacity:1;color:#000000;fill:#e5c65a;fill-opacity:1;fill-rule:nonzero;stroke:none;stroke-width:80;stroke-linecap:butt;stroke-linejoin:miter;marker:none;marker-start:none;marker-mid:none;marker-end:none;stroke-miterlimit:4;stroke-dasharray:none;stroke-dashoffset:0;stroke-opacity:0.25465836;visibility:visible;display:inline;overflow:visible" />
      <path
         d="M 487.08665,399.90635 C 485.78748,396.98693 485.80638,393.75991 485.65157,390.62545 C 485.61088,383.52178 488.08019,377.21185 491.48745,371.13331 C 499.14902,360.6745 511.12505,354.01237 523.48484,350.55698 L 514.69244,370.90805 C 503.05609,377.15352 536.7506,357.60224 513.60967,372.52228 C 510.21717,376.254 507.81649,380.20578 507.38329,385.36808 C 507.37847,386.15004 507.71787,391.13745 507.26098,389.48859 L 487.08665,399.90635 z "
         id="path6995"
         style="opacity:1;color:#000000;fill:#e5c65a;fill-opacity:1;fill-rule:nonzero;stroke:none;stroke-width:80;stroke-linecap:butt;stroke-linejoin:miter;marker:none;marker-start:none;marker-mid:none;marker-end:none;stroke-miterlimit:4;stroke-dasharray:none;stroke-dashoffset:0;stroke-opacity:0.25465836;visibility:visible;display:inline;overflow:visible" />
      <path
         d="M 560.97738,393.02925 C 560.24464,397.8078 562.12695,402.63156 562.52873,407.44922 C 563.59651,429.41959 565.6393,451.29769 568.63776,473.08666 C 569.37188,478.41319 570.20927,483.72441 571.04765,489.03522 L 551.42383,495.70933 C 550.60839,490.3353 549.79324,484.96111 549.05087,479.57636 C 546.02808,457.73317 543.65143,435.82286 541.81001,413.84943 C 541.20183,408.75937 540.72483,403.59762 539.00039,398.73744 L 560.97738,393.02925 z "
         id="path7001"
         style="opacity:1;color:#000000;fill:#e5c65a;fill-opacity:1;fill-rule:nonzero;stroke:none;stroke-width:80;stroke-linecap:butt;stroke-linejoin:miter;marker:none;marker-start:none;marker-mid:none;marker-end:none;stroke-miterlimit:4;stroke-dasharray:none;stroke-dashoffset:0;stroke-opacity:0.25465836;visibility:visible;display:inline;overflow:visible" />
      <path
         d="M 447.16289,330.98054 C 447.34346,329.92964 447.08695,326.01724 447.03616,324.09222 C 446.91444,317.21439 447.8732,310.42342 449.25041,303.70912 C 450.68572,297.15334 453.7607,291.32325 457.43435,285.79072 L 479.59895,287.49141 C 475.9479,291.43165 472.87086,295.70903 471.24635,300.90987 C 469.60946,306.62311 468.55814,312.45695 468.63498,318.43084 C 468.7011,320.71338 468.61515,323.03394 469.1433,325.27145 L 447.16289,330.98054 z "
         id="path7015"
         style="opacity:1;color:#000000;fill:#e5c65a;fill-opacity:1;fill-rule:nonzero;stroke:none;stroke-width:80;stroke-linecap:butt;stroke-linejoin:miter;marker:none;marker-start:none;marker-mid:none;marker-end:none;stroke-miterlimit:4;stroke-dasharray:none;stroke-dashoffset:0;stroke-opacity:0.25465836;visibility:visible;display:inline;overflow:visible" />
    </g>
    <g
       id="g13311">
      <path
         id="path13302"
         d="M 518.57141,478.57144 C 515.33521,462.96261 497.90143,458.89121 487.01667,450.04392 C 471.95495,439.27789 454.39139,426.03004 434.71468,430.82238 C 416.46886,437.70569 411.86472,458.58348 402.58636,473.60452 C 378.73314,517.49281 355.41738,561.73353 335.1588,607.40621 C 327.2783,622.21772 321.044,641.69262 331.55305,656.85754 C 341.96236,672.14641 360.93936,676.87469 375.77422,686.34286 C 387.2585,692.32146 400.71205,676.71049 385.78199,670.84231 C 373.15462,662.033 358.45323,656.31047 346.95403,645.87936 C 339.85721,629.49842 366.05378,628.44166 373.25191,638.4133 C 385.37971,644.71896 397.54791,650.94699 409.76021,657.08741 C 427.01218,659.09703 420.03215,634.11072 406.88386,633.75614 C 392.91595,626.43691 377.7294,620.91934 365.21043,611.18964 C 355.24354,597.40982 376.30303,588.49766 385.85934,598.43461 C 395.26757,604.65175 406.09941,608.04906 415.45429,614.25007 C 424.72971,620.34015 433.88251,627.31967 444.89472,629.88945 C 459.60024,624.01458 446.15683,606.56724 436.20133,603.25045 C 423.70505,595.92403 411.03921,588.79487 397.665,583.17808 C 383.63313,586.96631 385.75658,560.0441 399.23644,569.47809 C 413.14438,574.48191 425.73754,582.41057 439.37414,588.03841 C 446.3767,598.87941 471.12434,592.46739 458.89158,579.04024 C 448.82209,568.42202 438.00157,557.11914 424.86748,550.6092 C 414.26253,550.27498 406.37031,535.87231 421.89207,541.31617 C 434.81159,544.61429 445.36562,553.61094 458.21452,557.10186 C 466.17334,563.70164 487.08234,573.74123 489.56569,557.65322 C 487.86431,544.0229 472.60002,540.23534 462.10347,535.18444 C 449.65328,529.12034 437.52962,521.62934 423.68287,519.22428 C 413.50279,508.29274 435.93669,507.79521 441.68644,513.20713 C 457.1628,517.22344 472.70082,521.4319 487.25638,528.16626 C 503.8386,523.15656 484.94249,506.17123 475.80292,503.52066 C 463.27485,495.24575 448.97004,489.03046 438.97899,477.44625 C 432.72214,460.04562 459.28021,460.24552 466.76523,470.43404 C 481.11251,478.10881 494.77966,488.92261 511.41129,490.73441 C 517.50273,490.72172 529.77503,482.80127 518.57141,478.57144 z "
         style="opacity:1;color:#000000;fill:#c1c1c1;fill-opacity:1;fill-rule:nonzero;stroke:none;stroke-width:80;stroke-linecap:butt;stroke-linejoin:miter;marker:none;marker-start:none;marker-mid:none;marker-end:none;stroke-miterlimit:4;stroke-dasharray:none;stroke-dashoffset:0;stroke-opacity:0.25465836;visibility:visible;display:inline;overflow:visible" />
      <path
         d="M 389.66199,692.91376 C 385.67117,691.45078 381.6613,689.95597 377.70112,688.38183 C 366.64773,683.7757 355.7405,678.7342 345.45755,672.57564 C 336.37619,667.22609 328.31262,660.35093 324.72944,650.1953 C 320.99585,636.50456 325.15015,622.11696 329.2431,608.98135 C 335.39742,590.05578 343.92375,572.02107 352.70438,554.19978 C 361.83669,535.83909 371.39035,517.69215 381.05235,499.60587 C 387.87133,486.92167 394.63247,474.20304 401.70772,461.65892 C 406.09822,453.86177 410.75425,446.21023 416.06991,439.00717 C 421.50999,431.55718 429.49326,426.24263 438.85395,425.44798 C 446.84709,425.32598 454.6538,427.29925 462.22566,429.67345 C 469.70615,432.17002 476.72929,435.7665 483.52014,439.73385 C 489.08046,443.04112 494.28533,446.89234 499.40689,450.83271 C 503.45327,453.95255 507.39556,457.20379 511.24437,460.56319 C 514.96092,463.94299 518.7465,467.24541 522.48544,470.60014 C 522.97933,471.03865 523.46049,471.49109 523.94802,471.93657 L 514.66447,478.98414 C 514.38043,478.72055 513.53009,477.9208 513.25127,477.67272 C 509.53912,474.33321 505.78535,471.04019 502.06638,467.70818 C 498.28082,464.45811 494.43661,461.27551 490.49196,458.21923 C 485.56199,454.42 480.54349,450.71526 475.15614,447.58097 C 468.67964,443.86764 461.96083,440.53281 454.80019,438.34312 C 447.8529,436.36056 440.59622,434.53207 433.33521,435.57783 C 421.02956,439.02665 443.92614,427.61045 427.54137,439.7741 C 421.99349,446.58615 417.31749,454.03182 412.89143,461.61069 C 405.62535,474.0882 398.71854,486.77107 391.77172,499.42771 C 381.97001,517.41525 372.32818,535.49254 363.21187,553.83917 C 354.54846,571.40911 346.10995,589.17374 339.96963,607.8108 C 336.17714,619.90367 332.23129,632.95548 335.08168,645.6425 C 338.48861,654.50306 345.52454,660.28323 353.63687,664.95391 C 363.70513,670.92354 374.37162,675.86075 385.31543,679.99604 C 388.4767,681.11169 393.21481,683.15795 396.0405,682.80053 L 389.66199,692.91376 z "
         id="path12423"
         style="opacity:1;color:#000000;fill:#000000;fill-opacity:1;fill-rule:nonzero;stroke:none;stroke-width:80;stroke-linecap:butt;stroke-linejoin:miter;marker:none;marker-start:none;marker-mid:none;marker-end:none;stroke-miterlimit:4;stroke-dasharray:none;stroke-dashoffset:0;stroke-opacity:0.25465836;visibility:visible;display:inline;overflow:visible" />
      <path
         d="M 389.62372,681.37196 C 388.82547,680.85738 390.39462,680.5872 390.7775,680.19744 C 393.4323,678.50372 395.78851,677.26698 384.15661,683.61469 C 383.38623,684.03509 385.78615,682.96173 386.59122,682.61231 C 387.48418,680.32959 385.98683,678.73486 384.61803,676.84759 C 381.21697,672.79467 377.05741,669.49746 372.79088,666.40869 C 368.79072,663.53208 364.50696,661.0966 360.20708,658.70548 C 356.47688,656.69566 352.73318,654.71369 349.06798,652.5877 C 345.81807,650.73657 343.19232,648.23562 340.95224,645.28066 C 338.8657,642.29713 338.19865,639.0164 338.33808,635.4549 C 339.31812,628.62623 346.56553,625.35925 353.02774,625.59025 C 357.56667,626.0614 361.88692,627.55987 366.15464,629.09423 C 370.91555,630.89268 375.57456,632.94579 380.15553,635.15955 C 384.92041,637.50719 389.58086,640.05838 394.24921,642.59039 C 398.18132,644.7594 402.15284,646.85319 406.14289,648.91306 C 409.37778,650.68537 412.72795,652.17267 416.2035,653.38113 C 421.29879,654.58186 427.67233,649.12284 414.63263,656.27533 C 416.9212,655.58949 416.81738,654.27579 417.02612,652.05251 C 416.87851,648.79351 415.51794,645.92677 413.95166,643.13626 C 412.02014,639.97994 409.30254,637.46893 406.53145,635.0676 C 403.6283,632.63618 400.36716,630.71283 397.07752,628.86375 C 393.55541,626.91837 389.85553,625.33167 386.14832,623.77999 C 382.57313,622.28327 378.87949,621.1044 375.18315,619.951 C 371.89456,618.96425 368.62115,617.9376 365.37202,616.8285 C 362.18876,615.89219 359.49112,614.22703 356.93658,612.1844 C 354.31502,609.6909 353.25956,606.6109 352.95411,603.10524 C 353.50508,595.5793 359.11281,594.27868 365.61168,591.02738 C 369.22625,590.26516 372.89941,590.53785 376.52586,591.02022 C 380.40224,591.6153 384.10364,592.9252 387.77167,594.26558 C 391.8163,595.78004 395.69516,597.6768 399.51088,599.6883 C 403.46416,601.8183 407.16466,604.36718 410.83961,606.93668 C 414.37978,609.45568 417.8235,612.10624 421.28428,614.73225 C 424.53027,617.22558 427.93221,619.49688 431.41154,621.64704 C 434.7713,623.71092 438.35064,625.33539 442.0608,626.64351 C 444.93284,627.636 447.29968,627.39211 449.9444,626.21848 C 446.21282,624.80782 442.18889,633.18292 445.75102,627.28781 C 445.47688,623.94053 443.37642,621.36448 441.34535,618.82838 C 437.76008,614.79653 433.41917,611.55034 429.00903,608.48258 C 424.65309,605.51971 420.03298,602.98059 415.41831,600.45075 C 411.52052,598.33177 407.56308,596.32577 403.61495,594.30308 C 400.55679,592.77 397.53936,591.15966 394.53791,589.51929 C 391.90841,588.0924 389.44168,586.39889 386.97907,584.70738 C 384.18413,583.07252 381.92849,580.93388 379.8873,578.4671 C 377.82406,575.42372 377.94911,572.634 379.10796,569.34391 C 383.00937,563.09392 389.74097,562.13203 396.19814,562.66035 C 400.60556,563.23869 404.86376,564.53093 409.06143,565.94841 C 413.1725,567.42727 417.16115,569.21702 421.1078,571.08367 C 424.8167,572.89679 428.4701,574.81955 432.10121,576.78275 C 435.77669,578.77141 439.42456,580.81033 443.08742,582.82201 C 446.66969,584.78023 450.24851,586.74535 453.90049,588.57043 C 456.71243,590.06131 459.52476,590.38164 462.59901,589.98661 C 462.32808,590.84838 465.67576,588.09771 464.87384,588.51361 C 463.00319,589.4838 461.26525,590.69087 459.46095,591.77949 C 459.91691,589.18412 457.93835,587.03004 456.37975,584.98245 C 453.70344,581.70937 450.54546,578.89107 447.31226,576.18656 C 444.31672,573.7742 441.08689,571.68625 437.7935,569.71036 C 434.60157,567.84028 431.32527,566.11865 428.04574,564.40843 C 424.78809,562.69868 421.5087,561.03101 418.2417,559.33917 C 415.06157,557.71553 411.92759,556.00517 408.79041,554.30088 C 405.70068,552.63026 402.61305,550.99941 399.77522,548.92648 C 396.78562,546.61777 395.96483,543.84706 395.93217,540.27466 C 397.75809,533.7827 405.61881,532.31685 411.63267,532.31498 C 416.23026,532.40436 420.6616,533.61037 425.03116,534.92953 C 429.90064,536.47535 434.59384,538.51345 439.23336,540.63888 C 443.76351,542.72525 448.21382,544.97909 452.66011,547.23701 C 456.89866,549.41708 461.13824,551.59517 465.39053,553.74829 C 469.52341,555.84236 473.69776,557.85055 477.92767,559.74009 C 481.27335,561.35427 484.73484,562.22997 488.40402,562.48938 C 487.87843,564.12243 494.72757,559.8383 493.19462,560.60847 C 491.32557,561.54749 489.54041,562.64494 487.71331,563.66318 C 489.70836,562.12171 489.05378,561.4633 487.71394,559.45475 C 484.74557,556.10652 481.02685,553.58147 477.33578,551.10659 C 473.28306,548.46127 468.99358,546.21159 464.71118,543.96774 C 460.68145,541.84372 456.6003,539.82137 452.49124,537.8561 C 448.89879,536.10241 445.28341,534.39679 441.64402,532.74296 C 438.35894,531.19197 434.99517,529.82503 431.61391,528.50162 C 428.45216,527.3739 425.29542,526.23369 422.15726,525.04204 C 419.02237,523.9925 416.67239,522.05766 414.51784,519.6505 C 412.44579,516.67445 412.69611,513.91808 413.78609,510.6839 C 417.07843,505.57755 423.41027,503.46303 429.19623,502.60185 C 432.84102,502.30339 436.42055,503.01821 439.95539,503.81013 C 443.86965,504.72535 447.66352,506.07008 451.44948,507.40504 C 455.36098,508.76778 459.18532,510.35404 462.99349,511.97845 C 467.12838,513.81048 471.24622,515.68057 475.38536,517.50303 C 479.15361,519.25045 483.09112,520.52784 487.06741,521.69563 C 490.20352,522.87224 492.91723,522.83468 495.96806,521.82366 C 494.7366,523.03555 489.70492,524.69982 491.16936,523.78299 C 489.62024,520.34789 486.70194,517.85151 483.93677,515.39169 C 480.44245,512.39262 476.62155,509.82138 472.7813,507.29489 C 469.21186,505.00869 465.58497,502.81448 461.98418,500.57843 C 458.43168,498.42605 454.97162,496.12789 451.53397,493.79821 C 448.27739,491.5965 445.04139,489.36557 441.88823,487.01817 C 438.65815,484.72716 436.11257,481.80394 433.96345,478.51617 C 431.9519,475.08699 431.8068,471.56747 432.69472,467.80635 C 435.00007,461.10391 442.64863,458.87003 449.14506,459.33585 C 453.23217,459.83414 457.0325,461.39575 460.75639,463.06484 C 464.90082,464.98478 468.78866,467.38932 472.67051,469.78171 C 477.01917,472.47962 481.3327,475.23335 485.67382,477.94331 C 489.38244,480.27316 493.17716,482.45647 497.04554,484.50785 C 499.95594,486.19333 503.02072,487.34382 506.30441,487.96198 C 508.65781,488.26587 510.79567,487.58506 512.97506,486.82558 C 520.72718,482.5497 503.34063,492.44377 511.53729,487.39069 C 513.34756,486.16522 514.16253,484.42392 514.97874,482.51498 C 515.34909,480.6141 514.42035,479.29281 513.54658,477.70365 C 512.83822,476.60168 511.98184,475.61052 511.16967,474.58786 L 520.97787,468.04618 C 521.91848,469.24795 522.88406,470.4328 523.70883,471.72034 C 525.25825,474.36674 526.60384,477.01549 526.54239,480.17836 C 526.14671,483.40381 525.36676,486.34242 523.21371,488.9056 C 519.17502,493.21039 513.89218,496.31717 508.06111,497.53401 C 505.0416,497.9488 502.05877,498.12286 499.08298,497.23976 C 495.45249,496.10871 492.00171,494.55613 488.69264,492.67268 C 484.75929,490.48453 480.87917,488.20444 477.08453,485.78183 C 472.77289,483.05766 468.48351,480.2975 464.12362,477.65054 C 460.4054,475.42137 456.66475,473.20805 452.6684,471.50407 C 449.49758,470.24217 446.26197,469.04124 442.792,469.19897 C 433.35696,471.2278 451.47367,465.20827 444.46295,467.24826 C 443.47528,469.24253 442.96853,470.59339 444.19414,472.75329 C 446.02128,475.38631 448.14623,477.68622 450.84232,479.48349 C 453.95812,481.73842 457.1234,483.923 460.30633,486.08227 C 463.69113,488.35665 467.112,490.57516 470.59799,492.69223 C 474.23966,494.94652 477.89807,497.17569 481.47216,499.53677 C 485.49266,502.24064 489.47361,505.01888 493.10805,508.23529 C 496.57686,511.41916 500.06488,514.71434 501.95663,519.12024 C 504.25445,527.62281 499.4675,529.57641 490.95034,532.46518 C 487.01789,532.61077 483.24725,531.93742 479.52249,530.62537 C 475.37339,529.3017 471.30438,527.76766 467.34898,525.93649 C 463.23896,524.10136 459.14385,522.23081 454.99594,520.48223 C 451.27442,518.93417 447.52559,517.45276 443.70823,516.15459 C 440.11007,514.93566 436.49467,513.73313 432.74977,513.04313 C 429.78312,512.57016 426.7943,512.19657 423.86058,513.08142 C 414.92116,516.82127 432.67016,509.12259 425.57484,511.51289 C 425.29198,511.94706 423.25401,512.22041 424.44363,513.24923 C 426.16272,514.58085 427.86973,515.78803 430.05927,516.35043 C 433.21744,517.51981 436.39279,518.64416 439.5312,519.86564 C 442.98635,521.26438 446.40607,522.74514 449.77704,524.33744 C 453.43038,526.03519 457.0659,527.77072 460.68425,529.54201 C 464.82003,531.57841 468.93333,533.65967 473.00608,535.81991 C 477.43886,538.18073 481.8685,540.56798 486.02944,543.39135 C 490.183,546.23283 494.28673,549.24161 497.53868,553.12279 C 500.08875,556.85159 501.72533,560.58167 499.42256,564.90814 C 495.25144,570.31958 488.40252,572.97671 481.7472,572.13595 C 477.61808,571.32151 473.65079,569.9992 469.8542,568.15616 C 465.58599,566.16236 461.35462,564.0921 457.15518,561.95678 C 452.89908,559.78976 448.64596,557.61695 444.39741,555.43515 C 440.0235,553.21634 435.6455,551.00072 431.16818,548.99565 C 426.71101,547.04478 422.22628,545.12105 417.52764,543.81737 C 413.6238,542.81853 409.65699,541.92586 405.5981,542.36286 C 400.33766,543.47444 394.47751,547.41929 407.75347,539.47598 C 408.09047,540.10097 408.12194,541.04871 408.76445,541.35096 C 411.51093,543.07337 414.37252,544.59955 417.21753,546.15755 C 420.32342,547.83809 423.43824,549.50171 426.5808,551.113 C 429.85071,552.80965 433.13407,554.48025 436.3921,556.19978 C 439.7549,557.98247 443.11901,559.76916 446.37035,561.75067 C 449.84916,563.94126 453.27209,566.23042 456.4183,568.88718 C 459.88907,571.89344 463.27471,575.01896 466.14884,578.61692 C 468.7825,582.13955 471.27808,585.76603 471.17619,590.34869 C 469.72711,596.83492 463.18727,600.24496 456.65871,600.13237 C 452.75998,599.77549 449.06787,598.78567 445.62929,596.83968 C 441.96081,594.90719 438.32296,592.91729 434.68813,590.92216 C 431.03583,588.90928 427.38658,586.89081 423.71343,584.9161 C 420.15055,583.02711 416.58179,581.14623 412.93572,579.42115 C 409.15194,577.70043 405.34232,576.01559 401.38152,574.73674 C 397.58703,573.58313 393.72489,572.45558 389.72708,572.41403 C 379.90556,573.51586 392.75101,573.21993 390.8953,570.18751 C 390.62947,570.75289 388.19312,570.96932 389.91777,572.26658 C 391.67327,574.09892 393.64228,575.62529 395.82249,576.96128 C 398.16381,578.52019 400.51973,580.05948 403.01076,581.37364 C 405.97007,582.97516 408.94302,584.55053 411.93498,586.09041 C 415.90609,588.14894 419.87398,590.215 423.78442,592.38743 C 428.54388,595.04181 433.28676,597.74685 437.744,600.89225 C 442.4919,604.31064 447.15576,607.92665 451.01666,612.35373 C 453.81011,615.88509 456.41676,619.57723 457.08537,624.14715 C 457.31983,632.12787 453.34104,634.0642 445.245,637.01865 C 441.4644,637.31286 437.80297,636.84946 434.26987,635.37081 C 430.31132,633.72888 426.45214,631.86262 422.82965,629.55696 C 419.23411,627.25297 415.70666,624.84707 412.33571,622.22111 C 408.93297,619.63342 405.53918,617.03115 402.03333,614.58331 C 398.52733,612.1665 394.98497,609.78584 391.1816,607.85333 C 387.54306,606.02509 383.84494,604.30535 379.98461,602.99014 C 376.65275,601.87096 373.27904,600.82221 369.74833,600.58479 C 366.82933,600.52174 363.89299,600.41961 361.29481,601.96908 C 368.65185,598.15076 368.95699,596.86679 364.47988,600.57432 C 364.53787,602.38964 364.52626,603.62938 366.19533,604.90237 C 368.37581,606.22129 370.64446,607.31247 373.12147,608.00804 C 376.34041,609.0544 379.57808,610.041 382.8035,611.06768 C 386.63208,612.334 390.4503,613.64021 394.14555,615.26438 C 398.01302,616.94613 401.86431,618.67776 405.52064,620.7907 C 409.08368,622.88057 412.59714,625.07556 415.7053,627.81835 C 418.86924,630.68744 421.9314,633.70134 424.14091,637.3968 C 426.12363,640.93856 427.85013,644.60688 428.28226,648.7016 C 428.5336,652.33303 428.46625,655.85864 426.14598,658.87809 C 418.91213,662.92187 415.84142,665.02388 408.47181,662.19232 C 404.82821,660.6961 401.29184,658.9739 397.82358,657.1044 C 393.81844,655.01144 389.84829,652.8546 385.89374,650.6675 C 381.31635,648.17267 376.74371,645.66038 372.02702,643.43506 C 367.57039,641.37724 363.06266,639.41435 358.42667,637.79226 C 354.73173,636.59241 350.93717,635.26209 347.00349,635.67037 C 340.43623,639.3219 356.7668,629.92726 349.99989,633.68829 C 349.71692,635.73811 349.50522,637.28733 350.97269,639.12879 C 352.89251,641.32021 354.96886,643.24982 357.61296,644.59221 C 361.26039,646.65808 364.96667,648.61585 368.62896,650.6551 C 373.08154,653.19682 377.48859,655.83032 381.60168,658.90309 C 386.22029,662.36474 390.72203,666.05287 394.40212,670.53097 C 396.90912,673.87546 398.87658,677.27485 398.37063,681.59197 C 396.56619,687.38305 392.92917,688.94243 386.4719,691.24684 C 385.34676,691.49306 384.35743,691.98856 383.24521,691.48519 L 389.62372,681.37196 z "
         id="path12427"
         style="opacity:1;color:#000000;fill:#000000;fill-opacity:1;fill-rule:nonzero;stroke:none;stroke-width:80;stroke-linecap:butt;stroke-linejoin:miter;marker:none;marker-start:none;marker-mid:none;marker-end:none;stroke-miterlimit:4;stroke-dasharray:none;stroke-dashoffset:0;stroke-opacity:0.25465836;visibility:visible;display:inline;overflow:visible" />
    </g>
    <path
       style="opacity:1;color:#000000;fill:#f9cc91;fill-opacity:1;fill-rule:nonzero;stroke:none;stroke-width:80;stroke-linecap:butt;stroke-linejoin:miter;marker:none;marker-start:none;marker-mid:none;marker-end:none;stroke-miterlimit:4;stroke-dasharray:none;stroke-dashoffset:0;stroke-opacity:0.25465836;visibility:visible;display:inline;overflow:visible"
       d="M 333.02682,550.83727 C 333.41906,556.79506 332.68936,563.04812 334.94721,568.70882 C 337.23033,572.43557 341.33041,574.405 344.76385,576.86625 C 349.08833,578.63212 353.85819,577.278 358.18417,576.23311 C 364.81153,574.01834 370.53603,569.83837 376.7699,566.80497 C 382.22111,562.56027 383.7244,555.37809 385.31547,549.03058 C 386.65564,542.51166 387.80439,535.94128 389.08179,529.41871 C 389.22021,523.03414 384.93246,517.43787 380.12595,513.67353 C 375.20099,510.39316 368.93633,511.35356 363.60237,512.9518 C 359.19261,514.22056 354.71602,515.33652 350.12596,515.63564 C 345.04461,516.50078 340.11194,519.57157 338.09514,524.47175 C 334.55041,530.99281 334.58349,538.59336 334.33237,545.79864 C 334.1248,547.52524 333.7386,549.24444 333.02682,550.83727 z "
       id="path6956" />
    <path
       style="opacity:1;color:#000000;fill:#f6b156;fill-opacity:1;fill-rule:nonzero;stroke:none;stroke-width:80;stroke-linecap:butt;stroke-linejoin:miter;marker:none;marker-start:none;marker-mid:none;marker-end:none;stroke-miterlimit:4;stroke-dasharray:none;stroke-dashoffset:0;stroke-opacity:0.25465836;visibility:visible;display:inline;overflow:visible"
       id="path4092"
       d="M 342.86908,544.54839 C 342.77581,546.05807 342.77758,547.5724 342.74557,549.08429 C 342.40826,553.05541 343.18917,556.84416 344.14568,560.64093 C 346.33023,565.02008 349.8162,565.52793 354.3028,565.9627 C 380.30167,557.18046 344.49181,572.84619 357.06873,566.40854 C 363.70261,562.29595 367.97846,556.09554 371.63884,549.38696 C 374.67379,543.57106 375.80249,537.3483 376.05964,530.89341 C 375.96707,526.53305 374.2379,523.32231 371.55766,520.12865 C 369.05391,518.04363 366.76642,518.50481 363.8203,518.75304 C 360.61146,519.45105 357.84926,521.18366 355.08359,522.86245 C 377.48775,510.99487 366.64831,516.13597 358.7121,521.77804 C 355.26446,524.26562 352.11381,527.09302 349.05865,530.03573 C 348.42504,530.60404 347.89136,531.26872 347.30859,531.8843 L 324.99715,530.30181 C 325.59841,529.49063 326.17788,528.66392 326.80053,527.86879 C 329.86003,524.28442 333.01366,520.77335 336.7213,517.83359 C 344.73029,511.22195 352.50619,505.63658 362.6038,501.77203 C 366.92875,500.35427 371.25072,499.20049 375.85851,499.84421 C 381.19726,501.01774 385.9583,502.86564 389.7095,507.09214 C 393.85892,512.2509 396.6865,517.89262 397.36297,524.59443 C 397.80154,532.72772 396.83718,540.67594 393.65938,548.26938 C 390.10087,556.62343 385.56927,564.50052 378.7385,570.64086 C 368.23315,579.65711 355.07154,586.3909 341.15856,583.83859 C 333.53762,581.40793 327.33523,577.70443 323.94492,570.0782 C 322.18198,565.10882 321.01838,560.04568 321.01216,554.72923 C 320.98024,553.23875 320.98279,551.74565 320.88866,550.25746 L 342.86908,544.54839 z " />
    <path
       style="opacity:1;color:#000000;fill:#000000;fill-opacity:1;fill-rule:nonzero;stroke:none;stroke-width:80;stroke-linecap:butt;stroke-linejoin:miter;marker:none;marker-start:none;marker-mid:none;marker-end:none;stroke-miterlimit:4;stroke-dasharray:none;stroke-dashoffset:0;stroke-opacity:0.25465836;visibility:visible;display:inline;overflow:visible"
       id="path7021"
       d="M 741.90543,403.8242 C 744.07031,396.85431 744.88101,382.77075 745.54913,373.74032 C 747.66812,338.44432 745.74663,303.03714 743.36753,267.80196 C 741.77228,240.01103 738.12814,212.40323 735.61789,184.69496 C 733.69395,170.1777 734.73845,156.5223 741.38714,143.44134 C 751.26707,128.31126 763.30431,114.71281 774.31748,100.39873 C 783.4515,88.508425 792.05588,76.188709 802.18929,65.110802 C 815.77615,50.383397 828.28237,48.645147 838.37172,63.896458 C 844.71312,75.240777 850.22297,87.026896 856.21609,98.558751 C 861.9932,109.61057 868.26269,120.3924 874.39766,131.24648 C 879.66185,139.70281 882.41159,148.5769 882.0741,158.5091 C 880.59077,172.33158 874.85013,185.17962 869.85626,198.00958 C 860.38888,222.19518 852.62441,246.99378 845.80524,272.04259 C 839.01071,297.22439 833.24907,322.67004 828.08725,348.23253 C 825.0647,363.13231 822.42094,378.10689 820.34876,393.16852 C 819.72884,397.67928 819.26094,402.20719 818.86787,406.74239 L 797.32823,411.47671 C 797.71939,406.71801 798.20092,401.96884 798.90744,397.24471 C 801.15634,381.89397 804.06251,366.65151 807.33677,351.48717 C 812.85924,325.73716 818.86593,300.08964 825.63119,274.63589 C 832.36216,249.37167 839.82544,224.30815 848.76202,199.7266 C 853.1464,187.68407 858.22719,175.7379 860.57343,163.08648 C 861.27065,155.17444 859.44344,148.50037 855.1498,141.68345 C 849.12212,130.67589 842.95265,119.74466 837.14869,108.61589 C 831.30838,97.398631 825.86962,85.946103 819.42985,75.059043 C 807.7526,60.409299 835.56794,64.916469 823.92801,68.230733 C 812.58287,77.626556 804.52991,90.256625 795.42192,101.68498 C 784.66316,115.64341 773.4769,129.28236 763.07534,143.5054 C 756.24976,154.42824 754.44542,165.74085 755.9212,178.62658 C 757.61844,206.5315 760.9328,234.32182 762.31464,262.25143 C 764.49125,297.79279 766.40231,333.40531 765.8119,369.02487 C 765.45906,379.8699 764.56624,390.72971 764.48365,401.56614 L 741.90543,403.8242 z " />
  </g>
</svg>
