<?xml version="1.0" encoding="UTF-8" standalone="no"?>
<!-- Created with Inkscape (http://www.inkscape.org/) -->
<svg
   xmlns:dc="http://purl.org/dc/elements/1.1/"
   xmlns:cc="http://web.resource.org/cc/"
   xmlns:rdf="http://www.w3.org/1999/02/22-rdf-syntax-ns#"
   xmlns:svg="http://www.w3.org/2000/svg"
   xmlns="http://www.w3.org/2000/svg"
   xmlns:xlink="http://www.w3.org/1999/xlink"
   xmlns:sodipodi="http://inkscape.sourceforge.net/DTD/sodipodi-0.dtd"
   xmlns:inkscape="http://www.inkscape.org/namespaces/inkscape"
   width="1000"
   height="1000"
   id="svg2"
   sodipodi:version="0.32"
   inkscape:version="0.43"
   version="1.0"
   sodipodi:docbase="/home/kkowal/tale/art/monster"
   sodipodi:docname="schmeterling.svg"
   inkscape:export-filename="/home/kkowal/tale/art/monster/schmeterling.png"
   inkscape:export-xdpi="90"
   inkscape:export-ydpi="90">
  <defs
     id="defs4">
    <linearGradient
       id="linearGradient9298">
      <stop
         style="stop-color:#000000;stop-opacity:1;"
         offset="0"
         id="stop9300" />
      <stop
         style="stop-color:#ffffff;stop-opacity:0;"
         offset="1"
         id="stop9302" />
    </linearGradient>
    <linearGradient
       inkscape:collect="always"
       xlink:href="#linearGradient9298"
       id="linearGradient9304"
       x1="545.10919"
       y1="786.13123"
       x2="356.24103"
       y2="464.70264"
       gradientUnits="userSpaceOnUse" />
  </defs>
  <sodipodi:namedview
     id="base"
     pagecolor="#ffffff"
     bordercolor="#666666"
     borderopacity="1.0"
     inkscape:pageopacity="0.0"
     inkscape:pageshadow="2"
     inkscape:zoom="0.7"
     inkscape:cx="156.21233"
     inkscape:cy="464.02677"
     inkscape:document-units="px"
     inkscape:current-layer="layer1"
     inkscape:window-width="1600"
     inkscape:window-height="1125"
     inkscape:window-x="0"
     inkscape:window-y="25" />
  <metadata
     id="metadata7">
    <rdf:RDF>
      <cc:Work
         rdf:about="">
        <dc:format>image/svg+xml</dc:format>
        <dc:type
           rdf:resource="http://purl.org/dc/dcmitype/StillImage" />
      </cc:Work>
    </rdf:RDF>
  </metadata>
  <g
     inkscape:label="Layer 1"
     inkscape:groupmode="layer"
     id="layer1">
    <path
       style="opacity:1;color:#000000;fill:#ff7100;fill-opacity:0.84472046;fill-rule:nonzero;stroke:none;stroke-width:3.9000001;stroke-linecap:butt;stroke-linejoin:miter;marker:none;marker-start:none;marker-mid:none;marker-end:none;stroke-miterlimit:4;stroke-dasharray:none;stroke-dashoffset:0;stroke-opacity:1;visibility:visible;display:inline;overflow:visible"
       id="path5789"
       d="M 241.64221,316.09368 C 233.97486,318.52234 195.04596,350.09588 229.74284,321.32905 C 208.29605,338.64283 190.80491,362.42725 197.01142,391.13113 C 211.50884,430.18493 257.82738,440.03026 294.97426,437.31052 C 353.58814,424.24582 366.08924,417.09481 381.20799,374.77898 C 391.22994,340.00589 375.68802,304.92167 339.93498,295.31291 C 292.30632,287.60773 248.29105,314.38439 213.5156,344.10676 C 216.2881,341.90125 219.06061,339.69575 221.83312,337.49024 L 197.04564,341.445 C 205.18836,334.46922 213.33108,327.49345 221.47381,320.51768 C 259.32867,290.22334 306.70582,264.01877 356.79389,273.82824 C 396.93608,286.04666 415.96794,325.51124 406.52389,365.75057 C 390.16152,419.63844 335.95764,453.4513 281.83325,458.92375 C 239.40728,460.9368 191.13211,448.18698 172.63489,405.87134 C 163.19192,374.64884 177.74965,346.6879 200.80925,325.69539 C 215.1054,313.75425 238.48182,289.229 259.77073,287.63761 L 241.64221,316.09368 z " />
    <g
       id="g5783"
       transform="translate(-71.42857,68.57143)">
      <path
         sodipodi:nodetypes="ccccccc"
         id="path4891"
         d="M 341.43155,463.60901 C 225.70475,455.45263 89.857994,282.73396 233.77476,212.75398 C 419.01414,99.484571 602.89228,182.27269 567.15695,301.67499 C 648.42558,277.73103 906.64667,239.9673 860.12236,385.84997 C 795.96805,523.92173 458.36668,511.75276 572.35348,471.01657 C 901.14225,617.4361 706.28346,580.48293 587.0877,568.29789 C 495.17023,538.06573 440.04367,474.05517 341.43155,463.60901 z "
         style="opacity:1;color:#000000;fill:#eb4159;fill-opacity:0.62732915;fill-rule:nonzero;stroke:none;stroke-width:3.9000001;stroke-linecap:butt;stroke-linejoin:miter;marker:none;marker-start:none;marker-mid:none;marker-end:none;stroke-miterlimit:4;stroke-dasharray:none;stroke-dashoffset:0;stroke-opacity:1;visibility:visible;display:inline;overflow:visible" />
      <path
         d="M 351.52753,485.94921 C 346.6287,485.40018 341.79636,484.31922 336.98093,483.27307 C 306.0686,476.41225 277.78634,461.80528 251.71873,444.19212 C 214.12108,416.97214 178.35577,383.17507 161.16801,339.1533 C 141.96904,282.24759 181.45707,241.70249 221.53736,207.77735 C 268.41391,173.3445 325.75358,158.30397 382.72808,151.50487 C 431.61336,146.51549 482.3566,149.3637 527.05942,171.28897 C 557.21153,186.77712 574.28477,214.04304 578.82716,247.00809 C 580.75086,262.164 578.94393,277.4157 576.84394,292.39296 C 573.10812,284.85631 597.20923,282.48009 603.34711,280.76772 C 632.29677,272.3897 662.16661,268.15254 692.1427,265.69585 C 735.00102,262.7646 778.00249,266.49346 820.07655,274.81877 C 848.5771,280.54779 878.38605,291.6258 886.43185,322.32539 C 891.46705,356.88093 872.25208,389.76043 851.50081,415.80173 C 819.95621,453.60024 778.29901,480.01207 730.75855,491.76917 C 687.61361,500.7086 643.21825,500.85477 599.37362,498.89654 C 578.78502,498.73738 558.35191,494.90399 537.81799,494.31399 C 563.80513,456.2482 561.76951,468.95486 601.22273,481.63635 C 635.30252,492.58493 668.88282,505.01844 702.20882,518.0658 C 723.1162,526.82482 745.276,534.14547 763.44287,548.08333 C 780.89203,563.66256 770.05164,584.08084 744.16382,589.17023 C 723.30758,591.99488 702.08021,590.67228 681.13213,589.57709 C 647.05969,587.84849 613.07431,584.8057 579.10068,581.7515 C 566.61484,580.61502 554.12354,579.54022 541.62739,578.52362 L 558.3095,554.29883 C 570.52371,555.82197 582.7445,557.29554 594.98433,558.59957 C 628.79965,562.1691 662.73002,564.84144 696.72938,565.72811 C 716.73166,566.05114 738.8278,567.72228 757.58466,559.77826 C 715.84244,593.96783 749.77939,580.69113 740.26908,569.84958 C 724.1929,555.6838 703.38649,548.22262 684.18974,539.38685 C 651.35586,525.6909 617.84609,513.52482 583.53121,504.07027 C 574.38702,501.60228 565.21543,499.23259 555.95908,497.2171 C 550.77581,496.08849 545.48991,494.92786 540.19342,494.46741 C 539.33748,494.393 537.14384,495.05549 537.61908,494.33972 C 543.79018,485.04516 550.47818,476.10435 556.90773,466.98667 C 557.0294,467.12913 557.15108,467.27158 557.27275,467.41403 C 575.57667,473.61644 595.63425,473.55985 614.62036,476.01577 C 657.40313,479.15747 701.06085,479.04934 742.84747,468.27535 C 798.30815,452.10269 801.34327,443.37245 824.96816,421.52021 C 844.71459,398.44713 863.46958,369.15602 860.82867,337.48211 C 855.48875,310.81781 827.17747,302.30674 803.83509,296.64464 C 762.67852,287.46487 720.25801,284.47147 678.28044,289.17941 C 648.2708,292.56703 618.50352,298.05475 589.81116,307.66858 C 576.77102,311.77198 557.73152,323.39301 548.34469,308.65485 C 545.71244,293.01191 556.46627,276.9416 552.92548,260.86116 C 550.69546,230.76583 535.99025,206.01035 508.85756,191.63655 C 466.40044,169.87697 417.59515,167.17391 370.84094,172.03312 C 314.62653,178.99846 258.20861,195.24882 213.57873,231.52914 C 216.29141,229.18081 218.21234,225.25373 221.71677,224.48414 C 228.2839,223.04197 211.75878,233.55283 207.25237,238.54276 C 185.85094,262.2405 174.3525,293.00944 183.55075,324.54811 C 198.57629,367.42165 232.88873,400.53333 269.82366,425.47661 C 295.75648,441.63393 324.37326,454.6938 355.11337,457.70859 C 359.99162,458.04388 364.85041,458.17859 369.69549,457.43123 L 351.52753,485.94921 z "
         id="path4889"
         style="opacity:1;color:#000000;fill:#ffea00;fill-opacity:0.72049692;fill-rule:nonzero;stroke:none;stroke-width:3.9000001;stroke-linecap:butt;stroke-linejoin:miter;marker:none;marker-start:none;marker-mid:none;marker-end:none;stroke-miterlimit:4;stroke-dasharray:none;stroke-dashoffset:0;stroke-opacity:1;visibility:visible;display:inline;overflow:visible" />
    </g>
    <path
       style="opacity:1;color:#000000;fill:#ff7100;fill-opacity:0.84472046;fill-rule:nonzero;stroke:none;stroke-width:3.9000001;stroke-linecap:butt;stroke-linejoin:miter;marker:none;marker-start:none;marker-mid:none;marker-end:none;stroke-miterlimit:4;stroke-dasharray:none;stroke-dashoffset:0;stroke-opacity:1;visibility:visible;display:inline;overflow:visible"
       id="path6668"
       d="M 604.35792,446.43432 C 600.176,443.37104 592.34623,444.69181 586.48586,445.39331 C 568.51901,443.77133 519.67495,482.15231 556.25595,453.94872 C 560.11435,450.97393 549.52506,461.06101 546.83284,465.12162 C 532.71442,490.68825 562.39723,500.10565 582.60978,501.89003 C 603.92183,502.82389 624.89491,496.92841 642.77064,485.31894 C 646.35187,482.99309 656.37816,474.9987 653.05349,477.67851 C 624.67656,500.55135 639.67329,488.71725 645.57278,482.34947 C 659.60581,465.90788 650.8784,452.80792 631.85313,449.20653 C 609.67878,446.50186 587.10215,451.84273 567.16761,461.50974 L 579.79747,433.66507 C 601.95305,425.37544 626.23906,421.25577 649.74307,425.28221 C 674.48416,431.23187 689.81974,452.19913 674.46357,476.11028 C 649.59175,509.58092 607.62731,527.59843 566.59557,525.15639 C 539.09423,522.00837 505.82264,506.48014 518.26255,473.20574 C 533.1262,442.06717 569.10403,423.92037 601.91748,418.76484 C 606.80027,418.17211 625.14289,419.40855 622.52588,417.91633 L 604.35792,446.43432 z " />
    <path
       style="opacity:1;color:#000000;fill:#636363;fill-opacity:1;fill-rule:nonzero;stroke:none;stroke-width:3.9000001;stroke-linecap:butt;stroke-linejoin:miter;marker:none;marker-start:none;marker-mid:none;marker-end:none;stroke-miterlimit:4;stroke-dasharray:none;stroke-dashoffset:0;stroke-opacity:1;visibility:visible;display:inline;overflow:visible"
       d="M 497.30462,449.67199 C 393.49179,432.02012 231.6311,464.58872 226.53879,580.08686 C 225.89178,722.05401 532.78239,799.53172 551.40445,657.24152 C 578.89808,588.65815 572.13855,492.10221 497.30462,449.67199 z "
       id="path1346"
       sodipodi:nodetypes="cccc" />
    <path
       sodipodi:nodetypes="cccc"
       id="path8423"
       d="M 497.30462,449.67199 C 393.49179,432.02012 231.6311,464.58872 226.53879,580.08686 C 225.89178,722.05401 532.78239,799.53172 551.40445,657.24152 C 578.89808,588.65815 572.13855,492.10221 497.30462,449.67199 z "
       style="opacity:1;color:#000000;fill:url(#linearGradient9304);fill-opacity:1.0;fill-rule:nonzero;stroke:none;stroke-width:3.9000001;stroke-linecap:butt;stroke-linejoin:miter;marker:none;marker-start:none;marker-mid:none;marker-end:none;stroke-miterlimit:4;stroke-dasharray:none;stroke-dashoffset:0;stroke-opacity:1;visibility:visible;display:inline;overflow:visible" />
    <path
       style="opacity:1;color:#000000;fill:#000000;fill-opacity:1;fill-rule:nonzero;stroke:none;stroke-width:3.9000001;stroke-linecap:butt;stroke-linejoin:miter;marker:none;marker-start:none;marker-mid:none;marker-end:none;stroke-miterlimit:4;stroke-dasharray:none;stroke-dashoffset:0;stroke-opacity:1;visibility:visible;display:inline;overflow:visible"
       id="path1324"
       d="M 485.82407,462.4415 C 475.72975,459.05185 465.16232,458.28594 454.80007,457.26273 C 421.88523,454.17384 388.79399,454.16993 355.98818,459.10639 C 326.89723,463.58384 298.36668,474.05551 273.22608,494.27711 C 256.52335,511.40863 249.98122,512.59779 236.91958,552.35837 C 227.6039,581.11766 232.31331,609.5779 245.71521,634.30778 C 268.38058,671.27852 303.82783,688.23659 337.47373,700.30266 C 375.54145,713.0794 414.85823,717.67843 454.03103,718.6101 C 475.15817,718.9115 496.31138,718.02153 517.34367,715.27933 C 518.15138,715.16613 518.9591,715.05293 519.76682,714.93972 L 510.95642,734.29473 C 510.17189,734.329 509.38736,734.36328 508.60284,734.39755 C 487.97265,735.19823 467.32194,734.91165 446.71182,733.41457 C 407.58162,730.53844 368.34716,725.34046 330.26527,712.61761 C 295.52698,700.14973 258.79286,683.26452 234.47525,646.27918 C 219.55321,620.35583 213.2877,589.92739 222.48978,558.58408 C 233.33804,523.06549 253.74954,495.77139 278.62798,476.4813 C 304.43841,457.32495 333.3011,447.86482 362.62798,444.1113 C 395.95007,439.86452 429.42738,440.30613 462.86411,441.02732 C 474.34649,441.21355 485.90076,441.08025 497.33486,442.49829 L 485.82407,462.4415 z " />
    <path
       style="opacity:1;color:#000000;fill:#000000;fill-opacity:1;fill-rule:nonzero;stroke:none;stroke-width:3.9000001;stroke-linecap:butt;stroke-linejoin:miter;marker:none;marker-start:none;marker-mid:none;marker-end:none;stroke-miterlimit:4;stroke-dasharray:none;stroke-dashoffset:0;stroke-opacity:1;visibility:visible;display:inline;overflow:visible"
       id="path1326"
       d="M 498.44812,439.6218 C 504.56484,445.55633 511.44463,450.0272 517.99184,455.07055 C 537.48882,469.54288 554.41843,488.80495 566.53158,513.79534 C 580.84719,544.42519 580.87372,580.37571 574.3443,614.31073 C 567.09187,649.11058 551.8606,679.34195 532.52035,704.3673 C 523.56676,715.62382 513.9102,725.80149 503.71947,734.98909 L 509.12592,715.80186 C 512.81498,712.44378 523.11115,701.07503 519.9493,705.27267 C 519.01515,706.51287 507.96582,718.81243 517.97799,707.6352 C 537.66093,684.06161 553.37288,655.03404 560.98685,621.0374 C 567.6326,589.04403 568.22528,554.94818 554.73887,525.76431 C 543.07395,501.67888 526.49737,483.37522 507.09656,470.90602 C 502.7451,468.07417 489.07551,459.19044 488.24541,460.84582 L 498.44812,439.6218 z " />
    <path
       style="opacity:1;color:#000000;fill:#ff7100;fill-opacity:1;fill-rule:nonzero;stroke:none;stroke-width:3.9000001;stroke-linecap:butt;stroke-linejoin:miter;marker:none;marker-start:none;marker-mid:none;marker-end:none;stroke-miterlimit:4;stroke-dasharray:none;stroke-dashoffset:0;stroke-opacity:1;visibility:visible;display:inline;overflow:visible"
       d="M 302.85715,543.57141 C 323.45932,535.45684 343.10852,524.9889 363.66726,516.88045 C 374.45533,522.46436 362.40479,537.58019 360.41556,546.00654 C 352.81639,566.23246 339.74175,583.77077 330.76021,603.31545 C 320.23969,614.46858 309.56769,599.36379 308.07762,588.99252 C 301.77067,576.7853 299.75724,563.14138 298.89463,549.63096 C 298.9299,547.12813 300.21411,544.28695 302.85715,543.57141 z "
       id="path7543" />
    <path
       style="opacity:1;color:#000000;fill:#000000;fill-opacity:1;fill-rule:nonzero;stroke:none;stroke-width:3.9000001;stroke-linecap:butt;stroke-linejoin:miter;marker:none;marker-start:none;marker-mid:none;marker-end:none;stroke-miterlimit:4;stroke-dasharray:none;stroke-dashoffset:0;stroke-opacity:1;visibility:visible;display:inline;overflow:visible"
       id="path1340"
       d="M 298.1987,534.34719 C 299.34159,533.73638 301.30164,533.19277 302.76779,532.72395 C 313.40986,529.15302 323.87509,524.6389 334.2644,519.9488 C 345.10968,515.24309 355.58985,509.23428 366.26791,503.93871 C 378.12181,499.03839 377.0588,514.61555 373.57459,524.56296 C 366.78165,542.26948 358.18324,558.64979 349.46552,574.76592 C 341.2814,591.91375 331.62746,605.06268 319.85296,617.89082 C 312.80607,619.5969 309.72275,610.77056 307.4069,603.54857 C 305.16945,596.0416 303.26698,588.37056 301.16125,580.79866 C 299.39608,574.42923 297.41964,568.16935 295.33286,561.97473 C 293.97754,557.88491 292.47293,553.89175 290.82701,549.99644 L 305.71487,535.35791 C 307.46422,539.57663 308.96526,543.95897 310.38559,548.38905 C 312.43559,554.78765 314.42257,561.22475 316.24471,567.74393 C 318.32286,575.22724 320.09209,582.85672 322.30482,590.27408 C 322.9855,592.34031 325.36279,601.25317 326.01325,595.21772 C 300.99535,622.89571 329.6755,591.10322 333.45592,579.77181 C 342.21972,564.3973 350.68707,548.55417 357.23557,531.3055 C 360.01434,523.34807 364.30732,520.60521 358.5782,525.10508 C 348.03461,529.90759 337.57483,535.0325 327.00326,539.72934 C 316.20916,544.56138 305.41263,549.3906 294.55837,553.98044 C 292.41129,554.82563 290.24368,555.92597 287.99599,555.57121 L 298.1987,534.34719 z " />
    <g
       id="g5779"
       transform="translate(-73.44888,70.59173)">
      <path
         id="path5773"
         d="M 456.58896,398.95923 C 531.5186,412.93569 548.38939,493.27081 567.99498,553.4107 C 579.03996,588.972 685.26964,679.27832 677.22445,604.48397 C 659.6263,575.28406 581.43032,489.31071 667.15123,527.8239 C 745.18037,551.14841 827.42288,577.5741 910.13658,569.06602 C 995.91756,563.50588 993.067,443.72989 937.8968,400.64785 C 890.59161,338.89043 809.08643,331.63718 737.40828,330.96246 C 664.21858,310.19012 789.22076,235.4668 745.38528,180.21348 C 712.3821,99.182948 611.54871,70.330249 531.79817,80.77119 C 468.89688,87.781701 421.80333,136.5525 416.37544,199.30302 C 398.83087,266.76818 422.62164,342.23585 456.58896,398.95923 L 456.58896,398.95923 z "
         style="opacity:1;color:#000000;fill:#eb4159;fill-opacity:0.62732915;fill-rule:nonzero;stroke:none;stroke-width:3.9000001;stroke-linecap:butt;stroke-linejoin:miter;marker:none;marker-start:none;marker-mid:none;marker-end:none;stroke-miterlimit:4;stroke-dasharray:none;stroke-dashoffset:0;stroke-opacity:1;visibility:visible;display:inline;overflow:visible" />
      <path
         d="M 448.46906,416.44398 C 449.62887,412.74806 442.19153,395.40118 439.40204,388.43518 C 424.27319,352.249 410.32302,315.48958 401.81142,277.1297 C 392.39403,233.2634 395.33235,187.87189 417.13053,148.20679 C 443.93406,104.60339 488.90193,76.237823 538.1784,65.327608 C 586.01389,56.564223 634.65667,68.862259 677.07159,91.165053 C 714.13602,112.17502 744.97452,144.30004 760.68071,184.20046 C 772.62214,216.31689 765.48417,248.15918 747.49739,276.19449 C 740.86678,293.85908 657.41739,360.97304 706.22279,320.51061 C 692.10211,309.73464 714.2761,315.3656 727.30937,315.06246 C 766.59145,313.86327 806.16952,315.24153 844.54208,324.29489 C 886.68858,334.73721 922.77769,359.41565 951.20428,391.73098 C 974.38721,419.79388 991.82539,453.19207 995.44357,489.76408 C 998.39939,527.56973 975.74981,556.50615 940.96106,571.3784 C 902.24092,584.48577 859.91747,581.40301 819.83714,577.72685 C 779.36368,574.15561 739.47899,565.99858 700.88499,553.35753 C 671.02916,543.6733 642.65422,530.10324 613.33663,519.0257 C 579.64155,519.0738 613.97615,488.17067 621.15093,504.31534 C 633.1681,523.78808 647.2289,541.98564 661.08875,560.18029 C 673.62682,577.24193 686.783,593.90894 698.20101,611.76228 C 713.11464,635.68616 703.52717,639.02599 679.6152,656.95144 C 668.5049,658.14303 657.51982,656.1586 646.93081,652.91709 C 632.13024,647.93241 620.66283,637.39779 609.70519,626.68872 C 597.04148,614.06167 585.09827,600.72918 573.60104,587.03702 C 569.36769,582.00143 565.2606,576.86296 561.2086,571.68109 L 586.35654,551.49796 C 590.03383,556.76567 593.77561,561.98993 597.71955,567.0627 C 608.40397,580.81495 619.8087,594.05472 632.34927,606.1533 C 642.35462,615.49444 653.17148,624.29739 666.65551,627.8735 C 675.1789,629.8512 685.00531,631.92431 692.81731,627.09454 C 661.32048,652.27357 682.23579,648.90336 673.10111,630.49133 C 662.89615,612.30311 650.70511,595.33685 638.27602,578.6166 C 624.38838,559.96181 610.09637,541.62088 595.90948,523.19893 C 579.07375,498.6935 612.55673,479.89466 632.94884,496.12496 C 660.77087,509.37135 688.73221,522.45691 718.11746,531.94641 C 755.87887,544.23439 794.83964,552.63755 834.4043,556.3641 C 873.5039,559.77489 915.96102,561.99056 952.32132,544.79013 C 960.84446,539.75095 974.85389,526.62664 946.86042,551.3832 C 944.38291,553.57423 952.15798,547.3866 954.49684,545.04812 C 965.63214,533.91463 969.86622,518.38102 969.87778,502.98477 C 968.72597,468.05614 952.58928,435.83387 930.81291,409.09498 C 903.77346,378.02363 869.12523,354.75221 828.6299,345.41587 C 790.38842,337.017 751.06946,336.18195 712.17044,339.85782 C 702.74707,340.65492 661.06598,347.00353 674.62234,325.41419 C 685.91228,315.97416 722.8728,284.56258 683.81422,317.99952 C 679.81436,321.42369 724.80489,280.32551 719.55171,283.11873 C 737.80923,258.38783 747.22428,229.71474 737.42969,199.3639 C 724.11671,160.81949 695.01469,130.07392 659.82707,110.18682 C 618.74617,88.656723 571.84784,78.02172 525.9274,88.58857 C 466.77741,103.94698 472.15179,107.47206 442.88506,141.10469 C 419.91918,178.21019 415.42994,221.63653 424.19433,264.04232 C 432.27653,301.61071 446.50209,337.44924 463.75725,371.7155 C 468.75461,381.70108 473.68437,391.7298 478.85097,401.62573 L 448.46906,416.44398 z "
         id="path4879"
         style="opacity:1;color:#000000;fill:#ffea00;fill-opacity:0.72049692;fill-rule:nonzero;stroke:none;stroke-width:3.9000001;stroke-linecap:butt;stroke-linejoin:miter;marker:none;marker-start:none;marker-mid:none;marker-end:none;stroke-miterlimit:4;stroke-dasharray:none;stroke-dashoffset:0;stroke-opacity:1;visibility:visible;display:inline;overflow:visible" />
    </g>
    <path
       style="opacity:1;color:#000000;fill:#ff7100;fill-opacity:0.84472046;fill-rule:nonzero;stroke:none;stroke-width:3.9000001;stroke-linecap:butt;stroke-linejoin:miter;marker:none;marker-start:none;marker-mid:none;marker-end:none;stroke-miterlimit:4;stroke-dasharray:none;stroke-dashoffset:0;stroke-opacity:1;visibility:visible;display:inline;overflow:visible"
       id="path6664"
       d="M 799.14462,527.59405 C 787.96485,520.99481 774.52729,518.81209 761.87578,516.63354 C 731.87599,512.94051 699.34555,511.00889 670.31187,521.2379 C 671.83524,517.45997 656.89465,530.46873 660.11948,527.97999 C 693.39411,502.30056 657.83264,515.72659 688.32863,538.83118 C 724.13632,561.04636 769.37462,567.70716 810.90938,564.3273 C 826.16329,565.28804 860.42079,538.42054 824.8043,565.26274 C 822.36429,567.10165 829.47665,560.75603 830.06745,557.75833 C 831.38258,551.08543 826.04429,545.74625 821.78864,541.52045 C 797.91935,523.98553 766.23023,520.53356 737.41632,519.55932 L 752.83243,496.40644 C 783.95565,498.94103 817.23448,503.65825 843.44087,521.79278 C 879.80827,554.73887 833.78355,587.79279 796.96936,586.98639 C 753.2121,587.38233 706.5537,580.70876 667.94905,559.23408 C 635.24279,536.9127 640.36472,505.68448 683.84123,494.81344 C 714.95462,488.44241 747.1641,489.65427 778.53597,493.33375 C 793.09404,495.32989 807.7498,497.57638 821.67277,502.39571 L 799.14462,527.59405 z " />
    <path
       style="opacity:1;color:#000000;fill:#ff7100;fill-opacity:0.84472046;fill-rule:nonzero;stroke:none;stroke-width:3.9000001;stroke-linecap:butt;stroke-linejoin:miter;marker:none;marker-start:none;marker-mid:none;marker-end:none;stroke-miterlimit:4;stroke-dasharray:none;stroke-dashoffset:0;stroke-opacity:1;visibility:visible;display:inline;overflow:visible"
       id="path5787"
       d="M 543.76718,224.73155 C 530.91355,218.31344 511.42036,217.21868 495.67835,218.3358 C 442.00985,228.9084 430.64275,234.36803 416.44084,265.70816 C 401.17474,311.42676 441.14613,342.65483 480.70457,353.72456 C 538.62213,360.76138 557.55476,347.85002 569.33123,317.57205 C 580.13061,277.6742 556.32526,237.90168 517.68156,225.66854 C 509.60624,223.39052 501.38782,223.45182 493.10201,223.64734 L 507.54984,201.10478 C 516.7218,201.43884 525.82365,201.91537 534.6232,204.8748 C 576.8584,220.56466 603.04733,263.66626 594.58521,308.62721 C 578.71892,363.36169 516.94328,386.79665 465.07182,373.59226 C 420.78335,360.15034 377.88153,325.42715 391.00432,274.12098 C 408.45826,225.87223 461.81166,200.00887 510.09712,194.38528 C 529.28489,192.96765 549.83356,193.48458 567.77789,201.05746 L 543.76718,224.73155 z " />
  </g>
</svg>
