<?xml version="1.0" encoding="UTF-8" standalone="no"?>
<!-- Created with Inkscape (http://www.inkscape.org/) -->
<svg
   xmlns:dc="http://purl.org/dc/elements/1.1/"
   xmlns:cc="http://web.resource.org/cc/"
   xmlns:rdf="http://www.w3.org/1999/02/22-rdf-syntax-ns#"
   xmlns:svg="http://www.w3.org/2000/svg"
   xmlns="http://www.w3.org/2000/svg"
   xmlns:sodipodi="http://inkscape.sourceforge.net/DTD/sodipodi-0.dtd"
   xmlns:inkscape="http://www.inkscape.org/namespaces/inkscape"
   width="1000"
   height="1000"
   id="svg2"
   sodipodi:version="0.32"
   inkscape:version="0.43"
   version="1.0"
   sodipodi:docbase="/home/kkowal/tale/art/monster"
   sodipodi:docname="segway-krikket-bot.svg"
   inkscape:export-filename="/home/kkowal/tale/art/monster/segway-krikket-bot.png"
   inkscape:export-xdpi="90"
   inkscape:export-ydpi="90">
  <defs
     id="defs4" />
  <sodipodi:namedview
     id="base"
     pagecolor="#ffffff"
     bordercolor="#666666"
     borderopacity="1.0"
     inkscape:pageopacity="0.0"
     inkscape:pageshadow="2"
     inkscape:zoom="0.49497475"
     inkscape:cx="481.96619"
     inkscape:cy="537.74873"
     inkscape:document-units="px"
     inkscape:current-layer="layer1"
     inkscape:window-width="1600"
     inkscape:window-height="1125"
     inkscape:window-x="0"
     inkscape:window-y="25" />
  <metadata
     id="metadata7">
    <rdf:RDF>
      <cc:Work
         rdf:about="">
        <dc:format>image/svg+xml</dc:format>
        <dc:type
           rdf:resource="http://purl.org/dc/dcmitype/StillImage" />
      </cc:Work>
    </rdf:RDF>
  </metadata>
  <g
     inkscape:label="Layer 1"
     inkscape:groupmode="layer"
     id="layer1">
    <g
       id="g15455"
       transform="translate(-18.18275,-18.18275)">
      <path
         sodipodi:nodetypes="ccccccccccccccc"
         d="M 455.66292,857.05123 C 452.02927,869.82795 452.79462,901.78659 453.54056,906.44619 C 458.72726,936.19017 484.7342,948.31083 515.40782,943.98245 C 556.81878,935.40405 583.5981,903.44283 585.49221,864.96082 C 583.46542,832.7096 564.29077,793.33306 529.56287,782.27043 C 496.53038,777.62442 476.35114,814.27572 464.74026,837.84847 C 461.55612,844.48935 458.99523,851.29838 456.50462,858.16418 L 438.59943,854.80398 C 441.9141,846.32648 445.20638,837.83512 449.29825,829.62319 C 465.50833,797.60217 493.00728,755.32927 536.87003,765.47553 C 577.36605,780.63559 600.66483,824.22949 603.24993,863.56467 C 601.35496,911.01853 567.58198,950.55147 516.83918,960.94947 C 476.80399,966.49589 442.47048,949.59225 434.44477,911.47739 C 431.75143,898.03343 433.40428,866.86141 439.55433,853.68918 L 455.66292,857.05123 z "
         id="path1666"
         style="color:#000000;fill:#000000;fill-opacity:0.33540374;fill-rule:nonzero;stroke:none;stroke-width:3.9000001;stroke-linecap:butt;stroke-linejoin:miter;marker:none;marker-start:none;marker-mid:none;marker-end:none;stroke-miterlimit:4;stroke-dasharray:none;stroke-dashoffset:0;stroke-opacity:1;visibility:visible;display:inline;overflow:visible" />
      <path
         id="path4295"
         d="M 564.05488,798.30185 C 475.63006,716.07148 376.29367,923.77909 490.54685,950.73211 C 569.63099,969.60308 630.93756,848.20566 564.05488,798.30185 z "
         style="color:#000000;fill:#2095aa;fill-opacity:0.20496892;fill-rule:nonzero;stroke:none;stroke-width:3.9000001;stroke-linecap:butt;stroke-linejoin:miter;marker:none;marker-start:none;marker-mid:none;marker-end:none;stroke-miterlimit:4;stroke-dasharray:none;stroke-dashoffset:0;stroke-opacity:1;visibility:visible;display:inline;overflow:visible"
         sodipodi:nodetypes="ccc" />
    </g>
    <g
       id="g12688"
       transform="matrix(2.456766,-0.465116,0.465116,2.456766,-718.286,-301.6473)">
      <path
         id="path11809"
         d="M 347.745,278.246 C 336.34217,283.18353 325.4244,289.09478 314.59469,295.051 C 305.1766,295.47914 282.94944,310.17168 302.23079,313.34079 C 314.8151,311.57804 326.25947,304.90373 337.87151,299.9638 C 347.68262,293.01892 359.0664,291.83762 370.61628,290.78831 C 384.95186,284.22131 399.29328,277.00116 412.90359,268.87823 C 428.74899,256.29042 451.59855,258.77861 467.13406,245.57251 C 470.14854,233.48895 454.45477,221.81017 443.20651,223.94235 C 426.29208,230.25762 411.67948,241.61119 395.44211,249.50172 C 380.88144,255.90343 367.19056,265.35722 351.24716,267.94696 C 344.25312,269.0318 349.37394,277.14037 347.745,278.246 z "
         style="opacity:1;color:#000000;fill:#757575;fill-opacity:1;fill-rule:nonzero;stroke:none;stroke-width:3.9000001;stroke-linecap:butt;stroke-linejoin:miter;marker:none;marker-start:none;marker-mid:none;marker-end:none;stroke-miterlimit:4;stroke-dasharray:none;stroke-dashoffset:0;stroke-opacity:1;visibility:visible;display:inline;overflow:visible" />
      <path
         id="path11802"
         d="M 335.37064,305.01505 C 349.63609,330.45417 364.9911,355.26951 379.17453,380.75659 C 382.49117,393.70955 400.89398,382.5804 390.00785,373.72035 C 381.93759,362.64926 377.40664,349.46508 368.53572,338.90806 C 363.81768,328.91839 357.7325,319.49055 352.06061,309.99384 C 350.23402,302.80799 337.59845,291.9523 335.37064,305.01505 z "
         style="opacity:1;color:#000000;fill:#cfcfcf;fill-opacity:1;fill-rule:nonzero;stroke:none;stroke-width:3.9000001;stroke-linecap:butt;stroke-linejoin:miter;marker:none;marker-start:none;marker-mid:none;marker-end:none;stroke-miterlimit:4;stroke-dasharray:none;stroke-dashoffset:0;stroke-opacity:1;visibility:visible;display:inline;overflow:visible" />
      <path
         id="path11793"
         d="M 435.37576,397.19147 C 445.16278,391.85776 456.21905,389.76444 466.88602,386.93577 C 479.28814,390.51276 462.42903,401.45442 466.48464,408.18171 C 470.81137,416.03768 481.98576,412.29121 479.63732,403.19091 C 482.24948,395.22777 489.70103,383.154 479.82644,377.27678 C 468.25729,374.53543 457.8369,383.22157 446.24136,382.86071 C 439.70208,382.44471 427.62492,391.13681 435.37576,397.19147 z "
         style="opacity:1;color:#000000;fill:#cfcfcf;fill-opacity:1;fill-rule:nonzero;stroke:none;stroke-width:3.9000001;stroke-linecap:butt;stroke-linejoin:miter;marker:none;marker-start:none;marker-mid:none;marker-end:none;stroke-miterlimit:4;stroke-dasharray:none;stroke-dashoffset:0;stroke-opacity:1;visibility:visible;display:inline;overflow:visible" />
      <path
         id="path11774"
         d="M 420.98108,463.86154 C 419.09299,453.39028 436.54918,456.90654 431.28651,466.34501 C 429.73567,492.62251 431.69901,518.88295 431.70427,545.16252 C 425.98791,555.36875 416.63054,542.1792 419.33668,534.86526 C 419.0258,521.40113 420.1694,507.94668 419.94492,494.47996 C 420.29589,484.27417 420.94787,474.0764 420.98108,463.86154 z "
         style="opacity:1;color:#000000;fill:#cfcfcf;fill-opacity:1;fill-rule:nonzero;stroke:none;stroke-width:3.9000001;stroke-linecap:butt;stroke-linejoin:miter;marker:none;marker-start:none;marker-mid:none;marker-end:none;stroke-miterlimit:4;stroke-dasharray:none;stroke-dashoffset:0;stroke-opacity:1;visibility:visible;display:inline;overflow:visible" />
      <path
         id="path11765"
         d="M 396.7374,537.35016 C 394.53511,550.10892 415.6857,544.92552 409.1964,533.53465 C 409.606,516.5042 412.13317,499.27068 408.65822,482.41113 C 409.69968,475.42969 410.81724,454.33691 399.33368,462.02142 C 395.12914,472.66664 397.60283,484.48188 396.28058,495.63834 C 396.00317,509.91353 394.62534,524.48831 396.7374,538.61279"
         style="opacity:1;color:#000000;fill:#cfcfcf;fill-opacity:1;fill-rule:nonzero;stroke:none;stroke-width:3.9000001;stroke-linecap:butt;stroke-linejoin:miter;marker:none;marker-start:none;marker-mid:none;marker-end:none;stroke-miterlimit:4;stroke-dasharray:none;stroke-dashoffset:0;stroke-opacity:1;visibility:visible;display:inline;overflow:visible" />
      <path
         id="path11743"
         d="M 404.06104,436.58743 C 398.15366,441.56525 387.28181,452.43572 396.16466,459.32847 C 406.7929,463.53139 418.1152,456.71342 429.06636,458.61666 C 440.60922,458.01195 432.8674,445.03451 428.67609,440.26294 C 422.71068,433.08736 411.96683,432.74492 404.06104,436.58743 z "
         style="opacity:1;color:#000000;fill:#cfcfcf;fill-opacity:1;fill-rule:nonzero;stroke:none;stroke-width:3.9000001;stroke-linecap:butt;stroke-linejoin:miter;marker:none;marker-start:none;marker-mid:none;marker-end:none;stroke-miterlimit:4;stroke-dasharray:none;stroke-dashoffset:0;stroke-opacity:1;visibility:visible;display:inline;overflow:visible" />
      <path
         id="path9911"
         d="M 398.21429,356.07144 C 408.39226,369.09175 433.93365,358.57602 427.5832,341.72973 C 432.39397,327.00838 412.5115,306.44146 404.35707,327.2981 C 399.76558,336.15279 399.00811,346.30654 398.21429,356.07144 z "
         style="opacity:1;color:#000000;fill:#cfcfcf;fill-opacity:1;fill-rule:nonzero;stroke:none;stroke-width:3.9000001;stroke-linecap:butt;stroke-linejoin:miter;marker:none;marker-start:none;marker-mid:none;marker-end:none;stroke-miterlimit:4;stroke-dasharray:none;stroke-dashoffset:0;stroke-opacity:1;visibility:visible;display:inline;overflow:visible" />
      <path
         id="path9926"
         d="M 405.71429,330.71429 C 401.71181,333.05207 401.92246,340.20468 406.48946,341.76606 C 408.8825,342.51188 410.95437,340.35899 413.34989,341.37315 C 417.52228,341.9462 421.94192,343.3998 426.06572,341.86567 C 430.51192,339.79662 429.95787,332.25851 425.31811,330.78231 C 420.98681,329.36169 416.36324,330.61617 411.9538,329.69869 C 409.84607,329.47489 407.54624,329.50272 405.71429,330.71429 z "
         style="opacity:1;color:#000000;fill:#780000;fill-opacity:1;fill-rule:nonzero;stroke:none;stroke-width:3.9000001;stroke-linecap:butt;stroke-linejoin:miter;marker:none;marker-start:none;marker-mid:none;marker-end:none;stroke-miterlimit:4;stroke-dasharray:none;stroke-dashoffset:0;stroke-opacity:1;visibility:visible;display:inline;overflow:visible" />
      <path
         d="M 387.06595,459.00139 C 387.13851,457.50994 387.28869,456.02995 387.49804,454.54904 C 388.88191,446.83756 393.583,440.15609 399.68056,434.78275 C 407.25733,428.33511 417.26756,427.52335 426.14719,432.16141 C 433.0025,436.27776 437.29688,442.85667 439.88942,449.80457 C 440.96298,452.66346 441.46052,455.63958 441.70187,458.63928 L 433.54516,459.27719 C 433.46925,456.88715 433.16608,454.51346 432.39463,452.21634 C 430.45406,446.78384 427.48612,441.45485 422.09238,438.214 C 416.36428,435.48571 410.66306,435.46584 405.46171,439.33801 C 400.38855,443.43386 396.52184,448.85553 395.62413,455.04802 C 395.51281,456.23986 395.46801,457.42892 395.6133,458.62122 L 387.06595,459.00139 z "
         id="path5221"
         style="opacity:1;color:#000000;fill:#000000;fill-opacity:1;fill-rule:nonzero;stroke:none;stroke-width:3.9000001;stroke-linecap:butt;stroke-linejoin:miter;marker:none;marker-start:none;marker-mid:none;marker-end:none;stroke-miterlimit:4;stroke-dasharray:none;stroke-dashoffset:0;stroke-opacity:1;visibility:visible;display:inline;overflow:visible" />
      <path
         d="M 394.31539,456.27063 C 394.19163,456.01359 394.41119,455.71625 394.45911,455.43907 C 395.96368,456.62061 397.87665,456.78935 399.79439,456.92573 C 405.30506,457.01984 410.77471,456.17876 416.20291,455.40705 C 420.61304,454.76795 425.0127,454.04659 429.45995,453.65413 C 432.26619,453.34356 435.00228,453.7412 437.69079,454.4418 C 439.25562,454.88415 440.72489,455.54097 442.19084,456.19563 L 438.1617,462.88736 C 437.1037,462.41979 436.05373,461.9287 434.92325,461.61648 C 433.15974,461.21626 431.41079,460.93017 429.57672,461.14796 C 425.30977,461.47659 421.07455,462.05493 416.84057,462.63174 C 410.90293,463.42819 404.93232,464.30512 398.91397,464.23353 C 395.13839,463.9922 391.49948,463.36755 388.63721,460.94215 C 387.26559,459.69704 385.98238,458.48867 385.76803,456.65079 L 394.31539,456.27063 z "
         id="path5225"
         style="opacity:1;color:#000000;fill:#000000;fill-opacity:1;fill-rule:nonzero;stroke:none;stroke-width:3.9000001;stroke-linecap:butt;stroke-linejoin:miter;marker:none;marker-start:none;marker-mid:none;marker-end:none;stroke-miterlimit:4;stroke-dasharray:none;stroke-dashoffset:0;stroke-opacity:1;visibility:visible;display:inline;overflow:visible" />
      <path
         d="M 401.66099,459.84738 C 401.10154,466.36598 401.02459,472.91858 400.88276,479.45446 C 400.43011,497.48907 400.18546,515.52691 400.1846,533.56617 C 400.18543,536.81911 400.20219,540.07201 400.21996,543.32489 L 393.27533,543.57263 C 393.36747,540.31612 393.45874,537.0596 393.53489,533.80275 C 393.94985,515.79332 394.18964,497.77733 393.91043,479.76457 C 393.76883,473.25182 393.69302,466.72203 393.13219,460.22672 L 401.66099,459.84738 z "
         id="path6975"
         style="opacity:1;color:#000000;fill:#000000;fill-opacity:1;fill-rule:nonzero;stroke:none;stroke-width:3.9000001;stroke-linecap:butt;stroke-linejoin:miter;marker:none;marker-start:none;marker-mid:none;marker-end:none;stroke-miterlimit:4;stroke-dasharray:none;stroke-dashoffset:0;stroke-opacity:1;visibility:visible;display:inline;overflow:visible" />
      <path
         d="M 412.91892,459.41821 C 412.47083,462.1952 412.42705,465.10426 412.38983,467.94559 C 412.39152,481.79008 412.70617,495.63277 412.81193,509.47677 C 412.86451,519.00432 412.90222,528.53197 412.9166,538.05964 L 406.06522,538.31185 C 406.26882,528.81832 406.32914,519.32254 406.20165,509.82766 C 405.99877,496.01757 405.51445,482.2103 404.73327,468.41716 C 404.62519,466.51315 404.31706,459.89951 404.37156,459.79837 L 412.91892,459.41821 z "
         id="path6979"
         style="opacity:1;color:#000000;fill:#000000;fill-opacity:1;fill-rule:nonzero;stroke:none;stroke-width:3.9000001;stroke-linecap:butt;stroke-linejoin:miter;marker:none;marker-start:none;marker-mid:none;marker-end:none;stroke-miterlimit:4;stroke-dasharray:none;stroke-dashoffset:0;stroke-opacity:1;visibility:visible;display:inline;overflow:visible" />
      <path
         d="M 425.03285,458.23787 C 424.75051,461.21189 424.68113,464.20154 424.5813,467.18444 C 424.14638,481.74001 424.06274,496.30199 423.95765,510.86195 C 423.87829,522.10876 423.83095,533.3558 423.85915,544.60285 L 416.50607,544.83149 C 416.92459,533.59369 417.22923,522.35222 417.37363,511.10862 C 417.53321,496.5797 417.36384,482.04881 416.93705,467.52444 C 416.83736,464.55493 416.76857,461.57855 416.48549,458.61802 L 425.03285,458.23787 z "
         id="path6984"
         style="opacity:1;color:#000000;fill:#000000;fill-opacity:1;fill-rule:nonzero;stroke:none;stroke-width:3.9000001;stroke-linecap:butt;stroke-linejoin:miter;marker:none;marker-start:none;marker-mid:none;marker-end:none;stroke-miterlimit:4;stroke-dasharray:none;stroke-dashoffset:0;stroke-opacity:1;visibility:visible;display:inline;overflow:visible" />
      <path
         d="M 435.41488,456.27574 C 435.11953,459.44534 435.2802,462.63911 435.33223,465.81575 C 435.59819,480.88075 435.67907,495.94752 435.70628,511.01421 C 435.72541,522.31559 435.78218,533.61688 435.88536,544.91788 L 428.736,545.18462 C 429.04907,533.89714 429.23896,522.60652 429.22383,511.31517 C 429.17511,496.34518 428.88088,481.36914 427.74916,466.43024 C 427.49259,463.1695 427.19415,459.91128 426.87019,456.65578 L 435.41488,456.27574 z "
         id="path6988"
         style="opacity:1;color:#000000;fill:#000000;fill-opacity:1;fill-rule:nonzero;stroke:none;stroke-width:3.9000001;stroke-linecap:butt;stroke-linejoin:miter;marker:none;marker-start:none;marker-mid:none;marker-end:none;stroke-miterlimit:4;stroke-dasharray:none;stroke-dashoffset:0;stroke-opacity:1;visibility:visible;display:inline;overflow:visible" />
      <g
         transform="matrix(1.211393,0,0,1.101651,-237.2869,-60.92709)"
         id="g8910">
        <path
           style="opacity:1;color:#000000;fill:#cfcfcf;fill-opacity:1;fill-rule:nonzero;stroke:none;stroke-width:3.9000001;stroke-linecap:butt;stroke-linejoin:miter;marker:none;marker-start:none;marker-mid:none;marker-end:none;stroke-miterlimit:4;stroke-dasharray:none;stroke-dashoffset:0;stroke-opacity:1;visibility:visible;display:inline;overflow:visible"
           d="M 523.92859,397.85715 C 515.67483,396.39889 512.75025,406.78812 515.37672,412.92193 C 517.92251,418.699 527.89842,412.25965 528.33277,419.26362 C 526.87776,426.40145 528.71051,433.52276 528.3987,440.75813 C 527.72586,447.20961 528.61669,458.42702 537.91251,456.19261 C 543.92738,454.15222 541.45795,446.95985 542.63397,442.28554 C 543.42784,436.29433 542.67506,430.07657 542.86333,424.07303 C 541.91957,415.56983 552.8093,420.60814 554.97502,414.31685 C 556.24392,409.3623 557.17788,402.71235 553.74357,398.46238 C 547.75038,397.16284 541.11657,400.05508 534.81646,398.39281 C 531.22478,398.27002 527.41399,396.70654 523.92859,397.85715 z "
           id="path8904" />
        <path
           style="opacity:1;color:#000000;fill:#000000;fill-opacity:1;fill-rule:nonzero;stroke:none;stroke-width:3.9000001;stroke-linecap:butt;stroke-linejoin:miter;marker:none;marker-start:none;marker-mid:none;marker-end:none;stroke-miterlimit:4;stroke-dasharray:none;stroke-dashoffset:0;stroke-opacity:1;visibility:visible;display:inline;overflow:visible"
           id="path7098"
           d="M 533.16967,410.55095 C 532.85316,413.85164 532.63372,417.1615 532.42598,420.47073 C 531.80521,430.85546 531.59154,441.25945 531.39744,451.65936 C 531.38723,452.28749 531.37701,452.91561 531.36679,453.54373 L 525.20346,453.66906 C 525.2318,453.04106 525.26014,452.41306 525.28848,451.78506 C 525.72772,441.37837 526.03188,430.96631 526.1889,420.55142 C 526.23579,417.33627 526.34057,414.10529 526.11605,410.89593 L 533.16967,410.55095 z " />
        <path
           style="opacity:1;color:#000000;fill:#000000;fill-opacity:1;fill-rule:nonzero;stroke:none;stroke-width:3.9000001;stroke-linecap:butt;stroke-linejoin:miter;marker:none;marker-start:none;marker-mid:none;marker-end:none;stroke-miterlimit:4;stroke-dasharray:none;stroke-dashoffset:0;stroke-opacity:1;visibility:visible;display:inline;overflow:visible"
           id="path7100"
           d="M 548.5279,410.18918 C 548.20775,412.79024 547.96294,415.40677 547.75156,418.0218 C 547.1403,425.81872 546.83533,433.63632 546.63681,441.45352 C 546.54111,445.21061 546.49423,448.96876 546.5052,452.72699 L 539.84323,452.98695 C 539.96257,449.17545 540.12132,445.36529 540.29023,441.55567 C 540.64416,433.69928 541.04479,425.84482 541.33889,417.98585 C 541.42101,415.73462 541.53306,412.3507 541.4721,410.53426 L 548.5279,410.18918 z " />
        <path
           style="opacity:1;color:#000000;fill:#000000;fill-opacity:1;fill-rule:nonzero;stroke:none;stroke-width:3.9000001;stroke-linecap:butt;stroke-linejoin:miter;marker:none;marker-start:none;marker-mid:none;marker-end:none;stroke-miterlimit:4;stroke-dasharray:none;stroke-dashoffset:0;stroke-opacity:1;visibility:visible;display:inline;overflow:visible"
           d="M 525.4375,394.75 C 525.34101,394.75279 525.25274,394.77796 525.15625,394.78125 C 521.5283,395.00697 517.99303,395.4382 515.34375,398.1875 C 513.45963,400.79151 512.77943,403.84318 512.59375,407.03125 C 512.48192,410.15685 512.70936,413.33048 514.5625,415.96875 C 516.61715,418.2136 519.16837,419.17495 522.21875,419.0625 C 525.21454,419.02967 528.19534,418.82866 531.1875,418.6875 C 531.60396,418.66678 532.06957,418.61955 532.53125,418.59375 C 532.68048,416.29825 532.8581,414.00981 533.0625,411.71875 C 532.44284,411.78325 531.84004,411.8548 531.21875,411.90625 C 528.37092,412.11289 525.51116,412.23118 522.65625,412.25 C 521.60876,412.44179 520.75878,412.01492 519.9375,411.65625 C 519.26785,410.20176 519.31777,408.62587 519.375,407.0625 C 519.4537,405.28751 519.8719,403.69774 520.84375,402.3125 C 521.28883,402.26124 524.12028,401.64862 525.125,401.5625 C 527.99554,401.43989 530.84896,401.56476 533.71875,401.65625 C 537.43351,401.82721 541.13373,402.12534 544.84375,402.375 C 547.24866,402.52264 549.66684,402.61833 552.0625,402.875 C 552.33895,402.87256 552.51082,402.91285 552.59375,402.9375 C 552.59749,402.93897 552.62167,402.93598 552.625,402.9375 C 552.62756,402.93911 552.65405,402.9671 552.65625,402.96875 C 552.6569,402.97054 552.65586,402.99819 552.65625,403 C 552.65526,403.00371 552.65792,403.02753 552.65625,403.03125 C 552.6536,403.03491 552.62794,403.05891 552.625,403.0625 C 552.6188,403.0695 552.59981,403.08727 552.59375,403.09375 C 552.59132,403.09663 552.59569,403.12234 552.59375,403.125 C 552.99405,404.92119 552.9441,406.79571 552.90625,408.625 C 552.87363,410.51355 552.47035,412.32815 551.84375,414.09375 C 551.67832,414.30867 551.53754,414.43635 551.46875,414.53125 C 551.46899,414.5277 551.46892,414.50329 551.46875,414.5 C 551.46712,414.49773 551.4397,414.47058 551.4375,414.46875 C 551.43334,414.46847 551.41115,414.46842 551.40625,414.46875 C 551.3949,414.47072 551.35845,414.49515 551.34375,414.5 C 551.25299,414.5353 551.10469,414.61874 550.875,414.78125 C 549.17238,415.20479 547.39679,415.14704 545.65625,415.09375 C 545.18436,415.07055 544.71883,415.01982 544.25,414.96875 C 544.54939,417.17903 544.21752,419.43957 543,421.34375 C 542.92794,421.45891 542.86005,421.58114 542.78125,421.6875 C 543.49217,421.77627 544.19034,421.8608 544.90625,421.90625 C 547.31112,422.00486 549.75679,422.03489 552.125,421.53125 C 555.05571,420.72985 557.41464,419.02293 558.4375,416.0625 C 559.20014,413.5993 559.69329,411.06086 559.71875,408.46875 C 559.7703,405.88487 559.78382,403.25267 559.0625,400.75 C 558.01376,398.11652 556.18714,396.4791 553.3125,396.125 C 550.76299,395.8638 548.1849,395.79742 545.625,395.6875 C 541.88655,395.49781 538.17128,395.23303 534.4375,394.96875 C 531.45028,394.82095 528.4288,394.66353 525.4375,394.75 z M 533.75,418.53125 C 533.69387,418.53286 533.6193,418.56065 533.5625,418.5625 C 533.68053,418.55715 533.79128,418.53565 533.90625,418.53125 C 533.85092,418.53261 533.80613,418.52964 533.75,418.53125 z M 532.875,418.5625 C 532.81672,418.56525 532.7771,418.59078 532.71875,418.59375 C 532.8839,418.58468 533.05461,418.57079 533.21875,418.5625 C 533.10318,418.56712 532.99156,418.55699 532.875,418.5625 z "
           id="path7112" />
        <path
           style="opacity:1;color:#000000;fill:#000000;fill-opacity:1;fill-rule:nonzero;stroke:none;stroke-width:3.9000001;stroke-linecap:butt;stroke-linejoin:miter;marker:none;marker-start:none;marker-mid:none;marker-end:none;stroke-miterlimit:4;stroke-dasharray:none;stroke-dashoffset:0;stroke-opacity:1;visibility:visible;display:inline;overflow:visible"
           id="path8029"
           d="M 532.09933,450.18918 C 531.69744,448.58203 532.10079,450.18922 532.2041,450.19217 C 532.62861,451.03031 533.34783,451.59678 534.03811,452.19561 C 534.83157,452.87132 535.67382,452.92978 536.63599,453.02459 C 537.71397,452.99524 538.44137,452.45584 539.24543,451.85078 C 538.66338,452.7607 540.20467,450.02091 540.4982,449.32015 C 540.53196,449.22305 540.56572,449.12595 540.59948,449.02885 L 547.26965,450.71965 C 547.22231,450.8677 547.17497,451.01575 547.12762,451.1638 C 546.21899,453.59651 545.14797,455.95818 543.04075,457.60185 C 540.98597,459.05472 538.71151,459.91776 536.16504,459.90171 C 533.8527,459.70903 531.72159,459.13886 529.84685,457.69273 C 528.41391,456.53629 527.08808,455.27117 526.16943,453.65071 C 525.66872,452.65238 525.13735,451.66961 525.04353,450.53426 L 532.09933,450.18918 z " />
      </g>
      <path
         id="path10814"
         d="M 409.91072,331.9643 C 410.29947,334.6462 409.13994,338.09033 410.45923,340.28072 C 412.52034,341.7848 416.41605,340.60337 415.15663,337.58712 C 414.92199,335.35249 415.88987,331.80541 412.85935,331.17841 C 411.83799,330.88894 410.57742,331.0587 409.91072,331.9643 z "
         style="opacity:1;color:#000000;fill:#e60000;fill-opacity:1;fill-rule:nonzero;stroke:none;stroke-width:3.9000001;stroke-linecap:butt;stroke-linejoin:miter;marker:none;marker-start:none;marker-mid:none;marker-end:none;stroke-miterlimit:4;stroke-dasharray:none;stroke-dashoffset:0;stroke-opacity:1;visibility:visible;display:inline;overflow:visible" />
      <g
         transform="matrix(1.211393,0,0,1.101651,-233.3931,-53.4516)"
         id="g8019">
        <path
           style="opacity:1;color:#000000;fill:#cfcfcf;fill-opacity:1;fill-rule:nonzero;stroke:none;stroke-width:3.9000001;stroke-linecap:butt;stroke-linejoin:miter;marker:none;marker-start:none;marker-mid:none;marker-end:none;stroke-miterlimit:4;stroke-dasharray:none;stroke-dashoffset:0;stroke-opacity:1;visibility:visible;display:inline;overflow:visible"
           d="M 526.78571,376.78571 C 526.73542,381.95898 526.8347,387.16726 527.6071,392.28594 C 527.97783,395.07129 530.59487,397.54889 533.49988,396.98813 C 536.26599,396.2426 539.19018,394.2739 539.39831,391.14847 C 539.73642,387.50222 540.44236,383.92167 541.13387,380.33069 C 542.06563,377.85586 539.1883,376.75893 537.22096,376.9859 C 533.746,377.08881 530.23309,377.42791 526.78571,376.78571 z "
           id="path7140" />
        <path
           style="opacity:1;color:#000000;fill:#000000;fill-opacity:1;fill-rule:nonzero;stroke:none;stroke-width:3.9000001;stroke-linecap:butt;stroke-linejoin:miter;marker:none;marker-start:none;marker-mid:none;marker-end:none;stroke-miterlimit:4;stroke-dasharray:none;stroke-dashoffset:0;stroke-opacity:1;visibility:visible;display:inline;overflow:visible"
           id="path7028"
           d="M 518.25781,375.16796 C 518.44143,372.97933 518.60821,370.78861 518.78333,368.59905 C 519.27976,360.75799 520.84533,353.02394 523.61709,345.66979 C 525.92477,340.10916 529.72981,332.99849 536.61205,333.02826 C 543.24099,334.46318 546.05109,341.92784 547.82989,347.73533 C 549.54574,353.55271 549.87128,359.63629 549.94994,365.6638 C 549.89666,368.86643 550.12684,372.08979 549.79031,375.28063 C 549.29072,378.48837 546.69468,379.72696 543.74354,379.01404 L 546.19439,372.50424 C 544.69277,372.59138 543.16955,372.87386 542.94648,374.46719 C 543.38231,371.66854 543.23912,368.79448 543.3659,365.96287 C 543.43588,360.52987 543.26349,355.03474 541.73842,349.77906 C 540.63425,346.12645 539.23968,342.07153 536.05644,339.7289 C 532.92814,341.16412 531.01604,344.20336 529.65535,347.53073 C 526.90556,354.23366 525.48119,361.38611 525.26696,368.62513 C 525.19933,370.68835 525.13508,372.76373 525.31362,374.82288 L 518.25781,375.16796 z " />
        <path
           style="opacity:1;color:#000000;fill:#000000;fill-opacity:1;fill-rule:nonzero;stroke:none;stroke-width:3.9000001;stroke-linecap:butt;stroke-linejoin:miter;marker:none;marker-start:none;marker-mid:none;marker-end:none;stroke-miterlimit:4;stroke-dasharray:none;stroke-dashoffset:0;stroke-opacity:1;visibility:visible;display:inline;overflow:visible"
           id="path7030"
           d="M 517.54353,374.45368 C 518.71947,370.10452 521.71232,370.1041 524.22073,372.34906 C 525.00948,373.01735 525.99187,373.28585 526.96081,373.57678 C 528.63946,373.99935 530.36228,374.09937 532.085,374.10934 C 533.7721,374.12206 535.43902,373.90505 537.09052,373.58829 C 538.72734,373.20919 540.29586,372.59844 541.86135,371.99918 C 543.08686,371.58328 544.21005,371.01766 545.26065,370.27832 L 548.6795,376.28683 C 547.12763,377.25818 545.48948,378.03488 543.75147,378.62372 C 541.85284,379.31673 539.94568,380.01089 537.95977,380.4134 C 535.87857,380.76847 533.77834,380.9916 531.66274,380.9594 C 529.39342,380.90795 527.12616,380.71906 524.92221,380.13903 C 523.08959,379.59382 521.28807,378.9558 519.78361,377.73022 C 521.77816,377.49375 523.08372,375.42657 524.59933,374.10859 L 517.54353,374.45368 z " />
        <path
           style="opacity:1;color:#000000;fill:#000000;fill-opacity:1;fill-rule:nonzero;stroke:none;stroke-width:3.9000001;stroke-linecap:butt;stroke-linejoin:miter;marker:none;marker-start:none;marker-mid:none;marker-end:none;stroke-miterlimit:4;stroke-dasharray:none;stroke-dashoffset:0;stroke-opacity:1;visibility:visible;display:inline;overflow:visible"
           id="path7032"
           d="M 523.07735,354.68875 C 524.01171,354.75699 524.94947,354.78227 525.8854,354.8288 C 528.56022,354.9974 531.239,355.07476 533.91826,355.12555 C 536.45312,355.19562 538.98824,355.28076 541.51969,355.43059 C 542.927,355.53683 544.33447,355.63869 545.74285,355.72888 L 544.90127,362.57739 C 543.48645,362.47083 542.07287,362.3503 540.65895,362.23263 C 538.23291,362.06901 535.8039,361.93998 533.37339,361.86552 C 530.66121,361.79912 527.949,361.73423 525.2366,361.67698 C 524.37304,361.67457 523.50691,361.65253 522.64609,361.73982 L 523.07735,354.68875 z " />
        <path
           style="opacity:1;color:#000000;fill:#000000;fill-opacity:1;fill-rule:nonzero;stroke:none;stroke-width:3.9000001;stroke-linecap:butt;stroke-linejoin:miter;marker:none;marker-start:none;marker-mid:none;marker-end:none;stroke-miterlimit:4;stroke-dasharray:none;stroke-dashoffset:0;stroke-opacity:1;visibility:visible;display:inline;overflow:visible"
           id="path7036"
           d="M 525.22021,345.0459 C 526.14701,345.12111 527.07897,345.12748 528.00833,345.1493 C 530.64972,345.19993 533.29175,345.1903 535.93346,345.17894 C 538.17032,345.1654 540.40721,345.15546 542.64409,345.14495 C 543.43516,345.14112 544.22623,345.1385 545.01731,345.1357 L 544.59703,352.00715 C 543.80633,352.00435 543.01564,352.00173 542.22494,351.99791 C 539.98945,351.9874 537.75395,351.97746 535.51847,351.96391 C 532.87556,351.95255 530.23231,351.94297 527.58971,351.99355 C 526.65614,352.01541 525.72001,352.02197 524.78895,352.09696 L 525.22021,345.0459 z " />
        <path
           style="opacity:1;color:#000000;fill:#000000;fill-opacity:1;fill-rule:nonzero;stroke:none;stroke-width:3.9000001;stroke-linecap:butt;stroke-linejoin:miter;marker:none;marker-start:none;marker-mid:none;marker-end:none;stroke-miterlimit:4;stroke-dasharray:none;stroke-dashoffset:0;stroke-opacity:1;visibility:visible;display:inline;overflow:visible"
           id="path7044"
           d="M 530.67076,377.33204 C 530.60107,378.18366 530.59576,379.03985 530.57707,379.89381 C 530.52315,382.19121 530.53996,384.48789 530.61901,386.78419 C 530.63104,387.09757 530.64618,387.41082 530.65976,387.72413 L 523.84538,388.31449 C 523.84501,388.30411 523.80992,387.3459 523.81092,387.34308 C 523.74195,384.97223 523.73435,382.60134 523.70864,380.22974 C 523.68998,379.37883 523.68482,378.52566 523.61496,377.67712 L 530.67076,377.33204 z " />
        <path
           style="opacity:1;color:#000000;fill:#000000;fill-opacity:1;fill-rule:nonzero;stroke:none;stroke-width:3.9000001;stroke-linecap:butt;stroke-linejoin:miter;marker:none;marker-start:none;marker-mid:none;marker-end:none;stroke-miterlimit:4;stroke-dasharray:none;stroke-dashoffset:0;stroke-opacity:1;visibility:visible;display:inline;overflow:visible"
           id="path7046"
           d="M 540.9345,371.47447 C 543.98464,372.07591 544.26656,374.13766 544.39645,376.61583 C 544.46626,378.47135 544.48814,380.32819 544.50777,382.18478 C 544.5235,383.92118 544.52546,385.65767 544.52298,387.39413 L 537.63982,387.6391 C 537.65743,385.9507 537.65972,384.26196 537.64953,382.57339 C 537.63309,380.81656 537.61754,379.0585 537.50808,377.30447 C 537.2293,374.38375 538.08093,378.65563 540.50324,378.52553 L 540.9345,371.47447 z " />
        <path
           style="opacity:1;color:#000000;fill:#000000;fill-opacity:1;fill-rule:nonzero;stroke:none;stroke-width:3.9000001;stroke-linecap:butt;stroke-linejoin:miter;marker:none;marker-start:none;marker-mid:none;marker-end:none;stroke-miterlimit:4;stroke-dasharray:none;stroke-dashoffset:0;stroke-opacity:1;visibility:visible;display:inline;overflow:visible"
           id="path7138"
           d="M 529.95647,386.61775 C 529.90286,387.26289 529.90503,387.91165 529.89166,388.55856 C 529.78266,389.79429 529.97945,390.96962 530.30025,392.14826 C 530.61734,393.0109 531.20148,393.10731 531.93255,393.43169 C 533.1757,393.2234 534.2129,392.44472 535.19673,391.6817 C 535.50562,391.59833 536.91572,389.66204 537.55766,388.42385 C 538.12796,387.13337 538.20386,385.74316 538.27068,384.35687 L 545.15738,384.13646 C 545.09344,386.34105 544.90748,388.54404 544.06763,390.61109 C 542.88188,393.34276 541.16632,395.70498 538.75978,397.50368 C 536.12767,399.34355 533.19507,400.74901 529.91061,400.00783 C 527.1872,399.11733 525.07734,397.49612 523.93652,394.80146 C 523.29617,392.8842 522.88464,390.93643 522.96548,388.8973 C 522.95213,388.25252 522.95441,387.60584 522.90067,386.96284 L 529.95647,386.61775 z " />
      </g>
      <path
         d="M 387.49992,380.70034 C 387.89647,381.55474 384.36396,373.80447 383.61066,372.28074 C 375.42066,356.28538 366.28444,340.70648 357.22793,325.10734 C 351.55266,315.31208 345.78038,305.56374 340.00278,295.81821 L 346.22206,292.79052 C 351.59416,302.71562 357.07902,312.59018 362.6816,322.40938 C 371.67755,338.1028 381.08154,353.59624 390.24856,369.20665 C 392.32828,372.79572 394.91665,376.38349 396.04461,380.32029 L 387.49992,380.70034 z "
         id="path8962"
         style="opacity:1;color:#000000;fill:#000000;fill-opacity:1;fill-rule:nonzero;stroke:none;stroke-width:3.9000001;stroke-linecap:butt;stroke-linejoin:miter;marker:none;marker-start:none;marker-mid:none;marker-end:none;stroke-miterlimit:4;stroke-dasharray:none;stroke-dashoffset:0;stroke-opacity:1;visibility:visible;display:inline;overflow:visible" />
      <path
         d="M 387.17911,393.06014 C 383.22701,392.24192 381.32316,388.18868 379.34642,385.29401 C 372.70044,375.39784 366.45049,365.28572 360.44483,355.05798 C 352.9291,342.1676 345.67801,329.15173 338.14398,316.27007 C 335.95119,312.51607 333.73563,308.77307 331.50036,305.03986 L 338.21945,301.74764 C 340.29443,305.56402 342.37725,309.37682 344.47153,313.18448 C 351.64307,326.19652 358.83816,339.20154 366.45674,352.00326 C 372.47337,362.01337 378.80179,371.88404 385.85194,381.3258 C 387.33275,383.24643 392.75712,387.58454 387.70153,385.29233 L 387.17911,393.06014 z "
         id="path8964"
         style="opacity:1;color:#000000;fill:#000000;fill-opacity:1;fill-rule:nonzero;stroke:none;stroke-width:3.9000001;stroke-linecap:butt;stroke-linejoin:miter;marker:none;marker-start:none;marker-mid:none;marker-end:none;stroke-miterlimit:4;stroke-dasharray:none;stroke-dashoffset:0;stroke-opacity:1;visibility:visible;display:inline;overflow:visible" />
      <path
         sodipodi:nodetypes="ccccccccccccccccccccccccccccccccccccccccc"
         d="M 359.27151,285.51464 C 358.89125,283.85259 359.50566,286.27364 359.6346,286.73216 C 359.92736,288.0068 360.60697,289.11061 361.32052,290.19576 C 362.03327,289.85207 365.18156,289.22005 366.6175,288.79177 C 375.54037,285.58284 383.82344,281.07232 392.14933,276.77402 C 405.79112,269.75835 419.64722,263.09683 433.4177,256.29442 C 442.70478,251.70807 451.96631,247.07566 461.06358,242.18323 C 462.87171,241.14895 464.68698,240.12352 466.53692,239.1523 C 465.83972,241.5146 467.19735,242.29772 464.79401,240.19271 C 462.76259,238.48608 460.72483,236.78593 458.71117,235.0618 C 457.05185,233.63415 455.3728,232.2256 453.71063,230.8008 C 452.59646,229.80822 451.47984,228.82006 450.31961,227.87319 C 449.59665,227.43376 448.89185,227.60943 448.06712,227.66502 C 445.23274,228.15087 442.56387,229.2224 439.93191,230.26461 C 433.72045,232.65066 427.67262,235.35667 421.67098,238.14651 C 411.87854,242.73455 402.34145,247.75067 392.78015,252.72008 C 383.59358,257.53435 374.32586,262.21698 365.02156,266.83975 C 360.10246,269.42316 354.87572,271.56212 350.1814,274.48145 C 350.11287,275.5872 350.5037,273.15817 350.31034,272.20485 C 351.04324,272.9667 355.91402,277.47116 356.7748,278.10559 L 348.73312,281.35855 C 347.40738,280.38667 344.84181,278.16503 343.7377,276.97702 C 341.20452,273.38556 342.20489,270.05246 346.34654,267.84934 C 351.45483,265.14449 356.88742,262.97943 362.08001,260.41442 C 371.41927,255.99611 380.64139,251.37946 389.75702,246.59001 C 399.40029,241.58264 409.01775,236.53179 418.81032,231.76744 C 424.90435,228.80107 431.01594,225.85265 437.31993,223.26768 C 440.6609,221.93015 444.04383,220.52037 447.70123,220.10488 C 450.65735,219.90835 453.43923,220.29689 455.78858,222.0645 C 457.08356,223.12916 458.33167,224.23575 459.55861,225.36598 C 461.19393,226.78831 462.82835,228.21147 464.45839,229.6389 C 466.44815,231.35623 468.46147,233.04988 470.50896,234.71031 C 473.18929,236.95807 475.74335,239.33998 473.8993,242.88173 C 471.49901,245.73854 467.60554,247.02979 464.26161,248.79142 C 454.91119,253.30293 445.45962,257.63811 436.09429,262.12381 C 422.28312,268.73313 408.58246,275.53802 395.13895,282.7501 C 386.49838,287.38812 377.91222,292.25617 368.64443,295.79993 C 364.12348,297.30625 358.86091,298.76647 355.03322,295.22132 C 353.45005,293.41802 352.40491,291.36339 351.68456,289.15113 C 351.31291,288.06421 350.87138,286.99942 350.72416,285.89481 L 359.27151,285.51464 z "
         id="path8976"
         style="opacity:1;color:#000000;fill:#000000;fill-opacity:1;fill-rule:nonzero;stroke:none;stroke-width:3.9000001;stroke-linecap:butt;stroke-linejoin:miter;marker:none;marker-start:none;marker-mid:none;marker-end:none;stroke-miterlimit:4;stroke-dasharray:none;stroke-dashoffset:0;stroke-opacity:1;visibility:visible;display:inline;overflow:visible" />
      <path
         sodipodi:nodetypes="cccccccsccccccccccccc"
         d="M 352.42841,279.81082 C 346.09724,282.48666 341.60636,285.51392 340.39551,286.09933 C 332.64933,289.82567 324.90329,293.55171 317.12285,297.21869 C 310.95634,300.20446 304.66421,302.98467 298.58983,306.1255 C 297.71831,306.70315 296.76492,307.17109 295.8493,307.68926 C 295.77819,307.25558 297.16582,308.19084 297.60024,308.38615 C 302.10685,309.05208 306.70863,307.89296 311.02446,306.77452 C 317.66827,304.98098 324.03841,302.43914 330.29635,299.7523 C 336.33073,297.16311 342.1459,294.18569 347.92715,291.16403 C 350.3088,289.91105 352.67968,288.64132 355.03217,287.3436 L 358.44087,294.07986 C 356.01325,295.3208 353.5789,296.55082 351.14493,297.78141 C 345.15852,300.7887 339.16615,303.79429 332.97615,306.4461 C 326.35788,309.28806 319.5737,311.87436 312.55569,313.78239 C 306.73592,315.27958 300.49288,316.77932 294.49195,315.34157 C 290.8976,313.96376 287.90821,311.80737 287.47184,308.05018 C 287.82964,303.66065 291.25157,301.24205 295.40439,299.38153 C 301.66687,296.45827 308.03818,293.72995 314.28737,290.78195 C 322.01333,287.18979 329.68553,283.49145 337.19022,279.52882 C 339.98819,278.00008 342.38069,275.82397 345.30277,275.52063 L 352.42841,279.81082 z "
         id="path8982"
         style="opacity:1;color:#000000;fill:#000000;fill-opacity:1;fill-rule:nonzero;stroke:none;stroke-width:3.9000001;stroke-linecap:butt;stroke-linejoin:miter;marker:none;marker-start:none;marker-mid:none;marker-end:none;stroke-miterlimit:4;stroke-dasharray:none;stroke-dashoffset:0;stroke-opacity:1;visibility:visible;display:inline;overflow:visible" />
      <path
         d="M 436.16834,380.17752 C 436.43414,380.11439 441.36856,379.44832 442.93184,379.22079 C 453.96911,377.84138 464.60943,374.55547 475.60512,373.02567 C 492.16221,371.18002 488.45326,386.99219 485.37787,396.32134 C 482.72897,403.97229 479.47135,411.43319 476.08785,418.83576 L 469.3468,416.75549 C 472.79275,409.64043 476.05604,402.43286 478.47856,394.96732 C 479.8104,390.59316 485.01592,379.00375 476.10461,379.88663 C 465.17843,381.07653 454.63128,384.38237 443.84888,386.28017 C 441.12362,386.84858 438.41195,387.61861 435.64592,387.94533 L 436.16834,380.17752 z "
         id="path9030"
         style="opacity:1;color:#000000;fill:#000000;fill-opacity:1;fill-rule:nonzero;stroke:none;stroke-width:3.9000001;stroke-linecap:butt;stroke-linejoin:miter;marker:none;marker-start:none;marker-mid:none;marker-end:none;stroke-miterlimit:4;stroke-dasharray:none;stroke-dashoffset:0;stroke-opacity:1;visibility:visible;display:inline;overflow:visible" />
      <path
         d="M 436.60098,392.76782 C 433.05755,393.13173 439.32357,392.12646 440.00709,392.01621 C 445.26766,391.15439 450.46939,390.02443 455.64689,388.82272 C 459.39139,387.96936 463.0904,386.96996 466.75987,385.88308 C 470.48889,384.5162 473.16944,384.34876 476.16118,387.07295 C 477.79653,390.84112 475.45213,394.31407 473.58707,397.65681 C 471.72498,400.88954 469.71052,404.04672 467.74926,407.22994 C 466.50636,409.22519 465.33589,411.25621 464.23698,413.31946 C 463.9736,413.73011 463.89498,414.20529 463.7254,414.6445 L 455.41751,413.66191 C 455.67143,412.67861 455.87616,411.68303 456.37461,410.76682 C 457.54965,408.48678 458.90486,406.29115 460.29297,404.11258 C 462.24757,401.03782 464.25543,397.98807 466.04963,394.83208 C 466.6323,393.77491 468.24269,388.41943 468.962,391.08618 C 471.5584,393.17064 472.34784,392.11084 468.55945,393.23021 C 464.72671,394.25722 460.85966,395.1703 456.9717,396.00871 C 451.67672,397.16625 446.36944,398.2752 441.06188,399.38373 C 439.36715,399.7593 437.78891,400.41461 436.07856,400.53563 L 436.60098,392.76782 z "
         id="path9032"
         style="opacity:1;color:#000000;fill:#000000;fill-opacity:1;fill-rule:nonzero;stroke:none;stroke-width:3.9000001;stroke-linecap:butt;stroke-linejoin:miter;marker:none;marker-start:none;marker-mid:none;marker-end:none;stroke-miterlimit:4;stroke-dasharray:none;stroke-dashoffset:0;stroke-opacity:1;visibility:visible;display:inline;overflow:visible" />
      <path
         id="path11787"
         d="M 469.72092,410.07092 C 466.93649,409.22979 464.06656,408.73015 461.2156,408.17637 C 458.60588,408.40737 457.49519,411.25937 456.41076,413.25457 C 455.77752,416.08695 457.90339,418.62641 459.65942,420.58967 C 461.90241,422.60298 464.89997,423.69222 467.84843,424.14152 C 471.01064,424.41948 475.04009,424.47006 476.89791,421.37066 C 478.78056,419.41272 478.10848,416.31569 476.37423,414.5044 C 474.61516,412.43818 471.96728,411.49274 469.72092,410.07092 L 469.72092,410.07092 z "
         style="opacity:1;color:#000000;fill:#cfcfcf;fill-opacity:1;fill-rule:nonzero;stroke:none;stroke-width:3.9000001;stroke-linecap:butt;stroke-linejoin:miter;marker:none;marker-start:none;marker-mid:none;marker-end:none;stroke-miterlimit:4;stroke-dasharray:none;stroke-dashoffset:0;stroke-opacity:1;visibility:visible;display:inline;overflow:visible" />
      <path
         d="M 468.94813,415.09317 C 467.30377,414.4684 467.18295,414.62059 465.81622,414.14203 C 464.05732,413.68852 462.4386,413.79885 460.74633,414.26281 C 459.72186,415.23151 460.95669,413.68493 460.42467,415.1464 C 460.84647,416.90262 462.03391,418.17942 463.48677,419.32634 C 465.2283,420.55147 467.15043,420.67634 469.26042,420.56516 C 470.85767,420.59074 472.41409,419.73651 473.65003,418.81606 C 474.3121,418.13342 473.93765,417.80134 473.8203,417.06899 C 473.12894,416.00958 472.01677,415.38056 470.90279,414.73673 C 469.68908,414.07467 468.31731,413.82356 466.95316,413.56974 C 466.85258,413.56019 466.75201,413.55063 466.65142,413.54107 L 468.13955,406.0638 C 468.32167,406.08702 468.50379,406.11024 468.68591,406.13347 C 471.03818,406.56858 473.35072,407.15493 475.40505,408.33092 C 477.74508,409.71111 479.91867,411.2811 481.23418,413.58195 C 482.81871,416.78503 482.85775,420.08924 480.53281,423.03988 C 477.62842,426.09721 473.75617,427.70767 469.34389,428.05415 C 465.28796,428.18598 461.45787,427.48362 458.22135,425.11265 C 455.22229,422.75944 452.93665,419.85552 452.21231,416.245 C 451.94941,411.98468 453.98924,408.50791 458.58757,406.97005 C 461.71627,406.16284 464.87036,406.1473 468.04728,406.80895 C 469.28104,407.09058 473.91467,408.60214 469.47055,407.32536 L 468.94813,415.09317 z "
         id="path9036"
         style="opacity:1;color:#000000;fill:#000000;fill-opacity:1;fill-rule:nonzero;stroke:none;stroke-width:3.9000001;stroke-linecap:butt;stroke-linejoin:miter;marker:none;marker-start:none;marker-mid:none;marker-end:none;stroke-miterlimit:4;stroke-dasharray:none;stroke-dashoffset:0;stroke-opacity:1;visibility:visible;display:inline;overflow:visible" />
    </g>
    <g
       id="g12728"
       transform="matrix(2.422221,-0.620387,0.620387,2.422221,-511.3133,-287.8134)">
      <path
         id="path2541"
         d="M 246.9823,427.2435 C 262.47272,429.93191 278.44477,429.24523 294.061,428.95355 C 302.91056,425.02813 331.08116,422.53827 317.85162,438.02604 C 305.50565,443.96251 285.47311,446.42218 286.73332,464.6794 C 285.85613,487.83763 285.60184,511.14896 282.11047,534.077 C 289.84605,543.52669 305.76098,529.86704 317.15914,533.26676 C 331.4733,529.10623 346.56366,547.30621 328.42348,554.05394 C 312.62817,559.72583 294.70515,562.54329 278.24259,558.37044 C 263.11144,555.2498 267.84294,537.78996 267.38678,526.74503 C 269.94533,502.66768 272.05534,478.48341 275.94829,454.62586 C 276.61285,435.2416 252.0217,451.17353 245.25921,439.18475 C 244.34046,435.85702 242.85281,428.94977 246.9823,427.2435 z "
         style="opacity:1;color:#000000;fill:#757575;fill-opacity:1;fill-rule:nonzero;stroke:none;stroke-width:3.9000001;stroke-linecap:butt;stroke-linejoin:miter;marker:none;marker-start:none;marker-mid:none;marker-end:none;stroke-miterlimit:4;stroke-dasharray:none;stroke-dashoffset:0;stroke-opacity:1;visibility:visible;display:inline;overflow:visible" />
      <path
         id="path1307"
         d="M 316.5961,421.34375 C 313.96137,421.48818 311.31645,422.18718 308.5961,422.8125 C 300.78116,424.2901 292.85899,425.32135 284.9086,425.6875 C 275.32986,426.13462 265.73422,426.1156 256.18985,425.09375 C 253.38998,424.76322 250.39539,424.30784 247.81485,423.78125 L 247.68985,425.71875 L 244.37735,424.375 C 243.71952,426.87415 242.84047,429.31579 242.06485,431.78125 C 240.36107,437.24486 239.54232,443.26003 244.56485,447.1875 C 250.95881,450.3632 258.67054,448.75061 265.50235,448.0625 C 268.27312,447.88822 269.51559,447.5393 270.06485,447.75 C 270.11591,447.77217 270.18165,447.81013 270.2211,447.84375 C 270.23366,447.85564 270.27219,447.89296 270.2836,447.90625 C 270.58224,448.29133 270.48128,449.22087 270.56485,451.21875 C 270.03771,465.2997 268.17654,479.3255 266.5336,493.3125 C 264.80976,507.9928 263.03888,522.66685 261.56485,537.375 C 261.42384,538.77913 261.28628,540.18835 261.1586,541.59375 L 260.18985,541.65625 C 260.19329,541.41345 260.1638,541.27139 260.1586,541.21875 C 260.0948,541.60585 259.92774,544.67604 259.9086,545.1875 C 259.91684,550.73682 262.17773,555.72798 266.2836,559.4375 C 275.91111,566.20888 288.97023,565.8683 300.2211,565.125 C 312.28595,563.94221 324.6234,561.32412 334.87735,554.5625 C 341.74197,549.9552 345.31822,542.87894 340.5961,535.53125 C 336.27283,531.01967 330.16703,529.99305 324.18985,529.5625 C 316.97227,529.29504 309.78,530.22143 302.6586,531.28125 C 297.48254,532.01676 292.34762,532.94084 287.25235,534.09375 C 287.99557,522.98825 288.85869,511.88286 289.6586,500.78125 C 290.55577,488.90609 291.55296,477.05833 292.50235,465.1875 C 292.76492,461.11869 292.73549,456.99445 293.4086,452.96875 C 293.64388,452.28869 294.03334,451.37882 294.1586,450.9375 C 296.66228,450.19165 299.2593,450.07953 301.9086,449.96875 C 307.28793,449.40441 312.69308,448.44341 317.62735,446.125 C 322.51253,443.52564 326.06938,439.98618 326.9086,434.34375 C 327.55233,429.93267 327.34364,425.6022 323.5336,422.65625 C 321.23288,421.53381 318.92087,421.21631 316.5961,421.34375 z M 317.12735,430.90625 C 317.23667,430.89484 317.34121,430.9159 317.43985,430.90625 C 317.26767,431.54192 317.35032,432.80528 317.2836,433.25 C 316.4891,436.17415 315.72471,436.21784 314.00235,437.34375 C 310.17624,439.31393 305.89462,439.98094 301.6586,440.40625 C 298.01036,440.59661 294.37924,440.62485 290.87735,441.75 C 286.56559,443.48011 284.76048,447.30272 283.8461,451.5625 C 283.18027,456.07815 283.27966,460.66507 283.1586,465.21875 C 282.78163,477.04008 282.06827,488.85567 281.2836,500.65625 C 280.34552,514.76792 279.02898,528.85064 277.7836,542.9375 C 277.71992,543.66193 277.65977,544.36933 277.5961,545.09375 L 286.56485,545.25 C 286.58954,544.81177 286.60266,544.37573 286.62735,543.9375 C 292.12175,542.40728 297.6906,541.22429 303.3461,540.4375 C 309.88661,539.46388 316.50221,538.67416 323.12735,538.90625 C 326.55343,539.13935 330.17528,539.48749 333.06485,541.5 C 333.3373,543.50449 332.23798,545.08577 330.37735,546.5625 C 321.5844,552.89405 310.86628,555.53289 300.18985,556.5625 C 291.08781,557.19987 280.68417,557.48699 272.6586,552.5 C 270.64426,550.35128 269.42434,548.04303 269.62735,545 C 269.71361,544.29635 269.82909,543.59388 269.93985,542.90625 L 270.25235,542.90625 C 270.33478,541.13611 270.4243,539.36249 270.5336,537.59375 C 271.44062,522.95391 272.9039,508.37719 274.62735,493.8125 C 276.35727,479.47188 278.61376,465.18331 279.75235,450.78125 C 279.87864,441.25374 274.36452,437.03342 265.1586,438.75 C 260.23414,439.31296 255.20923,440.02357 250.2836,439.40625 C 250.44079,437.5884 250.88147,435.82698 251.3461,434.0625 C 251.35161,434.04639 251.37122,434.01783 251.37735,434 C 252.89294,434.12402 254.32706,434.24668 254.8461,434.28125 C 264.78562,434.93522 274.76878,435.00585 284.7211,434.65625 C 293.05393,434.39105 301.34205,433.43444 309.56485,432.09375 C 311.42725,431.62135 315.12573,431.11515 317.12735,430.90625 z "
         style="opacity:1;color:#000000;fill:#000000;fill-opacity:1;fill-rule:nonzero;stroke:none;stroke-width:3.9000001;stroke-linecap:butt;stroke-linejoin:miter;marker:none;marker-start:none;marker-mid:none;marker-end:none;stroke-miterlimit:4;stroke-dasharray:none;stroke-dashoffset:0;stroke-opacity:1;visibility:visible;display:inline;overflow:visible" />
    </g>
    <g
       id="g15459">
      <path
         id="path4293"
         d="M 526.42085,832.05865 C 503.71145,866.49075 518.17436,920.82344 557.40891,936.09597 C 598.44737,950.22447 645.72575,928.30669 667.11592,891.77952 C 684.90025,862.23182 683.85863,823.74229 669.3189,793.11298 C 660.36312,775.25784 645.56567,758.66389 626.03627,752.67113 C 598.97448,747.89442 573.54949,764.9459 555.69516,783.67686 C 542.51273,797.30842 531.12846,813.44796 526.42085,832.05865 z "
         style="color:#000000;fill:#2095aa;fill-opacity:0.20496892;fill-rule:nonzero;stroke:none;stroke-width:3.9000001;stroke-linecap:butt;stroke-linejoin:miter;marker:none;marker-start:none;marker-mid:none;marker-end:none;stroke-miterlimit:4;stroke-dasharray:none;stroke-dashoffset:0;stroke-opacity:1;visibility:visible;display:inline;overflow:visible" />
      <path
         d="M 532.49282,859.45978 C 532.10307,855.14508 529.7937,877.89799 529.78081,882.47155 C 529.3919,905.23586 539.35374,922.7278 562.70306,929.74238 C 598.53034,937.26595 635.61927,920.59926 656.22235,891.90112 C 679.25503,856.1564 674.37451,812.82062 652.28629,779.32364 C 632.75248,751.54651 602.14807,753.10481 575.76595,773.34037 C 548.96211,796.56347 535.12162,829.05406 527.33028,861.47664 L 509.92662,859.50757 C 519.67292,822.79437 535.67069,786.14251 566.44121,759.95698 C 600.83677,733.95564 642.60887,734.33986 666.74652,770.31633 C 691.06661,809.05716 696.46864,857.97645 670.80889,899.08023 C 644.57507,934.00895 601.30648,955.32756 556.37006,945.75635 C 526.08576,936.75695 511.12278,914.17114 510.78721,884.48956 C 510.44032,873.57744 510.2382,862.1564 513.3673,851.45875 L 532.49282,859.45978 z "
         id="path1510"
         style="color:#000000;fill:#000000;fill-opacity:0.33540374;fill-rule:nonzero;stroke:none;stroke-width:3.9000001;stroke-linecap:butt;stroke-linejoin:miter;marker:none;marker-start:none;marker-mid:none;marker-end:none;stroke-miterlimit:4;stroke-dasharray:none;stroke-dashoffset:0;stroke-opacity:1;visibility:visible;display:inline;overflow:visible" />
    </g>
  </g>
</svg>
