<?xml version="1.0" encoding="UTF-8" standalone="no"?>
<!-- Created with Inkscape (http://www.inkscape.org/) -->
<svg
   xmlns:dc="http://purl.org/dc/elements/1.1/"
   xmlns:cc="http://web.resource.org/cc/"
   xmlns:rdf="http://www.w3.org/1999/02/22-rdf-syntax-ns#"
   xmlns:svg="http://www.w3.org/2000/svg"
   xmlns="http://www.w3.org/2000/svg"
   xmlns:sodipodi="http://inkscape.sourceforge.net/DTD/sodipodi-0.dtd"
   xmlns:inkscape="http://www.inkscape.org/namespaces/inkscape"
   width="1000"
   height="1000"
   id="svg2"
   sodipodi:version="0.32"
   inkscape:version="0.43"
   version="1.0"
   sodipodi:docbase="/home/kkowal/tale/art/monster"
   sodipodi:docname="shrub.svg"
   inkscape:export-filename="/home/kkowal/tale/art/monster/shrub.png"
   inkscape:export-xdpi="90"
   inkscape:export-ydpi="90">
  <defs
     id="defs4" />
  <sodipodi:namedview
     id="base"
     pagecolor="#ffffff"
     bordercolor="#666666"
     borderopacity="1.0"
     inkscape:pageopacity="0.0"
     inkscape:pageshadow="2"
     inkscape:zoom="0.35"
     inkscape:cx="437.70535"
     inkscape:cy="683.16866"
     inkscape:document-units="px"
     inkscape:current-layer="layer1"
     inkscape:window-width="1600"
     inkscape:window-height="1125"
     inkscape:window-x="0"
     inkscape:window-y="25" />
  <metadata
     id="metadata7">
    <rdf:RDF>
      <cc:Work
         rdf:about="">
        <dc:format>image/svg+xml</dc:format>
        <dc:type
           rdf:resource="http://purl.org/dc/dcmitype/StillImage" />
      </cc:Work>
    </rdf:RDF>
  </metadata>
  <g
     inkscape:label="Layer 1"
     inkscape:groupmode="layer"
     id="layer1">
    <g
       id="g4505"
       transform="matrix(0.933309,0,0,0.950839,2.369102,65.12529)">
      <path
         id="path4491"
         d="M 495.98489,597.95929 C 445.74371,610.87439 414.73205,665.91198 421.12291,715.93321 C 422.87803,751.65131 436.27169,786.67789 458.72672,814.50264 C 514.858,844.52499 547.44909,906.44263 607.8076,929.96734 C 624.43932,934.26995 634.11166,916.49952 637.64422,903.01305 C 652.99972,845.5909 705.35901,806.37854 718.89752,748.10793 C 727.78487,715.32727 708.38163,681.53447 681.35153,663.64686 C 639.60503,633.54501 594.62239,604.36462 543.18561,594.87165 C 527.63749,592.84574 510.34687,589.75945 495.98489,597.95929 z "
         style="opacity:1;color:#000000;fill:#27e174;fill-opacity:1;fill-rule:nonzero;stroke:none;stroke-width:3.9000001;stroke-linecap:butt;stroke-linejoin:miter;marker:none;marker-start:none;marker-mid:none;marker-end:none;stroke-miterlimit:4;stroke-dasharray:none;stroke-dashoffset:0;stroke-opacity:1;visibility:visible;display:inline;overflow:visible" />
      <path
         d="M 478.0249,619.96664 C 464.33992,634.28355 500.54748,598.75506 483.53959,615.43074 C 479.75911,619.13738 476.22609,623.04829 472.70645,627.00001 C 449.62381,654.73296 428.60039,686.81457 425.26067,723.52943 C 424.34728,774.13837 465.12516,810.3372 501.01307,840.20078 C 532.4233,866.49074 567.93766,887.29298 599.96001,912.75599 C 629.12669,938.51392 623.82448,926.45601 600.66401,947.40624 C 613.0356,927.53893 621.62908,905.08444 632.44748,884.18148 C 651.40016,848.4095 674.63849,815.15331 693.92526,779.57102 C 711.43948,748.86837 715.97054,716.51063 696.3774,685.94631 C 667.18855,648.89715 622.78588,626.63593 579.63226,609.78011 C 553.99976,600.2738 527.01532,592.45353 499.42099,594.21155 L 514.36864,572.6149 C 542.26271,573.0943 569.04197,581.99309 594.58106,592.62211 C 638.26088,611.41654 682.65829,634.7442 714.4403,670.86176 C 736.89152,702.42206 734.08498,737.46704 715.43721,770.45313 C 696.23838,805.80558 673.09352,838.86487 654.60206,874.61663 C 644.28804,895.06701 634.70618,915.98675 627.08323,937.59727 C 593.3588,969.22732 605.20831,951.74467 581.64785,930.49351 C 551.45972,903.20501 516.91582,881.22591 486.08364,854.70063 C 449.18518,823.51291 405.92302,787.28326 404.99857,735.02319 C 406.9474,697.5872 426.90445,664.8675 448.96826,635.5692 C 461.00376,620.34383 475.72087,603.59847 491.66973,594.16058 L 478.0249,619.96664 z "
         id="path3616"
         style="opacity:1;color:#000000;fill:#000000;fill-opacity:1;fill-rule:nonzero;stroke:none;stroke-width:3.9000001;stroke-linecap:butt;stroke-linejoin:miter;marker:none;marker-start:none;marker-mid:none;marker-end:none;stroke-miterlimit:4;stroke-dasharray:none;stroke-dashoffset:0;stroke-opacity:1;visibility:visible;display:inline;overflow:visible" />
    </g>
    <g
       id="g3541" />
    <g
       id="g5574"
       transform="matrix(0.924337,0,0,0.802315,162.2223,187.8281)">
      <g
         id="g5569">
        <path
           style="opacity:1;color:#000000;fill:#27e174;fill-opacity:1;fill-rule:nonzero;stroke:none;stroke-width:3.9000001;stroke-linecap:butt;stroke-linejoin:miter;marker:none;marker-start:none;marker-mid:none;marker-end:none;stroke-miterlimit:4;stroke-dasharray:none;stroke-dashoffset:0;stroke-opacity:1;visibility:visible;display:inline;overflow:visible"
           d="M 255.71429,310.71429 C 270.4659,333.67849 268.86996,362.09574 268.57895,388.2304 C 267.83387,412.10216 263.37903,435.7394 263.59625,459.65808 C 270.20535,488.66022 311.26235,501.60524 333.30348,481.62412 C 351.45114,460.59278 366.20167,428.79949 356.9236,403.6206 C 351.43409,380.3399 348.41727,356.32725 336.20148,333.10498 C 330.47994,306.01173 311.33835,284.71082 292.96034,265.11035 C 279.61246,253.35236 255.18649,254.60131 245.78607,270.72372 C 241.72431,282.21913 248.71148,293.59062 254.92595,302.82393 C 255.77576,305.3443 256.1926,308.07175 255.71429,310.71429 z "
           id="path5485"
           sodipodi:nodetypes="cccccccccc" />
        <path
           style="opacity:1;color:#000000;fill:#000000;fill-opacity:1;fill-rule:nonzero;stroke:none;stroke-width:3.9000001;stroke-linecap:butt;stroke-linejoin:miter;marker:none;marker-start:none;marker-mid:none;marker-end:none;stroke-miterlimit:4;stroke-dasharray:none;stroke-dashoffset:0;stroke-opacity:1;visibility:visible;display:inline;overflow:visible"
           id="path4553"
           d="M 274.73016,235.21194 C 279.59821,238.97246 284.6845,242.41132 289.46784,246.29756 C 306.0404,259.57995 319.87802,275.63775 330.58143,293.9525 C 337.84946,306.56495 342.12793,320.49766 345.29079,334.62271 L 328.80685,345.6533 C 326.25186,331.91584 322.36684,318.41363 315.32111,306.23898 C 304.99475,288.55182 291.14289,273.23154 274.16956,261.6643 C 271.20654,259.69183 260.75559,252.69222 261.00244,254.78806 L 274.73016,235.21194 z " />
        <path
           style="opacity:1;color:#000000;fill:#000000;fill-opacity:1;fill-rule:nonzero;stroke:none;stroke-width:3.9000001;stroke-linecap:butt;stroke-linejoin:miter;marker:none;marker-start:none;marker-mid:none;marker-end:none;stroke-miterlimit:4;stroke-dasharray:none;stroke-dashoffset:0;stroke-opacity:1;visibility:visible;display:inline;overflow:visible"
           id="path4555"
           d="M 271.71224,308.91287 C 270.07283,307.72106 273.79838,317.10271 274.38565,319.16003 C 279.62299,336.97992 280.63741,355.58584 279.69456,374.03888 C 279.38149,379.6323 278.75458,385.1987 278.05875,390.75492 L 259.82785,400.60725 C 260.76405,395.12666 261.62168,389.63061 262.07147,384.08441 C 263.39732,366.52455 262.57533,348.68111 256.40173,332.00979 C 254.99213,328.22223 253.44358,324.44722 251.14489,321.10545 L 271.71224,308.91287 z " />
      </g>
      <g
         id="g5564">
        <path
           style="opacity:1;color:#000000;fill:#27e174;fill-opacity:1;fill-rule:nonzero;stroke:none;stroke-width:3.9000001;stroke-linecap:butt;stroke-linejoin:miter;marker:none;marker-start:none;marker-mid:none;marker-end:none;stroke-miterlimit:4;stroke-dasharray:none;stroke-dashoffset:0;stroke-opacity:1;visibility:visible;display:inline;overflow:visible"
           d="M 278.57144,267.85715 C 281.64856,303.50823 247.49124,334.69905 212.82129,333.7995 C 174.29816,341.48223 134.88632,324.6925 106.57044,299.07387 C 50.165745,257.57979 12.927046,194.47082 -6.9353168,128.15708 C -12.463784,112.13531 -26.834156,94.830948 -18.812396,77.425534 C -8.9987026,60.477291 13.055611,58.959476 30.507561,60.781373 C 87.600196,60.655827 153.07538,58.67536 201.22784,91.795556 C 223.56746,109.62246 242.35708,136.38203 264.36093,154.59154 C 285.33038,187.42643 265.83972,232.67858 278.57144,267.85715 z "
           id="path5430"
           sodipodi:nodetypes="ccccccccc" />
        <path
           style="opacity:1;color:#000000;fill:#000000;fill-opacity:1;fill-rule:nonzero;stroke:none;stroke-width:3.9000001;stroke-linecap:butt;stroke-linejoin:miter;marker:none;marker-start:none;marker-mid:none;marker-end:none;stroke-miterlimit:4;stroke-dasharray:none;stroke-dashoffset:0;stroke-opacity:1;visibility:visible;display:inline;overflow:visible"
           id="path4535"
           d="M 256.57373,260.89605 C 262.51008,256.51328 264.8182,247.94934 266.59276,240.89606 C 272.15261,213.48655 266.87504,184.90599 255.76446,159.57873 C 235.55466,119.14349 195.64996,94.834291 154.49923,79.790681 C 113.50297,65.624241 69.898464,61.832071 26.876764,65.813701 C 8.3545641,68.083271 -10.705346,70.833141 -27.710786,78.975411 L -16.934846,59.605531 C 0.49732411,54.053301 18.754394,51.824671 36.976244,50.834391 C 80.145884,48.970771 123.68377,53.529671 164.60217,67.963631 C 206.78061,83.646211 247.39075,108.46689 269.89597,148.79501 C 282.20756,174.24499 288.01154,202.93862 285.10235,231.18931 C 284.03156,238.79741 282.25703,246.31165 279.21382,253.31639 L 256.57373,260.89605 z " />
        <path
           style="opacity:1;color:#000000;fill:#000000;fill-opacity:1;fill-rule:nonzero;stroke:none;stroke-width:3.9000001;stroke-linecap:butt;stroke-linejoin:miter;marker:none;marker-start:none;marker-mid:none;marker-end:none;stroke-miterlimit:4;stroke-dasharray:none;stroke-dashoffset:0;stroke-opacity:1;visibility:visible;display:inline;overflow:visible"
           id="path4551"
           d="M -16.144896,61.055727 C -16.937416,65.164717 -14.732716,70.663617 -13.366476,74.848097 C -5.0633259,98.887417 5.3282641,122.13879 15.777924,145.30382 C 31.882794,181.01115 49.680634,216.03239 71.164524,248.82833 C 90.459284,277.89247 114.64672,304.05715 145.61629,320.69443 C 170.48801,332.8255 198.78265,336.20289 225.37509,328.23456 C 236.78147,324.40247 247.49624,318.62144 257.06476,311.3314 C 259.92337,309.1535 267.95997,301.95459 265.26168,304.32823 C 242.62525,324.24109 252.53578,315.93919 257.30254,310.96306 C 264.55949,303.43712 268.51099,294.35013 269.05992,284.00643 C 269.23378,277.87079 267.62917,272.1851 264.69236,266.87615 L 282.62069,252.35538 C 286.18956,258.59258 288.20946,265.38767 288.34725,272.61851 C 288.29358,284.19051 285.34822,294.90264 277.60785,303.84123 C 261.23628,323.1447 239.52834,338.15195 215.19308,345.21048 C 187.39092,351.95159 158.52721,347.05088 133.15414,334.15845 C 101.81457,316.69733 77.454124,289.51595 57.925894,259.76381 C 36.681454,226.65169 18.917364,191.46587 1.4782941,156.24631 C -9.5313859,133.50091 -20.456986,110.71026 -30.724626,87.617937 C -32.832446,82.883137 -35.005756,78.135117 -36.712246,73.248307 L -16.144896,61.055727 z " />
      </g>
    </g>
    <g
       id="g3340"
       transform="matrix(1.042235,0,0,0.935519,-17.87835,168.4331)">
      <g
         id="g3334">
        <g
           id="g3309">
          <path
             id="path3302"
             d="M 280.31732,437.8501 C 304.14909,415.61572 339.10599,385.85447 373.15016,397.59899 C 405.20599,419.11808 414.1388,460.356 423.19168,495.56408 C 429.35257,524.10535 432.04267,553.37924 431.39371,582.56542 C 408.25213,594.48213 378.68596,591.31618 372.62054,562.01312 C 355.73875,535.9528 365.42701,505.11868 356.94111,478.54185 C 335.03047,448.93997 322.23735,499.90614 296.70456,489.56396 C 277.53195,481.74555 246.02519,459.8487 275.61155,443.2987 L 278.03586,440.66101 L 280.31732,437.8501 L 280.31732,437.8501 z "
             style="opacity:1;color:#000000;fill:#27e174;fill-opacity:1;fill-rule:nonzero;stroke:none;stroke-width:3.9000001;stroke-linecap:butt;stroke-linejoin:miter;marker:none;marker-start:none;marker-mid:none;marker-end:none;stroke-miterlimit:4;stroke-dasharray:none;stroke-dashoffset:0;stroke-opacity:1;visibility:visible;display:inline;overflow:visible"
             sodipodi:nodetypes="ccccccccccc" />
          <path
             d="M 267.11053,438.62331 C 278.25588,428.49934 291.22491,417.09903 304.26004,407.87954 C 321.14241,397.18014 338.89294,384.88514 359.61859,381.73762 C 384.95285,379.97189 402.17933,400.07287 412.84508,418.53996 C 424.62467,439.90094 429.81329,463.48073 431.65808,487.19222 L 410.21113,499.21979 C 409.45443,476.20033 405.0284,453.18358 393.57229,432.479 C 384.02173,416.28584 368.48966,398.05731 345.91452,401.96087 C 326.26375,406.6116 309.21963,418.3215 293.4849,429.58714 C 273.95543,444.92399 317.48916,407.67647 294.32997,430.26611 L 267.11053,438.62331 z "
             id="path1422"
             style="opacity:1;color:#000000;fill:#000000;fill-opacity:1;fill-rule:nonzero;stroke:none;stroke-width:3.9000001;stroke-linecap:butt;stroke-linejoin:miter;marker:none;marker-start:none;marker-mid:none;marker-end:none;stroke-miterlimit:4;stroke-dasharray:none;stroke-dashoffset:0;stroke-opacity:1;visibility:visible;display:inline;overflow:visible" />
        </g>
        <path
           style="opacity:1;color:#000000;fill:#000000;fill-opacity:1;fill-rule:nonzero;stroke:none;stroke-width:3.9000001;stroke-linecap:butt;stroke-linejoin:miter;marker:none;marker-start:none;marker-mid:none;marker-end:none;stroke-miterlimit:4;stroke-dasharray:none;stroke-dashoffset:0;stroke-opacity:1;visibility:visible;display:inline;overflow:visible"
           d="M 323.97073,483.96097 C 322.94756,479.2702 326.51396,475.23418 329.95223,472.57864 C 335.3389,468.36414 341.60747,465.45184 347.1207,461.43994 C 352.80753,458.47449 360.24754,460.38299 364.31339,465.17955 C 369.91961,471.71217 371.47493,480.63511 371.56315,489.00008 C 371.79032,494.34103 370.91343,499.64992 369.56025,504.79981 C 361.15964,508.56859 352.75904,512.33736 344.35843,516.10614 C 346.41359,510.84491 347.70414,505.26907 347.66838,499.59764 C 347.72685,494.26674 347.21173,488.64841 344.56657,483.91655 C 343.30754,481.40053 340.7378,480.54203 338.42483,482.36123 C 337.24964,482.76343 334.97972,484.60111 334.97993,484.83983 C 336.64298,483.55286 340.82982,480.46249 337.28877,478.84354 C 335.79732,478.28686 334.03307,476.93452 332.69192,478.38298 C 329.78486,480.24231 326.8778,482.10164 323.97073,483.96097 z "
           id="path1424" />
      </g>
      <g
         id="g3313">
        <path
           style="opacity:1;color:#000000;fill:#27e174;fill-opacity:1;fill-rule:nonzero;stroke:none;stroke-width:3.9000001;stroke-linecap:butt;stroke-linejoin:miter;marker:none;marker-start:none;marker-mid:none;marker-end:none;stroke-miterlimit:4;stroke-dasharray:none;stroke-dashoffset:0;stroke-opacity:1;visibility:visible;display:inline;overflow:visible"
           d="M 304.05591,452.49731 C 238.56902,440.68826 156.94233,430.83388 107.14761,485.31478 C 68.023964,534.05253 66.952035,599.78862 65.899356,659.32246 C 58.751576,711.79317 165.82358,651.63348 212.93472,654.50308 C 262.0038,636.94355 332.74366,633.63336 357.01944,580.37181 C 372.22392,532.80996 343.97778,478.6891 304.05591,452.49731 z "
           id="path3290"
           sodipodi:nodetypes="cccccc" />
        <path
           style="opacity:1;color:#000000;fill:#000000;fill-opacity:1;fill-rule:nonzero;stroke:none;stroke-width:3.9000001;stroke-linecap:butt;stroke-linejoin:miter;marker:none;marker-start:none;marker-mid:none;marker-end:none;stroke-miterlimit:4;stroke-dasharray:none;stroke-dashoffset:0;stroke-opacity:1;visibility:visible;display:inline;overflow:visible"
           d="M 246.61374,430.33211 C 227.49989,430.56632 208.42414,432.7485 189.61279,436.50787 C 145.38361,445.94576 105.16969,469.6048 82.38844,506.35374 C 63.672776,539.98712 61.844714,578.51697 60.01383,615.52525 C 58.183974,641.75504 59.523413,668.29572 55.495462,694.37578 L 51.237769,701.4281 C 52.270654,700.985 53.325394,700.57941 54.36587,700.1531 C 54.022279,701.52982 53.62597,702.92101 53.279724,704.29684 L 76.95771,692.90156 C 76.988421,692.68438 77.013028,692.48116 77.044601,692.26406 C 78.656824,691.79379 80.243383,691.34882 81.86709,690.90938 C 126.89833,678.66887 173.47063,672.32296 219.11252,662.38135 C 272.49883,650.37784 326.43499,633.37054 360.13773,590.58315 C 379.18185,563.22912 378.81765,532.81124 362.0059,504.4014 C 350.75511,484.92914 337.18344,466.58885 322.25296,449.33752 C 319.35106,446.1739 316.52846,442.87172 312.73832,440.57192 L 296.57646,461.76873 C 298.21542,462.84283 301.75707,465.67506 302.22442,466.07184 C 318.59059,481.3671 332.10549,499.19462 343.02007,518.1076 C 358.96471,545.09878 357.6909,573.36645 338.5017,598.3925 C 326.93455,615.61246 279.60443,634.70324 229.7133,646.36421 C 184.84522,656.48958 138.92057,662.02146 94.075373,672.22272 C 88.874259,673.40528 83.728991,674.69207 78.608652,676.1274 C 79.811066,652.508 78.263268,628.78766 79.521014,605.16591 C 80.986286,568.67937 83.84487,530.6549 103.93758,498.22564 C 120.45749,474.30696 125.89921,470.18561 177.83896,454.07891 C 210.69704,446.8729 244.89029,444.99964 277.89475,452.68438 C 283.64977,454.05852 289.84735,455.33925 294.66484,458.66092 L 310.91359,437.34459 C 309.08305,437.80948 297.88593,434.63475 294.0566,433.99772 C 278.31598,431.29337 262.45092,430.13806 246.61374,430.33211 z M 296.57646,461.76873 C 296.38135,461.64086 296.18821,461.52003 296.05511,461.44998 C 296.00471,461.42459 295.91966,461.3846 295.88133,461.37029 C 295.85497,461.36175 295.81333,461.33217 295.79444,461.33045 C 295.78988,461.33145 295.75465,461.36847 295.75099,461.37029 C 295.75079,461.37269 295.75095,461.40752 295.75099,461.41013 C 295.78405,461.52244 295.9478,461.75315 296.27234,462.12732 L 296.57646,461.76873 z "
           id="path1359" />
      </g>
    </g>
    <g
       id="g3421"
       transform="matrix(1.042235,0,0,0.935519,51.94286,64.45974)">
      <path
         sodipodi:nodetypes="ccccccc"
         id="path3408"
         d="M 402.54578,714.12683 C 296.09697,708.83046 155.55595,683.09306 101.80358,804.70865 C 64.018124,977.76914 43.429247,901.79831 243.66944,895.49657 C 335.22818,905.28103 540.95835,859.24585 431.2227,730.1267 L 418.05602,720.48182 L 402.54578,714.12683 L 402.54578,714.12683 z "
         style="opacity:1;color:#000000;fill:#27e174;fill-opacity:1;fill-rule:nonzero;stroke:none;stroke-width:3.9000001;stroke-linecap:butt;stroke-linejoin:miter;marker:none;marker-start:none;marker-mid:none;marker-end:none;stroke-miterlimit:4;stroke-dasharray:none;stroke-dashoffset:0;stroke-opacity:1;visibility:visible;display:inline;overflow:visible" />
      <path
         d="M 384.21474,727.9713 C 376.33583,724.42041 367.53487,722.62795 359.03951,720.71742 C 319.337,712.5735 278.42905,708.46142 237.83727,712.11415 C 189.02628,714.02837 148.95551,747.51425 143.41382,753.66624 C 119.99058,782.15287 107.79077,816.58412 98.301131,850.77088 C 94.376393,869.18827 87.402633,887.51857 86.721944,906.41366 C 90.62637,906.82496 105.21476,902.20707 112.06532,900.72334 C 150.20079,893.61969 189.32456,893.13378 228.05527,891.20314 C 281.41898,888.14667 335.53454,884.49879 386.65239,869.18057 C 437.46148,847.91717 432.93377,856.12143 445.17976,827.33086 C 453.40291,803.81691 444.89069,779.62285 432.87532,758.6022 C 423.70622,743.12249 411.76135,729.03738 395.28584,719.74652 C 390.42458,717.1305 385.15525,715.99276 379.61437,715.57403 L 396.15758,695.4801 C 402.41453,696.76867 408.38897,698.69718 413.74263,702.04317 C 430.75093,712.55793 442.67172,728.29715 452.32965,744.62901 C 464.90043,767.0442 474.61488,792.27014 467.52975,817.59897 C 454.59288,854.53974 413.66066,875.38191 375.61474,886.42356 C 323.93165,900.15502 269.82733,903.11273 216.44272,906.94411 C 177.07896,909.46136 137.09542,911.03472 98.896569,920.83115 C 87.919826,923.84571 68.716888,933.86766 63.329353,919.38208 C 63.581714,899.3152 73.262185,880.04689 77.187924,860.50461 C 87.429563,825.74762 99.455831,790.62702 122.20082,760.84887 C 153.91293,722.90309 198.00707,699.7577 249.87177,695.53422 C 291.55393,692.39325 333.26882,696.74709 374.43567,702.7668 C 384.17532,704.28651 394.12273,705.54605 403.4958,708.47891 L 384.21474,727.9713 z "
         id="path1389"
         style="opacity:1;color:#000000;fill:#000000;fill-opacity:1;fill-rule:nonzero;stroke:none;stroke-width:3.9000001;stroke-linecap:butt;stroke-linejoin:miter;marker:none;marker-start:none;marker-mid:none;marker-end:none;stroke-miterlimit:4;stroke-dasharray:none;stroke-dashoffset:0;stroke-opacity:1;visibility:visible;display:inline;overflow:visible" />
    </g>
    <g
       id="g3474"
       transform="matrix(1.042235,0,0,0.935519,37.43059,29.93483)">
      <path
         sodipodi:nodetypes="cccccc"
         id="path3460"
         d="M 534.28571,644.28571 C 444.69564,731.7686 534.7122,848.75956 615.39798,899.15234 C 717.76665,967.08318 747.07261,977.25231 743.46618,845.79362 C 752.80555,743.88344 665.02748,660.97123 568.22182,651.21662 L 554.84918,648.00333 L 541.42859,645"
         style="opacity:1;color:#000000;fill:#27e174;fill-opacity:1;fill-rule:nonzero;stroke:none;stroke-width:3.9000001;stroke-linecap:butt;stroke-linejoin:miter;marker:none;marker-start:none;marker-mid:none;marker-end:none;stroke-miterlimit:4;stroke-dasharray:none;stroke-dashoffset:0;stroke-opacity:1;visibility:visible;display:inline;overflow:visible" />
      <path
         id="path1438"
         d="M 543.61075,627.74347 C 542.62412,628.24767 541.65731,628.79218 540.69988,629.33722 C 539.86025,629.10471 539.03114,628.84573 538.22346,628.58019 L 534.83469,633.00283 C 534.818,633.0144 534.80791,633.0311 534.79124,633.04268 C 520.52401,642.95468 509.70601,657.26552 500.81659,671.33239 C 479.44392,705.93454 479.01583,744.60292 494.64728,781.06172 C 522.60661,835.62055 573.99098,876.04607 625.41928,911.82848 C 650.79654,929.34741 677.77424,944.84228 705.75064,958.60489 L 716.22109,948.00648 C 712.72734,956.32448 708.62481,964.40021 703.70869,972.11187 L 727.6908,962.70878 C 734.82933,948.79024 739.92207,934.1293 743.72231,919.1597 C 754.82811,873.46079 758.50499,825.12838 744.41745,779.62735 C 727.12102,731.80139 692.46659,693.00742 644.96991,667.42772 C 615.89689,652.04906 584.49984,640.81487 552.34336,632.12627 C 549.12296,631.2829 545.70737,630.60247 542.43771,629.7755 L 543.61075,627.74347 z M 530.4901,650.49418 C 530.75368,650.52609 531.01323,650.58116 531.27213,650.61371 C 530.98297,650.85243 530.7043,651.08197 530.40321,651.3309 C 530.40741,651.32237 530.3996,651.29929 530.40321,651.29105 C 530.41532,651.25929 530.4445,651.19816 530.44666,651.17152 C 530.44655,651.16521 530.44744,651.13765 530.44666,651.13168 C 530.44372,651.12046 530.40894,651.10158 530.40321,651.09184 C 530.39605,651.08286 530.36989,651.05939 530.35977,651.05199 C 530.35318,651.04912 530.3237,651.0146 530.31632,651.01215 C 530.29997,651.00811 530.24904,651.0144 530.22943,651.01215 C 530.21878,651.01147 530.19748,651.01236 530.18598,651.01215 L 530.4901,650.49418 z M 534.13955,650.9723 C 534.7962,651.06301 535.39822,651.14391 535.87739,651.21137 C 568.83838,656.76874 600.67359,667.48312 630.15487,682.01048 C 677.17494,705.90707 711.33642,743.71442 727.86458,790.46481 C 741.6561,835.81461 736.71393,883.75752 723.25932,928.64249 C 721.86036,933.08474 720.31943,937.50609 718.65406,941.87057 C 690.8337,929.81849 664.21911,915.56466 639.10472,899.23789 C 587.40775,865.22255 536.65855,824.75209 511.37393,769.86566 C 497.75056,733.6407 500.27726,695.4909 523.45188,662.88555 C 525.72874,659.75745 530.08006,655.15671 534.13955,650.9723 z "
         style="opacity:1;color:#000000;fill:#000000;fill-opacity:1;fill-rule:nonzero;stroke:none;stroke-width:3.9000001;stroke-linecap:butt;stroke-linejoin:miter;marker:none;marker-start:none;marker-mid:none;marker-end:none;stroke-miterlimit:4;stroke-dasharray:none;stroke-dashoffset:0;stroke-opacity:1;visibility:visible;display:inline;overflow:visible" />
    </g>
    <g
       id="g3595"
       transform="matrix(1.042235,0,0,0.935519,-64.03446,-18.67065)">
      <g
         id="g3590">
        <path
           style="color:#000000;fill:#27e174;fill-opacity:1;fill-rule:nonzero;stroke:none;stroke-width:3.9000001;stroke-linecap:butt;stroke-linejoin:miter;marker:none;marker-start:none;marker-mid:none;marker-end:none;stroke-miterlimit:4;stroke-dasharray:none;stroke-dashoffset:0;stroke-opacity:1;visibility:visible;display:inline;overflow:visible"
           d="M 679.28571,593.57141 C 678.81049,569.26661 542.51669,577.0628 503.4499,629.84324 C 479.24066,674.33921 515.20173,739.76526 568.48952,736.36275 C 620.75978,723.64408 532.2774,629.7822 614.70698,637.69904 C 641.45228,630.65972 687.59522,636.93378 679.28571,593.57141 z "
           id="path3478"
           sodipodi:nodetypes="ccccc" />
        <path
           style="color:#000000;fill:#000000;fill-opacity:1;fill-rule:nonzero;stroke:none;stroke-width:3.9000001;stroke-linecap:butt;stroke-linejoin:miter;marker:none;marker-start:none;marker-mid:none;marker-end:none;stroke-miterlimit:4;stroke-dasharray:none;stroke-dashoffset:0;stroke-opacity:1;visibility:visible;display:inline;overflow:visible"
           id="path1404"
           d="M 666.39197,600.03168 C 667.24814,601.1903 659.15714,597.83109 657.17378,597.26962 C 637.50969,592.22711 617.04823,592.26961 596.91457,594.4326 C 571.64858,597.50393 546.76144,604.1048 525.08548,616.61406 C 517.44531,621.46241 494.92985,639.56697 526.03088,614.92671 C 526.99369,614.16391 524.22131,616.56839 523.35421,617.42231 C 517.38592,623.29988 513.37437,629.90051 510.22165,637.32117 C 507.08628,645.61755 507.56934,653.91854 510.41376,662.13635 C 510.8581,663.3414 511.56597,664.44019 512.14114,665.59025 L 490.32323,681.21862 C 489.58312,679.86832 488.78413,678.54255 488.17915,677.133 C 484.33613,667.72813 483.49326,657.82321 486.20668,648.01398 C 493.40822,624.72492 514.66589,608.18264 536.53241,595.83967 C 559.31197,584.34968 584.73396,578.38989 610.44578,575.57656 C 631.75503,573.57223 653.30503,573.54218 674.29496,577.9178 C 678.73204,578.93519 683.73204,579.64159 687.44982,582.14243 L 666.39197,600.03168 z " />
        <path
           style="opacity:1;color:#000000;fill:#000000;fill-opacity:1;fill-rule:nonzero;stroke:none;stroke-width:3.9000001;stroke-linecap:butt;stroke-linejoin:miter;marker:none;marker-start:none;marker-mid:none;marker-end:none;stroke-miterlimit:4;stroke-dasharray:none;stroke-dashoffset:0;stroke-opacity:1;visibility:visible;display:inline;overflow:visible"
           id="path1398"
           d="M 617.04107,649.23368 C 614.77889,647.48689 611.97983,646.61396 609.23754,645.68992 C 602.34875,643.44167 595.3695,642.87853 588.19781,643.82882 C 559.91675,661.30454 604.73684,624.67626 590.16648,640.41415 C 585.25767,646.38509 584.3927,653.47926 584.79254,660.71659 C 585.60525,668.56053 588.7593,675.89795 592.41135,682.95212 C 595.93857,689.67891 600.2886,695.99661 604.15111,702.55768 C 604.82148,703.69328 605.42764,704.85912 606.06583,706.0097 L 584.00074,721.50872 C 583.43938,720.39112 582.92521,719.25292 582.31634,718.15535 C 578.63424,711.44965 574.40408,705.01735 570.72842,698.30716 C 566.65224,690.63467 563.10367,682.67672 561.65487,674.19202 C 560.47027,665.92445 560.65399,657.52117 564.63271,649.84526 C 572.44141,636.60551 586.60029,624.30932 603.31389,622.66849 C 611.4323,622.53981 619.40145,623.84227 627.12775,626.13947 C 628.26569,626.49754 636.19681,629.72465 633.52374,627.67776 L 617.04107,649.23368 z " />
      </g>
      <g
         id="g3505">
        <path
           style="opacity:1;color:#000000;fill:#27e174;fill-opacity:1;fill-rule:nonzero;stroke:none;stroke-width:3.9000001;stroke-linecap:butt;stroke-linejoin:miter;marker:none;marker-start:none;marker-mid:none;marker-end:none;stroke-miterlimit:4;stroke-dasharray:none;stroke-dashoffset:0;stroke-opacity:1;visibility:visible;display:inline;overflow:visible"
           d="M 701.42859,584.28571 C 641.03502,594.15519 534.43354,713.3131 660.97039,713.93271 C 720.34255,729.05286 803.64943,708.52718 843.38006,765.21732 C 855.44628,798.81462 885.37318,837.55275 895.40477,776.44423 C 920.88294,713.72429 911.61861,622.91544 839.93816,596.21413 C 797.45784,576.06494 746.433,566.82582 701.42859,584.28571 z "
           id="path3494"
           sodipodi:nodetypes="cccccc" />
        <path
           style="opacity:1;color:#000000;fill:#000000;fill-opacity:1;fill-rule:nonzero;stroke:none;stroke-width:3.9000001;stroke-linecap:butt;stroke-linejoin:miter;marker:none;marker-start:none;marker-mid:none;marker-end:none;stroke-miterlimit:4;stroke-dasharray:none;stroke-dashoffset:0;stroke-opacity:1;visibility:visible;display:inline;overflow:visible"
           id="path1381"
           d="M 856.50158,624.7804 C 854.07579,619.29187 849.22552,614.72095 844.61997,610.57363 C 824.11907,593.44025 796.74968,585.36354 769.68822,582.26287 C 730.32841,578.23989 693.02976,589.65702 660.97619,610.13341 C 653.32321,614.2161 626.85157,637.499 610.92631,669.42795 C 600.39219,688.46047 612.43593,696.06372 631.92456,700.98616 C 668.60154,708.33526 706.36855,708.67471 743.64881,711.51473 C 776.0452,714.42375 809.84664,719.51701 837.00769,737.05432 C 857.38729,751.23279 869.03328,772.64675 875.77666,794.80434 C 880.93856,811.02606 879.3959,827.84782 878.33688,844.44087 C 838.49001,869.80092 859.16005,847.96605 868.72017,822.91239 C 880.48493,792.53234 889.56345,761.33782 896.16617,729.68177 C 901.42866,705.48029 901.30673,680.83658 892.77567,657.34262 C 887.24852,643.065 878.33713,630.22715 868.8502,617.92694 L 888.01788,603.1691 C 897.53868,616.09627 906.71505,629.38415 913.06611,643.91553 C 922.61254,668.34415 922.66755,694.18129 917.31084,719.50965 C 910.44197,751.2073 901.01558,782.41382 890.56368,813.25937 C 888.20718,820.23529 869.8798,882.37624 854.37452,856.49026 C 857.64648,840.49645 859.07718,824.03721 854.86003,808.0478 C 849.25655,786.98119 838.82221,766.70258 819.62255,753.25318 C 793.57376,736.36039 761.20272,731.28999 730.08749,728.40693 C 692.1751,725.33508 653.86985,724.79116 616.35949,718.60123 C 593.74226,713.37711 575.69312,701.69873 587.95703,678.81185 C 605.77034,643.23152 636.45773,614.30724 670.76976,591.60165 C 704.49573,571.38128 743.34049,560.55646 783.83191,565.07109 C 812.43984,568.58987 840.89265,577.25948 863.66541,593.97757 C 869.3509,598.39891 874.70061,603.14432 879.1667,608.63829 L 856.50158,624.7804 z " />
      </g>
    </g>
    <g
       id="g3359"
       transform="matrix(0.861311,0.345942,-0.297501,0.806957,213.5341,-75.08748)">
      <path
         sodipodi:nodetypes="cccccc"
         id="path3350"
         d="M 298.57144,41.42857 C 248.05052,101.66293 230.97436,202.31884 289.13204,263.37874 C 331.2001,280.50514 406.46034,350.37671 431.52405,315.70703 C 445.07448,264.38192 442.83854,215.33575 421.95678,167.86405 C 390.83102,125.23948 369.73477,72.983405 327.52135,39.885092 C 318.50487,34.6595 307.02718,35.396506 298.57144,41.42857 z "
         style="opacity:1;color:#000000;fill:#27e174;fill-opacity:1;fill-rule:nonzero;stroke:none;stroke-width:3.9000001;stroke-linecap:butt;stroke-linejoin:miter;marker:none;marker-start:none;marker-mid:none;marker-end:none;stroke-miterlimit:4;stroke-dasharray:none;stroke-dashoffset:0;stroke-opacity:1;visibility:visible;display:inline;overflow:visible" />
      <path
         id="path1327"
         d="M 305.95948,26.046797 L 301.70179,31.624904 C 300.41591,25.216851 288.48298,43.077956 282.10771,48.279531 L 283.28075,47.920939 C 286.25809,45.748269 290.2681,43.951647 293.79465,41.98424 L 291.101,45.530322 L 283.28075,47.920939 C 282.88467,48.20998 282.50714,48.49382 282.15116,48.797498 C 276.05125,54.001305 272.06483,65.938529 268.42227,72.544295 C 251.30626,103.54581 240.98477,137.35663 239.70457,172.1135 C 238.26089,212.10946 255.05513,246.81953 286.4523,273.99363 C 323.17189,302.40982 367.64798,320.51889 411.9239,336.78717 C 411.5392,337.66188 411.1867,338.54507 410.79431,339.41685 L 414.66099,337.74342 C 415.1263,337.9137 415.58605,338.09146 416.05126,338.26139 L 417.78909,336.42858 L 434.16817,329.37626 C 437.42023,320.71201 440.34571,311.9729 442.59667,303.03963 C 450.45411,271.39626 453.61155,238.68803 446.24612,206.65791 C 437.43336,169.7363 422.59295,133.77798 398.71636,102.74576 C 379.0976,78.116754 355.79085,55.739111 328.20376,38.517845 C 320.9425,34.118642 313.24174,30.360044 305.95948,26.046797 z M 300.39842,50.869367 C 304.42986,52.630416 308.5054,54.577424 310.56474,55.610757 C 338.85534,70.604848 362.04831,92.418012 381.38147,116.33243 C 405.13145,146.63237 419.35642,181.97912 427.21684,218.37194 C 433.86293,250.05672 430.05175,282.24012 420.87375,313.12006 C 420.27297,315.11196 419.59457,317.08714 418.91868,319.05676 C 377.31892,304.69854 336.15839,287.23938 302.6576,260.08821 C 273.10642,233.68335 257.28297,200.04034 259.03797,161.83384 C 260.90477,127.11406 272.46792,93.683892 291.44857,63.619325 C 293.37677,60.562726 295.30078,57.429399 297.31376,54.375605 C 297.35416,54.337712 297.36029,54.29463 297.40065,54.256074 C 297.41116,54.24015 297.43357,54.232155 297.4441,54.216231 C 298.43455,53.26298 299.42844,52.107477 300.39842,50.869367 z "
         style="opacity:1;color:#000000;fill:#000000;fill-opacity:1;fill-rule:nonzero;stroke:none;stroke-width:3.9000001;stroke-linecap:butt;stroke-linejoin:miter;marker:none;marker-start:none;marker-mid:none;marker-end:none;stroke-miterlimit:4;stroke-dasharray:none;stroke-dashoffset:0;stroke-opacity:1;visibility:visible;display:inline;overflow:visible" />
      <path
         d="M 433.07473,316.64846 C 432.77924,320.74071 433.02745,325.82901 432.7609,330.23755 C 430.12697,349.8118 422.69461,368.70752 414.02176,386.66396 C 408.23302,398.33412 401.36632,409.52237 393.8114,420.30075 L 369.58966,429.01546 C 377.75497,418.58603 385.05871,407.59321 391.14454,396.02084 C 399.82986,379.08309 407.05984,361.16043 409.33762,342.46198 C 409.53033,338.32843 409.77248,334.05351 408.37982,330.07412 L 433.07473,316.64846 z "
         id="path1474"
         style="opacity:1;color:#000000;fill:#000000;fill-opacity:1;fill-rule:nonzero;stroke:none;stroke-width:3.9000001;stroke-linecap:butt;stroke-linejoin:miter;marker:none;marker-start:none;marker-mid:none;marker-end:none;stroke-miterlimit:4;stroke-dasharray:none;stroke-dashoffset:0;stroke-opacity:1;visibility:visible;display:inline;overflow:visible" />
    </g>
    <g
       id="g3573"
       transform="matrix(1.042235,0,0,0.935519,-97.41815,51.02808)">
      <g
         id="g3568"
         transform="translate(43.49511,2.903934)">
        <path
           sodipodi:nodetypes="cccccc"
           id="path3529"
           d="M 594.28571,443.57144 C 554.20343,458.28695 497.63666,458.57164 479.96588,505.2453 C 478.2525,543.66656 466.51041,624.08118 524.87604,620.25791 C 576.60315,602.6243 534.89955,524.02334 569.44104,492.43 C 593.84484,482.51864 645.11669,447.16003 594.88624,443.58471 L 594.28571,443.57144 z "
           style="color:#000000;fill:#27e174;fill-opacity:1;fill-rule:nonzero;stroke:none;stroke-width:3.9000001;stroke-linecap:butt;stroke-linejoin:miter;marker:none;marker-start:none;marker-mid:none;marker-end:none;stroke-miterlimit:4;stroke-dasharray:none;stroke-dashoffset:0;stroke-opacity:1;visibility:visible;display:inline;overflow:visible" />
        <path
           style="color:#000000;fill:#000000;fill-opacity:1;fill-rule:nonzero;stroke:none;stroke-width:3.9000001;stroke-linecap:butt;stroke-linejoin:miter;marker:none;marker-start:none;marker-mid:none;marker-end:none;stroke-miterlimit:4;stroke-dasharray:none;stroke-dashoffset:0;stroke-opacity:1;visibility:visible;display:inline;overflow:visible"
           id="path1432"
           d="M 594.20097,452.52003 C 590.22995,452.55808 586.19129,453.44564 582.27295,454.12286 C 561.9023,458.25778 542.21048,464.88229 523.95266,474.13635 C 522.40167,472.60401 494.31676,493.8818 495.57139,492.8621 C 525.83543,468.26495 505.87891,484.04989 499.71347,491.37778 C 492.217,500.34383 489.13924,510.7626 488.49778,521.85979 C 488.33391,529.6077 489.32917,537.31604 490.71459,544.94393 L 467.68747,558.74393 C 466.34926,550.66637 465.36092,542.53427 465.28699,534.35364 C 465.40859,522.24842 467.43974,510.43063 474.9438,500.13261 C 489.61507,479.79662 512.6917,465.28973 535.60641,453.58118 C 554.83169,444.54081 575.38126,438.27809 596.25549,433.28544 C 600.99787,432.18917 605.77035,430.98977 610.68365,430.96413 L 594.20097,452.52003 z " />
        <path
           style="opacity:1;color:#000000;fill:#000000;fill-opacity:1;fill-rule:nonzero;stroke:none;stroke-width:3.9000001;stroke-linecap:butt;stroke-linejoin:miter;marker:none;marker-start:none;marker-mid:none;marker-end:none;stroke-miterlimit:4;stroke-dasharray:none;stroke-dashoffset:0;stroke-opacity:1;visibility:visible;display:inline;overflow:visible"
           id="path1410"
           d="M 570.36781,498.96631 C 572.45588,501.48743 570.73529,500.74989 566.74385,501.95005 C 549.80002,514.17825 587.97446,477.60973 573.2128,496.9856 C 568.6536,503.99965 567.72214,512.11871 567.21376,520.10279 C 567.05602,526.74166 566.64031,533.35904 565.86714,539.96073 L 541.73418,551.96846 C 542.86765,545.56901 543.53249,539.11887 543.54869,532.62899 C 543.9113,523.9319 544.43103,515.12337 547.95508,506.92955 C 554.05374,494.29243 566.0475,484.0076 580.32808,479.35473 C 583.21529,477.63888 583.75456,476.10561 586.8505,477.4104 L 570.36781,498.96631 z " />
      </g>
      <g
         id="g3545"
         transform="translate(53.72925,-11.61574)">
        <path
           style="opacity:1;color:#000000;fill:#27e174;fill-opacity:1;fill-rule:nonzero;stroke:none;stroke-width:3.9000001;stroke-linecap:butt;stroke-linejoin:miter;marker:none;marker-start:none;marker-mid:none;marker-end:none;stroke-miterlimit:4;stroke-dasharray:none;stroke-dashoffset:0;stroke-opacity:1;visibility:visible;display:inline;overflow:visible"
           d="M 634.28571,436.42856 C 609.50516,441.75663 526.4648,449.29003 574.46151,484.02833 C 620.61294,522.45649 676.28045,556.53113 738.71736,552.41831 C 789.39748,557.57091 841.97108,552.95082 886.42797,525.82644 C 925.12549,516.94181 940.53446,491.44317 906.89907,476.66967 C 883.16827,451.46289 829.39687,425.46116 783.62944,420.35595 C 735.76702,421.02264 680.46054,420.07536 634.28571,436.42856 z "
           id="path3521"
           sodipodi:nodetypes="ccccccc" />
        <path
           style="opacity:1;color:#000000;fill:#000000;fill-opacity:1;fill-rule:nonzero;stroke:none;stroke-width:3.9000001;stroke-linecap:butt;stroke-linejoin:miter;marker:none;marker-start:none;marker-mid:none;marker-end:none;stroke-miterlimit:4;stroke-dasharray:none;stroke-dashoffset:0;stroke-opacity:1;visibility:visible;display:inline;overflow:visible"
           d="M 742.48523,411.63537 C 715.173,411.89422 687.96066,415.26111 661.41528,421.87518 C 633.16411,428.71677 605.30791,437.01626 578.5206,447.77353 C 563.08283,453.9926 558.19432,455.26539 544.41562,469.40862 L 556.31978,465.743 L 548.49952,472.39689 C 548.84855,473.23318 549.80223,474.70628 551.14972,476.54062 C 550.2654,477.26677 549.74971,477.715 549.58567,477.93515 C 549.56952,477.95873 549.5498,477.99724 549.54223,478.01484 C 549.54064,478.02005 549.54288,478.05012 549.54223,478.05468 C 549.54341,478.05798 549.54014,478.09185 549.54223,478.09453 C 549.5452,478.09658 549.58181,478.09308 549.58567,478.09453 C 549.59129,478.09476 549.62264,478.09488 549.62912,478.09453 C 549.63644,478.09358 549.66439,478.09606 549.67256,478.09453 C 549.69059,478.09032 549.73813,478.06116 549.75945,478.05468 C 550.08585,477.94674 550.74287,477.62183 551.62763,477.13828 C 555.14856,481.85601 560.61875,488.41304 563.53179,491.72104 C 587.22999,518.16099 619.67415,535.79486 653.8557,548.53804 C 695.62504,563.75847 740.29868,567.57522 784.6277,562.40362 C 819.78414,557.74254 853.61322,547.43044 886.68199,535.82793 C 899.82966,531.15734 912.84052,526.1435 925.87014,521.20532 C 927.0845,523.31753 928.40276,525.39317 929.86716,527.38108 C 930.09182,527.64366 930.29414,527.91539 930.51885,528.17795 L 951.63353,511.24442 C 951.45432,511.04651 951.29137,510.84467 951.11218,510.64676 C 950.40819,509.69264 949.73179,508.71689 949.07022,507.73818 L 958.06351,492.71713 C 953.13691,494.73464 948.20048,496.72863 943.24848,498.69368 C 943.24424,498.68717 943.20929,498.70018 943.20503,498.69368 C 941.79547,496.53775 940.34531,494.39753 938.73011,492.35854 C 926.02269,475.98859 910.11841,461.93645 891.89549,450.7618 C 860.90292,431.98947 826.16836,418.90741 789.23296,414.2252 C 773.69466,412.3768 758.06828,411.48767 742.48523,411.63537 z M 733.53538,428.36969 C 747.59414,428.24799 761.67044,429.01481 775.7213,430.64078 C 811.64079,435.10242 845.29139,447.82133 874.99505,466.65941 C 892.36166,477.68038 906.89885,491.72552 918.26712,507.97724 C 918.35525,508.10732 918.44086,508.24503 918.52779,508.37568 C 911.88175,510.9692 905.25445,513.5885 898.62959,516.22487 C 865.81854,528.72789 832.03875,539.68599 796.87942,545.03181 C 753.43351,550.84852 709.36264,548.32474 668.19283,533.39747 C 635.17931,521.06004 604.04492,503.39307 582.86519,476.50078 C 580.04541,472.79008 577.42759,468.99777 575.08838,465.06566 C 599.01904,454.50383 624.21637,446.50106 649.72835,439.80481 C 677.10092,432.40882 705.25247,428.61451 733.53538,428.36969 z "
           id="path1341" />
      </g>
    </g>
    <g
       id="g3286"
       transform="matrix(0.887187,0,0,0.813726,11.45594,167.4836)">
      <path
         sodipodi:nodetypes="ccccc"
         id="path2385"
         d="M 330,339.28571 C 235.32475,330.23853 168.87183,420.58099 155.27712,504.14409 C 129.82526,597.08791 275.77202,526.4605 352.19614,503.46873 C 469.7744,480.03682 475.31914,390.72396 387.34617,360.96304 C 369.21582,351.39505 366.84766,349.75911 330,339.28571 z "
         style="color:#000000;fill:#27e174;fill-opacity:1;fill-rule:nonzero;stroke:none;stroke-width:3.9000001;stroke-linecap:butt;stroke-linejoin:miter;marker:none;marker-start:none;marker-mid:none;marker-end:none;stroke-miterlimit:4;stroke-dasharray:none;stroke-dashoffset:0;stroke-opacity:1;visibility:visible;display:inline;overflow:visible" />
      <path
         d="M 300.25879,348.69895 C 296.93026,346.57393 289.68071,348.58853 284.77505,349.45716 C 266.86594,353.01174 250.05122,360.4857 235.57838,370.76475 C 231.34475,373.7716 219.15544,383.35193 223.48414,380.46119 C 226.77807,378.26146 229.02711,374.64857 232.76892,373.16922 C 238.29412,370.98478 224.74859,381.40102 220.93594,385.66968 C 195.18615,417.29188 181.30087,455.49424 173.19319,493.89241 C 172.79388,508.21805 162.5957,529.48746 171.58424,542.83707 C 193.69956,539.9241 215.43566,534.66103 237.16095,529.91992 C 287.99573,518.82295 338.08205,504.4587 385.8545,484.94322 C 400.43346,478.75245 414.79839,471.88009 427.6253,462.93463 C 430.76317,460.7463 439.62817,453.55679 436.65335,455.92894 C 409.92449,477.24284 430.75044,460.9558 435.27086,451.74113 C 441.85951,429.96717 425.9506,407.49314 410.96629,391.81857 C 386.84127,368.53032 353.47541,356.93694 320.03264,349.90881 C 310.60008,348.15768 308.21459,349.47902 298.90592,347.95967 L 316.58882,327.23484 C 325.89529,329.04109 329.28742,328.84635 338.73615,330.85432 C 373.26742,338.88812 403.45875,353.30986 428.95887,377.00724 C 445.98974,394.30393 461.82495,417.29987 458.69863,441.59211 C 448.55772,473.52414 405.18027,489.47621 375.34921,502.46631 C 326.69123,520.65483 276.3307,534.68602 225.67372,547.34608 C 203.3859,552.96097 174.15387,566.26852 151.5064,560.16518 C 138.92652,544.99626 150.96029,520.64644 152.46774,503.81154 C 161.50319,464.81352 175.42881,425.99618 200.02272,392.79147 C 224.63424,362.72353 258.19921,338.19956 298.45992,329.20309 C 302.62751,328.31618 318.75321,327.75737 316.74146,327.14303 L 300.25879,348.69895 z "
         id="path1506"
         style="color:#000000;fill:#000000;fill-opacity:1;fill-rule:nonzero;stroke:none;stroke-width:3.9000001;stroke-linecap:butt;stroke-linejoin:miter;marker:none;marker-start:none;marker-mid:none;marker-end:none;stroke-miterlimit:4;stroke-dasharray:none;stroke-dashoffset:0;stroke-opacity:1;visibility:visible;display:inline;overflow:visible"
         sodipodi:nodetypes="ccssscccccsscccccccccccccccc" />
    </g>
    <g
       id="g3400"
       transform="matrix(1.042235,0,0,0.935519,-6.086724,167.4936)">
      <path
         id="path3375"
         d="M 480.32753,277.23586 C 531.11724,290.23666 477.16123,343.32044 489.38322,374.5995 C 503.59644,399.63277 478.80955,448.11981 455.9549,408.70801 C 433.86474,367.57534 448.50642,316.00382 477.24044,281.92261 L 480.32753,277.23586 L 480.32753,277.23586 z "
         style="color:#000000;fill:#27e174;fill-opacity:1;fill-rule:nonzero;stroke:none;stroke-width:3.9000001;stroke-linecap:butt;stroke-linejoin:miter;marker:none;marker-start:none;marker-mid:none;marker-end:none;stroke-miterlimit:4;stroke-dasharray:none;stroke-dashoffset:0;stroke-opacity:1;visibility:visible;display:inline;overflow:visible" />
      <path
         sodipodi:nodetypes="ccccc"
         id="path3364"
         d="M 715.188,75.205346 C 626.74122,63.158816 531.23049,114.4088 498.671,198.77512 C 446.20156,278.76443 511.04819,289.72461 589.30996,279.49327 C 658.74649,275.90187 723.63315,221.78724 721.41077,149.04076 C 723.70228,124.33866 722.38588,99.053496 715.188,75.205346 z "
         style="color:#000000;fill:#27e174;fill-opacity:1;fill-rule:nonzero;stroke:none;stroke-width:3.9000001;stroke-linecap:butt;stroke-linejoin:miter;marker:none;marker-start:none;marker-mid:none;marker-end:none;stroke-miterlimit:4;stroke-dasharray:none;stroke-dashoffset:0;stroke-opacity:1;visibility:visible;display:inline;overflow:visible" />
      <path
         d="M 489.02604,268.44188 C 491.10517,270.14823 495.11519,270.29067 498.51617,270.88504 C 524.03737,274.79425 550.03195,275.70975 575.84894,274.57703 C 614.13531,272.77943 651.60828,263.44415 681.7709,241.13353 C 696.40997,228.65423 679.8912,242.87792 677.34558,244.18011 C 668.65017,248.6282 688.24649,233.423 695.46574,220.66286 C 706.12342,201.8253 709.92973,181.07911 711.7359,160.14602 C 713.57629,131.24432 710.72178,102.19208 703.67589,73.991806 C 702.13573,67.738786 700.25034,61.571916 698.0378,55.494296 L 720.34362,41.093206 C 722.10134,47.662966 723.64274,54.278006 724.95353,60.936336 C 730.76269,90.271666 732.96583,120.19247 731.31607,149.97837 C 727.95346,194.896 713.61198,232.88358 672.0205,260.38118 C 640.16168,281.69301 601.75266,290.33855 562.76606,292.17949 C 535.88947,293.42638 508.94408,292.63381 482.1214,290.76063 C 480.21289,290.60456 468.88843,288.31344 472.54337,289.99779 L 489.02604,268.44188 z "
         id="path1492"
         style="color:#000000;fill:#000000;fill-opacity:1;fill-rule:nonzero;stroke:none;stroke-width:3.9000001;stroke-linecap:butt;stroke-linejoin:miter;marker:none;marker-start:none;marker-mid:none;marker-end:none;stroke-miterlimit:4;stroke-dasharray:none;stroke-dashoffset:0;stroke-opacity:1;visibility:visible;display:inline;overflow:visible" />
      <path
         d="M 478.47619,286.35494 C 479.76742,287.18619 476.46464,288.32548 475.41478,288.91297 C 476.07384,287.82864 471.49723,292.33923 472.50925,291.51478 C 507.37726,263.10932 483.41395,282.15824 475.91688,291.55278 C 466.96108,304.08564 462.5326,318.7398 459.52346,333.33037 C 458.18315,339.8418 457.50171,346.4363 456.92507,353.03344 L 433.61368,365.10296 C 434.2839,358.2377 435.0413,351.37579 436.33643,344.58093 C 439.20721,329.46473 443.47305,314.39407 451.10343,300.66371 C 460.22215,286.85895 472.79922,273.66944 488.36044,265.94857 C 490.58894,265.17863 492.69896,264.02537 494.95887,264.79904 L 478.47619,286.35494 z "
         id="path1508"
         style="color:#000000;fill:#000000;fill-opacity:1;fill-rule:nonzero;stroke:none;stroke-width:3.9000001;stroke-linecap:butt;stroke-linejoin:miter;marker:none;marker-start:none;marker-mid:none;marker-end:none;stroke-miterlimit:4;stroke-dasharray:none;stroke-dashoffset:0;stroke-opacity:1;visibility:visible;display:inline;overflow:visible" />
      <path
         d="M 533.09783,278.69575 C 527.57449,282.86548 523.00422,288.32698 518.76063,293.67216 C 510.18534,305.03562 503.83635,317.71713 500.32758,331.15721 C 497.41821,342.90894 497.62694,355.01748 499.7575,366.84461 C 500.4415,370.75476 501.89369,374.45885 503.42939,378.13535 L 481.21149,393.34373 C 479.40239,389.19947 477.86038,384.96678 477.04886,380.54893 C 474.83602,367.88376 474.48688,354.95608 476.89268,342.27746 C 479.88961,328.21489 485.76112,314.89116 493.95263,302.68491 C 497.64315,297.30953 501.5744,291.95568 505.87839,287.05297 L 533.09783,278.69575 z "
         id="path1510"
         style="opacity:1;color:#000000;fill:#000000;fill-opacity:1;fill-rule:nonzero;stroke:none;stroke-width:3.9000001;stroke-linecap:butt;stroke-linejoin:miter;marker:none;marker-start:none;marker-mid:none;marker-end:none;stroke-miterlimit:4;stroke-dasharray:none;stroke-dashoffset:0;stroke-opacity:1;visibility:visible;display:inline;overflow:visible" />
      <path
         d="M 470.41444,287.72865 C 471.02125,281.85467 471.22139,275.9491 471.59594,270.05948 C 473.01924,240.55279 481.2392,211.9296 494.24388,185.006 C 517.0948,140.81299 556.85698,104.54669 604.83297,83.327446 C 638.04262,69.599746 674.56209,66.818816 710.53422,66.868746 L 698.26857,82.878476 C 662.79495,82.705856 627.01764,86.357636 594.74207,100.81396 C 550.2254,121.82992 544.07432,129.88593 514.77409,176.55988 C 502.19208,202.16715 494.00702,229.6703 494.24403,257.93649 C 494.3048,263.39756 494.43136,268.87635 495.1017,274.30715 L 470.41444,287.72865 z "
         id="path1484"
         style="opacity:1;color:#000000;fill:#000000;fill-opacity:1;fill-rule:nonzero;stroke:none;stroke-width:3.9000001;stroke-linecap:butt;stroke-linejoin:miter;marker:none;marker-start:none;marker-mid:none;marker-end:none;stroke-miterlimit:4;stroke-dasharray:none;stroke-dashoffset:0;stroke-opacity:1;visibility:visible;display:inline;overflow:visible" />
    </g>
    <g
       id="g3455"
       transform="matrix(1.042235,0,0,0.935519,14.68924,47.94543)">
      <path
         sodipodi:nodetypes="ccccc"
         id="path3440"
         d="M 494.64285,523.57141 C 494.56978,483.01548 444.14715,476.0595 420.36757,501.84376 C 388.22461,527.01694 394.27367,583.93299 437.97517,584.90092 C 472.56645,595.85642 523.53805,559.49847 494.64285,523.57141 L 494.64285,523.57141 z "
         style="opacity:1;color:#000000;fill:#27e174;fill-opacity:1;fill-rule:nonzero;stroke:none;stroke-width:3.9000001;stroke-linecap:butt;stroke-linejoin:miter;marker:none;marker-start:none;marker-mid:none;marker-end:none;stroke-miterlimit:4;stroke-dasharray:none;stroke-dashoffset:0;stroke-opacity:1;visibility:visible;display:inline;overflow:visible" />
      <path
         sodipodi:nodetypes="ccccc"
         id="path3425"
         d="M 465.71429,520.71429 C 353.16041,515.69514 248.16527,605.70157 328.15329,696.9594 C 385.29561,809.51147 403.72875,850.25143 510.70485,687.95787 C 578.19487,625.33265 614.54374,511.04146 475.62396,520.97754 C 472.32074,520.88979 469.01752,520.80204 465.71429,520.71429 z "
         style="opacity:1;color:#000000;fill:#27e174;fill-opacity:1;fill-rule:nonzero;stroke:none;stroke-width:3.9000001;stroke-linecap:butt;stroke-linejoin:miter;marker:none;marker-start:none;marker-mid:none;marker-end:none;stroke-miterlimit:4;stroke-dasharray:none;stroke-dashoffset:0;stroke-opacity:1;visibility:visible;display:inline;overflow:visible" />
      <path
         id="path1448"
         d="M 473.38363,472.37043 C 464.23469,472.53098 455.31526,475.37293 447.05545,479.34307 C 427.67809,488.90449 409.86592,501.97362 396.05003,517.67263 C 394.80695,519.46898 393.41491,521.34578 392.48747,523.33042 C 360.1191,533.8793 331.7601,552.97517 309.81002,577.55759 C 286.94212,604.45677 289.92723,636.84682 302.03322,667.0862 C 316.27413,698.77678 336.76182,727.69527 356.94877,756.41559 C 370.62705,772.65871 379.63498,792.50283 394.52942,807.89355 C 419.45623,821.98168 444.15221,782.66698 458.69894,766.41634 C 486.01139,734.88669 512.95345,702.96456 537.24903,669.39713 C 554.81911,641.99642 577.19631,614.29913 583.25818,582.25913 C 586.23415,558.65062 569.85219,540.87514 549.71798,528.51009 C 534.963,520.04868 518.61117,514.49261 501.71032,511.05859 L 503.05714,510.3414 C 502.73656,503.52921 502.16704,496.66568 499.84215,490.14069 C 496.61522,482.46434 491.51066,475.78416 482.59415,473.1673 C 479.50758,472.56608 476.43328,472.31692 473.38363,472.37043 z M 461.56636,492.8899 C 462.91434,492.85601 464.28269,492.90337 465.65027,493.00943 C 472.56717,494.28655 475.2827,499.19145 477.38065,504.84298 C 477.63497,505.76406 477.84319,506.66299 478.03234,507.59219 C 464.3669,506.48479 450.68029,507.51564 437.23669,510.14218 L 433.58724,515.6406 C 427.86607,515.78738 417.13044,517.12661 411.21263,518.27028 C 410.78513,518.36133 410.37904,518.45522 409.9527,518.54919 L 416.2089,515.16248 C 416.22838,515.16055 416.27548,515.12678 416.29579,515.12264 C 417.44599,514.83189 419.8321,511.21671 421.29206,509.30547 C 425.68374,506.28342 430.28512,503.53839 435.02095,500.97815 C 443.20452,496.65065 452.13058,493.1271 461.56636,492.8899 z M 456.17908,526.5976 C 460.50463,526.55471 464.82301,526.73704 469.16938,527.15541 C 491.25169,529.13722 513.13516,534.44451 532.25275,545.04519 C 550.46753,555.94298 564.80018,571.88303 560.97046,593.01691 C 554.31867,623.6544 534.15115,650.57037 516.82948,676.80804 C 492.22278,710.52582 465.16942,742.75468 436.585,773.70772 C 431.20504,779.35361 425.79012,784.99763 420.07558,790.36236 C 417.8572,791.3059 415.75101,791.78456 414.29728,791.23892 C 398.95028,776.87035 388.92058,758.14166 375.23947,742.51017 C 354.45928,714.72626 334.30329,686.0556 320.93216,654.53546 C 310.12125,625.45368 308.91229,594.95591 331.92396,570.30605 C 333.86031,568.30803 338.42506,564.26623 341.04759,561.8592 C 341.07457,561.83945 341.10762,561.83899 341.13448,561.81936 C 341.19483,561.76389 341.25012,561.71362 341.30826,561.65998 C 342.35534,560.89725 343.32482,560.22044 344.04535,559.74749 C 360.03754,549.25046 378.36192,541.86036 397.61408,538.19209 C 404.45804,537.05258 412.76258,535.08648 419.42389,537.196 L 424.42016,530.66165 C 434.84062,528.17488 445.47121,526.70375 456.17908,526.5976 z M 430.19846,783.62878 C 430.20867,783.62445 430.23269,783.63237 430.24191,783.62878 C 430.25015,783.62593 430.27807,783.63091 430.28535,783.62878 C 430.28851,783.62808 430.32588,783.62931 430.3288,783.62878 C 430.33138,783.63015 430.37056,783.62674 430.37224,783.62878 C 430.37024,783.63677 430.33429,783.65812 430.3288,783.66863 C 430.3252,783.67449 430.33325,783.70199 430.3288,783.70847 C 429.87376,784.31636 426.28828,787.14663 422.4651,789.20689 C 427.32749,785.46549 429.60152,783.88237 430.19846,783.62878 z "
         style="opacity:1;color:#000000;fill:#000000;fill-opacity:1;fill-rule:nonzero;stroke:none;stroke-width:3.9000001;stroke-linecap:butt;stroke-linejoin:miter;marker:none;marker-start:none;marker-mid:none;marker-end:none;stroke-miterlimit:4;stroke-dasharray:none;stroke-dashoffset:0;stroke-opacity:1;visibility:visible;display:inline;overflow:visible" />
    </g>
  </g>
</svg>
