<?xml version="1.0" encoding="UTF-8" standalone="no"?>
<!-- Created with Inkscape (http://www.inkscape.org/) -->
<svg
   xmlns:dc="http://purl.org/dc/elements/1.1/"
   xmlns:cc="http://web.resource.org/cc/"
   xmlns:rdf="http://www.w3.org/1999/02/22-rdf-syntax-ns#"
   xmlns:svg="http://www.w3.org/2000/svg"
   xmlns="http://www.w3.org/2000/svg"
   xmlns:sodipodi="http://inkscape.sourceforge.net/DTD/sodipodi-0.dtd"
   xmlns:inkscape="http://www.inkscape.org/namespaces/inkscape"
   width="1000"
   height="1000"
   id="svg2"
   sodipodi:version="0.32"
   inkscape:version="0.43"
   version="1.0"
   sodipodi:docbase="/home/kkowal/tale/art/monster"
   sodipodi:docname="squirrel.svg">
  <defs
     id="defs4" />
  <sodipodi:namedview
     id="base"
     pagecolor="#ffffff"
     bordercolor="#666666"
     borderopacity="1.0"
     inkscape:pageopacity="0.0"
     inkscape:pageshadow="2"
     inkscape:zoom="0.49497475"
     inkscape:cx="442.32221"
     inkscape:cy="652.96882"
     inkscape:document-units="px"
     inkscape:current-layer="layer1"
     showguides="true"
     inkscape:guide-bbox="true"
     inkscape:window-width="1680"
     inkscape:window-height="975"
     inkscape:window-x="0"
     inkscape:window-y="25" />
  <metadata
     id="metadata7">
    <rdf:RDF>
      <cc:Work
         rdf:about="">
        <dc:format>image/svg+xml</dc:format>
        <dc:type
           rdf:resource="http://purl.org/dc/dcmitype/StillImage" />
      </cc:Work>
    </rdf:RDF>
  </metadata>
  <g
     inkscape:label="Layer 1"
     inkscape:groupmode="layer"
     id="layer1">
    <path
       style="opacity:1;color:#000000;fill:#5d4427;fill-opacity:1;fill-rule:nonzero;stroke:none;stroke-width:1px;stroke-linecap:butt;stroke-linejoin:miter;marker:none;marker-start:none;marker-mid:none;marker-end:none;stroke-miterlimit:4;stroke-dasharray:none;stroke-dashoffset:0;stroke-opacity:1;visibility:visible;display:inline;overflow:visible"
       d="M 656.9375,52.61607 C 629.31785,60.239126 608.35613,83.071374 588.65747,102.92134 C 546.09152,148.3214 528.77768,215.06345 544.55535,275.32777 C 559.60169,346.99493 609.52096,402.88587 643.55512,465.68341 C 665.9896,508.03244 669.56495,558.83516 654.35638,604.16952 C 646.88054,630.78194 631.48872,654.83631 610.89909,672.98805 C 612.61013,686.2494 643.10728,684.17415 651.63475,671.5759 C 710.01087,607.65899 761.32204,533.55583 783.10356,448.75524 C 796.2422,400.4792 787.82192,347.09274 758.6069,306.22666 C 726.11226,258.99711 677.46526,223.48875 652.73019,170.94504 C 637.12817,133.47423 656.07375,94.252988 669.44294,59.39909 C 669.4235,52.630519 661.91797,51.973038 656.9375,52.61607 z "
       id="path3765" />
    <path
       style="opacity:1;color:#000000;fill:#5d4427;fill-opacity:1;fill-rule:nonzero;stroke:none;stroke-width:1px;stroke-linecap:butt;stroke-linejoin:miter;marker:none;marker-start:none;marker-mid:none;marker-end:none;stroke-miterlimit:4;stroke-dasharray:none;stroke-dashoffset:0;stroke-opacity:1;visibility:visible;display:inline;overflow:visible"
       d="M 487.14285,644.28571 C 488.88982,625.38629 488.69262,606.32066 491.02877,587.48641 C 490.31126,567.298 489.4655,546.88704 484.18435,527.2965 C 479.90931,509.7241 481.42156,491.55811 479.58718,473.75092 C 478.5583,463.55027 469.99871,463.13489 467.3473,472.66686 C 458.89285,483.13353 462.49416,457.82169 451.3995,460.95104 C 435.12192,460.30971 445.3555,484.65256 428.81784,486.22485 C 419.06595,488.77071 409.23814,484.71622 399.24106,486.06377 C 363.55705,486.80252 327.80707,484.7112 292.19443,487.68198 C 283.01585,487.18463 273.68122,492.03108 271.12809,501.32851 C 267.02168,515.40848 269.10031,530.35569 267.96783,544.80881 C 267.96823,560.84715 267.01398,577.11938 268.93464,593.00691 C 271.41129,603.88745 267.89504,621.65438 281.84877,625.45525 C 306.97249,632.46185 333.13047,626.81458 358.72389,627.57048 C 389.85473,626.79571 420.99788,627.1011 452.13356,627.32465 C 454.26144,637.73289 463.1164,650.65345 475.27184,647.12789 C 479.00149,645.41671 483.29746,645.80143 487.14285,644.28571 z "
       id="path3679" />
    <path
       style="color:#000000;fill:#000000;fill-opacity:1;fill-rule:nonzero;stroke:none;stroke-width:1px;stroke-linecap:butt;stroke-linejoin:miter;marker:none;marker-start:none;marker-mid:none;marker-end:none;stroke-miterlimit:4;stroke-dasharray:none;stroke-dashoffset:0;stroke-opacity:1;visibility:visible;display:inline;overflow:visible"
       id="path2450"
       d="M 605.76494,678.99795 C 608.18464,679.47726 609.75356,677.84166 611.70375,676.48944 C 624.18349,667.51693 633.60253,654.92402 641.76449,642.06859 C 658.41944,614.6388 666.57723,583.16936 669.04192,551.38765 C 671.72662,514.77728 660.73389,480.17449 643.34614,448.43659 C 623.95938,415.54639 601.47838,384.63024 582.51681,351.47243 C 562.37173,316.37699 548.44024,278.07873 544.75971,237.67554 C 542.04063,202.0851 550.46259,167.1462 567.72103,136.0897 C 582.06293,111.4973 602.38933,90.9996 625.0965,74.0053 C 632.5472,68.4864 640.4247,63.5946 648.5257,59.099 L 648.9401,48.2851 C 640.58984,52.9124 632.46531,57.9402 624.76903,63.6008 C 597.75527,83.6531 574.4794,108.5146 557.98194,137.9998 C 540.9478,170.0875 533.07167,205.9826 536.33565,242.3108 C 540.60459,283.29024 554.89843,322.12453 575.37183,357.77129 C 594.32596,390.90684 616.68112,421.89118 635.89474,454.86029 C 652.64332,485.87198 663.14081,519.63106 660.08106,555.27163 C 657.27712,586.46604 648.65883,617.33174 631.20572,643.63614 C 629.94653,645.4464 620.83355,658.3495 611.48235,664.79719 C 610.71006,665.33737 606.41004,667.4382 609.31958,667.57124 L 605.76494,678.99795 z " />
    <path
       style="color:#000000;fill:#5d4427;fill-opacity:1;fill-rule:nonzero;stroke:none;stroke-width:1px;stroke-linecap:butt;stroke-linejoin:miter;marker:none;marker-start:none;marker-mid:none;marker-end:none;stroke-miterlimit:4;stroke-dasharray:none;stroke-dashoffset:0;stroke-opacity:1;visibility:visible;display:inline;overflow:visible"
       d="M 468.96944,630.27311 C 454.97338,629.92464 449.33269,645.02505 441.44517,653.84732 C 434.4629,673.33125 418.81453,687.8423 407.60286,704.91973 C 391.549,728.11538 375.6117,751.77631 364.15755,777.62101 C 355.2308,800.88556 348.77981,825.25128 336.561,847.11573 C 334.77547,860.06191 325.61303,872.60278 312.03444,863.95586 C 297.45628,863.54201 285.15158,876.68419 283.02316,890.47185 C 291.34097,891.47655 300.32424,894.60701 302.1868,900.93635 C 313.52105,898.42656 325.36452,897.61769 335.28318,902.56574 C 351.61268,895.6277 337.24014,872.37299 350.15297,861.08695 C 371.78896,816.8999 395.57143,773.79921 420.22422,731.2469 C 427.43748,715.12478 432.57092,695.77606 448.92507,686.33015 C 469.68851,683.01923 466.99093,710.463 467.41227,723.82872 C 471.98339,740.25157 467.87678,763.97331 483.18725,774.49389 C 495.74539,774.88806 524.36463,765.2826 514.2827,788.84134 C 505.99053,804.03987 499.03766,819.86745 491.53723,835.37755 C 481.20172,848.14902 459.07109,832.78994 451.80571,852.28966 C 446.48617,860.8281 448.98234,868.49038 458.96091,863.55449 C 468.51053,865.6072 468.56668,882.04748 481.27805,874.39973 C 492.11986,869.68586 506.95452,887.20166 512.59183,869.50617 C 517.72262,853.96818 498.99266,837.55405 516.24835,824.4165 C 525.70725,814.36447 528.59134,800.57722 535.9466,789.1438 C 541.05414,779.46746 545.60011,768.89595 545.11286,757.7251 C 537.4363,745.55477 525.04908,730.87716 532.87906,715.84165 C 542.19381,698.53368 561.46993,685.00579 561.01024,663.65393 C 560.68899,646.04762 541.01752,654.40045 531.83512,659.73078 C 520.60993,665.21084 513.09514,675.29616 504.99854,684.33161 C 487.08969,696.27878 490.59889,666.28104 487.54306,656.17951 C 488.6016,644.41738 484.30573,627.50925 468.96944,630.27311 z "
       id="path3409" />
    <path
       d="M 318.03336,875.25365 C 316.82557,874.44134 315.64741,873.60111 314.42464,872.80178 C 312.59751,871.61162 310.70202,870.54525 308.73351,869.61083 C 306.98067,868.68652 305.34638,868.8023 303.49016,869.11587 C 301.65819,869.6289 300.24595,870.82312 298.88789,872.09246 C 312.40125,860.89102 301.45188,870.66135 298.51575,873.96543 C 295.2931,877.69471 291.9908,881.35508 288.77938,885.09396 C 287.88239,886.58459 285.94434,888.46402 285.08791,889.07765 C 284.82049,887.87085 285.46018,888.1344 286.80456,887.80657 C 289.01493,887.17375 290.86196,885.83367 292.65063,884.44111 C 294.84067,882.48591 297.23094,881.32622 300.12027,881.01948 C 303.63002,881.32178 305.64438,883.56886 307.06012,886.57351 C 307.91079,889.12776 307.55112,891.73616 307.09236,894.3232 C 306.74183,895.58876 306.58797,896.88335 306.43083,898.17653 C 305.94642,897.51292 306.95573,897.32101 307.17785,896.95893 C 308.57973,896.10016 309.90179,895.12335 311.23553,894.163 C 313.8579,892.06843 316.80825,892.25133 319.94095,892.72017 C 322.93475,893.4103 325.81585,894.49999 328.75034,895.39922 C 331.51702,896.25761 334.35489,896.79099 337.23214,897.07229 C 339.68055,897.32672 341.84055,896.74934 343.98896,895.6749 C 349.38798,890.77436 334.83454,903.07276 340.8512,897.73958 C 341.93948,895.8314 341.67501,893.75427 341.32807,891.67626 C 340.81783,889.21021 339.54489,887.11051 338.04651,885.13417 C 336.63915,883.40662 334.82644,882.11904 333.0202,880.84914 L 341.98852,871.62303 C 344.26818,873.31658 346.47717,875.11851 348.24243,877.36569 C 350.28499,880.11608 352.08049,883.03024 352.98272,886.37483 C 353.82397,889.61511 354.28323,892.92811 353.61987,896.25167 C 351.89928,902.35114 346.88843,906.58116 340.55328,908.0456 C 337.35991,908.62255 334.15259,908.79802 330.93362,908.21445 C 327.72592,907.64845 324.54868,906.93174 321.45271,905.9041 C 318.95859,905.10623 316.45151,904.08928 313.81101,904.00301 C 312.03231,904.59737 310.8173,905.78191 309.205,906.86163 C 307.03195,907.98932 304.80124,908.98569 302.29605,908.92568 C 299.29318,908.59542 296.8684,907.46369 295.28842,904.74555 C 294.20209,902.16865 293.79836,899.62029 294.48306,896.84649 C 294.81973,895.30316 295.17733,893.76329 295.42368,892.20312 C 295.575,892.54119 296.01486,892.87329 295.87763,893.2173 C 294.31068,894.69005 292.58757,896.0299 290.70269,897.09986 C 287.83696,898.52752 284.87158,899.66569 281.60859,899.57042 C 278.04127,899.224 274.96494,898.05711 273.37669,894.56321 C 272.2521,890.69244 273.64003,887.47844 276.11956,884.40607 C 279.2397,880.50487 282.69442,876.89132 285.91349,873.07258 C 290.41057,867.79318 294.22746,862.81547 300.59597,859.35728 C 303.15777,858.13272 305.7862,857.20813 308.67796,857.33314 C 311.57125,857.57354 314.31729,858.24489 316.87758,859.67669 C 319.00902,860.80374 321.09594,862.0089 323.14708,863.27717 C 324.29777,863.97165 326.62581,865.38992 323.74969,863.49178 L 318.03336,875.25365 z "
       id="path3411"
       style="color:#000000;fill:#000000;fill-opacity:1;fill-rule:nonzero;stroke:none;stroke-width:1px;stroke-linecap:butt;stroke-linejoin:miter;marker:none;marker-start:none;marker-mid:none;marker-end:none;stroke-miterlimit:4;stroke-dasharray:none;stroke-dashoffset:0;stroke-opacity:1;visibility:visible;display:inline;overflow:visible" />
    <path
       d="M 563.06484,670.39291 C 562.03139,669.93046 559.69493,676.24858 558.63884,678.47327 C 554.07931,687.9562 549.43407,697.39765 544.90762,706.8966 C 541.35489,714.48766 537.48555,721.9758 535.05361,730.02118 C 533.9573,732.47201 534.46595,734.48108 535.18373,736.45139 C 537.50112,736.87475 539.62154,737.81658 541.72962,738.81918 C 544.88307,740.50918 546.85044,743.23233 548.46827,746.32001 C 550.56012,751.37294 549.72803,756.7566 548.74474,761.96802 C 546.82477,770.43353 543.36138,778.45873 539.73764,786.31535 C 535.26037,795.78071 530.42534,805.07144 525.55696,814.33999 C 521.96257,821.15079 518.34738,827.95073 514.89021,834.83256 C 512.80793,838.98676 510.86443,843.20741 508.9759,847.45237 C 508.18758,849.21367 507.45107,850.99721 506.70364,852.77601 L 494.99548,854.0386 C 495.72175,852.16511 496.46774,850.29962 497.28256,848.46213 C 499.19272,844.11124 501.17014,839.7888 503.31276,835.54651 C 506.79249,828.58413 510.49843,821.73965 514.18624,814.88594 C 519.09074,805.73067 523.92525,796.53357 528.40591,787.16189 C 531.91769,779.72464 535.24131,772.13535 537.36299,764.1702 C 538.23138,760.26305 539.24124,756.12929 538.23553,752.16963 C 537.22609,750.31039 536.28907,748.74586 534.20213,747.92264 C 531.65578,747.00778 528.93605,746.4066 526.74824,744.7401 C 523.29862,741.08343 522.42651,736.94266 523.61013,731.97707 C 525.81389,723.44981 529.82063,715.59223 533.623,707.68609 C 538.1461,698.24136 542.7656,688.84212 547.16305,679.33776 C 548.654,676.03239 550.5711,672.70466 551.16687,669.11717 L 563.06484,670.39291 z "
       id="path3413"
       style="color:#000000;fill:#000000;fill-opacity:1;fill-rule:nonzero;stroke:none;stroke-width:1px;stroke-linecap:butt;stroke-linejoin:miter;marker:none;marker-start:none;marker-mid:none;marker-end:none;stroke-miterlimit:4;stroke-dasharray:none;stroke-dashoffset:0;stroke-opacity:1;visibility:visible;display:inline;overflow:visible" />
    <path
       style="color:#000000;fill:#000000;fill-opacity:1;fill-rule:nonzero;stroke:none;stroke-width:1px;stroke-linecap:butt;stroke-linejoin:miter;marker:none;marker-start:none;marker-mid:none;marker-end:none;stroke-miterlimit:4;stroke-dasharray:none;stroke-dashoffset:0;stroke-opacity:1;visibility:visible;display:inline;overflow:visible"
       d="M 448.33675,638.00512 C 396.37357,706.78333 358.06011,784.49208 320.6555,861.77319 C 307.66548,880.35673 329.34228,883.08538 334.721,855.30507 C 368.50969,781.09932 407.44769,708.81478 456.29538,643.3447 C 460.42714,638.49184 451.63046,636.14187 448.33675,638.00512 z "
       id="path3415"
       sodipodi:nodetypes="ccccc" />
    <path
       d="M 343.00352,881.12106 C 337.15324,879.90539 333.87023,881.6196 337.09977,874.90305 C 341.03047,867.01916 344.61468,858.96338 348.48743,851.04764 C 358.45085,830.94836 368.883,811.08476 379.37883,791.25958 C 391.21458,768.8861 403.74746,746.88418 416.91466,725.26822 C 425.37229,711.94834 433.53043,698.27107 443.77665,686.21102 C 450.31893,678.40301 459.67647,671.14122 466.10784,681.84571 C 469.23246,689.48947 469.77259,697.8908 470.42314,706.0432 C 471.14599,716.64378 471.92653,727.23896 473.04469,737.80607 C 474.01182,746.683 475.15448,755.55809 477.28923,764.2375 C 478.4915,769.16231 479.62739,771.96801 484.7816,771.96714 C 490.55451,771.43965 495.96598,769.26114 501.1954,766.88706 C 505.78966,764.6122 510.12701,761.96007 515.18081,760.95891 C 519.95437,760.92373 522.48305,763.80556 524.18724,767.91344 C 525.72504,773.411 524.30031,778.79861 522.67457,784.09633 C 518.39971,796.1298 512.94269,807.71171 507.64149,819.31943 C 502.89967,829.6395 498.1226,839.94348 493.31292,850.23211 L 481.94398,851.01175 C 486.94925,840.79701 491.77358,830.49425 496.57719,820.18345 C 501.81128,808.82565 507.06957,797.44068 511.30721,785.66674 C 512.63069,781.56542 514.13897,777.37625 513.55603,773.00638 C 512.04998,772.09879 513.89272,771.03464 511.28472,772.06237 C 506.9887,774.06356 502.83049,776.35658 498.44122,778.15769 C 492.36499,780.55887 486.02022,782.67199 479.39743,782.28385 C 472.03961,780.9948 468.50155,776.17556 466.81449,769.07903 C 464.60073,760.10595 463.42212,750.93187 462.43988,741.75076 C 461.32984,731.14362 460.45,720.51601 459.69454,709.87796 C 459.07523,702.5074 458.66082,694.94924 456.1507,687.9335 C 450.01668,687.6511 463.20609,681.53791 455.12833,687.1761 C 444.29929,698.52012 436.07828,712.03436 427.55672,725.11948 C 414.16375,746.52435 401.53313,768.4047 389.77632,790.75164 C 379.38865,810.44754 369.09088,830.19965 359.48975,850.29371 C 355.76416,858.17294 352.2135,866.13343 348.89068,874.19113 C 346.82988,878.12476 345.14671,883.441 339.21337,882.27911 L 343.00352,881.12106 z "
       id="path3417"
       style="color:#000000;fill:#000000;fill-opacity:1;fill-rule:nonzero;stroke:none;stroke-width:1px;stroke-linecap:butt;stroke-linejoin:miter;marker:none;marker-start:none;marker-mid:none;marker-end:none;stroke-miterlimit:4;stroke-dasharray:none;stroke-dashoffset:0;stroke-opacity:1;visibility:visible;display:inline;overflow:visible"
       sodipodi:nodetypes="ccccccccccccccccccccccccccccccccccc" />
    <path
       style="color:#000000;fill:#000000;fill-opacity:1;fill-rule:nonzero;stroke:none;stroke-width:1px;stroke-linecap:butt;stroke-linejoin:miter;marker:none;marker-start:none;marker-mid:none;marker-end:none;stroke-miterlimit:4;stroke-dasharray:none;stroke-dashoffset:0;stroke-opacity:1;visibility:visible;display:inline;overflow:visible"
       id="path3419"
       d="M 483.75186,850.12419 C 482.54408,849.3119 481.36591,848.47167 480.14313,847.67234 C 478.31602,846.48219 476.42054,845.4158 474.45203,844.4814 C 472.69917,843.55706 471.06488,843.67286 469.20866,843.98642 C 467.37669,844.49945 465.96447,845.69369 464.6064,846.96303 C 478.11976,835.76156 467.17041,845.53192 464.23425,848.83597 C 461.0116,852.56526 457.70928,856.22565 454.4979,859.9645 C 453.60091,861.45516 451.66286,863.33456 450.8064,863.9482 C 450.539,862.74142 451.17867,863.00497 452.52308,862.67713 C 454.73344,862.04431 456.58045,860.70423 458.36914,859.31166 C 460.55917,857.35646 462.94942,856.19678 465.83877,855.89003 C 469.34851,856.19233 471.36288,858.43943 472.77864,861.44408 C 473.62931,863.9983 473.26963,866.60673 472.81088,869.19377 C 472.46034,870.45932 472.30648,871.75391 472.14934,873.04708 C 471.66494,872.38349 472.67424,872.19158 472.89636,871.8295 C 474.29826,870.97071 475.6203,869.9939 476.95404,869.03354 C 479.57642,866.93898 482.52676,867.12189 485.65946,867.59073 C 488.65324,868.28086 491.53433,869.37053 494.46885,870.26976 C 497.23554,871.12815 500.07339,871.66154 502.95064,871.94283 C 505.39906,872.19728 507.55904,871.61988 509.70747,870.54545 C 515.10648,865.64492 500.55307,877.94332 506.56972,872.61012 C 507.65798,870.70194 507.39352,868.62484 507.0466,866.54682 C 506.53633,864.08076 505.26338,861.98108 503.76504,860.00472 C 502.35767,858.27719 500.54494,856.98959 498.73872,855.71971 L 507.70701,846.49357 C 509.98668,848.18713 512.19566,849.98907 513.96095,852.23624 C 516.0035,854.98662 517.79899,857.90078 518.70123,861.2454 C 519.54248,864.48565 520.00176,867.79866 519.33839,871.12223 C 517.6178,877.2217 512.60694,881.45171 506.2718,882.91617 C 503.07842,883.49309 499.8711,883.66857 496.65214,883.085 C 493.44443,882.519 490.26719,881.80228 487.17122,880.77466 C 484.67708,879.97678 482.17004,878.95985 479.52952,878.87355 C 477.75084,879.46794 476.53581,880.65246 474.92351,881.73218 C 472.75047,882.85988 470.51975,883.85623 468.01454,883.79623 C 465.01169,883.46599 462.58691,882.33424 461.00692,879.61611 C 459.9206,877.0392 459.51685,874.49086 460.20155,871.71706 C 460.53824,870.17373 460.89583,868.63385 461.1422,867.0737 C 461.2935,867.41175 461.73337,867.74386 461.59614,868.08785 C 460.02919,869.56062 458.30607,870.90045 456.42122,871.9704 C 453.55545,873.39806 450.59009,874.53624 447.3271,874.44099 C 443.75978,874.09454 440.68343,872.92769 439.0952,869.43375 C 437.97061,865.56298 439.35854,862.34898 441.83805,859.27663 C 444.9582,855.37543 448.41294,851.76187 451.632,847.94314 C 456.12907,842.66375 459.94598,837.68606 466.31447,834.22784 C 468.87628,833.00329 471.50472,832.07867 474.39648,832.20371 C 477.28974,832.4441 480.03581,833.11543 482.5961,834.54725 C 484.72754,835.67429 486.81445,836.87947 488.86557,838.14773 C 490.01629,838.84219 492.34433,840.2605 489.46819,838.36234 L 483.75186,850.12419 z " />
    <path
       style="color:#000000;fill:#5d4427;fill-opacity:1;fill-rule:nonzero;stroke:none;stroke-width:1px;stroke-linecap:butt;stroke-linejoin:miter;marker:none;marker-start:none;marker-mid:none;marker-end:none;stroke-miterlimit:4;stroke-dasharray:none;stroke-dashoffset:0;stroke-opacity:1;visibility:visible;display:inline;overflow:visible"
       d="M 562.93009,650.73772 C 560.90344,650.78729 558.95241,650.95474 557.13108,651.41006 C 553.26741,652.37598 549.10899,654.38788 546.9198,655.48617 C 545.0016,657.88392 543.43284,659.77567 544.23042,662.96605 C 544.64339,664.61794 545.43825,665.94304 546.1634,667.25227 C 545.16794,667.44338 544.16955,667.65273 543.17985,667.88258 C 528.0246,673.04613 511.73384,680.11364 504.14166,695.19673 C 480.80405,724.48474 459.82207,755.79517 442.41168,788.94728 C 431.799,813.64518 426.08591,840.36403 412.61827,863.83005 C 409.24881,871.72699 406.36354,891.26354 393.45633,883.70635 C 377.41886,877.25521 360.25188,893.85154 358.41017,908.83537 C 364.83885,912.48434 377.39878,908.5122 375.51304,919.17273 C 386.49816,920.17014 397.60884,911.95523 407.28149,921.27381 C 427.4048,920.84148 413.55917,897.16651 421.779,886.64786 C 431.94442,867.51182 440.90511,847.82813 451.44637,828.86795 C 465.12704,802.51947 479.98592,776.81714 494.89688,751.16972 C 502.60442,734.64682 507.35604,714.42886 524.3121,704.65164 C 542.11295,700.32929 543.45439,723.8206 542.21338,736.08391 C 543.54499,752.38986 546.78364,768.52376 550.49167,784.40893 C 557.98341,804.4004 580.96853,783.23324 591.21073,793.65373 C 593.4791,808.92457 580.95079,821.11277 575.4946,834.41482 C 571.00218,847.31519 566.25147,864.87087 548.30653,858.78746 C 535.65629,856.28522 520.60463,873.07718 525.40466,884.25263 C 533.52792,879.5443 542.17026,881.55647 543.47403,892.15271 C 550.85343,899.13601 562.15206,885.87301 570.83019,894.75808 C 588.46273,903.39119 594.26302,877.19674 584.82344,866.26733 C 578.2218,849.60846 598.92333,840.28 602.17842,825.17004 C 609.39655,809.37337 621.20599,794.32658 620.4999,776.08864 C 612.29821,763.10951 598.49693,746.52264 610.16254,731.29341 C 618.30738,716.99511 633.45583,704.79058 636.00594,688.13707 C 636.0189,688.12111 636.03495,688.11099 636.04796,688.09506 C 636.05016,688.08059 636.0458,688.0675 636.04796,688.05305 C 636.43401,687.58229 636.84935,687.12556 637.26659,686.70833 C 639.26656,684.70838 641.67755,683.01176 644.07412,680.61518 C 645.34515,679.34413 648.82261,675.71425 648.82258,672.46296 C 648.82258,669.11972 649.11639,665.31892 646.7635,662.96605 C 645.0589,661.26145 641.78986,657.62551 638.61128,656.83086 C 635.10052,655.95316 634.06602,654.14148 629.78671,654.14147 C 625.1835,654.14147 622.31098,654.47556 618.9451,656.15851 C 616.62592,657.31811 614.88615,658.18801 612.13758,659.56228 C 609.48393,660.88911 606.18376,661.40791 602.64066,662.29369 C 599.80254,663.00324 597.65574,662.96605 593.81609,662.96605 C 589.9364,662.96605 586.95291,662.58101 583.60479,660.90698 C 580.88118,659.54518 579.21961,656.72406 576.12494,655.48617 C 574.20004,654.71623 568.91572,650.73769 566.62801,650.73772 C 565.38838,650.73772 564.14607,650.70797 562.93009,650.73772 z "
       id="path2502" />
    <path
       style="color:#000000;fill:#000000;fill-opacity:1;fill-rule:nonzero;stroke:none;stroke-width:1px;stroke-linecap:butt;stroke-linejoin:miter;marker:none;marker-start:none;marker-mid:none;marker-end:none;stroke-miterlimit:4;stroke-dasharray:none;stroke-dashoffset:0;stroke-opacity:1;visibility:visible;display:inline;overflow:visible"
       id="path2304"
       d="M 393.42168,893.59135 C 392.21389,892.77903 391.03573,891.93883 389.81298,891.13947 C 387.98583,889.94934 386.09035,888.88296 384.12184,887.94855 C 382.36899,887.02421 380.73472,887.14 378.87848,887.45357 C 377.04651,887.9666 375.63429,889.16082 374.27622,890.43016 C 387.78957,879.22873 376.84022,888.99905 373.90408,892.30315 C 370.68144,896.03242 367.37912,899.69279 364.1677,903.43166 C 363.27073,904.92229 361.33266,906.80172 360.47623,907.41535 C 360.20881,906.20856 360.84851,906.4721 362.19288,906.14427 C 364.40327,905.51147 366.25028,904.17139 368.03895,902.77882 C 370.22902,900.82359 372.61926,899.66391 375.5086,899.35717 C 379.01834,899.65948 381.03272,901.90656 382.44845,904.91121 C 383.29912,907.46546 382.93944,910.07387 382.48069,912.6609 C 382.13016,913.92645 381.97629,915.22105 381.81915,916.51422 C 381.33475,915.85063 382.34405,915.65872 382.5662,915.29665 C 383.96807,914.43787 385.29011,913.46106 386.62387,912.50071 C 389.24623,910.40616 392.19659,910.58903 395.32927,911.05789 C 398.32307,911.748 401.20417,912.83769 404.13867,913.73691 C 406.90535,914.59531 409.74322,915.12869 412.62046,915.41001 C 415.06889,915.66442 417.22887,915.08705 419.37728,914.01261 C 424.7763,909.11206 410.22288,921.41047 416.23952,916.07726 C 417.3278,914.1691 417.06336,912.09197 416.71641,910.01395 C 416.20615,907.54792 414.93321,905.44822 413.43485,903.47187 C 412.02748,901.74432 410.21476,900.45674 408.40854,899.18685 L 417.37686,889.96073 C 419.65651,891.65428 421.86549,893.4562 423.63078,895.70339 C 425.67331,898.45376 427.46882,901.36794 428.37104,904.71253 C 429.21231,907.95282 429.67157,911.26579 429.00819,914.58939 C 427.28761,920.68886 422.27678,924.91886 415.9416,926.3833 C 412.74825,926.96025 409.54091,927.13575 406.32197,926.55215 C 403.11426,925.98616 399.93702,925.26944 396.84104,924.2418 C 394.34692,923.44394 391.83985,922.42699 389.19935,922.34072 C 387.42063,922.93507 386.20563,924.1196 384.59334,925.19934 C 382.42029,926.32704 380.18956,927.32339 377.68437,927.26336 C 374.6815,926.93312 372.25673,925.80138 370.67676,923.08327 C 369.59041,920.50635 369.18668,917.95799 369.87139,915.1842 C 370.20806,913.64089 370.56566,912.10099 370.81202,910.54085 C 370.96334,910.87889 371.40319,911.211 371.26597,911.55501 C 369.69901,913.02775 367.9759,914.36762 366.09103,915.43755 C 363.22528,916.86522 360.25991,918.00339 356.99691,917.90814 C 353.42959,917.5617 350.35327,916.39484 348.76501,912.9009 C 347.64042,909.03013 349.02837,905.81613 351.5079,902.74377 C 354.62803,898.84258 358.08274,895.22902 361.30181,891.4103 C 365.7989,886.1309 369.61579,881.15319 375.98429,877.695 C 378.54609,876.47042 381.17454,875.54582 384.06628,875.67084 C 386.95957,875.91123 389.70561,876.58259 392.26591,878.0144 C 394.39735,879.14145 396.48426,880.3466 398.53541,881.61486 C 399.6861,882.30936 402.01415,883.72765 399.13802,881.82949 L 393.42168,893.59135 z " />
    <path
       style="color:#000000;fill:#000000;fill-opacity:1;fill-rule:nonzero;stroke:none;stroke-width:1px;stroke-linecap:butt;stroke-linejoin:miter;marker:none;marker-start:none;marker-mid:none;marker-end:none;stroke-miterlimit:4;stroke-dasharray:none;stroke-dashoffset:0;stroke-opacity:1;visibility:visible;display:inline;overflow:visible"
       id="path2394"
       d="M 651.31031,671.58774 C 650.27686,671.12531 635.08325,694.5863 634.02718,696.81096 C 629.46765,706.2939 624.8224,715.73535 620.29594,725.2343 C 616.74321,732.82536 612.87387,740.3135 610.44193,748.35887 C 609.34565,750.80969 609.85427,752.81878 610.57207,754.78908 C 612.88946,755.21245 615.00987,756.1543 617.11794,757.15689 C 620.2714,758.84686 622.23876,761.57005 623.85659,764.65773 C 625.94844,769.71064 625.11636,775.09431 624.13306,780.3057 C 622.2131,788.77123 618.7497,796.79645 615.12597,804.65304 C 610.6487,814.11839 605.81366,823.40915 600.94528,832.67769 C 597.3509,839.48852 593.73572,846.28841 590.27853,853.17026 C 588.19627,857.32448 586.25276,861.54513 584.36425,865.79007 C 583.57591,867.55138 582.83939,869.3349 582.09197,871.11373 L 570.38382,872.3763 C 571.1101,870.50284 571.85608,868.63733 572.67089,866.79985 C 574.58104,862.44894 576.55847,858.12651 578.70108,853.88422 C 582.18082,846.92183 585.88677,840.07735 589.57458,833.22364 C 594.47908,824.06838 599.31358,814.87129 603.79423,805.49959 C 607.30602,798.06233 610.62963,790.47305 612.75133,782.5079 C 613.6197,778.60077 614.62958,774.46699 613.62387,770.50733 C 612.61441,768.6481 611.6774,767.08356 609.59048,766.26035 C 607.04411,765.34548 604.32437,764.74432 602.13656,763.0778 C 598.68694,759.42116 597.81484,755.28037 598.99845,750.31478 C 601.20224,741.78751 605.20895,733.92992 609.01133,726.02377 C 613.53442,716.57908 618.15393,707.17982 622.55137,697.67546 C 630.11378,682.94152 639.53086,673.54236 640.12662,669.95489 L 651.31031,671.58774 z "
       sodipodi:nodetypes="ccccccccccccccccccccccccccc" />
    <path
       style="color:#000000;fill:#000000;fill-opacity:1;fill-rule:nonzero;stroke:none;stroke-width:1px;stroke-linecap:butt;stroke-linejoin:miter;marker:none;marker-start:none;marker-mid:none;marker-end:none;stroke-miterlimit:4;stroke-dasharray:none;stroke-dashoffset:0;stroke-opacity:1;visibility:visible;display:inline;overflow:visible"
       id="path2396"
       d="M 388.8329,892.8691 C 391.75144,888.40364 394.68273,883.28028 397.09422,878.28756 C 406.04542,858.91092 415.53083,839.79239 425.30968,820.82187 C 438.80709,794.64228 452.87062,768.76036 467.22644,743.04299 C 472.31511,733.93555 477.45905,724.85915 482.64181,715.80492 L 493.29263,715.50882 C 487.96851,724.53026 482.69523,733.58164 477.51214,742.685 C 462.9867,768.23075 448.93801,794.04654 435.63077,820.24997 C 426.03639,839.08648 416.71221,858.06871 408.22827,877.43541 C 406.40136,881.56785 402.91923,890.11265 400.77589,892.14572 L 388.8329,892.8691 z " />
    <path
       style="color:#000000;fill:#000000;fill-opacity:1;fill-rule:nonzero;stroke:none;stroke-width:1px;stroke-linecap:butt;stroke-linejoin:miter;marker:none;marker-start:none;marker-mid:none;marker-end:none;stroke-miterlimit:4;stroke-dasharray:none;stroke-dashoffset:0;stroke-opacity:1;visibility:visible;display:inline;overflow:visible"
       id="path2388"
       d="M 419.83259,889.85377 C 413.98233,888.6381 409.25855,899.9573 412.48809,893.24077 C 416.41879,885.35687 420.003,877.3011 423.87575,869.38534 C 433.83917,849.28606 444.27134,829.42248 454.76716,809.59728 C 466.60292,787.2238 479.13578,765.22188 492.30298,743.60593 C 500.76062,730.28605 508.91875,716.60877 519.16498,704.54874 C 525.70725,696.74073 535.06479,689.47893 541.49616,700.18341 C 544.62078,707.82719 545.16093,716.22852 545.81148,724.38092 C 546.53431,734.9815 547.31486,745.57668 548.43303,756.1438 C 549.40014,765.02071 550.5428,773.89579 552.67755,782.57518 C 553.87982,787.50002 555.01573,790.30573 560.16992,790.30484 C 565.94285,789.77736 571.35431,787.59886 576.58374,785.22476 C 581.17798,782.9499 585.51535,780.29777 590.56913,779.29661 C 595.34271,779.26145 597.87137,782.14326 599.57558,786.25115 C 601.11336,791.7487 599.68863,797.13633 598.06292,802.43403 C 593.78803,814.46752 588.33103,826.04942 583.02981,837.65713 C 578.28799,847.9772 573.51092,858.28118 568.70126,868.5698 L 557.33231,869.34946 C 562.33757,859.13469 567.1619,848.83195 571.96553,838.52116 C 577.19962,827.16336 582.45791,815.7784 586.69553,804.00444 C 588.01901,799.90311 589.52731,795.71393 588.94437,791.34408 C 587.43831,790.43651 589.28106,789.37235 586.67304,790.40008 C 582.37702,792.40126 578.21883,794.69431 573.82954,796.49538 C 567.75333,798.89658 561.40854,801.00972 554.78577,800.62157 C 547.42796,799.33252 543.88988,794.51328 542.20282,787.41673 C 539.98906,778.44367 538.81045,769.26957 537.8282,760.08847 C 536.71818,749.4813 535.83832,738.85371 535.08287,728.21566 C 534.46355,720.8451 534.04916,713.28695 531.53904,706.27121 C 525.405,705.98882 538.59441,699.8756 530.51665,705.51378 C 519.68762,716.85784 511.46663,730.37204 502.94504,743.45718 C 489.55207,764.86203 476.92147,786.74239 465.16466,809.08935 C 454.77699,828.78526 444.47921,848.53734 434.87809,868.63141 C 431.15248,876.51064 427.60182,884.47114 424.27901,892.52883 C 422.21821,896.46247 420.53504,901.77871 414.60169,900.6168 L 419.83259,889.85377 z " />
    <path
       d="M 559.1402,868.46191 C 557.93241,867.64961 556.75423,866.80938 555.53147,866.01004 C 553.70435,864.81989 551.80887,863.75352 549.84035,862.81911 C 548.0875,861.89478 546.45322,862.01056 544.597,862.32411 C 542.76503,862.83717 541.35279,864.03139 539.99474,865.30073 C 553.5081,854.09928 542.55873,863.8696 539.62259,867.17369 C 536.39995,870.90298 533.09761,874.56333 529.88622,878.30221 C 528.98923,879.79284 527.05118,881.67227 526.19473,882.2859 C 525.92733,881.07914 526.56702,881.34265 527.9114,881.01484 C 530.12177,880.38201 531.96879,879.04193 533.75746,877.64936 C 535.94751,875.69418 538.33777,874.53448 541.2271,874.22772 C 544.73685,874.53003 546.75121,876.77712 548.16696,879.78178 C 549.01763,882.33601 548.65795,884.94441 548.1992,887.53147 C 547.84867,888.797 547.69481,890.09162 547.53767,891.38477 C 547.05326,890.72119 548.06257,890.52928 548.28469,890.16719 C 549.68658,889.30842 551.00864,888.3316 552.34236,887.37125 C 554.96476,885.2767 557.91509,885.45959 561.04779,885.92844 C 564.04159,886.61856 566.92266,887.70825 569.85718,888.60748 C 572.62386,889.46586 575.46173,889.99925 578.33898,890.28055 C 580.78739,890.53496 582.94738,889.95759 585.0958,888.88315 C 590.49482,883.9826 575.94139,896.28103 581.95804,890.94783 C 583.04632,889.03967 582.78184,886.96254 582.43492,884.88453 C 581.92467,882.41848 580.65171,880.31878 579.15336,878.34242 C 577.74601,876.61487 575.93328,875.32728 574.12704,874.05743 L 583.09535,864.83128 C 585.37502,866.52485 587.58399,868.32677 589.34928,870.57393 C 591.39184,873.32432 593.18733,876.2385 594.08957,879.5831 C 594.93081,882.82337 595.39008,886.13638 594.72671,889.45994 C 593.00612,895.5594 587.99527,899.7894 581.66012,901.25386 C 578.46674,901.83081 575.25943,902.00629 572.04047,901.42269 C 568.83277,900.85672 565.65552,900.14 562.55955,899.11234 C 560.06543,898.3145 557.55836,897.29753 554.91785,897.21128 C 553.13916,897.80564 551.92414,898.99018 550.31184,900.0699 C 548.13881,901.19759 545.90808,902.19394 543.40288,902.13395 C 540.40001,901.80367 537.97523,900.67194 536.39527,897.95381 C 535.30892,895.3769 534.90519,892.82856 535.58988,890.05477 C 535.92657,888.51144 536.28415,886.97158 536.53052,885.4114 C 536.68184,885.74946 537.12169,886.08156 536.98448,886.42557 C 535.41752,887.89832 533.69439,889.23816 531.80954,890.3081 C 528.94379,891.73576 525.97841,892.87397 522.71544,892.77869 C 519.1481,892.43225 516.07176,891.26539 514.48352,887.77148 C 513.35893,883.90068 514.74687,880.6867 517.2264,877.61433 C 520.34654,873.71313 523.80126,870.09958 527.02033,866.28086 C 531.5174,861.00144 535.3343,856.02375 541.70281,852.56555 C 544.26461,851.34097 546.89306,850.41637 549.7848,850.54141 C 552.67807,850.7818 555.42413,851.45315 557.98442,852.88496 C 560.11586,854.01199 562.20278,855.21715 564.2539,856.48543 C 565.40461,857.1799 567.73265,858.59819 564.85653,856.70004 L 559.1402,868.46191 z "
       id="path2420"
       style="color:#000000;fill:#000000;fill-opacity:1;fill-rule:nonzero;stroke:none;stroke-width:1px;stroke-linecap:butt;stroke-linejoin:miter;marker:none;marker-start:none;marker-mid:none;marker-end:none;stroke-miterlimit:4;stroke-dasharray:none;stroke-dashoffset:0;stroke-opacity:1;visibility:visible;display:inline;overflow:visible" />
    <path
       style="opacity:1;color:#000000;fill:#000000;fill-opacity:1;fill-rule:nonzero;stroke:none;stroke-width:1px;stroke-linecap:butt;stroke-linejoin:miter;marker:none;marker-start:none;marker-mid:none;marker-end:none;stroke-miterlimit:4;stroke-dasharray:none;stroke-dashoffset:0;stroke-opacity:1;visibility:visible;display:inline;overflow:visible"
       id="path3547"
       d="M 631.24709,659.50997 C 634.45418,659.78507 630.17402,661.11721 629.26272,661.5204 C 624.43489,663.63811 619.49651,665.49392 614.49967,667.1697 C 608.37743,669.30115 602.05632,670.02626 595.62851,669.43024 C 589.45932,668.71326 583.79653,666.12486 578.24667,663.49236 C 573.29238,661.04752 568.25204,658.76839 562.85196,657.53606 C 556.72319,656.61769 550.67428,658.27607 544.97154,660.39451 C 545.25126,660.0511 528.17321,670.26906 528.27,670.20024 C 538.09086,663.22033 532.20666,667.38156 530.09245,668.98756 C 524.12677,673.67217 518.66812,678.94943 513.41623,684.40996 C 508.28046,689.69724 502.98658,696.5206 495.11794,696.34358 C 490.05552,694.64373 488.16392,690.0916 486.64016,685.34326 C 485.06124,679.88887 484.36409,674.23928 483.71433,668.61416 C 483.15239,663.35124 482.7583,658.07234 482.29495,652.80015 C 481.9259,648.89768 481.53321,644.99737 481.12027,641.09933 L 492.09662,637.00588 C 492.50879,640.93966 492.88098,644.87728 493.26019,648.8144 C 493.72783,654.05571 494.1161,659.30356 494.60206,664.54309 C 495.16977,669.82016 495.76614,675.12255 497.15447,680.25863 C 497.73957,682.12682 498.46805,685.61104 500.11477,685.64094 C 504.23558,681.87291 491.79415,692.20652 501.87937,683.29446 C 507.29258,677.66879 512.78893,672.10749 518.8144,667.12746 C 527.71013,659.86197 537.15491,653.07907 548.10958,649.3314 C 554.95958,647.28896 562.11287,645.9572 569.17988,647.77287 C 574.86822,649.43025 580.25948,651.84919 585.56238,654.47924 C 590.5199,656.76305 595.5938,658.94384 601.12986,659.18818 C 606.83695,659.26983 612.36577,658.06862 617.69804,656.034 C 622.51003,654.25109 627.28925,652.35749 631.85967,650.01165 C 633.77995,648.96847 634.52869,648.1087 636.47797,648.74693 L 631.24709,659.50997 z " />
    <path
       style="opacity:1;color:#000000;fill:#000000;fill-opacity:1;fill-rule:nonzero;stroke:none;stroke-width:1px;stroke-linecap:butt;stroke-linejoin:miter;marker:none;marker-start:none;marker-mid:none;marker-end:none;stroke-miterlimit:4;stroke-dasharray:none;stroke-dashoffset:0;stroke-opacity:1;visibility:visible;display:inline;overflow:visible"
       id="path3631"
       d="M 482.81224,648.42343 C 483.04199,643.5798 483.09398,638.72738 483.13341,633.87888 C 483.2187,613.26413 482.36874,592.66052 481.68325,572.06109 C 480.81571,547.31692 480.15007,522.56234 478.83326,497.83646 C 477.95046,487.17336 478.00416,476.2611 475.43381,465.81324 C 473.50691,464.5167 479.93964,463.60576 482.58038,461.5707 C 480.37774,463.82423 479.26335,466.94836 478.02336,469.81656 C 476.43652,473.52561 475.08648,477.32809 473.59822,481.07582 C 470.94209,487.81461 464.63788,491.78897 459.30971,486.44827 C 457.50851,483.88523 456.95804,480.8353 456.45287,477.80741 C 456.06506,474.62877 455.69531,471.45151 455.20011,468.28784 C 454.91025,465.8393 454.00552,463.62086 452.97464,461.4329 C 452.09401,460.84724 451.77868,461.93065 451.16008,462.73457 C 453.17721,463.67779 458.67644,455.79595 452.6742,462.58165 C 450.82209,464.89981 449.69959,467.62639 448.63344,470.36222 C 447.52331,473.36389 446.9713,476.52193 446.31503,479.64246 C 444.61952,488.42833 435.45432,490.98194 427.64368,491.64725 C 413.60101,492.28611 399.53097,491.90456 385.48064,491.71481 C 365.29804,491.26905 345.11151,491.39112 324.93787,492.12535 C 311.93084,492.66282 298.84732,493.18232 286.09076,495.94667 C 267.14519,505.01496 285.39396,492.85638 279.1203,498.96945 C 275.06869,505.52155 275.58764,513.90987 275.54579,521.36426 C 275.58319,535.01028 276.31261,548.64098 277.13793,562.25821 C 277.83115,573.19766 278.50913,584.13804 279.1812,595.07882 C 279.57318,601.18042 279.9116,607.28731 280.60863,613.36271 C 280.6743,616.13043 281.58409,617.95272 283.22395,619.84586 C 287.36346,621.17671 291.89478,620.71347 296.19257,620.60461 C 308.12798,620.18272 320.0672,619.86163 332.00956,619.73476 C 351.87006,619.53876 371.73293,620.00211 391.58109,620.6768 C 407.50786,621.2713 423.43066,622.018 439.3409,622.9609 C 446.98666,623.53022 454.96474,623.66482 461.97615,627.08006 C 466.09467,629.58453 467.36141,633.19493 466.87842,637.78222 C 464.99215,644.28122 459.69716,647.21421 454.38277,651.07067 C 451.40519,652.87257 448.15396,654.06842 444.8329,655.04873 L 448.18232,643.76122 C 450.92205,642.59019 453.63892,641.34244 455.93505,639.39656 C 443.68927,648.32391 452.80499,642.37956 455.17563,639.34467 C 456.0123,637.49114 456.43527,637.38822 454.5018,636.11303 C 447.98116,633.71836 440.94774,633.48803 434.08106,632.91363 C 418.30185,631.79445 402.50572,630.89065 386.69887,630.2718 C 366.91449,629.55134 347.10892,629.15202 327.31354,629.62813 C 315.30186,629.92635 303.30282,630.5156 291.29966,631.03455 C 285.69612,631.14152 279.80724,631.54137 274.9604,628.26375 C 271.81209,625.31897 270.13227,621.95583 269.70236,617.59704 C 268.89565,611.36269 268.71387,605.07329 268.35369,598.80214 C 267.79222,587.83211 267.24817,576.86117 266.5875,565.89643 C 265.8089,552.18088 265.057,538.46041 264.83366,524.72215 C 264.7158,516.16372 264.23617,507.12241 267.44288,499.03152 C 272.07146,490.65437 281.01263,486.78117 290.00602,485.19033 C 303.0679,483.06754 316.31433,482.65506 329.5235,482.29034 C 349.76779,481.77299 370.01707,481.7423 390.26594,481.99102 C 404.17918,482.06746 418.16558,482.38646 432.02564,481.02183 C 445.91156,478.2857 427.54901,485.72707 434.66733,481.44377 C 435.58747,478.32024 436.09357,475.09889 436.97037,471.95623 C 438.00398,468.68998 439.13346,465.44085 440.88756,462.47771 C 444.0301,457.39447 447.91493,453.48734 453.8028,451.19884 C 457.46848,450.81307 460.39875,451.45927 462.68097,454.6739 C 464.28524,457.52304 465.53404,460.48227 466.06259,463.74754 C 466.64615,466.98908 467.08436,470.24791 467.43143,473.52365 C 467.7031,475.43646 467.89349,477.40154 468.69628,479.1808 C 465.23839,476.15452 457.33321,483.86706 461.83047,481.72759 C 463.66002,478.28492 464.93456,474.61059 466.36186,470.97754 C 467.72719,467.57457 469.12206,464.18136 470.76439,460.90015 C 477.4636,455.33012 482.56003,451.12011 486.02124,460.89805 C 488.60867,471.83646 488.3519,483.22794 489.07708,494.38003 C 490.03257,519.17996 490.47975,543.99724 491.52007,568.79434 C 492.34257,589.35947 493.3783,609.91782 493.85247,630.49532 C 493.96843,635.28646 494.00909,640.082 494.23745,644.86926 L 482.81224,648.42343 z " />
    <g
       id="g4864"
       transform="matrix(0.818291,0,0,0.804334,6.896362,100.8746)">
      <path
         style="color:#000000;fill:#ffffff;fill-opacity:1;fill-rule:nonzero;stroke:none;stroke-width:1px;stroke-linecap:butt;stroke-linejoin:miter;marker:none;marker-start:none;marker-mid:none;marker-end:none;stroke-miterlimit:4;stroke-dasharray:none;stroke-dashoffset:0;stroke-opacity:1;visibility:visible;display:inline;overflow:visible"
         d="M 443.00446,512.98661 C 440.71779,513.00839 438.41373,513.09826 436.12946,513.23661 C 411.27019,517.37561 386.13396,513.29928 361.12946,514.11161 C 352.41989,530.47031 348.17979,550.26193 354.97321,567.98661 C 358.75592,577.69636 367.44228,584.65206 376.97321,588.29911 C 390.3495,595.17727 406.44255,599.97254 421.16071,594.48661 C 436.31453,588.94739 448.2275,576.46793 455.44196,562.29911 C 461.27186,548.7219 460.41246,532.05857 452.12946,519.67411 C 450.30315,517.42889 448.11463,515.40049 446.50446,512.98661 C 445.33349,512.98158 444.17515,512.97546 443.00446,512.98661 z "
         id="path4866" />
      <path
         style="color:#000000;fill:#000000;fill-opacity:1;fill-rule:nonzero;stroke:none;stroke-width:1px;stroke-linecap:butt;stroke-linejoin:miter;marker:none;marker-start:none;marker-mid:none;marker-end:none;stroke-miterlimit:4;stroke-dasharray:none;stroke-dashoffset:0;stroke-opacity:1;visibility:visible;display:inline;overflow:visible"
         d="M 443.41071,512.98661 C 452.11003,522.54165 457.13832,535.40627 455.47321,548.39286 C 451.88041,569.14971 433.78919,585.38797 413.69196,589.98661 C 400.9856,593.02375 387.15673,590.85748 375.81696,584.48661 C 356.08876,572.49219 347.31638,543.92946 359.81696,523.83036 C 361.82916,520.30165 364.27544,516.99518 367.06696,514.01786 C 364.52515,514.03034 361.98099,514.0687 359.44196,514.17411 C 350.92029,525.12685 345.92613,538.76142 346.66071,552.76786 C 350.07878,581.79621 380.96522,604.07707 409.59821,598.20536 C 429.72722,595.80576 450.262,584.9386 459.09821,565.95536 C 465.96397,548.79781 463.12816,528.40101 453.03571,513.04911 C 449.82341,513.02372 446.62256,512.9625 443.41071,512.98661 z "
         id="path4868" />
      <path
         d="M 400.62915,545.23307 C 400.07711,544.74713 401.12708,543.58903 401.55283,542.88461 C 394.98774,552.9747 400.1741,544.98219 401.13874,541.83336 C 401.64985,539.91571 400.88618,540.51177 400.05065,539.72605 C 398.09863,540.03138 397.02927,541.1969 395.9729,542.74492 C 401.52502,535.56963 397.95182,538.2611 397.76601,542.53004 C 397.94884,544.60407 398.84543,544.50935 400.02752,545.01989 C 402.357,544.01709 403.86009,542.17509 405.21077,540.10818 C 399.00707,548.76676 401.48082,545.24105 402.88856,543.34454 L 411.98575,541.40518 C 410.60087,544.41414 409.71011,546.46408 406.86794,549.25459 C 404.16323,551.86751 401.23361,554.00833 397.30088,553.95637 C 393.67091,553.13107 391.24495,551.32209 389.97843,547.68251 C 388.36368,541.62217 390.16294,538.45416 394.69426,533.49471 C 397.41399,531.61953 400.22776,530.40638 403.60599,531.07346 C 406.93343,532.28005 409.24539,534.20647 409.62923,537.94428 C 409.51317,543.58436 406.94935,547.61395 403.35261,552.04954 C 402.21956,553.27584 401.17524,554.47695 399.43866,554.64593 L 400.62915,545.23307 z "
         id="path4870"
         style="color:#000000;fill:#000000;fill-opacity:1;fill-rule:nonzero;stroke:none;stroke-width:1px;stroke-linecap:butt;stroke-linejoin:miter;marker:none;marker-start:none;marker-mid:none;marker-end:none;stroke-miterlimit:4;stroke-dasharray:none;stroke-dashoffset:0;stroke-opacity:1;visibility:visible;display:inline;overflow:visible" />
      <path
         style="opacity:1;color:#000000;fill:#000000;fill-opacity:1;fill-rule:nonzero;stroke:none;stroke-width:1px;stroke-linecap:butt;stroke-linejoin:miter;marker:none;marker-start:none;marker-mid:none;marker-end:none;stroke-miterlimit:4;stroke-dasharray:none;stroke-dashoffset:0;stroke-opacity:1;visibility:visible;display:inline;overflow:visible"
         id="path4872"
         d="M 358.78574,508.24275 C 361.98444,508.74546 365.1985,508.91481 368.40544,509.13364 C 381.8287,509.96636 395.26064,509.97191 408.68905,509.90323 C 422.04132,509.81376 435.39271,509.48047 448.7443,509.22083 C 451.20336,509.17787 453.66236,509.12664 456.12133,509.06767 L 454.37407,516.23858 C 451.93277,516.21555 449.4915,516.18791 447.05021,516.1653 C 433.75193,516.0533 420.45355,516.1004 407.15527,516.1927 C 393.6452,516.2875 380.1348,516.40719 366.62479,516.2158 C 363.36018,516.1755 360.08821,516.05716 356.82616,516.24576 L 358.78574,508.24275 z " />
    </g>
    <path
       sodipodi:nodetypes="cccccccccccccccsccccccccccccc"
       style="color:#000000;fill:#000000;fill-opacity:1;fill-rule:nonzero;stroke:none;stroke-width:1px;stroke-linecap:butt;stroke-linejoin:miter;marker:none;marker-start:none;marker-mid:none;marker-end:none;stroke-miterlimit:4;stroke-dasharray:none;stroke-dashoffset:0;stroke-opacity:1;visibility:visible;display:inline;overflow:visible"
       id="path3529"
       d="M 644.98586,676.05582 C 636.50059,690.54267 643.87346,678.54014 649.74558,672.5384 C 665.6758,656.04377 683.51005,634.45676 697.27289,616.1425 C 719.89005,586.31854 739.89601,554.60495 756.48089,521.04864 C 772.52462,488.31182 784.58575,453.60717 788.92733,417.31705 C 792.78743,385.17873 786.47108,353.74443 772.33833,324.85819 C 758.46758,297.82429 738.20795,274.94151 717.81037,252.70398 C 699.96488,233.60248 682.56511,214.0328 667.60452,192.558 C 656.66288,177.4768 648.64055,161.0856 647.62752,142.3066 C 647.33976,125.0276 651.24989,107.9491 656.75463,91.6589 C 660.0504,81.7305 664.81533,72.3932 668.67948,62.6929 C 670.72375,57.8399 670.97973,53.9496 667.42214,50.0127 C 664.30816,47.8396 660.65823,47.8058 657.00327,47.8697 C 653.86236,47.9558 650.79384,48.5694 647.75409,49.3109 L 645.95737,60.9392 C 648.54906,60.1573 651.14696,59.383 653.86889,59.2114 C 655.92205,59.0851 657.99659,58.9032 660.03187,59.2701 C 659.35307,60.7748 658.0598,63.6139 657.48361,65.6324 C 653.53859,75.2962 649.20207,84.8208 646.15002,94.8233 C 640.91276,111.8111 637.23324,129.544 638.02539,147.4021 C 639.63514,167.0811 648.33052,184.2498 660.00305,199.9576 C 675.34271,221.422 692.95981,241.07594 710.98124,260.30546 C 731.07627,282.12842 751.02915,304.61618 764.49892,331.29299 C 778.02467,359.40511 783.73241,389.95483 779.73088,421.07867 C 775.14551,456.80481 763.02573,490.93624 746.98706,523.08843 C 732.29015,552.24054 715.04904,580.05573 695.46416,606.18445 C 681.93708,624.12229 667.90607,641.7741 652.09625,657.77332 C 646.45821,663.36372 640.07378,667.8091 638.15139,675.21529 L 644.98586,676.05582 z " />
    <g
       id="g4858"
       transform="matrix(0.818291,0,0,0.804334,89.16669,102.4996)">
      <path
         id="path3743"
         d="M 443.00446,512.98661 C 440.71779,513.00839 438.41373,513.09826 436.12946,513.23661 C 411.27019,517.37561 386.13396,513.29928 361.12946,514.11161 C 352.41989,530.47031 348.17979,550.26193 354.97321,567.98661 C 358.75592,577.69636 367.44228,584.65206 376.97321,588.29911 C 390.3495,595.17727 406.44255,599.97254 421.16071,594.48661 C 436.31453,588.94739 448.2275,576.46793 455.44196,562.29911 C 461.27186,548.7219 460.41246,532.05857 452.12946,519.67411 C 450.30315,517.42889 448.11463,515.40049 446.50446,512.98661 C 445.33349,512.98158 444.17515,512.97546 443.00446,512.98661 z "
         style="color:#000000;fill:#ffffff;fill-opacity:1;fill-rule:nonzero;stroke:none;stroke-width:1px;stroke-linecap:butt;stroke-linejoin:miter;marker:none;marker-start:none;marker-mid:none;marker-end:none;stroke-miterlimit:4;stroke-dasharray:none;stroke-dashoffset:0;stroke-opacity:1;visibility:visible;display:inline;overflow:visible" />
      <path
         id="path3745"
         d="M 443.41071,512.98661 C 452.11003,522.54165 457.13832,535.40627 455.47321,548.39286 C 451.88041,569.14971 433.78919,585.38797 413.69196,589.98661 C 400.9856,593.02375 387.15673,590.85748 375.81696,584.48661 C 356.08876,572.49219 347.31638,543.92946 359.81696,523.83036 C 361.82916,520.30165 364.27544,516.99518 367.06696,514.01786 C 364.52515,514.03034 361.98099,514.0687 359.44196,514.17411 C 350.92029,525.12685 345.92613,538.76142 346.66071,552.76786 C 350.07878,581.79621 380.96522,604.07707 409.59821,598.20536 C 429.72722,595.80576 450.262,584.9386 459.09821,565.95536 C 465.96397,548.79781 463.12816,528.40101 453.03571,513.04911 C 449.82341,513.02372 446.62256,512.9625 443.41071,512.98661 z "
         style="color:#000000;fill:#000000;fill-opacity:1;fill-rule:nonzero;stroke:none;stroke-width:1px;stroke-linecap:butt;stroke-linejoin:miter;marker:none;marker-start:none;marker-mid:none;marker-end:none;stroke-miterlimit:4;stroke-dasharray:none;stroke-dashoffset:0;stroke-opacity:1;visibility:visible;display:inline;overflow:visible" />
      <path
         style="color:#000000;fill:#000000;fill-opacity:1;fill-rule:nonzero;stroke:none;stroke-width:1px;stroke-linecap:butt;stroke-linejoin:miter;marker:none;marker-start:none;marker-mid:none;marker-end:none;stroke-miterlimit:4;stroke-dasharray:none;stroke-dashoffset:0;stroke-opacity:1;visibility:visible;display:inline;overflow:visible"
         id="path3747"
         d="M 400.62915,545.23307 C 400.07711,544.74713 401.12708,543.58903 401.55283,542.88461 C 394.98774,552.9747 400.1741,544.98219 401.13874,541.83336 C 401.64985,539.91571 400.88618,540.51177 400.05065,539.72605 C 398.09863,540.03138 397.02927,541.1969 395.9729,542.74492 C 401.52502,535.56963 397.95182,538.2611 397.76601,542.53004 C 397.94884,544.60407 398.84543,544.50935 400.02752,545.01989 C 402.357,544.01709 403.86009,542.17509 405.21077,540.10818 C 399.00707,548.76676 401.48082,545.24105 402.88856,543.34454 L 411.98575,541.40518 C 410.60087,544.41414 409.71011,546.46408 406.86794,549.25459 C 404.16323,551.86751 401.23361,554.00833 397.30088,553.95637 C 393.67091,553.13107 391.24495,551.32209 389.97843,547.68251 C 388.36368,541.62217 390.16294,538.45416 394.69426,533.49471 C 397.41399,531.61953 400.22776,530.40638 403.60599,531.07346 C 406.93343,532.28005 409.24539,534.20647 409.62923,537.94428 C 409.51317,543.58436 406.94935,547.61395 403.35261,552.04954 C 402.21956,553.27584 401.17524,554.47695 399.43866,554.64593 L 400.62915,545.23307 z " />
      <path
         d="M 358.78574,508.24275 C 361.98444,508.74546 365.1985,508.91481 368.40544,509.13364 C 381.8287,509.96636 395.26064,509.97191 408.68905,509.90323 C 422.04132,509.81376 435.39271,509.48047 448.7443,509.22083 C 451.20336,509.17787 453.66236,509.12664 456.12133,509.06767 L 454.37407,516.23858 C 451.93277,516.21555 449.4915,516.18791 447.05021,516.1653 C 433.75193,516.0533 420.45355,516.1004 407.15527,516.1927 C 393.6452,516.2875 380.1348,516.40719 366.62479,516.2158 C 363.36018,516.1755 360.08821,516.05716 356.82616,516.24576 L 358.78574,508.24275 z "
         id="path4837"
         style="opacity:1;color:#000000;fill:#000000;fill-opacity:1;fill-rule:nonzero;stroke:none;stroke-width:1px;stroke-linecap:butt;stroke-linejoin:miter;marker:none;marker-start:none;marker-mid:none;marker-end:none;stroke-miterlimit:4;stroke-dasharray:none;stroke-dashoffset:0;stroke-opacity:1;visibility:visible;display:inline;overflow:visible" />
    </g>
  </g>
</svg>
